<svg xmlns="http://www.w3.org/2000/svg"  viewBox="0 0 17 17">
<g>
  <path fill="#19426C" fill-rule="evenodd" d="M8.5,-8.8817842e-16 C8.92805601,-8.8817842e-16 9.28979477,0.279773492 9.40714902,0.663864869 C13.1213828,1.10463304 16,4.22107845 16,8 C16,11.7789215 13.1213828,14.895367 9.40692566,15.3365195 C9.28979477,15.7202265 8.92805601,16 8.5,16 C8.07194399,16 7.71020523,15.7202265 7.59285098,15.3361351 C3.87861725,14.895367 1,11.7789215 1,8 C1,4.22107845 3.87861725,1.10463304 7.59307434,0.663480451 C7.71020523,0.279773492 8.07194399,-8.8817842e-16 8.5,-8.8817842e-16 Z M9.36543936,1.310071 L9.35094884,1.34378969 C9.19680447,1.65346893 8.87367033,1.86666667 8.5,1.86666667 C8.11334954,1.86666667 7.7808072,1.63840004 7.63360439,1.31117349 C4.26346626,1.72922752 1.65629229,4.56461025 1.65629229,8 C1.65629229,11.4353897 4.26346626,14.2707725 7.63456064,14.689929 C7.7808072,14.3616 8.11334954,14.1333333 8.5,14.1333333 C8.88665046,14.1333333 9.2191928,14.3616 9.36639561,14.6888265 C12.7365337,14.2707725 15.3437077,11.4353897 15.3437077,8 C15.3437077,4.56461025 12.7365337,1.72922752 9.36543936,1.310071 Z M11.4939107,5.09 C12.919463,5.09 14.0751015,5.54368479 14.0751015,6.10333333 L14.0751015,6.10333333 L14.0784844,6.10333333 L14.0784844,9.45333333 C14.0784844,10.1581225 12.907441,10.6166667 11.4905277,10.6166667 C10.1058171,10.6166667 8.95592729,10.1787285 8.90437481,9.50100307 L8.90257104,9.45333333 L8.90257104,6.12 L8.913,6.119 L8.91271989,6.10333333 C8.91271989,5.56912336 9.96568801,5.131463 11.3012734,5.09277944 Z M5.50947226,5.09333333 C6.93315622,5.09333333 8.08728011,5.54552574 8.08728011,6.10333333 L8.08728011,6.10333333 L8.09742896,6.10333333 L8.09742896,9.45333333 C8.09742896,10.1581225 6.9263855,10.6166667 5.50947226,10.6166667 C4.1247616,10.6166667 2.97487181,10.1787285 2.92331933,9.50100307 L2.92151556,9.45333333 L2.92151556,6.12 L2.932,6.119 L2.93166441,6.10333333 C2.93166441,5.57088063 3.9832525,5.13465995 5.31708744,5.09610363 Z M3.42773918,9.02182466 L3.42895805,9.45333333 C3.42895805,9.75589155 4.35031599,10.1166667 5.50947226,10.1166667 C6.63550978,10.1166667 7.53714332,9.77621276 7.58774602,9.47939969 L7.58998647,9.45333333 L7.58991202,9.02259916 C7.11650463,9.30583188 6.3573649,9.47 5.50947226,9.47 C4.66080707,9.47 3.90105659,9.30553258 3.42773918,9.02182466 Z M11.4905277,9.47 C10.6424414,9.47 9.88314861,9.30575688 9.40976365,9.02240507 L9.41001353,9.45333333 C9.41001353,9.75589155 10.3313715,10.1166667 11.4905277,10.1166667 C12.6165653,10.1166667 13.5181988,9.77621276 13.5688015,9.47939969 L13.5710419,9.45333333 L13.5720052,9.02197784 C13.0986699,9.30559178 12.3390402,9.47 11.4905277,9.47 Z M11.4905277,8.24 C10.6431589,8.24 9.88372534,8.07600156 9.41011139,7.79341308 L9.41001353,8.30333333 C9.41001353,8.60887797 10.3299402,8.97 11.4905277,8.97 C12.6179556,8.97 13.5182783,8.62921872 13.5688049,8.32964926 L13.5710419,8.30333333 L13.5725174,7.7924733 C13.099013,8.07563793 12.3388355,8.24 11.4905277,8.24 Z M5.50947226,8.24 C4.66152496,8.24 3.90163314,8.07577759 3.42808645,7.79283424 L3.42895805,8.30333333 C3.42895805,8.60887797 4.34888476,8.97 5.50947226,8.97 C6.63690012,8.97 7.53722277,8.62921872 7.58774943,8.32964926 L7.58998647,8.30333333 L7.59043431,7.79308735 C7.11685813,8.07587553 6.35716667,8.24 5.50947226,8.24 Z M9.40950898,6.70113499 L9.41001353,7.07666667 C9.41001353,7.37922488 10.3313715,7.74 11.4905277,7.74 C12.6165653,7.74 13.5181988,7.39954609 13.5688015,7.10273303 L13.5710419,7.07666667 L13.5721441,6.70443019 C13.1021015,6.95448029 12.3462514,7.11666667 11.4939107,7.11666667 C10.6378316,7.11666667 9.87909151,6.95305448 9.40950898,6.70113499 Z M7.59032665,6.69960491 C7.1212969,6.95044827 6.36393395,7.11333333 5.50947226,7.11333333 C4.65451519,7.11333333 3.89676948,6.95025935 3.4278024,6.69916854 L3.42895805,7.07666667 C3.42895805,7.37922488 4.35031599,7.74 5.50947226,7.74 C6.63550978,7.74 7.53714332,7.39954609 7.58774602,7.10273303 L7.58998647,7.07666667 Z"/>
</g>
</svg>
