<svg xmlns="http://www.w3.org/2000/svg" viewBox="0 0 16 16">
  <g>
    <path fill="#19426C" fill-rule="evenodd" d="M8,-8.8817842e-16 C8.42104877,-8.8817842e-16 8.77697865,0.27880709 8.89324236,0.661873974 C12.261254,1.06684301 14.933157,3.73874603 15.3384002,7.10805216 C15.7211929,7.22302135 16,7.57895123 16,8 C16,8.42104877 15.7211929,8.77697865 15.338126,8.89324236 C14.933157,12.261254 12.261254,14.933157 8.89194784,15.3384002 C8.77697865,15.7211929 8.42104877,16 8,16 C7.57895123,16 7.22302135,15.7211929 7.10675764,15.338126 C3.73874603,14.933157 1.06684301,12.261254 0.661599752,8.89194784 C0.27880709,8.77697865 -8.8817842e-16,8.42104877 -8.8817842e-16,8 C-8.8817842e-16,7.57895123 0.27880709,7.22302135 0.661873974,7.10675764 C1.06684301,3.73874603 3.73874603,1.06684301 7.10805216,0.661599752 C7.22302135,0.27880709 7.57895123,-8.8817842e-16 8,-8.8817842e-16 Z M8.85211706,1.31167168 L8.83846826,1.34378969 C8.68658467,1.65346893 8.36818983,1.86666667 8,1.86666667 C7.61979555,1.86666667 7.2926889,1.63932795 7.14719911,1.31316958 C4.1059336,1.69533962 1.69533962,4.1059336 1.31167168,7.14788294 C1.63932795,7.2926889 1.86666667,7.61979555 1.86666667,8 C1.86666667,8.38020445 1.63932795,8.7073111 1.31316958,8.85280089 C1.69533962,11.8940664 4.1059336,14.3046604 7.14788294,14.6883283 C7.2926889,14.360672 7.61979555,14.1333333 8,14.1333333 C8.38020445,14.1333333 8.7073111,14.360672 8.85280089,14.6868304 C11.8940664,14.3046604 14.3046604,11.8940664 14.6883283,8.85211706 C14.360672,8.7073111 14.1333333,8.38020445 14.1333333,8 C14.1333333,7.61979555 14.360672,7.2926889 14.6868304,7.14719911 C14.3046604,4.1059336 11.8940664,1.69533962 8.85211706,1.31167168 Z M10.08,9.80333333 L10.32,10.5733333 L5.71333333,10.5733333 L5.91,9.80333333 L10.08,9.80333333 Z M10.32,8.34333333 L10.32,9.11666667 L2.82,9.11666667 L2.82,8.34333333 L10.32,8.34333333 Z M13.18,6.88333333 L13.18,7.65666667 L5.71333333,7.65666667 L5.71333333,6.88333333 L13.18,6.88333333 Z M10.32,5.42666667 L10.1,6.19666667 L5.93,6.19666667 L5.71333333,5.42666667 L10.32,5.42666667 Z"/>
  </g>
</svg>
