<svg xmlns="http://www.w3.org/2000/svg" viewBox="0 0 16 16">
  <g>
    <path fill="#19426C" fill-rule="evenodd" d="M8,-8.8817842e-16 C8.42104877,-8.8817842e-16 8.77697865,0.27880709 8.89324236,0.661873974 C12.261254,1.06684301 14.933157,3.73874603 15.3384002,7.10805216 C15.7211929,7.22302135 16,7.57895123 16,8 C16,8.42104877 15.7211929,8.77697865 15.338126,8.89324236 C14.933157,12.261254 12.261254,14.933157 8.89194784,15.3384002 C8.77697865,15.7211929 8.42104877,16 8,16 C7.57895123,16 7.22302135,15.7211929 7.10675764,15.338126 C3.73874603,14.933157 1.06684301,12.261254 0.661599752,8.89194784 C0.27880709,8.77697865 -8.8817842e-16,8.42104877 -8.8817842e-16,8 C-8.8817842e-16,7.57895123 0.27880709,7.22302135 0.661873974,7.10675764 C1.06684301,3.73874603 3.73874603,1.06684301 7.10805216,0.661599752 C7.22302135,0.27880709 7.57895123,-8.8817842e-16 8,-8.8817842e-16 Z M8.85211706,1.31167168 L8.83846826,1.34378969 C8.68658467,1.65346893 8.36818983,1.86666667 8,1.86666667 C7.61979555,1.86666667 7.2926889,1.63932795 7.14719911,1.31316958 C4.1059336,1.69533962 1.69533962,4.1059336 1.31167168,7.14788294 C1.63932795,7.2926889 1.86666667,7.61979555 1.86666667,8 C1.86666667,8.38020445 1.63932795,8.7073111 1.31316958,8.85280089 C1.69533962,11.8940664 4.1059336,14.3046604 7.14788294,14.6883283 C7.2926889,14.360672 7.61979555,14.1333333 8,14.1333333 C8.38020445,14.1333333 8.7073111,14.360672 8.85280089,14.6868304 C11.8940664,14.3046604 14.3046604,11.8940664 14.6883283,8.85211706 C14.360672,8.7073111 14.1333333,8.38020445 14.1333333,8 C14.1333333,7.61979555 14.360672,7.2926889 14.6868304,7.14719911 C14.3046604,4.1059336 11.8940664,1.69533962 8.85211706,1.31167168 Z M6.20666667,6.09 C6.60018419,5.31517779 7.44388492,4.87747838 8.30394859,5.00196128 C9.16401225,5.12644417 9.84898668,5.7853992 10.0066667,6.64 C10.0970748,6.62546842 10.188437,6.61766921 10.28,6.61666667 C11.1875879,6.61666667 11.9233333,7.35241206 11.9233333,8.26 C11.9226833,9.1154087 11.2659221,9.82726254 10.4133333,9.89666667 L10.4133333,9.89666667 L5.35333333,9.89666667 C4.68631695,9.90653848 4.12474766,9.39994509 4.06608908,8.73543966 C4.0074305,8.07093422 4.47156906,7.47379745 5.13,7.36666667 C5.07910512,7.25114398 5.0529881,7.12623653 5.05333333,7 C5.05333333,6.75158055 5.15201757,6.51333572 5.32767665,6.33767665 C5.50333572,6.16201757 5.74158055,6.06333333 5.99,6.06333333 C6.06303875,6.06336466 6.13580007,6.0723199 6.20666667,6.09 Z"/>
  </g>
</svg>
