<svg xmlns="http://www.w3.org/2000/svg" viewBox="0 0 16 16">
  <g>
    <path fill="#19426C" fill-rule="evenodd" d="M8,-8.8817842e-16 C8.42104877,-8.8817842e-16 8.77697865,0.27880709 8.89324236,0.661873974 C12.261254,1.06684301 14.933157,3.73874603 15.3384002,7.10805216 C15.7211929,7.22302135 16,7.57895123 16,8 C16,8.42104877 15.7211929,8.77697865 15.338126,8.89324236 C14.933157,12.261254 12.261254,14.933157 8.89194784,15.3384002 C8.77697865,15.7211929 8.42104877,16 8,16 C7.57895123,16 7.22302135,15.7211929 7.10675764,15.338126 C3.73874603,14.933157 1.06684301,12.261254 0.661599752,8.89194784 C0.27880709,8.77697865 3.88578059e-15,8.42104877 3.88578059e-15,8 C3.88578059e-15,7.57895123 0.27880709,7.22302135 0.661873974,7.10675764 C1.06684301,3.73874603 3.73874603,1.06684301 7.10805216,0.661599752 C7.22302135,0.27880709 7.57895123,-8.8817842e-16 8,-8.8817842e-16 Z M8.85211706,1.31167168 L8.83846826,1.34378969 C8.68658467,1.65346893 8.36818983,1.86666667 8,1.86666667 C7.61979555,1.86666667 7.2926889,1.63932795 7.14719911,1.31316958 C4.1059336,1.69533962 1.69533962,4.1059336 1.31167168,7.14788294 C1.63932795,7.2926889 1.86666667,7.61979555 1.86666667,8 C1.86666667,8.38020445 1.63932795,8.7073111 1.31316958,8.85280089 C1.69533962,11.8940664 4.1059336,14.3046604 7.14788294,14.6883283 C7.2926889,14.360672 7.61979555,14.1333333 8,14.1333333 C8.38020445,14.1333333 8.7073111,14.360672 8.85280089,14.6868304 C11.8940664,14.3046604 14.3046604,11.8940664 14.6883283,8.85211706 C14.360672,8.7073111 14.1333333,8.38020445 14.1333333,8 C14.1333333,7.61979555 14.360672,7.2926889 14.6868304,7.14719911 C14.3046604,4.1059336 11.8940664,1.69533962 8.85211706,1.31167168 Z M6.723,4.39466667 L6.85533333,4.39666667 L6.92832839,4.40064854 C7.34948036,4.43274286 7.73366267,4.63512671 7.99795248,4.95171934 L7.99795248,4.95171934 L8.003,4.95833333 C8.27493265,4.63930115 8.65750357,4.43813497 9.07863774,4.40150145 L9.07863774,4.40150145 L9.15334012,4.39675539 C10.04208,4.37307137 10.9149341,4.63542494 11.6433401,5.14517419 C11.7101866,5.19195435 11.75,5.26841057 11.75,5.35 L11.75,5.35 L11.75,6.437 L12.1833333,6.66666667 L12.1833333,11.2433333 C12.1861637,11.2751841 12.1718817,11.306145 12.1458152,11.3246659 C12.1197488,11.3431868 12.0858126,11.3464862 12.0566667,11.3333333 L12.0566667,11.3333333 L11.54,11.0633333 C10.0852174,10.3572464 9.46408318,10.2958475 9.36706008,10.2905085 L9.35333333,10.29 C8.88911919,10.2607168 8.44319766,10.4754666 8.17666667,10.8566667 C8.14315207,10.8988574 8.0922155,10.923447 8.03833333,10.923447 C7.98445117,10.923447 7.9335146,10.8988574 7.9,10.8566667 C7.60916397,10.472791 7.14772679,10.257038 6.66666667,10.28 L6.66666667,10.28 L6.65344511,10.2805085 C6.55987398,10.2858475 5.95898551,10.3472464 4.51333333,11.0533333 L4.51333333,11.0533333 L3.95666667,11.35 C3.92752076,11.3631529 3.89358453,11.3598534 3.8675181,11.3413326 C3.84145166,11.3228117 3.82716963,11.2918508 3.83,11.26 L3.83,11.26 L3.83,6.82666667 L4.24,6.522 L4.24,5.35 C4.24,5.28882154 4.26238513,5.23052853 4.30176823,5.1854689 L4.3466178,5.14520365 C5.0100933,4.68069058 5.79337189,4.42154448 6.59923308,4.39678022 L6.59923308,4.39678022 L6.723,4.39466667 Z M6.84301675,4.89664002 L6.60478258,4.89685926 C5.98190888,4.91767801 5.37468766,5.0976947 4.84119909,5.41957563 L4.84119909,5.41957563 L4.73966667,5.483 L4.73966667,9.88033333 L4.79866826,9.85388409 C5.24714913,9.65388484 5.64392044,9.50670368 5.99083665,9.40527276 L5.99083665,9.40527276 L6.09341771,9.37620893 C6.40418577,9.29103682 6.62749826,9.25552722 6.77117739,9.25030351 L6.77117739,9.25030351 L6.82194392,9.24371984 C7.15294589,9.21066151 7.47905605,9.29178006 7.75090376,9.4641534 L7.75235612,5.48629912 C7.58262154,5.13594996 7.23138239,4.90749924 6.84301675,4.89664002 L6.84301675,4.89664002 Z M9.29282802,4.89527831 L9.17004737,4.89646469 C8.76144892,4.91289933 8.39692246,5.15801195 8.22754737,5.53021469 L8.25,5.487 L8.2496857,9.5138349 C8.50420719,9.35493944 8.7950596,9.26179731 9.09318841,9.24566911 L9.25797136,9.2446443 L9.39020696,9.25295508 C9.51333851,9.26335794 9.69993941,9.30016906 9.95875534,9.37723691 C10.2993815,9.47866546 10.7094777,9.63447975 11.1948929,9.85415677 L11.1948929,9.85415677 L11.25,9.87933333 L11.25,5.483 L11.1502633,5.42051913 C10.5893352,5.08186637 9.94700788,4.90004343 9.29282802,4.89527831 L9.29282802,4.89527831 Z"/>
  </g>
</svg>
