<svg xmlns="http://www.w3.org/2000/svg" viewBox="0 0 16 16">
  <g>
    <path fill="#19426C" fill-rule="evenodd" d="M8,-8.8817842e-16 C8.42104877,-8.8817842e-16 8.77697865,0.27880709 8.89324236,0.661873974 C12.261254,1.06684301 14.933157,3.73874603 15.3384002,7.10805216 C15.7211929,7.22302135 16,7.57895123 16,8 C16,8.42104877 15.7211929,8.77697865 15.338126,8.89324236 C14.933157,12.261254 12.261254,14.933157 8.89194784,15.3384002 C8.77697865,15.7211929 8.42104877,16 8,16 C7.57895123,16 7.22302135,15.7211929 7.10675764,15.338126 C3.73874603,14.933157 1.06684301,12.261254 0.661599752,8.89194784 C0.27880709,8.77697865 3.33066907e-16,8.42104877 3.33066907e-16,8 C3.33066907e-16,7.57895123 0.27880709,7.22302135 0.661873974,7.10675764 C1.06684301,3.73874603 3.73874603,1.06684301 7.10805216,0.661599752 C7.22302135,0.27880709 7.57895123,-8.8817842e-16 8,-8.8817842e-16 Z M8.85211706,1.31167168 L8.83846826,1.34378969 C8.68658467,1.65346893 8.36818983,1.86666667 8,1.86666667 C7.61979555,1.86666667 7.2926889,1.63932795 7.14719911,1.31316958 C4.1059336,1.69533962 1.69533962,4.1059336 1.31167168,7.14788294 C1.63932795,7.2926889 1.86666667,7.61979555 1.86666667,8 C1.86666667,8.38020445 1.63932795,8.7073111 1.31316958,8.85280089 C1.69533962,11.8940664 4.1059336,14.3046604 7.14788294,14.6883283 C7.2926889,14.360672 7.61979555,14.1333333 8,14.1333333 C8.38020445,14.1333333 8.7073111,14.360672 8.85280089,14.6868304 C11.8940664,14.3046604 14.3046604,11.8940664 14.6883283,8.85211706 C14.360672,8.7073111 14.1333333,8.38020445 14.1333333,8 C14.1333333,7.61979555 14.360672,7.2926889 14.6868304,7.14719911 C14.3046604,4.1059336 11.8940664,1.69533962 8.85211706,1.31167168 Z M8.00666667,3.45333333 C9.22920321,3.45333333 10.2892475,4.14904551 10.8124861,5.16615656 C11.8483551,5.68330132 12.56,6.75354388 12.56,7.99 C12.56,9.23043315 11.8437698,10.3035818 10.8023031,10.8184521 C10.2747565,11.8237609 9.22085147,12.51 8.00666667,12.51 C6.77895999,12.51 5.71512287,11.808391 5.19423766,10.7842554 C4.189123,10.2573994 3.50333333,9.2037871 3.50333333,7.99 C3.50333333,6.78018992 4.18463633,5.72950669 5.18449743,5.20069518 C5.70065648,4.16452048 6.77060825,3.45333333 8.00666667,3.45333333 Z M8.03110484,10.8282877 L7.99994371,10.8437366 C7.59242181,11.0358959 7.13709092,11.1433333 6.65666667,11.1433333 C6.42493262,11.1433333 6.1990369,11.1183365 5.9815288,11.070892 C6.46856823,11.6456054 7.19506299,12.01 8.00666667,12.01 C8.81310389,12.01 9.5355123,11.6502299 10.0221458,11.0824357 C9.82223486,11.1227691 9.61685228,11.1433333 9.40666667,11.1433333 C8.91351595,11.1433333 8.44680565,11.0301284 8.03110484,10.8282877 Z M10.5217658,8.50915234 L10.5114623,8.52253039 C10.2353209,8.88301206 9.88311899,9.18215224 9.4788359,9.39597149 C9.2616776,9.83324501 8.94539959,10.2121918 8.55981453,10.5044856 C8.82528765,10.5947448 9.11030292,10.6433333 9.40666667,10.6433333 C9.76954122,10.6433333 10.115402,10.5704888 10.4304237,10.438625 C10.5778888,10.1080179 10.66,9.74193135 10.66,9.35666667 C10.66,9.06030292 10.6114114,8.77528765 10.5217658,8.50915234 Z M5.49218107,8.50981453 L5.47865586,8.54850451 C5.39726594,8.80331401 5.35333333,9.07485983 5.35333333,9.35666667 C5.35333333,9.7318944 5.43122192,10.0889303 5.57171321,10.4124884 C5.90373841,10.560868 6.27057213,10.6433333 6.65666667,10.6433333 C6.95303041,10.6433333 7.23804568,10.5947448 7.504181,10.5050991 C7.12798988,10.219837 6.81813264,9.85288606 6.60084718,9.4305101 C6.16400006,9.21216027 5.78469794,8.89569384 5.49218107,8.50981453 Z M8.69827246,9.68481237 L8.53535979,9.71587271 C8.3634561,9.74489161 8.18682576,9.76 8.00666667,9.76 C7.7901225,9.76 7.57867636,9.73817276 7.37440837,9.6965984 C7.56060153,9.91760122 7.78255055,10.1084254 8.03131193,10.2595021 C8.28493661,10.1058928 8.51008393,9.91125739 8.69827246,9.68481237 Z M11.0883774,5.93757639 L11.1158727,6.07797354 C11.1448916,6.24987723 11.16,6.42650757 11.16,6.60666667 C11.16,7.09981739 11.0467951,7.56652769 10.8449544,7.98222849 C11.0467951,8.39680565 11.16,8.86351595 11.16,9.35666667 C11.16,9.59299301 11.1340026,9.82324733 11.0847116,10.0447258 C11.6798334,9.55917088 12.06,8.81898177 12.06,7.99 C12.06,7.16289694 11.6815546,6.42418454 11.0883774,5.93757639 Z M4.91391737,5.9884151 L4.89448239,6.00630753 C4.347765,6.49232806 4.00333333,7.20094087 4.00333333,7.99 C4.00333333,8.79033141 4.3576762,9.50790161 4.91803657,9.99438523 C4.8755181,9.788106 4.85333333,9.5749771 4.85333333,9.35666667 C4.85333333,8.86351595 4.96653824,8.39680565 5.16837898,7.98110484 C4.96653824,7.56652769 4.85333333,7.09981739 4.85333333,6.60666667 C4.85333333,6.39506804 4.87417496,6.18833724 4.91391737,5.9884151 Z M8.03,6.74 C7.34516691,6.74 6.79,7.29516691 6.79,7.98 C6.79,8.66483309 7.34516691,9.22 8.03,9.22 C8.71483309,9.22 9.27,8.66483309 9.27,7.98 C9.27,7.29516691 8.71483309,6.74 8.03,6.74 Z M8.03,7.21666667 C8.45157736,7.21666667 8.79333333,7.55842264 8.79333333,7.98 C8.79333333,8.40157736 8.45157736,8.74333333 8.03,8.74333333 C7.60842264,8.74333333 7.26666667,8.40157736 7.26666667,7.98 C7.26666667,7.55842264 7.60842264,7.21666667 8.03,7.21666667 Z M6.32862171,7.30194091 L6.24448239,7.3729742 C6.0466419,7.54885032 5.87529068,7.75387484 5.73716454,7.98131193 C5.89350044,8.23942585 6.09233355,8.46806998 6.32394561,8.65826106 C6.27779958,8.44280816 6.25333333,8.21926128 6.25333333,7.99 C6.25333333,7.75367366 6.27933075,7.52341934 6.32862171,7.30194091 Z M9.74431,7.35142519 L9.76587271,7.46130687 C9.79489161,7.63321057 9.81,7.80984091 9.81,7.99 C9.81,8.20159862 9.78915838,8.40832942 9.74941596,8.60825157 C9.95479484,8.42863709 10.1332385,8.21735376 10.2761293,7.98208646 C10.1323626,7.74452208 9.9525425,7.53202602 9.74431,7.35142519 Z M6.65666667,5.33666667 C6.26712144,5.33666667 5.89718284,5.42061262 5.56395415,5.57140123 C5.42812437,5.88875341 5.35333333,6.23897585 5.35333333,6.60666667 C5.35333333,6.90303041 5.4019219,7.18804568 5.49156755,7.454181 C5.7868665,7.06474859 6.16975395,6.74636849 6.6110302,6.52821454 C6.82834518,6.11506299 7.13416915,5.75547917 7.50361318,5.47544286 C7.23804568,5.38525524 6.95303041,5.33666667 6.65666667,5.33666667 Z M9.40666667,5.33666667 C9.11030292,5.33666667 8.82528765,5.38525524 8.55915234,5.47490088 C8.93922051,5.76312415 9.25152295,6.13463183 9.46909568,6.56241126 C9.88217642,6.77883238 10.2414105,7.0844634 10.5212238,7.45361318 C10.6114114,7.18804568 10.66,6.90303041 10.66,6.60666667 C10.66,6.22939058 10.5812587,5.87050551 10.4393137,5.54554904 C10.1220233,5.41091278 9.77301555,5.33666667 9.40666667,5.33666667 Z M8.03208646,5.72053739 L8.02241079,5.72592765 C7.78471721,5.87156433 7.57172659,6.05358164 7.39118755,6.26423096 C7.59040813,6.22396672 7.7961278,6.20333333 8.00666667,6.20333333 C8.23804746,6.20333333 8.46360772,6.22825405 8.68080977,6.27555783 C8.49673505,6.05725969 8.27745455,5.86956294 8.03208646,5.72053739 Z M8.00666667,3.95333333 C7.18519975,3.95333333 6.45092294,4.32663861 5.96422582,4.91285962 C6.18733281,4.86297589 6.41892731,4.83666667 6.65666667,4.83666667 C7.14981739,4.83666667 7.61652769,4.94987157 8.03222849,5.15171231 C8.44680565,4.94987157 8.91351595,4.83666667 9.40666667,4.83666667 C9.62285758,4.83666667 9.83396709,4.85842275 10.0379252,4.89986497 C9.55149008,4.32110982 8.82202777,3.95333333 8.00666667,3.95333333 Z"/>
  </g>
</svg>
