<svg xmlns="http://www.w3.org/2000/svg" viewBox="0 0 16 16">
  <g>
    <path fill="#19426C" fill-rule="evenodd" d="M3.75804832,7.675 C3.93205061,7.675 4.07310733,7.82050746 4.07310733,8 C4.07310733,8.16667165 3.95148189,8.30403983 3.79479086,8.32281349 L3.75804832,8.325 L1.63697414,8.325 L1.63805265,8.35191014 C1.78553924,11.4549042 3.98032206,14.067818 6.95960138,14.6441543 L7.07168962,14.6648093 L7.15587553,14.6768871 C7.29901745,14.3560608 7.6134056,14.1333333 7.97822334,14.1333333 C8.36107533,14.1333333 8.68838866,14.3786255 8.8205292,14.72517 C11.3002913,14.4701451 13.4900411,12.7567207 14.3404137,10.2268616 C14.3974178,10.0572744 14.5769012,9.96746585 14.7413011,10.0262686 C14.905701,10.0850713 14.9927625,10.2702179 14.9357584,10.4398051 C13.9975884,13.2308619 11.5725499,15.115579 8.83178059,15.3789137 C8.70685994,15.7406357 8.37190407,16 7.97822334,16 C7.56687293,16 7.2196372,15.7168309 7.10971087,15.3291523 C7.0632115,15.3221033 7.01472282,15.3141339 6.96621794,15.3056389 C3.51401344,14.7010326 0.991026518,11.6112499 1.00002399,7.99916267 C1.00046363,7.83279513 1.12200526,7.69588827 1.27842846,7.67717896 L1.31510607,7.675 L3.75804832,7.675 Z M9.01549454,5.64333333 C9.39026869,5.64333333 9.69408317,5.95673401 9.69408317,6.34333333 C9.69408317,6.66269799 9.4867542,6.93211046 9.20336535,7.01615971 L9.20336535,7.01615971 L9.18675738,7.02033333 L9.18675738,7.707 L11.1969959,11.5752105 C11.2781408,11.7313454 11.1804144,11.9182728 11.0169396,11.9410288 L11.0169396,11.9410288 L10.9834016,11.9433333 L4.92780587,11.9433333 C4.74433675,11.9433333 4.62740061,11.7411936 4.71451416,11.5746301 L4.71451416,11.5746301 L6.73737556,7.706 L6.73737556,7.02133333 L6.71753622,7.01615971 C6.44906257,6.9365341 6.24885319,6.69054373 6.22852221,6.39332447 L6.22852221,6.39332447 L6.2268184,6.34333333 C6.2268184,5.95673401 6.53063288,5.64333333 6.90540703,5.64333333 L6.90540703,5.64333333 Z M9.01549454,6.14333333 L6.90540703,6.14333333 C6.7983287,6.14333333 6.71152456,6.23287638 6.71152456,6.34333333 C6.71152456,6.45379028 6.7983287,6.54333333 6.90540703,6.54333333 L6.90540703,6.54333333 L6.97972864,6.54333333 C7.11357655,6.54333333 7.22208172,6.65526215 7.22208172,6.79333333 L7.22208172,6.79333333 L7.22208172,7.77 C7.22208172,7.81144085 7.21209515,7.85223174 7.19302035,7.88870328 L7.19302035,7.88870328 L6.186,9.813 L9.731,9.813 L8.73080999,7.88812288 C8.72451687,7.87601398 8.71922374,7.86343267 8.71496319,7.85051274 L8.70531178,7.81087087 L8.70205122,7.77 L8.70205122,6.79333333 C8.70205122,6.65526215 8.81055639,6.54333333 8.9444043,6.54333333 L8.9444043,6.54333333 L9.01549454,6.54333333 C9.12257287,6.54333333 9.209377,6.45379028 9.209377,6.34333333 C9.209377,6.23287638 9.12257287,6.14333333 9.01549454,6.14333333 L9.01549454,6.14333333 Z M13.8140856,6.99666667 L15,7.98666667 L13.8043915,8.96666667 L13.8140856,6.99666667 Z M10.3403581,4.84333333 C10.622331,4.84333333 10.8509152,5.07913003 10.8509152,5.37 C10.8509152,5.66086997 10.622331,5.89666667 10.3403581,5.89666667 C10.0583851,5.89666667 9.8298009,5.66086997 9.8298009,5.37 C9.8298009,5.07913003 10.0583851,4.84333333 10.3403581,4.84333333 Z M7.97822334,0 C8.38674661,0 8.73203346,0.279290082 8.84443572,0.662869188 C11.4924324,0.994359252 13.7746794,2.830084 14.7077778,5.46169429 C14.7675484,5.63026488 14.6835285,5.81690085 14.5201141,5.87855739 C14.3566997,5.94021393 14.1757725,5.85354297 14.1160019,5.68497237 C13.2691859,3.29670377 11.2040592,1.62713725 8.80338204,1.31281978 C8.6632529,1.6397912 8.34642251,1.86666667 7.97822334,1.86666667 C7.61002417,1.86666667 7.29319378,1.6397912 7.1519395,1.31416669 C4.7523875,1.62713725 2.68726077,3.29670377 1.8404448,5.68497237 C1.78067419,5.85354297 1.59974698,5.94021393 1.43633257,5.87855739 C1.27291816,5.81690085 1.18889826,5.63026488 1.24866887,5.46169429 C2.1818023,2.82998523 4.46418563,0.994221453 7.11326415,0.662910363 C7.22441322,0.279290082 7.56970008,0 7.97822334,0 Z M5.84551621,4.61333333 C6.08644245,4.61333333 6.28175176,4.8148052 6.28175176,5.06333333 C6.28175176,5.31186147 6.08644245,5.51333333 5.84551621,5.51333333 C5.60458997,5.51333333 5.40928066,5.31186147 5.40928066,5.06333333 C5.40928066,4.8148052 5.60458997,4.61333333 5.84551621,4.61333333 Z M8.05577633,3.44 C8.45732006,3.44 8.78283558,3.77578644 8.78283558,4.19 C8.78283558,4.60421356 8.45732006,4.94 8.05577633,4.94 C7.65423259,4.94 7.32871708,4.60421356 7.32871708,4.19 C7.32871708,3.77578644 7.65423259,3.44 8.05577633,3.44 Z"/>
  </g>
</svg>
