<svg xmlns="http://www.w3.org/2000/svg" viewBox="0 0 16 16">
  <g>
    <path fill="#19426C" fill-rule="evenodd" d="M8,-8.8817842e-16 C8.42104877,-8.8817842e-16 8.77697865,0.27880709 8.89324236,0.661873974 C12.261254,1.06684301 14.933157,3.73874603 15.3384002,7.10805216 C15.7211929,7.22302135 16,7.57895123 16,8 C16,8.42104877 15.7211929,8.77697865 15.338126,8.89324236 C14.933157,12.261254 12.261254,14.933157 8.89194784,15.3384002 C8.77697865,15.7211929 8.42104877,16 8,16 C7.57895123,16 7.22302135,15.7211929 7.10675764,15.338126 C3.73874603,14.933157 1.06684301,12.261254 0.661599752,8.89194784 C0.27880709,8.77697865 3.88578059e-15,8.42104877 3.88578059e-15,8 C3.88578059e-15,7.57895123 0.27880709,7.22302135 0.661873974,7.10675764 C1.06684301,3.73874603 3.73874603,1.06684301 7.10805216,0.661599752 C7.22302135,0.27880709 7.57895123,-8.8817842e-16 8,-8.8817842e-16 Z M8.85211706,1.31167168 L8.83846826,1.34378969 C8.73389008,1.55701675 8.55037064,1.72450293 8.32600969,1.8081485 L8.325,3.16666667 C8.325,3.34615921 8.17949254,3.49166667 8,3.49166667 C7.83332835,3.49166667 7.69596017,3.3662036 7.67718651,3.20456853 L7.675,3.16666667 L7.67500887,1.80852755 C7.43954598,1.72105746 7.2489536,1.54128234 7.14719911,1.31316958 C4.1059336,1.69533962 1.69533962,4.1059336 1.31167168,7.14788294 C1.54095333,7.24880684 1.72053877,7.43899637 1.8081485,7.67399031 L3.16666667,7.675 C3.34615921,7.675 3.49166667,7.82050746 3.49166667,8 C3.49166667,8.16667165 3.3662036,8.30403983 3.20456853,8.32281349 L3.16666667,8.325 L1.80852755,8.32499113 C1.72105746,8.56045402 1.54128234,8.7510464 1.31316958,8.85280089 C1.69533962,11.8940664 4.1059336,14.3046604 7.14788294,14.6883283 C7.2489536,14.4587177 7.43954598,14.2789425 7.67500887,14.1914724 L7.675,12.8333333 C7.675,12.6538408 7.82050746,12.5083333 8,12.5083333 C8.16667165,12.5083333 8.30403983,12.6337964 8.32281349,12.7954315 L8.325,12.8333333 L8.32600969,14.1918515 C8.56100363,14.2794612 8.75119316,14.4590467 8.85280089,14.6868304 C11.8940664,14.3046604 14.3046604,11.8940664 14.6883283,8.85211706 C14.4587177,8.7510464 14.2789425,8.56045402 14.1914724,8.32499113 L12.8333333,8.325 C12.6538408,8.325 12.5083333,8.17949254 12.5083333,8 C12.5083333,7.83332835 12.6337964,7.69596017 12.7954315,7.67718651 L12.8333333,7.675 L14.1918515,7.67399031 C14.2794612,7.43899637 14.4590467,7.24880684 14.6868304,7.14719911 C14.3046604,4.1059336 11.8940664,1.69533962 8.85211706,1.31167168 Z M9.70666667,2.78333333 L9.23333333,5.93333333 C9.53958167,6.11858834 9.80132355,6.36895014 10,6.66666667 L10,6.66666667 L11.1333333,6.4 L10.24,7.19 C10.3366297,7.45376409 10.38627,7.73242651 10.3866667,8.01333333 C10.3898859,8.07106627 10.3898859,8.12893373 10.3866667,8.18666667 L10.3866667,8.18666667 L12.27,9.35666667 L10.07,9.23 C9.89667157,9.52095986 9.66380516,9.77200121 9.38666667,9.96666667 L9.38666667,9.96666667 L9.66666667,11.1266667 L8.86666667,10.24 C8.5885204,10.3496147 8.29229896,10.4061455 7.99333333,10.4066667 C7.93338188,10.41008 7.87328479,10.41008 7.81333333,10.4066667 L7.81333333,10.4066667 L6.14666667,13.2266667 L6.78,10.0766667 L6.6208732,9.97293508 C6.36302724,9.79008188 6.14287021,9.55823331 5.97333333,9.29 L5.97333333,9.29 L4.79666667,9.57333333 L5.72,8.75333333 C5.64188679,8.5133225 5.60250447,8.26240085 5.60333333,8.01 L5.60333333,8.01 L5.60333333,7.83333333 L3.73333333,6.66666667 L5.93666667,6.77333333 C6.09646922,6.50715226 6.30579961,6.27406004 6.55333333,6.08666667 L6.55333333,6.08666667 L6.26333333,4.88333333 L7.06666667,5.78666667 C7.36338842,5.66283914 7.6818109,5.59938128 8.00333333,5.6 L8.00333333,5.6 L8.18,5.6 L9.70666667,2.78333333 Z M8,6.66666667 C7.26362033,6.66666667 6.66666667,7.26362033 6.66666667,8 C6.66666667,8.73637967 7.26362033,9.33333333 8,9.33333333 C8.73637967,9.33333333 9.33333333,8.73637967 9.33333333,8 C9.33333333,7.26362033 8.73637967,6.66666667 8,6.66666667 Z M8,7.36 C8.16969168,7.35815603 8.33287613,7.42521164 8.45224346,7.54583546 C8.57161079,7.66645929 8.63695403,7.83033693 8.63333333,8 C8.62600509,8.34339614 8.34362004,8.61690283 8.00016503,8.61326111 C7.65671001,8.6096194 7.38018788,8.33018651 7.38014265,7.98671219 C7.38009743,7.64323787 7.65654595,7.36373217 8,7.36 Z"/>
  </g>
</svg>
