<svg xmlns="http://www.w3.org/2000/svg" viewBox="0 0 17 17">
  <g>
    <path fill="#19426C" fill-rule="evenodd" d="M1.22,10.6300843 L2.62,11.3605014 L2.00756646,11.636103 C3.19371576,13.9710091 5.60558008,15.4226414 8.21725112,15.337001 C10.9636749,15.2469419 13.3813823,13.4749068 14.3282372,10.8580134 C14.3900866,10.6870756 14.5768217,10.5993674 14.7453216,10.6621116 C14.9138215,10.7248559 15.0002788,10.9142927 14.9384294,11.0852305 C13.9002831,13.9544326 11.2494717,15.8973189 8.23825059,15.9960611 C5.36241947,16.0903637 2.70755402,14.4846009 1.41309844,11.9051487 L0.82,12.172076 L1.22,10.6300843 Z M7.97635909,10.5081092 L8.06037593,10.5813011 C8.12291039,10.6354524 8.18249201,10.6930178 8.23157574,10.7460651 C8.59627688,11.1224217 9.07292518,11.4230603 9.48870605,11.423873 C10.0106932,11.3935032 10.4878376,11.1146916 10.7756423,10.6718728 C10.9241006,10.4434536 11.2269793,10.3803737 11.4521408,10.5309798 C11.6773024,10.681586 11.7394826,10.9888469 11.5910244,11.2172661 C11.1333773,11.921406 10.3746551,12.3647529 9.51666667,12.4138576 C8.77273154,12.4138576 8.12676132,12.0268229 7.59903789,11.504951 L7.52781044,11.4329746 C7.49575044,11.3984349 7.46186038,11.3656916 7.42034367,11.3296558 C7.15665138,11.0937526 6.91052098,10.9519601 6.68755522,10.8812968 C6.57619345,10.8460035 6.49154605,10.833954 6.43755559,10.8337741 L6.416,10.8343306 L6.42950197,10.832509 L6.35666667,10.8380503 C6.00706265,10.8380503 5.68935236,10.980454 5.40561356,11.2264745 C5.30203043,11.316288 5.21115107,11.4131985 5.13477066,11.5093874 L5.07425924,11.5896433 L5.05441596,11.6191766 C4.91175016,11.8513636 4.61055633,11.9222616 4.38168072,11.7775317 C4.1528051,11.6328018 4.08291823,11.3272502 4.22558404,11.0950631 C4.32784428,10.9286357 4.50896052,10.7005488 4.77105311,10.473297 C5.19224012,10.1080997 5.68741778,9.87577461 6.25032866,9.8497059 L6.32333333,9.84792931 L6.33705824,9.8468336 C6.78321372,9.81147115 7.3618039,9.98715532 7.97635909,10.5081092 Z M7.9931532,8.19995195 L8.07562029,8.27193859 L8.23443932,8.42253136 C8.58505918,8.79048932 9.07143222,9.09654653 9.48922743,9.0973292 C10.0107417,9.06755452 10.4877931,8.78976523 10.7761637,8.34794011 C10.9250577,8.119813 11.2280563,8.05732827 11.4529299,8.20837656 C11.6778035,8.35942486 11.7393971,8.66680727 11.590503,8.89493439 C11.1319561,9.59749416 10.3733819,10.0392155 9.51666667,10.0873438 C8.77123604,10.0873438 8.11056069,9.69199885 7.61726827,9.19783929 L7.55104638,9.12986926 L7.42034367,9.00652364 C7.15556354,8.76964725 6.90836558,8.62705207 6.68446873,8.55574888 C6.57291472,8.5202229 6.48835139,8.50799375 6.43480116,8.50763904 L6.41366667,8.50815497 L6.42686115,8.50639184 L6.35666667,8.51153653 C6.00706265,8.51153653 5.68935236,8.65394021 5.40561356,8.89996071 C5.30203043,8.98977421 5.21115107,9.08668474 5.13477066,9.18287364 L5.07425924,9.2631295 L5.05441596,9.2926628 C4.91175016,9.52484983 4.61055633,9.59574784 4.38168072,9.45101792 C4.1528051,9.306288 4.08291823,9.00073643 4.22558404,8.76854939 C4.32784428,8.60212196 4.50896052,8.37403506 4.77105311,8.14678327 C5.19224012,7.78158597 5.68741778,7.54926085 6.25032866,7.52319214 L6.32133333,7.52141556 L6.33743301,7.5203875 C6.783144,7.48640492 7.36303634,7.66374977 7.9931532,8.19995195 Z M0.933333333,7.69488962 C1.4487991,7.69488962 1.86666667,8.11880298 1.86666667,8.64172661 C1.86666667,9.16465025 1.4487991,9.58856361 0.933333333,9.58856361 C0.417867567,9.58856361 -8.8817842e-16,9.16465025 -8.8817842e-16,8.64172661 C-8.8817842e-16,8.11880298 0.417867567,7.69488962 0.933333333,7.69488962 Z M15.0666667,7.69488962 C15.5821324,7.69488962 16,8.11880298 16,8.64172661 C16,9.16465025 15.5821324,9.58856361 15.0666667,9.58856361 C14.5512009,9.58856361 14.1333333,9.16465025 14.1333333,8.64172661 C14.1333333,8.11880298 14.5512009,7.69488962 15.0666667,7.69488962 Z M7.97218325,5.85454537 L8.05551305,5.92749934 C8.09733678,5.96277181 8.13786847,5.99957767 8.17609395,6.03686854 L8.23157574,6.09303757 C8.59627688,6.46939421 9.07292518,6.77003277 9.48922743,6.77081544 C10.0107417,6.74104077 10.4877931,6.46325147 10.7761637,6.02142636 C10.9250577,5.79329924 11.2280563,5.73081451 11.4529299,5.88186281 C11.6778035,6.03291111 11.7393971,6.34029351 11.590503,6.56842063 C11.1319561,7.2709804 10.3733819,7.71270175 9.51666667,7.76083005 C8.77273154,7.76083005 8.12676132,7.37379541 7.60264975,6.85576732 L7.50752844,6.75940106 L7.45237866,6.70778763 L7.41947705,6.67923274 C7.15564046,6.44207111 6.90944983,6.29954107 6.68652535,6.2285084 C6.57535141,6.19308392 6.49095626,6.18098486 6.43726141,6.1807751 L6.416,6.18130306 L6.42950197,6.17948147 L6.35666667,6.18502277 C6.00706265,6.18502277 5.68935236,6.32742645 5.40561356,6.57344696 C5.30203043,6.66326046 5.21115107,6.76017098 5.13477066,6.85635988 L5.07425924,6.93661574 L5.05441596,6.96614904 C4.91175016,7.19833608 4.61055633,7.26923408 4.38168072,7.12450416 C4.1528051,6.97977424 4.08291823,6.67422267 4.22558404,6.44203564 C4.32784428,6.2756082 4.50896052,6.04752131 4.77105311,5.82026951 C5.19224012,5.45507222 5.68741778,5.2227471 6.25032866,5.19667839 L6.323,5.1949018 L6.33692568,5.19382024 C6.78340915,5.1584366 7.36242531,5.3352104 7.97218325,5.85454537 Z M14.6573827,5.23874643 L15.2566667,4.96597014 L14.8633333,6.51472494 L13.46,5.78768939 L14.065077,5.5108691 C12.9196048,3.11637831 10.496765,1.60127596 7.8504358,1.66111545 C5.07511601,1.7238717 2.62144198,3.50601579 1.66858814,6.15109381 C1.60697806,6.32212054 1.42036598,6.41009765 1.25177841,6.34759618 C1.08319083,6.28509471 0.99646844,6.09578269 1.05807852,5.92475595 C2.10280208,3.02465188 4.79304789,1.07068177 7.83595105,1.00187486 C10.7432957,0.936133224 13.4046109,2.60417454 14.6573827,5.23874643 Z"/>
  </g>
</svg>
