<svg xmlns="http://www.w3.org/2000/svg" viewBox="0 0 16 16">
<g>
  <path fill="#19426C" fill-rule="evenodd" d="M14.7455401,10.148246 C14.9138776,10.2097805 14.9999547,10.394764 14.9377986,10.5614181 C13.865229,13.4372139 11.0965345,15.3470247 8,15.3470247 L7.984,15.347 L7.98316498,16 L7.09665917,15.2924398 C4.37496878,14.9617895 2.02922183,13.1542132 1.06220138,10.5614181 C1.00004532,10.394764 1.08612237,10.2097805 1.25445986,10.148246 C1.42279735,10.0867115 1.60964929,10.1719278 1.67180536,10.3385819 C2.55853098,12.7160889 4.71620286,14.3697606 7.21553045,14.658584 L7.98653199,14.05 L7.98590708,14.7036769 C7.99060389,14.7036865 7.99530153,14.7036913 8,14.7036913 C10.8244511,14.7036913 13.3498685,12.96169 14.3281946,10.3385819 C14.3903507,10.1719278 14.5772027,10.0867115 14.7455401,10.148246 Z M6.447,6.87 L6.48565696,6.9751856 C6.51327119,7.04440034 6.54561861,7.11171828 6.58249158,7.17666667 C6.61616162,7.23333333 7.01346801,7.7 7.77104377,8.56666667 C7.45914703,8.92522222 7.11901983,9.31481111 6.78081743,9.70142975 L6.49210438,10.0312967 C5.48818182,11.1777333 4.57912458,12.21 4.57912458,12.21 C4.57912458,12.21 5.77441077,8.74 6.44781145,6.87666667 L6.44781145,6.87666667 L6.447,6.87 Z M8,3.75 C8.21012854,3.75 8.38047138,3.91863941 8.38047138,4.12666667 L8.38047138,4.12666667 L8.38047138,5.12666667 C8.69887838,5.2186327 8.96908966,5.42881848 9.13468013,5.71333333 C9.17399217,5.78954955 9.71612645,7.32759192 10.2625466,8.88710507 L10.4441615,9.40576221 C10.9553116,10.8663477 11.4208754,12.2033333 11.4208754,12.2033333 C11.4208754,12.2033333 11.3688135,12.1441174 11.2758443,12.038312 L11.0023381,11.7269571 C10.5951844,11.2633427 9.94193583,10.5190122 9.2745716,9.75655861 L8.91054917,9.34045585 C7.88308702,8.1653494 6.92264992,7.06099099 6.88552189,6.99666667 C6.71248872,6.7015495 6.66529998,6.35036053 6.75438589,6.02072371 C6.8434718,5.69108688 7.06149642,5.41014674 7.36026936,5.24 C7.44242247,5.19330053 7.52932324,5.15531248 7.61952862,5.12666667 L7.61952862,5.12666667 L7.61952862,4.12666667 C7.61952862,3.91863941 7.78987146,3.75 8,3.75 Z M0.936026936,7.25 C1.45298034,7.25 1.87205387,7.6648828 1.87205387,8.17666667 C1.87205387,8.68845053 1.45298034,9.10333333 0.936026936,9.10333333 C0.419073534,9.10333333 -9.1038288e-15,8.68845053 -9.1038288e-15,8.17666667 C-9.1038288e-15,7.6648828 0.419073534,7.25 0.936026936,7.25 Z M15.0639731,7.25 C15.5809265,7.25 16,7.6648828 16,8.17666667 C16,8.68845053 15.5809265,9.10333333 15.0639731,9.10333333 C14.5470197,9.10333333 14.1279461,8.68845053 14.1279461,8.17666667 C14.1279461,7.6648828 14.5470197,7.25 15.0639731,7.25 Z M8,5.84666667 C7.66528197,5.84666667 7.39393939,6.11529582 7.39393939,6.44666667 C7.39393939,6.77803752 7.66528197,7.04667604 8,7.04667604 C8.16101211,7.0475597 8.31569066,6.9846324 8.42954519,6.87191641 C8.54339973,6.75920042 8.60696266,6.60606865 8.60607008,6.44666667 C8.60607008,6.11529582 8.33471803,5.84666667 8,5.84666667 Z M7.94949495,-9.99200722e-16 L8.96048924,0.792345485 C11.6613841,1.14164877 13.9833718,2.94626501 14.9413203,5.52566432 C15.0032445,5.69240303 14.9169102,5.8772689 14.7484872,5.93857381 C14.5800643,5.99987871 14.3933311,5.91440773 14.3314069,5.74766902 C13.4298012,3.31998 11.2034952,1.64472934 8.63968062,1.40386991 L7.95622896,1.95 L7.954,1.374 L7.73580624,1.37901775 C5.0156801,1.48392299 2.61394781,3.20218007 1.66859307,5.74766902 C1.60666893,5.91440773 1.41993572,5.99987871 1.25151278,5.93857381 C1.08308984,5.8772689 0.996755508,5.69240303 1.05867965,5.52566432 C2.12309752,2.65958259 4.87161134,0.750078237 7.95275736,0.730743375 L7.94949495,-9.99200722e-16 Z"/>
</g>
</svg>
