<svg xmlns="http://www.w3.org/2000/svg" viewBox="0 0 16 16">
  <g>
    <path fill="#19426C" fill-rule="evenodd" d="M8,-2.66453526e-15 C12.418278,-2.66453526e-15 16,3.581722 16,8 C16,12.418278 12.418278,16 8,16 C3.581722,16 1.77635684e-15,12.418278 1.77635684e-15,8 C1.77635684e-15,3.581722 3.581722,-2.66453526e-15 8,-2.66453526e-15 Z M8,0.699453552 C3.96801953,0.699453552 0.699453552,3.96801953 0.699453552,8 C0.699453552,12.0319805 3.96801953,15.3005464 8,15.3005464 C12.0319805,15.3005464 15.3005464,12.0319805 15.3005464,8 C15.3005464,3.96801953 12.0319805,0.699453552 8,0.699453552 Z M7.23132969,3.87978142 C9.08435065,3.87978142 10.5865209,4.47836611 10.5865209,5.21675774 L10.5865209,5.21675774 L10.5974499,5.21675774 L10.5980159,7.61437336 C11.902964,7.78424556 12.9107468,8.90011569 12.9107468,10.2513661 C12.9107468,11.7201015 11.7201015,12.9107468 10.2513661,12.9107468 C9.11595809,12.9107468 8.14673908,12.199207 7.76529331,11.1977116 L7.92835421,11.186638 C7.70114791,11.2058927 7.47465161,11.2162159 7.24927746,11.216737 L7.24954463,11.2204007 C7.02228171,11.2204007 6.79998576,11.2113488 6.58484789,11.1938079 L6.37217721,11.1734581 C6.30213643,11.1657455 6.23297214,11.1571106 6.1647655,11.1475741 L5.96309968,11.1162809 C4.83588659,10.9235825 4.00976251,10.4756243 3.88517623,9.87527688 C3.88155104,9.85492785 3.87793762,9.83370291 3.87520048,9.81229493 C3.87302901,9.79817613 3.87170698,9.78443807 3.87074741,9.77062672 L3.86885246,9.71584699 L3.86885246,5.21675774 C3.87613843,4.47836611 5.37830873,3.87978142 7.23132969,3.87978142 Z M10.2513661,8.13843352 C9.08442567,8.13843352 8.13843352,9.08442567 8.13843352,10.2513661 C8.13843352,11.4183066 9.08442567,12.3642987 10.2513661,12.3642987 C11.4183066,12.3642987 12.3642987,11.4183066 12.3642987,10.2513661 C12.3642987,9.08442567 11.4183066,8.13843352 10.2513661,8.13843352 Z M10.2622951,8.79052823 L10.7213115,9.6575592 L11.701275,9.8287796 L11.0127505,10.5209472 L11.1839709,11.5591985 L10.3169399,11.0382514 L9.39526412,11.5009107 L9.5701275,10.5209472 L8.87795993,9.8287796 L9.7996357,9.6575592 L10.2622951,8.79052823 Z M4.41458626,9.05821434 L4.41530055,9.71220401 C4.41530055,10.0445587 5.06411056,10.3956705 6.01364678,10.5657561 L6.20108967,10.5963618 C6.51944153,10.643425 6.8667496,10.6703097 7.23132969,10.6703097 C7.361735,10.6703097 7.49275311,10.6667675 7.62426473,10.65987 C7.60264523,10.5268202 7.59198543,10.390338 7.59198543,10.2513661 C7.59198543,10.0620009 7.61177771,9.87725834 7.64940645,9.69909438 C7.51086248,9.70833427 7.37112971,9.71217248 7.23132969,9.71220401 C6.05784443,9.71220401 5.01689684,9.46777753 4.41458626,9.05821434 Z M4.41427983,7.5205467 L4.41530055,8.20765027 C4.41530055,8.540005 5.06411056,8.8911168 6.01362368,9.06120241 L6.20106182,9.09180809 C6.51940523,9.13887126 6.8667023,9.16575593 7.23126806,9.16575593 C7.43299156,9.16571042 7.63460237,9.1571295 7.83555986,9.14004135 C8.0464397,8.68053422 8.38471627,8.29226692 8.8048656,8.01941415 C8.33685222,8.12539418 7.80299217,8.18214936 7.23861566,8.18214936 C6.05999396,8.18214936 5.01446219,7.93462581 4.41427983,7.5205467 Z M8.51231436,6.61715739 L8.31151151,6.64845978 C7.97193554,6.6961568 7.60850987,6.72131148 7.23132969,6.72131148 C6.85430811,6.72131148 6.49112802,6.69616337 6.15184252,6.64847547 L5.951219,6.61717881 C5.32058296,6.50879462 4.78494044,6.31967068 4.41488419,6.06812246 L4.415,6.677 L4.42622951,6.67759563 C4.42622951,7.02054873 5.11723959,7.38367125 6.11563587,7.54701174 L6.3063437,7.57524319 C6.59752774,7.61391747 6.91112993,7.63570128 7.23861566,7.63570128 C7.5661014,7.63570128 7.87970359,7.61391747 8.17088763,7.57524319 L8.36159546,7.54701174 C9.32879186,7.38877564 10.0075135,7.04304879 10.0489891,6.70979986 L10.0510018,6.67759563 L10.0525973,6.06663879 C9.68191012,6.31889589 9.14471998,6.50855108 8.51231436,6.61715739 Z"/>
  </g>
</svg>
