<svg xmlns="http://www.w3.org/2000/svg" viewBox="0 0 16 16">
  <g>
    <path fill="#19426C" fill-rule="evenodd" d="M8,-8.8817842e-16 C8.41776787,-8.8817842e-16 8.77142774,0.274478973 8.89048093,0.652938238 C12.2654732,1.0575635 14.9424365,3.73452681 15.347033,7.11004064 C15.725521,7.22857226 16,7.58223213 16,8 C16,8.41776787 15.725521,8.77142774 15.3470618,8.89048093 C14.9424365,12.2654732 12.2654732,14.9424365 8.88995936,15.347033 C8.77142774,15.725521 8.41776787,16 8,16 C7.58223213,16 7.22857226,15.725521 7.10951907,15.3470618 C3.73452681,14.9424365 1.0575635,12.2654732 0.652966978,8.88995936 C0.274478973,8.77142774 -8.8817842e-16,8.41776787 -8.8817842e-16,8 C-8.8817842e-16,7.58223213 0.274478973,7.22857226 0.652938238,7.10951907 C1.0575635,3.73452681 3.73452681,1.0575635 7.11004064,0.652966978 C7.22857226,0.274478973 7.58223213,-8.8817842e-16 8,-8.8817842e-16 Z M4.886,8.333 L1.80507467,8.33413792 C1.71742979,8.56265534 1.54251576,8.74794335 1.3211292,8.84920535 C1.70216216,11.8888638 4.11113617,14.2978378 7.15093207,14.6803123 C7.25205665,14.4574842 7.43734466,14.2825702 7.66586208,14.1949253 L7.66568866,11.526109 C7.40188251,11.5146131 7.14759146,11.4895562 6.90718153,11.4520794 L6.72426117,11.42067 C5.67421013,11.2232581 4.92900118,10.7795018 4.88841091,10.1938749 L4.88666667,10.1433333 L4.886,8.333 Z M14.1949253,8.33413792 L11.116,8.333 L11.1166667,10.1433333 C11.1166667,10.9195598 9.88973841,11.4585051 8.33375654,11.5261385 L8.33413792,14.1949253 C8.56265534,14.2825702 8.74794335,14.4574842 8.84920535,14.6788708 C11.8888638,14.2978378 14.2978378,11.8888638 14.6803123,8.84906793 C14.4574842,8.74794335 14.2825702,8.56265534 14.1949253,8.33413792 Z M5.38666928,9.52203369 L5.38666667,10.1433333 C5.38666667,10.4554479 5.99875345,10.7843215 6.89274418,10.9404919 L7.0635904,10.9677037 C7.35357132,11.0095295 7.66906665,11.0333333 8,11.0333333 C8.29795527,11.0333333 8.58349805,11.0140371 8.84924008,10.979669 L9.02338691,10.9545704 C9.93566011,10.8092968 10.5768566,10.4853518 10.6148793,10.1726139 L10.6166667,10.1433333 L10.6167185,9.52888034 C10.0604644,9.90921149 9.09541282,10.1366667 8.00666667,10.1366667 C6.91140304,10.1366667 5.94131936,9.90648015 5.38666928,9.52203369 Z M5.38610124,8.10523887 L5.38791124,8.68084562 C5.3907365,8.69122501 5.39290981,8.70187309 5.39438446,8.71274315 L5.39666667,8.74666667 C5.39666667,9.03917097 5.93437718,9.34654544 6.73720383,9.51253433 L6.90122327,9.54380067 L7.07182786,9.57101894 C7.36138725,9.61285501 7.67636555,9.63666667 8.00666667,9.63666667 C8.33696779,9.63666667 8.65194608,9.61285501 8.94150547,9.57101894 L9.11211006,9.54380067 L9.2761295,9.51253433 C10.0521953,9.3520784 10.5805247,9.05950551 10.6148844,8.77596088 L10.6166667,8.74666667 L10.6167185,8.11554701 C10.0604644,8.49587816 9.09541282,8.72333333 8.00666667,8.72333333 C6.91387825,8.72333333 5.94167656,8.49067149 5.38610124,8.10523887 Z M10.6174243,6.64676634 C10.0620725,6.98773759 9.09725373,7.21333333 8,7.21333333 C6.90475712,7.21333333 5.94146425,6.9885637 5.38563312,6.64863979 L5.38791124,7.26751229 C5.3907365,7.27789168 5.39290981,7.28853975 5.39438446,7.29940981 L5.39666667,7.33333333 C5.39666667,7.75824632 6.55891632,8.22333333 8.00666667,8.22333333 C8.33696779,8.22333333 8.65194608,8.19952168 8.94150547,8.15768561 L9.11211006,8.13046734 L9.2761295,8.099201 C10.0521953,7.93874507 10.5805247,7.64617217 10.6148844,7.36262754 L10.6166667,7.33333333 Z M7.15079465,1.3211292 L7.06726416,1.33074785 C4.06701899,1.74650389 1.69864631,4.13907914 1.31968766,7.15093207 C1.54251576,7.25205665 1.71742979,7.43734466 1.80507467,7.66586208 L4.886,7.666 L4.886,6.009 L4.88333333,5.97333333 C4.88333333,5.33341852 6.10166938,4.80671808 7.6658097,4.74037836 L7.66586208,1.80507467 C7.43734466,1.71742979 7.25205665,1.54251576 7.15079465,1.3211292 Z M8.84906793,1.31968766 L8.83846826,1.34378969 C8.73515577,1.55443609 8.55480131,1.7204421 8.33413792,1.80507467 L8.3341903,4.74037836 C9.89833062,4.80671808 11.1166667,5.33341852 11.1166667,5.97333333 L11.1166667,5.97333333 L11.116,7.666 L14.1949253,7.66586208 C14.2825702,7.43734466 14.4574842,7.25205665 14.6788708,7.15079465 C14.2978378,4.11113617 11.8888638,1.70216216 8.84906793,1.31968766 Z"/>
  </g>
</svg>
