<svg xmlns="http://www.w3.org/2000/svg" viewBox="0 0 16 16">
  <g>
    <path fill="#19426C" fill-rule="evenodd" d="M13.4481049,1.84969054 C14.0072006,1.84969054 14.4604372,2.28988449 14.4604372,2.83289125 C14.4604372,2.98688397 14.4239857,3.13260799 14.3590057,3.26236837 C16.0805661,5.45047976 16.4936946,8.39125756 15.3787832,10.9764461 C14.1327358,13.8657045 11.2218829,15.7454268 7.99691178,15.7435924 C7.13726976,15.7438449 6.28452293,15.6081507 5.47189382,15.3428969 L5.21471203,16 L4.35532206,14.571176 L5.97578196,14.0654288 L5.72404418,14.7050381 C6.4560572,14.9407132 7.22336696,15.0612375 7.99701093,15.0610093 C10.9388988,15.0626839 13.5939837,13.3481271 14.7305445,10.7127393 C15.7374263,8.37804337 15.3779869,5.72539165 13.8471632,3.7354907 C13.7246935,3.78781881 13.5897988,3.81609195 13.4481049,3.81609195 C13.2624259,3.81609195 13.0884225,3.76754102 12.938819,3.68279723 L11.5481095,5.03354838 C11.5005359,5.07975294 11.4427154,5.10993992 11.3817526,5.12410932 C12.072493,5.98357704 12.0538199,7.21609346 11.29963,8.06012378 L11.29963,8.06012378 L10.5713334,8.7816092 L7.20660319,5.49955791 L7.93489977,4.79221927 C8.80362285,4.05999812 10.0720524,4.04160997 10.9589856,4.71024738 C10.9695957,4.66569163 10.9908426,4.6218578 11.0219177,4.58304228 L11.0511505,4.55089017 L12.4905396,3.1527222 C12.4550435,3.05245523 12.4357727,2.94485895 12.4357727,2.83289125 C12.4357727,2.28988449 12.8890092,1.84969054 13.4481049,1.84969054 Z M10.8225957,0 L11.6892687,1.42528736 L10.0688088,1.93457118 L10.3305426,1.26085362 C7.21175074,0.237173015 3.74085865,1.37272669 1.90656107,4.0763879 C0.148383099,6.6678527 0.346428879,10.0328083 2.30228947,12.4029983 C2.40821932,12.3663219 2.52182959,12.3465959 2.64018361,12.3465959 C2.75559326,12.3465959 2.86649226,12.3653526 2.96982518,12.3998985 L4.3508219,11.0584056 C4.37180699,11.0380244 4.39478589,11.0207599 4.41914882,11.0066119 C3.73171068,10.1181369 3.78819537,8.85436818 4.59930142,8.02475685 L5.327598,7.29973475 L6.062,8.013 L6.98807424,7.12127358 C7.12575636,6.98843035 7.3482513,6.98914118 7.48503058,7.12286127 C7.61128839,7.2462952 7.6203769,7.43991607 7.51273733,7.57345833 L7.48339586,7.60551687 L6.56,8.496 L7.588,9.495 L8.51385558,8.60314803 C8.6515377,8.4703048 8.87403264,8.47101563 9.01081193,8.60473572 C9.13706973,8.72816964 9.14615825,8.92179052 9.03851867,9.05533277 L9.0091772,9.08739131 L8.086,9.978 L8.69961118,10.5747126 L7.9713146,11.2997347 C7.1171083,12.0875129 5.815866,12.1423609 4.89958697,11.4747304 L4.87701367,11.5089117 L4.87701367,11.5089117 L4.84778093,11.5410639 L3.51568687,12.8358583 C3.60268494,12.9810011 3.65251586,13.149747 3.65251586,13.3297966 C3.65251586,13.8728034 3.19927927,14.3129973 2.64018361,14.3129973 C2.08108794,14.3129973 1.62785135,13.8728034 1.62785135,13.3297966 C1.62785135,13.1513801 1.67678241,12.9840632 1.76232223,12.8398136 C-0.390089996,10.2416466 -0.610615942,6.54601108 1.3197028,3.70081956 C3.33554915,0.729564707 7.15430737,-0.514225183 10.5799018,0.622219314 L10.8225957,0 Z"/>
  </g>
</svg>
