<svg xmlns="http://www.w3.org/2000/svg" viewBox="0 0 17 17">
  <g>
    <path fill="#19426C" fill-rule="evenodd" d="M14.7403603,5.24475886 L15.3633333,5.03061211 L14.8433333,6.48258616 L13.5066667,5.67052014 L14.1253148,5.45689952 C12.7661853,2.57118175 9.44857509,1.02192994 6.25192911,1.86040467 C3.50478107,2.58097687 1.58873561,4.87042098 1.30157815,7.50607053 C1.63420105,7.64419125 1.86666667,7.96593744 1.86666667,8.34059323 C1.86666667,8.70165264 1.6507674,9.01357299 1.33791057,9.16044804 C1.34654679,9.22157228 1.35685084,9.2834014 1.36808467,9.34526538 C1.89109936,12.2254763 4.28044947,14.3607565 7.15041686,14.7156828 C7.29633331,14.4000487 7.62191259,14.1809721 8,14.1809721 C8.37769151,14.1809721 8.70298479,14.3995902 8.84989231,14.714054 C11.8727635,14.3444781 14.2346331,12.045301 14.6697114,9.16271909 C14.3519511,9.01748637 14.1333333,8.7039187 14.1333333,8.34059323 C14.1333333,7.83828255 14.5512009,7.43107928 15.0666667,7.43107928 C15.5821324,7.43107928 16,7.83828255 16,8.34059323 C16,8.75764609 15.7119446,9.10913702 15.3191376,9.21644026 C14.8558004,12.4066759 12.240645,14.9542452 8.89339208,15.348496 C8.78098273,15.7252417 8.42341831,16 8,16 C7.57658169,16 7.21901727,15.7252417 7.10481755,15.3487056 C3.94266384,14.973959 1.30382609,12.6265193 0.728028455,9.45563585 L0.687899932,9.21833357 C0.291500726,9.11332623 3.88578059e-15,8.76013278 3.88578059e-15,8.34059323 C3.88578059e-15,7.9341976 0.273521768,7.59005602 0.650957727,7.47344755 C0.952869471,4.56960698 3.05857146,2.04206087 6.0829833,1.24876285 C9.60735025,0.324327478 13.2658195,2.0469519 14.7403603,5.24475886 Z M7.7,3.92295404 C7.8063544,3.87814818 7.92697894,3.87814818 8.03333333,3.92295404 L8.03333333,3.92295404 L8.50333333,4.11784989 C8.55470658,4.14012123 8.61044621,4.15120636 8.66666667,4.15033253 L8.66666667,4.15033253 L9.17333333,4.15033253 C9.32142314,4.15077074 9.45776142,4.22899603 9.53,4.35497317 L9.53,4.35497317 L9.77666667,4.77399924 C9.80816271,4.8289641 9.85274671,4.87575229 9.90666667,4.91042633 L9.90666667,4.91042633 L10.26,5.14105309 C10.3725181,5.21308259 10.4411636,5.3347073 10.4433333,5.4658795 L10.4433333,5.4658795 L10.4433333,5.93362953 C10.4439489,6.01336189 10.4682629,6.09121186 10.5133333,6.15775975 L10.5133333,6.15775975 L10.7066667,6.43711046 C10.7966522,6.5724886 10.7966522,6.74674451 10.7066667,6.88212265 L10.7066667,6.88212265 L10.5133333,7.16472163 C10.4688741,7.23034302 10.4445871,7.30697984 10.4433333,7.38560358 L10.4433333,7.38560358 L10.4433333,7.87933973 C10.4411557,7.98326957 10.3976005,8.08113268 10.3237424,8.15330693 L11.8746506,11.5148783 C11.9607085,11.7012547 11.7884125,11.8961486 11.5933073,11.8530135 L11.560619,11.843578 L10.353,11.4121518 L9.88264149,12.5778216 C9.80640698,12.7666394 9.54609699,12.7837457 9.44002846,12.6212067 L9.42203072,12.5886235 L8.054,9.627 L6.74621793,12.5818774 C6.66388653,12.7678577 6.40374876,12.7771208 6.30278455,12.6118802 L6.28580135,12.5788531 L5.78866667,11.4128014 L4.57843454,11.8589532 C4.38271303,11.9310841 4.19380597,11.7524763 4.24905525,11.565519 L4.26056487,11.5343237 L5.71,8.27 L5.57333333,8.18142829 C5.48366909,8.12348983 5.42189129,8.03421851 5.39936115,7.93374391 L5.39,7.85660188 L5.39,7.37261053 C5.38976656,7.30177141 5.37020964,7.23226645 5.33333333,7.17121815 L5.33333333,7.17121815 L5.12,6.77492993 C5.03663304,6.64589377 5.03663304,6.48169176 5.12,6.3526556 L5.12,6.3526556 L5.32333333,6.05706356 C5.36840379,5.99051567 5.39271778,5.9126657 5.39333333,5.83293334 L5.39333333,5.83293334 L5.39333333,5.4561347 C5.3955031,5.32496251 5.46414857,5.2033378 5.57666667,5.13130829 L5.57666667,5.13130829 L5.93333333,4.90068154 C5.98548021,4.86499375 6.02876192,4.81837693 6.06,4.76425445 L6.06,4.76425445 L6.30666667,4.34522838 C6.3800102,4.21873704 6.51757489,4.14053892 6.66666667,4.14058774 L6.66666667,4.14058774 L7.15,4.14058774 C7.21373398,4.14132233 7.2766814,4.12682356 7.33333333,4.09836031 L7.33333333,4.09836031 Z M9.90364046,8.43292518 C9.85777672,8.46570746 9.81910476,8.50720311 9.79,8.55497866 L9.79,8.55497866 L9.54333333,8.977253 C9.46972943,9.10148678 9.33387519,9.17819708 9.18666667,9.17864537 L9.18666667,9.17864537 L8.81,9.17864537 C8.73830191,9.17848869 8.66794706,9.19759539 8.60666667,9.23386586 L8.60666667,9.23386586 L8.457,9.315 L9.63433333,11.8617115 L9.97735851,11.0124226 C10.0229302,10.8995507 10.1456147,10.8380895 10.2639449,10.8637099 L10.2960477,10.8728831 L11.175,11.1867222 Z M6.1,8.619 L4.954,11.1993905 L5.83823212,10.8737493 C5.95392556,10.8311118 6.08231077,10.8775381 6.1427837,10.979102 L6.15753198,11.0081428 L6.52066667,11.8604122 L7.618,9.382 L7.34666667,9.23386586 C7.30581307,9.20968555 7.26092638,9.19313358 7.21429733,9.18483205 L7.14333333,9.17864537 L6.66666667,9.17864537 C6.51517255,9.17786646 6.37604941,9.09702041 6.30333333,8.96750821 L6.30333333,8.96750821 L6.1,8.619 Z M7.90666667,5.04685343 C6.9604188,5.04685343 6.19333333,5.79436228 6.19333333,6.71646118 C6.19333333,7.63856008 6.9604188,8.38606893 7.90666667,8.38606893 L7.90666667,8.38606893 L7.90666667,8.36982761 C8.84644383,8.36987094 9.6108582,7.63221118 9.62,6.71646118 C9.62,5.79436228 8.85291454,5.04685343 7.90666667,5.04685343 Z"/>
  </g>
</svg>
