<svg xmlns="http://www.w3.org/2000/svg" viewBox="0 0 16 16">
  <g>
    <circle class="ti-background" cx="8" cy="8" r="8" fill="#19426C"/>
    <path class="ti-foreground" fill="#FFF" d="M6.5,6.91 C5.86,8.73 4.7,12.12 4.7,12.12 L7.78,8.56 C7.05,7.72 6.66,7.26 6.63,7.21 C6.6,7.16 6.54,7.01 6.5,6.91 M8,7.08 C7.76046464,7.07996559 7.54472364,6.93511061 7.4540199,6.71341257 C7.36331615,6.49171454 7.41565411,6.2371799 7.58647261,6.06925662 C7.75729111,5.90133334 8.01268317,5.85335374 8.23279844,5.94783367 C8.45291371,6.04231359 8.59405992,6.26049905 8.59,6.5 C8.58454267,6.82193613 8.32198237,7.08004625 8,7.08 M9.1,5.79 C8.93675131,5.51305586 8.6766774,5.3064218 8.37,5.21 L8.37,4.21 C8.37,4.00565464 8.20434536,3.84 8,3.84 C7.79565464,3.84 7.63,4.00565464 7.63,4.21 L7.63,5.21 C7.54160727,5.23388069 7.45732482,5.27096497 7.38,5.32 C6.79751142,5.66340684 6.59370086,6.40775843 6.92,7 C7,7.13 11.3,12.08 11.3,12.08 C11.3,12.08 9.17,5.92 9.1,5.79"/>
  </g>
</svg>
