<svg xmlns="http://www.w3.org/2000/svg" viewBox="0 0 16 16">
  <g>
    <circle class="ti-background" cx="8" cy="8" r="8" fill="#19426C"/>
    <path class="ti-foreground" fill="#FFF" d="M7.99,2.87248784 C9.81000128,2.87248784 11.4884541,3.83239462 12.4140042,5.38603075 L12.520411,5.5712949 C13.1918556,5.75972783 13.63,6.06963055 13.63,6.42 C13.63,6.44851269 13.6270984,6.47675739 13.6214055,6.50469044 L13.62,9.87 C13.62,10.3782605 13.0271119,10.7869284 12.1892315,10.9867547 L12.2046513,10.9635892 C11.2205904,12.3661271 9.60238533,13.1861313 7.88943402,13.150269 C6.27187355,13.1164038 4.7706692,12.3235458 3.82999887,11.0206681 C2.9770295,10.8520928 2.36918641,10.4793584 2.29717275,9.97218007 L2.29,9.87 L2.29,6.42 L2.29718631,6.34238358 C2.35875257,6.01113644 2.8111877,5.72303588 3.47211412,5.55047607 L3.44959184,5.59201593 C4.34586104,3.91767935 6.09086823,2.87248784 7.99,2.87248784 Z M7.99,3.37248784 C6.43245463,3.37248784 4.98972394,4.15110032 4.13181947,5.42680664 C4.37781849,5.39631918 4.63910816,5.38 4.91,5.38 C6.35698604,5.38 7.53,5.84562386 7.53,6.42 L7.53,6.42 L7.54,6.42 L7.54,9.87 C7.54,10.5964156 6.31948224,11.12 4.91,11.12 C4.78542499,11.12 4.66290811,11.1163938 4.54301596,11.1093174 C5.39302889,12.0575035 6.60517493,12.6232723 7.89989971,12.6503786 C9.26379029,12.6789329 10.5611419,12.106424 11.457834,11.102163 C11.3084741,11.1136207 11.1554263,11.12 11,11.12 C9.61448021,11.12 8.47770068,10.6749171 8.37721973,9.97213088 L8.37,9.87 L8.37,6.42 L8.37721374,6.34238358 C8.47761286,5.80425645 9.61351424,5.38 11,5.38 C11.2993296,5.38 11.5869797,5.39977411 11.8550522,5.43619909 C10.9976429,4.15508153 9.55152232,3.37248784 7.99,3.37248784 Z M4.91,9.88 C4.04198492,9.88 3.26692305,9.7090282 2.78906657,9.41478576 L2.79,9.87 C2.79,10.1404326 3.29220528,10.4205081 4.03796324,10.5484689 L4.09048166,10.515102 L4.12211466,10.5620983 C4.36400399,10.5989849 4.62937407,10.62 4.91,10.62 C6.00706557,10.62 6.93180358,10.2494466 7.03116625,9.92642526 L7.04,9.87 L7.04166006,9.4124345 C6.56163065,9.70804499 5.78148998,9.88 4.91,9.88 Z M8.86960823,9.41321481 L8.87,9.87 C8.87,10.2349737 9.79890951,10.62 11,10.62 C12.0955919,10.62 13.0127201,10.2505342 13.1112418,9.92660652 L13.12,9.87 L13.1217608,9.41427598 C12.6439719,9.70883071 11.8685162,9.88 11,9.88 C10.1292771,9.88 9.3497428,9.70834757 8.86960823,9.41321481 Z M8.86960823,8.14321481 L8.87,8.69 C8.87,9.00744615 9.81508147,9.38 11,9.38 C12.1175386,9.38 13.0151586,9.04870934 13.111445,8.74351431 L13.12,8.69 L13.1217608,8.14427598 C12.6439719,8.43883071 11.8685162,8.61 11,8.61 C10.1292771,8.61 9.3497428,8.43834757 8.86960823,8.14321481 Z M4.91,8.61 C4.04198492,8.61 3.26692305,8.4390282 2.78906657,8.14478576 L2.79,8.69 C2.79,9.00858764 3.72672382,9.38 4.91,9.38 C6.02908972,9.38 6.93425071,9.04769116 7.03137017,8.74334462 L7.04,8.69 L7.04166006,8.1424345 C6.56163065,8.43804499 5.78148998,8.61 4.91,8.61 Z M8.86946154,7.02988456 L8.87,7.42 C8.87,7.73744615 9.81508147,8.11 11,8.11 C12.1175386,8.11 13.0151586,7.77870934 13.111445,7.47351431 L13.12,7.42 L13.1213306,7.03487452 C12.6426792,7.29266281 11.8707579,7.46 11,7.46 C10.1236364,7.46 9.34738604,7.29050132 8.86946154,7.02988456 Z M7.0419018,7.0246702 C6.5666166,7.28823819 5.78884044,7.46 4.91,7.46 C4.03804997,7.46 3.26558568,7.29092097 2.78933309,7.03085262 L2.79,7.42 C2.79,7.73858764 3.72672382,8.11 4.91,8.11 C6.02908972,8.11 6.93425071,7.77769116 7.03137017,7.47334462 L7.04,7.42 Z"/>
  </g>
</svg>
