<svg xmlns="http://www.w3.org/2000/svg" viewBox="0 0 16 16">
  <g>
    <circle class="ti-background" cx="8" cy="8" r="8" fill="#19426C"/>
    <path class="ti-foreground" fill="#FFF" d="M7.11,3.46 C9.03747378,3.46 10.6,4.0823242 10.6,4.85 C10.6,4.89785247 10.5939287,4.94514017 10.5820762,4.99174757 L10.5809416,7.64040903 C11.8100744,7.79792682 12.76,8.84802991 12.76,10.12 C12.76,11.5007119 11.6407119,12.62 10.26,12.62 C9.21065898,12.62 8.31231631,11.9734992 7.94155387,11.0570794 L7.74459185,11.0754124 C7.53541919,11.0916265 7.31991921,11.1 7.1,11.1 C5.26532985,11.1 3.73217034,10.5180738 3.61694901,9.66380028 L3.61,9.56 L3.61,4.85 C3.62,4.0823242 5.18252622,3.46 7.11,3.46 Z M10.27,8.59 L9.79,9.49 L8.82,9.68 L9.54,10.4 L9.36,11.43 L10.33,10.94 L11.23,11.49 L11.05,10.4 L11.78,9.68 L10.75,9.49 L10.27,8.59 Z M4.10889663,8.76190738 L4.11,9.56 C4.11,10.0685178 5.44581097,10.6 7.1,10.6 C7.34176541,10.6 7.57657495,10.588646 7.80128898,10.5676644 C7.77371428,10.4224639 7.76,10.2728335 7.76,10.12 C7.76,9.88665055 7.79197049,9.66076821 7.85177025,9.44649421 C7.61024927,9.46868125 7.35830695,9.48 7.1,9.48 C5.83593072,9.48 4.72144833,9.20933749 4.10889663,8.76190738 Z M4.10870082,7.03487638 L4.11,7.94 C4.11,8.45471197 5.43734072,8.98 7.1,8.98 C7.43985195,8.98 7.76539178,8.95805069 8.06824757,8.91871609 C8.46482331,8.19407592 9.21123995,7.68803327 10.0804493,7.6263486 L10.0814434,7.03657832 C9.4703699,7.48067339 8.35956464,7.75 7.1,7.75 C5.83762433,7.75 4.72183314,7.47986667 4.10870082,7.03487638 Z M4.10831316,5.55953896 L4.11,6.22 C4.11,6.72590496 5.44148469,7.25 7.1,7.25 C8.68476089,7.25 9.96430813,6.77143323 10.0725773,6.28616952 L10.08,6.22 L10.0812688,5.57952329 C9.46647244,5.97588263 8.36567897,6.24 7.11,6.24 C5.83333375,6.24 4.71677374,5.96697999 4.10831316,5.55953896 Z"/>
  </g>
</svg>
