<svg xmlns="http://www.w3.org/2000/svg" viewBox="0 0 16 16">
  <g>
    <circle class="ti-background" cx="8" cy="8" r="8" fill="#19426C"/>
    <path class="ti-foreground" fill="#FFF" d="M10.68,4.08 C10.8456854,4.08 10.98,4.21431458 10.98,4.38 L10.98,5.3 C10.98,5.46568542 10.8456854,5.6 10.68,5.6 L8.3,5.6 C8.13431458,5.6 8,5.46568542 8,5.3 L7.99900538,5.089 L5.67163936,5.09 C4.97674846,5.09455143 4.41455143,5.65674846 4.40999452,6.34834437 C4.41429481,6.99767365 4.90919438,7.52961184 5.54175662,7.59355515 L5.67,7.6 L7.38100538,7.599 L7.99942859,6.98218254 L8.61700538,7.6 L10.3316394,7.60000538 C11.2516859,7.60603866 12.004828,8.31348015 12.0832918,9.21595673 L12.09,9.36 L12.09,9.41 C12.09,10.3334201 11.3788491,11.090742 10.4743474,11.1641657 L10.33,11.17 L7.96539284,11.1700391 C7.84925751,11.7517004 7.33581393,12.19 6.72,12.19 C6.01859837,12.19 5.45,11.6214016 5.45,10.92 C5.45,10.2185984 6.01859837,9.65 6.72,9.65 C7.33546602,9.65 7.84867731,10.0878045 7.96519562,10.6689752 L10.33,10.67 C10.9823864,10.67 11.5189702,10.1741903 11.5834948,9.53882768 L11.59,9.41 L11.5900054,9.36163936 C11.5857334,8.71017914 11.0913479,8.1753444 10.4583447,8.10728456 L10.33,8.1 L8.63500538,8.099 L7.99942859,8.73580736 L7.36300538,8.099 L5.67000548,8.1 C4.702518,8.10002122 3.91641268,7.3191219 3.91000538,6.34836064 C3.91603866,5.42831414 4.62348015,4.67517198 5.52595673,4.59670824 L5.67,4.59 L7.99900538,4.589 L8,4.38 C8,4.21431458 8.13431458,4.08 8.3,4.08 L10.68,4.08 Z"/>
  </g>
</svg>
