<svg xmlns="http://www.w3.org/2000/svg" viewBox="0 0 16 16">
  <g>
    <circle class="ti-background" cx="8" cy="8" r="8" fill="#19426C"/>
    <path class="ti-foreground" fill="#FFF" d="M7.97,2.9 C9.34730387,2.9 10.5408967,3.68656037 11.1260884,4.83499089 C12.295639,5.41226553 13.1,6.61719848 13.1,8.01 C13.1,9.40796741 12.2896612,10.6166701 11.1130769,11.1920148 C10.5229101,12.3252411 9.33693237,13.1 7.97,13.1 C6.58753024,13.1 5.39015219,12.3075282 4.80735267,11.1520715 C3.67429726,10.5622033 2.9,9.37652506 2.9,8.01 C2.9,6.64876997 3.66830837,5.46698798 4.79493111,4.87464803 C5.37157799,3.70482001 6.5768011,2.9 7.97,2.9 Z M7.9999041,11.1885729 L7.90206453,11.2349204 C7.45638998,11.4372951 6.9613568,11.55 6.44,11.55 C6.14494642,11.55 5.85832382,11.5139027 5.58430746,11.4458835 C6.1413426,12.1484449 7.00293813,12.6 7.97,12.6 C8.92845322,12.6 9.78330944,12.1564485 10.3405001,11.463414 C10.0901274,11.5200951 9.82855605,11.55 9.56,11.55 C9.00009776,11.55 8.47055541,11.4200139 7.9999041,11.1885729 Z M10.8298565,8.52662937 C10.5089397,8.96456264 10.0944398,9.32331505 9.61506889,9.57535197 C9.36196366,10.0898583 8.98636783,10.5339207 8.52674418,10.8698648 C8.84922418,10.9864433 9.19718987,11.05 9.56,11.05 C9.97821838,11.05 10.376712,10.9655483 10.7393577,10.8127681 C10.9136201,10.4310458 11.01,10.0067783 11.01,9.56 C11.01,9.19718987 10.9464433,8.84922418 10.8298565,8.52662937 Z M5.11013522,8.52674418 C4.99249739,8.85504892 4.93,9.20022593 4.93,9.56 C4.93,9.99345329 5.02071661,10.4057186 5.18419963,10.7788457 C5.56672139,10.9531122 5.99204602,11.05 6.44,11.05 C6.80281013,11.05 7.15077582,10.9864433 7.47337063,10.8698565 C7.02555185,10.5426329 6.65757393,10.1128178 6.40391165,9.61500911 C5.88956592,9.3614766 5.44586148,8.98606983 5.11013522,8.52674418 Z M8.84401622,9.87096235 L8.72941311,9.89835073 C8.4847759,9.95182379 8.2306784,9.98 7.97,9.98 C7.69499861,9.98 7.42732117,9.94864244 7.17034823,9.88930786 C7.39908005,10.1799288 7.68032612,10.428188 7.99959954,10.6195137 C8.32674772,10.4237792 8.61257313,10.1695086 8.84401622,9.87096235 Z M11.4080369,5.59601878 L11.4283507,5.68058689 C11.4818238,5.9252241 11.51,6.1793216 11.51,6.44 C11.51,7.00029961 11.3798293,7.53019624 11.1480799,8.00109791 C11.3800139,8.47055541 11.51,9.00009776 11.51,9.56 C11.51,9.85935047 11.4728437,10.1500226 11.4028915,10.4276561 C12.1301592,9.87315917 12.6,8.99644819 12.6,8.01 C12.6,7.02625688 12.1327325,6.15164994 11.4080369,5.59601878 Z M4.51724754,5.65541747 L4.41144552,5.74576979 C3.79060871,6.30236123 3.4,7.11056484 3.4,8.01 C3.4,8.96278749 3.83832303,9.81319914 4.52432189,10.3705878 C4.46226226,10.1103452 4.43,9.83894021 4.43,9.56 C4.43,9.00009776 4.5599861,8.47055541 4.79142715,7.9999041 C4.56017068,7.53019624 4.43,7.00029961 4.43,6.44 C4.43,6.17036973 4.46014462,5.90778011 4.51724754,5.65541747 Z M8,6.56 C7.20470996,6.56 6.56,7.20470996 6.56,8 C6.56,8.79529004 7.20470996,9.44 8,9.44 C8.79529004,9.44 9.44,8.79529004 9.44,8 C9.44,7.20470996 8.79529004,6.56 8,6.56 Z M8,7.09 C8.50257912,7.09 8.91,7.49742088 8.91,8 C8.91,8.50257912 8.50257912,8.91 8,8.91 C7.49742088,8.91 7.09,8.50257912 7.09,8 C7.09,7.49742088 7.49742088,7.09 8,7.09 Z M6.12710852,7.1423439 L6.06863507,7.18785385 C5.78751652,7.41347154 5.54735813,7.6880289 5.36108504,7.99860079 C5.55850887,8.33084922 5.81752027,8.62056195 6.12196305,8.85398122 C6.05505354,8.58332616 6.02,8.30075668 6.02,8.01 C6.02,7.71064953 6.0571563,7.41997737 6.12710852,7.1423439 Z M9.88567811,7.19941223 L9.89835073,7.25058689 C9.95182379,7.4952241 9.98,7.7493216 9.98,8.01 C9.98,8.27963027 9.94985538,8.54221989 9.89275246,8.79458253 C10.1650056,8.5722466 10.3979076,8.30345444 10.5795137,8.00040046 C10.3958111,7.69331296 10.16064,7.42282458 9.88567811,7.19941223 Z M6.44,4.97 C5.98734309,4.97 5.55779318,5.06893285 5.17179352,5.2463553 C5.01666185,5.61292992 4.93,6.01634448 4.93,6.44 C4.93,6.80281013 4.99355665,7.15077582 5.11014354,7.47337063 C5.44869295,7.01005627 5.8970579,6.6321971 6.41692313,6.37798522 C6.67038314,5.89227947 7.03332944,5.47168233 7.47325582,5.15013522 C7.15077582,5.03355665 6.80281013,4.97 6.44,4.97 Z M9.56,4.97 C9.19718987,4.97 8.84922418,5.03355665 8.52662937,5.15014354 C8.97832204,5.48019853 9.34878819,5.91462805 9.60264733,6.41792847 C10.0883045,6.67088717 10.5085409,7.03363489 10.8298648,7.47325582 C10.9464433,7.15077582 11.01,6.80281013 11.01,6.44 C11.01,6.00262761 10.9176355,5.58682809 10.7513481,5.21104296 C10.3855773,5.05634147 9.9828717,4.97 9.56,4.97 Z M8.00139921,5.40108504 L7.93029193,5.44329143 C7.64842855,5.62263202 7.39810327,5.84712478 7.18949985,6.10658596 C7.43987257,6.0499049 7.70144395,6.02 7.97,6.02 C8.26505358,6.02 8.55167618,6.05609726 8.82569254,6.12411651 C8.59734725,5.83701307 8.31809799,5.59103288 8.00139921,5.40108504 Z M7.97,3.4 C6.99211786,3.4 6.12207534,3.86171633 5.56598378,4.57903765 C5.84580549,4.50769155 6.13850108,4.47 6.44,4.47 C7.00029961,4.47 7.53019624,4.60017068 8.00109791,4.83192008 C8.47055541,4.5999861 9.00009776,4.47 9.56,4.47 C9.83500139,4.47 10.1026788,4.50135756 10.3596518,4.56069214 C9.80347669,3.85408478 8.93976694,3.4 7.97,3.4 Z"/>
  </g>
</svg>
