<svg xmlns="http://www.w3.org/2000/svg"  viewBox="0 0 16 16">
  <g>
    <circle class="ti-background" cx="8" cy="8" r="8" fill="#19426C"/>
    <path class="ti-foreground" fill="#FFF" d="M9.58188522,3.83897525 L9.64749758,3.85628147 L12.3174976,4.85628147 C12.4389581,4.9017723 12.5232461,5.01328684 12.5338735,5.14255067 L12.5425317,5.29112039 C12.5946336,6.45999496 12.4546873,7.87229655 11.9577438,9.23725269 C11.3363935,10.9439171 10.2520309,12.2281701 8.61844967,12.8993195 L8.82,13.36 L7.51,13.01 L8.14,11.81 L8.34850885,12.285797 C9.80186919,11.6933099 10.7653955,10.5538177 11.3281705,9.00804213 C11.7479055,7.85515482 11.8950178,6.65080575 11.8818445,5.62358081 L11.875,5.406 L9.41250242,4.48371853 C9.2608982,4.42693793 9.17468667,4.27202724 9.19897525,4.11811478 L9.21628147,4.05250242 C9.27306207,3.9008982 9.42797276,3.81468667 9.58188522,3.83897525 Z M7.22,2.98 L8.05837111,3.28006993 C8.09681163,3.28690814 8.13371216,3.30041062 8.16736097,3.31979122 L8.5,3.44 L8.30495244,3.74866874 C8.29096833,3.77941989 8.27236327,3.80806579 8.24965612,3.83347673 L7.77,4.58 L7.60820864,4.112 L4.114,5.407 L4.10895554,5.62146021 C4.09825235,6.55471479 4.21922615,7.6355702 4.55526211,8.69380966 L4.67535375,9.04548502 C5.08520282,10.164855 5.70921745,11.0811073 6.58041913,11.7315653 C6.7286715,11.8422538 6.7591231,12.0521668 6.64843467,12.2004191 C6.53774624,12.3486715 6.32783325,12.3791231 6.17958087,12.2684347 C5.19524313,11.5335068 4.49795386,10.509664 4.04620012,9.27584498 C3.58249697,8.00939003 3.42327028,6.70336861 3.43929564,5.58673371 L3.45364733,5.17742738 C3.45452707,5.1637 3.45534587,5.15228828 3.45606918,5.14325662 C3.46439587,5.03928553 3.52037601,4.94673526 3.60503041,4.8906795 L3.67360109,4.85587217 L7.39020864,3.478 L7.22,2.98 Z M10.0469487,6.0277296 C10.2444312,6.17350759 10.3036313,6.43705412 10.1991662,6.64985584 L10.1522704,6.72694869 L8.1222704,9.47694869 C7.94798355,9.71305157 7.61555174,9.74457475 7.40021192,9.56460427 L7.33314628,9.49677152 L6.20314628,8.11677152 C6.0281982,7.90311811 6.05957506,7.58809436 6.27322848,7.41314628 C6.46314262,7.25763687 6.73315185,7.26514965 6.91368091,7.41879464 L6.97685372,7.48322848 L7.699,8.366 L9.3477296,6.13305131 C9.51172984,5.9108835 9.82478089,5.86372937 10.0469487,6.0277296 Z"/>
  </g>
</svg>
