<svg xmlns="http://www.w3.org/2000/svg" viewBox="0 0 16 16">
  <g>
    <circle class="ti-background" cx="8" cy="8" r="8" fill="#19426C"/>
    <path class="ti-foreground" fill="#FFF" d="M7.64,3.55 C7.75477271,3.49990908 7.88522729,3.49990908 8,3.55 L8,3.55 L8.44,3.79 C8.49626759,3.79951096 8.55373241,3.79951096 8.61,3.79 L8.61,3.79 L9.12,3.79 C9.26928258,3.78924031 9.40718022,3.8696806 9.48,4 L9.48,4 L9.73,4.44 C9.76255662,4.49562472 9.80693597,4.54341787 9.86,4.58 L9.86,4.58 L10.22,4.82 C10.3381354,4.89731575 10.4095202,5.02881404 10.41,5.17 L10.41,5.17 L10.41,5.66 C10.4085309,5.74212516 10.4330286,5.82261761 10.48,5.89 L10.48,5.89 L10.67,6.18 C10.7700529,6.31701173 10.7700529,6.50298827 10.67,6.64 L10.67,6.64 L10.48,6.94 C10.4330286,7.00738239 10.4085309,7.08787484 10.41,7.17 L10.41,7.17 L10.41,7.65 C10.4095202,7.79118596 10.3381354,7.92268425 10.22,8 L10.276304,7.95443181 L11.8579592,11.4673617 C11.9396288,11.6487495 11.7888357,11.8382133 11.6064014,11.8193104 L11.5446935,11.8049953 L10.313,11.357 L9.83245165,12.5720121 C9.7601091,12.7547723 9.52401891,12.7801971 9.4088672,12.6418974 L9.37191032,12.5823479 L7.98630396,9.49343181 L6.64938891,12.5794019 C6.5711969,12.7598449 6.33425833,12.7776061 6.22365989,12.6355431 L6.18866448,12.5747833 L5.69,11.359 L4.45813197,11.8239503 C4.27219711,11.8939943 4.09265873,11.7320422 4.12258978,11.5512756 L4.14060349,11.4906157 L5.60930396,8.09943181 L5.46,8 C5.36298731,7.9572822 5.28665199,7.87994485 5.24475271,7.78461305 L5.22,7.71 L5.22,7.2 C5.23466815,7.13414016 5.23466815,7.06585984 5.22,7 L5.22,7 L5,6.53 C4.91927875,6.39444001 4.91927875,6.22555999 5,6.09 L5,6.09 L5.25,5.78 C5.29828523,5.71326282 5.32291962,5.63232126 5.32,5.55 L5.32,5.55 L5.32,5.17 C5.32047978,5.02881404 5.39186457,4.89731575 5.51,4.82 L5.51,4.82 L5.87,4.58 C5.92306403,4.54341787 5.96744338,4.49562472 6,4.44 L6,4.44 L6.2,4 C6.26276045,3.84024203 6.41839247,3.73648735 6.59,3.74 L6.59,3.74 L7.09,3.74 C7.15254105,3.75416729 7.21745895,3.75416729 7.28,3.74 L7.28,3.74 Z M6.01630396,8.41843181 L4.833,11.148 L5.74186803,10.8060497 C5.84737047,10.7663056 5.9632683,10.8025094 6.02865332,10.888128 L6.06133552,10.9452167 L6.426,11.836 L7.55430396,9.23243181 L7.25,9.06 C7.21048324,9.03378715 7.16638004,9.01577025 7.12029303,9.00673009 L7.05,9 L6.56,9 C6.43452161,8.99074418 6.32024065,8.92438749 6.25,8.82 L6.25,8.82 L6.01630396,8.41843181 Z M9.84946153,8.22666288 C9.7988152,8.25996077 9.75761995,8.30588697 9.73,8.36 L9.73,8.36 L9.48,8.79 C9.40718022,8.9203194 9.26928258,9.00075969 9.12,9 L9.12,9 L8.74,9 C8.66571424,8.99959151 8.59285701,9.02040786 8.53,9.06 L8.53,9.06 L8.37830396,9.14743181 L9.585,11.836 L9.93754835,10.9479879 C9.97903924,10.8431688 10.083739,10.7816983 10.1910739,10.7908331 L10.2553065,10.8050047 L11.159,11.133 Z M7.83,4.59 C6.80275037,4.59 5.97,5.42275037 5.97,6.45 C5.97,7.47724963 6.80275037,8.31002721 7.83,8.31002721 C8.32411884,8.31267821 8.7987748,8.11757463 9.14817472,7.76817472 C9.49757463,7.4187748 9.69267821,6.94411884 9.69002721,6.45 C9.69002721,5.42275037 8.85724963,4.59 7.83,4.59 Z"/>
  </g>
</svg>
