<svg width="24" height="24" viewBox="0 0 24 24" fill="none" xmlns="http://www.w3.org/2000/svg">
<g clip-path="url(#clip0_2538_8532)">
<path d="M3.676 0.016C3.07247 0.064174 2.48776 0.248794 1.96599 0.555929C1.44423 0.863064 0.999032 1.28469 0.664 1.789C0.312 2.33 0.125 2.84 0.02 3.563C-8.73115e-10 3.699 -0.008 20.015 0.012 20.276C0.0493042 20.8521 0.211892 21.4131 0.488415 21.9198C0.764937 22.4266 1.14873 22.8669 1.613 23.21C2.22673 23.667 2.95947 23.9368 3.723 23.987C3.848 23.995 6.293 23.999 12.117 23.995L20.34 23.991L20.516 23.968C21.25 23.858 21.848 23.616 22.406 23.194C22.719 22.96 22.969 22.71 23.203 22.394C23.664 21.78 23.926 21.077 23.988 20.292C24.004 20.077 24.004 3.917 23.988 3.702C23.9316 2.92285 23.6476 2.17743 23.1711 1.55838C22.6946 0.93932 22.0468 0.473918 21.308 0.22C21.0247 0.127054 20.7335 0.0601111 20.438 0.02C20.316 0.005 3.887 -0.003 3.675 0.017L3.676 0.016ZM6.742 6.027C7.035 6.105 7.27 6.301 7.395 6.555C7.438 6.648 10.93 16.609 10.973 16.762C11.003 16.882 11.003 17.117 10.969 17.242C10.9252 17.4145 10.8369 17.5725 10.7128 17.7001C10.5887 17.8277 10.4332 17.9205 10.262 17.969C10.0918 18.0042 9.9162 18.0042 9.746 17.969C9.5896 17.927 9.44569 17.8478 9.32658 17.7381C9.20746 17.6283 9.11668 17.4914 9.062 17.339C8.9131 16.9265 8.76743 16.5128 8.625 16.098L8.235 14.977L8.175 14.984C8.109 14.996 4.915 14.996 4.825 14.988L4.765 14.98L4.395 16.047C3.895 17.473 3.918 17.41 3.867 17.497C3.7534 17.6956 3.57482 17.849 3.36134 17.9313C3.14787 18.0137 2.91254 18.0199 2.695 17.949C2.52603 17.8957 2.3745 17.798 2.25628 17.666C2.13805 17.5341 2.05748 17.3728 2.023 17.199C1.99641 17.0529 1.99913 16.903 2.031 16.758C2.071 16.618 5.547 6.68 5.598 6.574C5.734 6.281 6.008 6.07 6.336 6.012C6.418 5.996 6.664 6.008 6.742 6.027ZM15.023 6.027C15.9361 6.13496 16.7944 6.51943 17.4829 7.1289C18.1714 7.73837 18.6571 8.54371 18.875 9.437C18.965 9.824 18.992 10.047 18.992 10.5C18.992 10.965 18.965 11.184 18.867 11.582C18.6621 12.4102 18.2256 13.163 17.6087 13.7524C16.9917 14.3417 16.2197 14.7432 15.383 14.91C15.055 14.977 14.914 14.992 14.433 14.996L14.003 15.004L14 16.078C14 17.148 13.996 17.148 13.973 17.242C13.871 17.602 13.613 17.867 13.262 17.969C13.0918 18.0042 12.9162 18.0042 12.746 17.969C12.5748 17.9226 12.4187 17.8322 12.2932 17.7068C12.1678 17.5813 12.0774 17.4252 12.031 17.254L12.008 17.16V11.992C12.008 7.027 12.008 6.824 12.028 6.75C12.133 6.379 12.426 6.098 12.797 6.016C12.918 5.992 14.817 6 15.023 6.027ZM21.16 6.012C21.574 6.086 21.895 6.391 21.98 6.801C22.004 6.921 22.004 17.078 21.98 17.199C21.9315 17.4256 21.806 17.6283 21.6248 17.7727C21.4437 17.9172 21.2181 17.9944 20.9864 17.9912C20.7548 17.988 20.5314 17.9046 20.3543 17.7553C20.1771 17.6059 20.0573 17.3998 20.015 17.172C20.008 17.113 20.004 15.859 20.008 11.945L20.012 6.801L20.051 6.687C20.1075 6.51784 20.2077 6.36665 20.3416 6.24879C20.4754 6.13093 20.6381 6.05061 20.813 6.016C20.906 6 21.066 5.996 21.16 6.012Z" fill="currentColor"/>
<path d="M5.98 11.512L5.465 12.988L6.496 12.992C7.062 12.996 7.531 12.996 7.531 12.992C7.535 12.988 6.508 10.043 6.5 10.035L5.98 11.512ZM14.004 13L14.398 12.992C14.77 12.988 14.808 12.984 14.957 12.957C15.363 12.879 15.738 12.707 16.062 12.449C16.18 12.355 16.402 12.129 16.492 12.008C16.692 11.742 16.844 11.426 16.922 11.109C16.9751 10.9105 17 10.7055 16.996 10.5C16.996 10.36 16.988 10.238 16.976 10.152C16.9104 9.69022 16.7169 9.256 16.4173 8.89849C16.1178 8.54097 15.7242 8.27443 15.281 8.129C14.973 8.027 14.797 8.004 14.336 8.004H14.004V13Z" fill="currentColor"/>
</g>
<defs>
<clipPath id="clip0_2538_8532">
<rect width="24" height="24" fill="white"/>
</clipPath>
</defs>
</svg>
