<svg width="24" height="24" viewBox="0 0 24 24" fill="none" xmlns="http://www.w3.org/2000/svg">
<g clip-path="url(#clip0_3369_8083)">
<path d="M5.691 0.00799925C4.80996 0.0532048 3.94969 0.291848 3.17127 0.706981C2.39286 1.12211 1.71539 1.70355 1.187 2.41C0.601831 3.19746 0.218336 4.1162 0.07 5.086C0.02 5.418 0.008 5.594 0.008 5.992C0.008 6.43 0.023 6.622 0.09 7.012C0.268991 8.08248 0.736894 9.08376 1.44322 9.90781C2.14955 10.7319 3.06749 11.3474 4.098 11.688C4.578 11.852 5.145 11.961 5.609 11.984C5.777 11.992 5.824 12.012 5.679 12.012C5.49237 12.0207 5.3062 12.0373 5.121 12.062C4.258 12.192 3.421 12.512 2.695 12.988C2.335 13.227 2.075 13.441 1.765 13.75C1.285 14.23 0.93 14.723 0.637 15.313C0.304973 15.9708 0.0981252 16.6846 0.027 17.418C-9.31323e-10 17.688 -9.31323e-10 18.305 0.027 18.578C0.133 19.574 0.453 20.48 0.98 21.289C1.71801 22.4182 2.81724 23.2636 4.098 23.687C5.25049 24.0703 6.49165 24.0978 7.66 23.766C8.004 23.668 8.277 23.563 8.621 23.398C9.22637 23.1074 9.77737 22.715 10.25 22.238C10.719 21.766 11.07 21.273 11.367 20.684C11.734 19.949 11.937 19.18 11.988 18.328C11.9909 18.2534 11.9976 18.1789 12.008 18.105C12.008 18.105 12.012 18.117 12.012 18.137C12.012 18.199 12.07 18.375 12.117 18.469C12.247 18.707 12.461 18.883 12.727 18.965L12.817 18.988L17.004 18.996L17.012 23.184L17.035 23.274C17.141 23.609 17.391 23.859 17.727 23.961C17.8152 23.9884 17.9079 23.9989 18 23.992C18.0935 23.9988 18.1874 23.9883 18.277 23.961C18.609 23.859 18.859 23.609 18.965 23.273L18.992 23.183V21.09L18.996 18.996L23.188 18.988L23.273 18.965C23.609 18.859 23.859 18.609 23.961 18.273C23.9884 18.1848 23.9989 18.0921 23.992 18C23.9988 17.9065 23.9883 17.8126 23.961 17.723C23.9121 17.5604 23.8236 17.4125 23.7036 17.2924C23.5835 17.1724 23.4356 17.0839 23.273 17.035L23.188 17.008H21.09L18.996 17.004L18.992 14.91V12.812L18.965 12.727C18.9207 12.5957 18.8548 12.4727 18.77 12.363C18.6119 12.1788 18.395 12.0548 18.156 12.012C18.106 12.004 18.117 12.004 18.242 11.996C19.004 11.949 19.594 11.824 20.238 11.57C20.4963 11.4596 20.7492 11.3372 20.996 11.203C21.4554 10.9391 21.8772 10.6145 22.25 10.238C22.9064 9.58274 23.4 8.78264 23.691 7.902C24.1878 6.40485 24.0787 4.77269 23.387 3.355C23.1022 2.76267 22.7176 2.2238 22.25 1.762C21.8772 1.38552 21.4554 1.06094 20.996 0.796999C20.7406 0.658124 20.4786 0.531644 20.211 0.417999C18.8949 -0.0978831 17.4398 -0.1368 16.098 0.307999C14.9365 0.695791 13.9212 1.42919 13.188 2.41C12.4839 3.35964 12.0749 4.4955 12.012 5.676C12.012 5.824 11.992 5.777 11.984 5.609C11.8953 4.15763 11.2785 2.7889 10.25 1.761C9.75 1.261 9.258 0.913999 8.621 0.600999C8.37568 0.479083 8.12125 0.37644 7.86 0.293999C7.15976 0.070432 6.42526 -0.0264186 5.691 0.00799925ZM6.527 2.031C7.414 2.156 8.207 2.547 8.824 3.164C9.461 3.797 9.84 4.57 9.969 5.484C10 5.695 10 6.304 9.969 6.516C9.85635 7.39526 9.45338 8.21176 8.824 8.836C8.20526 9.45741 7.39695 9.8547 6.527 9.965C6.344 9.992 5.847 10.004 5.645 9.985C4.70967 9.90434 3.83332 9.49434 3.172 8.828C2.543 8.203 2.16 7.426 2.032 6.516C2.00071 6.17271 2.00071 5.82729 2.032 5.484C2.16 4.574 2.539 3.801 3.172 3.168C3.81568 2.52117 4.66251 2.11577 5.57 2.02C5.762 2 6.34 2.008 6.527 2.031ZM18.527 2.031C19.414 2.156 20.207 2.547 20.824 3.164C21.461 3.797 21.84 4.57 21.969 5.484C22 5.695 22 6.304 21.969 6.516C21.8563 7.39526 21.4534 8.21176 20.824 8.836C20.2053 9.45741 19.3969 9.8547 18.527 9.965C18.344 9.992 17.847 10.004 17.645 9.985C16.7097 9.90434 15.8333 9.49434 15.172 8.828C14.6137 8.27684 14.234 7.57063 14.082 6.801C14.02 6.508 14.012 6.395 14.012 6C14.012 5.605 14.02 5.492 14.082 5.195C14.2366 4.42632 14.616 3.72086 15.172 3.168C15.8157 2.52117 16.6625 2.11577 17.57 2.02C17.762 2 18.34 2.008 18.527 2.031ZM12.012 6.321C12.0653 7.37921 12.3998 8.40408 12.981 9.29C13.7188 10.419 14.8176 11.2644 16.098 11.688C16.6066 11.8592 17.1361 11.9602 17.672 11.988C17.793 11.996 17.891 12.004 17.895 12.008C17.895 12.008 17.883 12.012 17.863 12.012C17.805 12.012 17.625 12.07 17.531 12.117C17.297 12.242 17.121 12.461 17.035 12.727L17.012 12.812L17.004 17.004L14.91 17.008H12.816L12.726 17.035C12.4663 17.115 12.2479 17.2929 12.117 17.531C12.0658 17.6359 12.0304 17.7478 12.012 17.863C12.012 17.883 12.008 17.895 12.008 17.895C11.9976 17.8211 11.9909 17.7466 11.988 17.672C11.9473 16.8668 11.7428 16.0784 11.387 15.355C11.1022 14.7627 10.7176 14.2238 10.25 13.762C9.87719 13.3855 9.45541 13.0609 8.996 12.797C8.74058 12.6581 8.47861 12.5316 8.211 12.418C7.62866 12.1911 7.01475 12.0555 6.391 12.016C6.231 12.008 6.176 11.988 6.312 11.988C6.532 11.988 7.039 11.918 7.348 11.848C7.808 11.742 8.191 11.605 8.621 11.398C9.22637 11.1074 9.77737 10.715 10.25 10.238C10.9064 9.58274 11.4 8.78264 11.691 7.902C11.851 7.414 11.961 6.859 11.984 6.391C11.992 6.223 12.012 6.176 12.012 6.321ZM6.527 14.031C7.414 14.156 8.207 14.547 8.824 15.164C9.461 15.797 9.84 16.57 9.969 17.484C10 17.695 10 18.304 9.969 18.516C9.85635 19.3953 9.45338 20.2118 8.824 20.836C8.20526 21.4574 7.39695 21.8547 6.527 21.965C6.344 21.992 5.847 22.004 5.645 21.985C4.70967 21.9043 3.83332 21.4943 3.172 20.828C2.543 20.203 2.16 19.426 2.032 18.516C2.00071 18.1727 2.00071 17.8273 2.032 17.484C2.16 16.574 2.539 15.801 3.172 15.168C3.81568 14.5212 4.66251 14.1158 5.57 14.02C5.762 14 6.34 14.008 6.527 14.031Z" fill="currentColor"/>
</g>
<defs>
<clipPath id="clip0_3369_8083">
<rect width="24" height="24" fill="white"/>
</clipPath>
</defs>
</svg>
