<svg width="24" height="24" viewBox="0 0 24 24" fill="none" xmlns="http://www.w3.org/2000/svg">
<g clip-path="url(#clip0_2538_10527)">
<path d="M0.902 0.0119978C0.679973 0.0342162 0.471755 0.130055 0.31048 0.284263C0.149205 0.438471 0.0441384 0.642188 0.012 0.862998C0.004 0.929998 -2.32831e-10 1.727 0.004 3.598L0.008 6.238L0.031 6.332C0.0744834 6.49329 0.157683 6.64113 0.273 6.762C0.406 6.895 0.57 6.992 0.758 7.043C0.883 7.078 1.118 7.082 1.238 7.051C1.352 7.02 1.5 6.949 1.594 6.879C1.81714 6.67132 2.03585 6.45894 2.25 6.242L2.832 5.66L4.57 7.398C5.695 8.523 6.336 9.156 6.383 9.184C6.54781 9.30152 6.74669 9.3616 6.949 9.355C7.04272 9.36228 7.13699 9.35211 7.227 9.325C7.352 9.285 7.477 9.219 7.574 9.141C8.12481 8.60951 8.66393 8.06604 9.191 7.511C9.24854 7.42167 9.29331 7.32473 9.324 7.223C9.3515 7.13443 9.36202 7.04147 9.355 6.949C9.36215 6.8556 9.35198 6.76169 9.325 6.672C9.28513 6.54586 9.2228 6.42797 9.141 6.324C9.109 6.285 8.312 5.48 7.371 4.539L5.661 2.829L6.258 2.23C6.633 1.855 6.871 1.61 6.902 1.559C6.96801 1.45994 7.01576 1.34987 7.043 1.234C7.07697 1.06168 7.0715 0.883904 7.027 0.713998C6.97599 0.546342 6.88223 0.394845 6.75494 0.274394C6.62765 0.153944 6.47121 0.0686853 6.301 0.0269978C6.219 0.0069978 6.101 0.0069978 3.605 0.0039978C2.165 0.0039978 0.95 0.0079978 0.902 0.0119978ZM17.832 0.0119978C17.6639 0.0269642 17.5023 0.084721 17.3628 0.179769C17.2233 0.274817 17.1105 0.403993 17.035 0.554998C16.971 0.685087 16.9375 0.828032 16.937 0.972998C16.9251 1.12305 16.9523 1.27362 17.016 1.41C17.082 1.563 17.141 1.625 17.742 2.23L18.34 2.828L16.629 4.539C16.0344 5.12939 15.4444 5.7244 14.859 6.324C14.7168 6.50128 14.6393 6.72174 14.6393 6.949C14.6393 7.17625 14.7168 7.39671 14.859 7.574C14.957 7.695 16.418 9.144 16.489 9.191C16.589 9.254 16.664 9.289 16.777 9.324C16.8656 9.3515 16.9585 9.36202 17.051 9.355C17.1431 9.36248 17.2357 9.3523 17.324 9.325C17.437 9.289 17.516 9.254 17.614 9.191C17.656 9.164 18.32 8.508 19.426 7.402L21.172 5.66L21.75 6.242C22.07 6.559 22.367 6.848 22.406 6.879C22.5 6.949 22.648 7.019 22.766 7.051C22.883 7.082 23.117 7.078 23.246 7.043C23.606 6.945 23.875 6.68 23.969 6.328L23.996 6.227V0.835998L23.961 0.729998C23.9111 0.560951 23.8183 0.407706 23.6916 0.285202C23.5649 0.162699 23.4086 0.0751183 23.238 0.0309978L23.141 0.0079978L20.531 0.0039978C19.098 0.0039978 17.883 0.0079978 17.832 0.0119978ZM6.793 14.648C6.64534 14.6721 6.50512 14.7296 6.383 14.816C6.336 14.844 5.695 15.476 4.57 16.602L2.832 18.34L2.25 17.758C2.03585 17.5411 1.81714 17.3287 1.594 17.121C1.48568 17.0443 1.36537 16.9862 1.238 16.949C1.07916 16.9185 0.915737 16.9213 0.758 16.957C0.57 17.007 0.41 17.102 0.281 17.234C0.158998 17.3542 0.0724972 17.5058 0.031 17.672L0.008 17.77V23.16L0.039 23.266C0.152 23.629 0.41 23.875 0.769 23.969L0.875 23.992H3.535C6.085 23.992 6.195 23.992 6.285 23.972C6.45874 23.9341 6.61919 23.8505 6.74967 23.7297C6.88015 23.6089 6.97591 23.4553 7.027 23.285C7.07 23.145 7.078 22.915 7.043 22.765C7.01669 22.6493 6.96923 22.5395 6.903 22.441C6.871 22.391 6.633 22.145 6.258 21.766L5.66 21.168L7.371 19.457C8.312 18.52 9.109 17.715 9.141 17.676C9.219 17.578 9.285 17.453 9.324 17.324C9.35138 17.2358 9.36189 17.1431 9.355 17.051C9.36228 16.9573 9.35211 16.863 9.325 16.773C9.28502 16.6472 9.22269 16.5297 9.141 16.426C8.60951 15.8752 8.06604 15.3361 7.511 14.809C7.289 14.664 7.031 14.609 6.793 14.649V14.648ZM16.871 14.652C16.7339 14.6776 16.6036 14.731 16.488 14.809C16.414 14.859 14.961 16.297 14.855 16.429C14.714 16.6064 14.6375 16.8266 14.6383 17.0532C14.639 17.2798 14.7168 17.4995 14.859 17.676C14.891 17.715 15.688 18.52 16.629 19.457L18.339 21.168L17.742 21.766C17.367 22.145 17.129 22.391 17.098 22.441C17.0313 22.5397 16.9835 22.6499 16.957 22.766C16.9224 22.9385 16.9292 23.1167 16.977 23.286C17.09 23.645 17.352 23.886 17.715 23.973C17.801 23.993 17.93 23.993 20.469 23.993H23.129L23.234 23.969C23.586 23.879 23.852 23.625 23.961 23.266L23.996 23.16V17.77L23.969 17.672C23.9229 17.4993 23.8316 17.3421 23.7045 17.2164C23.5774 17.0908 23.4192 17.0012 23.246 16.957C23.0883 16.9213 22.9248 16.9186 22.766 16.949C22.6488 16.9825 22.5369 17.0327 22.434 17.098C22.402 17.118 22.105 17.406 21.774 17.738L21.172 18.34L19.461 16.629C18.8706 16.0344 18.2756 15.4443 17.676 14.859C17.5715 14.7783 17.4537 14.7164 17.328 14.676C17.1786 14.6391 17.0235 14.6309 16.871 14.652Z" fill="currentColor"/>
</g>
<defs>
<clipPath id="clip0_2538_10527">
<rect width="24" height="24" fill="white"/>
</clipPath>
</defs>
</svg>
