<svg width="24" height="24" viewBox="0 0 24 24" fill="none" xmlns="http://www.w3.org/2000/svg">
<g clip-path="url(#clip0_2538_9482)">
<path d="M10.887 1.008C10.6832 1.03093 10.4914 1.11595 10.3376 1.25154C10.1838 1.38712 10.0753 1.56672 10.027 1.766C9.9984 1.91284 9.99704 2.06368 10.023 2.211C10.109 2.613 10.441 2.921 10.852 2.988C10.902 2.996 12.91 3 17 3C22.379 3 23.082 2.996 23.176 2.98C23.4129 2.93892 23.627 2.81351 23.7787 2.62691C23.9304 2.44032 24.0094 2.20515 24.0013 1.96483C23.9931 1.7245 23.8983 1.49524 23.7343 1.31937C23.5703 1.1435 23.3482 1.03291 23.109 1.008C22.992 0.992002 11.008 0.992002 10.887 1.008ZM10.79 5.023C10.563 5.07 10.34 5.215 10.195 5.406C10.1218 5.51378 10.0664 5.63264 10.031 5.758C9.99593 5.91608 9.99593 6.07992 10.031 6.238C10.0631 6.35699 10.1134 6.47032 10.18 6.574C10.285 6.719 10.457 6.855 10.617 6.922C10.812 7.004 10.398 6.996 15.539 6.992L20.188 6.988L20.273 6.965C20.609 6.859 20.859 6.609 20.961 6.273C20.9884 6.18475 20.9989 6.09214 20.992 6C20.9988 5.90655 20.9883 5.81263 20.961 5.723C20.9121 5.56043 20.8236 5.41251 20.7036 5.29245C20.5835 5.1724 20.4356 5.08395 20.273 5.035L20.188 5.008H15.528C11.426 5.008 10.859 5.008 10.789 5.023H10.79ZM4.816 8.43C4.65147 8.46226 4.49753 8.53488 4.36802 8.64136C4.2385 8.74783 4.13747 8.88482 4.074 9.04C4.004 9.21 4.004 9.215 4 9.883L3.992 10.5H2.461C0.766 10.5 0.816 10.496 0.625 10.574C0.375 10.68 0.16 10.898 0.066 11.148C0.008 11.305 0 11.378 0 12C0 12.633 0.008 12.703 0.07 12.867C0.121 12.992 0.18 13.082 0.281 13.187C0.377307 13.2903 0.494599 13.3718 0.625 13.426C0.816 13.504 0.765 13.5 2.461 13.5H3.992L4 14.117C4.004 14.785 4.004 14.789 4.074 14.961C4.14613 15.1377 4.26732 15.2901 4.42325 15.4001C4.57919 15.5101 4.76335 15.5733 4.954 15.582C5.1466 15.5948 5.33851 15.5484 5.504 15.449C5.586 15.402 5.714 15.277 6.969 14.023C7.45137 13.547 7.92807 13.0653 8.399 12.578C8.51902 12.4084 8.58348 12.2058 8.58348 11.998C8.58348 11.7902 8.51902 11.5876 8.399 11.418C8.367 11.383 7.723 10.73 6.965 9.973C5.925 8.937 5.566 8.586 5.515 8.555C5.4293 8.50539 5.33754 8.46707 5.242 8.441C5.10137 8.41581 4.95774 8.4121 4.816 8.43ZM11.781 9.012C11.5454 9.03878 11.3164 9.10754 11.105 9.215C10.7938 9.36952 10.5287 9.60308 10.3361 9.89231C10.1436 10.1815 10.0304 10.5163 10.008 10.863C9.99237 11.6209 9.99237 12.3791 10.008 13.137C10.058 13.852 10.468 14.465 11.105 14.781C11.335 14.898 11.539 14.957 11.805 14.988C11.965 15.004 22.047 15.004 22.203 14.988C22.59 14.945 22.933 14.805 23.234 14.57C23.4446 14.404 23.6198 14.1976 23.7493 13.9628C23.8788 13.728 23.96 13.4697 23.988 13.203C24.004 13.051 24.004 10.949 23.988 10.797C23.9613 10.5493 23.8901 10.3085 23.778 10.086C23.6888 9.9135 23.5742 9.7554 23.438 9.617C23.1118 9.27426 22.6737 9.05964 22.203 9.012C22.066 8.996 11.91 8.996 11.781 9.012ZM10.79 17.023C10.563 17.07 10.34 17.215 10.195 17.406C10.1218 17.5138 10.0664 17.6326 10.031 17.758C9.99593 17.9161 9.99593 18.0799 10.031 18.238C10.0631 18.357 10.1134 18.4703 10.18 18.574C10.285 18.719 10.457 18.855 10.617 18.922C10.809 19 10.457 18.996 15 18.996C19.543 18.996 19.191 19 19.379 18.922C19.672 18.801 19.887 18.551 19.969 18.238C20.0041 18.0799 20.0041 17.9161 19.969 17.758C19.9306 17.6065 19.8572 17.466 19.7548 17.3479C19.6523 17.2298 19.5236 17.1374 19.379 17.078C19.191 16.996 19.543 17.004 14.992 17.004C11.379 17.008 10.859 17.008 10.789 17.024L10.79 17.023ZM10.824 21.016C10.6295 21.052 10.4498 21.1445 10.3076 21.282C10.1653 21.4195 10.0667 21.5958 10.024 21.789C9.99771 21.9363 9.99873 22.0871 10.027 22.234C10.117 22.598 10.387 22.871 10.766 22.973L10.859 22.996L16.918 23C20.961 23.004 23.012 23 23.086 22.992C23.2622 22.979 23.4316 22.9184 23.576 22.8166C23.7205 22.7148 23.8345 22.5756 23.906 22.414C23.9601 22.3014 23.9908 22.1789 23.996 22.054C24.027 21.554 23.668 21.105 23.176 21.016C23.082 21.004 22.379 21 16.988 21C11.996 21.004 10.891 21.004 10.824 21.016Z" fill="currentColor"/>
</g>
<defs>
<clipPath id="clip0_2538_9482">
<rect width="24" height="24" fill="white"/>
</clipPath>
</defs>
</svg>
