<svg width="24" height="24" viewBox="0 0 24 24" fill="none" xmlns="http://www.w3.org/2000/svg">
<path d="M9.277 5.133C9.055 5.168 8.863 5.243 8.66 5.379C8.559 5.445 8.297 5.703 6 7.996C5.11371 8.88038 4.22971 9.76705 3.348 10.656C3.01415 11.0232 2.82916 11.5017 2.82916 11.998C2.82916 12.4943 3.01415 12.9728 3.348 13.34C3.406 13.406 4.602 14.605 6 16.004C7.969 17.964 8.57 18.559 8.637 18.605C8.82 18.73 8.949 18.789 9.148 18.84C9.266 18.871 9.297 18.871 9.48 18.871C9.754 18.871 9.926 18.836 10.152 18.727C10.582 18.52 10.882 18.133 10.977 17.66C10.997 17.57 10.997 17.43 11 16.281L11.004 15L15.625 14.996C19.852 14.992 20.254 14.992 20.335 14.973C20.6217 14.923 20.894 14.8111 21.133 14.645C21.564 14.3486 21.8624 13.8959 21.965 13.383L21.992 13.258V10.738L21.965 10.618C21.844 10.066 21.555 9.637 21.102 9.332C20.8313 9.15389 20.5214 9.04409 20.199 9.012C20.121 9.004 18.664 9 15.547 9H11.004L11 7.719C10.996 6.309 11 6.367 10.922 6.137C10.8356 5.88919 10.6866 5.66791 10.4895 5.49463C10.2924 5.32135 10.0538 5.20194 9.797 5.148C9.62462 5.12542 9.45039 5.12039 9.277 5.133Z" fill="currentColor"/>
</svg>
