<svg width="24" height="24" viewBox="0 0 24 24" fill="none" xmlns="http://www.w3.org/2000/svg">
<path d="M14.273 5.137C13.9431 5.19098 13.64 5.35149 13.41 5.594C13.2591 5.74711 13.1455 5.93291 13.078 6.137C13.004 6.367 13.004 6.309 13 7.719L12.996 9H8.453C5.336 9 3.879 9.004 3.801 9.012C3.50853 9.04215 3.22605 9.13528 2.973 9.285C2.73314 9.43021 2.52596 9.62353 2.36452 9.85278C2.20308 10.082 2.09088 10.3422 2.035 10.617L2.012 10.738V13.258L2.035 13.383C2.098 13.656 2.199 13.898 2.34 14.113C2.61 14.516 3.031 14.813 3.504 14.933C3.738 14.996 3.398 14.993 8.383 14.996L12.996 15L13 16.281C13.004 17.43 13.004 17.571 13.023 17.661C13.145 18.27 13.598 18.719 14.219 18.851C14.355 18.883 14.679 18.883 14.809 18.851C15.012 18.801 15.16 18.738 15.339 18.621C15.441 18.555 15.703 18.297 18.027 15.973C18.9219 15.0866 19.8099 14.1932 20.691 13.293C20.9993 12.932 21.1687 12.4728 21.1687 11.998C21.1687 11.5232 20.9993 11.064 20.691 10.703C19.8094 9.8047 18.9213 8.91267 18.027 8.027C15.797 5.797 15.437 5.441 15.347 5.383C15.1981 5.27898 15.0313 5.20337 14.855 5.16C14.6632 5.12321 14.4671 5.11546 14.273 5.137Z" fill="currentColor"/>
</svg>
