<svg width="24" height="24" viewBox="0 0 24 24" fill="none" xmlns="http://www.w3.org/2000/svg">
<path d="M11.8 2.02C11.477 2.086 11.191 2.324 11.074 2.629C11 2.82 11.004 2.582 11.004 6.242V9.59L8.629 7.219C7.105 5.695 6.23 4.829 6.188 4.8C6.10793 4.74807 6.02112 4.70736 5.93 4.679C5.836 4.647 5.816 4.647 5.645 4.647C5.438 4.644 5.379 4.655 5.227 4.726C5.0841 4.79068 4.95837 4.88797 4.8599 5.01007C4.76142 5.13216 4.69296 5.27564 4.66 5.429C4.63724 5.56327 4.63589 5.7003 4.656 5.835C4.68 5.945 4.738 6.085 4.793 6.175C4.832 6.233 5.445 6.851 7.219 8.628L9.594 11.003H6.242C3.406 11.003 2.882 11.007 2.809 11.019C2.66635 11.047 2.53154 11.1059 2.41403 11.1914C2.29652 11.277 2.19915 11.3873 2.12875 11.5145C2.05834 11.6417 2.0166 11.7827 2.00645 11.9277C1.9963 12.0728 2.01799 12.2182 2.07 12.354C2.188 12.671 2.477 12.914 2.809 12.979C2.883 12.991 3.406 12.995 6.242 12.995H9.594L7.219 15.37C5.445 17.147 4.832 17.765 4.793 17.823C4.69286 17.9853 4.6402 18.1723 4.641 18.363C4.641 18.628 4.731 18.851 4.906 19.042C4.99875 19.1429 5.11166 19.2231 5.23742 19.2776C5.36318 19.332 5.49897 19.3594 5.636 19.358C5.832 19.358 6.02 19.304 6.176 19.206C6.234 19.167 6.852 18.554 8.629 16.78L11.004 14.405V17.757C11.004 21.39 11 21.179 11.07 21.354C11.187 21.671 11.477 21.914 11.809 21.979C12.055 22.026 12.336 21.972 12.539 21.839C12.637 21.776 12.777 21.636 12.839 21.539C12.902 21.444 12.957 21.304 12.98 21.19C12.992 21.116 12.996 20.593 12.996 17.757V14.405L15.371 16.78C17.148 18.554 17.766 19.167 17.824 19.206C17.984 19.304 18.168 19.358 18.364 19.358C18.644 19.358 18.864 19.268 19.062 19.069C19.1792 18.9586 19.2666 18.8203 19.316 18.667C19.3437 18.5811 19.3572 18.4912 19.356 18.401C19.3687 18.1974 19.3165 17.9951 19.207 17.823C19.168 17.765 18.559 17.147 16.781 15.37L14.411 12.995H17.758C21.418 12.995 21.18 12.999 21.371 12.925C21.4969 12.8764 21.6103 12.8002 21.703 12.702C21.831 12.5743 21.9218 12.4141 21.9658 12.2387C22.0098 12.0633 22.0052 11.8793 21.9526 11.7063C21.9 11.5333 21.8014 11.3778 21.6672 11.2566C21.533 11.1353 21.3684 11.0529 21.191 11.018C21.117 11.007 20.598 11.003 17.758 11.003H14.41L16.781 8.628C18.559 6.851 19.168 6.233 19.207 6.175C19.3084 6.0133 19.3612 5.82585 19.359 5.635C19.3615 5.50894 19.3389 5.38366 19.2925 5.26641C19.2462 5.14916 19.177 5.04229 19.089 4.952C18.9962 4.8514 18.8832 4.77158 18.7574 4.71781C18.6316 4.66403 18.4958 4.63751 18.359 4.64C18.168 4.64 17.98 4.694 17.824 4.792C17.766 4.831 17.148 5.44 15.371 7.218L12.996 9.588V6.243C12.996 3.403 12.992 2.883 12.98 2.81C12.9418 2.61484 12.8464 2.43547 12.7059 2.29477C12.5654 2.15407 12.3861 2.05841 12.191 2.02C12.0617 2.00054 11.9293 2.00054 11.8 2.02Z" fill="currentColor"/>
</svg>
