<svg width="24" height="24" viewBox="0 0 24 24" fill="none" xmlns="http://www.w3.org/2000/svg">
<path d="M0.816 0.02C0.667555 0.0484007 0.527489 0.110113 0.406349 0.200489C0.28521 0.290866 0.186156 0.40755 0.116647 0.541755C0.0471373 0.67596 0.00898456 0.824188 0.00506179 0.975275C0.00113903 1.12636 0.0315485 1.27637 0.094 1.414C0.199 1.641 0.364 1.804 0.578 1.902C0.773 1.992 0.868 2.004 1.504 2.004H2.004L2.008 7.191C2.012 12.071 2.012 12.391 2.031 12.516C2.082 12.84 2.152 13.125 2.25 13.391C2.324 13.594 2.492 13.934 2.602 14.109C2.93136 14.6364 3.37858 15.0803 3.90851 15.4056C4.43843 15.731 5.03661 15.929 5.656 15.984C5.746 15.992 6.738 15.996 8.398 15.996H11.004L11 17.668V19.34L7.773 20.723C6.66981 21.1954 5.56846 21.672 4.469 22.153C4.34045 22.2411 4.23038 22.3536 4.145 22.484C4.0588 22.6275 4.0103 22.7906 4.00401 22.9579C3.99771 23.1252 4.03383 23.2914 4.109 23.441C4.23 23.695 4.449 23.875 4.73 23.961C4.81724 23.9883 4.90885 23.9988 5 23.992C5.129 23.992 5.18 23.988 5.25 23.969C5.297 23.953 6.836 23.301 8.664 22.516C10.77 21.613 12 21.094 12.016 21.098C12.031 21.098 13.531 21.742 15.352 22.523C17.172 23.305 18.703 23.953 18.75 23.965C18.9782 24.0246 19.2202 24.0011 19.4328 23.8987C19.6453 23.7963 19.8144 23.6217 19.91 23.406C20.043 23.117 20.023 22.762 19.855 22.484C19.7691 22.35 19.656 22.2355 19.523 22.148C19.473 22.121 17.988 21.477 16.219 20.718L13.004 19.34L12.996 15.996L15.687 15.992C18.645 15.988 18.426 15.992 18.793 15.918C19.639 15.7457 20.4067 15.3047 20.9817 14.6606C21.5567 14.0166 21.9083 13.204 21.984 12.344C21.992 12.25 21.996 10.492 21.996 7.105V2.004H22.496C23.133 2.004 23.234 1.992 23.422 1.902C23.6376 1.80401 23.8098 1.63039 23.906 1.414C23.9601 1.30136 23.9908 1.17887 23.996 1.054C24.027 0.554 23.668 0.105 23.176 0.016C23.082 0.004 21.856 0 11.988 0C2.426 0.004 0.895 0.004 0.816 0.02Z" fill="currentColor"/>
</svg>
