<svg width="24" height="24" viewBox="0 0 24 24" fill="none" xmlns="http://www.w3.org/2000/svg">
<path d="M3.75 3.00798C2.88991 3.06329 2.07063 3.39471 1.414 3.95298C1.2111 4.13132 1.02314 4.32597 0.852 4.53498C0.358558 5.16184 0.0657932 5.92302 0.012 6.71898C0.004 6.84398 -2.32831e-10 8.42198 0.004 12.117L0.008 17.336L0.031 17.516C0.101 17.988 0.211 18.348 0.411 18.754C0.625 19.195 0.871 19.527 1.238 19.887C1.83057 20.4592 2.58718 20.8319 3.402 20.953C3.719 21 3.793 21 6.645 20.996L9.504 20.988C9.84 20.992 10.234 21.152 10.594 21.434C10.734 21.543 10.864 21.676 11.027 21.883C11.324 22.258 11.375 22.305 11.563 22.395C11.6975 22.4653 11.8483 22.4988 12 22.492C12.1529 22.4984 12.3049 22.4649 12.441 22.395C12.625 22.305 12.676 22.258 12.969 21.883C13.047 21.789 13.152 21.668 13.203 21.613C13.503 21.3066 13.8861 21.0946 14.305 21.003C14.387 20.988 14.453 20.984 14.609 20.988C14.719 20.992 16.047 20.992 17.563 20.992H20.316L20.504 20.969C21.2366 20.8752 21.9289 20.5803 22.504 20.117C22.648 20 22.93 19.73 23.047 19.586C23.562 18.976 23.867 18.273 23.973 17.465C23.993 17.313 23.996 17.047 23.996 12C23.996 6.95298 23.992 6.68698 23.973 6.53098C23.8789 5.7488 23.5569 5.01155 23.047 4.41098C22.8869 4.23095 22.7144 4.06221 22.531 3.90598C21.9531 3.43366 21.2556 3.13078 20.516 3.03098L20.34 3.00798L17.633 3.00398C14.883 2.99998 14.711 2.99998 14.433 3.04298C13.8007 3.13299 13.1993 3.37414 12.68 3.74598C12.5528 3.84336 12.4101 3.91874 12.258 3.96898C12.1719 3.98728 12.0838 3.99401 11.996 3.98898C11.82 3.98898 11.796 3.98898 11.707 3.95698C11.5668 3.90775 11.4359 3.83505 11.32 3.74198C10.7206 3.31531 10.015 3.06267 9.281 3.01198C9.141 2.99998 3.895 2.99598 3.75 3.00798ZM9.398 5.03498C9.81978 5.12266 10.2023 5.3434 10.4892 5.66473C10.7762 5.98605 10.9524 6.391 10.992 6.81998C11.008 6.98798 11.008 17.012 10.992 17.18C10.9595 17.5229 10.8399 17.8518 10.6443 18.1354C10.4488 18.4189 10.184 18.6477 9.875 18.8C9.70111 18.8842 9.5158 18.9425 9.325 18.973C9.188 18.996 9.141 18.996 6.508 18.996C3.594 18.996 3.734 19 3.48 18.93C3.14086 18.8425 2.83272 18.6625 2.59 18.41C2.33751 18.1673 2.15748 17.8591 2.07 17.52C2 17.258 2.004 17.64 2.004 12C2.004 6.35498 2 6.74198 2.07 6.47998C2.16 6.13698 2.324 5.85498 2.59 5.58998C2.855 5.32398 3.137 5.15998 3.484 5.06598C3.73 5.00398 3.582 5.00798 6.547 5.00798L9.289 5.01198L9.398 5.03498ZM20.395 5.03498C21.238 5.22298 21.852 5.87098 21.98 6.70698C21.992 6.81298 21.996 7.45298 21.996 12C21.996 16.547 21.992 17.188 21.98 17.29C21.93 17.61 21.812 17.898 21.621 18.168C21.4902 18.3369 21.3391 18.4891 21.171 18.621C20.891 18.821 20.571 18.945 20.25 18.984C20.168 18.992 19.422 18.996 17.434 18.992L14.727 18.988L14.609 18.965C14.3509 18.9089 14.1058 18.804 13.887 18.656C13.6398 18.4909 13.4325 18.2728 13.2802 18.0174C13.128 17.7621 13.0346 17.476 13.007 17.18C12.9914 13.7267 12.9914 10.2733 13.007 6.81998C13.078 6.11298 13.488 5.52298 14.117 5.20698C14.285 5.12098 14.555 5.03898 14.762 5.01198C14.782 5.00798 16.027 5.00798 17.539 5.00798L20.281 5.01198L20.395 5.03498Z" fill="currentColor"/>
<path d="M14.879 7.00798C14.73 7.02298 14.559 7.08998 14.426 7.17998C14.2189 7.33119 14.0753 7.55391 14.023 7.80498C13.996 7.93398 14.003 8.14798 14.039 8.27298C14.133 8.60198 14.387 8.85498 14.727 8.96098L14.832 8.99198L17.449 8.99598C19.754 8.99998 20.082 8.99598 20.172 8.97998C20.322 8.95403 20.464 8.89398 20.5871 8.80446C20.7103 8.71493 20.8112 8.59833 20.8821 8.46363C20.953 8.32894 20.9921 8.17976 20.9962 8.02759C21.0003 7.87542 20.9695 7.72433 20.906 7.58598C20.8357 7.42807 20.725 7.29149 20.5851 7.19001C20.4451 7.08853 20.2809 7.02574 20.109 7.00798C18.3657 6.99236 16.6223 6.99236 14.879 7.00798ZM14.8 11.02C14.477 11.086 14.191 11.324 14.074 11.629C14.0194 11.7675 13.9963 11.9164 14.0065 12.065C14.0167 12.2135 14.0598 12.3579 14.1328 12.4877C14.2058 12.6175 14.3067 12.7293 14.4284 12.8152C14.55 12.901 14.6893 12.9587 14.836 12.984C14.902 12.992 15.594 12.996 17.555 12.992L20.188 12.988L20.273 12.965C20.609 12.859 20.859 12.609 20.961 12.273C20.9884 12.1847 20.9989 12.0921 20.992 12C20.9988 11.9065 20.9883 11.8126 20.961 11.723C20.9121 11.5604 20.8236 11.4125 20.7036 11.2924C20.5835 11.1724 20.4356 11.0839 20.273 11.035L20.188 11.008H17.53C15.39 11.008 14.862 11.008 14.8 11.02ZM14.844 15.012C14.68 15.039 14.5 15.122 14.371 15.222C14.2137 15.3545 14.0983 15.53 14.039 15.727C14.004 15.852 13.996 16.067 14.023 16.195C14.098 16.57 14.375 16.863 14.762 16.973L14.855 16.996H18.148L18.242 16.973C18.496 16.898 18.695 16.753 18.832 16.551C18.9512 16.3769 19.0076 16.1674 18.992 15.957C18.9904 15.8107 18.9526 15.6671 18.882 15.539C18.8198 15.4194 18.7341 15.3135 18.6302 15.2276C18.5263 15.1417 18.4062 15.0776 18.277 15.039L18.172 15.004H16.535C15.637 15.004 14.875 15.008 14.844 15.012Z" fill="currentColor"/>
</svg>
