<svg width="24" height="24" viewBox="0 0 24 24" fill="none" xmlns="http://www.w3.org/2000/svg">
<path d="M21.89 1.00799C21.71 1.03099 21.535 1.09799 21.398 1.20299C21.355 1.23799 19.156 3.42599 16.512 6.07399L11.703 10.883L11.598 10.836C11.4141 10.7618 11.2261 10.698 11.035 10.645C10.7072 10.5603 10.3696 10.5192 10.031 10.523C9.395 10.523 8.891 10.641 8.211 10.945C8.011 11.031 7.691 11.25 7.477 11.434C7.43 11.477 7.238 11.656 7.051 11.836C6.664 12.211 6.387 12.469 6.09 12.723C4.695 13.922 3.32 14.727 2.09 15.066C1.824 15.136 1.77 15.156 1.64 15.223C1.21 15.445 0.96 15.828 1.008 16.203C1.028 16.367 1.176 16.797 1.34 17.183C1.496 17.555 1.754 18.043 1.996 18.426C2.215 18.773 2.59 19.289 2.707 19.406C2.793 19.492 2.93 19.574 3.055 19.621C3.152 19.656 3.168 19.656 3.325 19.656C3.449 19.656 3.504 19.652 3.559 19.636C3.703 19.59 4.082 19.379 4.383 19.176C4.906 18.816 5.332 18.43 5.77 17.91C5.93 17.715 5.977 17.672 6.102 17.594C6.363 17.43 6.715 17.402 7.004 17.524C7.293 17.641 7.516 17.898 7.594 18.204C7.629 18.336 7.629 18.554 7.594 18.684C7.566 18.797 7.484 18.964 7.414 19.054C7.20643 19.3161 6.98336 19.5655 6.746 19.801C6.51516 20.0386 6.2686 20.2604 6.008 20.465C5.773 20.652 5.68 20.758 5.586 20.945C5.50699 21.0997 5.46684 21.2713 5.469 21.445C5.469 21.695 5.543 21.895 5.703 22.059C5.809 22.164 5.906 22.227 6.277 22.41C6.883 22.71 7.48 22.902 8.051 22.98C8.359 23.023 8.555 22.973 8.746 22.793C8.809 22.734 9.266 22.137 10.832 20.043C12.195 18.23 12.875 17.332 12.957 17.243C13.5432 16.6134 13.9113 15.8119 14.007 14.957C14.031 14.762 14.027 14.227 14 14.027C13.9199 13.391 13.6895 12.7833 13.328 12.254C13.3052 12.2227 13.2845 12.19 13.266 12.156C13.266 12.152 15.41 9.99999 18.036 7.37499C21.816 3.59399 22.812 2.59399 22.844 2.53499C22.9229 2.40952 22.9729 2.26806 22.9904 2.12087C23.0079 1.97368 22.9924 1.82444 22.945 1.68399C22.89 1.52071 22.7939 1.37429 22.6661 1.25874C22.5383 1.14318 22.383 1.06235 22.215 1.02399C22.1083 1.00329 21.9992 0.997903 21.891 1.00799H21.89ZM17.41 13.004C17.02 13.039 16.703 13.18 16.445 13.434C16.3025 13.5737 16.1899 13.741 16.1141 13.9256C16.0382 14.1103 16.0008 14.3084 16.004 14.508C16.0039 14.8627 16.1306 15.2057 16.3613 15.4752C16.592 15.7446 16.9115 15.9226 17.262 15.977C17.406 16.004 17.672 15.997 17.812 15.965C18.0949 15.9038 18.3543 15.7628 18.5594 15.5586C18.7645 15.3544 18.9066 15.0956 18.969 14.813C18.996 14.672 19.004 14.406 18.98 14.262C18.9358 13.9893 18.8172 13.7341 18.6372 13.5244C18.4572 13.3148 18.2229 13.159 17.96 13.074C17.7817 13.0209 17.5959 12.9972 17.41 13.004ZM21.363 16.008C21.0317 16.0375 20.7199 16.1769 20.477 16.4042C20.2342 16.6314 20.0744 16.9334 20.023 17.262C19.9825 17.5209 20.0083 17.7858 20.098 18.032C20.258 18.445 20.598 18.773 21.008 18.914C21.156 18.964 21.266 18.984 21.445 18.992C21.6369 19.002 21.8288 18.974 22.0099 18.9096C22.1909 18.8453 22.3575 18.7458 22.5 18.617C22.6906 18.4452 22.8344 18.2278 22.9178 17.9852C23.0013 17.7425 23.0216 17.4827 22.977 17.23C22.9275 16.9665 22.8088 16.721 22.6331 16.5185C22.4573 16.3161 22.2309 16.164 21.977 16.078C21.7791 16.0139 21.5703 15.9901 21.363 16.008ZM16.3 18.008C15.7957 18.0488 15.3156 18.2417 14.9231 18.5611C14.5307 18.8805 14.2444 19.3114 14.102 19.797C14.0316 20.0233 14.0011 20.2602 14.012 20.497C14.012 20.801 14.02 20.883 14.082 21.125C14.258 21.82 14.742 22.422 15.395 22.738C15.746 22.914 16.098 22.996 16.5 22.996C16.91 22.996 17.246 22.918 17.61 22.738C17.9883 22.5507 18.3129 22.2704 18.5532 21.9234C18.7935 21.5764 18.9418 21.174 18.984 20.754C19.004 20.586 18.992 20.246 18.961 20.074C18.8738 19.5649 18.631 19.0954 18.266 18.73C17.8987 18.3588 17.422 18.1151 16.906 18.035C16.766 18.012 16.426 17.996 16.301 18.008H16.3Z" fill="currentColor"/>
</svg>
