<svg width="24" height="24" viewBox="0 0 24 24" fill="none" xmlns="http://www.w3.org/2000/svg">
<g clip-path="url(#clip0_2538_13668)">
<path d="M5.844 0.0120283C5.454 0.0820283 5.152 0.348028 5.039 0.727028C5.012 0.813028 5.012 0.832028 5.008 1.41003L5.004 2.00403H4.398C3.754 2.00403 3.628 2.01203 3.348 2.05403C2.41639 2.20813 1.56931 2.68676 0.956599 3.40525C0.343889 4.12373 0.00504159 5.03578 0 5.98003C0 6.75803 0.434 7.45703 1.121 7.79303C1.359 7.91003 1.598 7.97303 1.887 7.99303C2.016 8.00003 5.059 8.00303 12.129 8.00003C21.734 7.99603 22.195 7.99603 22.309 7.97703C22.729 7.91067 23.1165 7.71081 23.414 7.40703C23.578 7.24203 23.684 7.09703 23.785 6.89503C23.996 6.46903 24.047 6.05103 23.957 5.43003C23.8333 4.57038 23.4333 3.77429 22.8175 3.16188C22.2016 2.54947 21.4033 2.15396 20.543 2.03503C20.398 2.01503 20.32 2.01203 19.691 2.00803L18.996 2.00003L18.992 1.41003C18.988 0.832028 18.988 0.813028 18.961 0.727028C18.9135 0.564367 18.826 0.416191 18.7065 0.296016C18.587 0.175841 18.4394 0.0874924 18.277 0.0390283C18.1874 0.011707 18.0935 0.00119693 18 0.00802832C17.9079 0.00113397 17.8152 0.0116505 17.727 0.0390283C17.5959 0.0749414 17.4739 0.138016 17.3688 0.224156C17.2637 0.310295 17.1779 0.417575 17.117 0.539028C17.012 0.742028 17.012 0.734028 17.007 1.41003L17.004 2.00403H6.996L6.992 1.41003C6.988 0.832028 6.988 0.813028 6.961 0.727028C6.90323 0.523914 6.78239 0.344419 6.61595 0.214462C6.4495 0.0845051 6.24606 0.0108133 6.035 0.00402832C5.961 0.00402832 5.875 0.00402832 5.844 0.0120283ZM1.84 10.008C1.37288 10.0455 0.933811 10.246 0.599627 10.5745C0.265443 10.903 0.0574333 11.3386 0.012 11.805C0.004 11.898 0 13.12 0.004 16.137L0.008 20.336L0.031 20.516C0.101 20.988 0.211 21.348 0.411 21.754C0.80931 22.573 1.47642 23.2305 2.301 23.617C2.738 23.828 3.215 23.949 3.727 23.988C3.847 23.996 6.313 24 12.117 23.996L20.34 23.992L20.516 23.969C21.2439 23.8714 21.9313 23.5768 22.504 23.117C22.648 23 22.93 22.73 23.047 22.586C23.5463 21.9986 23.8664 21.2801 23.969 20.516L23.992 20.336L23.996 16.141C24 13.176 23.996 11.906 23.988 11.813C23.9438 11.3415 23.7333 10.901 23.3942 10.5703C23.0551 10.2397 22.6095 10.0404 22.137 10.008C21.961 9.99203 2.027 9.99603 1.84 10.008Z" fill="currentColor"/>
</g>
<defs>
<clipPath id="clip0_2538_13668">
<rect width="24" height="24" fill="white"/>
</clipPath>
</defs>
</svg>
