<svg width="24" height="24" viewBox="0 0 24 24" fill="none" xmlns="http://www.w3.org/2000/svg">
<g clip-path="url(#clip0_2538_14241)">
<path d="M6.586 5.01203C5.43979 5.08082 4.32805 5.43025 3.34859 6.02957C2.36913 6.6289 1.55197 7.45975 0.969 8.44903C0.092888 9.93491 -0.20305 11.6922 0.138078 13.3831C0.479206 15.0739 1.43332 16.579 2.817 17.609C3.74815 18.302 4.83601 18.7544 5.984 18.926C6.383 18.98 6.512 18.988 7.004 18.988C7.34515 18.9965 7.68639 18.9758 8.024 18.926C9.31334 18.7326 10.5236 18.1849 11.52 17.344C11.723 17.172 12.195 16.704 12.355 16.504C12.6135 16.1956 12.8463 15.8665 13.051 15.52C13.18 15.3 13.211 15.227 13.242 15.113C13.344 14.715 13.137 14.301 12.746 14.109C12.6163 14.0436 12.4733 14.0091 12.328 14.008C12.078 13.996 11.878 14.055 11.668 14.195C11.5 14.305 11.395 14.422 11.227 14.672C11.0362 14.9701 10.815 15.2476 10.567 15.5C9.92152 16.1607 9.10512 16.6289 8.20896 16.8524C7.3128 17.076 6.37214 17.0461 5.492 16.766C4.66141 16.5004 3.91333 16.0251 3.32 15.386C2.57562 14.58 2.11948 13.5499 2.023 12.457C1.996 12.199 2.003 11.657 2.035 11.414C2.18944 10.0991 2.8595 8.89925 3.898 8.07803C4.055 7.95303 4.34 7.76203 4.516 7.65603C5.42295 7.13846 6.46942 6.91847 7.508 7.02703C7.824 7.05903 8.055 7.10503 8.516 7.22703C8.566 7.24203 8.636 7.24703 8.789 7.24703C9.016 7.24703 9.109 7.23003 9.293 7.15703C9.593 7.03903 9.832 6.81703 9.933 6.56203C10.07 6.22203 9.977 5.81203 9.707 5.58603C9.613 5.50803 9.488 5.44903 9.207 5.35603C8.70967 5.19359 8.19643 5.08464 7.676 5.03103C7.504 5.01603 6.746 5.00103 6.586 5.01203Z" fill="currentColor"/>
<path d="M16.45 5.01603C15.8523 5.05656 15.2623 5.17455 14.695 5.36703C13.3554 5.82097 12.1836 6.66772 11.332 7.79703C11.016 8.21903 10.722 8.71103 10.684 8.89803C10.554 9.46103 11.02 9.99603 11.644 9.99603C11.867 9.99603 12.07 9.93003 12.266 9.80103C12.434 9.69103 12.536 9.57803 12.719 9.30503C12.977 8.91803 13.152 8.70303 13.457 8.40603C14.1171 7.76542 14.9416 7.31989 15.8392 7.1187C16.7368 6.9175 17.6726 6.96849 18.543 7.26603C19.3893 7.55746 20.1424 8.06952 20.7247 8.74931C21.3069 9.42911 21.6971 10.252 21.855 11.133C21.91 11.469 21.922 11.578 21.922 12C21.922 12.422 21.91 12.535 21.855 12.867C21.6311 14.1148 20.9452 15.2324 19.934 15.997C19.3335 16.449 18.6387 16.7595 17.9014 16.9054C17.1641 17.0514 16.4034 17.029 15.676 16.84C15.546 16.809 15.418 16.781 15.395 16.773C15.2529 16.7635 15.1103 16.7676 14.969 16.785C14.551 16.867 14.199 17.129 14.066 17.461C13.926 17.805 14.031 18.238 14.305 18.449C14.402 18.523 14.496 18.566 14.727 18.645C15.199 18.801 15.734 18.915 16.254 18.965C16.656 19.008 17.293 19 17.719 18.953C19.5271 18.7484 21.1843 17.8473 22.339 16.441C23.1614 15.4369 23.6889 14.2242 23.863 12.938C23.9074 12.6274 23.9271 12.3138 23.922 12C23.922 11.605 23.91 11.41 23.863 11.062C23.7112 9.92813 23.2832 8.84889 22.6166 7.91916C21.95 6.98943 21.0652 6.2377 20.04 5.73003C19.2793 5.35116 18.4558 5.11428 17.61 5.03103C17.2238 5.00851 16.8367 5.00351 16.45 5.01603ZM9.95 11.941C9.93 11.953 9.93 12.027 9.95 12.051C9.973 12.078 9.996 12.055 9.996 12C9.996 11.953 9.977 11.926 9.95 11.941Z" fill="currentColor"/>
</g>
<defs>
<clipPath id="clip0_2538_14241">
<rect width="24" height="24" fill="white"/>
</clipPath>
</defs>
</svg>
