<svg width="24" height="24" viewBox="0 0 24 24" fill="none" xmlns="http://www.w3.org/2000/svg">
<path d="M17.82 3.016C17.7581 3.03095 17.6971 3.04897 17.637 3.06999C17.426 3.15199 17.785 2.79999 12.18 8.40599L6.996 13.586L4.796 11.391C3.09 9.684 2.579 9.17999 2.528 9.14799C2.017 8.84799 1.364 9.035 1.11 9.555C1.03493 9.70517 0.998879 9.87183 1.00517 10.0396C1.01146 10.2074 1.05989 10.3709 1.146 10.515C1.196 10.605 1.407 10.816 3.747 13.16C4.61811 14.0376 5.49446 14.9099 6.376 15.777C6.474 15.855 6.63 15.934 6.751 15.969C6.856 16 7.138 16 7.243 15.969C7.345 15.941 7.443 15.902 7.521 15.855C7.618 15.797 18.798 4.61699 18.856 4.51999C18.9531 4.36298 19.0008 4.18044 18.993 3.996C18.989 3.793 18.978 3.726 18.892 3.555C18.7973 3.35838 18.6386 3.19973 18.442 3.105C18.2489 3.01381 18.033 2.98247 17.822 3.015L17.82 3.016ZM17.8 11.02C17.477 11.086 17.191 11.324 17.074 11.629C17.004 11.813 17.004 11.797 17.004 12.949V14.004H15.949C15.089 14.004 14.879 14.008 14.809 14.02C14.6663 14.048 14.5315 14.1069 14.414 14.1924C14.2965 14.278 14.1992 14.3883 14.1287 14.5155C14.0583 14.6427 14.0166 14.7837 14.0065 14.9287C13.9963 15.0738 14.018 15.2192 14.07 15.355C14.187 15.672 14.477 15.915 14.809 15.98C14.879 15.992 15.089 15.996 15.949 15.996H17.004V17.051C17.004 18.191 17.004 18.188 17.07 18.355C17.187 18.672 17.477 18.915 17.809 18.98C18.055 19.027 18.336 18.973 18.539 18.84C18.637 18.777 18.777 18.637 18.839 18.54C18.8727 18.4862 18.9018 18.4297 18.926 18.371C18.996 18.191 18.996 18.203 18.996 17.051V15.996H20.051C21.203 15.996 21.191 15.996 21.371 15.926C21.4969 15.8774 21.6103 15.8012 21.703 15.703C21.831 15.5753 21.9218 15.4151 21.9658 15.2397C22.0098 15.0643 22.0052 14.8803 21.9526 14.7073C21.9 14.5343 21.8014 14.3788 21.6672 14.2576C21.533 14.1363 21.3684 14.0539 21.191 14.019C21.121 14.008 20.911 14.004 20.051 14.004H18.996V12.949C18.996 12.089 18.992 11.879 18.98 11.809C18.9418 11.6138 18.8464 11.4345 18.7059 11.2938C18.5654 11.1531 18.3861 11.0574 18.191 11.019C18.0617 10.9995 17.9303 10.9995 17.801 11.019L17.8 11.02Z" fill="currentColor"/>
</svg>
