<svg width="24" height="24" viewBox="0 0 24 24" fill="none" xmlns="http://www.w3.org/2000/svg">
<g clip-path="url(#clip0_2538_16049)">
<path d="M9.89 1.00799C9.71 1.03099 9.535 1.09799 9.398 1.20299C8.48142 2.10537 7.57007 3.01305 6.664 3.92599L4.004 6.58599L2.809 5.39499C1.727 4.31599 1.602 4.19499 1.519 4.14499C1.32719 4.03064 1.10264 3.98372 0.88109 4.01168C0.659536 4.03964 0.453695 4.14089 0.296308 4.29931C0.138921 4.45773 0.0390273 4.66423 0.0125161 4.88596C-0.0139951 5.1077 0.0343987 5.33193 0.15 5.52299C0.208 5.62099 3.33 8.74999 3.446 8.82799C3.61624 8.94187 3.81734 9.00074 4.02212 8.99663C4.2269 8.99251 4.42547 8.92562 4.591 8.80499C4.626 8.77699 6.044 7.37099 7.731 5.67999C10.153 3.25799 10.813 2.59399 10.845 2.53499C10.9239 2.40952 10.9739 2.26806 10.9914 2.12087C11.0089 1.97368 10.9934 1.82444 10.946 1.68399C10.891 1.52071 10.7949 1.37429 10.6671 1.25874C10.5393 1.14318 10.384 1.06235 10.216 1.02399C10.1093 1.00329 10.0002 0.997903 9.892 1.00799H9.89ZM12.844 5.01199C12.7386 5.0332 12.6362 5.06712 12.539 5.11299C12.4187 5.1755 12.3123 5.26181 12.2264 5.36666C12.1404 5.47152 12.0767 5.59275 12.039 5.72299C12.0117 5.81262 12.0012 5.90653 12.008 5.99999C12.008 6.15199 12.012 6.17999 12.039 6.27299C12.141 6.61299 12.399 6.86699 12.734 6.96499L12.828 6.98799H23.176L23.266 6.96499C23.602 6.86699 23.859 6.61299 23.961 6.27299C23.9884 6.18474 23.9989 6.09213 23.992 5.99999C23.9988 5.90653 23.9883 5.81262 23.961 5.72299C23.9121 5.56041 23.8236 5.41249 23.7036 5.29244C23.5835 5.17238 23.4356 5.08393 23.273 5.03499L23.188 5.00799H18.03C15.194 5.00799 12.859 5.00799 12.844 5.01199ZM9.797 8.01999C9.6615 8.05248 9.53307 8.10941 9.418 8.18799C9.383 8.21099 8.152 9.43799 6.676 10.91L3.996 13.586L2.793 12.386C1.543 11.136 1.547 11.145 1.387 11.078C1.26453 11.0236 1.13074 10.9996 0.997 11.008C0.793 11.012 0.727 11.023 0.559 11.109C0.43226 11.1709 0.32015 11.2591 0.230121 11.3677C0.140093 11.4763 0.0742076 11.6028 0.0368448 11.7388C-0.000518096 11.8748 -0.008503 12.0172 0.0134207 12.1566C0.0353445 12.2959 0.0866747 12.429 0.164 12.547C0.214 12.621 0.492 12.907 1.754 14.172C2.598 15.016 3.328 15.738 3.375 15.777C3.473 15.855 3.629 15.934 3.75 15.969C3.855 16 4.137 16 4.242 15.969C4.344 15.941 4.442 15.902 4.52 15.855C4.574 15.825 5.313 15.094 7.68 12.727C9.379 11.027 10.793 9.60899 10.816 9.57399C10.957 9.36699 11.02 9.12499 10.992 8.89099C10.9681 8.65346 10.8569 8.43325 10.68 8.27299C10.5593 8.1554 10.4095 8.0719 10.246 8.03099C10.0975 8.00374 9.94565 8.00002 9.796 8.01999H9.797ZM12.816 12.02C12.6676 12.0484 12.5275 12.1101 12.4063 12.2005C12.2852 12.2909 12.1862 12.4075 12.1166 12.5417C12.0471 12.6759 12.009 12.8242 12.0051 12.9753C12.0011 13.1263 12.0315 13.2764 12.094 13.414C12.199 13.641 12.364 13.804 12.578 13.902C12.6785 13.9506 12.7869 13.981 12.898 13.992C13.039 14.008 22.957 14.008 23.098 13.992C23.2107 13.9826 23.3206 13.9521 23.422 13.902C23.6376 13.804 23.8098 13.6304 23.906 13.414C23.9601 13.3013 23.9908 13.1789 23.996 13.054C24.027 12.554 23.668 12.105 23.176 12.016C23.082 12.004 22.484 12 17.988 12C13.633 12.004 12.895 12.004 12.816 12.02ZM9.879 15.008C9.734 15.028 9.594 15.078 9.477 15.148C9.418 15.18 8.812 15.781 6.711 17.883C5.81177 18.7844 4.90943 19.6828 4.004 20.578C3.996 20.578 3.464 20.055 2.824 19.41C2.184 18.77 1.625 18.223 1.59 18.191C1.42416 18.0708 1.22542 18.0044 1.02065 18.0009C0.81587 17.9973 0.614933 18.0567 0.445 18.171C0.327926 18.2537 0.227222 18.3575 0.148 18.477C0.0452902 18.6458 -0.00506546 18.8412 0.00330043 19.0386C0.0116663 19.236 0.078378 19.4265 0.195 19.586C0.27 19.691 3.363 22.777 3.449 22.832C3.773 23.043 4.179 23.051 4.519 22.855C4.605 22.805 4.848 22.562 7.707 19.703C10.563 16.848 10.805 16.605 10.855 16.516C10.9328 16.3868 10.9802 16.2417 10.9938 16.0915C11.0074 15.9414 10.9867 15.7901 10.9334 15.6491C10.8801 15.5081 10.7955 15.381 10.6859 15.2774C10.5764 15.1738 10.4448 15.0964 10.301 15.051C10.1651 15.0064 10.0211 14.9918 9.879 15.008ZM12.879 19.008C12.7095 19.0286 12.5481 19.0926 12.4106 19.1939C12.2731 19.2952 12.164 19.4302 12.094 19.586C12.0383 19.7085 12.008 19.8409 12.0046 19.9754C12.0013 20.11 12.0252 20.2437 12.0747 20.3688C12.1243 20.4939 12.1986 20.6077 12.2931 20.7034C12.3877 20.7992 12.5005 20.8749 12.625 20.926C12.825 21.004 12.387 21 18 21C22.484 21 23.082 20.996 23.176 20.98C23.4129 20.9389 23.627 20.8135 23.7787 20.6269C23.9304 20.4403 24.0094 20.2051 24.0013 19.9648C23.9931 19.7245 23.8983 19.4952 23.7343 19.3194C23.5703 19.1435 23.3482 19.0329 23.109 19.008C22.989 18.992 12.992 18.992 12.879 19.008Z" fill="currentColor"/>
</g>
<defs>
<clipPath id="clip0_2538_16049">
<rect width="24" height="24" fill="white"/>
</clipPath>
</defs>
</svg>
