<svg width="24" height="24" viewBox="0 0 24 24" fill="none" xmlns="http://www.w3.org/2000/svg">
<g clip-path="url(#clip0_2538_15191)">
<path d="M11.45 0.0119829C8.93596 0.12122 6.52035 1.02025 4.54662 2.58125C2.57289 4.14224 1.14151 6.28574 0.456 8.70698C0.220559 9.5422 0.0740787 10.4 0.019 11.266C0.00339297 11.7539 0.00339297 12.2421 0.019 12.73C0.116 14.09 0.374 15.246 0.839 16.422C1.4755 18.0398 2.45754 19.499 3.71652 20.6979C4.9755 21.8968 6.48105 22.8063 8.128 23.363C9.882 23.957 11.78 24.141 13.64 23.887C15.4662 23.6397 17.2106 22.9737 18.737 21.941C20.3068 20.8755 21.6027 19.4543 22.519 17.793C22.659 17.539 22.905 17.035 23.022 16.758C23.464 15.727 23.761 14.648 23.897 13.551C23.972 12.984 23.991 12.625 23.991 12.004C23.991 11.473 23.983 11.266 23.941 10.816C23.7517 8.84694 23.0765 6.9557 21.976 5.31198C20.6849 3.39045 18.8679 1.88133 16.742 0.964983C15.6299 0.494871 14.4546 0.19095 13.254 0.0629829C12.746 0.0119829 11.923 -0.0120171 11.45 0.0119829ZM18.223 7.02698C18.4431 7.07642 18.6397 7.19953 18.7802 7.37592C18.9208 7.55232 18.9969 7.77143 18.996 7.99698C18.996 8.19498 18.949 8.36298 18.848 8.53098C18.801 8.60498 18.258 9.15198 14.75 12.668C12.523 14.891 10.668 16.746 10.621 16.781C10.5098 16.868 10.3823 16.932 10.246 16.969C10.117 17.004 9.886 17.004 9.758 16.969C9.63594 16.9366 9.52075 16.8824 9.418 16.809C9.378 16.781 8.41 15.824 7.27 14.679C4.965 12.375 5.129 12.551 5.047 12.305C5.012 12.195 5.012 12.188 5.012 12C5.012 11.812 5.012 11.805 5.047 11.695C5.09556 11.5434 5.18155 11.4065 5.297 11.297C5.40787 11.1832 5.54432 11.0974 5.695 11.047C5.801 11.012 5.816 11.012 5.996 11.007C6.145 11.007 6.196 11.016 6.258 11.031C6.355 11.059 6.488 11.121 6.558 11.168C6.59 11.188 7.375 11.965 8.305 12.895L9.996 14.582L13.668 10.914C14.904 9.67597 16.1437 8.44163 17.387 7.21098C17.531 7.09798 17.695 7.03498 17.902 7.00398C17.961 6.99198 18.138 7.00798 18.223 7.02698Z" fill="currentColor"/>
</g>
<defs>
<clipPath id="clip0_2538_15191">
<rect width="24" height="24" fill="white"/>
</clipPath>
</defs>
</svg>
