<svg width="24" height="24" viewBox="0 0 24 24" fill="none" xmlns="http://www.w3.org/2000/svg">
<g clip-path="url(#clip0_2538_17388)">
<path d="M11.45 0.012044C8.93596 0.121281 6.52035 1.02031 4.54662 2.58131C2.57289 4.1423 1.14151 6.28581 0.456 8.70704C0.220559 9.54226 0.0740787 10.4 0.019 11.266C0.00339297 11.7539 0.00339297 12.2422 0.019 12.73C0.116 14.09 0.374 15.246 0.839 16.422C1.4755 18.0398 2.45754 19.4991 3.71652 20.698C4.9755 21.8968 6.48105 22.8064 8.128 23.363C9.882 23.957 11.78 24.141 13.64 23.887C15.4662 23.6397 17.2106 22.9737 18.737 21.941C20.3068 20.8756 21.6027 19.4543 22.519 17.793C22.659 17.539 22.905 17.035 23.022 16.758C23.464 15.727 23.761 14.648 23.897 13.551C23.972 12.984 23.991 12.625 23.991 12.004C23.991 11.473 23.983 11.266 23.941 10.816C23.7517 8.847 23.0765 6.95576 21.976 5.31204C20.6849 3.39051 18.8679 1.88139 16.742 0.965044C15.6299 0.494932 14.4546 0.191011 13.254 0.063044C12.746 0.012044 11.923 -0.011956 11.45 0.012044ZM6.746 7.03204C6.859 7.05904 6.988 7.12204 7.082 7.18704C7.122 7.21904 8.09 8.17604 9.23 9.32004C11.535 11.625 11.371 11.45 11.453 11.695C11.488 11.805 11.488 11.812 11.488 12C11.488 12.188 11.488 12.195 11.453 12.305C11.371 12.551 11.535 12.375 9.23 14.68C8.52157 15.3973 7.80553 16.107 7.082 16.809C6.98112 16.8831 6.86711 16.9374 6.746 16.969C6.58388 17.0042 6.41612 17.0042 6.254 16.969C6.08066 16.9225 5.9226 16.8313 5.79569 16.7043C5.66879 16.5774 5.5775 16.4194 5.531 16.246C5.49588 16.0839 5.49588 15.9162 5.531 15.754C5.559 15.652 5.617 15.524 5.671 15.438C5.691 15.406 6.469 14.621 7.398 13.691L9.09 12L7.398 10.309C6.468 9.37904 5.691 8.59404 5.672 8.56304C5.61054 8.46348 5.56341 8.35575 5.532 8.24304C5.49674 8.0806 5.49674 7.91249 5.532 7.75004C5.629 7.36704 5.961 7.07004 6.359 7.00804C6.457 6.99204 6.637 7.00504 6.746 7.03204ZM12.746 7.03204C12.859 7.05904 12.988 7.12204 13.082 7.18704C13.122 7.21904 14.09 8.17604 15.23 9.32004C17.535 11.625 17.371 11.45 17.453 11.695C17.488 11.805 17.488 11.812 17.488 12C17.488 12.188 17.488 12.195 17.453 12.305C17.371 12.551 17.535 12.375 15.23 14.68C14.5216 15.3973 13.8055 16.107 13.082 16.809C12.9811 16.8831 12.8671 16.9374 12.746 16.969C12.5839 17.0042 12.4161 17.0042 12.254 16.969C12.0804 16.9231 11.922 16.832 11.795 16.705C11.668 16.578 11.5769 16.4197 11.531 16.246C11.4959 16.0839 11.4959 15.9162 11.531 15.754C11.5624 15.6426 11.6096 15.5362 11.671 15.438C11.691 15.406 12.469 14.621 13.398 13.691L15.09 12L13.398 10.309C12.468 9.37904 11.691 8.59404 11.672 8.56304C11.6105 8.46348 11.5634 8.35575 11.532 8.24304C11.4967 8.08061 11.4967 7.91248 11.532 7.75004C11.632 7.36304 11.961 7.07004 12.359 7.00804C12.457 6.99204 12.637 7.00504 12.746 7.03204Z" fill="currentColor"/>
</g>
<defs>
<clipPath id="clip0_2538_17388">
<rect width="24" height="24" fill="white"/>
</clipPath>
</defs>
</svg>
