<svg width="24" height="24" viewBox="0 0 24 24" fill="none" xmlns="http://www.w3.org/2000/svg">
<g clip-path="url(#clip0_2538_21393)">
<path d="M11.566 0.00797164C9.79 0.0899716 8.246 0.472972 6.734 1.20997C5.00461 2.05066 3.5034 3.2959 2.35762 4.84015C1.21183 6.3844 0.45525 8.18214 0.152 10.081C0.043 10.766 0.008 11.266 0.008 12C-0.00160423 14.309 0.659119 16.5711 1.91 18.512C2.99648 20.1913 4.48385 21.5739 6.238 22.535C8.67623 23.8588 11.4958 24.303 14.223 23.793C15.7191 23.5167 17.1483 22.9559 18.433 22.141C19.5441 21.4331 20.5324 20.5488 21.359 19.523C22.831 17.6908 23.7305 15.4654 23.945 13.125C23.985 12.707 23.992 12.508 23.992 12C23.992 11.23 23.949 10.672 23.824 9.94997C23.298 6.87653 21.5939 4.12948 19.074 2.29297C17.6821 1.28183 16.0886 0.582617 14.402 0.242972C13.863 0.132972 13.406 0.0699717 12.832 0.0269716C12.4103 0.00683756 11.9881 0.000167492 11.566 0.00697164V0.00797164ZM12.828 2.03097C13.718 2.11297 14.426 2.25797 15.218 2.52297C16.8032 3.06126 18.2282 3.98815 19.363 5.21897C20.6421 6.60553 21.4999 8.3277 21.836 10.184C21.949 10.793 21.996 11.34 21.996 11.996C22.0029 14.1386 21.3194 16.2265 20.0467 17.9503C18.774 19.674 16.9798 20.9419 14.93 21.566C14.262 21.77 13.605 21.895 12.832 21.969C12.555 21.992 11.766 22.004 11.449 21.984C9.81562 21.8996 8.22847 21.4125 6.829 20.566C5.70928 19.8906 4.7323 19.003 3.953 17.953C3.05963 16.7457 2.45202 15.3513 2.176 13.875C2.109 13.535 2.059 13.152 2.023 12.75C2 12.465 2.003 11.469 2.031 11.18C2.18 9.52697 2.661 8.06997 3.504 6.70697C4.10381 5.7465 4.86185 4.89447 5.746 4.18697C7.38271 2.87723 9.39035 2.11623 11.484 2.01197C11.9321 2.00524 12.3803 2.01191 12.828 2.03197V2.03097Z" fill="currentColor"/>
<path d="M11.797 8.02297C11.6711 8.04942 11.5516 8.10002 11.445 8.17197C11.309 8.26597 7.223 12.355 7.156 12.465C7.0779 12.5888 7.02798 12.7283 7.00978 12.8736C6.99157 13.0189 7.00553 13.1664 7.05066 13.3057C7.09578 13.445 7.17098 13.5727 7.27092 13.6797C7.37086 13.7867 7.49311 13.8704 7.629 13.925C7.871 14.023 8.164 14.02 8.399 13.918C8.57 13.84 8.535 13.871 10.305 12.105L12 10.41L13.691 12.102C14.809 13.215 15.406 13.805 15.449 13.832C15.6394 13.9602 15.8682 14.0188 16.0968 13.9979C16.3254 13.977 16.5398 13.8778 16.7037 13.7171C16.8677 13.5565 16.9712 13.3441 16.9967 13.116C17.0223 12.8879 16.9683 12.6579 16.844 12.465C16.813 12.406 16.352 11.941 14.727 10.316C12.5 8.08597 12.567 8.14797 12.371 8.07397C12.1882 8.00342 11.9892 7.98608 11.797 8.02397V8.02297Z" fill="currentColor"/>
</g>
<defs>
<clipPath id="clip0_2538_21393">
<rect width="24" height="24" fill="white"/>
</clipPath>
</defs>
</svg>
