<svg width="24" height="24" viewBox="0 0 24 24" fill="none" xmlns="http://www.w3.org/2000/svg">
<g clip-path="url(#clip0_2538_17388)">
<path d="M11.45 0.012044C8.93596 0.121281 6.52035 1.02031 4.54662 2.58131C2.57289 4.1423 1.14151 6.28581 0.456 8.70704C0.220559 9.54226 0.0740787 10.4 0.019 11.266C0.00339297 11.7539 0.00339297 12.2422 0.019 12.73C0.116 14.09 0.374 15.246 0.839 16.422C1.4755 18.0398 2.45754 19.4991 3.71652 20.698C4.9755 21.8968 6.48105 22.8064 8.128 23.363C9.882 23.957 11.78 24.141 13.64 23.887C15.4662 23.6397 17.2106 22.9737 18.737 21.941C20.3068 20.8756 21.6027 19.4543 22.519 17.793C22.659 17.539 22.905 17.035 23.022 16.758C23.464 15.727 23.761 14.648 23.897 13.551C23.972 12.984 23.991 12.625 23.991 12.004C23.991 11.473 23.983 11.266 23.941 10.816C23.7517 8.847 23.0765 6.95576 21.976 5.31204C20.6849 3.39051 18.8679 1.88139 16.742 0.965044C15.6299 0.494932 14.4546 0.191011 13.254 0.063044C12.746 0.012044 11.923 -0.011956 11.45 0.012044ZM7.722 7.02704C7.84037 7.05332 7.9529 7.10111 8.054 7.16804C8.12 7.21104 8.581 7.66404 10.14 9.22304C10.8412 9.91749 11.5379 10.6165 12.23 11.32C12.339 11.441 12.397 11.543 12.444 11.68C12.518 11.887 12.518 12.1131 12.444 12.32C12.3998 12.4544 12.3264 12.5774 12.229 12.68C12.183 12.734 11.241 13.68 10.139 14.777C8.581 16.336 8.12 16.789 8.054 16.832C7.88939 16.9406 7.69618 16.9977 7.499 16.996C7.27293 16.9977 7.05312 16.9219 6.87611 16.7812C6.6991 16.6406 6.57555 16.4436 6.526 16.223C6.50376 16.1376 6.49698 16.0489 6.506 15.961C6.502 15.869 6.51698 15.7771 6.55 15.691C6.632 15.449 6.51 15.578 8.39 13.695L10.086 12L8.395 10.309C6.578 8.48904 6.64 8.55904 6.57 8.36304C6.52185 8.23863 6.49883 8.10591 6.50226 7.97254C6.5057 7.83918 6.53552 7.70782 6.59 7.58604C6.742 7.25804 7.02 7.05904 7.402 7.00404C7.461 6.99204 7.637 7.00804 7.722 7.02704ZM13.722 7.02704C13.8404 7.05332 13.9529 7.10111 14.054 7.16804C14.12 7.21104 14.581 7.66404 16.14 9.22304C16.8412 9.91749 17.5379 10.6165 18.23 11.32C18.339 11.441 18.397 11.543 18.444 11.684C18.5102 11.8895 18.5102 12.1106 18.444 12.316C18.4008 12.4521 18.3273 12.5765 18.229 12.68C18.183 12.734 17.241 13.68 16.139 14.777C14.581 16.336 14.12 16.789 14.054 16.832C13.8894 16.9406 13.6962 16.9977 13.499 16.996C13.2729 16.9977 13.0531 16.9219 12.8761 16.7812C12.6991 16.6406 12.5755 16.4436 12.526 16.223C12.5038 16.1376 12.497 16.0489 12.506 15.961C12.502 15.869 12.517 15.7771 12.55 15.691C12.632 15.449 12.51 15.578 14.39 13.695L16.086 12L14.395 10.309C12.578 8.48904 12.641 8.55904 12.57 8.36304C12.5219 8.23863 12.4988 8.10591 12.5023 7.97254C12.5057 7.83918 12.5355 7.70782 12.59 7.58604C12.742 7.25804 13.02 7.05904 13.402 7.00404C13.461 6.99204 13.637 7.00804 13.722 7.02704Z" fill="currentColor"/>
</g>
<defs>
<clipPath id="clip0_2538_17388">
<rect width="24" height="24" fill="white"/>
</clipPath>
</defs>
</svg>
