<svg width="24" height="24" viewBox="0 0 24 24" fill="none" xmlns="http://www.w3.org/2000/svg">
<path d="M8.82 3.01602C8.66581 3.04559 8.52063 3.11069 8.396 3.20616C8.27136 3.30164 8.1707 3.42485 8.102 3.56602C8.023 3.73402 8.012 3.79602 8.012 4.00802C8.012 4.17602 8.012 4.19902 8.043 4.28902C8.082 4.39902 8.117 4.48002 8.172 4.55902C8.192 4.58602 9.867 6.27302 11.898 8.30502L15.594 12L11.898 15.695C10.6494 16.9371 9.40735 18.1858 8.172 19.441C8.117 19.52 8.082 19.601 8.043 19.711C8.012 19.801 8.012 19.824 8.012 19.992C8.012 20.207 8.023 20.266 8.109 20.442C8.17191 20.5702 8.26175 20.6833 8.37238 20.7735C8.48301 20.8638 8.61181 20.9291 8.75 20.965C8.879 21.004 9.117 21.004 9.254 20.969C9.371 20.934 9.512 20.863 9.609 20.789C10.9886 19.4267 12.3623 18.0583 13.73 16.684C18.102 12.312 17.848 12.574 17.93 12.364C17.969 12.262 18 12.102 18 12C18 11.898 17.969 11.738 17.93 11.637C17.848 11.426 18.102 11.687 13.73 7.31702C12.3626 5.94206 10.9893 4.57305 9.61 3.21002C9.50415 3.12838 9.38314 3.06855 9.254 3.03402C9.11159 3.0022 8.96473 2.99543 8.82 3.01402V3.01602Z" fill="currentColor"/>
</svg>
