<svg width="24" height="24" viewBox="0 0 24 24" fill="none" xmlns="http://www.w3.org/2000/svg">
<g clip-path="url(#clip0_2538_18246)">
<path d="M11.45 0.012044C8.93596 0.121281 6.52035 1.02031 4.54662 2.58131C2.57289 4.1423 1.14151 6.28581 0.456 8.70704C0.220559 9.54226 0.0740787 10.4 0.019 11.266C0.00339297 11.7539 0.00339297 12.2422 0.019 12.73C0.116 14.09 0.374 15.246 0.839 16.422C1.4755 18.0398 2.45754 19.4991 3.71652 20.698C4.9755 21.8968 6.48105 22.8064 8.128 23.363C9.882 23.957 11.78 24.141 13.64 23.887C15.4662 23.6397 17.2106 22.9737 18.737 21.941C20.3068 20.8756 21.6027 19.4543 22.519 17.793C22.659 17.539 22.905 17.035 23.022 16.758C23.464 15.727 23.761 14.648 23.897 13.551C23.972 12.984 23.991 12.625 23.991 12.004C23.991 11.473 23.983 11.266 23.941 10.816C23.7517 8.847 23.0765 6.95576 21.976 5.31204C20.6849 3.39051 18.8679 1.88139 16.742 0.965044C15.6299 0.494932 14.4546 0.191011 13.254 0.063044C12.746 0.012044 11.923 -0.011956 11.45 0.012044ZM8.156 9.01204C8.305 9.03504 8.437 9.09004 8.574 9.18004C8.617 9.20704 9.242 9.82404 10.32 10.902L12 12.578L13.68 10.902C14.82 9.76604 15.383 9.21104 15.434 9.17604C15.527 9.11304 15.629 9.06604 15.746 9.03104C15.879 8.99204 16.125 8.99604 16.262 9.03104C16.613 9.13304 16.875 9.40204 16.969 9.75404C17.004 9.88304 17.004 10.117 16.973 10.242C16.941 10.352 16.895 10.465 16.832 10.555C16.782 10.633 12.719 14.711 12.605 14.797C12.25 15.067 11.762 15.067 11.402 14.801C11.289 14.715 7.222 10.637 7.168 10.555C7.10652 10.458 7.05936 10.3526 7.028 10.242C6.99585 10.0809 6.99687 9.91482 7.031 9.75404C7.168 9.25004 7.648 8.93404 8.156 9.01204Z" fill="currentColor"/>
</g>
<defs>
<clipPath id="clip0_2538_18246">
<rect width="24" height="24" fill="white"/>
</clipPath>
</defs>
</svg>
