<svg width="24" height="24" viewBox="0 0 24 24" fill="none" xmlns="http://www.w3.org/2000/svg">
<path d="M11.82 3.016C11.6901 3.04381 11.5659 3.09388 11.453 3.164C11.375 3.214 10.719 3.867 7.316 7.27C5.94171 8.63738 4.57336 10.0107 3.211 11.39C3.13079 11.4982 3.07113 11.6202 3.035 11.75C2.996 11.879 2.996 12.121 3.035 12.25C3.07113 12.3798 3.13079 12.5018 3.211 12.61C4.57336 13.9893 5.94171 15.3626 7.316 16.73C10.719 20.133 11.375 20.785 11.453 20.836C11.813 21.066 12.27 21.046 12.613 20.789C12.7321 20.6968 12.8274 20.5775 12.891 20.441C12.9695 20.3052 13.0034 20.1481 12.988 19.992C12.988 19.824 12.988 19.801 12.957 19.711C12.9284 19.6148 12.8848 19.5237 12.828 19.441C12.808 19.411 11.133 17.727 9.102 15.695L5.41 12L9.113 8.293C11.957 5.445 12.824 4.574 12.855 4.52C12.9521 4.36299 12.9998 4.18044 12.992 3.996C12.988 3.793 12.977 3.726 12.891 3.555C12.7963 3.35838 12.6376 3.19973 12.441 3.105C12.2479 3.01381 12.032 2.98247 11.821 3.015L11.82 3.016Z" fill="currentColor"/>
<path d="M18.879 3.008C18.734 3.028 18.594 3.078 18.477 3.148C18.418 3.18 17.523 4.07 14.317 7.278C12.9322 8.65351 11.5545 10.0362 10.184 11.426C10.0658 11.5941 10.0024 11.7945 10.0024 12C10.0024 12.2055 10.0658 12.4059 10.184 12.574C10.25 12.672 18.379 20.789 18.461 20.84C18.582 20.9177 18.7183 20.9683 18.8607 20.9884C19.003 21.0085 19.148 20.9975 19.2858 20.9563C19.4235 20.9151 19.5507 20.8446 19.6586 20.7496C19.7665 20.6546 19.8526 20.5374 19.911 20.406C19.9763 20.2584 20.0053 20.0973 19.9956 19.9362C19.9859 19.7751 19.9376 19.6186 19.855 19.48C19.805 19.395 19.52 19.105 16.109 15.695L12.418 12L16.109 8.305C19.519 4.891 19.805 4.605 19.855 4.515C19.9326 4.38587 19.9799 4.24083 19.9934 4.0908C20.0068 3.94076 19.9861 3.78962 19.9328 3.64873C19.8795 3.50784 19.795 3.38086 19.6855 3.27733C19.5761 3.17381 19.4446 3.09642 19.301 3.051C19.1651 3.00644 19.0211 2.99177 18.879 3.008Z" fill="currentColor"/>
</svg>
