<svg width="24" height="24" viewBox="0 0 24 24" fill="none" xmlns="http://www.w3.org/2000/svg">
<path d="M11.566 0.00797164C9.79 0.0899716 8.246 0.472972 6.734 1.20997C5.00461 2.05066 3.5034 3.2959 2.35762 4.84015C1.21183 6.3844 0.45525 8.18214 0.152 10.081C0.043 10.766 0.008 11.266 0.008 12C-0.00160423 14.309 0.659119 16.5711 1.91 18.512C2.99648 20.1913 4.48385 21.5739 6.238 22.535C8.67623 23.8588 11.4958 24.303 14.223 23.793C15.7191 23.5167 17.1483 22.9559 18.433 22.141C19.5441 21.4331 20.5324 20.5488 21.359 19.523C22.831 17.6908 23.7305 15.4654 23.945 13.125C23.985 12.707 23.992 12.508 23.992 12C23.992 11.23 23.949 10.672 23.824 9.94997C23.298 6.87653 21.5939 4.12948 19.074 2.29297C17.6821 1.28183 16.0886 0.582617 14.402 0.242972C13.863 0.132972 13.406 0.0699717 12.832 0.0269716C12.4103 0.00683756 11.9881 0.000167492 11.566 0.00697164V0.00797164ZM12.828 2.03097C13.718 2.11297 14.426 2.25797 15.218 2.52297C16.8032 3.06126 18.2282 3.98815 19.363 5.21897C20.6421 6.60553 21.4999 8.3277 21.836 10.184C21.949 10.793 21.996 11.34 21.996 11.996C22.0029 14.1386 21.3194 16.2265 20.0467 17.9503C18.774 19.674 16.9798 20.9419 14.93 21.566C14.262 21.77 13.605 21.895 12.832 21.969C12.555 21.992 11.766 22.004 11.449 21.984C9.81562 21.8996 8.22847 21.4125 6.829 20.566C5.70928 19.8906 4.7323 19.003 3.953 17.953C3.05963 16.7457 2.45202 15.3513 2.176 13.875C2.109 13.535 2.059 13.152 2.023 12.75C2 12.465 2.003 11.469 2.031 11.18C2.18 9.52697 2.661 8.06997 3.504 6.70697C4.10381 5.7465 4.86185 4.89447 5.746 4.18697C7.38271 2.87723 9.39035 2.11623 11.484 2.01197C11.9321 2.00524 12.3803 2.01191 12.828 2.03197V2.03097Z" fill="currentColor"/>
<path d="M10.379 7.00797C10.168 7.03497 9.973 7.12797 9.809 7.28097C9.68461 7.39887 9.59295 7.54703 9.543 7.71097C9.512 7.80097 9.512 7.82397 9.512 7.99197C9.512 8.13197 9.516 8.19197 9.532 8.24997C9.559 8.34797 9.632 8.50397 9.687 8.58197C9.711 8.61697 10.484 9.39797 11.407 10.32L13.085 12L11.405 13.68C10.483 14.602 9.71 15.383 9.686 15.418C9.61929 15.5211 9.56681 15.6328 9.53 15.75C9.51186 15.8347 9.50514 15.9215 9.51 16.008C9.51 16.176 9.51 16.199 9.542 16.289C9.616 16.512 9.742 16.684 9.921 16.812C10.0882 16.9352 10.2913 16.9998 10.499 16.996C10.709 16.996 10.889 16.941 11.058 16.828C11.136 16.778 15.261 12.656 15.315 12.574C15.4314 12.4078 15.4945 12.2101 15.496 12.0072C15.4974 11.8043 15.4371 11.6058 15.323 11.438C15.273 11.359 11.151 7.23797 11.069 7.17997C10.8661 7.04311 10.6224 6.98221 10.379 7.00797Z" fill="currentColor"/>
</svg>
