<svg width="24" height="24" viewBox="0 0 24 24" fill="none" xmlns="http://www.w3.org/2000/svg">
<g clip-path="url(#clip0_2538_17581)">
<path d="M11.566 0.00797164C9.79 0.0899716 8.246 0.472972 6.734 1.20997C5.00461 2.05066 3.5034 3.2959 2.35762 4.84015C1.21183 6.3844 0.45525 8.18214 0.152 10.081C0.043 10.766 0.008 11.266 0.008 12C-0.00160423 14.309 0.659119 16.5711 1.91 18.512C2.99648 20.1913 4.48385 21.5739 6.238 22.535C8.67623 23.8588 11.4958 24.303 14.223 23.793C15.7191 23.5167 17.1483 22.9559 18.433 22.141C19.5441 21.4331 20.5324 20.5488 21.359 19.523C22.831 17.6908 23.7305 15.4654 23.945 13.125C23.985 12.707 23.992 12.508 23.992 12C23.992 11.23 23.949 10.672 23.824 9.94997C23.298 6.87653 21.5939 4.12948 19.074 2.29297C17.6821 1.28183 16.0886 0.582617 14.402 0.242972C13.863 0.132972 13.406 0.0699717 12.832 0.0269716C12.4103 0.00683756 11.9881 0.000167492 11.566 0.00697164V0.00797164ZM12.828 2.03097C13.718 2.11297 14.426 2.25797 15.218 2.52297C16.8032 3.06126 18.2282 3.98815 19.363 5.21897C20.6421 6.60553 21.4999 8.3277 21.836 10.184C21.949 10.793 21.996 11.34 21.996 11.996C22.0029 14.1386 21.3194 16.2265 20.0467 17.9503C18.774 19.674 16.9798 20.9419 14.93 21.566C14.262 21.77 13.605 21.895 12.832 21.969C12.555 21.992 11.766 22.004 11.449 21.984C9.81562 21.8996 8.22847 21.4125 6.829 20.566C5.70928 19.8906 4.7323 19.003 3.953 17.953C3.05963 16.7457 2.45202 15.3513 2.176 13.875C2.109 13.535 2.059 13.152 2.023 12.75C2 12.465 2.003 11.469 2.031 11.18C2.18 9.52697 2.661 8.06997 3.504 6.70697C4.10381 5.7465 4.86185 4.89447 5.746 4.18697C7.38271 2.87723 9.39035 2.11623 11.484 2.01197C11.9321 2.00524 12.3803 2.01191 12.828 2.03197V2.03097Z" fill="currentColor"/>
<path d="M6.383 7.00797C6.21644 7.03227 6.05751 7.09379 5.918 7.18797C5.81071 7.27027 5.71837 7.37039 5.645 7.48397C5.617 7.53497 5.575 7.62497 5.555 7.68797C5.52179 7.77498 5.50715 7.86797 5.512 7.96097C5.49821 8.10067 5.51952 8.2416 5.574 8.37097C5.652 8.56197 5.582 8.49197 7.394 10.305L9.09 12L7.395 13.695C5.582 15.508 5.652 15.437 5.575 15.625C5.52049 15.7558 5.49886 15.8979 5.512 16.039C5.50715 16.132 5.52179 16.225 5.555 16.312C5.648 16.594 5.859 16.816 6.129 16.926C6.371 17.023 6.664 17.02 6.899 16.918C7.074 16.84 7.016 16.891 9.184 14.727C11.414 12.5 11.352 12.567 11.426 12.371C11.5197 12.1325 11.5197 11.8674 11.426 11.629C11.352 11.434 11.414 11.5 9.184 9.27297C7.016 7.10997 7.074 7.15997 6.898 7.08197C6.73465 7.01674 6.55811 6.99137 6.383 7.00797Z" fill="currentColor"/>
<path d="M12.383 7.00797C12.2164 7.03227 12.0575 7.09379 11.918 7.18797C11.891 7.20697 11.828 7.26197 11.785 7.30797C11.6475 7.44942 11.555 7.62853 11.5194 7.82259C11.4838 8.01665 11.5066 8.21691 11.585 8.39797C11.66 8.56997 11.633 8.53897 13.395 10.305L15.09 12L13.395 13.695C12.075 15.02 11.691 15.41 11.656 15.465C11.5779 15.5888 11.528 15.7283 11.5098 15.8736C11.4916 16.0189 11.5055 16.1664 11.5507 16.3057C11.5958 16.445 11.671 16.5727 11.7709 16.6797C11.8709 16.7867 11.9931 16.8704 12.129 16.925C12.371 17.023 12.664 17.02 12.899 16.918C13.074 16.84 13.016 16.891 15.184 14.727C17.414 12.5 17.352 12.567 17.426 12.371C17.4862 12.2203 17.5087 12.0572 17.4916 11.8958C17.4745 11.7345 17.4184 11.5797 17.328 11.445C17.273 11.367 16.906 10.996 15.184 9.27297C13.016 7.10897 13.074 7.15997 12.898 7.08197C12.7347 7.01674 12.5581 6.99137 12.383 7.00797Z" fill="currentColor"/>
</g>
<defs>
<clipPath id="clip0_2538_17581">
<rect width="24" height="24" fill="white"/>
</clipPath>
</defs>
</svg>
