<svg width="24" height="24" viewBox="0 0 24 24" fill="none" xmlns="http://www.w3.org/2000/svg">
<path d="M4.848 3.01206C4.528 3.06606 4.25 3.27006 4.109 3.55506C4.03393 3.70523 3.99788 3.87189 4.00417 4.03966C4.01046 4.20744 4.05889 4.37093 4.145 4.51506C4.195 4.60506 4.48 4.89106 7.895 8.30506L11.585 12.0001L7.895 15.6951C4.48 19.1051 4.195 19.3951 4.145 19.4801C4.03001 19.6725 3.98277 19.8978 4.01083 20.1202C4.03889 20.3426 4.14063 20.5491 4.29981 20.7069C4.45899 20.8647 4.66644 20.9647 4.88905 20.9908C5.11167 21.0169 5.33661 20.9677 5.528 20.8511C5.582 20.8161 6.48 19.9261 9.684 16.7231C11.934 14.4771 13.793 12.6091 13.816 12.5741C13.9342 12.406 13.9976 12.2055 13.9976 12.0001C13.9976 11.7946 13.9342 11.5941 13.816 11.4261C12.4458 10.0359 11.0685 8.65291 9.684 7.27706C6.48 4.07406 5.582 3.18006 5.527 3.14806C5.32188 3.02806 5.08349 2.98018 4.848 3.01206Z" fill="currentColor"/>
<path d="M11.82 3.01606C11.6658 3.04562 11.5206 3.11072 11.396 3.2062C11.2714 3.30167 11.1707 3.42489 11.102 3.56606C11.023 3.73406 11.012 3.79606 11.012 4.00806C11.012 4.17606 11.012 4.19906 11.043 4.28906C11.082 4.39906 11.117 4.48006 11.172 4.55906C11.192 4.58606 12.867 6.27306 14.898 8.30506L18.594 12.0001L14.898 15.6951C13.6494 16.9371 12.4073 18.1858 11.172 19.4411C11.117 19.5201 11.082 19.6011 11.043 19.7111C11.012 19.8011 11.012 19.8241 11.012 19.9921C11.012 20.2071 11.023 20.2661 11.109 20.4421C11.1719 20.5702 11.2618 20.6833 11.3724 20.7736C11.483 20.8638 11.6118 20.9291 11.75 20.9651C11.879 21.0041 12.117 21.0041 12.254 20.9691C12.371 20.9341 12.512 20.8631 12.609 20.7891C13.9886 19.4267 15.3623 18.0584 16.73 16.6841C21.102 12.3121 20.848 12.5741 20.93 12.3641C20.969 12.2621 21 12.1021 21 12.0001C21 11.8981 20.969 11.7381 20.93 11.6371C20.848 11.4261 21.102 11.6871 16.73 7.31706C15.3626 5.94243 13.9893 4.57375 12.61 3.21106C12.5041 3.12941 12.3831 3.06959 12.254 3.03506C12.1116 3.00323 11.9647 2.99746 11.82 3.01606Z" fill="currentColor"/>
</svg>
