<svg width="24" height="24" viewBox="0 0 24 24" fill="none" xmlns="http://www.w3.org/2000/svg">
<path d="M11.45 0.012044C8.93596 0.121281 6.52035 1.02031 4.54662 2.58131C2.57289 4.1423 1.14151 6.28581 0.456 8.70704C0.220559 9.54226 0.0740787 10.4 0.019 11.266C0.00339297 11.7539 0.00339297 12.2422 0.019 12.73C0.116 14.09 0.374 15.246 0.839 16.422C1.4755 18.0398 2.45754 19.4991 3.71652 20.698C4.9755 21.8968 6.48105 22.8064 8.128 23.363C9.882 23.957 11.78 24.141 13.64 23.887C15.4662 23.6397 17.2106 22.9737 18.737 21.941C20.3068 20.8756 21.6027 19.4543 22.519 17.793C22.659 17.539 22.905 17.035 23.022 16.758C23.464 15.727 23.761 14.648 23.897 13.551C23.972 12.984 23.991 12.625 23.991 12.004C23.991 11.473 23.983 11.266 23.941 10.816C23.7517 8.847 23.0765 6.95576 21.976 5.31204C20.6849 3.39051 18.8679 1.88139 16.742 0.965044C15.6299 0.494932 14.4546 0.191011 13.254 0.063044C12.746 0.012044 11.923 -0.011956 11.45 0.012044ZM10.723 7.02704C10.8414 7.05332 10.9539 7.10111 11.055 7.16804C11.121 7.21104 11.582 7.66404 13.141 9.22304C13.8422 9.91749 14.5389 10.6165 15.231 11.32C15.34 11.441 15.398 11.543 15.445 11.68C15.519 11.887 15.519 12.1131 15.445 12.32C15.4008 12.4544 15.3274 12.5774 15.23 12.68C15.184 12.734 14.242 13.68 13.14 14.777C11.582 16.336 11.121 16.789 11.055 16.832C10.8904 16.9406 10.6972 16.9977 10.5 16.996C10.2739 16.9977 10.0541 16.9219 9.87711 16.7812C9.7001 16.6406 9.57655 16.4436 9.527 16.223C9.50476 16.1376 9.49798 16.0489 9.507 15.961C9.503 15.869 9.51798 15.7771 9.551 15.691C9.633 15.449 9.511 15.578 11.391 13.695L13.086 12L11.395 10.309C9.578 8.48904 9.64 8.55904 9.57 8.36304C9.52185 8.23863 9.49883 8.10591 9.50226 7.97254C9.5057 7.83918 9.53552 7.70782 9.59 7.58604C9.742 7.25804 10.02 7.05904 10.402 7.00404C10.461 6.99204 10.638 7.00804 10.723 7.02704Z" fill="currentColor"/>
</svg>
