<svg width="24" height="24" viewBox="0 0 24 24" fill="none" xmlns="http://www.w3.org/2000/svg">
<path d="M11.797 6.52298C11.6761 6.54916 11.5609 6.59693 11.457 6.66398C11.391 6.70698 10.597 7.49198 7.309 10.777C5.93222 12.1492 4.56088 13.5269 3.195 14.91C3.07828 15.0702 3.01154 15.2613 3.00318 15.4594C2.99482 15.6574 3.0452 15.8535 3.148 16.023C3.207 16.117 3.348 16.266 3.445 16.328C3.785 16.555 4.223 16.555 4.57 16.32C4.602 16.3 6.281 14.629 8.312 12.598L12 8.90998L15.688 12.598C16.9299 13.8441 18.1772 15.0848 19.43 16.32C19.6256 16.4567 19.8639 16.5185 20.1013 16.4941C20.3387 16.4697 20.5593 16.3607 20.723 16.187C21.055 15.836 21.09 15.309 20.809 14.91C19.4382 13.5268 18.0632 12.1478 16.684 10.773C12.293 6.38698 12.559 6.64498 12.364 6.56998C12.183 6.50212 11.9867 6.48585 11.797 6.52298Z" fill="currentColor"/>
</svg>
