<svg width="24" height="24" viewBox="0 0 24 24" fill="none" xmlns="http://www.w3.org/2000/svg">
<g clip-path="url(#clip0_2538_21105)">
<path d="M11.45 0.012044C8.93596 0.121281 6.52035 1.02031 4.54662 2.58131C2.57289 4.1423 1.14151 6.28581 0.456 8.70704C0.220559 9.54226 0.0740787 10.4 0.019 11.266C0.00339297 11.7539 0.00339297 12.2422 0.019 12.73C0.116 14.09 0.374 15.246 0.839 16.422C1.4755 18.0398 2.45754 19.4991 3.71652 20.698C4.9755 21.8968 6.48105 22.8064 8.128 23.363C9.882 23.957 11.78 24.141 13.64 23.887C15.4662 23.6397 17.2106 22.9737 18.737 21.941C20.3068 20.8756 21.6027 19.4543 22.519 17.793C22.659 17.539 22.905 17.035 23.022 16.758C23.464 15.727 23.761 14.648 23.897 13.551C23.972 12.984 23.991 12.625 23.991 12.004C23.991 11.473 23.983 11.266 23.941 10.816C23.7517 8.847 23.0765 6.95576 21.976 5.31204C20.6849 3.39051 18.8679 1.88139 16.742 0.965044C15.6299 0.494932 14.4546 0.191011 13.254 0.063044C12.746 0.012044 11.923 -0.011956 11.45 0.012044ZM12.16 9.01204C12.316 9.03904 12.48 9.10904 12.605 9.20304C12.719 9.28904 16.781 13.367 16.832 13.445C16.895 13.535 16.942 13.648 16.972 13.758C17.0042 13.9179 17.0031 14.0826 16.969 14.242C16.9252 14.4146 16.8369 14.5726 16.7128 14.7002C16.5887 14.8278 16.4332 14.9205 16.262 14.969C16.0918 15.0042 15.9162 15.0042 15.746 14.969C15.6353 14.9367 15.5301 14.8878 15.434 14.824C15.383 14.789 14.82 14.234 13.68 13.098L12 11.418L10.32 13.098C9.238 14.18 8.617 14.793 8.574 14.82C8.441 14.9127 8.2875 14.9716 8.12669 14.9918C7.96589 15.012 7.80258 14.9929 7.65081 14.936C7.49903 14.8791 7.36334 14.7863 7.25537 14.6654C7.14741 14.5445 7.07042 14.3992 7.031 14.242C6.99652 14.0827 6.99516 13.9179 7.027 13.758C7.059 13.648 7.109 13.535 7.168 13.445C7.223 13.363 11.289 9.28504 11.402 9.19904C11.622 9.03904 11.906 8.96904 12.16 9.01204Z" fill="currentColor"/>
</g>
<defs>
<clipPath id="clip0_2538_21105">
<rect width="24" height="24" fill="white"/>
</clipPath>
</defs>
</svg>
