<svg width="24" height="24" viewBox="0 0 24 24" fill="none" xmlns="http://www.w3.org/2000/svg">
<path d="M9.82 0.00797798C8.93 0.097978 8.219 0.737978 8.04 1.60898C8.00392 1.82979 7.99719 2.0544 8.02 2.27698C8.133 3.06998 8.719 3.72998 9.488 3.92998C9.75 3.99998 9.652 3.99598 12.055 3.99198L14.258 3.98798L14.383 3.96498C14.7738 3.88621 15.1325 3.69358 15.414 3.41136C15.6955 3.12914 15.8872 2.76994 15.965 2.37898C16 2.19898 16.004 1.82898 15.969 1.64498C15.8909 1.21959 15.6775 0.830821 15.3605 0.536563C15.0435 0.242306 14.64 0.0583092 14.21 0.011978C14.113 -2.20248e-05 9.926 -0.00402203 9.82 0.00797798Z" fill="currentColor"/>
<path d="M5.824 2.17598C5.26194 2.34966 4.74491 2.6447 4.30945 3.04024C3.874 3.43578 3.53075 3.92216 3.304 4.46498C3.16735 4.80453 3.07428 5.16003 3.027 5.52298C3.007 5.65598 3.007 6.21498 3.004 12.883C3 18.02 3.004 20.153 3.012 20.277C3.0493 20.8531 3.21189 21.4141 3.48841 21.9208C3.76494 22.4276 4.14873 22.8679 4.613 23.211C5.22673 23.668 5.95947 23.9378 6.723 23.988C6.848 23.996 8.438 24 12.117 23.996L17.34 23.992L17.516 23.969C18.2031 23.8818 18.8551 23.6148 19.406 23.195C19.719 22.961 19.969 22.711 20.203 22.395C20.6652 21.7804 20.938 21.0443 20.988 20.277C20.996 20.152 21 17.992 20.996 12.883C20.992 6.21498 20.992 5.65598 20.973 5.52298C20.9151 5.04883 20.7736 4.58871 20.555 4.16398C20.299 3.66623 19.9409 3.22806 19.5041 2.87809C19.0673 2.52813 18.5616 2.27423 18.02 2.13298C18.008 2.13298 18 2.15998 17.996 2.23398C17.9528 2.9361 17.7259 3.61454 17.338 4.20141C16.9502 4.78827 16.415 5.26297 15.786 5.57798C15.324 5.80798 14.844 5.94498 14.316 5.98798C14.117 6.00398 9.883 6.00398 9.684 5.98798C8.78944 5.916 7.9448 5.54632 7.285 4.93798C6.5456 4.25548 6.09099 3.31911 6.012 2.31598C6.008 2.23398 6 2.15998 6 2.14798C6 2.12498 5.977 2.12798 5.824 2.17598ZM14.352 10.238C14.555 10.266 14.793 10.359 14.953 10.468C15.141 10.598 18.672 13.258 18.719 13.305C18.989 13.582 19.07 13.996 18.934 14.363C18.75 14.84 18.204 15.109 17.714 14.957C17.535 14.902 17.524 14.895 15.859 13.645L14.246 12.438L12.668 14.801C11.801 16.101 11.063 17.199 11.023 17.246C10.953 17.332 10.84 17.438 10.743 17.512C10.582 17.625 10.34 17.722 10.133 17.758C9.9618 17.7814 9.7882 17.7814 9.617 17.758C9.41425 17.7194 9.22077 17.6423 9.047 17.531C9.004 17.504 8.152 16.863 7.148 16.113C5.859 15.145 5.308 14.727 5.266 14.676C5.09415 14.4916 5.00026 14.248 5.004 13.996C5.00388 13.7974 5.06288 13.6033 5.17347 13.4384C5.28407 13.2735 5.44125 13.1452 5.625 13.07C5.906 12.957 6.27 12.988 6.515 13.14C6.543 13.16 7.281 13.71 8.16 14.371C9.035 15.027 9.754 15.562 9.758 15.559C9.758 15.559 10.457 14.512 11.308 13.23C12.16 11.95 12.887 10.871 12.918 10.828C13.0797 10.6073 13.2991 10.4355 13.5521 10.3314C13.8051 10.2273 14.0818 10.195 14.352 10.238Z" fill="currentColor"/>
</svg>
