<svg width="24" height="24" viewBox="0 0 24 24" fill="none" xmlns="http://www.w3.org/2000/svg">
<g clip-path="url(#clip0_2538_23499)">
<path d="M10.945 0.00802796C10.352 0.047028 9.992 0.102028 9.531 0.223028C8.09719 0.602002 6.82771 1.44177 5.918 2.61303C5.1274 3.62892 4.6459 4.85089 4.531 6.13303C4.492 6.51603 4.496 7.05503 4.531 7.41403L4.543 7.49603L4.348 7.50403C3.37843 7.53666 2.44539 7.88182 1.688 8.48803C1.4355 8.70137 1.20135 8.93553 0.988 9.18803C0.457087 9.85316 0.12437 10.6545 0.028 11.5C0.000661562 11.8315 0.000661562 12.1646 0.028 12.496C0.137347 13.4878 0.574418 14.4147 1.27 15.13C1.7351 15.6136 2.30413 15.9849 2.934 16.216C3.098 16.278 3.301 16.345 3.309 16.336C3.309 16.333 3.336 16.271 3.363 16.2C3.527 15.79 3.75 15.446 4.105 15.067C4.367 14.79 9.293 9.88003 9.398 9.79003C9.66 9.57103 9.891 9.41903 10.168 9.27403C10.6135 9.04327 11.0988 8.89906 11.598 8.84903C11.8828 8.83087 12.1684 8.83221 12.453 8.85303C13.253 8.94603 13.973 9.25903 14.602 9.79003C14.719 9.88803 19.625 14.782 19.895 15.067C20.141 15.333 20.305 15.552 20.457 15.817C20.492 15.884 20.527 15.938 20.535 15.938C20.559 15.938 20.91 15.751 21.09 15.646C22.371 14.8718 23.319 13.6495 23.75 12.216C24.0272 11.2859 24.0747 10.3023 23.8883 9.34979C23.702 8.39725 23.2873 7.50413 22.68 6.74703C22.3328 6.32108 21.9322 5.94163 21.488 5.61803C20.7242 5.07159 19.8424 4.71289 18.914 4.57103C18.6131 4.52373 18.3086 4.50298 18.004 4.50903C17.8739 4.50889 17.7439 4.50489 17.614 4.49703C17.614 4.46203 17.414 3.99703 17.309 3.77803C16.6568 2.44201 15.5795 1.3604 14.246 0.703028C13.503 0.332559 12.6977 0.103337 11.871 0.027028C11.5628 0.00701245 11.2538 0.000339548 10.945 0.00702796V0.00802796Z" fill="currentColor"/>
<path d="M11.824 10.836C11.598 10.856 11.328 10.934 11.105 11.043C10.801 11.195 10.98 11.023 8.129 13.875C7.23268 14.7627 6.34332 15.6574 5.461 16.559C5.297 16.758 5.203 16.953 5.148 17.203C5.11677 17.3931 5.11677 17.587 5.148 17.777C5.289 18.434 5.785 18.902 6.426 18.984C6.484 18.992 6.988 18.996 7.762 18.996H9L9.004 20.609C9.008 22.012 9.012 22.239 9.027 22.316C9.09 22.652 9.195 22.902 9.375 23.16C9.473 23.297 9.699 23.527 9.844 23.629C10.133 23.829 10.464 23.953 10.82 23.989C10.992 24.004 13.004 24.004 13.18 23.989C13.531 23.953 13.871 23.829 14.156 23.629C14.301 23.527 14.527 23.301 14.629 23.156C14.832 22.867 14.953 22.531 14.989 22.176C14.996 22.098 15 21.484 15 20.523V18.996L16.305 18.992C17.585 18.988 17.609 18.988 17.707 18.965C18.004 18.891 18.23 18.765 18.43 18.566C18.637 18.359 18.781 18.098 18.844 17.801C18.883 17.641 18.883 17.355 18.852 17.203C18.8035 16.9654 18.6959 16.7439 18.539 16.559C18.5 16.508 17.301 15.301 15.871 13.875C13.02 11.027 13.195 11.195 12.898 11.043C12.566 10.8761 12.1943 10.8044 11.824 10.836Z" fill="currentColor"/>
</g>
<defs>
<clipPath id="clip0_2538_23499">
<rect width="24" height="24" fill="white"/>
</clipPath>
</defs>
</svg>
