<svg width="24" height="24" viewBox="0 0 24 24" fill="none" xmlns="http://www.w3.org/2000/svg">
<path d="M10.934 3.00798C10.7065 3.02276 10.4797 3.04611 10.254 3.07798C7.75 3.46098 5.652 5.27298 4.848 7.74998C4.57935 8.5843 4.46548 9.4607 4.512 10.336C4.52 10.457 4.527 10.59 4.532 10.636L4.543 10.719L4.484 10.727C4.42947 10.7318 4.37475 10.7342 4.32 10.734C4.184 10.734 3.91 10.762 3.719 10.801C2.645 10.996 1.711 11.562 1.012 12.437C0.865066 12.6332 0.728222 12.8368 0.602 13.047C0.106352 13.941 -0.0895725 14.9704 0.043 15.984C0.246 17.527 1.18 18.855 2.543 19.535C2.937 19.735 3.324 19.859 3.758 19.934C4.16 20.004 3.656 19.996 11.281 19.996C17.957 19.996 18.321 19.996 18.516 19.976C19.2364 19.9141 19.9386 19.717 20.586 19.395C21.7947 18.7967 22.7695 17.8124 23.356 16.598C23.6952 15.9117 23.9044 15.1685 23.973 14.406C24 14.136 24 13.504 23.973 13.23C23.836 11.906 23.367 10.777 22.531 9.76598C22.2982 9.50289 22.049 9.25473 21.785 9.02298C20.961 8.34298 20.027 7.90298 19.031 7.72998C18.6708 7.66229 18.3045 7.63213 17.938 7.63998L17.621 7.64498L17.555 7.46898C17.1522 6.38613 16.4878 5.41976 15.621 4.65598C14.5708 3.72889 13.2537 3.15857 11.859 3.02698C11.5511 3.00687 11.2425 3.0012 10.934 3.00798ZM13.262 5.44098C13.359 5.46898 13.508 5.54298 13.59 5.60498C13.625 5.63698 14.273 6.27298 15.023 7.02698C16.543 8.54698 16.457 8.45298 16.539 8.69498C16.574 8.80498 16.574 8.81198 16.574 8.99998C16.574 9.18798 16.574 9.19498 16.539 9.30498C16.457 9.54698 16.543 9.44898 14.996 11C13.5 12.496 13.555 12.445 13.359 12.52C13.1746 12.5894 12.9739 12.6034 12.7817 12.5603C12.5894 12.5171 12.414 12.4186 12.277 12.277C12.1901 12.1891 12.1224 12.0843 12.078 11.969C12.004 11.797 12 11.762 12 10.832V9.99598L11.879 10.004C11.117 10.047 10.461 10.324 9.926 10.832C9.52334 11.2222 9.23554 11.7154 9.094 12.258C8.93232 12.9016 8.9857 13.5805 9.246 14.191C9.44147 14.6392 9.74339 15.0329 10.1256 15.3379C10.5077 15.643 10.9586 15.8501 11.439 15.9414C11.9193 16.0326 12.4148 16.0052 12.8821 15.8616C13.3495 15.7179 13.7748 15.4623 14.121 15.117C14.313 14.926 14.421 14.781 14.625 14.461C14.7659 14.2411 14.9874 14.0853 15.242 14.027C15.3274 14.0047 15.4162 13.998 15.504 14.007C15.5961 14.003 15.688 14.018 15.774 14.051C16.039 14.141 16.238 14.312 16.359 14.559C16.441 14.727 16.461 14.809 16.461 15C16.461 15.113 16.453 15.18 16.438 15.238C16.368 15.52 15.996 16.058 15.594 16.477C13.734 18.391 10.707 18.52 8.707 16.762C7.95571 16.1043 7.41863 15.2366 7.16502 14.2709C6.9114 13.3051 6.95287 12.2855 7.28408 11.3435C7.61529 10.4016 8.22105 9.58038 9.02327 8.98587C9.8255 8.39135 10.7874 8.05075 11.785 8.00798L12 7.99998V7.16398C12 6.25798 12.004 6.20698 12.066 6.04698C12.191 5.73398 12.465 5.50698 12.805 5.43398C12.906 5.40998 13.156 5.41398 13.262 5.44098Z" fill="currentColor"/>
</svg>
