<svg width="24" height="24" viewBox="0 0 24 24" fill="none" xmlns="http://www.w3.org/2000/svg">
<path d="M13.402 5.21502C13.207 5.24602 13.012 5.34402 12.863 5.48502C12.7287 5.61363 12.6328 5.77705 12.586 5.95702C12.449 6.43702 9.465 17.605 9.457 17.676C9.41687 17.9319 9.478 18.1934 9.62742 18.4049C9.77685 18.6165 10.0028 18.7615 10.2574 18.8093C10.512 18.857 10.7751 18.8037 10.9911 18.6606C11.207 18.5176 11.3587 18.2961 11.414 18.043C11.551 17.559 14.535 6.39502 14.543 6.32002C14.5615 6.19064 14.5509 6.05878 14.512 5.93402C14.4653 5.76567 14.3749 5.61265 14.2501 5.49043C14.1252 5.36822 13.9703 5.28114 13.801 5.23802C13.6701 5.20915 13.5354 5.20139 13.402 5.21502ZM7.32 6.01602C7.25814 6.03097 7.19707 6.04899 7.137 6.07002C6.93 6.15202 7.063 6.02002 4.317 8.77002C3.44131 9.63634 2.57262 10.5097 1.711 11.39C1.60612 11.5265 1.53815 11.6878 1.51363 11.8582C1.48911 12.0286 1.50887 12.2025 1.571 12.363C1.652 12.57 1.523 12.438 4.27 15.183C5.13632 16.0587 6.00968 16.9274 6.89 17.789C6.99821 17.8692 7.12024 17.9289 7.25 17.965C7.379 18.004 7.617 18.004 7.754 17.969C7.8917 17.9316 8.0198 17.8651 8.12967 17.774C8.23954 17.6829 8.32865 17.5694 8.391 17.441C8.4695 17.3052 8.50342 17.1481 8.488 16.992C8.488 16.824 8.488 16.801 8.457 16.711C8.42838 16.6148 8.38485 16.5237 8.328 16.441C8.308 16.411 7.308 15.402 6.102 14.195L3.91 12L6.113 9.79302C8.41 7.49302 8.352 7.55102 8.422 7.38702C8.4764 7.26455 8.50041 7.13076 8.492 6.99702C8.488 6.79302 8.477 6.72702 8.391 6.55502C8.29626 6.3584 8.13761 6.19975 7.941 6.10502C7.74794 6.01383 7.53202 5.98249 7.321 6.01502L7.32 6.01602ZM16.32 6.01602C16.1658 6.04558 16.0206 6.11068 15.896 6.20615C15.7714 6.30163 15.6707 6.42484 15.602 6.56602C15.523 6.73402 15.512 6.79602 15.512 7.00802C15.512 7.17602 15.512 7.19902 15.543 7.28902C15.582 7.39902 15.617 7.48002 15.672 7.55902C15.692 7.58602 16.695 8.59802 17.898 9.80502L20.094 12L17.898 14.195C17.1506 14.9383 16.4086 15.687 15.672 16.441C15.617 16.52 15.582 16.601 15.543 16.711C15.512 16.801 15.512 16.824 15.512 16.992C15.512 17.207 15.523 17.266 15.609 17.442C15.6719 17.5702 15.7618 17.6833 15.8724 17.7735C15.983 17.8638 16.1118 17.9291 16.25 17.965C16.379 18.004 16.617 18.004 16.754 17.969C16.871 17.934 17.012 17.863 17.109 17.789C17.152 17.758 18.332 16.586 19.73 15.184C22.477 12.438 22.348 12.57 22.43 12.364C22.469 12.262 22.5 12.102 22.5 12C22.5 11.898 22.469 11.738 22.43 11.637C22.348 11.43 22.477 11.562 19.73 8.81702C18.8637 7.94133 17.9903 7.07263 17.11 6.21102C17.0042 6.12937 16.8831 6.06954 16.754 6.03502C16.6116 6.00319 16.4647 5.99742 16.32 6.01602Z" fill="currentColor"/>
</svg>
