<svg width="24" height="24" viewBox="0 0 24 24" fill="none" xmlns="http://www.w3.org/2000/svg">
<g clip-path="url(#clip0_2538_24734)">
<path d="M1.781 0.0120234C1.47924 0.0504031 1.18912 0.152676 0.93 0.312023C0.7 0.458023 0.46 0.696023 0.312 0.926023C0.199 1.10602 0.082 1.39102 0.043 1.59402C1.86265e-09 1.80902 0 1.87502 0.003 5.08602C0.008 8.50402 0.003 8.26202 0.07 8.52002C0.148 8.83202 0.34 9.16002 0.574 9.39802C0.864 9.69102 1.211 9.87502 1.625 9.96502L1.754 9.98802H8.246L8.379 9.96502C8.77158 9.88793 9.13223 9.69544 9.41477 9.41218C9.69731 9.12893 9.8889 8.7678 9.965 8.37502L9.992 8.24202V1.73802L9.965 1.61802C9.8805 1.19684 9.66355 0.813711 9.34582 0.524596C9.0281 0.23548 8.62626 0.0555278 8.199 0.0110234C8.063 -0.00497656 1.914 -0.00497656 1.781 0.0110234V0.0120234ZM11.773 1.06602C11.43 1.11702 11.16 1.35602 11.043 1.71102C11.012 1.80102 11.012 1.82402 11.012 1.99202C11.012 2.19902 11.023 2.26202 11.098 2.42202C11.211 2.66002 11.418 2.86702 11.68 3.00002C11.781 3.05002 11.883 3.08602 12.07 3.13302C13.574 3.52702 14.816 4.71502 15.5 6.41402C15.563 6.56602 15.703 6.96902 15.703 6.98802C15.703 6.99202 15.379 6.99602 14.984 7.00002C14.348 7.00402 14.258 7.00802 14.188 7.02302C14.0169 7.06334 13.8595 7.14823 13.7318 7.26907C13.6041 7.3899 13.5107 7.54239 13.461 7.71102C13.421 7.83202 13.406 8.04302 13.43 8.17602C13.45 8.28902 13.508 8.44102 13.574 8.54302C13.621 8.61302 14.008 9.00302 15.473 10.473C16.1054 11.114 16.7448 11.748 17.391 12.375C17.4989 12.4551 17.6206 12.5148 17.75 12.551C17.8311 12.5746 17.9157 12.5837 18 12.578C18.0843 12.5837 18.1689 12.5746 18.25 12.551C18.3798 12.5149 18.5018 12.4552 18.61 12.375C18.652 12.344 19.516 11.488 20.527 10.473C21.997 9.00302 22.379 8.61302 22.426 8.54302C22.492 8.44102 22.551 8.28902 22.57 8.17602C22.5906 8.02072 22.5815 7.8629 22.543 7.71102C22.4938 7.54455 22.402 7.39383 22.2766 7.27384C22.1511 7.15385 21.9965 7.06876 21.828 7.02702C21.734 7.00402 21.715 7.00402 20.742 7.00002L19.75 6.99602L19.723 6.89502C19.6643 6.6862 19.5965 6.48001 19.52 6.27702C18.852 4.50402 17.46 3.06702 15.477 2.09702C14.4109 1.57898 13.2688 1.23496 12.094 1.07802C11.914 1.05502 11.867 1.05102 11.774 1.06602H11.773ZM5.828 11.43C5.66857 11.4583 5.51851 11.5252 5.391 11.625C5.348 11.656 4.481 12.515 3.465 13.539C1.41 15.594 1.547 15.445 1.461 15.691C1.426 15.801 1.426 15.809 1.426 15.996C1.426 16.176 1.426 16.196 1.457 16.289C1.578 16.645 1.828 16.883 2.187 16.977C2.262 16.997 2.352 16.997 3.257 17L4.25 17.004L4.277 17.105C4.289 17.165 4.344 17.325 4.391 17.465C5.071 19.515 6.684 21.137 9.035 22.137C9.78892 22.4546 10.5748 22.6902 11.379 22.84C12.074 22.965 12.246 22.969 12.489 22.852C12.601 22.7946 12.7002 22.7152 12.7806 22.6184C12.861 22.5216 12.921 22.4096 12.957 22.289C12.988 22.199 12.988 22.176 12.988 22.008C13.0022 21.8594 12.9723 21.7098 12.902 21.578C12.8449 21.4562 12.767 21.3452 12.672 21.25C12.492 21.074 12.282 20.96 11.969 20.875C11.4728 20.7513 11.0023 20.541 10.579 20.254C9.9347 19.8167 9.3943 19.2432 8.996 18.574C8.73111 18.1387 8.5164 17.6747 8.356 17.191L8.296 17.008L9.016 17C9.703 16.996 9.734 16.996 9.828 16.973C10.058 16.91 10.238 16.793 10.375 16.613C10.5137 16.4366 10.5869 16.2174 10.582 15.993C10.582 15.793 10.532 15.617 10.426 15.457C10.379 15.387 9.98 14.984 8.527 13.527C7.89458 12.8861 7.25521 12.2521 6.609 11.625C6.50346 11.5435 6.3828 11.4837 6.254 11.449C6.11429 11.4173 5.97007 11.4105 5.828 11.429V11.43ZM15.715 14.02C15.3909 14.0671 15.0834 14.1932 14.8197 14.3873C14.556 14.5815 14.3442 14.8376 14.203 15.133C14.1262 15.2892 14.0698 15.4545 14.035 15.625L14.012 15.754V22.258L14.035 22.383C14.137 22.832 14.355 23.219 14.672 23.493C14.988 23.77 15.375 23.941 15.801 23.988C15.957 24.004 22.047 24.004 22.203 23.988C22.66 23.938 23.074 23.742 23.395 23.43C23.738 23.09 23.941 22.668 23.988 22.188C23.996 22.098 24 21.164 23.996 18.914C23.992 15.473 23.996 15.73 23.926 15.469C23.868 15.2536 23.7729 15.0498 23.645 14.867C23.355 14.441 22.93 14.16 22.387 14.035L22.273 14.012L19.043 14.008C16.383 14.008 15.797 14.008 15.715 14.02ZM21.996 21.996H15.996V15.996H21.996V21.996Z" fill="currentColor"/>
</g>
<defs>
<clipPath id="clip0_2538_24734">
<rect width="24" height="24" fill="white"/>
</clipPath>
</defs>
</svg>
