<svg width="24" height="24" viewBox="0 0 24 24" fill="none" xmlns="http://www.w3.org/2000/svg">
<path d="M9.816 0.0200062C9.62572 0.0547521 9.45019 0.145652 9.312 0.281006C9.17606 0.407609 9.07895 0.570274 9.032 0.750006C9.007 0.836006 9.007 0.848006 9 2.59401C8.992 4.51201 8.996 4.41401 8.922 4.78501C8.81336 5.33839 8.5869 5.86191 8.258 6.32001C8.03988 6.61396 7.78817 6.88144 7.508 7.11701C6.99044 7.52963 6.3802 7.81004 5.73 7.93401C5.371 7.99601 5.445 7.99601 3.562 8.00401L1.812 8.00801L1.699 8.04701C1.5372 8.1009 1.39122 8.1939 1.27399 8.31776C1.15676 8.44161 1.07192 8.59249 1.027 8.75701L1.004 8.85201L1 10.902C0.996 13.039 1 13.27 1.043 13.574C1.16485 14.4079 1.54686 15.1821 2.13458 15.7862C2.7223 16.3902 3.48572 16.7933 4.316 16.938C4.68 17 4.531 16.996 8.012 16.996C11.07 16.996 11.266 16.996 11.434 16.976C12.199 16.8898 12.9238 16.5881 13.524 16.106C13.672 15.984 13.988 15.668 14.114 15.508C14.602 14.898 14.891 14.195 14.98 13.41C14.992 13.297 14.996 12.387 14.996 8.48401C14.996 3.93801 14.992 3.68801 14.973 3.53101C14.8789 2.74882 14.5569 2.01158 14.047 1.41101C13.8788 1.22233 13.6973 1.04588 13.504 0.883006C12.9331 0.420925 12.2446 0.127253 11.516 0.0350062C11.352 0.0120062 11.277 0.0080062 10.625 0.0040062C10.035 6.19586e-06 9.891 0.00400619 9.816 0.0200062Z" fill="currentColor"/>
<path d="M6.398 0.715006C6.254 0.742006 6.375 0.629006 4.012 2.99201C1.89 5.11001 1.8 5.20001 1.762 5.28201C1.73236 5.34422 1.71572 5.41182 1.71308 5.48069C1.71045 5.54955 1.72188 5.61823 1.74668 5.68252C1.77149 5.74682 1.80913 5.80539 1.85733 5.85464C1.90553 5.9039 1.96326 5.94281 2.027 5.96901L2.094 5.99201H3.64C4.858 5.99201 5.206 5.99201 5.284 5.98001C5.601 5.93001 5.87 5.82401 6.132 5.64501C6.558 5.35501 6.839 4.92501 6.964 4.38701L6.987 4.27001L6.991 2.70001C6.995 1.14801 6.995 1.12901 6.971 1.05001C6.94394 0.96714 6.89547 0.89289 6.8305 0.834768C6.76553 0.776646 6.68636 0.736712 6.601 0.719006C6.53421 0.701999 6.4654 0.70063 6.398 0.715006ZM17.855 7.00801C17.6654 7.04076 17.4878 7.12285 17.34 7.24601C17.21 7.35601 17.098 7.53901 17.04 7.71501C17.0022 7.87626 16.9954 8.04322 17.02 8.20701C17.105 8.57801 17.367 8.85501 17.734 8.96901C17.816 8.99201 17.844 8.99201 18.516 9.00001C18.953 9.00401 19.242 9.01601 19.296 9.02301C19.66 9.08201 19.973 9.22301 20.258 9.44501C20.375 9.53901 20.563 9.74201 20.648 9.87501C20.848 10.172 20.953 10.465 20.988 10.82C20.996 10.914 21 12.273 20.996 15.59C20.992 19.922 20.992 20.238 20.973 20.332C20.887 20.77 20.703 21.122 20.414 21.41C20.094 21.73 19.691 21.926 19.23 21.984C19.094 22 12.91 22 12.773 21.984C12.4361 21.9425 12.1144 21.8193 11.836 21.625C11.6626 21.4928 11.5075 21.3382 11.375 21.165C11.235 20.965 11.121 20.719 11.062 20.488C11.0259 20.3423 11.0065 20.1931 11.004 20.043C10.992 19.809 10.964 19.699 10.894 19.551C10.8288 19.4243 10.7378 19.3126 10.6269 19.223C10.516 19.1335 10.3876 19.0681 10.25 19.031C10.0933 18.9951 9.93082 18.9924 9.773 19.023C9.379 19.121 9.074 19.449 9.012 19.843C8.992 19.957 9.004 20.285 9.032 20.496C9.10952 21.1218 9.33428 21.7204 9.68784 22.2425C10.0414 22.7647 10.5137 23.1957 11.066 23.5C11.516 23.754 12.016 23.91 12.562 23.98C12.746 24 19.262 24 19.442 23.98C20.406 23.855 21.207 23.465 21.867 22.785C22.48 22.156 22.84 21.415 22.973 20.5L22.996 20.324L23 15.633C23.004 12.305 23 10.883 22.992 10.75C22.9601 10.229 22.8262 9.71941 22.598 9.25001C22.398 8.84001 22.152 8.49601 21.82 8.16801C21.1875 7.53046 20.3571 7.12673 19.465 7.02301C19.348 7.00801 19.175 7.00301 18.621 7.00001C18.238 7.00001 17.891 7.00401 17.855 7.00801Z" fill="currentColor"/>
</svg>
