<svg width="24" height="24" viewBox="0 0 24 24" fill="none" xmlns="http://www.w3.org/2000/svg">
<g clip-path="url(#clip0_2538_25117)">
<path d="M9.816 0.0198841C9.62572 0.05463 9.45019 0.14553 9.312 0.280884C9.17606 0.407487 9.07895 0.570152 9.032 0.749884C9.007 0.835884 9.007 0.847884 9 2.59388C8.992 4.51188 8.996 4.41388 8.922 4.78488C8.81336 5.33827 8.5869 5.86178 8.258 6.31988C8.03988 6.61384 7.78817 6.88132 7.508 7.11688C6.99044 7.52951 6.3802 7.80992 5.73 7.93388C5.371 7.99588 5.445 7.99588 3.562 8.00388L1.812 8.00788L1.699 8.04688C1.5372 8.10078 1.39122 8.19378 1.27399 8.31764C1.15676 8.44149 1.07192 8.59237 1.027 8.75688L1.004 8.85188L1 10.9019C0.996 13.0389 1 13.2699 1.043 13.5739C1.16485 14.4078 1.54686 15.182 2.13458 15.7861C2.7223 16.3901 3.48572 16.7932 4.316 16.9379C4.68 16.9999 4.531 16.9959 8.012 16.9959C11.07 16.9959 11.266 16.9959 11.434 16.9759C12.199 16.8896 12.9238 16.5879 13.524 16.1059C13.672 15.9839 13.988 15.6679 14.114 15.5079C14.602 14.8979 14.891 14.1949 14.98 13.4099C14.992 13.2969 14.996 12.3869 14.996 8.48388C14.996 3.93788 14.992 3.68788 14.973 3.53088C14.8789 2.7487 14.5569 2.01146 14.047 1.41088C13.8788 1.22221 13.6973 1.04576 13.504 0.882884C12.9331 0.420803 12.2446 0.127131 11.516 0.0348841C11.352 0.0118841 11.277 0.00788413 10.625 0.00388413C10.035 -0.000115874 9.891 0.00388412 9.816 0.0198841Z" fill="currentColor"/>
<path d="M6.398 0.714884C6.254 0.741884 6.375 0.628884 4.012 2.99188C1.89 5.10988 1.8 5.19988 1.762 5.28188C1.73236 5.3441 1.71572 5.4117 1.71308 5.48057C1.71045 5.54943 1.72188 5.61811 1.74668 5.6824C1.77149 5.7467 1.80913 5.80526 1.85733 5.85452C1.90553 5.90378 1.96326 5.94269 2.027 5.96888L2.094 5.99188H3.64C4.858 5.99188 5.206 5.99188 5.284 5.97988C5.601 5.92988 5.87 5.82388 6.132 5.64488C6.558 5.35488 6.839 4.92488 6.964 4.38688L6.987 4.26988L6.991 2.69988C6.995 1.14788 6.995 1.12888 6.971 1.04988C6.94394 0.967018 6.89547 0.892768 6.8305 0.834646C6.76553 0.776524 6.68636 0.73659 6.601 0.718884C6.53421 0.701877 6.4654 0.700508 6.398 0.714884ZM17.855 7.00788C17.6654 7.04064 17.4878 7.12272 17.34 7.24588C17.21 7.35588 17.098 7.53888 17.04 7.71488C17.0022 7.87614 16.9954 8.0431 17.02 8.20688C17.105 8.57788 17.367 8.85488 17.734 8.96888C17.816 8.99188 17.844 8.99188 18.516 8.99988C18.953 9.00388 19.242 9.01588 19.296 9.02288C19.66 9.08188 19.973 9.22288 20.258 9.44488C20.375 9.53888 20.563 9.74188 20.648 9.87488C20.848 10.1719 20.953 10.4649 20.988 10.8199C20.996 10.9139 21 12.2729 20.996 15.5899C20.992 19.9219 20.992 20.2379 20.973 20.3319C20.887 20.7699 20.703 21.1219 20.414 21.4099C20.094 21.7299 19.691 21.9259 19.23 21.9839C19.094 21.9999 12.91 21.9999 12.773 21.9839C12.4361 21.9424 12.1144 21.8192 11.836 21.6249C11.6626 21.4927 11.5075 21.338 11.375 21.1649C11.235 20.9649 11.121 20.7189 11.062 20.4879C11.0259 20.3422 11.0065 20.1929 11.004 20.0429C10.992 19.8089 10.964 19.6989 10.894 19.5509C10.8288 19.4242 10.7378 19.3125 10.6269 19.2229C10.516 19.1334 10.3876 19.068 10.25 19.0309C10.0933 18.995 9.93082 18.9923 9.773 19.0229C9.379 19.1209 9.074 19.4489 9.012 19.8429C8.992 19.9569 9.004 20.2849 9.032 20.4959C9.10952 21.1217 9.33428 21.7203 9.68784 22.2424C10.0414 22.7646 10.5137 23.1955 11.066 23.4999C11.516 23.7539 12.016 23.9099 12.562 23.9799C12.746 23.9999 19.262 23.9999 19.442 23.9799C20.406 23.8549 21.207 23.4649 21.867 22.7849C22.48 22.1559 22.84 21.4149 22.973 20.4999L22.996 20.3239L23 15.6329C23.004 12.3049 23 10.8829 22.992 10.7499C22.9601 10.2289 22.8262 9.71928 22.598 9.24988C22.398 8.83988 22.152 8.49588 21.82 8.16788C21.1875 7.53034 20.3571 7.12661 19.465 7.02288C19.348 7.00788 19.175 7.00288 18.621 6.99988C18.238 6.99988 17.891 7.00388 17.855 7.00788Z" fill="currentColor"/>
</g>
<defs>
<clipPath id="clip0_2538_25117">
<rect width="24" height="24" fill="white"/>
</clipPath>
</defs>
</svg>
