<svg width="24" height="24" viewBox="0 0 24 24" fill="none" xmlns="http://www.w3.org/2000/svg">
<path d="M11.844 0.0119062C11.449 0.0819063 11.148 0.354906 11.035 0.733906L11.012 0.823906V5.17191L11.035 5.26591C11.133 5.60191 11.387 5.85891 11.727 5.96091C11.8152 5.98828 11.9079 5.9988 12 5.99191C12.0935 5.99874 12.1874 5.98823 12.277 5.96091C12.613 5.85891 12.867 5.60091 12.965 5.26591L12.992 5.17191V0.823906L12.965 0.733906C12.9077 0.52917 12.7867 0.348019 12.6194 0.216749C12.4522 0.0854801 12.2475 0.0109248 12.035 0.00390625C11.961 0.00390625 11.875 0.00390625 11.844 0.0119062ZM8.879 2.52291C8.769 2.53491 8.598 2.58991 8.293 2.71091C7.02835 3.21771 5.88015 3.97676 4.91841 4.94177C3.95666 5.90678 3.20152 7.05754 2.699 8.32391C2.519 8.78091 2.484 8.92991 2.508 9.14391C2.539 9.39091 2.641 9.58991 2.82 9.76591C2.91859 9.85792 3.03511 9.92859 3.16227 9.9735C3.28943 10.0184 3.42449 10.0366 3.559 10.0269C3.76719 10.0159 3.96663 9.93966 4.129 9.80891C4.293 9.67891 4.375 9.55091 4.484 9.25391C4.88319 8.16151 5.51564 7.16923 6.33735 6.34614C7.15906 5.52305 8.15027 4.88893 9.242 4.48791C9.43 4.41791 9.527 4.36791 9.632 4.28491C9.782 4.16791 9.914 3.95691 9.969 3.76191C10.0002 3.59939 10.0002 3.43242 9.969 3.26991C9.92988 3.10839 9.84882 2.96006 9.734 2.83991C9.5709 2.65777 9.34534 2.54356 9.102 2.51991C9.06281 2.51457 9.02346 2.51056 8.984 2.50791C8.977 2.51191 8.93 2.51591 8.879 2.52291ZM14.883 2.51991C14.645 2.54706 14.4253 2.66099 14.266 2.83991C14.1526 2.96108 14.0717 3.10902 14.031 3.26991C13.9998 3.43242 13.9998 3.59939 14.031 3.76191C14.086 3.95291 14.211 4.15591 14.351 4.26991C14.469 4.36291 14.539 4.40191 14.793 4.49991C15.125 4.62491 15.25 4.67991 15.547 4.82791C16.3243 5.21047 17.0331 5.71863 17.645 6.33191C18.4804 7.16161 19.1217 8.16597 19.523 9.27291C19.625 9.54691 19.707 9.67591 19.863 9.80091C19.9967 9.91235 20.1572 9.98687 20.3286 10.017C20.5 10.0472 20.6763 10.032 20.84 9.97291C21.27 9.81291 21.543 9.37891 21.492 8.92591C21.477 8.80891 21.43 8.65591 21.312 8.34791C20.8686 7.23441 20.2341 6.20695 19.437 5.31191C19.1805 5.04016 18.915 4.77701 18.641 4.52291C17.691 3.69091 16.641 3.05491 15.496 2.62891C15.211 2.52291 15.07 2.50091 14.883 2.51991ZM0.844 11.0119C0.738625 11.0331 0.636212 11.067 0.539 11.1129C0.418691 11.1754 0.312336 11.2617 0.226387 11.3666C0.140438 11.4714 0.0766866 11.5927 0.039 11.7229C0.0116787 11.8125 0.00116861 11.9065 0.008 11.9999C0.008 12.1519 0.012 12.1799 0.039 12.2729C0.141 12.6129 0.399 12.8669 0.734 12.9649L0.828 12.9879H5.176L5.266 12.9649C5.602 12.8669 5.859 12.6129 5.961 12.2729C5.98838 12.1847 5.99889 12.092 5.992 11.9999C5.99883 11.9065 5.98832 11.8125 5.961 11.7229C5.91205 11.5603 5.8236 11.4124 5.70355 11.2924C5.5835 11.1723 5.43557 11.0839 5.273 11.0349L5.188 11.0079H3.03C1.843 11.0079 0.859 11.0079 0.844 11.0119ZM18.844 11.0119C18.7386 11.0331 18.6362 11.067 18.539 11.1129C18.4187 11.1754 18.3123 11.2617 18.2264 11.3666C18.1404 11.4714 18.0767 11.5927 18.039 11.7229C18.0117 11.8125 18.0012 11.9065 18.008 11.9999C18.008 12.1519 18.012 12.1799 18.039 12.2729C18.141 12.6129 18.399 12.8669 18.734 12.9649L18.828 12.9879H23.176L23.266 12.9649C23.602 12.8669 23.859 12.6129 23.961 12.2729C23.9884 12.1847 23.9989 12.092 23.992 11.9999C23.9988 11.9065 23.9883 11.8125 23.961 11.7229C23.9121 11.5603 23.8236 11.4124 23.7036 11.2924C23.5835 11.1723 23.4356 11.0839 23.273 11.0349L23.188 11.0079H21.03C19.843 11.0079 18.859 11.0079 18.844 11.0119ZM3.316 14.0199C3.13631 14.0582 2.9704 14.1446 2.836 14.2699C2.69204 14.4011 2.59029 14.572 2.54364 14.7611C2.49699 14.9502 2.50756 15.1488 2.574 15.3319C2.711 15.7499 3.004 16.3979 3.254 16.8519C4.37479 18.8644 6.15412 20.4297 8.293 21.2849C8.738 21.4689 8.891 21.5039 9.102 21.4799C9.34201 21.4577 9.565 21.3464 9.727 21.1679C9.84466 21.0456 9.92812 20.8946 9.969 20.7299C10.0002 20.5674 10.0002 20.4004 9.969 20.2379C9.9103 20.0346 9.79352 19.8528 9.633 19.7149C9.51515 19.6261 9.38335 19.5575 9.243 19.5119C8.15504 19.1094 7.16689 18.4766 6.3462 17.6568C5.52551 16.8369 4.89164 15.8494 4.488 14.7619C4.46093 14.6837 4.42989 14.6069 4.395 14.5319C4.33217 14.4202 4.25143 14.3195 4.156 14.2339C4.03862 14.1467 3.9084 14.0782 3.77 14.0309C3.61995 14.0058 3.46709 14.0021 3.316 14.0199ZM20.281 14.0229C20.0514 14.0722 19.8467 14.2012 19.703 14.3869C19.617 14.4999 19.582 14.5669 19.503 14.7849C18.8254 16.5991 17.5164 18.108 15.816 19.0349C15.4862 19.2134 15.1444 19.3688 14.793 19.4999C14.539 19.5979 14.469 19.6329 14.352 19.7299C14.211 19.8439 14.086 20.0469 14.032 20.2379C14.0008 20.4004 14.0008 20.5674 14.032 20.7299C14.082 20.9139 14.148 21.0309 14.27 21.1639C14.469 21.3749 14.715 21.4839 15 21.4839C15.16 21.4839 15.242 21.4639 15.5 21.3669C16.8667 20.8539 18.1051 20.0488 19.1286 19.0078C20.1521 17.9669 20.9361 16.7151 21.426 15.3399C21.4748 15.2045 21.4938 15.0601 21.4817 14.9167C21.4696 14.7732 21.4267 14.6341 21.3559 14.5087C21.285 14.3834 21.188 14.2749 21.0713 14.1905C20.9547 14.1061 20.8212 14.0479 20.68 14.0199C20.5477 13.9994 20.413 14.0004 20.281 14.0229ZM11.844 18.0119C11.449 18.0819 11.148 18.3549 11.035 18.7339L11.012 18.8239V23.1719L11.035 23.2659C11.133 23.6019 11.387 23.8589 11.727 23.9609C11.8152 23.9883 11.9079 23.9988 12 23.9919C12.0935 23.9987 12.1874 23.9882 12.277 23.9609C12.613 23.8589 12.867 23.6009 12.965 23.2659L12.992 23.1719V18.8239L12.965 18.7339C12.9077 18.5292 12.7867 18.348 12.6194 18.2167C12.4522 18.0855 12.2475 18.0109 12.035 18.0039C11.961 18.0039 11.875 18.0039 11.844 18.0119Z" fill="currentColor"/>
</svg>
