<svg width="24" height="24" viewBox="0 0 24 24" fill="none" xmlns="http://www.w3.org/2000/svg">
<g clip-path="url(#clip0_2538_25782)">
<path d="M11.45 0.012044C8.93596 0.121281 6.52035 1.02031 4.54662 2.58131C2.57289 4.1423 1.14151 6.28581 0.456 8.70704C0.220559 9.54226 0.0740787 10.4 0.019 11.266C0.00339297 11.7539 0.00339297 12.2422 0.019 12.73C0.116 14.09 0.374 15.246 0.839 16.422C1.4755 18.0398 2.45754 19.4991 3.71652 20.698C4.9755 21.8968 6.48105 22.8064 8.128 23.363C9.882 23.957 11.78 24.141 13.64 23.887C15.4662 23.6397 17.2106 22.9737 18.737 21.941C20.3068 20.8756 21.6027 19.4543 22.519 17.793C22.659 17.539 22.905 17.035 23.022 16.758C23.464 15.727 23.761 14.648 23.897 13.551C23.972 12.984 23.991 12.625 23.991 12.004C23.991 11.473 23.983 11.266 23.941 10.816C23.7517 8.847 23.0765 6.95576 21.976 5.31204C20.6849 3.39051 18.8679 1.88139 16.742 0.965044C15.6299 0.494932 14.4546 0.191011 13.254 0.063044C12.746 0.012044 11.923 -0.011956 11.45 0.012044ZM7.284 6.07404C7.386 6.10204 7.495 6.14804 7.589 6.20704C7.651 6.25004 8.101 6.69104 9.835 8.42204L12 10.586L14.164 8.42604C14.8983 7.68731 15.638 6.95396 16.383 6.22604C16.5042 6.14261 16.6424 6.08713 16.7877 6.06361C16.933 6.04009 17.0816 6.04912 17.223 6.09004C17.563 6.18804 17.828 6.45704 17.922 6.80004C17.961 6.94504 17.957 7.17604 17.914 7.31604C17.879 7.42604 17.832 7.53104 17.774 7.61704C17.754 7.64504 16.766 8.64504 15.574 9.83604L13.414 12L15.574 14.164C16.3139 14.8972 17.0472 15.6369 17.774 16.383C17.832 16.469 17.879 16.574 17.914 16.683C17.941 16.773 17.945 16.809 17.945 16.945C17.9525 17.1024 17.9176 17.2588 17.844 17.398C17.7782 17.525 17.687 17.637 17.576 17.7271C17.465 17.8173 17.3367 17.8836 17.199 17.922C17.0289 17.9584 16.8528 17.9556 16.684 17.914C16.5776 17.8817 16.4763 17.8346 16.383 17.774C16.355 17.754 15.355 16.766 14.164 15.574L12 13.41L9.836 15.574C9.10151 16.3149 8.36048 17.0493 7.613 17.777C7.50819 17.8416 7.39518 17.8917 7.277 17.926C7.12085 17.9565 6.96003 17.9538 6.805 17.918C6.63115 17.8717 6.47251 17.7805 6.34493 17.6536C6.21735 17.5268 6.12531 17.3686 6.078 17.195C6.04552 17.0368 6.04416 16.8738 6.074 16.715C6.10994 16.6 6.15998 16.4898 6.223 16.387C6.243 16.355 7.234 15.355 8.426 14.164L10.59 12L8.426 9.83604C7.68727 9.10175 6.95392 8.36206 6.226 7.61704C6.14257 7.49583 6.08709 7.3576 6.06357 7.21233C6.04005 7.06707 6.04908 6.9184 6.09 6.77704C6.2 6.39804 6.516 6.12104 6.906 6.05904C6.992 6.04304 7.199 6.05504 7.286 6.07404H7.284Z" fill="currentColor"/>
</g>
<defs>
<clipPath id="clip0_2538_25782">
<rect width="24" height="24" fill="white"/>
</clipPath>
</defs>
</svg>
