<svg width="24" height="24" viewBox="0 0 24 24" fill="none" xmlns="http://www.w3.org/2000/svg">
<path d="M7.285 3.00793C6.37735 3.05946 5.50607 3.3823 4.78399 3.93465C4.06191 4.487 3.52229 5.24341 3.235 6.10593C3.078 6.56993 3.02 6.92593 3 7.50393C2.988 7.83593 2.969 7.99593 2.906 8.21893C2.81285 8.53966 2.66057 8.84015 2.457 9.10493C2.426 9.14793 1.91 9.67193 1.313 10.2699C0.145 11.4399 0.147 11.4379 0.07 11.6369C0.031 11.7379 0 11.8979 0 11.9999C0 12.1019 0.031 12.2619 0.07 12.3629C0.148 12.5629 0.145 12.5549 1.312 13.7269C1.69924 14.1108 2.08095 14.5001 2.457 14.8949C2.66 15.1559 2.82 15.4729 2.907 15.7809C2.969 16.0039 2.988 16.1639 3 16.4919C3.00589 17.1754 3.16553 17.8487 3.46709 18.462C3.76865 19.0753 4.20438 19.6129 4.742 20.0349C5.406 20.5549 6.172 20.8669 7.043 20.9729C7.191 20.9929 7.324 20.9929 8.187 20.9929H9.16L9.25 20.9689C9.38825 20.9319 9.51693 20.8655 9.62734 20.7744C9.73775 20.6833 9.82733 20.5696 9.89 20.4409C9.96885 20.3052 10.0031 20.1482 9.988 19.9919C9.988 19.8239 9.988 19.8009 9.957 19.7109C9.91235 19.5583 9.82899 19.4198 9.715 19.3089C9.58566 19.174 9.42222 19.0765 9.242 19.0269C9.148 19.0039 9.129 19.0039 8.187 18.9969C7.145 18.9879 7.184 18.9879 6.898 18.9179C6.55327 18.8284 6.23127 18.6672 5.953 18.4449C5.79245 18.3077 5.64483 18.1561 5.512 17.9919C5.29183 17.6989 5.13733 17.362 5.059 17.0039C5.019 16.8239 5.008 16.6949 5 16.4059C4.99267 16.16 4.96928 15.9148 4.93 15.6719C4.80568 14.9753 4.52082 14.3173 4.098 13.7499C3.938 13.5399 3.844 13.4369 3.141 12.7339L2.41 11.9999L3.14 11.2659C3.843 10.5589 3.936 10.4569 4.097 10.2459C4.51818 9.67911 4.8029 9.02275 4.929 8.32793C4.968 8.09793 4.987 7.87493 4.999 7.59393C5.007 7.30393 5.019 7.17593 5.058 6.99593C5.132 6.63593 5.3 6.28593 5.53 5.97993C5.65865 5.82682 5.7998 5.68466 5.952 5.55493C6.23275 5.33268 6.55607 5.17034 6.902 5.07793C7.175 5.01193 7.136 5.01193 8.179 5.00393C9.128 4.99593 9.147 4.99593 9.241 4.97293C9.42758 4.92417 9.59604 4.8224 9.726 4.67993C9.84366 4.55766 9.92712 4.40662 9.968 4.24193C9.99922 4.07942 9.99922 3.91244 9.968 3.74993C9.9226 3.60796 9.85401 3.47449 9.765 3.35493C9.62792 3.19934 9.44869 3.0868 9.249 3.03093C9.159 3.00793 9.151 3.00393 8.245 3.00393C7.741 3.00393 7.308 3.00393 7.285 3.00793ZM14.82 3.01593C14.6655 3.04475 14.52 3.10956 14.3953 3.20512C14.2705 3.30068 14.17 3.42429 14.102 3.56593C14.023 3.73393 14.012 3.79593 14.012 4.00793C14.012 4.17593 14.012 4.19893 14.043 4.28893C14.0942 4.455 14.1872 4.60512 14.3131 4.7249C14.439 4.84467 14.5936 4.93008 14.762 4.97293C14.852 4.99593 14.872 4.99593 15.82 5.00293C16.863 5.01193 16.824 5.01193 17.098 5.07793C17.434 5.16393 17.785 5.34393 18.058 5.56193C18.164 5.64793 18.363 5.84793 18.445 5.95293C18.66 6.21893 18.835 6.57393 18.918 6.89793C18.968 7.10193 18.984 7.21793 18.996 7.50393C19.016 7.98393 19.046 8.26193 19.125 8.58993C19.265 9.17993 19.543 9.76993 19.902 10.2459C20.062 10.4569 20.156 10.5589 20.859 11.2659L21.589 11.9999L20.852 12.7419C20.34 13.2539 20.078 13.5269 20 13.6219C19.5212 14.2246 19.2002 14.937 19.066 15.6949C19.0271 15.955 19.0037 16.2171 18.996 16.4799C18.992 16.6449 18.976 16.8199 18.969 16.8789C18.9 17.2829 18.7355 17.6645 18.489 17.9919C18.399 18.1089 18.176 18.3399 18.059 18.4369C17.7768 18.6642 17.4491 18.8282 17.098 18.9179C16.816 18.9879 16.855 18.9879 15.816 18.9959C14.871 19.0039 14.852 19.0039 14.762 19.0269C14.582 19.0779 14.442 19.1569 14.309 19.2809C14.1846 19.3988 14.093 19.547 14.043 19.7109C14.012 19.8009 14.012 19.8239 14.012 19.9919C14.012 20.2069 14.023 20.2659 14.109 20.4419C14.1719 20.5705 14.2617 20.6841 14.3723 20.7751C14.4828 20.866 14.6117 20.9321 14.75 20.9689C14.84 20.9919 14.855 20.9919 15.703 20.9959C16.719 21.0039 16.941 20.9919 17.32 20.9179C18.1032 20.7676 18.8329 20.4132 19.4351 19.8905C20.0374 19.3677 20.491 18.6952 20.75 17.9409C20.91 17.4839 20.98 17.0709 21 16.4959C21.012 16.1639 21.031 16.0039 21.094 15.7809C21.18 15.4729 21.34 15.1559 21.543 14.8949C21.574 14.8519 22.09 14.3279 22.688 13.7269C23.855 12.5549 23.852 12.5619 23.93 12.3629C23.969 12.2619 24 12.1019 24 11.9999C24 11.8979 23.969 11.7379 23.93 11.6369C23.852 11.4369 23.855 11.4409 22.688 10.2699C22.3002 9.88769 21.9185 9.4993 21.543 9.10493C21.3391 8.84023 21.1865 8.53973 21.093 8.21893C21.031 7.99593 21.012 7.83593 21 7.50393C20.9962 7.13736 20.9475 6.77264 20.855 6.41793C20.583 5.34054 19.9242 4.40087 19.004 3.77793C18.3856 3.36174 17.6751 3.1026 16.934 3.02293C16.864 3.01593 16.484 3.00793 15.867 3.00293C15.074 3.00293 14.898 3.00293 14.82 3.01593Z" fill="currentColor"/>
</svg>
