<svg width="24" height="24" viewBox="0 0 24 24" fill="none" xmlns="http://www.w3.org/2000/svg">
<path d="M15.164 5.40596C14.6571 5.48056 14.1991 5.74954 13.887 6.15596C13.8026 6.26928 13.7305 6.3913 13.672 6.51996C13.629 6.60996 13.098 8.12896 11.992 11.348C11.4569 12.913 10.9179 14.4766 10.375 16.039C10.375 16.035 9.961 14.937 9.457 13.598C9.13813 12.7397 8.81245 11.884 8.48 11.031C8.34808 10.7591 8.15441 10.5218 7.91445 10.3381C7.67449 10.1544 7.3949 10.0293 7.098 9.97296C6.88605 9.93946 6.67086 9.9314 6.457 9.94896C6.10039 9.98753 5.76116 10.123 5.4761 10.3407C5.19105 10.5584 4.97106 10.8501 4.84 11.184C4.82 11.234 4.777 11.379 4.742 11.504C4.664 11.777 4.602 11.91 4.496 12.035C4.375 12.18 4.215 12.285 4.016 12.352L3.934 12.379L2.894 12.387C1.777 12.395 1.82 12.391 1.644 12.457C1.50671 12.5078 1.38361 12.5908 1.285 12.699C0.992 13 0.918 13.469 1.109 13.844C1.254 14.129 1.539 14.332 1.859 14.379C1.926 14.387 2.262 14.391 2.989 14.387C3.883 14.383 4.043 14.379 4.145 14.363C4.825 14.253 5.379 13.98 5.835 13.523C6.094 13.27 6.258 13.043 6.418 12.719C6.52 12.508 6.57 12.375 6.645 12.113C6.672 12.023 6.691 11.949 6.695 11.945C6.699 11.945 7.109 13.035 7.613 14.371C8.113 15.707 8.551 16.855 8.582 16.921C8.762 17.313 9.105 17.661 9.488 17.84C10.058 18.113 10.727 18.11 11.281 17.832C11.488 17.727 11.613 17.637 11.785 17.465C11.9799 17.2777 12.1308 17.0495 12.227 16.797C12.25 16.738 12.988 14.605 13.863 12.051C14.743 9.49996 15.465 7.41096 15.469 7.40196C15.473 7.39796 15.754 8.40996 16.094 9.65196C16.848 12.387 16.828 12.32 16.894 12.492C17.051 12.882 17.27 13.211 17.563 13.504C18.039 13.984 18.653 14.285 19.324 14.371C19.422 14.383 19.75 14.383 20.801 14.383C22.321 14.383 22.211 14.391 22.414 14.297C22.637 14.191 22.804 14.027 22.906 13.812C22.9894 13.629 23.0162 13.4252 22.9829 13.2268C22.9495 13.0285 22.8576 12.8446 22.719 12.699C22.5852 12.5618 22.4159 12.4645 22.23 12.418C22.145 12.395 22.121 12.395 20.82 12.387C19.336 12.379 19.457 12.387 19.254 12.293C19.0411 12.1925 18.8709 12.0195 18.774 11.805C18.754 11.762 18.449 10.672 18.059 9.26196C17.687 7.90196 17.367 6.74996 17.352 6.70296C17.336 6.65596 17.285 6.54696 17.246 6.46096C16.973 5.92096 16.496 5.55896 15.875 5.42596C15.6399 5.39206 15.4016 5.38534 15.165 5.40596H15.164Z" fill="currentColor"/>
</svg>
