<svg width="24" height="24" viewBox="0 0 24 24" fill="none" xmlns="http://www.w3.org/2000/svg">
<g clip-path="url(#clip0_3416_7883)">
<path d="M11.578 2.01208C10.1354 2.08745 8.73972 2.55036 7.538 3.35208C6.69411 3.92375 5.96457 4.64821 5.387 5.48808C5.34873 5.53846 5.31713 5.59359 5.293 5.65208C5.297 5.65608 5.313 5.66008 5.328 5.66008C5.34 5.66008 5.414 5.67608 5.484 5.69508C5.828 5.78108 6.121 5.94108 6.371 6.18008C6.559 6.36008 6.684 6.52708 6.797 6.75808L6.863 6.88708L6.937 6.77008C7.4082 6.03182 8.03538 5.40572 8.77446 4.93581C9.51353 4.4659 10.3466 4.16357 11.215 4.05008C12.3037 3.90742 13.4107 4.06295 14.418 4.50008C14.551 4.55908 14.875 4.72308 15.008 4.79708C15.6828 5.19243 16.2755 5.7135 16.754 6.33208C17.4422 7.22275 17.8647 8.28973 17.973 9.41008C18 9.65208 18.003 10.3121 17.98 10.5351C17.926 11.0591 17.84 11.4651 17.691 11.9101C17.3238 13.0108 16.6447 13.9812 15.7362 14.7032C14.8278 15.4252 13.7292 15.8678 12.574 15.9771C12.391 15.9971 11.621 15.9971 11.426 15.9771C10.6886 15.9068 9.97074 15.6999 9.309 15.3671C9.195 15.3121 9.102 15.2701 9.102 15.2701C9.098 15.2731 9.078 15.3281 9.055 15.3901C8.84778 15.9319 8.57041 16.4443 8.23 16.9141C8.168 16.9961 8.156 17.0201 8.168 17.0271C9.77714 17.9008 11.6365 18.1986 13.438 17.8711C15.0773 17.5732 16.5826 16.7703 17.743 15.5747C18.9035 14.3791 19.6612 12.8506 19.91 11.2031C20.0156 10.4653 20.0237 9.71692 19.934 8.97708C19.6981 7.11177 18.8096 5.39014 17.426 4.11708C16.5977 3.35001 15.6146 2.76931 14.543 2.41408C13.9356 2.21112 13.3061 2.0812 12.668 2.02708C12.528 2.01608 11.691 2.00008 11.578 2.01208Z" fill="currentColor"/>
<path d="M12.996 6.37508C11.363 6.58208 10.02 6.75008 10.012 6.75008C10 6.75008 9.996 6.88308 9.996 7.37508V8.00408H6V7.78008C6 7.52608 5.984 7.40108 5.93 7.26508C5.8826 7.14494 5.81074 7.03597 5.719 6.94508C5.62812 6.84652 5.5178 6.76786 5.395 6.71408C5.285 6.66708 5.203 6.65108 4.965 6.62008C4.855 6.60808 3.813 6.47608 2.648 6.33108C1.016 6.12908 0.516 6.07008 0.453 6.07408C0.34577 6.08578 0.245104 6.13151 0.165746 6.20457C0.0863887 6.27763 0.0325095 6.37418 0.012 6.48008C-0.004 6.56608 -0.004 11.4341 0.012 11.5201C0.055 11.7381 0.242 11.9101 0.453 11.9261C0.516 11.9301 0.945 11.8791 2.316 11.7111C3.293 11.5861 4.316 11.4571 4.59 11.4261C4.86 11.3951 5.125 11.3591 5.18 11.3481C5.38659 11.3112 5.57567 11.2084 5.719 11.0551C5.81038 10.9641 5.88189 10.8551 5.929 10.7351C5.984 10.5981 6 10.4731 6 10.2191V9.99608H7.594L7.484 10.1411C7.25271 10.4398 7.05987 10.7663 6.91 11.1131C6.648 11.7271 6.531 12.3481 6.527 13.1371C6.527 13.6801 6.375 14.2661 6.113 14.7231C6.03873 14.857 5.95379 14.9848 5.859 15.1051C5.83272 15.0804 5.80925 15.0529 5.789 15.0231C5.65712 14.849 5.4698 14.7252 5.258 14.6721C5.207 14.6561 4.266 14.5351 2.871 14.3591C0.31 14.0401 0.43 14.0511 0.285 14.1211C0.216876 14.1557 0.157142 14.2047 0.109983 14.2649C0.062824 14.325 0.0293819 14.3947 0.012 14.4691C-0.004 14.5511 -0.008 19.4291 0.012 19.5231C0.051 19.7271 0.215 19.8871 0.422 19.9221C0.492 19.9341 0.641 19.9181 2.855 19.6411C5.004 19.3711 5.219 19.3441 5.316 19.3131C5.633 19.2031 5.875 18.9451 5.969 18.6131C5.989 18.5271 5.992 18.4881 5.996 18.0981L6.004 17.6721L6.078 17.6171C6.887 17.0471 7.484 16.3631 7.895 15.5511C8.18991 14.9482 8.37385 14.2971 8.438 13.6291C8.445 13.5631 8.457 13.3321 8.461 13.1171C8.473 12.6911 8.488 12.5431 8.551 12.3091C8.715 11.6641 9.137 11.1211 9.836 10.6491L9.992 10.5471V10.8981C9.996 11.0901 10 11.2501 10.004 11.2501C10.016 11.2501 15.922 11.9881 15.957 11.9921L15.997 12.0001V9.00008C15.997 6.60508 15.992 6.00008 15.98 6.00008C15.973 6.00408 14.629 6.16808 12.996 6.37508ZM3.055 8.39508L4.004 8.51208V9.48408L3.008 9.61408C2.457 9.68008 2.008 9.73408 2 9.73008C1.9883 9.24348 1.9883 8.75667 2 8.27008C2.004 8.26608 2.027 8.26608 2.055 8.27008C2.082 8.27308 2.531 8.32808 3.055 8.39508ZM14.004 9.00008C14.004 9.39808 14 9.72708 14 9.72708C13.996 9.73008 13.547 9.68008 13 9.60908L12.008 9.48408V8.51208L12.996 8.39108C13.543 8.32108 13.988 8.26608 13.996 8.27008C14 8.27308 14.004 8.60208 14.004 9.00008ZM3.008 16.3871L3.996 16.5161C4.004 16.5231 4.008 16.6991 4.008 17.0041V17.4841L3.98 17.4881C3.934 17.5001 2.059 17.7301 2.023 17.7301H1.993V16.9961C1.993 16.3091 1.993 16.2661 2.012 16.2661C2.023 16.2661 2.472 16.3211 3.008 16.3871ZM19.59 16.0311C19.321 16.0563 19.0604 16.1385 18.8255 16.2721C18.5906 16.4057 18.3868 16.5877 18.2276 16.806C18.0683 17.0243 17.9573 17.274 17.9019 17.5385C17.8465 17.803 17.8479 18.0762 17.906 18.3401C17.941 18.4961 17.984 18.6131 18.066 18.7771C18.207 19.0621 18.191 19.0471 19.379 20.2341C19.969 20.8321 20.496 21.3521 20.543 21.3911C20.793 21.6011 21.07 21.7381 21.398 21.8091C21.558 21.8441 21.875 21.8521 22.051 21.8291C22.4418 21.7723 22.8054 21.5955 23.0914 21.3233C23.3775 21.051 23.572 20.6966 23.648 20.3091C23.672 20.2031 23.676 20.1491 23.676 19.9371C23.676 19.7271 23.672 19.6761 23.648 19.5701C23.5912 19.2762 23.4643 19.0004 23.278 18.7661C23.238 18.7151 22.699 18.1681 22.082 17.5551C21.032 16.5081 20.949 16.4251 20.832 16.3481C20.4661 16.1042 20.028 15.9923 19.59 16.0311Z" fill="currentColor"/>
</g>
<defs>
<clipPath id="clip0_3416_7883">
<rect width="24" height="24" fill="white"/>
</clipPath>
</defs>
</svg>
