<svg width="24" height="24" viewBox="0 0 24 24" fill="none" xmlns="http://www.w3.org/2000/svg">
<g clip-path="url(#clip0_2538_27878)">
<path d="M19.871 0.421951C19.682 0.447922 19.5042 0.52702 19.3583 0.650051C19.2124 0.773082 19.1045 0.93499 19.047 1.11695C19.004 1.25395 18.997 1.39795 18.997 2.21495V2.99995L17.305 3.00395C15.485 3.00795 15.555 3.00395 15.172 3.06995C14.1027 3.25001 13.1208 3.77252 12.3742 4.55886C11.6275 5.34519 11.1565 6.35278 11.032 7.42995C11.012 7.56295 11.012 7.75795 11.008 9.28995L11.004 11.004L5.832 10.996L5.785 10.886C5.62648 10.4886 5.38484 10.1298 5.07629 9.83348C4.76775 9.53718 4.39942 9.31026 3.996 9.16795C3.32786 8.93655 2.59984 8.9461 1.938 9.19495C1.49804 9.36454 1.1024 9.63195 0.781 9.97695C0.371 10.441 0.125 10.953 0.031 11.559C-0.00409055 11.8519 -0.00409055 12.148 0.031 12.441C0.0923472 12.8524 0.238737 13.2466 0.460839 13.5983C0.682941 13.9501 0.975884 14.2517 1.321 14.484C1.69194 14.7355 2.1146 14.9007 2.55783 14.9672C3.00107 15.0337 3.45358 15 3.88204 14.8684C4.3105 14.7369 4.70398 14.5109 5.0335 14.207C5.36301 13.9032 5.62016 13.5293 5.786 13.113L5.831 13H8.417L11.003 12.996L11.007 14.711C11.011 16.562 11.007 16.465 11.073 16.8549C11.132 17.1989 11.253 17.613 11.39 17.937C11.7201 18.7188 12.2435 19.404 12.911 19.9282C13.5784 20.4525 14.3682 20.7985 15.206 20.934C15.561 20.992 15.522 20.992 17.311 20.996L18.995 21V21.785C18.995 22.5979 19.003 22.746 19.042 22.8829C19.147 23.219 19.425 23.4729 19.788 23.563C19.901 23.59 20.112 23.59 20.226 23.563C20.339 23.535 20.506 23.4529 20.596 23.3869C20.71 23.3009 23.366 20.629 23.417 20.551C23.627 20.227 23.636 19.821 23.44 19.481C23.39 19.398 23.26 19.266 21.995 18C20.456 16.4599 20.55 16.5429 20.308 16.465C20.2267 16.4351 20.1406 16.4205 20.054 16.422C19.8137 16.4027 19.575 16.4752 19.386 16.625C19.207 16.7608 19.08 16.9538 19.026 17.172C19.003 17.266 19.003 17.2889 18.999 18.132L18.995 18.996L15.651 18.988L15.487 18.957C14.8718 18.8499 14.3055 18.5535 13.867 18.1089C13.6399 17.8795 13.4521 17.6143 13.311 17.3239C13.163 17.024 13.085 16.774 13.026 16.434C13.003 16.274 13.003 16.266 12.999 14.633L12.995 12.996H18.995L18.999 13.867C19.003 14.817 19.003 14.781 19.073 14.961C19.1451 15.1376 19.2663 15.29 19.4223 15.4C19.5782 15.5101 19.7623 15.5732 19.953 15.582C20.1456 15.5947 20.3375 15.5483 20.503 15.449C20.585 15.402 20.713 15.277 21.968 14.023C22.4504 13.547 22.9271 13.0653 23.398 12.578C23.518 12.4084 23.5825 12.2057 23.5825 11.998C23.5825 11.7902 23.518 11.5875 23.398 11.418C23.366 11.383 22.722 10.73 21.964 9.97295C20.924 8.93695 20.565 8.58595 20.514 8.55495C20.3754 8.47287 20.2189 8.42584 20.058 8.41795C19.8495 8.40565 19.6424 8.45893 19.4658 8.5703C19.2891 8.68167 19.1518 8.84555 19.073 9.03895C19.003 9.21495 19.003 9.18395 18.999 10.133L18.995 11.003H12.995L13 9.36795C13.004 7.73495 13.004 7.72795 13.027 7.56795C13.117 6.97393 13.3817 6.4201 13.7873 5.9769C14.193 5.53369 14.7213 5.22113 15.305 5.07895C15.613 5.00895 15.504 5.01295 17.328 5.00895L18.996 5.00495L19 5.86795C19.004 6.70795 19.004 6.73495 19.027 6.82895C19.09 7.05895 19.207 7.23895 19.387 7.37595C19.5768 7.52401 19.8149 7.59635 20.055 7.57895C20.1416 7.58036 20.2277 7.56578 20.309 7.53595C20.551 7.45795 20.457 7.53995 21.996 6.00095C23.262 4.73495 23.391 4.60295 23.441 4.51695C23.605 4.23895 23.629 3.88695 23.504 3.60295C23.426 3.43095 23.437 3.44595 22.027 2.03295C21.277 1.28295 20.633 0.641951 20.597 0.613951C20.488 0.536532 20.3666 0.478357 20.238 0.441951C20.1175 0.416074 19.9936 0.409325 19.871 0.421951Z" fill="currentColor"/>
</g>
<defs>
<clipPath id="clip0_2538_27878">
<rect width="24" height="24" fill="white"/>
</clipPath>
</defs>
</svg>
