<svg width="24" height="24" viewBox="0 0 24 24" fill="none" xmlns="http://www.w3.org/2000/svg">
<path d="M2.727 9.01191C2.23104 9.05845 1.75443 9.22752 1.34 9.50391C0.989118 9.73474 0.691013 10.0372 0.465246 10.3913C0.239479 10.7455 0.0911523 11.1434 0.03 11.5589C-0.00509055 11.8519 -0.00509055 12.148 0.03 12.4409C0.0913472 12.8524 0.237737 13.2465 0.459839 13.5983C0.681941 13.95 0.974884 14.2516 1.32 14.4839C1.69845 14.7392 2.13003 14.905 2.58206 14.9688C3.03409 15.0325 3.49471 14.9926 3.929 14.8519C4.929 14.5319 5.694 13.6919 5.925 12.6679C5.975 12.4299 5.991 12.2809 5.991 11.9999C5.991 11.7189 5.976 11.5699 5.925 11.3319C5.698 10.3319 4.964 9.50791 3.995 9.16791C3.69359 9.06295 3.37715 9.00756 3.058 9.00391C2.933 9.00391 2.785 9.00391 2.727 9.01191ZM11.727 9.01191C11.231 9.05845 10.7544 9.22752 10.34 9.50391C9.9893 9.73484 9.69139 10.0373 9.4658 10.3915C9.24021 10.7456 9.09204 11.1435 9.031 11.5589C9.011 11.6949 9.008 11.7729 9.008 11.9999C9.008 12.2269 9.012 12.3049 9.031 12.4409C9.09235 12.8524 9.23874 13.2465 9.46084 13.5983C9.68294 13.95 9.97588 14.2516 10.321 14.4839C10.6994 14.7392 11.131 14.905 11.5831 14.9688C12.0351 15.0325 12.4957 14.9926 12.93 14.8519C13.93 14.5319 14.695 13.6919 14.926 12.6679C14.976 12.4299 14.992 12.2809 14.992 11.9999C14.992 11.7189 14.977 11.5699 14.926 11.3319C14.699 10.3319 13.965 9.50791 12.996 9.16791C12.6946 9.06295 12.3781 9.00756 12.059 9.00391C11.934 9.00391 11.785 9.00391 11.727 9.01191ZM20.727 9.01191C20.231 9.05845 19.7544 9.22752 19.34 9.50391C18.9893 9.73484 18.6914 10.0373 18.4658 10.3915C18.2402 10.7456 18.092 11.1435 18.031 11.5589C18.011 11.6949 18.008 11.7729 18.008 11.9999C18.008 12.2269 18.012 12.3049 18.031 12.4409C18.0923 12.8524 18.2387 13.2465 18.4608 13.5983C18.6829 13.95 18.9759 14.2516 19.321 14.4839C19.6994 14.7392 20.131 14.905 20.5831 14.9688C21.0351 15.0325 21.4957 14.9926 21.93 14.8519C22.93 14.5319 23.695 13.6919 23.926 12.6679C23.976 12.4299 23.992 12.2809 23.992 11.9999C23.992 11.7189 23.977 11.5699 23.926 11.3319C23.699 10.3319 22.965 9.50791 21.996 9.16791C21.6946 9.06295 21.3781 9.00756 21.059 9.00391C20.934 9.00391 20.785 9.00391 20.727 9.01191Z" fill="currentColor"/>
</svg>
