<svg width="24" height="24" viewBox="0 0 24 24" fill="none" xmlns="http://www.w3.org/2000/svg">
<path d="M11.727 0.0119062C11.231 0.0584502 10.7544 0.227517 10.34 0.503906C9.98912 0.734739 9.69101 1.03716 9.46525 1.39132C9.23948 1.74548 9.09115 2.14338 9.03 2.55891C9.01 2.69491 9.007 2.77291 9.007 2.99991C9.007 3.22691 9.011 3.30491 9.03 3.44091C9.09135 3.85236 9.23774 4.24652 9.45984 4.59826C9.68194 4.95001 9.97488 5.25163 10.32 5.48391C10.6984 5.7392 11.13 5.90501 11.5821 5.96877C12.0341 6.03253 12.4947 5.99256 12.929 5.85191C13.929 5.53191 14.694 4.69191 14.925 3.66791C14.975 3.42991 14.991 3.28091 14.991 2.99991C14.991 2.71891 14.976 2.56991 14.925 2.33191C14.698 1.33191 13.964 0.507906 12.995 0.167906C12.6936 0.0629455 12.3771 0.00755987 12.058 0.00390625C11.933 0.00390625 11.784 0.00390625 11.726 0.0119062H11.727ZM11.727 9.01191C11.231 9.05845 10.7544 9.22752 10.34 9.50391C9.9893 9.73484 9.69139 10.0373 9.4658 10.3915C9.24021 10.7456 9.09204 11.1435 9.031 11.5589C9.011 11.6949 9.008 11.7729 9.008 11.9999C9.008 12.2269 9.012 12.3049 9.031 12.4409C9.09235 12.8524 9.23874 13.2465 9.46084 13.5983C9.68294 13.95 9.97588 14.2516 10.321 14.4839C10.6994 14.7392 11.131 14.905 11.5831 14.9688C12.0351 15.0325 12.4957 14.9926 12.93 14.8519C13.93 14.5319 14.695 13.6919 14.926 12.6679C14.976 12.4299 14.992 12.2809 14.992 11.9999C14.992 11.7189 14.977 11.5699 14.926 11.3319C14.699 10.3319 13.965 9.50791 12.996 9.16791C12.6946 9.06295 12.3781 9.00756 12.059 9.00391C11.934 9.00391 11.785 9.00391 11.727 9.01191ZM11.727 18.0119C11.231 18.0584 10.7544 18.2275 10.34 18.5039C9.9893 18.7348 9.69139 19.0373 9.4658 19.3915C9.24021 19.7456 9.09204 20.1435 9.031 20.5589C9.011 20.6949 9.008 20.7729 9.008 20.9999C9.008 21.2269 9.012 21.3049 9.031 21.4409C9.09235 21.8524 9.23874 22.2465 9.46084 22.5983C9.68294 22.95 9.97588 23.2516 10.321 23.4839C10.6994 23.7392 11.131 23.905 11.5831 23.9688C12.0351 24.0325 12.4957 23.9926 12.93 23.8519C13.93 23.5319 14.695 22.6919 14.926 21.6679C14.976 21.4299 14.992 21.2809 14.992 20.9999C14.992 20.7189 14.977 20.5699 14.926 20.3319C14.699 19.3319 13.965 18.5079 12.996 18.1679C12.6946 18.0629 12.3781 18.0076 12.059 18.0039C11.934 18.0039 11.785 18.0039 11.727 18.0119Z" fill="currentColor"/>
</svg>
