<svg width="24" height="24" viewBox="0 0 24 24" fill="none" xmlns="http://www.w3.org/2000/svg">
<path d="M18.91 0.417934C18.8142 0.431561 18.72 0.455018 18.629 0.487934C18.5038 0.538912 18.3899 0.614209 18.2939 0.709472C18.198 0.804735 18.1219 0.918073 18.07 1.04293C18 1.22993 18 1.21093 18 2.66793V3.99593H17.54C16.824 3.99593 16.523 4.01593 16.152 4.08593C15.4931 4.20535 14.8651 4.45641 14.3055 4.82411C13.7459 5.1918 13.2661 5.66858 12.895 6.22593C12.675 6.55493 12.652 6.60893 11.871 8.28893C11.535 9.01593 11.254 9.60893 11.25 9.60893C11.246 9.60893 10.965 9.01593 10.629 8.28893C9.852 6.60893 9.824 6.55893 9.605 6.22693C9.21635 5.64508 8.71004 5.15116 8.11873 4.77705C7.52742 4.40293 6.86424 4.15694 6.172 4.05493C5.809 3.99993 5.84 3.99993 3.293 3.99993H0.875L0.77 4.02693C0.601867 4.06656 0.446996 4.14941 0.320714 4.26727C0.194432 4.38513 0.101116 4.53393 0.05 4.69893C-0.00306885 4.85089 -0.0134452 5.01449 0.02 5.17193C0.0518992 5.36667 0.143035 5.54685 0.281 5.68793C0.407983 5.8234 0.570503 5.92043 0.75 5.96793L0.84 5.99193L3.293 5.99993C5.961 6.00793 5.785 6.00393 6.102 6.06993C6.414 6.13693 6.832 6.31593 7.109 6.49993C7.531 6.78493 7.899 7.19993 8.117 7.63293C8.145 7.68693 8.609 8.68693 9.157 9.86293L10.147 11.9999L9.151 14.1479C8.601 15.3279 8.124 16.3519 8.089 16.4179C7.859 16.8549 7.472 17.2699 7.034 17.5469C6.714 17.7469 6.304 17.8979 5.936 17.9569C5.87 17.9689 5.804 17.9799 5.788 17.9839C5.772 17.9879 4.651 17.9959 3.3 17.9999L0.839 18.0039L0.749 18.0309C0.569275 18.079 0.406731 18.1767 0.28 18.3129C0.14241 18.4523 0.0512504 18.6308 0.019 18.8239C-0.075 19.3479 0.241 19.8319 0.765 19.9729L0.862 19.9959L3.105 19.9999C5.359 20.0039 5.727 19.9999 6.035 19.9649C6.85868 19.8669 7.64497 19.5652 8.32289 19.0872C9.00081 18.6092 9.54901 17.9698 9.918 17.2269C9.973 17.1209 10.293 16.4369 10.628 15.7109C10.965 14.9839 11.246 14.3909 11.25 14.3909C11.254 14.3909 11.535 14.9839 11.871 15.7109C12.652 17.3909 12.676 17.4409 12.895 17.7699C13.5822 18.8005 14.6273 19.5395 15.828 19.8439C16.332 19.9689 16.684 20.0039 17.539 20.0039H18V21.3319C18 22.7729 18 22.7699 18.066 22.9419C18.156 23.1869 18.359 23.3979 18.609 23.4999C18.75 23.5629 18.863 23.5819 19.019 23.5819C19.227 23.5819 19.387 23.5319 19.563 23.4139C19.613 23.3789 20.23 22.7699 21.512 21.4879C23.227 19.7699 23.391 19.6019 23.442 19.5159C23.605 19.2339 23.629 18.8859 23.504 18.6019C23.426 18.4299 23.464 18.4689 21.516 16.5199C19.504 14.5039 19.563 14.5589 19.363 14.4799C19.2315 14.4305 19.0912 14.409 18.9509 14.4168C18.8107 14.4245 18.6735 14.4613 18.5483 14.5249C18.423 14.5885 18.3123 14.6774 18.2233 14.786C18.1342 14.8947 18.0688 15.0206 18.031 15.1559L18.008 15.2499L18 18.0039L17.375 17.9959C16.855 17.9919 16.73 17.9879 16.625 17.9689C16.4218 17.9364 16.2217 17.8865 16.027 17.8199C15.8086 17.7359 15.5992 17.6301 15.402 17.5039C14.977 17.2189 14.602 16.8039 14.382 16.3639C14.355 16.3119 13.891 15.3089 13.344 14.1369L12.352 11.9999L13.344 9.86293C13.891 8.68793 14.352 7.69093 14.375 7.64493C14.515 7.36293 14.695 7.12093 14.941 6.87893C15.207 6.61293 15.406 6.46893 15.734 6.30893C15.954 6.20293 16.094 6.14893 16.32 6.09393C16.645 6.01193 16.684 6.00793 17.375 6.00393L18 5.99593L18.008 8.74593L18.031 8.83993C18.0669 8.97328 18.1298 9.09779 18.216 9.20569C18.3021 9.31359 18.4096 9.40256 18.5317 9.46704C18.6538 9.53152 18.7879 9.57011 18.9256 9.58042C19.0633 9.59072 19.2017 9.57252 19.332 9.52693C19.547 9.45293 19.437 9.55493 21.465 7.53093C22.1095 6.89278 22.7489 6.24943 23.383 5.60093C23.625 5.28493 23.648 4.83993 23.441 4.48093C23.391 4.39793 23.227 4.23093 21.511 2.51093C20.231 1.23093 19.613 0.620934 19.563 0.585934C19.4674 0.521854 19.3615 0.474512 19.25 0.445934C19.1386 0.420039 19.0241 0.410605 18.91 0.417934Z" fill="currentColor"/>
</svg>
