<svg width="24" height="24" viewBox="0 0 24 24" fill="none" xmlns="http://www.w3.org/2000/svg">
<path d="M4.848 0.0120587C4.707 0.0350587 4.55 0.0980587 4.43 0.180059C4.355 0.227059 0.254 4.32406 0.195 4.41006C0.0782803 4.57027 0.0115417 4.76141 0.00317885 4.95945C-0.00518403 5.15749 0.0452023 5.35358 0.148 5.52306C0.207 5.61706 0.348 5.76606 0.445 5.82806C0.615237 5.94195 0.81634 6.00081 1.02112 5.9967C1.2259 5.99258 1.42447 5.92569 1.59 5.80506C1.676 5.74606 5.773 1.64506 5.82 1.57006C5.902 1.44506 5.965 1.29006 5.988 1.14806C6.02104 0.904227 5.9657 0.656623 5.832 0.450059C5.74815 0.332053 5.64343 0.23038 5.523 0.150059C5.32015 0.0288982 5.08203 -0.0194305 4.848 0.0130587V0.0120587ZM10.848 0.0120587C10.6988 0.0395667 10.5567 0.0966918 10.43 0.180059C10.355 0.227059 0.258 10.3241 0.195 10.4101C0.0782803 10.5703 0.0115417 10.7614 0.00317885 10.9595C-0.00518403 11.1575 0.0452023 11.3536 0.148 11.5231C0.207 11.6171 0.348 11.7661 0.445 11.8281C0.785 12.0551 1.223 12.0551 1.57 11.8201C1.645 11.7731 11.742 1.67606 11.809 1.58606C11.9279 1.42131 11.9938 1.22426 11.9979 1.02115C12.002 0.81803 11.9441 0.618479 11.832 0.449059C11.7482 0.331053 11.6434 0.22938 11.523 0.149059C11.3202 0.0278982 11.082 -0.0204305 10.848 0.0120587ZM16.848 0.0120587C16.6988 0.0395667 16.5567 0.0966918 16.43 0.180059C16.355 0.227059 0.258 16.3241 0.195 16.4101C0.0782803 16.5703 0.0115417 16.7614 0.00317885 16.9595C-0.00518403 17.1575 0.0452023 17.3536 0.148 17.5231C0.207 17.6171 0.348 17.7661 0.445 17.8281C0.785 18.0551 1.223 18.0551 1.57 17.8201C1.645 17.7731 17.742 1.67606 17.809 1.58606C17.9279 1.42131 17.9938 1.22426 17.9979 1.02115C18.002 0.81803 17.9441 0.618479 17.832 0.449059C17.7482 0.331053 17.6434 0.22938 17.523 0.149059C17.3202 0.0278982 17.082 -0.0204305 16.848 0.0120587ZM22.848 0.0120587C22.6988 0.0395667 22.5567 0.0966918 22.43 0.180059C22.355 0.227059 0.258 22.3241 0.195 22.4101C0.0782803 22.5703 0.0115417 22.7614 0.00317885 22.9595C-0.00518403 23.1575 0.0452023 23.3536 0.148 23.5231C0.207 23.6171 0.348 23.7661 0.445 23.8281C0.785 24.0551 1.223 24.0551 1.57 23.8201C1.645 23.7731 23.742 1.67606 23.809 1.58606C23.9279 1.42131 23.9938 1.22426 23.9979 1.02115C24.002 0.81803 23.9441 0.618479 23.832 0.449059C23.7482 0.331053 23.6434 0.22938 23.523 0.149059C23.3202 0.0278982 23.082 -0.0204305 22.848 0.0120587ZM22.848 6.01206C22.6988 6.03957 22.5567 6.09669 22.43 6.18006C22.355 6.22706 6.258 22.3241 6.195 22.4101C6.07828 22.5703 6.01154 22.7614 6.00318 22.9595C5.99482 23.1575 6.0452 23.3536 6.148 23.5231C6.207 23.6171 6.348 23.7661 6.445 23.8281C6.785 24.0551 7.223 24.0551 7.57 23.8201C7.645 23.7731 23.742 7.67606 23.809 7.58606C23.9279 7.42131 23.9938 7.22426 23.9979 7.02115C24.002 6.81803 23.9441 6.61848 23.832 6.44906C23.7482 6.33105 23.6434 6.22938 23.523 6.14906C23.3202 6.0279 23.082 5.97957 22.848 6.01206ZM22.848 12.0121C22.6988 12.0396 22.5567 12.0967 22.43 12.1801C22.355 12.2271 12.258 22.3241 12.195 22.4101C12.0783 22.5703 12.0115 22.7614 12.0032 22.9595C11.9948 23.1575 12.0452 23.3536 12.148 23.5231C12.207 23.6171 12.348 23.7661 12.445 23.8281C12.785 24.0551 13.223 24.0551 13.57 23.8201C13.645 23.7731 23.742 13.6761 23.809 13.5861C23.9279 13.4213 23.9938 13.2243 23.9979 13.0211C24.002 12.818 23.9441 12.6185 23.832 12.4491C23.7482 12.3311 23.6434 12.2294 23.523 12.1491C23.3202 12.0279 23.082 11.9796 22.848 12.0121ZM22.848 18.0121C22.707 18.0351 22.551 18.0981 22.43 18.1801C22.355 18.2271 18.254 22.3241 18.195 22.4101C18.0783 22.5703 18.0115 22.7614 18.0032 22.9595C17.9948 23.1575 18.0452 23.3536 18.148 23.5231C18.207 23.6171 18.348 23.7661 18.445 23.8281C18.6149 23.9429 18.8161 24.0024 19.0212 23.9983C19.2262 23.9941 19.4249 23.9266 19.59 23.8051C19.676 23.7461 23.773 19.6451 23.82 19.5701C23.902 19.4451 23.965 19.2901 23.988 19.1481C24.0213 18.9039 23.9659 18.6559 23.832 18.4491C23.7482 18.3311 23.6434 18.2294 23.523 18.1491C23.3202 18.0279 23.082 17.9796 22.848 18.0121Z" fill="currentColor"/>
</svg>
