<svg width="24" height="24" viewBox="0 0 24 24" fill="none" xmlns="http://www.w3.org/2000/svg">
<path d="M10.848 0.0120587C10.707 0.0350587 10.551 0.0980587 10.43 0.180059C10.355 0.227059 6.254 4.32406 6.195 4.41006C6.07828 4.57027 6.01154 4.76141 6.00318 4.95945C5.99482 5.15749 6.0452 5.35358 6.148 5.52306C6.207 5.61706 6.348 5.76606 6.445 5.82806C6.61524 5.94195 6.81634 6.00081 7.02112 5.9967C7.2259 5.99258 7.42447 5.92569 7.59 5.80506C7.676 5.74606 11.773 1.64506 11.82 1.57006C11.902 1.44506 11.965 1.29006 11.988 1.14806C12.0213 0.903899 11.9659 0.655896 11.832 0.449059C11.7482 0.331053 11.6434 0.22938 11.523 0.149059C11.3202 0.0278982 11.082 -0.0204305 10.848 0.0120587ZM16.848 0.0120587C16.6988 0.0395667 16.5567 0.0966918 16.43 0.180059C16.355 0.227059 6.258 10.3241 6.195 10.4101C6.07828 10.5703 6.01154 10.7614 6.00318 10.9595C5.99482 11.1575 6.0452 11.3536 6.148 11.5231C6.207 11.6171 6.348 11.7661 6.445 11.8281C6.785 12.0551 7.223 12.0551 7.57 11.8201C7.645 11.7731 17.742 1.67606 17.809 1.58606C17.9279 1.42131 17.9938 1.22426 17.9979 1.02115C18.002 0.81803 17.9441 0.618479 17.832 0.449059C17.7482 0.331053 17.6434 0.22938 17.523 0.149059C17.3202 0.0278982 17.082 -0.0204305 16.848 0.0120587ZM16.848 6.01206C16.6988 6.03957 16.5567 6.09669 16.43 6.18006C16.355 6.22706 6.258 16.3241 6.195 16.4101C6.07828 16.5703 6.01154 16.7614 6.00318 16.9595C5.99482 17.1575 6.0452 17.3536 6.148 17.5231C6.207 17.6171 6.348 17.7661 6.445 17.8281C6.785 18.0551 7.223 18.0551 7.57 17.8201C7.645 17.7731 17.742 7.67606 17.809 7.58606C17.9279 7.42131 17.9938 7.22426 17.9979 7.02115C18.002 6.81803 17.9441 6.61848 17.832 6.44906C17.7482 6.33105 17.6434 6.22938 17.523 6.14906C17.3202 6.0279 17.082 5.97957 16.848 6.01206ZM16.848 12.0121C16.6988 12.0396 16.5567 12.0967 16.43 12.1801C16.355 12.2271 6.258 22.3241 6.195 22.4101C6.07828 22.5703 6.01154 22.7614 6.00318 22.9595C5.99482 23.1575 6.0452 23.3536 6.148 23.5231C6.207 23.6171 6.348 23.7661 6.445 23.8281C6.785 24.0551 7.223 24.0551 7.57 23.8201C7.645 23.7731 17.742 13.6761 17.809 13.5861C17.9279 13.4213 17.9938 13.2243 17.9979 13.0211C18.002 12.818 17.9441 12.6185 17.832 12.4491C17.7482 12.3311 17.6434 12.2294 17.523 12.1491C17.3202 12.0279 17.082 11.9796 16.848 12.0121ZM16.848 18.0121C16.707 18.0351 16.551 18.0981 16.43 18.1801C16.355 18.2271 12.254 22.3241 12.195 22.4101C12.0783 22.5703 12.0115 22.7614 12.0032 22.9595C11.9948 23.1575 12.0452 23.3536 12.148 23.5231C12.207 23.6171 12.348 23.7661 12.445 23.8281C12.6149 23.9429 12.8161 24.0024 13.0211 23.9983C13.2262 23.9941 13.4249 23.9266 13.59 23.8051C13.676 23.7461 17.773 19.6451 17.82 19.5701C17.902 19.4451 17.965 19.2901 17.988 19.1481C18.0213 18.9039 17.9659 18.6559 17.832 18.4491C17.7482 18.3311 17.6434 18.2294 17.523 18.1491C17.3202 18.0279 17.082 17.9796 16.848 18.0121Z" fill="currentColor"/>
</svg>
