<svg width="24" height="24" viewBox="0 0 24 24" fill="none" xmlns="http://www.w3.org/2000/svg">
<path d="M12.79 0.0120681C12.348 0.0620681 11.953 0.242068 11.629 0.543068C11.3274 0.830877 11.1214 1.20439 11.039 1.61307C11 1.79707 10.996 2.08607 11.023 2.27707C11.0789 2.6904 11.2632 3.07574 11.5499 3.37863C11.8367 3.68153 12.2113 3.88666 12.621 3.96507C12.738 3.98807 12.793 3.98807 13.004 3.98807C13.274 3.98807 13.41 3.96807 13.621 3.90207C13.77 3.85207 14.035 3.71907 14.161 3.62907C14.5276 3.36762 14.7952 2.99006 14.9204 2.55756C15.0456 2.12505 15.0212 1.66294 14.851 1.24607C14.7232 0.928628 14.5156 0.649593 14.2482 0.436017C13.9808 0.222441 13.6628 0.0815719 13.325 0.0270681C13.1476 0.00458275 12.9684 -0.000441318 12.79 0.0120681ZM8.41 1.00407C8.02 1.03907 7.703 1.18007 7.445 1.43407C7.30247 1.5738 7.18987 1.74108 7.11406 1.92572C7.03824 2.11036 7.0008 2.3085 7.004 2.50807C7.00386 2.86277 7.1306 3.20582 7.36131 3.47523C7.59203 3.74465 7.9115 3.92265 8.262 3.97707C8.406 4.00407 8.672 3.99707 8.812 3.96507C9.09507 3.90409 9.35467 3.76311 9.55995 3.5589C9.76523 3.35468 9.90755 3.09581 9.97 2.81307C9.997 2.67207 10.005 2.40607 9.981 2.26207C9.93678 1.98936 9.81815 1.73414 9.63818 1.52453C9.45821 1.31491 9.22388 1.15904 8.961 1.07407C8.7827 1.02094 8.59692 0.997291 8.411 1.00407H8.41ZM7.79 5.02307C7.562 5.07007 7.34 5.21507 7.195 5.40607C7.12182 5.51385 7.06644 5.6327 7.031 5.75807C6.99593 5.91615 6.99593 6.07999 7.031 6.23807C7.06312 6.35706 7.11337 6.47038 7.18 6.57407C7.285 6.71907 7.457 6.85507 7.617 6.92207C7.785 6.99207 7.828 6.99607 8.445 6.99607H9L8.996 8.59407C8.992 10.3521 8.996 10.2501 8.918 10.6441C8.81525 11.1414 8.61912 11.6148 8.34 12.0391C8.281 12.1331 7.574 13.0591 6.773 14.0981C3.359 18.5391 2.813 19.2541 2.746 19.3521C2.51003 19.7085 2.3516 20.1105 2.281 20.5321C2.246 20.7301 2.246 21.2031 2.277 21.4101C2.414 22.2701 2.879 23.0201 3.562 23.4841C3.722 23.5901 3.77 23.6171 3.93 23.6991C4.246 23.8551 4.605 23.9531 4.98 23.9891C5.086 23.9961 7.016 24.0001 12.094 23.9961C18.598 23.9921 19.07 23.9921 19.18 23.9731C19.863 23.8591 20.398 23.5931 20.86 23.1331C21.7 22.2931 21.977 21.0231 21.559 19.9381C21.4754 19.7339 21.3733 19.5377 21.254 19.3521C21.199 19.2771 20.598 18.4841 19.918 17.5981C19.234 16.7071 18.02 15.1331 17.223 14.0941C16.6947 13.4109 16.1724 12.7232 15.656 12.0311C15.287 11.4662 15.0656 10.8177 15.012 10.1451C15.004 10.0551 15 9.39507 15 8.49607V6.99607H15.559C16.172 6.99607 16.215 6.99207 16.379 6.92207C16.672 6.80107 16.887 6.55107 16.969 6.23807C17.0041 6.07999 17.0041 5.91615 16.969 5.75807C16.9306 5.60652 16.8572 5.46608 16.7548 5.348C16.6523 5.22991 16.5236 5.13747 16.379 5.07807C16.191 4.99607 16.543 5.00407 11.992 5.00407C8.379 5.00807 7.859 5.00807 7.789 5.02407L7.79 5.02307ZM12.996 8.43307C12.996 9.85907 13.004 10.1951 13.039 10.5001C13.133 11.3481 13.406 12.1681 13.836 12.8951C14 13.1681 14.176 13.4061 15.152 14.6801L16.16 15.9881L14.078 15.9921C12.6927 15.996 11.3073 15.996 9.922 15.9921L7.84 15.9881L8.848 14.6801C9.22816 14.189 9.60318 13.694 9.973 13.1951C10.5146 12.3891 10.8548 11.4649 10.965 10.5001C10.996 10.2001 11.004 9.85207 11.004 8.43007V6.99607H12.996V8.43307ZM15.219 18.0121C15.664 18.0621 16.055 18.2421 16.371 18.5471C16.566 18.7301 16.68 18.8831 16.793 19.1091C17.109 19.7421 17.059 20.5191 16.664 21.1091C16.5185 21.3284 16.3312 21.517 16.1127 21.6638C15.8943 21.8107 15.649 21.9131 15.391 21.9651C15.277 21.9881 15.231 21.9881 15 21.9881C14.766 21.9881 14.723 21.9881 14.61 21.9611C14.3517 21.9107 14.106 21.8095 13.8873 21.6632C13.6686 21.5169 13.4812 21.3285 13.336 21.1091C13.1223 20.7868 13.006 20.4097 13.0013 20.023C12.9965 19.6364 13.1033 19.2565 13.309 18.9291C13.4465 18.7214 13.6179 18.5381 13.816 18.3871C14.215 18.0941 14.723 17.9571 15.219 18.0121Z" fill="currentColor"/>
</svg>
