<svg width="24" height="24" viewBox="0 0 24 24" fill="none" xmlns="http://www.w3.org/2000/svg">
<g clip-path="url(#clip0_2668_7438)">
<path d="M11.566 0.00797164C9.79 0.0899716 8.246 0.472972 6.734 1.20997C5.00461 2.05066 3.5034 3.2959 2.35762 4.84015C1.21183 6.3844 0.45525 8.18214 0.152 10.081C0.043 10.766 0.008 11.266 0.008 12C-0.00160423 14.309 0.659119 16.5711 1.91 18.512C2.99648 20.1913 4.48385 21.5739 6.238 22.535C8.67623 23.8588 11.4958 24.303 14.223 23.793C15.7191 23.5167 17.1483 22.9559 18.433 22.141C19.5441 21.4331 20.5324 20.5488 21.359 19.523C22.831 17.6908 23.7305 15.4654 23.945 13.125C23.985 12.707 23.992 12.508 23.992 12C23.992 11.23 23.949 10.672 23.824 9.94997C23.298 6.87653 21.5939 4.12948 19.074 2.29297C17.6821 1.28183 16.0886 0.582617 14.402 0.242972C13.863 0.132972 13.406 0.0699717 12.832 0.0269716C12.4103 0.00683756 11.9881 0.000167492 11.566 0.00697164V0.00797164ZM12.828 2.03097C13.718 2.11297 14.426 2.25797 15.218 2.52297C16.8032 3.06126 18.2282 3.98815 19.363 5.21897C20.6421 6.60553 21.4999 8.3277 21.836 10.184C21.949 10.793 21.996 11.34 21.996 11.996C22.0029 14.1386 21.3194 16.2265 20.0467 17.9503C18.774 19.674 16.9798 20.9419 14.93 21.566C14.262 21.77 13.605 21.895 12.832 21.969C12.555 21.992 11.766 22.004 11.449 21.984C9.81562 21.8996 8.22847 21.4125 6.829 20.566C5.70928 19.8906 4.7323 19.003 3.953 17.953C3.05963 16.7457 2.45202 15.3513 2.176 13.875C2.109 13.535 2.059 13.152 2.023 12.75C2 12.465 2.003 11.469 2.031 11.18C2.18 9.52697 2.661 8.06997 3.504 6.70697C4.10381 5.7465 4.86185 4.89447 5.746 4.18697C7.38271 2.87723 9.39035 2.11623 11.484 2.01197C11.9321 2.00524 12.3803 2.01191 12.828 2.03197V2.03097Z" fill="currentColor"/>
<path d="M11.852 6.01197C11.6094 6.05104 11.3888 6.17553 11.23 6.36297C11.152 6.45697 11.07 6.60897 11.035 6.73397L11.012 6.82397V9.99597C11.012 13.062 11.012 13.168 11.032 13.246C11.129 13.606 11.402 13.875 11.762 13.969C11.891 14.004 12.109 14.004 12.242 13.969C12.355 13.938 12.512 13.867 12.594 13.805C12.765 13.6742 12.8918 13.4941 12.957 13.289L12.992 13.188V6.82397L12.965 6.73397C12.9081 6.5305 12.7883 6.35026 12.6227 6.21912C12.457 6.08797 12.2541 6.01265 12.043 6.00397C11.973 6.00397 11.887 6.00397 11.852 6.01197ZM11.879 16.008C11.73 16.023 11.559 16.09 11.426 16.18C11.2189 16.3312 11.0753 16.5539 11.023 16.805C10.996 16.934 11.003 17.148 11.039 17.273C11.117 17.539 11.309 17.77 11.559 17.895C11.6948 17.9658 11.847 17.9993 12 17.992C12.188 17.992 12.29 17.969 12.441 17.895C12.695 17.77 12.883 17.543 12.965 17.265C12.988 17.187 12.992 17.148 12.988 16.992C12.988 16.824 12.984 16.801 12.957 16.711C12.9097 16.5572 12.8268 16.4167 12.715 16.301C12.5519 16.1353 12.3362 16.0317 12.105 16.008C11.996 15.996 11.996 15.996 11.879 16.008Z" fill="currentColor"/>
</g>
<defs>
<clipPath id="clip0_2668_7438">
<rect width="24" height="24" fill="white"/>
</clipPath>
</defs>
</svg>
