<svg width="24" height="24" viewBox="0 0 24 24" fill="none" xmlns="http://www.w3.org/2000/svg">
<path d="M11.727 1.55904C11.2828 1.59835 10.8531 1.73703 10.4696 1.96482C10.0862 2.19261 9.75896 2.50369 9.512 2.87504C9.375 3.08204 0.523 18.582 0.442 18.754C0.313407 19.0395 0.226518 19.3419 0.184 19.652C0.164 19.816 0.168 20.215 0.191 20.382C0.280564 21.0439 0.58561 21.6579 1.059 22.129C1.543 22.613 2.149 22.902 2.844 22.984C3.031 23.004 20.969 23.004 21.16 22.984C21.64 22.9318 22.1002 22.7637 22.5008 22.4942C22.9015 22.2248 23.2306 21.8619 23.46 21.437C23.633 21.125 23.754 20.766 23.809 20.383C23.832 20.215 23.836 19.82 23.816 19.653C23.7634 19.2623 23.639 18.8846 23.449 18.539C23.207 18.102 14.539 2.94904 14.48 2.85904C14.3153 2.61867 14.1185 2.40199 13.895 2.21504C13.6426 2.01174 13.3589 1.85065 13.055 1.73804C12.631 1.58098 12.1775 1.51951 11.727 1.55804V1.55904ZM12.211 6.02304C12.3807 6.05953 12.538 6.13958 12.6674 6.2553C12.7968 6.37102 12.8939 6.51844 12.949 6.68304L12.992 6.80104V10.957C12.996 14.73 12.996 15.121 12.977 15.203C12.9379 15.393 12.8443 15.5674 12.7075 15.7049C12.5707 15.8424 12.3968 15.937 12.207 15.977C12.094 16 11.907 16 11.793 15.977C11.6038 15.9372 11.4303 15.8432 11.2936 15.7065C11.1569 15.5697 11.0629 15.3962 11.023 15.207C11.008 15.125 11.003 14.711 11.003 10.997C11.003 7.53104 11.008 6.85904 11.02 6.79704C11.07 6.55504 11.215 6.33204 11.41 6.19104C11.64 6.02704 11.93 5.96504 12.21 6.02304H12.211ZM12.211 18.023C12.418 18.066 12.641 18.203 12.773 18.367C12.8507 18.4603 12.9091 18.5681 12.945 18.684C12.985 18.789 12.988 18.82 12.992 18.957C13.0035 19.1211 12.9725 19.2854 12.902 19.434C12.8212 19.6042 12.6933 19.7477 12.5334 19.8473C12.3735 19.9469 12.1884 19.9985 12 19.996C11.8111 19.9987 11.6254 19.9467 11.4654 19.8462C11.3054 19.7458 11.1778 19.6013 11.098 19.43C11.0376 19.3115 11.0067 19.1801 11.008 19.047C10.9956 18.9116 11.0145 18.7751 11.063 18.648C11.23 18.191 11.723 17.922 12.211 18.023Z" fill="currentColor"/>
</svg>
