<svg width="24" height="24" viewBox="0 0 24 24" fill="none" xmlns="http://www.w3.org/2000/svg">
<path d="M11.613 2.50807C9.629 2.58207 7.523 3.22707 5.563 4.36307C4.023 5.25807 2.645 6.41807 1.648 7.66407C0.7 8.84807 0.152 10.0081 0.02 11.1021C0.00437364 11.3662 0.00437364 11.631 0.02 11.8951C0.094 12.5001 0.277 13.0821 0.598 13.7231C0.949 14.4261 1.418 15.0981 2.055 15.8201C2.246 16.0311 2.82 16.6101 3.051 16.8161C4.996 18.5551 7.418 19.7961 9.805 20.2731C10.895 20.4881 11.91 20.5471 12.957 20.4531C15.992 20.1801 19.227 18.5931 21.547 16.2431C22.747 15.0231 23.551 13.7341 23.859 12.5311C23.9503 12.195 23.9963 11.8483 23.996 11.5001C23.996 11.1371 23.965 10.8901 23.871 10.5121C23.457 8.82407 22.02 6.93007 19.992 5.39807C17.961 3.86307 15.605 2.86807 13.324 2.58607C13.0001 2.54496 12.6744 2.51893 12.348 2.50807C12.1031 2.49633 11.8579 2.49633 11.613 2.50807ZM12.5 5.52007C13.48 5.60207 14.453 5.93407 15.281 6.47707C16.074 6.99708 16.742 7.70708 17.215 8.53108C17.598 9.20708 17.855 9.98107 17.953 10.7581C18.1463 12.2958 17.7363 13.8487 16.809 15.0905C15.8817 16.3324 14.5093 17.1666 12.98 17.4181C12.61 17.4801 12.484 17.4881 12 17.4881C11.512 17.4881 11.395 17.4801 10.996 17.4141C9.91986 17.2311 8.91386 16.7586 8.086 16.0471C7.8621 15.8466 7.64944 15.634 7.449 15.4101C6.74302 14.5884 6.27302 13.5907 6.089 12.5231C5.82504 11.0067 6.15562 9.44698 7.012 8.16808C7.43852 7.53394 7.98023 6.98546 8.609 6.55107C9.5127 5.93336 10.5673 5.57285 11.66 5.50807C11.855 5.49607 12.281 5.50007 12.5 5.52007Z" fill="currentColor"/>
<path d="M11.793 8.50808C11.2698 8.5447 10.7654 8.71803 10.3302 9.01075C9.89495 9.30346 9.5442 9.70529 9.313 10.1761C9.176 10.4571 9.09 10.7151 9.043 11.0041C8.95478 11.5318 9.00925 12.0735 9.20077 12.5731C9.39229 13.0727 9.71389 13.512 10.1323 13.8455C10.5506 14.179 11.0506 14.3946 11.5803 14.47C12.11 14.5453 12.6502 14.4777 13.145 14.2741C13.6348 14.0701 14.0621 13.7406 14.3838 13.3186C14.7054 12.8967 14.9101 12.3974 14.977 11.8711C15.0088 11.5839 15.0035 11.2939 14.961 11.0081C14.8689 10.47 14.6329 9.96681 14.278 9.55201C13.923 9.13721 13.4624 8.82623 12.945 8.65208C12.5732 8.53314 12.1826 8.48431 11.793 8.50808Z" fill="currentColor"/>
</svg>
