<svg width="24" height="24" viewBox="0 0 24 24" fill="none" xmlns="http://www.w3.org/2000/svg">
<path d="M1.824 0.0159935C1.62973 0.0526153 1.45043 0.145338 1.30826 0.282711C1.16609 0.420084 1.06727 0.59609 1.024 0.788993C1.004 0.866993 1.004 1.64499 1.004 12C1.004 22.355 1.004 23.133 1.024 23.21C1.06123 23.3819 1.14328 23.5409 1.26183 23.6709C1.38038 23.8009 1.53121 23.8972 1.699 23.95C1.83458 23.9931 1.97779 24.0066 2.11905 23.9898C2.2603 23.973 2.39633 23.9262 2.51802 23.8525C2.63971 23.7789 2.74424 23.68 2.8246 23.5627C2.90497 23.4453 2.95932 23.3121 2.984 23.172C2.996 23.082 3 21.852 3 12C3 2.14799 2.996 0.917993 2.984 0.823994C2.93601 0.563699 2.78727 0.332845 2.57008 0.181563C2.35289 0.0302807 2.08479 -0.0292157 1.824 0.0159935ZM5.79 1.00799C5.64527 1.00581 5.50113 1.02674 5.363 1.06999C4.785 1.22299 4.301 1.69099 4.102 2.28099C4.04907 2.44424 4.01747 2.61364 4.008 2.78499C4 2.89099 3.996 4.76999 4 8.14499L4.004 13.34L4.027 13.473C4.172 14.219 4.68 14.813 5.41 15.09C5.68 15.191 5.945 15.234 6.352 15.234C7.132 15.234 8.285 15.289 9.129 15.371C10.965 15.543 12.539 15.848 13.953 16.312C14.789 16.586 15.512 16.754 16.359 16.867C17.566 17.031 18.883 17.039 20.211 16.898C20.844 16.828 21.605 16.703 21.828 16.628C22.477 16.406 22.93 15.789 22.992 15.043C23.008 14.84 23.008 4.92599 22.992 4.72999C22.9519 4.22296 22.7282 3.74796 22.363 3.39399C21.985 3.01672 21.4994 2.76588 20.973 2.67599C20.6823 2.64247 20.3887 2.64247 20.098 2.67599C19.418 2.74599 18.828 2.76999 18.16 2.76199C17.2201 2.75637 16.2831 2.65688 15.363 2.46499C14.866 2.36073 14.3758 2.22649 13.895 2.06299C12.18 1.50299 10.168 1.16799 7.828 1.04299C7.14887 1.00979 6.46887 0.998116 5.789 1.00799H5.79Z" fill="currentColor"/>
</svg>
