<svg width="24" height="24" viewBox="0 0 24 24" fill="none" xmlns="http://www.w3.org/2000/svg">
<path d="M1.855 4.00809C1.6095 4.0271 1.37989 4.13691 1.211 4.31609C1.027 4.51609 0.949 4.71909 0.941 5.03909C0.934 5.32909 0.977 5.53509 1.113 5.80509C1.203 5.98509 1.297 6.11709 1.43 6.26209L3.352 8.05909C5.852 10.3871 6.027 10.5511 6.129 10.6601C6.367 10.9141 6.535 11.2541 6.613 11.6291C6.633 11.7391 6.641 11.7971 6.641 12.0001C6.641 12.2031 6.633 12.2621 6.613 12.3711C6.56165 12.6361 6.45833 12.8883 6.309 13.1131C6.16 13.3281 6.402 13.0981 3.352 15.9411C2.344 16.8791 1.48 17.6911 1.43 17.7381C1.30186 17.872 1.19495 18.0248 1.113 18.1911C0.988 18.4491 0.938 18.6521 0.938 18.9181C0.938 19.4681 1.227 19.8551 1.73 19.9731L1.836 19.9961L9 20.0001C14.031 20.0041 16.215 20.0001 16.336 19.9921C16.707 19.9651 17.027 19.8551 17.316 19.6681C17.461 19.5701 17.508 19.5281 18.242 18.8441C18.594 18.5121 19.695 17.4841 20.692 16.5591C21.684 15.6331 22.551 14.8161 22.617 14.7461C23.2329 14.0996 23.6127 13.2642 23.695 12.3751C23.7106 12.1253 23.7106 11.8748 23.695 11.6251C23.6127 10.736 23.2329 9.90062 22.617 9.25409C22.551 9.18409 21.684 8.36709 20.691 7.44109C19.8727 6.68154 19.0564 5.91987 18.242 5.15609C17.9998 4.92806 17.7552 4.70271 17.508 4.48009C17.1841 4.20341 16.7799 4.03796 16.355 4.00809C16.175 3.99209 2.008 3.99209 1.855 4.00809Z" fill="currentColor"/>
</svg>
