<svg width="24" height="24" viewBox="0 0 24 24" fill="none" xmlns="http://www.w3.org/2000/svg">
<path d="M4.758 4.008C3.96882 4.05719 3.21177 4.33849 2.58195 4.81655C1.95213 5.29461 1.47761 5.94812 1.218 6.695C1.128 6.965 1.07 7.215 1.023 7.559C1.003 7.691 1.003 8.027 1 11.829C0.996 14.621 1 16.027 1.008 16.184C1.039 16.774 1.172 17.289 1.426 17.789C1.71489 18.365 2.13842 18.8627 2.66067 19.2402C3.18292 19.6176 3.78848 19.8635 4.426 19.957C4.742 20.004 4.922 20.004 8.176 20C11.133 19.996 11.305 19.996 11.375 19.977C11.578 19.914 11.793 19.77 12.09 19.488C12.191 19.391 13.29 18.363 14.527 17.211C18.27 13.715 17.926 14.043 18.113 13.797C18.5331 13.2358 18.7432 12.5451 18.7069 11.845C18.6705 11.1449 18.39 10.4797 17.914 9.965C16.9605 9.06291 16.0035 8.16457 15.043 7.27C14.0565 6.35298 13.0722 5.43364 12.09 4.512C11.793 4.23 11.582 4.086 11.375 4.023C11.305 4.003 11.137 4 8.109 4C6.352 4 4.844 4.004 4.758 4.008ZM8.355 7.023C8.891 7.093 9.383 7.297 9.812 7.625C9.977 7.75 10.262 8.039 10.387 8.203C10.719 8.648 10.91 9.129 10.98 9.691C11.004 9.855 11 10.242 10.977 10.418C10.9245 10.8082 10.7983 11.1849 10.605 11.528C10.3262 12.0149 9.91996 12.4166 9.43 12.69C9.36 12.73 9.262 12.788 9.215 12.823C9.117 12.89 8.98 13.026 8.973 13.069C8.969 13.081 8.965 13.179 8.961 13.28C8.953 13.499 8.941 13.558 8.867 13.718C8.79827 13.8604 8.69654 13.9843 8.57027 14.0794C8.44399 14.1746 8.29682 14.2382 8.141 14.265C8.02888 14.2885 7.91312 14.2885 7.801 14.265C7.63276 14.2374 7.47453 14.1667 7.34171 14.0598C7.20888 13.9529 7.10598 13.8134 7.043 13.655C6.977 13.495 6.969 13.433 6.977 13.089C6.98 12.812 6.984 12.765 7.012 12.647C7.148 12.046 7.543 11.522 8.168 11.112L8.398 10.972C8.5106 10.9152 8.61353 10.8409 8.703 10.752C8.89393 10.5589 9.00035 10.2979 8.99885 10.0263C8.99735 9.7548 8.88805 9.49497 8.695 9.304C8.52918 9.13696 8.31088 9.03215 8.07684 9.0072C7.8428 8.98225 7.60731 9.03868 7.41 9.167C7.262 9.261 7.121 9.413 7.047 9.569C7.031 9.597 6.997 9.69 6.969 9.78C6.863 10.097 6.703 10.288 6.437 10.417C6.277 10.499 6.137 10.527 5.961 10.519C5.82177 10.5173 5.68498 10.4823 5.562 10.417C5.44114 10.359 5.33323 10.2772 5.24474 10.1765C5.15624 10.0758 5.08899 9.95831 5.047 9.831C5.012 9.721 5.012 9.714 5.012 9.526C5.012 9.335 5.012 9.331 5.055 9.19C5.211 8.667 5.465 8.245 5.844 7.874C6.004 7.714 6.125 7.616 6.289 7.507C6.727 7.217 7.199 7.054 7.73 7.007C7.93842 6.99661 8.14732 7.00263 8.355 7.023ZM8.25 15.031C8.46521 15.0863 8.65586 15.2118 8.79185 15.3875C8.92783 15.5633 9.0014 15.7793 9.00095 16.0016C9.00049 16.2238 8.92602 16.4395 8.78932 16.6147C8.65261 16.7899 8.46144 16.9145 8.246 16.969C8.113 17.004 7.886 17.004 7.754 16.969C7.58066 16.9225 7.4226 16.8312 7.29569 16.7043C7.16879 16.5774 7.0775 16.4193 7.031 16.246C6.99588 16.0839 6.99588 15.9161 7.031 15.754C7.07902 15.5704 7.17779 15.404 7.316 15.274C7.457 15.141 7.641 15.047 7.828 15.012C7.96892 14.9991 8.11093 15.0049 8.25 15.031Z" fill="currentColor"/>
<path d="M16.922 4.004C16.7324 4.01943 16.5512 4.08912 16.4001 4.20473C16.2491 4.32035 16.1344 4.47701 16.07 4.656C16.0206 4.78669 16.0007 4.92673 16.012 5.066C16.0195 5.28051 16.1024 5.48551 16.246 5.645C16.277 5.684 16.672 6.055 17.117 6.473C19.398 8.593 19.375 8.574 19.621 8.883C19.855 9.172 20.016 9.422 20.18 9.75C20.676 10.738 20.828 11.824 20.629 12.914C20.4795 13.7201 20.1332 14.4768 19.621 15.117C19.375 15.426 19.395 15.407 17.117 17.527C16.672 17.945 16.277 18.317 16.247 18.355C16.1601 18.4523 16.0947 18.5668 16.055 18.691C16.008 18.832 15.992 19.027 16.023 19.176C16.0574 19.3701 16.1485 19.5496 16.2848 19.692C16.4212 19.8344 16.5966 19.9332 16.789 19.976C16.875 19.996 16.98 19.996 18.57 19.996C20.125 19.996 20.27 19.996 20.434 19.976C21.199 19.8898 21.9238 19.5881 22.524 19.106C22.672 18.984 22.988 18.668 23.114 18.508C23.602 17.898 23.891 17.195 23.98 16.41C24 16.203 24 7.797 23.98 7.586C23.8859 6.69307 23.4938 5.85785 22.867 5.215C22.2735 4.60177 21.4988 4.19517 20.657 4.055C20.352 4.004 20.352 4.004 18.633 4C17.723 4 16.953 4 16.922 4.004Z" fill="currentColor"/>
</svg>
