<svg width="24" height="24" viewBox="0 0 24 24" fill="none" xmlns="http://www.w3.org/2000/svg">
<g clip-path="url(#clip0_4791_7804)">
<path d="M3.785 0.00790625C3.742 0.0119063 3.637 0.0199063 3.547 0.0309063C2.79589 0.114413 2.08446 0.411479 1.497 0.886906C1.328 1.01991 1.016 1.32791 0.887 1.49191C0.412392 2.0837 0.114315 2.79735 0.027 3.55091C0.007 3.71091 0.007 4.10891 0.007 11.9919C0.007 20.9059 0.004 20.3589 0.067 20.7069C0.210949 21.5293 0.613044 22.2844 1.215 22.8629C1.867 23.4999 2.648 23.8669 3.594 23.9799C3.699 23.9919 5.234 23.9919 12 23.9919C19.887 23.9919 20.29 23.9919 20.45 23.9719C21.2029 23.884 21.916 23.5863 22.508 23.1129C22.672 22.9839 22.98 22.6719 23.113 22.5029C23.543 21.9689 23.832 21.3239 23.941 20.6639C23.996 20.3279 23.996 20.5199 23.996 15.9959C23.996 11.9409 23.992 11.7149 23.973 11.5549C23.824 10.3549 23.215 9.35191 22.23 8.68391C21.7254 8.34009 21.1479 8.11794 20.543 8.03491C20.391 8.01191 20.34 8.01191 18.656 8.00391C16.754 7.99591 16.824 7.99591 16.438 7.92191C15.7789 7.79004 15.1635 7.49439 14.6487 7.06221C14.1338 6.63003 13.7361 6.07522 13.492 5.44891C13.355 5.09391 13.332 4.99991 13.168 3.99991C13.028 3.17191 12.988 2.97991 12.898 2.70991C12.7099 2.16261 12.4054 1.66256 12.0056 1.24412C11.6058 0.825679 11.1202 0.498783 10.582 0.285906C10.1961 0.129917 9.78747 0.0377135 9.372 0.0129063C9.21 -9.37479e-05 4 -0.00409375 3.784 0.00790625H3.785ZM12.18 9.01591C12.492 9.07791 12.75 9.27291 12.89 9.55091C12.98 9.73091 12.988 9.76591 12.996 10.2069C13.004 10.4219 13.008 11.3629 13.008 12.2969V13.9919H14.711C15.645 13.9919 16.59 13.9959 16.805 14.0039L17.199 14.0119L17.316 14.0549C17.582 14.1449 17.773 14.3129 17.895 14.5589C17.977 14.7269 17.992 14.8089 17.992 14.9999C18.0001 15.1563 17.9652 15.312 17.891 15.4499C17.789 15.6479 17.629 15.8049 17.426 15.9019C17.219 15.9999 17.441 15.9879 15.098 15.9919L13.008 15.9959V17.7109C13.008 18.6519 13.004 19.5939 12.996 19.8049C12.988 20.2269 12.98 20.2539 12.898 20.4379C12.8132 20.6147 12.6777 20.7623 12.5086 20.8617C12.3396 20.9611 12.1447 21.0078 11.949 20.9959C11.7406 20.9846 11.5409 20.909 11.3772 20.7795C11.2135 20.6501 11.094 20.4731 11.035 20.2729L11.012 20.1829L11.004 18.0929L11 15.9999L8.906 15.9959L6.816 15.9879L6.726 15.9649C6.52939 15.8995 6.35418 15.782 6.219 15.6249C6.13202 15.5086 6.06696 15.3775 6.027 15.2379C5.9997 15.0791 5.9997 14.9167 6.027 14.7579C6.059 14.6449 6.152 14.4569 6.223 14.3709C6.35489 14.2133 6.53013 14.0979 6.727 14.0389C6.805 14.0159 6.855 14.0119 7.195 14.0039C7.406 13.9959 8.348 13.9919 9.289 13.9919H11.004L11.012 9.80091L11.047 9.69091C11.215 9.21491 11.699 8.92091 12.18 9.01591Z" fill="currentColor"/>
<path d="M14.777 2.01191C14.777 2.01991 14.789 2.05491 14.801 2.09391C14.851 2.22991 14.93 2.51991 14.969 2.69891C14.992 2.80491 15.07 3.23891 15.141 3.66391C15.211 4.08991 15.281 4.48391 15.301 4.54291C15.4037 4.90654 15.607 5.23374 15.8877 5.48676C16.1683 5.73978 16.5147 5.90831 16.887 5.97291C16.977 5.99291 17.152 5.99291 18.711 5.99991C20.555 6.00791 20.5 6.00791 20.926 6.06991C21.215 6.11291 21.652 6.21891 21.91 6.30891L21.996 6.33891V6.06191C21.996 5.74591 21.984 5.58991 21.946 5.33591C21.7997 4.4631 21.3678 3.66356 20.7181 3.06269C20.0684 2.46183 19.2376 2.09365 18.356 2.01591C18.184 1.99991 14.777 1.99591 14.777 2.01191Z" fill="currentColor"/>
</g>
<defs>
<clipPath id="clip0_4791_7804">
<rect width="24" height="24" fill="white"/>
</clipPath>
</defs>
</svg>
