<svg width="24" height="24" viewBox="0 0 24 24" fill="none" xmlns="http://www.w3.org/2000/svg">
<g clip-path="url(#clip0_2538_37120)">
<path d="M3.723 0.0119872C3.15466 0.0678745 2.61327 0.28159 2.16 0.628987C2.02 0.738987 1.8 0.952987 1.68 1.09799C1.32429 1.53661 1.0969 2.06511 1.023 2.62499C0.999564 2.87444 0.999564 3.12554 1.023 3.37499C1.117 4.05899 1.398 4.63299 1.875 5.10899C1.95586 5.1926 2.04062 5.27236 2.129 5.34799C2.348 5.51999 2.656 5.69499 2.899 5.78899L3 5.82999V6.94999C3 7.90299 3.004 8.08699 3.02 8.17299C3.04631 8.32279 3.10659 8.46457 3.19619 8.58746C3.2858 8.71036 3.40236 8.8111 3.53694 8.88196C3.67152 8.95282 3.82053 8.99192 3.97256 8.99625C4.1246 9.00059 4.2756 8.97006 4.414 8.90699C4.5524 8.84523 4.67477 8.75253 4.77168 8.63602C4.8686 8.51952 4.93747 8.38231 4.973 8.23499C4.996 8.14199 4.996 8.12999 5 6.98499L5.004 5.82899L5.105 5.78999C5.262 5.73099 5.508 5.60299 5.672 5.48999C6.172 5.15299 6.555 4.68499 6.782 4.12599L6.831 3.99999H7.706L8.585 3.99599L9.479 4.89099C9.972 5.38299 10.401 5.80099 10.429 5.82099C10.765 6.04299 11.187 6.05499 11.522 5.85099C11.679 5.75799 11.71 5.71499 12.862 4.17599C13.472 3.36699 13.976 2.69599 13.987 2.68399C13.999 2.67199 14.065 2.75399 14.37 3.15999C14.616 3.48799 14.765 3.67599 14.82 3.72999C14.944 3.84399 15.07 3.91399 15.257 3.96899C15.315 3.98899 15.425 3.98899 16.245 3.99599L17.167 3.99999L17.214 4.11299C17.44 4.67999 17.824 5.15299 18.331 5.49299C18.499 5.60499 18.737 5.72999 18.894 5.78899L18.995 5.82899L19 6.98299C19.004 8.25299 19 8.19399 19.078 8.38199C19.1333 8.51632 19.2177 8.63674 19.3251 8.7346C19.4324 8.83246 19.5601 8.90534 19.699 8.94799C19.8345 8.99106 19.9777 9.00467 20.1188 8.98793C20.26 8.97118 20.396 8.92446 20.5177 8.85089C20.6394 8.77732 20.7439 8.6786 20.8243 8.56134C20.9048 8.44408 20.9592 8.31099 20.984 8.17099C20.996 8.08499 21 7.90099 21 6.94799V5.82999L21.09 5.79799C21.215 5.75099 21.46 5.62599 21.594 5.54399C21.9502 5.31565 22.2569 5.0181 22.496 4.66899C22.696 4.36399 22.848 4.01299 22.926 3.65699C23.02 3.23099 23.02 2.76699 22.926 2.34499C22.8295 1.90998 22.637 1.50204 22.3626 1.15098C22.0882 0.79993 21.7388 0.514644 21.34 0.315987C21.0476 0.170074 20.7336 0.0724773 20.41 0.0269872C20.1387 -0.000334956 19.8653 -0.000334956 19.594 0.0269872C19.0679 0.09783 18.5701 0.307464 18.1519 0.634351C17.7336 0.961237 17.4099 1.39359 17.214 1.88699L17.168 1.99699L16.004 2.00399L15.383 1.17999C14.738 0.319987 14.672 0.237987 14.523 0.147987C14.3284 0.0303448 14.0996 -0.0178806 13.8741 0.0111765C13.6485 0.0402336 13.4395 0.144859 13.281 0.307987C13.254 0.335987 12.707 1.05799 12.062 1.91799L10.892 3.47999L10.271 2.85999C9.551 2.13699 9.528 2.11699 9.267 2.03499C9.185 2.01199 9.173 2.00799 8.009 2.00399L6.833 1.99599L6.786 1.88599C6.58953 1.39485 6.26677 0.964353 5.85041 0.638077C5.43405 0.311801 4.93886 0.101334 4.415 0.0279872C4.18505 0.00548196 3.95371 0.000467549 3.723 0.0129872V0.0119872ZM3.754 10.008C2.82735 10.0648 1.94925 10.4419 1.26993 11.0747C0.590615 11.7075 0.152307 12.5567 0.03 13.477L0.007 13.657L0.003 16.879C0 20.227 1.39698e-09 20.289 0.047 20.605C0.183124 21.5031 0.621624 22.3279 1.29002 22.943C1.95842 23.5581 2.8167 23.9268 3.723 23.988C3.848 23.996 6.293 24 12.117 23.996L20.34 23.992L20.516 23.969C21.25 23.859 21.848 23.617 22.406 23.195C22.719 22.961 22.969 22.711 23.203 22.395C23.664 21.781 23.926 21.078 23.988 20.293C24.004 20.086 24.004 13.93 23.988 13.711C23.9382 13.0028 23.7011 12.3205 23.301 11.734C22.8088 11.017 22.0955 10.4807 21.27 10.207C20.9879 10.114 20.6971 10.05 20.402 10.016C20.316 10.008 18.426 10.004 12.102 9.99999C7.594 9.99999 3.84 10.004 3.754 10.008ZM12.906 12.078C13.0148 12.1014 13.117 12.1485 13.2055 12.2159C13.294 12.2833 13.3666 12.3694 13.418 12.468C13.504 12.648 13.5 12.543 13.5 14.363V15.996L14.664 16H15.828L15.922 16.035C16.1103 16.0977 16.2661 16.2326 16.355 16.41C16.4114 16.5167 16.4406 16.6357 16.44 16.7564C16.4395 16.8771 16.4093 16.9958 16.352 17.102C16.312 17.18 16.18 17.316 13.992 19.5C11.734 21.762 11.676 21.816 11.59 21.86C11.4781 21.9216 11.35 21.9474 11.223 21.934C11.1477 21.9355 11.0729 21.9219 11.003 21.894C10.8872 21.853 10.7829 21.7847 10.699 21.695C10.6249 21.6203 10.5688 21.5297 10.535 21.43L10.508 21.344L10.5 18H9.367C8.418 18 8.219 17.996 8.152 17.98C8.0437 17.957 7.94193 17.9101 7.85418 17.8426C7.76644 17.7751 7.69496 17.6888 7.645 17.59C7.58945 17.4854 7.56007 17.3689 7.55937 17.2505C7.55868 17.1321 7.58668 17.0152 7.641 16.91L7.691 16.809L12.313 12.191L12.41 12.141C12.5629 12.0627 12.7384 12.0404 12.906 12.078Z" fill="currentColor"/>
</g>
<defs>
<clipPath id="clip0_2538_37120">
<rect width="24" height="24" fill="white"/>
</clipPath>
</defs>
</svg>
