<svg width="24" height="24" viewBox="0 0 24 24" fill="none" xmlns="http://www.w3.org/2000/svg">
<g clip-path="url(#clip0_2538_37595)">
<path d="M3.676 0.0122372C3.13458 0.0572865 2.60791 0.21167 2.12785 0.466052C1.64779 0.720435 1.22431 1.06953 0.883 1.49224C0.398 2.09024 0.117 2.78224 0.02 3.57824C-0.00167292 3.88802 0.00200599 4.19905 0.031 4.50824C0.13158 5.2866 0.458357 6.01833 0.970829 6.61275C1.4833 7.20717 2.15894 7.63813 2.914 7.85224L3 7.87524L2.996 16.1292L2.879 16.1602C2.445 16.2812 1.973 16.5202 1.602 16.8002C1.32034 17.0154 1.06582 17.2638 0.844 17.5402C0.458453 18.0379 0.195005 18.619 0.0748226 19.2369C-0.04536 19.8549 -0.0189263 20.4924 0.152 21.0982C0.301599 21.6212 0.556266 22.1082 0.90044 22.5294C1.24461 22.9506 1.67106 23.2973 2.15373 23.5481C2.6364 23.7989 3.16514 23.9487 3.70765 23.9883C4.25016 24.0278 4.79504 23.9564 5.309 23.7782C5.899 23.5782 6.414 23.2502 6.863 22.7932C7.324 22.3162 7.656 21.7582 7.836 21.1332L7.871 21.0032L16.125 21.0002L16.148 21.0862C16.3906 21.9443 16.9129 22.6967 17.632 23.2239C18.3511 23.7511 19.2257 24.023 20.117 23.9962C21.0752 23.971 21.9921 23.6006 22.699 22.9532C23.055 22.6332 23.383 22.1952 23.598 21.7532C23.86 21.2109 23.997 20.6168 23.9989 20.0145C24.0008 19.4122 23.8676 18.8172 23.609 18.2732C23.3646 17.7594 23.013 17.3039 22.5778 16.9373C22.1426 16.5708 21.6339 16.3017 21.086 16.1482L21 16.1252V7.87524L21.086 7.85224C22.0445 7.58369 22.868 6.96667 23.395 6.12224C23.5291 5.89236 23.6464 5.65307 23.746 5.40624C23.9835 4.76409 24.0547 4.0723 23.953 3.39524C23.8441 2.67512 23.5402 1.99851 23.0744 1.43869C22.6085 0.878868 21.9984 0.457163 21.31 0.219237C20.5286 -0.0478051 19.6842 -0.0697858 18.89 0.156237C18.2356 0.343979 17.64 0.695927 17.16 1.17864C16.6799 1.66136 16.3312 2.25881 16.147 2.91424L16.125 3.00024H7.875L7.852 2.91424C7.64012 2.16103 7.21166 1.48664 6.61984 0.97482C6.02802 0.462996 5.29889 0.136279 4.523 0.0352372C4.24164 0.00635864 3.95851 -0.00132969 3.676 0.0122372ZM16.168 5.14824C16.246 5.41024 16.375 5.72324 16.52 5.96824C16.7793 6.42892 17.1277 6.83339 17.5449 7.15805C17.9621 7.48271 18.4397 7.72107 18.95 7.85924L18.992 7.87124V16.1292L18.949 16.1412C18.7678 16.1911 18.5904 16.2536 18.418 16.3282C17.8812 16.5588 17.4016 16.9044 17.0128 17.3405C16.6241 17.7766 16.3357 18.2926 16.168 18.8522L16.128 18.9882L12 18.9922C8.703 18.9962 7.875 18.9922 7.871 18.9802C7.79685 18.711 7.69636 18.4498 7.571 18.2002C7.14565 17.353 6.43232 16.6851 5.559 16.3162C5.38145 16.247 5.20132 16.1847 5.019 16.1292C5.008 16.1252 5.004 15.2972 5.008 12.0002L5.012 7.87124L5.148 7.83224C5.618 7.69524 6.109 7.43824 6.512 7.11724C6.676 6.98424 6.984 6.67624 7.117 6.50724C7.437 6.10924 7.687 5.63324 7.828 5.16024C7.848 5.09024 7.868 5.02724 7.871 5.02024C7.875 5.00824 8.707 5.00424 12 5.00824H16.129L16.168 5.14824ZM4.23 18.0122C4.51754 18.0456 4.7945 18.1405 5.04198 18.2907C5.28946 18.4408 5.50163 18.6426 5.664 18.8822C5.84854 19.1579 5.96178 19.4751 5.99358 19.8053C6.02538 20.1356 5.97474 20.4685 5.8462 20.7744C5.71766 21.0802 5.51524 21.3494 5.25708 21.5577C4.99891 21.7661 4.69308 21.9072 4.367 21.9682C4.11663 22.0004 3.86311 21.9994 3.613 21.9652C3.30684 21.9029 3.0193 21.7705 2.773 21.5782C2.39223 21.2866 2.13118 20.8659 2.039 20.3952C2.012 20.2812 2.012 20.2382 2.012 19.9962C2.012 19.7622 2.016 19.7152 2.035 19.6062C2.10143 19.282 2.24665 18.9791 2.45785 18.7243C2.66905 18.4695 2.93973 18.2707 3.246 18.1452C3.555 18.0232 3.918 17.9732 4.23 18.0122Z" fill="currentColor"/>
</g>
<defs>
<clipPath id="clip0_2538_37595">
<rect width="24" height="24" fill="white"/>
</clipPath>
</defs>
</svg>
