<svg width="24" height="24" viewBox="0 0 24 24" fill="none" xmlns="http://www.w3.org/2000/svg">
<g clip-path="url(#clip0_2538_37595)">
<path d="M3.676 0.0159063C3.07247 0.0640802 2.48776 0.2487 1.96599 0.555835C1.44423 0.862971 0.999032 1.2846 0.664 1.78891C0.309904 2.32617 0.0891232 2.94017 0.02 3.57991C0.008 3.68291 0.008 4.61591 0.008 8.51091V13.3149L0.031 13.5069C0.136363 14.3375 0.500053 15.1139 1.07068 15.7265C1.6413 16.3391 2.39001 16.7569 3.211 16.9209C3.601 16.9949 3.746 17.0029 5.492 17.0029H6.996V18.5109C6.996 20.0109 7.004 20.2759 7.039 20.5419C7.12433 21.1848 7.36594 21.797 7.74267 22.3248C8.1194 22.8527 8.61978 23.2802 9.2 23.5699C9.68 23.8119 10.18 23.9499 10.731 23.9879C10.849 23.9959 12.376 23.9999 15.622 23.9959L20.341 23.9919L20.517 23.9689C21.2041 23.8817 21.8561 23.6147 22.407 23.1949C22.72 22.9609 22.97 22.7109 23.204 22.3949C23.665 21.7809 23.927 21.0779 23.989 20.2929C24.005 20.0819 24.005 10.9299 23.989 10.7109C23.9267 9.8159 23.5642 8.96808 22.9603 8.30462C22.3563 7.64116 21.5462 7.20084 20.661 7.05491C20.349 7.00391 20.349 7.00391 18.649 6.99991L17.005 6.99591V5.49191C17.004 3.99991 17 3.71991 16.96 3.45691C16.8507 2.64586 16.4946 1.88807 15.9398 1.28643C15.385 0.684792 14.6585 0.268442 13.859 0.0939062C13.7476 0.0699651 13.6355 0.0489578 13.523 0.0309062L13.343 0.00790625L8.575 0.00390625C5.853 0.00390625 3.746 0.00790625 3.676 0.0159063ZM12.211 6.02291C12.3807 6.0594 12.538 6.13944 12.6674 6.25516C12.7968 6.37089 12.8939 6.5183 12.949 6.68291L12.992 6.80091L12.996 8.89791L13.004 10.9959L15.102 11.0039L17.199 11.0079L17.309 11.0469C17.4366 11.0883 17.5544 11.1554 17.6552 11.2439C17.7559 11.3325 17.8375 11.4407 17.895 11.5619C17.9645 11.6975 18.0007 11.8476 18.0007 11.9999C18.0007 12.1522 17.9645 12.3024 17.895 12.4379C17.8375 12.5591 17.7559 12.6673 17.6552 12.7559C17.5544 12.8445 17.4366 12.9115 17.309 12.9529L17.199 12.9879L15.102 12.9959L13.004 12.9999L12.996 15.0979L12.992 17.1949L12.949 17.3119C12.8822 17.5104 12.7549 17.683 12.5849 17.8054C12.4149 17.9278 12.2109 17.9939 12.0014 17.9943C11.792 17.9948 11.5876 17.9296 11.4172 17.8079C11.2467 17.6862 11.1186 17.5141 11.051 17.3159L11.011 17.1959L11.004 15.0979L11 12.9999L8.902 12.9959L6.805 12.9879L6.688 12.9489C6.51038 12.89 6.35281 12.7825 6.23313 12.6387C6.11346 12.4948 6.03645 12.3203 6.01085 12.1349C5.98525 11.9496 6.01206 11.7607 6.08826 11.5898C6.16446 11.4189 6.287 11.2728 6.442 11.1679C6.52806 11.1106 6.62253 11.0671 6.722 11.0389L6.805 11.0079L8.902 11.0039L11 10.9959L11.004 8.89791L11.012 6.80091L11.039 6.71891C11.1103 6.47637 11.2709 6.26985 11.4883 6.1409C11.7058 6.01196 11.964 5.97015 12.211 6.02391V6.02291Z" fill="currentColor"/>
</g>
<defs>
<clipPath id="clip0_2538_37595">
<rect width="24" height="24" fill="white"/>
</clipPath>
</defs>
</svg>
