<svg width="24" height="24" viewBox="0 0 24 24" fill="none" xmlns="http://www.w3.org/2000/svg">
<path d="M9.172 0.011765C8.54411 0.0587668 7.933 0.236607 7.37794 0.533858C6.82287 0.831109 6.33613 1.2412 5.949 1.73777C5.36569 2.48245 5.03595 3.39424 5.008 4.33977C5 4.54676 5.004 4.60476 5.02 4.68777C5.05767 4.88168 5.15192 5.06009 5.29087 5.20049C5.42982 5.3409 5.60724 5.437 5.80075 5.47669C5.99425 5.51637 6.19518 5.49786 6.37818 5.42348C6.56118 5.3491 6.71805 5.2222 6.829 5.05876C6.949 4.87476 6.98 4.75777 6.996 4.47677C7.012 4.21477 7.036 4.05077 7.086 3.85876C7.168 3.53876 7.296 3.27276 7.508 2.99177C7.91235 2.46052 8.51064 2.11104 9.172 2.01976C9.344 1.99976 9.652 1.99976 9.828 2.01976C10.4184 2.09958 10.9612 2.38689 11.3591 2.83028C11.7571 3.27366 11.9842 3.84419 12 4.43976C12.012 4.68976 12.035 4.79176 12.105 4.93676C12.2012 5.13441 12.3611 5.29396 12.559 5.38976C12.727 5.47576 12.793 5.48676 12.996 5.48676C13.122 5.49464 13.2483 5.47542 13.3663 5.4304C13.4843 5.38538 13.5912 5.3156 13.68 5.22576C13.8555 5.06441 13.9664 4.84478 13.992 4.60776C14.012 4.43676 13.988 4.04977 13.934 3.72877C13.7293 2.56003 13.0722 1.5191 12.105 0.831765C11.2514 0.227759 10.215 -0.0619945 9.172 0.011765Z" fill="currentColor"/>
<path d="M9.371 4.00776C9.17956 4.0251 8.99303 4.078 8.821 4.16376C8.62229 4.26608 8.44851 4.41084 8.31199 4.58781C8.17547 4.76477 8.07954 4.96959 8.031 5.18777C8.011 5.26177 8.011 5.62476 8.004 10.6558L8 16.0458L7.973 16.1448C7.93066 16.2991 7.85247 16.4412 7.7448 16.5595C7.63713 16.6779 7.50303 16.7692 7.35342 16.8259C7.20381 16.8826 7.04291 16.9032 6.88384 16.886C6.72476 16.8688 6.572 16.8142 6.438 16.7268C6.34057 16.6515 6.25378 16.5633 6.18 16.4648C6.16 16.4338 5.738 15.7068 5.238 14.8398C4.742 13.9768 4.305 13.2338 4.273 13.1878C4.05953 12.8891 3.74409 12.679 3.38626 12.5971C3.02843 12.5152 2.65299 12.5671 2.33086 12.7432C2.00873 12.9192 1.76222 13.2071 1.63788 13.5525C1.51354 13.8978 1.51998 14.2768 1.656 14.6178C1.691 14.6988 5.726 21.7888 5.918 22.0938C6.168 22.5038 6.523 22.8978 6.91 23.1868C7.42159 23.5719 8.01721 23.8303 8.648 23.9408C8.977 23.9958 8.844 23.9918 12.398 23.9918C15.578 23.9918 15.762 23.9918 15.898 23.9718C16.4714 23.8924 17.0098 23.6498 17.449 23.2728C17.906 22.8868 18.246 22.3398 18.395 21.7528C18.441 21.5898 19.34 16.6558 19.367 16.4408C19.4418 15.7886 19.3574 15.1281 19.121 14.5158C18.9718 14.1554 18.7776 13.8153 18.543 13.5038C18.0512 12.8789 17.3851 12.414 16.629 12.1678C16.562 12.1448 15.589 11.8978 14.473 11.6178C13.7579 11.4423 13.0442 11.2609 12.332 11.0738C12.0056 10.9566 11.7149 10.7575 11.4878 10.4955C11.2606 10.2335 11.1047 9.91744 11.035 9.57776L11.012 9.44876L11.004 7.38677C10.996 5.10876 11 5.26576 10.922 5.02676C10.8157 4.70742 10.605 4.43314 10.3238 4.24812C10.0426 4.06309 9.70736 3.97808 9.372 4.00676L9.371 4.00776Z" fill="currentColor"/>
</svg>
