<svg width="24" height="24" viewBox="0 0 24 24" fill="none" xmlns="http://www.w3.org/2000/svg">
<path d="M20.727 0.0119062C20.231 0.0584502 19.7544 0.227517 19.34 0.503906C18.82 0.847906 18.45 1.30891 18.21 1.89091L18.168 1.99591L16.878 2.00391C15.746 2.00791 15.574 2.01191 15.434 2.03091C15.188 2.06191 15.024 2.09391 14.797 2.14791C13.9196 2.36437 13.1182 2.81709 12.48 3.45691C11.7534 4.17687 11.2654 5.1026 11.082 6.10891C11.008 6.52291 11.012 6.37891 11.008 8.79691L11.004 11.0039L5.832 10.9959L5.785 10.8859C5.62648 10.4886 5.38484 10.1297 5.07629 9.83343C4.76775 9.53713 4.39942 9.31022 3.996 9.16791C3.32786 8.93651 2.59984 8.94606 1.938 9.19491C1.49804 9.3645 1.1024 9.6319 0.781 9.97691C0.371 10.4409 0.125 10.9529 0.031 11.5589C-0.00409055 11.8519 -0.00409055 12.148 0.031 12.4409C0.0923472 12.8524 0.238737 13.2465 0.460839 13.5983C0.682941 13.95 0.975884 14.2516 1.321 14.4839C1.69194 14.7355 2.1146 14.9006 2.55783 14.9672C3.00107 15.0337 3.45358 15 3.88204 14.8684C4.3105 14.7368 4.70398 14.5108 5.0335 14.207C5.36301 13.9032 5.62016 13.5293 5.786 13.1129L5.831 12.9999H8.417L11.003 12.9959L11.007 15.2029C11.011 17.6209 11.007 17.4769 11.081 17.8869C11.2978 19.0955 11.953 20.1815 12.921 20.9369C13.159 21.1249 13.495 21.3359 13.757 21.4689C14.171 21.6759 14.706 21.8519 15.147 21.9259C15.53 21.9879 15.487 21.9879 16.874 21.9959L18.167 21.9999L18.214 22.1129C18.444 22.6909 18.824 23.1529 19.347 23.5029C19.7241 23.75 20.1517 23.9096 20.5985 23.97C21.0452 24.0303 21.4998 23.99 21.929 23.8519C22.929 23.5319 23.694 22.6919 23.925 21.6679C23.975 21.4299 23.991 21.2809 23.991 20.9999C23.991 20.7189 23.976 20.5699 23.925 20.3319C23.698 19.3319 22.964 18.5079 21.995 18.1679C21.3269 17.9365 20.5988 17.9461 19.937 18.1949C19.497 18.3645 19.1014 18.6319 18.78 18.9769C18.5368 19.245 18.3437 19.5545 18.21 19.8909L18.167 19.9959H16.967C15.69 19.9959 15.694 19.9959 15.405 19.9379C14.808 19.8175 14.2618 19.5182 13.839 19.0798C13.4162 18.6415 13.1368 18.0849 13.038 17.4839C12.999 17.2499 12.995 17.0589 12.995 15.0269V12.9969H18.163L18.175 13.0229C18.183 13.0349 18.214 13.1129 18.245 13.1879C18.526 13.8589 19.085 14.4299 19.757 14.7299C20.44 15.0399 21.217 15.0819 21.929 14.8519C22.929 14.5319 23.694 13.6919 23.925 12.6679C23.975 12.4299 23.991 12.2809 23.991 11.9999C23.991 11.7189 23.976 11.5699 23.925 11.3319C23.698 10.3319 22.964 9.50791 21.995 9.16791C21.3269 8.93651 20.5988 8.94606 19.937 9.19491C19.497 9.3645 19.1014 9.6319 18.78 9.97691C18.522 10.2659 18.354 10.5429 18.21 10.8909L18.167 10.9959L12.995 11.0039V8.97291C12.995 6.94091 12.999 6.74991 13.038 6.51591C13.1334 5.93842 13.3951 5.4013 13.7912 4.97038C14.1874 4.53946 14.7006 4.23347 15.268 4.08991C15.624 3.99991 15.733 3.99591 17.054 3.99591H18.164L18.174 4.02291C18.183 4.03491 18.214 4.11291 18.245 4.18791C18.526 4.85891 19.085 5.42991 19.757 5.72991C20.44 6.03991 21.217 6.08191 21.929 5.85191C22.929 5.53191 23.694 4.69191 23.925 3.66791C23.975 3.42991 23.991 3.28091 23.991 2.99991C23.991 2.71891 23.976 2.56991 23.925 2.33191C23.698 1.33191 22.964 0.507906 21.995 0.167906C21.6936 0.0629455 21.3771 0.00755987 21.058 0.00390625C20.933 0.00390625 20.785 0.00390625 20.727 0.0119062Z" fill="currentColor"/>
</svg>
