<svg width="24" height="24" viewBox="0 0 24 24" fill="none" xmlns="http://www.w3.org/2000/svg">
<path d="M11.727 0.0119062C11.231 0.0584502 10.7544 0.227517 10.34 0.503906C9.98912 0.734739 9.69101 1.03716 9.46525 1.39132C9.23948 1.74548 9.09115 2.14338 9.03 2.55891C9.01 2.69491 9.007 2.77291 9.007 2.99991C9.007 3.22691 9.011 3.30491 9.03 3.44091C9.10788 3.95961 9.32018 4.4489 9.64579 4.86012C9.9714 5.27133 10.399 5.59016 10.886 5.78491L10.999 5.83191V8.41791L11.003 11.0039L8.796 11.0079C6.765 11.0079 6.577 11.0119 6.433 11.0309C6.186 11.0619 6.023 11.0939 5.796 11.1479C4.91858 11.3644 4.11724 11.8171 3.479 12.4569C2.7524 13.1769 2.26441 14.1026 2.081 15.1089C2.011 15.4999 2.011 15.4839 2.003 16.8789L2 18.1679L1.887 18.2149C1.46772 18.3862 1.09044 18.6462 0.781 18.9769C0.371 19.4409 0.125 19.9529 0.031 20.5589C-0.00409055 20.8519 -0.00409055 21.148 0.031 21.4409C0.0923472 21.8524 0.238737 22.2465 0.460839 22.5983C0.682941 22.95 0.975884 23.2516 1.321 23.4839C1.69945 23.7392 2.13103 23.905 2.58306 23.9688C3.03509 24.0325 3.49571 23.9926 3.93 23.8519C4.93 23.5319 5.695 22.6919 5.926 21.6679C5.976 21.4299 5.992 21.2809 5.992 20.9999C5.992 20.7189 5.977 20.5699 5.926 20.3319C5.82029 19.8727 5.60822 19.4446 5.30687 19.0823C5.00552 18.72 4.6233 18.4335 4.191 18.2459C4.113 18.2149 4.039 18.1799 4.023 18.1759L3.996 18.1639V17.0539C3.996 15.9489 4.004 15.7339 4.039 15.5159C4.14928 14.8505 4.47997 14.2415 4.97797 13.7867C5.47597 13.3319 6.11238 13.0576 6.785 13.0079C6.883 12.9999 7.719 12.9959 8.973 12.9959H11.003L11 15.5819V18.1679L10.887 18.2149C10.4677 18.3862 10.0904 18.6462 9.781 18.9769C9.371 19.4409 9.125 19.9529 9.031 20.5589C8.99591 20.8519 8.99591 21.148 9.031 21.4409C9.09235 21.8524 9.23874 22.2465 9.46084 22.5983C9.68294 22.95 9.97588 23.2516 10.321 23.4839C10.6994 23.7392 11.131 23.905 11.5831 23.9688C12.0351 24.0325 12.4957 23.9926 12.93 23.8519C13.93 23.5319 14.695 22.6919 14.926 21.6679C14.976 21.4299 14.992 21.2809 14.992 20.9999C14.992 20.7189 14.977 20.5699 14.926 20.3319C14.8203 19.8727 14.6082 19.4446 14.3069 19.0823C14.0055 18.72 13.6233 18.4335 13.191 18.2459C13.113 18.2149 13.039 18.1799 13.023 18.1759L12.996 18.1639V12.9959H15.027C17.059 12.9959 17.247 12.9999 17.484 13.0389C18.0575 13.1341 18.5913 13.3931 19.021 13.7847C19.4507 14.1762 19.758 14.6837 19.906 15.2459C20 15.6209 20.008 15.7539 20 17.0779V18.1679L19.887 18.2149C19.4677 18.3862 19.0904 18.6462 18.781 18.9769C18.371 19.4409 18.125 19.9529 18.031 20.5589C17.9959 20.8519 17.9959 21.148 18.031 21.4409C18.0923 21.8524 18.2387 22.2465 18.4608 22.5983C18.6829 22.95 18.9759 23.2516 19.321 23.4839C19.6994 23.7392 20.131 23.905 20.5831 23.9688C21.0351 24.0325 21.4957 23.9926 21.93 23.8519C22.93 23.5319 23.695 22.6919 23.926 21.6679C23.976 21.4299 23.992 21.2809 23.992 20.9999C23.992 20.6399 23.957 20.3899 23.855 20.0739C23.7189 19.6541 23.4919 19.2694 23.1901 18.9474C22.8883 18.6254 22.5191 18.3739 22.109 18.2109L22.004 18.1679L21.996 16.8749C21.988 15.4879 21.988 15.5269 21.926 15.1409C21.7497 14.1327 21.2683 13.2028 20.5467 12.477C19.8251 11.7511 18.8982 11.2642 17.891 11.0819C17.477 11.0079 17.621 11.0119 15.203 11.0079L12.996 11.0039V5.83591L13.023 5.82391C13.039 5.81591 13.113 5.78491 13.191 5.75391C13.623 5.56576 14.0049 5.2791 14.3061 4.91687C14.6074 4.55464 14.8197 4.1269 14.926 3.66791C14.976 3.42991 14.992 3.28091 14.992 2.99991C14.992 2.71891 14.977 2.56991 14.926 2.33191C14.699 1.33191 13.965 0.507906 12.996 0.167906C12.6946 0.0629455 12.3781 0.00755987 12.059 0.00390625C11.934 0.00390625 11.785 0.00390625 11.727 0.0119062Z" fill="currentColor"/>
</svg>
