<svg width="24" height="24" viewBox="0 0 24 24" fill="none" xmlns="http://www.w3.org/2000/svg">
<path d="M11.809 0.737931C11.5687 0.764848 11.3346 0.83248 11.117 0.937931C10.997 0.999931 10.809 1.11793 10.723 1.19093C10.563 1.32793 1.648 9.61693 1.59 9.68393C1.367 9.93393 1.215 10.2339 1.137 10.5589C1.016 11.0979 1.141 11.7029 1.473 12.1759C1.574 12.3159 1.789 12.5359 1.933 12.6359C2.148 12.7889 2.422 12.9019 2.703 12.9609C2.824 12.9879 2.859 12.9879 3.414 12.9919L3.996 12.9959V16.9879C3.996 19.6089 4 21.0349 4.008 21.1409C4.055 21.7659 4.371 22.3129 4.887 22.6559C5.187 22.8589 5.504 22.9649 5.883 22.9919C6.156 23.0119 7.153 22.9999 7.309 22.9769C7.734 22.9069 8.105 22.7149 8.414 22.4069C8.73775 22.0821 8.94034 21.6561 8.988 21.1999C8.996 21.1289 9 20.2769 9 18.9799C9 16.6909 9 16.7499 9.066 16.4919C9.15757 16.1489 9.33799 15.836 9.58905 15.585C9.84012 15.3339 10.153 15.1535 10.496 15.0619C10.746 15.0039 10.777 14.9999 11.996 14.9999C13.219 14.9999 13.262 15.0039 13.508 15.0659C14.199 15.2459 14.762 15.8089 14.938 16.4959C15 16.7579 15 16.6909 15 18.9839C15 20.3199 15.004 21.1369 15.012 21.2039C15.0483 21.5408 15.1691 21.8631 15.3632 22.1408C15.5572 22.4186 15.8182 22.6429 16.122 22.7929C16.352 22.9059 16.594 22.9729 16.863 22.9929C17.2889 23.0086 17.7151 23.0086 18.141 22.9929C18.621 22.9594 19.0727 22.7534 19.4128 22.4131C19.753 22.0728 19.9587 21.621 19.992 21.1409C20 21.0349 20.004 19.6089 20.004 16.9879V12.9959H20.535C21.175 12.9959 21.27 12.9879 21.559 12.8949C21.695 12.8519 21.937 12.7269 22.066 12.6369C22.211 12.5349 22.426 12.3169 22.527 12.1759C22.6893 11.9482 22.8032 11.6896 22.8616 11.4161C22.9201 11.1427 22.9219 10.8601 22.867 10.5859C22.7949 10.2517 22.639 9.94135 22.414 9.68393C19.3743 6.84647 16.3287 4.01547 13.277 1.19093C13.1502 1.09325 13.0158 1.00597 12.875 0.929931C12.5422 0.774882 12.175 0.708731 11.809 0.737931Z" fill="currentColor"/>
</svg>
