<svg width="24" height="24" viewBox="0 0 24 24" fill="none" xmlns="http://www.w3.org/2000/svg">
<path d="M11.809 0.738176C11.5687 0.765092 11.3346 0.832724 11.117 0.938176C10.997 1.00018 10.809 1.11818 10.723 1.19118C10.563 1.32818 1.648 9.61718 1.59 9.68418C1.367 9.93418 1.215 10.2342 1.137 10.5592C1.016 11.0982 1.141 11.7032 1.473 12.1762C1.574 12.3162 1.789 12.5362 1.933 12.6362C2.148 12.7892 2.422 12.9022 2.703 12.9612C2.824 12.9882 2.859 12.9882 3.414 12.9922L3.996 12.9962V16.9882C3.996 19.6092 4 21.0352 4.008 21.1412C4.055 21.7662 4.371 22.3132 4.887 22.6562C5.187 22.8592 5.504 22.9652 5.883 22.9922C6.156 23.0122 7.153 23.0002 7.309 22.9772C7.734 22.9072 8.105 22.7152 8.414 22.4072C8.73775 22.0823 8.94034 21.6563 8.988 21.2002C8.996 21.1292 9 20.2772 9 18.9802C9 16.6912 9 16.7502 9.066 16.4922C9.15757 16.1491 9.33799 15.8363 9.58905 15.5852C9.84012 15.3342 10.153 15.1537 10.496 15.0622C10.746 15.0042 10.777 15.0002 11.996 15.0002C13.219 15.0002 13.262 15.0042 13.508 15.0662C14.199 15.2462 14.762 15.8092 14.938 16.4962C15 16.7582 15 16.6912 15 18.9842C15 20.3202 15.004 21.1372 15.012 21.2042C15.0483 21.5411 15.1691 21.8633 15.3632 22.1411C15.5572 22.4188 15.8182 22.6431 16.122 22.7932C16.352 22.9062 16.594 22.9732 16.863 22.9932C17.2889 23.0088 17.7151 23.0088 18.141 22.9932C18.621 22.9596 19.0727 22.7537 19.4128 22.4133C19.753 22.073 19.9587 21.6212 19.992 21.1412C20 21.0352 20.004 19.6092 20.004 16.9882V12.9962H20.535C21.175 12.9962 21.27 12.9882 21.559 12.8952C21.695 12.8522 21.937 12.7272 22.066 12.6372C22.211 12.5352 22.426 12.3172 22.527 12.1762C22.6893 11.9484 22.8032 11.6898 22.8616 11.4164C22.9201 11.1429 22.9219 10.8604 22.867 10.5862C22.7949 10.252 22.639 9.94159 22.414 9.68418C19.3743 6.84672 16.3287 4.01571 13.277 1.19118C13.1502 1.09349 13.0158 1.00621 12.875 0.930176C12.5422 0.775126 12.175 0.708975 11.809 0.738176Z" fill="currentColor"/>
</svg>
