<svg width="24" height="24" viewBox="0 0 24 24" fill="none" xmlns="http://www.w3.org/2000/svg">
<g clip-path="url(#clip0_2538_38930)">
<path d="M3.75 0.00786549C2.89921 0.062552 2.08797 0.386907 1.434 0.933865C1.274 1.06587 0.977 1.37087 0.852 1.53487C0.358558 2.16172 0.0657932 2.92291 0.012 3.71887C0.004 3.84787 -2.32831e-10 6.26587 0.004 12.1169L0.008 20.3359L0.031 20.5159C0.101 20.9879 0.211 21.3479 0.411 21.7539C0.80931 22.5728 1.47642 23.2304 2.301 23.6169C2.738 23.8279 3.215 23.9489 3.727 23.9879C3.847 23.9959 6.313 23.9999 12.117 23.9959L20.34 23.9919L20.516 23.9689C21.2439 23.8712 21.9313 23.5766 22.504 23.1169C22.648 22.9999 22.93 22.7299 23.047 22.5859C23.5472 21.999 23.8673 21.2802 23.969 20.5159C23.992 20.3399 23.992 20.3129 23.996 18.6449C24 17.4409 23.996 16.9249 23.988 16.8589C23.959 16.657 23.869 16.4688 23.7302 16.3194C23.5913 16.17 23.4102 16.0666 23.211 16.0229C23.0686 15.9994 22.9234 15.9994 22.781 16.0229C22.402 16.1129 22.129 16.3909 22.023 16.7809C22.003 16.8509 22.003 17.0039 21.996 18.5659L21.988 20.2769L21.961 20.3949C21.867 20.8249 21.676 21.1649 21.371 21.4529C21.0751 21.7356 20.6982 21.9189 20.293 21.9769C20.188 21.9919 19.219 21.9969 12 21.9969C3.078 21.9969 3.746 21.9999 3.48 21.9299C3.14086 21.8424 2.83272 21.6624 2.59 21.4099C2.33751 21.1671 2.15748 20.859 2.07 20.5199C2 20.2539 2.004 20.9219 2.004 11.9999C2.004 4.78087 2.008 3.81187 2.024 3.70687C2.082 3.29687 2.262 2.93387 2.547 2.62887C2.83074 2.32748 3.19996 2.12019 3.605 2.03487L3.723 2.01187L7.43 2.00387C11.512 1.99587 11.188 2.00387 11.371 1.92587C11.883 1.71887 12.133 1.13287 11.926 0.624865C11.8156 0.36941 11.6095 0.167326 11.352 0.0618655C11.168 -0.00413451 11.402 -0.000134509 7.437 0.00386549C5.437 0.00386549 3.781 0.00386549 3.75 0.00786549Z" fill="currentColor"/>
<path d="M21.406 1.08987C20.4919 1.19529 19.5871 1.36911 18.699 1.60987C16.445 2.22987 14.48 3.21887 12.91 4.52287C12.3515 4.98727 11.8376 5.50284 11.375 6.06287C10.4954 7.13923 9.84046 8.38104 9.449 9.71487C9.25445 10.3938 9.12388 11.0895 9.059 11.7929C9.05436 11.8531 9.04769 11.9131 9.039 11.9729L9.035 11.9999H7.785C6.98 11.9999 6.496 12.0039 6.434 12.0119C5.793 12.0939 5.293 12.5589 5.148 13.2069C5.12086 13.3826 5.11716 13.5612 5.137 13.7379C5.176 13.9679 5.273 14.1989 5.41 14.3779C5.504 14.5079 10.691 19.6909 10.812 19.7779C11.004 19.9219 11.262 20.0429 11.488 20.1019C11.863 20.1989 12.266 20.1869 12.625 20.0699C12.8553 19.9935 13.0698 19.876 13.258 19.7229C13.402 19.6049 18.555 14.4409 18.613 14.3549C18.7849 14.1072 18.8776 13.8133 18.879 13.5119C18.879 12.8719 18.465 12.2769 17.875 12.0819C17.633 12.0039 17.727 12.0079 16.325 12.0039L15.054 11.9999L15.062 11.9599L15.081 11.8239C15.131 11.4299 15.245 10.8909 15.374 10.4489C16.026 8.18387 17.421 6.22987 19.19 5.10887C19.8714 4.67357 20.6222 4.35802 21.41 4.17587C21.675 4.11287 21.808 4.06987 21.956 3.99987C22.186 3.89487 22.366 3.76187 22.542 3.58187C22.847 3.26587 22.995 2.90987 22.995 2.49987C22.9988 2.20964 22.9144 1.92511 22.753 1.68387C22.653 1.53125 22.5233 1.40034 22.3716 1.29897C22.2199 1.1976 22.0493 1.12785 21.87 1.09387C21.7155 1.07678 21.5607 1.07544 21.406 1.08987Z" fill="currentColor"/>
</g>
<defs>
<clipPath id="clip0_2538_38930">
<rect width="24" height="24" fill="white"/>
</clipPath>
</defs>
</svg>
