<svg width="24" height="24" viewBox="0 0 24 24" fill="none" xmlns="http://www.w3.org/2000/svg">
<g clip-path="url(#clip0_2538_39215)">
<path d="M11.45 0.0117998C8.93596 0.121037 6.52035 1.02007 4.54662 2.58106C2.57289 4.14206 1.14151 6.28556 0.456 8.7068C0.220559 9.54202 0.0740787 10.3998 0.019 11.2658C0.00339297 11.7537 0.00339297 12.2419 0.019 12.7298C0.116 14.0898 0.374 15.2458 0.839 16.4218C1.4755 18.0396 2.45754 19.4989 3.71652 20.6977C4.9755 21.8966 6.48105 22.8061 8.128 23.3628C9.882 23.9568 11.78 24.1408 13.64 23.8868C15.4662 23.6395 17.2106 22.9735 18.737 21.9408C20.3068 20.8753 21.6027 19.4541 22.519 17.7928C22.659 17.5388 22.905 17.0348 23.022 16.7578C23.464 15.7268 23.761 14.6478 23.897 13.5508C23.972 12.9838 23.991 12.6248 23.991 12.0038C23.991 11.4728 23.983 11.2658 23.941 10.8158C23.7517 8.84676 23.0765 6.95552 21.976 5.3118C20.6849 3.39027 18.8679 1.88114 16.742 0.9648C15.6299 0.494688 14.4546 0.190767 13.254 0.0627998C12.746 0.0117998 11.923 -0.0122002 11.45 0.0117998ZM12.21 6.0228C12.418 6.0658 12.64 6.2028 12.773 6.3668C12.8507 6.4601 12.9091 6.56783 12.945 6.6838C12.985 6.7888 12.988 6.8198 12.992 6.9568C13.0035 7.12089 12.9725 7.28519 12.902 7.4338C12.8212 7.60399 12.6933 7.74742 12.5334 7.84704C12.3735 7.94667 12.1884 7.9983 12 7.9958C11.8111 7.99844 11.6254 7.94642 11.4654 7.846C11.3054 7.74558 11.1778 7.60105 11.098 7.4298C11.0376 7.31125 11.0067 7.17985 11.008 7.0468C10.9956 6.91135 11.0145 6.77486 11.063 6.6478C11.23 6.1908 11.723 5.9218 12.211 6.0228H12.21ZM12.246 10.0308C12.606 10.1208 12.891 10.4108 12.973 10.7728L12.996 10.8788L12.992 14.0388V17.1948L12.949 17.3118C12.8822 17.5103 12.7549 17.6829 12.5849 17.8053C12.4149 17.9277 12.2109 17.9938 12.0014 17.9942C11.792 17.9947 11.5877 17.9295 11.4172 17.8078C11.2467 17.6861 11.1186 17.514 11.051 17.3158L11.011 17.1958V14.0078C11.011 10.4258 11 10.7778 11.098 10.5698C11.1969 10.3606 11.3656 10.1923 11.5751 10.094C11.7846 9.99561 12.0218 9.97327 12.246 10.0308Z" fill="currentColor"/>
</g>
<defs>
<clipPath id="clip0_2538_39215">
<rect width="24" height="24" fill="white"/>
</clipPath>
</defs>
</svg>
