<svg width="24" height="24" viewBox="0 0 24 24" fill="none" xmlns="http://www.w3.org/2000/svg">
<path d="M0 5.99991C0 8.68391 0.004 9.99591 0.012 9.99591C0.02 9.99591 1.816 9.77291 4.008 9.49591L8 8.99991C8 8.99991 8.004 8.54691 8.004 7.99591V6.99591H10.277C11.527 6.99591 12.551 6.99991 12.551 6.99991C12.5324 7.02315 12.5112 7.04428 12.488 7.06291C12.0434 7.46045 11.6497 7.91155 11.316 8.40591C10.9096 9.00356 10.6133 9.66902 10.441 10.3709C10.312 10.8829 10.27 11.2499 10.254 11.9449C10.242 12.4529 10.227 12.7149 10.184 12.9919C10.0975 13.5864 9.9151 14.1628 9.644 14.6989C9.383 15.2149 9.054 15.6599 8.621 16.0939C8.434 16.2809 8.039 16.6289 8.011 16.6289C8.008 16.6289 8.004 16.2619 8.004 15.8119C8.004 15.3669 8 14.9999 8 14.9999C7.996 14.9999 6.2 14.7769 4.008 14.4999L0.012 14.0039C0.004 14.0039 0 15.3159 0 17.9999C0 20.6839 0.004 21.9959 0.012 21.9959C0.02 21.9959 1.816 21.7729 4.008 21.4959L8 20.9999C8 20.9999 8.004 20.5469 8.004 19.9959V18.9879L8.114 18.9339C8.27 18.8549 8.524 18.7069 8.73 18.5699C10.61 17.3359 11.832 15.4729 12.152 13.3479C12.219 12.9139 12.234 12.6949 12.246 12.1089C12.254 11.8359 12.266 11.5469 12.273 11.4569C12.371 10.5939 12.672 9.87091 13.234 9.16391C13.375 8.98791 13.77 8.59391 13.957 8.43391C14.525 7.97082 15.1547 7.58915 15.828 7.29991L15.992 7.22991V8.11191C15.996 8.60091 16 8.99891 16.004 8.99891C18.6651 9.33293 21.3264 9.66494 23.988 9.99491C23.996 9.99591 24 8.68391 24 5.99991C24 3.31591 23.996 2.00391 23.988 2.00391L19.992 2.49991C17.801 2.77691 16.004 2.99991 16.004 2.99991C16 2.99991 15.996 3.44991 15.996 3.99991V5.00391H8.004V3.99991C8.004 3.44991 8 2.99991 8 2.99991C7.996 2.99991 6.2 2.77691 4.008 2.49991L0.012 2.00391C0.004 2.00391 0 3.31591 0 5.99991ZM4.063 4.51991L5.996 4.76191V7.23391L2.07 7.72691L2.004 7.73391V4.26591L2.066 4.26991C2.098 4.27691 2.996 4.38691 4.063 4.51991ZM21.995 5.99991V7.73391L21.94 7.72691C21.91 7.72291 21.01 7.60891 19.944 7.47691L18.007 7.23391V4.76591L19.979 4.51591C21.065 4.37891 21.964 4.26991 21.976 4.26591C21.996 4.26591 21.995 4.35591 21.995 5.99991ZM4.063 16.5199L5.996 16.7619V19.2339L2.07 19.7269L2.004 19.7339V16.2659L2.066 16.2699C2.098 16.2769 2.996 16.3869 4.063 16.5199Z" fill="currentColor"/>
</svg>
