<svg width="24" height="24" viewBox="0 0 24 24" fill="none" xmlns="http://www.w3.org/2000/svg">
<path d="M3.7 2.01203C2.832 2.09403 2.133 2.37203 1.484 2.89103C1.26792 3.07072 1.06814 3.26916 0.887 3.48403C0.404033 4.08466 0.1041 4.81158 0.023 5.57803C0.003 5.75403 0.003 6.24603 0.023 6.42203C0.119442 7.34983 0.538228 8.21443 1.20644 8.86529C1.87466 9.51615 2.74998 9.91203 3.68 9.98403C3.879 10 4.328 9.99203 4.512 9.96403C5.11387 9.888 5.69039 9.67539 6.19751 9.34245C6.70464 9.00951 7.12894 8.56505 7.438 8.04303C7.613 7.75803 7.75 7.43803 7.852 7.08203L7.875 6.99603H10.215C11.5 6.99603 12.55 7.00003 12.55 7.00003C12.5314 7.02328 12.5102 7.0444 12.487 7.06303C12.0424 7.46057 11.6487 7.91167 11.315 8.40603C10.9086 9.00368 10.6123 9.66914 10.44 10.371C10.311 10.883 10.269 11.25 10.253 11.945C10.237 12.594 10.21 12.898 10.128 13.301C9.98935 13.9945 9.71584 14.654 9.323 15.242C8.9531 15.7893 8.49328 16.2701 7.963 16.664L7.811 16.781L7.769 16.661C7.47474 15.8327 6.91598 15.1242 6.179 14.645C5.67212 14.317 5.09796 14.1071 4.499 14.031C4.16373 13.9998 3.82627 13.9998 3.491 14.031C2.46846 14.1634 1.53587 14.6835 0.886 15.484C0.403033 16.0847 0.1031 16.8116 0.022 17.578C0.002 17.754 0.002 18.246 0.022 18.422C0.118442 19.3498 0.537228 20.2144 1.20544 20.8653C1.87366 21.5161 2.74898 21.912 3.679 21.984C3.878 22 4.327 21.992 4.511 21.964C5.11287 21.888 5.68939 21.6754 6.19651 21.3425C6.70364 21.0095 7.12794 20.5651 7.437 20.043C7.585 19.797 7.733 19.461 7.819 19.191L7.859 19.063L8.039 18.973C8.73539 18.61 9.37567 18.1482 9.94 17.602C11.2056 16.3931 12.0027 14.7752 12.19 13.035C12.226 12.742 12.233 12.602 12.245 12.109C12.253 11.836 12.265 11.547 12.272 11.457C12.37 10.594 12.671 9.87103 13.233 9.16403C13.374 8.98803 13.769 8.59403 13.956 8.43403C14.256 8.18803 14.589 7.95403 14.936 7.75003C15.2769 7.5556 15.6292 7.38195 15.991 7.23003C16.026 7.21903 16.081 7.19503 16.112 7.18403L16.171 7.16003L16.206 7.27303C16.4035 7.85641 16.7324 8.38664 17.1672 8.82286C17.6021 9.25907 18.1313 9.58962 18.714 9.78903C19.167 9.94103 19.608 10.004 20.112 9.99203C20.608 9.98003 21.022 9.89503 21.476 9.71903C22.3163 9.38484 23.0185 8.77581 23.4681 7.99126C23.9178 7.20672 24.0884 6.29296 23.952 5.39903C23.8928 4.98952 23.7675 4.59235 23.581 4.22303C23.2255 3.50127 22.6597 2.9041 21.9582 2.51015C21.2567 2.1162 20.4523 1.94393 19.651 2.01603C18.8349 2.08674 18.0601 2.40632 17.4315 2.93158C16.8028 3.45684 16.3506 4.16245 16.136 4.95303L16.124 5.00303H7.874L7.851 4.91803C7.61384 4.07705 7.10901 3.33629 6.413 2.80803C5.8571 2.38849 5.20165 2.12073 4.511 2.03103C4.2405 2.01082 3.96916 2.00415 3.698 2.01103L3.7 2.01203ZM4.352 4.03203C5.109 4.16003 5.742 4.74203 5.934 5.48803C6.06521 5.98041 6.00313 6.50432 5.7605 6.9524C5.51786 7.40049 5.11304 7.7388 4.629 7.89803C4.13385 8.0631 3.59364 8.02683 3.125 7.79703C2.84806 7.66323 2.60567 7.46743 2.41663 7.22481C2.2276 6.98219 2.09701 6.69928 2.035 6.39803C2.012 6.28903 2.012 6.24203 2.012 6.00003C2.012 5.75803 2.012 5.71003 2.035 5.60203C2.11383 5.22011 2.30206 4.86937 2.57674 4.59255C2.85142 4.31574 3.2007 4.12481 3.582 4.04303C3.824 3.99303 4.094 3.98903 4.352 4.03203ZM20.184 4.00803C20.5689 4.04269 20.9354 4.18846 21.239 4.4276C21.5426 4.66674 21.7702 4.98895 21.894 5.35503C21.977 5.60203 21.988 5.69103 21.988 6.00003C21.988 6.30903 21.977 6.39803 21.895 6.64503C21.7285 7.13301 21.38 7.53785 20.9222 7.77504C20.4644 8.01224 19.9327 8.06346 19.438 7.91803C19.1173 7.82459 18.8252 7.65225 18.5883 7.41676C18.3514 7.18127 18.1773 6.89016 18.082 6.57003C17.9595 6.14348 17.977 5.68888 18.132 5.27303C18.2902 4.8679 18.576 4.5253 18.9463 4.29707C19.3165 4.06883 19.751 3.96737 20.184 4.00803ZM4.352 16.03C5.109 16.16 5.742 16.741 5.934 17.487C6.06521 17.9794 6.00313 18.5033 5.7605 18.9514C5.51786 19.3995 5.11304 19.7378 4.629 19.897C4.13385 20.0621 3.59364 20.0258 3.125 19.796C2.84806 19.6622 2.60567 19.4664 2.41663 19.2238C2.2276 18.9812 2.09701 18.6983 2.035 18.397C2.012 18.288 2.012 18.241 2.012 17.999C2.012 17.757 2.012 17.709 2.035 17.601C2.11383 17.2191 2.30206 16.8684 2.57674 16.5916C2.85142 16.3147 3.2007 16.1238 3.582 16.042C3.824 15.992 4.094 15.987 4.352 16.03Z" fill="currentColor"/>
</svg>
