<svg width="24" height="24" viewBox="0 0 24 24" fill="none" xmlns="http://www.w3.org/2000/svg">
<g clip-path="url(#clip0_2538_39788)">
<path d="M15.668 0.00797299C14.3138 0.0616676 12.9956 0.459014 11.8373 1.16262C10.679 1.86623 9.7188 2.85296 9.047 4.02997C8.469 5.04197 8.141 6.11197 8.023 7.34997C8.00027 7.8031 8.00294 8.25714 8.031 8.70997C8.094 9.35797 8.219 9.95597 8.406 10.526C8.48 10.753 8.606 11.073 8.668 11.214L8.703 11.288L4.465 15.53C-0.113 20.113 0.152 19.84 0.07 20.047C-0.004 20.238 0 20.199 0 21.703C0 23.219 -1.27329e-10 23.188 0.074 23.375C0.127926 23.5053 0.209071 23.6226 0.312 23.719C0.453087 23.8569 0.633263 23.9481 0.828 23.98C0.98 24.008 3.602 24.008 3.758 23.98C3.891 23.957 4.02 23.906 4.133 23.832C4.238 23.766 4.523 23.492 4.633 23.359C4.71646 23.2451 4.78096 23.1184 4.824 22.984C4.848 22.891 4.859 22.664 4.84 22.562C4.80445 22.4226 4.76409 22.2845 4.719 22.148C4.594 21.778 4.582 21.723 4.582 21.57C4.582 21.055 5 20.617 5.52 20.582C5.676 20.57 5.773 20.594 6.125 20.707C6.492 20.828 6.508 20.832 6.629 20.847C6.824 20.871 7.074 20.817 7.25 20.707C7.36 20.641 7.535 20.477 7.633 20.359C7.707 20.262 7.793 20.094 7.824 19.984C7.848 19.891 7.859 19.664 7.84 19.562C7.80445 19.4226 7.76409 19.2845 7.719 19.148C7.594 18.778 7.582 18.723 7.582 18.57C7.582 18.055 8 17.617 8.52 17.582C8.676 17.57 8.773 17.594 9.125 17.707C9.492 17.828 9.508 17.832 9.629 17.847C9.84496 17.865 10.0613 17.8176 10.25 17.711C10.332 17.661 10.457 17.539 11.527 16.477L12.711 15.297L12.785 15.332C13.3019 15.5538 13.84 15.7227 14.391 15.836C14.8714 15.9358 15.3604 15.988 15.851 15.992C16.261 16 16.523 15.988 16.898 15.949C17.9869 15.8283 19.0393 15.4847 19.9896 14.9397C20.94 14.3947 21.7679 13.6598 22.422 12.781C23.45 11.3927 24.0032 9.7101 23.9996 7.98266C23.996 6.25523 23.4358 4.57494 22.402 3.19097C21.9558 2.60352 21.4332 2.07822 20.848 1.62897C19.602 0.686973 18.195 0.155973 16.605 0.022973C16.457 0.011973 15.785 -2.70074e-05 15.668 0.00797299ZM16.453 4.02297C17.2221 4.10976 17.9495 4.41789 18.547 4.90997C18.695 5.03497 18.934 5.26997 19.067 5.42597C19.6339 6.1039 19.9611 6.95004 19.9978 7.833C20.0345 8.71595 19.7787 9.58633 19.27 10.309C18.9115 10.8166 18.4394 11.2335 17.8913 11.5264C17.3432 11.8192 16.7342 11.9801 16.113 11.996C15.1594 12.0249 14.2268 11.7117 13.484 11.113C13.2669 10.9329 13.0671 10.7331 12.887 10.516C12.4959 10.0308 12.2233 9.46109 12.0911 8.8521C11.9588 8.24312 11.9704 7.61168 12.125 7.00797C12.3252 6.22245 12.7598 5.51652 13.3711 4.98416C13.9825 4.4518 14.7414 4.11827 15.547 4.02797C15.637 4.01597 15.742 4.00397 15.785 4.00397C16.0079 3.99904 16.2308 4.00571 16.453 4.02397V4.02297Z" fill="currentColor"/>
</g>
<defs>
<clipPath id="clip0_2538_39788">
<rect width="24" height="24" fill="white"/>
</clipPath>
</defs>
</svg>
