<svg width="24" height="24" viewBox="0 0 24 24" fill="none" xmlns="http://www.w3.org/2000/svg">
<path d="M11.645 0.933893C11.2797 0.949908 10.9158 0.987642 10.555 1.04689C9.7251 1.18779 8.92068 1.45099 8.168 1.82789C7.08731 2.36941 6.14621 3.15309 5.418 4.11789C4.64711 5.13774 4.16895 6.34851 4.035 7.61989C4.00838 7.99696 4.00337 8.37525 4.02 8.75289C4.1192 10.216 4.67536 11.6109 5.61 12.7409C6.012 13.2369 6.328 13.7369 6.512 14.1789C6.574 14.3189 6.656 14.5649 6.688 14.6789L6.707 14.7649H17.293L17.316 14.6789C17.328 14.6319 17.359 14.5259 17.386 14.4399C17.527 14.0379 17.726 13.6509 18.036 13.2179C18.145 13.0619 18.184 13.0069 18.476 12.6359C18.781 12.2489 19.031 11.8539 19.25 11.4129C19.745 10.4503 19.9996 9.38224 19.992 8.29989C19.992 7.86989 19.965 7.54989 19.898 7.15089C19.555 5.13089 18.313 3.33089 16.465 2.18289C15.332 1.47589 14.035 1.05789 12.641 0.947893C12.3092 0.933372 11.9771 0.92937 11.645 0.933893ZM13.992 3.22689C14.793 3.33589 15.449 3.60889 16.066 4.08589C16.234 4.21489 16.566 4.54589 16.696 4.71089C17.0815 5.19817 17.3344 5.77693 17.43 6.39089C17.457 6.58989 17.469 6.99589 17.45 7.20289C17.422 7.48789 17.34 7.85889 17.273 7.99289C17.102 8.33589 16.656 8.48389 16.227 8.34289C16.157 8.31989 15.734 8.10189 14.793 7.59789L12.195 6.21489C11.496 5.84389 10.887 5.51489 10.835 5.48489C10.688 5.39697 10.5659 5.27308 10.48 5.12489C10.4214 5.01991 10.392 4.9011 10.395 4.78089C10.395 4.53089 10.496 4.37889 10.828 4.11289C11.468 3.60189 12.238 3.29289 13.102 3.21089C13.3987 3.19867 13.6959 3.20401 13.992 3.22689ZM6.516 15.7099C6.39421 15.7355 6.28218 15.7951 6.19296 15.8818C6.10373 15.9686 6.04098 16.0789 6.012 16.1999C5.984 16.3399 6.02 16.5739 6.094 16.7539C6.176 16.9539 6.364 17.1799 6.551 17.3009C6.707 17.4059 6.891 17.4769 7.101 17.5229C7.191 17.5389 16.508 17.5509 16.754 17.5309C16.926 17.5199 17.039 17.4959 17.176 17.4409C17.574 17.2929 17.871 16.9649 17.965 16.5739C17.9968 16.4516 18.0046 16.3242 17.988 16.1989C17.958 16.0775 17.8944 15.967 17.8046 15.88C17.7148 15.793 17.6023 15.733 17.48 15.7069C17.36 15.6839 6.633 15.6839 6.516 15.7109V15.7099ZM7.48 18.4839C7.33824 18.5261 7.21291 18.611 7.121 18.7269C7.07269 18.7923 7.03783 18.8666 7.01844 18.9456C6.99904 19.0245 6.99549 19.1066 7.008 19.1869C7.07 19.7299 7.465 20.1479 8.055 20.2809C8.133 20.3009 8.48 20.3009 11.925 20.3049C14.605 20.3089 15.742 20.3049 15.825 20.2969C16.121 20.2619 16.402 20.1369 16.617 19.9369C16.926 19.6519 17.074 19.1759 16.957 18.8589C16.895 18.6909 16.711 18.5389 16.516 18.4839C16.418 18.4609 7.574 18.4609 7.48 18.4839ZM8.004 21.2189C8.004 21.2389 8.168 21.4689 8.27 21.5979C8.39 21.7459 8.684 22.0389 8.844 22.1639C9.332 22.5589 9.934 22.8399 10.554 22.9729C10.964 23.0629 11.176 23.0779 12.114 23.0699C12.954 23.0659 13.016 23.0619 13.391 22.9839C14.0382 22.8564 14.6453 22.5752 15.161 22.1639C15.328 22.0269 15.637 21.7189 15.766 21.5509C15.883 21.3979 16.004 21.2269 15.996 21.2149C15.992 21.2149 15.926 21.2149 15.848 21.2229C15.684 21.2379 8.102 21.2299 8.043 21.2189C8.02 21.2109 8.004 21.2149 8.004 21.2189Z" fill="currentColor"/>
</svg>
