<svg width="24" height="24" viewBox="0 0 24 24" fill="none" xmlns="http://www.w3.org/2000/svg">
<path d="M11.625 0.0122127C10.7357 0.0683381 9.87012 0.321823 9.09105 0.754256C8.31198 1.18669 7.639 1.78721 7.121 2.51221C6.5642 3.28451 6.20226 4.17992 6.066 5.12221C6.004 5.52321 6.008 5.42621 6.004 7.78921L6 9.99221L5.898 10.0002C5.70322 10.0113 5.50903 10.031 5.316 10.0592C4.496 10.1992 3.758 10.5822 3.176 11.1682C2.5422 11.7943 2.13839 12.616 2.03 13.5002C2.01 13.6482 2.01 13.8282 2.01 16.9962C2.01 20.5362 2.007 20.3832 2.061 20.7072C2.198 21.4772 2.565 22.2032 3.116 22.7732C3.77041 23.4548 4.64518 23.8824 5.585 23.9802C5.792 24.0002 18.206 24.0002 18.417 23.9802C19.306 23.8863 20.1379 23.4973 20.78 22.8752C21.4801 22.2015 21.9082 21.294 21.983 20.3252C21.991 20.2232 21.995 19.1052 21.991 16.8982C21.987 13.2892 21.995 13.5862 21.917 13.1992C21.7507 12.3695 21.3244 11.6143 20.6999 11.0432C20.0754 10.4722 19.2852 10.1149 18.444 10.0232C18.308 10.0032 17.924 10.0032 13.151 10.0002L8.003 9.99621V7.87121C8.003 6.07821 8.007 5.72321 8.023 5.58621C8.11702 4.65415 8.53745 3.78532 9.21 3.13321C9.85376 2.50537 10.6906 2.1132 11.585 2.02021C11.795 2.00021 12.206 2.00021 12.413 2.02021C13.2579 2.11042 14.0524 2.46643 14.6821 3.037C15.3118 3.60756 15.7442 4.36324 15.917 5.19521C15.964 5.42521 15.983 5.59421 15.995 5.88321C16.007 6.17621 16.026 6.27321 16.093 6.41821C16.151 6.54321 16.213 6.62821 16.315 6.72321C16.425 6.82421 16.554 6.90321 16.698 6.95321C16.804 6.98821 16.819 6.98821 16.991 6.98821C17.206 6.98821 17.292 6.96821 17.46 6.88321C17.6503 6.78698 17.803 6.63003 17.894 6.43721C17.991 6.24221 18.011 6.06221 17.987 5.67221C17.9479 4.91656 17.7649 4.1753 17.448 3.48821C16.8481 2.19748 15.8119 1.15988 14.522 0.558213C13.911 0.273203 13.256 0.0939898 12.585 0.0282127C12.2652 0.00537094 11.9444 2.96351e-05 11.624 0.0122127H11.625ZM15.246 16.0272C15.4245 16.0731 15.5869 16.1674 15.7152 16.2998C15.8435 16.4321 15.9327 16.5973 15.973 16.7772C15.9968 16.8638 16.0036 16.9541 15.993 17.0432C15.9963 17.1352 15.9814 17.227 15.949 17.3132C15.8942 17.4791 15.7968 17.6277 15.6666 17.7442C15.5364 17.8608 15.3779 17.9411 15.207 17.9772C15.102 18.0002 15 18.0002 12 18.0002C8.984 18.0002 8.898 18.0002 8.79 17.9772C8.62028 17.9407 8.46299 17.8607 8.33359 17.745C8.20419 17.6292 8.10714 17.4818 8.052 17.3172C8.012 17.1992 8.012 17.1952 8.012 17.0072C8.012 16.7932 8.023 16.7302 8.098 16.5702C8.246 16.2662 8.535 16.0502 8.863 16.0082C8.903 16.0042 10.336 16.0002 12.047 16.0002H15.16L15.246 16.0272Z" fill="currentColor"/>
</svg>
