<svg width="24" height="24" viewBox="0 0 24 24" fill="none" xmlns="http://www.w3.org/2000/svg">
<path d="M2.727 0.0117705C2.00755 0.0790388 1.337 0.405252 0.84 0.929771C0.39711 1.38258 0.112007 1.96611 0.027 2.59377C-0.003 2.80377 -0.003 3.19077 0.027 3.40177C0.102 3.91777 0.301 4.39777 0.613 4.81577C0.723 4.96077 0.945 5.19077 1.098 5.31277C1.55127 5.68622 2.10431 5.91821 2.68836 5.9799C3.27241 6.0416 3.86171 5.93027 4.383 5.65977C5.01776 5.32698 5.51437 4.78042 5.785 4.11677L5.832 3.99677H18.168L18.218 4.11677C18.4065 4.58288 18.7091 4.99414 19.098 5.31277C20.004 6.06277 21.273 6.21077 22.324 5.68777C22.6213 5.54625 22.8901 5.35135 23.117 5.11277C23.387 4.84777 23.527 4.64777 23.691 4.31577C23.793 4.10877 23.844 3.97277 23.902 3.76177C23.972 3.49177 23.992 3.31577 23.992 2.99977C23.992 2.68377 23.972 2.50777 23.902 2.23777C23.8502 2.04937 23.7809 1.86623 23.695 1.69077C23.5548 1.38753 23.3587 1.11342 23.117 0.882771C22.8899 0.645737 22.6211 0.45252 22.324 0.312771C21.9541 0.129515 21.5502 0.024829 21.1378 0.00530117C20.7254 -0.0142266 20.3135 0.0518272 19.9279 0.199304C19.5423 0.346782 19.1914 0.572489 18.8973 0.862217C18.6032 1.15195 18.3722 1.49942 18.219 1.88277L18.168 2.00277H5.832L5.785 1.88277C5.67014 1.6044 5.51627 1.34379 5.328 1.10877C5.17271 0.926887 4.99988 0.760751 4.812 0.61277C4.41131 0.307777 3.94006 0.108959 3.442 0.0347705C3.20481 0.00601827 2.96555 -0.00167845 2.727 0.0117705ZM2.727 9.01177C2.14599 9.0707 1.59344 9.29255 1.133 9.65177C0.945131 9.81429 0.771191 9.99224 0.613 10.1838C0.302564 10.5972 0.101055 11.0821 0.027 11.5938C-0.003 11.8038 -0.003 12.1908 0.027 12.4018C0.102 12.9178 0.301 13.3978 0.613 13.8158C0.723 13.9608 0.945 14.1908 1.098 14.3118C1.54541 14.6807 2.09025 14.9118 2.66643 14.9771C3.24261 15.0424 3.82537 14.9391 4.344 14.6798C4.672 14.5118 4.902 14.3398 5.164 14.0698C5.43458 13.7903 5.64702 13.4599 5.789 13.0978L5.832 12.9958H6.622C7.438 12.9958 7.613 13.0038 7.859 13.0428C8.30786 13.1196 8.73329 13.2977 9.10291 13.5637C9.47254 13.8297 9.77661 14.1765 9.992 14.5778C10.027 14.6408 10.516 15.6838 11.082 16.8978C11.652 18.1128 12.148 19.1758 12.192 19.2618C12.5597 19.9849 13.0977 20.6077 13.7597 21.0765C14.4217 21.5453 15.1878 21.8461 15.992 21.9528C16.27 21.9928 16.426 21.9958 17.293 21.9958H18.172L18.203 22.0858C18.25 22.2068 18.383 22.4688 18.461 22.5978C18.676 22.9378 18.996 23.2658 19.332 23.4918C20.222 24.0858 21.372 24.1638 22.324 23.6868C22.6212 23.5456 22.89 23.351 23.117 23.1128C23.387 22.8478 23.527 22.6478 23.691 22.3158C23.832 22.0228 23.918 21.7578 23.969 21.4378C24 21.2228 24.004 20.8078 23.973 20.5938C23.8989 20.0821 23.6974 19.5972 23.387 19.1838C23.217 18.9748 23.026 18.7838 22.817 18.6138C22.3246 18.2412 21.73 18.0283 21.113 18.0038C20.3974 17.9808 19.6965 18.2101 19.133 18.6518C18.9683 18.7898 18.8155 18.9413 18.676 19.1048C18.4812 19.3513 18.322 19.624 18.203 19.9148L18.172 20.0038H17.379C16.941 20.0038 16.519 19.9958 16.434 19.9918C15.9304 19.9546 15.4442 19.7913 15.0203 19.5169C14.5963 19.2426 14.2482 18.866 14.008 18.4218C13.973 18.3588 13.484 17.3118 12.914 16.0938C12.5471 15.2996 12.1747 14.5079 11.797 13.7188C11.6939 13.5139 11.5763 13.3168 11.445 13.1288C11.395 13.0588 11.359 12.9998 11.359 12.9998C11.363 12.9998 12.895 12.9958 14.766 12.9958H18.168L18.218 13.1168C18.375 13.5068 18.602 13.8438 18.902 14.1368C19.3449 14.572 19.9122 14.8587 20.5253 14.9573C21.1384 15.0558 21.767 14.9613 22.324 14.6868C22.6212 14.5456 22.89 14.351 23.117 14.1128C23.387 13.8478 23.527 13.6478 23.691 13.3158C23.793 13.1088 23.844 12.9728 23.902 12.7618C23.972 12.4918 23.992 12.3158 23.992 11.9998C23.992 11.6838 23.972 11.5078 23.902 11.2378C23.8502 11.0494 23.7809 10.8662 23.695 10.6908C23.5548 10.3875 23.3587 10.1134 23.117 9.88277C22.8899 9.64574 22.6211 9.45252 22.324 9.31277C21.7674 9.03775 21.1391 8.94256 20.526 9.04039C19.9129 9.13821 19.3454 9.4242 18.902 9.85877C18.602 10.1558 18.375 10.4918 18.215 10.8868C18.184 10.9728 18.16 11.0068 18.148 11.0068L5.832 11.0038L5.797 10.9138C5.72359 10.737 5.63736 10.5659 5.539 10.4018C5.36397 10.1354 5.15221 9.89499 4.91 9.68777C4.48864 9.34086 3.98084 9.11513 3.441 9.03477C3.20414 9.00608 2.96521 8.99838 2.727 9.01177ZM2.727 18.0118C2.23104 18.0583 1.75443 18.2274 1.34 18.5038C0.989118 18.7346 0.691013 19.037 0.465246 19.3912C0.239479 19.7453 0.0911523 20.1432 0.03 20.5588C-0.00509055 20.8517 -0.00509055 21.1478 0.03 21.4408C0.0913472 21.8522 0.237737 22.2464 0.459839 22.5981C0.681941 22.9499 0.974884 23.2515 1.32 23.4838C1.69845 23.7391 2.13003 23.9049 2.58206 23.9686C3.03409 24.0324 3.49471 23.9924 3.929 23.8518C4.929 23.5318 5.694 22.6918 5.925 21.6678C5.975 21.4298 5.991 21.2808 5.991 20.9998C5.991 20.7188 5.976 20.5698 5.925 20.3318C5.698 19.3318 4.964 18.5078 3.995 18.1678C3.69359 18.0628 3.37715 18.0074 3.058 18.0038C2.933 18.0038 2.785 18.0038 2.727 18.0118Z" fill="currentColor"/>
</svg>
