<svg width="24" height="24" viewBox="0 0 24 24" fill="none" xmlns="http://www.w3.org/2000/svg">
<path d="M12.172 2.47693C12.102 2.48793 11.848 2.52293 11.609 2.55893C11.371 2.59393 10.605 2.70693 9.91 2.81193C9.21 2.91393 8.2 3.06593 7.66 3.14793C7.117 3.22693 6.355 3.33993 5.965 3.39793C5.02 3.53893 4.898 3.56193 4.613 3.65193C3.72618 3.94863 2.97601 4.55502 2.5 5.35993C2.33016 5.64754 2.19521 5.95437 2.098 6.27393C2.07 6.36793 2.047 6.44593 2.047 6.45393C2.0189 6.4794 1.98724 6.50063 1.953 6.51693C0.555 7.33993 -0.207 8.98793 0.055 10.6479C0.14166 11.2243 0.353317 11.7747 0.675138 12.2606C0.996958 12.7466 1.42116 13.1562 1.918 13.4609L2.043 13.5349L2.086 13.6839C2.191 14.0539 2.367 14.4409 2.574 14.7579C2.62191 14.8252 2.65778 14.9004 2.68 14.9799L3.566 18.4339C4.039 20.2739 4.446 21.8239 4.465 21.8829C4.688 22.5079 5.235 22.9959 5.859 23.1329C6.133 23.1909 6.399 23.1879 6.668 23.1289C7.01891 23.0452 7.33973 22.8658 7.59482 22.6108C7.84992 22.3557 8.02928 22.0348 8.113 21.6839C8.15946 21.5161 8.17936 21.342 8.172 21.1679C8.172 21.0199 8.168 20.9259 8.152 20.8439C8.141 20.7809 7.902 19.8399 7.625 18.7539C7.344 17.6639 7.117 16.7739 7.117 16.7739L8.645 16.9999C9.48 17.1249 10.613 17.2929 11.156 17.3709C11.703 17.4529 12.219 17.5269 12.312 17.5349C12.5 17.5469 12.766 17.5349 12.969 17.4959C13.989 17.3129 14.844 16.5629 15.188 15.5509C15.32 15.1709 15.352 14.9409 15.363 14.3159L15.371 13.8709L15.539 13.8159C15.899 13.6989 16.149 13.5779 16.453 13.3749C17.2351 12.8558 17.808 12.0763 18.07 11.1749C18.125 10.9919 18.176 10.7379 18.207 10.5229C18.2382 10.1736 18.2382 9.82224 18.207 9.47293C18.1481 9.02042 18.0146 8.5808 17.812 8.17193C17.6206 7.77474 17.3617 7.41373 17.047 7.10493C16.6064 6.6645 16.0646 6.33867 15.469 6.15593L15.367 6.12493L15.359 5.67493C15.352 5.18793 15.339 5.04293 15.285 4.79293C15.192 4.35534 15.002 3.94422 14.7289 3.58992C14.4557 3.23562 14.1065 2.94719 13.707 2.74593C13.4494 2.61979 13.1743 2.53283 12.891 2.48793C12.6518 2.46275 12.4108 2.45907 12.171 2.47693H12.172ZM12.715 4.48793C13.055 4.57393 13.332 4.86793 13.415 5.22693C13.434 5.30893 13.438 5.55893 13.438 10.0069V14.6999L13.41 14.8019C13.3741 14.9348 13.3116 15.0591 13.2263 15.1672C13.1411 15.2753 13.0348 15.365 12.914 15.4309C12.7984 15.4969 12.6681 15.533 12.535 15.5359C12.41 15.5439 12.34 15.5319 11.223 15.3639L7.828 14.8599C7.03602 14.7437 6.24435 14.6254 5.453 14.5049C5.27951 14.4759 5.11111 14.422 4.953 14.3449C4.403 14.0789 4.012 13.5669 3.875 12.9309L3.852 12.8009L3.848 10.0669C3.844 8.11393 3.848 7.29693 3.855 7.21993C3.953 6.39593 4.555 5.69993 5.328 5.52393C5.387 5.50893 5.699 5.45793 6.023 5.41093C6.348 5.36093 7.109 5.24693 7.719 5.15693C9.28206 4.92117 10.8457 4.68951 12.41 4.46193C12.48 4.45393 12.621 4.46493 12.715 4.48793ZM15.461 8.33193C16.191 8.83593 16.5 9.80093 16.211 10.6599C16.0684 11.0983 15.7769 11.473 15.387 11.7189L15.363 11.7299V9.99993C15.363 9.04993 15.367 8.27293 15.371 8.27293C15.375 8.27293 15.414 8.30093 15.461 8.33193ZM21.82 2.50793C21.648 2.53493 21.59 2.56593 20.855 3.00793L19.945 3.55093C19.648 3.73093 19.523 3.85493 19.422 4.07393C19.301 4.33593 19.301 4.66393 19.422 4.92593C19.532 5.15993 19.73 5.34793 19.953 5.43693C20.1851 5.52347 20.4419 5.51521 20.668 5.41393C21.3004 5.04867 21.9255 4.67093 22.543 4.28093C22.695 4.16093 22.824 3.96493 22.879 3.76593C22.8999 3.67755 22.9076 3.58657 22.902 3.49593C22.9097 3.40253 22.8995 3.30851 22.872 3.21893C22.8345 3.08597 22.7699 2.96219 22.6823 2.85533C22.5947 2.74848 22.486 2.66085 22.363 2.59793C22.1934 2.51971 22.0058 2.48862 21.82 2.50793ZM20.012 9.01193C19.8432 9.04171 19.6854 9.11557 19.5544 9.22604C19.4233 9.3365 19.3239 9.47963 19.266 9.64093C19.2198 9.75854 19.1997 9.88478 19.207 10.0109C19.207 10.4689 19.5 10.8509 19.934 10.9729L20.035 10.9959H22.215L22.309 10.9729C22.5196 10.9155 22.7051 10.7894 22.8359 10.6145C22.9667 10.4397 23.0353 10.2262 23.031 10.0079C23.0382 9.9186 23.0304 9.8287 23.008 9.74193C22.9624 9.55704 22.8639 9.38948 22.7244 9.2598C22.585 9.13012 22.4107 9.04398 22.223 9.01193C21.4861 8.99631 20.7489 8.99631 20.012 9.01193ZM20.164 14.5079C19.9806 14.5368 19.8092 14.617 19.6695 14.7393C19.5299 14.8616 19.4278 15.021 19.375 15.1989C19.25 15.5979 19.398 16.0659 19.723 16.3049C20.3507 16.6963 20.9861 17.075 21.629 17.4409C21.7476 17.4843 21.8741 17.5017 22 17.4919C22.45 17.4719 22.805 17.1449 22.895 16.6799C22.9266 16.5046 22.9118 16.3241 22.8521 16.1563C22.7925 15.9884 22.6901 15.839 22.555 15.7229C21.925 15.3254 21.2869 14.941 20.641 14.5699C20.4892 14.5115 20.3257 14.4903 20.164 14.5079Z" fill="currentColor"/>
</svg>
