<svg width="24" height="24" viewBox="0 0 24 24" fill="none" xmlns="http://www.w3.org/2000/svg">
<g clip-path="url(#clip0_2538_41978)">
<path d="M2.727 0.0119125C2.23104 0.0584564 1.75443 0.227523 1.34 0.503912C0.989118 0.734745 0.691013 1.03716 0.465246 1.39133C0.239479 1.74549 0.0911523 2.14339 0.03 2.55891C-0.00509055 2.85187 -0.00509055 3.14796 0.03 3.44091C0.0913472 3.85236 0.237737 4.24652 0.459839 4.59827C0.681941 4.95002 0.974884 5.25164 1.32 5.48391C1.69094 5.73548 2.1136 5.90062 2.55683 5.96717C3.00007 6.03371 3.45258 5.99996 3.88104 5.8684C4.3095 5.73684 4.70298 5.51082 5.0325 5.207C5.36201 4.90318 5.61916 4.5293 5.785 4.11291L5.831 3.99991L6.546 4.00391C7.226 4.00391 7.269 4.00391 7.429 4.02691C7.757 4.08191 8.011 4.15991 8.304 4.30091C8.73452 4.50737 9.10923 4.81409 9.39668 5.19533C9.68414 5.57657 9.87594 6.02121 9.956 6.49191L9.991 6.65991V17.3119L9.964 17.4769C9.89541 17.89 9.742 18.2845 9.51345 18.6354C9.28489 18.9864 8.98613 19.2861 8.636 19.5159C8.491 19.6089 8.186 19.7619 8.022 19.8199C7.862 19.8789 7.628 19.9369 7.429 19.9729C7.269 19.9959 7.226 19.9959 6.546 19.9959H5.831L5.784 19.8859C5.62548 19.4886 5.38384 19.1297 5.07529 18.8334C4.76675 18.5371 4.39842 18.3102 3.995 18.1679C3.32686 17.9365 2.59884 17.9461 1.937 18.1949C1.49704 18.3645 1.1014 18.6319 0.78 18.9769C0.37 19.4409 0.124 19.9529 0.03 20.5589C-0.00509055 20.8519 -0.00509055 21.148 0.03 21.4409C0.0913472 21.8524 0.237737 22.2465 0.459839 22.5983C0.681941 22.95 0.974884 23.2516 1.32 23.4839C1.69094 23.7355 2.1136 23.9006 2.55683 23.9672C3.00007 24.0337 3.45258 24 3.88104 23.8684C4.3095 23.7368 4.70298 23.5108 5.0325 23.207C5.36201 22.9032 5.61916 22.5293 5.785 22.1129L5.831 21.9999L6.621 21.9959C7.452 21.9879 7.499 21.9839 7.858 21.9259C8.43054 21.8219 8.98154 21.6225 9.488 21.3359C10.1123 20.9761 10.6517 20.486 11.0695 19.8989C11.4873 19.3118 11.7736 18.6416 11.909 17.9339C11.995 17.4769 11.999 17.4179 11.999 15.0739V12.9959H18.995L18.999 13.8669C19.003 14.8169 19.003 14.7809 19.073 14.9609C19.1451 15.1376 19.2663 15.29 19.4223 15.4C19.5782 15.51 19.7624 15.5732 19.953 15.5819C20.1456 15.5947 20.3375 15.5483 20.503 15.4489C20.585 15.4019 20.713 15.2769 21.968 14.0229C22.4504 13.5469 22.9271 13.0652 23.398 12.5779C23.518 12.4083 23.5825 12.2057 23.5825 11.9979C23.5825 11.7901 23.518 11.5875 23.398 11.4179C23.366 11.3829 22.722 10.7299 21.964 9.97291C20.924 8.93691 20.565 8.58591 20.514 8.55491C20.3754 8.47283 20.2189 8.4258 20.058 8.41791C19.8495 8.40561 19.6424 8.45889 19.4658 8.57026C19.2891 8.68163 19.1518 8.84551 19.073 9.03891C19.003 9.21491 19.003 9.18391 18.999 10.1329L18.995 11.0029H12V8.92691C12 6.58291 11.996 6.52091 11.91 6.06291C11.7636 5.29807 11.4411 4.57785 10.9679 3.95938C10.4947 3.34092 9.88394 2.84121 9.184 2.49991C8.67428 2.25526 8.12754 2.09678 7.566 2.03091C7.441 2.01591 7.262 2.00791 6.621 2.00391L5.832 1.99591L5.785 1.88591C5.5903 1.4012 5.27249 0.975688 4.86298 0.651413C4.45347 0.327138 3.96643 0.115327 3.45 0.0369125C3.21049 0.00786998 2.96891 -0.000160648 2.728 0.0129125L2.727 0.0119125Z" fill="currentColor"/>
</g>
<defs>
<clipPath id="clip0_2538_41978">
<rect width="24" height="24" fill="white"/>
</clipPath>
</defs>
</svg>
