<svg width="24" height="24" viewBox="0 0 24 24" fill="none" xmlns="http://www.w3.org/2000/svg">
<path d="M11.45 0.0117998C8.93596 0.121037 6.52035 1.02007 4.54662 2.58106C2.57289 4.14206 1.14151 6.28556 0.456 8.7068C0.220559 9.54202 0.0740787 10.3998 0.019 11.2658C0.00339297 11.7537 0.00339297 12.2419 0.019 12.7298C0.116 14.0898 0.374 15.2458 0.839 16.4218C1.4755 18.0396 2.45754 19.4989 3.71652 20.6977C4.9755 21.8966 6.48105 22.8061 8.128 23.3628C9.882 23.9568 11.78 24.1408 13.64 23.8868C15.4662 23.6395 17.2106 22.9735 18.737 21.9408C20.3068 20.8753 21.6027 19.4541 22.519 17.7928C22.659 17.5388 22.905 17.0348 23.022 16.7578C23.464 15.7268 23.761 14.6478 23.897 13.5508C23.972 12.9838 23.991 12.6248 23.991 12.0038C23.991 11.4728 23.983 11.2658 23.941 10.8158C23.7517 8.84676 23.0765 6.95552 21.976 5.3118C20.6849 3.39027 18.8679 1.88114 16.742 0.9648C15.6299 0.494688 14.4546 0.190767 13.254 0.0627998C12.746 0.0117998 11.923 -0.0122002 11.45 0.0117998ZM17.309 11.0468C17.4366 11.0882 17.5544 11.1553 17.6552 11.2438C17.7559 11.3324 17.8375 11.4406 17.895 11.5618C17.9645 11.6973 18.0007 11.8475 18.0007 11.9998C18.0007 12.1521 17.9645 12.3023 17.895 12.4378C17.8375 12.559 17.7559 12.6672 17.6552 12.7558C17.5544 12.8443 17.4366 12.9114 17.309 12.9528L17.199 12.9878H6.805L6.688 12.9488C6.55908 12.9067 6.44018 12.8385 6.33869 12.7486C6.2372 12.6586 6.15527 12.5487 6.098 12.4258C6.02192 12.2634 5.99044 12.0837 6.00678 11.9052C6.02313 11.7266 6.08671 11.5557 6.191 11.4098C6.332 11.2188 6.555 11.0738 6.793 11.0198C6.848 11.0078 7.801 11.0078 12.031 11.0078H17.2L17.309 11.0468Z" fill="currentColor"/>
</svg>
