<svg width="24" height="24" viewBox="0 0 24 24" fill="none" xmlns="http://www.w3.org/2000/svg">
<path d="M2.8 11.0202C2.57414 11.0671 2.37146 11.1907 2.22629 11.37C2.08112 11.5493 2.0024 11.7732 2.00346 12.0039C2.00451 12.2346 2.08529 12.4578 2.2321 12.6357C2.37891 12.8136 2.58272 12.9353 2.809 12.9802C2.941 13.0042 21.059 13.0042 21.191 12.9802C21.3862 12.9431 21.5651 12.8463 21.703 12.7032C21.831 12.5755 21.9218 12.4153 21.9658 12.2399C22.0098 12.0645 22.0052 11.8805 21.9526 11.7075C21.9 11.5345 21.8014 11.379 21.6672 11.2578C21.533 11.1365 21.3684 11.0541 21.191 11.0192C21.066 10.9962 2.921 10.9962 2.801 11.0192L2.8 11.0202Z" fill="currentColor"/>
</svg>
