<svg width="24" height="24" viewBox="0 0 24 24" fill="none" xmlns="http://www.w3.org/2000/svg">
<g clip-path="url(#clip0_2538_45315)">
<path d="M3.754 1.008C3.05549 1.04982 2.38027 1.27465 1.79612 1.65993C1.21198 2.04521 0.739458 2.57737 0.426 3.203C0.219 3.613 0.09 4.047 0.027 4.527C0.007 4.687 0.007 5.031 0.007 12.004V19.316L0.031 19.508C0.125 20.164 0.336 20.73 0.699 21.262C1.15997 21.9327 1.81386 22.4474 2.574 22.738C2.969 22.887 3.344 22.965 3.785 22.992C4.062 23.008 19.93 23.008 20.211 22.992C21.1854 22.9442 22.1084 22.5403 22.8047 21.857C23.5009 21.1736 23.922 20.2584 23.988 19.285C24.004 19.075 24.004 4.925 23.988 4.711C23.9382 4.00277 23.7011 3.3205 23.301 2.734C22.8088 2.01701 22.0955 1.48074 21.27 1.207C20.9879 1.11405 20.6971 1.05005 20.402 1.016C20.316 1.008 18.426 1.004 12.102 1C7.594 1 3.84 1.004 3.754 1.008ZM20.223 3.012C20.449 3.039 20.648 3.094 20.859 3.195C21.426 3.461 21.824 3.973 21.965 4.609L21.992 4.727V19.27L21.965 19.39C21.8947 19.7339 21.736 20.0536 21.5045 20.3175C21.2731 20.5814 20.9768 20.7805 20.645 20.895C20.585 20.915 20.473 20.945 20.391 20.961L20.246 20.992H18.02C15.906 20.992 15.785 20.992 15.668 20.972C15.2562 20.9034 14.8772 20.7051 14.586 20.406C14.4321 20.2583 14.3064 20.0838 14.215 19.891C14.1343 19.7325 14.0739 19.5645 14.035 19.391L14.012 19.27V4.727L14.035 4.609C14.1212 4.19497 14.3349 3.81832 14.6461 3.5319C14.9572 3.24549 15.3503 3.06368 15.77 3.012C17.2543 2.99638 18.7387 2.99638 20.223 3.012Z" fill="currentColor"/>
</g>
<defs>
<clipPath id="clip0_2538_45315">
<rect width="24" height="24" fill="white"/>
</clipPath>
</defs>
</svg>
