<svg width="24" height="24" viewBox="0 0 24 24" fill="none" xmlns="http://www.w3.org/2000/svg">
<g clip-path="url(#clip0_6391_5367)">
<path d="M3.754 1.008C3.05552 1.04992 2.38034 1.27479 1.79621 1.66006C1.21208 2.04533 0.739539 2.57744 0.426 3.203C0.219 3.613 0.09 4.047 0.027 4.527C0.007 4.687 0.007 5.031 0.007 12.004V19.316L0.031 19.508C0.125 20.164 0.336 20.73 0.699 21.262C1.15927 21.9333 1.81338 22.4482 2.574 22.738C2.969 22.887 3.344 22.965 3.785 22.992C4.062 23.008 19.93 23.008 20.211 22.992C21.1855 22.9445 22.1086 22.5406 22.8049 21.8572C23.5012 21.1738 23.9222 20.2584 23.988 19.285C24.004 19.075 24.004 4.925 23.988 4.711C23.9385 4.00271 23.7014 3.32035 23.301 2.734C22.808 2.01778 22.095 1.48172 21.27 1.207C20.9879 1.1142 20.697 1.05021 20.402 1.016C20.316 1.008 18.426 1.004 12.102 1C7.594 1 3.84 1.004 3.754 1.008ZM8.223 3.012C8.449 3.039 8.648 3.094 8.859 3.195C9.426 3.461 9.824 3.973 9.965 4.609L9.992 4.727V19.27L9.965 19.39C9.89471 19.7339 9.73602 20.0536 9.50455 20.3175C9.27308 20.5814 8.97683 20.7805 8.645 20.895C8.585 20.915 8.473 20.945 8.391 20.961L8.246 20.992H6.02C3.906 20.992 3.785 20.992 3.668 20.972C3.25626 20.9034 2.8772 20.7051 2.586 20.406C2.4328 20.2577 2.30718 20.0833 2.215 19.891C2.13407 19.7326 2.07359 19.5646 2.035 19.391L2.012 19.27V4.727L2.035 4.609C2.12122 4.19497 2.3349 3.81832 2.64606 3.5319C2.95723 3.24549 3.35026 3.06368 3.77 3.012C5.25429 2.99641 6.73871 2.99641 8.223 3.012Z" fill="currentColor"/>
</g>
<defs>
<clipPath id="clip0_6391_5367">
<rect width="24" height="24" fill="white"/>
</clipPath>
</defs>
</svg>
