<svg width="24" height="24" viewBox="0 0 24 24" fill="none" xmlns="http://www.w3.org/2000/svg">
<path d="M18.133 1.06594C17.2818 1.12445 16.4715 1.45306 15.82 2.00394C15.777 2.03894 15.371 2.41394 14.914 2.83994C14.098 3.60194 14.086 3.61294 14.094 3.64794C14.164 3.97694 14.461 4.66394 14.73 5.12494C15.707 6.78894 17.328 8.40994 18.937 9.32494C19.203 9.47694 19.84 9.77294 19.898 9.77294C19.918 9.77294 21.59 8.20694 21.688 8.10194C22.191 7.53894 22.516 6.90194 22.66 6.19194C22.7176 5.92907 22.7401 5.65973 22.727 5.39094C22.727 5.05494 22.723 4.98794 22.703 4.83994C22.6413 4.40878 22.5096 3.9906 22.313 3.60194C22.078 3.13694 21.852 2.83994 21.332 2.33194C20.98 1.98394 20.766 1.81194 20.449 1.62194C19.9461 1.32544 19.3855 1.13995 18.805 1.07794C18.5815 1.05849 18.357 1.05448 18.133 1.06594ZM8.738 8.58994C7.4458 9.78675 6.15813 10.9884 4.875 12.1949C4.355 12.7349 3.992 13.4249 3.844 14.1599C3.828 14.2269 3.676 15.2729 3.5 16.4879C3.152 18.9139 3.16 18.8709 3.207 19.0579C3.328 19.5079 3.715 19.8159 4.164 19.8159C4.258 19.8159 4.777 19.7459 6.574 19.4879C7.836 19.3079 8.918 19.1519 8.984 19.1369C9.6274 19.0034 10.2291 18.7166 10.738 18.3009C10.855 18.2029 18.297 11.2809 18.301 11.2659C18.301 11.2579 18.223 11.2149 18.125 11.1599C17.445 10.7999 16.637 10.2339 15.922 9.61294C15.3579 9.11543 14.8293 8.57912 14.34 8.00794C13.7951 7.37269 13.3135 6.68577 12.902 5.95694C12.7676 5.71173 12.6426 5.46155 12.527 5.20694C12.5146 5.17279 12.4989 5.13996 12.48 5.10894C12.477 5.10894 10.793 6.67594 8.738 8.58894V8.58994ZM2.879 22.0079C2.73 22.0229 2.559 22.0899 2.426 22.1799C2.21888 22.3312 2.07526 22.5539 2.023 22.8049C1.996 22.9339 2.003 23.1479 2.039 23.2729C2.133 23.6019 2.387 23.8549 2.727 23.9609L2.832 23.9919H21.172L21.277 23.9609C21.613 23.8549 21.867 23.6009 21.961 23.2729C21.9969 23.1196 22.0036 22.9608 21.981 22.8049C21.9395 22.5958 21.832 22.4056 21.6743 22.2621C21.5166 22.1186 21.3171 22.0296 21.105 22.0079C20.985 21.9919 3 21.9959 2.879 22.0079Z" fill="currentColor"/>
</svg>
