<svg width="24" height="24" viewBox="0 0 24 24" fill="none" xmlns="http://www.w3.org/2000/svg">
<g clip-path="url(#clip0_3869_7785)">
<path d="M6.398 0.0119062C5.71125 0.0659686 5.05032 0.297533 4.48 0.683906C4.24717 0.837531 4.03247 1.01701 3.84 1.21891C3.531 1.53491 3.277 1.89891 3.098 2.28091C3.016 2.46091 1.078 7.30491 1.039 7.42991C0.922 7.82791 0.926 8.24591 1.063 8.63991C1.109 8.78091 1.23 9.02691 1.32 9.15191C1.367 9.21491 1.469 9.33191 1.555 9.41791C1.84 9.70291 2.148 9.87091 2.566 9.96491L2.691 9.98791H21.313L21.433 9.96491C21.8186 9.88784 22.1724 9.69736 22.449 9.41791C22.629 9.23391 22.73 9.09791 22.832 8.88691C23.0645 8.43698 23.1108 7.91369 22.961 7.42991C22.921 7.30491 20.984 2.45991 20.902 2.28091C20.7645 2.00015 20.5983 1.7344 20.406 1.48791C20.2205 1.2745 20.0196 1.07497 19.805 0.890906C19.2182 0.417469 18.5104 0.118129 17.762 0.0269063C17.629 0.00690625 17.18 0.00690625 12.07 0.00390625C9.02 0.00390625 6.465 0.00790625 6.398 0.0119062ZM18.184 4.00791C18.539 4.04291 18.875 4.16391 19.16 4.36791C19.3 4.46791 19.531 4.69491 19.633 4.83991C19.727 4.97291 19.848 5.21491 19.898 5.35991C19.9815 5.61038 20.0149 5.87487 19.9962 6.13825C19.9775 6.40163 19.9071 6.65875 19.789 6.89491C19.6946 7.08689 19.5677 7.26112 19.414 7.40991C19.1511 7.68123 18.8141 7.86906 18.445 7.94991C17.9929 8.05516 17.5181 7.9967 17.105 7.78491C16.9114 7.69323 16.7367 7.56603 16.59 7.40991C16.4339 7.26321 16.3067 7.08852 16.215 6.89491C16.0952 6.65918 16.0235 6.40197 16.0041 6.13826C15.9847 5.87456 16.018 5.60963 16.102 5.35891C16.148 5.21891 16.273 4.97291 16.367 4.83891C16.469 4.69491 16.695 4.46891 16.84 4.36691C17.232 4.09311 17.7077 3.9667 18.184 4.00791ZM2.242 12.0119C1.891 12.0619 1.582 12.3119 1.457 12.6449C1.332 12.9649 1.227 13.3439 1.187 13.6019C1.164 13.7619 1.16 14.2069 1.184 14.3669C1.277 15.0619 1.574 15.6519 2.063 16.1369C2.527 16.5969 3.105 16.8789 3.785 16.9769C3.925 16.9969 4.32 16.9969 12 16.9969C19.684 16.9969 20.074 16.9969 20.215 16.9769C20.902 16.8789 21.465 16.6049 21.938 16.1369C22.289 15.7952 22.5503 15.3723 22.6987 14.9055C22.8471 14.4387 22.8782 13.9425 22.789 13.4609C22.7196 13.1519 22.6257 12.8489 22.508 12.5549C22.238 12.0269 21.563 11.8399 21.074 12.1599C20.9415 12.2447 20.831 12.3597 20.7516 12.4955C20.6721 12.6312 20.626 12.7839 20.617 12.9409C20.609 13.0979 20.625 13.1949 20.727 13.4999C20.832 13.8279 20.84 13.8749 20.832 14.0469C20.8315 14.1802 20.7993 14.3115 20.738 14.4299C20.668 14.5659 20.582 14.6799 20.48 14.7659C20.3609 14.8561 20.2278 14.926 20.086 14.9729C20.012 14.9929 19.719 14.9929 12.055 14.9959C6.16 14.9999 4.075 14.9959 4.012 14.9879C3.85182 14.9637 3.70003 14.9005 3.56997 14.8039C3.4399 14.7073 3.33552 14.5802 3.266 14.4339C3.20207 14.3149 3.16841 14.182 3.168 14.0469C3.16 13.8749 3.168 13.8279 3.278 13.4999C3.371 13.2029 3.395 13.0899 3.383 12.9339C3.37396 12.7965 3.33657 12.6624 3.27319 12.5402C3.20982 12.4179 3.12182 12.3101 3.01474 12.2235C2.90766 12.1369 2.78382 12.0734 2.651 12.037C2.51819 12.0005 2.37827 11.992 2.242 12.0119ZM2.277 19.0079C1.949 19.0429 1.645 19.2579 1.497 19.5509C1.445 19.6559 1.273 20.1709 1.238 20.3399C1.18 20.5859 1.168 20.7189 1.168 20.9919C1.168 21.2579 1.176 21.3589 1.218 21.5859C1.332 22.1449 1.602 22.6639 2.004 23.0779C2.27 23.3549 2.52 23.5349 2.867 23.7029C3.145 23.8359 3.398 23.9139 3.723 23.9689L3.887 23.9919H11.997C19.754 23.9919 20.109 23.9919 20.247 23.9719C21.0113 23.8679 21.7055 23.4719 22.184 22.8669C22.762 22.1409 22.973 21.1839 22.75 20.2889C22.707 20.1089 22.55 19.6449 22.5 19.5469C22.3939 19.3388 22.2179 19.1746 22.0029 19.0832C21.7879 18.9918 21.5475 18.9789 21.324 19.0469C21.0935 19.117 20.896 19.2678 20.7676 19.4716C20.6392 19.6755 20.5886 19.9188 20.625 20.1569C20.633 20.1989 20.675 20.3439 20.719 20.4799C20.82 20.7769 20.836 20.8549 20.836 20.9959C20.838 21.1285 20.8126 21.26 20.7615 21.3823C20.7104 21.5047 20.6347 21.6152 20.539 21.7069C20.4043 21.847 20.2297 21.9423 20.039 21.9799C19.926 22.0039 4.074 22.0039 3.961 21.9799C3.7362 21.9322 3.53452 21.8089 3.38951 21.6306C3.24451 21.4523 3.16493 21.2297 3.164 20.9999C3.164 20.8599 3.184 20.7699 3.277 20.4959C3.317 20.3709 3.359 20.2259 3.371 20.1759C3.41206 19.9354 3.36471 19.6883 3.2377 19.48C3.11068 19.2717 2.91258 19.1165 2.68 19.0429C2.61 19.0229 2.41 18.9929 2.375 18.9959C2.3427 19.0025 2.30993 19.0065 2.277 19.0079Z" fill="currentColor"/>
</g>
<defs>
<clipPath id="clip0_3869_7785">
<rect width="24" height="24" fill="white"/>
</clipPath>
</defs>
</svg>
