<svg width="24" height="24" viewBox="0 0 24 24" fill="none" xmlns="http://www.w3.org/2000/svg">
<g clip-path="url(#clip0_2538_46648)">
<path d="M11.566 0.00797164C9.79 0.0899716 8.246 0.472972 6.734 1.20997C5.00461 2.05066 3.5034 3.2959 2.35762 4.84015C1.21183 6.3844 0.45525 8.18214 0.152 10.081C0.043 10.766 0.008 11.266 0.008 12C-0.00160423 14.309 0.659119 16.5711 1.91 18.512C2.99648 20.1913 4.48385 21.5739 6.238 22.535C8.67623 23.8588 11.4958 24.303 14.223 23.793C15.7191 23.5167 17.1483 22.9559 18.433 22.141C19.5441 21.4331 20.5324 20.5488 21.359 19.523C22.831 17.6908 23.7305 15.4654 23.945 13.125C23.985 12.707 23.992 12.508 23.992 12C23.992 11.23 23.949 10.672 23.824 9.94997C23.298 6.87653 21.5939 4.12948 19.074 2.29297C17.6821 1.28183 16.0886 0.582617 14.402 0.242972C13.863 0.132972 13.406 0.0699717 12.832 0.0269716C12.4103 0.00683756 11.9881 0.000167492 11.566 0.00697164V0.00797164ZM12.828 2.03097C13.718 2.11297 14.426 2.25797 15.218 2.52297C16.8032 3.06126 18.2282 3.98815 19.363 5.21897C20.6421 6.60553 21.4999 8.3277 21.836 10.184C21.949 10.793 21.996 11.34 21.996 11.996C22.0029 14.1386 21.3194 16.2265 20.0467 17.9503C18.774 19.674 16.9798 20.9419 14.93 21.566C14.262 21.77 13.605 21.895 12.832 21.969C12.555 21.992 11.766 22.004 11.449 21.984C9.81562 21.8996 8.22847 21.4125 6.829 20.566C5.70928 19.8906 4.7323 19.003 3.953 17.953C3.05963 16.7457 2.45202 15.3513 2.176 13.875C2.109 13.535 2.059 13.152 2.023 12.75C2 12.465 2.003 11.469 2.031 11.18C2.18 9.52697 2.661 8.06997 3.504 6.70697C4.10381 5.7465 4.86185 4.89447 5.746 4.18697C7.38271 2.87723 9.39035 2.11623 11.484 2.01197C11.9321 2.00524 12.3803 2.01191 12.828 2.03197V2.03097Z" fill="currentColor"/>
<path d="M11.879 4.00797C11.73 4.02297 11.559 4.08997 11.426 4.17997C11.2724 4.29296 11.1522 4.44532 11.078 4.62097C11 4.80897 11.004 4.57097 11.004 7.94497V11.004H7.945C5.199 11.004 4.875 11.008 4.797 11.024C4.55695 11.0748 4.34324 11.2104 4.195 11.406C4.12182 11.5138 4.06644 11.6326 4.031 11.758C3.99593 11.916 3.99593 12.0799 4.031 12.238C4.06312 12.357 4.11337 12.4703 4.18 12.574C4.285 12.719 4.457 12.855 4.617 12.922C4.809 13 4.567 12.996 7.945 12.996H11.004V16.055C11.004 18.801 11.008 19.125 11.024 19.203C11.098 19.574 11.387 19.871 11.762 19.969C11.891 20.004 12.109 20.004 12.242 19.969C12.355 19.937 12.512 19.867 12.594 19.805C12.789 19.656 12.93 19.438 12.977 19.203C12.992 19.125 12.997 18.801 12.997 16.055V12.996H16.055C19.43 12.996 19.191 13 19.379 12.922C19.672 12.801 19.887 12.551 19.969 12.238C20.0041 12.0799 20.0041 11.916 19.969 11.758C19.9306 11.6064 19.8572 11.466 19.7548 11.3479C19.6523 11.2298 19.5236 11.1374 19.379 11.078C19.191 11 19.429 11.004 16.055 11.004H12.996V7.94497C12.996 4.56997 13 4.80897 12.922 4.62097C12.8539 4.45449 12.742 4.30958 12.5982 4.20164C12.4543 4.0937 12.2839 4.02677 12.105 4.00797C11.996 3.99597 11.996 3.99597 11.879 4.00797Z" fill="currentColor"/>
</g>
<defs>
<clipPath id="clip0_2538_46648">
<rect width="24" height="24" fill="white"/>
</clipPath>
</defs>
</svg>
