<svg width="24" height="24" viewBox="0 0 24 24" fill="none" xmlns="http://www.w3.org/2000/svg">
<path d="M11.793 1.0078C11.2698 1.04442 10.7654 1.21776 10.3302 1.51047C9.89494 1.80318 9.5442 2.20502 9.313 2.6758C9.207 2.8908 9.153 3.0388 9.102 3.2378C9.012 3.5858 9 3.7298 9 4.5038C9 4.9918 8.996 5.1478 8.984 5.2578C8.92888 5.67097 8.7466 6.05677 8.46243 6.36173C8.17825 6.66668 7.80626 6.87569 7.398 6.9598C7.289 6.9868 7.246 6.9868 6.512 6.9948C6.07 6.9988 5.684 7.0108 5.613 7.0188C4.83633 7.09255 4.09878 7.39418 3.493 7.8858C3.352 7.9958 2.996 8.3508 2.879 8.4958C2.38763 9.11477 2.08768 9.86376 2.016 10.6508C2 10.8388 2 19.1588 2.016 19.3468C2.086 20.1238 2.371 20.8388 2.856 21.4668C2.98 21.6268 3.336 21.9908 3.492 22.1118C3.797 22.3538 4.062 22.5148 4.398 22.6628C4.762 22.8228 5.133 22.9208 5.602 22.9828C5.746 22.9988 19.875 23.0108 20.125 22.9908C20.5958 22.9653 21.0413 22.7698 21.379 22.4408C21.645 22.1828 21.82 21.8938 21.922 21.5498C21.992 21.2918 22 21.2178 21.992 20.4288C21.988 19.6388 21.988 19.6508 21.891 19.3538C21.7788 19.028 21.5846 18.7365 21.3272 18.5074C21.0697 18.2783 20.7577 18.1194 20.421 18.0458C20.223 18.0028 20.098 17.9988 19.469 17.9988C19.109 17.9988 18.793 17.9908 18.719 17.9868C18.1455 17.9298 17.5998 17.7118 17.145 17.3578C16.9696 17.2095 16.8061 17.0477 16.656 16.8738C16.3159 16.4432 16.0974 15.9294 16.023 15.3858C15.9956 15.1285 15.9956 14.8691 16.023 14.6118C16.0938 14.0776 16.3058 13.5719 16.637 13.1468C16.817 12.9168 17.148 12.6198 17.422 12.4478C17.684 12.2838 18.074 12.1238 18.372 12.0648C18.648 12.0068 18.664 12.0068 19.465 11.9988C20.289 11.9908 20.285 11.9908 20.539 11.9248C20.8508 11.8358 21.1365 11.6729 21.3719 11.4499C21.6073 11.2269 21.7853 10.9503 21.891 10.6438C21.988 10.3468 21.988 10.3578 21.992 9.5618C22 8.7918 21.992 8.7218 21.93 8.4828C21.8394 8.14651 21.6627 7.83963 21.4174 7.59239C21.1721 7.34514 20.8666 7.16607 20.531 7.0728C20.258 6.9988 20.363 7.0028 18.465 6.9948L16.73 6.9868L16.61 6.9638C15.887 6.8038 15.324 6.3038 15.102 5.6238C15.008 5.3478 15 5.2418 15 4.4998C15 3.8828 14.992 3.7098 14.957 3.5038C14.8652 2.96663 14.6297 2.46434 14.2755 2.05023C13.9212 1.63613 13.4615 1.32567 12.945 1.1518C12.5732 1.03286 12.1826 0.984033 11.793 1.0078Z" fill="currentColor"/>
</svg>
