<svg width="24" height="24" viewBox="0 0 24 24" fill="none" xmlns="http://www.w3.org/2000/svg">
<g clip-path="url(#clip0_2538_47508)">
<path d="M11.762 0.00792021C11.734 0.00792021 11.656 0.0159202 11.586 0.0229202C11.04 0.0794643 10.5116 0.248086 10.0337 0.518234C9.55589 0.788382 9.13895 1.15424 8.809 1.59292C8.391 2.14792 8.149 2.73392 8.035 3.45692C8.015 3.60192 8.012 3.69092 8.004 4.38292C7.996 5.12092 7.996 5.15292 7.973 5.24292C7.875 5.59792 7.613 5.86292 7.266 5.96492C7.18 5.99192 7.156 5.99192 6.398 5.99992C5.968 6.00392 5.602 6.01192 5.578 6.01592C5.555 6.01992 5.484 6.02692 5.422 6.03592C3.906 6.19792 2.5 7.10792 1.71 8.43292C1.28426 9.14066 1.04257 9.94376 1.007 10.7689C0.991 11.0769 0.991 18.9209 1.007 19.2289C1.03691 19.9239 1.21416 20.6046 1.527 21.2259C1.91709 22.0122 2.50783 22.6815 3.23951 23.1663C3.97118 23.6511 4.81787 23.9342 5.694 23.9869C5.843 23.9949 7.948 23.9989 13.097 23.9949C19.811 23.9909 20.3 23.9909 20.409 23.9719C20.867 23.9062 21.3038 23.7366 21.686 23.4759C22.02 23.2489 22.3046 22.9568 22.5228 22.6171C22.7411 22.2773 22.8884 21.897 22.956 21.4989C22.996 21.2609 23.006 21.0029 22.999 20.3539C23.0026 20.1077 22.9949 19.8614 22.976 19.6159C22.893 18.9789 22.6065 18.3858 22.159 17.9249C21.773 17.5148 21.2762 17.2258 20.729 17.0929C20.409 17.0109 20.401 17.0109 19.558 17.0029C18.745 16.9949 18.714 16.9909 18.491 16.9329C18.1736 16.8478 17.8818 16.6865 17.6408 16.4631C17.3998 16.2397 17.2169 15.9609 17.108 15.6509C17.026 15.4089 17.011 15.2999 17.011 14.9989C17.011 14.7689 17.011 14.7219 17.034 14.6089C17.124 14.1989 17.308 13.8619 17.601 13.5729C17.847 13.3309 18.159 13.1509 18.487 13.0649C18.714 13.0069 18.745 13.0029 19.557 12.9949C20.401 12.9869 20.409 12.9829 20.726 12.9049C21.2661 12.7711 21.7582 12.4893 22.1469 12.0911C22.5355 11.6929 22.8054 11.1941 22.926 10.6509C22.987 10.3739 22.996 10.2879 22.999 9.64392C23.007 8.82392 22.991 8.57692 22.897 8.22592C22.7544 7.69952 22.4717 7.22165 22.079 6.84322C21.6863 6.46478 21.1983 6.19995 20.667 6.07692C20.343 6.00292 20.448 6.00692 18.557 5.99892C16.933 5.99092 16.815 5.99092 16.753 5.97192C16.5788 5.92395 16.4201 5.83139 16.2926 5.70338C16.1652 5.57536 16.0732 5.41631 16.026 5.24192C16.003 5.15192 16.003 5.12392 15.996 4.38592C15.987 3.57292 15.983 3.53392 15.917 3.20592C15.7889 2.57762 15.5122 1.98916 15.1099 1.48982C14.7077 0.990476 14.1916 0.594796 13.605 0.33592C13.231 0.173863 12.835 0.0683733 12.43 0.0229202C12.2076 0.00847194 11.9848 0.00346743 11.762 0.00792021ZM12.398 2.03892C12.797 2.12492 13.133 2.30892 13.414 2.58592C13.66 2.83192 13.848 3.15592 13.934 3.48792C13.992 3.71492 13.996 3.74592 14.004 4.55792C14.012 5.40192 14.012 5.40992 14.094 5.72992C14.2303 6.2683 14.513 6.7584 14.9109 7.14585C15.3088 7.53331 15.8062 7.80297 16.348 7.92492C16.672 7.99592 16.594 7.99592 18.477 8.00392L20.199 8.00792L20.309 8.04692C20.4362 8.08825 20.5537 8.15493 20.6544 8.24293C20.7551 8.33093 20.837 8.43842 20.895 8.55892C20.996 8.76892 20.996 8.74992 20.996 9.50392C20.996 10.1139 20.992 10.1719 20.973 10.2419C20.9264 10.4166 20.8347 10.576 20.7071 10.7041C20.5795 10.8322 20.4205 10.9246 20.246 10.9719C20.152 10.9959 20.125 10.9959 19.383 11.0039C18.57 11.0119 18.527 11.0159 18.199 11.0819C17.4339 11.2384 16.7315 11.616 16.179 12.1679C15.733 12.6106 15.398 13.1524 15.2012 13.7492C15.0045 14.346 14.9517 14.9808 15.047 15.6019C15.1776 16.4538 15.5796 17.2408 16.1932 17.846C16.8069 18.4511 17.5994 18.8422 18.453 18.9609C18.602 18.9839 18.676 18.9879 19.383 18.9959C20.125 19.0039 20.153 19.0039 20.246 19.0269C20.606 19.1289 20.867 19.3909 20.973 19.7569C20.993 19.8279 20.996 19.8869 20.996 20.4969C20.996 21.2379 20.996 21.2269 20.906 21.4219C20.8487 21.5458 20.7664 21.6565 20.6644 21.7472C20.5624 21.8379 20.4428 21.9066 20.313 21.9489L20.199 21.9889L13.004 21.9919C6.621 21.9959 5.789 21.9959 5.648 21.9769C4.90876 21.8881 4.22848 21.5291 3.738 20.9689C3.3579 20.532 3.11144 19.995 3.028 19.4219C3.008 19.2889 3.008 19.1169 3.008 14.9999C3.008 10.8829 3.008 10.7099 3.028 10.5739C3.113 10.0349 3.328 9.54292 3.664 9.11692C3.762 8.99692 3.98 8.77292 4.105 8.67192C4.445 8.39792 4.883 8.18392 5.305 8.08192C5.585 8.01592 5.598 8.01592 6.445 8.00392C7.085 7.99592 7.262 7.99192 7.379 7.97692C7.89458 7.90935 8.38401 7.70992 8.8 7.39792C8.972 7.26992 9.269 6.97692 9.394 6.80092C9.63715 6.48181 9.81241 6.11631 9.909 5.72692C9.983 5.40992 9.987 5.40192 9.995 4.55892C10.003 3.74592 10.007 3.71492 10.065 3.48892C10.1679 3.10152 10.3844 2.75379 10.6867 2.49055C10.989 2.22731 11.3631 2.0606 11.761 2.01192C11.781 2.00792 11.905 2.00792 12.042 2.00792C12.237 2.01192 12.309 2.01992 12.398 2.03892Z" fill="currentColor"/>
</g>
<defs>
<clipPath id="clip0_2538_47508">
<rect width="24" height="24" fill="white"/>
</clipPath>
</defs>
</svg>
