<svg width="24" height="24" viewBox="0 0 24 24" fill="none" xmlns="http://www.w3.org/2000/svg">
<g clip-path="url(#clip0_2538_47793)">
<path d="M11.45 0.0117998C8.93596 0.121037 6.52035 1.02007 4.54662 2.58106C2.57289 4.14206 1.14151 6.28556 0.456 8.7068C0.220559 9.54202 0.0740787 10.3998 0.019 11.2658C0.00339297 11.7537 0.00339297 12.2419 0.019 12.7298C0.116 14.0898 0.374 15.2458 0.839 16.4218C1.4755 18.0396 2.45754 19.4989 3.71652 20.6977C4.9755 21.8966 6.48105 22.8061 8.128 23.3628C9.882 23.9568 11.78 24.1408 13.64 23.8868C15.4662 23.6395 17.2106 22.9735 18.737 21.9408C20.3068 20.8753 21.6027 19.4541 22.519 17.7928C22.659 17.5388 22.905 17.0348 23.022 16.7578C23.464 15.7268 23.761 14.6478 23.897 13.5508C23.972 12.9838 23.991 12.6248 23.991 12.0038C23.991 11.4728 23.983 11.2658 23.941 10.8158C23.7517 8.84676 23.0765 6.95552 21.976 5.3118C20.6849 3.39027 18.8679 1.88114 16.742 0.9648C15.6299 0.494688 14.4546 0.190767 13.254 0.0627998C12.746 0.0117998 11.923 -0.0122002 11.45 0.0117998ZM12.23 4.0078C13.836 4.1018 15.254 4.8748 16.152 6.1448C16.7979 7.06002 17.0894 8.17876 16.972 9.2928C16.836 10.5658 16.184 11.7228 15.141 12.5348C14.891 12.7268 14.661 12.8748 14.321 13.0548C13.914 13.2698 13.641 13.4608 13.402 13.7028C13.2582 13.8371 13.1393 13.9959 13.051 14.1718C12.953 14.3668 12.945 14.4058 12.937 14.8118C12.93 15.1558 12.93 15.1758 12.898 15.2728C12.8605 15.4063 12.7953 15.5303 12.7065 15.6368C12.6178 15.7433 12.5075 15.8299 12.383 15.8908C12.211 15.9768 12.145 15.9878 11.938 15.9878C11.734 15.9878 11.664 15.9768 11.508 15.9018C11.211 15.7578 11.008 15.4918 10.949 15.1598C10.922 15.0038 10.934 14.4018 10.969 14.1868C11.074 13.5268 11.363 12.9528 11.867 12.4098C12.257 11.9838 12.747 11.6208 13.383 11.2848C13.73 11.1018 13.922 10.9648 14.16 10.7348C14.914 10.0038 15.184 8.9688 14.871 8.0038C14.637 7.2928 14.101 6.6908 13.391 6.3398C12.9718 6.13028 12.5115 6.01557 12.043 6.0038C11.6049 5.98491 11.1676 6.0571 10.7588 6.21579C10.35 6.37449 9.97861 6.61625 9.668 6.9258C9.35292 7.23969 9.11946 7.62593 8.988 8.0508C8.898 8.3278 8.852 8.4108 8.707 8.5548C8.57936 8.69285 8.41317 8.78936 8.23 8.8318C8.15189 8.84889 8.07187 8.85562 7.992 8.8518C7.90343 8.85775 7.81453 8.84689 7.73 8.8198C7.59578 8.78185 7.47113 8.71589 7.36426 8.62626C7.25739 8.53663 7.17073 8.42536 7.11 8.2998C7.0358 8.1664 6.99916 8.01537 7.004 7.8628C7.004 7.6988 7.016 7.6478 7.098 7.3908C7.238 6.9568 7.449 6.5348 7.707 6.1608C7.98 5.7698 8.363 5.3668 8.754 5.0658C9.75041 4.31183 10.9825 3.93682 12.23 4.0078ZM12.21 18.0228C12.418 18.0658 12.64 18.2028 12.773 18.3668C12.8507 18.4601 12.9091 18.5678 12.945 18.6838C12.985 18.7888 12.988 18.8198 12.992 18.9568C13.0035 19.1209 12.9725 19.2852 12.902 19.4338C12.8212 19.604 12.6933 19.7474 12.5334 19.847C12.3735 19.9467 12.1884 19.9983 12 19.9958C11.8111 19.9984 11.6254 19.9464 11.4654 19.846C11.3054 19.7456 11.1778 19.601 11.098 19.4298C11.0376 19.3112 11.0067 19.1799 11.008 19.0468C10.9956 18.9113 11.0145 18.7749 11.063 18.6478C11.23 18.1908 11.723 17.9218 12.211 18.0228H12.21Z" fill="currentColor"/>
</g>
<defs>
<clipPath id="clip0_2538_47793">
<rect width="24" height="24" fill="white"/>
</clipPath>
</defs>
</svg>
