<svg width="24" height="24" viewBox="0 0 24 24" fill="none" xmlns="http://www.w3.org/2000/svg">
<path d="M1.84 1.00811C1.355 1.04311 0.875 1.27811 0.54 1.63711C0.295871 1.90048 0.12578 2.22375 0.047 2.57411C4.65661e-10 2.78511 -0.003 2.89111 0.004 4.08211C0.008 5.31611 0.008 5.27711 0.07 5.52011C0.148 5.83211 0.34 6.16011 0.574 6.39811C0.864 6.69111 1.211 6.87511 1.625 6.96511L1.754 6.98811H22.262L22.382 6.96511C22.7822 6.88544 23.1486 6.68586 23.4326 6.39292C23.7166 6.09998 23.9047 5.72755 23.972 5.32511C23.988 5.24611 23.992 5.06211 23.996 4.09011C24 2.90611 23.996 2.78111 23.953 2.57811C23.8951 2.31751 23.7864 2.0709 23.633 1.85244C23.4796 1.63398 23.2845 1.44798 23.059 1.30511C22.7813 1.13069 22.4643 1.02858 22.137 1.00811C21.961 0.992112 2.027 0.996112 1.84 1.00811ZM1.781 9.01211C1.47924 9.05049 1.18912 9.15276 0.93 9.31211C0.754 9.42211 0.531 9.62511 0.406 9.78911C0.18844 10.0847 0.0525507 10.4323 0.012 10.7971C-0.00362182 11.599 -0.00362182 12.4012 0.012 13.2031C0.055 13.5741 0.192 13.9221 0.406 14.2071C0.476 14.3011 0.656 14.4841 0.746 14.5551C1.051 14.7971 1.406 14.9451 1.796 14.9881C1.957 15.0041 22.043 15.0041 22.203 14.9881C22.5678 14.9476 22.9154 14.8117 23.211 14.5941C23.313 14.5121 23.488 14.3401 23.574 14.2301C23.804 13.9341 23.945 13.5861 23.988 13.2031C24.004 13.0511 24.004 10.9491 23.988 10.7971C23.9612 10.5494 23.8901 10.3086 23.778 10.0861C23.6888 9.91361 23.5742 9.75551 23.438 9.61711C23.1118 9.27437 22.6737 9.05975 22.203 9.01211C22.066 8.99611 1.918 8.99611 1.781 9.01211ZM1.746 17.0161C1.27714 17.0806 0.84503 17.3053 0.523 17.6521C0.223 17.9921 0.063 18.3551 0.012 18.8011C-0.00362051 19.6017 -0.00362051 20.4025 0.012 21.2031C0.0481762 21.5402 0.168884 21.8626 0.362929 22.1406C0.556973 22.4185 0.818069 22.643 1.122 22.7931C1.359 22.9101 1.598 22.9731 1.887 22.9931C2.016 23.0001 5.059 23.0031 12.129 23.0001C21.734 22.9961 22.195 22.9961 22.309 22.9771C22.629 22.9221 22.918 22.8011 23.179 22.6131C23.313 22.5201 23.531 22.2971 23.629 22.1601C23.773 21.9571 23.899 21.6681 23.953 21.4221C23.996 21.2191 24 21.0941 23.996 19.9101C23.992 18.6721 23.996 18.7231 23.926 18.4651C23.869 18.2505 23.7738 18.048 23.645 17.8671C23.355 17.4411 22.93 17.1601 22.391 17.0351L22.273 17.0081H12.047C6.422 17.0081 1.788 17.0121 1.746 17.0161Z" fill="currentColor"/>
</svg>
