<svg width="24" height="24" viewBox="0 0 24 24" fill="none" xmlns="http://www.w3.org/2000/svg">
<g clip-path="url(#clip0_2538_49412)">
<path d="M19.676 0.90979C18.9703 0.999572 18.3196 1.33736 17.84 1.86279C17.781 1.92579 16.25 3.57779 14.434 5.54279C12.617 7.50279 11.105 9.13679 11.074 9.16779L11.02 9.22279L10.297 8.64779C10.0513 8.45676 9.80796 8.26275 9.567 8.06579C9.562 8.06579 9.594 7.97579 9.637 7.87079C9.812 7.43379 9.922 6.98379 9.977 6.50779C9.997 6.31979 9.997 5.67579 9.977 5.48779C9.90124 4.75296 9.66368 4.04402 9.2814 3.4119C8.89912 2.77977 8.3816 2.24015 7.766 1.83179C7.13531 1.41525 6.41868 1.14655 5.6696 1.04578C4.92052 0.944998 4.15835 1.01474 3.44 1.24979C2.74382 1.47763 2.1062 1.85565 1.57224 2.35712C1.03828 2.85859 0.621031 3.47126 0.35 4.15179C0.00222616 5.03068 -0.0898292 5.99002 0.0844666 6.91901C0.258762 7.848 0.692298 8.70873 1.335 9.40179C1.82932 9.93414 2.43385 10.3522 3.1064 10.6268C3.77896 10.9015 4.50334 11.026 5.229 10.9918C5.82076 10.9659 6.40318 10.8349 6.949 10.6048C7.026 10.5748 7.093 10.5468 7.097 10.5468C7.108 10.5468 8.444 11.9878 8.444 11.9998C8.444 12.0118 7.108 13.4528 7.097 13.4528C7.093 13.4528 7.022 13.4258 6.94 13.3908C6.00778 13.0027 4.98095 12.9017 3.991 13.1008C3.24483 13.255 2.54361 13.5772 1.94061 14.043C1.33762 14.5087 0.848698 15.1058 0.511 15.7888C-0.341 17.5228 -0.11 19.6288 1.093 21.1208C1.62961 21.7921 2.33025 22.3138 3.12726 22.6354C3.92427 22.957 4.79073 23.0677 5.643 22.9568C6.41686 22.8583 7.15673 22.5793 7.80292 22.1422C8.4491 21.7052 8.9835 21.1224 9.363 20.4408C9.69509 19.8442 9.90357 19.1868 9.976 18.5078C9.996 18.3198 9.996 17.6758 9.976 17.4878C9.92475 17.0202 9.81038 16.5617 9.636 16.1248C9.60612 16.0609 9.58364 15.9938 9.569 15.9248C9.573 15.9218 12.549 13.5618 16.179 10.6868C19.819 7.80079 22.823 5.40679 22.886 5.34679C23.183 5.06179 23.378 4.70279 23.464 4.28479C23.499 4.10479 23.503 3.74579 23.468 3.56579C23.4106 3.24598 23.2768 2.94477 23.078 2.68779C22.6994 2.28484 22.3068 1.89527 21.901 1.51979C21.4954 1.20837 21.0194 1.00162 20.515 0.91779C20.2358 0.889731 19.9547 0.887053 19.675 0.90979H19.676ZM5.426 3.02679C6.20264 3.13878 6.90485 3.54963 7.383 4.17179C7.637 4.50379 7.836 4.93379 7.926 5.33179C8.023 5.76579 8.023 6.23379 7.926 6.66779C7.84 7.05779 7.648 7.46779 7.402 7.80079C6.98407 8.36073 6.38274 8.75608 5.703 8.91779C5.453 8.97679 5.305 8.99179 5.003 8.99179C4.625 8.99179 4.379 8.95679 4.051 8.84779C3.62459 8.70599 3.23585 8.4694 2.914 8.15579C2.44731 7.70916 2.13994 7.12183 2.039 6.48379C2.00562 6.22083 1.99792 5.95524 2.016 5.69079C2.09 4.98079 2.398 4.34779 2.914 3.84379C3.39988 3.37095 4.03221 3.07753 4.707 3.01179C4.859 2.99579 5.27 3.00379 5.426 3.02679ZM5.426 15.0268C6.20264 15.1388 6.90485 15.5496 7.383 16.1718C7.637 16.5038 7.836 16.9338 7.926 17.3318C8.023 17.7658 8.023 18.2338 7.926 18.6678C7.84 19.0578 7.648 19.4678 7.402 19.8008C6.98407 20.3607 6.38274 20.7561 5.703 20.9178C5.453 20.9768 5.305 20.9918 5.003 20.9918C4.625 20.9918 4.379 20.9568 4.051 20.8478C3.62459 20.706 3.23585 20.4694 2.914 20.1558C2.44731 19.7092 2.13994 19.1218 2.039 18.4838C2.00562 18.2208 1.99792 17.9552 2.016 17.6908C2.09 16.9808 2.398 16.3478 2.914 15.8438C3.39988 15.3709 4.03221 15.0775 4.707 15.0118C4.859 14.9958 5.27 15.0038 5.426 15.0268Z" fill="currentColor"/>
<path d="M13.977 14.4998C13.361 14.9871 12.749 15.4795 12.141 15.9768C12.141 15.9798 17.511 21.7888 17.844 22.1408C18.2931 22.6308 18.892 22.9579 19.547 23.0708C19.703 23.1008 19.742 23.1008 20.047 23.1008C20.41 23.1008 20.512 23.0938 20.793 23.0198C21.1962 22.9181 21.5741 22.7343 21.903 22.4798C22.035 22.3748 22.973 21.4448 23.078 21.3088C23.278 21.0548 23.406 20.7618 23.468 20.4288C23.504 20.2538 23.5 19.8908 23.465 19.7148C23.3864 19.3082 23.1846 18.9357 22.887 18.6478C22.801 18.5698 15.836 13.0308 15.817 13.0308C15.817 13.0308 14.988 13.6908 13.977 14.4998Z" fill="currentColor"/>
</g>
<defs>
<clipPath id="clip0_2538_49412">
<rect width="24" height="24" fill="white"/>
</clipPath>
</defs>
</svg>
