<svg width="24" height="24" viewBox="0 0 24 24" fill="none" xmlns="http://www.w3.org/2000/svg">
<g clip-path="url(#clip0_2538_49697)">
<path d="M18.715 0.00789731C18.0166 0.0494608 17.3342 0.233934 16.71 0.549897C16.0605 0.886104 15.4915 1.35893 15.042 1.9359C14.9014 2.12224 14.7721 2.31693 14.655 2.5189C14.3214 3.10896 14.1089 3.75967 14.03 4.4329C13.999 4.6829 13.999 5.3189 14.03 5.5649C14.054 5.7649 14.097 6.0029 14.14 6.1749C14.1515 6.21407 14.1592 6.25426 14.163 6.2949C14.155 6.3079 8.953 8.9049 8.944 8.9049C8.90113 8.86825 8.86315 8.82623 8.831 8.7799C8.56698 8.47077 8.26836 8.19295 7.941 7.9519C7.531 7.6519 6.995 7.3819 6.511 7.2289C5.76809 6.99707 4.98161 6.94026 4.21309 7.06291C3.44458 7.18556 2.71485 7.48435 2.081 7.9359C1.0084 8.70552 0.285114 9.86939 0.07 11.1719C0.02 11.4879 0.008 11.6449 0.008 11.9999C0.008 12.3549 0.02 12.5199 0.07 12.8279C0.196968 13.5984 0.503698 14.3281 0.965325 14.9579C1.42695 15.5877 2.03048 16.0999 2.727 16.4529C3.711 16.9529 4.828 17.1129 5.918 16.9139C6.75816 16.757 7.54454 16.3888 8.203 15.8439C8.383 15.6949 8.691 15.3909 8.832 15.2189C8.86415 15.1726 8.90213 15.1305 8.945 15.0939C8.953 15.0939 14.156 17.6909 14.165 17.6989C14.1615 17.7413 14.1534 17.7832 14.141 17.8239C14.039 18.2379 14.011 18.5079 14.011 18.9959C14.011 19.4179 14.023 19.5699 14.082 19.8979C14.208 20.5961 14.4816 21.2595 14.8844 21.8435C15.2873 22.4276 15.8101 22.919 16.418 23.2849C16.9913 23.628 17.6272 23.8534 18.2886 23.9478C18.95 24.0422 19.6236 24.0038 20.27 23.8349C21.4762 23.5216 22.5215 22.7682 23.2 21.7229C23.5886 21.117 23.8432 20.4351 23.9467 19.7228C24.0502 19.0105 24.0002 18.2843 23.8 17.5929C23.5244 16.6477 22.9753 15.8052 22.2219 15.1713C21.4685 14.5375 20.5444 14.1407 19.566 14.0309C19.1893 13.9997 18.8107 13.9997 18.434 14.0309C17.4478 14.1406 16.5172 14.5433 15.762 15.1869C15.547 15.3669 15.25 15.6719 15.086 15.8829L15.062 15.9139L12.445 14.6049C11.008 13.8909 9.832 13.2969 9.832 13.2969L9.867 13.1449C9.907 12.9849 9.953 12.7149 9.977 12.5079C9.984 12.4299 9.992 12.2339 9.992 11.9999C9.992 11.7659 9.984 11.5699 9.977 11.4879C9.94602 11.2233 9.89758 10.9611 9.832 10.7029C9.832 10.7029 11.008 10.1089 12.445 9.3909L15.062 8.0859L15.086 8.1169C15.437 8.5669 15.953 9.0159 16.469 9.3119C17.0707 9.66618 17.7402 9.89002 18.434 9.9689C18.652 9.9919 19.148 10.0039 19.367 9.9839C20.587 9.90077 21.7327 9.36766 22.582 8.4879C23.4629 7.59009 23.9685 6.39036 23.996 5.1329C24.0253 4.1147 23.7434 3.11178 23.188 2.2579C22.7815 1.63843 22.2425 1.11702 21.6099 0.73136C20.9773 0.345697 20.2668 0.10542 19.53 0.0278973C19.2585 0.0078568 18.9872 0.00118207 18.715 0.00789731Z" fill="currentColor"/>
</g>
<defs>
<clipPath id="clip0_2538_49697">
<rect width="24" height="24" fill="white"/>
</clipPath>
</defs>
</svg>
