<svg width="24" height="24" viewBox="0 0 24 24" fill="none" xmlns="http://www.w3.org/2000/svg">
<path d="M17.883 1.0041C17.2405 1.0279 16.6227 1.25791 16.121 1.6601C16.004 1.7501 15.734 2.0231 15.641 2.1451C15.4655 2.3763 15.3209 2.62945 15.211 2.8981L15.17 3.0001H8.05C1.67 3.0001 0.917 3.0041 0.823 3.0161C0.331 3.1061 -0.028 3.5551 0.003 4.0551C0.00823654 4.17997 0.0388594 4.30246 0.093 4.4151C0.198 4.6411 0.363 4.8051 0.577 4.9021C0.677548 4.95068 0.785873 4.98114 0.897 4.9921C0.967 5.0001 3.311 5.0041 8.085 5.0041H15.171L15.206 5.0901C15.464 5.7581 15.968 6.3201 16.604 6.6561C17.074 6.8981 17.565 7.0121 18.104 6.9921C18.5587 6.98122 19.0044 6.86337 19.405 6.6481C20.0391 6.31083 20.5319 5.75837 20.795 5.0901L20.827 5.0041H21.913C22.542 5.0041 23.038 5.0001 23.097 4.9921C23.2109 4.98221 23.322 4.95172 23.425 4.9021C23.6387 4.80279 23.8092 4.62944 23.905 4.4141C23.9591 4.30146 23.9898 4.17897 23.995 4.0541C24.026 3.5541 23.667 3.1051 23.175 3.0161C23.085 3.0041 22.901 3.0001 21.948 3.0001H20.831L20.788 2.8981C20.6163 2.46544 20.3467 2.07841 20.0004 1.76734C19.6542 1.45627 19.2405 1.2296 18.792 1.1051C18.5858 1.05329 18.3752 1.02082 18.163 1.0081C18.06 1.0001 17.97 0.996104 17.964 1.0001C17.961 1.0001 17.926 1.0001 17.883 1.0041ZM18.211 3.0241C18.418 3.0661 18.641 3.2041 18.773 3.3671C18.8507 3.4604 18.9091 3.56814 18.945 3.6841C18.985 3.7891 18.988 3.8201 18.992 3.9571C19.0035 4.1212 18.9725 4.2855 18.902 4.4341C18.641 4.9731 17.969 5.1641 17.465 4.8441C17.2552 4.70663 17.1013 4.49885 17.031 4.2581C17.0043 4.115 16.9993 3.96871 17.016 3.8241C17.113 3.2741 17.652 2.9061 18.211 3.0241ZM5.734 9.0121C5.17456 9.06351 4.64052 9.26984 4.19185 9.60794C3.74317 9.94603 3.39762 10.4025 3.194 10.9261L3.172 10.9961L1.992 11.0041L0.816 11.0081L0.726 11.0351C0.563276 11.0835 0.415217 11.1718 0.295251 11.292C0.175284 11.4121 0.087205 11.5603 0.039 11.7231C0.0116787 11.8127 0.00116861 11.9066 0.008 12.0001C0.008 12.1521 0.012 12.1801 0.039 12.2731C0.141 12.6091 0.391 12.8591 0.727 12.9651L0.817 12.9881L1.992 12.9961L3.168 13.0001L3.218 13.1171C3.39017 13.5454 3.65883 13.9281 4.00307 14.2356C4.34732 14.543 4.75786 14.7669 5.20276 14.8898C5.64766 15.0127 6.11492 15.0312 6.56817 14.9441C7.02142 14.8569 7.44844 14.6663 7.816 14.3871C8.2693 14.0413 8.61504 13.5738 8.813 13.0391L8.828 12.9961L23.188 12.9881L23.273 12.9651C23.609 12.8591 23.859 12.6091 23.961 12.2731C23.9884 12.1849 23.9989 12.0922 23.992 12.0001C23.9988 11.9066 23.9883 11.8127 23.961 11.7231C23.9121 11.5605 23.8236 11.4126 23.7036 11.2926C23.5835 11.1725 23.4356 11.084 23.273 11.0351L23.188 11.0081L8.836 11.0041L8.82 10.9641C8.809 10.9451 8.781 10.8751 8.754 10.8121C8.50336 10.233 8.07677 9.74745 7.53471 9.42436C6.99265 9.10128 6.36263 8.95704 5.734 9.0121ZM6.207 11.0231C6.582 11.0931 6.898 11.4101 6.977 11.7931C7 11.9061 7 12.0931 6.977 12.2071C6.9402 12.3818 6.85714 12.5435 6.73651 12.6752C6.61588 12.8068 6.4621 12.9037 6.29124 12.9556C6.12038 13.0075 5.93871 13.0126 5.76522 12.9703C5.59173 12.928 5.43279 12.8398 5.305 12.7151C5.20703 12.6224 5.12962 12.5101 5.07777 12.3855C5.02592 12.261 5.00079 12.127 5.004 11.9921C5.004 11.4801 5.387 11.0621 5.898 11.0081C6.00112 10.9961 6.10552 11.0012 6.207 11.0231ZM12.75 17.0121C12.0449 17.0718 11.3836 17.3789 10.883 17.8791C10.5986 18.1606 10.3741 18.4966 10.223 18.8671L10.172 18.9881L5.516 18.9961C2.074 19.0001 0.848 19.0081 0.809 19.0161C0.60768 19.0588 0.423776 19.1609 0.281 19.3091C0.167384 19.4264 0.0843624 19.5699 0.0392493 19.7269C-0.00586383 19.8838 -0.0116845 20.0495 0.0223 20.2092C0.0562846 20.369 0.129031 20.5179 0.234133 20.6429C0.339234 20.7679 0.473464 20.8652 0.625 20.9261C0.825 21.0041 0.434 21.0001 5.551 21.0001H10.168L10.191 21.0501C10.4154 21.651 10.8269 22.164 11.3648 22.5135C11.9028 22.8629 12.5387 23.0304 13.179 22.9911C13.7495 22.9565 14.2984 22.7601 14.7614 22.4249C15.2243 22.0896 15.5822 21.6294 15.793 21.0981L15.828 21.0041L19.496 21.0001L23.164 20.9921L23.25 20.9691C23.64 20.8551 23.914 20.5591 23.984 20.1641C24.0188 19.968 23.9916 19.7659 23.906 19.5861C23.8357 19.4282 23.725 19.2916 23.5851 19.1901C23.4451 19.0887 23.2809 19.0259 23.109 19.0081C23.043 19.0001 21.793 18.9961 19.418 18.9961H15.828L15.797 18.9181C15.7223 18.7377 15.6347 18.563 15.535 18.3951C15.298 18.032 14.9898 17.7207 14.629 17.4801C14.2684 17.2497 13.8639 17.0968 13.441 17.0311C13.2112 17.0111 12.9805 17.0054 12.75 17.0121ZM13.25 19.0321C13.594 19.1171 13.875 19.3981 13.969 19.7501C14.004 19.8871 14.004 20.1131 13.969 20.2421C13.9242 20.4207 13.831 20.5835 13.6996 20.7125C13.5683 20.8415 13.4039 20.9318 13.2246 20.9735C13.0452 21.0152 12.8579 21.0065 12.6831 20.9486C12.5083 20.8907 12.3529 20.7857 12.234 20.6451C12.0942 20.4793 12.0133 20.2718 12.004 20.0551C11.9954 19.9212 12.0142 19.787 12.0593 19.6606C12.1043 19.5342 12.1747 19.4184 12.266 19.3201C12.3893 19.1885 12.5456 19.0922 12.7186 19.0414C12.8916 18.9906 13.0751 18.988 13.25 19.0321Z" fill="currentColor"/>
</svg>
