<svg width="24" height="24" viewBox="0 0 24 24" fill="none" xmlns="http://www.w3.org/2000/svg">
<g clip-path="url(#clip0_2538_52548)">
<path d="M11.45 0.0117998C8.93596 0.121037 6.52035 1.02007 4.54662 2.58106C2.57289 4.14206 1.14151 6.28556 0.456 8.7068C0.220559 9.54202 0.0740787 10.3998 0.019 11.2658C0.00339297 11.7537 0.00339297 12.2419 0.019 12.7298C0.116 14.0898 0.374 15.2458 0.839 16.4218C1.4755 18.0396 2.45754 19.4989 3.71652 20.6977C4.9755 21.8966 6.48105 22.8061 8.128 23.3628C9.882 23.9568 11.78 24.1408 13.64 23.8868C15.4662 23.6395 17.2106 22.9735 18.737 21.9408C20.3068 20.8753 21.6027 19.4541 22.519 17.7928C22.659 17.5388 22.905 17.0348 23.022 16.7578C23.464 15.7268 23.761 14.6478 23.897 13.5508C23.972 12.9838 23.991 12.6248 23.991 12.0038C23.991 11.4728 23.983 11.2658 23.941 10.8158C23.7517 8.84676 23.0765 6.95552 21.976 5.3118C20.6849 3.39027 18.8679 1.88114 16.742 0.9648C15.6299 0.494688 14.4546 0.190767 13.254 0.0627998C12.746 0.0117998 11.923 -0.0122002 11.45 0.0117998ZM7.296 5.0198C7.78354 5.09224 8.227 5.34259 8.5409 5.7226C8.8548 6.1026 9.01692 6.58536 8.996 7.0778C8.972 7.5978 8.776 8.0508 8.413 8.4138C8.05884 8.77204 7.58051 8.98041 7.077 8.9958C6.83435 9.00924 6.59143 8.97493 6.362 8.8948C6.00534 8.77545 5.68971 8.55767 5.45155 8.26659C5.21338 7.97552 5.06239 7.62302 5.016 7.2498C4.996 7.0898 5.008 6.7538 5.039 6.6098C5.094 6.3478 5.191 6.1098 5.339 5.8828C5.461 5.6988 5.695 5.4648 5.875 5.3428C6.137 5.1718 6.402 5.0658 6.703 5.0198C6.84 4.9998 7.152 4.9998 7.296 5.0198ZM17.394 5.0398C17.651 5.0898 17.894 5.1908 18.116 5.3398C18.304 5.4648 18.534 5.6948 18.659 5.8828C18.808 6.1048 18.905 6.3398 18.964 6.6088C18.987 6.7188 18.987 6.7658 18.987 6.9998C18.987 7.2928 18.976 7.3868 18.905 7.6098C18.7718 8.02623 18.5055 8.3874 18.147 8.63779C17.7886 8.88819 17.3579 9.01397 16.921 8.9958C16.4121 8.97803 15.9295 8.76537 15.573 8.4018C15.2207 8.04959 15.0167 7.57578 15.003 7.0778C14.9845 6.58812 15.146 6.10862 15.457 5.72996C15.768 5.35129 16.207 5.09972 16.691 5.0228C16.925 4.99688 17.1614 5.00326 17.394 5.0398ZM16.202 11.0268C16.948 11.1088 17.542 11.5738 17.71 12.2108C17.737 12.3238 17.749 12.5858 17.73 12.7108C17.698 12.9178 17.573 13.2498 17.39 13.6208C17.1 14.2157 16.7115 14.7574 16.241 15.2228C15.5639 15.9016 14.7351 16.4097 13.8229 16.7051C12.9108 17.0005 11.9415 17.0748 10.995 16.9218C10.1766 16.7867 9.39447 16.4859 8.69649 16.0378C7.99852 15.5897 7.39944 15.0037 6.936 14.3158C6.69888 13.9598 6.49883 13.5805 6.339 13.1838C6.241 12.9298 6.202 12.7888 6.187 12.6288C6.124 11.9288 6.64 11.2888 7.433 11.0788C7.679 11.0158 7.444 11.0188 11.936 11.0158C14.776 11.0158 16.128 11.0198 16.202 11.0268Z" fill="currentColor"/>
</g>
<defs>
<clipPath id="clip0_2538_52548">
<rect width="24" height="24" fill="white"/>
</clipPath>
</defs>
</svg>
