<svg width="24" height="24" viewBox="0 0 24 24" fill="none" xmlns="http://www.w3.org/2000/svg">
<g clip-path="url(#clip0_5184_7821)">
<path d="M11.45 0.0120346C8.93596 0.121272 6.52035 1.0203 4.54662 2.5813C2.57289 4.14229 1.14151 6.2858 0.456 8.70703C0.220559 9.54225 0.0740787 10.4 0.019 11.266C0.00339297 11.7539 0.00339297 12.2422 0.019 12.73C0.116 14.09 0.374 15.246 0.839 16.422C1.4755 18.0398 2.45754 19.4991 3.71652 20.698C4.9755 21.8968 6.48105 22.8064 8.128 23.363C10.642 24.211 13.3649 24.2096 15.878 23.359C17.6326 22.7639 19.2248 21.7692 20.5292 20.4534C21.8335 19.1376 22.8143 17.5367 23.394 15.777C23.722 14.789 23.894 13.879 23.979 12.73C23.995 12.469 23.995 11.54 23.979 11.266C23.889 9.98803 23.655 8.88303 23.229 7.75003C23.139 7.51203 22.94 7.03503 22.917 7.01203C22.909 7.00003 22.581 6.99603 21.347 6.99603C20.015 6.99603 19.765 6.99203 19.64 6.97603C18.9916 6.89779 18.3866 6.60985 17.917 6.15603C17.4069 5.66513 17.0873 5.0093 17.015 4.30503C16.9972 4.04324 17.0049 3.78033 17.038 3.52003C17.088 3.21003 17.183 2.93003 17.319 2.65603L17.397 2.50003L17.327 2.36703C17.1371 1.987 17.0269 1.57219 17.003 1.14803V1.08203L16.847 1.01203C15.702 0.512035 14.487 0.192035 13.253 0.0620346C12.745 0.0120346 11.921 -0.0119654 11.448 0.0120346H11.45ZM15.273 2.03503C15.605 2.14103 15.843 2.37103 15.953 2.69503C15.988 2.80503 15.988 2.81303 15.988 3.00003C15.988 3.18803 15.988 3.19503 15.953 3.30503C15.875 3.53503 15.879 3.52703 15.117 4.29304C14.738 4.67603 14.426 4.98803 14.426 4.99603C14.426 5.00003 14.598 5.00403 14.809 5.00803C15.16 5.01203 15.199 5.01203 15.273 5.03503C15.605 5.14103 15.843 5.37104 15.953 5.69503C15.988 5.80504 15.988 5.81203 15.988 6.00003C15.988 6.18804 15.988 6.19503 15.953 6.30503C15.9003 6.46493 15.8087 6.60926 15.6866 6.72513C15.5644 6.841 15.4155 6.9248 15.253 6.96903C15.172 6.98903 15.098 6.98903 13.488 6.98903H11.808L11.695 6.95303C11.5439 6.90351 11.4072 6.81767 11.297 6.70303C11.1815 6.59348 11.0956 6.4566 11.047 6.30503C11.012 6.19503 11.012 6.18804 11.012 6.00003C11.012 5.81203 11.012 5.80504 11.047 5.69503C11.125 5.46503 11.121 5.47303 11.883 4.70303C12.266 4.32403 12.574 4.01203 12.574 4.00303C12.574 4.00003 12.402 3.99603 12.191 3.99303L11.809 3.98803L11.695 3.95303C11.5443 3.90257 11.4079 3.81686 11.297 3.70303C11.1815 3.59348 11.0956 3.4566 11.047 3.30503C11.012 3.19503 11.012 3.18703 11.012 3.00003C11.012 2.81203 11.012 2.80503 11.047 2.69503C11.0956 2.54347 11.1815 2.40659 11.297 2.29703C11.4364 2.15364 11.616 2.0557 11.812 2.01603C12.3853 2.00868 12.9587 2.00601 13.532 2.00803H15.195L15.273 2.03503ZM5.31 11.051C5.438 11.094 5.552 11.156 5.653 11.242C5.837 11.398 6.017 11.512 6.2 11.594C6.497 11.723 6.864 11.785 7.173 11.754C7.59183 11.7197 7.98877 11.5526 8.306 11.277C8.458 11.152 8.556 11.094 8.696 11.047C8.802 11.012 8.817 11.012 8.997 11.007C9.204 11.007 9.263 11.02 9.419 11.094C9.669 11.207 9.864 11.426 9.954 11.695C9.989 11.805 9.989 11.812 9.989 12C9.989 12.188 9.989 12.195 9.954 12.305C9.88 12.527 9.754 12.688 9.494 12.895C8.83994 13.4155 8.0389 13.7174 7.204 13.758C6.27987 13.8064 5.3679 13.5302 4.626 12.977C4.266 12.715 4.138 12.562 4.056 12.32C4.00638 12.1825 3.99027 12.0351 4.009 11.89C4.063 11.465 4.356 11.133 4.767 11.027C4.85228 11.0059 4.94049 10.9991 5.028 11.007C5.185 11.012 5.208 11.016 5.31 11.051ZM15.274 11.039C15.439 11.086 15.536 11.141 15.7 11.277C16.185 11.691 16.814 11.847 17.427 11.715C17.739 11.648 18.04 11.5 18.31 11.277C18.548 11.078 18.735 11.004 19.005 11.004C19.2503 11.0032 19.4872 11.0935 19.6697 11.2574C19.8523 11.4212 19.9675 11.6471 19.993 11.891C20.0076 12.0262 19.9947 12.1629 19.9552 12.293C19.9157 12.4231 19.8503 12.5438 19.763 12.648C19.653 12.778 19.368 13.004 19.11 13.16C18.4593 13.5642 17.7062 13.7729 16.9403 13.7612C16.1744 13.7495 15.428 13.5179 14.79 13.094C14.462 12.875 14.235 12.672 14.142 12.508C14.11 12.457 14.072 12.368 14.048 12.305C14.013 12.195 14.013 12.188 14.013 12C14.013 11.812 14.013 11.805 14.048 11.695C14.0966 11.5435 14.1825 11.4066 14.298 11.297C14.446 11.148 14.614 11.059 14.813 11.016C14.903 10.996 15.185 11.008 15.274 11.039ZM12.184 16.008C12.54 16.043 12.876 16.164 13.161 16.368C13.301 16.468 13.532 16.695 13.634 16.84C13.728 16.973 13.849 17.215 13.899 17.36C13.9825 17.6105 14.0159 17.875 13.9972 18.1384C13.9785 18.4018 13.9081 18.6589 13.79 18.895C13.6956 19.087 13.5687 19.2613 13.415 19.41C13.1521 19.6814 12.8151 19.8692 12.446 19.95C11.9939 20.0553 11.5191 19.9968 11.106 19.785C10.9124 19.6934 10.7377 19.5662 10.591 19.41C10.4349 19.2633 10.3077 19.0887 10.216 18.895C10.0962 18.6593 10.0245 18.4021 10.0051 18.1384C9.98573 17.8747 10.019 17.6098 10.103 17.359C10.149 17.219 10.274 16.973 10.368 16.839C10.47 16.695 10.696 16.469 10.841 16.367C11.233 16.0932 11.7087 15.9658 12.185 16.007L12.184 16.008Z" fill="currentColor"/>
<path d="M19.848 0.0120346C19.32 0.102035 18.949 0.582035 19.008 1.10203C19.051 1.47703 19.289 1.78903 19.628 1.92603C19.789 1.98803 19.832 1.99603 20.218 2.00003L20.582 2.00803L19.891 2.69903C19.18 3.41403 19.156 3.43803 19.086 3.60203C19.0176 3.75926 18.9907 3.93144 19.008 4.10204C19.051 4.47704 19.289 4.78903 19.628 4.92603C19.824 5.00403 19.703 4.99603 21.5 4.99603H23.129L23.23 4.97303C23.3981 4.93341 23.553 4.85056 23.6793 4.7327C23.8056 4.61483 23.8989 4.46604 23.95 4.30103C24.0024 4.14766 24.0142 3.9833 23.984 3.82403C23.9458 3.61585 23.8417 3.42547 23.687 3.28103C23.596 3.18965 23.487 3.11814 23.367 3.07103C23.22 3.01003 23.113 3.00003 22.742 3.00003H22.414L23.098 2.31203C23.477 1.93403 23.801 1.59803 23.82 1.57003C23.973 1.34403 24.027 1.09003 23.984 0.824035C23.9503 0.630521 23.8577 0.452098 23.719 0.313035C23.6237 0.208534 23.5062 0.126844 23.375 0.0740346C23.184 -0.00396539 23.242 3.46133e-05 21.488 3.46133e-05C20.618 0.00403461 19.878 0.00803461 19.848 0.0120346Z" fill="currentColor"/>
</g>
<defs>
<clipPath id="clip0_5184_7821">
<rect width="24" height="24" fill="white"/>
</clipPath>
</defs>
</svg>
