<svg width="24" height="24" viewBox="0 0 24 24" fill="none" xmlns="http://www.w3.org/2000/svg">
<path d="M11.45 0.0117998C8.93596 0.121037 6.52035 1.02007 4.54662 2.58106C2.57289 4.14206 1.14151 6.28556 0.456 8.7068C0.220559 9.54202 0.0740787 10.3998 0.019 11.2658C0.00339297 11.7537 0.00339297 12.2419 0.019 12.7298C0.116 14.0898 0.374 15.2458 0.839 16.4218C1.4755 18.0396 2.45754 19.4989 3.71652 20.6977C4.9755 21.8966 6.48105 22.8061 8.128 23.3628C9.882 23.9568 11.78 24.1408 13.64 23.8868C15.4662 23.6395 17.2106 22.9735 18.737 21.9408C20.3068 20.8753 21.6027 19.4541 22.519 17.7928C22.659 17.5388 22.905 17.0348 23.022 16.7578C23.464 15.7268 23.761 14.6478 23.897 13.5508C23.972 12.9838 23.991 12.6248 23.991 12.0038C23.991 11.4728 23.983 11.2658 23.941 10.8158C23.7517 8.84676 23.0765 6.95552 21.976 5.3118C20.6849 3.39027 18.8679 1.88114 16.742 0.9648C15.6299 0.494688 14.4546 0.190767 13.254 0.0627998C12.746 0.0117998 11.923 -0.0122002 11.45 0.0117998ZM7.296 8.0198C7.78354 8.09224 8.227 8.34259 8.5409 8.7226C8.8548 9.1026 9.01692 9.58536 8.996 10.0778C8.972 10.5978 8.776 11.0508 8.413 11.4138C8.05884 11.772 7.58051 11.9804 7.077 11.9958C6.83435 12.0092 6.59143 11.9749 6.362 11.8948C6.00516 11.7756 5.68932 11.5579 5.45096 11.2668C5.21261 10.9757 5.06147 10.6231 5.015 10.2498C4.995 10.0898 5.007 9.7538 5.038 9.6098C5.093 9.3478 5.19 9.1098 5.338 8.8828C5.46 8.6988 5.694 8.4648 5.874 8.3428C6.136 8.1718 6.401 8.0658 6.702 8.0198C6.839 7.9998 7.152 7.9998 7.296 8.0198ZM17.394 8.0398C17.651 8.0898 17.894 8.1908 18.116 8.3398C18.304 8.4648 18.534 8.6948 18.659 8.8828C18.808 9.1048 18.905 9.3398 18.964 9.6088C18.987 9.7188 18.987 9.7658 18.987 9.9998C18.987 10.2928 18.976 10.3868 18.905 10.6098C18.7718 11.0262 18.5055 11.3874 18.147 11.6378C17.7886 11.8882 17.3579 12.014 16.921 11.9958C16.4121 11.978 15.9295 11.7654 15.573 11.4018C15.2207 11.0496 15.0167 10.5758 15.003 10.0778C14.9845 9.58812 15.146 9.10862 15.457 8.72996C15.768 8.35129 16.207 8.09972 16.691 8.0228C16.925 7.99688 17.1614 8.00226 17.394 8.0388V8.0398ZM16.249 16.0268C16.604 16.1288 16.874 16.3978 16.968 16.7498C17.003 16.8868 17.003 17.1128 16.968 17.2418C16.9201 17.4312 16.8181 17.6026 16.6744 17.7351C16.5308 17.8675 16.3517 17.9554 16.159 17.9878C16.054 18.0038 7.944 18.0038 7.839 17.9878C7.64646 17.955 7.46756 17.8671 7.32398 17.7347C7.18039 17.6023 7.07828 17.4311 7.03 17.2418C6.99488 17.0797 6.99488 16.9119 7.03 16.7498C7.132 16.3628 7.472 16.0588 7.858 16.0078C7.905 16.0038 9.722 15.9998 12.046 15.9998H16.156L16.249 16.0268Z" fill="currentColor"/>
</svg>
