<svg width="24" height="24" viewBox="0 0 24 24" fill="none" xmlns="http://www.w3.org/2000/svg">
<g clip-path="url(#clip0_2910_7632)">
<path d="M11.45 0.0117998C8.93596 0.121037 6.52035 1.02007 4.54662 2.58106C2.57289 4.14206 1.14151 6.28556 0.456 8.7068C0.220559 9.54202 0.0740787 10.3998 0.019 11.2658C0.00339297 11.7537 0.00339297 12.2419 0.019 12.7298C0.116 14.0898 0.374 15.2458 0.839 16.4218C1.4755 18.0396 2.45754 19.4989 3.71652 20.6977C4.9755 21.8966 6.48105 22.8061 8.128 23.3628C9.882 23.9568 11.78 24.1408 13.64 23.8868C15.4662 23.6395 17.2106 22.9735 18.737 21.9408C20.3068 20.8753 21.6027 19.4541 22.519 17.7928C22.659 17.5388 22.905 17.0348 23.022 16.7578C23.464 15.7268 23.761 14.6478 23.897 13.5508C23.972 12.9838 23.991 12.6248 23.991 12.0038C23.991 11.4728 23.983 11.2658 23.941 10.8158C23.7517 8.84676 23.0765 6.95552 21.976 5.3118C20.6849 3.39027 18.8679 1.88114 16.742 0.9648C15.6299 0.494688 14.4546 0.190767 13.254 0.0627998C12.746 0.0117998 11.923 -0.0122002 11.45 0.0117998ZM7.296 8.0198C7.78354 8.09224 8.227 8.34259 8.5409 8.7226C8.8548 9.1026 9.01692 9.58536 8.996 10.0778C8.972 10.5978 8.776 11.0508 8.413 11.4138C8.05884 11.772 7.58051 11.9804 7.077 11.9958C6.83435 12.0092 6.59143 11.9749 6.362 11.8948C6.00516 11.7756 5.68932 11.5579 5.45096 11.2668C5.21261 10.9757 5.06147 10.6231 5.015 10.2498C4.995 10.0898 5.007 9.7538 5.038 9.6098C5.093 9.3478 5.19 9.1098 5.338 8.8828C5.46 8.6988 5.694 8.4648 5.874 8.3428C6.136 8.1718 6.401 8.0658 6.702 8.0198C6.839 7.9998 7.152 7.9998 7.296 8.0198ZM17.394 8.0398C17.651 8.0898 17.894 8.1908 18.116 8.3398C18.304 8.4648 18.534 8.6948 18.659 8.8828C18.808 9.1048 18.905 9.3398 18.964 9.6088C18.987 9.7188 18.987 9.7658 18.987 9.9998C18.987 10.2928 18.976 10.3868 18.905 10.6098C18.7718 11.0262 18.5055 11.3874 18.147 11.6378C17.7886 11.8882 17.3579 12.014 16.921 11.9958C16.4121 11.978 15.9295 11.7654 15.573 11.4018C15.2207 11.0496 15.0167 10.5758 15.003 10.0778C14.9845 9.58812 15.146 9.10862 15.457 8.72996C15.768 8.35129 16.207 8.09972 16.691 8.0228C16.925 7.99688 17.1614 8.00226 17.394 8.0388V8.0398ZM12.679 15.0348C14.209 15.1888 15.6454 15.8437 16.765 16.8978C16.948 17.0698 17.214 17.3518 17.269 17.4338C17.327 17.5238 17.386 17.6518 17.413 17.7578C17.448 17.8908 17.448 18.1088 17.413 18.2378C17.3658 18.4208 17.2684 18.5869 17.1318 18.7175C16.9953 18.8481 16.8249 18.9379 16.64 18.9768C16.4724 19.0108 16.2988 19.0012 16.136 18.9488C15.936 18.8828 15.87 18.8358 15.561 18.5268C15.085 18.0468 14.683 17.7568 14.144 17.4968C13.2627 17.0738 12.277 16.9174 11.308 17.0468C10.167 17.1948 9.128 17.7338 8.312 18.5938C8.136 18.7768 8.05 18.8478 7.917 18.9058C7.761 18.9758 7.702 18.9878 7.495 18.9878C7.315 18.9878 7.3 18.9878 7.195 18.9528C7.04361 18.9026 6.90644 18.8169 6.795 18.7028C6.67955 18.5932 6.59356 18.4564 6.545 18.3048C6.511 18.1948 6.511 18.1878 6.511 17.9998C6.511 17.8118 6.511 17.8048 6.546 17.6948C6.62 17.4798 6.729 17.3348 7.101 16.9728C8.32131 15.785 9.93482 15.0858 11.636 15.0078C11.792 14.9918 12.464 15.0118 12.679 15.0348Z" fill="currentColor"/>
</g>
<defs>
<clipPath id="clip0_2910_7632">
<rect width="24" height="24" fill="white"/>
</clipPath>
</defs>
</svg>
