<svg width="24" height="24" viewBox="0 0 24 24" fill="none" xmlns="http://www.w3.org/2000/svg">
<path d="M4.816 2.01581C4.633 2.05481 4.453 2.14781 4.316 2.27681C4.176 2.40981 4.086 2.56681 4.027 2.75681L4.004 2.85181L3.996 15.9958L3.133 15.9998C2.352 16.0038 2.258 16.0038 2.187 16.0228C2.01607 16.0633 1.85888 16.1482 1.73138 16.2691C1.60387 16.3899 1.51059 16.5423 1.461 16.7108C1.421 16.8318 1.406 17.0428 1.43 17.1758C1.45 17.2888 1.508 17.4408 1.574 17.5428C1.621 17.6128 2.008 18.0028 3.473 19.4728C4.10542 20.1137 4.74479 20.7478 5.391 21.3748C5.49891 21.4549 5.62059 21.5146 5.75 21.5508C5.879 21.5898 6.121 21.5898 6.25 21.5508C6.37976 21.5147 6.50179 21.455 6.61 21.3748C6.652 21.3438 7.516 20.4878 8.527 19.4728C10.523 17.4728 10.449 17.5548 10.523 17.3478C10.5718 17.2222 10.5906 17.087 10.578 16.9528C10.5783 16.8709 10.5665 16.7893 10.543 16.7108C10.4938 16.5443 10.402 16.3936 10.2766 16.2736C10.1511 16.1536 9.99649 16.0686 9.828 16.0268C9.734 16.0038 9.711 16.0038 8.868 15.9998L8.004 15.9958L8 2.85181L7.973 2.75781C7.92339 2.57759 7.82595 2.41415 7.691 2.28481C7.58011 2.17083 7.44163 2.08746 7.289 2.04281L7.191 2.00781H6.031C5.391 2.00781 4.848 2.01181 4.816 2.01581ZM10.887 4.00781C10.6832 4.03074 10.4914 4.11576 10.3376 4.25135C10.1838 4.38693 10.0753 4.56653 10.027 4.76581C9.9984 4.91265 9.99704 5.06349 10.023 5.21081C10.109 5.61281 10.441 5.92081 10.852 5.98781C10.902 5.99581 11.484 5.99981 12.5 5.99981C13.852 5.99981 14.086 5.99581 14.176 5.97981C14.4129 5.93873 14.627 5.81332 14.7787 5.62672C14.9304 5.44013 15.0094 5.20496 15.0013 4.96464C14.9931 4.72431 14.8983 4.49505 14.7343 4.31918C14.5703 4.14331 14.3482 4.03272 14.109 4.00781C13.992 3.99181 11.008 3.99181 10.887 4.00781ZM10.79 8.02281C10.563 8.06981 10.34 8.21481 10.195 8.40581C10.1218 8.51359 10.0664 8.63245 10.031 8.75781C9.99593 8.91589 9.99593 9.07973 10.031 9.23781C10.0631 9.3568 10.1134 9.47013 10.18 9.57381C10.285 9.71881 10.457 9.85481 10.617 9.92181C10.809 9.99981 10.559 9.99581 14.039 9.99181L17.188 9.98781L17.273 9.96481C17.609 9.85881 17.859 9.60881 17.961 9.27281C17.9884 9.18457 17.9989 9.09195 17.992 8.99981C17.9988 8.90636 17.9883 8.81244 17.961 8.72281C17.9121 8.56024 17.8236 8.41232 17.7035 8.29226C17.5835 8.17221 17.4356 8.08376 17.273 8.03481L17.188 8.00781H14.028C11.258 8.00781 10.859 8.00781 10.789 8.02281H10.79ZM10.824 12.0158C10.6295 12.0518 10.4498 12.1443 10.3076 12.2818C10.1653 12.4193 10.0667 12.5956 10.024 12.7888C9.99771 12.9361 9.99873 13.0869 10.027 13.2338C10.121 13.6048 10.407 13.8868 10.789 13.9768C10.879 13.9968 11.059 13.9968 16.008 13.9968H21.137L21.234 13.9728C21.488 13.9028 21.695 13.7578 21.832 13.5508C21.9512 13.3767 22.0076 13.1672 21.992 12.9568C21.9904 12.8105 21.9526 12.6669 21.882 12.5388C21.8198 12.4192 21.7341 12.3133 21.6302 12.2274C21.5263 12.1416 21.4062 12.0774 21.277 12.0388L21.172 12.0038H16.039C11.816 12.0038 10.891 12.0038 10.824 12.0158Z" fill="currentColor"/>
</svg>
