<svg width="24" height="24" viewBox="0 0 24 24" fill="none" xmlns="http://www.w3.org/2000/svg">
<path d="M16.883 1.0078C16.73 1.0278 16.551 1.0938 16.422 1.1878C16.3241 1.26083 16.2383 1.34892 16.168 1.4488C16.141 1.4918 15.203 3.3548 14.086 5.5888C11.898 9.9688 12.02 9.7148 12.004 9.9368C11.9958 10.0815 12.019 10.2262 12.0721 10.3611C12.1251 10.4959 12.2068 10.6177 12.3114 10.718C12.4161 10.8182 12.5412 10.8946 12.6782 10.9419C12.8152 10.9892 12.9608 11.0062 13.105 10.9918C13.398 10.9568 13.68 10.7888 13.832 10.5508C13.859 10.5078 14.051 10.1408 14.25 9.7338L14.621 8.9998H19.383L19.758 9.7538C19.965 10.1678 20.152 10.5268 20.172 10.5588C20.266 10.6948 20.422 10.8288 20.578 10.9018C20.718 10.9718 20.832 10.9958 21 10.9958C21.1447 11.0012 21.2884 10.9703 21.418 10.9058C21.5521 10.8412 21.6706 10.7485 21.7655 10.6339C21.8604 10.5193 21.9295 10.3855 21.968 10.2418C22 10.1318 22 9.8718 21.968 9.7498C21.949 9.6798 21.5 8.7728 19.902 5.5698C19.2096 4.18047 18.512 2.79379 17.809 1.4098C17.7027 1.26836 17.5614 1.15695 17.3991 1.08648C17.2368 1.01602 17.0589 0.988902 16.883 1.0078ZM17.691 5.6128L18.375 6.9878C18.375 6.9918 17.754 6.9958 17 6.9958H15.621L16.309 5.6168L17 4.2418C17.004 4.2418 17.313 4.8588 17.691 5.6128ZM5.8 1.4338C5.758 1.4448 5.684 1.4638 5.633 1.4838C5.433 1.5628 5.493 1.5078 3.48 3.5238C1.531 5.4758 1.57 5.4298 1.492 5.6038C1.422 5.7688 1.398 6.0138 1.438 6.1978C1.477 6.3978 1.586 6.5878 1.734 6.7288C1.82203 6.81324 1.92561 6.8798 2.039 6.9248C2.207 6.9948 2.23 6.9948 3.152 6.9948H3.996V14.4998C3.996 19.5498 4 22.0348 4.008 22.1048C4.033 22.3315 4.13448 22.5428 4.29573 22.7041C4.45697 22.8653 4.66834 22.9668 4.895 22.9918C5.035 23.0078 6.965 23.0078 7.109 22.9918C7.33528 22.9668 7.54621 22.8652 7.70682 22.7039C7.86743 22.5426 7.96805 22.3312 7.992 22.1048C8 22.0348 8.004 19.5508 8.004 14.4998V6.9958H8.852C9.632 6.9958 9.707 6.9918 9.805 6.9728C9.96397 6.9386 10.1119 6.86526 10.2353 6.75944C10.3588 6.65362 10.4539 6.51866 10.512 6.3668C10.6084 6.12168 10.607 5.84888 10.508 5.6048C10.43 5.4298 10.473 5.4768 8.52 3.5228C6.5 1.5028 6.559 1.5548 6.363 1.4838C6.18344 1.41748 5.98845 1.40022 5.8 1.4338ZM12.89 13.0078C12.6977 13.028 12.5156 13.1043 12.3662 13.2271C12.2169 13.35 12.1069 13.514 12.05 13.6988C11.9969 13.8508 11.9866 14.0144 12.02 14.1718C12.0521 14.3662 12.1432 14.546 12.281 14.6868C12.4077 14.823 12.5703 14.9207 12.75 14.9688L12.84 14.9918L18.594 14.9998L15.391 18.2028C12.891 20.7028 12.184 21.4178 12.148 21.4728C12.0652 21.6078 12.0155 21.7606 12.0031 21.9185C11.9906 22.0764 12.0158 22.2351 12.0765 22.3814C12.1372 22.5278 12.2316 22.6576 12.3522 22.7604C12.4727 22.8632 12.6159 22.936 12.77 22.9728L12.875 22.9958H21.137L21.234 22.9728C21.434 22.9178 21.59 22.8238 21.727 22.6798C21.8447 22.5575 21.9281 22.4065 21.969 22.2418C22.0002 22.0793 22.0002 21.9123 21.969 21.7498C21.9236 21.6078 21.855 21.4744 21.766 21.3548C21.6302 21.1997 21.4523 21.0872 21.254 21.0308L21.16 21.0038H18.29L15.417 20.9998L18.593 17.8198C19.6722 16.747 20.7449 15.6677 21.811 14.5818C21.866 14.5038 21.941 14.3478 21.968 14.2498C21.9882 14.1654 21.9949 14.0783 21.988 13.9918C21.988 13.8238 21.988 13.8008 21.956 13.7108C21.9114 13.5582 21.828 13.4197 21.714 13.3088C21.5847 13.1738 21.4212 13.0764 21.241 13.0268L21.148 12.9998H17.058C14.808 12.9998 12.933 13.0038 12.89 13.0078Z" fill="currentColor"/>
</svg>
