<svg width="24" height="24" viewBox="0 0 24 24" fill="none" xmlns="http://www.w3.org/2000/svg">
<path d="M4.918 1.00398C4.70607 1.02297 4.50552 1.10826 4.34485 1.24775C4.18418 1.38724 4.07156 1.57382 4.023 1.78098C4.003 1.85498 4.003 2.24998 4 9.42998L3.996 17.004H3.152C2.23 17.004 2.207 17.004 2.039 17.074C1.92561 17.119 1.82203 17.1855 1.734 17.27C1.586 17.41 1.477 17.602 1.438 17.8C1.398 17.984 1.422 18.227 1.492 18.39C1.57 18.566 1.532 18.523 3.48 20.477C5.484 22.484 5.434 22.437 5.629 22.512C5.867 22.605 6.133 22.605 6.371 22.512C6.566 22.437 6.516 22.484 8.516 20.48C9.75 19.246 10.395 18.59 10.422 18.547C10.5001 18.4268 10.5514 18.2912 10.5725 18.1494C10.5936 18.0076 10.5841 17.8629 10.5444 17.7251C10.5048 17.5874 10.436 17.4597 10.3428 17.3508C10.2496 17.2419 10.134 17.1544 10.004 17.094C9.82 17.008 9.879 17.012 8.891 17.008L8.004 17.004V9.49998C8.004 4.44998 8 1.96498 7.992 1.88998C7.96663 1.66463 7.86543 1.45459 7.70498 1.29433C7.54453 1.13406 7.33438 1.03309 7.109 1.00798C6.37874 0.994918 5.64831 0.993584 4.918 1.00398ZM16.883 1.00798C16.73 1.02798 16.551 1.09398 16.422 1.18798C16.3241 1.26102 16.2383 1.34911 16.168 1.44898C16.141 1.49198 15.203 3.35498 14.086 5.58898C11.898 9.96898 12.02 9.71498 12.004 9.93698C11.9958 10.0817 12.019 10.2264 12.0721 10.3613C12.1251 10.4961 12.2068 10.6179 12.3114 10.7181C12.4161 10.8184 12.5412 10.8948 12.6782 10.9421C12.8152 10.9894 12.9608 11.0064 13.105 10.992C13.398 10.957 13.68 10.789 13.832 10.551C13.859 10.508 14.051 10.141 14.25 9.73398L14.621 8.99998H19.383L19.758 9.75398C19.965 10.168 20.152 10.527 20.172 10.559C20.266 10.695 20.422 10.829 20.578 10.902C20.718 10.972 20.832 10.996 21 10.996C21.1447 11.0014 21.2884 10.9705 21.418 10.906C21.5521 10.8414 21.6706 10.7486 21.7655 10.634C21.8604 10.5194 21.9295 10.3857 21.968 10.242C22 10.132 22 9.87198 21.968 9.74998C21.949 9.67998 21.5 8.77298 19.902 5.56998C19.2096 4.18066 18.512 2.79398 17.809 1.40998C17.7027 1.26854 17.5614 1.15714 17.3991 1.08667C17.2368 1.0162 17.0589 0.989089 16.883 1.00798ZM17.691 5.61298L18.375 6.98798C18.375 6.99198 17.754 6.99598 17 6.99598H15.621L16.309 5.61698L17 4.24198C17.004 4.24198 17.313 4.85898 17.691 5.61298ZM12.89 13.008C12.6977 13.0282 12.5156 13.1045 12.3662 13.2273C12.2169 13.3502 12.1069 13.5142 12.05 13.699C11.9969 13.8509 11.9866 14.0145 12.02 14.172C12.0521 14.3664 12.1432 14.5462 12.281 14.687C12.4077 14.8232 12.5703 14.9209 12.75 14.969L12.84 14.992L18.594 15L15.391 18.203C12.891 20.703 12.184 21.418 12.148 21.473C12.0652 21.608 12.0155 21.7608 12.0031 21.9187C11.9906 22.0766 12.0158 22.2353 12.0765 22.3816C12.1372 22.5279 12.2316 22.6578 12.3522 22.7606C12.4727 22.8634 12.6159 22.9362 12.77 22.973L12.875 22.996H21.137L21.234 22.973C21.434 22.918 21.59 22.824 21.727 22.68C21.8447 22.5577 21.9281 22.4067 21.969 22.242C22.0002 22.0795 22.0002 21.9125 21.969 21.75C21.9236 21.608 21.855 21.4745 21.766 21.355C21.6302 21.1999 21.4523 21.0873 21.254 21.031L21.16 21.004H18.29L15.417 21L18.593 17.82C19.6722 16.7472 20.7449 15.6679 21.811 14.582C21.866 14.504 21.941 14.348 21.968 14.25C21.9882 14.1656 21.9949 14.0785 21.988 13.992C21.988 13.824 21.988 13.801 21.956 13.711C21.9114 13.5584 21.828 13.4199 21.714 13.309C21.5847 13.174 21.4212 13.0766 21.241 13.027L21.148 13H17.058C14.808 13 12.933 13.004 12.89 13.008Z" fill="currentColor"/>
</svg>
