<svg width="24" height="24" viewBox="0 0 24 24" fill="none" xmlns="http://www.w3.org/2000/svg">
<path d="M4.746 0.008C3.781 0.078 2.902 0.468 2.215 1.133C1.531 1.793 1.125 2.641 1.015 3.621C0.996 3.821 0.996 20.18 1.015 20.379C1.109 21.199 1.395 21.895 1.902 22.527C2.027 22.684 2.328 22.984 2.492 23.113C3.098 23.598 3.812 23.891 4.59 23.98C4.797 24 19.203 24 19.414 23.98C20.3051 23.8864 21.1388 23.4958 21.781 22.871C22.3794 22.2923 22.7824 21.5415 22.934 20.723C23 20.367 22.996 20.613 23 16.668C23.004 14.172 23 12.984 22.992 12.844C22.9776 12.5183 22.909 12.1972 22.789 11.894C22.6354 11.5149 22.4084 11.17 22.121 10.879C21.6423 10.4046 21.0198 10.1022 20.351 10.019C20.27 10.008 19.648 10 17.953 9.996C15.664 9.988 15.664 9.988 15.52 9.965C15.0444 9.88542 14.595 9.69229 14.21 9.402C13.8235 9.11948 13.5138 8.74478 13.309 8.312C13.1699 8.0358 13.0747 7.73956 13.027 7.434L13.004 7.27L12.996 4.969C12.988 2.477 12.992 2.645 12.926 2.339C12.7832 1.71593 12.4468 1.15407 11.965 0.734C11.4837 0.321101 10.8856 0.0686996 10.254 0.012C10.133 2.91038e-10 4.894 -0.004 4.746 0.008ZM6.98 15.035C7.418 15.102 7.766 15.211 8.035 15.371C8.227 15.481 8.316 15.582 8.375 15.75C8.40257 15.8261 8.41315 15.9074 8.406 15.988C8.41 16.176 8.386 16.254 8.296 16.378C8.25718 16.4383 8.20632 16.49 8.14661 16.5297C8.0869 16.5695 8.01963 16.5965 7.949 16.609C7.848 16.621 7.73 16.598 7.535 16.516C7.38844 16.452 7.23514 16.4047 7.078 16.375C6.8806 16.3319 6.67904 16.3108 6.477 16.312C6.016 16.312 5.707 16.442 5.586 16.684C5.5562 16.7445 5.54242 16.8116 5.546 16.879C5.539 17.027 5.562 17.102 5.645 17.187C5.765 17.317 5.898 17.359 6.633 17.531C7.262 17.676 7.414 17.719 7.593 17.789C8.227 18.039 8.578 18.449 8.664 19.035C8.704 19.281 8.684 19.617 8.621 19.859C8.49108 20.3199 8.18358 20.7105 7.766 20.945C7.309 21.199 6.696 21.32 6.062 21.285C5.406 21.242 4.844 21.109 4.418 20.895C4.203 20.781 4.094 20.668 4.039 20.492C4.0022 20.391 3.99154 20.2823 4.008 20.176C4.062 19.766 4.368 19.52 4.707 19.598C4.742 19.609 4.844 19.648 4.93 19.688C5.375 19.891 5.883 19.992 6.383 19.977C6.781 19.965 6.977 19.902 7.117 19.747C7.207 19.648 7.227 19.597 7.227 19.453C7.227 19.34 7.223 19.324 7.191 19.27C7.14007 19.1805 7.06245 19.1092 6.969 19.066C6.844 19 6.668 18.953 6.089 18.82C5.773 18.746 5.469 18.676 5.414 18.66C4.777 18.477 4.364 18.129 4.184 17.621C4.12212 17.4426 4.09167 17.2548 4.094 17.066C4.0723 16.7812 4.11908 16.4953 4.23042 16.2323C4.34176 15.9693 4.51443 15.7367 4.734 15.554C5.094 15.254 5.637 15.054 6.219 15.008C6.371 14.992 6.82 15.012 6.98 15.035ZM12.648 15.035C13.383 15.145 13.992 15.504 14.414 16.07C14.766 16.54 14.969 17.102 15.024 17.762C15.043 17.977 15.031 18.508 15.008 18.692C14.918 19.328 14.688 19.891 14.344 20.316C14.1713 20.5235 13.97 20.7053 13.746 20.856C13.68 20.898 13.66 20.918 13.691 20.918C13.723 20.918 13.895 21.008 13.965 21.063C14.117 21.18 14.175 21.258 14.445 21.715C14.665 22.094 14.699 22.175 14.699 22.335C14.6994 22.4226 14.6808 22.5092 14.6446 22.589C14.6084 22.6687 14.5553 22.7397 14.489 22.797C14.3507 22.9275 14.1671 22.9992 13.977 22.997C13.8754 22.9976 13.775 22.9755 13.6831 22.9322C13.5913 22.889 13.5102 22.8257 13.446 22.747C13.3118 22.5362 13.1828 22.3221 13.059 22.105C12.879 21.793 12.707 21.512 12.679 21.48C12.6143 21.406 12.529 21.3531 12.434 21.328C12.375 21.308 12.304 21.301 12.114 21.293C11.664 21.273 11.348 21.215 11.062 21.102C10.697 20.9669 10.3683 20.7488 10.102 20.465C9.656 20.004 9.395 19.41 9.297 18.656C9.27289 18.3299 9.27022 18.0025 9.289 17.676C9.348 17.215 9.441 16.875 9.617 16.516C10.043 15.641 10.824 15.117 11.847 15.012C12.02 14.992 12.465 15.008 12.648 15.035ZM16.887 15.113C17.113 15.164 17.281 15.328 17.355 15.566C17.367 15.609 17.383 15.703 17.391 15.77C17.398 15.848 17.402 16.633 17.402 17.887V19.875H18.445C19.59 19.875 19.555 19.871 19.699 19.945C19.7478 19.9714 19.7918 20.0059 19.829 20.047C19.949 20.172 19.996 20.305 19.996 20.52C19.996 20.68 19.98 20.766 19.926 20.879C19.8927 20.9516 19.8433 21.0157 19.7817 21.0664C19.72 21.1172 19.6476 21.1533 19.57 21.172C19.5 21.192 19.39 21.192 18.008 21.192C16.344 21.192 16.461 21.199 16.281 21.109C16.1632 21.0519 16.0681 20.9568 16.011 20.839C15.914 20.641 15.921 20.867 15.921 18.133V15.707L15.945 15.609C16.027 15.309 16.219 15.137 16.52 15.094C16.617 15.082 16.785 15.09 16.887 15.114V15.113Z" fill="currentColor"/>
<path d="M11.96 16.344C11.871 16.355 11.727 16.394 11.64 16.434C11.187 16.625 10.902 17.098 10.828 17.777C10.813 17.937 10.813 18.347 10.828 18.504C10.926 19.406 11.371 19.918 12.078 19.954C12.297 19.964 12.492 19.934 12.672 19.855C13.039 19.703 13.309 19.332 13.43 18.82C13.508 18.484 13.52 17.973 13.457 17.605C13.391 17.211 13.257 16.918 13.039 16.691C12.801 16.445 12.523 16.332 12.141 16.34C12.059 16.34 11.981 16.34 11.961 16.344H11.96ZM15.91 0.418C15.8142 0.431627 15.72 0.455084 15.629 0.488C15.5038 0.538978 15.3899 0.614276 15.2939 0.709539C15.198 0.804801 15.1219 0.918139 15.07 1.043C14.996 1.234 15 1.105 15 3.719C15 5.234 15.004 6.137 15.012 6.203C15.09 6.895 15.504 7.493 16.117 7.793C16.363 7.914 16.59 7.973 16.883 7.993C17 8 17.832 8.003 19.395 8C21.575 7.996 21.738 7.996 21.809 7.977C22.035 7.92685 22.2356 7.79779 22.375 7.613C22.5247 7.42403 22.5973 7.18533 22.578 6.945C22.5759 6.73365 22.4982 6.53004 22.359 6.371C22.246 6.227 16.645 0.641 16.562 0.586C16.4667 0.522023 16.3612 0.474685 16.25 0.446C16.1386 0.420105 16.0241 0.410672 15.91 0.418Z" fill="currentColor"/>
</svg>
