<svg width="24" height="24" viewBox="0 0 24 24" fill="none" xmlns="http://www.w3.org/2000/svg">
<path d="M3.676 0.0158224C3.07247 0.0639964 2.48776 0.248616 1.96599 0.555752C1.44423 0.862887 0.999032 1.28452 0.664 1.78882C0.312 2.32982 0.125 2.83982 0.02 3.56282C-8.73115e-10 3.69882 -0.008 20.0148 0.012 20.2758C0.0493042 20.8519 0.211892 21.4129 0.488415 21.9197C0.764937 22.4264 1.14873 22.8667 1.613 23.2098C2.22673 23.6668 2.95947 23.9366 3.723 23.9868C3.848 23.9948 6.293 23.9988 12.117 23.9948L20.34 23.9908L20.516 23.9678C21.25 23.8578 21.848 23.6158 22.406 23.1938C22.719 22.9598 22.969 22.7098 23.203 22.3938C23.664 21.7798 23.926 21.0768 23.988 20.2918C24.004 20.0768 24.004 3.91682 23.988 3.70182C23.9316 2.92267 23.6476 2.17725 23.1711 1.5582C22.6946 0.939143 22.0468 0.47374 21.308 0.219822C21.0247 0.126877 20.7335 0.0599335 20.438 0.0198224C20.316 0.00482239 3.887 -0.00317761 3.675 0.0168224L3.676 0.0158224ZM19.258 3.01582C20.066 3.12482 20.738 3.71482 20.938 4.49582C21.004 4.76182 21 4.64482 21 7.54582C21 9.22582 20.996 10.2928 20.988 10.4098C20.9248 11.4954 20.609 12.5512 20.0658 13.4932C19.5226 14.4352 18.7669 15.2374 17.859 15.8358C17.0031 16.4096 16.0284 16.7823 15.008 16.9258C14.531 16.9958 14.551 16.9958 12.707 16.9998L11.004 17.0038L11 18.2888C10.996 19.5658 10.996 19.5788 10.973 19.6908C10.903 19.9958 10.777 20.2188 10.566 20.4338C10.4448 20.5572 10.3021 20.6575 10.145 20.7298C9.645 20.9688 9.085 20.9218 8.633 20.6048C8.559 20.5548 7.906 19.9098 5.93 17.9298C3.07 15.0738 3.207 15.2148 3.055 14.9178C2.83378 14.5007 2.77125 14.0175 2.879 13.5578C2.94728 13.252 3.08788 12.9671 3.289 12.7268C3.329 12.6798 4.535 11.4688 5.969 10.0348C8.742 7.26482 8.625 7.37482 8.844 7.26982C9.238 7.06982 9.734 7.06982 10.144 7.26582C10.359 7.37082 10.598 7.56582 10.727 7.74982C10.84 7.90982 10.93 8.11282 10.977 8.33182C10.997 8.40982 10.997 8.55882 11 9.71082L11.004 11.0038L12.57 10.9998C14.285 10.9958 14.191 10.9998 14.371 10.9258C14.661 10.8088 14.863 10.5818 14.961 10.2698L14.996 10.1638L15 7.45682C15.008 4.47982 15.004 4.71082 15.078 4.44482C15.1871 4.07235 15.4014 3.73929 15.6951 3.48562C15.9889 3.23196 16.3496 3.06848 16.734 3.01482C16.91 2.99182 19.074 2.99282 19.258 3.01582Z" fill="currentColor"/>
</svg>
