<svg width="24" height="24" viewBox="0 0 24 24" fill="none" xmlns="http://www.w3.org/2000/svg">
<g clip-path="url(#clip0_2538_54168)">
<path d="M3.676 0.0158224C3.07247 0.0639964 2.48776 0.248616 1.96599 0.555752C1.44423 0.862887 0.999032 1.28452 0.664 1.78882C0.312 2.32982 0.125 2.83982 0.02 3.56282C-8.73115e-10 3.69882 -0.008 20.0148 0.012 20.2758C0.0493042 20.8519 0.211892 21.4129 0.488415 21.9197C0.764937 22.4264 1.14873 22.8667 1.613 23.2098C2.22673 23.6668 2.95947 23.9366 3.723 23.9868C3.848 23.9948 6.293 23.9988 12.117 23.9948L20.34 23.9908L20.516 23.9678C21.25 23.8578 21.848 23.6158 22.406 23.1938C22.719 22.9598 22.969 22.7098 23.203 22.3938C23.664 21.7798 23.926 21.0768 23.988 20.2918C24.004 20.0768 24.004 3.91682 23.988 3.70182C23.9316 2.92267 23.6476 2.17725 23.1711 1.5582C22.6946 0.939143 22.0468 0.47374 21.308 0.219822C21.0247 0.126877 20.7335 0.0599335 20.438 0.0198224C20.316 0.00482239 3.887 -0.00317761 3.675 0.0168224L3.676 0.0158224ZM6.223 7.02682C6.512 7.09382 6.758 7.28482 6.895 7.55482C6.949 7.66482 9.961 15.7068 9.98 15.7928C10.004 15.9178 10 16.1088 9.973 16.2268C9.92219 16.4465 9.79821 16.6424 9.6214 16.7823C9.44459 16.9222 9.22547 16.9979 9 16.9968C8.8086 16.9985 8.62087 16.9442 8.45991 16.8407C8.29895 16.7371 8.17176 16.5887 8.094 16.4138C7.99242 16.1658 7.89573 15.9157 7.804 15.6638L7.555 14.9998H4.446L4.196 15.6638C4.10324 15.9147 4.00823 16.1647 3.911 16.4138C3.83188 16.5885 3.70379 16.7364 3.54227 16.8397C3.38075 16.943 3.19273 16.9972 3.001 16.9958C2.77534 16.9976 2.55586 16.9222 2.3789 16.7822C2.20194 16.6421 2.07814 16.4458 2.028 16.2258C1.99938 16.083 1.99802 15.9361 2.024 15.7928C2.04 15.7068 5.052 7.66382 5.106 7.55482C5.216 7.33482 5.403 7.16482 5.626 7.06982C5.692 7.04682 5.81 7.01582 5.903 7.00382C5.962 6.99182 6.138 7.00782 6.223 7.02682ZM11.75 7.03082C12.094 7.11682 12.371 7.39482 12.473 7.75382L12.5 7.84382V9.42582L12.504 11.0038H13.102C13.801 11.0038 13.926 11.0118 14.238 11.0898C14.633 11.1908 15.074 11.4098 15.391 11.6718C15.7494 11.9622 16.0356 12.3316 16.2273 12.7511C16.419 13.1706 16.511 13.6288 16.496 14.0898C16.4811 14.7124 16.2693 15.3142 15.891 15.8088C15.777 15.9608 15.5 16.2458 15.351 16.3588C14.9358 16.6843 14.4429 16.8959 13.921 16.9728C13.754 16.9958 13.746 16.9958 12.551 16.9958H11.351L11.258 16.9728C11.0828 16.9261 10.9231 16.8341 10.7949 16.7059C10.6668 16.5777 10.5747 16.418 10.528 16.2428C10.508 16.1678 10.508 16.0118 10.508 11.9998C10.508 7.98782 10.508 7.83182 10.528 7.75782C10.641 7.35182 10.957 7.06982 11.363 7.00782C11.461 6.99182 11.641 7.00382 11.75 7.03082ZM21.305 11.0468C21.465 11.1018 21.585 11.1758 21.703 11.2968C21.8185 11.4064 21.9044 11.5433 21.953 11.6948C21.988 11.8048 21.988 11.8118 21.988 11.9998C21.988 12.1878 21.988 12.1948 21.953 12.3048C21.843 12.6248 21.605 12.8588 21.273 12.9648C21.195 12.9878 21.164 12.9878 20.527 12.9958C19.902 13.0038 19.852 13.0038 19.766 13.0268C19.27 13.1568 18.949 13.6168 19.008 14.1128C19.0277 14.2837 19.0913 14.4465 19.1926 14.5854C19.2939 14.7244 19.4294 14.8348 19.586 14.9058C19.773 14.9918 19.758 14.9918 20.504 14.9998C20.871 15.0038 21.184 15.0118 21.199 15.0158C21.406 15.0778 21.496 15.1208 21.605 15.2028C21.757 15.3183 21.8728 15.4749 21.9387 15.6541C22.0046 15.8332 22.0178 16.0275 21.9768 16.214C21.9358 16.4005 21.8423 16.5713 21.7073 16.7063C21.5723 16.8413 21.4015 16.9348 21.215 16.9758C21.133 16.9958 21.063 16.9958 20.457 16.9958C19.747 16.9958 19.676 16.9918 19.402 16.9378C18.7997 16.8161 18.2494 16.512 17.8259 16.0667C17.4024 15.6214 17.1263 15.0565 17.035 14.4488C17.0048 14.2013 16.9981 13.9516 17.015 13.7028C17.0796 13.0677 17.3446 12.4697 17.7715 11.9951C18.1985 11.5205 18.7653 11.194 19.39 11.0628C19.637 11.0078 19.723 11.0078 20.48 11.0078H21.195L21.305 11.0468Z" fill="currentColor"/>
<path d="M5.598 11.9218C5.383 12.5038 5.203 12.9798 5.203 12.9878C5.203 12.9918 5.563 12.9958 6 12.9958C6.438 12.9958 6.797 12.9918 6.797 12.9878C6.797 12.9728 6.007 10.8628 6 10.8628C5.996 10.8628 5.816 11.3398 5.598 11.9218ZM12.504 14.9998L13.672 14.9918L13.777 14.9608C14.113 14.8548 14.367 14.6008 14.461 14.2728C14.4969 14.1194 14.5036 13.9607 14.481 13.8048C14.4417 13.6195 14.3519 13.4487 14.2214 13.3114C14.091 13.1741 13.925 13.0756 13.742 13.0268C13.652 13.0038 13.617 13.0038 13.074 12.9998L12.504 12.9918V14.9998Z" fill="currentColor"/>
</g>
<defs>
<clipPath id="clip0_2538_54168">
<rect width="24" height="24" fill="white"/>
</clipPath>
</defs>
</svg>
