<svg width="24" height="24" viewBox="0 0 24 24" fill="none" xmlns="http://www.w3.org/2000/svg">
<path d="M3.781 1.00376C3.15781 1.03776 2.55126 1.21729 2.00997 1.52796C1.46868 1.83864 1.0077 2.27181 0.664 2.79276C0.320366 3.30816 0.102208 3.89688 0.027 4.51176C0.007 4.66376 0.007 4.99576 0.007 11.9798C0.007 17.9178 0.007 19.3158 0.02 19.4178C0.09 19.9568 0.215 20.3778 0.441 20.8238C0.812 21.5588 1.441 22.1838 2.176 22.5588C2.617 22.7848 3.055 22.9138 3.57 22.9768C3.734 22.9968 4.105 22.9968 12 22.9968C19.863 22.9968 20.266 22.9968 20.434 22.9768C21.3148 22.8826 22.1386 22.496 22.774 21.8788C23.464 21.2108 23.864 20.3908 23.98 19.4098C24 19.2188 24 4.73776 23.98 4.55876C23.9067 3.92963 23.6875 3.32629 23.34 2.79676C23.0018 2.28175 22.5489 1.85211 22.0167 1.54154C21.4846 1.23098 20.8878 1.04793 20.273 1.00676C20.16 0.999758 17.433 0.997759 11.973 0.999759C7.496 0.999759 3.813 0.999758 3.781 1.00376ZM21.996 11.0038H2.004V8.00376H21.996V11.0038ZM21.996 15.9958H2.004V12.9958H21.996V15.9958ZM21.996 18.5898C21.996 19.2228 21.992 19.2998 21.934 19.5198C21.8429 19.8571 21.6651 20.1648 21.4183 20.4122C21.1715 20.6595 20.8642 20.838 20.527 20.9298C20.247 21.0038 20.922 20.9998 12.004 20.9998C4.855 20.9998 3.852 20.9958 3.734 20.9798C3.27502 20.9226 2.8514 20.7038 2.539 20.3628C2.2847 20.0947 2.11137 19.7601 2.039 19.3978C2.012 19.2888 2.012 19.2538 2.008 18.6408L2.004 17.9998H21.996V18.5898Z" fill="currentColor"/>
</svg>
