<svg width="24" height="24" viewBox="0 0 24 24" fill="none" xmlns="http://www.w3.org/2000/svg">
<path d="M13.707 2.02717C13.4768 2.06808 13.2572 2.15495 13.0614 2.28261C12.8655 2.41027 12.6974 2.57609 12.567 2.77017C12.523 2.84017 9.582 7.98017 9.465 8.19117C9.22877 8.64552 9.07794 9.13937 9.02 9.64817C9 9.83617 9 18.3712 9.02 18.5392C9.145 19.4342 9.605 20.1872 10.344 20.6762C10.637 20.8752 11.016 21.0362 11.355 21.1092C11.582 21.1562 16.371 22.0232 16.508 22.0392C16.695 22.0622 17.168 22.0662 17.352 22.0472C18.1443 21.9618 18.8941 21.6453 19.508 21.1372C19.664 21.0072 19.93 20.7422 20.055 20.5822C20.418 20.1292 20.68 19.6092 20.82 19.0662C20.836 19.0002 21.148 17.2422 21.516 15.1602C21.883 13.0782 22.188 11.3632 22.191 11.3552L22.207 11.1992C22.2307 10.8787 22.1685 10.5577 22.027 10.2692C21.699 9.58917 20.992 9.09817 20.211 9.01217C20.137 9.00417 19.375 9.00017 17.832 9.00017C15.375 9.00017 15.472 9.00417 15.242 8.93417C15.0864 8.88847 14.9389 8.81862 14.805 8.72717C14.6495 8.61287 14.5123 8.47564 14.398 8.32017C14.2202 8.06319 14.1259 7.75766 14.128 7.44517C14.128 7.19117 14.176 6.97717 14.285 6.76217C14.312 6.70717 14.609 6.18417 14.945 5.59817C15.285 5.00017 15.578 4.47717 15.605 4.41017C16 3.48817 15.512 2.41017 14.562 2.09017C14.2857 2.00317 13.993 1.9816 13.707 2.02717ZM3.785 9.01217C3.49517 9.04475 3.21586 9.13986 2.96638 9.29093C2.7169 9.44201 2.50318 9.64544 2.34 9.88717C2.2 10.1022 2.098 10.3472 2.035 10.6172L2.012 10.7382V19.2582L2.035 19.3832C2.16 19.9382 2.453 20.3752 2.915 20.6762C3.145 20.8282 3.422 20.9342 3.715 20.9802C3.859 21.0002 5.172 21.0002 5.297 20.9802C5.70505 20.9163 6.08371 20.7288 6.38196 20.4431C6.6802 20.1574 6.88369 19.7871 6.965 19.3822L6.992 19.2582V10.7382L6.965 10.6182C6.88031 10.1972 6.66327 9.81427 6.34557 9.52534C6.02786 9.23642 5.62613 9.05662 5.199 9.01217C4.7278 8.99655 4.2562 8.99655 3.785 9.01217Z" fill="currentColor"/>
</svg>
