<svg width="24" height="24" viewBox="0 0 24 24" fill="none" xmlns="http://www.w3.org/2000/svg">
<g clip-path="url(#clip0_2538_58166)">
<path d="M8.54 0.0121853C6.89188 0.0925835 5.29796 0.626541 3.934 1.55519C3.11596 2.11199 2.39501 2.79949 1.8 3.59019C1.05106 4.58893 0.517758 5.73236 0.233898 6.94802C-0.0499619 8.16368 -0.078191 9.42505 0.151 10.6522C0.45114 12.2744 1.19184 13.7828 2.292 15.0122C2.472 15.2112 2.831 15.5702 3.022 15.7382C4.52013 17.0623 6.41539 17.8517 8.41052 17.9825C10.4056 18.1134 12.3878 17.5783 14.046 16.4612C15.5478 15.4418 16.7075 13.9935 17.374 12.3052C18.038 10.6132 18.174 8.73519 17.764 6.95319C17.4265 5.49469 16.7297 4.14373 15.737 3.02319C15.5102 2.77653 15.2744 2.53836 15.03 2.30919C14.1105 1.48052 13.0295 0.851004 11.855 0.460185C10.7872 0.107134 9.66329 -0.0454307 8.54 0.0101853V0.0121853ZM8.965 5.10219V6.19919H10.957L10.953 6.22719C10.824 6.78119 10.566 7.71919 10.52 7.80919C10.4744 7.89035 10.4063 7.95665 10.324 8.00019L10.262 8.03119L8.965 8.03918V9.83619C8.965 11.4062 8.969 11.6412 8.985 11.7542C9.031 12.0632 9.102 12.1292 9.387 12.1142C9.629 12.1022 9.777 12.0512 10.16 11.8362L10.414 11.6992C10.418 11.7032 10.988 13.3792 10.996 13.4022C11 13.4182 10.699 13.5622 10.352 13.7112C9.882 13.9142 9.277 14.0272 8.84 13.9922C8.293 13.9492 7.883 13.7772 7.563 13.4612C7.258 13.1522 7.086 12.7662 7.016 12.2112C7.004 12.1132 7.004 11.3592 7.004 8.37519V4.66019L7.964 4.33619C8.492 4.15619 8.934 4.00819 8.945 4.00819C8.965 4.00819 8.965 4.06619 8.965 5.10219Z" fill="currentColor"/>
<path d="M20.531 8.25819C20.4176 8.2965 20.3146 8.36047 20.2299 8.44511C20.1453 8.52975 20.0813 8.63278 20.043 8.74619C20.016 8.83619 20.012 8.86319 19.996 9.27019C19.988 9.50019 19.973 9.79318 19.965 9.91418C19.7931 11.9767 19.0415 13.9485 17.797 15.6022C16.1017 17.8618 13.6027 19.3834 10.817 19.8522C10.305 19.9372 9.895 19.9722 9.262 19.9962C8.863 20.0122 8.836 20.0162 8.75 20.0432C8.56467 20.1034 8.40939 20.2322 8.316 20.4032C8.2548 20.5035 8.22877 20.6214 8.242 20.7382C8.23778 20.8163 8.25693 20.894 8.297 20.9612C8.344 21.0592 8.363 21.0822 8.59 21.3092C8.723 21.4452 8.906 21.6212 9 21.7072C10.1873 22.7688 11.6348 23.4969 13.195 23.8172C14.8264 24.1517 16.5187 24.0264 18.0832 23.4554C19.6476 22.8844 21.0226 21.89 22.055 20.5832C23.1373 19.2241 23.7984 17.5782 23.957 15.8482C24.0851 14.5175 23.9138 13.175 23.4556 11.9191C22.9974 10.6632 22.2639 9.52576 21.309 8.59019C21.082 8.36318 21.059 8.34418 20.961 8.29718C20.859 8.24718 20.855 8.24718 20.727 8.24218C20.6612 8.23524 20.5948 8.24067 20.531 8.25819Z" fill="currentColor"/>
</g>
<defs>
<clipPath id="clip0_2538_58166">
<rect width="24" height="24" fill="white"/>
</clipPath>
</defs>
</svg>
