<svg width="24" height="24" viewBox="0 0 24 24" fill="none" xmlns="http://www.w3.org/2000/svg">
<path d="M11.645 1.008C9.387 1.078 7.223 1.84 5.418 3.191C5.21497 3.33951 5.01814 3.49631 4.828 3.661L4.778 3.707L4.203 3.133C3.887 2.816 3.605 2.543 3.574 2.523C3.47677 2.46049 3.37191 2.41075 3.262 2.375C3.17665 2.35229 3.08801 2.3445 3 2.352C2.90793 2.34506 2.81537 2.35524 2.727 2.382C2.54522 2.43297 2.38175 2.53476 2.25581 2.6754C2.12987 2.81605 2.04667 2.98971 2.016 3.176C2.008 3.226 2.004 3.856 2.008 5.219L2.012 7.187L2.043 7.289C2.105 7.473 2.183 7.594 2.309 7.719C2.445 7.844 2.586 7.922 2.766 7.973L2.867 7.996H6.793L6.895 7.973C7.06413 7.93191 7.21948 7.84709 7.3455 7.72704C7.47151 7.60699 7.56376 7.45593 7.613 7.289C7.63729 7.20656 7.64909 7.12094 7.648 7.035C7.66649 6.83539 7.61563 6.63551 7.504 6.469C7.461 6.395 7.34 6.269 6.82 5.75C6.453 5.379 6.2 5.117 6.207 5.113C6.215 5.105 6.273 5.059 6.34 5.003C7.28393 4.23886 8.37271 3.67359 9.54081 3.34122C10.7089 3.00886 11.9322 2.91626 13.137 3.069C14.5209 3.24621 15.8447 3.74216 17.0044 4.51781C18.164 5.29346 19.1278 6.32765 19.82 7.539C20.5707 8.86004 20.9757 10.3492 20.9975 11.8685C21.0194 13.3877 20.6574 14.8879 19.945 16.23C19.3204 17.4025 18.4442 18.4223 17.3793 19.2166C16.3143 20.0108 15.0869 20.5597 13.785 20.824C12.8757 21.0031 11.9445 21.0439 11.023 20.945C9.70794 20.8058 8.44049 20.375 7.313 19.684C6.45952 19.1596 5.69804 18.4984 5.059 17.727C4.875 17.504 4.781 17.426 4.625 17.347C4.49012 17.2741 4.33666 17.2428 4.184 17.257C4.016 17.257 3.992 17.257 3.902 17.289C3.699 17.359 3.562 17.449 3.426 17.605C3.34096 17.7085 3.27715 17.8277 3.2382 17.9559C3.19925 18.0841 3.18593 18.2187 3.199 18.352C3.234 18.637 3.309 18.766 3.699 19.215C4.93212 20.6343 6.50843 21.7138 8.27748 22.3505C10.0465 22.9872 11.9492 23.1599 13.804 22.852C15.347 22.594 16.8173 22.0105 18.1174 21.1403C19.4174 20.2701 20.5173 19.1331 21.344 17.805C21.582 17.425 21.887 16.844 22.059 16.453C22.5398 15.3655 22.8404 14.207 22.949 13.023C23.155 10.8447 22.7058 8.6544 21.659 6.733C20.8064 5.17842 19.5931 3.85123 18.121 2.863C16.5623 1.81421 14.7597 1.18465 12.887 1.035C12.5718 1.01362 12.256 1.00195 11.94 1L11.644 1.008H11.645Z" fill="currentColor"/>
<path d="M9.898 8.262C9.628 8.289 9.368 8.437 9.203 8.652C9.12578 8.76345 9.0664 8.88626 9.027 9.016C9.007 9.098 9.007 9.215 9.007 12C9.007 15.285 8.997 14.953 9.105 15.18C9.18524 15.3497 9.31275 15.4926 9.47222 15.5916C9.63169 15.6905 9.81634 15.7414 10.004 15.738C10.176 15.738 10.293 15.711 10.434 15.641C10.535 15.59 15.137 12.859 15.219 12.801C15.355 12.703 15.484 12.539 15.551 12.371C15.6324 12.1657 15.644 11.9393 15.584 11.7268C15.524 11.5143 15.3957 11.3274 15.219 11.195C15.137 11.141 10.539 8.41 10.434 8.359C10.3386 8.31037 10.2353 8.27889 10.129 8.266C10.086 8.266 10.035 8.258 10.019 8.258C9.97896 8.25589 9.93881 8.25723 9.899 8.262H9.898Z" fill="currentColor"/>
</svg>
