<svg width="24" height="24" viewBox="0 0 24 24" fill="none" xmlns="http://www.w3.org/2000/svg">
<g clip-path="url(#clip0_2538_58834)">
<path d="M11.566 0.00797164C9.79 0.0899716 8.246 0.472972 6.734 1.20997C5.00461 2.05066 3.5034 3.2959 2.35762 4.84015C1.21183 6.3844 0.45525 8.18214 0.152 10.081C0.043 10.766 0.008 11.266 0.008 12C-0.00160423 14.309 0.659119 16.5711 1.91 18.512C2.99648 20.1913 4.48385 21.5739 6.238 22.535C8.67623 23.8588 11.4958 24.303 14.223 23.793C15.7191 23.5167 17.1483 22.9559 18.433 22.141C19.5441 21.4331 20.5324 20.5488 21.359 19.523C22.831 17.6908 23.7305 15.4654 23.945 13.125C23.985 12.707 23.992 12.508 23.992 12C23.992 11.23 23.949 10.672 23.824 9.94997C23.298 6.87653 21.5939 4.12948 19.074 2.29297C17.6821 1.28183 16.0886 0.582617 14.402 0.242972C13.863 0.132972 13.406 0.0699717 12.832 0.0269716C12.4103 0.00683756 11.9881 0.000167492 11.566 0.00697164V0.00797164ZM12.828 2.03097C13.718 2.11297 14.426 2.25797 15.218 2.52297C16.8032 3.06126 18.2282 3.98815 19.363 5.21897C20.6421 6.60553 21.4999 8.3277 21.836 10.184C21.949 10.793 21.996 11.34 21.996 11.996C22.0029 14.1386 21.3194 16.2265 20.0467 17.9503C18.774 19.674 16.9798 20.9419 14.93 21.566C14.262 21.77 13.605 21.895 12.832 21.969C12.555 21.992 11.766 22.004 11.449 21.984C9.81562 21.8996 8.22847 21.4125 6.829 20.566C5.70928 19.8906 4.7323 19.003 3.953 17.953C3.05963 16.7457 2.45202 15.3513 2.176 13.875C2.109 13.535 2.059 13.152 2.023 12.75C2 12.465 2.003 11.469 2.031 11.18C2.18 9.52697 2.661 8.06997 3.504 6.70697C4.10381 5.7465 4.86185 4.89447 5.746 4.18697C7.38271 2.87723 9.39035 2.11623 11.484 2.01197C11.9321 2.00524 12.3803 2.01191 12.828 2.03197V2.03097Z" fill="currentColor"/>
<path d="M9.313 5.83597C8.83498 5.88725 8.38996 6.1041 8.055 6.44897C7.76821 6.74663 7.58122 7.12619 7.52 7.53497C7.5 7.68397 7.5 16.316 7.52 16.465C7.56748 16.7863 7.69305 17.0911 7.88569 17.3526C8.07834 17.6141 8.33219 17.8244 8.625 17.965C9.199 18.25 9.895 18.238 10.453 17.925C10.516 17.891 12.02 16.91 13.801 15.742C15.977 14.312 17.074 13.586 17.148 13.523C17.3687 13.3356 17.546 13.1025 17.6675 12.8397C17.7891 12.577 17.8521 12.291 17.8521 12.0015C17.8521 11.712 17.7891 11.4259 17.6675 11.1632C17.546 10.9005 17.3687 10.6673 17.148 10.48C16.988 10.344 10.582 6.13997 10.391 6.03997C10.0581 5.87071 9.68475 5.79994 9.313 5.83597Z" fill="currentColor"/>
</g>
<defs>
<clipPath id="clip0_2538_58834">
<rect width="24" height="24" fill="white"/>
</clipPath>
</defs>
</svg>
