<svg width="24" height="24" viewBox="0 0 24 24" fill="none" xmlns="http://www.w3.org/2000/svg">
<g clip-path="url(#clip0_2538_59404)">
<path d="M3.676 0.0159063C3.07247 0.0640802 2.48776 0.2487 1.96599 0.555835C1.44423 0.862971 0.999032 1.2846 0.664 1.78891C0.309904 2.32617 0.0891232 2.94017 0.02 3.57991C0.008 3.68291 0.008 4.61591 0.008 8.51091V13.3149L0.031 13.5069C0.136363 14.3375 0.500053 15.1139 1.07068 15.7265C1.6413 16.3391 2.39001 16.7569 3.211 16.9209C3.601 16.9949 3.746 17.0029 5.492 17.0029H6.996V18.5109C6.996 20.0109 7.004 20.2759 7.039 20.5419C7.12433 21.1848 7.36594 21.797 7.74267 22.3248C8.1194 22.8527 8.61978 23.2802 9.2 23.5699C9.68 23.8119 10.18 23.9499 10.731 23.9879C10.849 23.9959 12.376 23.9999 15.622 23.9959L20.341 23.9919L20.517 23.9689C21.2041 23.8817 21.8561 23.6147 22.407 23.1949C22.72 22.9609 22.97 22.7109 23.204 22.3949C23.665 21.7809 23.927 21.0779 23.989 20.2929C24.005 20.0819 24.005 10.9299 23.989 10.7109C23.9267 9.8159 23.5642 8.96808 22.9603 8.30462C22.3563 7.64116 21.5462 7.20084 20.661 7.05491C20.349 7.00391 20.349 7.00391 18.649 6.99991L17.005 6.99591V5.49191C17.004 3.99991 17 3.71991 16.96 3.45691C16.8507 2.64586 16.4946 1.88807 15.9398 1.28643C15.385 0.684792 14.6585 0.268442 13.859 0.0939062C13.7476 0.0699651 13.6355 0.0489578 13.523 0.0309062L13.343 0.00790625L8.575 0.00390625C5.853 0.00390625 3.746 0.00790625 3.676 0.0159063ZM15.273 8.03891C15.598 8.13691 15.843 8.37091 15.953 8.69491C15.988 8.80491 15.988 8.81191 15.988 8.99991C15.988 9.18791 15.988 9.19491 15.953 9.30491C15.933 9.36691 15.891 9.45691 15.859 9.50791C15.809 9.59791 15.582 9.82391 12.727 12.6839C11.6844 13.735 10.6347 14.779 9.578 15.8159C9.47938 15.8823 9.37157 15.9338 9.258 15.9689C9.17195 15.9872 9.08383 15.9939 8.996 15.9889C8.816 15.9889 8.801 15.9889 8.696 15.9529C8.54461 15.9027 8.40744 15.817 8.296 15.7029C8.18055 15.5934 8.09456 15.4565 8.046 15.3049C8.012 15.1949 8.012 15.1879 8.012 14.9999C8.012 14.8119 8.012 14.8049 8.047 14.6949C8.07 14.6329 8.109 14.5429 8.141 14.4879C8.191 14.4019 8.414 14.1759 11.297 11.2969C14.172 8.41791 14.402 8.19091 14.492 8.14091C14.582 8.08591 14.711 8.03891 14.812 8.01591C14.902 7.99591 15.184 8.00791 15.273 8.03891Z" fill="currentColor"/>
</g>
<defs>
<clipPath id="clip0_2538_59404">
<rect width="24" height="24" fill="white"/>
</clipPath>
</defs>
</svg>
