<svg width="24" height="24" viewBox="0 0 24 24" fill="none" xmlns="http://www.w3.org/2000/svg">
<path d="M11.715 0.848132C11.3887 0.899232 11.0794 1.02783 10.813 1.22313C10.691 1.30913 5.503 6.49313 5.41 6.62113C5.273 6.80113 5.176 7.03113 5.137 7.26113C5.117 7.39813 5.121 7.66113 5.148 7.79313C5.293 8.43713 5.797 8.91013 6.434 8.98813C6.496 8.99613 6.984 9.00013 7.766 9.00013H9V13.5501C9 16.5161 9.004 18.1371 9.012 18.2031C9.039 18.4571 9.102 18.6681 9.219 18.8951C9.489 19.4411 9.996 19.8321 10.598 19.9571C10.801 20.0001 11.016 20.0071 12.128 20.0001C13.285 19.9961 13.297 19.9961 13.531 19.9261C13.883 19.8241 14.161 19.6641 14.414 19.4061C14.7377 19.0813 14.9403 18.6553 14.988 18.1991C14.996 18.1291 15 16.4411 15 13.5431V9.00013H16.234C17.016 9.00013 17.504 8.99613 17.566 8.98813C18.008 8.93413 18.386 8.69913 18.629 8.32413C18.7947 8.07464 18.8818 7.78117 18.8789 7.48168C18.876 7.18218 18.7834 6.89043 18.613 6.64413C18.555 6.56213 13.403 1.39813 13.262 1.27713C13.0129 1.07589 12.7195 0.93673 12.406 0.871132C12.1777 0.83251 11.9453 0.824774 11.715 0.848132ZM4.887 22.0081C4.68323 22.0311 4.49143 22.1161 4.3376 22.2517C4.18377 22.3873 4.07534 22.5669 4.027 22.7661C3.9984 22.913 3.99704 23.0638 4.023 23.2111C4.109 23.6171 4.449 23.9301 4.859 23.9881C4.926 23.9961 6.965 24.0001 12.059 23.9961C18.953 23.9921 19.168 23.9921 19.242 23.9731C19.703 23.8401 19.996 23.4611 19.996 22.9961C19.996 22.5361 19.696 22.1521 19.238 22.0271L19.145 22.0001H12.055C8.152 22.0001 4.93 22.0041 4.887 22.0081Z" fill="currentColor"/>
</svg>
