<svg width="24" height="24" viewBox="0 0 24 24" fill="none" xmlns="http://www.w3.org/2000/svg">
<g clip-path="url(#clip0_2538_60452)">
<path d="M11.566 0.00797164C9.79 0.0899716 8.246 0.472972 6.734 1.20997C5.00461 2.05066 3.5034 3.2959 2.35762 4.84015C1.21183 6.3844 0.45525 8.18214 0.152 10.081C0.043 10.766 0.008 11.266 0.008 12C-0.00160423 14.309 0.659119 16.5711 1.91 18.512C2.99648 20.1913 4.48385 21.5739 6.238 22.535C8.67623 23.8588 11.4958 24.303 14.223 23.793C15.7191 23.5167 17.1483 22.9559 18.433 22.141C19.5441 21.4331 20.5324 20.5488 21.359 19.523C22.831 17.6908 23.7305 15.4654 23.945 13.125C23.985 12.707 23.992 12.508 23.992 12C23.992 11.23 23.949 10.672 23.824 9.94997C23.298 6.87653 21.5939 4.12948 19.074 2.29297C17.6821 1.28183 16.0886 0.582617 14.402 0.242972C13.863 0.132972 13.406 0.0699717 12.832 0.0269716C12.4103 0.00683756 11.9881 0.000167492 11.566 0.00697164V0.00797164ZM12.828 2.03097C14.047 2.14497 15.098 2.41397 16.145 2.89097C17.8042 3.64358 19.2257 4.83616 20.2552 6.33934C21.2847 7.84252 21.8829 9.5989 21.985 11.418C22 11.68 22 12.32 21.985 12.578C21.8584 14.8685 20.9462 17.0455 19.402 18.742L19.336 18.809L19.313 18.746C19.1806 18.4711 19.0398 18.2003 18.891 17.934C18.0969 16.5943 16.9311 15.514 15.535 14.824C13.7952 13.9659 11.8028 13.7697 9.92913 14.272C8.05542 14.7743 6.42829 15.9407 5.351 17.554C5.129 17.883 4.895 18.304 4.727 18.664C4.71095 18.7105 4.6873 18.7541 4.657 18.793C4.652 18.793 4.602 18.738 4.543 18.672C3.47697 17.4845 2.71304 16.0575 2.316 14.512C2.16906 13.9339 2.07105 13.3445 2.023 12.75C2 12.465 2.003 11.469 2.031 11.18C2.18 9.52697 2.661 8.06997 3.504 6.70697C4.10381 5.7465 4.86185 4.89447 5.746 4.18697C7.38271 2.87723 9.39035 2.11623 11.484 2.01197C11.9321 2.00524 12.3803 2.01191 12.828 2.03197V2.03097Z" fill="currentColor"/>
<path d="M11.703 6.01197C11.0692 6.06783 10.462 6.29302 9.945 6.66397C9.746 6.80897 9.465 7.06997 9.301 7.26597C8.87104 7.78767 8.60088 8.42243 8.523 9.09397C8.503 9.28097 8.5 9.67597 8.52 9.85497C8.61 10.684 8.953 11.402 9.527 11.977C10.067 12.516 10.747 12.852 11.527 12.969C11.742 13 12.289 13 12.512 12.965C12.9679 12.8984 13.406 12.7418 13.8009 12.5044C14.1957 12.267 14.5394 11.9534 14.812 11.582C15.559 10.594 15.707 9.22697 15.199 8.07797C14.8905 7.38617 14.3673 6.81216 13.707 6.44097C13.095 6.10578 12.3986 5.95735 11.703 6.01197Z" fill="currentColor"/>
</g>
<defs>
<clipPath id="clip0_2538_60452">
<rect width="24" height="24" fill="white"/>
</clipPath>
</defs>
</svg>
