<svg width="24" height="24" viewBox="0 0 24 24" fill="none" xmlns="http://www.w3.org/2000/svg">
<path d="M6 1.37896C5.371 1.42196 5.035 1.46496 4.531 1.56196C3.58809 1.75127 2.67762 2.07632 1.828 2.52696C1.648 2.62096 0.543 3.24996 0.445 3.31196C0.301 3.40996 0.175 3.55496 0.094 3.72996C0.0312501 3.85719 0.0016679 3.99823 0.008 4.13996C0.008 4.31996 0.028 4.40596 0.094 4.55496C0.190886 4.76952 0.361065 4.94254 0.574 5.04296C0.719 5.11296 0.828 5.13696 0.996 5.13696C1.156 5.13696 1.25 5.12096 1.383 5.06696C1.426 5.04696 1.727 4.87896 2.051 4.69096C2.84 4.24196 3.082 4.11696 3.516 3.94096C5.34988 3.20704 7.38997 3.175 9.246 3.85096C9.828 4.06596 10.062 4.18396 11.516 5.01596C12.934 5.82796 13.191 5.96096 13.766 6.19596C14.6998 6.57029 15.6844 6.80287 16.687 6.88596C17.2049 6.9144 17.7238 6.9174 18.242 6.89496C19.462 6.80078 20.6547 6.48566 21.762 5.96496C22.043 5.83196 22.273 5.71096 22.942 5.32796C23.574 4.96496 23.59 4.95696 23.687 4.86296C23.824 4.72859 23.9227 4.56014 23.973 4.37496C24.0004 4.21982 24.0004 4.06109 23.973 3.90596C23.9395 3.77183 23.8787 3.64607 23.7944 3.53653C23.7101 3.427 23.6041 3.33605 23.483 3.2694C23.3619 3.20275 23.2283 3.16182 23.0906 3.14918C22.953 3.13654 22.8142 3.15247 22.683 3.19596C22.617 3.21896 22.41 3.32796 21.957 3.58996C21.137 4.05496 20.863 4.19496 20.398 4.37496C19.6782 4.6554 18.9218 4.83054 18.152 4.89496C17.882 4.91796 17.176 4.92196 16.918 4.90196C15.9824 4.83043 15.0664 4.59661 14.211 4.21096C13.921 4.08196 13.671 3.94496 12.484 3.26996C11.238 2.55496 11.016 2.43396 10.648 2.26596C9.52234 1.75483 8.31214 1.4555 7.078 1.38296C6.71877 1.37191 6.3593 1.37058 6 1.37896ZM6.008 9.23396C4.402 9.32396 2.938 9.75395 1.543 10.539C0.793 10.961 0.43 11.176 0.359 11.234C0.207 11.359 0.089 11.551 0.035 11.75C-0.004 11.879 -0.004 12.121 0.035 12.25C0.0711502 12.3881 0.13668 12.5167 0.227113 12.6272C0.317546 12.7376 0.430752 12.8273 0.559 12.89C0.679739 12.9564 0.815204 12.9914 0.953 12.992C1.238 13.008 1.281 12.988 2.055 12.551C2.703 12.18 3.059 11.992 3.367 11.863C4.13338 11.5345 4.94665 11.3287 5.777 11.253C6.25716 11.2217 6.73884 11.2217 7.219 11.253C8.199 11.352 9.043 11.582 9.891 11.977C10.168 12.105 10.289 12.172 11.566 12.902C12.781 13.594 12.961 13.695 13.324 13.863C14.6887 14.4888 16.1767 14.7997 17.6778 14.7727C19.1789 14.7457 20.6547 14.3814 21.996 13.707C22.359 13.523 23.539 12.847 23.641 12.766C23.793 12.641 23.914 12.449 23.965 12.25C24.004 12.121 24.004 11.879 23.965 11.75C23.9297 11.6121 23.8649 11.4835 23.7751 11.373C23.6854 11.2625 23.5727 11.1728 23.445 11.11C23.3228 11.0435 23.1861 11.0084 23.047 11.008C22.766 10.992 22.715 11.012 21.988 11.43C21.156 11.902 20.902 12.035 20.434 12.219C19.729 12.4968 18.9884 12.6742 18.234 12.746C17.984 12.77 17.289 12.781 17.02 12.762C15.9794 12.7006 14.961 12.4348 14.023 11.98C13.824 11.887 13.621 11.773 12.441 11.102C11.316 10.457 10.914 10.242 10.559 10.082C9.48764 9.60718 8.34123 9.32422 7.172 9.24596C6.938 9.22596 6.234 9.22296 6.008 9.23396ZM5.984 17.094C4.87344 17.1515 3.78035 17.3946 2.75 17.813C2.297 17.993 1.906 18.191 1.172 18.609C0.406 19.047 0.418 19.035 0.324 19.125C0.183039 19.2612 0.0805829 19.4323 0.027 19.621C-0.00036367 19.7761 -0.00036367 19.9348 0.027 20.09C0.055 20.188 0.125 20.344 0.176 20.422C0.383 20.722 0.77 20.898 1.125 20.848C1.316 20.82 1.371 20.797 2.043 20.41C2.391 20.21 2.773 20.004 2.887 19.945C3.98118 19.3903 5.18827 19.0948 6.41491 19.0813C7.64155 19.0678 8.85486 19.3366 9.961 19.867C10.187 19.973 10.285 20.027 11.516 20.73C12.726 21.422 12.918 21.527 13.234 21.676C14.4028 22.2305 15.6691 22.5502 16.961 22.617C17.261 22.637 18.039 22.625 18.316 22.602C19.5149 22.5024 20.686 22.1873 21.773 21.672C22.051 21.543 22.285 21.418 22.938 21.043C23.574 20.68 23.59 20.672 23.688 20.578C23.8246 20.4435 23.923 20.275 23.973 20.09C24.0004 19.9348 24.0004 19.7761 23.973 19.621C23.9395 19.4868 23.8787 19.3611 23.7944 19.2515C23.7101 19.142 23.6041 19.0511 23.483 18.9844C23.3619 18.9177 23.2283 18.8768 23.0906 18.8642C22.953 18.8515 22.8142 18.8675 22.683 18.911C22.617 18.934 22.41 19.047 21.957 19.305C21.145 19.765 20.867 19.906 20.422 20.082C19.6713 20.3748 18.8814 20.555 18.078 20.617C17.816 20.637 17.118 20.633 16.852 20.609C15.8317 20.5264 14.8369 20.248 13.922 19.789C13.68 19.668 13.727 19.691 12.402 18.937C11.793 18.586 11.192 18.25 11.07 18.187C10.0373 17.6574 8.92088 17.3099 7.77 17.16C7.37622 17.1078 6.97917 17.0844 6.582 17.09C6.285 17.09 6.016 17.09 5.984 17.094Z" fill="currentColor"/>
</svg>
