<svg width="24" height="24" viewBox="0 0 24 24" fill="none" xmlns="http://www.w3.org/2000/svg">
<path d="M10.781 0.0122084C10.4792 0.0505881 10.1891 0.152861 9.93 0.312208C9.754 0.422208 9.531 0.625208 9.406 0.789208C9.211 1.05121 9.074 1.37921 9.023 1.69921C9.016 1.74621 9.008 1.89921 9 2.03121C8.98 2.52321 8.906 2.84021 8.719 3.21521C8.5821 3.50436 8.39253 3.76548 8.16 3.98521C7.85889 4.28118 7.49385 4.50408 7.09301 4.63671C6.69216 4.76934 6.26622 4.80817 5.848 4.75021C5.516 4.70321 5.278 4.62121 4.891 4.43021C4.516 4.23821 4.344 4.18421 4.062 4.14821C3.86278 4.13102 3.66219 4.13909 3.465 4.17221C3.20321 4.22264 2.95408 4.32465 2.73209 4.4723C2.51011 4.61994 2.31972 4.81027 2.172 5.03221C2.09 5.16421 1.109 6.86321 1.047 6.98421C0.947828 7.18854 0.882961 7.40781 0.855 7.63321C0.837327 7.84007 0.845389 8.04833 0.879 8.25321C0.969 8.68721 1.195 9.08221 1.512 9.35921C1.609 9.44521 1.738 9.53521 1.93 9.65221C2.332 9.89821 2.7 10.2932 2.918 10.7222C3.118 11.1132 3.207 11.4772 3.218 11.9142C3.23 12.4262 3.141 12.8362 2.918 13.2812C2.68761 13.7171 2.34695 14.085 1.93 14.3482C1.78125 14.4352 1.64008 14.5345 1.508 14.6452C1.1854 14.9335 0.964458 15.3183 0.878 15.7422C0.842181 15.9631 0.835792 16.1877 0.859 16.4102C0.895 16.6482 0.98 16.9102 1.102 17.1212C1.312 17.4882 2.125 18.8912 2.172 18.9652C2.461 19.4102 2.926 19.7192 3.465 19.8282C3.617 19.8592 3.91 19.8712 4.063 19.8522C4.343 19.8162 4.52 19.7582 4.891 19.5702C5.5027 19.2264 6.22366 19.1326 6.903 19.3082C7.27 19.3982 7.676 19.6052 7.988 19.8552C8.121 19.9652 8.348 20.2032 8.453 20.3402C8.566 20.4962 8.645 20.6252 8.738 20.8162C8.906 21.1722 8.98 21.4922 9 21.9652C9.016 22.3052 9.035 22.4412 9.117 22.6722C9.215 22.9422 9.359 23.1722 9.567 23.3872C9.898 23.7302 10.317 23.9342 10.797 23.9882C10.949 24.0042 13.051 24.0042 13.203 23.9882C13.5382 23.9531 13.8591 23.8343 14.1363 23.6426C14.4135 23.4508 14.6379 23.1925 14.789 22.8912C14.929 22.6052 14.984 22.3752 15 21.9732C15.02 21.4932 15.09 21.1762 15.266 20.8162C15.406 20.5162 15.555 20.3052 15.777 20.0742C16.2237 19.6151 16.8134 19.3217 17.449 19.2422C17.586 19.2222 17.973 19.2222 18.105 19.2422C18.477 19.2932 18.715 19.3722 19.109 19.5702C19.582 19.8092 19.832 19.8752 20.23 19.8602C20.5488 19.8508 20.8605 19.7645 21.1388 19.6087C21.417 19.4529 21.6535 19.2321 21.828 18.9652C21.906 18.8442 22.887 17.1452 22.945 17.0272C23.09 16.7422 23.156 16.4532 23.156 16.1372C23.156 15.6482 22.992 15.2032 22.672 14.8242C22.532 14.6602 22.382 14.5392 22.086 14.3552C21.9169 14.2501 21.7597 14.127 21.617 13.9882C21.375 13.7582 21.207 13.5282 21.059 13.2232C20.869 12.8438 20.7723 12.4245 20.777 12.0002C20.777 11.6802 20.82 11.4022 20.918 11.1022C20.9989 10.8862 21.0993 10.678 21.218 10.4802C21.434 10.1562 21.746 9.85521 22.086 9.64521C22.379 9.46121 22.527 9.34421 22.672 9.17521C22.9298 8.87611 23.0933 8.5074 23.1419 8.11554C23.1904 7.72368 23.1219 7.3262 22.945 6.97321C22.5771 6.31606 22.2007 5.66367 21.816 5.01621C21.668 4.79655 21.4778 4.60847 21.2566 4.4629C21.0353 4.31733 20.7873 4.21716 20.527 4.16821C20.4037 4.14329 20.2775 4.13555 20.152 4.14521C19.942 4.14521 19.887 4.14821 19.782 4.17221C19.559 4.21921 19.418 4.27021 19.109 4.43021C18.719 4.62521 18.457 4.71021 18.105 4.75821C17.965 4.77821 17.582 4.77821 17.449 4.75821C17.0156 4.7047 16.601 4.54948 16.239 4.30521C16.0709 4.19667 15.9159 4.06916 15.777 3.92521C15.5639 3.71059 15.3909 3.45965 15.266 3.18421C15.09 2.82421 15.02 2.50821 15 2.02721C14.984 1.61321 14.93 1.39121 14.773 1.08621C14.687 0.913074 14.5739 0.754756 14.438 0.617208C14.1118 0.274464 13.6737 0.0598426 13.203 0.0122084C12.3957 -0.00341843 11.5883 -0.00341843 10.781 0.0122084ZM12.395 6.01221C13.2622 6.06721 14.107 6.31061 14.8705 6.72544C15.634 7.14028 16.2979 7.71658 16.816 8.41421C17.3505 9.13265 17.7174 9.96158 17.8899 10.8402C18.0624 11.7189 18.0361 12.625 17.813 13.4922C17.5342 14.5887 16.9502 15.5836 16.1287 16.3615C15.3072 17.1395 14.282 17.6685 13.172 17.8872C12.5373 18.0089 11.8875 18.0312 11.246 17.9532C10.3992 17.8473 9.58481 17.5618 8.85723 17.1158C8.12965 16.6699 7.50567 16.0737 7.027 15.3672C6.465 14.5432 6.129 13.6022 6.02 12.5392C6.00047 12.1801 6.00047 11.8203 6.02 11.4612C6.168 10.0272 6.734 8.80121 7.7 7.81221C8.6458 6.83402 9.89922 6.21084 11.25 6.04721C11.6299 6.0023 12.013 5.99059 12.395 6.01221Z" fill="currentColor"/>
<path d="M11.727 9.01221C11.231 9.05875 10.7544 9.22782 10.34 9.50421C9.9893 9.73514 9.69139 10.0376 9.4658 10.3918C9.24021 10.7459 9.09204 11.1438 9.031 11.5592C9.011 11.6952 9.008 11.7732 9.008 12.0002C9.008 12.2272 9.012 12.3052 9.031 12.4412C9.09235 12.8527 9.23874 13.2468 9.46084 13.5986C9.68294 13.9503 9.97588 14.2519 10.321 14.4842C10.6994 14.7395 11.131 14.9053 11.5831 14.9691C12.0351 15.0328 12.4957 14.9929 12.93 14.8522C13.93 14.5322 14.695 13.6922 14.926 12.6682C14.976 12.4302 14.992 12.2812 14.992 12.0002C14.992 11.7192 14.977 11.5702 14.926 11.3322C14.699 10.3322 13.965 9.50821 12.996 9.16821C12.6946 9.06325 12.3781 9.00786 12.059 9.00421C11.934 9.00421 11.785 9.00421 11.727 9.01221Z" fill="currentColor"/>
</svg>
