<svg width="24" height="24" viewBox="0 0 24 24" fill="none" xmlns="http://www.w3.org/2000/svg">
<g clip-path="url(#clip0_5219_7823)">
<path d="M3.75 0.00790625C2.88973 0.0624367 2.07022 0.39396 1.414 0.952906C1.2111 1.13125 1.02314 1.3259 0.852 1.53491C0.358558 2.16176 0.0657932 2.92295 0.012 3.71891C0.004 3.84791 -2.32831e-10 6.26591 0.004 12.1169L0.008 20.3359L0.031 20.5159C0.101 20.9879 0.211 21.3479 0.411 21.7539C0.80931 22.5728 1.47642 23.2304 2.301 23.6169C2.738 23.8279 3.215 23.9489 3.727 23.9879C3.847 23.9959 6.313 23.9999 12.117 23.9959L20.34 23.9919L20.516 23.9689C21.2439 23.8713 21.9313 23.5767 22.504 23.1169C22.648 22.9999 22.93 22.7299 23.047 22.5859C23.562 21.9759 23.867 21.2729 23.973 20.4649C23.993 20.3089 23.996 19.9379 23.996 11.9999C23.996 4.05891 23.992 3.69091 23.973 3.53091C23.8789 2.74872 23.5569 2.01148 23.047 1.41091C22.8869 1.23087 22.7144 1.06214 22.531 0.905906C21.9535 0.432907 21.2559 0.129939 20.516 0.0309062L20.34 0.00790625L12.07 0.00390625C7.523 0.00390625 3.781 0.00390625 3.75 0.00790625ZM4.402 2.03891C4.85277 2.13312 5.25749 2.37933 5.5484 2.73632C5.8393 3.09331 5.99874 3.5394 6 3.99991C6 5.12891 5.059 6.03991 3.937 5.99591C3.42639 5.98554 2.94065 5.77341 2.586 5.40591C2.43208 5.2582 2.30636 5.08368 2.215 4.89091C2.08081 4.63937 2.00977 4.35899 2.008 4.07391C1.99517 3.88356 2.01341 3.69239 2.062 3.50791C2.125 3.26591 2.227 3.04291 2.379 2.82791C2.461 2.71091 2.711 2.46091 2.832 2.37791C3.094 2.19091 3.382 2.07391 3.699 2.01991C3.855 1.99591 4.246 2.00291 4.402 2.03891ZM20.395 2.03491C20.816 2.12891 21.168 2.32491 21.453 2.62891C21.691 2.88291 21.852 3.17591 21.938 3.50791C21.988 3.70691 22 3.83991 21.992 4.07391C21.992 4.34867 21.9265 4.61948 21.801 4.86391C21.527 5.43391 21.027 5.82391 20.391 5.96091L20.246 5.99191H15.02C9.992 5.99191 9.785 5.99191 9.668 5.97191C9.25624 5.90334 8.87715 5.70503 8.586 5.40591C8.43208 5.2582 8.30636 5.08368 8.215 4.89091C8.08081 4.63937 8.00977 4.35899 8.008 4.07391C7.9955 3.8835 8.01407 3.69234 8.063 3.50791C8.153 3.14791 8.316 2.86291 8.59 2.58991C8.855 2.32391 9.137 2.15991 9.484 2.06591C9.734 1.99991 9.371 2.00791 15.043 2.00791L20.281 2.01191L20.395 2.03491ZM18.492 9.02691C18.918 9.08991 19.238 9.17991 19.578 9.31991C20.5529 9.74479 21.3216 10.5361 21.718 11.5229C21.832 11.8129 21.91 12.0979 21.965 12.4449L21.992 12.6129V17.3829L21.965 17.5549C21.8413 18.4268 21.4343 19.2337 20.8067 19.8514C20.1791 20.4691 19.3657 20.8631 18.492 20.9729C18.367 20.9929 17.961 20.9929 12.117 20.9959C7.757 20.9999 5.824 20.9959 5.707 20.9879C4.75651 20.9198 3.86214 20.5124 3.187 19.8399C2.55206 19.2151 2.14502 18.3954 2.031 17.5119C2.011 17.3719 2.011 17.2269 2.011 14.9999C2.011 12.7729 2.011 12.6289 2.031 12.4839C2.11975 11.828 2.36649 11.2034 2.75 10.6639C3.03789 10.2734 3.39068 9.93511 3.793 9.66391C4.37053 9.28257 5.03665 9.05663 5.727 9.00791C5.75 9.00391 8.605 9.00391 12.067 9.00391C17.969 9.00791 18.367 9.00791 18.492 9.02691Z" fill="currentColor"/>
<path d="M5.707 11.0229C5.30218 11.0846 4.92586 11.2685 4.62847 11.5499C4.33107 11.8314 4.12679 12.1971 4.043 12.5979C4.02866 12.6845 4.01698 12.7716 4.008 12.8589C3.992 13.0469 3.992 16.9529 4.008 17.1409C4.047 17.6169 4.234 18.0429 4.558 18.3789C4.816 18.6449 5.105 18.8199 5.449 18.9179C5.742 19.0039 5.172 18.9959 12.059 18.9919C17.941 18.9879 18.258 18.9879 18.355 18.9689C18.668 18.9059 18.934 18.7889 19.187 18.6089C19.227 18.5819 19.328 18.4889 19.414 18.4019C19.766 18.0549 19.957 17.6319 19.992 17.1319C20.008 16.9419 20.008 13.0589 19.992 12.8669C19.9696 12.5148 19.8536 12.1751 19.656 11.8829C19.5122 11.6842 19.3401 11.5076 19.145 11.3589C18.8864 11.1817 18.591 11.0655 18.281 11.0189C18.101 10.9959 5.879 10.9959 5.707 11.0229Z" fill="currentColor"/>
</g>
<defs>
<clipPath id="clip0_5219_7823">
<rect width="24" height="24" fill="white"/>
</clipPath>
</defs>
</svg>
