<svg width="24" height="24" viewBox="0 0 24 24" fill="none" xmlns="http://www.w3.org/2000/svg">
<g clip-path="url(#clip0_2538_62366)">
<path d="M8.645 0.00808558C8.16886 0.0292803 7.69491 0.0854315 7.227 0.176086C5.34034 0.550161 3.62411 1.52135 2.332 2.94609C1.12716 4.27193 0.347584 5.92861 0.094 7.70209C-0.241351 10.0029 0.325464 12.3444 1.676 14.2371C2.63501 15.5783 3.94442 16.63 5.461 17.2771C7.51384 18.1468 9.81477 18.2315 11.926 17.5151C12.9658 17.157 13.9319 16.6128 14.777 15.9091C15.2647 15.4937 15.7108 15.0319 16.109 14.5301C17.3981 12.8648 18.065 10.8015 17.9944 8.69679C17.9237 6.59205 17.1199 4.57812 15.722 3.00309C15.48 2.73309 15.062 2.32709 14.777 2.08909C13.3811 0.924815 11.6649 0.2114 9.855 0.0430856C9.473 0.00308558 8.965 -0.00691442 8.645 0.00808558ZM9.699 2.03009C10.082 2.07309 10.391 2.12809 10.734 2.21409C12.524 2.66707 14.0612 3.81184 15.008 5.39709C15.492 6.19809 15.816 7.12409 15.938 8.05009C15.984 8.42009 15.992 8.51509 15.992 8.99909C15.992 9.48309 15.984 9.57709 15.937 9.94909C15.7289 11.4951 15.0086 12.9267 13.891 14.0151C12.9244 14.9614 11.7023 15.6048 10.375 15.8661C9.898 15.9601 9.602 15.9871 9.012 15.9871C8.516 15.9871 8.437 15.9831 8.055 15.9371C6.085 15.6831 4.297 14.5651 3.168 12.8821C2.58231 11.9988 2.20419 10.9943 2.062 9.94409C2.016 9.57709 2.012 9.47908 2.012 8.99909C2.012 8.51909 2.016 8.42109 2.062 8.05409C2.262 6.51409 2.992 5.06509 4.125 3.96809C5.304 2.82544 6.84746 2.13407 8.485 2.01509C8.88967 2.00053 9.29481 2.00554 9.699 2.03009Z" fill="currentColor"/>
<path d="M8.8 5.02009C8.477 5.08609 8.191 5.32409 8.074 5.62909C8.004 5.81309 8.004 5.79709 8.004 6.94909V8.00409H6.949C6.089 8.00409 5.879 8.00809 5.809 8.02009C5.66635 8.04809 5.53154 8.10694 5.41403 8.19253C5.29652 8.27812 5.19915 8.38838 5.12875 8.51557C5.05834 8.64275 5.0166 8.7838 5.00645 8.92882C4.9963 9.07384 5.01799 9.21933 5.07 9.35509C5.187 9.67209 5.477 9.91509 5.809 9.98009C5.879 9.99209 6.089 9.99609 6.949 9.99609H8.004V11.0511C8.004 12.1911 8.004 12.1871 8.07 12.3551C8.187 12.6721 8.477 12.9151 8.809 12.9801C9.055 13.0271 9.336 12.9731 9.539 12.8401C9.637 12.7771 9.777 12.6371 9.839 12.5401C9.8727 12.4863 9.9018 12.4298 9.926 12.3711C9.996 12.1911 9.996 12.2031 9.996 11.0511V9.99609H11.051C12.203 9.99609 12.191 9.99609 12.371 9.92609C12.4969 9.87744 12.6103 9.80125 12.703 9.70309C12.831 9.57535 12.9218 9.41522 12.9658 9.23982C13.0098 9.06442 13.0052 8.88036 12.9526 8.70736C12.9 8.53435 12.8014 8.3789 12.6672 8.25766C12.533 8.13643 12.3684 8.05396 12.191 8.01909C12.121 8.00809 11.911 8.00409 11.051 8.00409H9.996V6.94909C9.996 6.08909 9.992 5.87909 9.98 5.80909C9.94183 5.61393 9.8464 5.43456 9.70588 5.29386C9.56535 5.15316 9.38611 5.0575 9.191 5.01909C9.06173 4.99963 8.93027 4.99963 8.801 5.01909L8.8 5.02009ZM18.102 15.6101C17.738 15.6481 17.395 15.7851 17.094 16.0121C16.984 16.0941 16.199 16.8671 16.074 17.0161C15.828 17.3051 15.68 17.6361 15.621 18.0161C15.6015 18.2069 15.6015 18.3993 15.621 18.5901C15.6559 18.8235 15.73 19.0493 15.84 19.2581C15.98 19.5121 15.922 19.4531 17.86 21.3871C19.848 23.3751 19.75 23.2851 20.047 23.4301C20.527 23.6721 21.067 23.7101 21.578 23.5431C21.727 23.4931 21.968 23.3711 22.102 23.2771C22.262 23.1641 23.164 22.2621 23.277 22.1021C23.371 21.9691 23.492 21.7271 23.543 21.5781C23.6268 21.3276 23.6602 21.063 23.6413 20.7996C23.6224 20.5362 23.5516 20.2791 23.433 20.0431C23.285 19.7501 23.375 19.8481 21.387 17.8591C19.398 15.8711 19.497 15.9611 19.203 15.8121C18.8626 15.6415 18.4808 15.5721 18.102 15.6101Z" fill="currentColor"/>
</g>
<defs>
<clipPath id="clip0_2538_62366">
<rect width="24" height="24" fill="white"/>
</clipPath>
</defs>
</svg>
