<svg xmlns="http://www.w3.org/2000/svg" viewBox="0 0 16 16">
  <g>
    <circle class="ti-background" cx="8" cy="8" r="8" fill="#19426C"/>
    <path class="ti-foreground" fill="#FFF" d="M9.68,2.91 L9.21,6 C9.5219551,6.16754363 9.79201471,6.40341848 10,6.69 L10,6.69 L11.08,6.42 L10.2,7.19 C10.2925166,7.45004069 10.3398662,7.72399189 10.34,8 C10.3448254,8.05656394 10.3448254,8.11343606 10.34,8.17 L10.34,8.17 L12.16,9.33 L10,9.21 C9.83707337,9.49046461 9.61942863,9.73531494 9.36,9.93 L9.36,9.93 L9.63,11.06 L8.86,10.19 C8.58507808,10.2938686 8.29388251,10.3480445 8,10.35 L8,10.35 L7.83,10.35 L6.17,13.12 L6.8,10.03 L6.6430894,9.92811624 C6.38861737,9.7487105 6.17018698,9.52209035 6,9.26 L6,9.26 L4.86,9.53 L5.77,8.73 C5.6898163,8.49499953 5.64926335,8.24830245 5.65,8 C5.64469536,7.94345748 5.64469536,7.88654252 5.65,7.83 L5.65,7.83 L3.81,6.68 L6,6.79 C6.15081703,6.53313663 6.3473917,6.30605899 6.58,6.12 L6.58,6.12 L6.3,4.93 L7.08,5.83 C7.37177734,5.70985579 7.68445776,5.64867919 8,5.65 L8,5.65 L8.18,5.65 L9.68,2.91 Z M8.52759844,6.7765655 C8.04001852,6.56692534 7.47412718,6.6721936 7.09454992,7.0431441 C6.71497266,7.41409461 6.59672494,7.9774168 6.79510246,8.46968657 C6.99347998,8.96195635 7.46927761,9.28588695 8,9.29 C8.71964362,9.29557718 9.30903436,8.71958169 9.32,8 C9.32808694,7.46932329 9.01517835,6.98620567 8.52759844,6.7765655 Z M8,7.37 C8.16703574,7.36717071 8.32792248,7.43297148 8.44510274,7.55204175 C8.562283,7.67111202 8.62550133,7.83303091 8.62,8 C8.61736947,8.16178908 8.55056503,8.31590414 8.43428768,8.42843061 C8.31801034,8.54095707 8.16178837,8.60267401 8,8.6 C7.66697322,8.60004475 7.39545945,8.33298203 7.39,8 C7.38732634,7.83555957 7.45009697,7.67679425 7.56449873,7.55864162 C7.67890048,7.44048899 7.83555888,7.37263088 8,7.37 Z"/>
  </g>
</svg>
