<svg xmlns="http://www.w3.org/2000/svg" width="16" height="16" viewBox="0 0 16 16">
  <g fill-rule="evenodd">
    <path d="M3.1572,0.0002 L3.1572,5.7692 L4.0482,5.7692 L4.0482,0.8902 L10.2712,0.8902 L10.2712,5.7822 L15.1622,5.7822 L15.1622,15.1152 L4.0482,15.1152 L4.0482,12.7852 L3.1572,12.7852 L3.1572,16.0062 L16.0512,16.0062 L16.0512,4.8912 L11.1602,0.0002 L3.1572,0.0002 Z M11.1602,1.3362 L14.7172,4.8912 L11.1602,4.8912 L11.1602,1.3362 Z"/>
    <g transform="translate(0 7.006)">
      <path d="M.004 2.8822C-.008 2.9132.009 2.9202.013 2.9252.048 2.9512.084 2.9692.12 2.9902.315 3.0932.497 3.1232.689 3.1232 1.077 3.1232 1.319 2.9162 1.319 2.5832L1.319 2.5762C1.319 2.2682 1.046 2.1562.79 2.0752L.757 2.0652C.565 2.0022.398 1.9472.398 1.8202L.398 1.8142C.398 1.7052.495 1.6252.646 1.6252.814 1.6252 1.012 1.6812 1.141 1.7522 1.141 1.7522 1.178 1.7762 1.191 1.7392 1.199 1.7202 1.264 1.5462 1.271 1.5272 1.278 1.5062 1.266 1.4912 1.252 1.4832 1.106 1.3942.903 1.3332.694 1.3332L.655 1.3332C.299 1.3332.051 1.5492.051 1.8572L.051 1.8632C.051 2.1882.325 2.2942.582 2.3672L.623 2.3802C.811 2.4382.972 2.4872.972 2.6192L.972 2.6262C.972 2.7462.867 2.8362.698 2.8362.632 2.8362.423 2.8352.196 2.6922.169 2.6752.153 2.6642.132 2.6512.121 2.6442.093 2.6322.081 2.6692L.004 2.8822zM5.7022 2.8822C5.6902 2.9132 5.7072 2.9202 5.7112 2.9252 5.7462 2.9512 5.7822 2.9692 5.8182 2.9902 6.0132 3.0932 6.1952 3.1232 6.3872 3.1232 6.7752 3.1232 7.0172 2.9162 7.0172 2.5832L7.0172 2.5762C7.0172 2.2682 6.7442 2.1562 6.4882 2.0752L6.4552 2.0652C6.2622 2.0022 6.0962 1.9472 6.0962 1.8202L6.0962 1.8142C6.0962 1.7052 6.1932 1.6252 6.3442 1.6252 6.5122 1.6252 6.7102 1.6812 6.8382 1.7522 6.8382 1.7522 6.8762 1.7762 6.8892 1.7392 6.8972 1.7202 6.9622 1.5462 6.9692 1.5272 6.9762 1.5062 6.9642 1.4912 6.9502 1.4832 6.8042 1.3942 6.6012 1.3332 6.3922 1.3332L6.3532 1.3332C5.9972 1.3332 5.7482 1.5492 5.7482 1.8572L5.7482 1.8632C5.7482 2.1882 6.0232 2.2942 6.2802 2.3672L6.3212 2.3802C6.5092 2.4382 6.6712 2.4872 6.6712 2.6192L6.6712 2.6262C6.6712 2.7462 6.5652 2.8362 6.3962 2.8362 6.3302 2.8362 6.1212 2.8352 5.8942 2.6922 5.8672 2.6752 5.8512 2.6652 5.8302 2.6512 5.8232 2.6472 5.7912 2.6342 5.7792 2.6692L5.7022 2.8822zM9.5928 2.2293C9.5928 2.4173 9.5578 2.5663 9.4888 2.6703 9.4198 2.7743 9.3168 2.8253 9.1718 2.8253 9.0278 2.8253 8.9248 2.7743 8.8578 2.6703 8.7888 2.5663 8.7538 2.4173 8.7538 2.2293 8.7538 2.0413 8.7888 1.8933 8.8568 1.7893 8.9248 1.6863 9.0278 1.6363 9.1718 1.6363 9.3168 1.6363 9.4198 1.6863 9.4888 1.7893 9.5578 1.8933 9.5928 2.0413 9.5928 2.2293M9.9168 1.8803C9.8858 1.7723 9.8358 1.6773 9.7698 1.5983 9.7028 1.5183 9.6188 1.4543 9.5198 1.4083 9.4208 1.3613 9.3038 1.3383 9.1718 1.3383 9.0398 1.3383 8.9228 1.3613 8.8228 1.4083 8.7238 1.4543 8.6398 1.5183 8.5738 1.5983 8.5078 1.6773 8.4578 1.7723 8.4258 1.8803 8.3948 1.9873 8.3778 2.1043 8.3778 2.2293 8.3778 2.3533 8.3948 2.4713 8.4258 2.5783 8.4578 2.6863 8.5078 2.7813 8.5738 2.8603 8.6398 2.9393 8.7248 3.0033 8.8228 3.0483 8.9228 3.0943 9.0398 3.1173 9.1718 3.1173 9.3038 3.1173 9.4208 3.0943 9.5198 3.0483 9.6188 3.0033 9.7028 2.9393 9.7698 2.8603 9.8358 2.7813 9.8858 2.6863 9.9168 2.5783 9.9488 2.4713 9.9658 2.3533 9.9658 2.2293 9.9658 2.1043 9.9488 1.9873 9.9168 1.8803M12.586 2.7747C12.575 2.7437 12.544 2.7547 12.544 2.7547 12.497 2.7737 12.446 2.7897 12.393 2.7977 12.339 2.8067 12.279 2.8117 12.215 2.8117 12.058 2.8117 11.933 2.7647 11.843 2.6717 11.754 2.5797 11.703 2.4297 11.704 2.2277 11.704 2.0437 11.749 1.9057 11.828 1.7997 11.907 1.6947 12.028 1.6417 12.189 1.6417 12.323 1.6417 12.425 1.6567 12.532 1.6907 12.532 1.6907 12.558 1.7017 12.57 1.6677 12.599 1.5887 12.619 1.5327 12.649 1.4457 12.658 1.4207 12.638 1.4107 12.63 1.4077 12.588 1.3917 12.488 1.3637 12.413 1.3527 12.343 1.3417 12.261 1.3367 12.169 1.3367 12.033 1.3367 11.911 1.3597 11.807 1.4067 11.703 1.4527 11.615 1.5167 11.545 1.5957 11.476 1.6747 11.423 1.7707 11.388 1.8787 11.352 1.9847 11.334 2.1027 11.334 2.2277 11.334 2.4977 11.407 2.7147 11.551 2.8747 11.694 3.0347 11.91 3.1157 12.192 3.1157 12.358 3.1157 12.529 3.0827 12.652 3.0337 12.652 3.0337 12.676 3.0227 12.665 2.9947L12.586 2.7747zM13.1544 2.0487C13.1704 1.9447 13.1984 1.8577 13.2434 1.7897 13.3104 1.6867 13.4134 1.6297 13.5574 1.6297 13.7024 1.6297 13.7974 1.6867 13.8654 1.7897 13.9114 1.8577 13.9304 1.9477 13.9384 2.0487L13.1544 2.0487zM14.2484 1.8187C14.2194 1.7147 14.1514 1.6097 14.1074 1.5617 14.0364 1.4857 13.9664 1.4317 13.8984 1.4027 13.8084 1.3637 13.7014 1.3387 13.5834 1.3387 13.4464 1.3387 13.3214 1.3617 13.2194 1.4087 13.1194 1.4567 13.0344 1.5217 12.9674 1.6027 12.9004 1.6827 12.8494 1.7787 12.8184 1.8877 12.7864 1.9957 12.7694 2.1137 12.7694 2.2387 12.7694 2.3657 12.7864 2.4837 12.8194 2.5897 12.8534 2.6967 12.9064 2.7907 12.9784 2.8697 13.0514 2.9477 13.1444 3.0097 13.2564 3.0527 13.3664 3.0957 13.5014 3.1177 13.6554 3.1167 13.9724 3.1157 14.1394 3.0457 14.2094 3.0067 14.2204 3.0007 14.2324 2.9887 14.2174 2.9547L14.1454 2.7537C14.1344 2.7237 14.1044 2.7347 14.1044 2.7347 14.0254 2.7637 13.9144 2.8157 13.6534 2.8157 13.4824 2.8157 13.3564 2.7647 13.2774 2.6857 13.1954 2.6057 13.1554 2.4867 13.1494 2.3197L14.2494 2.3207C14.2494 2.3207 14.2774 2.3207 14.2804 2.2927 14.2824 2.2807 14.3184 2.0667 14.2484 1.8187L14.2484 1.8187zM4.3458 2.0487C4.3618 1.9447 4.3898 1.8577 4.4348 1.7897 4.5018 1.6867 4.6048 1.6297 4.7488 1.6297 4.8938 1.6297 4.9898 1.6867 5.0578 1.7897 5.1028 1.8577 5.1218 1.9477 5.1298 2.0487L4.3458 2.0487zM5.4398 1.8187C5.4118 1.7147 5.3438 1.6097 5.2988 1.5617 5.2288 1.4857 5.1588 1.4317 5.0898 1.4027 4.9998 1.3637 4.8928 1.3387 4.7758 1.3387 4.6378 1.3387 4.5128 1.3617 4.4118 1.4087 4.3108 1.4567 4.2258 1.5217 4.1588 1.6027 4.0918 1.6827 4.0418 1.7787 4.0098 1.8877 3.9778 1.9957 3.9608 2.1137 3.9608 2.2387 3.9608 2.3657 3.9788 2.4837 4.0118 2.5897 4.0448 2.6967 4.0988 2.7907 4.1708 2.8697 4.2428 2.9477 4.3358 3.0097 4.4478 3.0527 4.5578 3.0957 4.6928 3.1177 4.8468 3.1167 5.1638 3.1157 5.3308 3.0457 5.4008 3.0067 5.4128 3.0007 5.4238 2.9887 5.4098 2.9547L5.3378 2.7537C5.3268 2.7237 5.2958 2.7347 5.2958 2.7347 5.2178 2.7637 5.1058 2.8157 4.8448 2.8157 4.6748 2.8157 4.5478 2.7647 4.4688 2.6857 4.3878 2.6057 4.3478 2.4867 4.3408 2.3197L5.4408 2.3207C5.4408 2.3207 5.4698 2.3207 5.4728 2.2927 5.4738 2.2807 5.5098 2.0667 5.4398 1.8187L5.4398 1.8187zM1.9688 2.7689C1.9248 2.7349 1.9188 2.7259 1.9058 2.7039 1.8828 2.6699 1.8718 2.6219 1.8718 2.5609 1.8718 2.4639 1.9048 2.3939 1.9698 2.3479 1.9698 2.3479 2.0648 2.2659 2.2888 2.2689 2.4468 2.2699 2.5878 2.2939 2.5878 2.2939L2.5878 2.7939C2.5878 2.7939 2.4478 2.8239 2.2908 2.8329 2.0678 2.8469 1.9678 2.7689 1.9688 2.7689M2.4058 1.9959C2.3618 1.9929 2.3038 1.9909 2.2348 1.9909 2.1408 1.9909 2.0488 2.0029 1.9638 2.0259 1.8778 2.0489 1.7998 2.0849 1.7338 2.1319 1.6668 2.1799 1.6138 2.2409 1.5738 2.3139 1.5348 2.3859 1.5158 2.4719 1.5158 2.5669 1.5158 2.6649 1.5318 2.7489 1.5668 2.8179 1.5998 2.8879 1.6478 2.9459 1.7088 2.9899 1.7708 3.0349 1.8458 3.0679 1.9338 3.0869 2.0198 3.1069 2.1168 3.1169 2.2248 3.1169 2.3378 3.1169 2.4498 3.1079 2.5588 3.0889 2.6668 3.0709 2.7988 3.0439 2.8358 3.0359 2.8718 3.0269 2.9128 3.0159 2.9128 3.0159 2.9408 3.0089 2.9378 2.9799 2.9378 2.9799L2.9378 1.9749C2.9378 1.7529 2.8778 1.5899 2.7628 1.4889 2.6478 1.3879 2.4778 1.3369 2.2578 1.3369 2.1748 1.3369 2.0418 1.3479 1.9628 1.3639 1.9628 1.3639 1.7228 1.4099 1.6238 1.4879 1.6238 1.4879 1.6018 1.5009 1.6138 1.5319L1.6918 1.7409C1.7008 1.7679 1.7278 1.7589 1.7278 1.7589 1.7278 1.7589 1.7368 1.7549 1.7458 1.7489 1.9568 1.6349 2.2248 1.6379 2.2248 1.6379 2.3438 1.6379 2.4358 1.6619 2.4968 1.7089 2.5568 1.7549 2.5868 1.8249 2.5868 1.9709L2.5868 2.0179C2.4928 2.0039 2.4058 1.9959 2.4058 1.9959M11.2764 1.4295C11.2854 1.4045 11.2674 1.3925 11.2604 1.3895 11.2414 1.3825 11.1474 1.3635 11.0764 1.3585 10.9374 1.3495 10.8614 1.3725 10.7924 1.4045 10.7234 1.4345 10.6484 1.4845 10.6064 1.5415L10.6064 1.4075C10.6064 1.3885 10.5924 1.3735 10.5754 1.3735L10.2934 1.3735C10.2744 1.3735 10.2614 1.3885 10.2614 1.4075L10.2614 3.0475C10.2614 3.0665 10.2764 3.0805 10.2954 3.0805L10.5844 3.0805C10.6024 3.0805 10.6174 3.0665 10.6174 3.0475L10.6174 2.2275C10.6174 2.1175 10.6294 2.0085 10.6534 1.9395 10.6764 1.8705 10.7104 1.8165 10.7504 1.7775 10.7904 1.7385 10.8364 1.7115 10.8854 1.6965 10.9364 1.6805 10.9934 1.6755 11.0334 1.6755 11.0904 1.6755 11.1534 1.6905 11.1534 1.6905 11.1744 1.6925 11.1864 1.6795 11.1944 1.6605 11.2134 1.6105 11.2664 1.4595 11.2764 1.4295"/>
      <path d="M8.5645.6693C8.5295.6583 8.4985.6503 8.4565.6433 8.4135.6353 8.3635.6313 8.3065.6313 8.1075.6313 7.9515.6883 7.8405.7993 7.7315.9093 7.6575 1.0773 7.6195 1.2973L7.6065 1.3723 7.3565 1.3723C7.3565 1.3723 7.3265 1.3713 7.3195 1.4043L7.2785 1.6323C7.2755 1.6543 7.2855 1.6683 7.3145 1.6683L7.5575 1.6683 7.3105 3.0443C7.2915 3.1553 7.2695 3.2473 7.2455 3.3153 7.2205 3.3843 7.1975 3.4353 7.1685 3.4723 7.1395 3.5083 7.1135 3.5353 7.0675 3.5503 7.0295 3.5633 6.9855 3.5683 6.9385 3.5683 6.9125 3.5683 6.8765 3.5643 6.8495 3.5593 6.8245 3.5533 6.8105 3.5473 6.7915 3.5403 6.7915 3.5403 6.7615 3.5293 6.7515 3.5573 6.7425 3.5813 6.6765 3.7593 6.6685 3.7813 6.6615 3.8033 6.6725 3.8193 6.6865 3.8253 6.7185 3.8363 6.7425 3.8433 6.7875 3.8543 6.8475 3.8683 6.8995 3.8693 6.9485 3.8693 7.0485 3.8693 7.1415 3.8553 7.2175 3.8273 7.2945 3.7993 7.3615 3.7513 7.4205 3.6863 7.4855 3.6153 7.5255 3.5413 7.5635 3.4403 7.6025 3.3393 7.6345 3.2153 7.6615 3.0703L7.9085 1.6683 8.2705 1.6683C8.2705 1.6683 8.3015 1.6693 8.3075 1.6363L8.3485 1.4073C8.3515 1.3853 8.3415 1.3723 8.3125 1.3723L7.9605 1.3723C7.9625 1.3643 7.9785 1.2403 8.0195 1.1243 8.0365 1.0743 8.0685 1.0343 8.0965 1.0063 8.1235.9803 8.1545.9603 8.1885.9493 8.2235.9383 8.2625.9323 8.3065.9323 8.3395.9323 8.3725.9363 8.3965.9413 8.4305.9483 8.4445.9523 8.4535.9553 8.4885.9663 8.4935.9563 8.5015.9383L8.5855.7073C8.5935.6833 8.5725.6723 8.5645.6693M3.6514 3.0477C3.6514 3.0667 3.6374 3.0817 3.6194 3.0817L3.3284 3.0817C3.3094 3.0817 3.2964 3.0667 3.2964 3.0477L3.2964.7007C3.2964.6817 3.3094.6677 3.3284.6677L3.6194.6677C3.6374.6677 3.6514.6817 3.6514.7007L3.6514 3.0477z"/>
    </g>
  </g>
</svg>
