<svg xmlns="http://www.w3.org/2000/svg" viewBox="0 0 16 16"><path d="M11.16,0h-8V5.77H4V.89h6.22V5.78h4.89v9.33H4V12.78H3.16V16H16.05V4.89Zm0,4.89V1.34l3.56,3.56Z"/><path d="M0,9.89s0,0,0,0L.12,10a1.16,1.16,0,0,0,.57.13c.39,0,.63-.21.63-.54h0c0-.31-.27-.42-.53-.5h0C.56,9,.4,9,.4,8.83h0c0-.11.1-.19.25-.19a1.12,1.12,0,0,1,.49.13s0,0,.05,0l.08-.21a0,0,0,0,0,0,0,1.1,1.1,0,0,0-.56-.15h0a.54.54,0,0,0-.61.52h0c0,.32.27.43.53.5h0c.19.06.35.11.35.24H1c0,.12-.11.21-.27.21A.92.92,0,0,1,.2,9.7l-.06,0a0,0,0,0,0-.05,0Z"/><path d="M5.7,9.89s0,0,0,0l.11.07a1.16,1.16,0,0,0,.57.13c.39,0,.63-.21.63-.54H7c0-.31-.27-.42-.53-.5h0C6.26,9,6.1,9,6.1,8.83h0c0-.11.1-.19.25-.19a1.12,1.12,0,0,1,.49.13s0,0,.05,0L7,8.53a0,0,0,0,0,0,0,1.1,1.1,0,0,0-.56-.15h0a.54.54,0,0,0-.61.52h0c0,.32.27.43.53.5h0c.19.06.35.11.35.24h0c0,.12-.11.21-.27.21a.92.92,0,0,1-.5-.14l-.06,0a0,0,0,0,0-.05,0Z"/><path d="M9.92,8.89a.78.78,0,0,0-.15-.28.71.71,0,0,0-.25-.19.9.9,0,0,0-.7,0,.71.71,0,0,0-.25.19.78.78,0,0,0-.15.28,1.29,1.29,0,0,0,0,.7.78.78,0,0,0,.15.28.7.7,0,0,0,.25.19.92.92,0,0,0,.7,0,.7.7,0,0,0,.25-.19.78.78,0,0,0,.15-.28,1.29,1.29,0,0,0,0-.7m-.32.35a.8.8,0,0,1-.1.44.35.35,0,0,1-.32.15.35.35,0,0,1-.31-.15,1,1,0,0,1,0-.88.4.4,0,0,1,.63,0,.79.79,0,0,1,.1.44"/><path d="M12.59,9.78a0,0,0,0,0,0,0l-.15,0h-.18a.5.5,0,0,1-.37-.14.62.62,0,0,1-.14-.44.69.69,0,0,1,.12-.43.42.42,0,0,1,.36-.16,1.09,1.09,0,0,1,.34,0s0,0,0,0l.08-.22a0,0,0,0,0,0,0l-.22-.05-.24,0a.89.89,0,0,0-.36.07.75.75,0,0,0-.26.19.8.8,0,0,0-.16.28,1.12,1.12,0,0,0-.05.35.93.93,0,0,0,.22.65.82.82,0,0,0,.64.24,1.33,1.33,0,0,0,.46-.08,0,0,0,0,0,0,0Z"/><path d="M14.25,8.82a.68.68,0,0,0-.14-.26.64.64,0,0,0-.21-.16.8.8,0,0,0-.32-.06.86.86,0,0,0-.36.07.72.72,0,0,0-.25.19.8.8,0,0,0-.15.29,1.23,1.23,0,0,0,0,.35,1.18,1.18,0,0,0,0,.35.7.7,0,0,0,.44.46,1.1,1.1,0,0,0,.4.06,1.15,1.15,0,0,0,.55-.11s0,0,0-.05l-.07-.2a0,0,0,0,0,0,0,1.06,1.06,0,0,1-.45.08.45.45,0,0,1-.5-.49h1.1a0,0,0,0,0,0,0,1.18,1.18,0,0,0,0-.47m-1.09.23a.64.64,0,0,1,.09-.26.35.35,0,0,1,.31-.16.34.34,0,0,1,.31.16.54.54,0,0,1,.07.26Z"/><path d="M5.44,8.82a.68.68,0,0,0-.14-.26.64.64,0,0,0-.21-.16.8.8,0,0,0-.31-.06.86.86,0,0,0-.36.07.72.72,0,0,0-.25.19A.8.8,0,0,0,4,8.89a1.23,1.23,0,0,0,0,.35A1.18,1.18,0,0,0,4,9.6a.7.7,0,0,0,.44.46,1.1,1.1,0,0,0,.4.06A1.15,1.15,0,0,0,5.4,10s0,0,0-.05l-.07-.2a0,0,0,0,0,0,0,1.06,1.06,0,0,1-.45.08.45.45,0,0,1-.5-.49h1.1a0,0,0,0,0,0,0,1.18,1.18,0,0,0,0-.47m-1.09.23a.65.65,0,0,1,.09-.26.35.35,0,0,1,.31-.16.34.34,0,0,1,.31.16.55.55,0,0,1,.07.26Z"/><path d="M2.41,9H2.23A1,1,0,0,0,2,9a.71.71,0,0,0-.23.11.51.51,0,0,0-.22.43.57.57,0,0,0,.05.25.45.45,0,0,0,.14.17.6.6,0,0,0,.22.1,1.31,1.31,0,0,0,.29,0l.33,0L2.84,10l.08,0a0,0,0,0,0,0,0V9a.62.62,0,0,0-.17-.49.75.75,0,0,0-.51-.15L2,8.37a1.06,1.06,0,0,0-.34.12,0,0,0,0,0,0,0l.08.21a0,0,0,0,0,0,0h0a1.12,1.12,0,0,1,.48-.11.45.45,0,0,1,.27.07c.06,0,.09.12.09.26V9L2.41,9M2,9.77a.21.21,0,0,1-.06-.07.26.26,0,0,1,0-.14A.24.24,0,0,1,2,9.35a.49.49,0,0,1,.32-.08,2.23,2.23,0,0,1,.3,0v.5a2.25,2.25,0,0,1-.3,0A.49.49,0,0,1,2,9.77"/><path d="M11.28,8.44a0,0,0,0,0,0,0l-.18,0a.55.55,0,0,0-.28,0,.49.49,0,0,0-.19.14V8.41a0,0,0,0,0,0,0h-.28a0,0,0,0,0,0,0v1.64a0,0,0,0,0,0,0h.29a0,0,0,0,0,0,0V9.23a1,1,0,0,1,0-.29.41.41,0,0,1,.1-.16.33.33,0,0,1,.14-.08l.15,0,.12,0s0,0,0,0l.08-.23"/><path d="M8.56,7.67l-.11,0H8.31a.63.63,0,0,0-.47.17.91.91,0,0,0-.22.5v.07H7.36a0,0,0,0,0,0,0l0,.23s0,0,0,0h.24l-.25,1.38a1.72,1.72,0,0,1-.07.27.55.55,0,0,1-.08.16.2.2,0,0,1-.1.08l-.13,0H6.85l-.06,0a0,0,0,0,0,0,0l-.08.22a0,0,0,0,0,0,0l.1,0,.16,0a.8.8,0,0,0,.27,0,.51.51,0,0,0,.2-.14.73.73,0,0,0,.14-.25,2.11,2.11,0,0,0,.1-.37l.25-1.4h.36a0,0,0,0,0,0,0l0-.23s0,0,0,0H8A1.47,1.47,0,0,1,8,8.13.32.32,0,0,1,8.1,8,.23.23,0,0,1,8.19,8l.12,0h.15s0,0,0,0l.08-.23a0,0,0,0,0,0,0"/><rect x="3.3" y="7.67" width="0.35" height="2.41" rx="0.03" ry="0.03"/></svg>