<svg xmlns="http://www.w3.org/2000/svg" fill="none" viewBox="0 0 156 48">
  <path fill="#323E48" d="M58.828 14.204c0-.972.15-1.836.45-2.592.3-.768.702-1.416 1.206-1.944a5.267 5.267 0 011.782-1.206 5.718 5.718 0 012.16-.414c.732 0 1.392.156 1.98.468.6.3 1.098.654 1.494 1.062l-1.458 1.638a4.023 4.023 0 00-.918-.648c-.3-.156-.654-.234-1.062-.234-.408 0-.792.09-1.152.27a2.686 2.686 0 00-.918.738c-.264.324-.474.72-.63 1.188a5.38 5.38 0 00-.216 1.584c0 1.212.258 2.154.774 2.826.516.66 1.206.99 2.07.99.48 0 .9-.096 1.26-.288.36-.192.684-.444.972-.756l1.458 1.602a4.846 4.846 0 01-1.692 1.296 4.794 4.794 0 01-2.034.432 6.05 6.05 0 01-2.142-.378 5.108 5.108 0 01-1.764-1.152c-.504-.504-.9-1.128-1.188-1.872-.288-.756-.432-1.626-.432-2.61zm10.297 1.332c0-.744.12-1.404.36-1.98.24-.588.558-1.08.954-1.476a4.137 4.137 0 011.404-.9 4.287 4.287 0 011.638-.324c.564 0 1.104.108 1.62.324.528.204.99.504 1.386.9.408.396.732.888.972 1.476.24.576.36 1.236.36 1.98s-.12 1.41-.36 1.998a4.314 4.314 0 01-.972 1.458 4.174 4.174 0 01-1.386.918 4.507 4.507 0 01-3.258 0 4.377 4.377 0 01-1.404-.918 4.457 4.457 0 01-.954-1.458c-.24-.588-.36-1.254-.36-1.998zm2.718 0c0 .78.132 1.398.396 1.854.276.456.69.684 1.242.684.54 0 .948-.228 1.224-.684.276-.456.414-1.074.414-1.854s-.138-1.398-.414-1.854c-.276-.456-.684-.684-1.224-.684-.552 0-.966.228-1.242.684-.264.456-.396 1.074-.396 1.854zm7.788-4.464h2.16l.18 1.566h.072c.324-.612.714-1.062 1.17-1.35.456-.288.912-.432 1.368-.432.252 0 .456.018.612.054.168.024.318.066.45.126l-.432 2.286a3.101 3.101 0 00-.972-.144c-.336 0-.69.12-1.062.36-.36.24-.66.666-.9 1.278V20H79.63v-8.928zm6.32 6.444c0-.936.397-1.668 1.189-2.196.791-.528 2.07-.882 3.834-1.062-.025-.396-.145-.708-.36-.936-.217-.24-.565-.36-1.044-.36-.384 0-.768.072-1.152.216a8.09 8.09 0 00-1.225.594l-.936-1.746a9.452 9.452 0 011.8-.846 6.226 6.226 0 012.016-.324c1.153 0 2.029.33 2.629.99.612.648.918 1.662.918 3.042V20h-2.16l-.198-.918h-.055a5.786 5.786 0 01-1.223.828 3.13 3.13 0 01-1.386.306c-.409 0-.775-.072-1.099-.216a2.347 2.347 0 01-.828-.558 2.916 2.916 0 01-.54-.864 3.035 3.035 0 01-.18-1.062zm2.52-.198c0 .288.09.504.27.648.192.132.445.198.757.198.311 0 .575-.066.791-.198a3.75 3.75 0 00.684-.558v-1.566c-.948.132-1.602.324-1.962.576-.36.252-.54.552-.54.9zm7.42-9.936h2.646v9.954c0 .276.048.468.144.576.108.108.216.162.324.162h.144a.592.592 0 00.18-.036L99.653 20c-.144.06-.33.108-.558.144a3.614 3.614 0 01-.774.072c-.456 0-.84-.072-1.152-.216a1.966 1.966 0 01-.756-.594 2.756 2.756 0 01-.396-.936 5.65 5.65 0 01-.126-1.242V7.382zM59.44 30.504h2.624c1.621 0 2.853.448 3.696 1.344.843.896 1.264 2.181 1.264 3.856 0 .832-.107 1.579-.32 2.24a4.549 4.549 0 01-.944 1.664 4.214 4.214 0 01-1.536 1.04c-.608.235-1.307.352-2.096.352H59.44V30.504zm2.528 9.408c1.227 0 2.144-.368 2.752-1.104.619-.736.928-1.77.928-3.104 0-1.333-.31-2.352-.928-3.056-.608-.704-1.525-1.056-2.752-1.056h-1.2v8.32h1.2zm6.612-2.784c0-.64.096-1.21.288-1.712a4.19 4.19 0 01.784-1.296c.33-.352.704-.619 1.12-.8a3.059 3.059 0 011.296-.288 3.2 3.2 0 011.312.256c.394.17.72.416.976.736.266.32.47.704.608 1.152a5.1 5.1 0 01.208 1.504c0 .288-.016.528-.048.72h-5.248c.053.843.31 1.51.768 2 .47.49 1.077.736 1.824.736a3.12 3.12 0 001.024-.16c.32-.117.624-.267.912-.448l.464.864c-.342.213-.72.4-1.136.56-.416.16-.89.24-1.424.24a3.95 3.95 0 01-1.472-.272 3.745 3.745 0 01-1.184-.8 3.86 3.86 0 01-.784-1.28c-.192-.501-.288-1.072-.288-1.712zm5.44-.592c0-.8-.17-1.408-.512-1.824-.33-.427-.8-.64-1.408-.64a1.9 1.9 0 00-.8.176c-.246.107-.47.267-.672.48a2.542 2.542 0 00-.512.768 3.622 3.622 0 00-.256 1.04h4.16zm2.865 2.704c.342.277.688.501 1.04.672.363.17.779.256 1.248.256.512 0 .896-.117 1.152-.352.256-.235.384-.523.384-.864a.885.885 0 00-.16-.528 1.444 1.444 0 00-.416-.384 2.534 2.534 0 00-.56-.304l-.64-.256a13.303 13.303 0 01-.832-.32 4 4 0 01-.752-.448 2.449 2.449 0 01-.528-.624 1.638 1.638 0 01-.208-.848c0-.31.059-.597.176-.864a2.04 2.04 0 01.528-.704c.235-.203.518-.357.848-.464a3.34 3.34 0 011.12-.176c.49 0 .939.085 1.344.256.416.17.774.379 1.072.624l-.624.832a4.18 4.18 0 00-.832-.496 2.298 2.298 0 00-.944-.192c-.49 0-.853.112-1.088.336a1.074 1.074 0 00-.336.784c0 .181.048.341.144.48.096.128.224.245.384.352a4.3 4.3 0 00.544.272 25.901 25.901 0 011.488.576c.288.117.544.267.768.448.224.17.406.384.544.64.15.256.224.565.224.928 0 .32-.064.619-.192.896a2.007 2.007 0 01-.544.736 2.418 2.418 0 01-.896.496 3.549 3.549 0 01-1.216.192 4.185 4.185 0 01-1.584-.304 4.942 4.942 0 01-1.312-.768l.656-.88zm7.583-7.616a.957.957 0 01-.656-.24.797.797 0 01-.256-.608c0-.256.086-.459.256-.608.182-.16.4-.24.656-.24a.9.9 0 01.64.24c.182.15.272.352.272.608 0 .245-.09.448-.272.608a.9.9 0 01-.64.24zm-.672 1.6h1.312V41h-1.312v-7.776zm4.498 9.088c0 .416.197.747.592.992.405.245.96.368 1.664.368.373 0 .71-.048 1.008-.144.31-.085.57-.203.784-.352.213-.139.379-.304.496-.496.117-.192.176-.39.176-.592 0-.363-.133-.613-.4-.752s-.656-.208-1.168-.208h-1.344c-.15 0-.315-.01-.496-.032a2.167 2.167 0 01-.512-.096c-.277.203-.48.416-.608.64a1.344 1.344 0 00-.192.672zm-1.152.176c0-.33.101-.645.304-.944.203-.299.48-.57.832-.816v-.064a1.63 1.63 0 01-.496-.48c-.128-.213-.192-.475-.192-.784 0-.33.09-.619.272-.864.181-.245.373-.437.576-.576v-.064a3.347 3.347 0 01-.704-.848 2.515 2.515 0 01-.304-1.248c0-.427.074-.81.224-1.152.16-.341.373-.63.64-.864.267-.245.576-.432.928-.56a3.388 3.388 0 011.136-.192c.213 0 .41.021.592.064.192.032.362.075.512.128h2.704v1.008h-1.6c.181.181.33.41.448.688.128.277.192.581.192.912 0 .416-.075.795-.224 1.136-.15.33-.352.613-.608.848-.256.224-.56.4-.912.528a3.12 3.12 0 01-1.696.128 3.352 3.352 0 01-.576-.208 1.76 1.76 0 00-.352.4.907.907 0 00-.144.528c0 .245.096.448.288.608.192.16.555.24 1.088.24h1.504c.907 0 1.584.15 2.032.448.459.288.688.757.688 1.408 0 .363-.09.704-.272 1.024-.181.33-.443.619-.784.864a3.973 3.973 0 01-1.248.576 5.49 5.49 0 01-1.632.224 5.55 5.55 0 01-1.312-.144 3.16 3.16 0 01-1.024-.4 2.136 2.136 0 01-.656-.656 1.745 1.745 0 01-.224-.896zm3.216-4.832c.224 0 .432-.043.624-.128.203-.085.379-.208.528-.368.16-.16.282-.352.368-.576a2.29 2.29 0 00.128-.784c0-.576-.16-1.019-.48-1.328a1.59 1.59 0 00-1.168-.48c-.459 0-.848.16-1.168.48-.32.31-.48.752-.48 1.328 0 .288.043.55.128.784.085.224.203.416.352.576.16.16.336.283.528.368.203.085.416.128.64.128zm5.438-4.432h1.088l.112 1.12h.048a6.19 6.19 0 011.168-.928c.416-.256.896-.384 1.44-.384.822 0 1.419.256 1.792.768.384.512.576 1.27.576 2.272V41h-1.312v-4.752c0-.736-.117-1.264-.352-1.584-.234-.33-.608-.496-1.12-.496-.405 0-.762.101-1.072.304-.309.203-.661.501-1.056.896V41h-1.312v-7.776zm12.145 5.488c.373.395.81.715 1.312.96.512.235 1.04.352 1.584.352.693 0 1.232-.155 1.616-.464.384-.32.576-.736.576-1.248 0-.267-.048-.49-.144-.672a1.267 1.267 0 00-.368-.48 2.335 2.335 0 00-.544-.368 47.858 47.858 0 00-.688-.336l-1.504-.656a7.119 7.119 0 01-.752-.384 3.08 3.08 0 01-.688-.544 2.626 2.626 0 01-.496-.752 2.578 2.578 0 01-.192-1.024c0-.395.08-.763.24-1.104.17-.341.4-.635.688-.88a3.211 3.211 0 011.04-.592 4.077 4.077 0 011.328-.208c.629 0 1.21.123 1.744.368.533.235.986.544 1.36.928l-.72.864c-.32-.31-.678-.55-1.072-.72a3.04 3.04 0 00-1.312-.272c-.587 0-1.062.139-1.424.416-.352.267-.528.64-.528 1.12 0 .256.048.475.144.656.106.17.245.325.416.464.17.128.357.245.56.352.202.096.41.187.624.272l1.488.64c.298.128.581.277.848.448.266.16.496.352.688.576.192.213.341.47.448.768.117.288.176.624.176 1.008 0 .416-.086.805-.256 1.168a2.8 2.8 0 01-.704.96c-.31.267-.683.48-1.12.64a4.58 4.58 0 01-1.488.224 5.021 5.021 0 01-3.68-1.552l.8-.928zm7.859 4.432c.085.021.181.043.288.064.106.032.208.048.304.048.448 0 .81-.16 1.088-.48.288-.31.512-.704.672-1.184l.176-.576-3.12-7.792h1.36l1.584 4.304c.117.341.24.704.368 1.088.138.373.266.741.384 1.104h.064c.117-.352.229-.72.336-1.104.106-.384.213-.747.32-1.088l1.392-4.304h1.28l-2.928 8.416a9.17 9.17 0 01-.464 1.072c-.171.33-.374.613-.608.848a2.65 2.65 0 01-.8.576 2.449 2.449 0 01-1.04.208c-.182 0-.347-.016-.496-.048a1.695 1.695 0 01-.416-.112l.256-1.04zm7.788-3.904c.342.277.688.501 1.04.672a2.9 2.9 0 001.248.256c.512 0 .896-.117 1.152-.352.256-.235.384-.523.384-.864a.882.882 0 00-.16-.528 1.43 1.43 0 00-.416-.384 2.518 2.518 0 00-.56-.304l-.64-.256a13.571 13.571 0 01-.832-.32 4.013 4.013 0 01-.752-.448 2.465 2.465 0 01-.528-.624 1.645 1.645 0 01-.208-.848c0-.31.059-.597.176-.864a2.04 2.04 0 01.528-.704c.235-.203.518-.357.848-.464a3.338 3.338 0 011.12-.176c.491 0 .939.085 1.344.256.416.17.774.379 1.072.624l-.624.832a4.16 4.16 0 00-.832-.496 2.296 2.296 0 00-.944-.192c-.49 0-.853.112-1.088.336a1.074 1.074 0 00-.336.784c0 .181.048.341.144.48.096.128.224.245.384.352.16.096.342.187.544.272a24.946 24.946 0 011.488.576c.288.117.544.267.768.448.224.17.406.384.544.64.15.256.224.565.224.928 0 .32-.064.619-.192.896a1.995 1.995 0 01-.544.736 2.409 2.409 0 01-.896.496 3.547 3.547 0 01-1.216.192 4.19 4.19 0 01-1.584-.304 4.96 4.96 0 01-1.312-.768l.656-.88zm7.136-4.944h-1.152v-.992l1.216-.08.16-2.176h1.104v2.176h2.096v1.072h-2.096v4.32c0 .48.085.853.256 1.12.181.256.496.384.944.384.138 0 .288-.021.448-.064.16-.043.304-.09.432-.144l.256.992a5.598 5.598 0 01-.704.192 2.911 2.911 0 01-.736.096c-.416 0-.768-.064-1.056-.192a1.88 1.88 0 01-.688-.528 2.11 2.11 0 01-.368-.816 4.63 4.63 0 01-.112-1.056v-4.304zm4.45 2.832c0-.64.096-1.21.288-1.712a4.19 4.19 0 01.784-1.296c.33-.352.704-.619 1.12-.8a3.058 3.058 0 011.295-.288c.491 0 .929.085 1.313.256.394.17.72.416.976.736.266.32.469.704.608 1.152a5.1 5.1 0 01.208 1.504c0 .288-.016.528-.048.72h-5.248c.053.843.309 1.51.768 2 .469.49 1.077.736 1.824.736a3.12 3.12 0 001.024-.16c.32-.117.624-.267.912-.448l.464.864c-.342.213-.72.4-1.136.56-.416.16-.891.24-1.424.24a3.95 3.95 0 01-1.472-.272 3.741 3.741 0 01-1.184-.8 3.856 3.856 0 01-.784-1.28c-.192-.501-.288-1.072-.288-1.712zm5.44-.592c0-.8-.171-1.408-.512-1.824-.331-.427-.8-.64-1.408-.64-.278 0-.544.059-.8.176-.246.107-.47.267-.672.48a2.525 2.525 0 00-.512.768 3.603 3.603 0 00-.256 1.04h4.16zm3.073-3.312h1.088l.112 1.12h.048a5.246 5.246 0 011.104-.928 2.412 2.412 0 011.312-.384c.597 0 1.061.133 1.392.4.341.256.592.619.752 1.088a6.447 6.447 0 011.216-1.072 2.378 2.378 0 011.344-.416c.8 0 1.392.256 1.776.768.395.512.592 1.27.592 2.272V41h-1.312v-4.752c0-.736-.117-1.264-.352-1.584-.235-.33-.597-.496-1.088-.496-.587 0-1.237.4-1.952 1.2V41h-1.312v-4.752c0-.736-.117-1.264-.352-1.584-.235-.33-.603-.496-1.104-.496-.587 0-1.237.4-1.952 1.2V41h-1.312v-7.776z"/>
  <path fill="#FF6D70" d="M24 .123C10.813.123.123 10.813.123 24S10.813 47.877 24 47.877 47.877 37.187 47.877 24A23.877 23.877 0 0024 .123"/>
  <path fill="#F8F3EF" fill-rule="evenodd" d="M42.045 18.298a.168.168 0 00-.123-.058h-.782c-.85.004-1.534.024-2.117.065-.04 0-.104.032-.104.09a.403.403 0 00-.039.17.311.311 0 000 .155c.026.04.065.07.11.084.308.008.612.074.895.195a.571.571 0 01.305.551l.052 2.284a2.439 2.439 0 00-.733-.318 4.082 4.082 0 00-.862-.078 3.062 3.062 0 00-1.674.434c-.459.266-.829.66-1.064 1.136a3.542 3.542 0 00-.344 1.543 4.277 4.277 0 00.273 1.564c.172.453.474.846.869 1.128.456.305.996.457 1.544.435a3.07 3.07 0 001.116-.214 1.81 1.81 0 00.85-.61c-.008.13-.008.26 0 .39a.262.262 0 00.116.187c.101.055.216.08.33.072h2.122a.156.156 0 00.143-.085.293.293 0 00.058-.162.253.253 0 00-.039-.168.31.31 0 00-.175-.052l-.337-.059a.44.44 0 01-.234-.162.564.564 0 01-.097-.363V18.48a.246.246 0 00-.059-.182zm-15.159 5.17a2.328 2.328 0 00-.817-1.511 3.12 3.12 0 00-1.978-.52 3.852 3.852 0 00-1.674.358 2.815 2.815 0 00-1.206 1.044 2.964 2.964 0 00-.454 1.66 3.12 3.12 0 00.856 2.355h-.032c.723.604 1.655.9 2.594.824a3.326 3.326 0 001.537-.325c.394-.198.72-.507.941-.888a.215.215 0 00.039-.097.071.071 0 00-.058-.072l-.266-.13h-.065a.182.182 0 00-.059.046l-.032.039a1.648 1.648 0 01-.649.473 2.542 2.542 0 01-.92.143c-.312 0-.618-.08-.89-.233a1.758 1.758 0 01-.687-.772 3.107 3.107 0 01-.272-1.408h4.15c.008-.33-.011-.66-.057-.986zM7.655 19.732c.078.039.13.084.13.156v1.667H9.1a.136.136 0 01.103.064.26.26 0 01.04.143.694.694 0 01-.053.305c-.039.084-.077.13-.123.13H7.771v3.438c-.006.26.009.52.045.778a.648.648 0 00.169.363c.098.07.217.105.337.098a1.68 1.68 0 00.467-.078c.171-.05.338-.113.5-.188.02-.013.058.006.097.07a.72.72 0 01.104.195l.006-.013v.124a1.68 1.68 0 01-.46.324 4.41 4.41 0 01-.649.26c-.21.064-.429.099-.649.103a2.504 2.504 0 01-1.375-.337 1.297 1.297 0 01-.512-1.18v-3.957h-.649a.15.15 0 01-.104-.098v-.051a.201.201 0 01.15-.253 3.509 3.509 0 002.166-1.946s.162-.156.24-.117zm11.903-1.434a.168.168 0 00-.123-.058c-.909 0-1.797.032-2.66.084-.039 0-.071.04-.104.091a.427.427 0 00-.039.175.35.35 0 000 .156.3.3 0 00.11.084h.228c.136.014.27.04.402.078a.52.52 0 01.266.195.649.649 0 01.116.421v7.136a1.66 1.66 0 01-1.03.343 1.777 1.777 0 01-1.045-.343 1.031 1.031 0 01-.065-.396V23.02a1.428 1.428 0 00-.279-.862 1.758 1.758 0 00-.856-.59 4.448 4.448 0 00-1.466-.208 5.907 5.907 0 00-1.297.15c-.39.112-.755.297-1.077.544a.947.947 0 00-.454.798.772.772 0 00.272.61.908.908 0 00.435.207c.166 0 .333 0 .344-.195v-.058a1.239 1.239 0 01.81-1.297h.078c.208-.075.428-.108.649-.097.233-.011.462.06.649.2a.96.96 0 01.22.734v.986c-.618.06-1.232.164-1.836.311-.5.114-.969.336-1.375.649a1.42 1.42 0 00-.564 1.18c-.009.321.09.636.279.895.18.235.42.417.694.526.257.108.532.165.81.168.404.004.804-.066 1.181-.207.3-.111.576-.278.813-.492l.115-.112v.35c.025.125.11.23.227.28a9.258 9.258 0 001.7 0h4.611c.062.002.12-.03.15-.085a.26.26 0 00.116-.162c0-.084 0-.142-.045-.168v.013a.285.285 0 00-.169-.052 3.183 3.183 0 01-.37-.059.493.493 0 01-.253-.142.441.441 0 01-.11-.318V18.48a.247.247 0 00-.058-.182zm14.283 3.516c.396.355.597.879.538 1.408v3.243c0 .22.052.363.169.434a.864.864 0 00.35.117h.24c.056 0 .11.02.15.059a.215.215 0 01.045.162.253.253 0 01-.052.162.168.168 0 01-.15.084h-3.242a.162.162 0 01-.15-.084.26.26 0 01-.058-.162.246.246 0 01.039-.156.182.182 0 01.15-.065.98.98 0 00.395-.123.305.305 0 00.175-.26v-3.385a2.029 2.029 0 000-.416.649.649 0 00-.195-.337.688.688 0 00-.48-.15c-.221 0-.441.04-.648.118a2.728 2.728 0 00-.584.292 2.148 2.148 0 00-.415.337v3.366c-.01.125.02.25.084.357.05.077.126.135.214.162.106.03.215.05.325.059a.33.33 0 01.175.052.25.25 0 01.038.168.292.292 0 01-.058.162.162.162 0 01-.143.085h-3.139a.175.175 0 01-.15-.085.298.298 0 01-.051-.162.234.234 0 01.045-.155.22.22 0 01.156-.065c.422-.052.649-.182.649-.383v-3.808a.739.739 0 00-.098-.415.519.519 0 00-.24-.194 1.78 1.78 0 00-.35-.078h-.201a.292.292 0 01-.13-.104.353.353 0 010-.156c0-.058.014-.116.04-.168 0-.059.057-.091.103-.098a46.478 46.478 0 012.53-.084.168.168 0 01.116.059.344.344 0 01.065.181v.649c.15-.16.323-.298.513-.409.276-.171.57-.312.875-.421.304-.11.624-.168.947-.17a2.36 2.36 0 011.408.377zm3.743 2.737a3.743 3.743 0 01.37-1.842 1.296 1.296 0 011.245-.648.902.902 0 01.383.097c.135.064.26.15.37.253a.74.74 0 01.207.292v3.548a.999.999 0 01-.454.409v-.007a1.382 1.382 0 01-.604.15c-1.011 0-1.517-.753-1.517-2.252zm-23.91-.149a4.54 4.54 0 00-.875.214c-.248.09-.463.253-.616.467a1.467 1.467 0 00-.253.908.785.785 0 00.207.558.73.73 0 00.578.234c.374.01.73-.159.96-.454v-1.927zm9.594-1.978c.181-.29.495-.47.837-.48.293.003.553.19.648.467h.02c.171.48.244.99.214 1.498H22.84a2.952 2.952 0 01.428-1.485z" clip-rule="evenodd"/>
</svg>
