<svg xmlns="http://www.w3.org/2000/svg" viewBox="0 0 16 16">
	<g>
		<path d="M1.9375,12.9016554 C0.8690625,12.8313816 0,11.9482435 0,10.8929193 L0,6.19365664 C0,5.09330853 0.9446875,4.22081796 2.075,4.22081796 L4.6875,4.22081796 L4.6875,7.24015858 C4.6875,8.59543943 5.8578125,9.72712176 7.25,9.72712176 L11.25,9.72712176 L11.25,9.8929193 C11.25,10.9932674 10.3125,12.9174746 9.1828125,12.9174746 L4.1875,12.9174746 L2.6375,14.7254284 C2.2525,15.1753634 1.9375,15.059153 1.9375,14.4735378 L1.9375,12.9016554 Z M14.525,1.00001427 C14.9150591,0.997614345 15.2900217,1.1466525 15.5668653,1.41415856 C15.8437089,1.68166462 15.9995921,2.04556773 16,2.42529396 L16,7.27666446 C16,8.06975474 15.3396875,8.72321002 14.525,8.72321002 L14.4028125,8.72321002 L14.410625,10.8432891 C14.4128125,11.4289043 14.098125,11.5384219 13.7115625,11.0897038 L11.6678125,8.72321002 L7.225,8.72321002 C6.4103125,8.72321002 5.75,8.06975474 5.75,7.27666446 L5.75,2.42529396 C5.75040787,2.04556773 5.90629111,1.68166462 6.18313468,1.41415856 C6.45997826,1.1466525 6.83494093,0.997614345 7.225,1.00001427 L14.525,1.00001427 Z"></path>
	</g>
</svg>