<svg xmlns="http://www.w3.org/2000/svg" viewBox="0 0 16 16">
  <g>
    <path d="M8,16 C12.418278,16 16,12.418278 16,8 C16,3.581722 12.418278,0 8,0 C3.581722,0 -4.54747351e-13,3.581722 -4.54747351e-13,8 C-4.54747351e-13,12.418278 3.581722,16 8,16 Z M8,2 C8.41421356,2 8.75,2.33578644 8.75,2.75 L8.749,7.25 L13.25,7.25 C13.6642136,7.25 14,7.58578644 14,8 C14,8.41421356 13.6642136,8.75 13.25,8.75 L8.749,8.75 L8.75,13.25 C8.75,13.6642136 8.41421356,14 8,14 C7.58578644,14 7.25,13.6642136 7.25,13.25 L7.249,8.75 L2.75,8.75 C2.33578644,8.75 2,8.41421356 2,8 C2,7.58578644 2.33578644,7.25 2.75,7.25 L7.249,7.25 L7.25,2.75 C7.25,2.33578644 7.58578644,2 8,2 Z" transform="rotate(-45 8 8)"/>
  </g>
</svg>
