<svg xmlns="http://www.w3.org/2000/svg" viewBox="0 0 16 16">
    <g class="foreground">
        <path d="M8.7998,0 C9.4638,0 9.9998,0.538 9.9998,1.2 L9.999,5.999 L14.8,5.9998 C15.462,5.9998 16,6.5378 16,7.1998 L16,8.7998 C16,9.4638 15.462,9.9998 14.8,9.9998 L9.999,9.999 L9.9998,14.8 C9.9998,15.462 9.4638,16 8.7998,16 L7.1998,16 C6.5378,16 5.9998,15.462 5.9998,14.8 L5.999,9.999 L1.2,9.9998 C0.538,9.9998 0,9.4638 0,8.7998 L0,7.1998 C0,6.5378 0.538,5.9998 1.2,5.9998 L5.999,5.999 L5.9998,1.2 C5.9998,0.538 6.5378,0 7.1998,0 L8.7998,0 Z"/>
    </g>
</svg>
