<svg xmlns="http://www.w3.org/2000/svg" viewBox="0 0 32 32"><path d="M31.18832,25.09391c.06247-.01624.50644-.26434.52568-.26693.0076-.01149.09347-.16.10075-.18052-.00636-.14192-.137-1.10471-.17663-1.2342-.02-.066-.20109-.60814-.20433-.61586-.04346-.10407-.16088-.35645-.1757-.38544a4.87035,4.87035,0,0,0-1.11524-1.24527c-.05882-.04423-.11906-.086-.18078-.12639-.00632-.00414-.01426-.00594-.02062-.01-.01533.06513-.0353.13431-.05688.20829-.01741.05967-.04216.12222-.0648.18529-.00531.01484-.00418.03128-.00979.04626l-.005.01031-.005.01031c-.10623.23339-.81845,1.28035-.82051,1.27763.001-.00149.36789-.61255.38575-.64752a2.94313,2.94313,0,0,0,.19809-.74629c-.00251-.01748-.04026-.52253-.05221-.59954-.0916-.04706-1.25035-.51291-1.42387-.57288-.199-.069-2.9445-.85119-3.12219-.89679-.28877-.07436-2.9989-.81387-3.04714-.82832-.24394-.07307-1.06808-.343-1.20664-.39041-.124-.04257-.68978-.24261-.71287-.25181l-.01031-.005c-.79685-.31769-2.78675-1.24211-2.98039-1.33161-.04551-.021-.0995-.04979-.14431-.07035-.00522-.00237-.0128,0-.018-.00238-.17081-.07873-3.10016-1.28191-3.71008-1.48372a2.2151,2.2151,0,0,1-.41077-.04714,2.67381,2.67381,0,0,0-.65-.11908c-.04553-.00481-.09245-.0003-.13851-.00373-.09313-.00694-.29839-.02236-.308-.02254,0,0-1.47827.157-1.75183.21769-.02963.00652-.71085.14989-.865.178-.005.00091-.338.06087-.51971.08474-.01375.00047-.75358.05542-.80468.05428-.1494-.0023-.35394-.00669-.35394-.00669s-.54426.04695-.55856.04667c-.38506-.2336-4.71872-3.31465-4.71872-3.31465l-2.008-1.02343-.04786.08511s6.126,4.53392,6.39915,4.709c-.00114.01885.00879.25875.01315.28707.00649.04086.10124.34692.10883.3656.02224.05484.361.61214.399.66014.01.01263.134.16369.18948.22631l.01295.01269c.06356.07122.1317.14723.20482.221.092.09288.20513.18941.31318.28661.07767.06988.42548.3694.52251.44606.00709.0056.25931.19933.34887.26574.072.05336,1.46859.99288,1.54141,1.0384.07284.04577,1.07947.62859,1.1582.673,1.53509,1.00809,9.2764,3.98737,9.28222,3.98882.00569.00163,1.7598.389,2.04829.44348.06364.01375.12781.0265.1927.03652.02519.00463.04937.01269.07454.0172.05146.00932.10269.01559.15411.02409.15212.027.50846.09084.52152.09475.17048.04473,1.87044.2563,2.07811.279.10452.0112.859.08381.91381.08823.10818.009.21956.01738.32591.02492.05254.00445.27491.01573.29764.01751l.01031.005c.26377.01613,1.21011.04318,1.216.04414.05554.00908.73869-.00328.92308-.00931-.00308-.00663-.56242-1.10506-.5369-1.11008.0069.00756.94147,1.06486.97015,1.098C29.76411,25.29869,31.18832,25.09391,31.18832,25.09391Zm-2.95688-4.87349.00264.00767Zm-.2341-.082-.005.01023Zm-17.02206.03331-.00236.01783Zm-.4723-.30055.00264.00767Zm6.4225-3.43951-.00767.00264Zm-2.19988-.983.00528.01533Zm-.89817-.31661.01031.005Zm-.10791-.04035.00482-.0099-.005.01031Zm-.0951-.00119.00264.00767Zm.00238-.018.01031.005Zm.01507-.03092.00264.00767Zm-.52945-.11775-.00767.00264Zm-.0516-.02531-.005.01023Zm-.1435.00649.00264.00767Zm-.08723-.00425.00264.00767Zm-.23419-.08226.01023.005Zm-.05162-.02516.01031.005Zm.02274-.03357.00528.01533Zm-.51609-.02821.00264.00767Zm-.04864.00818.00264.00767Zm-.00793-.023.00264.00767Zm-.17923.02745-.00767.00264Zm-.19971-.0083.01023.005ZM6.03978,6.80005l.908,6.10584H5.32523L5.23995,11.8086H4.67205L4.57636,12.9059H2.93508L3.7448,6.80005Zm-.84144,3.92582q-.12091-1.03749-.24182-2.56434-.2426,1.75359-.30475,2.56434Zm5.34144-.935H9.10288V9.21358A1.13163,1.13163,0,0,0,9.054,8.8043a.18075.18075,0,0,0-.181-.10713.17721.17721,0,0,0-.17734.09413,1.20708,1.20708,0,0,0-.04524.42228v2.361a.91908.91908,0,0,0,.06813.40147.21487.21487,0,0,0,.1997.13417.20583.20583,0,0,0,.20906-.13989,1.67459,1.67459,0,0,0,.05513-.52785v-.596h1.35733a7.74042,7.74042,0,0,1-.04316.89968,1.4462,1.4462,0,0,1-.25274.61469,1.35058,1.35058,0,0,1-.55645.47532,2.00372,2.00372,0,0,1-.8482.16017,2.023,2.023,0,0,1-1.02242-.2205,1.216,1.216,0,0,1-.53357-.61885,3.19911,3.19911,0,0,1-.15654-1.12954V9.60569a2.743,2.743,0,0,1,.12845-.96156,1.245,1.245,0,0,1,.54657-.57881A1.923,1.923,0,0,1,8.82,7.8105a1.9473,1.9473,0,0,1,1.01826.25274,1.2403,1.2403,0,0,1,.56217.63757A3.3302,3.3302,0,0,1,10.53978,9.79083ZM12.5997,7.23377v.78787h.41084v.792H12.5997v2.67771a1.42989,1.42989,0,0,0,.051.55073q.0507.05694.42384.05668v.80711h-.6147a4.42921,4.42921,0,0,1-.74263-.04316.79346.79346,0,0,1-.39264-.20022.66353.66353,0,0,1-.21114-.35831,6.35318,6.35318,0,0,1-.0416-.94856v-2.542h-.32763v-.792h.32763V7.23377ZM14.915,6.80005v.79567H13.346V6.80005Zm0,1.10093V12.9059H13.346V7.901Zm3.70016,0-.713,5.00491H15.91086L15.14534,7.901H16.5058l.429,3.65487q.0507-.40329.17162-1.96421.06553-.87211.14821-1.69067Zm3.67312,2.59138H20.31568v1.08221a1.199,1.199,0,0,0,.04888.43736.19076.19076,0,0,0,.18878.09829.22946.22946,0,0,0,.23194-.13,1.42673,1.42673,0,0,0,.05825-.50392v-.65994h1.4447v.36975a3.3451,3.3451,0,0,1-.05825.713,1.45336,1.45336,0,0,1-.27355.53149,1.33019,1.33019,0,0,1-.545.42436,2.11311,2.11311,0,0,1-.82792.14145,2.40327,2.40327,0,0,1-.85236-.13937,1.36681,1.36681,0,0,1-.57518-.38275,1.38363,1.38363,0,0,1-.285-.53565,3.47517,3.47517,0,0,1-.079-.85079V9.62857a2.48847,2.48847,0,0,1,.17734-1.03541,1.21618,1.21618,0,0,1,.5809-.58089,2.05178,2.05178,0,0,1,.92777-.20178,2.07312,2.07312,0,0,1,1.05778.24338,1.33816,1.33816,0,0,1,.58454.64486,3.02476,3.02476,0,0,1,.168,1.12954Zm-1.52739-.81491V9.31187a1.84822,1.84822,0,0,0-.0416-.50184.16361.16361,0,0,0-.16954-.11285c-.10557,0-.1711.03172-.19606.09569a1.98662,1.98662,0,0,0-.038.519v.36559Zm6.96971-2.87741V12.9059h-1.388L26.34047,8.7835l-.55229,4.12239h-.98446l-.58246-4.02775-.00208,4.02775h-1.388V6.80005h2.05472q.09127.55073.18826,1.298l.2257,1.55285.36456-2.85088Zm4.26961,6.10584v.739H30.80094a1.94663,1.94663,0,0,1-.61106-.06657.40731.40731,0,0,1-.23974-.19866,1.24636,1.24636,0,0,1-.06189-.47376,1.679,1.679,0,0,1-.92777-.2829,1.25659,1.25659,0,0,1-.51329-.68074,4.5891,4.5891,0,0,1-.12429-1.23511V8.81783a4.57568,4.57568,0,0,1,.07385-.94856,1.50981,1.50981,0,0,1,.30319-.61469,1.42851,1.42851,0,0,1,.59234-.4358,2.1114,2.1114,0,0,1,.80348-.14717,2.36289,2.36289,0,0,1,.94857.181,1.42572,1.42572,0,0,1,.88981,1.039,4.71405,4.71405,0,0,1,.06241.89136v1.98345a5.01683,5.01683,0,0,1-.079,1.10457.84541.84541,0,0,1-.30371.4618,1.59654,1.59654,0,0,1-.59806.2621c.0078.13625.03588.22258.08477.25794a.71012.71012,0,0,0,.349.053ZM30.40882,8.369a1.896,1.896,0,0,0-.04732-.545.18786.18786,0,0,0-.1945-.11909.21755.21755,0,0,0-.19034.09621,1.36835,1.36835,0,0,0-.066.56789v2.85088a2.78215,2.78215,0,0,0,.04368.6563.18856.18856,0,0,0,.20178.12429.195.195,0,0,0,.2075-.143,3.02255,3.02255,0,0,0,.04524-.68282Z"/></svg>
