<svg xmlns="http://www.w3.org/2000/svg" viewBox="0 0 32 32">
	<path d="M31.188 25.094c.063-.016.507-.264.526-.267.008-.012.093-.16.1-.18-.006-.142-.136-1.105-.176-1.235-.02-.066-.201-.608-.204-.616a12.175 12.175 0 0 0-.176-.385 4.87 4.87 0 0 0-1.115-1.245 3.374 3.374 0 0 0-.18-.127l-.022-.01a4.198 4.198 0 0 1-.056.209c-.018.06-.043.122-.065.185-.006.015-.004.031-.01.046l-.005.01-.005.01c-.106.234-.818 1.281-.82 1.278 0-.001.367-.612.385-.647a2.943 2.943 0 0 0 .198-.746c-.002-.018-.04-.523-.052-.6a42.151 42.151 0 0 0-1.424-.573c-.199-.069-2.944-.851-3.122-.897-.289-.074-2.999-.814-3.047-.828a66.526 66.526 0 0 1-1.207-.39 87.84 87.84 0 0 1-.713-.252l-.01-.005c-.797-.318-2.787-1.242-2.98-1.332-.046-.02-.1-.05-.145-.07-.005-.003-.012 0-.018-.003-.17-.078-3.1-1.281-3.71-1.483a2.215 2.215 0 0 1-.41-.047 2.674 2.674 0 0 0-.65-.12c-.046-.004-.093 0-.139-.003l-.308-.023s-1.478.157-1.752.218c-.03.006-.71.15-.865.178-.005 0-.338.06-.52.085-.013 0-.753.055-.804.054l-.354-.007s-.544.047-.559.047c-.385-.234-4.718-3.315-4.718-3.315L.048 10.985 0 11.07s6.126 4.534 6.399 4.709c-.001.019.009.259.013.287.007.04.101.347.109.366.022.055.36.612.399.66.01.012.134.163.19.226l.012.013c.064.071.132.147.205.22.092.094.205.19.313.287.078.07.426.37.523.446.007.006.26.2.349.266.072.054 1.468.993 1.541 1.039.073.045 1.08.628 1.158.673 1.535 1.008 9.277 3.987 9.282 3.988.006.002 1.76.39 2.049.444.063.014.128.026.192.036.026.005.05.013.075.018.051.009.103.015.154.024.152.027.509.09.522.094.17.045 1.87.257 2.078.28l.914.088.325.025.298.017.01.005c.264.016 1.21.043 1.216.044.056.01.74-.003.924-.009-.004-.007-.563-1.105-.537-1.11l.97 1.098c.081-.005 1.505-.21 1.505-.21zm-2.957-4.874l.003.008zm-.234-.082l-.005.01zm-17.022.034l-.002.018zm-.472-.3l.003.007zm6.422-3.44l-.007.002zm-2.2-.983l.006.015zm-.898-.317l.01.005zm-.107-.04l.004-.01-.005.01zm-.096-.001l.003.007zm.003-.018l.01.005zm.015-.031l.003.007zm-.53-.118l-.007.002zm-.051-.025l-.005.01zm-.144.006l.003.008zm-.087-.004l.003.007zm-.234-.082l.01.005zm-.052-.026l.01.005zm.023-.033l.005.015zm-.516-.028l.003.007zm-.049.008l.003.007zm-.008-.023l.003.007zm-.179.027l-.008.003zm-.2-.008l.01.005zM6.04 6.8l.908 6.106H5.325l-.085-1.097h-.568l-.096 1.097h-1.64L3.744 6.8zm-.842 3.926q-.12-1.038-.241-2.564-.243 1.753-.305 2.564zm5.342-.935H9.103v-.577a1.132 1.132 0 0 0-.049-.41.18.18 0 0 0-.181-.107.177.177 0 0 0-.177.094 1.207 1.207 0 0 0-.046.423v2.36a.92.92 0 0 0 .069.402.215.215 0 0 0 .2.134.206.206 0 0 0 .208-.14 1.675 1.675 0 0 0 .055-.528v-.596h1.358a7.74 7.74 0 0 1-.043.9 1.446 1.446 0 0 1-.253.615 1.35 1.35 0 0 1-.557.475 2.004 2.004 0 0 1-.848.16 2.023 2.023 0 0 1-1.022-.22 1.216 1.216 0 0 1-.534-.619 3.2 3.2 0 0 1-.156-1.13V9.606a2.743 2.743 0 0 1 .128-.962 1.245 1.245 0 0 1 .547-.579 1.923 1.923 0 0 1 1.018-.254 1.947 1.947 0 0 1 1.018.252 1.24 1.24 0 0 1 .562.638 3.33 3.33 0 0 1 .14 1.09zm2.06-2.557v.788h.41v.792h-.41v2.677a1.43 1.43 0 0 0 .05.551q.051.057.425.057v.807h-.615a4.43 4.43 0 0 1-.743-.043.793.793 0 0 1-.392-.2.664.664 0 0 1-.212-.359 6.353 6.353 0 0 1-.041-.948V8.814h-.328v-.792h.328v-.788zm2.315-.434v.796h-1.569V6.8zm0 1.101v5.005h-1.569V7.9zm3.7 0l-.713 5.005h-1.991L15.145 7.9h1.36l.43 3.655q.05-.403.171-1.964.066-.872.149-1.691zm3.673 2.591h-1.972v1.083a1.199 1.199 0 0 0 .049.437.19.19 0 0 0 .188.098.23.23 0 0 0 .232-.13 1.427 1.427 0 0 0 .059-.504v-.66h1.444v.37a3.345 3.345 0 0 1-.058.713 1.453 1.453 0 0 1-.274.532 1.33 1.33 0 0 1-.545.424 2.113 2.113 0 0 1-.827.141 2.403 2.403 0 0 1-.853-.139 1.367 1.367 0 0 1-.575-.383 1.384 1.384 0 0 1-.285-.535 3.475 3.475 0 0 1-.079-.851v-1.46a2.488 2.488 0 0 1 .177-1.035 1.216 1.216 0 0 1 .581-.58 2.052 2.052 0 0 1 .928-.203 2.073 2.073 0 0 1 1.058.244 1.338 1.338 0 0 1 .584.645 3.025 3.025 0 0 1 .168 1.13zm-1.527-.815v-.365a1.848 1.848 0 0 0-.042-.502.164.164 0 0 0-.17-.113c-.105 0-.17.032-.195.096a1.987 1.987 0 0 0-.038.519v.365zM27.73 6.8v6.106h-1.388l-.003-4.123-.552 4.123h-.984l-.583-4.028-.002 4.028H22.83V6.8h2.055q.091.55.188 1.298l.226 1.553.364-2.851zM32 12.906v.739h-1.2a1.947 1.947 0 0 1-.611-.067.407.407 0 0 1-.24-.198 1.246 1.246 0 0 1-.062-.474 1.679 1.679 0 0 1-.928-.283 1.257 1.257 0 0 1-.513-.68 4.59 4.59 0 0 1-.124-1.236v-1.89a4.576 4.576 0 0 1 .074-.948 1.51 1.51 0 0 1 .303-.614 1.429 1.429 0 0 1 .592-.436 2.111 2.111 0 0 1 .804-.147 2.363 2.363 0 0 1 .948.18 1.426 1.426 0 0 1 .89 1.04 4.714 4.714 0 0 1 .063.891v1.983a5.017 5.017 0 0 1-.08 1.105.845.845 0 0 1-.303.462 1.597 1.597 0 0 1-.598.262c.008.136.036.222.085.258a.71.71 0 0 0 .349.053zm-1.592-4.537a1.896 1.896 0 0 0-.048-.545.188.188 0 0 0-.194-.12.218.218 0 0 0-.19.097 1.368 1.368 0 0 0-.066.568v2.85a2.782 2.782 0 0 0 .043.657.189.189 0 0 0 .202.124.195.195 0 0 0 .208-.143 3.023 3.023 0 0 0 .045-.682z"/>
</svg>
