<svg xmlns="http://www.w3.org/2000/svg" viewBox="0 0 16 16">
  <g fill="none" fill-rule="evenodd">
    <g class="aggregate-blocks-light-color" fill="#BCBCBC" transform="translate(0 5)">
      <polygon fill-rule="nonzero" points="2.209 10.998 6.975 10.998 6.975 6.231 2.209 6.231"/>
      <polygon fill-rule="nonzero" points="11.166 8.169 15.933 8.169 15.933 3.403 11.166 3.403"/>
      <polygon fill-rule="nonzero" points="0 5.409 4.766 5.409 4.766 .643 0 .643"/>
    </g>
    <g class="aggregate-blocks-dark-color" fill="#515151" transform="translate(1)">
      <polygon fill-rule="nonzero" points="8.981 4.766 13.747 4.766 13.747 0 8.981 0"/>
      <polygon fill-rule="nonzero" points=".188 4.778 4.954 4.778 4.954 .012 .188 .012"/>
    </g>
    <g class="aggregate-borders" fill="#000" transform="translate(1)">
      <path d="M1.209 15.9982L5.975 15.9982 5.975 11.2312 1.209 11.2312 1.209 15.9982zM1.686 15.5212L5.498 15.5212 5.498 11.7092 1.686 11.7092 1.686 15.5212zM10.166 13.1692L14.933 13.1692 14.933 8.4032 10.166 8.4032 10.166 13.1692zM10.643 12.6932L14.456 12.6932 14.456 8.8812 10.643 8.8812 10.643 12.6932z"/>
      <path d="M11.194 12.1492L13.923 12.1492 13.923 9.4202 11.194 9.4202 11.194 12.1492zM11.694 11.6492L13.423 11.6492 13.423 9.9202 11.694 9.9202 11.694 11.6492zM.027 9.3882L2.756 9.3882 2.756 6.6592.027 6.6592.027 9.3882zM.527 8.8882L2.256 8.8882 2.256 7.1592.527 7.1592.527 8.8882zM8.981 4.7662L13.747 4.7662 13.747.0002 8.981.0002 8.981 4.7662zM9.458 4.2892L13.27 4.2892 13.27.4772 9.458.4772 9.458 4.2892zM.188 4.7782L4.954 4.7782 4.954.0122.188.0122.188 4.7782zM.665 4.3012L4.477 4.3012 4.477.4892.665.4892.665 4.3012z"/>
    </g>
    <g class="aggregate-arrow" fill="#000">
    <path d="M7.3576,9.657 C7.2516,9.657 7.1456,9.615 7.0646,9.53 C6.9026,9.36 6.9026,9.084 7.0646,8.914 L7.9436,7.991 L7.0646,7.067 C6.9026,6.897 6.9026,6.622 7.0646,6.451 C7.2266,6.281 7.4886,6.281 7.6506,6.451 L8.8216,7.682 C8.9836,7.853 8.9836,8.129 8.8216,8.299 L7.6506,9.53 C7.5696,9.615 7.4636,9.657 7.3576,9.657"/>
    </g>
  </g>
</svg>
