<svg xmlns="http://www.w3.org/2000/svg" viewBox="0 0 32 32"><path d="M28.93543,1.85774c-.02016.05024-.68606,1.661-.69108,1.67261-.03182.00441.17935-1.5034.18028-1.51239-.21776.06715-1.02049.32761-1.0817.36057-.00647.00348-1.1007.41587-1.40223.54085-.00411.0017-.00591.00832-.01.01-.02583.01123-.281.11388-.34053.14022-.12116.05161-.24786.10619-.37056.16025-.06219.0272-.91408.4156-1.03162.47074-.23338.11-2.13343,1.04115-2.31451,1.162-.01368.00982-.40411.2278-.5709.3205-.05662.03061-.11392.05855-.17027.09014-.02758.01539-.05257.03454-.08013.05008-.07174.03782-.14154.07853-.21033.12019-.315.17968-2.2075,1.33791-2.21349,1.34211-.00621.004-7.84747,6.59827-9.23446,8.39322-.07408.08353-1.01507,1.1692-1.08171,1.252-.06672.08247-1.31955,1.74161-1.38217,1.83289-.07787.11358-.29444.44131-.30047.45071-.08246.12857-.3681.61831-.43068.73116-.08706.157-.18031.31523-.25039.46072-.05568.11561-.10467.23178-.15024.34053l-.01.02c-.03963.09547-.1236.32176-.1302.34053-.02509.07135-.19641.85848-.20031.93146-.00135.02487.01117.42041.02.47074.0063.03483.09124.319.10016.34053C5.32937,22.66452,0,30.42425,0,30.42425l.09014.08013,1.933-2.00314s3.82094-5.34185,4.1766-5.7696c.01659-.00608.67105-.17027.67105-.17027s.23709-.08744.41063-.15024c.05921-.02189.94528-.25543.96152-.26041.22178-.04524.63475-.10921.641-.11017.19128-.02922,1.04449-.13592,1.08171-.14022.34387-.03923,2.13335-.45071,2.13335-.45071.01109-.00405.24459-.10466.35055-.15024.05241-.02254.109-.03615.16025-.06009a3.30255,3.30255,0,0,0,.71112-.40061,2.736,2.736,0,0,1,.46072-.22035c.631-.48111,3.56771-3.06492,3.73549-3.22559.00508-.00487.01489-.00515.02-.01.04407-.042.09553-.09736.14022-.14022.19011-.18244,2.14189-2.06269,2.94459-2.75434l.01-.01c.02327-.02.60349-.48131.73115-.58091.14273-.11111.99651-.758,1.252-.94146.05051-.03629,2.91776-1.99042,3.22506-2.19346.18915-.12476,3.08058-2.143,3.28516-2.30362.1785-.13985,1.3442-1.15015,1.43223-1.242-.017-.09474-.17618-.69972-.18028-.72115a3.63531,3.63531,0,0,0-.53164-.7918c-.03494-.03365-.70927-.59961-.711-.60094.00131-.004,1.25432.932,1.47229,1.16184l.01.01.01.01c.01258.01523.01788.03488.03.05008.05182.06454.10589.12762.15024.1903.055.0777.10613.15045.15024.22035.00576-.00736.01431-.01266.02-.02.05584-.072.10936-.145.16025-.22035a6.01571,6.01571,0,0,0,.80126-1.903c.00564-.03982.0412-.3818.05008-.52082.00067-.01032-.006-.71632-.00921-.80142-.00577-.16717-.2407-1.34406-.29038-1.51236-.01678-.02107-.17679-.15991-.1903-.17027-.02351.00471-.64181-.10637-.72129-.10019C30.77793,1.497,29.03237,1.831,28.93543,1.85774ZM29.286,8.36806v0Zm-.25031.19006.00994.00994ZM9.14435,15.35887l.00994.01987Zm-.42066.55088v0ZM17.59778,17.352h0Zm-2.1634,2.01314v0Zm-.91145.74116-.01.01Zm-.12019.10016.01.01-.00961-.00961Zm-.11017.03v0Zm.02.02-.01.01Zm.02.03v0Zm-.58091.36057h0Zm-.05.04038.00994.00994Zm-.16025.05008v0Zm-.10016.04006v0Zm-.23044.19038-.00994.00994Zm-.05008.05008-.01.01Zm.03.02v0Zm-.59133.25063v0Zm-.06009.01v0Zm0,.03v0Zm-.23036.05008h0Zm-.20993.08013-.00994.00994Z"/></svg>
