<svg xmlns="http://www.w3.org/2000/svg" viewBox="0 0 16 16">
	<path fill="#6664D1" d="M15.9775,7.9888 C15.9775,12.4008 12.4005,15.9778 7.9885,15.9778 C3.5765,15.9778 -0.0005,12.4008 -0.0005,7.9888 C-0.0005,3.5768 3.5765,-0.0002 7.9885,-0.0002 C12.4005,-0.0002 15.9775,3.5768 15.9775,7.9888"/>
	<path fill="#FFF" d="M6.7388 6.9527C6.2078 8.4697 5.2358 11.2967 5.2358 11.2967 5.2358 11.2967 6.7278 9.5817 7.8048 8.3347 7.1958 7.6277 6.8758 7.2477 6.8488 7.2027 6.8028 7.1227 6.7678 7.0387 6.7388 6.9527M7.9888 7.0987C7.7188 7.0987 7.5008 6.8807 7.5008 6.6107 7.5008 6.3417 7.7188 6.1227 7.9888 6.1227 8.2588 6.1227 8.4768 6.3417 8.4768 6.6107 8.4768 6.8807 8.2588 7.0987 7.9888 7.0987M8.9028 6.0187C8.7628 5.7777 8.5418 5.6157 8.2938 5.5417L8.2938 4.7377C8.2938 4.5697 8.1578 4.4327 7.9888 4.4327 7.8208 4.4327 7.6838 4.5697 7.6838 4.7377L7.6838 5.5447C7.6128 5.5677 7.5418 5.5967 7.4738 5.6367 6.9738 5.9247 6.8028 6.5647 7.0918 7.0637 7.1558 7.1767 10.7418 11.2967 10.7418 11.2967 10.7418 11.2967 8.9678 6.1317 8.9028 6.0187M14.0659 7.2398C13.6329 7.2398 13.2819 7.5908 13.2819 8.0238 13.2819 8.4568 13.6329 8.8068 14.0659 8.8068 14.4989 8.8068 14.8489 8.4568 14.8489 8.0238 14.8489 7.5908 14.4989 7.2398 14.0659 7.2398M2.7856 7.9947C2.7856 7.5617 2.4346 7.2117 2.0016 7.2117 1.5686 7.2117 1.2186 7.5617 1.2186 7.9947 1.2186 8.4277 1.5686 8.7787 2.0016 8.7787 2.4346 8.7787 2.7856 8.4277 2.7856 7.9947"/>
	<path fill="#FFF" d="M2.1606 5.9512C2.2726 5.9512 2.3696 5.8842 2.4126 5.7872L2.4126 5.7882C2.4136 5.7872 2.4136 5.7862 2.4136 5.7862 2.4146 5.7832 2.4166 5.7802 2.4176 5.7772 3.3136 3.5422 5.5086 1.9692 8.0226 1.9632L8.0226 2.7512 8.8896 2.0262C11.0206 2.3262 12.8286 3.7302 13.6376 5.7192 13.6846 5.8452 13.7796 5.9472 13.9166 5.9472 14.0706 5.9472 14.1946 5.8232 14.1946 5.6692 14.1946 5.6172 14.1576 5.5242 14.1576 5.5242 13.2776 3.3462 11.2996 1.8062 8.9686 1.4772L8.0226.6862 8.0226 1.4092C5.2806 1.4142 2.8936 3.1202 1.9116 5.5512L1.9126 5.5522C1.8946 5.5882 1.8836 5.6302 1.8836 5.6742 1.8836 5.8262 2.0076 5.9512 2.1606 5.9512M13.9219 10.0811C13.8099 10.0811 13.7139 10.1481 13.6699 10.2451 13.6699 10.2451 13.6689 10.2461 13.6689 10.2471 13.6679 10.2491 13.6669 10.2521 13.6649 10.2551 12.7669 12.4961 10.5639 14.0721 8.0429 14.0701 8.0379 14.0701 8.0329 14.0691 8.0279 14.0691L8.0279 13.1761 7.0599 13.9861C4.9869 13.6461 3.2369 12.2601 2.4449 10.3131 2.3979 10.1871 2.3029 10.0851 2.1659 10.0851 2.0119 10.0851 1.8879 10.2091 1.8879 10.3631 1.8879 10.4151 1.9249 10.5081 1.9249 10.5081 2.8179 12.7181 4.8419 14.2651 7.2169 14.5621L8.0279 15.2411 8.0279 14.6241C8.0329 14.6241 8.0379 14.6251 8.0429 14.6251 10.7929 14.6271 13.1869 12.9171 14.1719 10.4811L14.1699 10.4811C14.1879 10.4441 14.1989 10.4031 14.1989 10.3581 14.1989 10.2061 14.0749 10.0811 13.9219 10.0811"/>
</svg>
