<svg xmlns="http://www.w3.org/2000/svg" viewBox="0 0 16 16">
	<path d="M14.0301,8.8083 C13.5971,8.8083 13.2471,8.4573 13.2471,8.0243 C13.2471,7.5923 13.5971,7.2413 14.0301,7.2413 C14.4631,7.2413 14.8141,7.5923 14.8141,8.0243 C14.8141,8.4573 14.4631,8.8083 14.0301,8.8083 Z M14.1351,10.4823 C13.1511,12.9183 10.7571,14.6283 8.0071,14.6263 C8.0021,14.6263 7.9971,14.6253 7.9921,14.6253 L7.9921,15.2423 L7.1811,14.5633 C4.8061,14.2663 2.7821,12.7203 1.8891,10.5093 C1.8891,10.5093 1.8521,10.4163 1.8521,10.3643 C1.8521,10.2103 1.9771,10.0863 2.1301,10.0863 C2.2671,10.0863 2.3621,10.1883 2.4091,10.3143 C3.2011,12.2613 4.9511,13.6483 7.0241,13.9873 L7.9921,13.1773 L7.9921,14.0703 C7.9971,14.0703 8.0021,14.0723 8.0071,14.0723 C10.5291,14.0733 12.7311,12.4963 13.6301,10.2563 C13.6311,10.2533 13.6321,10.2503 13.6331,10.2473 C13.6341,10.2463 13.6341,10.2463 13.6341,10.2453 C13.6771,10.1493 13.7741,10.0823 13.8861,10.0823 C14.0401,10.0823 14.1641,10.2063 14.1641,10.3593 C14.1631,10.4043 14.1521,10.4453 14.1341,10.4823 L14.1351,10.4823 Z M1.1831,7.9963 C1.1831,7.5633 1.5331,7.2123 1.9671,7.2123 C2.3991,7.2123 2.7501,7.5633 2.7501,7.9963 C2.7501,8.4293 2.3991,8.7803 1.9671,8.7803 C1.5331,8.7803 1.1831,8.4293 1.1831,7.9963 Z M11.3731,6.3793 L11.3701,6.3823 L7.2681,10.4503 L7.2681,10.4513 C7.1651,10.5523 6.9991,10.5523 6.8961,10.4513 L6.8131,10.3683 L6.7251,10.2803 L6.3371,9.8953 C6.3351,9.8943 6.3371,9.8923 6.3351,9.8913 L4.5571,8.1153 C4.4541,8.0133 4.4541,7.8483 4.5551,7.7463 C4.5561,7.7453 4.5561,7.7453 4.5571,7.7453 L5.1161,7.1903 C5.2191,7.0883 5.3851,7.0883 5.4891,7.1903 L7.0831,8.7843 L10.4391,5.4573 C10.5411,5.3553 10.7081,5.3553 10.8111,5.4573 L11.3701,6.0123 C11.4721,6.1133 11.4741,6.2773 11.3731,6.3793 Z M1.8761,5.5523 C2.8581,3.1213 5.2451,1.4153 7.9871,1.4103 L7.9871,0.6873 L8.9331,1.4793 C11.2641,1.8083 13.2411,3.3473 14.1221,5.5253 C14.1221,5.5253 14.1591,5.6183 14.1591,5.6703 C14.1591,5.8243 14.0351,5.9483 13.8821,5.9483 C13.7441,5.9483 13.6501,5.8463 13.6021,5.7203 C12.7931,3.7313 10.9851,2.3283 8.8541,2.0273 L7.9871,2.7523 L7.9871,1.9643 C5.4731,1.9703 3.2791,3.5433 2.3821,5.7793 C2.3811,5.7813 2.3801,5.7843 2.3781,5.7873 C2.3781,5.7873 2.3781,5.7883 2.3781,5.7893 L2.3771,5.7893 C2.3341,5.8853 2.2381,5.9523 2.1251,5.9523 C1.9721,5.9523 1.8481,5.8283 1.8481,5.6753 C1.8481,5.6313 1.8591,5.5903 1.8781,5.5533 L1.8761,5.5523 Z M7.9881,-0.0007 C3.5761,-0.0007 0.0001,3.5773 0.0001,7.9893 C0.0001,12.4013 3.5761,15.9773 7.9881,15.9773 C12.4011,15.9773 15.9771,12.4013 15.9771,7.9893 C15.9771,3.5773 12.4011,-0.0007 7.9881,-0.0007 Z"/>
</svg>
