<svg xmlns="http://www.w3.org/2000/svg" viewBox="0 0 16 16">
	<g fill="none" fill-rule="evenodd">
		<path fill="#6664D1" d="M16,7.989 C16,12.401 12.423,15.978 8.011,15.978 C3.599,15.978 0.022,12.401 0.022,7.989 C0.022,3.577 3.599,0 8.011,0 C12.423,0 16,3.577 16,7.989"/>
		<path fill="#FFF" d="M14.0527 7.2414C13.6197 7.2414 13.2697 7.5924 13.2697 8.0254 13.2697 8.4574 13.6197 8.8084 14.0527 8.8084 14.4857 8.8084 14.8367 8.4574 14.8367 8.0254 14.8367 7.5924 14.4857 7.2414 14.0527 7.2414M2.7724 7.9963C2.7724 7.5633 2.4214 7.2123 1.9894 7.2123 1.5564 7.2123 1.2054 7.5633 1.2054 7.9963 1.2054 8.4293 1.5564 8.7803 1.9894 8.7803 2.4214 8.7803 2.7724 8.4293 2.7724 7.9963M2.1479 5.9524C2.2599 5.9524 2.3559 5.8854 2.3999 5.7894 2.3999 5.7884 2.4009 5.7884 2.4009 5.7874 2.4019 5.7844 2.4029 5.7824 2.4049 5.7794 3.3009 3.5434 5.4959 1.9704 8.0099 1.9644L8.0099 2.7534 8.8769 2.0274C11.0069 2.3274 12.8159 3.7314 13.6249 5.7204 13.6719 5.8464 13.7669 5.9484 13.9039 5.9484 14.0579 5.9484 14.1819 5.8244 14.1819 5.6714 14.1819 5.6184 14.1449 5.5264 14.1449 5.5264 13.2639 3.3474 11.2869 1.8074 8.9559 1.4794L8.0099.6884 8.0099 1.4104C5.2679 1.4154 2.8809 3.1214 1.8979 5.5524L1.8999 5.5534C1.8819 5.5904 1.8709 5.6314 1.8709 5.6754 1.8709 5.8284 1.9949 5.9524 2.1479 5.9524M13.9092 10.0827C13.7972 10.0827 13.7002 10.1497 13.6572 10.2457 13.6562 10.2467 13.6562 10.2477 13.6562 10.2477 13.6552 10.2507 13.6532 10.2527 13.6522 10.2557 12.7542 12.4967 10.5512 14.0737 8.0302 14.0717 8.0252 14.0717 8.0202 14.0707 8.0152 14.0707L8.0152 13.1777 7.0472 13.9877C4.9742 13.6477 3.2242 12.2617 2.4322 10.3147 2.3842 10.1887 2.2902 10.0867 2.1532 10.0867 1.9992 10.0867 1.8752 10.2107 1.8752 10.3647 1.8752 10.4167 1.9122 10.5097 1.9122 10.5097 2.8052 12.7197 4.8292 14.2667 7.2042 14.5637L8.0152 15.2427 8.0152 14.6247C8.0202 14.6247 8.0242 14.6267 8.0292 14.6267 10.7792 14.6277 13.1742 12.9187 14.1582 10.4827L14.1572 10.4817C14.1752 10.4447 14.1862 10.4037 14.1862 10.3597 14.1862 10.2067 14.0622 10.0827 13.9092 10.0827"/>
		<path fill="#FFF" d="M10.4614,5.4582 L7.1064,8.7842 L5.5114,7.1902 C5.4084,7.0882 5.2424,7.0882 5.1384,7.1902 L4.5794,7.7452 L4.5784,7.7462 C4.4774,7.8482 4.4774,8.0132 4.5794,8.1152 L6.3574,9.8912 C6.3594,9.8922 6.3574,9.8942 6.3594,9.8952 L6.7474,10.2802 L6.8364,10.3682 L6.9184,10.4512 C7.0224,10.5532 7.1884,10.5532 7.2914,10.4512 L7.2914,10.4502 L11.3934,6.3822 C11.3944,6.3812 11.3954,6.3812 11.3964,6.3802 C11.4964,6.2772 11.4954,6.1132 11.3934,6.0132 L10.8344,5.4582 C10.7314,5.3562 10.5634,5.3562 10.4614,5.4582"/>
	</g>
</svg>
