<svg xmlns="http://www.w3.org/2000/svg" viewBox="0 0 16 16">
	<path d="M14.0659,8.8075 C13.6329,8.8075 13.2819,8.4565 13.2819,8.0235 C13.2819,7.5905 13.6329,7.2405 14.0659,7.2405 C14.4989,7.2405 14.8489,7.5905 14.8489,8.0235 C14.8489,8.4565 14.4989,8.8075 14.0659,8.8075 Z M14.1709,10.4815 C13.1869,12.9175 10.7929,14.6265 8.0429,14.6255 C8.0379,14.6255 8.0329,14.6245 8.0279,14.6245 L8.0279,15.2415 L7.2169,14.5625 C4.8419,14.2655 2.8179,12.7185 1.9249,10.5085 C1.9249,10.5085 1.8879,10.4155 1.8879,10.3635 C1.8879,10.2095 2.0119,10.0855 2.1659,10.0855 C2.3029,10.0855 2.3979,10.1875 2.4449,10.3135 C3.2369,12.2605 4.9869,13.6465 7.0599,13.9865 L8.0279,13.1765 L8.0279,14.0695 C8.0329,14.0695 8.0379,14.0705 8.0429,14.0705 C10.5639,14.0725 12.7669,12.4955 13.6649,10.2545 C13.6669,10.2515 13.6679,10.2495 13.6689,10.2465 C13.6689,10.2455 13.6699,10.2445 13.6699,10.2445 C13.7129,10.1485 13.8099,10.0815 13.9219,10.0815 C14.0749,10.0815 14.1989,10.2055 14.1989,10.3585 C14.1989,10.4025 14.1879,10.4435 14.1699,10.4805 L14.1709,10.4815 Z M1.2179,7.9955 C1.2179,7.5625 1.5689,7.2115 2.0019,7.2115 C2.4349,7.2115 2.7859,7.5625 2.7859,7.9955 C2.7859,8.4275 2.4349,8.7785 2.0019,8.7785 C1.5689,8.7785 1.2179,8.4275 1.2179,7.9955 Z M7.8049,8.3345 C6.7279,9.5815 5.2349,11.2965 5.2349,11.2965 C5.2349,11.2965 6.2079,8.4695 6.7389,6.9525 C6.7679,7.0385 6.8029,7.1225 6.8489,7.2035 C6.8759,7.2475 7.1959,7.6275 7.8049,8.3345 Z M7.0909,7.0635 C6.8019,6.5645 6.9739,5.9245 7.4739,5.6365 C7.5419,5.5965 7.6119,5.5675 7.6839,5.5455 L7.6839,4.7385 C7.6839,4.5705 7.8199,4.4335 7.9889,4.4335 C8.1579,4.4335 8.2939,4.5705 8.2939,4.7385 L8.2939,5.5415 C8.5419,5.6155 8.7629,5.7775 8.9019,6.0185 C8.9669,6.1315 10.7419,11.2965 10.7419,11.2965 C10.7419,11.2965 7.1559,7.1765 7.0909,7.0635 Z M1.9119,5.5515 C2.8939,3.1205 5.2799,1.4145 8.0229,1.4085 L8.0229,0.6865 L8.9689,1.4775 C11.2999,1.8065 13.2769,3.3455 14.1579,5.5245 C14.1579,5.5245 14.1949,5.6175 14.1949,5.6695 C14.1949,5.8235 14.0699,5.9475 13.9169,5.9475 C13.7799,5.9475 13.6849,5.8455 13.6379,5.7195 C12.8289,3.7305 11.0209,2.3265 8.8899,2.0265 L8.0229,2.7515 L8.0229,1.9635 C5.5079,1.9695 3.3139,3.5425 2.4179,5.7775 C2.4169,5.7805 2.4149,5.7835 2.4139,5.7865 C2.4139,5.7865 2.4139,5.7875 2.4129,5.7875 C2.3699,5.8845 2.2729,5.9515 2.1609,5.9515 C2.0069,5.9515 1.8829,5.8275 1.8829,5.6735 C1.8829,5.6295 1.8949,5.5885 1.9129,5.5515 L1.9119,5.5515 Z M7.9889,-0.0005 C3.5769,-0.0005 -0.0001,3.5765 -0.0001,7.9885 C-0.0001,12.4005 3.5769,15.9775 7.9889,15.9775 C12.4009,15.9775 15.9779,12.4005 15.9779,7.9885 C15.9779,3.5765 12.4009,-0.0005 7.9889,-0.0005 Z"/>
	<path d="M7.9888,6.1229 C7.7188,6.1229 7.5008,6.3409 7.5008,6.6109 C7.5008,6.8799 7.7188,7.0989 7.9888,7.0989 C8.2588,7.0989 8.4768,6.8799 8.4768,6.6109 C8.4768,6.3409 8.2588,6.1229 7.9888,6.1229"/>
</svg>
