<svg xmlns="http://www.w3.org/2000/svg" viewBox="0 0 16 16">
	<path d="M14.1235 7.204C13.6475 7.204 13.2625 7.59 13.2625 8.066 13.2625 8.541 13.6475 8.927 14.1235 8.927 14.5995 8.927 14.9845 8.541 14.9845 8.066 14.9845 7.59 14.5995 7.204 14.1235 7.204M1.7227 8.0341C1.7227 7.5581 1.3377 7.1731.8617 7.1731.3857 7.1731-.0003 7.5581-.0003 8.0341-.0003 8.5101.3857 8.8951.8617 8.8951 1.3377 8.8951 1.7227 8.5101 1.7227 8.0341M1.0361 5.7875C1.1601 5.7875 1.2651 5.7135 1.3131 5.6075 1.3141 5.6075 1.3141 5.6065 1.3141 5.6055 1.3161 5.6025 1.3171 5.5995 1.3181 5.5965 2.3041 3.1395 4.7161 1.4095 7.4801 1.4035L7.4801 2.2695 8.4331 1.4725C10.7751 1.8025 12.7641 3.3465 13.6531 5.5325 13.7051 5.6705 13.8091 5.7835 13.9601 5.7835 14.1281 5.7835 14.2651 5.6465 14.2651 5.4775 14.2651 5.4195 14.2241 5.3185 14.2241 5.3185 13.2571 2.9225 11.0831 1.2315 8.5201.8695L7.4801-.0005 7.4801.7935C4.4651.8005 1.8421 2.6755.7621 5.3475L.7641 5.3485C.7441 5.3895.7311 5.4335.7311 5.4825.7311 5.6505.8681 5.7875 1.0361 5.7875M13.9658 10.3276C13.8418 10.3276 13.7358 10.4016 13.6878 10.5076 13.6878 10.5076 13.6878 10.5086 13.6868 10.5096 13.6858 10.5126 13.6848 10.5156 13.6828 10.5186 12.6948 12.9816 10.2738 14.7146 7.5018 14.7136 7.4968 14.7136 7.4918 14.7116 7.4868 14.7116L7.4868 13.7296 6.4218 14.6206C4.1428 14.2476 2.2188 12.7236 1.3478 10.5826 1.2968 10.4446 1.1918 10.3316 1.0418 10.3316.8728 10.3316.7368 10.4686.7368 10.6376.7368 10.6956.7768 10.7966.7768 10.7966 1.7588 13.2266 3.9838 14.9266 6.5948 15.2536L7.4868 15.9996 7.4868 15.3216C7.4908 15.3216 7.4968 15.3226 7.5018 15.3226 10.5248 15.3246 13.1568 13.4456 14.2398 10.7676L14.2378 10.7666C14.2578 10.7256 14.2698 10.6816 14.2698 10.6326 14.2698 10.4646 14.1338 10.3276 13.9658 10.3276" transform="translate(.5)"/>
	<path d="M10.1753,5.2436 L6.4873,8.9006 L4.7343,7.1476 C4.6203,7.0356 4.4383,7.0356 4.3233,7.1476 L3.7093,7.7576 C3.7083,7.7586 3.7083,7.7586 3.7083,7.7586 C3.5963,7.8706 3.5963,8.0526 3.7093,8.1646 L5.6633,10.1176 C5.6663,10.1186 5.6643,10.1206 5.6663,10.1216 L6.0923,10.5456 L6.1893,10.6416 L6.2803,10.7326 C6.3943,10.8446 6.5763,10.8446 6.6903,10.7326 L6.6903,10.7316 L11.1993,6.2606 L11.2023,6.2576 C11.3133,6.1446 11.3123,5.9646 11.1993,5.8536 L10.5853,5.2436 C10.4713,5.1316 10.2873,5.1316 10.1753,5.2436" transform="translate(.5)"/>
</svg>
