<svg xmlns="http://www.w3.org/2000/svg" viewBox="0 0 16 16">
	<g fill="none">
		<g class="ti-kinesis-brand-lighter-color" fill="#8C8C8C">
			<path d="M1.364 11.516l6.634 2.204 6.793-2.204L8.01 9.883zM1.363 9.098l6.639.681 6.789-.681-6.789-.366zM14.046 8.066h-3.545V5.11l3.545-.928z"/>
			<path d="M10.516 8.069H3.877v-3.43l6.639-1.855z"/>
			<path d="M12.496 8.068H8.951l.008-2.493 3.545-.929zM8.002 0L1.364 3.403v4.666h6.638z"/>
		</g>
		<g class="ti-kinesis-brand-plain-color" fill="#515151">
			<path d="M8.002 13.719v2.28l6.79-3.144v-1.34zM8.002 9.756v2.281l6.79-1.597V9.099zM14.047 8.067h.747V4.485l-.747-.304zM12.503 8.067h.902V4.949l-.902-.31zM11.573 8.067h-1.057V2.784l1.057.464zM8.002 0v8.068h1.34V.774z"/>
		</g>
		<g class="ti-kinesis-brand-darker-color" fill="#000">
			<path d="M1.362 12.855L8.002 16v-2.282l-6.64-2.203zM1.362 10.44l6.64 1.597V9.756l-6.64-.657z"/>
		</g>
	</g>
</svg>
