<svg xmlns="http://www.w3.org/2000/svg" viewBox="0 0 16 16">
  <g fill="none" fill-rule="evenodd">
    <polygon fill="#FCBF92" points="1 8.911 7.615 11.956 14.23 8.911 7.615 8.637"/>
    <polygon fill="#9D5025" points="7.635 0 1.003 3.308 1.003 7.975 8.956 7.975 8.956 .66 7.636 0"/>
    <polygon fill="#FCBF92" points="1.003 11.265 7.639 15.96 14.256 11.265 7.625 10.3"/>
    <polygon fill="#9D5025" points="7.635 7.975 11.135 7.975 11.135 2.995 10.113 2.586 7.635 3.309"/>
    <polygon fill="#9D5025" points="10.113 7.975 12.817 7.975 12.817 4.745 12.044 4.513 10.113 4.84"/>
    <polygon fill="#9D5025" points="12.044 4.259 12.044 7.975 14.23 7.975 14.256 4.243 13.592 3.978"/>
    <polygon fill="#F68534" points="7.635 0 7.635 7.975 8.956 7.975 8.956 .66 7.636 0"/>
    <polygon fill="#F68534" points="11.135 2.995 10.113 2.586 10.113 7.975 11.135 7.975"/>
    <polygon fill="#F68534" points="12.817 4.745 12.044 4.513 12.044 7.975 12.817 7.975"/>
    <polygon fill="#F68534" points="13.592 7.975 14.256 7.975 14.256 4.243 13.592 3.978"/>
    <polygon fill="#F68534" points="7.615 9.572 7.615 11.956 14.23 10.307 14.23 8.911"/>
    <polygon fill="#F68534" points="7.615 13.607 7.615 15.96 14.256 12.64 14.256 11.265"/>
    <polygon fill="#9D5025" points="1.003 12.655 7.615 15.96 7.615 13.59 1.003 11.265"/>
    <polygon fill="#9D5025" points="1 10.307 7.615 11.956 7.615 9.572 1 8.911"/>
  </g>
</svg>
