<svg xmlns="http://www.w3.org/2000/svg" viewBox="0 0 32 32">
	<path class="ti-beam-light" d="M20.616 10.93l-8.232 5.068 8.32 5.133L4.551 22.57V9.492zm-.014-4.622L4.537 1.285v6.461zm-1.394 17.193a1.88 1.88 0 0 0 1.88 1.881V21.62a1.894 1.894 0 0 0-1.88 1.881zm1.814-17.06v.332a1.882 1.882 0 0 0 0 3.761v.2l.067-.067V6.463zM4.537 24.409v6.306l15.932-4.89z"/>
	<path d="M27.103 20.175v-.002a7.907 7.907 0 0 0-1.012-2.158 6.782 6.782 0 0 0-1.71-1.686 8.025 8.025 0 0 0-2.126-1.016 7.801 7.801 0 0 0 3.218-2.614 6.938 6.938 0 0 0 1.192-4 9.283 9.283 0 0 0-.763-3.897 7.022 7.022 0 0 0-2.204-2.721A9.605 9.605 0 0 0 20.183.49 20.237 20.237 0 0 0 15.535 0H4.537v1.41L20.74 6.456a.344.344 0 0 1 .238.317v3.607a.325.325 0 0 1-.17.282L12.385 16l8.399 5.314a.352.352 0 0 1 .172.284v3.63a.342.342 0 0 1-.232.314L4.537 30.59V32h11.77l.24.001a16.413 16.413 0 0 0 4.417-.603 10.365 10.365 0 0 0 3.513-1.769 7.779 7.779 0 0 0 2.224-2.942 10.159 10.159 0 0 0 .76-4.073 10.01 10.01 0 0 0-.358-2.438z"/>
</svg>
