<svg xmlns="http://www.w3.org/2000/svg" viewBox="0 0 32 32">
    <path class="ti-beam-light"
          d="M20.61553,10.93054,12.38411,15.9978,20.704,21.13144,4.551,22.56975V9.49223ZM20.60174,6.308,4.5372,1.285V7.74634Zm-1.394,17.19328a1.87927,1.87927,0,0,0,1.88084,1.88086h0V21.62045A1.89356,1.89356,0,0,0,19.20771,23.50132ZM21.02217,6.4408v.33192a1.88208,1.88208,0,0,0,0,3.76172v.19915l.06638-.06638V6.46293ZM4.5372,24.40855V30.715L20.469,25.82473Z"/>
    <path d="M27.10311,20.17483l-.00043-.00151a7.907,7.907,0,0,0-1.01216-2.15789,6.782,6.782,0,0,0-1.70991-1.68681,8.02489,8.02489,0,0,0-2.12523-1.01606,7.8012,7.8012,0,0,0,3.21778-2.614,6.93822,6.93822,0,0,0,1.19151-3.99877,9.28336,9.28336,0,0,0-.76236-3.89818,7.02207,7.02207,0,0,0-2.20432-2.721A9.605,9.605,0,0,0,20.18309.49126,20.23686,20.23686,0,0,0,15.5346.00181H4.5372V1.41095L20.74,6.45614a.34408.34408,0,0,1,.23791.31679v3.60678a.32481.32481,0,0,1-.16985.28276l-8.42313,5.33768,8.39893,5.31434a.35244.35244,0,0,1,.172.28394v3.629a.34216.34216,0,0,1-.23208.31485L4.5372,30.58936v1.40913H16.30754c.07974.00108.15926.00173.239.00173a16.41294,16.41294,0,0,0,4.41707-.60311,10.36523,10.36523,0,0,0,3.51382-1.76893,7.77892,7.77892,0,0,0,2.22312-2.94209,10.159,10.159,0,0,0,.76085-4.07268A10.0103,10.0103,0,0,0,27.10311,20.17483Z"/>
</svg>
