<svg xmlns="http://www.w3.org/2000/svg" viewBox="0 0 16 16">
  <g class="ti-bell" fill="#000">
    <path d="M11.1833 10.1622L11.1833 8.3022C9.0673 7.7192 7.5003 5.7982 7.5003 3.5002 7.5003 2.8462 7.6343 2.2252 7.8633 1.6512 7.6823 1.4542 7.6013 1.1622 7.6013.7072 7.6013.0952 7.0003.0032 6.6633.0002L6.6633.0002C6.6603.0002 6.6563.0002 6.6533.0002 6.6493.0002 6.6463.0002 6.6433.0002L6.6433.0002C6.3063.0032 5.7053.0952 5.7053.7072 5.7053 1.3742 5.5513 1.7082 5.1223 1.8742 2.0403 2.8312 2.1243 5.2062 2.1243 5.2062L2.1243 10.1622C2.1243 12.2022.0003 12.7442.0003 12.7442L.0003 13.9522 6.6433 13.9932 6.6533 13.9932 6.6633 13.9932 13.3073 13.9522 13.3073 12.7442C13.3073 12.7442 11.1833 12.2022 11.1833 10.1622M5.2688 14.3453C5.2548 14.4263 5.2458 14.5083 5.2458 14.5933 5.2458 15.3693 5.8758 16.0003 6.6538 16.0003 7.4308 16.0003 8.0608 15.3693 8.0608 14.5933 8.0608 14.5083 8.0518 14.4263 8.0378 14.3453L5.2688 14.3453z"/>
  </g>
  <g class="ti-badge" fill="#E96065">
    <path d="M15.9998,3.5001 C15.9998,5.4331 14.4328,7.0001 12.4998,7.0001 C10.5668,7.0001 8.9998,5.4331 8.9998,3.5001 C8.9998,1.5671 10.5668,0.0001 12.4998,0.0001 C14.4328,0.0001 15.9998,1.5671 15.9998,3.5001"/>
  </g>
</svg>
