<svg xmlns="http://www.w3.org/2000/svg" viewBox="0 0 16 16">
  <g class="ti-bell" fill="#000">
    <path d="M11.5301304 10.1621L11.5301304 7.9991C11.5291304 7.9991 11.5271304 8.0001 11.5261304 8.0001 9.04513037 8.0001 7.02613037 5.9811 7.02613037 3.5001 7.02613037 2.4801 7.38013037 1.5491 7.95413037.7931 7.95313037.7631 7.94813037.7401 7.94813037.7071 7.94813037.0951 7.34713037.0031 7.01013037.0001L7.01013037.0001C7.00713037.0001 7.00413037.0001 7.00013037.0001 6.99713037.0001 6.99313037.0001 6.99013037.0001L6.99013037.0001C6.65313037.0031 6.05113037.0951 6.05113037.7071 6.05113037 1.3741 5.89813037 1.7081 5.46813037 1.8741 2.38713037 2.8311 2.47013037 5.2061 2.47013037 5.2061L2.47013037 10.1621C2.47013037 12.2021.346130371 12.7441.346130371 12.7441L.346130371 13.9521 6.99013037 13.9931 7.00013037 13.9931 7.01013037 13.9931 13.6541304 13.9521 13.6541304 12.7441C13.6541304 12.7441 11.5301304 12.2021 11.5301304 10.1621M5.61503037 14.3452C5.60103037 14.4262 5.59303037 14.5082 5.59303037 14.5932 5.59303037 15.3692 6.22203037 16.0002 7.00003037 16.0002 7.77703037 16.0002 8.40703037 15.3692 8.40703037 14.5932 8.40703037 14.5082 8.39903037 14.4262 8.38403037 14.3452L5.61503037 14.3452z"/>
  </g>
  <g class="ti-badge" fill="#E96065" transform="translate(1)">
    <path d="M15,3.5 C15,5.433 13.433,7 11.5,7 C9.567,7 8,5.433 8,3.5 C8,1.567 9.567,0 11.5,0 C13.433,0 15,1.567 15,3.5"/>
  </g>
</svg>
