<svg xmlns="http://www.w3.org/2000/svg" viewBox="0 0 16 16">
	<g fill="none">
		<path fill="#4285F4" d="M15.5059004,7.39019157 L12.2813793,1.78222222 C12.0346434,1.34466746 11.5747353,1.07040177 11.0724904,1.06130268 L4.62222222,1.06130268 C4.11990668,1.07015415 3.6598849,1.34448763 3.41333333,1.78222222 L0.187586207,7.37547893 C-0.0619579096,7.80971587 -0.0619579096,8.34384735 0.187586207,8.77808429 L3.41210728,14.417931 C3.65613167,14.8617061 4.11492962,15.1450813 4.62099617,15.1645977 L11.0712644,15.1645977 C11.5773041,15.1472276 12.0369259,14.8650282 12.2813793,14.4216092 L15.5059004,8.81363985 C15.7571787,8.37242531 15.7571787,7.83140611 15.5059004,7.39019157 Z"/>
		<path fill="#000" d="M12.2813793,14.417931 L14.4306513,10.6796935 L9.88444444,6.13471264 L7.8467433,5.58911877 L6.01624521,6.27203065 L5.30881226,8.11111111 L5.87770115,10.1622989 L10.8763218,15.1609195 L11.0712644,15.1609195 C11.5773041,15.1435494 12.0369259,14.86135 12.2813793,14.417931 Z" opacity=".07"/>
		<path fill="#FFF" d="M7.8467433,5.26666667 C6.27663677,5.26666681 5.00375079,6.53937004 5.0035252,8.10947655 C5.00329961,9.67958306 6.27581982,10.952652 7.84592628,10.9531033 C9.41603274,10.9535547 10.6892846,9.68121749 10.6899617,8.11111111 C10.6902869,7.3568303 10.390878,6.63333156 9.8576359,6.09985948 C9.32439376,5.5663874 8.60102417,5.2666666 7.8467433,5.26666667 M7.8467433,10.2689655 C6.97397266,10.2689655 6.18714064,9.74322117 5.85314578,8.93688624 C5.51915091,8.13055131 5.70376778,7.20241966 6.32090981,6.58527763 C6.93805185,5.96813559 7.8661835,5.78351873 8.67251843,6.11751359 C9.47885335,6.45150845 10.0045977,7.23834047 10.0045977,8.11111111 C10.0045977,9.30286119 9.03849338,10.2689655 7.8467433,10.2689655"/>
		<path fill="#FFF" d="M6.49808429 8.00076628L6.49808429 8.88475096C6.62878141 9.10953192 6.81332198 9.29828575 7.03509579 9.43402299L7.03509579 8.00076628 6.49808429 8.00076628zM7.5610728 7.25287356L7.5610728 9.63632184C7.73850263 9.66989276 7.92065446 9.66989276 8.09808429 9.63632184L8.09808429 7.25287356 7.5610728 7.25287356zM8.67678161 8.36858238L8.67678161 9.41808429C8.90131398 9.27622706 9.08610355 9.07962446 9.2137931 8.8467433L9.2137931 8.36858238 8.67678161 8.36858238zM9.89302682 9.86314176L9.59877395 10.1586207C9.54751677 10.2106451 9.54751677 10.2941825 9.59877395 10.3462069L10.7157088 11.4631418C10.7678774 11.5152095 10.8523525 11.5152095 10.9045211 11.4631418L11.1987739 11.1688889C11.2500311 11.1168645 11.2500311 11.0333271 11.1987739 10.9813027L10.080613 9.86314176C10.0285887 9.81188459 9.94505119 9.81188459 9.89302682 9.86314176"/>
	</g>
</svg>
