<svg xmlns="http://www.w3.org/2000/svg" viewBox="0 0 16 16">
	<path d="M11.68 11.3l-.002.003-.003-.003-.417.417a.106.106 0 0 1-.151 0l-1.162-1.162a3.163 3.163 0 1 1 .565-.57l1.165 1.164c.044.04.046.108.005.151m4.176-3.768l-3.462-5.997a1.074 1.074 0 0 0-.93-.535h-6.93a1.072 1.072 0 0 0-.93.535L.145 7.532a1.07 1.07 0 0 0 0 1.072l3.46 6.002c.193.332.547.536.93.536h6.929c.384.001.738-.204.93-.536l3.465-6.002a1.074 1.074 0 0 0-.002-1.072"/>
	<path d="M9.607 8.926a1.827 1.827 0 0 1-.644.688v-.902c0-.06.048-.107.107-.107h.43c.058 0 .107.048.107.107v.214zm-1.287.936c-.213.038-.43.038-.643 0V7.104c0-.06.048-.107.108-.107h.427c.06 0 .108.048.108.107v2.758zm-1.285-.248a1.82 1.82 0 0 1-.644-.688v-.804c0-.06.048-.107.107-.107h.43c.058 0 .107.048.107.107v1.492zM8 5.71a2.359 2.359 0 1 0 0 4.717 2.359 2.359 0 0 0 0-4.717z"/>
</svg>
