<svg xmlns="http://www.w3.org/2000/svg" viewBox="0 0 300 300">
	<path class="ti-googlecloudplatform" d="M296.59 140L232 28.1a20 20 0 0 0-17.32-10H85.36A20 20 0 0 0 68 28.1L3.41 140a20 20 0 0 0 0 20L68 272a20 20 0 0 0 17.32 10h129.32A20 20 0 0 0 232 272l64.64-112a20 20 0 0 0-.05-20zm-78 70.31l-7.78 7.78a2 2 0 0 1-2.83 0l-21.68-21.68a59 59 0 1 1 10.55-10.67l21.74 21.74a2 2 0 0 1 .05 2.88z"/>
	<path class="cls-1" d="M150 106a44 44 0 1 0 44 44 44 44 0 0 0-44-44zm-18 72.84A34.15 34.15 0 0 1 120 166v-15a2 2 0 0 1 2-2h8a2 2 0 0 1 2 2zm24 4.62a33.69 33.69 0 0 1-12 0V132a2 2 0 0 1 2-2h8a2 2 0 0 1 2 2zM180 166a34.15 34.15 0 0 1-12 12.84V162a2 2 0 0 1 2-2h8a2 2 0 0 1 2 2z"/>
</svg>
