<svg xmlns="http://www.w3.org/2000/svg" viewBox="0 0 16 16">
  <g transform="translate(0 1)">
    <path d="M11.6797,10.3003 C11.6797,10.3013 11.6787,10.3023 11.6777,10.3033 L11.6747,10.3003 L11.2577,10.7173 C11.2157,10.7593 11.1487,10.7593 11.1067,10.7173 L9.9447,9.5553 C8.5687,10.6313 6.5817,10.3873 5.5057,9.0123 C4.4307,7.6363 4.6737,5.6493 6.0497,4.5733 C7.4257,3.4983 9.4117,3.7413 10.4887,5.1173 C11.3737,6.2513 11.3827,7.8403 10.5097,8.9843 L11.6747,10.1493 C11.7187,10.1893 11.7207,10.2573 11.6797,10.3003 M15.8557,6.5323 L12.3937,0.5353 C12.2017,0.2043 11.8477,0.0003 11.4647,0.0003 L4.5347,0.0003 C4.1517,-0.0007 3.7967,0.2033 3.6047,0.5353 L0.1437,6.5323 C-0.0483,6.8643 -0.0483,7.2723 0.1437,7.6043 L3.6047,13.6063 C3.7967,13.9383 4.1507,14.1423 4.5337,14.1423 L11.4627,14.1423 C11.8467,14.1433 12.2007,13.9383 12.3937,13.6063 L15.8577,7.6043 C16.0487,7.2723 16.0467,6.8633 15.8557,6.5323"/>
    <path d="M9.6074,7.9258 C9.4564,8.2078 9.2344,8.4448 8.9634,8.6138 L8.9634,7.7118 C8.9634,7.6528 9.0114,7.6048 9.0704,7.6048 L9.5004,7.6048 C9.5584,7.6048 9.6074,7.6528 9.6074,7.7118 L9.6074,7.9258 Z M8.3204,8.8618 C8.1074,8.8998 7.8904,8.8998 7.6774,8.8618 L7.6774,6.1038 C7.6774,6.0448 7.7254,5.9968 7.7854,5.9968 L8.2124,5.9968 C8.2724,5.9968 8.3204,6.0448 8.3204,6.1038 L8.3204,8.8618 Z M7.0354,8.6138 C6.7634,8.4448 6.5424,8.2078 6.3914,7.9258 L6.3914,7.1218 C6.3914,7.0628 6.4394,7.0148 6.4984,7.0148 L6.9274,7.0148 C6.9864,7.0148 7.0354,7.0628 7.0354,7.1218 L7.0354,8.6138 Z M7.9994,4.7108 C6.6974,4.7108 5.6404,5.7658 5.6404,7.0688 C5.6404,8.3708 6.6974,9.4258 7.9994,9.4258 C9.3004,9.4258 10.3574,8.3708 10.3574,7.0688 C10.3574,5.7658 9.3004,4.7108 7.9994,4.7108 Z"/>
  </g>
</svg>
