<svg xmlns="http://www.w3.org/2000/svg" viewBox="0 0 16 16">
  <g>
    <path d="M0.9299,5.021 L14.9299,5.021 L14.9299,14.351 C14.9299,14.741 14.5699,15.05 14.1399,15.05 L1.7199,15.05 C1.2799,15.05 0.9299,14.741 0.9299,14.351 L0.9299,11.531 L1.9299,11.531 L1.9299,14.05 L13.9299,14.05 L13.9299,6.021 L1.9299,6.021 L1.9299,8.531 L0.9299,8.531 L0.9299,5.021 Z M14.927,3.2768 L14.927,4.1968 L0.927,4.1968 L0.927,3.2768 C0.927,2.9648 1.202,2.7108 1.542,2.7108 L3.966,2.7108 L3.966,0.9998 L5.159,0.9998 L5.159,2.7108 L10.695,2.7108 L10.695,0.9998 L11.889,0.9998 L11.889,2.7108 L14.312,2.7108 C14.652,2.7108 14.927,2.9648 14.927,3.2768 Z M1.9299,10.9008 L0.9299,10.9108 L0.2799,10.9108 C0.1299,10.9108 -0.0001,10.7998 -0.0001,10.6608 L-0.0001,9.3898 C-0.0001,9.2508 0.1299,9.1398 0.2799,9.1398 L0.9299,9.1508 L1.9299,9.1608 L3.4999,9.1708 L4.4499,9.1808 L4.4499,7.9798 C4.4499,7.7608 4.7099,7.6398 4.8999,7.7708 L7.9499,9.8308 C8.0999,9.9308 8.0999,10.1398 7.9499,10.2408 L4.8999,12.2908 C4.7099,12.4208 4.4499,12.2998 4.4499,12.0898 L4.4499,10.8898 L3.4999,10.8898 L1.9299,10.9008 Z"/>
  </g>
</svg>
