<svg xmlns="http://www.w3.org/2000/svg" viewBox="0 0 16 16">
	<path d="M5.178 3.393a5.01 5.01 0 0 1 1.75-.885 5.034 5.034 0 0 1 3 .079 5.059 5.059 0 0 1 1.966 1.228l.078.08-.942.266a.887.887 0 0 0 .48 1.705l3.187-.898a.885.885 0 0 0 .612-1.093L14.4.645a.885.885 0 0 0-1.705.48l.385 1.37-.013-.013a6.844 6.844 0 0 0-6.62-1.68 6.799 6.799 0 0 0-2.36 1.196.887.887 0 0 0 1.092 1.395m1.772 9.384a5.025 5.025 0 0 1-1.626-1.093 5.029 5.029 0 0 1-1.46-3.105c-.007-.06-.01-.12-.015-.18a5.043 5.043 0 0 1 .194-1.71l.65.658a.886.886 0 0 0 1.26-1.245l-2.19-2.22a.886.886 0 0 0-1.254-.006L.261 6.098a.875.875 0 0 0-.26.612v.026a.88.88 0 0 0 .883.877c.224 0 .45-.085.622-.255l.721-.713a6.836 6.836 0 0 0-.02 2.822 6.792 6.792 0 0 0 1.864 3.47 6.787 6.787 0 0 0 2.197 1.475.886.886 0 0 0 .682-1.635m8.988-6.536a.886.886 0 0 0-1.756.239 5.045 5.045 0 0 1-.197 2.225 5.059 5.059 0 0 1-3.668 3.385l.246-.947a.885.885 0 1 0-1.713-.446L8.015 13.9a.892.892 0 0 0 .093.672c.12.202.314.349.541.409l3.248.845a.887.887 0 0 0 1.081-.634.886.886 0 0 0-.634-1.08l-1.377-.359a6.833 6.833 0 0 0 4.97-7.512"/>
</svg>
