<svg xmlns="http://www.w3.org/2000/svg" viewBox="0 0 32 32"><path d="M17.50234,14.16182a7.0701,7.0701,0,0,1,2.17842,1.0168s-.22871,1.58623-3.16758,2.5875c-.97988.33389-3.24648-.33281-3.24648-.33281a6.22233,6.22233,0,0,1,1.53145-2.411,1.7517,1.7517,0,0,0,1.05166.39111A1.795,1.795,0,0,0,17.50234,14.16182Zm-3.30518.86045.22539-.23467-.30049-.62578a4.04869,4.04869,0,0,1-1.87793-1.17334,7.714,7.714,0,0,0-.1502,1.56445.68417.68417,0,0,1,.30039,1.25156,3.986,3.986,0,0,0,.601,1.0168,4.24813,4.24813,0,0,1,1.12676-1.7209Zm12.73115-1.82969a6.11412,6.11412,0,0,1,1.69141.89092,6.5997,6.5997,0,0,0-1.277-.39111c.52578.39111,2.02813,1.408,2.02813,1.408s-1.57744-.46934-1.80283-.23467c.52588.704,2.40381,2.50313,2.40381,2.50313s-2.6291-2.112-2.85449-1.79912a17.518,17.518,0,0,0,1.12676,1.408s-2.25352-1.408-3.00469-1.01689a.0757.0757,0,0,0-.0751.07822,10.65928,10.65928,0,0,0,1.57744,1.64268l-.03-.01816c.33584.23887.55576.40938.55576.40938s-.30742-.19521-.64287-.46211c-.57852-.36436-1.24912-.69668-1.46035-.47666a.29489.29489,0,0,0-.0751.23457,28.75769,28.75769,0,0,0,2.10322,3.28535S24.33809,17.447,24.0376,17.60342c-.0751,0-.0751.07832-.0751.15645a13.09592,13.09592,0,0,0,.90137,1.56445s-1.42725-1.64268-1.80283-1.32979c-.0751,0-.0751.15645,0,.31289.45068,1.25156,2.02822,4.1458,2.02822,4.1458s-2.554-4.22393-3.68076-3.59814q.45059,1.17334.676,1.87734c.0752.07822.0752.07822.0752.15645.676,2.03379.30039,2.4249.30039,2.4249s-1.35205-3.98936-2.32861-3.91113c-.45068,0-.37559.54756-.22529,1.17334.30039.78223.75117,1.79912.75117,1.79912s-1.35215-2.50313-2.32871-2.58135c.30049.78223.601,1.408.75117,1.95557.67607,2.112.30049,2.97246.30049,2.97246a9.82548,9.82548,0,0,0-.30049-2.26846,4.63594,4.63594,0,0,0-1.65254-2.26846v.15645C17.953,21.51465,16.67607,24.8,16.67607,24.8a16.26919,16.26919,0,0,0,.1502-4.224c-.1502-.39111-.52578-.62588-1.12676-.313-.30049.15645,0,2.816,0,2.816s-.03711-.19473-.08437-.46719c.00908.09561.00928.15439.00928.15439s-.1502-.86045-.37559-1.64268c-.22539-.54756-.45068-.93867-.67607-.86045-.45068.07822-2.554,4.1458-2.554,4.1458s.97656-3.20713,1.12676-4.224c-.45068.15645-1.12676,1.95557-1.12676,1.95557a11.5836,11.5836,0,0,0,.0752-1.87734c-.0752,0-2.40381,1.87744-2.40381,1.87744A15.857,15.857,0,0,0,10.7418,19.872a.99469.99469,0,0,0-1.27705-.23457,6.71288,6.71288,0,0,0-1.80273,1.799,8.02307,8.02307,0,0,0,.82627-2.19023c-.601-.46934-3.23008,1.87734-3.23008,1.87734a9.65619,9.65619,0,0,0,1.35215-2.112,10.88017,10.88017,0,0,0-3.23008-.23467A4.85734,4.85734,0,0,1,0,17.44707c2.6291,1.40811,5.03291-.15635,8.1127.704.16768.05068.34434.10156.51758.15254-1.88418-.76045-3.1083-1.92187-3.22178-3.35967A2.67443,2.67443,0,0,1,6.06,12.99131C4.023,14.3123,2.40947,15.86455.1502,17.13418a73.20447,73.20447,0,0,1,6.43252-4.68594,6.56636,6.56636,0,0,1,1.24795-.79551,18.91913,18.91913,0,0,1,5.16465-2.49727c.0751,0,.1502-.07822.22529-.15645.15029-.31289.37559-1.01689.37559-1.01689s.0752.86055.37559.93867c.0752.07832.22539-.07812.30049-.23467.15029-.31279.45078-1.0168.45078-1.0168s-.37559,1.25156,0,1.32979L15.8498,7.82578s-.30049,1.09512-.0752,1.17334,1.202-1.56445,1.202-1.56445-.601,1.09512,0,1.17334c.60088.15635,1.42715-.7041,1.42715-.7041s-.37559.54766-.45068.7041c0,.07822,0,.15645.0751.15645,1.27705.46934,2.25361-1.25156,2.25361-1.25156a2.73162,2.73162,0,0,1-.37559.86045s-.22539.39111-.37568.62578c1.12686.23467,1.95313-1.25156,2.17842-1.64268L20.80752,9.312c.52578.31279,2.554-2.112,2.554-2.112a2.25351,2.25351,0,0,1-.22539.46943l.0751-.07822a14.06817,14.06817,0,0,1-1.277,1.95557c.45068,0,1.35215-.86045,1.35215-.86045l-.22539.39111s-.22539.31289-.45068.62578c0,0,0,.31289.0751.31289.601.46934,2.554-2.34668,2.554-2.34668a4.09622,4.09622,0,0,1-.22539.39111,19.09645,19.09645,0,0,1-1.65254,2.58125C24.338,10.87646,26.5916,7.904,26.5916,7.904a12.23443,12.23443,0,0,1-1.50244,2.58135c1.27705-.46934,2.7043-2.65957,2.7043-2.65957a29.54474,29.54474,0,0,1-1.80283,3.12891c1.20186-.39111,3.00469-3.28535,3.00469-3.28535a20.65527,20.65527,0,0,1-2.17842,3.51992c1.72773.15654,4.05635-2.34658,4.05635-2.34658a10.61076,10.61076,0,0,1-2.02812,2.81592C30.19717,11.89326,32,9.78125,32,9.78125S29.90059,13.08535,26.92832,13.19258Zm-5.29453-.43887a5.72286,5.72286,0,0,0-.3293-1.891c-.45068-.1335-.94033-.24941-1.451-.35322a5.83792,5.83792,0,0,1-.09766,4.35615c-.0751,0-2.10332-.93867-2.17842-.93867a4.66392,4.66392,0,0,0,1.42725-1.56445h.0751a.45433.45433,0,0,0,.45068-.39111c.04609-.28213-.21084-.44092-.22529-.391.0751-.23457.33945-1.07627.35039-1.106-.0377-.00713-.07705-.01348-.11514-.02041a.161.161,0,0,0-.01.03125,4.643,4.643,0,0,1-.37559,1.09512c-.29678-.08369-.51963-.0416-.60088.313a.8613.8613,0,0,0,.1502.46924,9.7558,9.7558,0,0,1-1.20186,1.17334,1.73736,1.73736,0,0,0-3.45537.31289v.07822a13.78767,13.78767,0,0,1-1.72773-1.17334,6.34314,6.34314,0,0,1,.601-1.25156h.22529a.52036.52036,0,0,0,.52588-.39111c.01416-.11914-.0751-.23467-.0751-.31289a4.03469,4.03469,0,0,1,.77246-.51729c-.11914.01094-.24746.01738-.36387.02969a4.08487,4.08487,0,0,0-.70908.40947.26911.26911,0,0,0-.22539-.07822.46192.46192,0,0,0-.49395.31377c-.049.14531.04326.312.04326.39023l-.0751.07822a5.89832,5.89832,0,0,0-.52588.93867,4.42756,4.42756,0,0,1-.702-1.60293c-.02744.00654-.05244.01436-.07969.0209a4.12886,4.12886,0,0,0,.70654,1.8167,13.99371,13.99371,0,0,0-.1502,2.03379.07455.07455,0,0,1-.0751.07822c-.22539.07822-.30049.23467-.37559.46934a.72478.72478,0,0,0,.75117.78223h.1502c.1502.31279.67607,1.32969.67607,1.32969-2.25352-.75732-3.07549-2.974-3.155-5.00615a1.92028,1.92028,0,0,1,.36162-1.21289q-.77607.24243-1.45986.53174c-.21553.52969-.10361.53154-.10361,1.15039a6.3485,6.3485,0,0,0,6.53525,6.17959A6.39952,6.39952,0,0,0,21.63379,12.75371Zm4.80293.4168a4.62509,4.62509,0,0,1-.90537-.43369,2.01081,2.01081,0,0,1,.08369.408,3.1476,3.1476,0,0,1-.12041,1.119c.11582-.19014.244-.36973.3458-.57148A.70236.70236,0,0,1,26.43672,13.17051Z"/></svg>
