<svg version="1.1" xmlns="http://www.w3.org/2000/svg" x="0px" y="0px" viewBox="0 0 16 16">
	<path d="M12.2,4c0.2,0.7,0.3,1.4,0.3,2.1c1.1,0.7,1.8,1.9,1.8,3.3c0,2.2-1.8,4-4,4s-4-1.8-4-4c0-2.1,1.6-3.7,3.5-3.9 c0,0.1,0,0.3,0,0.4c0,1.8-1.2,3.2-2.7,3.7c0,0.6,0.3,1.2,0.6,1.7c2.2-0.8,3.8-2.9,3.8-5.4c0-3.2-2.6-5.7-5.8-5.7 C2.6,0.1,0,2.6,0,5.8c0,2.9,2.1,5.2,4.8,5.7c0.8,2.2,2.9,3.7,5.4,3.7c3.2,0,5.8-2.6,5.8-5.7C16,6.9,14.4,4.8,12.2,4z M1.8,5.8 c0-2.2,1.8-4,4-4c1.5,0,2.7,0.8,3.4,1.9C6.5,4.2,4.4,6.6,4.4,9.4c0,0,0,0.1,0,0.1C2.9,9,1.8,7.6,1.8,5.8z"/>
</svg>