<svg xmlns="http://www.w3.org/2000/svg" viewBox="0 0 16 16">
	<path d="M7.976.07C3.572.07 0 3.614 0 7.98c0 4.368 3.572 7.91 7.976 7.91 4.405 0 7.976-3.542 7.976-7.91 0-4.367-3.571-7.91-7.976-7.91" class="ti-full-bg-circle"/>
	<path d="M6.886 11.87a.416.416 0 0 1-.584 0l-.13-.13-.138-.137-.609-.604c-.002-.002 0-.005-.003-.007L2.634 8.207a.409.409 0 0 1 0-.58l.877-.87a.417.417 0 0 1 .585 0l2.5 2.5 5.261-5.216c.16-.16.423-.16.584 0l.877.87a.407.407 0 0 1 0 .58l-6.432 6.378z" class="ti-check-valid-value"/>
</svg>
