<svg xmlns="http://www.w3.org/2000/svg" viewBox="0 0 16 16">
	<path d="M3.672 0L0 3.06l1.05 1.193 3.634-3.058zm8.656 0l-1.05 1.194 3.672 3.095L16 3.06 12.328 0zM7.98 1.68a6.953 6.953 0 0 0-5.096 2.126A6.795 6.795 0 0 0 .787 8.877a6.713 6.713 0 0 0 2.098 5.035A7.065 7.065 0 0 0 7.981 16a7.065 7.065 0 0 0 5.097-2.088 6.854 6.854 0 0 0 2.098-5.035 6.938 6.938 0 0 0-2.098-5.072A6.952 6.952 0 0 0 7.98 1.679zm0 1.603a5.539 5.539 0 0 1 3.972 1.641 5.341 5.341 0 0 1 1.65 3.916 5.425 5.425 0 0 1-1.65 3.953 5.538 5.538 0 0 1-3.972 1.641 5.415 5.415 0 0 1-3.972-1.64A5.39 5.39 0 0 1 2.4 8.838a5.306 5.306 0 0 1 1.61-3.916 5.415 5.415 0 0 1 3.972-1.64zM7 5v5l3 1 1-1-3-1V5z"/>
</svg>
