<svg xmlns="http://www.w3.org/2000/svg" viewBox="0 0 16 16"><path d="M3.67231.0005.00018,3.05881l1.0494,1.19343L4.684,1.19393Zm8.65538,0-1.0494,1.19343,3.67213,3.09531,1.0494-1.23092L12.32769,0ZM7.98141,1.6789A6.95324,6.95324,0,0,0,2.88514,3.80476,6.79535,6.79535,0,0,0,.78685,8.87695a6.71346,6.71346,0,0,0,2.09829,5.03469A7.0653,7.0653,0,0,0,7.98141,16a7.0653,7.0653,0,0,0,5.09628-2.08837A6.85383,6.85383,0,0,0,15.176,8.87695a6.93773,6.93773,0,0,0-2.09829-5.07218A6.95162,6.95162,0,0,0,7.98141,1.6789Zm0,1.6034a5.53887,5.53887,0,0,1,3.972,1.6409,5.341,5.341,0,0,1,1.64869,3.91576,5.42458,5.42458,0,0,1-1.64869,3.95325,5.538,5.538,0,0,1-3.972,1.6409,5.41506,5.41506,0,0,1-3.972-1.6409,5.38973,5.38973,0,0,1-1.611-3.95325,5.306,5.306,0,0,1,1.611-3.91576A5.41506,5.41506,0,0,1,7.98141,3.28229ZM7,5v5l3,1,1-1L8,9V5Z"/></svg>

