<svg xmlns="http://www.w3.org/2000/svg" viewBox="0 0 16 16">
  <path d="M10.90576,10.59266v1.69083a.34074.34074,0,0,1-.58178.241l-1.36779-1.3678V14.1654a.3409.3409,0,0,1-.34087.34086H7.37448a.34085.34085,0,0,1-.341-.34086l-.00023-1.97829h0l-.00012-1.01683L5.676,12.52767a.34108.34108,0,0,1-.58213-.2417L5.097,10.5922a.34159.34159,0,0,1,.09984-.24033L7.76032,7.788a.34083.34083,0,0,1,.482,0l2.56379,2.56366A.33828.33828,0,0,1,10.90576,10.59266Zm1.76095-5.76431a3.18468,3.18468,0,0,0-.46039.037A4.28118,4.28118,0,0,0,4.24669,3.75776a1.87414,1.87414,0,0,0-.37088-.0414,1.96251,1.96251,0,0,0-1.93657,1.9884,2.01835,2.01835,0,0,0,.15078.768,2.62437,2.62437,0,0,0,.46177,5.19275l1.68067.00191.003-1.5922a1.03642,1.03642,0,0,1,.30168-.72768L7.27293,6.78363a1.0301,1.0301,0,0,1,1.4568,0l2.73559,2.56315a1.02273,1.02273,0,0,1,.302.72894v1.59916l.89936.0011A3.37951,3.37951,0,0,0,16,8.25217,3.38016,3.38016,0,0,0,12.66671,4.82835Z"/>
</svg>
