<svg xmlns="http://www.w3.org/2000/svg" viewBox="0 0 16 16">
  <path d="M10.66667,8A2.66735,2.66735,0,0,0,8,5.33333,2.66735,2.66735,0,0,0,5.33333,8,2.66735,2.66735,0,0,0,8,10.66667,2.66735,2.66735,0,0,0,10.66667,8ZM16,6.86458v2.3125l-2.21875.66667-.40625.94792,1.21875,1.69792L12.75,14.59375,10.78125,13.375l-.95825.39583L9.15625,16H6.844l-.66692-2.22917-.9375-.38542L3.51042,14.59375,1.45833,12.48958l1.17708-1.66667L2.20833,9.79167,0,9.13542V6.82292l2.21875-.66667L2.625,5.19792,1.5,3.27083,3.51042,1.40625,5.21875,2.625l.94792-.39583L6.84375,0h2.3125l.66667,2.22917.9375.38542L12.75,1.51042l1.71875,1.77083L13.36458,5.17708l.42708,1.02083Z"/>
</svg>
