<svg xmlns="http://www.w3.org/2000/svg" viewBox="0 0 16 16">
  <g transform="translate(.32)">
    <path d="M4.9044,11.1823 C5.3794,11.5543 5.9754,11.7763 6.6254,11.7763 C7.4154,11.7763 8.1284,11.4483 8.6354,10.9193 L7.8734,10.1573 L9.0874,8.9433 C9.2424,8.7873 9.2424,8.5343 9.0874,8.3793 C8.9314,8.2243 8.6774,8.2243 8.5234,8.3793 L7.3084,9.5933 L6.0434,8.3273 L7.2574,7.1133 C7.4124,6.9573 7.4124,6.7033 7.2574,6.5493 C7.1014,6.3933 6.8474,6.3933 6.6934,6.5493 L5.4784,7.7633 L4.6904,6.9743 C4.1634,7.4823 3.8344,8.1953 3.8344,8.9853 C3.8344,9.6383 4.0584,10.2383 4.4344,10.7133 L2.7134,12.4353 C2.5664,12.4093 2.4184,12.4213 2.2814,12.4683 C0.5014,10.3373 0.1204,7.3243 1.4094,4.7733 C3.0564,1.5113 6.9814,0.0443 10.3624,1.4183 L9.9414,2.2523 L11.8554,1.8063 L11.0794,0.0003 L10.6544,0.8393 C6.9494,-0.6957 2.6414,0.8983 0.8314,4.4823 C-0.5776,7.2713 -0.1566,10.5673 1.7964,12.8943 C1.5884,13.3133 1.7564,13.8223 2.1744,14.0333 C2.5934,14.2453 3.1064,14.0773 3.3184,13.6563 C3.4604,13.3763 3.4314,13.0573 3.2744,12.8123 L4.9044,11.1823 Z"/>
    <path d="M13.6613,3.0861 C13.8573,2.6691 13.6923,2.1711 13.2793,1.9621 C12.8583,1.7501 12.3463,1.9191 12.1343,2.3381 C12.0183,2.5671 12.0163,2.8221 12.1053,3.0431 L10.5373,4.6111 C10.0623,4.2371 9.4643,4.0141 8.8133,4.0141 C8.0233,4.0141 7.3103,4.3431 6.8033,4.8711 L10.7483,8.8161 C11.2753,8.3081 11.6043,7.5951 11.6043,6.8051 C11.6043,6.1541 11.3813,5.5551 11.0063,5.0801 L12.5743,3.5121 C12.7753,3.5931 12.9913,3.5891 13.1833,3.5201 C14.9113,5.6471 15.2683,8.6321 13.9993,11.1451 C12.3903,14.3301 8.5333,15.8221 5.1983,14.5591 L5.6083,13.7491 L3.6933,14.1941 L4.4713,16.0001 L4.9053,15.1391 C8.5643,16.5631 12.8063,14.9431 14.5763,11.4371 C15.9683,8.6821 15.5663,5.4101 13.6613,3.0861"/>
  </g>
</svg>
