<svg xmlns="http://www.w3.org/2000/svg" viewBox="0 0 16 16">
	<path d="M14.902 6.502a3.618 3.618 0 0 0-2.575-1.066c-.352 0-.69.066-1.018.16L9.755 3.143c.017-.015.037-.027.054-.044.342-.342.531-.798.531-1.284 0-.484-.19-.94-.531-1.282A1.803 1.803 0 0 0 8.525 0a1.816 1.816 0 0 0 0 3.63c.18 0 .352-.034.52-.084l1.504 2.37a3.6 3.6 0 0 0-.797.586A3.605 3.605 0 0 0 8.9 7.88L3.628 5.897a1.81 1.81 0 0 0-1.814-1.82c-.485 0-.94.188-1.284.531a1.817 1.817 0 0 0 1.284 3.1c.485 0 .94-.19 1.284-.532.144-.146.252-.312.337-.486l5.288 1.987c-.014.133-.039.265-.039.402 0 .641.18 1.25.49 1.792L6.48 12.836a1.804 1.804 0 0 0-2.537.025 1.8 1.8 0 0 0-.532 1.283c0 .484.189.94.532 1.283a1.8 1.8 0 0 0 1.283.532 1.813 1.813 0 0 0 1.7-2.438l2.728-1.985c.034.038.06.081.097.118a3.618 3.618 0 0 0 2.575 1.066c.974 0 1.888-.379 2.575-1.066A3.619 3.619 0 0 0 15.97 9.08a3.62 3.62 0 0 0-1.068-2.577"/>
</svg>
