<svg xmlns="http://www.w3.org/2000/svg" viewBox="0 0 16 16">
  <g transform="translate(0 -.33)">
    <polygon points="5.799 5.377 15.054 5.377 15.054 3.499 5.799 3.499"/>
    <path d="M6.3357 6.28521523C7.3087 6.63021523 8.1477 7.25221523 8.7597 8.06021523L15.5897 8.06021523 15.5897 6.18221523 6.3357 6.18221523 6.3357 6.28521523zM9.3264 13.4253152L15.5224 13.4253152 15.5224 11.5473152 9.8054 11.5473152C9.7634 12.2163152 9.5964 12.8483152 9.3264 13.4253152M9.7991 10.7427152L15.6571 10.7427152 15.6571 8.86571523 9.2621 8.86571523C9.5511 9.43871523 9.7391 10.0717152 9.7991 10.7427152"/>
    <polygon points="6.738 2.695 15.992 2.695 15.992 .818 6.738 .818"/>
    <path d="M4.5696,14.4522152 C2.7826,14.4522152 1.3336,13.0032152 1.3336,11.2162152 C1.3336,9.42921523 2.7826,7.98021523 4.5696,7.98021523 C6.3566,7.98021523 7.8056,9.42921523 7.8056,11.2162152 C7.8056,13.0032152 6.3566,14.4522152 4.5696,14.4522152 M4.5606,6.66521523 C2.0426,6.66521523 0.0006,8.70621523 0.0006,11.2242152 C0.0006,13.7442152 2.0426,15.7852152 4.5606,15.7852152 C7.0786,15.7852152 9.1206,13.7442152 9.1206,11.2242152 C9.1206,8.70621523 7.0786,6.66521523 4.5606,6.66521523"/>
    <path d="M5.1663,12.6153152 C5.0493,12.6713152 4.9273,12.6983152 4.8193,12.6933152 C4.7173,12.6903152 4.6863,12.6443152 4.6703,12.5773152 C4.6553,12.5143152 4.6483,12.4533152 4.6483,12.3973152 C4.6463,11.8933152 4.6463,11.3903152 4.6473,10.8873152 L4.6473,10.7333152 L4.7563,10.7333152 C4.9223,10.7333152 5.0903,10.7323152 5.2583,10.7343152 L5.2623,10.7343152 C5.4123,10.7343152 5.4713,10.6413152 5.4943,10.5613152 C5.5243,10.4583152 5.5573,10.3563152 5.5903,10.2533152 L5.6993,9.84831523 L5.2083,9.84831523 C5.0223,9.84831523 4.8353,9.84831523 4.6463,9.84931523 C4.6473,9.67231523 4.6473,9.49431523 4.6473,9.31731523 L4.6463,8.79331523 L3.6153,9.11131523 L3.6153,12.5293152 C3.6153,12.6153152 3.6183,12.7043152 3.6323,12.7903152 C3.6913,13.1593152 3.9003,13.4143152 4.2363,13.5273152 C4.3753,13.5743152 4.5203,13.5973152 4.6743,13.5973152 C4.8553,13.5973152 5.0483,13.5653152 5.2623,13.5003152 C5.3493,13.4733152 5.4323,13.4383152 5.5083,13.4053152 L5.7213,13.3173152 L5.4133,12.4913152 L5.1663,12.6153152 Z"/>
  </g>
</svg>