<svg xmlns="http://www.w3.org/2000/svg" viewBox="0 0 16 16">
  <path d="M16,6.99994H13.91a5.99542,5.99542,0,0,0-4.91-4.91v-2.09H6.99994V2.09a5.99542,5.99542,0,0,0-4.91,4.91H0V9.00006H2.09a5.99542,5.99542,0,0,0,4.91,4.91v2.0899H9.00006V13.91a5.99542,5.99542,0,0,0,4.91-4.91H16Zm-6.99994,5.3797v-1.3797H6.99994v1.37378c-.12958-.02875-.261-.0531-.38593-.09357l-.0174-.00635a4.46277,4.46277,0,0,1-.5993-.24835l-.0329-.01587a4.51257,4.51257,0,0,1-1.974-1.974l-.01587-.0329a4.46277,4.46277,0,0,1-.24835-.5993L3.71985,9.386c-.04047-.12494-.06482-.25635-.09357-.38593H5V6.99994H3.62036A4.49482,4.49482,0,0,1,6.99994,3.62036V4.99994H9.00006V3.62628c.12958.02875.261.0531.38593.09351l.0174.00641a4.46277,4.46277,0,0,1,.5993.24835l.0329.01587a4.51257,4.51257,0,0,1,1.974,1.974l.01587.0329a4.46277,4.46277,0,0,1,.24835.5993l.00641.0174c.04041.12494.06476.25635.09351.38593H11V9.00006h1.37964A4.49482,4.49482,0,0,1,9.00006,12.37964Z"/>
</svg>
