<svg xmlns="http://www.w3.org/2000/svg" viewBox="0 0 16 16">
  <g fill="none">
   <g class="ti-datastreams-positive-bg" fill="#5d88aa" fill-rule="nonzero">
    <path d="M16,7.9998 C16,12.4178 12.418,15.9998 8,15.9998 C3.582,15.9998 0,12.4178 0,7.9998 C0,3.5818 3.582,-0.0002 8,-0.0002 C12.418,-0.0002 16,3.5818 16,7.9998"/>
   </g>
    <g class="ti-datastreams-positive-logo" fill="#FFF" fill-rule="nonzero" transform="translate(1 1)">
      <path fill-rule="nonzero" d="M8.2881 10.4569C7.7451 10.4569 7.2101 10.1979 6.6991 9.6859 6.2971 9.2849 5.9081 9.1009 5.5431 9.1409 4.9741 9.1999 4.5871 9.7769 4.5831 9.7829 4.4711 9.9569 4.2401 10.0069 4.0671 9.8949 3.8931 9.7819 3.8441 9.5519 3.9551 9.3779 3.9791 9.3419 4.5351 8.4959 5.4641 8.3969 6.0651 8.3339 6.6581 8.5889 7.2271 9.1579 7.6271 9.5589 8.0171 9.7409 8.3871 9.7049 8.9691 9.6459 9.3711 9.0629 9.3741 9.0579 9.4881 8.8859 9.7201 8.8389 9.8921 8.9519 10.0641 9.0659 10.1111 9.2979 9.9971 9.4709 9.9731 9.5059 9.4011 10.3529 8.4611 10.4479 8.4031 10.4539 8.3461 10.4569 8.2881 10.4569M8.2881 7.9354C7.7451 7.9354 7.2101 7.6774 6.6991 7.1644 6.2991 6.7654 5.9131 6.5814 5.5471 6.6194 4.9751 6.6764 4.5861 7.2574 4.5821 7.2634 4.4691 7.4354 4.2381 7.4844 4.0661 7.3724 3.8931 7.2594 3.8441 7.0304 3.9551 6.8574 3.9791 6.8214 4.5351 5.9754 5.4641 5.8754 6.0641 5.8124 6.6581 6.0684 7.2271 6.6364 7.6271 7.0374 8.0171 7.2204 8.3871 7.1834 8.9691 7.1244 9.3711 6.5414 9.3741 6.5364 9.4881 6.3644 9.7201 6.3174 9.8921 6.4314 10.0641 6.5454 10.1111 6.7774 9.9971 6.9494 9.9731 6.9854 9.4011 7.8324 8.4611 7.9264 8.4031 7.9324 8.3461 7.9354 8.2881 7.9354M8.2881 5.4237C7.7451 5.4237 7.2101 5.1647 6.6991 4.6527 6.2971 4.2517 5.9081 4.0677 5.5431 4.1067 4.9741 4.1667 4.5871 4.7437 4.5831 4.7497 4.4711 4.9227 4.2401 4.9727 4.0671 4.8617 3.8931 4.7487 3.8441 4.5187 3.9551 4.3447 3.9791 4.3087 4.5351 3.4627 5.4641 3.3637 6.0651 3.2997 6.6581 3.5557 7.2271 4.1247 7.6271 4.5247 8.0171 4.7087 8.3871 4.6717 8.9691 4.6127 9.3711 4.0297 9.3741 4.0247 9.4881 3.8527 9.7201 3.8057 9.8921 3.9187 10.0641 4.0327 10.1111 4.2647 9.9971 4.4367 9.9731 4.4727 9.4011 5.3197 8.4611 5.4147 8.4031 5.4207 8.3461 5.4237 8.2881 5.4237"/>
      <path fill-rule="nonzero" d="M1.1035 7.703C1.4745 7.583 1.6765 7.185 1.5565 6.814 1.4945 6.626 1.3605 6.481 1.1955 6.4 1.4085 4.112 2.9575 2.132 5.2065 1.401 8.0825.467 11.2325 1.916 12.3975 4.703L11.6635 4.941 13.0415 5.807 13.6485 4.297 12.9085 4.537C11.6495 1.466 8.2015-.135 5.0415.892 2.5805 1.691.8885 3.86.6605 6.365.2945 6.488.0955 6.883.2145 7.251.3345 7.621.7325 7.824 1.1035 7.703M13.7798 6.7332C13.6588 6.3622 13.2608 6.1602 12.8908 6.2802 12.5208 6.4002 12.3178 6.7982 12.4378 7.1692 12.5008 7.3622 12.6398 7.5072 12.8098 7.5872 12.5668 9.8412 11.0228 11.7922 8.8068 12.5112 5.9978 13.4232 2.8728 12.0292 1.6698 9.3342L2.3838 9.1012 1.0068 8.2372.3988 9.7472 1.1578 9.5002C2.4558 12.4792 5.8798 14.0252 8.9718 13.0202 11.4008 12.2312 13.0908 10.0872 13.3448 7.6142 13.7028 7.4862 13.8978 7.0962 13.7798 6.7332"/>
    </g>
  </g>
</svg>
