<svg xmlns="http://www.w3.org/2000/svg" viewBox="0 0 16 16">
	<path d="M14.345 8.613a6.373 6.373 0 0 1-4.373 5.407c-3.092 1.005-6.516-.54-7.814-3.52l-.76.246.609-1.509 1.378.864-.715.233c1.203 2.694 4.328 4.09 7.137 3.177a5.84 5.84 0 0 0 4.003-4.923.707.707 0 0 1-.372-.419.706.706 0 0 1 1.342-.437.705.705 0 0 1-.435.881m-3.348-3.177c-.024.036-.595.884-1.535.98a1.69 1.69 0 0 1-.174.008c-.543 0-1.077-.259-1.59-.77-.4-.402-.79-.587-1.155-.548-.568.061-.956.638-.96.644a.374.374 0 0 1-.628-.406c.024-.036.58-.88 1.509-.98.6-.064 1.194.191 1.763.761.4.4.79.583 1.16.547.582-.059.984-.642.988-.648a.37.37 0 0 1 .517-.105c.172.114.22.345.105.517m0 5.033c-.024.037-.595.884-1.535.98a1.69 1.69 0 0 1-.174.008c-.543 0-1.077-.259-1.59-.77-.4-.402-.79-.587-1.155-.548-.568.061-.956.638-.96.644a.374.374 0 0 1-.627-.405c.023-.036.579-.882 1.508-.98.6-.065 1.194.191 1.763.76.4.4.79.583 1.16.547.582-.059.984-.642.988-.648a.373.373 0 1 1 .622.412m0-2.52c-.024.036-.595.884-1.535.977a1.69 1.69 0 0 1-.174.01c-.543 0-1.077-.26-1.59-.77-.4-.4-.785-.585-1.15-.548-.573.058-.961.64-.965.645a.374.374 0 0 1-.627-.406c.023-.036.579-.883 1.509-.98.6-.065 1.193.191 1.762.76.4.4.79.583 1.16.546.582-.058.984-.64.988-.647a.373.373 0 1 1 .622.413m-9.782.301a.705.705 0 0 1 .446-.886 6.358 6.358 0 0 1 4.38-5.472c3.16-1.027 6.609.574 7.868 3.645l.74-.24-.607 1.508-1.38-.864.737-.238c-1.166-2.787-4.316-4.236-7.193-3.302A5.823 5.823 0 0 0 2.196 7.4a.705.705 0 1 1-.981.851M8 0a8 8 0 1 0 0 16.001 8 8 0 0 0 0-16"/>
</svg>
