<svg xmlns="http://www.w3.org/2000/svg" viewBox="0 0 16 16">
	<g fill="none">
		<path d="M16 8A8 8 0 1 1 0 8a8 8 0 0 1 16 0" class="ti-datastreams-positive-bg" fill="#5d88aa"/>
		<g class="ti-datastreams-positive-logo" fill="#FFF">
			<path d="M9.288 11.457c-.543 0-1.078-.26-1.589-.771-.402-.401-.79-.585-1.156-.545-.569.059-.956.636-.96.642a.373.373 0 0 1-.516.112.375.375 0 0 1-.112-.517c.024-.036.58-.882 1.51-.981.6-.063 1.193.192 1.762.76.4.402.79.584 1.16.548.582-.06.984-.642.987-.647a.375.375 0 0 1 .518-.106.375.375 0 0 1 .105.519c-.024.035-.596.882-1.536.977a1.67 1.67 0 0 1-.173.009m0-2.522c-.543 0-1.078-.258-1.589-.77-.4-.4-.786-.584-1.152-.546-.572.057-.96.638-.965.644a.374.374 0 0 1-.627-.406c.024-.036.58-.882 1.51-.982.6-.063 1.193.193 1.762.761.4.401.79.584 1.16.547.582-.059.984-.642.987-.647a.374.374 0 0 1 .623.413c-.024.036-.596.883-1.536.977a1.67 1.67 0 0 1-.173.01m0-2.512c-.543 0-1.078-.26-1.589-.771-.402-.401-.79-.585-1.156-.546-.569.06-.956.637-.96.643a.374.374 0 0 1-.628-.405c.024-.036.58-.882 1.51-.981.6-.064 1.193.192 1.762.76.4.4.79.585 1.16.548.582-.06.984-.642.987-.647a.374.374 0 0 1 .623.412c-.024.036-.596.883-1.536.978a1.67 1.67 0 0 1-.173.009"/>
			<path d="M2.103 8.703A.705.705 0 0 0 2.196 7.4a5.824 5.824 0 0 1 4.011-4.999c2.876-.934 6.026.515 7.192 3.302l-.734.238 1.377.866.607-1.51-.74.24C12.65 2.466 9.201.865 6.043 1.892A6.358 6.358 0 0 0 1.66 7.365a.705.705 0 0 0 .442 1.338m12.677-.97a.706.706 0 0 0-1.342.436.702.702 0 0 0 .372.418 5.84 5.84 0 0 1-4.003 4.924c-2.81.912-5.934-.482-7.137-3.177l.714-.233-1.377-.864-.608 1.51.759-.247c1.298 2.98 4.722 4.525 7.814 3.52a6.376 6.376 0 0 0 4.373-5.406.706.706 0 0 0 .435-.88"/>
		</g>
	</g>
</svg>
