<svg xmlns="http://www.w3.org/2000/svg" viewBox="0 0 16 16">
	<path class="ti-data-fabric-colored-bg" fill="#0675C1" d="M16.0001,7.9998 C16.0001,12.4178 12.4181,15.9998 8.0001,15.9998 C3.5821,15.9998 0.0001,12.4178 0.0001,7.9998 C0.0001,3.5818 3.5821,-0.0002 8.0001,-0.0002 C12.4181,-0.0002 16.0001,3.5818 16.0001,7.9998"/>
	<g class="ti-data-fabric-colored-logo" fill="#FFF">
		<path d="M9.9352,5.6917 C9.7582,5.1697 9.5142,4.6727 9.2082,4.2147 C10.0242,4.4767 10.7332,4.9947 11.2312,5.6917 L9.9352,5.6917 Z M11.9682,7.7997 L10.3092,7.7997 C10.2942,7.2177 10.2082,6.6407 10.0552,6.0797 L11.4772,6.0797 C11.7702,6.6077 11.9382,7.1957 11.9682,7.7997 Z M11.4792,9.9167 L10.0562,9.9167 C10.2092,9.3567 10.2942,8.7807 10.3092,8.2007 L11.9682,8.2007 C11.9382,8.8027 11.7712,9.3897 11.4792,9.9167 Z M9.2082,11.7857 C9.5152,11.3257 9.7602,10.8277 9.9362,10.3047 L11.2342,10.3047 C10.7362,11.0037 10.0252,11.5227 9.2082,11.7857 Z M8.2012,11.9677 L8.2012,10.3047 L9.5242,10.3047 C9.3142,10.8887 9.0112,11.4367 8.6262,11.9237 C8.4852,11.9457 8.3432,11.9607 8.2012,11.9677 Z M8.2012,8.2007 L9.9202,8.2007 C9.9042,8.7817 9.8142,9.3587 9.6522,9.9167 L8.2012,9.9167 L8.2012,8.2007 Z M8.2012,6.0797 L9.6512,6.0797 C9.8142,6.6387 9.9042,7.2167 9.9202,7.7997 L8.2012,7.7997 L8.2012,6.0797 Z M8.2012,4.0317 C8.3432,4.0397 8.4852,4.0537 8.6262,4.0757 C9.0102,4.5627 9.3122,5.1087 9.5222,5.6917 L8.2012,5.6917 L8.2012,4.0317 Z M7.7992,5.6917 L6.3822,5.6917 C6.5892,5.1167 6.8862,4.5777 7.2632,4.0957 C7.4402,4.0627 7.6192,4.0417 7.7992,4.0317 L7.7992,5.6917 Z M7.7992,7.7997 L5.9842,7.7997 C5.9992,7.2167 6.0902,6.6387 6.2532,6.0797 L7.7992,6.0797 L7.7992,7.7997 Z M7.7992,9.9167 L6.2522,9.9167 C6.0902,9.3587 5.9992,8.7817 5.9842,8.2007 L7.7992,8.2007 L7.7992,9.9167 Z M7.7992,11.9677 C7.6192,11.9587 7.4402,11.9377 7.2632,11.9037 C6.8862,11.4207 6.5872,10.8807 6.3802,10.3047 L7.7992,10.3047 L7.7992,11.9677 Z M4.7662,10.3047 L5.9672,10.3047 C6.1392,10.8117 6.3742,11.2957 6.6682,11.7437 C5.9022,11.4687 5.2382,10.9667 4.7662,10.3047 Z M4.0322,8.2007 L5.5952,8.2007 C5.6102,8.7807 5.6952,9.3567 5.8492,9.9167 L4.5202,9.9167 C4.2292,9.3897 4.0622,8.8027 4.0322,8.2007 Z M4.5232,6.0797 L5.8502,6.0797 C5.6962,6.6407 5.6102,7.2177 5.5952,7.7997 L4.0322,7.7997 C4.0622,7.1957 4.2302,6.6077 4.5232,6.0797 Z M6.6672,4.2567 C6.3742,4.7037 6.1402,5.1857 5.9682,5.6917 L4.7692,5.6917 C5.2412,5.0317 5.9042,4.5307 6.6672,4.2567 Z M8.0002,3.6257 C5.5842,3.6257 3.6252,5.5837 3.6252,7.9997 C3.6252,10.4167 5.5842,12.3747 8.0002,12.3747 C10.4152,12.3727 12.3722,10.4157 12.3752,7.9997 C12.3752,5.5837 10.4162,3.6257 8.0002,3.6257 Z"/>
		<path d="M8.8151,14.3592 C8.6811,14.0222 8.3661,13.7922 8.0041,13.7642 C7.6371,13.7742 7.3131,14.0102 7.1911,14.3572 C4.2971,13.9842 2.0191,11.7042 1.6471,8.8102 C2.0931,8.6572 2.3331,8.1722 2.1811,7.7242 C2.0951,7.4742 1.8991,7.2772 1.6491,7.1912 C2.0301,4.3022 4.3081,2.0332 7.1971,1.6632 C7.3631,2.1082 7.8581,2.3342 8.3031,2.1682 C8.5381,2.0802 8.7221,1.8952 8.8091,1.6602 C11.7031,2.0252 13.9881,4.2932 14.3721,7.1852 C13.9221,7.3262 13.6721,7.8062 13.8141,8.2562 C13.8971,8.5242 14.1071,8.7332 14.3751,8.8162 C13.9991,11.7132 11.7141,13.9922 8.8151,14.3592 M14.8431,7.1672 C14.4481,4.0382 11.9791,1.5782 8.8491,1.1932 C8.7551,0.7262 8.3011,0.4232 7.8341,0.5172 C7.4921,0.5852 7.2241,0.8532 7.1571,1.1952 C4.0371,1.5872 1.5771,4.0402 1.1801,7.1592 C0.7151,7.2592 0.4201,7.7152 0.5191,8.1802 C0.5901,8.5102 0.8471,8.7682 1.1761,8.8392 C1.5661,11.9702 4.0311,14.4362 7.1621,14.8252 C7.2651,15.2902 7.7261,15.5832 8.1901,15.4792 C8.5161,15.4072 8.7711,15.1532 8.8441,14.8282 C11.9831,14.4442 14.4591,11.9722 14.8461,8.8332 C15.2291,8.7382 15.4991,8.3952 15.5001,8.0002 C15.4991,7.6042 15.2281,7.2602 14.8431,7.1672"/>
	</g>
</svg>
