<svg xmlns="http://www.w3.org/2000/svg" viewBox="0 0 14 16">
	<g>
		<path d="M12.789,9.8184 C13.186,9.7004 13.559,9.5674 13.894,9.4154 C14.321,9.2254 14.702,9.0124 15,8.7684 L15,9.3914 L15,10.4354 C15,11.2304 13.892,11.9284 12.2,12.3724 L12.2,12.3794 C12.127,12.3974 12.052,12.4094 11.978,12.4264 C11.742,12.4834 11.5,12.5364 11.243,12.5834 C11.145,12.6014 11.048,12.6154 10.95,12.6314 C10.733,12.6674 10.518,12.7024 10.289,12.7304 C9.956,12.7724 9.622,12.8034 9.285,12.8264 C9.279,12.8264 9.273,12.8274 9.268,12.8284 C9.266,12.8284 9.264,12.8284 9.262,12.8284 C9.126,12.8374 8.989,12.8444 8.852,12.8504 C8.85,12.8504 8.848,12.8504 8.846,12.8504 C8.568,12.8624 8.287,12.8704 8,12.8704 C4.136,12.8704 1,11.7814 1,10.4354 L1,8.7694 L1,8.7684 L1,8.7694 L1,8.7684 C1.121,8.8674 1.267,8.9564 1.411,9.0474 C1.556,9.1374 1.714,9.2224 1.879,9.3044 C1.907,9.3184 1.935,9.3324 1.965,9.3464 C2.13,9.4244 2.302,9.5004 2.484,9.5704 C2.505,9.5784 2.526,9.5854 2.547,9.5924 C2.91,9.7294 3.306,9.8494 3.724,9.9524 C3.763,9.9624 3.799,9.9734 3.838,9.9834 C3.982,10.0174 4.135,10.0474 4.285,10.0774 C4.431,10.1074 4.577,10.1364 4.726,10.1624 C4.854,10.1844 4.983,10.2044 5.113,10.2244 C5.309,10.2534 5.508,10.2784 5.708,10.3014 C5.809,10.3134 5.907,10.3264 6.009,10.3364 C6.661,10.4004 7.332,10.4344 8,10.4344 C8.654,10.4384 9.307,10.3984 9.955,10.3334 C10.098,10.3194 10.234,10.2984 10.374,10.2814 C10.904,10.2164 11.431,10.1284 11.951,10.0174 C12.139,9.9754 12.333,9.9404 12.513,9.8914 C12.604,9.8674 12.699,9.8444 12.789,9.8184 Z M7.9999,6.6085 C4.1359,6.6085 0.9999,5.5205 0.9999,4.1735 L0.9999,2.4345 C0.9999,1.0885 4.1359,0.0005 7.9999,0.0005 C11.8639,0.0005 14.9999,1.0885 14.9999,2.4345 L14.9999,4.1735 C14.9999,5.5205 11.8639,6.6085 7.9999,6.6085 Z M12.789,12.9483 C13.186,12.8303 13.559,12.6973 13.894,12.5463 C14.321,12.3553 14.702,12.1423 15,11.8993 L15,12.5213 L15,13.5653 C15,14.7603 12.526,15.7503 9.268,15.9583 C9.127,15.9673 8.987,15.9743 8.846,15.9803 C8.568,15.9923 8.287,16.0003 8,16.0003 C4.136,16.0003 1,14.9113 1,13.5653 L1,11.8993 C1.12,11.9963 1.265,12.0853 1.408,12.1753 C2.665,12.9643 4.756,13.4273 6.948,13.5383 C7.297,13.5563 7.648,13.5653 8,13.5653 C8.006,13.5653 8.013,13.5643 8.018,13.5643 C8.499,13.5643 8.977,13.5413 9.451,13.5083 C9.575,13.4993 9.699,13.4903 9.822,13.4803 C10.279,13.4393 10.73,13.3863 11.163,13.3153 C11.258,13.2993 11.348,13.2793 11.441,13.2613 C11.812,13.1933 12.171,13.1133 12.513,13.0213 C12.604,12.9973 12.699,12.9743 12.789,12.9483 Z M13.8945,6.2525 C14.3215,6.0615 14.7025,5.8485 14.9995,5.6055 L14.9995,6.2285 L14.9995,7.2715 C14.9995,8.4665 12.5265,9.4575 9.2675,9.6645 C9.1265,9.6735 8.9875,9.6815 8.8455,9.6875 C8.5685,9.6985 8.2875,9.7065 7.9995,9.7065 C4.1355,9.7065 0.9995,8.6175 0.9995,7.2715 L0.9995,5.6055 C1.1205,5.7035 1.2645,5.7925 1.4085,5.8815 C2.6655,6.6705 4.7555,7.1335 6.9485,7.2455 C7.2965,7.2625 7.6485,7.2715 7.9995,7.2715 C8.0055,7.2715 8.0125,7.2715 8.0185,7.2715 C8.4985,7.2705 8.9775,7.2475 9.4515,7.2145 C9.5755,7.2065 9.6995,7.1975 9.8225,7.1865 C10.2795,7.1465 10.7305,7.0925 11.1635,7.0215 C11.2575,7.0055 11.3475,6.9855 11.4415,6.9685 C11.8125,6.8995 12.1705,6.8195 12.5125,6.7285 C12.6045,6.7035 12.6995,6.6815 12.7895,6.6545 C13.1865,6.5375 13.5585,6.4035 13.8945,6.2525 Z" transform="translate(-1)"/>
	</g>
</svg>
