<svg xmlns="http://www.w3.org/2000/svg" viewBox="0 0 32 32">
  <path d="M19.75,19.5l1.24969,2.24994H11.00006L12.24915,19.5ZM31,16.00031V31H15.99969A14.99985,14.99985,0,1,1,31,16.00031ZM19.37488,9.37524a1.125,1.125,0,1,0,1.12494-1.12494A1.1243,1.1243,0,0,0,19.37488,9.37524Zm-4.5-1.68744a1.6875,1.6875,0,1,0,1.6875-1.68744A1.68788,1.68788,0,0,0,14.87488,7.68781Zm-4.49994.78748a1.125,1.125,0,1,0,1.125-1.12494A1.12435,1.12435,0,0,0,10.37494,8.47528ZM23.32825,23.01556,18.79639,14.8573a1.85025,1.85025,0,0,0-.54657-.56689V12.46893a1.06564,1.06564,0,0,0,1.125-.98431,1.06416,1.06416,0,0,0-1.125-.98437H13.74988a1.0641,1.0641,0,0,0-1.12494.98438,1.06558,1.06558,0,0,0,1.12494.98431v1.82147a1.8578,1.8578,0,0,0-.54706.56689L8.67206,23.01556a.60715.60715,0,0,0,.57788.98431H22.74982A.60742.60742,0,0,0,23.32825,23.01556Z"/>
</svg>
