<svg xmlns="http://www.w3.org/2000/svg" width="16" height="16" viewBox="0 0 16 16">
  <path d="M7.0001,0.0002 C10.9001,0.0002 14.0001,1.3002 14.0001,3.0002 L14.0001,5.0002 C14.0001,6.7002 10.9001,8.0002 7.0001,8.0002 C3.1001,8.0002 0.0001,6.7002 0.0001,5.0002 L0.0001,3.0002 C0.0001,1.3002 3.1001,0.0002 7.0001,0.0002 Z M7.0001,9.0002 C9.8001,9.0002 12.6001,8.3002 14.0001,7.0002 L14.0001,9.0002 C14.0001,10.7002 10.9001,12.0002 7.0001,12.0002 C3.1001,12.0002 0.0001,10.7002 0.0001,9.0002 L0.0001,7.0002 C1.4001,8.3002 4.2001,9.0002 7.0001,9.0002 Z M7.0001,13.0002 C9.8001,13.0002 12.6001,12.3002 14.0001,11.0002 L14.0001,13.0002 C14.0001,14.7002 10.9001,16.0002 7.0001,16.0002 C3.1001,16.0002 0.0001,14.7002 0.0001,13.0002 L0.0001,11.0002 C1.4001,12.3002 4.2001,13.0002 7.0001,13.0002 Z" transform="translate(1)"/>
</svg>
