<svg xmlns="http://www.w3.org/2000/svg" viewBox="0 0 16 16">
  <path d="M8.9843,11.3563 C9.2453,11.2223 9.3473,10.9023 9.2143,10.6423 C9.0803,10.3813 8.7593,10.2773 8.4993,10.4123 L6.6643,11.3543 C6.4033,11.4883 6.3013,11.8083 6.4353,12.0693 C6.5683,12.3303 6.8893,12.4323 7.1503,12.2983 L8.9843,11.3563 Z M9.3753,12.1903 L7.3473,13.2313 C7.0583,13.3803 6.9453,13.7333 7.0933,14.0223 C7.2413,14.3103 7.5953,14.4233 7.8833,14.2753 L9.9113,13.2333 C10.1993,13.0853 10.3133,12.7323 10.1653,12.4433 C10.0173,12.1553 9.6633,12.0423 9.3753,12.1903 Z M3.5513,5.9813 C3.6853,6.2423 4.0053,6.3453 4.2663,6.2103 L6.1013,5.2683 C6.3613,5.1343 6.4643,4.8143 6.3313,4.5533 C6.1963,4.2933 5.8773,4.1903 5.6163,4.3243 L3.7813,5.2663 C3.5203,5.4003 3.4183,5.7203 3.5513,5.9813 Z M3.3903,4.4333 L5.4183,3.3913 C5.7073,3.2433 5.8203,2.8893 5.6723,2.6013 C5.5243,2.3133 5.1703,2.1993 4.8823,2.3473 L2.8543,3.3893 C2.5663,3.5363 2.4523,3.8913 2.6003,4.1783 C2.7483,4.4673 3.1023,4.5803 3.3903,4.4333 Z M12.6403,12.0463 C11.8693,10.9963 11.1243,10.2153 10.3833,9.6213 C9.3633,8.8003 8.3593,8.3513 7.3713,8.0253 C7.9603,6.6713 8.1913,5.4673 8.1913,4.4363 C8.1873,1.6473 6.5673,0.2193 6.4933,0.1593 C6.2183,-0.0777 5.8023,-0.0457 5.5663,0.2283 C5.3293,0.5033 5.3603,0.9193 5.6363,1.1563 L5.6353,1.1563 L5.6363,1.1573 C5.7243,1.2403 6.8773,2.3333 6.8753,4.4363 C6.8753,5.3413 6.6653,6.4523 6.0393,7.7883 L6.0353,7.7943 L6.0303,7.8063 C5.4773,9.0873 4.9483,10.4273 4.9503,12.2333 C4.9503,13.1833 5.0923,14.2523 5.4293,15.5123 C5.5073,15.8063 5.7733,16.0003 6.0643,16.0003 C6.1203,16.0003 6.1773,15.9933 6.2343,15.9783 C6.5853,15.8843 6.7943,15.5233 6.7003,15.1723 C6.3873,14.0023 6.2663,13.0503 6.2663,12.2333 C6.2683,11.0693 6.5093,10.1623 6.8603,9.2443 C7.7943,9.5443 8.6523,9.9213 9.5603,10.6473 C10.1973,11.1583 10.8633,11.8493 11.5813,12.8253 C11.7963,13.1183 12.2073,13.1803 12.5003,12.9653 C12.5473,12.9303 12.5893,12.8913 12.6243,12.8473 C12.8063,12.6203 12.8203,12.2913 12.6403,12.0463 Z M3.0983,6.2413 C1.4563,4.9273 1.3253,3.3443 1.3153,3.2233 L1.3153,3.2223 C1.3023,2.8593 0.9983,2.5753 0.6353,2.5873 C0.2723,2.6003 -0.0117,2.9043 0.0003,3.2673 C0.0023,3.3623 0.1013,5.5203 2.2743,7.2683 C2.9303,7.7943 3.7703,8.2743 4.8313,8.6453 L5.3133,7.4183 C4.3593,7.0923 3.6413,6.6773 3.0983,6.2413 Z" transform="translate(1.5)"/>
</svg>
