<svg xmlns="http://www.w3.org/2000/svg" viewBox="0 0 16 16">
	<path d="M15.12,1.25H.88A.88.88,0,0,0,0,2.13V13.87a.88.88,0,0,0,.88.88H15.12a.88.88,0,0,0,.88-.88V2.13A.88.88,0,0,0,15.12,1.25Zm-10,11.89a.44.44,0,0,1-.44.44H1.76a.44.44,0,0,1-.44-.44V11.52a.44.44,0,0,1,.44-.44H4.7a.44.44,0,0,1,.44.44Zm0-3.67a.44.44,0,0,1-.44.44H1.76a.44.44,0,0,1-.44-.44V7.85a.44.44,0,0,1,.44-.44H4.7a.44.44,0,0,1,.44.44Zm0-3.67a.44.44,0,0,1-.44.44H1.76a.44.44,0,0,1-.44-.44V4.18a.44.44,0,0,1,.44-.44H4.7a.44.44,0,0,1,.44.44ZM10,13.14a.44.44,0,0,1-.44.44H6.61a.44.44,0,0,1-.44-.44V11.52a.44.44,0,0,1,.44-.44H9.54a.44.44,0,0,1,.44.44Zm0-3.67a.44.44,0,0,1-.44.44H6.61a.44.44,0,0,1-.44-.44V7.85a.44.44,0,0,1,.44-.44H9.54a.44.44,0,0,1,.44.44ZM10,5.8a.44.44,0,0,1-.44.44H6.61a.44.44,0,0,1-.44-.44V4.18a.44.44,0,0,1,.44-.44H9.54a.44.44,0,0,1,.44.44Zm4.85,7.34a.44.44,0,0,1-.44.44H11.45a.44.44,0,0,1-.44-.44V11.52a.44.44,0,0,1,.44-.44h2.94a.44.44,0,0,1,.44.44Zm0-3.67a.44.44,0,0,1-.44.44H11.45A.44.44,0,0,1,11,9.47V7.85a.44.44,0,0,1,.44-.44h2.94a.44.44,0,0,1,.44.44Zm0-3.67a.44.44,0,0,1-.44.44H11.45A.44.44,0,0,1,11,5.8V4.18a.44.44,0,0,1,.44-.44h2.94a.44.44,0,0,1,.44.44Z"/>
</svg>
