<svg xmlns="http://www.w3.org/2000/svg" viewBox="0 0 16 16">
  <g transform="translate(0 .5)">
    <path d="M9.5153 11.5882C8.8773 11.5882 8.2503 11.2842 7.6493 10.6842 7.1783 10.2132 6.7223 9.9962 6.2933 10.0432 5.6263 10.1142 5.1713 10.7912 5.1673 10.7982 5.0363 11.0012 4.7643 11.0602 4.5613 10.9282 4.3583 10.7972 4.2993 10.5262 4.4313 10.3222 4.4583 10.2802 5.1113 9.2872 6.2013 9.1712 6.9063 9.0972 7.6023 9.3972 8.2693 10.0652 8.7393 10.5332 9.1973 10.7492 9.6303 10.7062 10.3133 10.6372 10.7853 9.9532 10.7893 9.9462 10.9233 9.7442 11.1953 9.6892 11.3973 9.8222 11.5993 9.9562 11.6543 10.2292 11.5203 10.4312 11.4923 10.4732 10.8213 11.4672 9.7183 11.5782 9.6503 11.5852 9.5823 11.5882 9.5153 11.5882M9.5153 8.6302C8.8773 8.6302 8.2503 8.3262 7.6493 7.7262 7.1803 7.2562 6.7273 7.0402 6.2983 7.0842 5.6273 7.1522 5.1703 7.8342 5.1663 7.8412 5.0343 8.0422 4.7623 8.1002 4.5603 7.9682 4.3583 7.8362 4.3003 7.5672 4.4313 7.3632 4.4583 7.3212 5.1113 6.3292 6.2013 6.2132 6.9053 6.1382 7.6023 6.4382 8.2693 7.1062 8.7393 7.5742 9.1973 7.7912 9.6303 7.7472 10.3133 7.6792 10.7853 6.9942 10.7893 6.9872 10.9233 6.7852 11.1953 6.7312 11.3973 6.8642 11.5993 6.9982 11.6543 7.2702 11.5203 7.4722 11.4923 7.5142 10.8213 8.5092 9.7183 8.6192 9.6503 8.6262 9.5823 8.6302 9.5153 8.6302M9.5153 5.682C8.8773 5.682 8.2503 5.378 7.6493 4.778 7.1783 4.306 6.7223 4.09 6.2933 4.136 5.6263 4.207 5.1713 4.884 5.1673 4.891 5.0363 5.095 4.7643 5.153 4.5613 5.022 4.3583 4.89 4.2993 4.62 4.4313 4.415 4.4583 4.373 5.1113 3.38 6.2013 3.265 6.9063 3.19 7.6023 3.49 8.2693 4.158 8.7393 4.627 9.1973 4.842 9.6303 4.799 10.3133 4.731 10.7853 4.046 10.7893 4.039 10.9233 3.837 11.1953 3.783 11.3973 3.916 11.5993 4.05 11.6543 4.322 11.5203 4.524 11.4923 4.566 10.8213 5.561 9.7183 5.671 9.6503 5.678 9.5823 5.682 9.5153 5.682"/>
    <path d="M1.0837 8.3568C1.5187 8.2158 1.7567 7.7488 1.6147 7.3138 1.5427 7.0918 1.3857 6.9218 1.1907 6.8278 1.4417 4.1428 3.2587 1.8198 5.8977.9608 9.2737-.1352 12.9707 1.5658 14.3377 4.8358L13.4757 5.1168 15.0927 6.1298 15.8067 4.3588 14.9377 4.6408C13.4597 1.0378 9.4137-.8412 5.7047.3638 2.8167 1.3018.8317 3.8478.5637 6.7868.1347 6.9308-.0993 7.3938.0407 7.8258.1817 8.2598.6487 8.4988 1.0837 8.3568M15.9592 7.2181C15.8182 6.7831 15.3512 6.5451 14.9162 6.6871 14.4812 6.8281 14.2442 7.2951 14.3852 7.7301 14.4592 7.9561 14.6212 8.1271 14.8212 8.2211 14.5362 10.8661 12.7242 13.1551 10.1232 13.9991 6.8282 15.0711 3.1602 13.4331 1.7482 10.2701L2.5872 9.9971.9702 8.9841.2562 10.7551 1.1472 10.4651C2.6702 13.9621 6.6892 15.7761 10.3172 14.5971 13.1682 13.6711 15.1512 11.1561 15.4492 8.2521 15.8702 8.1021 16.0982 7.6461 15.9592 7.2181"/>
  </g>
</svg>
