<svg xmlns="http://www.w3.org/2000/svg" viewBox="0 0 50 50">
<path d="M17.5,2C7.84,2,0,5.13,0,9v5c0,3.87,7.84,7,17.5,7S35,17.87,35,14V9C35,5.13,27.16,2,17.5,2Z"/>
<polygon points="50 31 40 21 40 26 30 26 30 36 40 36 40 41 50 31"/>
<path d="M28,26V24h6.8a3,3,0,0,0,.2-1V18.21C31.64,21.37,24.54,23,17.5,23S3.36,21.37,0,18.21V23c0,3.87,7.84,7,17.5,7A37.13,37.13,0,0,0,28,28.59Z"/>
<path d="M32.4,38c-3.76,2-9.34,3-14.9,3-7,0-14.14-1.63-17.5-4.79V41c0,3.87,7.84,7,17.5,7S35,44.87,35,41V38Z"/>
<path d="M28,36V30.68A40.47,40.47,0,0,1,17.5,32c-7,0-14.14-1.63-17.5-4.79V32c0,3.87,7.84,7,17.5,7A37.13,37.13,0,0,0,28,37.59Z"/>
</svg>