<svg xmlns="http://www.w3.org/2000/svg" viewBox="0 0 16 16">
  <g transform="translate(5)">
    <path d="M4.0567,13.2928 L2.9997,14.3488 L1.9427,13.2928 C1.7227,13.0718 1.3377,13.0718 1.1177,13.2928 C1.0077,13.4028 0.9467,13.5498 0.9467,13.7058 C0.9467,13.8618 1.0077,14.0078 1.1177,14.1178 L2.9997,15.9998 L4.8817,14.1178 C4.9907,14.0098 5.0537,13.8588 5.0537,13.7058 C5.0537,13.5498 4.9927,13.4028 4.8827,13.2928 C4.6617,13.0718 4.2767,13.0718 4.0567,13.2928"/>
    <polygon points=".149 10.85 5.851 10.85 5.851 9.7 .149 9.7"/>
    <polygon points=".149 8.592 5.851 8.592 5.851 7.442 .149 7.442"/>
    <polygon points=".149 6.3 5.851 6.3 5.851 5.15 .149 5.15"/>
    <path d="M1.943,2.7074 L3,1.6514 L4.057,2.7074 C4.167,2.8174 4.313,2.8784 4.469,2.8784 C4.626,2.8784 4.772,2.8174 4.882,2.7074 C4.992,2.5974 5.053,2.4504 5.053,2.2944 C5.053,2.1404 4.991,1.9894 4.882,1.8824 L3,-0.0006 L1.118,1.8824 C1.007,1.9924 0.947,2.1384 0.947,2.2934 C0.946,2.4504 1.007,2.5974 1.118,2.7074 C1.338,2.9274 1.723,2.9274 1.943,2.7074"/>
  </g>
</svg>
