<svg xmlns="http://www.w3.org/2000/svg" viewBox="0 0 16 16">
  <g>
    <path d="M1.9778516,15.4649815 C1.66479529,15.590204 1.32043336,15.7467321 0.976071422,15.9658715 C0.631709487,16.185011 -0.182236906,15.3084533 0.0369025075,14.995397 C0.256041921,14.6823407 0.381264443,14.3379788 0.537792595,14.0249225 C0.694320748,13.7118661 0.819543269,12.9292254 0.88215453,12.8979198 L7.55025382,6.22982046 C7.64417071,6.13590357 7.80069887,6.13590357 7.86331013,6.22982046 L9.77295359,8.13946392 C9.86687048,8.23338082 9.86687048,8.35860334 9.77295359,8.45252023 L3.10485429,15.1519252 C3.07354866,15.1832308 2.2909079,15.3397589 1.9778516,15.4649815 Z M10.5869,3.16186868 L13.2791842,0.469584457 C13.5922405,0.156528152 13.9992137,-7.10542736e-15 14.4061869,-7.10542736e-15 C14.8131601,-7.10542736e-15 15.2201333,0.156528152 15.5331896,0.469584457 C15.8462459,0.782640762 16.0027741,1.15830833 16.0027741,1.56528152 C16.0027741,1.97225472 15.8462459,2.37922792 15.5331896,2.69228422 L12.8409054,5.38456844 L13.2478786,5.82284727 C13.3731011,5.94806979 13.467018,6.1672092 13.467018,6.35504299 C13.467018,6.54287677 13.3731011,6.76201618 13.2478786,6.8872387 L12.0895702,8.04554703 C11.9330421,8.20207518 11.7452083,8.26468645 11.5573745,8.26468645 C11.3382351,8.26468645 11.1504013,8.20207518 10.9938732,8.04554703 L7.95722702,4.97759525 C7.80069887,4.85237272 7.7380876,4.63323331 7.7380876,4.44539953 C7.7380876,4.25756574 7.80069887,4.03842633 7.95722702,3.91320381 L9.08422972,2.75489548 C9.24075787,2.59836733 9.42859165,2.53575607 9.64773106,2.53575607 C9.83556485,2.53575607 10.0233986,2.59836733 10.1799268,2.75489548 L10.5869,3.16186868 Z"/>
  </g>
</svg>
