<svg xmlns="http://www.w3.org/2000/svg" viewBox="0 0 32 32">
    <path class="ti-elastic-lightest"
          d="M19.89185,17.05542l7.65173-6.71368a8.02124,8.02124,0,0,0,.16125-1.68579A8.55263,8.55263,0,0,0,12.09351,3.8186l-1.27527,6.61108,1.48047,3.16626Z"/>
    <path class="ti-elastic-light"
          d="M28.30585,11.4411,20.83,17.99359l1.50983,2.91705,5.71686,1.334a5.73228,5.73228,0,0,0,.24921-10.80353Z"/>
    <path d="M4.39777,8.49469A4.10975,4.10975,0,0,1,10.74493,3.8186L9.60156,9.72607Zm7.51984,6.37659-7.47583,6.743a8.297,8.297,0,0,0-.16125,1.71509A8.58748,8.58748,0,0,0,19.96515,28.152l1.26062-6.58173L19.54,18.3454Z"/>
    <path class="ti-elastic-lighter"
          d="M10.99414,13.94775l-7.3,6.59644A5.73223,5.73223,0,0,1,3.94336,9.74072l5.71686,1.34857Zm11.43359,8.32617-1.14331,5.89282a4.10221,4.10221,0,0,0,6.33246-4.67615Z"/>
</svg>
