<svg xmlns="http://www.w3.org/2000/svg" viewBox="0 0 16 16">
    <path d="M3.59318313 7.94261981C3.59318313 6.96552447 2.80098675 6.17332809 1.82389141 6.17332809.846796071 6.17332809.0545996881 6.96552447.0545996881 7.94261981.0545996881 8.91971515.846796071 9.71191153 1.82389141 9.71191153 2.80098675 9.71191153 3.59318313 8.91971515 3.59318313 7.94261981M6.2519025 7.94261981C6.2519025 8.91971515 7.04409888 9.71191153 8.01960026 9.71191153 8.99828955 9.71191153 9.78889198 8.91971515 9.78889198 7.94261981 9.78889198 6.96552447 8.99828955 6.17332809 8.01960026 6.17332809 7.04409888 6.17332809 6.2519025 6.96552447 6.2519025 7.94261981M12.4565375 7.94261981C12.4565375 8.91971515 13.2487339 9.71191153 14.2258292 9.71191153 15.2029246 9.71191153 15.9951209 8.91971515 15.9951209 7.94261981 15.9951209 6.96552447 15.2029246 6.17332809 14.2258292 6.17332809 13.2487339 6.17332809 12.4565375 6.96552447 12.4565375 7.94261981"/>
</svg>
