<svg xmlns="http://www.w3.org/2000/svg" viewBox="0 0 16 16">
	<path d="M4.7201,0.0002 L6.7201,0.0002 L0.0001,6.7202 L0.0001,4.7202 L4.7201,0.0002 Z M1.9999,0.0002 L2.5999,0.0002 L-9.99999999e-05,2.6002 L-9.99999999e-05,2.0002 C-9.99999999e-05,0.9002 0.8999,0.0002 1.9999,0.0002 Z M8.85,0.0002 L10.73,0.0002 L2.57571742e-14,10.7302 L2.57571742e-14,8.8402 L8.85,0.0002 Z M13.9999,0.0002 C14.2899,0.0002 14.5599,0.0602 14.8099,0.1702 L0.1699,14.8102 C0.0599,14.5602 -9.99999999e-05,14.2902 -9.99999999e-05,14.0002 L-9.99999999e-05,12.8602 L12.8499,0.0002 L13.9999,0.0002 Z M15.85,1.2502 C15.95,1.4802 16,1.7402 16,2.0002 L16,3.1002 L3.1,16.0002 L2,16.0002 C1.74,16.0002 1.48,15.9502 1.25,15.8502 L15.85,1.2502 Z M7.1,16.0002 L5.22,16.0002 L16,5.2202 L16,7.1102 L7.1,16.0002 Z M11.35,16.0002 L9.23,16.0002 L16,9.2302 L16,11.3502 L11.35,16.0002 Z M13.9999,16.0002 L13.4699,16.0002 L15.9999,13.4702 L15.9999,14.0002 C15.9999,15.1002 15.0999,16.0002 13.9999,16.0002 Z"/>
</svg>
