<svg xmlns="http://www.w3.org/2000/svg" viewBox="0 0 26 16">
	<path d="M5.6797,0 L7.5597,0 L-0.0003,7.56 L-0.0003,5.68 L5.6797,0 Z M2,0 L3.56,0 L3.90798505e-14,3.56 L3.90798505e-14,2 C3.90798505e-14,0.9 0.9,0 2,0 Z M9.6797,0 L11.6897,0 L-0.0003,11.69 L-0.0003,9.68 L9.6797,0 Z M13.8101,0 L15.7001,0 L0.4501,15.25 C0.1701,14.91 0.0001,14.47 0.0001,14 L0.0001,13.81 L13.8101,0 Z M17.8198,0 L19.9398,0 L3.9398,16 L1.9998,16 C1.9398,16 1.8798,16 1.8298,15.99 L17.8198,0 Z M23.9199,0 C23.9599,0 24.0099,0 24.0499,0.01 L8.0599,16 L6.0599,16 L22.0599,0 L23.9199,0 Z M25.46,0.73 C25.74,1.08 25.92,1.52 25.92,2 L25.92,2.15 L12.07,16 L10.18,16 L25.46,0.73 Z M16.3198,16 L14.1998,16 L25.9198,4.28 L25.9198,6.4 L16.3198,16 Z M20.73,16 L18.44,16 L25.92,8.52 L25.92,10.81 L20.73,16 Z M23.9199,16 L22.8599,16 L25.9199,12.93 L25.9199,14 C25.9199,15.1 25.0199,16 23.9199,16 Z"/>
</svg>
