<svg xmlns="http://www.w3.org/2000/svg" viewBox="0 0 16 16">
	<path d="M14.995 0a.997.997 0 0 0-.707.293L.311 14.27a1 1 0 0 0 1.414 1.414L15.702 1.707A.999.999 0 0 0 14.995 0M12 7.905a4.312 4.312 0 0 1-4 4.071 4.295 4.295 0 0 1-.965-.188l-1.708 1.708a7.204 7.204 0 0 0 2.673.48c3.566.057 6.777-2.65 8-6a9.67 9.67 0 0 0-1.957-3.196l-2.226 2.226c.088.29.157.587.183.9m-7.999.14A4.234 4.234 0 0 1 8 3.977c.346.023.675.099.993.198L10.7 2.466a7.245 7.245 0 0 0-2.7-.49c-3.565-.057-6.776 2.65-8 6a9.675 9.675 0 0 0 1.976 3.216l2.217-2.218a4.252 4.252 0 0 1-.192-.927"/>
</svg>
