<svg xmlns="http://www.w3.org/2000/svg" viewBox="0 0 16 16">
	<g>
		<path fill-rule="evenodd" d="M1.12084451,9.12565445 C1.12084451,7.67713787 2.20916938,6.5078534 3.55739273,6.5078534 C3.638611,6.5078534 3.70358562,6.5078534 3.7848039,6.52530541 L4.09343334,6.57766143 C5.18175821,6.83944154 5.99394095,7.88656195 5.99394095,9.12565445 C5.99394095,10.574171 4.90561608,11.7434555 3.55739273,11.7434555 C2.20916938,11.7434555 1.12084451,10.574171 1.12084451,9.12565445 Z M8.78784958,7.92146597 C8.78784958,8.39267016 8.43048918,8.77661431 7.9919105,8.77661431 C7.55333182,8.77661431 7.19597141,8.39267016 7.19597141,7.92146597 C7.19597141,7.45026178 7.55333182,7.06631763 7.9919105,7.06631763 C8.43048918,7.06631763 8.78784958,7.45026178 8.78784958,7.92146597 Z M12.1990171,6.52530541 C12.2802354,6.52530541 12.34521,6.5078534 12.4264283,6.5078534 C13.7744892,6.5078534 14.8629765,7.67713787 14.8629765,9.12565445 C14.8629765,10.574171 13.7744892,11.7434555 12.4264283,11.7434555 C11.0782049,11.7434555 9.98988004,10.574171 9.98988004,9.12565445 C9.98988004,7.86910995 10.8020628,6.83944154 11.8903877,6.57766143 L12.1990171,6.52530541 Z M8.88531151,9.59685864 C9.09647902,11.4816754 10.6069765,12.965096 12.4264283,12.965096 C14.3919105,12.965096 16.0000323,11.2373473 16.0000323,9.12565445 C16.0000323,8.04363002 15.5776973,7.06631763 14.911545,6.36823735 C14.8142455,6.28097731 14.7330272,6.19371728 14.6355653,6.10645724 L13.2871795,4.88481675 C12.767545,4.48342059 12.1501237,4.2390925 11.4842963,4.18673647 L11.5492709,4.2565445 L10.7370882,3.36649215 C10.509677,3.13961606 10.2008851,3 9.87601202,3 C9.29140288,3.01745201 8.80409324,3.41884817 8.64165669,3.97731239 C8.47922014,3.87260035 7.52084451,3.85514834 7.3421643,3.97731239 C7.17972775,3.41884817 6.69241811,3.03490401 6.12389019,3.03490401 C5.79901709,3.03490401 5.49038765,3.17452007 5.26297649,3.40139616 L4.45079374,4.29144852 L4.51576836,4.22164049 C3.84977852,4.27399651 3.23251963,4.51832461 2.71272268,4.91972077 L1.36449933,6.14136126 C1.2670374,6.22862129 1.16957547,6.31588133 1.0883572,6.40314136 C0.422367349,7.10122164 3.23232323e-05,8.07853403 3.23232323e-05,9.16055846 C3.23232323e-05,11.2722513 1.60815415,13 3.57363638,13 C5.37668207,12.965096 6.88734197,11.4991274 7.09850948,9.59685864 C7.35840796,9.7539267 8.62541303,9.77137871 8.88531151,9.59685864 Z"/>
	</g>
</svg>
