<svg xmlns="http://www.w3.org/2000/svg" viewBox="0 0 16 16">
    <path class="ti-file" d="M11,0H3V8H4V1H9V6h6v9H4V14H3v2H16V5ZM10,5V1l4,4Z"/>
    <path class="ti-file-xml-o-badge" d="M4,8.05658H0v6H13v-6Zm-.94531,4.98828-.31836-.70947c-.04883-.106-.0957-.2124-.14062-.31836s-.0918-.22021-.14062-.34229H2.43066q-.06738.18311-.12891.34229c-.04.106-.083.2124-.12793.31836l-.29395.70947H.75391L1.83105,11.0014.81543,9.0683h1.1748l.26855.64844q.06738.14063.13184.30273c.043.1084.09277.22754.15039.35791h.02441c.04492-.13037.08691-.24951.12793-.35791.041-.10791.08008-.209.11621-.30273L3.042,9.0683H4.168L3.15234,11.05072l1.07715,1.99414Zm5.542,0H7.61816v-1.1748c0-.10156.00488-.21387.01563-.33643.00977-.12207.02148-.24756.0332-.376.0127-.12842.02637-.25391.043-.37646.0166-.12207.03027-.23242.043-.33008H7.72852l-.33008.92969-.55078,1.33984h-.3916L5.90527,11.3808l-.31836-.92969H5.5625c.0127.09766.02637.208.043.33008.0166.12256.03027.248.043.37646.01172.12842.02344.25391.0332.376.01074.12256.01563.23486.01563.33643v1.1748h-.9668V9.0683H5.81934l.624,1.65186.2207.64844h.02441l.21973-.64844L7.50781,9.0683H8.59668Zm3.43848,0H9.47754V9.0683h1.05273V12.164h1.50488Z"/>
</svg>