<svg xmlns="http://www.w3.org/2000/svg" viewBox="0 0 16 16">
    <path class="ti-file" d="M11,0H3V8H4V1H9V6h6v9H4V14H3v2H16V5ZM10,5V1l4,4Z"/>
    <path class="ti-file-json-o-badge" d="M7.76123,10.45313a1.2248,1.2248,0,0,1,.1709.70068,1.302,1.302,0,0,1-.1709.71631.55437.55437,0,0,1-.94287,0,1.29778,1.29778,0,0,1-.1709-.71631,1.221,1.221,0,0,1,.1709-.70068.57267.57267,0,0,1,.94287,0ZM13,8.05658v6H0v-6H13ZM2.30371,9.51221h-.877v2.09033a1.09557,1.09557,0,0,1-.02539.26025.455.455,0,0,1-.07129.16309.2345.2345,0,0,1-.11475.084.49427.49427,0,0,1-.15527.02295.38773.38773,0,0,1-.21924-.07666.64672.64672,0,0,1-.19873-.23926l-.5918.44336a1.22412,1.22412,0,0,0,.4541.47412,1.358,1.358,0,0,0,.67773.15283,1.18634,1.18634,0,0,0,.49707-.09668.97141.97141,0,0,0,.34912-.2627,1.11986,1.11986,0,0,0,.20654-.38477,1.55547,1.55547,0,0,0,.06885-.46924ZM5.3623,11.82715a.90154.90154,0,0,0-.168-.56592,1.08751,1.08751,0,0,0-.479-.3418l-.40283-.1582c-.15332-.05762-.27295-.10742-.35937-.15039a.197.197,0,0,1-.13037-.18066.18529.18529,0,0,1,.0918-.16846.49325.49325,0,0,1,.25488-.05615.91566.91566,0,0,1,.33936.06152,1.5873,1.5873,0,0,1,.32373.17822L5.271,9.895A1.426,1.426,0,0,0,4.748,9.55811a1.67955,1.67955,0,0,0-.57861-.10693,1.46417,1.46417,0,0,0-.49707.08154,1.23753,1.23753,0,0,0-.38965.22168,1.026,1.026,0,0,0-.25488.32666.88721.88721,0,0,0-.0918.3999.9503.9503,0,0,0,.05322.32617.91424.91424,0,0,0,.14551.2627.98569.98569,0,0,0,.21387.19873,1.20846,1.20846,0,0,0,.25488.13525l.41309.17334c.07129.02734.13428.05176.18848.07373a1.08192,1.08192,0,0,1,.14063.06885.31318.31318,0,0,1,.08887.07666.16463.16463,0,0,1,.03076.10205.19818.19818,0,0,1-.08936.17334.52435.52435,0,0,1-.28809.061.98183.98183,0,0,1-.38965-.08936,1.67081,1.67081,0,0,1-.38525-.23193l-.49951.60156a1.72577,1.72577,0,0,0,.604.35938,1.99146,1.99146,0,0,0,.65039.11475,1.6173,1.6173,0,0,0,.55029-.08643,1.25377,1.25377,0,0,0,.40527-.23193.98237.98237,0,0,0,.33887-.7417Zm3.46729-.67334a2.17158,2.17158,0,0,0-.1123-.72363A1.55183,1.55183,0,0,0,8.40381,9.895,1.28864,1.28864,0,0,0,7.917,9.56348a1.81435,1.81435,0,0,0-1.25684,0,1.317,1.317,0,0,0-.48437.32861,1.51261,1.51261,0,0,0-.31348.53564,2.18213,2.18213,0,0,0-.1123.72607,2.23037,2.23037,0,0,0,.1123.73193,1.55762,1.55762,0,0,0,.31348.54541,1.336,1.336,0,0,0,.48438.33887,1.74353,1.74353,0,0,0,1.25684,0,1.32865,1.32865,0,0,0,.48682-.33887,1.57282,1.57282,0,0,0,.31348-.54541A2.24332,2.24332,0,0,0,8.82959,11.15381Zm3.28271-1.6416h-.83594v.9585c0,.10205.00391.2085.0127.31885s.01758.2207.02832.33154q.01465.16553.03516.32373c.01367.105.02539.20215.03613.29053h-.02051l-.31641-.74463-.7334-1.47852H9.4209v3.314h.83594v-.9585a5.31244,5.31244,0,0,0-.041-.64209q-.041-.33691-.07129-.62207H10.165l.31641.73926.7334,1.4834h.89746Z"/>
</svg>