<svg xmlns="http://www.w3.org/2000/svg" viewBox="0 0 32 32">
  <path class="ti-file" d="M21.99986,25.00005v-8.0001a2.50377,2.50377,0,0,0-2-2H14l3.88566,6.11324L14,27.00008h5.99992A2.50288,2.50288,0,0,0,21.99986,25.00005ZM12,14.99992H2.00012a1.95877,1.95877,0,0,0-2,2v8.0001a1.95877,1.95877,0,0,0,2,2H12L15.99994,21ZM6.06148,24.81731l-3.6457-3.6458L4.0753,19.51207l1.98618,1.98709L9.92483,17.6357l1.65952,1.65945Z"/>
  <path class="ti-file-job-o-badge" d="M22,0H6V15H8V2H19V12H30V30H8V27H6v5H32V10ZM21,10V2l8,8Z"/>
</svg>
