<svg xmlns="http://www.w3.org/2000/svg" viewBox="0 0 32 32">
  <path class="ti-file" d="M22,0H6V14H8V2H19V12H30V30H8V28H6v4H32V10ZM21,10V2l8,8Z"/>
  <path class="ti-file-xls-o-badge" d="M8,15H0V27H26V15Zm7,10H10V17h2v6h3Zm6.78841-1.5683a2.21452,2.21452,0,0,1-.60547.81348,2.98032,2.98032,0,0,1-.97266.55664,3.87081,3.87081,0,0,1-1.32031.208,4.7929,4.7929,0,0,1-1.56055-.27539,4.12,4.12,0,0,1-1.44922-.8623l1.19922-1.44336a3.98322,3.98322,0,0,0,.92383.55664,2.35914,2.35914,0,0,0,.93555.21387,1.255,1.255,0,0,0,.69141-.14648.475.475,0,0,0,.21289-.416.39862.39862,0,0,0-.07227-.24512.76.76,0,0,0-.21484-.18359,2.45219,2.45219,0,0,0-.33594-.165c-.13086-.05273-.28125-.1123-.45312-.17773l-.99023-.416a2.93776,2.93776,0,0,1-.61328-.32422,2.40573,2.40573,0,0,1-.51367-.47656,2.21224,2.21224,0,0,1-.34766-.62988,2.28384,2.28384,0,0,1-.12891-.7832,2.14885,2.14885,0,0,1,.2207-.96094,2.44638,2.44638,0,0,1,.61133-.7832,2.97307,2.97307,0,0,1,.93555-.53223,3.52433,3.52433,0,0,1,1.19336-.19531,4.03586,4.03586,0,0,1,1.38867.25684,3.41113,3.41113,0,0,1,1.25391.80762L20.724,19.14948a3.833,3.833,0,0,0-.77539-.42871,2.2191,2.2191,0,0,0-.81445-.14648,1.16783,1.16783,0,0,0-.61133.13477.44369.44369,0,0,0-.2207.40332.47276.47276,0,0,0,.3125.43457c.207.10254.49609.22266.86133.36133l.9668.37891a2.61813,2.61813,0,0,1,1.15039.82031,2.1637,2.1637,0,0,1,.4043,1.35742A1.893,1.893,0,0,1,21.78841,23.4317ZM7,25s-.90039-1.75586-1-2H6c-.08984.24414-1,2-1,2H3l2-4L3,17H5s.88672,1.73926,1,2H6c.08984-.26074,1-2,1-2H9L7,21l2,4Z"/>
</svg>
