<svg xmlns="http://www.w3.org/2000/svg" viewBox="0 0 32 32">
  <path class="ti-file" d="M22,0H6V15H8V2H19V12H30V30H8V27H6v5H32V10ZM21,10V2l8,8Z"/>
  <path class="ti-file-xlsx-o-badge" d="M8,15H0V27H26V15ZM5.5166,24.314l-.5293-1.18262q-.123-.26514-.23437-.53027c-.07617-.17676-.1543-.36719-.23633-.57129H4.47754c-.07617.2041-.14648.39453-.21484.57129s-.13867.35352-.21484.53027L3.55957,24.314h-1.877l1.79492-3.40527L1.78418,17.686h1.959l.44727,1.08105c.07617.15625.14844.3252.2207.50488.07031.18066.1543.37891.25.59668H4.7002c.07617-.21777.14648-.416.21484-.59668.06836-.17969.13281-.34863.19336-.50488L5.49707,17.686h1.875L5.68066,20.98975l1.793,3.32422Zm7.05664,0H8.31152V17.686h1.75391v5.16016h2.50781Zm5.35352-1.19336a1.9882,1.9882,0,0,1-.50586.67871,2.49722,2.49722,0,0,1-.81055.46387,3.23646,3.23646,0,0,1-1.10156.17285A3.97174,3.97174,0,0,1,14.21,24.20654a3.44681,3.44681,0,0,1-1.209-.71875l1-1.20312a3.295,3.295,0,0,0,.76953.46387,1.96732,1.96732,0,0,0,.7793.17871,1.04871,1.04871,0,0,0,.57617-.12207.39554.39554,0,0,0,.17773-.34668.3288.3288,0,0,0-.06055-.2041.62637.62637,0,0,0-.17773-.15332,2.10347,2.10347,0,0,0-.28125-.1377c-.10742-.04395-.23437-.09277-.377-.14746l-.82617-.34668a2.46542,2.46542,0,0,1-.50977-.27051,2.01717,2.01717,0,0,1-.42773-.39746,1.82847,1.82847,0,0,1-.291-.52539,1.92411,1.92411,0,0,1-.10742-.65234,1.80043,1.80043,0,0,1,.18359-.7998,2.07986,2.07986,0,0,1,.50977-.65332,2.49619,2.49619,0,0,1,.78125-.44336,2.92431,2.92431,0,0,1,.99414-.16309,3.35379,3.35379,0,0,1,1.15625.21387,2.84032,2.84032,0,0,1,1.04492.67383l-.877,1.10059a3.16906,3.16906,0,0,0-.64648-.35645,1.82615,1.82615,0,0,0-.67773-.123.97682.97682,0,0,0-.50977.1123.3687.3687,0,0,0-.18359.33691.39291.39291,0,0,0,.25977.36133c.17383.08594.41211.18555.71875.30078l.80469.31641a2.16709,2.16709,0,0,1,.959.68359,1.80309,1.80309,0,0,1,.33594,1.13184A1.95126,1.95126,0,0,1,17.92676,23.12061ZM22.36035,24.314l-.5293-1.18262q-.123-.26514-.23437-.53027c-.07617-.17676-.1543-.36719-.23633-.57129h-.03906c-.07617.2041-.14648.39453-.21484.57129s-.13867.35352-.21484.53027L20.40332,24.314h-1.877l1.79492-3.40527L18.62793,17.686h1.959l.44727,1.08105c.07617.15625.14844.3252.2207.50488.07031.18066.1543.37891.25.59668h.03906c.07617-.21777.14648-.416.21484-.59668.06836-.17969.13281-.34863.19336-.50488l.38867-1.08105h1.875l-1.69141,3.30371,1.793,3.32422Z"/>
</svg>
