<svg version="1.1" xmlns="http://www.w3.org/2000/svg" viewBox="0 0 36 36">
<path d="M25,0H7v11h2V2h14v11h11v21H9v-3H7v5h29V11L25,0z M25,11V3l8,8H25z"/>
<path d="M9.7,13.2c0.1,0,0.1,0,0.2-0.1c0.3-0.8,1-1.5,1.8-1.8c0.1,0,0.1-0.1,0.1-0.2c0-0.1-0.1-0.1-0.2-0.1h0c0,0,0,0,0,0
	c-0.2,0.1-0.5,0.1-0.7,0.2c0-0.1-0.1-0.1-0.2-0.1c0,0,0,0,0,0l0,0c-0.2,0-0.5,0.1-0.7,0.3c-0.2,0.2-0.3,0.4-0.3,0.7
	c0,0.1,0,0.2,0.1,0.2c0,0,0,0,0.1,0c-0.1,0.2-0.2,0.5-0.3,0.7C9.5,13.1,9.6,13.2,9.7,13.2z M23.6,19c0,1.5-0.8,2.8-2,3.6
	c-0.9,0.4-1.9,0.6-2.9,0.4c-0.1,0.2-0.1,0.3-0.2,0.5c-0.3,0.7-0.9,1.2-1.7,1.3c-0.3,0-0.6-0.1-0.8-0.2c-0.2-0.1-0.4-0.3-0.6-0.5
	c-0.1-0.1-0.3-0.3-0.4-0.4c0,0,0,0,0,0.1c0.2,0.3,0.2,0.6,0.4,0.9c0.2,0.3,0.2,0.7,0.3,1.1c0,0.4,0,0.7,0,1.1
	c0.1,0.2,0.2,0.5,0.1,0.7c0,0.3-0.1,0.6-0.4,0.8c-0.3,0.1-0.5,0.2-0.8,0.1c-0.2,0-1,0-1.2,0c-0.2,0-0.3,0-0.5-0.1
	c-0.1,0-0.2-0.1-0.2-0.1c-0.2,0.1-0.4,0.3-0.5,0.5c-0.1,0.1-0.2,0.2-0.3,0.2c0,0-0.1,0.1-0.2,0.1c-0.1,0.1-0.1,0.3-0.2,0.4
	c-0.1,0.2-0.2,0.3-0.4,0.4c-0.4,0.3-0.9,0.3-1.4,0c-0.4-0.3-0.7-0.7-1-1.1c-0.2-0.3-0.4-0.6-0.5-1c-0.1-0.2-0.1-0.4-0.1-0.6
	c0-0.2,0.2-0.4,0.4-0.5c0,0,0.1,0,0.1,0c-0.4,0-0.8,0-1.2,0c0,0,0,0,0,0.1c0,0.2,0,0.3,0,0.5c0,0.2-0.1,0.3-0.2,0.5
	C7.1,27.7,7,28,6.9,28.2c0,0.3,0,0.6-0.1,0.9c-0.1,0.2-0.2,0.4-0.5,0.5c-0.2,0.1-0.5,0.1-0.7,0.1c-0.4,0-0.9-0.1-1.3-0.3
	C4,29.4,3.6,29.2,3.2,29c-0.2-0.1-0.3-0.3-0.4-0.5c-0.1-0.2,0-0.5,0.1-0.7c0-0.1,0.1-0.2,0.1-0.4c-0.3,0-0.6,0-0.9-0.2
	c-0.3-0.2-0.7-0.4-0.9-0.7c-0.4-0.4-0.6-0.9-0.7-1.4c0-0.2,0-0.3,0-0.5c0.1-0.1,0.2-0.2,0.3-0.3c0.2-0.2,0.5-0.5,0.7-0.7
	c0.1-0.3,0.2-0.5,0.3-0.8c0-0.2-0.1-0.4-0.1-0.6c-0.1-0.6,0-1.2,0-1.8c-0.2,0-0.3,0-0.5,0c-0.3-0.1-0.5-0.3-0.6-0.5
	c-0.1-0.2-0.2-0.4-0.2-0.6c0,0,0,0,0,0c-0.2-0.2-0.3-0.5-0.3-0.8c0.1-0.3,0.2-0.6,0.4-0.8c0.2-0.2,0.4-0.4,0.7-0.6
	c0.2-0.1,0.4-0.2,0.6-0.3c0,0,0.1,0,0.1,0c0.1,0,0.1,0.1,0.1,0.2c-0.1,0.2-0.1,0.3-0.2,0.4c0.1,0.1,0.2,0.3,0.3,0.5
	c0,0.2,0,0.4-0.1,0.7c0,0,0,0.1-0.1,0.1c-0.1,0.1-0.2,0-0.2,0c0,0,0,0,0,0c-0.1-0.1-0.1-0.2-0.1-0.2c0,0.1,0,0.2,0,0.3
	c0,0.2-0.1,0.3-0.2,0.5c0,0,0,0,0,0c0,0,0.1,0,0.1,0C2,19,2.3,18.8,2.5,18.5c0.3-0.6,0.7-1.1,1.2-1.6C5,15.7,6.2,15.3,8.1,15
	c0.2-0.3,0.5-0.5,0.8-0.8c0.3-0.3,0.6-0.5,1-0.5c0.5-0.8,1.2-1.5,2.1-1.9c0.9-0.4,1.8-0.7,2.8-0.6l0,0c0.9,0.1,1.8,0.5,2.5,1.1
	c0.5,0.5,1,0.9,1.6,1.3c0.3,0.2,0.6,0.4,0.8,0.7c0.3,0.3,0.5,0.7,0.6,1.1c0.2-0.1,0.3-0.1,0.5-0.3c0.2-0.2,0.4-0.5,0.6-0.8
	c0.1-0.1,0.2-0.2,0.4-0.2c0.1,0,0.3,0,0.4,0.1c0.3,0.1,0.5,0.3,0.6,0.5C23.5,16.1,23.7,17.6,23.6,19z M20.4,15.8
	c0.2,0.1,0.3,0.1,0.5,0.2c0.3,0.2,1.1-0.8,1.1-1.2l-0.1-0.1c0,0-0.1,0-0.1,0c-0.2,0.3-0.5,0.5-0.8,0.7
	C20.9,15.6,20.7,15.7,20.4,15.8z M1.3,18.5c0-0.2,0-0.5,0.1-0.7c-0.1,0.1-0.3,0.3-0.4,0.4c-0.1,0.1-0.1,0.3-0.2,0.4
	c0,0.1,0.1,0.3,0.2,0.4c0,0,0,0,0,0C1.2,18.9,1.3,18.7,1.3,18.5z M3.3,26.4c-0.5-0.7-0.8-1.5-1.1-2.3l0,0l0,0c0,0,0,0,0,0.1
	c-0.2,0.2-0.5,0.5-0.7,0.7c0,0-0.1,0.1-0.1,0.2c0,0,0,0,0,0.2c0.1,0.4,0.3,0.7,0.5,1c0.2,0.2,0.5,0.4,0.7,0.5
	c0.1,0.1,0.3,0.1,0.4,0.1c0.1,0,0.2,0,0.2-0.1C3.2,26.6,3.3,26.5,3.3,26.4z M15,26.9c0-0.4,0-0.8,0-1.2c0-0.3-0.1-0.6-0.2-0.9
	c0,0,0-0.1,0-0.1c-0.1,0.3-0.2,0.6-0.3,0.9c-0.1,0.4-0.3,0.8-0.6,1.2c-0.2,0.3-0.4,0.6-0.6,0.9c0.1,0,0.2,0,0.2,0c0.1,0,0.3,0,0.6,0
	c0.2,0,0.5,0,0.6,0c0.1,0,0.3,0,0.4,0c0,0,0.1-0.1,0.1-0.3C15.1,27.1,15.1,27.2,15,26.9C15,26.9,15,26.9,15,26.9z M18.3,22.9
	c-0.1,0.1-1.4-0.7-1.5-0.7c0,0-0.5,1.8,0.3,1.8C17.9,24,18.3,22.9,18.3,22.9z M22.4,15.2c0,0-0.1-0.1-0.1-0.1
	c-0.2,0.6-0.6,1.1-1.2,1.3c-0.2,0.1-0.3,0.1-0.5,0c-0.1,0-0.2-0.1-0.3-0.1c0,0,0,0.1,0,0.1c0.1,0.5,0.1,1,0,1.5
	c-0.1,0.5-0.2,0.9-0.4,1.4c0,0-0.1,0.1-0.2,0.1c-0.1,0-0.1-0.1-0.1-0.2c0.1-0.4,0.2-0.8,0.2-1.3c0-0.2,0-0.4,0-0.6
	c-0.1,0-0.1,0.1-0.2,0.1c-0.1,0.1-0.1,0.1-0.2,0.2c-0.2,0.4-0.2,0.8-0.5,1.3c0,0.1-0.1,0.1-0.2,0.1c0,0,0,0,0,0
	c-0.1,0-0.1-0.1-0.1-0.2c0.1-0.2,0.1-0.4,0.1-0.6c0-0.3,0.1-0.5,0.1-0.8c0,0,0,0,0-0.1c-0.1,0.1-0.2,0.2-0.3,0.3
	c-0.1,0.3-0.3,0.5-0.4,0.7c0,0.1-0.1,0.1-0.2,0c-0.1,0-0.1-0.1-0.1-0.2c0.1-0.3,0.2-0.6,0.3-0.9c0.2-0.3,0.6-0.6,1-0.6
	c0.1,0,0.3,0,0.4,0c0,0,0,0,0-0.1c-0.1,0-0.3,0-0.3,0c-0.2,0-0.4,0-0.6,0.1c-0.1,0-0.1,0-0.2-0.1c0-0.1,0-0.2,0.1-0.2
	c0,0,0.1,0,0.1,0c-0.1-0.1-0.1-0.2-0.1-0.4c0,0,0,0,0,0h0c-0.1,0-0.2,0-0.2,0c-0.1,0-0.1-0.1-0.1-0.2c0,0,0.1-0.1,0.1-0.1
	c0.2,0,0.4-0.1,0.5-0.2l0,0h0c0,0,0,0,0,0h0c0.1-0.1,0.3-0.1,0.4-0.1c0,0,0.1,0,0.1,0c-0.1-0.2-0.2-0.4-0.3-0.6
	c-0.2-0.2-0.4-0.4-0.6-0.5c-0.1,0-0.1-0.1-0.2-0.1c-0.2,0-0.4-0.1-0.6,0c-0.1,0-0.1,0-0.2-0.1c0-0.1,0-0.2,0.1-0.2
	c0.1,0,0.1,0,0.2,0c-0.3-0.3-0.6-0.5-1-0.8c-0.6-0.6-1.4-1-2.2-1l0,0c-0.9,0-1.8,0.2-2.6,0.7c-0.5,0.2-1,0.6-1.3,1.1
	c0.4,0,0.8,0,1.2-0.1c0.1,0,0.1,0,0.1,0.1c0,0.1,0,0.2-0.1,0.2c-0.6,0.1-1.1,0.2-1.6,0.3c-0.2,0-0.4,0.1-0.6,0.1
	c-0.2,0.1-0.4,0.2-0.5,0.4c-0.8,0.8-1.5,1.8-2.3,2.6c-0.4,0.5-0.7,1-0.9,1.5C6.1,19,6,19.2,6,19.4c0,0.2,0.1,0.4,0.3,0.5
	c0.2,0.3,0.4,0.6,0.6,1c0.4-0.5,0.8-1,1.2-1.6c0-0.1,0.1-0.1,0.2,0c0.1,0,0.1,0.1,0.1,0.2c-0.4,0.7-0.8,1.3-1.1,2
	c-0.2,0.3-0.3,0.6-0.3,1c0.4,0.4,0.6,0.6,0.9,0.7c0.3,0.1,0.7,0.1,1-0.1c0.8-0.5,1.7-0.9,2.6-1.1c0.4-1,0.4-2,0.1-3
	c-0.1-0.9-0.1-1.7,0.1-2.6c0-0.1,0.1-0.1,0.2-0.1c0.1,0,0.1,0.1,0.1,0.2c0,0.8,0.1,1.6,0.3,2.5c0.3,1.2,0.2,2.5-0.2,3.6
	c0,0.1-0.1,0.1-0.1,0.1c-1,0-1.9,0.6-2.8,1.2c-0.4,0.2-0.9,0.3-1.4,0.1c-0.6-0.2-1.1-0.6-1.4-1.1c0,0,0-0.1,0-0.1
	c0-0.3,0.1-0.7,0.2-1c-0.2-0.5-0.4-0.9-0.8-1.3c-0.2-0.3-0.4-0.6-0.4-0.9c0-0.3,0.1-0.7,0.3-1c0.2-0.6,0.6-1.1,0.9-1.6
	c0.3-0.4,0.6-0.7,0.9-1.1c-1.2,0.2-2.3,0.7-3.1,1.5c-0.7,0.7-1.3,1.6-1.6,2.6c-0.2,0.7-0.3,1.5-0.2,2.3c0.2,1.4,0.8,2.8,1.6,4
	c0,0,0,0.1,0,0.1c-0.1,0.6-0.2,1.2-0.4,1.8c0,0.1,0,0.2,0,0.2c0.1,0.1,0.1,0.1,0.2,0.2c0.2,0.1,0.5,0.2,0.7,0.2
	c0.3,0.1,0.6,0.2,0.9,0.2c0.2,0,0.3,0,0.5,0c0.1,0,0.1-0.1,0.2-0.1c0.1-0.2,0.1-0.5,0-0.7c0,0,0-0.1,0-0.1c0.1-0.3,0.3-0.6,0.5-0.8
	c0.1-0.2,0.2-0.4,0.2-0.7c0-0.4,0-1.2,0-1.6c0-0.1,0.1-0.2,0.1-0.2c0.1,0,0.2,0.1,0.2,0.1c0,0,0,0,0,0c0.1,0.2,0.1,0.6,0.2,0.9
	c0.8,0.1,1.6,0.1,2.5,0c0,0,0-0.1,0-0.1C9.9,25.4,10,25.2,10,25c0-0.1,0.1-0.1,0.2-0.1c0.1,0,0.2,0.1,0.1,0.2c0,0.2,0,0.4,0,0.6
	c0,0.2,0,0.4,0,0.6c0,0.1,0,0.2,0,0.4c0,0.1,0,0.1-0.1,0.2c-0.1,0-0.2,0-0.2-0.1c0,0,0,0,0,0c0-0.1-0.1-0.1-0.1-0.2
	C9.6,26.8,9.3,27,9,27.2c-0.1,0-0.1,0.1-0.1,0.1c0,0.1,0,0.2,0.1,0.3c0.1,0.2,0.2,0.4,0.3,0.6c0.2,0.3,0.4,0.6,0.6,0.8
	c0.2,0.2,0.5,0.2,0.7,0.1c0.2-0.2,0.4-0.4,0.5-0.6c0,0,0,0,0,0c0,0,0.1-0.1,0.3-0.2c0.1-0.1,0.3-0.2,0.5-0.4
	c0.2-0.1,0.3-0.3,0.5-0.4c0.1-0.1,0.2-0.2,0.3-0.2c0,0,0.1,0,0.1-0.1c0-0.1,0.1-0.1,0.2-0.2c0.1-0.2,0.3-0.4,0.4-0.6
	c0.1-0.2,0.3-0.4,0.4-0.6c0.1-0.1,0.1-0.3,0.2-0.4c0.3-0.7,0.5-1.5,0.6-2.2c-0.5-0.2-0.9-0.6-1.2-1c-0.1-0.1-0.1-0.2,0-0.2
	c0.1-0.1,0.1-0.1,0.2,0c0,0,0,0,0,0c0.5,0.4,1,0.7,1.6,0.9c0,0,0,0,0.1,0c0.2,0.2,0.5,0.4,0.7,0.6c0.2,0.2,0.3,0.3,0.5,0.4
	c0,0-0.1,0-0.1-0.1c-0.1-0.1-0.1-0.3-0.1-0.5c0-0.3,0.1-0.6,0.2-0.9c0.1-0.3,0.1-0.6,0-0.9c0,0,0-0.1,0-0.1c0,0,0,0-0.1,0
	c0,0-0.1,0.1-0.1,0.1c-0.1,0.2-0.2,0.4-0.2,0.6c0,0.1-0.1,0.1-0.1,0.1c-0.1,0-0.2-0.1-0.1-0.2c0-0.2,0.1-0.4,0.1-0.5
	c0-0.2,0.1-0.3,0.1-0.4c0.1-0.1,0.3-0.2,0.4-0.2c0.1,0,0.4-0.1,0.5-0.1c0.1,0,0.1,0,0.1,0.1c0,0.1,0,0.2-0.1,0.2
	c-0.1,0.1-0.3,0.1-0.4,0.2c0,0,0,0,0.1,0c0.2,0.2,0.4,0.3,0.7,0.4c1.3,0.5,2.8,0.9,4.1,0.2c1-0.7,1.6-1.8,1.7-3
	C23,17.7,22.8,16.4,22.4,15.2z M17.4,16.7c-0.2,0-0.4,0-0.6,0.1c0,0,0-0.1,0-0.1c-0.1-0.1-0.2-0.2-0.3-0.3c0.1-0.1,0.2-0.1,0.3-0.2
	c0.1-0.1,0.1-0.2,0-0.2c0,0-0.1-0.1-0.1-0.1l0,0c0,0,0,0-0.1,0C16.4,16,16.2,16,16,16.1c-0.2,0-0.4,0.1-0.6,0.2
	c-0.2,0.2-0.4,0.3-0.5,0.5c-0.1,0.2-0.3,0.4-0.5,0.5c-0.1,0.1-0.1,0.2,0,0.2c0,0,0.1,0.1,0.2,0c0.2-0.1,0.3-0.2,0.4-0.3
	c0,0.1,0,0.1,0,0.1c0.1,0.1,0.2,0.2,0.3,0.3c-0.1,0.1-0.1,0.2-0.2,0.4c0,0.1,0,0.2,0.1,0.2c0.1,0,0.1,0,0.2,0c0.5-0.6,1.2-1.1,2-1.3
	c0.1,0,0.1-0.1,0.1-0.2C17.5,16.8,17.5,16.7,17.4,16.7L17.4,16.7z M15.3,14.8c0.1,0,0.1-0.1,0.1-0.2c0-0.1-0.1-0.1-0.2-0.1h0
	c0,0,0,0,0,0c-0.4,0.1-0.9,0.3-1.2,0.6c-0.2,0.3-0.2,0.7-0.1,1.1c0,0.1,0.1,0.1,0.2,0.1c0,0,0,0,0,0c0.1,0,0.1-0.1,0.1-0.1
	C14.3,15.6,14.7,15,15.3,14.8z M11.9,14.6L11.9,14.6c-0.5,0.1-0.9,0.1-1.4,0.2c-0.1,0-0.3,0-0.4,0.1c-0.1,0.1-0.3,0.2-0.4,0.3
	c-0.3,0.4-0.5,0.8-0.6,1.2c-0.1,0.4-0.3,0.8-0.4,1.3c0,0.1,0,0.2,0.1,0.2c0.1,0,0.2,0,0.2-0.1c0,0,0,0,0,0c0.1-0.2,0.3-0.7,0.5-1.1
	c0.1-0.2,0.2-0.5,0.4-0.7c0,0.2,0,0.4,0.1,0.7c0,0.1,0.1,0.1,0.2,0.1c0,0,0,0,0,0c0.1,0,0.1-0.1,0.1-0.1c0.1-0.5,0.3-0.9,0.6-1.3
	c0.4-0.1,0.8-0.2,1.1-0.4c0.1,0,0.1-0.1,0.1-0.2C12,14.6,12,14.5,11.9,14.6z"/>
</svg>
