<svg xmlns="http://www.w3.org/2000/svg" viewBox="0 0 16 15">
	<path d="M14.618 10.982c.781-.39 1.171-.91 1.171-1.626 0-1.366-1.04-2.081-2.666-2.081-.91 0-1.692.325-2.407.976l.975 1.235c.456-.39.846-.585 1.301-.585.521 0 .781.26.781.65 0 .52-.39.846-1.626.846v1.43c1.561 0 1.821.326 1.821.91 0 .456-.39.717-1.106.717-.52 0-1.04-.261-1.496-.716l-.91 1.236c.585.65 1.431 1.04 2.667 1.04 1.56 0 2.861-.78 2.861-2.146 0-1.04-.585-1.626-1.366-1.886m-6.243-.585l-.911-.325c-.715-.26-1.106-.391-1.106-.781 0-.325.326-.52.781-.52.586 0 .975.195 1.496.52l.975-1.236c-.715-.715-1.691-1.04-2.536-1.04-1.691 0-2.862 1.04-2.862 2.34 0 1.107.716 1.822 1.561 2.147l.976.39c.65.26 1.04.39 1.04.716 0 .325-.26.52-.846.52-.585 0-1.235-.325-1.756-.715l-1.17 1.366c.845.715 1.951 1.106 2.862 1.106 1.886 0 2.991-1.171 2.991-2.407 0-1.04-.519-1.691-1.495-2.081m2.148-6.456c.353.368.841.616 1.358.616.646 0 1.03-.323 1.03-.803 0-.503-.36-.661-.826-.871l-.707-.308c-.458-.196-.998-.548-.998-1.27 0-.75.661-1.305 1.554-1.305.586 0 1.104.248 1.45.608l-.33.405c-.302-.285-.67-.465-1.12-.465-.556 0-.923.278-.923.72 0 .473.435.654.82.819l.704.3c.57.248 1.013.586 1.013 1.314 0 .78-.645 1.404-1.68 1.404a2.374 2.374 0 0 1-1.72-.728l.375-.436zM4.186.09h.646l.516 2.68.293 1.59h.03c.106-.531.225-1.064.346-1.59L6.7.09h.57l.685 2.68c.111.518.232 1.059.351 1.59h.03c.098-.531.188-1.064.278-1.59L9.133.09h.609L8.72 5.015h-.76l-.743-2.966c-.082-.382-.165-.735-.232-1.118h-.03c-.083.383-.167.736-.249 1.118L5.97 5.015h-.74L4.186.09zM2.905 3.513H1.111L.638 5.014H0L1.667.09h.705l1.667 4.924h-.661l-.473-1.5zm-.157-.503l-.233-.75A47.739 47.739 0 0 1 2.027.6h-.03a47.739 47.739 0 0 1-.488 1.66l-.24.75h1.479z"/>
</svg>
