<svg xmlns="http://www.w3.org/2000/svg" viewBox="0 0 32 32">
  <path class="ti-file" d="M22,0H6V14H8V2H19V12H30V30H8V28H6v4H32V10ZM21,10V2l8,8Z"/>
  <path class="ti-file-xlsx-o-badge" d="M8,15H0V27H26V15Zm4,10H8V17h2v6h2Zm6.31689-1.53133a2.31453,2.31453,0,0,1-.58889.79011,2.9071,2.9071,0,0,1-.94358.54A3.76766,3.76766,0,0,1,15.50206,25a4.62363,4.62363,0,0,1-1.512-.26716,4.01254,4.01254,0,0,1-1.40742-.83672l1.16413-1.4006a3.8358,3.8358,0,0,0,.89584.54,2.29022,2.29022,0,0,0,.9072.208,1.22084,1.22084,0,0,0,.67074-.14211.46046.46046,0,0,0,.20691-.40358.38277.38277,0,0,0-.07048-.2376.72917.72917,0,0,0-.20691-.17849,2.44872,2.44872,0,0,0-.32741-.1603c-.12505-.05116-.27284-.108-.43882-.17166l-.96177-.40358a2.87007,2.87007,0,0,1-.59343-.31491,2.34826,2.34826,0,0,1-.49794-.4627,2.12858,2.12858,0,0,1-.33878-.61162,2.23992,2.23992,0,0,1-.12505-.75941,2.09594,2.09594,0,0,1,.21373-.93108A2.42124,2.42124,0,0,1,13.674,17.706a2.90589,2.90589,0,0,1,.90948-.51613A3.40428,3.40428,0,0,1,15.7408,17a3.90425,3.90425,0,0,1,1.346.249,3.30651,3.30651,0,0,1,1.21643.78443l-1.02089,1.28123a3.68921,3.68921,0,0,0-.75259-.41495,2.12588,2.12588,0,0,0-.789-.14324,1.13714,1.13714,0,0,0-.59343.13074.42922.42922,0,0,0-.21373.39221A.4574.4574,0,0,0,15.236,19.7c.20236.1.47975.216.83672.35015l.93676.36834a2.52278,2.52278,0,0,1,1.11638.79579A2.099,2.099,0,0,1,18.517,22.5319,2.27152,2.27152,0,0,1,18.31689,23.46867ZM5,25s-.90039-1.75586-1-2L3,25H1l2-4L1,17H3s.88672,1.73926,1,2l1-2H7L5,21l2,4Zm18,0s-.90039-1.75586-1-2h0c-.08984.24414-1,2-1,2H19l2-4-2-4h2s.88672,1.73926,1,2h0c.08984-.26074,1-2,1-2h2l-2,4,2,4Z"/>
</svg>
