<svg xmlns="http://www.w3.org/2000/svg" viewBox="0 0 32 32">
  <path class="ti-file" d="M22,0H6V15H8V2H19V12H30V30H8V27H6v5H32V10ZM21,10V2l8,8Z"/>
  <path class="ti-file-xls-o-badge" d="M8,15H0V27H26V15Zm-.55859,9.86334L6.80469,23.4444c-.09766-.21191-.19141-.4248-.28125-.63672s-.18359-.44043-.28125-.68457H6.19336q-.13477.36621-.25781.68457c-.08008.21191-.166.4248-.25586.63672L5.0918,24.86334h-2.252l2.1543-4.08691L2.96289,16.91022H5.3125l.53711,1.29688q.13477.28125.26367.60547c.08594.2168.18555.45508.30078.71582h.04883c.08984-.26074.17383-.499.25586-.71582.082-.21582.16016-.418.23242-.60547L7.416,16.91022H9.668L7.63672,20.87506,9.791,24.86334Zm8.4668,0H10.793V16.91022h2.10547v6.19141H15.9082Zm6.42188-1.43164a2.33611,2.33611,0,0,1-.60547.81348,2.98032,2.98032,0,0,1-.97266.55664,3.87081,3.87081,0,0,1-1.32031.208,4.7929,4.7929,0,0,1-1.56055-.27539,4.12,4.12,0,0,1-1.44922-.8623l1.19922-1.44336a3.98322,3.98322,0,0,0,.92383.55664,2.35914,2.35914,0,0,0,.93555.21387,1.255,1.255,0,0,0,.69141-.14648.475.475,0,0,0,.21289-.416.39864.39864,0,0,0-.07227-.24512.7601.7601,0,0,0-.21484-.18359,2.45219,2.45219,0,0,0-.33594-.165c-.13086-.05273-.28125-.1123-.45312-.17773l-.99023-.416a2.93776,2.93776,0,0,1-.61328-.32422,2.40573,2.40573,0,0,1-.51367-.47656,2.21224,2.21224,0,0,1-.34766-.62988,2.28384,2.28384,0,0,1-.12891-.7832,2.14885,2.14885,0,0,1,.2207-.96094,2.44638,2.44638,0,0,1,.61133-.7832,2.97307,2.97307,0,0,1,.93555-.53223,3.52433,3.52433,0,0,1,1.19336-.19531,4.03586,4.03586,0,0,1,1.38867.25684,3.41113,3.41113,0,0,1,1.25391.80762l-1.05273,1.32129a3.833,3.833,0,0,0-.77539-.42871,2.2191,2.2191,0,0,0-.81445-.14648,1.16783,1.16783,0,0,0-.61133.13477.44369.44369,0,0,0-.2207.40332.47276.47276,0,0,0,.3125.43457c.207.10254.49609.22266.86133.36133l.9668.37891a2.61813,2.61813,0,0,1,1.15039.82031,2.1637,2.1637,0,0,1,.4043,1.35742A2.34087,2.34087,0,0,1,22.33008,23.4317Z"/>
</svg>
