<svg version="1.1" xmlns="http://www.w3.org/2000/svg" x="0px" y="0px" viewBox="0 0 36 36">
	<path class="ti-file" d="M25,0H7v11h2V2h14v11h11v21H9v-3H7v5h29V11L25,0z M25,11V3l8,8H25z"/>
	<path class="ti-file-connect-o-badge" d="M15.2,19.1c-0.1,0.3-0.1,0.6-0.2,0.9H9.9c-0.2-0.6-0.8-1-1.4-1C7.7,19,7,19.7,7,20.5S7.7,22,8.5,22c0.7,0,1.2-0.4,1.4-1
		h5.1c0,0.3,0.1,0.5,0.2,0.8l-1.6,0.7c-0.3-0.3-0.7-0.5-1.1-0.5c-0.8,0-1.5,0.7-1.5,1.5s0.7,1.5,1.5,1.5s1.5-0.7,1.5-1.5
		c0,0,0-0.1,0-0.1l1.6-0.7c0.2,0.4,0.5,0.7,0.8,1L13,28.1c-0.1,0-0.3-0.1-0.5-0.1c-0.8,0-1.5,0.7-1.5,1.5s0.7,1.5,1.5,1.5
		s1.5-0.7,1.5-1.5c0-0.3-0.1-0.6-0.2-0.8l3.4-4.4c0.7,0.4,1.5,0.7,2.3,0.7c2.5,0,4.5-2,4.5-4.5S22,16,19.5,16
		c-0.8,0-1.6,0.2-2.3,0.6l-2.5-3.3c0.2-0.2,0.3-0.5,0.3-0.8c0-0.8-0.7-1.5-1.5-1.5S12,11.7,12,12.5s0.7,1.5,1.5,1.5
		c0.2,0,0.3,0,0.4-0.1l2.5,3.3c-0.3,0.3-0.6,0.6-0.8,1L3,12.6c0,0,0-0.1,0-0.1C3,11.7,2.3,11,1.5,11S0,11.7,0,12.5S0.7,14,1.5,14
		c0.4,0,0.8-0.2,1.1-0.5L15.2,19.1z"/>
</svg>
