<svg xmlns="http://www.w3.org/2000/svg" viewBox="0 0 16 16">
	<g fill="none" fill-rule="evenodd">
		<path fill="#5D88AA" d="M6.0798,8.6552 C6.0398,8.7752 6.0398,8.8952 5.9998,9.0152 L3.9598,9.0152 C3.8748,8.7782 3.6518,8.6182 3.3998,8.6152 C3.0678,8.6152 2.7998,8.8842 2.7998,9.2152 C2.7998,9.5472 3.0688,9.8152 3.3998,9.8152 C3.6558,9.8242 3.8848,9.6602 3.9598,9.4152 L5.9998,9.4152 C6.0078,9.5262 6.0348,9.6342 6.0798,9.7352 L5.4398,10.0152 C5.3248,9.8942 5.1668,9.8222 4.9998,9.8152 C4.6678,9.8152 4.3998,10.0842 4.3998,10.4152 C4.3998,10.7462 4.6678,11.0152 4.9998,11.0152 C5.3308,11.0152 5.5998,10.7462 5.5998,10.4152 L5.5998,10.3752 L6.2398,10.0952 C6.3238,10.2452 6.4318,10.3802 6.5598,10.4952 L5.1998,12.2552 C5.1338,12.2382 5.0668,12.2242 4.9998,12.2152 C4.6678,12.2152 4.3998,12.4842 4.3998,12.8152 C4.3998,13.1462 4.6678,13.4152 4.9998,13.4152 C5.3308,13.4152 5.5998,13.1462 5.5998,12.8152 C5.5968,12.7042 5.5698,12.5942 5.5198,12.4952 L6.8798,10.7352 C7.1578,10.9052 7.4748,11.0022 7.7998,11.0152 C8.7938,11.0152 9.5998,10.2092 9.5998,9.2152 C9.5998,8.2212 8.7938,7.4152 7.7998,7.4152 C7.4768,7.4142 7.1608,7.4962 6.8798,7.6552 L5.8798,6.3352 C5.9598,6.2482 6.0028,6.1332 5.9998,6.0152 C5.9998,5.6832 5.7308,5.4152 5.3998,5.4152 C5.0688,5.4152 4.7998,5.6832 4.7998,6.0152 C4.7998,6.3462 5.0688,6.6152 5.3998,6.6152 C5.4798,6.6152 5.5198,6.6152 5.5598,6.5752 L6.5598,7.8952 C6.4318,8.0102 6.3238,8.1452 6.2398,8.2952 L1.1998,6.0552 L1.1998,6.0152 C1.1918,5.6872 0.9278,5.4232 0.5998,5.4152 C0.2678,5.4152 -0.0002,5.6842 -0.0002,6.0152 C-0.0002,6.3462 0.2688,6.6142 0.5998,6.6152 C0.7668,6.6082 0.9248,6.5362 1.0398,6.4152 L6.0798,8.6552 Z"/>
		<path fill="#000" d="M10.5852,5.0004 L10.5852,1.0004 L14.5852,5.0004 L10.5852,5.0004 Z M10.9602,0.0004 L3.3852,0.0004 C3.2192,0.0004 3.0852,0.1344 3.0852,0.3004 L3.0852,5.2004 C3.0852,5.3654 3.2192,5.5004 3.3852,5.5004 L3.7882,5.5004 C3.9542,5.5004 4.0882,5.3654 4.0882,5.2004 L4.0882,1.0004 L9.5852,1.0004 L9.5852,5.7004 C9.5852,5.8664 9.7192,6.0004 9.8852,6.0004 L15.0852,6.0004 L15.0852,15.0004 L4.0842,15.0004 L4.0842,13.8024 C4.0842,13.6354 3.9492,13.5004 3.7822,13.5004 L3.3862,13.5004 C3.2202,13.5004 3.0852,13.6354 3.0852,13.8024 L3.0852,15.7004 C3.0852,15.8664 3.2192,16.0004 3.3852,16.0004 L15.7852,16.0004 C15.9512,16.0004 16.0852,15.8664 16.0852,15.7004 L16.0852,5.1244 C16.0852,5.0444 16.0532,4.9684 15.9972,4.9124 L11.1732,0.0874 C11.1162,0.0314 11.0402,0.0004 10.9602,0.0004 Z"/>
	</g>
</svg>
