<svg xmlns="http://www.w3.org/2000/svg" viewBox="0 0 36 36">
<path d="M25,0H7V11H9V2H23V13H34V34H9V31H7v5H36V11Zm0,11V3l8,8Z"/>
<path d="M9,19.79a.42.42,0,0,0-.38.19.78.78,0,0,0-.11.31H9.5A.66.66,0,0,0,9.41,20,.41.41,0,0,0,9,19.79Z"/>
<path d="M6.43,20.59a2.64,2.64,0,0,0-.36,0,.59.59,0,0,0-.38.1.29.29,0,0,0-.12.26.32.32,0,0,0,0,.17.27.27,0,0,0,.08.08.6.6,0,0,0,.39.08,2.75,2.75,0,0,0,.36,0h0Z"/>
<path d="M14.38,19.79A.42.42,0,0,0,14,20a1,1,0,0,0-.12.53A1,1,0,0,0,14,21a.42.42,0,0,0,.38.19.42.42,0,0,0,.38-.19,1.19,1.19,0,0,0,0-1.06A.42.42,0,0,0,14.38,19.79Z"/>
<path d="M19.67,19.79a.42.42,0,0,0-.38.19.77.77,0,0,0-.11.31h.95A.66.66,0,0,0,20,20,.41.41,0,0,0,19.67,19.79Z"/>
<path d="M18,15.16a4.88,4.88,0,0,0-2,.42,4.05,4.05,0,0,0-3.53-2.09,4,4,0,0,0-2.9,1.25,4.45,4.45,0,0,0-7.62,4.46A3.87,3.87,0,0,0,3.82,26.4a3.72,3.72,0,0,0,.79-.08,4.12,4.12,0,0,0,7.65.19A3.61,3.61,0,0,0,17,25a5,5,0,1,0,1-9.86ZM4.9,20.94c0,.4-.29.65-.76.65a1.39,1.39,0,0,1-.68-.16l-.13-.08s0,0,0-.05L3.41,21a0,0,0,0,1,.06,0l.08,0a1.11,1.11,0,0,0,.6.17c.2,0,.33-.11.33-.25h0c0-.16-.19-.22-.42-.29H4c-.31-.09-.64-.22-.64-.61h0a.66.66,0,0,1,.73-.63h0a1.34,1.34,0,0,1,.67.18,0,0,0,0,1,0,.05l-.1.26s-.06,0-.06,0a1.35,1.35,0,0,0-.6-.15c-.18,0-.3.1-.3.23h0c0,.15.2.22.43.29h0c.31.1.64.23.64.6Zm1.92.52-.09,0-.33.06a2.4,2.4,0,0,1-.4,0,1.61,1.61,0,0,1-.35,0,.74.74,0,0,1-.27-.12.55.55,0,0,1-.17-.21.7.7,0,0,1-.06-.3.64.64,0,0,1,.07-.31.63.63,0,0,1,.19-.22.86.86,0,0,1,.28-.13,1.28,1.28,0,0,1,.33,0h.21l.22,0V20.2c0-.18,0-.26-.11-.32A.53.53,0,0,0,6,19.8a1.35,1.35,0,0,0-.58.13h0a0,0,0,0,1,0,0l-.09-.25a0,0,0,0,1,0-.05,1.3,1.3,0,0,1,.41-.15l.36,0a.9.9,0,0,1,.61.18.74.74,0,0,1,.21.58v1.21A0,0,0,0,1,6.82,21.46Zm.89,0a0,0,0,0,1,0,0H7.33a0,0,0,0,1,0,0V18.67a0,0,0,0,1,0,0h.35a0,0,0,0,1,0,0Zm2.2-.91a0,0,0,0,1,0,0H8.55a.54.54,0,0,0,.61.6,1.28,1.28,0,0,0,.54-.1,0,0,0,0,1,.05,0l.09.24s0,.06,0,.06a1.39,1.39,0,0,1-.67.13,1.34,1.34,0,0,1-.48-.08.86.86,0,0,1-.33-.22.87.87,0,0,1-.19-.34,1.42,1.42,0,0,1-.06-.42,1.5,1.5,0,0,1,.06-.42,1,1,0,0,1,.18-.34.87.87,0,0,1,.31-.23,1,1,0,0,1,.44-.09,1,1,0,0,1,.38.08.77.77,0,0,1,.25.19.83.83,0,0,1,.17.31A1.43,1.43,0,0,1,9.91,20.59Zm1.1,1a1.39,1.39,0,0,1-.68-.16l-.13-.08s0,0,0-.05l.09-.26a0,0,0,0,1,.06,0l.08,0a1.12,1.12,0,0,0,.6.17c.2,0,.33-.11.33-.25h0c0-.16-.19-.22-.42-.29h0c-.31-.09-.64-.22-.64-.61h0a.66.66,0,0,1,.73-.63h0a1.34,1.34,0,0,1,.67.18,0,0,0,0,1,0,.05l-.1.26s-.06,0-.06,0a1.35,1.35,0,0,0-.6-.15c-.18,0-.3.1-.3.23h0c0,.15.2.22.43.29h0c.31.1.64.23.64.6h0C11.78,21.34,11.49,21.59,11,21.59Zm2.32-1.79a0,0,0,0,1,0,0h-.44l-.3,1.69a2.53,2.53,0,0,1-.12.45.88.88,0,0,1-.17.3.61.61,0,0,1-.25.17,1,1,0,0,1-.33.05.79.79,0,0,1-.19,0l-.12,0a0,0,0,0,1,0-.05l.1-.27a0,0,0,0,1,0,0l.07,0h.11l.16,0A.25.25,0,0,0,12,22a.68.68,0,0,0,.09-.19,2.1,2.1,0,0,0,.08-.33l.3-1.66h-.29s0,0,0,0l0-.28a0,0,0,0,1,0,0h.3l0-.09a1.1,1.1,0,0,1,.27-.6.76.76,0,0,1,.56-.2h.18l.13,0a0,0,0,0,1,0,0l-.1.28s0,0-.06,0l-.07,0h-.11l-.14,0a.29.29,0,0,0-.11.07.39.39,0,0,0-.09.14,1.81,1.81,0,0,0-.07.3h.42s0,0,0,0Zm1.94,1.14a1,1,0,0,1-.18.34.85.85,0,0,1-.3.23,1.12,1.12,0,0,1-.84,0,.84.84,0,0,1-.3-.23,1,1,0,0,1-.18-.34,1.57,1.57,0,0,1,0-.84,1,1,0,0,1,.18-.34.86.86,0,0,1,.3-.23,1.09,1.09,0,0,1,.84,0,.86.86,0,0,1,.3.23,1,1,0,0,1,.18.34,1.57,1.57,0,0,1,0,.84Zm1.64-1.39-.1.28s0,0,0,0l-.15,0a.62.62,0,0,0-.18,0,.41.41,0,0,0-.16.1.5.5,0,0,0-.12.2,1.17,1.17,0,0,0,0,.35v1a0,0,0,0,1,0,0h-.35a0,0,0,0,1,0,0v-2a0,0,0,0,1,0,0h.34a0,0,0,0,1,0,0v.16a.6.6,0,0,1,.22-.17.66.66,0,0,1,.34-.05,1.11,1.11,0,0,1,.22,0A0,0,0,0,1,16.92,19.54Zm1.66,1.94a1.59,1.59,0,0,1-.55.1,1,1,0,0,1-.77-.29,1.13,1.13,0,0,1-.26-.78,1.35,1.35,0,0,1,.06-.42,1,1,0,0,1,.19-.34.91.91,0,0,1,.32-.23,1.06,1.06,0,0,1,.44-.08l.29,0,.26.07a0,0,0,0,1,0,0l-.1.27s0,0,0,0A1.29,1.29,0,0,0,18,19.8a.51.51,0,0,0-.44.19.83.83,0,0,0-.15.52.75.75,0,0,0,.17.54.59.59,0,0,0,.45.17h.21l.18-.05a0,0,0,0,1,.05,0l.1.27A0,0,0,0,1,18.58,21.48Zm2-.89a0,0,0,0,1,0,0H19.17a.54.54,0,0,0,.61.6,1.27,1.27,0,0,0,.54-.1,0,0,0,0,1,.05,0l.09.24s0,.06,0,.06a1.39,1.39,0,0,1-.67.13,1.33,1.33,0,0,1-.48-.08.85.85,0,0,1-.53-.56,1.42,1.42,0,0,1-.06-.42,1.48,1.48,0,0,1,.06-.42.94.94,0,0,1,.18-.34.87.87,0,0,1,.31-.23,1,1,0,0,1,.44-.09,1,1,0,0,1,.38.08.77.77,0,0,1,.25.19.82.82,0,0,1,.17.31A1.42,1.42,0,0,1,20.54,20.59Z"/>
<path d="M6.07,21.24a.6.6,0,0,1-.39-.08.27.27,0,0,1-.08-.08.32.32,0,0,1,0-.17.29.29,0,0,1,.12-.26.59.59,0,0,1,.38-.1,2.64,2.64,0,0,1,.36,0v.6h0A2.75,2.75,0,0,1,6.07,21.24Z"/>
</svg>