<svg xmlns="http://www.w3.org/2000/svg" viewBox="0 0 32 32">
  <path class="ti-file" d="M17,19a6.05494,6.05494,0,0,0-.1084-1.12011L19,16.00978l-2.65633-2.99219-1.5253,1.35452A5.98483,5.98483,0,0,0,13,13.34962V11H9v2.34962A5.985,5.985,0,0,0,7.18157,14.3721L5.65617,13.01759,3,16.00981l2.10838,1.87011a5.84824,5.84824,0,0,0,0,2.24121L3,21.99219l2.65618,2.99018,1.52541-1.35349A6.00819,6.00819,0,0,0,9,24.65227V27h4V24.65231a6.00881,6.00881,0,0,0,1.81839-1.0234l1.5253,1.35349L19,21.99223,16.8916,20.12114A6.05014,6.05014,0,0,0,17,19Zm-6,3a3,3,0,1,1,3-3A3.00326,3.00326,0,0,1,11,22Z"/>
  <path class="ti-file-cog-o-badge" d="M22,0H6V11H8V2H19V12H30V30H8V27H6v5H32V10ZM21,10V2l8,8Z"/>
</svg>
