<svg xmlns="http://www.w3.org/2000/svg" viewBox="0 0 32 32">
  <path class="ti-file" d="M22,0H6V14H8V2H19V12H30V30H8V28H6v4H32V10ZM21,10V2l8,8Z"/>
  <path class="ti-file-csv-o-badge" d="M8,15H0V27H26V15Zm.12012,9.68164a3.40328,3.40328,0,0,1-1.39551.293,4.34808,4.34808,0,0,1-1.48047-.25,3.41529,3.41529,0,0,1-1.22363-.75879,3.60208,3.60208,0,0,1-.832-1.27246,4.78987,4.78987,0,0,1-.30566-1.78027,4.66874,4.66874,0,0,1,.31836-1.78027,3.87478,3.87478,0,0,1,.85645-1.30957,3.70925,3.70925,0,0,1,1.24219-.81348,3.93138,3.93138,0,0,1,1.47363-.28125,3.01181,3.01181,0,0,1,1.377.31152,4.03572,4.03572,0,0,1,1.0459.74023L8.0459,19.07715a2.759,2.759,0,0,0-.57422-.39746,1.4936,1.4936,0,0,0-.67285-.14062,1.53,1.53,0,0,0-.67969.15918,1.668,1.668,0,0,0-.5625.45313,2.237,2.237,0,0,0-.37988.72168,3.08823,3.08823,0,0,0-.14062.9668,2.73725,2.73725,0,0,0,.47168,1.72461,1.50156,1.50156,0,0,0,1.24121.59961,1.687,1.687,0,0,0,.80176-.17773,2.16807,2.16807,0,0,0,.59375-.458l1.14941,1.27246A3.38386,3.38386,0,0,1,8.12012,24.68164Zm7.32813-1.28516a2.33611,2.33611,0,0,1-.60547.81348,3.00078,3.00078,0,0,1-.97266.55664,3.87662,3.87662,0,0,1-1.32129.208,4.78286,4.78286,0,0,1-1.55957-.27539,4.13262,4.13262,0,0,1-1.4502-.8623l1.19922-1.44336a4.00365,4.00365,0,0,0,.92383.55664,2.3628,2.3628,0,0,0,.93555.21387,1.255,1.255,0,0,0,.69141-.14648.47578.47578,0,0,0,.21387-.416.39909.39909,0,0,0-.07324-.24512.75477.75477,0,0,0-.21387-.18359,2.46847,2.46847,0,0,0-.33691-.165c-.12988-.05273-.28125-.1123-.45215-.17773l-.99121-.416a2.93087,2.93087,0,0,1-.6123-.32422,2.38284,2.38284,0,0,1-.51367-.47656,2.21458,2.21458,0,0,1-.34863-.62988,2.28391,2.28391,0,0,1-.12793-.7832,2.14806,2.14806,0,0,1,.21973-.96094,2.44949,2.44949,0,0,1,.6123-.7832,2.96222,2.96222,0,0,1,.93555-.53223,3.52028,3.52028,0,0,1,1.19336-.19531,4.0442,4.0442,0,0,1,1.38867.25684,3.41113,3.41113,0,0,1,1.25391.80762l-1.05273,1.32129a3.86489,3.86489,0,0,0-.77637-.42871,2.21018,2.21018,0,0,0-.81348-.14648,1.17407,1.17407,0,0,0-.6123.13477.44288.44288,0,0,0-.21973.40332.47317.47317,0,0,0,.31152.43457q.312.15381.8623.36133l.9668.37891a2.61813,2.61813,0,0,1,1.15039.82031,2.16335,2.16335,0,0,1,.40332,1.35742A2.33984,2.33984,0,0,1,15.44824,23.39648ZM21,25H18l-2-8h2l.98438,3.34961q.17139.63721.29395,1.25488c.08105.41113.17871.834.293,1.26563h.04883c.11426-.43164.21484-.85449.2998-1.26562q.12891-.61816.28809-1.25488L21,17h2Z"/>
</svg>
