<svg xmlns="http://www.w3.org/2000/svg" viewBox="0 0 16 16">
    <path class="ti-file" d="M11,0H3V8H4V1H9V6h6v9H4V14H3v2H16V5ZM10,5V1l4,4Z"/>
    <path class="ti-file-txt-o-badge" d="M4,8.05658H0v6H13v-6Zm.6084,1.836H3.55664v3.0957H2.50391V9.89258H1.45215V9.01172H4.6084Zm2.38574,3.0957-.31738-.70947c-.0498-.106-.09668-.2124-.14062-.31836-.0459-.106-.0918-.22021-.1416-.34229H6.37012c-.04492.12207-.08691.23633-.12793.34229s-.084.2124-.12891.31836l-.293.70947h-1.126l1.07617-2.04346L4.75586,9.01172H5.92969l.26953.64844q.06738.14063.13184.30273c.042.1084.09277.22754.14941.35791h.02441q.06738-.19556.12891-.35791c.04-.10791.0791-.209.11621-.30273l.23242-.64844h1.125L7.09277,10.99414l1.07617,1.99414Zm4.417-3.0957H10.35938v3.0957H9.30664V9.89258H8.25488V9.01172h3.15625Z"/>
</svg>