<svg xmlns="http://www.w3.org/2000/svg" viewBox="0 0 32 32">
  <path class="ti-file" d="M12.16,17.48c-.08.24-.08.48-.16.72H7.92a1.2032,1.2032,0,0,0-1.12-.8,1.2,1.2,0,0,0,0,2.4A1.12976,1.12976,0,0,0,7.92,19H12a1.88281,1.88281,0,0,0,.16.64l-1.28.56a1.28467,1.28467,0,0,0-.88-.4A1.2,1.2,0,1,0,11.2,21v-.08l1.28-.56a3.13224,3.13224,0,0,0,.64.8L10.4,24.68a3.46485,3.46485,0,0,0-.4-.08,1.2,1.2,0,1,0,1.2,1.2,1.50712,1.50712,0,0,0-.16-.64l2.72-3.52a3.80467,3.80467,0,0,0,1.84.56,3.6,3.6,0,0,0,0-7.2,3.71623,3.71623,0,0,0-1.84.48l-2-2.64A.9084.9084,0,0,0,12,12.2a1.2,1.2,0,1,0-1.2,1.2c.16,0,.24,0,.32-.08l2,2.64a3.13228,3.13228,0,0,0-.64.8L2.4,12.28V12.2A1.23037,1.23037,0,0,0,1.2,11a1.2,1.2,0,0,0,0,2.4,1.28467,1.28467,0,0,0,.88-.4Z"/>
  <path class="ti-file-connect-o-badge" d="M22,0H6V11H8V2H19V12H30V30H8V27H6v5H32V10ZM21,10V2l8,8Z"/>
</svg>
