<svg xmlns="http://www.w3.org/2000/svg" viewBox="0 0 16 16">
    <path class="ti-file" d="M11,0H3V8H4V1H9V6h6v9H4V14H3v2H16V5ZM10,5V1l4,4Z"/>
    <path class="ti-file-csv-o-badge" d="M4,8H0v6H13V8Zm-.18994,4.84082a1.70164,1.70164,0,0,1-.69775.14648,2.174,2.174,0,0,1-.74023-.125,1.70765,1.70765,0,0,1-.61182-.37939,1.801,1.801,0,0,1-.416-.63623,2.39494,2.39494,0,0,1-.15283-.89014,2.33437,2.33437,0,0,1,.15918-.89014,1.93739,1.93739,0,0,1,.42822-.65479,1.85463,1.85463,0,0,1,.62109-.40674,1.96569,1.96569,0,0,1,.73682-.14062A1.5059,1.5059,0,0,1,3.8252,9.02a2.01786,2.01786,0,0,1,.52295.37012l-.5752.64844a1.3795,1.3795,0,0,0-.28711-.19873.7468.7468,0,0,0-.33643-.07031.765.765,0,0,0-.33984.07959.834.834,0,0,0-.28125.22656,1.1185,1.1185,0,0,0-.18994.36084,1.54412,1.54412,0,0,0-.07031.4834,1.36863,1.36863,0,0,0,.23584.8623.75078.75078,0,0,0,.62061.2998.84349.84349,0,0,0,.40088-.08887,1.084,1.084,0,0,0,.29688-.229l.57471.63623A1.69193,1.69193,0,0,1,3.81006,12.84082Zm3.66406-.64258a1.16806,1.16806,0,0,1-.30273.40674,1.50039,1.50039,0,0,1-.48633.27832,1.93831,1.93831,0,0,1-.66064.104,2.39143,2.39143,0,0,1-.77979-.1377,2.06631,2.06631,0,0,1-.7251-.43115l.59961-.72168a2.00182,2.00182,0,0,0,.46191.27832,1.1814,1.1814,0,0,0,.46777.10693.6275.6275,0,0,0,.3457-.07324.23789.23789,0,0,0,.10693-.208.19954.19954,0,0,0-.03662-.12256.37739.37739,0,0,0-.10693-.0918,1.23424,1.23424,0,0,0-.16846-.08252c-.06494-.02637-.14062-.05615-.22607-.08887l-.49561-.208a1.46544,1.46544,0,0,1-.30615-.16211,1.19142,1.19142,0,0,1-.25684-.23828,1.10729,1.10729,0,0,1-.17432-.31494,1.142,1.142,0,0,1-.064-.3916,1.074,1.074,0,0,1,.10986-.48047,1.22475,1.22475,0,0,1,.30615-.3916,1.48111,1.48111,0,0,1,.46777-.26611A1.76014,1.76014,0,0,1,6.147,8.86426a2.0221,2.0221,0,0,1,.69434.12842,1.70556,1.70556,0,0,1,.627.40381l-.52637.66064a1.93244,1.93244,0,0,0-.38818-.21436A1.10509,1.10509,0,0,0,6.147,9.76953a.587.587,0,0,0-.30615.06738.22144.22144,0,0,0-.10986.20166.23659.23659,0,0,0,.15576.21729q.156.0769.43115.18066l.4834.18945a1.30907,1.30907,0,0,1,.5752.41016,1.08167,1.08167,0,0,1,.20166.67871A1.16992,1.16992,0,0,1,7.47412,12.19824Zm2.68555.71582H8.88721L7.71289,8.9375H8.82617l.416,1.7373q.08569.3186.147.62744c.04053.20557.08936.417.14648.63281h.02441c.05713-.21582.10742-.42725.1499-.63281q.06445-.30908.144-.62744l.40381-1.7373h1.07666Z"/>
</svg>