<svg xmlns="http://www.w3.org/2000/svg" viewBox="0 0 32 32">
  <path class="ti-file" d="M22,0H6V15H8V2H19V12H30V30H8V27H6v5H32V10ZM21,10V2l8,8Z"/>
  <path class="ti-file-xml-o-badge" d="M8,15H0V27H26V15ZM6.60938,25.03314,5.97266,23.6142c-.09766-.21191-.19141-.4248-.28125-.63672s-.18359-.44043-.28125-.68457H5.36133q-.13477.36621-.25781.68457c-.08008.21191-.166.4248-.25586.63672l-.58789,1.41895h-2.252l2.1543-4.08691L2.13086,17.08H4.48047l.53711,1.29688q.13477.28125.26367.60547c.08594.2168.18555.45508.30078.71582h.04883c.08984-.26074.17383-.499.25586-.71582.082-.21582.16016-.418.23242-.60547L6.584,17.08h2.252L6.80469,21.04486,8.959,25.03314Zm11.084,0h-1.957V22.68353c0-.20312.00977-.42773.03125-.67285.01953-.24414.043-.49512.06641-.752.02539-.25684.05273-.50781.08594-.75293.0332-.24414.06055-.46484.08594-.66016H15.957L15.29688,21.705,14.19531,24.3847h-.7832L12.31055,21.705l-.63672-1.85937H11.625c.02539.19531.05273.416.08594.66016.0332.24512.06055.49609.08594.75293.02344.25684.04688.50781.06641.752.02148.24512.03125.46973.03125.67285v2.34961H9.96094V17.08h2.17773l1.248,3.30371.44141,1.29688H13.877l.43945-1.29687L15.51563,17.08h2.17773ZM24,25H19V17h2v6h3Z"/>
</svg>
