<svg xmlns="http://www.w3.org/2000/svg" viewBox="0 0 16 16">
  <g fill="none" fill-rule="evenodd" transform="translate(0 1.5)">
    <path fill="#000" fill-rule="nonzero" d="M6.6582,2.0221 C7.1742,1.4841 7.8922,1.1511 8.6862,1.1511 C9.7432,1.1511 10.6652,1.7401 11.1552,2.6141 C11.5822,2.4241 12.0542,2.3181 12.5512,2.3181 C14.4552,2.3181 16.0002,3.8761 16.0002,5.7971 C16.0002,7.7191 14.4552,9.2771 12.5512,9.2771 C12.3182,9.2771 12.0912,9.2531 11.8712,9.2091 C11.4392,9.9801 10.6152,10.5011 9.6702,10.5011 C9.2742,10.5011 8.9002,10.4101 8.5672,10.2471 C8.1292,11.2771 7.1082,12.0001 5.9192,12.0001 C4.6802,12.0001 3.6242,11.2161 3.2192,10.1171 C3.0422,10.1541 2.8582,10.1741 2.6702,10.1741 C1.1952,10.1741 0.0002,8.9661 0.0002,7.4761 C0.0002,6.4771 0.5372,5.6051 1.3352,5.1381 C1.1712,4.7601 1.0792,4.3431 1.0792,3.9041 C1.0792,2.1901 2.4712,0.8011 4.1872,0.8011 C5.1942,0.8011 6.0902,1.2801 6.6582,2.0221" transform="translate(0 .2)"/>
    <g fill="#FFF" fill-rule="nonzero" transform="translate(5 3)">
      <path d="M.0078 4.667C-.0142 4.727.0168 4.739.0238 4.749.0918 4.798.1588 4.834.2288 4.873.5958 5.068.9438 5.125 1.3058 5.125 2.0438 5.125 2.5028 4.732 2.5028 4.1L2.5028 4.087C2.5028 3.502 1.9858 3.29 1.4998 3.136L1.4368 3.116C1.0698 2.997.7538 2.895.7538 2.653L.7538 2.641C.7538 2.435.9398 2.283 1.2258 2.283 1.5428 2.283 1.9208 2.389 2.1628 2.523 2.1628 2.523 2.2358 2.569 2.2618 2.5 2.2758 2.462 2.3988 2.132 2.4108 2.096 2.4258 2.057 2.4018 2.028 2.3758 2.013 2.0978 1.844 1.7138 1.729 1.3178 1.729L1.2438 1.729C.5678 1.729.0958 2.138.0958 2.723L.0958 2.735C.0958 3.351.6158 3.552 1.1048 3.691L1.1828 3.715C1.5378 3.824 1.8448 3.918 1.8448 4.168L1.8448 4.181C1.8448 4.41 1.6448 4.58 1.3238 4.58 1.1988 4.58.8018 4.578.3728 4.306.3208 4.276.2908 4.254.2508 4.23.2298 4.216.1768 4.194.1538 4.263L.0078 4.667zM5.6006.4682C5.5346.4472 5.4736.4342 5.3946.4202 5.3146.4052 5.2186.3972 5.1116.3972 4.7336.3972 4.4366.5042 4.2276.7152 4.0196.9242 3.8786 1.2422 3.8076 1.6612L3.7826 1.8022 3.3086 1.8022C3.3086 1.8022 3.2506 1.8002 3.2396 1.8632L3.1616 2.2972C3.1556 2.3382 3.1726 2.3642 3.2286 2.3642L3.6906 2.3642 3.2216 4.9762C3.1856 5.1862 3.1436 5.3592 3.0966 5.4902 3.0516 5.6202 3.0066 5.7172 2.9516 5.7872 2.8986 5.8552 2.8476 5.9052 2.7606 5.9352 2.6886 5.9582 2.6056 5.9692 2.5146 5.9692 2.4646 5.9692 2.3976 5.9612 2.3476 5.9512 2.2976 5.9422 2.2726 5.9302 2.2356 5.9152 2.2356 5.9152 2.1816 5.8942 2.1596 5.9482 2.1426 5.9932 2.0196 6.3312 2.0046 6.3732 1.9906 6.4142 2.0106 6.4462 2.0376 6.4562 2.0986 6.4772 2.1446 6.4922 2.2276 6.5112 2.3436 6.5392 2.4426 6.5402 2.5336 6.5402 2.7256 6.5402 2.9006 6.5132 3.0456 6.4612 3.1916 6.4082 3.3186 6.3162 3.4316 6.1922 3.5526 6.0582 3.6286 5.9172 3.7026 5.7252 3.7746 5.5352 3.8356 5.2992 3.8856 5.0242L4.3556 2.3642 5.0426 2.3642C5.0426 2.3642 5.1016 2.3662 5.1136 2.3032L5.1906 1.8692C5.1966 1.8282 5.1786 1.8022 5.1226 1.8022L4.4556 1.8022C4.4586 1.7872 4.4896 1.5522 4.5666 1.3322 4.5986 1.2372 4.6606 1.1612 4.7126 1.1092 4.7636 1.0572 4.8226 1.0212 4.8866 1.0002 4.9536.9792 5.0286.9682 5.1116.9682 5.1736.9682 5.2356.9762 5.2826.9852 5.3466.9992 5.3716 1.0062 5.3896 1.0112 5.4566 1.0322 5.4656 1.0122 5.4796.9792L5.6386.5412C5.6556.4942 5.6166.4742 5.6006.4682"/>
    </g>
  </g>
</svg>
