<svg xmlns="http://www.w3.org/2000/svg" viewBox="0 0 32 32">
  <path class="ti-file" d="M22,0H6V15H8V2H19V12H30V30H8V27H6v5H32V10ZM21,10V2l8,8Z"/>
  <path class="ti-file-json-o-badge" d="M16.02246,19.84967a2.4496,2.4496,0,0,1,.3418,1.40137,2.60392,2.60392,0,0,1-.3418,1.43262,1.10874,1.10874,0,0,1-1.88574,0,2.59555,2.59555,0,0,1-.3418-1.43262,2.44192,2.44192,0,0,1,.3418-1.40137,1.14533,1.14533,0,0,1,1.88574,0ZM26,15V27H0V15H26ZM5.10742,17.97285H3.35352v4.35232a2.3713,2.3713,0,0,1-.05078.54188.967.967,0,0,1-.14258.33956.47056.47056,0,0,1-.22949.17487.95267.95267,0,0,1-.31055.04778.75584.75584,0,0,1-.43848-.15962,1.33463,1.33463,0,0,1-.39746-.49816l-1.18359.92313a2.506,2.506,0,0,0,.9082.98718A2.6289,2.6289,0,0,0,2.86426,25a2.292,2.292,0,0,0,.99414-.2013,1.95247,1.95247,0,0,0,.69824-.547,2.36342,2.36342,0,0,0,.41309-.80113,3.36182,3.36182,0,0,0,.1377-.977Zm6.11719,4.82a1.93153,1.93153,0,0,0-.33594-1.17831,2.18052,2.18052,0,0,0-.958-.71166l-.80566-.3294c-.30664-.12-.5459-.22367-.71875-.31313a.40965.40965,0,0,1-.26074-.37616.38969.38969,0,0,1,.18359-.35075.95487.95487,0,0,1,.50977-.11692,1.76747,1.76747,0,0,1,.67871.1281,3.13877,3.13877,0,0,1,.64746.37108l.877-1.14578a2.8419,2.8419,0,0,0-1.0459-.7015,3.24178,3.24178,0,0,0-1.15723-.22265,2.824,2.824,0,0,0-.99414.16978,2.45217,2.45217,0,0,0-.7793.46156,2.12672,2.12672,0,0,0-.50977.68015,1.91009,1.91009,0,0,0-.18359.83264,2.05239,2.05239,0,0,0,.10645.67913,1.92722,1.92722,0,0,0,.291.547,2.00506,2.00506,0,0,0,.42773.41378,2.38628,2.38628,0,0,0,.50977.28161l.82617.36091c.14258.05693.26855.10777.377.15352a2.12968,2.12968,0,0,1,.28125.14335.63462.63462,0,0,1,.17773.15962.35266.35266,0,0,1,.06152.21248.41781.41781,0,0,1-.17871.36091,1.01512,1.01512,0,0,1-.57617.12708,1.89919,1.89919,0,0,1-.7793-.186A3.31823,3.31823,0,0,1,7.126,22.7603l-.999,1.25253a3.42607,3.42607,0,0,0,1.208.74826A3.84219,3.84219,0,0,0,8.63574,25a3.11862,3.11862,0,0,0,1.10059-.17995,2.48518,2.48518,0,0,0,.81055-.48291,2.03728,2.03728,0,0,0,.50488-.70658A2.10343,2.10343,0,0,0,11.22461,22.79283Zm6.93457-1.402a4.69135,4.69135,0,0,0-.22461-1.50669,3.26254,3.26254,0,0,0-.627-1.11426,2.576,2.576,0,0,0-.97363-.69031,3.49462,3.49462,0,0,0-2.51367,0,2.63209,2.63209,0,0,0-.96875.68421,3.18007,3.18007,0,0,0-.627,1.11528A4.71426,4.71426,0,0,0,12,21.39086a4.81878,4.81878,0,0,0,.22461,1.524,3.27734,3.27734,0,0,0,.627,1.13561,2.67423,2.67423,0,0,0,.96875.70556,3.359,3.359,0,0,0,2.51367,0,2.659,2.659,0,0,0,.97363-.70556,3.30935,3.30935,0,0,0,.627-1.13561A4.84679,4.84679,0,0,0,18.15918,21.39086Zm6.56543-3.418H23.05273v1.9957c0,.21248.00781.43411.02539.66388s.03516.45953.05664.69031q.0293.34465.07031.674c.02734.21858.05078.4209.07227.60491h-.041l-.63281-1.55041-1.4668-3.07845H19.3418v6.90007h1.67188v-1.9957a11.50916,11.50916,0,0,0-.082-1.33691q-.082-.7015-.14258-1.29522h.041l.63281,1.53922,1.4668,3.08861h1.79492Z"/>
</svg>
