<svg xmlns="http://www.w3.org/2000/svg" viewBox="0 0 16 16">
	<g fill="none" fill-rule="evenodd">
		<path class="ti-file-salesforce-background" fill="#0E99D9" fill-rule="nonzero" d="M6.658 3.722a2.801 2.801 0 0 1 2.028-.87c1.057 0 1.98.588 2.47 1.462.426-.19.898-.296 1.395-.296 1.904 0 3.45 1.558 3.45 3.48 0 1.921-1.546 3.48-3.45 3.48-.233 0-.46-.025-.68-.069a2.521 2.521 0 0 1-3.304 1.038 2.878 2.878 0 0 1-5.348-.13 2.684 2.684 0 0 1-.549.057C1.195 11.874 0 10.666 0 9.176c0-.999.537-1.87 1.335-2.338a3.106 3.106 0 0 1 2.852-4.337c1.007 0 1.903.48 2.471 1.221"/>
		<path d="M5.008 9.167c-.022.06.009.072.016.082.068.049.135.085.205.124.367.195.715.252 1.077.252.738 0 1.197-.393 1.197-1.025v-.013c0-.585-.517-.797-1.003-.951l-.063-.02c-.367-.119-.683-.221-.683-.463v-.012c0-.206.186-.358.472-.358.317 0 .695.106.937.24 0 0 .073.046.099-.023.014-.038.137-.368.149-.404.015-.039-.01-.068-.035-.083a2.096 2.096 0 0 0-1.058-.284h-.074c-.676 0-1.148.409-1.148.994v.012c0 .616.52.817 1.009.956l.078.024c.355.109.662.203.662.453v.013c0 .229-.2.399-.521.399-.125 0-.522-.002-.951-.274-.052-.03-.082-.052-.122-.076-.021-.014-.074-.036-.097.033l-.146.404zM10.6 4.968a1.564 1.564 0 0 0-.489-.071c-.378 0-.675.107-.884.318-.208.21-.35.527-.42.946l-.025.141h-.474s-.058-.002-.07.061l-.077.434c-.006.041.01.067.067.067h.462l-.47 2.612c-.035.21-.077.383-.124.514-.045.13-.09.227-.145.297a.392.392 0 0 1-.191.148.813.813 0 0 1-.413.016c-.05-.009-.075-.02-.112-.036 0 0-.054-.02-.076.033l-.155.425c-.014.041.006.073.033.083.06.021.107.036.19.055.116.028.215.03.306.03.192 0 .367-.028.512-.08a.97.97 0 0 0 .386-.269c.12-.134.197-.275.27-.467.073-.19.134-.426.184-.7l.47-2.66h.687s.059.001.07-.062l.078-.434c.006-.04-.012-.067-.068-.067h-.667c.003-.015.034-.25.11-.47a.593.593 0 0 1 .147-.223.43.43 0 0 1 .174-.109.75.75 0 0 1 .225-.032.92.92 0 0 1 .17.017c.065.014.09.021.108.026.067.021.076.001.09-.032l.159-.438c.017-.047-.022-.067-.038-.073" class="ti-file-salesforce-foreground" fill="#FFF" fill-rule="nonzero"/>
	</g>
</svg>
