<svg xmlns="http://www.w3.org/2000/svg" viewBox="0 0 32 32">
	<polygon points="12.5,14 15.4,13.1 15.4,8.8 12.5,9.7"/>
	<polygon points="8.7,13.1 11.6,14 11.6,9.7 8.7,8.8"/>
	<polygon points="12.1,7.5 9.5,8.2 12.1,9 14.6,8.2"/>
	<polygon points="4.8,14 7.7,13.1 7.7,8.8 4.8,9.7"/>
	<polygon points="1.1,13.1 3.9,14 3.9,9.7 1.1,8.8"/>
	<polygon points="4.4,7.5 1.9,8.2 4.4,9 7,8.2"/>
	<polygon points="8.5,20.4 11.4,19.4 11.4,15.2 8.5,16.1"/>
	<polygon points="4.8,19.4 7.6,20.4 7.6,16.1 4.8,15.2"/>
	<polygon points="8.1,13.8 5.6,14.6 8.1,15.4 10.7,14.6"/>
	<polygon points="16.2,7.5 19.1,6.6 19.1,2.4 16.2,3.3 "/>
	<polygon points="15.3,3.3 12.5,2.4 12.5,6.6 15.3,7.5 "/>
	<polygon points="18.4,1.8 15.8,1 13.3,1.8 15.8,2.6 "/>
	<polygon points="23.9,7.5 26.8,6.6 26.8,2.4 23.9,3.3 "/>
	<polygon points="23,3.3 20.2,2.4 20.2,6.6 23,7.5 "/>
	<polygon points="26.1,1.8 23.5,1 21,1.8 23.5,2.6 "/>
	<path d="M18.8,22.5L17.4,22c-1.1-0.4-1.7-0.6-1.7-1.2c0-0.5,0.5-0.8,1.2-0.8c0.9,0,1.5,0.3,2.3,0.8l1.5-1.9c-1.1-1.1-2.6-1.6-3.9-1.6c-2.6,0-4.4,1.6-4.4,3.6c0,1.7,1.1,2.8,2.4,3.3l1.5,0.6c1,0.4,1.6,0.6,1.6,1.1c0,0.5-0.4,0.8-1.3,0.8c-0.9,0-1.9-0.5-2.7-1.1l-1.8,2.1c1.3,1.1,3,1.7,4.4,1.7c2.9,0,4.6-1.8,4.6-3.7C21.1,24.1,20.3,23.1,18.8,22.5z"/>
	<path d="M28.4,23.4L28.4,23.4c1.2-0.6,1.8-1.4,1.8-2.5c0-2.1-1.6-3.2-4.1-3.2c-1.4,0-2.6,0.5-3.7,1.5l1.5,1.9c0.7-0.6,1.3-0.9,2-0.9c0.8,0,1.2,0.4,1.2,1c0,0.8-0.6,1.3-2.5,1.3v2.2c2.4,0,2.8,0.5,2.8,1.4c0,0.7-0.6,1.1-1.7,1.1c-0.8,0-1.6-0.4-2.3-1.1l-1.4,1.9c0.9,1,2.2,1.6,4.1,1.6c2.4,0,4.4-1.2,4.4-3.3C30.5,24.7,29.6,23.8,28.4,23.4z"/>
</svg>
