<svg xmlns="http://www.w3.org/2000/svg" viewBox="0 0 32 32">
  <path class="ti-file" d="M22,0H6V10H8V2H19V12H30V30H8V27H6v5H32V10ZM21,10V2l8,8Z"/>
  <path class="ti-file-hdfs-o-badge" d="M7.82852,12.83754a.12654.12654,0,0,0,.14854-.06764A2.58018,2.58018,0,0,1,9.468,11.26451a.13628.13628,0,0,0,.08647-.1681.12864.12864,0,0,0-.14285-.09483H9.41124a.12357.12357,0,0,0-.03127.00659,4.6909,4.6909,0,0,0-.59509.18405.12979.12979,0,0,0-.14619-.11383l-.01036.00207a1.1371,1.1371,0,0,0-.545.2432,1.19307,1.19307,0,0,0-.26935.55217.13606.13606,0,0,0,.089.16665.123.123,0,0,0,.04881.00426,4.72335,4.72335,0,0,0-.21287.62449A.136.136,0,0,0,7.82852,12.83754Zm11.57375,4.9148a3.71629,3.71629,0,0,1-1.6725,3.03032,3.70909,3.70909,0,0,1-2.38652.2958c-.042.14292-.0842.28541-.12528.42726a1.61631,1.61631,0,0,1-1.40314,1.09119,1.16789,1.16789,0,0,1-.689-.17748,2.80756,2.80756,0,0,1-.51365-.44044c-.11406-.11528-.22945-.23189-.34452-.34837-.00253.01715-.00357.03565-.00627.05258.12778.27672.19951.5207.30692.78881a2.38158,2.38158,0,0,1,.213.92028c.00767.30156.01728.60459.02506.90714a.96853.96853,0,0,1,.119.60476.77144.77144,0,0,1-.31319.65079,1.24784,1.24784,0,0,1-.67026.12489c-.16835-.00114-.801-.00542-.98971-.01972a2.74154,2.74154,0,0,1-.4322-.05258.62771.62771,0,0,1-.20671-.0986c-.13763.11755-.30092.25334-.451.38126-.08771.07476-.165.14284-.23175.19721a1.50512,1.50512,0,0,1-.12528.092c-.07356.11881-.122.22561-.18792.32867a.87639.87639,0,0,1-.31947.30238A1.05615,1.05615,0,0,1,7.8515,26.85a2.93912,2.93912,0,0,1-.79554-.95972,3.67714,3.67714,0,0,1-.41342-.83485,1.063,1.063,0,0,1-.04384-.49958.57774.57774,0,0,1,.30067-.401c.02753-.01485.04285-.02532.0689-.03944A5.89472,5.89472,0,0,1,5.95978,24.076l.00627.05258a1.63429,1.63429,0,0,1,.01879.41414.93605.93605,0,0,1-.16286.38126,2.85864,2.85864,0,0,0-.30692.57846,2.02212,2.02212,0,0,1-.06265.74938.62621.62621,0,0,1-.37584.42726,1.32291,1.32291,0,0,1-.57629.06574,5.31807,5.31807,0,0,1-1.0774-.2235,3.3557,3.3557,0,0,1-.93333-.34182.71517.71517,0,0,1-.30692-.38126.859.859,0,0,1,.06265-.59162,3.07226,3.07226,0,0,0,.10649-.309,1.30009,1.30009,0,0,1-.70782-.15777,2.8758,2.8758,0,0,1-.76421-.56532A2.27129,2.27129,0,0,1,.28464,22.965a.639.639,0,0,1,.01879-.39441,1.12924,1.12924,0,0,1,.238-.28267q.29735-.30884.59509-.6179c.07543-.21446.15093-.42563.22551-.63762-.02966-.16506-.05513-.33128-.06891-.49958a6.24773,6.24773,0,0,1,.03758-1.55134.888.888,0,0,1-.42595,0,.79319.79319,0,0,1-.50112-.44044,2.82938,2.82938,0,0,1-.16286-.54561l-.00627-.01314a.85789.85789,0,0,1-.2255-.69021,1.42628,1.42628,0,0,1,.357-.6902,2.873,2.873,0,0,1,.58881-.49959,1.546,1.546,0,0,1,.51992-.2432.123.123,0,0,1,.06536.00552.13687.13687,0,0,1,.07876.17222,2.85822,2.85822,0,0,0-.29439,1.20293,2.14945,2.14945,0,0,1-.02506.28924.84387.84387,0,0,1-.20045.38784l.00627.00658c.02074-.0074.0437-.01108.08143-.0263a2.09671,2.09671,0,0,0,.70157-.6179A4.58388,4.58388,0,0,1,2.878,15.9317a6.331,6.331,0,0,1,3.68323-1.59736c.2063-.22438.41648-.43894.6452-.65079a1.33092,1.33092,0,0,1,.86443-.401,4.01675,4.01675,0,0,1,1.72886-1.56448,4.99451,4.99451,0,0,1,2.324-.54561l-.0002-.00025a3.5085,3.5085,0,0,1,2.08586.96632,13.30667,13.30667,0,0,0,1.33418,1.13067,2.48735,2.48735,0,0,1,.65786.55217,3.61412,3.61412,0,0,1,.53243.894,1.45738,1.45738,0,0,0,.40714-.2169c.17794-.15955.30578-.46236.52618-.69679a.47337.47337,0,0,1,.332-.14462.85163.85163,0,0,1,.35078.07231.96743.96743,0,0,1,.50737.42071A7.85313,7.85313,0,0,1,19.40227,17.75234Zm-2.6266-2.73027a1.17233,1.17233,0,0,1,.38007.20269c.23878.198.9023-.67576.93732-.98248l-.05229-.07837a.08584.08584,0,0,0-.0689.0263,7.74317,7.74317,0,0,1-.63446.60011A3.24287,3.24287,0,0,1,16.77568,15.02207ZM.86089,17.31872a4.539,4.539,0,0,1,.06262-.59159,1.85633,1.85633,0,0,0-.30066.355.784.784,0,0,0-.13155.36811.44336.44336,0,0,0,.13155.33509.13237.13237,0,0,1,.01879-.01955A.57431.57431,0,0,0,.86089,17.31872ZM2.53332,23.9513a9.27006,9.27006,0,0,1-.91454-1.972v0l-.00626.01972a.13686.13686,0,0,1-.02506.046c-.1939.206-.38884.41215-.58254.61792a1.00326,1.00326,0,0,0-.11275.13147c-.00487.01069-.01359.02961,0,.13147a1.576,1.576,0,0,0,.426.80855,2.54315,2.54315,0,0,0,.59508.447.83167.83167,0,0,0,.332.10518.20686.20686,0,0,0,.20045-.092A.75165.75165,0,0,0,2.53332,23.9513Zm9.728.43385c-.00878-.32454-.01638-.649-.02506-.97287a1.76928,1.76928,0,0,0-.16912-.72309c-.01537-.03819-.01887-.06847-.03132-.10514-.08128.25289-.16227.498-.24429.76905a5.6241,5.6241,0,0,1-.46981.986,4.42481,4.42481,0,0,1-.50737.72309.8788.8788,0,0,0,.20045.03944c.06743.0061.26971.01043.46981.01314s.39939-.00149.48231,0a.66115.66115,0,0,0,.30692-.03286c.03521-.02586.071-.09145.08769-.28924.01692-.2002.01591-.16938-.08143-.34839A.13963.13963,0,0,1,12.26135,24.38515Zm2.72407-3.39739c-.06205.07043-1.18266-.62339-1.27113-.58035.0067.01439-.45381,1.4842.23937,1.51582C14.713,21.95788,14.98542,20.98776,14.98542,20.98776Zm3.45215-6.4557a.84416.84416,0,0,0-.094-.11175,1.6142,1.6142,0,0,1-.95838,1.09119.748.748,0,0,1-.42595.03286,2.13291,2.13291,0,0,1-.24431-.07231c-.00394.03406-.02288.047-.01252.10518a3.42693,3.42693,0,0,1,.01252,1.28184,3.2286,3.2286,0,0,1-.36331,1.15692.12533.12533,0,0,1-.1342.047.13587.13587,0,0,1-.0913-.16527,7.80192,7.80192,0,0,0,.16913-1.06491,3.07306,3.07306,0,0,0-.03758-.52588.52467.52467,0,0,0-.1754.0986.73168.73168,0,0,0-.1566.17748c-.16284.34839-.168.70195-.38209,1.09119a.12617.12617,0,0,1-.17069.06188.1382.1382,0,0,1-.06106-.18019,1.80159,1.80159,0,0,0,.10022-.54561,2.51651,2.51651,0,0,1,.11275-.63762c.00579-.01715.018-.02961.02506-.046a.6344.6344,0,0,0-.24431.2432,3.88129,3.88129,0,0,1-.34452.61132.12482.12482,0,0,1-.16976.03437.139.139,0,0,1-.04322-.18556,7.30842,7.30842,0,0,0,.26936-.73623.77863.77863,0,0,1,.61889-.46038.77083.77083,0,0,1,.2019-.02851,1.54,1.54,0,0,1,.33016.01925l-.01252-.05916c-.04571-.0048-.27427-.00933-.26018-.01a2.98018,2.98018,0,0,0-.50242.04582c-.05529.00673-.14547-.02132-.13173-.0776.08426-.34519-.05324-.5522-.11242-.57365a.13711.13711,0,0,1,.02506-.25637,2.83962,2.83962,0,0,1,.90828-.23007,5.41826,5.41826,0,0,0-.28188-.493,1.3089,1.3089,0,0,0-.50737-.44043c-.04523-.028-1.08691-.87061-1.35929-1.11091a2.93936,2.93936,0,0,0-1.84788-.86113l-.00036.002a4.76411,4.76411,0,0,0-2.136.55865,2.64421,2.64421,0,0,0-1.115.92685c.33357-.01165.66682-.01916,1.0085-.05258a.12922.12922,0,0,1,.12425.09156.13675.13675,0,0,1-.08041.17138c-.461.11241-.90546.20392-1.35928.27609a3.2366,3.2366,0,0,0-.5387.10517,1.11933,1.11933,0,0,0-.41969.309c-.68166.6956-1.25384,1.49231-1.89172,2.2152a4.655,4.655,0,0,0-.73915,1.26867.9392.9392,0,0,0-.12528.47329.99374.99374,0,0,0,.213.44044,5.43292,5.43292,0,0,1,.50737.802c.30406-.45479.6424-.85884,1.00223-1.31469a.12439.12439,0,0,1,.157-.026.13867.13867,0,0,1,.04969.18378c-.33435.56192-.634,1.08911-.90827,1.65651a1.63228,1.63228,0,0,0-.2255.82826c.2942.35238.46755.52534.72037.59819a1.04645,1.04645,0,0,0,.8331-.06573,6.29042,6.29042,0,0,1,2.19249-.96632,4.2065,4.2065,0,0,0,.119-2.51769,5.39439,5.39439,0,0,1,.07517-2.18239.13084.13084,0,0,1,.13962-.12047.13367.13367,0,0,1,.11719.14676,15.51013,15.51013,0,0,0,.22551,2.0707,5.19433,5.19433,0,0,1-.18161,3.06986.129.129,0,0,1-.11907.08541A5.57657,5.57657,0,0,0,7.369,21.7642a1.55906,1.55906,0,0,1-1.17762.1249A2.54052,2.54052,0,0,1,4.995,20.94252a.1396.1396,0,0,1-.03132-.10518,2.87576,2.87576,0,0,1,.19418-.8414,3.76007,3.76007,0,0,0-.63892-1.09778,1.47967,1.47967,0,0,1-.33825-.756,1.69463,1.69463,0,0,1,.2255-.81511,6.08653,6.08653,0,0,1,.77048-1.33442c.25175-.31092.48519-.60157.72037-.88743a4.80587,4.80587,0,0,0-2.59339,1.249,5.023,5.023,0,0,0-1.32817,2.17587,4.32474,4.32474,0,0,0-.14391,1.939,8.06554,8.06554,0,0,0,1.30912,3.35258.14066.14066,0,0,1,.01864.09845A6.53472,6.53472,0,0,1,2.821,25.4057a.18753.18753,0,0,0,.00627.18405.45161.45161,0,0,0,.17539.15777,3.19643,3.19643,0,0,0,.6076.20377,5.281,5.281,0,0,0,.77048.17091,1.2692,1.2692,0,0,0,.38209,0c.09462-.02025.12162-.04831.13155-.08545A1.632,1.632,0,0,0,4.932,25.432a.14008.14008,0,0,1,.01879-.06574,6.48832,6.48832,0,0,1,.38209-.6902.82257.82257,0,0,0,.13782-.57191c.0012-.37566-.0098-1.04391.00626-1.30814a.13383.13383,0,0,1,.1148-.14651.13069.13069,0,0,1,.142.12022c.0437.19373.09342.46424.13791.72319a5.48823,5.48823,0,0,0,2.042-.033c.00937-.03168.01583-.06474.02506-.0986.05634-.20645.156-.39581.20045-.55873a.12889.12889,0,0,1,.13188-.09227.13319.13319,0,0,1,.11868.14486c-.01349.18-.02381.36219-.03758.54561a2.33905,2.33905,0,0,0,.00621.49306c.01223.102.02546.20509.03768.30837a.13753.13753,0,0,1-.06216.14135.12545.12545,0,0,1-.17586-.04932c-.025-.04267-.07415-.11116-.119-.17091a8.17111,8.17111,0,0,1-.74542.48645.12226.12226,0,0,0-.0689.11831.71663.71663,0,0,0,.04384.26294,2.98324,2.98324,0,0,0,.26309.54561,3.14779,3.14779,0,0,0,.51364.70338.44789.44789,0,0,0,.59509.07888,1.82294,1.82294,0,0,0,.39464-.493.132.132,0,0,1,.03758-.03944c.02445-.01514.11419-.08594.2255-.17748s.24772-.20856.38209-.3221.272-.22463.38209-.31552a2.53331,2.53331,0,0,1,.2443-.19063.43752.43752,0,0,0,.06891-.06573c.03585-.04225.0772-.10273.12528-.17091.09614-.1364.2102-.30991.31947-.493s.21073-.37738.29441-.539a2.83855,2.83855,0,0,0,.16286-.355,10.65453,10.65453,0,0,0,.49486-1.8603,2.75476,2.75476,0,0,1-.98971-.83485.14006.14006,0,0,1-.00592-.18017.1246.1246,0,0,1,.18132-.017,4.16642,4.16642,0,0,0,1.353.71649.128.128,0,0,1,.05032.0326c.18517.17173.37423.343.57.52588a3.08648,3.08648,0,0,0,.43848.36156.54068.54068,0,0,1-.06891-.06574.735.735,0,0,1-.10022-.38784,2.73253,2.73253,0,0,1,.13155-.76908,1.5777,1.5777,0,0,0-.00627-.74279.14137.14137,0,0,1,.00627-.07231c-.011.00746-.03752.02028-.04385.02629a.3389.3389,0,0,0-.0689.11833c-.064.147-.13725.33319-.19418.493a.128.128,0,0,1-.12206.0758.13278.13278,0,0,1-.12226-.14154c.022-.14594.05438-.32191.07517-.46015a.73675.73675,0,0,1,.119-.37467.54411.54411,0,0,1,.357-.16433c.1005-.01778.29535-.06453.41342-.08546a.12687.12687,0,0,1,.12428.06378.139.139,0,0,1-.04269.1857c-.1062.06066-.257.12583-.357.17748a.1253.1253,0,0,1,.05012.01972,2.59675,2.59675,0,0,0,.57629.32868,4.03208,4.03208,0,0,0,3.38255.138,3.36973,3.36973,0,0,0,1.37807-2.544A8.03893,8.03893,0,0,0,18.43756,14.53206Zm-4.1969,1.28816a1.849,1.849,0,0,0-.47607.08546.75858.75858,0,0,0-.03132-.11833.74093.74093,0,0,0-.23191-.276,1.48051,1.48051,0,0,0,.21925-.15119.13979.13979,0,0,0,.012-.19062.12611.12611,0,0,0-.0997-.046l.0002-.0004a.1236.1236,0,0,0-.05638.01316,1.88471,1.88471,0,0,1-.43848.12489,1.25318,1.25318,0,0,0-.48859.18405,2.27276,2.27276,0,0,0-.41342.45357,4.66892,4.66892,0,0,1-.37584.45373.13984.13984,0,0,0,.00064.191.12448.12448,0,0,0,.1309.03247,1.59022,1.59022,0,0,0,.35078-.23009.85074.85074,0,0,0,.02506.1249.74758.74758,0,0,0,.23175.27608,1.48508,1.48508,0,0,0-.16286.30238.13671.13671,0,0,0,.08117.171.12485.12485,0,0,0,.13809-.03953,3.42562,3.42562,0,0,1,1.62242-1.09109.13558.13558,0,0,0,.10711-.1564A.13087.13087,0,0,0,14.24067,15.82021Zm-1.74117-1.61739a.13628.13628,0,0,0,.08646-.16812.12862.12862,0,0,0-.14283-.09482l-.00006,0a.12291.12291,0,0,0-.03127.00653,1.58906,1.58906,0,0,0-.95838.54561,1.14,1.14,0,0,0-.119.88742.129.129,0,0,0,.15227.1047.13164.13164,0,0,0,.0983-.09812A1.5036,1.5036,0,0,1,12.49949,14.20282Zm-2.80638-.21033-.00627.00658c-.374.04436-.74821.08779-1.12127.12489a1.34845,1.34845,0,0,0-.3633.05916.85163.85163,0,0,0-.30068.23009,2.94806,2.94806,0,0,0-.50737,1.02546,10.80489,10.80489,0,0,0-.30067,1.078.13673.13673,0,0,0,.08144.17092.12749.12749,0,0,0,.16286-.08546c.08482-.20517.2271-.57876.38837-.94a4.84839,4.84839,0,0,1,.30692-.585,2.6342,2.6342,0,0,0,.04384.55873.12861.12861,0,0,0,.15485.10045.132.132,0,0,0,.09572-.10045A1.91344,1.91344,0,0,1,8.81615,14.571a7.62635,7.62635,0,0,0,.92708-.31554.13665.13665,0,0,0,.08177-.17066A.1289.1289,0,0,0,9.69312,13.99249Z"/>
</svg>
