<svg xmlns="http://www.w3.org/2000/svg" viewBox="0 0 32 32">
	<path class="ti-file" d="M22 0H6v14h2V2h11v10h11v18H8v-2H6v4h26V10zm-1 10V2l8 8z"/>
	<path class="ti-file-xlsx-o-badge" d="M8 15H0v12h26V15zm4 10H8v-8h2v6h2zm6.317-1.531a2.315 2.315 0 0 1-.589.79 2.907 2.907 0 0 1-.944.54 3.768 3.768 0 0 1-1.282.201 4.624 4.624 0 0 1-1.512-.267 4.013 4.013 0 0 1-1.407-.837l1.164-1.4a3.836 3.836 0 0 0 .896.54 2.29 2.29 0 0 0 .907.208 1.22 1.22 0 0 0 .67-.143.46.46 0 0 0 .207-.403.383.383 0 0 0-.07-.238.73.73 0 0 0-.207-.178 2.449 2.449 0 0 0-.327-.16 22.53 22.53 0 0 0-.44-.172l-.96-.404a2.87 2.87 0 0 1-.594-.315 2.348 2.348 0 0 1-.498-.462 2.129 2.129 0 0 1-.34-.612 2.24 2.24 0 0 1-.124-.76 2.096 2.096 0 0 1 .214-.93 2.421 2.421 0 0 1 .593-.761 2.906 2.906 0 0 1 .91-.516A3.404 3.404 0 0 1 15.74 17a3.904 3.904 0 0 1 1.346.249 3.307 3.307 0 0 1 1.216.784l-1.02 1.282a3.69 3.69 0 0 0-.753-.415 2.126 2.126 0 0 0-.79-.144 1.137 1.137 0 0 0-.593.131.43.43 0 0 0-.213.392.457.457 0 0 0 .302.421c.202.1.48.216.837.35l.936.368a2.523 2.523 0 0 1 1.117.796 2.099 2.099 0 0 1 .391 1.318 2.272 2.272 0 0 1-.2.937zM5 25s-.9-1.756-1-2l-1 2H1l2-4-2-4h2s.887 1.74 1 2l1-2h2l-2 4 2 4zm18 0s-.9-1.756-1-2c-.09.244-1 2-1 2h-2l2-4-2-4h2s.887 1.74 1 2c.09-.26 1-2 1-2h2l-2 4 2 4z"/>
</svg>
