<svg xmlns="http://www.w3.org/2000/svg" viewBox="0 0 800 800">
	<path d="M549.098 0H149v360h50V50h300v250h250v450H489v50h310V249.854L549.098 0zM550 250V70.557L729.394 250H550z"/>
	<path d="M528.313 547.5c0-10.12-1.084-19.984-2.937-29.613l57.125-49.441-71.97-79.106-41.326 35.81c-14.501-11.696-31.195-20.785-49.267-27.032V336H311.563v62.118c-18.072 6.247-34.767 15.336-49.268 27.032l-41.329-35.81L149 468.447l57.124 49.441c-1.853 9.629-2.936 19.492-2.936 29.613 0 10.147 1.084 20.034 2.936 29.639L149 626.606l71.966 79.053 41.329-35.783c14.501 11.67 31.196 20.809 49.268 27.056V759h108.375v-62.067c18.072-6.247 34.766-15.387 49.267-27.056l41.326 35.783 71.97-79.053-57.125-49.467c1.853-9.606 2.937-19.493 2.937-29.64zM365.75 626.813c-44.822 0-81.281-35.577-81.281-79.313s36.46-79.313 81.281-79.313c44.821 0 81.281 35.577 81.281 79.313s-36.46 79.313-81.281 79.313z"/>
</svg>
