<svg xmlns="http://www.w3.org/2000/svg" viewBox="0 0 16 16">
    <path class="ti-file" d="M11,.05662H3v8H4v-7H9v5h6v9H4v-1H3v2H16v-11Zm-1,5v-4l4,4Z"/>
    <path class="ti-file-xls-o-badge" d="M4,8.11322H0v6H13v-6Zm-.5293,4.87506-.31836-.70947c-.04883-.106-.0957-.2124-.14062-.31836s-.0918-.22021-.14062-.34229H2.84668q-.06738.18311-.12891.34229c-.04.106-.083.2124-.12793.31836l-.29395.70947h-1.126l1.07715-2.04346L1.23145,9.01172h1.1748l.26855.64844q.06738.14063.13184.30273c.043.1084.09277.22754.15039.35791h.02441c.04492-.13037.08691-.24951.12793-.35791.041-.10791.08008-.209.11621-.30273L3.458,9.01172H4.584L3.56836,10.99414l1.07715,1.99414Zm4.2334,0H5.14648V9.01172H6.19922v3.0957H7.7041Zm3.21094-.71582a1.16806,1.16806,0,0,1-.30273.40674,1.49016,1.49016,0,0,1-.48633.27832,1.93541,1.93541,0,0,1-.66016.104,2.39645,2.39645,0,0,1-.78027-.1377,2.06,2.06,0,0,1-.72461-.43115l.59961-.72168a1.99161,1.99161,0,0,0,.46191.27832,1.17957,1.17957,0,0,0,.46777.10693.6275.6275,0,0,0,.3457-.07324.23748.23748,0,0,0,.10645-.208.19932.19932,0,0,0-.03613-.12256.38005.38005,0,0,0-.10742-.0918,1.2261,1.2261,0,0,0-.168-.08252c-.06543-.02637-.14062-.05615-.22656-.08887l-.49512-.208a1.46888,1.46888,0,0,1-.30664-.16211,1.20287,1.20287,0,0,1-.25684-.23828,1.10612,1.10612,0,0,1-.17383-.31494,1.14192,1.14192,0,0,1-.06445-.3916,1.07443,1.07443,0,0,1,.11035-.48047,1.22319,1.22319,0,0,1,.30566-.3916,1.48653,1.48653,0,0,1,.46777-.26611,1.76217,1.76217,0,0,1,.59668-.09766,2.01793,2.01793,0,0,1,.69434.12842,1.70556,1.70556,0,0,1,.627.40381l-.52637.66064a1.91652,1.91652,0,0,0-.3877-.21436,1.10955,1.10955,0,0,0-.40723-.07324.58392.58392,0,0,0-.30566.06738.22184.22184,0,0,0-.11035.20166.23638.23638,0,0,0,.15625.21729c.10352.05127.248.11133.43066.18066l.4834.18945a1.30907,1.30907,0,0,1,.5752.41016,1.08185,1.08185,0,0,1,.20215.67871A1.17044,1.17044,0,0,1,10.915,12.27246Z"/>
</svg>