<svg xmlns="http://www.w3.org/2000/svg" viewBox="0 0 32 32">
<path d="M22.22,0h-16V9.78H8v-8H20.44v9.78h9.78V30.22H8V27.56H6.22V32H32V9.78Zm0,9.78V2.67l7.11,7.11Z"/>
<path d="M8,17.59a.38.38,0,0,0-.34.17.69.69,0,0,0-.1.28h.84a.58.58,0,0,0-.08-.28A.37.37,0,0,0,8,17.59Z"/>
<path d="M5.72,18.3a2.34,2.34,0,0,0-.32,0,.52.52,0,0,0-.34.09.26.26,0,0,0-.11.23.29.29,0,0,0,0,.15.24.24,0,0,0,.07.07.53.53,0,0,0,.35.07,2.45,2.45,0,0,0,.32,0h0Z"/>
<path d="M12.78,17.6a.37.37,0,0,0-.34.16.86.86,0,0,0-.11.47.87.87,0,0,0,.11.47.37.37,0,0,0,.34.17.37.37,0,0,0,.34-.17,1.06,1.06,0,0,0,0-.95A.38.38,0,0,0,12.78,17.6Z"/>
<path d="M17.48,17.59a.38.38,0,0,0-.34.17A.68.68,0,0,0,17,18h.84a.59.59,0,0,0-.08-.28A.37.37,0,0,0,17.48,17.59Z"/>
<path d="M16,13.47a4.34,4.34,0,0,0-1.77.38A3.6,3.6,0,0,0,11,12,3.57,3.57,0,0,0,8.47,13.1a4,4,0,0,0-6.77,4,3.44,3.44,0,0,0,1.7,6.4,3.3,3.3,0,0,0,.7-.07,3.66,3.66,0,0,0,6.8.17,3.21,3.21,0,0,0,4.2-1.32A4.42,4.42,0,1,0,16,13.47ZM4.36,18.61c0,.36-.26.58-.68.58A1.24,1.24,0,0,1,3.07,19L3,19s0,0,0,0L3,18.7a0,0,0,0,1,.06,0l.07,0a1,1,0,0,0,.54.15c.18,0,.29-.1.29-.23H4c0-.14-.17-.19-.37-.26h0c-.28-.08-.57-.19-.57-.54H3a.58.58,0,0,1,.65-.56h0a1.19,1.19,0,0,1,.6.16,0,0,0,0,1,0,0l-.09.23s-.06,0-.06,0a1.2,1.2,0,0,0-.53-.14c-.16,0-.27.09-.27.2h0c0,.14.18.19.39.26h0c.27.09.57.21.57.54Zm1.71.46L6,19.1l-.3.06a2.13,2.13,0,0,1-.36,0,1.43,1.43,0,0,1-.31,0,.65.65,0,0,1-.24-.1.49.49,0,0,1-.15-.18.62.62,0,0,1-.05-.27.57.57,0,0,1,.06-.27.56.56,0,0,1,.17-.19A.76.76,0,0,1,5,18a1.13,1.13,0,0,1,.29,0h.18l.19,0V18c0-.16,0-.23-.1-.28a.47.47,0,0,0-.29-.08,1.2,1.2,0,0,0-.51.12h0a0,0,0,0,1,0,0l-.08-.22a0,0,0,0,1,0,0A1.15,1.15,0,0,1,5,17.3l.32,0a.8.8,0,0,1,.54.16.66.66,0,0,1,.19.52V19A0,0,0,0,1,6.07,19.07Zm.79,0a0,0,0,0,1,0,0H6.51a0,0,0,0,1,0,0V16.59a0,0,0,0,1,0,0h.31a0,0,0,0,1,0,0Zm2-.81a0,0,0,0,1,0,0H7.6a.48.48,0,0,0,.54.53,1.13,1.13,0,0,0,.48-.09,0,0,0,0,1,0,0l.08.22s0,0,0,.06a1.24,1.24,0,0,1-.59.12,1.19,1.19,0,0,1-.43-.07.77.77,0,0,1-.3-.2.78.78,0,0,1-.17-.3,1.26,1.26,0,0,1-.05-.38,1.33,1.33,0,0,1,.05-.38.85.85,0,0,1,.16-.31.77.77,0,0,1,.27-.21.92.92,0,0,1,.39-.08.85.85,0,0,1,.34.07.68.68,0,0,1,.22.17.74.74,0,0,1,.15.28A1.27,1.27,0,0,1,8.81,18.3Zm1,.89A1.24,1.24,0,0,1,9.18,19L9.07,19s0,0,0,0l.08-.23a0,0,0,0,1,.06,0l.07,0a1,1,0,0,0,.54.15c.18,0,.29-.1.29-.23h0c0-.14-.17-.19-.37-.26h0c-.28-.08-.57-.19-.57-.54h0a.58.58,0,0,1,.65-.56h0a1.19,1.19,0,0,1,.6.16,0,0,0,0,1,0,0l-.09.23s-.05,0-.05,0a1.2,1.2,0,0,0-.53-.14c-.16,0-.27.09-.27.2h0c0,.14.18.19.39.26h0c.27.09.57.21.57.54h0C10.47,19,10.21,19.19,9.79,19.19Zm2.06-1.59a0,0,0,0,1,0,0h-.39l-.27,1.5a2.25,2.25,0,0,1-.1.4.78.78,0,0,1-.15.26.54.54,0,0,1-.22.15.87.87,0,0,1-.29,0l-.17,0-.11,0a0,0,0,0,1,0,0l.09-.24a0,0,0,0,1,0,0l.06,0h.09l.14,0a.22.22,0,0,0,.11-.08.6.6,0,0,0,.08-.17,1.87,1.87,0,0,0,.07-.29L11,17.63h-.26s0,0,0,0l0-.25a0,0,0,0,1,0,0h.27v-.08a1,1,0,0,1,.24-.54.68.68,0,0,1,.5-.18H12l.12,0a0,0,0,0,1,0,0l-.09.25s0,0-.05,0h-.16l-.13,0a.25.25,0,0,0-.1.06.35.35,0,0,0-.08.13,1.61,1.61,0,0,0-.06.27h.38s0,0,0,0Zm1.73,1a.85.85,0,0,1-.16.3.75.75,0,0,1-.27.2,1,1,0,0,1-.75,0,.75.75,0,0,1-.27-.2.84.84,0,0,1-.16-.3,1.39,1.39,0,0,1,0-.75.85.85,0,0,1,.16-.3.76.76,0,0,1,.27-.2,1,1,0,0,1,.75,0,.77.77,0,0,1,.27.2.85.85,0,0,1,.16.3,1.4,1.4,0,0,1,0,.75ZM15,17.37l-.09.25s0,0,0,0l-.13,0-.16,0a.36.36,0,0,0-.15.09.44.44,0,0,0-.1.17,1,1,0,0,0,0,.31v.88a0,0,0,0,1,0,0H14a0,0,0,0,1,0,0V17.35a0,0,0,0,1,0,0h.3a0,0,0,0,1,0,0v.14a.53.53,0,0,1,.2-.15.58.58,0,0,1,.3,0l.2,0A0,0,0,0,1,15,17.37Zm1.47,1.72a1.42,1.42,0,0,1-.49.09.88.88,0,0,1-.69-.26,1,1,0,0,1-.23-.69,1.2,1.2,0,0,1,.06-.38.86.86,0,0,1,.17-.3.81.81,0,0,1,.28-.2.94.94,0,0,1,.39-.07l.26,0,.23.06a0,0,0,0,1,0,0l-.09.24s0,0,0,0A1.15,1.15,0,0,0,16,17.6a.46.46,0,0,0-.39.17.74.74,0,0,0-.13.46.67.67,0,0,0,.15.48.53.53,0,0,0,.4.15h.19l.16,0a0,0,0,0,1,0,0l.09.24A0,0,0,0,1,16.51,19.09Zm1.75-.79a0,0,0,0,1,0,0H17a.48.48,0,0,0,.54.53,1.13,1.13,0,0,0,.48-.09,0,0,0,0,1,0,0l.08.22s0,0,0,.06a1.24,1.24,0,0,1-.59.12,1.18,1.18,0,0,1-.43-.07.76.76,0,0,1-.47-.5,1.26,1.26,0,0,1-.05-.38,1.32,1.32,0,0,1,.05-.38.84.84,0,0,1,.16-.31.77.77,0,0,1,.27-.21.92.92,0,0,1,.39-.08.86.86,0,0,1,.34.07.69.69,0,0,1,.22.17.73.73,0,0,1,.15.28A1.26,1.26,0,0,1,18.26,18.3Z"/>
<path d="M5.4,18.88a.53.53,0,0,1-.35-.07A.24.24,0,0,1,5,18.74a.29.29,0,0,1,0-.15.26.26,0,0,1,.11-.23.52.52,0,0,1,.34-.09,2.34,2.34,0,0,1,.32,0v.54h0A2.45,2.45,0,0,1,5.4,18.88Z"/>
</svg>
