<svg xmlns="http://www.w3.org/2000/svg" viewBox="0 0 32 32">
	<path class="ti-file" d="M12.16 17.48c-.08.24-.08.48-.16.72H7.92a1.203 1.203 0 0 0-1.12-.8 1.2 1.2 0 0 0 0 2.4 1.13 1.13 0 0 0 1.12-.8H12a1.883 1.883 0 0 0 .16.64l-1.28.56a1.285 1.285 0 0 0-.88-.4 1.2 1.2 0 1 0 1.2 1.2v-.08l1.28-.56a3.132 3.132 0 0 0 .64.8l-2.72 3.52a3.465 3.465 0 0 0-.4-.08 1.2 1.2 0 1 0 1.2 1.2 1.507 1.507 0 0 0-.16-.64l2.72-3.52a3.805 3.805 0 0 0 1.84.56 3.6 3.6 0 0 0 0-7.2 3.716 3.716 0 0 0-1.84.48l-2-2.64a.908.908 0 0 0 .24-.64 1.2 1.2 0 1 0-1.2 1.2c.16 0 .24 0 .32-.08l2 2.64a3.132 3.132 0 0 0-.64.8L2.4 12.28v-.08A1.23 1.23 0 0 0 1.2 11a1.2 1.2 0 0 0 0 2.4 1.285 1.285 0 0 0 .88-.4z"/>
	<path class="ti-file-connect-o-badge" d="M22 0H6v11h2V2h11v10h11v18H8v-3H6v5h26V10zm-1 10V2l8 8z"/>
</svg>
