<svg xmlns="http://www.w3.org/2000/svg" viewBox="0 0 16 16">
    <path class="ti-file" d="M11,0H3V8H4V1H9V6h6v9H4V14H3v2H16V5ZM10,5V1l4,4Z"/>
    <path class="ti-file-xlsx-o-badge" d="M4,8.05658H0v6H13v-6ZM2.7583,12.7702l-.26465-.59131q-.06152-.13257-.11719-.26514c-.03809-.08838-.07715-.18359-.11816-.28564H2.23877c-.03809.10205-.07324.19727-.10742.28564s-.06934.17676-.10742.26514l-.24414.59131H.84131l.89746-1.70264L.89209,9.45624h.97949l.22363.54053c.03809.07813.07422.1626.11035.25244.03516.09033.07715.18945.125.29834H2.3501c.03809-.10889.07324-.208.10742-.29834.03418-.08984.06641-.17432.09668-.25244l.19434-.54053H3.686l-.8457,1.65186.89648,1.66211Zm3.52832,0H4.15576v-3.314h.877v2.58008H6.28662Zm2.67676-.59668a.9941.9941,0,0,1-.25293.33936,1.24861,1.24861,0,0,1-.40527.23193,1.61823,1.61823,0,0,1-.55078.08643,1.98587,1.98587,0,0,1-.64941-.11475,1.7234,1.7234,0,0,1-.60449-.35937l.5-.60156a1.64749,1.64749,0,0,0,.38477.23193.98366.98366,0,0,0,.38965.08936.52435.52435,0,0,0,.28809-.061.19777.19777,0,0,0,.08887-.17334.1644.1644,0,0,0-.03027-.10205.31318.31318,0,0,0-.08887-.07666,1.05174,1.05174,0,0,0-.14062-.06885c-.05371-.022-.11719-.04639-.18848-.07373l-.41309-.17334a1.23271,1.23271,0,0,1-.25488-.13525,1.00859,1.00859,0,0,1-.21387-.19873.91424.91424,0,0,1-.14551-.2627.96206.96206,0,0,1-.05371-.32617.90021.90021,0,0,1,.0918-.3999,1.03993,1.03993,0,0,1,.25488-.32666,1.24809,1.24809,0,0,1,.39063-.22168,1.46215,1.46215,0,0,1,.49707-.08154,1.67689,1.67689,0,0,1,.57812.10693,1.42016,1.42016,0,0,1,.52246.33691l-.43848.55029a1.58453,1.58453,0,0,0-.32324-.17822.91307.91307,0,0,0-.33887-.06152.48841.48841,0,0,0-.25488.05615.18435.18435,0,0,0-.0918.16846.19646.19646,0,0,0,.12988.18066c.08691.043.20605.09277.35938.15039l.40234.1582a1.08355,1.08355,0,0,1,.47949.3418.90154.90154,0,0,1,.168.56592A.97563.97563,0,0,1,8.96338,12.17352Zm2.2168.59668-.26465-.59131q-.06152-.13257-.11719-.26514c-.03809-.08838-.07715-.18359-.11816-.28564h-.01953c-.03809.10205-.07324.19727-.10742.28564s-.06934.17676-.10742.26514l-.24414.59131H9.26318l.89746-1.70264L9.314,9.45624h.97949l.22363.54053c.03809.07813.07422.1626.11035.25244.03516.09033.07715.18945.125.29834H10.772c.03809-.10889.07324-.208.10742-.29834.03418-.08984.06641-.17432.09668-.25244l.19434-.54053h.9375l-.8457,1.65186.89648,1.66211Z"/>
</svg>