<svg xmlns="http://www.w3.org/2000/svg" viewBox="0 0 32 32">
  <path class="ti-file" d="M22,0H6V14H8V2H19V12H30V30H8V28H6v4H32V10ZM21,10V2l8,8Z"/>
  <path class="ti-file-json-o-badge" d="M15.73394,19.51381A3.22359,3.22359,0,0,1,16,20.96808a3.43623,3.43623,0,0,1-.26606,1.4867.7666.7666,0,0,1-1.46788,0A3.425,3.425,0,0,1,14,20.96808a3.21328,3.21328,0,0,1,.26606-1.45427.7811.7811,0,0,1,1.46788,0ZM26,15V27H0V15ZM5.02745,17H2.99608l-.00664,5.32517a2.0838,2.0838,0,0,1-.0581.54188.90763.90763,0,0,1-.16312.33956.53672.53672,0,0,1-.26256.17487,1.23454,1.23454,0,0,1-.3553.04778.94557.94557,0,0,1-.50166-.15962c-.17094-.10573-.16272-.27145-.29456-.49816L0,23.69461a2.39609,2.39609,0,0,0,.91027.98718A3.3611,3.3611,0,0,0,2.46106,25a2.94861,2.94861,0,0,0,1.13739-.2013,2.21575,2.21575,0,0,0,.79886-.547,2.274,2.274,0,0,0,.47261-.80113,2.97008,2.97008,0,0,0,.15754-.977Zm6.19716,5.5319a2.30368,2.30368,0,0,0-.3443-1.31761,2.26371,2.26371,0,0,0-.98187-.79579l-.82573-.36834A7.77928,7.77928,0,0,1,8.33606,19.7a.45963.45963,0,0,1-.26724-.42063.44758.44758,0,0,1,.18817-.39221.91378.91378,0,0,1,.52246-.13074,1.67971,1.67971,0,0,1,.69561.14324,3.15842,3.15842,0,0,1,.66359.41495l.89879-1.28123A2.91085,2.91085,0,0,0,9.9655,17.249,3.08033,3.08033,0,0,0,8.77945,17a2.67848,2.67848,0,0,0-1.0189.18985,2.479,2.479,0,0,0-.7987.51613,2.3728,2.3728,0,0,0-.52246.76055,2.3,2.3,0,0,0-.18817.93108,2.48652,2.48652,0,0,0,.1091.75941,2.22593,2.22593,0,0,0,.29826.61162,2.14931,2.14931,0,0,0,.43839.4627,2.39341,2.39341,0,0,0,.52246.31491l.84675.40358c.14613.06366.27524.12051.38634.17166a2.12053,2.12053,0,0,1,.28825.1603.67455.67455,0,0,1,.18216.17849.42049.42049,0,0,1,.06306.2376.48234.48234,0,0,1-.18316.40358.97151.97151,0,0,1-.59052.14211,1.8141,1.8141,0,0,1-.7987-.208,3.37224,3.37224,0,0,1-.7897-.54L6,23.89612a3.47842,3.47842,0,0,0,1.23809.83672A3.64709,3.64709,0,0,0,8.57127,25a2.95639,2.95639,0,0,0,1.128-.20122,2.5143,2.5143,0,0,0,.83073-.54,2.2852,2.2852,0,0,0,.51746-.79011A2.5372,2.5372,0,0,0,11.22461,22.5319ZM18,20.96419a5.96344,5.96344,0,0,0-.2188-1.68481,3.82028,3.82028,0,0,0-.61075-1.246,2.54593,2.54593,0,0,0-.94847-.77192,2.99723,2.99723,0,0,0-2.44871,0,2.5994,2.5994,0,0,0-.94371.7651,3.72359,3.72359,0,0,0-.61075,1.24712A5.993,5.993,0,0,0,12,20.96419a6.127,6.127,0,0,0,.2188,1.70414,3.84728,3.84728,0,0,0,.61075,1.26986,2.65624,2.65624,0,0,0,.94371.789,2.88348,2.88348,0,0,0,2.44871,0,2.63876,2.63876,0,0,0,.94847-.789,3.885,3.885,0,0,0,.61075-1.26986A6.16274,6.16274,0,0,0,18,20.96419ZM25,17H23v4l-2-4H19v8h2V22l2,3h2Z"/>
</svg>
