<svg xmlns="http://www.w3.org/2000/svg" viewBox="0 0 16 16">
	<path d="M5.34 1.328l-.21-.226v-1.1H2.393c-.762 0-1.381.527-1.381 1.176 0 .65.619 1.175 1.38 1.175h3.912L5.34 1.328zm2.912 4.101L7.229 4.34H2.393c-.761 0-1.38.527-1.38 1.176 0 .649.618 1.175 1.38 1.175h5.86V5.429zM7.067 0v.793L9.458 3.34l.731.78v3.571h.001v.553l.374.449 1.484 1.782h.817V4.118L15.988.794V0zm3.225 10.975l-1.86-2.23-.041-.051H2.393c-.762 0-1.38.526-1.38 1.175s.618 1.176 1.38 1.176h7.777c.058 0 .113-.01.168-.015l-.046-.055zm1.866 2.087c.763 0 1.38.526 1.38 1.175 0 .65-.617 1.176-1.38 1.176H2.38c-.763 0-1.381-.526-1.381-1.176 0-.65.618-1.175 1.38-1.175"/>
</svg>
