<svg xmlns="http://www.w3.org/2000/svg" viewBox="0 0 16 16">
  <g transform="translate(1)">
    <path d="M4.3409 1.3279L4.1299 1.1019 4.1299.7929 4.1299.0019 1.3929.0019C.6309.0019.0119.5289.0119 1.1779.0119 1.8279.6309 2.3529 1.3929 2.3529L5.3039 2.3529 4.3409 1.3279zM7.2515 5.429L6.2295 4.34 1.3925 4.34C.6305 4.34.0125 4.867.0125 5.516.0125 6.165.6305 6.691 1.3925 6.691L7.2515 6.691 7.2515 5.429z"/>
    <polygon points="6.067 0 6.067 .793 8.458 3.34 9.189 4.12 9.189 7.691 9.19 7.691 9.19 8.244 9.564 8.693 11.048 10.475 11.048 10.475 11.504 10.475 11.865 10.475 11.865 4.118 14.988 .794 14.988 0"/>
    <path d="M9.2916 10.9749L7.4326 8.7449 7.3906 8.6939 1.3926 8.6939C.6306 8.6939.0126 9.2199.0126 9.8689.0126 10.5179.6306 11.0449 1.3926 11.0449L9.1696 11.0449C9.2276 11.0449 9.2826 11.0359 9.3376 11.0299L9.2916 10.9749zM11.1578 13.0618C11.9208 13.0618 12.5378 13.5878 12.5378 14.2368 12.5378 14.8868 11.9208 15.4128 11.1578 15.4128L1.3808 15.4128C.6178 15.4128-.0002 14.8868-.0002 14.2368-.0002 13.5878.6178 13.0618 1.3808 13.0618"/>
  </g>
</svg>
