<svg xmlns="http://www.w3.org/2000/svg" viewBox="0 0 16 16">
  <path d="M11,1H1A.97939.97939,0,0,0,0,2V14a.97939.97939,0,0,0,1,1H11l3-7ZM10,14H2a.97939.97939,0,0,1-1-1V3A.97939.97939,0,0,1,2,2h8l3,6ZM16,2V14a.97939.97939,0,0,1-1,1H12l3-7L12,1h3A.97939.97939,0,0,1,16,2ZM7.56089,7.88086c-.70672.36914-.59627,1.64068-.59627,1.821A.29162.29162,0,0,1,6.71542,10H5.22383C5.087,10,5,9.78886,5,9.652v-.28A2.73131,2.73131,0,0,1,6.29313,6.72456c.4802-.21362.67692-.42228.67692-.8201,0-.348-.45309-.6588-.95694-.6588a1.27144,1.27144,0,0,0-.67149.18033,3.51066,3.51066,0,0,0-.66514.715.258.258,0,0,1-.19211.09877.29007.29007,0,0,1-.15586-.04893L3.30906,5.4133a.25333.25333,0,0,1-.06315-.32638,3.15459,3.15459,0,0,1,2.885-1.65636A2.78694,2.78694,0,0,1,8.9537,5.91715,2.145,2.145,0,0,1,7.56089,7.88086ZM6.7517,13H5.2483A.249.249,0,0,1,5,12.7517V11.2483A.249.249,0,0,1,5.2483,11H6.7517A.249.249,0,0,1,7,11.2483V12.7517A.249.249,0,0,1,6.7517,13Z"/>
</svg>
