<svg xmlns="http://www.w3.org/2000/svg" viewBox="0 0 16 16">
	<g>
		<path fill="#010202" fill-rule="evenodd" d="M9.0111,15.082 C5.5481,15.082 2.7311,12.295 2.7311,8.868 C2.7311,8.281 2.8131,7.71 2.9781,7.168 C3.7331,4.505 6.2131,2.645 9.0111,2.645 C12.4691,2.645 15.2821,5.436 15.2821,8.868 C15.2821,12.295 12.4691,15.082 9.0111,15.082 M9.2611,1.914 L9.2611,1.186 L3.9751,1.186 L2.8741,-1.77635684e-15 L0.0001,-1.77635684e-15 L0.0001,7.35 L2.1671,7.35 C2.0521,7.846 1.9931,8.355 1.9931,8.868 C1.9931,12.7 5.1411,15.817 9.0111,15.817 C12.8751,15.817 16.0191,12.7 16.0191,8.868 C16.0191,5.114 13.0101,2.046 9.2611,1.914 M11.3392,4.9737 C12.1692,4.9737 12.8492,5.6537 12.8492,6.4837 C12.8492,7.3137 12.1692,7.9947 11.3392,7.9947 C10.9292,7.9947 10.5592,7.8337 10.2992,7.5747 C10.0592,7.3437 9.8892,7.0347 9.8492,6.6837 C9.8392,6.6237 9.8282,6.5537 9.8282,6.4837 C9.8282,5.6537 10.5092,4.9737 11.3392,4.9737 M11.3392,8.5437 C12.4692,8.5437 13.3992,7.6147 13.3992,6.4837 C13.3992,5.3537 12.4692,4.4237 11.3392,4.4237 C10.2092,4.4237 9.2782,5.3537 9.2782,6.4837 C9.2782,6.6147 9.2992,6.7337 9.3182,6.8537 L9.1982,6.9237 L8.6092,7.2447 L7.5782,7.8037 C7.2592,7.4837 6.8092,7.2847 6.3182,7.2847 C5.3392,7.2847 4.5382,8.0837 4.5382,9.0637 C4.5382,10.0537 5.3392,10.8537 6.3182,10.8537 C6.8682,10.8537 7.3492,10.6037 7.6792,10.2137 L9.5992,11.2537 C9.5682,11.3647 9.5592,11.4837 9.5592,11.6037 C9.5592,12.5937 10.3592,13.3837 11.3392,13.3837 C12.3282,13.3837 13.1292,12.5937 13.1292,11.6037 C13.1292,10.6237 12.3282,9.8247 11.3392,9.8247 C10.8792,9.8247 10.4482,10.0037 10.1392,10.3037 L8.0892,9.2037 C8.0992,9.1537 8.1092,9.1147 8.1092,9.0637 C8.1092,8.9637 8.0892,8.8647 8.0782,8.7737 L9.7992,7.8437 C10.1792,8.2637 10.7292,8.5437 11.3392,8.5437"/>
	</g>
</svg>
