<svg xmlns="http://www.w3.org/2000/svg" viewBox="0 0 16 16">
	<path d="M6.6 4.069L4.6 2H0v12h16V4.069zm3.493 5.172c0 .043-.01.082-.013.124l2.096 1.084a1.51 1.51 0 0 1 2.182.157 1.638 1.638 0 0 1-.153 2.257 1.51 1.51 0 0 1-2.18-.158 1.632 1.632 0 0 1-.38-1.055c0-.043.009-.082.012-.123l-2.096-1.085a1.516 1.516 0 0 1-2.19-.135A1.644 1.644 0 0 1 7.5 8.04a1.514 1.514 0 0 1 2.06 0l2.096-1.083c-.003-.042-.012-.081-.012-.124a1.569 1.569 0 1 1 1.583 1.606 1.538 1.538 0 0 1-1.052-.405L10.08 9.119c.003.04.013.08.013.122z"/>
</svg>
