<svg xmlns="http://www.w3.org/2000/svg" viewBox="0 0 16 16">
  <path d="M6.6,4.069,4.6,2H0V14H16V4.069Zm3.49267,5.17241c0,.04255-.00931.08188-.01242.12362l2.096,1.08372a1.51061,1.51061,0,0,1,2.18134.15739,1.63813,1.63813,0,0,1-.15214,2.25655,1.51061,1.51061,0,0,1-2.18134-.15739,1.63227,1.63227,0,0,1-.37943-1.05563c0-.04255.00931-.08188.01242-.12282l-2.096-1.08453a1.51613,1.51613,0,0,1-2.191-.13535A1.64446,1.64446,0,0,1,7.501,8.04045a1.51353,1.51353,0,0,1,2.06012,0l2.096-1.08372c-.0031-.04174-.01242-.0811-.01242-.12362A1.56866,1.56866,0,1,1,13.228,8.43862,1.53754,1.53754,0,0,1,12.17624,8.034l-2.096,1.08453C10.08337,9.1595,10.09267,9.19883,10.09267,9.24138Z"/>
</svg>
