<svg xmlns="http://www.w3.org/2000/svg" viewBox="0 0 16 16">
  <g>
  <path fill-rule="evenodd" d="M8.09306422,9.05170221 C8.09306422,9.42516658 7.95606116,9.75931892 7.72119878,10.0050192 C7.46676453,10.2900314 7.09489908,10.4669356 6.68388991,10.4669356 C5.90101529,10.4669356 5.26492966,9.837943 5.26492966,9.05170221 C5.26492966,8.26546143 5.90101529,7.62664079 6.68388991,7.62664079 C7.03618349,7.62664079 7.3689052,7.75440491 7.61355352,7.98044914 C7.86798777,8.20649337 8.04413456,8.53081769 8.09306422,8.89445405 L8.09306422,9.05170221 Z M11.3909235,8.29396265 C10.9114128,8.29396265 10.4906177,8.08855725 10.1774679,7.76423292 L8.56278899,8.6389258 C8.59214679,8.77651794 8.61171865,8.91411007 8.61171865,9.05170221 C8.61171865,9.1401543 8.60193272,9.21877838 8.59214679,9.30723047 L10.2557554,10.2114074 C10.5591193,9.9362231 10.9505566,9.75931892 11.3909235,9.75931892 C12.3205872,9.75931892 13.064318,10.5160757 13.064318,11.4399086 C13.064318,12.3637415 12.3205872,13.1204983 11.3909235,13.1204983 C10.4710459,13.1204983 9.71752905,12.3637415 9.71752905,11.4399086 C9.71752905,11.3219725 9.73710092,11.2138644 9.75667278,11.1057563 L8.19092355,10.2507194 C7.83862997,10.7028079 7.29061774,10.9878201 6.68388991,10.9878201 C5.61722324,10.9878201 4.75606116,10.1131273 4.75606116,9.05170221 C4.75606116,8.12786929 5.39214679,7.35145651 6.25330887,7.15489631 C6.39031193,7.12541229 6.53710092,7.10575627 6.68388991,7.10575627 C6.8306789,7.10575627 6.97746789,7.12541229 7.11447095,7.15489631 C7.48633639,7.2433484 7.82884404,7.44973661 8.08327829,7.72492088 L9.74688685,6.83057199 C9.73710092,6.76177592 9.71752905,6.68315184 9.71752905,6.61435577 C9.71752905,5.68069484 10.4710459,4.93376609 11.3909235,4.93376609 C12.3205872,4.93376609 13.064318,5.68069484 13.064318,6.61435577 C13.064318,7.5381887 12.3205872,8.29396265 11.3909235,8.29396265 Z M9.0324159,15.7546998 C12.7412844,15.7546998 15.7553517,12.7276727 15.7553517,9.002857 C15.7553517,5.27804128 12.7412844,2.24118624 9.0324159,2.24118624 C5.94984709,2.24118624 3.35657492,4.32472432 2.56391437,7.15519115 C2.38776758,7.74487174 2.29969419,8.36305356 2.29969419,9.002857 C2.29969419,12.7276727 5.31376147,15.7546998 9.0324159,15.7546998 Z M9.0324159,1.995486 C12.8685015,1.995486 16,5.13946634 16,9.002857 C16,12.8652649 12.8685015,16.0004 9.0324159,16.0004 C5.18654434,16.0004 2.05504587,12.8652649 2.05504587,9.002857 C2.05504587,8.36305356 2.14311927,7.74487174 2.30948012,7.15519115 L0,7.15519115 L0,0.0004 L2.59327217,0.0004 L3.72844037,1.23774644 L9.0324159,1.23774644 L9.0324159,1.995486 Z"/>
</g>
</svg>
