<svg xmlns="http://www.w3.org/2000/svg" viewBox="0 0 16 16">
  <g>
  <path fill-rule="evenodd" d="M11.2852658,4.96664188 C12.1091383,4.96664188 12.7851107,5.64074349 12.7851107,6.46354399 C12.7851107,7.28634449 12.1091383,7.96143742 11.2852658,7.96143742 C10.8792853,7.96143742 10.5120169,7.80183395 10.2529437,7.54508055 C10.0157082,7.31608426 9.84696321,7.00976456 9.80725851,6.66180917 C9.79633972,6.60232962 9.78641355,6.5329368 9.78641355,6.46354399 C9.78641355,5.64074349 10.462386,4.96664188 11.2852658,4.96664188 M11.2852658,8.50567534 C10.6807618,8.50567534 10.1348223,8.22810409 9.75663503,7.81174721 L8.04933309,8.7336803 C8.05925926,8.82389095 8.08010422,8.92203222 8.08010422,9.02116481 C8.08010422,9.07172243 8.07017805,9.11038414 8.05925926,9.15995043 L10.0951176,10.2504089 C10.4018363,9.95301115 10.8286618,9.77556382 11.2852658,9.77556382 C12.2679571,9.77556382 13.062051,10.5676332 13.062051,11.5391326 C13.062051,12.5205452 12.2679571,13.3036927 11.2852658,13.3036927 C10.3134934,13.3036927 9.51939947,12.5205452 9.51939947,11.5391326 C9.51939947,11.4201735 9.52833302,11.3022057 9.55910416,11.1921685 L7.65327874,10.1611896 C7.32571499,10.5478067 6.84826602,10.7956382 6.30232645,10.7956382 C5.32956139,10.7956382 4.53546746,10.0025774 4.53546746,9.02116481 C4.53546746,8.04966543 5.32956139,7.25759603 6.30232645,7.25759603 C6.78970159,7.25759603 7.23637943,7.45486989 7.55302438,7.77209418 L8.57641293,7.217943 L9.16106458,6.89972739 L9.28017867,6.83033457 C9.26032632,6.71137546 9.24047397,6.59340768 9.24047397,6.46354399 C9.24047397,5.34334572 10.1636082,4.42141264 11.2852658,4.42141264 C12.4079161,4.42141264 13.3310503,5.34334572 13.3310503,6.46354399 C13.3310503,7.58473358 12.4079161,8.50567534 11.2852658,8.50567534 Z M8.93355667,15.7521685 C12.6955766,15.7521685 15.7518456,12.6988848 15.7518456,8.9417596 C15.7518456,5.26394052 12.8246169,2.25030979 9.16086606,2.13234201 C9.08145667,2.12143742 9.01197345,2.12143742 8.93355667,2.12143742 C5.76710714,2.12143742 3.08604752,4.29244114 2.33265091,7.21784387 C2.18276568,7.77199504 2.10335629,8.34696406 2.10335629,8.9417596 C2.10335629,12.6988848 5.1715367,15.7521685 8.93355667,15.7521685 Z M9.16086606,1.88451053 C12.9536572,2.00247831 16,5.12515489 16,8.9417596 C16,12.8386617 12.8345431,16 8.93355667,16 C5.03157764,16 1.85520194,12.8386617 1.85520194,8.9417596 C1.85520194,8.34696406 1.92468515,7.77199504 2.08449656,7.21784387 L0,7.21784387 L0,0 L2.62944351,0 L3.78187232,1.24907063 L9.16086606,1.24907063 L9.16086606,1.88451053 Z"/>
</g>
</svg>
