<svg xmlns="http://www.w3.org/2000/svg" viewBox="0 0 16 16">
	<path d="M10.375 8.466a.458.458 0 1 1 0-.915.458.458 0 0 1 0 .915zm.396 1.133l-2.095 1.2 1.326.767-.763.386-1.283-.74-1.297.743-.705-.389 1.306-.755-2.077-1.199.001-.871h.758v.478l1.682.972v-.746h.719v.74l1.643-.95v-.502h.785v.866zM5.585 7.551a.458.458 0 1 1 0 .916.458.458 0 0 1 0-.916zm2.859 1.131a.458.458 0 1 1-.916 0 .458.458 0 0 1 .916 0zm-.458-.876a.458.458 0 1 1 .001-.915.458.458 0 0 1-.001.915zM5.183 6.413l2.096-1.2-1.326-.767.763-.386L8 4.8l1.296-.742.705.388-1.306.756 2.076 1.2v.869h-.758v-.478l-1.681-.972v.748h-.72v-.742l-1.644.951v.501h-.785v-.866zm10.621.766s-2.693-4.625-3.184-5.438c-.492-.813-1.119-.83-1.119-.83h-7.02c-.677 0-.965.61-.965.61l-2.88 4.98-.44.745c-.441.745 0 1.575 0 1.575s2.693 4.625 3.184 5.438c.492.812 1.118.83 1.118.83h7.021c.677 0 .965-.609.965-.609s2.88-4.981 3.32-5.727c.441-.744 0-1.574 0-1.574z"/>
</svg>
