<svg version="1.1" xmlns="http://www.w3.org/2000/svg" viewBox="0 0 16 16">
<circle cx="8" cy="8" r="3"/>
<path d="M8,0C3.6,0,0,3.6,0,8s3.6,8,8,8s8-3.6,8-8S12.4,0,8,0z M11.5,4c-0.6,0-1.1,0.2-1.5,0.5c1.2,0.7,2,2,2,3.5c0,0.6-0.2,1.2-0.4,1.7c0.9,0.4,1.7,1,2.5,1.7c-0.2,0.3-0.3,0.6-0.6,0.9c-0.7-0.7-1.6-1.3-2.6-1.7C10.3,11.4,9.2,12,8,12s-2.3-0.5-3-1.4c-1,0.4-1.8,1-2.6,1.7c-0.2-0.3-0.4-0.5-0.5-0.8c0.8-0.7,1.6-1.3,2.5-1.7C4.2,9.2,4,8.6,4,8c0-1.5,0.8-2.8,2-3.5C5.6,4.2,5.1,4,4.5,4C3.1,4,2,5.1,2,6.5c0,0.8,0.4,1.5,1,2C2.4,8.8,1.8,9.2,1.2,9.7C1.1,9.1,1,8.6,1,8c0-3.9,3.1-7,7-7s7,3.1,7,7c0,0.6-0.1,1.1-0.2,1.7c-0.6-0.4-1.2-0.8-1.8-1.2c0.6-0.5,1-1.2,1-2C14,5.1,12.9,4,11.5,4z"/>
</svg>
