<svg xmlns="http://www.w3.org/2000/svg" viewBox="0 0 800 800">
	<path d="M400 0C179.1 0 0 179.056 0 400c0 102.441 38.82 195.556 102.15 266.356C175.39 748.196 281.54 800 400 800c119.92 0 227.245-53.05 300.585-136.644C762.305 592.946 800 500.95 800 400 800 179.056 620.9 0 400 0zm279.49 609.741c-25.83-21.191-532.714-20.48-557.91 1.465C76.855 552.441 50 479.396 50 400 50 207.006 207.03 50 400 50s350 157.006 350 350c0 78.711-26.465 151.196-70.51 209.741z"/>
	<path d="M337 627l395.49-16.951c-20.397-16.734-9.419-29.246-49.404-45.944-47.661-19.817-58.879-26.739-58.879-26.739l-.466-45.71s17.776-13.709 23.367-56.758c11.146 3.277 22.865-16.619 23.521-27.07.58-10.08-1.54-38.114-15.154-35.319 2.74-21.073 4.746-40.026 3.779-50.05C655.748 285.694 619.58 247 563.939 247c-55.487 0-91.733 38.694-95.279 75.459-.924 10.024 1.042 28.977 3.818 50.05-13.65-2.795-15.769 25.238-15.115 35.319.616 10.451 12.299 30.347 23.481 27.07 5.512 43.049 23.367 56.758 23.367 56.758l-.462 45.71s-11.261 6.922-58.843 26.739c-40.984 17.085-82.091 29.771-101.987 47.101L337 627z"/>
	<path d="M480.571 614.049c-20.397-16.734-60.419-29.246-100.404-45.944-47.661-19.817-58.879-26.739-58.879-26.739l-.466-45.71s17.776-13.709 23.367-56.758c11.146 3.277 22.865-16.619 23.521-27.07.58-10.08-1.54-38.114-15.154-35.319 2.74-21.073 4.746-40.026 3.779-50.05C352.829 289.694 316.662 251 261.02 251c-55.487 0-91.733 38.694-95.279 75.459-.924 10.024 1.042 28.977 3.818 50.05-13.65-2.795-15.769 25.238-15.115 35.319.616 10.451 12.299 30.347 23.481 27.07 5.512 43.049 23.367 56.758 23.367 56.758l-.462 45.71s-11.261 6.922-58.843 26.739C101.003 585.19 89.897 597.876 70 615.206"/>
</svg>
