<svg xmlns="http://www.w3.org/2000/svg" viewBox="0 0 16 14">
  <g class="hadoop-stroke" fill="none" fill-rule="evenodd">
    <path fill="#000" fill-rule="nonzero" d="M15.9777799,5.55426021 C15.9567799,6.56126021 15.4427799,7.49526021 14.5997799,8.04926021 C13.9907799,8.34726021 13.2987799,8.43226021 12.6347799,8.29326021 C12.5997799,8.41126021 12.5657799,8.52826021 12.5317799,8.64526021 C12.3607799,9.14826021 11.9057799,9.50126021 11.3757799,9.54326021 C11.1757799,9.55526021 10.9777799,9.50426021 10.8087799,9.39726021 C10.6537799,9.29426021 10.5107799,9.17226021 10.3847799,9.03526021 C10.2907799,8.93926021 10.1967799,8.84426021 10.1017799,8.74826021 C10.0997799,8.76226021 10.0987799,8.77726021 10.0967799,8.79126021 C10.2017799,9.01926021 10.2607799,9.22026021 10.3487799,9.44026021 C10.4567799,9.67926021 10.5177799,9.93626021 10.5247799,10.1992602 C10.5307799,10.4472602 10.5397799,10.6962602 10.5447799,10.9462602 C10.6307799,11.0972602 10.6657799,11.2712602 10.6437799,11.4442602 C10.6517799,11.6542602 10.5547799,11.8552602 10.3847799,11.9792602 C10.2137799,12.0642602 10.0237799,12.1002602 9.83277985,12.0822602 C9.69477985,12.0822602 9.17377985,12.0782602 9.01777985,12.0662602 C8.89877985,12.0612602 8.77977985,12.0472602 8.66277985,12.0232602 C8.60077985,12.0072602 8.54277985,11.9792602 8.49277985,11.9422602 C8.37877985,12.0392602 8.24477985,12.1502602 8.12077985,12.2562602 C8.04777985,12.3172602 7.98477985,12.3742602 7.92977985,12.4182602 C7.89677985,12.4452602 7.86277985,12.4712602 7.82677985,12.4942602 C7.76577985,12.5922602 7.72577985,12.6802602 7.67177985,12.7652602 C7.60677985,12.8692602 7.51577985,12.9552602 7.40877985,13.0142602 C7.12777985,13.2092602 6.75777985,13.2222602 6.46377985,13.0462602 C6.19277985,12.8322602 5.96877985,12.5632602 5.80977985,12.2562602 C5.66677985,12.0422602 5.55277985,11.8112602 5.46877985,11.5682602 C5.42377985,11.4362602 5.41177985,11.2952602 5.43277985,11.1572602 C5.46077985,11.0152602 5.55177985,10.8932602 5.67977985,10.8272602 C5.70377985,10.8142602 5.71577985,10.8062602 5.73777985,10.7942602 C5.46077985,10.8072602 5.18177985,10.7962602 4.90677985,10.7622602 L4.91177985,10.8052602 C4.93077985,10.9172602 4.93677985,11.0322602 4.92677985,11.1462602 C4.90677985,11.2592602 4.86077985,11.3672602 4.79277985,11.4602602 C4.69077985,11.6092602 4.60577985,11.7692602 4.53977985,11.9362602 C4.56177985,12.1442602 4.54277985,12.3532602 4.48877985,12.5542602 C4.44777985,12.7142602 4.33177985,12.8452602 4.17877985,12.9062602 C4.02677985,12.9582602 3.86477985,12.9772602 3.70477985,12.9592602 C3.40377985,12.9292602 3.10577985,12.8682602 2.81777985,12.7752602 C2.54777985,12.7202602 2.28977985,12.6252602 2.04777985,12.4942602 C1.92977985,12.4222602 1.83977985,12.3112602 1.79577985,12.1802602 C1.75377985,12.0172602 1.77277985,11.8442602 1.84677985,11.6932602 C1.88077985,11.6092602 1.91077985,11.5252602 1.93477985,11.4382602 C1.73277985,11.4512602 1.53077985,11.4062602 1.35177985,11.3092602 C1.11777985,11.1892602 0.905779855,11.0322602 0.722779855,10.8432602 C0.461779855,10.5682602 0.290779855,10.2212602 0.232779855,9.84726021 C0.203779855,9.73926021 0.207779855,9.62626021 0.248779855,9.52226021 C0.299779855,9.43426021 0.366779855,9.35526021 0.443779855,9.28926021 C0.607779855,9.12026021 0.770779855,8.95026021 0.933779855,8.78026021 C0.996779855,8.60326021 1.05877985,8.43026021 1.12077985,8.25526021 C1.09577985,8.11926021 1.07477985,7.98226021 1.06277985,7.84426021 C1.02077985,7.41826021 1.03077985,6.98926021 1.09377985,6.56626021 C0.978779855,6.59426021 0.858779855,6.59426021 0.743779855,6.56626021 C0.558779855,6.51226021 0.408779855,6.37926021 0.330779855,6.20326021 C0.270779855,6.05826021 0.225779855,5.90826021 0.196779855,5.75426021 L0.191779855,5.74326021 C0.0477798545,5.59026021 -0.0192201455,5.38226021 0.00477985451,5.17426021 C0.0487798545,4.96126021 0.150779855,4.76526021 0.299779855,4.60626021 C0.441779855,4.44826021 0.604779855,4.31026021 0.784779855,4.19526021 C0.913779855,4.10226021 1.05877985,4.03426021 1.21277985,3.99426021 C1.23077985,3.99126021 1.24877985,3.99326021 1.26677985,3.99926021 C1.32277985,4.02126021 1.35077985,4.08326021 1.33177985,4.14126021 C1.17877985,4.44926021 1.09577985,4.78826021 1.08877985,5.13126021 C1.08677985,5.21126021 1.08077985,5.29126021 1.06877985,5.37026021 C1.04177985,5.48926021 0.985779855,5.59926021 0.903779855,5.68926021 L0.908779855,5.69426021 C0.924779855,5.68826021 0.944779855,5.68626021 0.975779855,5.67326021 C1.20477985,5.54926021 1.40177985,5.37526021 1.55277985,5.16426021 C1.75477985,4.74726021 2.03077985,4.37126021 2.36877985,4.05426021 C3.21077985,3.29826021 4.27477985,2.83626021 5.40177985,2.73926021 C5.57177985,2.55426021 5.74577985,2.37726021 5.93277985,2.20326021 C6.12177985,2.00826021 6.37477985,1.89126021 6.64477985,1.87326021 C6.98177985,1.31126021 7.47777985,0.863260206 8.06877985,0.584260206 C8.66177985,0.282260206 9.31877985,0.127260206 9.98277985,0.134260206 C10.6287799,0.199260206 11.2337799,0.479260206 11.7007799,0.930260206 C12.0457799,1.26426021 12.4137799,1.57526021 12.7997799,1.86126021 C13.0047799,1.98026021 13.1887799,2.13426021 13.3407799,2.31626021 C13.5227799,2.53926021 13.6697799,2.78726021 13.7797799,3.05226021 C13.9007799,3.01126021 14.0137799,2.95126021 14.1157799,2.87426021 C14.2617799,2.74226021 14.3677799,2.49326021 14.5487799,2.30026021 C14.6207799,2.22626021 14.7187799,2.18326021 14.8227799,2.18126021 C14.9207799,2.18026021 15.0197799,2.20026021 15.1107799,2.24026021 C15.2867799,2.30326021 15.4347799,2.42626021 15.5287799,2.58726021 C15.9087799,3.52726021 16.0627799,4.54326021 15.9777799,5.55426021"/>
    <g class="hadoop-fill" fill="#fff" fill-rule="nonzero">
      <path d="M15.1827799,2.908191 C15.1607799,2.876191 15.1337799,2.845191 15.1057799,2.817191 C15.0007799,3.224191 14.7077799,3.557191 14.3167799,3.715191 C14.2047799,3.758191 14.0827799,3.767191 13.9647799,3.742191 C13.8977799,3.726191 13.8307799,3.706191 13.7637799,3.683191 C13.7607799,3.711191 13.7457799,3.721191 13.7537799,3.769191 C13.8237799,4.117191 13.8277799,4.475191 13.7637799,4.825191 C13.7257799,5.158191 13.6247799,5.482191 13.4647799,5.777191 C13.4397799,5.812191 13.3957799,5.828191 13.3547799,5.817191 C13.2967799,5.798191 13.2637799,5.738191 13.2797799,5.680191 C13.3457799,5.392191 13.3927799,5.098191 13.4187799,4.803191 C13.4207799,4.658191 13.4107799,4.513191 13.3877799,4.370191 C13.3357799,4.388191 13.2857799,4.415191 13.2437799,4.451191 C13.1927799,4.493191 13.1487799,4.542191 13.1147799,4.597191 C12.9797799,4.884191 12.9757799,5.175191 12.7997799,5.496191 C12.7767799,5.548191 12.7147799,5.572191 12.6627799,5.548191 L12.6597799,5.547191 C12.6057799,5.519191 12.5837799,5.454191 12.6087799,5.399191 C12.6597799,5.254191 12.6867799,5.103191 12.6917799,4.949191 C12.6997799,4.771191 12.7307799,4.594191 12.7847799,4.424191 C12.7897799,4.410191 12.7987799,4.400191 12.8047799,4.386191 C12.7207799,4.433191 12.6507799,4.503191 12.6037799,4.587191 C12.5247799,4.763191 12.4287799,4.931191 12.3197799,5.090191 C12.2887799,5.136191 12.2267799,5.148191 12.1797799,5.118191 C12.1287799,5.085191 12.1147799,5.018191 12.1447799,4.965191 C12.2287799,4.768191 12.3027799,4.565191 12.3667799,4.360191 C12.4577799,4.151191 12.6507799,4.007191 12.8767799,3.980191 C12.9297799,3.965191 12.9857799,3.957191 13.0427799,3.957191 C13.1327799,3.952191 13.2247799,3.958191 13.3137799,3.972191 L13.3037799,3.924191 C13.2657799,3.920191 13.0787799,3.916191 13.0887799,3.916191 C12.9507799,3.917191 12.8127799,3.929191 12.6757799,3.953191 C12.6297799,3.959191 12.5557799,3.936191 12.5677799,3.889191 C12.6367799,3.605191 12.5237799,3.435191 12.4747799,3.417191 C12.4187799,3.390191 12.3947799,3.322191 12.4217799,3.266191 C12.4357799,3.236191 12.4627799,3.214191 12.4957799,3.206191 C12.7327799,3.102191 12.9857799,3.038191 13.2437799,3.016191 C13.1727799,2.877191 13.0957799,2.741191 13.0107799,2.610191 C12.9057799,2.455191 12.7617799,2.330191 12.5927799,2.248191 C12.5557799,2.224191 11.6987799,1.530191 11.4737799,1.333191 C11.0677799,0.922191002 10.5277799,0.671191002 9.95277985,0.623191002 L9.95177985,0.625191002 C9.33677985,0.638191002 8.73477985,0.796191002 8.19277985,1.085191 C7.82177985,1.249191 7.50277985,1.513191 7.27477985,1.848191 C7.54877985,1.839191 7.82377985,1.833191 8.10477985,1.805191 C8.15177985,1.805191 8.19377985,1.836191 8.20777985,1.881191 C8.22677985,1.938191 8.19777985,2.000191 8.14077985,2.022191 C7.76077985,2.114191 7.39477985,2.190191 7.02177985,2.249191 C6.87177985,2.265191 6.72277985,2.295191 6.57777985,2.336191 C6.44477985,2.392191 6.32577985,2.479191 6.23177985,2.590191 C5.67077985,3.163191 5.19977985,3.819191 4.67377985,4.415191 C4.41777985,4.729191 4.21177985,5.081191 4.06577985,5.460191 C3.99777985,5.578191 3.96077985,5.713191 3.96177985,5.849191 C3.98977985,5.983191 4.04977985,6.108191 4.13777985,6.212191 C4.29577985,6.420191 4.43577985,6.641191 4.55577985,6.873191 C4.80577985,6.498191 5.08477985,6.165191 5.38077985,5.790191 C5.41377985,5.753191 5.46777985,5.743191 5.50977985,5.768191 C5.56177985,5.800191 5.57977985,5.866191 5.55077985,5.920191 C5.27577985,6.382191 5.02877985,6.817191 4.80277985,7.284191 C4.68177985,7.491191 4.61777985,7.726191 4.61777985,7.966191 C4.85977985,8.256191 5.00277985,8.399191 5.21077985,8.459191 C5.43677985,8.537191 5.68577985,8.517191 5.89677985,8.404191 C6.44277985,8.026191 7.05477985,7.756191 7.70277985,7.609191 C7.94677985,6.944191 7.98077985,6.220191 7.79977985,5.535191 C7.69877985,4.938191 7.71877985,4.326191 7.86277985,3.738191 C7.86777985,3.679191 7.91877985,3.634191 7.97777985,3.639191 C8.03777985,3.646191 8.08077985,3.700191 8.07377985,3.759191 C8.09777985,4.332191 8.15977985,4.902191 8.25977985,5.465191 C8.46577985,6.303191 8.41477985,7.185191 8.10977985,7.993191 C8.09477985,8.035191 8.05577985,8.063191 8.01177985,8.064191 C7.31077985,8.176191 6.64477985,8.451191 6.06777985,8.865191 C5.76977985,9.025191 5.42077985,9.062191 5.09677985,8.967191 C4.69677985,8.815191 4.35277985,8.543191 4.11177985,8.188191 C4.09177985,8.164191 4.08277985,8.132191 4.08577985,8.101191 C4.10477985,7.863191 4.15877985,7.630191 4.24677985,7.408191 C4.12377985,7.079191 3.94577985,6.774191 3.71977985,6.504191 C3.56977985,6.327191 3.47277985,6.111191 3.44177985,5.881191 C3.44577985,5.646191 3.50877985,5.415191 3.62777985,5.210191 C3.79177985,4.818191 4.00377985,4.449191 4.26177985,4.111191 C4.46877985,3.855191 4.66177985,3.616191 4.85477985,3.381191 C4.05477985,3.497191 3.30877985,3.856191 2.71877985,4.409191 C2.20677985,4.902191 1.82977985,5.520191 1.62577985,6.201191 C1.46477985,6.717191 1.42377985,7.264191 1.50677985,7.798191 C1.65377985,8.788191 2.02177985,9.732191 2.58577985,10.559191 C2.59977985,10.583191 2.60477985,10.612191 2.59977985,10.640191 C2.55477985,11.058191 2.46177985,11.468191 2.32177985,11.864191 C2.29577985,11.912191 2.29777985,11.969191 2.32677985,12.015191 C2.36277985,12.070191 2.41277985,12.115191 2.47077985,12.145191 C2.63177985,12.218191 2.79877985,12.274191 2.97177985,12.313191 C3.17877985,12.376191 3.39077985,12.423191 3.60577985,12.454191 C3.71077985,12.470191 3.81677985,12.470191 3.92077985,12.454191 C3.99877985,12.437191 4.02077985,12.414191 4.02977985,12.383191 C4.07077985,12.221191 4.08177985,12.052191 4.05977985,11.885191 C4.06077985,11.866191 4.06577985,11.848191 4.07577985,11.831191 C4.16877985,11.635191 4.27377985,11.446191 4.38977985,11.263191 C4.48477985,11.125191 4.52577985,10.958191 4.50377985,10.792191 C4.50477985,10.483191 4.49577985,9.932191 4.50877985,9.714191 C4.50277985,9.655191 4.54377985,9.602191 4.60377985,9.594191 C4.66277985,9.589191 4.71477985,9.632191 4.71977985,9.692191 L4.71977985,9.693191 C4.75577985,9.852191 4.79677985,10.075191 4.83477985,10.288191 C5.39077985,10.384191 5.96177985,10.376191 6.51577985,10.261191 C6.52377985,10.235191 6.52877985,10.208191 6.53677985,10.180191 C6.58377985,10.010191 6.66577985,9.854191 6.70177985,9.720191 C6.71477985,9.672191 6.76077985,9.641191 6.80977985,9.644191 C6.86977985,9.650191 6.91377985,9.703191 6.90777985,9.763191 C6.89677985,9.911191 6.88777985,10.062191 6.87777985,10.213191 C6.86477985,10.348191 6.86677985,10.484191 6.88177985,10.619191 C6.89177985,10.703191 6.90277985,10.788191 6.91377985,10.873191 C6.92077985,10.918191 6.90177985,10.964191 6.86177985,10.989191 C6.81277985,11.018191 6.74977985,11.003191 6.71977985,10.954191 C6.71877985,10.952191 6.71777985,10.950191 6.71677985,10.948191 C6.69677985,10.913191 6.65577985,10.857191 6.61977985,10.808191 C6.42177985,10.952191 6.21677985,11.086191 6.00477985,11.208191 C5.96777985,11.226191 5.94577985,11.265191 5.94877985,11.306191 C5.94677985,11.380191 5.95977985,11.453191 5.98477985,11.522191 C6.04177985,11.679191 6.11377985,11.830191 6.20177985,11.972191 C6.31477985,12.183191 6.45777985,12.379191 6.62477985,12.551191 C6.74677985,12.695191 6.95877985,12.723191 7.11477985,12.616191 C7.24577985,12.501191 7.35577985,12.363191 7.43977985,12.210191 C7.44777985,12.197191 7.45777985,12.186191 7.46977985,12.177191 C7.49077985,12.165191 7.56477985,12.107191 7.65577985,12.031191 C7.74777985,11.956191 7.85977985,11.860191 7.97077985,11.766191 C8.08177985,11.672191 8.19477985,11.581191 8.28577985,11.506191 C8.34877985,11.450191 8.41677985,11.397191 8.48677985,11.349191 C8.50677985,11.333191 8.52677985,11.315191 8.54377985,11.295191 C8.57277985,11.260191 8.60677985,11.210191 8.64677985,11.154191 C8.72577985,11.042191 8.81977985,10.899191 8.90977985,10.748191 C8.99977985,10.597191 9.08377985,10.437191 9.15177985,10.304191 C9.20377985,10.210191 9.24877985,10.112191 9.28677985,10.012191 C9.46777985,9.514191 9.60477985,9.002191 9.69377985,8.480191 C9.37177985,8.318191 9.09177985,8.083191 8.87777985,7.792191 C8.84077985,7.751191 8.83877985,7.688191 8.87377985,7.644191 C8.90877985,7.599191 8.97277985,7.590191 9.01777985,7.625191 C9.01977985,7.627191 9.02177985,7.628191 9.02277985,7.630191 C9.35477985,7.894191 9.73277985,8.094191 10.1367799,8.220191 C10.1537799,8.225191 10.1677799,8.235191 10.1787799,8.247191 C10.3317799,8.388191 10.4867799,8.529191 10.6487799,8.680191 C10.7587799,8.790191 10.8797799,8.890191 11.0087799,8.978191 C10.9887799,8.961191 10.9697799,8.943191 10.9527799,8.923191 C10.8957799,8.827191 10.8677799,8.716191 10.8707799,8.604191 C10.8757799,8.389191 10.9127799,8.175191 10.9787799,7.971191 C11.0257799,7.769191 11.0237799,7.560191 10.9727799,7.359191 C10.9697799,7.339191 10.9717799,7.318191 10.9787799,7.299191 C10.9687799,7.305191 10.9477799,7.316191 10.9427799,7.321191 C10.9177799,7.349191 10.8977799,7.382191 10.8857799,7.419191 C10.8337799,7.540191 10.7727799,7.693191 10.7257799,7.824191 C10.7087799,7.864191 10.6687799,7.889191 10.6257799,7.887191 C10.5657799,7.882191 10.5207799,7.830191 10.5247799,7.770191 C10.5427799,7.650191 10.5697799,7.505191 10.5857799,7.391191 C10.5897799,7.281191 10.6247799,7.175191 10.6847799,7.083191 C10.7617799,7.003191 10.8667799,6.954191 10.9787799,6.947191 C11.0607799,6.933191 11.2217799,6.894191 11.3187799,6.877191 C11.3607799,6.873191 11.4007799,6.893191 11.4207799,6.929191 C11.4517799,6.982191 11.4367799,7.049191 11.3857799,7.083191 C11.2977799,7.132191 11.1737799,7.186191 11.0917799,7.229191 C11.1067799,7.231191 11.1217799,7.236191 11.1327799,7.245191 C11.2797799,7.355191 11.4387799,7.446191 11.6077799,7.516191 C12.4747799,7.961191 13.4937799,8.002191 14.3937799,7.629191 C15.0677799,7.137191 15.4847799,6.368191 15.5287799,5.534191 C15.5907799,4.645191 15.4737799,3.752191 15.1827799,2.908191"/>
      <path d="M2.08477985 10.666191C1.77077985 10.156191 1.51777985 9.611191 1.33177985 9.042191L1.32677985 9.058191C1.32177985 9.072191 1.31477985 9.085191 1.30577985 9.096191 1.14577985 9.266191.985779855 9.435191.825779855 9.605191.792779855 9.638191.760779855 9.674191.732779855 9.713191.728779855 9.722191.721779855 9.737191.732779855 9.821191.781779855 10.073191.903779855 10.305191 1.08477985 10.487191 1.22777985 10.633191 1.39377985 10.757191 1.57377985 10.856191 1.65777985 10.903191 1.75177985 10.933191 1.84677985 10.942191 1.91277985 10.951191 1.97677985 10.921191 2.01177985 10.866191 2.04777985 10.804191 2.07277985 10.736191 2.08477985 10.666191M12.3397799 8.225191C12.2887799 8.283191 11.3657799 7.712191 11.2937799 7.747191 11.2977799 7.759191 10.9197799 8.969191 11.4907799 8.996191 12.1157799 9.024191 12.3397799 8.225191 12.3397799 8.225191M13.8147799 3.312191C13.9277799 3.348191 14.0347799 3.404191 14.1277799 3.479191 14.3247799 3.642191 14.8707799 2.922191 14.8997799 2.670191L14.8567799 2.605191C14.8357799 2.604191 14.8147799 2.611191 14.7987799 2.627191 14.6347799 2.801191 14.4607799 2.966191 14.2767799 3.121191 14.1287799 3.199191 13.9737799 3.263191 13.8147799 3.312191M.707779855 5.203191C.713779855 5.040191.730779855 4.877191.758779855 4.716191.664779855 4.803191.581779855 4.901191.510779855 5.008191.450779855 5.099191.412779855 5.203191.402779855 5.312191.398779855 5.415191.437779855 5.515191.510779855 5.588191.515779855 5.582191.520779855 5.576191.526779855 5.571191.639779855 5.483191.706779855 5.347191.707779855 5.203191M10.0957799 11.023191C10.0887799 10.756191 10.0837799 10.489191 10.0757799 10.222191 10.0717799 10.016191 10.0247799 9.813191 9.93677985 9.627191 9.92377985 9.595191 9.92077985 9.570191 9.91077985 9.540191 9.84377985 9.748191 9.77677985 9.950191 9.70977985 10.173191 9.60677985 10.456191 9.47777985 10.728191 9.32277985 10.985191 9.20377985 11.197191 9.06377985 11.397191 8.90477985 11.581191 8.95877985 11.598191 9.01377985 11.609191 9.06977985 11.613191 9.12577985 11.618191 9.29277985 11.622191 9.45677985 11.624191 9.62177985 11.627191 9.78577985 11.623191 9.85377985 11.624191 9.93877985 11.635191 10.0257799 11.626191 10.1067799 11.597191 10.1357799 11.576191 10.1657799 11.522191 10.1787799 11.359191 10.1927799 11.194191 10.1917799 11.219191 10.1117799 11.072191 10.1027799 11.057191 10.0977799 11.041191 10.0957799 11.023191"/>
    </g>
    <g class="hadoop-stroke" fill="#000" fill-rule="nonzero" transform="translate(5)">
      <path d="M2.98177985 2.464191L2.97577985 2.469191C2.66877985 2.506191 2.35977985 2.542191 2.05277985 2.572191 1.95177985 2.575191 1.85077985 2.591191 1.75277985 2.621191 1.65777985 2.665191 1.57377985 2.730191 1.50577985 2.811191 1.31277985 3.062191 1.17077985 3.349191 1.08777985 3.655191.990779855 3.946191.907779855 4.243191.839779855 4.543191.821779855 4.600191.850779855 4.662191.907779855 4.684191.961779855 4.702191 1.02177985 4.672191 1.04077985 4.617191 1.04077985 4.616191 1.04177985 4.614191 1.04177985 4.613191 1.11177985 4.444191 1.22877985 4.136191 1.36177985 3.839191 1.43477985 3.673191 1.51877985 3.512191 1.61477985 3.357191 1.60977985 3.511191 1.62277985 3.666191 1.65077985 3.818191 1.66177985 3.875191 1.71677985 3.912191 1.77477985 3.901191 1.77577985 3.901191 1.77677985 3.901191 1.77777985 3.900191 1.81777985 3.890191 1.84777985 3.858191 1.85677985 3.818191 1.89577985 3.490191 2.03677985 3.184191 2.25877985 2.941191 2.51877985 2.870191 2.77377985 2.783191 3.02277985 2.681191 3.07977985 2.659191 3.10877985 2.597191 3.08977985 2.540191 3.07577985 2.492191 3.03077985 2.461191 2.98177985 2.464191M5.29277985 2.637191C5.34977985 2.618191 5.38077985 2.557191 5.36377985 2.499191 5.34977985 2.446191 5.29877985 2.413191 5.24677985 2.421191 5.23777985 2.422191 5.22877985 2.423191 5.21977985 2.426191 4.91277985 2.477191 4.63177985 2.636191 4.43077985 2.876191 4.29977985 3.095191 4.26477985 3.360191 4.33377985 3.606191 4.34277985 3.664191 4.39777985 3.703191 4.45577985 3.693191L4.45877985 3.693191C4.49877985 3.683191 4.52977985 3.652191 4.53977985 3.611191 4.59977985 3.176191 4.88577985 2.805191 5.29277985 2.637191M6.72677985 3.969191C6.59277985 3.975191 6.46077985 3.999191 6.33477985 4.040191 6.32877985 4.006191 6.31977985 3.974191 6.30877985 3.942191 6.26477985 3.852191 6.19977985 3.774191 6.11777985 3.715191 6.18177985 3.679191 6.24177985 3.637191 6.29777985 3.590191 6.34177985 3.549191 6.34677985 3.480191 6.30777985 3.433191 6.28877985 3.409191 6.25777985 3.395191 6.22577985 3.396191L6.22577985 3.395191C6.21077985 3.395191 6.19477985 3.399191 6.17977985 3.406191 6.06377985 3.455191 5.94277985 3.489191 5.81877985 3.509191 5.67477985 3.530191 5.53877985 3.582191 5.41677985 3.660191 5.28677985 3.769191 5.17177985 3.895191 5.07577985 4.034191 4.98077985 4.165191 4.87777985 4.290191 4.76577985 4.408191 4.72477985 4.452191 4.72477985 4.521191 4.76677985 4.565191 4.79377985 4.594191 4.83577985 4.605191 4.87477985 4.592191 4.97877985 4.542191 5.07577985 4.478191 5.16377985 4.402191 5.16877985 4.437191 5.17477985 4.471191 5.18377985 4.505191 5.22777985 4.595191 5.29477985 4.673191 5.37577985 4.733191 5.32077985 4.810191 5.27577985 4.894191 5.24077985 4.982191 5.22177985 5.039191 5.25177985 5.101191 5.30777985 5.122191 5.34877985 5.136191 5.39377985 5.124191 5.42077985 5.090191 5.76977985 4.667191 6.23477985 4.355191 6.75777985 4.191191 6.81677985 4.179191 6.85677985 4.122191 6.84577985 4.062191 6.83777985 4.004191 6.78577985 3.963191 6.72677985 3.969191M1.44577985 1.513191C1.49477985 1.527191 1.54577985 1.503191 1.56777985 1.457191 1.78077985.887191002 2.22777985.436191002 2.79577985.217191002 2.85277985.198191002 2.88377985.136191002 2.86777985.0791910019 2.85377985.0261910019 2.80277985-.00680899807 2.74977985.00119100193 2.74077985.00219100193 2.73177985.00319100193 2.72277985.00619100193 2.55677985.0461910019 2.39277985.0961910019 2.23377985.158191002 2.22677985.0991910019 2.17277985.0571910019 2.11477985.0641910019 2.11477985.0641910019 2.11377985.0641910019 2.11277985.0641910019L2.10477985.0661910019C1.93977985.0911910019 1.78477985.160191002 1.65577985.266191002 1.54377985.396191002 1.46677985.552191002 1.43377985.721191002 1.41777985.779191002 1.44977985.839191002 1.50677985.858191002 1.51977985.862191002 1.53377985.863191002 1.54677985.861191002 1.47677985 1.028191 1.41877985 1.200191 1.37177985 1.376191 1.35577985 1.434191 1.38777985 1.494191 1.44577985 1.513191"/>
    </g>
  </g>
</svg>
