<svg xmlns="http://www.w3.org/2000/svg" viewBox="0 0 16 14">
	<g class="hadoop-stroke" fill="none" fill-rule="evenodd">
		<path fill="#000" fill-rule="nonzero" d="M15.978 5.554A3.061 3.061 0 0 1 14.6 8.05a3.05 3.05 0 0 1-1.965.244c-.035.118-.07.235-.103.352a1.332 1.332 0 0 1-1.156.898.952.952 0 0 1-.567-.146 2.327 2.327 0 0 1-.424-.362 76.052 76.052 0 0 0-.283-.287l-.005.043c.105.228.164.43.252.65.108.238.169.495.176.758.006.248.015.497.02.747a.8.8 0 0 1 .099.498.633.633 0 0 1-.26.535 1.021 1.021 0 0 1-.551.103c-.138 0-.66-.004-.815-.016a2.235 2.235 0 0 1-.355-.043.495.495 0 0 1-.17-.08c-.114.096-.248.207-.372.313-.073.061-.136.118-.191.162a1.093 1.093 0 0 1-.103.076c-.061.098-.101.186-.155.271a.722.722 0 0 1-.263.25.872.872 0 0 1-.945.031 2.436 2.436 0 0 1-.654-.79 3.002 3.002 0 0 1-.341-.688.869.869 0 0 1-.036-.41.474.474 0 0 1 .247-.33l.058-.034a4.91 4.91 0 0 1-.831-.032l.005.043c.019.112.025.227.015.341a.757.757 0 0 1-.134.314 2.415 2.415 0 0 0-.253.476c.022.208.003.417-.051.618a.519.519 0 0 1-.31.352 1.09 1.09 0 0 1-.474.053 4.264 4.264 0 0 1-.887-.184 2.78 2.78 0 0 1-.77-.28.589.589 0 0 1-.252-.315.707.707 0 0 1 .05-.487c.035-.084.065-.168.089-.255a1.079 1.079 0 0 1-.583-.129 2.397 2.397 0 0 1-.63-.466 1.86 1.86 0 0 1-.49-.996.517.517 0 0 1 .017-.325.91.91 0 0 1 .195-.233l.49-.509.187-.525a5.206 5.206 0 0 1-.027-1.689.74.74 0 0 1-.35 0 .651.651 0 0 1-.413-.363 2.273 2.273 0 0 1-.134-.449l-.005-.01a.71.71 0 0 1-.187-.57c.044-.213.146-.409.295-.568.142-.158.305-.296.485-.41.129-.094.274-.162.428-.202A.111.111 0 0 1 1.267 4a.113.113 0 0 1 .065.142 2.335 2.335 0 0 0-.243.99 1.91 1.91 0 0 1-.02.24.703.703 0 0 1-.165.318l.005.005c.016-.006.036-.008.067-.02a1.71 1.71 0 0 0 .577-.51 3.78 3.78 0 0 1 .816-1.11A5.208 5.208 0 0 1 5.402 2.74c.17-.185.344-.362.53-.536.19-.195.443-.312.713-.33A3.305 3.305 0 0 1 8.069.584a4.124 4.124 0 0 1 1.914-.45A2.888 2.888 0 0 1 11.7.93c.345.334.713.645 1.099.931.205.12.389.273.54.455.183.223.33.471.44.736.12-.04.234-.1.336-.178.146-.132.252-.38.433-.574a.392.392 0 0 1 .274-.119.7.7 0 0 1 .288.06.794.794 0 0 1 .418.346c.38.94.534 1.956.449 2.967"/>
		<g class="hadoop-fill" fill="#fff" fill-rule="nonzero">
			<path d="M15.183 2.908a.662.662 0 0 0-.077-.09c-.105.406-.398.74-.79.897a.621.621 0 0 1-.351.027 2.179 2.179 0 0 1-.201-.059c-.003.028-.018.038-.01.086a2.8 2.8 0 0 1 .01 1.056 2.621 2.621 0 0 1-.3.952.103.103 0 0 1-.11.04.113.113 0 0 1-.074-.137 6.48 6.48 0 0 0 .139-.877 2.51 2.51 0 0 0-.031-.433.446.446 0 0 0-.144.081.597.597 0 0 0-.13.146c-.134.287-.138.578-.314.9a.103.103 0 0 1-.137.051h-.003a.113.113 0 0 1-.051-.149c.05-.145.078-.296.083-.45.008-.178.039-.355.093-.525.005-.014.014-.024.02-.038a.525.525 0 0 0-.201.201 3.232 3.232 0 0 1-.284.503.102.102 0 0 1-.14.028.114.114 0 0 1-.035-.153c.084-.197.158-.4.222-.605a.638.638 0 0 1 .51-.38.61.61 0 0 1 .166-.023c.09-.005.182.001.27.015l-.01-.048c-.037-.004-.224-.008-.214-.008a2.496 2.496 0 0 0-.413.037c-.046.006-.12-.017-.108-.064.069-.284-.044-.454-.093-.472a.114.114 0 0 1-.053-.15.11.11 0 0 1 .074-.06c.237-.105.49-.169.748-.19a4.533 4.533 0 0 0-.233-.407 1.068 1.068 0 0 0-.418-.362 45.864 45.864 0 0 1-1.12-.915 2.42 2.42 0 0 0-1.52-.71l-.001.002a3.913 3.913 0 0 0-1.76.46c-.37.164-.69.428-.917.763.274-.009.549-.015.83-.043.047 0 .089.031.103.076a.113.113 0 0 1-.067.141c-.38.092-.746.168-1.12.227-.15.016-.298.046-.443.087a.924.924 0 0 0-.346.254C5.67 3.163 5.2 3.82 4.674 4.415a3.837 3.837 0 0 0-.608 1.045.771.771 0 0 0-.104.39.821.821 0 0 0 .176.362c.158.208.298.43.418.661.25-.375.529-.708.825-1.083a.103.103 0 0 1 .129-.022c.052.032.07.098.04.152-.274.462-.521.897-.747 1.364a1.35 1.35 0 0 0-.185.682c.242.29.385.433.593.493a.86.86 0 0 0 .686-.055 5.187 5.187 0 0 1 1.806-.795A3.457 3.457 0 0 0 7.8 5.535a4.442 4.442 0 0 1 .063-1.797.107.107 0 0 1 .115-.099c.06.007.103.061.096.12.024.573.086 1.143.186 1.706.206.838.155 1.72-.15 2.528a.107.107 0 0 1-.098.071 4.575 4.575 0 0 0-1.944.801c-.298.16-.647.197-.971.102a2.087 2.087 0 0 1-.985-.779.119.119 0 0 1-.026-.087c.019-.238.073-.47.16-.693a3.097 3.097 0 0 0-.526-.904 1.215 1.215 0 0 1-.278-.623c.004-.235.067-.466.186-.67a4.97 4.97 0 0 1 .634-1.1c.207-.256.4-.495.593-.73-.8.116-1.546.475-2.136 1.028a4.138 4.138 0 0 0-1.093 1.792 3.54 3.54 0 0 0-.12 1.597c.148.99.516 1.934 1.08 2.761.014.024.019.053.014.081a5.404 5.404 0 0 1-.278 1.224.149.149 0 0 0 .005.151c.036.055.086.1.144.13.16.073.328.13.5.168.208.063.42.11.635.141.105.016.21.016.315 0 .078-.017.1-.04.109-.07.04-.163.052-.332.03-.499a.117.117 0 0 1 .016-.054 5.32 5.32 0 0 1 .314-.568.673.673 0 0 0 .114-.47c0-.31-.008-.86.005-1.079a.11.11 0 0 1 .095-.12.107.107 0 0 1 .116.098v.001c.036.16.077.382.115.595a4.505 4.505 0 0 0 1.68-.027c.009-.026.014-.053.022-.08.047-.17.129-.327.165-.46a.105.105 0 0 1 .108-.077c.06.006.104.06.098.12-.011.147-.02.298-.03.45-.013.134-.011.27.004.405.01.084.02.17.032.254a.115.115 0 0 1-.052.116.104.104 0 0 1-.142-.035l-.003-.006a1.853 1.853 0 0 0-.097-.14 6.885 6.885 0 0 1-.615.4.1.1 0 0 0-.056.098.587.587 0 0 0 .036.216c.057.157.129.308.217.45.113.211.256.407.423.58a.369.369 0 0 0 .49.064c.13-.115.24-.253.325-.406a.118.118 0 0 1 .03-.033c.02-.012.095-.07.186-.146.092-.075.204-.17.315-.265.11-.094.224-.185.315-.26.063-.056.13-.109.2-.157a.415.415 0 0 0 .058-.054c.029-.035.063-.085.103-.14a6.495 6.495 0 0 0 .505-.85c.052-.095.097-.193.135-.293.18-.498.318-1.01.407-1.532a2.289 2.289 0 0 1-.816-.688.115.115 0 0 1-.004-.148.102.102 0 0 1 .144-.019l.005.005c.332.264.71.464 1.114.59a.093.093 0 0 1 .042.027c.153.141.308.282.47.433.11.11.23.21.36.298a.485.485 0 0 1-.056-.055.594.594 0 0 1-.082-.319 2.23 2.23 0 0 1 .108-.633 1.292 1.292 0 0 0-.006-.612.122.122 0 0 1 .006-.06c-.01.006-.031.017-.036.022a.275.275 0 0 0-.057.098 7.593 7.593 0 0 0-.16.405.104.104 0 0 1-.1.063.11.11 0 0 1-.101-.117c.018-.12.045-.265.06-.379a.604.604 0 0 1 .1-.308.447.447 0 0 1 .294-.136c.082-.014.243-.053.34-.07a.104.104 0 0 1 .102.052.115.115 0 0 1-.035.154c-.088.05-.212.103-.294.146.015.002.03.007.04.016.148.11.307.201.476.271a3.319 3.319 0 0 0 2.786.113 2.774 2.774 0 0 0 1.135-2.095 6.638 6.638 0 0 0-.346-2.626"/>
			<path d="M2.085 10.666a7.605 7.605 0 0 1-.753-1.624l-.005.016a.128.128 0 0 1-.021.038l-.48.51a.88.88 0 0 0-.093.107c-.004.01-.011.024 0 .108.049.252.17.484.352.666.143.146.309.27.489.37a.698.698 0 0 0 .273.085.168.168 0 0 0 .165-.076.602.602 0 0 0 .073-.2m10.255-2.44c-.051.057-.974-.514-1.046-.479.004.012-.374 1.222.197 1.25.625.027.849-.772.849-.772m1.475-4.913c.113.036.22.092.313.167.197.163.743-.557.772-.809l-.043-.065a.076.076 0 0 0-.058.022 6.255 6.255 0 0 1-.522.494 2.693 2.693 0 0 1-.462.191M.708 5.203c.006-.163.023-.326.05-.487a1.61 1.61 0 0 0-.247.292.663.663 0 0 0-.108.304.37.37 0 0 0 .108.276l.016-.017a.471.471 0 0 0 .18-.368m9.389 5.82c-.007-.267-.012-.534-.02-.8a1.457 1.457 0 0 0-.14-.596c-.012-.032-.015-.057-.025-.087-.067.208-.134.41-.201.633a4.65 4.65 0 0 1-.387.812 3.627 3.627 0 0 1-.418.596.719.719 0 0 0 .165.032c.056.005.223.01.387.011.165.003.329 0 .397 0a.544.544 0 0 0 .253-.027c.029-.02.059-.075.072-.238.014-.165.013-.14-.067-.287a.118.118 0 0 1-.016-.049"/>
		</g>
		<path d="M7.982 2.464l-.006.005a41.33 41.33 0 0 1-.923.103 1.14 1.14 0 0 0-.3.05.716.716 0 0 0-.247.19 2.427 2.427 0 0 0-.418.843c-.097.291-.18.588-.248.888a.114.114 0 0 0 .068.141.107.107 0 0 0 .133-.067v-.004c.07-.169.188-.477.32-.774.074-.166.158-.327.254-.482-.005.154.008.31.036.461a.105.105 0 0 0 .124.083h.003c.04-.01.07-.043.079-.083.039-.328.18-.634.402-.877.26-.07.515-.158.764-.26a.113.113 0 0 0 .067-.14.106.106 0 0 0-.108-.077m2.31.173a.112.112 0 0 0 .072-.138.105.105 0 0 0-.117-.078 1.31 1.31 0 0 0-.816.455.934.934 0 0 0-.097.73.105.105 0 0 0 .122.087h.003a.11.11 0 0 0 .08-.082c.06-.435.347-.806.754-.974m1.434 1.332c-.134.006-.266.03-.392.071a.642.642 0 0 0-.026-.098.607.607 0 0 0-.191-.227 1.18 1.18 0 0 0 .18-.125.115.115 0 0 0 .01-.157.101.101 0 0 0-.082-.037.11.11 0 0 0-.046.01 1.567 1.567 0 0 1-.361.103c-.144.021-.28.073-.402.151-.13.11-.245.235-.341.374a3.682 3.682 0 0 1-.31.374.115.115 0 0 0 0 .157c.028.03.07.04.109.027.104-.05.2-.114.289-.19a.892.892 0 0 0 .02.103.63.63 0 0 0 .192.228c-.055.077-.1.161-.135.25a.112.112 0 0 0 .067.14.101.101 0 0 0 .113-.033 2.832 2.832 0 0 1 1.337-.899.112.112 0 0 0 .088-.129.108.108 0 0 0-.12-.093m-5.28-2.456c.049.014.1-.01.122-.056.213-.57.66-1.02 1.228-1.24A.114.114 0 0 0 7.868.08.106.106 0 0 0 7.75.001a3.79 3.79 0 0 0-.516.157.108.108 0 0 0-.12-.094h-.001l-.008.002a.925.925 0 0 0-.45.2.986.986 0 0 0-.221.455.113.113 0 0 0 .073.137.09.09 0 0 0 .04.003c-.07.167-.128.34-.175.515a.112.112 0 0 0 .074.137" class="hadoop-stroke" fill="#000" fill-rule="nonzero"/>
	</g>
</svg>
