<svg xmlns="http://www.w3.org/2000/svg" viewBox="0 0 16 16">
	<g fill="none" fill-rule="evenodd">
		<path fill="#FFF200" d="M3.4198,5.6787 C3.4198,5.6787 1.4668,7.1127 1.3108,8.2057 C1.2318,8.7537 1.4978,10.7997 0.5288,11.6437 C0.1048,12.0137 1.3568,13.0657 2.2168,13.1747 C2.7178,13.2387 2.0398,14.2827 2.0918,14.3307 C2.2468,14.4757 3.7388,14.9247 4.0288,14.7377 C4.3188,14.5507 4.7788,12.5187 4.7788,12.5187 L6.2168,12.6907 L5.5758,13.3157 L6.7328,14.9877 L8.2478,13.8467 L10.2478,13.8307 L9.9668,10.6437 L11.4828,11.3777 L12.6388,10.1907 C12.6388,10.1907 17.0918,10.1747 15.3938,5.3737 C15.3888,3.5657 13.9358,5.2057 13.9358,5.2057 L11.5288,3.2357 C11.5288,3.2357 10.3708,2.1157 8.9418,2.6187 C6.3418,3.5337 6.2328,4.9247 5.4508,4.9717 C4.0348,5.0567 3.4198,5.6787 3.4198,5.6787"/>
		<path fill="#000" d="M7.9813,4.4644 L7.9753,4.4694 C7.6683,4.5064 7.3593,4.5424 7.0523,4.5724 C6.9513,4.5754 6.8503,4.5914 6.7523,4.6214 C6.6573,4.6654 6.5733,4.7304 6.5053,4.8114 C6.3123,5.0624 6.1703,5.3494 6.0873,5.6554 C5.9903,5.9464 5.9073,6.2434 5.8393,6.5434 C5.8213,6.6004 5.8503,6.6624 5.9073,6.6844 C5.9613,6.7024 6.0213,6.6724 6.0403,6.6174 C6.0403,6.6164 6.0413,6.6144 6.0413,6.6134 C6.1113,6.4444 6.2283,6.1364 6.3613,5.8394 C6.4343,5.6734 6.5183,5.5124 6.6143,5.3574 C6.6093,5.5114 6.6223,5.6664 6.6503,5.8184 C6.6613,5.8754 6.7163,5.9124 6.7743,5.9014 C6.7753,5.9014 6.7763,5.9014 6.7773,5.9004 C6.8173,5.8904 6.8473,5.8584 6.8563,5.8184 C6.8953,5.4904 7.0363,5.1844 7.2583,4.9414 C7.5183,4.8704 7.7733,4.7834 8.0223,4.6814 C8.0793,4.6594 8.1083,4.5974 8.0893,4.5404 C8.0753,4.4924 8.0303,4.4614 7.9813,4.4644 M10.2923,4.6374 C10.3493,4.6184 10.3803,4.5574 10.3633,4.4994 C10.3493,4.4464 10.2983,4.4134 10.2463,4.4214 C10.2373,4.4224 10.2283,4.4234 10.2193,4.4264 C9.9123,4.4774 9.6313,4.6364 9.4303,4.8764 C9.2993,5.0954 9.2643,5.3604 9.3333,5.6064 C9.3423,5.6644 9.3973,5.7034 9.4553,5.6934 L9.4583,5.6934 C9.4983,5.6834 9.5293,5.6524 9.5393,5.6114 C9.5993,5.1764 9.8853,4.8054 10.2923,4.6374 M11.7263,5.9694 C11.5923,5.9754 11.4603,5.9994 11.3343,6.0404 C11.3283,6.0064 11.3193,5.9744 11.3083,5.9424 C11.2643,5.8524 11.1993,5.7744 11.1173,5.7154 C11.1813,5.6794 11.2413,5.6374 11.2973,5.5904 C11.3413,5.5494 11.3463,5.4804 11.3073,5.4334 C11.2883,5.4094 11.2573,5.3954 11.2253,5.3964 L11.2253,5.3954 C11.2103,5.3954 11.1943,5.3994 11.1793,5.4064 C11.0633,5.4554 10.9423,5.4894 10.8183,5.5094 C10.6743,5.5304 10.5383,5.5824 10.4163,5.6604 C10.2863,5.7694 10.1713,5.8954 10.0753,6.0344 C9.9803,6.1654 9.8773,6.2904 9.7653,6.4084 C9.7243,6.4524 9.7243,6.5214 9.7663,6.5654 C9.7933,6.5944 9.8353,6.6054 9.8743,6.5924 C9.9783,6.5424 10.0753,6.4784 10.1633,6.4024 C10.1683,6.4374 10.1743,6.4714 10.1833,6.5054 C10.2273,6.5954 10.2943,6.6734 10.3753,6.7334 C10.3203,6.8104 10.2753,6.8944 10.2403,6.9824 C10.2213,7.0394 10.2513,7.1014 10.3073,7.1224 C10.3483,7.1364 10.3933,7.1244 10.4203,7.0904 C10.7693,6.6674 11.2343,6.3554 11.7573,6.1914 C11.8163,6.1794 11.8563,6.1224 11.8453,6.0624 C11.8373,6.0044 11.7853,5.9634 11.7263,5.9694 M15.1823,4.9084 C15.1603,4.8764 15.1333,4.8454 15.1053,4.8174 C15.0003,5.2244 14.7073,5.5574 14.3163,5.7154 C14.2043,5.7584 14.0823,5.7674 13.9643,5.7424 C13.8973,5.7264 13.8303,5.7064 13.7633,5.6834 C13.7603,5.7114 13.7453,5.7214 13.7533,5.7694 C13.8233,6.1174 13.8273,6.4754 13.7633,6.8254 C13.7253,7.1584 13.6243,7.4824 13.4643,7.7774 C13.4393,7.8124 13.3953,7.8284 13.3543,7.8174 C13.2963,7.7984 13.2633,7.7384 13.2793,7.6804 C13.3453,7.3924 13.3923,7.0984 13.4183,6.8034 C13.4203,6.6584 13.4103,6.5134 13.3873,6.3704 C13.3353,6.3884 13.2853,6.4154 13.2433,6.4514 C13.1923,6.4934 13.1483,6.5424 13.1143,6.5974 C12.9793,6.8844 12.9753,7.1754 12.7993,7.4964 C12.7763,7.5484 12.7143,7.5724 12.6623,7.5484 L12.6593,7.5474 C12.6053,7.5194 12.5833,7.4544 12.6083,7.3994 C12.6593,7.2544 12.6863,7.1034 12.6913,6.9494 C12.6993,6.7714 12.7303,6.5944 12.7843,6.4244 C12.7893,6.4104 12.7983,6.4004 12.8043,6.3864 C12.7203,6.4334 12.6503,6.5034 12.6033,6.5874 C12.5243,6.7634 12.4283,6.9314 12.3193,7.0904 C12.2883,7.1364 12.2263,7.1484 12.1793,7.1184 C12.1283,7.0854 12.1143,7.0184 12.1443,6.9654 C12.2283,6.7684 12.3023,6.5654 12.3663,6.3604 C12.4573,6.1514 12.6503,6.0074 12.8763,5.9804 C12.9293,5.9654 12.9853,5.9574 13.0423,5.9574 C13.1323,5.9524 13.2243,5.9584 13.3133,5.9724 L13.3033,5.9244 C13.2653,5.9204 13.0783,5.9164 13.0883,5.9164 C12.9503,5.9174 12.8123,5.9294 12.6753,5.9534 C12.6293,5.9594 12.5553,5.9364 12.5673,5.8894 C12.6363,5.6054 12.5233,5.4354 12.4743,5.4174 C12.4183,5.3904 12.3943,5.3224 12.4213,5.2664 C12.4353,5.2364 12.4623,5.2144 12.4953,5.2064 C12.7323,5.1024 12.9853,5.0384 13.2433,5.0164 C13.1723,4.8774 13.0953,4.7414 13.0103,4.6104 C12.9053,4.4554 12.7613,4.3304 12.5923,4.2484 C12.5553,4.2244 11.6983,3.5304 11.4733,3.3334 C11.0673,2.9224 10.5273,2.6714 9.9523,2.6234 L9.9513,2.6254 C9.3363,2.6384 8.7343,2.7964 8.1923,3.0854 C7.8213,3.2494 7.5023,3.5134 7.2743,3.8484 C7.5483,3.8394 7.8233,3.8334 8.1043,3.8054 C8.1513,3.8054 8.1933,3.8364 8.2073,3.8814 C8.2263,3.9384 8.1973,4.0004 8.1403,4.0224 C7.7603,4.1144 7.3943,4.1904 7.0213,4.2494 C6.8713,4.2654 6.7223,4.2954 6.5773,4.3364 C6.4443,4.3924 6.3253,4.4794 6.2313,4.5904 C5.6703,5.1634 5.1993,5.8194 4.6733,6.4154 C4.4173,6.7294 4.2113,7.0814 4.0653,7.4604 C3.9973,7.5784 3.9603,7.7134 3.9613,7.8494 C3.9893,7.9834 4.0493,8.1084 4.1373,8.2124 C4.2953,8.4204 4.4353,8.6414 4.5553,8.8734 C4.8053,8.4984 5.0843,8.1654 5.3803,7.7904 C5.4133,7.7534 5.4673,7.7434 5.5093,7.7684 C5.5613,7.8004 5.5793,7.8664 5.5503,7.9204 C5.2753,8.3824 5.0283,8.8174 4.8023,9.2844 C4.6813,9.4914 4.6173,9.7264 4.6173,9.9664 C4.8593,10.2564 5.0023,10.3994 5.2103,10.4594 C5.4363,10.5374 5.6853,10.5174 5.8963,10.4044 C6.4423,10.0264 7.0543,9.7564 7.7023,9.6094 C7.9463,8.9444 7.9803,8.2204 7.7993,7.5354 C7.6983,6.9384 7.7183,6.3264 7.8623,5.7384 C7.8673,5.6794 7.9183,5.6344 7.9773,5.6394 C8.0373,5.6464 8.0803,5.7004 8.0733,5.7594 C8.0973,6.3324 8.1593,6.9024 8.2593,7.4654 C8.4653,8.3034 8.4143,9.1854 8.1093,9.9934 C8.0943,10.0354 8.0553,10.0634 8.0113,10.0644 C7.3103,10.1764 6.6443,10.4514 6.0673,10.8654 C5.7693,11.0254 5.4203,11.0624 5.0963,10.9674 C4.6963,10.8154 4.3523,10.5434 4.1113,10.1884 C4.0913,10.1644 4.0823,10.1324 4.0853,10.1014 C4.1043,9.8634 4.1583,9.6304 4.2463,9.4084 C4.1233,9.0794 3.9453,8.7744 3.7193,8.5044 C3.5693,8.3274 3.4723,8.1114 3.4413,7.8814 C3.4453,7.6464 3.5083,7.4154 3.6273,7.2104 C3.7913,6.8184 4.0033,6.4494 4.2613,6.1114 C4.4683,5.8554 4.6613,5.6164 4.8543,5.3814 C4.0543,5.4974 3.3083,5.8564 2.7183,6.4094 C2.2063,6.9024 1.8293,7.5204 1.6253,8.2014 C1.4643,8.7174 1.4233,9.2644 1.5063,9.7984 C1.6533,10.7884 2.0213,11.7324 2.5853,12.5594 C2.5993,12.5834 2.6043,12.6124 2.5993,12.6404 C2.5543,13.0584 2.4613,13.4684 2.3213,13.8644 C2.2953,13.9124 2.2973,13.9694 2.3263,14.0154 C2.3623,14.0704 2.4123,14.1154 2.4703,14.1454 C2.6313,14.2184 2.7983,14.2744 2.9713,14.3134 C3.1783,14.3764 3.3903,14.4234 3.6053,14.4544 C3.7103,14.4704 3.8163,14.4704 3.9203,14.4544 C3.9983,14.4374 4.0203,14.4144 4.0293,14.3834 C4.0703,14.2214 4.0813,14.0524 4.0593,13.8854 C4.0603,13.8664 4.0653,13.8484 4.0753,13.8314 C4.1683,13.6354 4.2733,13.4464 4.3893,13.2634 C4.4843,13.1254 4.5253,12.9584 4.5033,12.7924 C4.5043,12.4834 4.4953,11.9324 4.5083,11.7144 C4.5023,11.6554 4.5433,11.6024 4.6033,11.5944 C4.6623,11.5894 4.7143,11.6324 4.7193,11.6924 L4.7193,11.6934 C4.7553,11.8524 4.7963,12.0754 4.8343,12.2884 C5.3903,12.3844 5.9613,12.3764 6.5153,12.2614 C6.5233,12.2354 6.5283,12.2084 6.5363,12.1804 C6.5833,12.0104 6.6653,11.8544 6.7013,11.7204 C6.7143,11.6724 6.7603,11.6414 6.8093,11.6444 C6.8693,11.6504 6.9133,11.7034 6.9073,11.7634 C6.8963,11.9114 6.8873,12.0624 6.8773,12.2134 C6.8643,12.3484 6.8663,12.4844 6.8813,12.6194 C6.8913,12.7034 6.9023,12.7884 6.9133,12.8734 C6.9203,12.9184 6.9013,12.9644 6.8613,12.9894 C6.8123,13.0184 6.7493,13.0034 6.7193,12.9544 C6.7183,12.9524 6.7173,12.9504 6.7163,12.9484 C6.6963,12.9134 6.6553,12.8574 6.6193,12.8084 C6.4213,12.9524 6.2163,13.0864 6.0043,13.2084 C5.9673,13.2264 5.9453,13.2654 5.9483,13.3064 C5.9463,13.3804 5.9593,13.4534 5.9843,13.5224 C6.0413,13.6794 6.1133,13.8304 6.2013,13.9724 C6.3143,14.1834 6.4573,14.3794 6.6243,14.5514 C6.7463,14.6954 6.9583,14.7234 7.1143,14.6164 C7.2453,14.5014 7.3553,14.3634 7.4393,14.2104 C7.4473,14.1974 7.4573,14.1864 7.4693,14.1774 C7.4903,14.1654 7.5643,14.1074 7.6553,14.0314 C7.7473,13.9564 7.8593,13.8604 7.9703,13.7664 C8.0813,13.6724 8.1943,13.5814 8.2853,13.5064 C8.3483,13.4504 8.4163,13.3974 8.4863,13.3494 C8.5063,13.3334 8.5263,13.3154 8.5433,13.2954 C8.5723,13.2604 8.6063,13.2104 8.6463,13.1544 C8.7253,13.0424 8.8193,12.8994 8.9093,12.7484 C8.9993,12.5974 9.0833,12.4374 9.1513,12.3044 C9.2033,12.2104 9.2483,12.1124 9.2863,12.0124 C9.4673,11.5144 9.6043,11.0024 9.6933,10.4804 C9.3713,10.3184 9.0913,10.0834 8.8773,9.7924 C8.8403,9.7514 8.8383,9.6884 8.8733,9.6444 C8.9083,9.5994 8.9723,9.5904 9.0173,9.6254 C9.0193,9.6274 9.0213,9.6284 9.0223,9.6304 C9.3543,9.8944 9.7323,10.0944 10.1363,10.2204 C10.1533,10.2254 10.1673,10.2354 10.1783,10.2474 C10.3313,10.3884 10.4863,10.5294 10.6483,10.6804 C10.7583,10.7904 10.8793,10.8904 11.0083,10.9784 C10.9883,10.9614 10.9693,10.9434 10.9523,10.9234 C10.8953,10.8274 10.8673,10.7164 10.8703,10.6044 C10.8753,10.3894 10.9123,10.1754 10.9783,9.9714 C11.0253,9.7694 11.0233,9.5604 10.9723,9.3594 C10.9693,9.3394 10.9713,9.3184 10.9783,9.2994 C10.9683,9.3054 10.9473,9.3164 10.9423,9.3214 C10.9173,9.3494 10.8973,9.3824 10.8853,9.4194 C10.8333,9.5404 10.7723,9.6934 10.7253,9.8244 C10.7083,9.8644 10.6683,9.8894 10.6253,9.8874 C10.5653,9.8824 10.5203,9.8304 10.5243,9.7704 C10.5423,9.6504 10.5693,9.5054 10.5853,9.3914 C10.5893,9.2814 10.6243,9.1754 10.6843,9.0834 C10.7613,9.0034 10.8663,8.9544 10.9783,8.9474 C11.0603,8.9334 11.2213,8.8944 11.3183,8.8774 C11.3603,8.8734 11.4003,8.8934 11.4203,8.9294 C11.4513,8.9824 11.4363,9.0494 11.3853,9.0834 C11.2973,9.1324 11.1733,9.1864 11.0913,9.2294 C11.1063,9.2314 11.1213,9.2364 11.1323,9.2454 C11.2793,9.3554 11.4383,9.4464 11.6073,9.5164 C12.4743,9.9614 13.4933,10.0024 14.3933,9.6294 C15.0673,9.1374 15.4843,8.3684 15.5283,7.5344 C15.5903,6.6454 15.4733,5.7524 15.1823,4.9084 M12.3393,10.2254 C12.2883,10.2834 11.3653,9.7124 11.2933,9.7474 C11.2973,9.7594 10.9193,10.9694 11.4903,10.9964 C12.1153,11.0244 12.3393,10.2254 12.3393,10.2254 M10.0953,13.0234 C10.0883,12.7564 10.0833,12.4894 10.0753,12.2224 C10.0713,12.0164 10.0243,11.8134 9.9363,11.6274 C9.9233,11.5954 9.9203,11.5704 9.9103,11.5404 C9.8433,11.7484 9.7763,11.9504 9.7093,12.1734 C9.6063,12.4564 9.4773,12.7284 9.3223,12.9854 C9.2033,13.1974 9.0633,13.3974 8.9043,13.5814 C8.9583,13.5984 9.0133,13.6094 9.0693,13.6134 C9.1253,13.6184 9.2923,13.6224 9.4563,13.6244 C9.6213,13.6274 9.7853,13.6234 9.8533,13.6244 C9.9383,13.6354 10.0253,13.6264 10.1063,13.5974 C10.1353,13.5764 10.1653,13.5224 10.1783,13.3594 C10.1923,13.1944 10.1913,13.2194 10.1113,13.0724 C10.1023,13.0574 10.0973,13.0414 10.0953,13.0234 M2.0843,12.6664 C1.7703,12.1564 1.5173,11.6114 1.3313,11.0424 L1.3263,11.0584 C1.3213,11.0724 1.3143,11.0854 1.3053,11.0964 C1.1453,11.2664 0.9853,11.4354 0.8253,11.6054 C0.7923,11.6384 0.7603,11.6744 0.7323,11.7134 C0.7283,11.7224 0.7213,11.7374 0.7323,11.8214 C0.7813,12.0734 0.9033,12.3054 1.0843,12.4874 C1.2273,12.6334 1.3933,12.7574 1.5733,12.8564 C1.6573,12.9034 1.7513,12.9334 1.8463,12.9424 C1.9123,12.9514 1.9763,12.9214 2.0113,12.8664 C2.0473,12.8044 2.0723,12.7364 2.0843,12.6664 M0.7073,7.2034 C0.7133,7.0404 0.7303,6.8774 0.7583,6.7164 C0.6643,6.8034 0.5813,6.9014 0.5103,7.0084 C0.4503,7.0994 0.4123,7.2034 0.4023,7.3124 C0.3983,7.4154 0.4373,7.5154 0.5103,7.5884 C0.5153,7.5824 0.5203,7.5764 0.5263,7.5714 C0.6393,7.4834 0.7063,7.3474 0.7073,7.2034 M13.8143,5.3124 C13.9273,5.3484 14.0343,5.4044 14.1273,5.4794 C14.3243,5.6424 14.8703,4.9224 14.8993,4.6704 L14.8563,4.6054 C14.8353,4.6044 14.8143,4.6114 14.7983,4.6274 C14.6343,4.8014 14.4603,4.9664 14.2763,5.1214 C14.1283,5.1994 13.9733,5.2634 13.8143,5.3124 M15.9773,7.5614 C15.9573,8.5684 15.4423,9.5024 14.5993,10.0564 C13.9903,10.3544 13.2983,10.4394 12.6343,10.3004 C12.5993,10.4184 12.5653,10.5354 12.5313,10.6524 C12.3603,11.1554 11.9053,11.5084 11.3763,11.5504 C11.1753,11.5624 10.9773,11.5114 10.8083,11.4044 C10.6533,11.3014 10.5103,11.1794 10.3843,11.0424 C10.2913,10.9464 10.1963,10.8514 10.1013,10.7554 C10.0993,10.7694 10.0983,10.7844 10.0963,10.7984 C10.2013,11.0264 10.2603,11.2274 10.3483,11.4474 C10.4573,11.6864 10.5173,11.9434 10.5243,12.2064 C10.5303,12.4544 10.5393,12.7034 10.5443,12.9534 C10.6303,13.1044 10.6653,13.2784 10.6433,13.4514 C10.6513,13.6614 10.5543,13.8624 10.3843,13.9864 C10.2133,14.0714 10.0233,14.1074 9.8333,14.0894 C9.6943,14.0894 9.1733,14.0854 9.0173,14.0734 C8.8983,14.0684 8.7793,14.0544 8.6623,14.0304 C8.6003,14.0144 8.5433,13.9864 8.4923,13.9494 C8.3783,14.0464 8.2443,14.1574 8.1203,14.2634 C8.0473,14.3244 7.9843,14.3814 7.9293,14.4254 C7.8963,14.4524 7.8623,14.4784 7.8263,14.5014 C7.7653,14.5994 7.7253,14.6874 7.6713,14.7724 C7.6063,14.8764 7.5153,14.9624 7.4083,15.0214 C7.1273,15.2164 6.7573,15.2294 6.4633,15.0534 C6.1923,14.8394 5.9683,14.5704 5.8093,14.2634 C5.6673,14.0494 5.5523,13.8184 5.4683,13.5754 C5.4233,13.4434 5.4113,13.3024 5.4323,13.1644 C5.4603,13.0224 5.5513,12.9004 5.6793,12.8344 C5.7033,12.8214 5.7153,12.8134 5.7373,12.8014 C5.4603,12.8144 5.1813,12.8034 4.9063,12.7694 L4.9113,12.8124 C4.9303,12.9244 4.9363,13.0394 4.9263,13.1534 C4.9063,13.2664 4.8603,13.3744 4.7933,13.4674 C4.6903,13.6164 4.6053,13.7764 4.5403,13.9434 C4.5613,14.1514 4.5433,14.3604 4.4883,14.5614 C4.4473,14.7214 4.3323,14.8524 4.1783,14.9134 C4.0263,14.9654 3.8643,14.9844 3.7043,14.9664 C3.4033,14.9364 3.1053,14.8754 2.8173,14.7824 C2.5473,14.7274 2.2893,14.6324 2.0473,14.5014 C1.9293,14.4294 1.8393,14.3184 1.7953,14.1874 C1.7533,14.0244 1.7723,13.8514 1.8463,13.7004 C1.8803,13.6164 1.9103,13.5324 1.9343,13.4454 C1.7323,13.4584 1.5303,13.4134 1.3513,13.3164 C1.1173,13.1964 0.9053,13.0394 0.7223,12.8504 C0.4613,12.5754 0.2913,12.2284 0.2323,11.8544 C0.2033,11.7464 0.2083,11.6334 0.2483,11.5294 C0.2993,11.4414 0.3663,11.3624 0.4433,11.2964 C0.6073,11.1274 0.7703,10.9574 0.9333,10.7874 C0.9963,10.6104 1.0583,10.4374 1.1203,10.2624 C1.0953,10.1264 1.0743,9.9894 1.0623,9.8514 C1.0203,9.4254 1.0303,8.9964 1.0933,8.5734 C0.9783,8.6014 0.8583,8.6014 0.7433,8.5734 C0.5583,8.5194 0.4083,8.3864 0.3303,8.2104 C0.2703,8.0654 0.2253,7.9154 0.1963,7.7614 L0.1913,7.7504 C0.0473,7.5974 -0.0197,7.3894 0.0043,7.1814 C0.0483,6.9684 0.1503,6.7724 0.2993,6.6134 C0.4413,6.4554 0.6043,6.3174 0.7843,6.2024 C0.9133,6.1094 1.0583,6.0414 1.2123,6.0014 C1.2303,5.9984 1.2493,6.0004 1.2663,6.0064 C1.3223,6.0284 1.3503,6.0904 1.3313,6.1484 C1.1783,6.4564 1.0953,6.7954 1.0883,7.1384 C1.0863,7.2184 1.0803,7.2984 1.0683,7.3774 C1.0423,7.4964 0.9853,7.6064 0.9033,7.6964 L0.9083,7.7014 C0.9243,7.6954 0.9443,7.6934 0.9753,7.6804 C1.2043,7.5564 1.4013,7.3824 1.5523,7.1714 C1.7543,6.7544 2.0303,6.3784 2.3683,6.0614 C3.2103,5.3054 4.2743,4.8434 5.4013,4.7464 C5.5713,4.5614 5.7453,4.3844 5.9323,4.2104 C6.1213,4.0154 6.3753,3.8984 6.6443,3.8804 C6.9813,3.3184 7.4773,2.8704 8.0683,2.5914 C8.6613,2.2894 9.3183,2.1344 9.9823,2.1414 C10.6283,2.2064 11.2333,2.4864 11.7003,2.9374 C12.0453,3.2714 12.4133,3.5824 12.7993,3.8684 C13.0043,3.9874 13.1883,4.1414 13.3403,4.3234 C13.5223,4.5464 13.6693,4.7944 13.7793,5.0594 C13.9003,5.0184 14.0133,4.9584 14.1153,4.8814 C14.2613,4.7494 14.3673,4.5004 14.5483,4.3074 C14.6203,4.2334 14.7183,4.1904 14.8223,4.1884 C14.9203,4.1874 15.0193,4.2074 15.1103,4.2474 C15.2863,4.3104 15.4343,4.4334 15.5283,4.5944 C15.9083,5.5344 16.0623,6.5504 15.9773,7.5614 M6.4453,3.5134 C6.4943,3.5274 6.5453,3.5034 6.5673,3.4574 C6.7803,2.8874 7.2273,2.4364 7.7953,2.2174 C7.8523,2.1984 7.8833,2.1364 7.8673,2.0794 C7.8533,2.0264 7.8023,1.9934 7.7493,2.0014 C7.7403,2.0024 7.7313,2.0034 7.7223,2.0064 C7.5563,2.0464 7.3923,2.0964 7.2333,2.1584 C7.2263,2.0994 7.1723,2.0574 7.1143,2.0644 C7.1143,2.0644 7.1133,2.0644 7.1123,2.0644 L7.1043,2.0664 C6.9393,2.0914 6.7843,2.1604 6.6553,2.2664 C6.5433,2.3964 6.4663,2.5524 6.4333,2.7214 C6.4173,2.7794 6.4493,2.8394 6.5063,2.8584 C6.5193,2.8624 6.5333,2.8634 6.5463,2.8614 C6.4763,3.0284 6.4183,3.2004 6.3713,3.3764 C6.3553,3.4344 6.3873,3.4944 6.4453,3.5134"/>
	</g>
</svg>
