<svg xmlns="http://www.w3.org/2000/svg" viewBox="0 0 16 16">
  <path d="M12.49953,8a.99641.99641,0,0,0-.98632.9355l-.01368-.0039V8a1,1,0,0,0-2,0V7a1,1,0,1,0-2,0V3a1,1,0,1,0-2,0V9.7227a.30849.30849,0,0,1-.22852.2656.29966.29966,0,0,1-.3262-.1118c-.73628-.9595-.6894-1.9078-1.75-1.9078A.69336.69336,0,0,0,2.58741,9l3.1328,6.7432A.501.501,0,0,0,6.15771,16h5.84182a1.49979,1.49979,0,0,0,1.5-1.5V9A1.00257,1.00257,0,0,0,12.49953,8Z"/>
  <path d="M6.5,1a3,3,0,0,1,3,3h1a4,4,0,0,0-8,0h1A3,3,0,0,1,6.5,1Z"/>
</svg>
