<svg xmlns="http://www.w3.org/2000/svg" viewBox="0 0 16 16">
    <path d="M15.3690125 0L13.1430125 0C12.7920125 0 12.5050125.287 12.5050125.639L12.5050125 2.864C12.5050125 3.216 12.7920125 3.503 13.1430125 3.503L15.3690125 3.503C15.7210125 3.503 16.0080125 3.216 16.0080125 2.864L16.0080125.639C16.0080125.287 15.7210125 0 15.3690125 0M11.5008125 6.8842L8.0968125 6.8842 8.0968125 6.8692 8.0958125 2.5852C8.0968125 2.3722 8.2688125 2.2002 8.4818125 2.2002L10.7878125 2.2002 11.3298125 2.2002C11.5428125 2.2002 11.7158125 2.0272 11.7158125 1.8142 11.7158125 1.6012 11.5428125 1.4282 11.3298125 1.4282L10.7878125 1.4282 8.4818125 1.4282C7.8428125 1.4282 7.3248125 1.9462 7.3248125 2.5852L7.3248125 6.8842 6.1138125 6.8842C5.9008125 6.8842 5.7288125 7.0572 5.7288125 7.2702 5.7288125 7.4832 5.9008125 7.6552 6.1138125 7.6552L7.3248125 7.6552 7.3248125 11.9542C7.3248125 12.5932 7.8428125 13.1112 8.4818125 13.1112L10.7878125 13.1112 11.3298125 13.1112C11.5428125 13.1112 11.7158125 12.9392 11.7158125 12.7252 11.7158125 12.5122 11.5428125 12.3402 11.3298125 12.3402L10.7878125 12.3402 8.4818125 12.3402C8.2688125 12.3392 8.0968125 12.1672 8.0958125 11.9542L8.0968125 7.6702 8.0968125 7.6552 11.5008125 7.6552C11.7128125 7.6552 11.8858125 7.4832 11.8858125 7.2702 11.8858125 7.0572 11.7128125 6.8842 11.5008125 6.8842M15.3690125 5.518L13.1430125 5.518C12.7920125 5.518 12.5050125 5.806 12.5050125 6.157L12.5050125 8.383C12.5050125 8.734 12.7920125 9.021 13.1430125 9.021L15.3690125 9.021C15.7210125 9.021 16.0080125 8.734 16.0080125 8.383L16.0080125 6.157C16.0080125 5.806 15.7210125 5.518 15.3690125 5.518M15.3690125 11.0371L13.1430125 11.0371C12.7920125 11.0371 12.5050125 11.3241 12.5050125 11.6761L12.5050125 13.9011C12.5050125 14.2521 12.7920125 14.5401 13.1430125 14.5401L15.3690125 14.5401C15.7210125 14.5401 16.0080125 14.2521 16.0080125 13.9011L16.0080125 11.6761C16.0080125 11.3241 15.7210125 11.0371 15.3690125 11.0371M4.4788125 4.7148L.6468125 4.7148C.2948125 4.7148.0078125 5.0018.0078125 5.3538L.0078125 9.1858C.0078125 9.5368.2948125 9.8248.6468125 9.8248L4.4788125 9.8248C4.8308125 9.8248 5.1178125 9.5368 5.1178125 9.1858L5.1178125 5.3538C5.1178125 5.0018 4.8308125 4.7148 4.4788125 4.7148"/>
</svg>
