<svg xmlns="http://www.w3.org/2000/svg" viewBox="0 0 16 16">
	<path d="M15.369.797h-2.226a.64.64 0 0 0-.638.64V3.66a.64.64 0 0 0 .638.64h2.226a.64.64 0 0 0 .639-.64V1.436a.64.64 0 0 0-.639-.639m-3.868 6.884H8.097v-.015l-.001-4.284a.386.386 0 0 1 .386-.385h2.848a.386.386 0 0 0 0-.772H8.482c-.64 0-1.157.518-1.157 1.157v4.3H6.114a.385.385 0 0 0 0 .77h1.21v4.3c0 .638.519 1.156 1.158 1.156h2.848a.386.386 0 1 0 0-.77H8.482a.388.388 0 0 1-.386-.387V8.452h3.405a.385.385 0 0 0 0-.77m3.868-1.367h-2.226a.64.64 0 0 0-.638.64V9.18a.64.64 0 0 0 .638.638h2.226a.64.64 0 0 0 .639-.638V6.954a.64.64 0 0 0-.639-.639m0 5.52h-2.226a.64.64 0 0 0-.638.638v2.225a.64.64 0 0 0 .638.64h2.226a.64.64 0 0 0 .639-.64v-2.225a.64.64 0 0 0-.639-.639M4.479 5.512H.647a.64.64 0 0 0-.64.639v3.832a.64.64 0 0 0 .64.639h3.832a.64.64 0 0 0 .639-.639V6.151a.64.64 0 0 0-.64-.639"/>
</svg>
