<svg xmlns="http://www.w3.org/2000/svg" viewBox="0 0 16 16">
    <path d="M8,14.6245 C4.347,14.6245 1.375,11.6525 1.375,7.9995 C1.375,4.3475 4.347,1.3755 8,1.3755 C11.653,1.3755 14.625,4.3475 14.625,7.9995 C14.625,11.6525 11.653,14.6245 8,14.6245 M8,-0.0005 C3.582,-0.0005 0,3.5815 0,7.9995 C0,12.4185 3.582,15.9995 8,15.9995 C12.418,15.9995 16,12.4185 16,7.9995 C16,3.5815 12.418,-0.0005 8,-0.0005"/>
    <polygon points="7.128 11.916 8.951 11.916 8.951 6.051 7.128 6.051"/>
    <path d="M8.04,3.4966 C7.452,3.4966 7.068,3.8926 7.081,4.4196 C7.068,4.9236 7.452,5.3316 8.028,5.3316 C8.628,5.3316 9.012,4.9236 9.012,4.4196 C8.999,3.8926 8.628,3.4966 8.04,3.4966"/>
</svg>
