<svg xmlns="http://www.w3.org/2000/svg" viewBox="0 0 32 32"><path d="M22.0312,17.34862a4.43245,4.43245,0,0,0-3.192,1.332l-1.9824-1.13217a5.80794,5.80794,0,0,0,.2016-1.53176,5.93279,5.93279,0,0,0-.336-1.89805l2.0496-1.16547-.1008-.1665A4.37725,4.37725,0,1,0,17.5288,9.8563a3.76867,3.76867,0,0,0,.2352,1.36527l-.0336-.0333-2.0496,1.16547a5.79975,5.79975,0,0,0-3.4272-1.998V8.65753a4.39861,4.39861,0,0,0,3.3936-4.2623A4.26429,4.26429,0,0,0,11.3128-.00026a4.3859,4.3859,0,0,0-1.0416,8.65779v1.73156a5.74381,5.74381,0,0,0,0,11.32173v1.665a4.333,4.333,0,0,0-3.3936,4.229,4.43547,4.43547,0,1,0,5.4768-4.2623v-1.665a5.64676,5.64676,0,0,0,3.6624-2.29765l1.8144,1.03227a4.25867,4.25867,0,0,0-.2016,1.332,4.43538,4.43538,0,0,0,8.8704,0A4.46194,4.46194,0,0,0,22.0312,17.34862Zm0-9.82326A2.36434,2.36434,0,1,1,19.6456,9.8896,2.38414,2.38414,0,0,1,22.0312,7.52535ZM8.9272,4.39523a2.3857,2.3857,0,1,1,2.3856,2.36424A2.38414,2.38414,0,0,1,8.9272,4.39523Zm4.7712,23.20954a2.3857,2.3857,0,1,1-2.3856-2.36424A2.38414,2.38414,0,0,1,13.6984,27.60477Zm-2.3856-7.85861a3.7132,3.7132,0,1,1,3.7632-3.69621A3.74031,3.74031,0,0,1,11.3128,19.74616Zm10.7184,4.3622a2.36434,2.36434,0,1,1,2.3856-2.36424A2.38414,2.38414,0,0,1,22.0312,24.10836Z"/></svg>
