<svg xmlns="http://www.w3.org/2000/svg" viewBox="0 0 16 16">
  <path d="M3.842,6.4544 C2.968,6.4544 2.26,5.7424 2.26,4.8634 C2.26,3.9844 2.968,3.2734 3.842,3.2734 C4.716,3.2734 5.424,3.9844 5.424,4.8634 C5.424,5.7424 4.716,6.4544 3.842,6.4544 L3.842,6.4544 Z M16,16.9994 L15.91,13.8184 L9.933,7.8084 C10.113,7.2834 10.215,6.7224 10.215,6.1364 C10.215,3.2994 7.928,0.9994 5.107,0.9994 C2.286,0.9994 0,3.2994 0,6.1364 C0,8.9734 2.286,11.2724 5.107,11.2724 C5.589,11.2724 6.052,11.2014 6.493,11.0764 L7.774,12.3634 L10.305,12.3634 L10.305,14.5454 L13.107,14.5454 L13.107,16.9994 L16,16.9994 Z" transform="translate(0 -1)"/>
</svg>
