<svg xmlns="http://www.w3.org/2000/svg" viewBox="0 0 32 32">
  <path d="M26.52362,10.48031a5.5123,5.5123,0,0,0-3.34723,1.08112L19.636,7.15408A1.27356,1.27356,0,0,0,19.555,5.435a1.32017,1.32017,0,0,0-1.85327.00134l-.01556.0155A1.2839,1.2839,0,0,0,17.7,7.26736a1.3125,1.3125,0,0,0,1.49329.238l3.5451,4.4137a5.55149,5.55149,0,0,0-1.20911,1.57281L2.571,4.83724a1.26337,1.26337,0,0,0-.33246-1.18408A1.32382,1.32382,0,0,0,.38385,3.6545l-.014.014A1.28365,1.28365,0,0,0,.3822,5.48385a1.32112,1.32112,0,0,0,1.85632.00171l.01624-.01624a1.19965,1.19965,0,0,0,.07831-.12024l18.96411,8.65765A5.51663,5.51663,0,0,0,20.9259,15.74H12.16736a1.24937,1.24937,0,0,0-.32874-.63354,1.321,1.321,0,0,0-1.85468.00134l-.01611.01611A1.28316,1.28316,0,0,0,9.9826,16.9385a1.32358,1.32358,0,0,0,1.856.00037l.01544-.0155a1.249,1.249,0,0,0,.31439-.61987h8.7572a5.51439,5.51439,0,0,0,.3703,1.74292l-2.49438,1.13965a1.20182,1.20182,0,0,0-.09534-.14,1.32142,1.32142,0,0,0-1.85327.001l-.01282.01276a1.285,1.285,0,0,0,.01111,1.81726,1.32045,1.32045,0,0,0,1.855.00208v-.00006l.0213-.0213a1.25888,1.25888,0,0,0,.31274-1.16077l2.4873-1.13654a5.56,5.56,0,0,0,1.21033,1.56805L16.193,28.27547a1.31343,1.31343,0,0,0-1.49323.23792l-.01544.0155a1.28386,1.28386,0,0,0,.01715,1.81555,1.32,1.32,0,0,0,1.85327.00171v-.00006l.01617-.01611a1.27211,1.27211,0,0,0,.0639-1.70068l6.54059-8.14215a5.51233,5.51233,0,0,0,3.21289,1.08038h.00049a5.544,5.544,0,0,0,.13483-11.08722Z"/>
</svg>
