<svg xmlns="http://www.w3.org/2000/svg" viewBox="0 0 32 32">
  <path d="M26.46,17.33063a10.54006,10.54006,0,0,1-9.11774,9.11224,1.40913,1.40913,0,0,0-.96423-.89984v-5.772l3.75653.00391a3.06271,3.06271,0,0,0,0-6.12323,2.84543,2.84543,0,0,0-.41174.03314,3.82827,3.82827,0,0,0-7.11755-.99048,1.676,1.676,0,0,0-.33167-.037,1.75492,1.75492,0,0,0-1.73169,1.778,1.80474,1.80474,0,0,0,.13483.68677,2.34675,2.34675,0,0,0,.413,4.64343l4.51788.00482v5.78345a1.40888,1.40888,0,0,0-.9281.886,10.54044,10.54044,0,0,1-9.09363-9.11981,1.40725,1.40725,0,0,0,.00421-2.661A10.54039,10.54039,0,0,1,14.6897,5.5705a1.40854,1.40854,0,0,0,2.643-.0033,10.54057,10.54057,0,0,1,9.12311,9.0813A1.40617,1.40617,0,0,0,26.46,17.33063ZM31.00562,15.989V30.98846H16.00549A14.99966,14.99966,0,1,1,31.00562,15.989Zm-2.70013.00031a1.41382,1.41382,0,0,0-1.07684-1.37054,11.31186,11.31186,0,0,0-9.83093-9.81952,1.41384,1.41384,0,0,0-2.77478.0033A11.31215,11.31215,0,0,0,4.82025,14.6073a1.4135,1.4135,0,0,0-.00482,2.76184,11.31238,11.31238,0,0,0,9.81531,9.84058,1.41278,1.41278,0,0,0,2.75854.0036,11.31172,11.31172,0,0,0,9.84357-9.85565A1.41263,1.41263,0,0,0,28.30548,15.98926Z"/>
</svg>
