<svg xmlns="http://www.w3.org/2000/svg" viewBox="0 0 32 32">
  <path d="M17.79244,29.276a1.90976,1.90976,0,0,0-1.22679-1.02546v-2.6863h-.97741v2.68253A1.90969,1.90969,0,0,0,14.3445,29.2801a13.38945,13.38945,0,0,1-11.55021-11.575,1.90972,1.90972,0,0,0,.95919-1.21391H6.51579v-.97678H3.74625a1.91064,1.91064,0,0,0-.94977-1.185A13.38922,13.38922,0,0,1,14.37433,2.76764a1.908,1.908,0,0,0,1.21391.98369V6.4414h.97741V3.751a1.909,1.909,0,0,0,1.20983-.97772A13.39068,13.39068,0,0,1,29.30214,14.282a1.9077,1.9077,0,0,0-1.04808,1.23244h-2.616v.97678h2.60842a1.91,1.91,0,0,0,1.0575,1.26164A13.38939,13.38939,0,0,1,17.79244,29.276M30.51794,14.15826A14.58919,14.58919,0,0,0,17.95137,1.56442a1.9064,1.9064,0,0,0-3.74915-.0066,14.5904,14.5904,0,0,0-12.61305,12.58,1.90544,1.90544,0,0,0-.00251,3.75761A14.59012,14.59012,0,0,0,14.205,30.494a1.90738,1.90738,0,0,0,3.72967-.00471A14.58965,14.58965,0,0,0,30.52013,17.87441a1.90607,1.90607,0,0,0-.0022-3.71615M18.09182,17.8208a2.7028,2.7028,0,0,1-.278.26822q-.10082.08292-.20981.15672a2.73341,2.73341,0,0,1-3.63262-.52608c-.05559-.06721-.108-.13725-.157-.20949a2.71732,2.71732,0,0,1,.52734-3.62287,2.669,2.669,0,0,1,.34611-.23933,2.72177,2.72177,0,0,1,3.404,4.17282ZM23.178,14.97463l-1.8116-.34988-.01916.00188-.00314.00031q-.04994-.19363-.1137-.38129a5.33786,5.33786,0,0,0-.49656-1.06441L21.9644,11.353l-1.26824-1.27829-1.821,1.24563-.00691.006-.00314.00314c-.05685-.03392-.1159-.06376-.174-.09579a5.52346,5.52346,0,0,0-.53582-.26194,5.408,5.408,0,0,0-.76478-.2522l-.206-1.08388-.20572-1.08388H15.18534l-.13694.72175-.27419,1.44318c-.0581.01413-.114.03266-.17054.049q-.22708.06407-.44442.147c-.168.06407-.33324.13317-.49279.21294q-.17478.08716-.343.18593l-.04366-.03926L11.4585,10.02667l-1.26825,1.2786,1.23558,1.83578.01193.01005q-.10412.1696-.1963.34737a5.41416,5.41416,0,0,0-.43029,1.12848l-.02356-.0022-2.16148.41741V16.8503l2.1596.41678a5.3,5.3,0,0,0,.25943.78927,5.5142,5.5142,0,0,0,.37218.73117l-.66742.99154-.55812.82948,1.26825,1.27861,1.24563-.8524.57539-.39354a5.41165,5.41165,0,0,0,1.37849.58418c.02952.00785.05779.0179.08731.02544l.00094.01162.00031.01194.15453.81314.25943,1.36623h1.7937l.41364-2.17938-.00094-.011a5.43754,5.43754,0,0,0,1.51009-.62407l.01539.01351,1.821,1.24563,1.26825-1.27829-1.2359-1.83609L20.742,18.78a5.52055,5.52055,0,0,0,.37-.728,5.22109,5.22109,0,0,0,.25786-.78519l1.43879-.27764.71924-.13882V15.04216Z"/>
</svg>
