<svg xmlns="http://www.w3.org/2000/svg" viewBox="0 0 32 32">
  <path d="M25.55884,15.92352a1.45212,1.45212,0,0,1,.97-1.36365,10.63487,10.63487,0,0,0-8.921-8.936A1.47649,1.47649,0,0,1,14.87115,5.569a10.62752,10.62752,0,0,0-9.36389,9.00391,1.44366,1.44366,0,0,1-.04877,2.71875,10.6199,10.6199,0,0,0,9.34363,9.39264,1.47326,1.47326,0,0,1,2.88428-.05994,10.624,10.624,0,0,0,8.89124-9.31964A1.45382,1.45382,0,0,1,25.55884,15.92352ZM19.72211,9.86646a.93326.93326,0,1,1-.93048.93329A.93134.93134,0,0,1,19.72211,9.86646ZM16.46527,8A1.39988,1.39988,0,1,1,15.0694,9.3999,1.39706,1.39706,0,0,1,16.46527,8Zm-4.18744.93329a.93323.93323,0,1,1-.93048.93317A.93131.93131,0,0,1,12.27783,8.93329Zm9.30536,13.9986H10.41681c-.5116,0-.72693-.36823-.47852-.81659l3.7486-6.76788a1.531,1.531,0,0,1,.452-.47028v-1.511a.88242.88242,0,0,1-.93054-.81653.88115.88115,0,0,1,.93054-.81665h3.72217a.88123.88123,0,0,1,.93054.81665.88249.88249,0,0,1-.93054.81653v1.511a1.53246,1.53246,0,0,1,.452.47028l3.74854,6.76788C22.31018,22.56366,22.09479,22.93188,21.58319,22.93188Zm-2.48126-3.733,1.03363,1.86652H11.86438l1.03369-1.86652ZM16.00049,1.00012a14.99985,14.99985,0,1,0-.001,29.99969H30.99988V16.00012A14.99987,14.99987,0,0,0,16.00049,1.00012ZM27.45959,17.31177A11.50369,11.50369,0,0,1,17.593,27.52155a1.477,1.477,0,0,1-2.65851.05756A11.50275,11.50275,0,0,1,4.57941,17.32166a1.44565,1.44565,0,0,1,.05444-2.81012,11.5043,11.5043,0,0,1,10.197-9.82037,1.47389,1.47389,0,0,1,2.85364.06067,11.50481,11.50481,0,0,1,9.72064,9.76953,1.44582,1.44582,0,0,1,.0545,2.79041Z"/>
</svg>
