<svg xmlns="http://www.w3.org/2000/svg" viewBox="0 0 132 33">
	<path d="M111.746 11.57c.446.974.627 2.005.627 3.07.008 3.968.008 7.936 0 11.912 0 .1-.008.198-.025.33h-3.836v-.462c0-3.53.008-7.053-.016-10.584a7.143 7.143 0 0 0-.289-1.865c-.404-1.468-1.551-2.021-2.978-1.89-1.65.166-2.978 1.024-4.216 2.047-.099.09-.14.305-.14.47-.008 3.919-.008 7.838-.008 11.765v.511H97.02V9.137h3.506v2.244c.174-.14.306-.231.43-.322 1.451-1.106 3.002-2.013 4.825-2.285 2.418-.363 4.86.338 5.965 2.796zM49.75 23.632c.19-.091.38-.19.52-.264.346.916.684 1.815 1.056 2.813-.479.19-1.048.47-1.642.652-1.625.495-3.275.701-4.925.148-1.568-.528-2.401-1.674-2.665-3.267-.074-.412-.074-.833-.074-1.254-.009-5.651 0-11.294 0-16.945V5.02c1.278-.396 2.532-.784 3.852-1.196v.495c0 1.468.009 2.945 0 4.413-.008.297.083.396.388.388 1.502-.016 2.995-.008 4.488-.008h.47c-.04.148-.057.256-.09.363-.248.792-.52 1.592-.751 2.392-.083.273-.206.339-.47.339-1.188-.017-2.368-.009-3.548-.009h-.462c-.008.174-.025.322-.025.47 0 3.037 0 6.073.009 9.1 0 .38.05.768.14 1.13.181.793.718 1.197 1.526 1.23a4.733 4.733 0 0 0 2.203-.495zm27.546.08c.38.982 1.048 1.757 1.749 2.516.008.017.008.05.041.173-.635.182-1.27.405-1.914.528-1.155.231-2.335.372-3.506.149-1.881-.363-2.904-1.6-2.937-3.515-.017-1.196 0-2.392 0-3.58-.008-5.94 0-11.88-.017-17.82 0-.371.124-.52.462-.635.99-.339 1.972-.718 2.962-1.081.132-.05.256-.083.462-.149v21.714c0 .256.025.512.066.76.116.734.668 1.121 1.403 1.006.297-.05.585-.132.89-.173.116-.009.314.033.339.107zm49.943-6.333c0 1.576-.008 3.143 0 4.72.008.28-.09.47-.297.643-.957.792-2.013 1.377-3.284 1.452-1.79.099-3.052-.76-3.885-2.286-.751-1.344-.875-2.813-.751-4.314.107-1.246.412-2.418 1.171-3.44.95-1.304 2.26-1.98 3.837-2.187.94-.115 1.848-.016 2.763.149.33.066.454.198.454.544-.025 1.576-.008 3.152-.008 4.72zm3.87 3.572V.285c-1.222.437-2.36.875-3.524 1.279-.272.099-.354.23-.354.52.008 2.103.008 4.215.008 6.32v.502c-.173-.016-.264-.016-.363-.033-1.312-.23-2.624-.272-3.935-.066-2.607.405-4.744 1.61-6.254 3.795-1.105 1.576-1.592 3.35-1.65 5.256-.058 1.971.231 3.877 1.18 5.626 1.27 2.343 3.217 3.704 5.948 3.803 1.898.058 3.531-.635 4.958-1.864.108-.09.215-.173.355-.297.198.528.371.998.528 1.477.074.23.182.313.437.305 1.081-.008 2.178 0 3.267-.008.083 0 .165-.009.29-.025-.941-1.906-.892-3.919-.892-5.924zM63.63 22.23c0 .14-.057.314-.148.396-1.114.982-2.384 1.642-3.919 1.584-2.533-.09-3.135-2.31-2.54-3.869.32-.841 1.006-1.27 1.822-1.477a11.522 11.522 0 0 1 1.84-.28c.957-.074 1.922-.091 2.954-.132v1.798c0 .66.008 1.32-.009 1.98zm3.886-.38c-.008-2.21 0-4.421-.008-6.632 0-.503-.033-1.007-.083-1.51-.255-2.384-1.674-4.075-3.993-4.678-2.483-.643-4.941-.404-7.334.43-.734.255-1.435.618-2.17.932.479.915.916 1.74 1.362 2.607.173-.091.297-.149.42-.215 1.6-.808 3.284-1.23 5.099-1.04 1.427.149 2.434.974 2.714 2.319.107.478.083.982.116 1.468.016.231-.1.28-.297.28-.545.017-1.09.05-1.634.059-1.435.033-2.863.066-4.273.404-2.995.726-4.58 2.69-4.538 5.626.05 2.979 2.318 5.272 5.313 5.388 2.063.09 3.836-.553 5.37-1.906.092-.083.199-.149.314-.24.124.33.231.611.33.9.306.866.306.866 1.213.866h2.92c-.008-.074-.008-.115-.024-.148-.726-1.568-.817-3.226-.817-4.91zm15.362-5.674c-.297-2.195 1.526-4.422 3.68-4.48 1.146-.041 2.111.38 2.812 1.32.693.924.933 1.988.999 3.16h-7.491zm4.389-7.483c-3.028-.215-5.808 1.246-7.153 3.985-1.502 3.044-1.609 6.204-.479 9.372.94 2.623 2.822 4.29 5.544 4.941 2.327.553 4.612.372 6.84-.445.627-.231 1.212-.553 1.84-.842-.413-.948-.793-1.806-1.18-2.69-.149.075-.256.125-.355.182a9.106 9.106 0 0 1-4.587.999c-2.07-.091-3.787-1.304-4.505-3.243-.23-.627-.38-1.278-.338-1.971h11.393c.017-.1.033-.165.033-.223.033-1.427-.04-2.838-.396-4.232-.85-3.35-3.11-5.594-6.657-5.833zM22.18 29.602a2.383 2.383 0 0 1-.462 1.798c-.396.52-.957.858-1.6.949a2.49 2.49 0 0 1-1.807-.47 2.43 2.43 0 0 1-.47-3.4c.387-.52.957-.858 1.6-.94a2.386 2.386 0 0 1 1.799.462c.52.396.85.957.94 1.6zM4.822 4.463a2.45 2.45 0 0 1-1.609.94 2.448 2.448 0 0 1-1.806-.462C.35 4.134.127 2.607.937 1.543A2.423 2.423 0 0 1 2.882.57c.528 0 1.032.173 1.452.495.52.387.85.957.94 1.6a2.413 2.413 0 0 1-.453 1.799zm25.493 5.577a5.46 5.46 0 0 0-3.317 1.113l-6.971-8.547a.323.323 0 0 0 .066-.082 1.319 1.319 0 0 0-.256-1.856 1.337 1.337 0 0 0-1.864.255 1.346 1.346 0 0 0 .264 1.865 1.32 1.32 0 0 0 1.435.099l6.98 8.547a5.512 5.512 0 0 0-1.246 1.609l-19.817-9.1c.157-.429.207-.883.14-1.337A2.876 2.876 0 0 0 4.609.71 2.83 2.83 0 0 0 2.47.149 2.832 2.832 0 0 0 .58 1.271a2.879 2.879 0 0 0 .562 4.026c.503.38 1.105.586 1.724.586.14 0 .272-.009.404-.033a2.834 2.834 0 0 0 1.9-1.114 3.1 3.1 0 0 0 .247-.388l19.792 9.1a5.833 5.833 0 0 0-.42 1.906H7.973a1.754 1.754 0 0 0-.693-1.197 1.782 1.782 0 0 0-2.484.347 1.75 1.75 0 0 0 .347 2.475 1.778 1.778 0 0 0 2.491-.347c.19-.255.297-.536.339-.833h16.821c.025.726.198 1.411.479 2.038l-4.265 2.112a1.243 1.243 0 0 0-.776-.512 1.334 1.334 0 0 0-1.592.999 1.329 1.329 0 0 0 1.006 1.584c.71.165 1.42-.289 1.593-.999.05-.23.04-.462-.025-.676l4.257-2.104c.363.66.858 1.23 1.444 1.691l-5.536 7.623a2.851 2.851 0 0 0-2.005-.462 2.773 2.773 0 0 0-1.89 1.114c-.964 1.262-.7 3.077.562 4.026a2.827 2.827 0 0 0 1.724.586c.14 0 .272-.008.413-.033a2.803 2.803 0 0 0 1.889-1.114 2.856 2.856 0 0 0-.338-3.844l5.552-7.64a5.47 5.47 0 0 0 3.028.908 5.528 5.528 0 0 0 0-11.055z"/>
</svg>
