<svg xmlns="http://www.w3.org/2000/svg" viewBox="0 0 32 32">
  <path d="M11.32486,22.26288l1.15832-2.20043h7.06423l1.23527,2.20011Zm11.65479,1.13036-4.40054-7.83906a.68713.68713,0,0,0-.39322-.31847V13.5532h.13725a.9628.9628,0,1,0,0-1.92561H13.78472a.9628.9628,0,0,0,0,1.92561h.13757V15.236a.68425.68425,0,0,0-.39291.31816L9.1282,23.39356a.68738.68738,0,0,0,.59926,1.02389H22.38039a.68754.68754,0,0,0,.59926-1.02421Zm-4.773-15.18715A1.57651,1.57651,0,1,1,16.63,6.62942a1.57693,1.57693,0,0,1,1.57667,1.57667m3.18553,2.32367a1.05577,1.05577,0,1,1-1.05561-1.05561,1.05571,1.05571,0,0,1,1.05561,1.05561M12.91733,9.45841A1.05577,1.05577,0,1,1,11.86171,8.4028a1.05571,1.05571,0,0,1,1.05561,1.05561m17.86959,7.28173-2.73467-2.2868v1.653H24.97869l-.00377-.00032a.62847.62847,0,0,0,0,1.25694l.00471-.00063h3.07262v1.6665Zm-.90266-6.27508a14.85645,14.85645,0,0,0-12.108-9.19367,1.757,1.757,0,0,0-3.37665-.00157A14.9801,14.9801,0,0,0,2.2511,10.52442l.00345.00188a.62391.62391,0,1,0,1.12785.5333H3.383l.00157-.0044.00785-.01916A13.75,13.75,0,0,1,14.49227,2.51859a1.759,1.759,0,0,0,3.18537.01036,13.60431,13.60431,0,0,1,11.03385,8.3755.69807.69807,0,0,0,.62973.51415.62617.62617,0,0,0,.62627-.62627,1.2168,1.2168,0,0,0-.08323-.32727M28.35467,22.665c-.44662,0-.67809.49718-.80592.70762a13.58,13.58,0,0,1-9.84287,6.1578,1.76638,1.76638,0,0,0-3.24316-.00251A13.69506,13.69506,0,0,1,2.53248,17.36117H6.63622l.00126.00031a.62847.62847,0,1,0,0-1.25694v-.0022H1.387a.17293.17293,0,0,0-.17211.16646l-.00126.0446c-.00565.15233.02984.63915.06847,1.088l-.00031.00031.00188.02984.00094-.00031.00031.0022.00314.03706c.02042.19441.06344.55026.08135.663A14.93635,14.93635,0,0,0,14.41089,30.78012a1.75643,1.75643,0,0,0,3.34524-.00094,15.13937,15.13937,0,0,0,10.798-6.6374,2.01452,2.01452,0,0,0,.42087-.85649.61174.61174,0,0,0-.6203-.6203"/>
</svg>
