<svg xmlns="http://www.w3.org/2000/svg" viewBox="0 0 32 32">
	<path d="M26.524 10.48a5.512 5.512 0 0 0-3.348 1.081l-3.54-4.407a1.274 1.274 0 0 0-.081-1.719 1.32 1.32 0 0 0-1.853.001l-.016.016a1.284 1.284 0 0 0 .014 1.815 1.313 1.313 0 0 0 1.493.238l3.545 4.414a5.551 5.551 0 0 0-1.209 1.573L2.571 4.837a1.263 1.263 0 0 0-.332-1.184 1.324 1.324 0 0 0-1.855.002l-.014.014a1.284 1.284 0 0 0 .012 1.815 1.321 1.321 0 0 0 1.857.002l.016-.017a1.2 1.2 0 0 0 .078-.12l18.964 8.658a5.517 5.517 0 0 0-.371 1.733h-8.759a1.25 1.25 0 0 0-.328-.634 1.321 1.321 0 0 0-1.855.002l-.016.016a1.283 1.283 0 0 0 .015 1.815 1.324 1.324 0 0 0 1.856 0l.015-.016a1.249 1.249 0 0 0 .314-.62h8.758a5.514 5.514 0 0 0 .37 1.743l-2.494 1.14a1.202 1.202 0 0 0-.096-.14 1.321 1.321 0 0 0-1.853.001l-.013.013a1.285 1.285 0 0 0 .011 1.817 1.32 1.32 0 0 0 1.855.002l.022-.021a1.259 1.259 0 0 0 .312-1.161l2.488-1.136a5.56 5.56 0 0 0 1.21 1.568l-6.545 8.146a1.313 1.313 0 0 0-1.493.238l-.016.016a1.284 1.284 0 0 0 .017 1.815 1.32 1.32 0 0 0 1.854.002l.016-.016a1.272 1.272 0 0 0 .064-1.7l6.54-8.143a5.512 5.512 0 0 0 3.213 1.08 5.544 5.544 0 0 0 .136-11.087z"/>
</svg>
