<svg xmlns="http://www.w3.org/2000/svg" viewBox="0 0 32 32">
  <path d="M19.072,15.67914H16.321V12.92749H18.641A10.84826,10.84826,0,0,1,19.072,15.67914Zm-6.29779,0H15.679V12.92749H13.20526A10.84427,10.84427,0,0,0,12.77423,15.67914Zm4.22742-5.95721a6.4037,6.4037,0,0,0-.6806-.07043v2.655h2.115A9.22591,9.22591,0,0,0,17.00165,9.72192Zm-3.79828,9.3443H15.679V16.32129H12.77423A10.84479,10.84479,0,0,0,13.20337,19.06622Zm.20721-6.7597H15.679V9.65106a6.42507,6.42507,0,0,0-.85889.10278A9.24263,9.24263,0,0,0,13.41058,12.30652Zm1.40979,9.94012a6.4193,6.4193,0,0,0,.85858.10272V19.68719H13.40814A9.23931,9.23931,0,0,0,14.82037,22.24664Zm-2.66779-5.92535H9.65106a6.31253,6.31253,0,0,0,.782,2.74493h2.12427A11.509,11.509,0,0,1,12.15259,16.32129Zm.40656-3.3938H10.43689a6.31165,6.31165,0,0,0-.78583,2.75165h2.50153A11.50783,11.50783,0,0,1,12.55914,12.92749ZM31,16.00037V31H15.99969A14.99982,14.99982,0,1,1,31,16.00037Zm-3,.00024a1.37668,1.37668,0,0,0-1.0506-1.33392A11.02307,11.02307,0,0,0,17.358,5.1095a1.38,1.38,0,0,0-2.70715.00323A11.02331,11.02331,0,0,0,5.087,14.65558a1.375,1.375,0,0,0-.0047,2.688,11.02352,11.02352,0,0,0,9.57617,9.5777,1.3791,1.3791,0,0,0,2.69135.00348,11.02284,11.02284,0,0,0,9.60376-9.59229A1.37563,1.37563,0,0,0,28,16.00061ZM10.82532,19.68719a6.38759,6.38759,0,0,0,3.04327,2.30225,10.09038,10.09038,0,0,1-1.1214-2.30225ZM17.933,9.94373a10.07787,10.07787,0,0,1,1.16309,2.36279h2.07452A6.38352,6.38352,0,0,0,17.933,9.94373Zm1.139,6.37756H16.321v2.74493h2.3219A10.85107,10.85107,0,0,0,19.072,16.32129Zm7.1275.98486A10.27084,10.27084,0,0,1,17.304,26.17493a1.51944,1.51944,0,0,0-1.29694-.95154,1.41783,1.41783,0,0,0-1.301.94867A10.27123,10.27123,0,0,1,5.834,17.2959a1.36862,1.36862,0,0,0,.00409-2.59A10.27122,10.27122,0,0,1,14.716,5.86029a1.37534,1.37534,0,0,0,2.57855-.00323,10.27156,10.27156,0,0,1,8.90088,8.83862,1.36763,1.36763,0,0,0,.00409,2.61047ZM23,16.00018a7,7,0,1,0-7,7A7.0079,7.0079,0,0,0,23,16.00018Zm-3.30634-.321H22.349a6.31253,6.31253,0,0,0-.78589-2.75165H19.28723A11.50516,11.50516,0,0,1,19.69366,15.67914Zm-5.82562-5.668a6.38757,6.38757,0,0,0-3.0379,2.29535h1.91919A10.09505,10.09505,0,0,1,13.868,10.01117Zm5.42126,9.05505h2.2774a6.31306,6.31306,0,0,0,.78229-2.74493H19.69366A11.50573,11.50573,0,0,1,19.28931,19.06622Zm-2.96826.621v2.66174a6.40943,6.40943,0,0,0,.68024-.07037,9.22507,9.22507,0,0,0,1.43719-2.59137Zm1.61182,2.36957a6.38331,6.38331,0,0,0,3.24237-2.36957h-2.0769A10.07706,10.07706,0,0,1,17.93286,22.05676Z"/>
</svg>
