<svg xmlns="http://www.w3.org/2000/svg" viewBox="0 0 32 32">
	<path d="M25.559 15.924a1.452 1.452 0 0 1 .97-1.364 10.635 10.635 0 0 0-8.921-8.936 1.476 1.476 0 0 1-2.737-.055 10.628 10.628 0 0 0-9.364 9.004 1.444 1.444 0 0 1-.049 2.719 10.62 10.62 0 0 0 9.344 9.392 1.473 1.473 0 0 1 2.884-.06 10.624 10.624 0 0 0 8.892-9.32 1.454 1.454 0 0 1-1.02-1.38zm-5.837-6.058a.933.933 0 1 1-.93.934.931.931 0 0 1 .93-.934zM16.465 8a1.4 1.4 0 1 1-1.396 1.4A1.397 1.397 0 0 1 16.465 8zm-4.187.933a.933.933 0 1 1-.93.933.931.931 0 0 1 .93-.933zm9.305 13.999H10.417c-.512 0-.727-.368-.479-.817l3.749-6.768a1.531 1.531 0 0 1 .452-.47v-1.51a.882.882 0 0 1-.93-.817.881.881 0 0 1 .93-.817h3.722a.881.881 0 0 1 .93.817.882.882 0 0 1-.93.816v1.511a1.532 1.532 0 0 1 .452.47l3.749 6.768c.248.449.033.817-.479.817zm-2.481-3.733l1.034 1.866h-8.272l1.034-1.866zM16 1a15 15 0 1 0 0 30h15V16A15 15 0 0 0 16 1zm11.46 16.312a11.504 11.504 0 0 1-9.867 10.21 1.477 1.477 0 0 1-2.659.057A11.503 11.503 0 0 1 4.58 17.322a1.446 1.446 0 0 1 .055-2.81 11.504 11.504 0 0 1 10.197-9.82 1.474 1.474 0 0 1 2.853.06 11.505 11.505 0 0 1 9.721 9.77 1.446 1.446 0 0 1 .055 2.79z"/>
</svg>
