<svg class="talend-logo" xmlns="http://www.w3.org/2000/svg" viewBox="0 0 134 32">
  <g class="talend-logo value5">
    <polygon class="talend-logo line5" points="16.65 30.743 16.387 30.538 27.763 16.448 28.026 16.654 16.65 30.743"/>
    <path class="talend-logo circle5" d="M15.54149,31.59959a1.40042,1.40042,0,0,0,1.95911.00162,1.34691,1.34691,0,0,0,.00084-1.92879,1.40541,1.40541,0,0,0-1.96193.00112A1.34576,1.34576,0,0,0,15.54149,31.59959Z" transform="translate(0 0)"/>
  </g>
  <g class="talend-logo value4">
    <polygon class="talend-logo line4" points="18.871 20.827 18.73 20.528 27.828 16.391 27.969 16.691 18.871 20.827"/>
    <path class="talend-logo circle4" d="M17.81568,19.71592a1.402,1.402,0,0,1,1.95928-.00079,1.34277,1.34277,0,0,1,0,1.928,1.40085,1.40085,0,0,1-1.96093-.00195A1.3472,1.3472,0,0,1,17.81568,19.71592Z" transform="translate(0 0)"/>
  </g>
  <g class="talend-logo value3">
    <rect class="talend-logo line3" x="11.53782" y="16.36878" width="16.32874" height="0.33006"/>
    <path class="talend-logo circle3" d="M10.55457,15.57232a1.40092,1.40092,0,0,1,1.96025-.00129,1.34657,1.34657,0,0,1,0,1.92747,1.40412,1.40412,0,0,1-1.9619-.0003A1.345,1.345,0,0,1,10.55457,15.57232Z" transform="translate(0 0)"/>
  </g>
  <g class="talend-logo value2">
    <polygon class="talend-logo line2" points="27.828 16.684 1.305 4.635 1.446 4.335 27.969 16.385 27.828 16.684"/>
    <path class="talend-logo circle2" d="M.40583,3.52491a1.40446,1.40446,0,0,1,1.96042-.00145,1.34579,1.34579,0,0,1,0,1.9275A1.401,1.401,0,0,1,.40418,5.44934,1.34553,1.34553,0,0,1,.40583,3.52491Z" transform="translate(0 0)"/>
  </g>
  <g class="talend-logo value1">
    <polygon class="talend-logo line1" points="27.763 16.624 19.559 6.461 19.822 6.256 28.026 16.419 27.763 16.624"/>
    <path class="talend-logo circle1" d="M18.713,5.39937a1.40049,1.40049,0,0,1,1.95914-.00162A1.34688,1.34688,0,0,1,20.673,7.32654a1.40537,1.40537,0,0,1-1.9619-.00112A1.34576,1.34576,0,0,1,18.713,5.39937Z" transform="translate(0 0)"/>
  </g>
  <path class="talend-logo text-talend" d="M58.79985,19.0429a6.671,6.671,0,0,0-3.027.62741,2.49369,2.49369,0,0,0-1.3167,2.35053,2.7665,2.7665,0,0,0,3.07007,2.86189,6.31978,6.31978,0,0,0,4.10351-1.76389V18.92577Zm3.10942,6.81888A7.84406,7.84406,0,0,1,56.40973,28.135c-3.54614,0-6.13884-2.31281-6.13884-5.87818a5.25755,5.25755,0,0,1,3.1486-5.01627,11.68839,11.68839,0,0,1,4.82281-.97971l3.38747-.11747v-.7821c0-2.43143-1.55473-3.44933-3.78615-3.44933a10.19155,10.19155,0,0,0-5.0215,1.37195l-1.43635-2.70442a14.31036,14.31036,0,0,1,7.09586-1.84258c4.66415,0,7.29522,2.11781,7.29522,6.62438v7.12926a10.56484,10.56484,0,0,0,.959,5.25061H62.58567ZM38.75741,9.2076V4.93815L42.8996,3.68189V9.2076h5.661L47.527,12.42067H42.8996V22.45276c0,1.6825.63869,2.34971,1.87538,2.34971a5.35892,5.35892,0,0,0,2.8832-.89686A5.69887,5.69887,0,0,0,48.766,26.84888,10.16223,10.16223,0,0,1,43.77924,28.135c-3.14941,0-5.02183-1.76472-5.02183-4.781V9.2076Zm51.15,7.36681c-.07984-2.35212-1.23421-4.66252-3.90547-4.66252-2.51256,0-3.98547,2.15534-4.02529,4.66252Zm-7.89094,2.89866a5.26247,5.26247,0,0,0,5.61839,5.40967,9.54969,9.54969,0,0,0,4.74429-1.2556l1.23572,2.78453A12.12538,12.12538,0,0,1,87.19631,28.135c-6.57475,0-9.40417-4.58486-9.40417-9.71929,0-5.603,3.14843-9.67882,8.2493-9.67882,5.14165,0,8.09224,3.76295,8.09224,9.75814v.97809Zm-3.956,7.61177a11.2445,11.2445,0,0,1-4.59724.93053c-2.90862,0-4.34531-1.48879-4.34531-4.19179V1.4909L73.26292,0V22.68677c0,1.37277.47818,1.76373,1.39569,1.76373a10.391,10.391,0,0,0,1.401-.26461A7.65248,7.65248,0,0,0,78.06049,27.08484ZM96.90508,9.2076h3.80448l-.05345,2.36776a11.165,11.165,0,0,1,6.68983-2.83691c2.98876,0,5.89755,1.56761,5.89755,6.6624V27.7406h-4.14266V16.69319c0-2.43047-.55949-4.38907-3.0696-4.38907a8.21877,8.21877,0,0,0-4.98232,2.23369V27.7406H96.90508Zm36.1343,13.28288V.0408l-.00329.01142V0l-4.14515,1.4909V9.01277a13.11458,13.11458,0,0,0-2.74975-.27431c-5.72508,0-10.01251,3.9083-10.1512,9.63063l-.003.03578c-.00067.029-.00329.065-.00329.10783-.00165.04624-.00722.09123-.00722.13826,0,.0271.00363.055.00363.08268-.0095,1.35762.23343,5.70269,3.56252,8.065.02.01449.04.02868.06033.04238.12949.09106.26523.1776.40459.2622.03408.01967.06523.04046.09639.05915.161.093.32458.18391.49768.26738,0,0,.02622.01145.06392.03.08921.04383.182.08687.2751.12763.02162.00871.04294.01805.06591.02644.16229.06882.3275.13166.496.185a.13238.13238,0,0,1,.0236.00739c.15115.04852.30588.09123.46391.12975.06265.01789.12691.02819.18885.04159.10821.02337.2154.04528.32395.06347.11146.01647.22.031.32982.04192.0928.00984.18526.02079.27966.02852.04788.00323.0977.00452.14493.00564.13866.00805.27409.01789.4157.01789a7.84049,7.84049,0,0,0,5.49921-2.27317l.6777,1.87931H134A10.548,10.548,0,0,1,133.03938,22.49048ZM124.073,24.82019a3.75912,3.75912,0,0,1-1.27406-.46155c-.02458-.01353-.0518-.02885-.076-.043-.02951-.01723-.06067-.03287-.08756-.05222a4.85074,4.85074,0,0,1-.5095-.35422c-.10361-.09816-.19244-.19774-.28423-.29913-.03935-.03881-.08034-.07928-.118-.122-.02031-.02416-.04163-.04931-.06228-.07218a5.26217,5.26217,0,0,1-.62919-.90284c-.04294-.07911-.07866-.15938-.118-.2382-.02034-.042-.04395-.08281-.06426-.12618a7.98088,7.98088,0,0,1-.582-4.224,8.121,8.121,0,0,1,.12721-.94086c.00457-.02436.00655-.05222.01081-.075a7.39293,7.39293,0,0,1,.30065-1.03852,5.78023,5.78023,0,0,1,5.673-3.723,9.3356,9.3356,0,0,1,2.50091.31009V23.11884a6.12649,6.12649,0,0,1-4.093,1.76389A2.458,2.458,0,0,1,124.073,24.82019Z" transform="translate(0 0)"/>
  <ellipse class="talend-logo big-circle" cx="27.89611" cy="16.53634" rx="5.93189" ry="5.83103"/>
</svg>