<svg xmlns="http://www.w3.org/2000/svg" viewBox="0 0 32 32">
  <path d="M17.79228,29.27614a1.908,1.908,0,0,0-1.22679-1.02547V20.93639l4.81952.005a3.97437,3.97437,0,0,0,0-7.9459,3.68931,3.68931,0,0,0-.53425.043,4.968,4.968,0,0,0-9.2364-1.28553,2.186,2.186,0,0,0-.43029-.04774,2.27728,2.27728,0,0,0-2.24723,2.30691,2.3438,2.3438,0,0,0,.17494.89136,3.04546,3.04546,0,0,0,.5355,6.02593l5.94078.006v7.31146a1.908,1.908,0,0,0-1.24375,1.03332A13.38951,13.38951,0,0,1,2.79412,17.70514a1.90654,1.90654,0,0,0,.0022-3.37573A13.38929,13.38929,0,0,1,14.37418,2.76751a1.90523,1.90523,0,0,0,3.40115.00565A13.3901,13.3901,0,0,1,29.302,14.282a1.9054,1.9054,0,0,0,.00189,3.47058A13.38977,13.38977,0,0,1,17.79228,29.27614m14.20763-13.2595a1.907,1.907,0,0,0-1.48213-1.85841A14.58991,14.58991,0,0,0,17.95121,1.564a1.90643,1.90643,0,0,0-3.74915-.00628A14.59015,14.59015,0,0,0,1.589,14.13782a1.90549,1.90549,0,0,0-.0022,3.75765A14.58988,14.58988,0,0,0,14.2052,30.49414a1.90718,1.90718,0,0,0,3.72936-.00471A14.58972,14.58972,0,0,0,30.52,17.87443a1.907,1.907,0,0,0,1.47994-1.85778"/>
</svg>
