<svg xmlns="http://www.w3.org/2000/svg" viewBox="0 0 16 16">
  <path d="M13.545,1.38746 C13.599,1.50546 13.621,1.63046 13.621,1.75946 C13.622,2.24046 13.622,2.72146 13.621,3.20346 C13.621,3.21546 13.62,3.22746 13.618,3.24346 L13.153,3.24346 L13.153,3.18746 C13.153,2.75946 13.154,2.33246 13.151,1.90446 C13.15,1.82846 13.137,1.75146 13.116,1.67846 C13.067,1.50046 12.928,1.43346 12.755,1.44946 C12.555,1.46946 12.394,1.57346 12.244,1.69746 C12.232,1.70846 12.227,1.73446 12.227,1.75446 C12.226,2.22946 12.226,2.70446 12.226,3.18046 L12.226,3.24246 L11.76,3.24246 L11.76,1.09246 L12.185,1.09246 L12.185,1.36446 C12.206,1.34746 12.222,1.33646 12.237,1.32546 C12.413,1.19146 12.601,1.08146 12.822,1.04846 C13.115,1.00446 13.411,1.08946 13.545,1.38746 Z M6.0303,2.84946 C6.0533,2.83846 6.0763,2.82646 6.0933,2.81746 C6.1353,2.92846 6.1763,3.03746 6.2213,3.15846 C6.1633,3.18146 6.0943,3.21546 6.0223,3.23746 C5.8253,3.29746 5.6253,3.32246 5.4253,3.25546 C5.2353,3.19146 5.1343,3.05246 5.1023,2.85946 C5.0933,2.80946 5.0933,2.75846 5.0933,2.70746 C5.0923,2.02246 5.0933,1.33846 5.0933,0.65346 L5.0933,0.59346 C5.2483,0.54546 5.4003,0.49846 5.5603,0.44846 L5.5603,0.50846 C5.5603,0.68646 5.5613,0.86546 5.5603,1.04346 C5.5593,1.07946 5.5703,1.09146 5.6073,1.09046 C5.7893,1.08846 5.9703,1.08946 6.1513,1.08946 L6.2083,1.08946 C6.2033,1.10746 6.2013,1.12046 6.1973,1.13346 C6.1673,1.22946 6.1343,1.32646 6.1063,1.42346 C6.0963,1.45646 6.0813,1.46446 6.0493,1.46446 C5.9053,1.46246 5.7623,1.46346 5.6193,1.46346 L5.5633,1.46346 C5.5623,1.48446 5.5603,1.50246 5.5603,1.52046 C5.5603,1.88846 5.5603,2.25646 5.5613,2.62346 C5.5613,2.66946 5.5673,2.71646 5.5783,2.76046 C5.6003,2.85646 5.6653,2.90546 5.7633,2.90946 C5.8573,2.91146 5.9463,2.89046 6.0303,2.84946 Z M9.3692,2.85916 C9.4152,2.97816 9.4962,3.07216 9.5812,3.16416 C9.5822,3.16616 9.5822,3.17016 9.5862,3.18516 C9.5092,3.20716 9.4322,3.23416 9.3542,3.24916 C9.2142,3.27716 9.0712,3.29416 8.9292,3.26716 C8.7012,3.22316 8.5772,3.07316 8.5732,2.84116 C8.5712,2.69616 8.5732,2.55116 8.5732,2.40716 C8.5722,1.68716 8.5732,0.96716 8.5712,0.24716 C8.5712,0.20216 8.5862,0.18416 8.6272,0.17016 C8.7472,0.12916 8.8662,0.08316 8.9862,0.03916 C9.0022,0.03316 9.0172,0.02916 9.0422,0.02116 L9.0422,0.08816 L9.0422,2.65316 C9.0422,2.68416 9.0452,2.71516 9.0502,2.74516 C9.0642,2.83416 9.1312,2.88116 9.2202,2.86716 C9.2562,2.86116 9.2912,2.85116 9.3282,2.84616 C9.3422,2.84516 9.3662,2.85016 9.3692,2.85916 Z M15.4229,2.09156 C15.4229,2.28256 15.4219,2.47256 15.4229,2.66356 C15.4239,2.69756 15.4119,2.72056 15.3869,2.74156 C15.2709,2.83756 15.1429,2.90856 14.9889,2.91756 C14.7719,2.92956 14.6189,2.82556 14.5179,2.64056 C14.4269,2.47756 14.4119,2.29956 14.4269,2.11756 C14.4399,1.96656 14.4769,1.82456 14.5689,1.70056 C14.6839,1.54256 14.8429,1.46056 15.0339,1.43556 C15.1479,1.42156 15.2579,1.43356 15.3689,1.45356 C15.4089,1.46156 15.4239,1.47756 15.4239,1.51956 C15.4209,1.71056 15.4229,1.90156 15.4229,2.09156 M15.8919,2.52456 L15.8919,0.07756 L15.8919,0.01956 C15.7439,0.07256 15.6059,0.12556 15.4649,0.17456 C15.4319,0.18656 15.4219,0.20256 15.4219,0.23756 C15.4229,0.49256 15.4229,0.74856 15.4229,1.00356 L15.4229,1.06456 C15.4019,1.06256 15.3909,1.06256 15.3789,1.06056 C15.2199,1.03256 15.0609,1.02756 14.9019,1.05256 C14.5859,1.10156 14.3269,1.24756 14.1439,1.51256 C14.0099,1.70356 13.9509,1.91856 13.9439,2.14956 C13.9369,2.38856 13.9719,2.61956 14.0869,2.83156 C14.2409,3.11556 14.4769,3.28056 14.8079,3.29256 C15.0379,3.29956 15.2359,3.21556 15.4089,3.06656 C15.4219,3.05556 15.4349,3.04556 15.4519,3.03056 C15.4759,3.09456 15.4969,3.15156 15.5159,3.20956 C15.5249,3.23756 15.5379,3.24756 15.5689,3.24656 C15.6999,3.24556 15.8329,3.24656 15.9649,3.24556 C15.9749,3.24556 15.9849,3.24456 15.9999,3.24256 C15.8859,3.01156 15.8919,2.76756 15.8919,2.52456 M7.7129,2.67946 C7.7129,2.69646 7.7059,2.71746 7.6949,2.72746 C7.5599,2.84646 7.4059,2.92646 7.2199,2.91946 C6.9129,2.90846 6.8399,2.63946 6.9119,2.45046 C6.9509,2.34846 7.0339,2.29646 7.1329,2.27146 C7.2059,2.25346 7.2809,2.24346 7.3559,2.23746 C7.4719,2.22846 7.5889,2.22646 7.7139,2.22146 L7.7139,2.43946 C7.7139,2.51946 7.7149,2.59946 7.7129,2.67946 M8.1839,2.63346 C8.1829,2.36546 8.1839,2.09746 8.1829,1.82946 C8.1829,1.76846 8.1789,1.70746 8.1729,1.64646 C8.1419,1.35746 7.9699,1.15246 7.6889,1.07946 C7.3879,1.00146 7.0899,1.03046 6.7999,1.13146 C6.7109,1.16246 6.6259,1.20646 6.5369,1.24446 C6.5949,1.35546 6.6479,1.45546 6.7019,1.56046 C6.7229,1.54946 6.7379,1.54246 6.7529,1.53446 C6.9469,1.43646 7.1509,1.38546 7.3709,1.40846 C7.5439,1.42646 7.6659,1.52646 7.6999,1.68946 C7.7129,1.74746 7.7099,1.80846 7.7139,1.86746 C7.7159,1.89546 7.7019,1.90146 7.6779,1.90146 C7.6119,1.90346 7.5459,1.90746 7.4799,1.90846 C7.3059,1.91246 7.1329,1.91646 6.9619,1.95746 C6.5989,2.04546 6.4069,2.28346 6.4119,2.63946 C6.4179,3.00046 6.6929,3.27846 7.0559,3.29246 C7.3059,3.30346 7.5209,3.22546 7.7069,3.06146 C7.7179,3.05146 7.7309,3.04346 7.7449,3.03246 C7.7599,3.07246 7.7729,3.10646 7.7849,3.14146 C7.8219,3.24646 7.8219,3.24646 7.9319,3.24646 L8.2859,3.24646 C8.2849,3.23746 8.2849,3.23246 8.2829,3.22846 C8.1949,3.03846 8.1839,2.83746 8.1839,2.63346 M10.0459,1.94556 C10.0099,1.67956 10.2309,1.40956 10.4919,1.40256 C10.6309,1.39756 10.7479,1.44856 10.8329,1.56256 C10.9169,1.67456 10.9459,1.80356 10.9539,1.94556 L10.0459,1.94556 Z M10.5779,1.03856 C10.2109,1.01256 9.8739,1.18956 9.7109,1.52156 C9.5289,1.89056 9.5159,2.27356 9.6529,2.65756 C9.7669,2.97556 9.9949,3.17756 10.3249,3.25656 C10.6069,3.32356 10.8839,3.30156 11.1539,3.20256 C11.2299,3.17456 11.3009,3.13556 11.3769,3.10056 C11.3269,2.98556 11.2809,2.88156 11.2339,2.77456 C11.2159,2.78356 11.2029,2.78956 11.1909,2.79656 C11.0169,2.88556 10.8309,2.92556 10.6349,2.91756 C10.3839,2.90656 10.1759,2.75956 10.0889,2.52456 C10.0609,2.44856 10.0429,2.36956 10.0479,2.28556 L11.4289,2.28556 C11.4309,2.27356 11.4329,2.26556 11.4329,2.25856 C11.4369,2.08556 11.4279,1.91456 11.3849,1.74556 C11.2819,1.33956 11.0079,1.06756 10.5779,1.03856 Z M2.6885,3.57306 C2.7005,3.65106 2.6795,3.72806 2.6325,3.79106 C2.5845,3.85406 2.5165,3.89506 2.4385,3.90606 C2.3605,3.91606 2.2835,3.89606 2.2195,3.84906 C2.0905,3.75106 2.0645,3.56606 2.1625,3.43706 C2.2095,3.37406 2.2785,3.33306 2.3565,3.32306 C2.3705,3.32106 2.3845,3.32006 2.3985,3.32006 C2.4615,3.32006 2.5235,3.34006 2.5745,3.37906 C2.6375,3.42706 2.6775,3.49506 2.6885,3.57306 M0.5845,0.52606 C0.5365,0.58906 0.4665,0.62906 0.3895,0.64006 C0.3115,0.65106 0.2345,0.63106 0.1705,0.58406 C0.0425,0.48606 0.0155,0.30106 0.1135,0.17206 C0.1615,0.10906 0.2295,0.06806 0.3075,0.05706 C0.3215,0.05506 0.3345,0.05406 0.3495,0.05406 C0.4135,0.05406 0.4745,0.07506 0.5255,0.11406 C0.5885,0.16106 0.6285,0.23006 0.6395,0.30806 C0.6515,0.38606 0.6305,0.46306 0.5845,0.52606 M3.6745,1.20206 C3.5235,1.20206 3.3845,1.25206 3.2725,1.33706 L2.4275,0.30106 C2.4305,0.29806 2.4335,0.29506 2.4355,0.29106 C2.4895,0.22006 2.4755,0.11906 2.4045,0.06606 C2.3335,0.01206 2.2325,0.02706 2.1785,0.09706 C2.1265,0.16806 2.1395,0.26906 2.2105,0.32306 C2.2625,0.36206 2.3315,0.36506 2.3845,0.33506 L3.2305,1.37106 C3.1685,1.42606 3.1175,1.49206 3.0795,1.56606 L0.6775,0.46306 C0.6965,0.41106 0.7025,0.35606 0.6945,0.30106 C0.6805,0.20806 0.6325,0.12606 0.5585,0.07106 C0.4845,0.01406 0.3925,-0.00994 0.2995,0.00306 C0.2085,0.01606 0.1255,0.06406 0.0705,0.13906 C-0.0455,0.29206 -0.0145,0.51106 0.1385,0.62706 C0.1995,0.67306 0.2725,0.69806 0.3475,0.69806 C0.3645,0.69806 0.3805,0.69706 0.3965,0.69406 C0.4895,0.68106 0.5715,0.63306 0.6265,0.55906 C0.6375,0.54406 0.6475,0.52906 0.6565,0.51206 L3.0555,1.61506 C3.0265,1.68706 3.0085,1.76406 3.0045,1.84606 L0.9665,1.84606 C0.9595,1.79006 0.9315,1.73806 0.8825,1.70106 C0.7885,1.63006 0.6525,1.64906 0.5815,1.74306 C0.5085,1.83806 0.5285,1.97206 0.6235,2.04306 C0.7175,2.11506 0.8535,2.09606 0.9255,2.00106 C0.9485,1.97006 0.9615,1.93606 0.9665,1.90006 L3.0055,1.90006 C3.0085,1.98806 3.0295,2.07106 3.0635,2.14706 L2.5465,2.40306 C2.5245,2.37206 2.4925,2.34906 2.4525,2.34106 C2.3665,2.32106 2.2805,2.37506 2.2595,2.46206 C2.2405,2.54806 2.2945,2.63506 2.3815,2.65406 C2.4675,2.67406 2.5535,2.61906 2.5745,2.53306 C2.5805,2.50506 2.5795,2.47706 2.5715,2.45106 L3.0875,2.19606 C3.1315,2.27606 3.1915,2.34506 3.2625,2.40106 L2.5915,3.32506 C2.5205,3.27706 2.4355,3.25706 2.3485,3.26906 C2.2565,3.28106 2.1745,3.32906 2.1195,3.40406 C2.0025,3.55706 2.0345,3.77706 2.1875,3.89206 C2.2495,3.93906 2.3215,3.96306 2.3965,3.96306 C2.4135,3.96306 2.4295,3.96206 2.4465,3.95906 C2.5385,3.94706 2.6205,3.89806 2.6755,3.82406 C2.7325,3.75006 2.7555,3.65806 2.7435,3.56606 C2.7315,3.48506 2.6935,3.41306 2.6345,3.35806 L3.3075,2.43206 C3.4135,2.50206 3.5395,2.54206 3.6745,2.54206 C4.0445,2.54206 4.3445,2.24206 4.3445,1.87206 C4.3445,1.50206 4.0445,1.20206 3.6745,1.20206" transform="translate(0 6.015)"/>
</svg>
