<svg xmlns="http://www.w3.org/2000/svg" viewBox="0 0 16 16">
  <path d="M9.6945,13.9622 C9.5205,14.1932 9.2665,14.3432 8.9795,14.3832 C8.6925,14.4232 8.4075,14.3492 8.1765,14.1752 C7.6995,13.8152 7.6045,13.1342 7.9645,12.6562 C8.1385,12.4252 8.3925,12.2762 8.6785,12.2362 C8.7305,12.2292 8.7805,12.2252 8.8315,12.2252 C9.0655,12.2252 9.2925,12.3002 9.4825,12.4442 C9.7135,12.6182 9.8625,12.8722 9.9025,13.1592 C9.9435,13.4462 9.8695,13.7312 9.6945,13.9622 M2.1495,1.9372 C1.9745,2.1682 1.7205,2.3172 1.4345,2.3582 C1.1485,2.3982 0.8615,2.3242 0.6315,2.1492 C0.1535,1.7902 0.0585,1.1092 0.4185,0.6312 C0.5925,0.4002 0.8465,0.2512 1.1335,0.2112 C1.1845,0.2042 1.2355,0.2002 1.2855,0.2002 C1.5195,0.2002 1.7465,0.2752 1.9365,0.4192 C2.1675,0.5932 2.3175,0.8472 2.3575,1.1342 C2.3975,1.4212 2.3235,1.7062 2.1495,1.9372 M13.5325,4.4282 C12.9765,4.4282 12.4635,4.6122 12.0505,4.9222 L8.9405,1.1082 C8.9505,1.0972 8.9615,1.0852 8.9705,1.0722 C9.1685,0.8112 9.1155,0.4402 8.8545,0.2432 C8.5935,0.0452 8.2225,0.0982 8.0255,0.3592 C7.8285,0.6202 7.8815,0.9912 8.1415,1.1882 C8.3345,1.3332 8.5865,1.3432 8.7845,1.2332 L11.8965,5.0492 C11.6695,5.2522 11.4795,5.4942 11.3395,5.7672 L2.4975,1.7052 C2.5635,1.5152 2.5845,1.3112 2.5555,1.1062 C2.5075,0.7662 2.3315,0.4652 2.0575,0.2592 C1.7835,0.0522 1.4455,-0.0348 1.1055,0.0122 C0.7655,0.0602 0.4655,0.2372 0.2585,0.5112 C-0.1675,1.0762 -0.0555,1.8832 0.5105,2.3102 C0.7355,2.4802 1.0035,2.5692 1.2805,2.5692 C1.3405,2.5692 1.4015,2.5652 1.4615,2.5562 C1.8015,2.5082 2.1025,2.3322 2.3095,2.0582 C2.3495,2.0042 2.3845,1.9462 2.4165,1.8882 L11.2545,5.9482 C11.1445,6.2122 11.0795,6.4982 11.0685,6.7972 L3.5615,6.7972 C3.5355,6.5932 3.4305,6.3992 3.2525,6.2652 C2.9015,6.0022 2.4025,6.0722 2.1385,6.4202 C1.8745,6.7682 1.9445,7.2632 2.2945,7.5252 C2.6455,7.7882 3.1435,7.7182 3.4075,7.3712 C3.4935,7.2572 3.5435,7.1292 3.5615,6.9982 L11.0685,6.9982 C11.0815,7.3212 11.1565,7.6282 11.2825,7.9072 L9.3795,8.8492 C9.2985,8.7372 9.1775,8.6532 9.0325,8.6202 C8.7135,8.5472 8.3965,8.7472 8.3235,9.0662 C8.2515,9.3852 8.4515,9.7022 8.7705,9.7752 C9.0895,9.8472 9.4055,9.6472 9.4785,9.3282 C9.5025,9.2252 9.4965,9.1232 9.4685,9.0282 L11.3725,8.0872 C11.5345,8.3802 11.7545,8.6362 12.0175,8.8412 L9.5455,12.2452 C9.2815,12.0672 8.9675,11.9932 8.6515,12.0372 C8.3115,12.0852 8.0105,12.2622 7.8035,12.5362 C7.3785,13.1022 7.4905,13.9082 8.0555,14.3352 C8.2805,14.5042 8.5495,14.5942 8.8265,14.5942 C8.8865,14.5942 8.9465,14.5902 9.0075,14.5822 C9.3475,14.5342 9.6485,14.3572 9.8545,14.0832 C10.0615,13.8092 10.1495,13.4712 10.1015,13.1312 C10.0595,12.8352 9.9195,12.5682 9.7025,12.3682 L12.1805,8.9582 C12.5685,9.2132 13.0335,9.3622 13.5325,9.3622 C14.8955,9.3622 16.0005,8.2572 16.0005,6.8952 C16.0005,5.5322 14.8955,4.4282 13.5325,4.4282" transform="translate(0 .69)"/>
</svg>
