<svg xmlns="http://www.w3.org/2000/svg" viewBox="0 0 16 11">
	<g>
		<path fill="#80679F" d="M15.4307561,3 L13.8202797,3 C13.4281118,3 13.0336229,3.31111179 12.9457202,3.69144335 L10.8680249,12.5583035 C11.9764695,12.8964823 12.8960827,13.2712438 13.6511758,13.6431912 L15.9818742,3.69144335 C16.0709374,3.31111179 15.8230111,3 15.4307561,3 M11.0477468,5.7725329 L9.43724141,5.7725329 C9.04385499,5.7725329 8.65035254,6.08410886 8.5621307,6.46446943 L7.32206417,11.7553426 C8.39415819,11.925578 9.3560692,12.135152 10.215427,12.3696462 L11.5988359,6.46446943 C11.6873479,6.08410886 11.4399728,5.7725329 11.0477468,5.7725329 M2.8297712,9.19757665 L1.21810536,9.19757665 C0.826981791,9.19757665 0.432231871,9.50863042 0.343748938,9.88910703 L0,11.3547905 C0.251088452,11.3355854 0.508878397,11.3215442 0.784713059,11.3187011 C1.57192105,11.3106941 2.32199521,11.3215442 3.03818477,11.3485242 L3.38088932,9.88910703 C3.46905313,9.50863042 3.22109785,9.19757665 2.8297712,9.19757665 M7.04341546,7.35707364 L5.43174962,7.35707364 C5.03981375,7.35707364 4.64567305,7.66876565 4.55690001,8.04915522 L3.77558122,11.3844976 C4.84428097,11.4442888 5.83325906,11.5417941 6.74559061,11.6696737 L7.59392435,8.04915522 C7.68327761,7.66876565 7.43503221,7.35707364 7.04341546,7.35707364" transform="translate(0 -3)"/>
	</g>
</svg>
