<svg xmlns="http://www.w3.org/2000/svg" viewBox="0 0 16 16">
  <path d="M14.1367,7.76838966 L11.2867,7.77932406 C11.2857,6.6888668 11.2857,5.65805169 11.2857,5.65705765 C11.2857,4.82405567 9.9417,4.14413519 8.2407,4.08648111 L8.2407,1.85785288 C8.4847,1.79224652 8.6887,1.63518887 8.8147,1.42345924 C11.8437,1.78628231 14.2537,4.1749503 14.6307,7.18190855 C14.3917,7.29821074 14.2117,7.50994036 14.1367,7.76838966 Z M8.8207,14.5874751 C8.6967,14.3717694 8.4907,14.2097416 8.2427,14.1441352 L8.2427,11.8648111 C9.9447,11.8071571 11.2867,11.1272366 11.2867,10.2942346 L11.2867,8.26341948 L14.1247,8.25347913 C14.1927,8.52683897 14.3777,8.75049702 14.6247,8.87276342 C14.2307,11.8588469 11.8317,14.2246521 8.8207,14.5874751 Z M5.3317,10.5208748 L5.3317,9.60238569 C5.9227,10.000994 6.9067,10.2634195 8.0207,10.2634195 C9.1187,10.2634195 10.0887,10.0089463 10.6827,9.61928429 L10.6827,10.5377734 C10.0887,10.9274354 9.1187,11.1819085 8.0207,11.1819085 C6.9067,11.1819085 5.9227,10.9194831 5.3317,10.5208748 Z M7.7557,14.1411531 C7.5067,14.2067594 7.2997,14.3677932 7.1737,14.583499 C4.1717,14.2087475 1.7847,11.8429423 1.3977,8.86182903 C1.6297,8.73856859 1.8037,8.52485089 1.8707,8.26441352 L4.7347,8.26441352 L4.7337,10.2992048 L4.7347,10.2992048 C4.7397,11.1262425 6.0697,11.8021869 7.7557,11.8648111 L7.7557,14.1411531 Z M7.1797,1.42743539 C7.3057,1.63717694 7.5087,1.79324056 7.7527,1.85785288 L7.7527,4.08747515 C6.0747,4.1500994 4.7527,4.81908549 4.7357,5.64015905 L4.7347,7.78031809 L1.8667,7.78031809 C1.7957,7.52485089 1.6227,7.31510934 1.3917,7.19483101 C1.7627,4.18986083 4.1597,1.80218688 7.1797,1.42743539 Z M10.6827,8.06163022 L10.6827,8.98011928 C10.0887,9.36878728 9.1187,9.62326044 8.0207,9.62326044 C6.9067,9.62326044 5.9227,9.36182903 5.3317,8.96222664 L5.3317,8.04373757 C5.9227,8.44333996 6.9067,8.70477137 8.0207,8.70477137 C9.1187,8.70477137 10.0887,8.45129225 10.6827,8.06163022 Z M8.0207,7.1471173 C9.1187,7.1471173 10.0887,6.89264414 10.6827,6.50397614 L10.6827,7.42147117 C10.0887,7.8111332 9.1187,8.06560636 8.0207,8.06560636 C6.9067,8.06560636 5.9227,7.80318091 5.3317,7.40457256 L5.3317,6.4860835 C5.9227,6.88469185 6.9067,7.1471173 8.0207,7.1471173 Z M15.2357,7.10139165 C14.8247,3.83300199 12.2227,1.24254473 8.9367,0.828031809 C8.8767,0.361829026 8.4817,-3.55271368e-15 7.9957,-3.55271368e-15 C7.5097,-3.55271368e-15 7.1137,0.363817097 7.0557,0.832007952 C3.7847,1.2584493 1.1987,3.84194831 0.7887,7.09940358 C0.3417,7.17594433 -0.0003,7.56262425 -0.0003,8.02982107 C-0.0003,8.49801193 0.3447,8.88568588 0.7947,8.96023857 C1.2247,12.195825 3.8017,14.7554672 7.0567,15.1799205 C7.1187,15.6431412 7.5137,16 7.9957,16 C8.4767,16 8.8707,15.6451292 8.9347,15.1838966 C12.2057,14.7723658 14.7997,12.2047714 15.2287,8.95725646 C15.6677,8.87375746 15.9997,8.49105368 15.9997,8.02982107 C15.9997,7.57057654 15.6707,7.18787276 15.2357,7.10139165 Z"/>
</svg>
