<svg xmlns="http://www.w3.org/2000/svg" viewBox="0 0 16 16">
	<path d="M2.541 7.793h2.561l.001-1.922C5.12 5.134 6.3 4.532 7.796 4.477V2.474a.851.851 0 0 1-.51-.387 5.967 5.967 0 0 0-5.169 5.181.842.842 0 0 1 .424.525"/>
	<path d="M5.635 7.457c.528.357 1.406.593 2.4.593.982 0 1.848-.23 2.378-.578v-.826c-.53.35-1.396.58-2.377.58-.995 0-1.873-.237-2.401-.595v.825zm-.533 2.6H5.1V8.228H2.546a.848.848 0 0 1-.422.536 5.966 5.966 0 0 0 5.158 5.14.848.848 0 0 1 .519-.398v-2.045c-1.506-.055-2.693-.663-2.698-1.406"/>
	<path d="M5.635 8.03v.826c.528.359 1.406.593 2.4.593.982 0 1.848-.23 2.378-.577v-.825c-.53.349-1.396.578-2.377.578-.995 0-1.873-.236-2.401-.594m3.11-5.947a.855.855 0 0 1-.513.39v2.002c1.52.051 2.72.662 2.72 1.411v1.905l2.545-.009a.84.84 0 0 1 .44-.526 5.965 5.965 0 0 0-5.193-5.173"/>
	<path d="M10.413 9.446c-.53.35-1.396.578-2.376.578-.996 0-1.874-.235-2.402-.593v.825c.528.358 1.406.593 2.402.593.98 0 1.846-.228 2.376-.578v-.825z"/>
	<path d="M14.472 8.851a6.502 6.502 0 0 1-5.62 5.594.845.845 0 1 1-1.677-.004 6.504 6.504 0 0 1-5.59-5.587.848.848 0 0 1-.006-1.672 6.502 6.502 0 0 1 5.595-5.629.848.848 0 0 1 .84-.748c.433 0 .787.325.84.744a6.502 6.502 0 0 1 5.624 5.635.85.85 0 0 1-.006 1.667M8 0a8 8 0 1 0 0 16A8 8 0 0 0 8 0"/>
	<path d="M13.487 8.22l-2.535.008v1.824c0 .748-1.198 1.36-2.717 1.411v2.047a.85.85 0 0 1 .515.398 5.966 5.966 0 0 0 5.183-5.132.85.85 0 0 1-.446-.557"/>
</svg>
