<svg xmlns="http://www.w3.org/2000/svg" viewBox="0 0 16 16"><path d="M6.9792,0.0001 C3.1252,0.0001 0.0002,3.1251 0.0002,6.9791 C0.0002,10.8331 3.1252,13.9581 6.9792,13.9581 C10.8332,13.9581 13.9582,10.8331 13.9582,6.9791 C13.9582,3.1251 10.8332,0.0001 6.9792,0.0001" id="ti-full-bg-circle" fill="#202020"></path>
            <polygon id="ti-oversleeve" fill="#FFFFFF" points="2.905 10.4203 4.308 10.4203 4.308 6.6543 2.905 6.6543"></polygon>
            <path d="M10.424,6.8942 L10.264,6.9102 C10.936,7.1022 10.715,7.9592 10.233,8.0102 L10.112,8.0122 C10.757,8.1762 10.546,9.0722 10.041,9.1262 L9.898,9.1212 C10.425,9.2072 10.416,10.2102 9.619,10.2102 L5.647,10.2122 C5.367,10.2122 5.112,9.8922 4.906,9.8922 L4.726,9.8922 L4.726,6.8002 C4.949,6.6602 5.225,6.4792 5.378,6.3502 C5.667,6.1032 6.792,4.6662 6.853,3.9472 C6.879,3.6312 6.778,2.8122 6.842,2.6552 C6.905,2.4982 7.43,2.3312 7.698,2.5812 C7.966,2.8312 8.061,3.5332 8.061,4.0622 C8.061,4.5912 7.863,5.4052 7.758,5.8272 L10.51,5.8272 C11.187,5.8292 11.14,6.8842 10.424,6.8942" id="ti-hand-like" fill="#FFFFFF"></path></svg>
