<svg xmlns="http://www.w3.org/2000/svg" viewBox="0 0 16 16">
	<path d="M0 7.976a7.977 7.977 0 1 0 15.953-.001A7.977 7.977 0 0 0 0 7.976z" class="ti-full-bg-circle"/>
	<path class="ti-oversleeve" d="M3.32 11.909h1.603V7.605H3.32z"/>
	<path d="M11.913 7.88l-.183.017c.768.22.516 1.2-.035 1.258l-.138.002c.737.187.496 1.211-.082 1.273l-.163-.006c.602.099.592 1.245-.319 1.245l-4.54.002c-.32 0-.61-.366-.846-.366H5.4V7.772c.255-.16.57-.367.745-.515.33-.282 1.616-1.924 1.686-2.746.03-.361-.086-1.297-.013-1.476.072-.18.672-.37.979-.085.306.286.415 1.088.415 1.693 0 .604-.227 1.534-.347 2.017h3.145c.774.002.72 1.208-.098 1.22" class="ti-hand-like"/>
</svg>
