<svg xmlns="http://www.w3.org/2000/svg" viewBox="0 0 16 16"><path d="M7.65676.00025a.28064.28064,0,0,0-.15649.0315A12.15446,12.15446,0,0,0,5.18784,3.90663h5.62482A11.60894,11.60894,0,0,0,8.50023.03175a2.5074,2.5074,0,0,0-.5-.0315H7.65676Zm-.90647.094A7.81181,7.81181,0,0,0,1.03147,3.90663H4.65635A11.74947,11.74947,0,0,1,6.75029.09425Zm2.53142,0a13.07134,13.07134,0,0,1,2.09393,3.81238h3.49989A7.97062,7.97062,0,0,0,9.28171.09425ZM.75048,4.43761A8.12051,8.12051,0,0,0,.0005,7.844V8.0315H4.06287a11.55676,11.55676,0,0,1,.40649-3.59389Zm4.24987,0A10.70594,10.70594,0,0,0,4.56286,8.0315h6.90628a11.58136,11.58136,0,0,0-.469-3.59389Zm6.5313,0a11.55676,11.55676,0,0,1,.40649,3.59389H16.0005V7.969a7.84272,7.84272,0,0,0-.844-3.53139ZM.032,8.56248a8.30424,8.30424,0,0,0,1.18746,3.59389H4.90685a12.65571,12.65571,0,0,1-.81247-3.59389Zm4.56236,0a12.75449,12.75449,0,0,0,.844,3.59389h5.12484a14.01032,14.01032,0,0,0,.875-3.59389Zm7.31227,0a13.76245,13.76245,0,0,1-.78148,3.59389h3.68738A7.87652,7.87652,0,0,0,15.969,8.56248ZM1.563,12.68735a7.93192,7.93192,0,0,0,5.31233,3.2189,17.31954,17.31954,0,0,1-1.78144-3.2189H1.563Zm4.09387,0a19.96722,19.96722,0,0,0,1.90644,3.3124h.875a19.10752,19.10752,0,0,0,1.90644-3.3124H5.65682Zm5.24984,0a15.67355,15.67355,0,0,1-1.78144,3.2189,7.999,7.999,0,0,0,5.34383-3.2189Z"/></svg>
