<svg xmlns="http://www.w3.org/2000/svg" viewBox="0 0 16 16">
	<g>
		<path fill="#020202" d="M7,6 L13.4,6 L13.4,7.10047905 L7,7.10047905 L7,6 Z M7,8.89952095 L13.4,8.89952095 L13.4,10 L7,10 L7,8.89952095 Z M4.414,11.1008837 C4.58200084,11.2687785 4.666,11.4646528 4.666,11.6885125 C4.666,11.9030448 4.58200084,12.0919236 4.414,12.2551546 C4.24599916,12.4183857 4.05000112,12.5 3.826,12.5 C3.60199888,12.5 3.40833415,12.4207175 3.245,12.2621502 C3.08166585,12.1035829 3,11.9123723 3,11.6885125 C3,11.4646528 3.08166585,11.2687785 3.245,11.1008837 C3.40833415,10.9329889 3.60199888,10.8490427 3.826,10.8490427 C4.05000112,10.8490427 4.24599916,10.9329889 4.414,11.1008837 Z M3.854,3 C4.06866774,3 4.24133268,3.09094165 4.372,3.27282769 C4.50266732,3.45471372 4.568,3.75552073 4.568,4.17525773 C4.568,4.27786011 4.56333338,4.40144749 4.554,4.54602356 C4.54466662,4.69059964 4.53066676,4.85616009 4.512,5.04270987 L4.442,5.77025037 L4.19,9.63181149 L3.49,9.63181149 L3.28,5.77025037 C3.27066662,5.62101054 3.25900007,5.46477745 3.245,5.30154639 C3.23099993,5.13831534 3.21700007,4.9797504 3.203,4.82584683 C3.18899993,4.67194327 3.17500007,4.52503752 3.161,4.38512518 C3.14699993,4.24521285 3.14,4.12862099 3.14,4.0353461 C3.14,3.70888398 3.20299937,3.45471372 3.329,3.27282769 C3.45500063,3.09094165 3.62999888,3 3.854,3 Z"/>
	</g>
</svg>
