<svg xmlns="http://www.w3.org/2000/svg" viewBox="0 0 16 16">
  <path d="M14.7694437,11.4543558 C14.7694437,11.7940481 14.4937514,12.0697404 14.1540591,12.0697404 L1.84636678,12.0697404 C1.50667447,12.0697404 1.23098217,11.7940481 1.23098217,11.4543558 L1.23098217,10.3577404 C1.23098217,10.0180481 1.50667447,9.7423558 1.84636678,9.7423558 L14.1540591,9.7423558 C14.4937514,9.7423558 14.7694437,10.0180481 14.7694437,10.3577404 L14.7694437,11.4543558 Z M14.1134437,0.676509645 L1.89559755,0.676509645 C0.851905243,0.676509645 0.00390524339,1.52450965 0.00390524339,2.56697118 L0.00390524339,11.2955866 C0.00390524339,12.3392789 0.851905243,13.1860481 1.89559755,13.1860481 L14.1134437,13.1860481 C15.1559052,13.1860481 16.0039052,12.3392789 16.0039052,11.2955866 L16.0039052,2.56697118 C16.0039052,1.52450965 15.1559052,0.676509645 14.1134437,0.676509645 Z" transform="translate(0 1.112)"/>
</svg>
