<svg xmlns="http://www.w3.org/2000/svg" viewBox="0 0 16 16">
  <g transform="translate(0 1.825)">
    <path d="M1.8911,1.1641 C1.4901,1.1641 1.1631,1.4901 1.1631,1.8911 L1.1631,10.6181 C1.1631,11.0191 1.4901,11.3461 1.8911,11.3461 L14.1091,11.3461 C14.5101,11.3461 14.8361,11.0191 14.8361,10.6181 L14.8361,1.8911 C14.8361,1.4901 14.5101,1.1641 14.1091,1.1641 L1.8911,1.1641 Z M14.1091,12.5091 L1.8911,12.5091 C0.8481,12.5091 0.0001,11.6611 0.0001,10.6181 L0.0001,1.8911 C0.0001,0.8481 0.8481,0.0001 1.8911,0.0001 L14.1091,0.0001 C15.1521,0.0001 16.0001,0.8481 16.0001,1.8911 L16.0001,10.6181 C16.0001,11.6611 15.1521,12.5091 14.1091,12.5091 L14.1091,12.5091 Z"/>
    <path d="M13.6387,2.8428 L13.6387,9.6598 C13.6387,9.9368 13.4147,10.1598 13.1387,10.1598 L11.8117,10.1598 C11.5357,10.1598 11.3117,9.9368 11.3117,9.6598 L11.3117,2.8428 C11.3117,2.5668 11.5357,2.3428 11.8117,2.3428 L13.1387,2.3428 C13.4147,2.3428 13.6387,2.5668 13.6387,2.8428"/>
  </g>
</svg>
