<svg xmlns="http://www.w3.org/2000/svg" viewBox="0 0 16 16">
  <path d="M14.8745367,10.7823579 C14.8745367,11.1220502 14.5988444,11.3977425 14.259152,11.3977425 L13.1625367,11.3977425 C12.8228444,11.3977425 12.547152,11.1220502 12.547152,10.7823579 L12.547152,2.16697329 C12.547152,1.82728098 12.8228444,1.55158867 13.1625367,1.55158867 L14.259152,1.55158867 C14.5988444,1.55158867 14.8745367,1.82728098 14.8745367,2.16697329 L14.8745367,10.7823579 Z M14.1139213,0.223588672 L1.89607512,0.223588672 C0.853613582,0.223588672 0.0043828125,1.0703579 0.0043828125,2.11405021 L0.0043828125,10.8414348 C0.0043828125,11.8851271 0.853613582,12.7331271 1.89607512,12.7331271 L14.1139213,12.7331271 C15.1563828,12.7331271 16.0043828,11.8851271 16.0043828,10.8414348 L16.0043828,2.11405021 C16.0043828,1.0703579 15.1563828,0.223588672 14.1139213,0.223588672 Z" transform="translate(0 1.59)"/>
</svg>
