<svg xmlns="http://www.w3.org/2000/svg" viewBox="0 0 16 16">
  <path d="M11.6198,13.1067 C10.3658,12.1347 9.2998,11.2567 9.2998,11.2567 C9.2998,11.2567 8.7358,10.7867 7.7948,11.6957 L11.4328,14.5487 C11.4328,14.5487 12.0588,13.5137 11.6198,13.1067 M5.1918,3.8247 C5.1918,3.8247 5.1298,1.4107 5.1298,0.7517 C5.1298,0.0937 3.8758,0.0007 3.8758,0.0007 L3.9378,4.4207 C4.6278,4.7027 5.1918,3.8247 5.1918,3.8247 M5.5058,11.6647 L4.4398,9.7517 C4.4398,9.7517 3.6238,8.3097 2.8408,6.5847 C2.3068,5.2677 3.5308,4.6097 3.5308,4.6097 C3.5308,4.6097 3.4358,2.5707 3.3738,0.0007 C0.8648,0.4387 0.3948,1.5047 0.2688,1.8177 C-0.6092,5.1107 0.8958,9.3127 1.4298,10.2217 C4.5658,15.4587 7.5128,16.0857 7.9828,15.9917 C9.4568,15.9607 10.9928,14.9257 10.9928,14.9257 L7.4498,12.0717 C5.9758,12.6367 5.5058,11.6647 5.5058,11.6647" transform="translate(2)"/>
</svg>
