<svg xmlns="http://www.w3.org/2000/svg" viewBox="0 0 16 16">
	<path d="M12.015 1.044a7.73 7.73 0 0 0-.918-.45C10.463.333 9.32.107 8.999.061v3.195c.099.021.2.035.298.062a4.84 4.84 0 0 1 2.147 1.262c.057.058.106.123.16.183l.098-.056 2.67-1.544a7.676 7.676 0 0 0-2.358-2.12M9 15.938a6.343 6.343 0 0 0 1.073-.2c1.187-.356 2.116-.885 2.615-1.257a7.951 7.951 0 0 0 2.806-3.68c.358-.96.531-1.986.505-3.018A7.97 7.97 0 0 0 14.927 4l-2.724 1.574c.412.715.652 1.541.652 2.427a4.858 4.858 0 0 1-2.965 4.472c-.285.12-.583.212-.892.277v3.19zm-1-3.084c-.335 0-.992-.104-1-.105A4.852 4.852 0 0 1 3.144 8a4.851 4.851 0 0 1 3.854-4.75c.006-.002.014-.006.022-.007a4.85 4.85 0 0 1 .978-.1V0a7.974 7.974 0 0 0-6.172 2.91A7.964 7.964 0 0 0 0 8a7.964 7.964 0 0 0 1.827 5.088 8.06 8.06 0 0 0 3.058 2.282c.957.405 2.01.629 3.114.629v-3.145z"/>
</svg>
