<svg xmlns="http://www.w3.org/2000/svg" viewBox="0 0 16 16">
	<path d="M8 0a8 8 0 1 0 8 8 8 8 0 0 0-8-8zm0 14a6.017 6.017 0 0 1-.858-.068c-.057-.008-.113-.016-.169-.026a5.952 5.952 0 0 1-.82-.2l-.024-.008a5.95 5.95 0 0 1-.8-.33l-.043-.022a6.017 6.017 0 0 1-2.632-2.632l-.021-.044a5.95 5.95 0 0 1-.331-.799l-.009-.023a5.952 5.952 0 0 1-.199-.821c-.01-.056-.017-.112-.026-.169a5.958 5.958 0 0 1 6.79-6.79c.057.008.113.016.169.026a5.952 5.952 0 0 1 .82.2l.024.008a5.95 5.95 0 0 1 .8.33l.043.022a6.017 6.017 0 0 1 2.632 2.632l.021.044a5.95 5.95 0 0 1 .331.799l.009.023a5.952 5.952 0 0 1 .199.821c.01.056.017.112.026.169A5.958 5.958 0 0 1 8 14zm3-5H9v2H7V9H5V7h2V5h2v2h2z"/>
</svg>
