<svg xmlns="http://www.w3.org/2000/svg" viewBox="0 0 32 32"><path d="M31.43667,19.17314a1.58439,1.58439,0,0,0-1.30784-1.05635,2.94943,2.94943,0,0,0-1.042.05749,9.14314,9.14314,0,0,1-1.60965.2084,31.21481,31.21481,0,0,0,3.284-7.80406c1.09226-4.21821.5102-6.13689-.17246-7.0064A9.409,9.409,0,0,0,22.99318.00074,13.47989,13.47989,0,0,0,19.0481.55407a13.76148,13.76148,0,0,0-2.30669-.2084,7.51584,7.51584,0,0,0-4.01694.99168A18.48492,18.48492,0,0,0,9.886.62593C7.10506.166,4.87023.51814,3.23183,1.67509,1.24851,3.07637.32871,5.51245.50117,8.90427a41.4171,41.4171,0,0,0,1.60965,7.4735A25.44322,25.44322,0,0,0,3.84264,20.79,5.45,5.45,0,0,0,6.638,23.70035a2.74238,2.74238,0,0,0,2.71629-.58926,2.2243,2.2243,0,0,0,.57488.48865,3.889,3.889,0,0,0,1.07789.45272,5.80415,5.80415,0,0,0,3.77262-.22277c.00719.194.01437.38086.01437.54614.00719.2587.01437.5174.02156.76172a13.17941,13.17941,0,0,0,.503,3.77268,1.67843,1.67843,0,0,1,.06467.20121,4.57732,4.57732,0,0,0,1.13538,1.99772,3.3584,3.3584,0,0,0,2.38573.89107,5.28509,5.28509,0,0,0,1.11382-.12216,5.25855,5.25855,0,0,0,3.5283-2.04084c.927-1.32223,1.3797-3.30559,1.45875-6.43871.00719-.08623.02156-.17246.02874-.25151.00719-.05749.01437-.10779.02156-.16528l.21558.02156.05749.00719a8.61175,8.61175,0,0,0,3.61453-.62519C29.66893,22.04037,31.9828,20.81875,31.43667,19.17314Zm-2.88875,2.34265a7.22576,7.22576,0,0,1-2.33543.53177,5.22521,5.22521,0,0,1-1.818-.13653c-.16528,1.50189-.5102,4.29726-.71141,5.46859-.38085,2.19175-1.35814,3.19061-3.60735,3.67207a5.23422,5.23422,0,0,1-1.04915.12216,3.26613,3.26613,0,0,1-3.1187-2.40733,27.32959,27.32959,0,0,1-.43834-6.49619,4.483,4.483,0,0,1-4.28282.8767c-.14372-.03593-1.38689-.37368-1.37252-1.16414.01437-.733,1.05633-.94137,1.45156-1.0276,1.3797-.28026,1.46593-.39523,1.89709-.94137.08623-.10779.18684-.23714.309-.388a.12229.12229,0,0,0-.00719-.0503,3.9679,3.9679,0,0,1-1.77493-.47428c-.37367.39523-1.3797,1.48751-2.46478,2.78819a2.09533,2.09533,0,0,1-2.3498.91981c-1.40126-.46709-2.73066-2.73789-3.95227-6.74052A40.57791,40.57791,0,0,1,1.3563,8.81085c-.1509-3.06845.63955-5.24582,2.357-6.46026,3.0684-2.17737,8.03389-.51021,9.119-.1006a6.557,6.557,0,0,1,3.85885-1.06354,9.91421,9.91421,0,0,1,2.2492.28744A11.883,11.883,0,0,1,22.9357.84151,8.5572,8.5572,0,0,1,29.84858,4.068c1.09945,1.40128.37367,4.82184.01437,6.23031a30.122,30.122,0,0,1-3.85167,8.64482c.25869.18684,1.042.503,3.22649.0503.74015-.15091,1.17849-.02156,1.315.39523C30.82587,20.21512,29.35993,21.14212,28.54792,21.51579ZM13.98919,17.41974l.06467-.17965c.08623-.23.18684-.45272.29462-.68986.51739-1.14258,1.15694-2.56542.41679-5.986a1.36052,1.36052,0,0,0-1.04915-1.17133,3.74752,3.74752,0,0,0-2.08392.29463,4.99915,4.99915,0,0,0-1.25754.68268c0,.07186.00719.16528.01437.27307a19.39373,19.39373,0,0,1-.1006,3.8661,3.77277,3.77277,0,0,0,.99166,3.16186,3.16711,3.16711,0,0,0,2.28513,1.01323A11.88217,11.88217,0,0,1,13.98919,17.41974Zm-.60362-6.65429a.96818.96818,0,0,1-.51739-.28026.57813.57813,0,0,1-.194-.39523h0c.02874-.22277.43116-.28744.80483-.23714s.74015.22277.71141.44554a.76031.76031,0,0,1-.71141.46709A.40619.40619,0,0,1,13.38557,10.76545Zm11.68435-.23714a8.96408,8.96408,0,0,0,.13653-1.26475,7.80411,7.80411,0,0,0-.9198-.05749,2.18209,2.18209,0,0,0-1.8396.64674c-.93417,1.32942.89106,4.59908,1.66714,5.99317.20121.3593.34492.618.4096.77609a3.8617,3.8617,0,0,0,.23714.48865,5.93349,5.93349,0,0,0,.25869-3.41338,11.02311,11.02311,0,0,1-.115-1.68154A11.88668,11.88668,0,0,1,25.06992,10.52831Zm-.89106-.2587a.898.898,0,0,1-.51739.28026.4097.4097,0,0,1-.09342.00719.76884.76884,0,0,1-.71141-.46709c-.02874-.22277.33055-.39523.71141-.44554.37367-.0503.7689.01437.80483.23714h0A.5918.5918,0,0,1,24.17886,10.26962ZM15.4695,20.44507a.664.664,0,0,1-.05749.56051,3.53712,3.53712,0,0,1-4.00257,1.27912,1.94426,1.94426,0,0,1-.59643-.2587,2.74331,2.74331,0,0,1,.63955-.18684c1.624-.33056,1.86835-.5677,2.42166-1.26475.12216-.15809.26588-.33775.46709-.56051h0c.29462-.33056.424-.27307.66829-.17246A.9755.9755,0,0,1,15.4695,20.44507Zm-4.83614-2.14863a4.1497,4.1497,0,0,0,.31618.30182c-.43834.46709-1.39407,1.50907-2.40011,2.72351-.71859.86233-1.21443.697-1.37252.63956-1.06352-.35212-2.29232-2.59417-3.37739-6.15126A39.87092,39.87092,0,0,1,2.26891,8.76773C2.13238,6.02266,2.79349,4.11117,4.245,3.08356a5.90363,5.90363,0,0,1,3.43488-.927,14.88135,14.88135,0,0,1,4.3475.76172l-.06467.06467C9.41893,5.55556,9.46923,9.94624,9.47642,10.24087c0,.1006.00719.25151.02156.45991a18.02952,18.02952,0,0,1-.09342,3.68645A4.67677,4.67677,0,0,0,10.63336,18.29644Zm9.816-16.298a11.90549,11.90549,0,0,1,2.6085-.24433,7.55994,7.55994,0,0,1,6.09368,2.88161c1.11382,1.42284-.115,7.89747-3.66483,13.48822-.03593-.04312-.07186-.08623-.10779-.13653-.01437-.02156-.02874-.03593-.04312-.05749a6.27742,6.27742,0,0,0,.57488-4.34756,10.80951,10.80951,0,0,1-.115-1.545,10.80522,10.80522,0,0,1,.15091-1.37972,8.93784,8.93784,0,0,0,.14372-1.71028.80736.80736,0,0,0,.01437-.23714,9.54716,9.54716,0,0,0-2.18453-4.11042A9.73044,9.73044,0,0,0,20.44936,1.99847ZM24.919,18.857c-.5102.14372-1.41563.48147-1.33659,2.17019-.06467.85514-.53895,4.80747-.78327,6.20157-.31618,1.84682-.99885,2.53668-2.91031,2.94628a2.41449,2.41449,0,0,1-3.14744-1.74621c-.30181-.74735-.44553-4.11761-.33774-7.8328a.46335.46335,0,0,0-.02156-.14372,1.671,1.671,0,0,0-.05749-.2587,1.8218,1.8218,0,0,0-.98447-1.17851,1.41167,1.41167,0,0,0-.90543-.10779,11.67319,11.67319,0,0,1,.388-1.17133l.06467-.17965c.07186-.20121.17246-.4096.26588-.63237.53895-1.20007,1.2791-2.83849.47427-6.53931a2.33231,2.33231,0,0,0-2.81689-1.9043,6.28632,6.28632,0,0,0-2.15578.67549c-.08623.04312-.17246.08623-.24432.12935a9.408,9.408,0,0,1,2.19171-5.66261,5.38029,5.38029,0,0,1,4.08162-1.52344A8.68516,8.68516,0,0,1,23.295,5.25375a9.75138,9.75138,0,0,1,1.80367,3.09719c-1.66714-.16528-2.80252.16528-3.37739.98449-1.25754,1.78933.68266,5.27456,1.61684,6.94173.17246.309.31618.57488.36648.68268a6.23052,6.23052,0,0,0,.98448,1.58812C24.76811,18.65574,24.85435,18.76353,24.919,18.857Zm4.50559,1.02761a.02639.02639,0,0,0,.02156-.00719,5.1616,5.1616,0,0,1-1.27191.8264,6.549,6.549,0,0,1-2.20609.45991,2.68144,2.68144,0,0,1-1.48031-.194c-.0503-1.04916.33774-1.157.75452-1.27912.06467-.02156.12935-.03593.18684-.05749.03593.02874.079.06467.12216.09342C26.28435,20.21512,27.585,20.26542,29.42461,19.88456Z"/></svg>
