<svg xmlns="http://www.w3.org/2000/svg" viewBox="0 0 16 16"><path d="M16,8A8,8,0,1,1,5,.587V2.80927A5.92224,5.92224,0,0,0,2.0683,8.85809c.00818.05658.016.11279.02576.16882a5.95226,5.95226,0,0,0,.199.821l.00848.02319a5.9499,5.9499,0,0,0,.33118.79907l.02112.04388a6.01748,6.01748,0,0,0,2.632,2.632l.04388.02112a5.9499,5.9499,0,0,0,.79907.33118l.02319.00848a5.95226,5.95226,0,0,0,.821.199c.056.00977.11224.01758.16882.02576A5.95773,5.95773,0,0,0,13.9317,7.14191c-.00818-.05658-.016-.11279-.02576-.16882a5.95226,5.95226,0,0,0-.199-.821l-.00848-.02319a5.9499,5.9499,0,0,0-.33118-.79907l-.02112-.04388A6.00532,6.00532,0,0,0,11,2.829V.587A7.99842,7.99842,0,0,1,16,8ZM9,0H7V9H9Z"/></svg>
