<svg xmlns="http://www.w3.org/2000/svg" viewBox="0 0 16 16">
	<path d="M16 8A8 8 0 1 1 5 .587v2.222a5.922 5.922 0 0 0-2.932 6.05c.008.056.016.112.026.168a5.952 5.952 0 0 0 .2.82l.008.024a5.95 5.95 0 0 0 .33.8l.022.043a6.017 6.017 0 0 0 2.632 2.632l.044.021a5.95 5.95 0 0 0 .799.331l.023.009a5.952 5.952 0 0 0 .821.199c.056.01.112.017.169.026a5.958 5.958 0 0 0 6.79-6.79 4.578 4.578 0 0 0-.026-.169 5.952 5.952 0 0 0-.2-.82l-.008-.024a5.95 5.95 0 0 0-.33-.8l-.022-.043A6.005 6.005 0 0 0 11 2.829V.587A7.998 7.998 0 0 1 16 8zM9 0H7v9h2z"/>
</svg>
