<svg xmlns="http://www.w3.org/2000/svg" viewBox="0 0 16 16">
	<path d="M12.877 12.999l-.349-.349 1.682-1.68-.509-.508-.908.908-.279-.28.907-.908-.507-.509-.909.909-.279-.281.907-.908-.507-.509-1.682 1.682-.356-.355 1.683-1.681-.318-.318-3.218 3.263 4.51 4.509 3.24-3.24-1.428-1.427zM7.874 4.633l-.379-.378-1.681 1.682-.381-.381 1.682-1.681-.508-.509-.909.909-.28-.281.908-.907-.508-.509-.908.909-.28-.281.908-.908-.508-.508-1.682 1.681-.388-.389 1.681-1.681L3.255.015.016 3.256l4.639 4.64z" class="ti-projects-ruler"/>
	<path d="M10.595 3.733a.319.319 0 0 1 .456 0 .33.33 0 0 1 0 .462l-6.198 6.282a.32.32 0 0 1-.456 0 .331.331 0 0 1 0-.462l6.198-6.282zm-9.042 8.303l2.572 2.606 9.502-9.63-2.572-2.608-9.502 9.632zM15.556.884L15.127.45a1.502 1.502 0 0 0-2.143 0l-1.179 1.195c-.012.013-.02.027-.032.04l2.565 2.6c.012-.012.027-.02.04-.033l1.178-1.194c.592-.6.592-1.573 0-2.173zm-1.982 3.747a.292.292 0 0 0 .42 0 .303.303 0 0 0 0-.425L11.85 2.034a.293.293 0 0 0-.42 0 .304.304 0 0 0 0 .426l2.144 2.171zM0 16.001l3.718-1.157-2.38-2.412L0 16z" class="ti-projects-pen"/>
</svg>
