<svg xmlns="http://www.w3.org/2000/svg" viewBox="0 0 32 32">
  <g class= "ti-projects-ruler" fill-rule="evenodd" >
    <polygon fill-rule="nonzero" points="12.877 12.999 12.528 12.65 14.21 10.97 13.701 10.462 12.793 11.37 12.514 11.09 13.421 10.182 12.914 9.673 12.005 10.582 11.726 10.301 12.633 9.393 12.126 8.884 10.444 10.566 10.088 10.211 11.771 8.53 11.453 8.212 8.235 11.475 12.745 15.984 15.985 12.744 14.557 11.317"/>
    <polygon fill-rule="nonzero" points="7.874 4.633 7.495 4.255 5.814 5.937 5.433 5.556 7.115 3.875 6.607 3.366 5.698 4.275 5.418 3.994 6.326 3.087 5.818 2.578 4.91 3.487 4.63 3.206 5.538 2.298 5.03 1.79 3.348 3.471 2.96 3.082 4.641 1.401 3.255 .015 .016 3.256 4.655 7.896"/>
  </g>
    <g class= "ti-projects-pen" fill-rule="evenodd" >
      <path fill-rule="nonzero" d="M10.5952,3.7334 C10.7212,3.6054 10.9252,3.6054 11.0512,3.7334 C11.1772,3.8614 11.1772,4.0674 11.0512,4.1954 L4.8532,10.4774 C4.7272,10.6044 4.5232,10.6044 4.3972,10.4774 C4.2722,10.3494 4.2722,10.1434 4.3972,10.0154 L10.5952,3.7334 Z M1.5532,12.0364 L4.1252,14.6424 L13.6272,5.0114 L11.0552,2.4044 L1.5532,12.0364 Z M15.5562,0.8844 L15.1272,0.4494 C14.5352,-0.1496 13.5762,-0.1496 12.9842,0.4494 L11.8052,1.6444 C11.7932,1.6574 11.7852,1.6714 11.7732,1.6844 L14.3382,4.2844 C14.3502,4.2724 14.3652,4.2634 14.3772,4.2514 L15.5562,3.0574 C16.1482,2.4574 16.1482,1.4844 15.5562,0.8844 L15.5562,0.8844 Z M13.5742,4.6314 C13.6892,4.7494 13.8772,4.7494 13.9932,4.6314 C14.1092,4.5134 14.1092,4.3244 13.9932,4.2064 L11.8502,2.0344 C11.7342,1.9164 11.5462,1.9164 11.4302,2.0344 C11.3142,2.1514 11.3142,2.3414 11.4302,2.4604 L13.5742,4.6314 Z M0.0002,16.0004 L3.7182,14.8444 L1.3382,12.4324 L0.0002,16.0004 Z"/>
    </g>
</svg>
