<svg xmlns="http://www.w3.org/2000/svg" viewBox="0 0 300 300"><path class="cls-1" d="M296.59,140,232,28.1a20,20,0,0,0-17.32-10H85.36A20,20,0,0,0,68,28.1L3.41,140a20,20,0,0,0,0,20L68,272a20,20,0,0,0,17.32,10H214.64A20,20,0,0,0,232,272l64.64-112A20,20,0,0,0,296.59,140ZM189.15,114.87a12.67,12.67,0,1,1,4.64,17.3A12.67,12.67,0,0,1,189.15,114.87ZM150,76a16,16,0,0,1,6,30.83V124.7a25.93,25.93,0,0,0-12,0V106.83A16,16,0,0,1,150,76Zm-50,32.33A12.67,12.67,0,1,1,87.33,121,12.67,12.67,0,0,1,100,108.33Zm7.77,84.52a16,16,0,1,1,1.84-26.47l15.48-8.94a26,26,0,0,0,6,10.39l-15.49,8.94A16,16,0,0,1,107.77,192.85Zm48.45,25.92a12.67,12.67,0,1,1,4.64-17.3A12.67,12.67,0,0,1,156.21,218.77ZM150,170.5A20.5,20.5,0,1,1,170.5,150,20.5,20.5,0,0,1,150,170.5ZM214.08,187a16,16,0,0,1-29.7-10.22l-15.49-8.94a26,26,0,0,0,6-10.39l15.48,8.94A16,16,0,0,1,214.08,187Z"/></svg>