<svg xmlns="http://www.w3.org/2000/svg" viewBox="0 0 300 300">
	<path class="ti-googlecloudplatform" d="M296.59 140L232 28.1a20 20 0 0 0-17.32-10H85.36A20 20 0 0 0 68 28.1L3.41 140a20 20 0 0 0 0 20L68 272a20 20 0 0 0 17.32 10h129.32A20 20 0 0 0 232 272l64.64-112a20 20 0 0 0-.05-20zm-107.44-25.13a12.67 12.67 0 1 1 4.64 17.3 12.67 12.67 0 0 1-4.64-17.3zM150 76a16 16 0 0 1 6 30.83v17.87a25.93 25.93 0 0 0-12 0v-17.87A16 16 0 0 1 150 76zm-50 32.33A12.67 12.67 0 1 1 87.33 121 12.67 12.67 0 0 1 100 108.33zm7.77 84.52a16 16 0 1 1 1.84-26.47l15.48-8.94a26 26 0 0 0 6 10.39l-15.49 8.94a16 16 0 0 1-7.83 16.08zm48.45 25.92a12.67 12.67 0 1 1 4.64-17.3 12.67 12.67 0 0 1-4.65 17.3zM150 170.5a20.5 20.5 0 1 1 20.5-20.5 20.5 20.5 0 0 1-20.5 20.5zm64.08 16.5a16 16 0 0 1-29.7-10.22l-15.49-8.94a26 26 0 0 0 6-10.39l15.48 8.94A16 16 0 0 1 214.08 187z"/>
</svg>
