<svg xmlns="http://www.w3.org/2000/svg" viewBox="0 0 32 32"><path d="M15.889.00026c-7.71682,0-7.23477,3.54127-7.23477,3.54127l.00863,3.66872h7.36364V8.31177H5.73775S.8,7.71915.8,15.95855c0,8.23969,4.31006,7.94727,4.31006,7.94727H7.68222V20.08244s-.13864-4.56084,4.24124-4.56084h7.30359a3.99123,3.99123,0,0,0,4.10326-4.19672V4.26954S23.95333,0,15.88912,0Zm-4.0603,2.467a1.36372,1.36372,0,0,1,1.3248,1.402,1.32693,1.32693,0,1,1-2.64961,0A1.36372,1.36372,0,0,1,11.82866,2.46731ZM16.111,31.99974c7.71682,0,7.23476-3.54127,7.23476-3.54127l-.00862-3.66872H15.97354V23.68823H26.26225S31.2,24.28085,31.2,16.04145c0-8.23969-4.31006-7.94727-4.31006-7.94727H24.31778v3.82338s.13864,4.56084-4.24124,4.56084H12.773a3.99122,3.99122,0,0,0-4.10325,4.19672v7.05534S8.04668,32,16.11092,32Zm4.06029-2.467a1.4042,1.4042,0,1,1,1.32479-1.402A1.36371,1.36371,0,0,1,20.17134,29.53269Z"/></svg>
