<svg xmlns="http://www.w3.org/2000/svg" viewBox="0 0 16 16">
	<path d="M13.64 2.366A7.69 7.69 0 0 0 7.98 0a7.69 7.69 0 0 0-5.658 2.366A7.549 7.549 0 0 0 0 8a7.69 7.69 0 0 0 2.323 5.671A7.8 7.8 0 0 0 7.981 16a7.8 7.8 0 0 0 5.658-2.329A7.725 7.725 0 0 0 16 8a7.582 7.582 0 0 0-2.36-5.634zM9 14H7v-2h2zm2.108-6.75a3.727 3.727 0 0 1-.46.797 6.536 6.536 0 0 1-.582.67 7.383 7.383 0 0 0-.567.642 2.903 2.903 0 0 0-.413.726 1.998 1.998 0 0 0-.107.915H7.017a2.594 2.594 0 0 1 .039-1.08 3.312 3.312 0 0 1 .359-.859 3.802 3.802 0 0 1 .529-.688c.2-.205.385-.405.56-.599a4.376 4.376 0 0 0 .443-.579 1.162 1.162 0 0 0 .185-.634 1.08 1.08 0 0 0-.323-.86 1.19 1.19 0 0 0-.812-.28 1.524 1.524 0 0 0-.843.235 4.045 4.045 0 0 0-.72.597L5.179 4.896a4.633 4.633 0 0 1 1.303-1.178 3.167 3.167 0 0 1 1.67-.453 4.123 4.123 0 0 1 1.233.18 2.727 2.727 0 0 1 .996.553 2.66 2.66 0 0 1 .667.924 3.197 3.197 0 0 1 .245 1.296 2.648 2.648 0 0 1-.184 1.032z"/>
</svg>
