<svg xmlns="http://www.w3.org/2000/svg" viewBox="0 0 16 16">
	<path d="M7.844 3.624c-.958 0-1.778.48-2.371 1.185l1.186 1.085c.328-.303.605-.53 1.034-.53.379 0 .707.176.707.631 0 .808-1.791 1.513-1.54 3.153h1.892c-.126-1.387 1.716-1.792 1.716-3.304 0-1.59-1.161-2.22-2.624-2.22m-.05 6.129c-.732 0-1.262.58-1.262 1.312 0 .73.53 1.31 1.261 1.31.732 0 1.261-.58 1.261-1.31 0-.732-.529-1.312-1.26-1.312"/>
	<path d="M8 14.624A6.633 6.633 0 0 1 1.375 8 6.633 6.633 0 0 1 8 1.377 6.632 6.632 0 0 1 14.625 8 6.633 6.633 0 0 1 8 14.625M8 0a8 8 0 1 0 0 16A8 8 0 0 0 8 0"/>
</svg>
