<svg xmlns="http://www.w3.org/2000/svg" viewBox="0 0 16 16">
  <g>
    <path fill="#266092" fill-rule="nonzero" d="M1.08766994,9.67919121 C0.628193761,6.68547287 2.00158911,3.70672854 4.57831176,2.10837084 C6.88958838,0.687637036 9.79047964,0.628801826 12.1576424,1.9546486 C14.9069757,3.53046227 16.398275,6.63572761 15.9074067,9.76261365 C15.401451,12.7316609 13.164363,15.1098475 10.2280801,15.8001493 C7.29179724,16.4904511 4.22687677,15.3587336 2.44712378,12.9270422 C1.74036472,11.9685298 1.27417491,10.8547626 1.08766994,9.67919121 Z M4.91817522,9.49641172 C4.95429347,9.87322431 5.1863971,10.2032421 5.5291331,10.3651056 C5.87186911,10.526969 6.27463804,10.4967816 6.58932703,10.2856442 C6.9122912,10.353132 7.51878787,10.4646744 7.34979499,10.9830183 C7.6472243,11.4870932 7.72395051,12.0910975 7.56197494,12.6533416 C7.85583478,13.2344867 7.50094973,14.2814851 8.20790328,14.5504991 C9.0228245,14.5570604 9.26880302,13.6834681 9.68940753,13.1688736 C9.50445421,12.529614 10.6310734,12.3121533 10.1184617,11.5941579 C9.94383569,10.8752252 10.7550015,10.4431158 11.0422894,9.87228135 C11.2197319,9.5292183 11.3023507,9.29301095 10.8751742,9.52546897 C10.2236128,9.55358889 9.8011306,8.89370805 9.56454056,8.36505352 C10.0170659,7.50083458 10.2940265,9.07742488 10.6629943,9.28363764 C11.3990522,9.19552855 11.742671,8.50940245 12.0224481,8.00418118 C12.4759123,7.95356532 12.7200132,8.46441058 13.1396788,8.43722798 C13.4757869,8.73811115 13.250463,9.98569836 13.7940568,9.757927 C13.7320927,9.15522333 14.2409491,8.27694443 14.8080141,8.36880284 C14.7760932,9.03430767 15.2614783,8.6968686 15.1272229,8.22257925 C15.0230475,6.17554525 13.9251502,4.3079755 12.1858079,3.21910776 C11.6694408,3.20785979 11.3821529,2.94446986 11.1793614,3.11600138 C11.1202139,3.51624161 11.019757,3.76557158 10.5174726,3.66715186 C9.98045082,3.47593639 9.54764128,4.37014991 9.12797562,4.02333754 C9.29978505,3.85930466 9.50257651,3.17973987 8.88856905,3.2416037 C8.16283851,3.24347836 7.19676255,3.14318397 6.78085229,3.8789886 C6.67476232,4.30359943 7.40988135,4.55386674 7.54695335,4.71040097 C7.91685999,4.00177893 8.95147195,4.88849381 7.97506864,4.93254835 C7.26800843,4.93195237 6.57584377,5.13539239 5.98189151,5.51838006 C6.50952484,5.83707252 5.98470806,6.03953596 5.66643814,6.05359592 C5.58288055,6.28605394 5.5725532,6.86626167 5.84857491,6.77065393 C6.421273,6.89813091 6.94045668,5.53618935 7.50094973,6.27761796 C7.65398217,6.59349842 8.15438887,6.74628333 7.84269089,6.23543808 C7.60610086,5.99548141 7.46433461,5.53712668 7.8962053,5.94299089 C8.02201111,6.12951971 8.69610493,7.10528101 8.56560487,6.42946554 C8.66136751,5.94392822 8.92048992,6.9496841 9.28758001,6.80814716 C10.0799688,7.14746089 9.19651163,7.84577229 8.65291786,7.56363574 C8.21729177,7.61612626 8.00792837,8.11197422 7.59859006,7.60394096 C7.34697844,7.45115605 7.59107927,6.95062143 7.05405745,7.15777153 C6.29452834,7.2027634 5.53969348,7.30118313 5.18386958,8.08666629 C4.79143056,8.46159858 5.02708174,9.02399703 4.91817522,9.49547439 L4.91817522,9.49641172 Z M5.76877271,5.03378007 C6.04103902,5.59430385 7.16296397,4.88755648 6.51046369,4.33078202 C6.06826565,3.77681955 5.5763086,4.24642225 6.04291672,4.73008491 C6.04103902,4.89880445 5.88519003,4.95504429 5.76971156,5.03378007 L5.76877271,5.03378007 Z"/>
    <rect width="12" height="5" fill="#F68500"/>
    <path fill="#FFF" fill-rule="nonzero" d="M1.67617295,2.38461538 L2.02575897,2.38461538 C2.20361941,2.38461538 2.33931263,2.34837314 2.43284269,2.27588757 C2.52637275,2.203402 2.57313707,2.09615456 2.57313707,1.95414201 C2.57313707,1.81212947 2.52637275,1.71301803 2.43284269,1.65680473 C2.33931263,1.60059143 2.20361941,1.57248521 2.02575897,1.57248521 L1.67617295,1.57248521 L1.67617295,2.38461538 Z M2.62373505,3.94674556 L2.04875805,2.90384615 L1.67617295,2.90384615 L1.67617295,3.94674556 L1,3.94674556 L1,1.05325444 L2.08095676,1.05325444 C2.24041785,1.05325444 2.38991037,1.06804719 2.52943882,1.09763314 C2.66896727,1.12721908 2.79086118,1.1767748 2.8951242,1.24630178 C2.99938721,1.31582875 3.08218307,1.40828345 3.14351426,1.52366864 C3.20484545,1.63905383 3.23551058,1.78254352 3.23551058,1.95414201 C3.23551058,2.16716083 3.18721299,2.34245493 3.09061638,2.48002959 C2.99401976,2.61760424 2.86445957,2.72041386 2.70193192,2.78846154 L3.38270469,3.94674556 L2.62373505,3.94674556 Z M3.83348666,1.05325444 L5.71021159,1.05325444 L5.71021159,1.6035503 L4.50965961,1.6035503 L4.50965961,2.18491124 L5.53081877,2.18491124 L5.53081877,2.73076923 L4.50965961,2.73076923 L4.50965961,3.3964497 L5.75620975,3.3964497 L5.75620975,3.94674556 L3.83348666,3.94674556 L3.83348666,1.05325444 Z M6.5473781,3.13461538 C6.65470768,3.22337322 6.77353507,3.29585771 6.90386385,3.35207101 C7.03419262,3.4082843 7.16221955,3.43639053 7.28794848,3.43639053 C7.42901021,3.43639053 7.53403829,3.41124286 7.60303588,3.36094675 C7.67203346,3.31065064 7.70653174,3.24260398 7.70653174,3.15680473 C7.70653174,3.11242581 7.69656557,3.07396466 7.67663293,3.04142012 C7.6567003,3.00887558 7.62756842,2.98002971 7.58923643,2.95488166 C7.55090444,2.9297336 7.50490674,2.9060652 7.45124195,2.88387574 L7.27414903,2.81065089 L6.88316467,2.65088757 C6.80650069,2.62130163 6.73213774,2.58284047 6.6600736,2.53550296 C6.58800945,2.48816544 6.52361267,2.43269263 6.46688132,2.36908284 C6.41014998,2.30547305 6.36491891,2.2315093 6.33118675,2.14718935 C6.2974546,2.0628694 6.28058878,1.96745615 6.28058878,1.86094675 C6.28058878,1.74260296 6.30665414,1.63091768 6.35878565,1.52588757 C6.41091716,1.42085746 6.48451348,1.3291424 6.57957682,1.25073964 C6.67464016,1.17233689 6.78733452,1.11094697 6.91766329,1.06656805 C7.04799207,1.02218913 7.19135156,1 7.34774609,1 C7.52253997,1 7.69503135,1.03254405 7.86522539,1.09763314 C8.03541943,1.16272222 8.18491196,1.25739583 8.31370745,1.3816568 L7.96872125,1.7943787 C7.87059135,1.72041383 7.77246293,1.66346174 7.67433303,1.62352071 C7.57620313,1.58357968 7.4673419,1.56360947 7.34774609,1.56360947 C7.23121684,1.56360947 7.13845481,1.58653823 7.06945722,1.63239645 C7.00045964,1.67825467 6.96596136,1.74260314 6.96596136,1.82544379 C6.96596136,1.86982271 6.97746079,1.90754422 7.00045998,1.93860947 C7.02345918,1.96967471 7.05565757,1.99778094 7.09705612,2.02292899 C7.13845467,2.04807705 7.18675225,2.07174545 7.24195032,2.09393491 C7.29714839,2.11612437 7.3569454,2.14053241 7.42134315,2.16715976 L7.80772769,2.31804734 C7.99172125,2.38905361 8.13661401,2.48668577 8.2424103,2.61094675 C8.3482066,2.73520772 8.40110396,2.89940726 8.40110396,3.1035503 C8.40110396,3.22485268 8.37580522,3.3394965 8.32520699,3.44748521 C8.27460876,3.55547391 8.20101244,3.65014752 8.10441582,3.73150888 C8.0078192,3.81287023 7.88899181,3.87795834 7.74793008,3.92677515 C7.60686835,3.97559196 7.44740966,4 7.26954922,4 C7.07328942,4 6.8777992,3.96523703 6.68307268,3.89571006 C6.48834616,3.82618308 6.31432153,3.72189419 6.16099356,3.58284024 L6.5473781,3.13461538 Z M9.49586017,1.6035503 L8.6724931,1.6035503 L8.6724931,1.05325444 L11,1.05325444 L11,1.6035503 L10.1766329,1.6035503 L10.1766329,3.94674556 L9.49586017,3.94674556 L9.49586017,1.6035503 Z"/>
  </g>
</svg>
