<svg xmlns="http://www.w3.org/2000/svg" viewBox="0 0 16 16">
    <path d="M5.6269,8.312 C5.6269,8.312 3.2259,10.822 2.7029,11.365 C2.1799,11.906 0.9699,13.067 2.0339,14.131 C2.9849,15.083 4.1519,13.895 4.8049,13.219 C5.4589,12.542 9.5179,8.32 9.5179,8.32 L5.6269,8.312 Z"/>
    <path d="M5.6703,13.3633 L5.4953,13.5463 C4.8283,14.2463 3.9123,15.2023 2.9333,15.2023 C2.4743,15.2023 2.0223,15.0023 1.5513,14.5863 C1.0883,14.1783 0.8523,13.7543 0.8343,13.2913 C0.7953,12.3003 1.7693,11.3043 2.3523,10.7073 L2.4923,10.5633 C3.2283,9.8013 8.8643,3.9563 10.3053,2.4633 L13.4833,5.2613 L5.6703,13.3633 Z M16.0003,5.2073 L10.0873,0.0003 L8.9013,1.2273 L9.6923,1.9233 C8.2503,3.4183 2.6143,9.2613 1.8793,10.0253 L1.7433,10.1653 C1.0723,10.8513 -0.0517,11.9983 0.0023,13.3223 C0.0283,13.9973 0.3593,14.6213 0.9863,15.1743 C1.6093,15.7213 2.2643,16.0003 2.9333,16.0003 C4.2803,16.0003 5.3383,14.8913 6.1113,14.0823 L14.0953,5.8013 L14.8153,6.4363 L16.0003,5.2073 Z"/>
</svg>
