<svg xmlns="http://www.w3.org/2000/svg" viewBox="0 0 16 16">
<path d="M4.3,0L4.3,0C4.3,0,4.3,0,4.3,0L4.3,0L4.3,0c-1,0.4-1.7,1-2,1.8v11.8l9.4,2.4V4.2L3,2C3.3,1.5,4,0.9,4.3,0.9L13,3v10.9l0.8,0.2V2.4L4.3,0z M7.6,11.3l1.9-2.2L7.9,8.7V8.2l2.4,0.6v0.3l-1.9,2.2l1.9,0.5v0.5l-2.7-0.6V11.3z M5.1,6.2l0.7,0.2l1.6,5.2l-0.7-0.2L6.3,9.9L4.5,9.4l-0.5,1.4l-0.6-0.1L5.1,6.2z"/>
<path d="M5.9,8.6C5.8,8.3,5.7,8,5.7,7.7C5.6,7.4,5.5,7.1,5.4,6.8l0,0C5.3,7.1,5.2,7.3,5.2,7.6C5.1,7.8,5,8.1,4.9,8.3L4.7,9l1.4,0.4L5.9,8.6z"/>
</svg>
