<svg xmlns="http://www.w3.org/2000/svg" viewBox="0 0 16 16">
	<path d="M14.357 10.589a2.96 2.96 0 0 0-4.18-.201L6.075 8.266c.006-.082.024-.158.024-.242 0-.083-.018-.16-.024-.241L9.19 6.171a3.8 3.8 0 0 0 2.99 1.469 3.82 3.82 0 1 0-3.82-3.82c0 .047.013.091.015.137L5.057 5.672a2.964 2.964 0 0 0-4.034 0 3.219 3.219 0 0 0-.162 4.546 2.97 2.97 0 0 0 4.196.158L9.162 12.5c-.007.08-.025.157-.025.24a3.197 3.197 0 0 0 .743 2.067 2.958 2.958 0 0 0 4.272.308 3.209 3.209 0 0 0 .298-4.419c-.031-.036-.061-.072-.093-.107" class="tsharing-owner-icon-color"/>
	<path d="M15.236 3.82a3.056 3.056 0 1 1-6.112 0 3.056 3.056 0 0 1 6.112 0" class="tsharing-owner-chip-brand-primary" fill="#5DA288"/>
</svg>
