<svg xmlns="http://www.w3.org/2000/svg" viewBox="0 0 16 16">
	<path d="M14.357 10.705a2.96 2.96 0 0 0-4.18-.2L6.075 8.381c.006-.082.024-.158.024-.242 0-.083-.018-.16-.024-.24L9.19 6.286a3.8 3.8 0 0 0 2.99 1.47 3.82 3.82 0 1 0-3.82-3.82c0 .046.013.09.015.136L5.057 5.788a2.964 2.964 0 0 0-4.034 0 3.219 3.219 0 0 0-.162 4.546 2.97 2.97 0 0 0 4.196.158l4.105 2.124c-.007.08-.025.157-.025.24a3.197 3.197 0 0 0 .743 2.067 2.958 2.958 0 0 0 4.272.308 3.209 3.209 0 0 0 .205-4.526"/>
	<path fill="#66BDFF" d="M15.236 3.936a3.056 3.056 0 1 1-6.112 0 3.056 3.056 0 0 1 6.112 0"/>
</svg>
