<svg xmlns="http://www.w3.org/2000/svg" viewBox="0 0 16 16">
	<path d="M15.079 10.488a2.95 2.95 0 0 0-4.169-.2L7.559 8.555c.035-.207.064-.417.064-.634a3.83 3.83 0 0 0-.062-.62L10.91 5.57c.56.514 1.294.796 2.055.79a3.065 3.065 0 1 0-3.094-3.137c0 .083.019.16.024.242L6.5 5.22a3.811 3.811 0 1 0-2.689 6.513 3.795 3.795 0 0 0 2.677-1.102l3.407 1.763c-.005.08-.024.157-.024.24a3.19 3.19 0 0 0 .834 2.17 2.953 2.953 0 0 0 4.17.2 3.201 3.201 0 0 0 .204-4.516"/>
	<path class="ti-sharing-owner-circle" d="M6.86 7.92a3.049 3.049 0 1 1-6.097 0 3.049 3.049 0 0 1 6.098 0"/>
</svg>
