<svg xmlns="http://www.w3.org/2000/svg" viewBox="0 0 16 16">
	<g>
		<path d="M3.71128933,10.827673 C2.21098088,10.827673 0.987045034,9.57987421 0.987045034,8.05031447 C0.987045034,6.51069182 2.21098088,5.26289308 3.71128933,5.26289308 C4.40222085,5.26289308 5.03392967,5.5245283 5.50771129,5.9572327 C6.00123381,6.41006289 6.33682912,7.03396226 6.42566317,7.73836478 C6.42566317,7.82893082 6.43553362,7.91949686 6.43553362,8.02012579 L6.43553362,8.05031447 C6.43553362,8.77484277 6.15916101,9.42893082 5.71499075,9.92201258 C5.22146823,10.4754717 4.50092535,10.827673 3.71128933,10.827673 M12.7822332,9.43899371 C11.9333745,9.43899371 11.1733498,9.78113208 10.6008637,10.3144654 L7.38309685,8.54339623 C7.4127082,8.38238994 7.42257866,8.22138365 7.42257866,8.05031447 C7.42257866,7.77861635 7.3929673,7.50691824 7.3337446,7.24528302 L10.4429365,5.53459119 C11.0351635,6.16855346 11.8544109,6.57106918 12.7822332,6.57106918 C14.5589143,6.57106918 16,5.10188679 16,3.28050314 C16,1.46918239 14.5589143,0 12.7822332,0 C11.0055521,0 9.55459593,1.46918239 9.55459593,3.28050314 C9.55459593,3.43144654 9.58420728,3.57232704 9.60394818,3.71320755 L6.41579272,5.46415094 C5.73473165,4.71949686 4.77729796,4.25660377 3.71128933,4.25660377 C1.65823566,4.25660377 0,5.9572327 0,8.05031447 C0,10.1333333 1.65823566,11.8339623 3.71128933,11.8339623 C4.88587292,11.8339623 5.93214065,11.2704403 6.61320173,10.4050314 L9.62368908,12.0654088 C9.58420728,12.2767296 9.55459593,12.4981132 9.55459593,12.7194969 C9.55459593,14.5308176 11.0055521,16 12.7822332,16 C14.5589143,16 16,14.5308176 16,12.7194969 C16,10.9081761 14.5589143,9.43899371 12.7822332,9.43899371"/>
	</g>
</svg>
