<svg xmlns="http://www.w3.org/2000/svg" viewBox="0 0 16 16">
  <path d="M10.2666,9.9577 C9.3266,10.6617 8.4906,10.8727 7.7676,10.8747 C7.0456,10.8747 6.4266,10.6507 5.9856,10.4227 C5.7666,10.3087 5.5936,10.1947 5.4776,10.1117 C5.4206,10.0697 5.3776,10.0367 5.3506,10.0157 C5.3376,10.0037 5.3286,9.9957 5.3226,9.9917 L5.3196,9.9887 C5.0856,9.7797 4.7276,9.7987 4.5176,10.0317 C4.3096,10.2647 4.3286,10.6237 4.5616,10.8327 L4.5616,10.8327 C4.6126,10.8697 5.8486,11.9977 7.7676,12.0087 L7.7786,12.0087 C8.7326,12.0087 9.8366,11.7027 10.9486,10.8637 C11.1996,10.6757 11.2486,10.3207 11.0596,10.0697 C10.8726,9.8197 10.5166,9.7697 10.2666,9.9577 M10.3906,5.3367 C9.7276,5.3367 9.1906,5.8737 9.1906,6.5367 C9.1906,7.1987 9.7276,7.7367 10.3906,7.7367 C11.0536,7.7367 11.5906,7.1987 11.5906,6.5367 C11.5906,5.8737 11.0536,5.3367 10.3906,5.3367 M6.6476,6.5367 C6.6476,5.8737 6.1106,5.3367 5.4476,5.3367 C4.7846,5.3367 4.2476,5.8737 4.2476,6.5367 C4.2476,7.1987 4.7846,7.7367 5.4476,7.7367 C6.1106,7.7367 6.6476,7.1987 6.6476,6.5367 M12.8556,12.8547 C11.6106,14.0987 9.8976,14.8657 7.9996,14.8657 C6.1016,14.8657 4.3896,14.0987 3.1446,12.8547 C1.9006,11.6107 1.1336,9.8977 1.1336,7.9997 C1.1336,6.1027 1.9006,4.3897 3.1446,3.1447 C4.3896,1.9007 6.1016,1.1337 7.9996,1.1337 C9.8976,1.1337 11.6106,1.9007 12.8556,3.1447 C14.0986,4.3897 14.8656,6.1027 14.8656,7.9997 C14.8656,9.8977 14.0986,11.6107 12.8556,12.8547 M7.9996,-0.0003 C3.5806,-0.0003 -0.0004,3.5817 -0.0004,7.9997 C-0.0004,12.4177 3.5806,15.9997 7.9996,15.9997 C12.4186,15.9997 15.9996,12.4177 15.9996,7.9997 C15.9996,3.5817 12.4186,-0.0003 7.9996,-0.0003"/>
</svg>
