<svg xmlns="http://www.w3.org/2000/svg" viewBox="0 0 16 16">
  <g>
    <path d="M15.229,6.0451 L14.221,6.0451 C14.37,6.5991 14.457,7.1781 14.457,7.7791 C14.457,9.6251 13.711,11.2911 12.502,12.5011 C11.291,13.7111 9.625,14.4561 7.78,14.4561 C5.934,14.4561 4.269,13.7111 3.059,12.5011 C1.849,11.2911 1.103,9.6251 1.103,7.7791 C1.103,5.9351 1.849,4.2691 3.059,3.0591 C4.269,1.8491 5.934,1.1031 7.78,1.1031 C7.978,1.1031 8.173,1.1151 8.367,1.1321 C8.526,0.7811 8.867,0.5391 9.266,0.5391 L10.61,0.5391 C9.732,0.1951 8.779,0.0001 7.78,0.0001 C3.482,0.0001 0,3.4831 0,7.7791 C0,12.0761 3.482,15.5591 7.78,15.5591 C12.077,15.5591 15.56,12.0761 15.56,7.7791 C15.56,7.1751 15.483,6.5891 15.353,6.0241 C15.311,6.0291 15.272,6.0451 15.229,6.0451"/>
    <path d="M10.6743 7.9348C11.0483 7.9348 11.3503 7.6318 11.3503 7.2578 11.3503 6.8848 11.0483 6.5818 10.6743 6.5818L9.6843 6.5818C9.3103 6.5818 9.0073 6.8848 9.0073 7.2578 9.0073 7.6318 9.3103 7.9348 9.6843 7.9348L10.6743 7.9348zM4.8623 6.5822C4.4883 6.5822 4.1853 6.8852 4.1853 7.2582 4.1853 7.6322 4.4883 7.9352 4.8623 7.9352L5.8523 7.9352C6.2263 7.9352 6.5293 7.6322 6.5293 7.2582 6.5293 6.8852 6.2263 6.5822 5.8523 6.5822L4.8623 6.5822zM8.519 9.9094C7.915 9.6364 7.204 9.9044 6.931 10.5064 6.78 10.8384 6.805 11.1944 6.946 11.5004 6.946 11.5004 9.124 11.5024 9.116 11.4984 9.39 10.8944 9.123 10.1834 8.519 9.9094"/>
    <polygon points="9.098 2.408 9.098 2.408 9.098 2.409 10.247 2.409 8.565 4.415 8.438 5.045 11.041 5.045 11.173 5.045 11.342 4.175 11.177 4.175 10.01 4.175 11.131 2.847 11.692 2.184 11.815 1.554 11.818 1.539 11.815 1.539 9.266 1.539"/>
    <polygon points="12.971 .486 12.791 1.413 12.788 1.427 12.792 1.427 14.472 1.427 12.319 4.168 12.158 4.372 12.017 5.045 12.193 5.045 15.229 5.045 15.426 4.104 13.575 4.104 15.861 1.161 15.93 .824 16 .486"/>
  </g>
</svg>
