<svg xmlns="http://www.w3.org/2000/svg" viewBox="0 0 16 16">
	<path d="M9 6l3-4H9V0h6v2l-3 4h3v2H9zm.007 7.993a2.134 2.134 0 0 1 .216-.984 1.835 1.835 0 0 1 .69-.715 4.196 4.196 0 0 1 1.218-.476 10.656 10.656 0 0 1 1.8-.247 1.017 1.017 0 0 0-.355-.71 1.406 1.406 0 0 0-.918-.254 2.434 2.434 0 0 0-.869.167 7.407 7.407 0 0 0-.942.45l-.624-1.286a6.7 6.7 0 0 1 1.314-.643 4.294 4.294 0 0 1 1.47-.253 2.625 2.625 0 0 1 1.968.736 3.118 3.118 0 0 1 .72 2.26v3.802h-1.44l-.132-.75h-.049a4.604 4.604 0 0 1-.995.65 2.534 2.534 0 0 1-1.116.26 2.062 2.062 0 0 1-.817-.154 1.747 1.747 0 0 1-.61-.428 1.97 1.97 0 0 1-.391-.636 2.196 2.196 0 0 1-.138-.79zm1.692-.147a.538.538 0 0 0 .222.475 1.043 1.043 0 0 0 .606.154 1.602 1.602 0 0 0 .744-.18 3.491 3.491 0 0 0 .66-.45v-1.097a7.523 7.523 0 0 0-1.092.134 2.56 2.56 0 0 0-.685.234.871.871 0 0 0-.353.328.825.825 0 0 0-.102.402zM6 12H4V0H2v12H0l3 4z"/>
</svg>
