<svg xmlns="http://www.w3.org/2000/svg" viewBox="0 0 16 16">
	<path d="M3 16l-3-4h2V0h2v12h2zM13 0h-2v1H9v2h2v3H9v2h6V6h-2zm1.182 12.903a4.15 4.15 0 0 1-.207 1.387 2.82 2.82 0 0 1-.549.963 2.17 2.17 0 0 1-.788.562 2.365 2.365 0 0 1-.913.185 2.595 2.595 0 0 1-1.071-.207 2.902 2.902 0 0 1-.756-.478l.702-.792a1.7 1.7 0 0 0 .45.284 1.35 1.35 0 0 0 1.058.027 1.09 1.09 0 0 0 .423-.306 1.642 1.642 0 0 0 .302-.558 3.072 3.072 0 0 0 .134-.85 2.463 2.463 0 0 1-.688.463 1.701 1.701 0 0 1-.689.167 2.204 2.204 0 0 1-.702-.108 1.563 1.563 0 0 1-.562-.325 1.479 1.479 0 0 1-.373-.548 2.077 2.077 0 0 1-.135-.784 1.833 1.833 0 0 1 .615-1.403 1.957 1.957 0 0 1 .653-.383 2.332 2.332 0 0 1 .783-.13 2.376 2.376 0 0 1 .86.161 2.031 2.031 0 0 1 .742.504 2.487 2.487 0 0 1 .518.878 3.812 3.812 0 0 1 .193 1.291zM13 12a1 1 0 1 0-1 1 1 1 0 0 0 1-1z"/>
</svg>
