<svg xmlns="http://www.w3.org/2000/svg" viewBox="0 0 16 16"><path d="M3,16,0,12H2V0H4V12H6Zm10-6H12v1H11v1h1v3H11v1h3V15H13Zm2-6.17649a5.50057,5.50057,0,0,1-.28463,1.87027,3.7865,3.7865,0,0,1-.75453,1.29865,2.984,2.984,0,0,1-1.08346.75864A3.306,3.306,0,0,1,11.62206,8a3.62743,3.62743,0,0,1-1.47281-.27922,4.0011,4.0011,0,0,1-1.03916-.64406l.96532-1.06816a2.34306,2.34306,0,0,0,.61893.382,1.88854,1.88854,0,0,0,1.454.03688,1.49707,1.49707,0,0,0,.58134-.41225,2.20229,2.20229,0,0,0,.41486-.75338,4.07173,4.07173,0,0,0,.18528-1.14718,3.39138,3.39138,0,0,1-.94652.62562,2.37582,2.37582,0,0,1-.94652.22522,3.08432,3.08432,0,0,1-.96532-.1462A2.15845,2.15845,0,0,1,9.69814,4.382a1.99363,1.99363,0,0,1-.51287-.7402A2.75363,2.75363,0,0,1,9,2.58545,2.44921,2.44921,0,0,1,9.22824,1.512,2.51483,2.51483,0,0,1,9.84583.69279,2.70306,2.70306,0,0,1,10.744.17649,3.262,3.262,0,0,1,11.81942,0a3.32236,3.32236,0,0,1,1.18281.21864A2.79607,2.79607,0,0,1,14.0226.89825a3.34226,3.34226,0,0,1,.71157,1.18406A5.052,5.052,0,0,1,15,3.82351ZM13.3748,2.6052a1.37506,1.37506,0,0,0-2.74961,0,1.37506,1.37506,0,0,0,2.74961,0Z"/></svg>
