<svg xmlns="http://www.w3.org/2000/svg" viewBox="0 0 16 16">
	<path d="M3 16l-3-4h2V0h2v12h2zm10-6h-1v1h-1v1h1v3h-1v1h3v-1h-1zm2-6.176a5.5 5.5 0 0 1-.285 1.87 3.787 3.787 0 0 1-.754 1.298 2.984 2.984 0 0 1-1.084.76A3.306 3.306 0 0 1 11.622 8a3.627 3.627 0 0 1-1.473-.28 4.001 4.001 0 0 1-1.039-.643l.965-1.068a2.343 2.343 0 0 0 .62.382 1.889 1.889 0 0 0 1.453.036 1.497 1.497 0 0 0 .582-.412 2.202 2.202 0 0 0 .415-.753 4.072 4.072 0 0 0 .185-1.147 3.391 3.391 0 0 1-.947.625 2.376 2.376 0 0 1-.946.225 3.084 3.084 0 0 1-.966-.146 2.158 2.158 0 0 1-.773-.437 1.994 1.994 0 0 1-.513-.74A2.754 2.754 0 0 1 9 2.585a2.45 2.45 0 0 1 .228-1.073 2.515 2.515 0 0 1 .618-.82 2.703 2.703 0 0 1 .898-.516A3.262 3.262 0 0 1 11.819 0a3.322 3.322 0 0 1 1.183.219 2.796 2.796 0 0 1 1.02.68 3.342 3.342 0 0 1 .712 1.183A5.052 5.052 0 0 1 15 3.824zm-1.625-1.219a1.375 1.375 0 0 0-2.75 0 1.375 1.375 0 0 0 2.75 0z"/>
</svg>
