<svg xmlns="http://www.w3.org/2000/svg" viewBox="0 0 14 16">
  <g>
    <path d="M12.7426963,3 L7.25732795,3 C7.11444198,3 6.99940666,3.13432099 6.99940666,3.30024691 L6.99940666,4.70074074 C6.99940666,4.86567901 7.11444198,5 7.25732795,5 L12.7426963,5 C12.8843713,5 12.9994067,4.86567901 12.9994067,4.70074074 L12.9994067,3.30024691 C12.9994067,3.13432099 12.8843713,3 12.7426963,3 M14.759791,0 L7.23902237,0 C7.10678163,0 6.99940666,0.135308642 6.99940666,0.301234568 L6.99940666,1.70074074 C6.99940666,1.86666667 7.10678163,2 7.23902237,2 L14.759791,2 C14.8920317,2 14.9994067,1.86666667 14.9994067,1.70074074 L14.9994067,0.301234568 C14.9994067,0.135308642 14.8920317,0 14.759791,0 M9.77475106,6 C9.89873552,6 9.99940666,6.13432099 9.99940666,6.30024691 L9.99940666,7.70074074 C9.99940666,7.86666667 9.89873552,8 9.77475106,8 L7.22406226,8 C7.1000778,8 6.99940666,7.86666667 6.99940666,7.70074074 L6.99940666,6.30024691 C6.99940666,6.13432099 7.1000778,6 7.22406226,6 L9.77475106,6 Z M5.61858193,12.239 C5.84258193,12.239 5.97058193,12.518 5.83558193,12.714 L3.66258193,15.882 C3.55458193,16.04 3.33658193,16.04 3.22758193,15.882 L1.05458193,12.714 C0.920581934,12.518 1.04858193,12.239 1.27258193,12.239 L2.53958193,12.239 L2.53958193,0.297 C2.53958193,0.133 2.66158193,0 2.81158193,0 L4.07958193,0 C4.22958193,0 4.35058193,0.133 4.35058193,0.297 L4.35058193,12.239 L5.61858193,12.239 Z" transform="translate(-1)"/>
  </g>
</svg>
