<svg xmlns="http://www.w3.org/2000/svg" viewBox="0 0 16 16"><path d="M9,6l3-4H9V0h6V2L12,6h3V8H9Zm.00684,7.99277a2.134,2.134,0,0,1,.21582-.98347,1.835,1.835,0,0,1,.69043-.71555,4.19578,4.19578,0,0,1,1.21777-.47594,10.6558,10.6558,0,0,1,1.7998-.24723,1.01738,1.01738,0,0,0-.35449-.709,1.40646,1.40646,0,0,0-.918-.25485,2.43407,2.43407,0,0,0-.86914.16772,7.40687,7.40687,0,0,0-.94238.44871L9.22266,9.938a6.6994,6.6994,0,0,1,1.31445-.64258,4.294,4.294,0,0,1,1.46973-.25376,2.62487,2.62487,0,0,1,1.96777.73624,3.11835,3.11835,0,0,1,.7207,2.261v3.801H13.25488l-.13184-.74931h-.04883a4.604,4.604,0,0,1-.99512.64911A2.53439,2.53439,0,0,1,10.96289,16a2.06214,2.06214,0,0,1-.81641-.15356,1.74727,1.74727,0,0,1-.61133-.428,1.97013,1.97013,0,0,1-.39062-.636A2.19553,2.19553,0,0,1,9.00684,13.99277Zm1.69238-.147a.53812.53812,0,0,0,.22168.47485,1.04264,1.04264,0,0,0,.60645.15465,1.60226,1.60226,0,0,0,.74414-.18079,3.491,3.491,0,0,0,.65918-.44871V12.74791a7.523,7.523,0,0,0-1.0918.134,2.55946,2.55946,0,0,0-.68457.23416.87144.87144,0,0,0-.35352.32782A.82511.82511,0,0,0,10.69922,13.84574ZM6,12H4V0H2V12H0l3,4Z"/></svg>
