<svg xmlns="http://www.w3.org/2000/svg" viewBox="0 0 14 16">
  <g>
    <path d="M12.7426963,11 L7.25732795,11 C7.11444198,11 6.99940666,11.134321 6.99940666,11.3002469 L6.99940666,12.7007407 C6.99940666,12.865679 7.11444198,13 7.25732795,13 L12.7426963,13 C12.8843713,13 12.9994067,12.865679 12.9994067,12.7007407 L12.9994067,11.3002469 C12.9994067,11.134321 12.8843713,11 12.7426963,11 M14.759791,8 L7.23902237,8 C7.10678163,8 6.99940666,8.13530864 6.99940666,8.30123457 L6.99940666,9.70074074 C6.99940666,9.86666667 7.10678163,10 7.23902237,10 L14.759791,10 C14.8920317,10 14.9994067,9.86666667 14.9994067,9.70074074 L14.9994067,8.30123457 C14.9994067,8.13530864 14.8920317,8 14.759791,8 M9.77475106,14 C9.89873552,14 9.99940666,14.134321 9.99940666,14.3002469 L9.99940666,15.7007407 C9.99940666,15.8666667 9.89873552,16 9.77475106,16 L7.22406226,16 C7.1000778,16 6.99940666,15.8666667 6.99940666,15.7007407 L6.99940666,14.3002469 C6.99940666,14.134321 7.1000778,14 7.22406226,14 L9.77475106,14 Z M5.61858193,3.7615 L4.35058193,3.7615 L4.35058193,15.7035 C4.35058193,15.8675 4.22958193,16.0005 4.07958193,16.0005 L2.81158193,16.0005 C2.66158193,16.0005 2.53958193,15.8675 2.53958193,15.7035 L2.53958193,3.7615 L1.27258193,3.7615 C1.04858193,3.7615 0.920581934,3.4825 1.05458193,3.2865 L3.22758193,0.1185 C3.33658193,-0.0395 3.55458193,-0.0395 3.66258193,0.1185 L5.83558193,3.2865 C5.97058193,3.4825 5.84258193,3.7615 5.61858193,3.7615 Z" transform="translate(-1)"/>
  </g>
</svg>
