<svg xmlns="http://www.w3.org/2000/svg" viewBox="0 0 16 16"><path d="M3,16,0,12H2V0H4V12H6ZM13,0H11V1H9V3h2V6H9V8h6V6H13Zm1.18213,12.90332a4.15068,4.15068,0,0,1-.207,1.38672,2.82022,2.82022,0,0,1-.54883.96289,2.1707,2.1707,0,0,1-.78809.5625A2.365,2.365,0,0,1,11.7251,16a2.59488,2.59488,0,0,1-1.07129-.207,2.90236,2.90236,0,0,1-.75586-.47754l.70215-.792a1.69943,1.69943,0,0,0,.4502.2832,1.34965,1.34965,0,0,0,1.05762.02734,1.08937,1.08937,0,0,0,.42285-.30566,1.642,1.642,0,0,0,.30176-.55859,3.07225,3.07225,0,0,0,.13477-.85059,2.46339,2.46339,0,0,1-.68848.46387,1.70106,1.70106,0,0,1-.68848.167,2.20432,2.20432,0,0,1-.70215-.1084,1.56253,1.56253,0,0,1-.5625-.32422,1.47888,1.47888,0,0,1-.373-.54883,2.07685,2.07685,0,0,1-.13477-.7832,1.83326,1.83326,0,0,1,.61523-1.40332,1.95737,1.95737,0,0,1,.65332-.38281,2.33186,2.33186,0,0,1,.78223-.13086,2.376,2.376,0,0,1,.86035.16211,2.0315,2.0315,0,0,1,.74219.50391,2.48749,2.48749,0,0,1,.51758.87793A3.81212,3.81212,0,0,1,14.18213,12.90332ZM13,12a1,1,0,1,0-1,1A1,1,0,0,0,13,12Z"/></svg>
