<svg xmlns="http://www.w3.org/2000/svg"  viewBox="0 0 14 16">
  <g>
    <path d="M5.61858193,3.7615 L4.35058193,3.7615 L4.35058193,15.7035 C4.35058193,15.8675 4.22958193,16.0005 4.07958193,16.0005 L2.81158193,16.0005 C2.66158193,16.0005 2.53958193,15.8675 2.53958193,15.7035 L2.53958193,3.7615 L1.27258193,3.7615 C1.04858193,3.7615 0.920581934,3.4825 1.05458193,3.2865 L3.22758193,0.1185 C3.33658193,-0.0395 3.55458193,-0.0395 3.66258193,0.1185 L5.83558193,3.2865 C5.97058193,3.4825 5.84258193,3.7615 5.61858193,3.7615 Z M14.7269819,12.2391 C14.9509819,12.2391 15.0789819,12.5181 14.9439819,12.7141 L12.7709819,15.8821 C12.6629819,16.0401 12.4449819,16.0401 12.3359819,15.8821 L10.1629819,12.7141 C10.0289819,12.5181 10.1569819,12.2391 10.3799819,12.2391 L11.6479819,12.2391 L11.6479819,0.2981 C11.6479819,0.1341 11.7699819,0.0011 11.9199819,0.0011 L13.1869819,0.0011 C13.3379819,0.0011 13.4589819,0.1341 13.4589819,0.2981 L13.4589819,12.2391 L14.7269819,12.2391 Z" transform="translate(-1)"/>
  </g>
</svg>
