<svg xmlns="http://www.w3.org/2000/svg" viewBox="0 0 32 32"><path d="M18.62581,24.131c1.76414.48113,3.68866.80188,5.4528,1.283,0-.48113-2.88678-5.2924-3.04715-6.89616.32075-.6415,4.97167-5.93391,4.97167-6.09428-.32075,0-5.93393,1.76414-7.85845,1.76414,0-.32075-2.88678-5.77353-3.849-5.93391-.48113,2.566-.80188,4.97165-1.283,7.53767-2.566.80188-5.132,1.76414-7.53769,2.566.32075.32075,3.849,1.60376,5.61318,2.40564l-4.49054,2.566S.824,19.96127.34289,19.48015a1.90381,1.90381,0,0,1,.16038-2.40564,81.93256,81.93256,0,0,1,9.783-3.68865c.16038-.96225,1.44339-8.01879,2.40565-9.62255a2.136,2.136,0,0,1,2.24527-1.12263c1.60376.6415,4.81129,7.05654,5.29242,7.698.32075,0,8.98108-2.566,11.066-1.76413.64151.32075,1.12264.96225.16038,1.92451-.48113.32075-6.25468,7.37729-6.57544,8.01879-.16038.96226,3.68866,8.981,3.68866,9.62255a1.17491,1.17491,0,0,1-1.283,1.283c-.80188,0-8.1792-1.92451-8.1792-1.92451C19.10694,27.17819,18.62581,24.61217,18.62581,24.131Z"/></svg>
