<svg xmlns="http://www.w3.org/2000/svg" viewBox="0 0 16 16">
  <path d="M16,1V3a4.38,4.38,0,0,0-3-1C11.09526,2,5.83335,6,3,6A4.38,4.38,0,0,1,0,5V3A4.38,4.38,0,0,0,3,4c2.14287,0,7.61909-4,10-4A4.309,4.309,0,0,1,16,1Zm0,5V8a4.38,4.38,0,0,0-3-1c-1.90474,0-7.16665,4-10,4a4.38,4.38,0,0,1-3-1V8A4.38,4.38,0,0,0,3,9c2.14287,0,7.61909-4,10-4A4.309,4.309,0,0,1,16,6Zm0,5v2a4.38,4.38,0,0,0-3-1c-1.90474,0-7.16665,4-10,4a4.38,4.38,0,0,1-3-1V13a4.38,4.38,0,0,0,3,1c2.14287,0,7.61909-4,10-4A4.309,4.309,0,0,1,16,11Z"/>
</svg>
