<svg xmlns="http://www.w3.org/2000/svg" viewBox="0 0 16 16">
  <g transform="translate(1)">
    <path d="M9.895 4.6614C8.67 4.6614 7.467 4.0784 6.314 2.9254 5.41 2.0214 4.534 1.6064 3.711 1.6954 2.429 1.8314 1.557 3.1304 1.548 3.1434 1.296 3.5344.775 3.6464.385 3.3944-.005 3.1424-.118 2.6214.135 2.2314.187 2.1504 1.44.2444 3.533.0214 4.887-.1226 6.222.4534 7.503 1.7354 8.405 2.6364 9.284 3.0504 10.117 2.9674 11.428 2.8354 12.333 1.5214 12.342 1.5094 12.598 1.1214 13.121 1.0154 13.508 1.2724 13.895 1.5294 14.001 2.0514 13.744 2.4384 13.69 2.5194 12.402 4.4294 10.285 4.6414 10.154 4.6554 10.024 4.6614 9.895 4.6614M9.895 10.3206C8.67 10.3206 7.467 9.7376 6.314 8.5856 5.413 7.6846 4.543 7.2696 3.72 7.3536 2.431 7.4846 1.555 8.7936 1.546 8.8066 1.292 9.1936.771 9.3036.383 9.0506-.005 8.7976-.117 8.2796.135 7.8906.187 7.8096 1.44 5.9036 3.533 5.6806 4.884 5.5376 6.222 6.1136 7.503 7.3956 8.405 8.2956 9.284 8.7106 10.117 8.6266 11.428 8.4946 12.333 7.1816 12.342 7.1686 12.598 6.7806 13.121 6.6746 13.508 6.9316 13.895 7.1886 14.001 7.7106 13.744 8.0976 13.69 8.1796 12.402 10.0886 10.285 10.3006 10.154 10.3146 10.024 10.3206 9.895 10.3206M9.895 15.9998C8.67 15.9998 7.467 15.4168 6.314 14.2648 5.41 13.3598 4.534 12.9448 3.711 13.0338 2.429 13.1698 1.557 14.4698 1.548 14.4828 1.296 14.8728.775 14.9848.385 14.7328-.005 14.4808-.118 13.9598.135 13.5698.187 13.4888 1.44 11.5828 3.533 11.3598 4.887 11.2168 6.222 11.7928 7.503 13.0748 8.405 13.9758 9.284 14.3888 10.117 14.3058 11.428 14.1748 12.333 12.8608 12.342 12.8478 12.598 12.4598 13.121 12.3538 13.508 12.6108 13.895 12.8678 14.001 13.3898 13.744 13.7768 13.69 13.8588 12.402 15.7678 10.285 15.9808 10.154 15.9938 10.024 15.9998 9.895 15.9998"/>
  </g>
</svg>
