<svg viewBox="0 0 16 16" version="1.1" xmlns="http://www.w3.org/2000/svg">
    <g fill-rule="nonzero">
        <polygon id="Fill-1" points="5.94933333 3.31982222 15.9493333 3.31982222 15.9493333 1.54204444 5.94933333 1.54204444"></polygon>
        <polygon id="Fill-4" points="1.8912 1.86622222 0.957866667 0.933777778 0.0227555556 1.86888889 1.8912 3.73377778 4.6912 0.933777778 3.75786667 0.000444444444"></polygon>
        <polygon id="Fill-2" points="5.94933333 9.36471111 15.9493333 9.36471111 15.9493333 7.58604444 5.94933333 7.58604444"></polygon>
        <polygon id="Fill-5" points="1.868 7.90462222 0.935555556 6.97128889 -0.000444444444 7.9064 1.868 9.77128889 4.66888889 6.97128889 3.73555556 6.03706667"></polygon>
        <polygon id="Fill-3" points="5.94933333 15.3020444 15.9493333 15.3020444 15.9493333 13.5242667 5.94933333 13.5242667"></polygon>
        <polygon id="Fill-6" points="1.868 13.9486222 0.935555556 13.0161778 -0.000444444444 13.9512889 1.868 15.8161778 4.66888889 13.0161778 3.73555556 12.0819556"></polygon>
    </g>
</svg>
