<svg xmlns="http://www.w3.org/2000/svg" viewBox="0 0 16 16">
	<g fill="none">
		<path d="M8 16c-4.411 0-8-3.59-8-8 0-4.411 3.589-8 8-8 4.41 0 8 3.589 8 8 0 4.41-3.59 8-8 8" class="ti-tdc-positive-bg" fill="#5DA288"/>
		<g class="ti-tdc-positive-logo" fill="#FFF">
			<path d="M8.766 13.89a.85.85 0 0 0-.547-.457s-.188-.06-.436-.002a.853.853 0 0 0-.555.462 5.971 5.971 0 0 1-5.15-5.162.85.85 0 0 0 .001-1.505A5.971 5.971 0 0 1 7.242 2.07a.85.85 0 0 0 1.517.002 5.968 5.968 0 0 1 5.139 5.132.85.85 0 0 0 .001 1.546 5.971 5.971 0 0 1-5.133 5.14m5.674-6.742a6.504 6.504 0 0 0-5.603-5.615.85.85 0 0 0-1.672-.002A6.504 6.504 0 0 0 1.541 7.14a.85.85 0 0 0-.001 1.675 6.505 6.505 0 0 0 5.626 5.617.851.851 0 0 0 1.663-.002 6.505 6.505 0 0 0 5.612-5.624.85.85 0 0 0-.001-1.658"/>
			<path d="M10.612 10.868a8.11 8.11 0 0 1-.55-.427c-.312-.257-.74-.607-1.225-.794-.355-.135-.694-.163-1.011-.083l1.393-3.636c.694-.664 1.402-.184 2.188.462l.154.126c.226.182.414.322.559.415l-1.508 3.937zM7.25 9.344c-.511-.766-1.59-.813-2.251-.842a7.687 7.687 0 0 1-.693-.05l1.509-3.937c.17.028.403.05.693.066l.179.008.02.001c1.016.045 1.864.16 1.937 1.118L7.25 9.344zm5.355-2.848a5.976 5.976 0 0 1-.793-.57l-.014-.01C11.234 5.45 10.2 4.6 9.17 5.195c-.37-1.132-1.707-1.19-2.436-1.222l-.038-.002c-.054 0-.105-.004-.154-.006-.384-.022-.642-.07-.797-.098-.106-.02-.15-.027-.186-.02a.307.307 0 0 0-.221.191L3.603 8.566a.307.307 0 0 0 .073.332c.06.06.164.158 1.097.21l.2.01c.687.03 1.624.07 1.872.788 0 0 .075.215.076.213-.001.001.619.232.619.232l.233-.109c.674-.333 1.373.243 1.9.678l.153.124c.386.31.65.49.809.55.06.023.143.027.148.027a.308.308 0 0 0 .276-.197l1.735-4.529a.308.308 0 0 0-.037-.289c-.022-.03-.061-.053-.152-.11z"/>
			<path d="M10.612 12.458a.803.803 0 0 1-.261-.05c-.193-.073-.465-.26-.884-.6-.05-.038-.101-.082-.155-.127l-.166-.142c-.561-.484-.937-.75-1.432-.365l-.132.102-1.371-.513-.012-.193c-.033-.512-.392-.61-1.237-.643l-.164-.008-.203-.011c-.966-.06-1.148-.167-1.286-.301a.298.298 0 0 1 .417-.426l.007.006c.01.006.146.08.899.126l.195.01.159.007c.609.024 1.604.065 1.783 1.005l.718.269c.855-.547 1.569.069 2.049.484a8.263 8.263 0 0 0 .307.258c.464.377.653.48.725.508a.42.42 0 0 0 .048.007.299.299 0 0 1 .005.597h-.01z"/>
		</g>
	</g>
</svg>
