<svg xmlns="http://www.w3.org/2000/svg" viewBox="0 0 16 16">
	<path d="M6.4 9.803l-.515.977h4.197l-.548-.977z"/>
	<path d="M13.53 11.613c-1.09 1.608-2.813 2.721-4.792 2.945a.78.78 0 0 1-1.484 0 6.627 6.627 0 0 1-5.822-5.905v-.016H1.43v-.014a6.901 6.901 0 0 1-.03-.483v-.02a.077.077 0 0 1 .076-.073h2.33v.001a.278.278 0 0 1 0 .557H1.983c.284 2.822 2.523 5.063 5.293 5.398a.784.784 0 0 1 1.44.001 6.023 6.023 0 0 0 4.366-2.732c.057-.094.16-.314.358-.314.151 0 .281.124.275.275-.006.14-.144.318-.187.38zM9.414 5.574a.468.468 0 1 1 .936 0 .468.468 0 0 1-.936 0zM7.54 4.544zm-1.884.554a.468.468 0 1 1 .936.002.468.468 0 0 1-.936-.002zm1.208 2.705a.31.31 0 0 1 .174-.14v-.747h-.06a.427.427 0 1 1 0-.855H8.99a.427.427 0 0 1 0 .855h-.06v.746a.305.305 0 0 1 .174.141l1.952 3.478a.306.306 0 0 1-.266.455H5.176a.306.306 0 0 1-.266-.455l1.953-3.478zM1.86 5.573a6.644 6.644 0 0 1 5.39-4.107.782.782 0 0 1 .748-.564c.356 0 .654.24.75.565a6.589 6.589 0 0 1 5.371 4.08s.037.09.037.144a.278.278 0 0 1-.278.277c-.137 0-.232-.102-.279-.228a6.035 6.035 0 0 0-4.896-3.715.781.781 0 0 1-1.413-.005A6.101 6.101 0 0 0 2.366 5.8l-.004.007v.002a.277.277 0 0 1-.531-.114c0-.044.012-.085.03-.122zm10.083 3.032l-.002.001a.28.28 0 0 1 0-.557h1.365v-.734L14.52 8.33l-1.214 1.015v-.74h-1.363zM8 0a8 8 0 0 0-8 8 8 8 0 1 0 16 0 8 8 0 0 0-8-8z"/>
</svg>
