<svg xmlns="http://www.w3.org/2000/svg" viewBox="0 0 16 16">
  <g fill="none">
  <g class="ti-tdp-positive-bg" fill="#000" fill-rule="nonzero">
    <path d="M16,8 C16,12.418 12.418,16 8,16 C3.582,16 0,12.418 0,8 C0,3.582 3.582,0 8,0 C12.418,0 16,3.582 16,8"/>
  </g>
  <g class="ti-tdp-positive-logo" fill="#FFF" fill-rule="nonzero" transform="translate(1)">
      <path d="M4.8853 10.7802L5.3993 9.8032 8.5333 9.8032 9.0813 10.7802 4.8853 10.7802zM10.0563 11.2812L8.1043 7.8032C8.0653 7.7342 8.0023 7.6852 7.9293 7.6622L7.9293 6.9162 7.9903 6.9162C8.2263 6.9162 8.4173 6.7242 8.4173 6.4882 8.4173 6.2532 8.2263 6.0612 7.9903 6.0612L5.9763 6.0612C5.7403 6.0612 5.5503 6.2532 5.5503 6.4882 5.5503 6.7242 5.7403 6.9162 5.9763 6.9162L6.0373 6.9162 6.0373 7.6622C5.9653 7.6852 5.9023 7.7352 5.8633 7.8032L3.9103 11.2812C3.8583 11.3762 3.8593 11.4912 3.9133 11.5852 3.9683 11.6782 4.0683 11.7362 4.1773 11.7362L9.7903 11.7362C9.8983 11.7362 9.9993 11.6782 10.0533 11.5852 10.1083 11.4912 10.1093 11.3762 10.0563 11.2812L10.0563 11.2812zM7.9385 4.5439C7.9385 4.9299 7.6255 5.2429 7.2395 5.2429 6.8535 5.2429 6.5395 4.9299 6.5395 4.5439 6.5395 4.1569 6.8535 3.8439 7.2395 3.8439 7.6255 3.8439 7.9385 4.1569 7.9385 4.5439M9.3521 5.5742C9.3521 5.8332 9.1421 6.0432 8.8841 6.0432 8.6251 6.0432 8.4151 5.8332 8.4151 5.5742 8.4151 5.3152 8.6251 5.1062 8.8841 5.1062 9.1421 5.1062 9.3521 5.3152 9.3521 5.5742M5.5918 5.0986C5.5918 5.3576 5.3828 5.5676 5.1238 5.5676 4.8648 5.5676 4.6548 5.3576 4.6548 5.0986 4.6548 4.8406 4.8648 4.6306 5.1238 4.6306 5.3828 4.6306 5.5918 4.8406 5.5918 5.0986M13.5201 8.33L12.3071 7.315 12.3071 8.049 10.9431 8.049 10.9411 8.049C10.7881 8.049 10.6631 8.173 10.6631 8.327 10.6631 8.481 10.7881 8.606 10.9411 8.606L10.9431 8.605 12.3071 8.605 12.3071 9.345 13.5201 8.33z"/>
      <path d="M13.1197 5.5459C12.2157 3.3089 10.1587 1.7399 7.7477 1.4669 7.6517 1.1419 7.3547.9019 6.9987.9019 6.6427.9019 6.3457 1.1419 6.2497 1.4659 3.8157 1.7419 1.7557 3.3569.8597 5.5719L.8617 5.5729C.8427 5.6099.8317 5.6509.8317 5.6949.8317 5.8489.9557 5.9729 1.1087 5.9729 1.2217 5.9729 1.3177 5.9049 1.3617 5.8099L1.3627 5.8079C1.3637 5.8049 1.3657 5.8019 1.3667 5.7989 2.1817 3.7679 4.0667 2.2809 6.2907 2.0209 6.4157 2.2859 6.6847 2.4719 6.9987 2.4719 7.3107 2.4719 7.5777 2.2879 7.7037 2.0249 9.8987 2.2809 11.7707 3.7059 12.5987 5.7409 12.6467 5.8659 12.7417 5.9689 12.8787 5.9689 13.0317 5.9689 13.1567 5.8449 13.1567 5.6919 13.1567 5.6379 13.1197 5.5459 13.1197 5.5459M12.4409 10.958C12.2429 10.958 12.1399 11.179 12.0839 11.272 11.1219 12.772 9.5309 13.79 7.7159 14.004 7.5959 13.726 7.3189 13.531 6.9969 13.531 6.6739 13.531 6.3989 13.726 6.2769 14.003 3.5069 13.668 1.2679 11.428.9839 8.605L2.8049 8.605 2.8059 8.605C2.9599 8.605 3.0849 8.48 3.0849 8.326 3.0849 8.173 2.9599 8.048 2.8059 8.048L2.8059 8.047.4769 8.047C.4349 8.047.4019 8.08.3999 8.12.3999 8.127.3989 8.134.3989 8.141.3969 8.208.4129 8.424.4299 8.623.4299 8.628.4299 8.632.4309 8.637L.4309 8.637.4309 8.638C.4319 8.643.4319 8.648.4329 8.653.4409 8.74.4609 8.897.4689 8.948.8979 11.91 3.2999 14.223 6.2539 14.559 6.3579 14.872 6.6489 15.1 6.9969 15.1 7.3439 15.1 7.6359 14.872 7.7389 14.559 9.7169 14.334 11.4409 13.222 12.5289 11.613 12.5719 11.551 12.7109 11.373 12.7159 11.233 12.7219 11.082 12.5929 10.958 12.4409 10.958"/>
  </g>
  </g>
</svg>
