<svg xmlns="http://www.w3.org/2000/svg" viewBox="0 0 16 16">
	<g fill="none">
		<path d="M16 8A8 8 0 1 1 0 8a8 8 0 0 1 16 0" class="ti-tdp-positive-bg" fill="#4f93a7"/>
		<g class="ti-tdp-positive-logo" fill="#FFF">
			<path d="M5.885 10.78l.514-.977h3.134l.548.977H5.885zm5.171.501L9.104 7.803a.305.305 0 0 0-.175-.14v-.747h.061a.428.428 0 0 0 0-.855H6.976a.427.427 0 0 0 0 .855h.061v.746a.31.31 0 0 0-.174.141L4.91 11.281a.307.307 0 0 0 .267.455h5.613a.305.305 0 0 0 .266-.455zM8.94 4.544a.7.7 0 1 1-1.399 0 .7.7 0 0 1 1.399 0m1.413 1.03a.469.469 0 1 1-.938 0 .469.469 0 0 1 .938 0M6.592 5.1a.468.468 0 1 1-.937.001.468.468 0 0 1 .937-.001m7.928 3.23l-1.213-1.015v.734h-1.366a.278.278 0 0 0 0 .557l.002-.001h1.364v.74L14.52 8.33z"/>
			<path d="M14.12 5.546a6.59 6.59 0 0 0-5.372-4.08.783.783 0 0 0-.75-.564.784.784 0 0 0-.748.564 6.649 6.649 0 0 0-5.39 4.106h.002a.277.277 0 0 0 .5.237v-.001l.005-.01A6.098 6.098 0 0 1 7.29 2.022a.782.782 0 1 0 1.413.004 6.032 6.032 0 0 1 4.895 3.716c.048.125.143.228.28.228a.278.278 0 0 0 .278-.277.534.534 0 0 0-.037-.146m-.68 5.412c-.197 0-.3.221-.356.314a6.025 6.025 0 0 1-4.368 2.732.783.783 0 0 0-1.44-.001c-2.77-.335-5.008-2.575-5.292-5.398h1.822a.28.28 0 0 0 0-.557v-.001h-2.33a.077.077 0 0 0-.076.073l-.001.021a7.1 7.1 0 0 0 .032.496v.001a6.697 6.697 0 0 0 .038.31 6.626 6.626 0 0 0 5.785 5.611.784.784 0 0 0 .743.541.783.783 0 0 0 .742-.541c1.978-.225 3.702-1.337 4.79-2.946.043-.062.182-.24.187-.38a.272.272 0 0 0-.275-.275"/>
		</g>
	</g>
</svg>
