<svg xmlns="http://www.w3.org/2000/svg" viewBox="0 0 16 16">
	<path d="M5.556 11.132l.579-1.101h3.532l.618 1.1H5.556zm5.827.565l-2.2-3.92a.347.347 0 0 0-.197-.16v-.84h.069a.482.482 0 0 0 0-.963H6.786a.482.482 0 0 0 0 .963h.069v.84a.347.347 0 0 0-.197.16l-2.2 3.92a.342.342 0 0 0 .299.512h6.327a.342.342 0 0 0 .299-.512zM8.997 4.103a.788.788 0 1 1-1.576 0 .788.788 0 0 1 1.576 0m1.593 1.162a.527.527 0 1 1-1.055 0 .527.527 0 0 1 1.055 0M6.352 4.73a.527.527 0 1 1-1.055.001.527.527 0 0 1 1.055 0m8.935 3.64L13.92 7.226v.828h-1.538a.313.313 0 1 0-.001.628h1.539v.833l1.367-1.145z"/>
	<path d="M14.836 5.233A7.431 7.431 0 0 0 8.782.635.881.881 0 0 0 7.938 0a.882.882 0 0 0-.844.634 7.494 7.494 0 0 0-6.075 4.628l.002.001a.313.313 0 0 0 .564.267v-.002l.005-.01c.918-2.29 3.043-3.965 5.55-4.259.14.3.444.51.798.51a.88.88 0 0 0 .794-.505 6.804 6.804 0 0 1 5.518 4.19c.053.14.16.256.314.256a.315.315 0 0 0 .314-.314c0-.059-.042-.163-.042-.163m-.765 6.1c-.224 0-.339.248-.403.354a6.796 6.796 0 0 1-4.922 3.079.882.882 0 0 0-1.62-.001c-3.124-.38-5.647-2.903-5.967-6.084h2.053a.315.315 0 1 0 0-.628v-.001H.587a.086.086 0 0 0-.086.083v.022a7.457 7.457 0 0 0 .034.559h.001l.001.019c.011.098.033.276.041.332.484 3.339 3.191 5.944 6.521 6.324a.881.881 0 0 0 .836.609.882.882 0 0 0 .837-.61c2.23-.253 4.171-1.506 5.4-3.32.047-.07.203-.27.21-.427a.306.306 0 0 0-.31-.31"/>
</svg>
