<svg xmlns="http://www.w3.org/2000/svg" viewBox="0 0 16 16">
  <g transform="translate(.5)">
    <path d="M5.056 11.1315L5.635 10.0305 9.167 10.0305 9.785 11.1315 5.056 11.1315zM10.883 11.6965L8.683 7.7775C8.639 7.6995 8.569 7.6445 8.486 7.6175L8.486 6.7775 8.555 6.7775C8.821 6.7775 9.036 6.5615 9.036 6.2945 9.036 6.0285 8.821 5.8145 8.555 5.8145L6.286 5.8145C6.02 5.8145 5.805 6.0285 5.805 6.2945 5.805 6.5615 6.02 6.7775 6.286 6.7775L6.355 6.7775 6.355 7.6175C6.272 7.6445 6.202 7.6995 6.158 7.7775L3.958 11.6965C3.898 11.8035 3.899 11.9335 3.961 12.0385 4.022 12.1445 4.136 12.2085 4.257 12.2085L10.584 12.2085C10.705 12.2085 10.819 12.1445 10.88 12.0385 10.942 11.9335 10.943 11.8035 10.883 11.6965L10.883 11.6965zM8.4969 4.1032C8.4969 4.5392 8.1439 4.8912 7.7079 4.8912 7.2729 4.8912 6.9199 4.5392 6.9199 4.1032 6.9199 3.6672 7.2729 3.3152 7.7079 3.3152 8.1439 3.3152 8.4969 3.6672 8.4969 4.1032M10.0897 5.2653C10.0897 5.5563 9.8537 5.7923 9.5617 5.7923 9.2707 5.7923 9.0337 5.5563 9.0337 5.2653 9.0337 4.9733 9.2707 4.7373 9.5617 4.7373 9.8537 4.7373 10.0897 4.9733 10.0897 5.2653M5.8524 4.7292C5.8524 5.0212 5.6164 5.2572 5.3244 5.2572 5.0334 5.2572 4.7964 5.0212 4.7964 4.7292 4.7964 4.4382 5.0334 4.2022 5.3244 4.2022 5.6164 4.2022 5.8524 4.4382 5.8524 4.7292M14.7869 8.3698L13.4199 7.2258 13.4199 8.0538 11.8829 8.0538 11.8819 8.0538C11.7069 8.0538 11.5669 8.1938 11.5669 8.3678 11.5669 8.5408 11.7069 8.6818 11.8809 8.6818L11.8829 8.6818 13.4199 8.6818 13.4199 9.5148 14.7869 8.3698z"/>
    <path d="M14.3358 5.2331C13.3168 2.7121 10.9988.9441 8.2818.6351 8.1738.2691 7.8388.0001 7.4378.0001 7.0368.0001 6.7018.2691 6.5938.6341 3.8508.9461 1.5278 2.7651.5188 5.2621L.5208 5.2631C.5008 5.3051.4878 5.3511.4878 5.4011.4868 5.5741.6278 5.7131.7998 5.7141.9268 5.7141 1.0358 5.6381 1.0848 5.5301L1.0858 5.5281C1.0868 5.5241 1.0888 5.5211 1.0898 5.5181 2.0078 3.2281 4.1328 1.5531 6.6398 1.2591 6.7808 1.5591 7.0838 1.7681 7.4378 1.7681 7.7888 1.7681 8.0898 1.5611 8.2318 1.2641 10.7058 1.5541 12.8158 3.1591 13.7498 5.4531 13.8028 5.5941 13.9098 5.7101 14.0638 5.7101 14.2368 5.7101 14.3778 5.5691 14.3778 5.3961 14.3778 5.3371 14.3358 5.2331 14.3358 5.2331M13.5711 11.3327C13.3471 11.3327 13.2321 11.5807 13.1681 11.6867 12.0841 13.3767 10.2911 14.5227 8.2461 14.7657 8.1111 14.4517 7.7991 14.2317 7.4351 14.2317 7.0721 14.2317 6.7611 14.4507 6.6251 14.7647 3.5021 14.3857.9791 11.8617.6591 8.6807L2.7121 8.6807 2.7121 8.6807C2.8861 8.6807 3.0271 8.5397 3.0271 8.3667 3.0271 8.1927 2.8861 8.0527 2.7121 8.0527L2.7121 8.0517.0871 8.0517C.0401 8.0517.0031 8.0887.0011 8.1347.0011 8.1427.0001 8.1487.0001 8.1567-.0029 8.2327.0151 8.4767.0341 8.7007.0351 8.7057.0351 8.7107.0351 8.7157L.0361 8.7157.0361 8.7167C.0361 8.7237.0371 8.7287.0371 8.7347.0481 8.8327.0701 9.0107.0781 9.0667.5621 12.4057 3.2691 15.0107 6.5991 15.3907 6.7151 15.7427 7.0431 15.9997 7.4351 15.9997 7.8271 15.9997 8.1561 15.7427 8.2721 15.3897 10.5011 15.1367 12.4431 13.8837 13.6711 12.0707 13.7191 11.9997 13.8751 11.7997 13.8811 11.6427 13.8871 11.4717 13.7421 11.3327 13.5711 11.3327"/>
  </g>
</svg>
