<svg xmlns="http://www.w3.org/2000/svg" viewBox="0 0 16 16">
	<path class="ti-tdp-colored-bg" fill="#00A1B3" d="M16 8A8 8 0 1 1 0 8a8 8 0 0 1 16 0"/>
	<g class="ti-tdp-positive-logo" fill="#FFF">
		<path d="M5.886 10.78l.514-.976h3.134l.548.976H5.886zm5.17.5L9.104 7.805a.305.305 0 0 0-.175-.142v-.746h.06a.428.428 0 1 0 0-.854H6.978a.427.427 0 1 0 0 .854h.06v.747a.3.3 0 0 0-.173.14L4.91 11.282a.305.305 0 0 0 .266.455h5.614a.306.306 0 0 0 .263-.151.303.303 0 0 0 .002-.304zM8.939 4.544a.7.7 0 1 1-1.4 0 .7.7 0 0 1 1.4 0m1.413 1.031a.468.468 0 1 1-.936.002.468.468 0 0 1 .936-.002M6.592 5.1a.468.468 0 1 1-.936 0 .468.468 0 0 1 .936 0m7.928 3.23l-1.213-1.014v.734H11.94a.279.279 0 0 0 0 .557h1.366v.74L14.52 8.33z"/>
		<path d="M14.12 5.546a6.592 6.592 0 0 0-5.372-4.08.781.781 0 0 0-.75-.563.781.781 0 0 0-.748.563 6.649 6.649 0 0 0-5.39 4.106h.001a.277.277 0 0 0 .5.237l.002-.001A6.1 6.1 0 0 1 7.29 2.02a.78.78 0 1 0 1.413.005 6.034 6.034 0 0 1 4.894 3.716c.048.125.143.228.28.228a.278.278 0 0 0 .278-.278c0-.053-.037-.145-.037-.145m-.678 5.413c-.198 0-.301.22-.357.314a6.03 6.03 0 0 1-4.368 2.732.784.784 0 0 0-1.438-.003c-2.771-.335-5.01-2.574-5.293-5.397h1.82a.28.28 0 0 0 0-.558H1.478a.077.077 0 0 0-.077.073l-.001.02a7.119 7.119 0 0 0 .032.496v.002a8.574 8.574 0 0 0 .038.31 6.625 6.625 0 0 0 5.786 5.61.782.782 0 0 0 .742.543.782.782 0 0 0 .742-.543c1.978-.224 3.702-1.335 4.79-2.944.043-.064.182-.24.187-.38a.271.271 0 0 0-.275-.275"/>
	</g>
</svg>
