<svg xmlns="http://www.w3.org/2000/svg" viewBox="0 0 16 16">
	<path d="M15.191 6.703c-.286-.028-.417-.004-.601.106a.95.95 0 0 0-.003 1.66 6.663 6.663 0 0 1-5.768 5.744.95.95 0 0 0-1.64.005 6.666 6.666 0 0 1-5.8-5.733.944.944 0 0 0-.004-1.693c-.001 0-.003 0-.005-.002a6.79 6.79 0 0 1 3.86-5.175c3.194-1.489 7.043-.26 8.785 2.797l-.816.381 1.717.804.488-1.832-.822.382C12.69.775 8.475-.586 4.966 1.05A7.412 7.412 0 0 0 .751 6.714.948.948 0 0 0 0 7.64a.95.95 0 0 0 .776.931 7.261 7.261 0 0 0 6.282 6.243.95.95 0 0 0 1.885-.005 7.258 7.258 0 0 0 6.243-6.232.948.948 0 0 0 .005-1.874"/>
	<path d="M6.272 7.82l.303.138.19.565.643-.185.045.02.279.611-.946 2.072-.531-1.01-1.111.26L6.272 7.82zm1.726-3.13a1.521 1.521 0 1 1 0 3.042 1.521 1.521 0 0 1 0-3.042zm2.855 5.6l-1.111-.26-.532 1.01-.945-2.072.279-.61.044-.02.643.184.19-.565.304-.139 1.128 2.472zm-6.56.697l1.708-.399.816 1.551 1.181-2.587 1.181 2.587.817-1.55 1.708.398-1.529-3.349-.109-.68.566-.466-.439-.586.287-.675-.662-.315-.06-.73-.732.028-.393-.619-.635.366-.635-.366-.392.62-.732-.029-.061.73-.661.315.286.675-.439.586.567.465-.11.681-1.528 3.35z"/>
</svg>
