<svg xmlns="http://www.w3.org/2000/svg" viewBox="0 0 16 16">
	<path d="M8.896 14.638a.954.954 0 0 0-.613-.513v-3.657l2.41.002c1.067 0 1.933-.89 1.933-1.986 0-1.097-.866-1.987-1.934-1.987-.09 0-.18.009-.267.022a2.484 2.484 0 0 0-4.618-.643 1.17 1.17 0 0 0-.215-.024c-.62 0-1.124.516-1.124 1.154 0 .157.032.309.088.445a1.509 1.509 0 0 0-1.213 1.492c0 .84.663 1.52 1.481 1.52l2.97.004v3.656a.955.955 0 0 0-.622.517 6.695 6.695 0 0 1-5.775-5.788.954.954 0 0 0 .001-1.688 6.697 6.697 0 0 1 5.79-5.781.952.952 0 0 0 1.7.003 6.697 6.697 0 0 1 5.763 5.755.951.951 0 0 0 .001 1.735 6.697 6.697 0 0 1-5.756 5.762M16 8.008a.954.954 0 0 0-.74-.93A7.294 7.294 0 0 0 8.975.782.954.954 0 0 0 7.101.779a7.296 7.296 0 0 0-6.307 6.29.953.953 0 0 0 0 1.879 7.295 7.295 0 0 0 6.31 6.298.954.954 0 0 0 1.863-.002 7.294 7.294 0 0 0 6.293-6.307.954.954 0 0 0 .74-.93"/>
</svg>
