<svg xmlns="http://www.w3.org/2000/svg" viewBox="0 0 800 800">
	<path d="M400.5 0C179.877 0 1 178.832 1 399.5c0 102.313 38.771 195.311 102.022 266.023C176.171 747.26 282.188 799 400.5 799c119.77 0 226.961-52.984 300.209-136.473C762.352 592.204 800 500.324 800 399.5 800 178.832 621.124 0 400.5 0zm279.141 608.978c-25.798-21.164-76.414-36.989-126.986-58.107-60.28-25.064-74.467-33.819-74.467-33.819l-.589-57.812s22.482-17.338 29.553-71.785c14.097 4.145 28.919-21.019 29.748-34.237.734-12.749-1.948-48.205-19.166-44.669 3.466-26.653 6.003-50.623 4.779-63.301-4.434-46.498-50.176-95.436-120.549-95.436-70.177 0-116.02 48.939-120.504 95.436-1.169 12.678 1.318 36.648 4.829 63.301-17.263-3.536-19.944 31.92-19.116 44.669.779 13.218 15.556 38.382 29.698 34.237 6.971 54.447 29.553 71.785 29.553 71.785l-.584 57.812s-14.242 8.755-74.422 33.819c-51.835 21.608-103.824 37.653-128.988 59.57C77.759 551.75 50.938 478.796 50.938 399.5c0-192.753 156.834-349.562 349.562-349.562S750.063 206.747 750.063 399.5c0 78.612-26.432 151.007-70.422 209.478z"/>
</svg>
