<svg xmlns="http://www.w3.org/2000/svg" viewBox="0 0 16 16">
	<g>
		<path d="M3.67986944,13.518 L3.67986944,4.753 L3.67986944,3.865 L3.67986944,2.842 L6.34737305,2.842 L6.34737305,13.518 L3.67986944,13.518 Z M0.887828762,11.607 L0.887828762,4.753 L2.79103634,4.753 L2.79103634,11.607 L0.887828762,11.607 Z M7.23620614,0 C6.74508819,0 6.34737305,0.398 6.34737305,0.889 L6.34737305,1.954 L3.67986944,1.954 C3.19176448,1.954 2.79103634,2.353 2.79103634,2.842 L2.79103634,3.865 L0.888833093,3.865 C0.399723809,3.865 0,4.265 0,4.753 L0,11.607 C0,12.096 0.399723809,12.496 0.888833093,12.496 L2.79103634,12.496 L2.79103634,13.518 C2.79103634,14.007 3.19176448,14.407 3.67986944,14.407 L6.34737305,14.407 L6.34737305,15.111 C6.34737305,15.602 6.74508819,16 7.23620614,16 L15.1111669,16 C15.6022849,16 16,15.602 16,15.111 L16,0.889 C16,0.398 15.6022849,0 15.1111669,0 L7.23620614,0 Z"/>
	</g>
</svg>
