<svg xmlns="http://www.w3.org/2000/svg" viewBox="0 0 16 16">
	<path d="M12.5 11a1.496 1.496 0 0 0-1.408 1H5.95a2.502 2.502 0 1 1-2.691-1.975v-1A3.492 3.492 0 1 0 6.949 13h4.143a1.498 1.498 0 1 0 1.408-2z"/>
	<path d="M9.884 1.667a3.492 3.492 0 0 0-3.946 5.742L3.81 11.04a1.496 1.496 0 1 0 .854.522L7.28 7.096l.025-.044a2.509 2.509 0 0 1-.456-.209 2.5 2.5 0 1 1 3.52-1.113l.864.506a3.49 3.49 0 0 0-1.35-4.57z"/>
	<path d="M15.557 10.799a3.49 3.49 0 0 0-4.3-1.553L9.241 5.627a1.5 1.5 0 1 0-.873.487l2.478 4.448.024.044a2.502 2.502 0 1 1-.415 3.311l-.875.488a3.492 3.492 0 0 0 5.977-3.606z"/>
</svg>
