<svg xmlns="http://www.w3.org/2000/svg" viewBox="0 0 16 16">
  <path d="M12.5,11a1.4957,1.4957,0,0,0-1.4082,1H5.94958a2.50163,2.50163,0,1,1-2.69073-1.97461V9.02429A3.49177,3.49177,0,1,0,6.94958,13H11.0918A1.49751,1.49751,0,1,0,12.5,11Z"/>
  <path d="M9.88373,1.66681a3.49224,3.49224,0,0,0-3.9458,5.74261l-2.12781,3.63a1.49644,1.49644,0,1,0,.85364.52118L7.28088,7.09595H7.28082l.02551-.04352a2.50876,2.50876,0,0,1-.45673-.20929L6.84937,6.843a2.50005,2.50005,0,1,1,3.52124-1.11334l.86365.50629A3.48956,3.48956,0,0,0,9.88373,1.66681Z"/>
  <path d="M15.55685,10.79888a3.49,3.49,0,0,0-4.29962-1.55328L9.24117,5.62706a1.5,1.5,0,1,0-.8736.48676l2.47821,4.448h.00006l.02454.04407a2.5016,2.5016,0,1,1-.41534,3.31158l-.87457.48724a3.49176,3.49176,0,0,0,5.97638-3.60583Z"/>
</svg>
