<svg xmlns="http://www.w3.org/2000/svg" viewBox="0 0 16 16">
	<path d="M5.817 5.713a.632.632 0 1 1 0-1.265.632.632 0 0 1 0 1.264m-2.138 0a.632.632 0 1 1 0-1.264.632.632 0 0 1 0 1.264m-2.089 0a.632.632 0 1 1 0-1.264.632.632 0 0 1 0 1.264m10.557-2.218H1.002C.452 3.494 0 3.945 0 4.497v10.89h13.15V4.497c0-.551-.452-1.003-1.003-1.003"/>
	<path d="M13.25 2.048H1.878a.33.33 0 1 0 0 .662H13.25c.37 0 .67.301.67.672v11.133a.33.33 0 1 0 .663 0V3.382c0-.735-.598-1.334-1.333-1.334"/>
	<path d="M14.667.612H3.109a.33.33 0 1 0 0 .662H14.36c.533.012.965.444.977.978v11.042a.33.33 0 1 0 .662 0V1.946c0-.735-.598-1.334-1.333-1.334"/>
</svg>
