<svg xmlns="http://www.w3.org/2000/svg" viewBox="0 0 16 16">
  <g transform="translate(0 .612)">
    <path d="M5.8172,5.1005 C5.4682,5.1005 5.1852,4.8175 5.1852,4.4685 C5.1852,4.1195 5.4682,3.8365 5.8172,3.8365 C6.1662,3.8365 6.4492,4.1195 6.4492,4.4685 C6.4492,4.8175 6.1662,5.1005 5.8172,5.1005 M3.6792,5.1005 C3.3302,5.1005 3.0472,4.8175 3.0472,4.4685 C3.0472,4.1195 3.3302,3.8365 3.6792,3.8365 C4.0282,3.8365 4.3112,4.1195 4.3112,4.4685 C4.3112,4.8175 4.0282,5.1005 3.6792,5.1005 M1.5902,5.1005 C1.2412,5.1005 0.9582,4.8175 0.9582,4.4685 C0.9582,4.1195 1.2412,3.8365 1.5902,3.8365 C1.9392,3.8365 2.2222,4.1195 2.2222,4.4685 C2.2222,4.8175 1.9392,5.1005 1.5902,5.1005 M12.1472,2.8815 L1.0022,2.8815 C0.4512,2.8815 0.0002,3.3335 0.0002,3.8855 L0.0002,14.7755 L13.1492,14.7755 L13.1492,3.8855 C13.1492,3.3335 12.6982,2.8815 12.1472,2.8815"/>
    <path d="M13.2498,1.4364 L1.8778,1.4364 C1.6948,1.4364 1.5468,1.5844 1.5468,1.7674 C1.5468,1.9504 1.6948,2.0984 1.8778,2.0984 L13.2498,2.0984 C13.6208,2.0984 13.9208,2.3994 13.9208,2.7704 L13.9208,13.9034 C13.9208,14.0864 14.0688,14.2344 14.2518,14.2344 C14.4348,14.2344 14.5828,14.0864 14.5828,13.9034 L14.5828,2.7704 C14.5828,2.0354 13.9848,1.4364 13.2498,1.4364"/>
    <path d="M14.6668,-0.0001 L3.1088,-0.0001 C2.9258,-0.0001 2.7778,0.1479 2.7778,0.3309 C2.7778,0.5139 2.9258,0.6619 3.1088,0.6619 L14.3608,0.6619 C14.8938,0.6739 15.3258,1.1059 15.3378,1.6399 L15.3378,12.6819 C15.3378,12.8649 15.4858,13.0129 15.6688,13.0129 C15.8518,13.0129 15.9998,12.8649 15.9998,12.6819 L15.9998,1.3339 C15.9998,0.5989 15.4018,-0.0001 14.6668,-0.0001"/>
  </g>
</svg>
