<svg xmlns="http://www.w3.org/2000/svg" viewBox="0 0 16 16"><path d="M.10054,9.25919A8.0698,8.0698,0,0,1,3.81818,1.1828a7.96509,7.96509,0,0,1,8.0727-.164,8.14938,8.14938,0,0,1,3.99389,8.32993,7.99469,7.99469,0,0,1-14.337,3.37658A7.93979,7.93979,0,0,1,.10054,9.25919Zm4.07931-.19453a1.14584,1.14584,0,0,0,1.78039.84214c.34369.072.98911.19153.80927.74463a2.27322,2.27322,0,0,1,.2268,1.78131c.31272.61961-.06544,1.7368.68788,2.02435.86772.007,1.13048-.92466,1.57807-1.47375-.19682-.68262,1.00309-.91466.45709-1.68029-.18633-.76713.67789-1.22821.98361-1.83682.18883-.36606.27725-.61861-.17784-.36956-.69387.0285-1.144-.67512-1.39574-1.23871.48156-.92216.7768.75913,1.16894.97967.78479-.09352,1.15146-.82564,1.44869-1.36423.48306-.054.74333.49108,1.18992.46158.35768.32105.11789,1.65228.69737,1.40874-.06594-.64261.47607-1.57977,1.079-1.48175-.033.71012.48356.35006.34119-.15553A6.70215,6.70215,0,0,0,11.92135,2.368c-.5495-.0115-.85673-.29305-1.07253-.10952-.06244.42657-.16935.69262-.70486.5871-.572-.20353-1.03257.74963-1.48016.38057.18283-.17553.39914-.90015-.25477-.83414-.7728.0015-1.80187-.105-2.245.67962-.1129.45358.66989.71962.81626.88715.39364-.75613,1.49565.18953.45559.237a3.90718,3.90718,0,0,0-2.12308.62561c.56249.33906.003.5561-.3357.5706-.08892.24754-.09991.86665.19432.76513.60895.13552,1.16245-1.31673,1.76041-.52609.16235.33656.69537.50059.36367-.045-.25227-.256-.40314-.74513.05695-.31155.13338.19853.85123,1.23971.71236.51809.10241-.51709.37816.5551.7688.40457.84474.36206-.09641,1.10669-.67589.80564-.46358.05651-.68638.5856-1.12248.043-.26826-.163-.00849-.69662-.581-.47608-.80827.04851-1.61254.15353-1.9912.99167-.41812.39957-.16735.99917-.28324,1.50226ZM5.086,4.30384c.29074.5981,1.48466-.15553.78979-.74913-.47107-.5921-.9951-.09152-.498.42507-.0015.18-.16735.24054-.29124.32406Z"/></svg>
