<svg width="16" height="16" viewBox="0 0 16 16" fill="none" xmlns="http://www.w3.org/2000/svg">
<g clip-path="url(#clip0_2064_17228)">
<path d="M2.82 0.004C2.20124 0.0443216 1.60969 0.273263 1.125 0.66C1 0.758 0.758002 1 0.660002 1.125C0.297002 1.582 0.0900016 2.082 0.0200016 2.672C0.00400162 2.782 0.00400162 3.043 0.00400162 7.996C0.00400162 12.992 0.00400162 13.211 0.0200016 13.328C0.0590016 13.684 0.152002 14.008 0.305002 14.316C0.52655 14.7696 0.858998 15.1599 1.27154 15.4507C1.68409 15.7416 2.16338 15.9237 2.665 15.98C2.754 15.996 3.109 15.996 7.915 16C11.59 16 13.102 16 13.191 15.992C13.6385 15.9654 14.0741 15.8378 14.4652 15.6187C14.8563 15.3996 15.1926 15.0947 15.449 14.727C15.746 14.305 15.914 13.863 15.98 13.328C15.996 13.218 15.996 12.988 15.996 8C15.996 3.012 15.996 2.781 15.98 2.672C15.9186 2.10584 15.6965 1.56906 15.34 1.125C15.1977 0.955279 15.0407 0.798346 14.871 0.656C14.4298 0.303141 13.8975 0.0826138 13.336 0.02C13.234 0.004 12.946 0.004 8.046 0.004H2.82ZM5.195 4.02C5.445 4.074 5.656 4.207 5.809 4.41C5.844 4.46 6.152 5.074 7.391 7.543C7.91393 8.58488 8.43193 9.62923 8.945 10.676C8.98239 10.7798 8.9997 10.8897 8.996 11C8.99839 11.0654 8.99302 11.1309 8.98 11.195C8.895 11.598 8.598 11.895 8.195 11.98C8.06573 11.9995 7.93427 11.9995 7.805 11.98C7.55954 11.9294 7.34111 11.7907 7.191 11.59C7.08261 11.4032 6.98251 11.2117 6.891 11.016L6.633 10.5H3.367L3.109 11.016C2.918 11.395 2.839 11.543 2.809 11.59C2.6589 11.7907 2.44046 11.9294 2.195 11.98C2.06573 11.9995 1.93427 11.9995 1.805 11.98C1.61135 11.9411 1.43352 11.8458 1.29385 11.7062C1.15418 11.5665 1.05891 11.3887 1.02 11.195C1.00698 11.1309 1.00161 11.0654 1.004 11C0.999985 10.8898 1.01695 10.7799 1.054 10.676C1.066 10.641 1.746 9.273 2.609 7.543C3.844 5.074 4.156 4.461 4.191 4.41C4.34637 4.20338 4.57375 4.06274 4.828 4.016C4.859 4.012 4.891 4.004 4.898 4.004C4.99728 4.00016 5.09671 4.00551 5.195 4.02ZM11.195 4.02C11.551 4.098 11.84 4.348 11.949 4.684C12 4.84 11.996 4.75 11.996 5.926L12 7L12.367 7.004C12.747 7.008 12.793 7.012 12.984 7.047C13.4989 7.14976 13.9685 7.41159 14.3266 7.79555C14.6848 8.17951 14.9133 8.66621 14.98 9.187C15 9.324 15 9.676 14.98 9.813C14.9137 10.3333 14.6858 10.8197 14.3284 11.2036C13.971 11.5875 13.5022 11.8496 12.988 11.953C12.762 11.996 12.781 11.996 11.789 11.996C10.929 11.996 10.867 11.996 10.805 11.98C10.6114 11.9411 10.4335 11.8458 10.2938 11.7062C10.1542 11.5665 10.0589 11.3887 10.02 11.195C10.004 11.133 10.004 10.996 10.004 8C10.004 5.004 10.004 4.867 10.02 4.805C10.074 4.555 10.207 4.344 10.406 4.195C10.523 4.109 10.691 4.039 10.828 4.015C10.859 4.012 10.891 4.004 10.898 4.004C10.9973 4.00016 11.0967 4.00551 11.195 4.02Z" fill="#202020"/>
<path d="M4.68 7.871L4.367 8.5H5.633L5.32 7.871C5.145 7.523 5.004 7.242 5 7.242C4.996 7.242 4.855 7.523 4.68 7.872V7.871ZM12 10H12.3C12.582 9.996 12.602 9.996 12.648 9.977C12.725 9.95231 12.795 9.90944 12.852 9.852C12.9074 9.79652 12.9501 9.72963 12.977 9.656C12.9937 9.60578 13.0005 9.5528 12.997 9.5C13.0005 9.4472 12.9937 9.39422 12.977 9.344C12.9495 9.26858 12.9053 9.2003 12.8479 9.14422C12.7904 9.08814 12.7211 9.04569 12.645 9.02C12.602 9.004 12.575 9.004 12.301 9H12V10Z" fill="#202020"/>
</g>
<defs>
<clipPath id="clip0_2064_17228">
<rect width="16" height="16" fill="white"/>
</clipPath>
</defs>
</svg>
