<svg width="16" height="16" viewBox="0 0 16 16" fill="none" xmlns="http://www.w3.org/2000/svg">
<path d="M10.313 3.125C10.0088 3.15234 9.71983 3.27084 9.484 3.465C9.316 3.605 9.164 3.813 9.078 4.015C9.063 4.055 8.555 5.453 7.953 7.125C7.348 8.797 6.855 10.165 6.852 10.165C6.848 10.165 6.578 9.477 6.246 8.637C6.03736 8.09848 5.82402 7.56179 5.606 7.027C5.50603 6.81065 5.35427 6.62228 5.16415 6.47856C4.97403 6.33484 4.75141 6.24019 4.516 6.203C4.102 6.133 3.652 6.243 3.328 6.496C3.12294 6.65751 2.96424 6.87037 2.868 7.113C2.75018 7.49136 2.63784 7.8714 2.531 8.253L1.715 8.262C0.977002 8.262 0.887002 8.266 0.825002 8.277C0.63081 8.31167 0.451151 8.40283 0.308501 8.53907C0.165851 8.67532 0.0665432 8.85061 0.0230018 9.043C0.00688713 9.11347 0.000162171 9.18577 0.00300179 9.258C0.00300179 9.398 0.0160018 9.465 0.0550018 9.582C0.156002 9.882 0.398002 10.117 0.703002 10.215C0.843002 10.258 0.836002 10.258 1.832 10.254C2.836 10.254 2.782 10.254 2.996 10.204C3.296 10.129 3.578 9.988 3.813 9.793C3.895 9.723 4.027 9.586 4.093 9.503C4.145 9.437 4.246 9.285 4.285 9.219C4.301 9.188 4.309 9.179 4.312 9.188C4.316 9.195 4.586 9.875 4.914 10.703C5.238 11.531 5.52 12.234 5.535 12.266C5.711 12.617 6.004 12.875 6.371 13C6.926 13.191 7.547 13.05 7.941 12.64C8.05702 12.5237 8.15118 12.3876 8.219 12.238C8.246 12.18 8.371 11.844 8.547 11.368C9.847 7.758 10.395 6.25 10.398 6.25C10.398 6.25 10.5 6.586 10.618 6.996C11.082 8.613 11.164 8.891 11.195 8.973C11.3258 9.3149 11.5478 9.61437 11.837 9.83883C12.1262 10.0633 12.4714 10.2041 12.835 10.246C12.98 10.262 15.055 10.262 15.16 10.246C15.414 10.207 15.648 10.062 15.805 9.856C15.887 9.746 15.961 9.57 15.985 9.43C15.992 9.395 15.996 9.32 15.996 9.25C15.9926 9.01811 15.9091 8.79454 15.7596 8.6172C15.6101 8.43986 15.404 8.31967 15.176 8.277C15.113 8.262 15.016 8.262 14.082 8.257L13.059 8.254L12.473 6.219C12.148 5.098 11.875 4.149 11.859 4.109C11.664 3.547 11.172 3.176 10.566 3.125C10.4815 3.11718 10.3975 3.11718 10.313 3.125Z" fill="#202020"/>
</svg>
