<svg width="16" height="16" viewBox="0 0 16 16" fill="none" xmlns="http://www.w3.org/2000/svg">
<g clip-path="url(#clip0_2064_17700)">
<path d="M2.82 0.004C2.20124 0.0443216 1.60969 0.273263 1.125 0.66C1 0.758 0.758002 1 0.660002 1.125C0.297002 1.582 0.0900016 2.082 0.0200016 2.672C0.00400162 2.782 0.00400162 3.043 0.00400162 7.996C0.00400162 12.992 0.00400162 13.211 0.0200016 13.328C0.0590016 13.684 0.152002 14.008 0.305002 14.316C0.52655 14.7696 0.858998 15.1599 1.27154 15.4507C1.68409 15.7416 2.16338 15.9237 2.665 15.98C2.754 15.996 3.109 15.996 7.915 16C11.59 16 13.102 16 13.191 15.992C13.6385 15.9654 14.0741 15.8378 14.4652 15.6187C14.8563 15.3996 15.1926 15.0947 15.449 14.727C15.746 14.305 15.914 13.863 15.98 13.328C15.996 13.218 15.996 12.988 15.996 8C15.996 3.012 15.996 2.781 15.98 2.672C15.9186 2.10584 15.6965 1.56906 15.34 1.125C15.1977 0.955279 15.0407 0.798346 14.871 0.656C14.4298 0.303141 13.8975 0.0826138 13.336 0.02C13.234 0.004 12.946 0.004 8.046 0.004H2.82ZM4.63 3.262C4.77578 3.2888 4.9104 3.35802 5.017 3.461C5.087 3.527 5.157 3.621 5.188 3.703C5.224 3.785 7.728 11.809 7.739 11.875C7.7699 12.0531 7.73545 12.2363 7.642 12.391C7.57503 12.4892 7.49023 12.574 7.392 12.641C7.25096 12.7272 7.08526 12.7639 6.92102 12.7454C6.75679 12.727 6.60338 12.6543 6.485 12.539C6.41329 12.4713 6.35524 12.3905 6.314 12.301C6.302 12.273 6.118 11.691 5.904 11L5.513 9.75H3.488L3.098 11C2.96467 11.4344 2.828 11.8677 2.688 12.3C2.64669 12.3903 2.58828 12.4718 2.516 12.54C2.39738 12.655 2.24386 12.7273 2.07963 12.7454C1.91541 12.7635 1.74983 12.7264 1.609 12.64C1.51077 12.573 1.42598 12.4882 1.359 12.39C1.26579 12.2356 1.23136 12.0527 1.262 11.875C1.273 11.809 3.777 3.785 3.812 3.703C3.85205 3.61135 3.91061 3.52896 3.984 3.461C4.06803 3.37902 4.1703 3.31814 4.28243 3.28337C4.39456 3.2486 4.51333 3.24094 4.629 3.261L4.63 3.262ZM9.86 3.27C10.614 3.36 11.274 3.676 11.798 4.203C12.052 4.457 12.235 4.711 12.399 5.035C12.583 5.398 12.685 5.738 12.731 6.148C12.751 6.308 12.751 6.691 12.731 6.855C12.6803 7.32843 12.5255 7.78478 12.2778 8.19139C12.03 8.598 11.6954 8.94481 11.298 9.207C10.846 9.50705 10.3263 9.68956 9.786 9.738L9.751 9.742V10.902C9.751 12.172 9.751 12.125 9.704 12.262C9.66543 12.3623 9.60625 12.4533 9.53028 12.5293C9.45432 12.6052 9.36326 12.6644 9.263 12.703C9.09395 12.7656 8.90805 12.7656 8.739 12.703C8.63874 12.6644 8.54768 12.6052 8.47172 12.5293C8.39576 12.4533 8.33658 12.3623 8.298 12.262C8.248 12.117 8.251 12.469 8.251 7.965L8.255 3.871L8.271 3.809C8.31099 3.66717 8.39053 3.53965 8.50032 3.44137C8.61012 3.34309 8.74563 3.2781 8.891 3.254H9.333C9.665 3.254 9.778 3.258 9.86 3.27ZM14.13 3.262C14.2819 3.28713 14.4215 3.36081 14.528 3.472C14.61 3.555 14.669 3.641 14.704 3.738C14.754 3.878 14.751 3.535 14.751 8C14.751 12.465 14.755 12.121 14.704 12.262C14.6654 12.3623 14.6062 12.4533 14.5303 12.5293C14.4543 12.6052 14.3633 12.6644 14.263 12.703C14.094 12.7656 13.9081 12.7656 13.739 12.703C13.6387 12.6644 13.5477 12.6052 13.4717 12.5293C13.3958 12.4533 13.3366 12.3623 13.298 12.262C13.248 12.122 13.251 12.465 13.251 8C13.251 3.535 13.247 3.879 13.298 3.738C13.3368 3.63722 13.3965 3.5458 13.4732 3.46979C13.5499 3.39377 13.6419 3.33488 13.743 3.297C13.8664 3.25044 14.0002 3.23834 14.13 3.262Z" fill="currentColor"/>
<path d="M4.23 7.375C4.086 7.844 3.965 8.23 3.96 8.235C3.96 8.25 3.988 8.25 4.5 8.25C5.012 8.25 5.04 8.25 5.04 8.234C5.016 8.16 4.504 6.531 4.5 6.531C4.496 6.531 4.375 6.911 4.23 7.375ZM9.75 8.234L9.813 8.223C10.168 8.156 10.477 7.993 10.734 7.734C11.008 7.464 11.172 7.137 11.23 6.75C11.2495 6.58391 11.2495 6.41609 11.23 6.25C11.1951 6.00479 11.1081 5.7699 10.9747 5.56118C10.8414 5.35245 10.6648 5.17473 10.457 5.04C10.2617 4.91012 10.0424 4.82069 9.812 4.777L9.75 4.766V8.234Z" fill="currentColor"/>
</g>
<defs>
<clipPath id="clip0_2064_17700">
<rect width="16" height="16" fill="white"/>
</clipPath>
</defs>
</svg>
