<svg width="16" height="16" viewBox="0 0 16 16" fill="none" xmlns="http://www.w3.org/2000/svg">
<path d="M9.89 3.418C9.63017 3.45155 9.39226 3.58102 9.223 3.781C9.10432 3.92634 9.02971 4.10262 9.008 4.289C9.004 4.332 9 4.656 9 5.176V6L5.434 6.004C2.027 6.004 1.859 6.004 1.804 6.02C1.61109 6.05952 1.43448 6.15602 1.297 6.297C1.14766 6.44166 1.04909 6.63073 1.016 6.836C1.00038 7.61192 1.00038 8.38808 1.016 9.164C1.055 9.383 1.145 9.551 1.296 9.704C1.43415 9.84497 1.61149 9.94113 1.805 9.98C1.859 9.996 2.027 9.996 5.434 9.996L9 10V10.824C9 11.344 9.004 11.668 9.008 11.711C9.03263 11.9124 9.11855 12.1014 9.25413 12.2523C9.3897 12.4033 9.56839 12.509 9.766 12.555C9.934 12.598 10.129 12.594 10.296 12.543C10.391 12.512 10.508 12.453 10.586 12.395C10.629 12.363 11.27 11.727 12.516 10.48C14.141 8.852 14.386 8.605 14.418 8.55C14.5287 8.38828 14.5861 8.19596 14.582 8C14.5861 7.80404 14.5287 7.61172 14.418 7.45C14.387 7.395 14.141 7.148 12.516 5.52C11.27 4.273 10.629 3.637 10.586 3.605C10.4607 3.51136 10.3145 3.44958 10.16 3.425C10.0705 3.41304 9.97999 3.41069 9.89 3.418Z" fill="currentColor"/>
</svg>
