<svg width="16" height="16" viewBox="0 0 16 16" fill="none" xmlns="http://www.w3.org/2000/svg">
<path d="M7.871 1.42201C7.727 1.44201 7.574 1.50001 7.453 1.57801C7.387 1.62101 7.211 1.79701 5.516 3.48801C4.273 4.73001 3.636 5.37101 3.606 5.41401C3.51162 5.54039 3.4498 5.68807 3.426 5.84401C3.40513 5.97633 3.41105 6.1115 3.44343 6.24149C3.4758 6.37148 3.53396 6.49364 3.61446 6.60071C3.69495 6.70779 3.79614 6.79761 3.91202 6.86482C4.02789 6.93204 4.15609 6.97529 4.289 6.99201C4.332 6.99601 4.656 7.00001 5.176 7.00001H6L6.004 10.566C6.004 13.973 6.004 14.141 6.02 14.196C6.07 14.41 6.152 14.559 6.297 14.703C6.449 14.855 6.617 14.945 6.836 14.984C6.875 14.992 7.129 14.996 8 14.996C8.871 14.996 9.125 14.992 9.164 14.984C9.3695 14.9514 9.55894 14.8532 9.704 14.704C9.84497 14.5659 9.94113 14.3885 9.98 14.195C9.996 14.141 9.996 13.973 9.996 10.57L10 7.00001L10.867 6.99601C11.645 6.99601 11.734 6.99201 11.785 6.98001C11.9204 6.95328 12.0486 6.89855 12.1616 6.81933C12.2746 6.74012 12.3697 6.63816 12.441 6.52001C12.586 6.27301 12.625 5.96901 12.543 5.70301C12.5079 5.60002 12.4581 5.50268 12.395 5.41401C12.363 5.37101 11.727 4.73001 10.48 3.48401C8.488 1.49201 8.59 1.59401 8.437 1.51601C8.35887 1.47822 8.27618 1.45066 8.191 1.43401C8.08509 1.41833 7.97779 1.41431 7.871 1.42201Z" fill="currentColor"/>
</svg>
