<svg width="16" height="16" viewBox="0 0 16 16" fill="none" xmlns="http://www.w3.org/2000/svg">
<path d="M1.39 1.012C1.29942 1.03372 1.21643 1.0796 1.14987 1.14476C1.08331 1.20992 1.03566 1.2919 1.012 1.382C1 1.427 1 1.599 1 2.77C1 4.234 0.996001 4.148 1.047 4.254C1.097 4.359 1.176 4.434 1.285 4.484C1.363 4.524 1.418 4.535 1.5 4.535C1.5761 4.5376 1.65157 4.52037 1.719 4.485C1.785 4.453 1.789 4.449 2.102 4.137L2.414 3.824L3.48 4.887C4.64 6.05 4.566 5.98 4.7 6.016C4.79638 6.03874 4.89702 6.03598 4.992 6.008C5.102 5.965 5.117 5.953 5.535 5.535C5.953 5.117 5.965 5.102 6.008 4.992C6.03616 4.8967 6.03892 4.79569 6.016 4.699C5.98 4.566 6.051 4.641 4.886 3.48L3.825 2.414L4.13 2.109C4.349 1.891 4.442 1.789 4.466 1.754C4.52193 1.6585 4.54425 1.54702 4.52938 1.43735C4.51452 1.32768 4.46333 1.22616 4.384 1.149C4.33144 1.08984 4.26364 1.04625 4.188 1.023L4.13 1.003H2.785C1.656 0.999996 1.434 1.003 1.391 1.012H1.39ZM11.879 1.008C11.7785 1.02418 11.6863 1.07346 11.617 1.148C11.5374 1.227 11.4865 1.33033 11.4724 1.44158C11.4583 1.55282 11.4817 1.6656 11.539 1.762C11.555 1.785 11.695 1.934 11.871 2.109L12.176 2.414L11.113 3.48C10.074 4.52 10.047 4.543 10.02 4.602C9.97929 4.67868 9.96158 4.76549 9.969 4.852C9.977 4.949 9.992 5.012 10.039 5.09C10.055 5.113 10.211 5.277 10.465 5.531C10.891 5.961 10.902 5.973 11.015 6.008C11.1079 6.03613 11.2067 6.0389 11.301 6.016C11.434 5.98 11.359 6.051 12.52 4.886L13.586 3.824L13.898 4.137C14.211 4.449 14.215 4.453 14.281 4.484C14.363 4.524 14.414 4.535 14.5 4.535C14.5748 4.53756 14.649 4.52031 14.715 4.485C14.8196 4.43925 14.9041 4.3572 14.953 4.254C15.003 4.148 15 4.234 15 2.77C15 1.29 15.004 1.39 14.95 1.273C14.8996 1.17934 14.8218 1.10329 14.727 1.055C14.605 0.995996 14.703 0.999996 13.234 0.999996C12.512 0.999996 11.902 1.004 11.879 1.008ZM4.688 9.988C4.566 10.023 4.625 9.968 3.48 11.113L2.414 12.176L2.102 11.863C1.789 11.551 1.785 11.547 1.719 11.516C1.65167 11.4803 1.57619 11.4627 1.5 11.465C1.42518 11.4624 1.35101 11.4797 1.285 11.515C1.18039 11.5607 1.09585 11.6428 1.047 11.746C0.997001 11.852 1 11.766 1 13.23C1 14.715 0.996001 14.613 1.055 14.727C1.094 14.812 1.184 14.898 1.273 14.945C1.395 15.004 1.297 15 2.793 15L4.129 14.996L4.191 14.973C4.26212 14.9489 4.32695 14.9092 4.38071 14.8568C4.43448 14.8043 4.47583 14.7405 4.50172 14.67C4.52762 14.5996 4.5374 14.5242 4.53035 14.4494C4.52331 14.3746 4.49961 14.3024 4.461 14.238C4.35471 14.1182 4.24396 14.0025 4.129 13.891L3.824 13.586L4.887 12.52C6.051 11.36 5.98 11.434 6.016 11.3C6.031 11.25 6.031 11.227 6.031 11.148C6.02807 11.064 6.004 10.9822 5.961 10.91C5.921 10.844 5.156 10.078 5.09 10.04C5.01741 9.99163 4.93109 9.96812 4.844 9.973C4.79121 9.96613 4.73754 9.97125 4.687 9.988H4.688ZM11.031 9.988C10.9791 10.0007 10.9302 10.0235 10.887 10.055C10.7441 10.1907 10.6034 10.3287 10.465 10.469C10.199 10.734 10.055 10.883 10.039 10.91C9.99495 10.9817 9.97079 11.0639 9.969 11.148C9.96128 11.2344 9.97864 11.3212 10.019 11.398C10.047 11.457 10.074 11.48 11.113 12.52L12.176 13.586L11.871 13.891C11.756 14.0025 11.6453 14.1182 11.539 14.238C11.4805 14.3339 11.4564 14.4468 11.4706 14.5582C11.4848 14.6696 11.5364 14.7728 11.617 14.851C11.6696 14.9102 11.7374 14.9537 11.813 14.977L11.871 14.997L13.207 15C14.703 15 14.605 15.004 14.727 14.945C14.8203 14.8963 14.8964 14.8203 14.945 14.727C15.004 14.613 15 14.715 15 13.23C15 11.766 15.004 11.852 14.953 11.746C14.8929 11.6278 14.7891 11.5377 14.6636 11.4948C14.5382 11.4518 14.4009 11.4595 14.281 11.516C14.215 11.546 14.211 11.551 13.898 11.863L13.586 12.176L12.52 11.113C11.48 10.074 11.457 10.047 11.398 10.02C11.327 9.98349 11.2478 9.96593 11.168 9.969C11.1215 9.96676 11.0749 9.97355 11.031 9.989V9.988Z" fill="currentColor"/>
</svg>
