<svg width="16" height="16" viewBox="0 0 16 16" fill="none" xmlns="http://www.w3.org/2000/svg">
<g clip-path="url(#clip0_2064_18923)">
<path d="M7.785 0.00399617C7.09168 0.0335446 6.41217 0.207583 5.79 0.514963C5.16784 0.822343 4.61674 1.25629 4.172 1.789C3.55134 2.5243 3.15771 3.42411 3.039 4.379C3.01236 4.58622 3.00067 4.79509 3.004 5.004C3.004 5.274 3.012 5.402 3.039 5.625C3.047 5.691 3.062 5.813 3.074 5.898C3.102 6.102 3.121 6.336 3.133 6.539C3.14299 6.80736 3.13898 7.07605 3.121 7.344C3.08789 7.76331 2.97558 8.17253 2.79 8.55C2.763 8.612 2.552 8.972 2.321 9.35C2.091 9.73 1.884 10.085 1.861 10.136C1.76431 10.3378 1.70083 10.5539 1.673 10.776C1.657 10.886 1.661 11.132 1.677 11.246C1.7145 11.534 1.81335 11.8106 1.96688 12.0571C2.12042 12.3036 2.32507 12.5143 2.567 12.675C2.61 12.702 2.704 12.757 2.778 12.792C3.013 12.905 3.231 12.968 3.493 12.992C3.618 13.002 12.383 13.002 12.509 12.992C12.771 12.968 13.001 12.905 13.235 12.788C13.435 12.69 13.579 12.585 13.739 12.425C14.247 11.925 14.45 11.202 14.282 10.522C14.2431 10.3612 14.1826 10.2065 14.102 10.062C14.083 10.026 13.888 9.694 13.665 9.327C13.267 8.659 13.177 8.503 13.103 8.315C12.883 7.757 12.813 7.097 12.888 6.245C12.896 6.167 12.911 6.007 12.927 5.89C13.013 5.222 13.021 4.929 12.97 4.452C12.8318 3.19083 12.2192 2.02941 11.2564 1.20324C10.2935 0.377063 9.05252 -0.0520185 7.785 0.00299617V0.00399617ZM6.395 14.012C6.195 14.055 6.055 14.215 6.055 14.395C6.051 14.594 6.246 15.02 6.461 15.273C6.71875 15.5851 7.06512 15.8116 7.45436 15.9227C7.8436 16.0338 8.25737 16.0241 8.641 15.895C8.78845 15.8398 8.93068 15.7715 9.066 15.691C9.273 15.562 9.476 15.371 9.621 15.168C9.793 14.934 9.945 14.57 9.945 14.398C9.945 14.211 9.805 14.055 9.602 14.012C9.547 14 9.372 14 7.996 14C6.66 14 6.441 14.004 6.395 14.012Z" fill="#202020"/>
</g>
<defs>
<clipPath id="clip0_2064_18923">
<rect width="16" height="16" fill="white"/>
</clipPath>
</defs>
</svg>
