<svg width="16" height="16" viewBox="0 0 16 16" fill="none" xmlns="http://www.w3.org/2000/svg">
<path d="M7.645 0.00798532C6.9351 0.0389631 6.23239 0.163368 5.555 0.377985C4.715 0.647985 3.902 1.06599 3.191 1.60199C2.19865 2.34697 1.39384 3.31324 0.840571 4.42394C0.287305 5.53464 0.000853145 6.75912 0.00400112 7.99999C-0.00080554 9.49017 0.412428 10.9518 1.19676 12.2189C1.98108 13.486 3.10506 14.5077 4.441 15.168C4.77 15.328 5.023 15.438 5.344 15.551C6.73102 16.0325 8.2228 16.1283 9.66 15.828C11.3522 15.4701 12.8829 14.5737 14.023 13.273C15.0658 12.0794 15.7306 10.603 15.933 9.03099C15.98 8.65599 15.996 8.41098 15.996 7.99999C15.996 7.58999 15.98 7.34399 15.934 6.96899C15.6729 4.94741 14.65 3.10176 13.074 1.80899C11.7905 0.754225 10.2087 0.128225 8.551 0.0189853C8.348 0.00498532 7.832 -0.00101468 7.645 0.00798532ZM8.496 2.01999C9.38247 2.09114 10.2419 2.35912 11.0117 2.8044C11.7815 3.24968 12.4423 3.86105 12.946 4.59399C13.8303 5.88204 14.1788 7.46354 13.918 9.00399C13.7395 10.0694 13.2759 11.0667 12.5764 11.89C11.877 12.7132 10.9676 13.3318 9.945 13.68C9.012 14 7.985 14.082 6.996 13.918C5.7673 13.7127 4.63364 13.1281 3.754 12.246C3.14447 11.6396 2.67395 10.9081 2.375 10.102C2.1762 9.56596 2.05498 9.00429 2.015 8.43399C1.99935 8.14486 1.99935 7.85511 2.015 7.56599C2.07549 6.70725 2.32027 5.87162 2.7327 5.11598C3.14512 4.36033 3.71549 3.70241 4.405 3.18699C5.31248 2.51128 6.39291 2.10664 7.521 2.01999C7.743 2.00399 7.755 1.99999 8.067 2.00399C8.243 2.00799 8.41 2.01199 8.496 2.01999Z" fill="#202020"/>
<path d="M10.871 4.00799C10.727 4.02799 10.574 4.08599 10.453 4.16399C10.387 4.20699 10.117 4.47299 7.297 7.29699C4.563 10.031 4.207 10.387 4.168 10.445C4.05694 10.6084 3.99962 10.8024 4.004 11C4.004 11.277 4.098 11.508 4.297 11.703C4.45865 11.8701 4.67532 11.9731 4.907 11.993C5.152 12.02 5.414 11.941 5.613 11.789C5.633 11.773 7.035 10.375 8.723 8.68799C11.418 5.98799 11.801 5.60499 11.832 5.55099C11.9429 5.38898 12.0003 5.19628 11.996 4.99999C11.999 4.86883 11.9745 4.7385 11.9241 4.61741C11.8736 4.49632 11.7983 4.38716 11.703 4.29699C11.5652 4.15383 11.3862 4.05704 11.191 4.01999C11.0851 4.00432 10.9778 4.0003 10.871 4.00799Z" fill="#202020"/>
</svg>
