<svg width="16" height="16" viewBox="0 0 16 16" fill="none" xmlns="http://www.w3.org/2000/svg">
<g clip-path="url(#clip0_2435_14238)">
<path d="M3.367 0.00802832C3.109 0.0310283 2.879 0.0980283 2.657 0.207028C2.383 0.340028 2.172 0.507028 1.969 0.757028C1.945 0.785028 1.598 1.30103 1.195 1.90203L0.465 3.00003H0L0.004 8.11703C0.004 12.895 0.004 13.247 0.02 13.336C0.055 13.617 0.105 13.82 0.188 14.046C0.461 14.777 1.02 15.383 1.727 15.715C2.023 15.852 2.301 15.934 2.664 15.98C2.754 15.996 3.109 15.996 7.914 16C11.582 16 13.102 16 13.191 15.992C13.8043 15.9538 14.3909 15.7275 14.871 15.344C15 15.242 15.238 15 15.34 14.875C15.7223 14.397 15.9497 13.8137 15.992 13.203C15.996 13.133 16 11.352 16 8.04703V3.00003H15.535L14.797 1.89003C14.02 0.730028 13.988 0.689028 13.84 0.548028C13.5403 0.267699 13.1634 0.0837652 12.758 0.0200283L12.66 0.00402832H8.047C5.507 0.00402832 3.402 0.00402832 3.367 0.00802832ZM12.801 2.50003L13.133 3.00003H2.867L3.199 2.50003L3.535 2.00003H12.465L12.801 2.50003ZM14 9.03503C14 13.395 14.004 13.133 13.96 13.281C13.924 13.3904 13.8732 13.4944 13.809 13.59C13.7103 13.7211 13.5818 13.8267 13.434 13.898C13.3451 13.9455 13.2481 13.9761 13.148 13.988C13.035 14.004 2.965 14.004 2.852 13.988C2.7519 13.9761 2.65491 13.9455 2.566 13.898C2.41823 13.8267 2.28966 13.7211 2.191 13.59C2.12643 13.4945 2.07529 13.3905 2.039 13.281C1.996 13.133 2 13.395 2 9.03503V5.00003H14V9.03503Z" fill="currentColor"/>
<path d="M4.871 7.00803C4.66321 7.03538 4.46927 7.12732 4.31657 7.27087C4.16386 7.41442 4.06012 7.60232 4.02 7.80803C4 7.90203 4 8.09803 4.02 8.19103C4.05894 8.3865 4.15513 8.56598 4.29634 8.70665C4.43754 8.84732 4.61738 8.94282 4.813 8.98103C4.875 8.99603 5.016 8.99603 8 8.99603C10.965 8.99603 11.125 8.99603 11.191 8.98003C11.3868 8.94171 11.5666 8.84573 11.7073 8.70442C11.8481 8.56311 11.9434 8.38292 11.981 8.18703C12 8.09703 12 7.90203 11.981 7.81303C11.9442 7.61943 11.8511 7.44097 11.7135 7.29994C11.5758 7.15891 11.3997 7.06155 11.207 7.02003L11.137 7.00403H8.03C6.26 7.00403 4.902 7.00403 4.871 7.00803ZM4.871 10.008C4.66321 10.0354 4.46927 10.1273 4.31657 10.2709C4.16386 10.4144 4.06012 10.6023 4.02 10.808C4 10.902 4 11.098 4.02 11.191C4.05894 11.3865 4.15513 11.566 4.29634 11.7066C4.43754 11.8473 4.61738 11.9428 4.813 11.981C4.875 11.996 5.016 11.996 8 11.996C10.965 11.996 11.125 11.996 11.191 11.98C11.3868 11.9417 11.5666 11.8457 11.7073 11.7044C11.8481 11.5631 11.9434 11.3829 11.981 11.187C12 11.097 12 10.902 11.981 10.813C11.9442 10.6194 11.8511 10.441 11.7135 10.2999C11.5758 10.1589 11.3997 10.0616 11.207 10.02L11.137 10.004H8.03C6.26 10.004 4.902 10.004 4.871 10.008Z" fill="currentColor"/>
</g>
<defs>
<clipPath id="clip0_2435_14238">
<rect width="16" height="16" fill="white"/>
</clipPath>
</defs>
</svg>
