<svg width="16" height="16" viewBox="0 0 16 16" fill="none" xmlns="http://www.w3.org/2000/svg">
<path d="M14.871 0.00799941C14.727 0.0279994 14.574 0.0859994 14.453 0.163999C14.387 0.206999 14.07 0.52 10.711 3.883L7.039 7.55L6.957 7.526C6.74019 7.46108 6.51531 7.42708 6.289 7.425C5.852 7.409 5.504 7.479 5.059 7.671C4.89387 7.73641 4.7387 7.8246 4.598 7.933C4.477 8.023 4.398 8.093 4.191 8.296C3.863 8.616 3.578 8.874 3.293 9.108C2.395 9.847 1.52 10.338 0.718999 10.554C0.571524 10.5855 0.432019 10.6468 0.308999 10.734C0.0819988 10.897 -0.0350012 11.14 0.0119988 11.366C0.0269988 11.448 0.124999 11.741 0.183999 11.886C0.312999 12.198 0.507999 12.581 0.659999 12.819C0.776108 12.9885 0.949318 13.1106 1.148 13.163C1.215 13.179 1.238 13.183 1.348 13.183C1.457 13.183 1.48 13.179 1.547 13.163C1.668 13.128 1.738 13.097 1.887 12.995C2.211 12.78 2.52 12.538 2.766 12.315C2.91224 12.1642 3.10034 12.0608 3.306 12.018C3.395 11.999 3.602 11.999 3.691 12.018C4.098 12.104 4.395 12.401 4.481 12.804C4.5 12.897 4.5 13.101 4.481 13.194C4.441 13.37 4.367 13.526 4.254 13.655C4.133 13.792 3.774 14.101 3.422 14.358C3.282 14.464 3.222 14.507 2.977 14.675C2.844 14.769 2.801 14.835 2.801 14.952C2.801 15.026 2.824 15.089 2.871 15.132C2.918 15.182 3.156 15.339 3.379 15.464C3.883 15.749 4.453 15.948 4.906 15.991C4.98154 16.0026 5.05876 15.9963 5.13139 15.9725C5.20401 15.9487 5.27001 15.9081 5.324 15.854C5.375 15.811 5.656 15.44 6.766 13.96C7.24075 13.3228 7.71976 12.6888 8.203 12.058C8.621 11.604 8.859 11.093 8.938 10.476C8.95427 10.2599 8.95294 10.0429 8.934 9.827C8.89622 9.52273 8.80766 9.22696 8.672 8.952L8.602 8.808L12.195 5.21C15.359 2.046 15.801 1.604 15.832 1.55C15.9427 1.38828 16.0001 1.19596 15.996 0.999999C15.999 0.868847 15.9745 0.738515 15.9241 0.617423C15.8736 0.496332 15.7983 0.387173 15.703 0.296999C15.5652 0.153847 15.3862 0.0570525 15.191 0.0199994C15.0851 0.00433461 14.9778 0.000310648 14.871 0.00799941Z" fill="#202020"/>
</svg>
