<svg width="16" height="16" viewBox="0 0 16 16" fill="none" xmlns="http://www.w3.org/2000/svg">
<path d="M5.836 0.0079978C5.36813 0.0457322 4.92911 0.249286 4.598 0.581998C4.49435 0.677849 4.40359 0.786761 4.328 0.905998C4.168 1.148 4.062 1.43 4.02 1.742C4.004 1.836 4.004 1.992 4.004 4.504C4.004 7.063 4.004 7.172 4.02 7.27C4.066 7.613 4.2 7.934 4.41 8.21C4.48 8.305 4.633 8.46 4.73 8.543C5.043 8.801 5.422 8.953 5.832 8.993C5.887 8.996 6.328 9 6.996 9C8.18 9 8.148 9 8.301 9.047C8.473 9.102 8.395 9.047 10.383 10.535L12.253 11.934C12.273 11.945 12.316 11.961 12.348 11.973C12.402 11.993 12.422 11.996 12.496 11.996C12.5747 11.9995 12.653 11.9823 12.723 11.946C12.782 11.916 12.8345 11.8745 12.8774 11.824C12.9204 11.7736 12.9528 11.7151 12.973 11.652L12.996 11.59L13 10.719C13.004 9.773 13.004 9.824 13.047 9.688C13.148 9.383 13.402 9.137 13.707 9.043C13.801 9.016 13.895 9 14.039 8.996C14.359 8.984 14.602 8.926 14.879 8.793C15 8.734 15.145 8.645 15.25 8.559C15.3094 8.51047 15.3656 8.45802 15.418 8.402C15.738 8.082 15.93 7.684 15.984 7.227C16 7.105 16 1.895 15.984 1.773C15.9408 1.40577 15.7976 1.05745 15.57 0.765998C15.468 0.644441 15.3556 0.532015 15.234 0.429998C14.9538 0.209247 14.6195 0.0676645 14.266 0.0199978C14.18 0.0039978 13.941 0.0039978 10.046 0.0039978C7.777 0.0039978 5.883 0.0039978 5.836 0.0079978Z" fill="#202020"/>
<path d="M1.816 4.008C1.434 4.047 1.062 4.195 0.754002 4.434C0.672002 4.5 0.473002 4.704 0.410002 4.789C0.200002 5.07 0.0660016 5.387 0.0200016 5.73C0.00400162 5.828 0.00400162 5.937 0.00400162 8.5C0.00400162 11.063 0.00400162 11.172 0.0200016 11.27C0.0660016 11.613 0.200002 11.934 0.410002 12.21C0.480002 12.305 0.633002 12.46 0.730002 12.543C1.086 12.836 1.543 13 1.996 13C2.426 13 2.816 13.277 2.949 13.684C2.996 13.836 2.996 13.774 3 14.727C3.004 15.699 3 15.621 3.063 15.738C3.10693 15.8154 3.16863 15.8812 3.243 15.93C3.31931 15.9757 3.4071 15.9986 3.496 15.996C3.58195 16.0002 3.66731 15.9797 3.742 15.937C3.766 15.922 4.609 15.293 5.625 14.531C7.563 13.078 7.52 13.109 7.672 13.055C7.828 13 7.73 13.004 9.023 13C10.164 12.996 10.195 12.996 10.293 12.98C10.512 12.941 10.695 12.883 10.883 12.793C11.039 12.715 11.183 12.621 11.301 12.516L11.328 12.496L9.668 11.25L8.004 10.004L6.875 10C5.762 9.996 5.746 9.996 5.625 9.977C5.07041 9.90619 4.54651 9.68232 4.11201 9.33048C3.67751 8.97864 3.34959 8.51274 3.165 7.985C3.09675 7.78574 3.04917 7.57999 3.023 7.371C3.003 7.254 3.003 7.246 3.003 5.625L3 4H2.441C2.137 4 1.855 4.004 1.816 4.008Z" fill="#202020"/>
</svg>
