<svg width="16" height="16" viewBox="0 0 16 16" fill="none" xmlns="http://www.w3.org/2000/svg">
<path d="M6.898 0.0039978C6.558 0.0429978 6.258 0.245998 6.109 0.546998C6.03678 0.68688 6.00068 0.842605 6.004 0.999998C6.00001 1.15934 6.03795 1.31693 6.114 1.457C6.18177 1.59179 6.27975 1.70911 6.4003 1.79983C6.52085 1.89054 6.66072 1.9522 6.809 1.98C6.875 1.996 6.929 1.996 7.996 1.996C9.211 1.996 9.156 1.996 9.305 1.953C9.648 1.843 9.91 1.547 9.98 1.191C10 1.105 10 0.913998 9.984 0.827998C9.94558 0.626551 9.84933 0.440651 9.707 0.292998C9.56586 0.155042 9.38821 0.0603188 9.195 0.0199978C9.141 0.0079978 9.035 0.0039978 8.031 0.0039978H6.898Z" fill="#202020"/>
<path d="M4.82 1.004C4.20124 1.04432 3.60969 1.27326 3.125 1.66C3 1.758 2.758 2 2.66 2.125C2.297 2.582 2.09 3.082 2.02 3.672C2.004 3.782 2.004 4.023 2.004 8.496C2.004 13.008 2.004 13.211 2.02 13.328C2.098 14.008 2.383 14.609 2.848 15.086C3.297 15.543 3.84 15.836 4.457 15.949C4.734 16 4.441 15.996 7.914 16C11.125 16 11.191 16 11.402 15.973C11.8647 15.9103 12.3065 15.7405 12.692 15.477C12.9852 15.272 13.2412 15.0183 13.449 14.727C13.746 14.305 13.914 13.863 13.98 13.328C13.996 13.218 13.996 13.004 13.996 8.5C13.996 3.996 13.996 3.781 13.98 3.672C13.9186 3.10584 13.6965 2.56906 13.34 2.125C13.1977 1.95528 13.0407 1.79834 12.871 1.656C12.3714 1.25616 11.7565 1.02758 11.117 1.004L11.004 0.995998L10.996 1.098C10.988 1.285 10.957 1.449 10.898 1.625C10.7901 1.9582 10.596 2.25693 10.3354 2.49087C10.0748 2.72481 9.75688 2.88563 9.414 2.957C9.223 2.997 9.25 2.997 7.996 2.997C7.078 2.997 6.809 2.992 6.754 2.984C6.47449 2.94916 6.20538 2.85616 5.964 2.711C5.68304 2.54254 5.44826 2.307 5.28071 2.02549C5.11317 1.74398 5.01809 1.42529 5.004 1.098L4.996 0.999998H4.93C4.895 1.004 4.844 1.004 4.82 1.004ZM5.203 6.02C5.38021 6.05751 5.54395 6.1423 5.67685 6.26538C5.80974 6.38846 5.90683 6.54523 5.95779 6.71905C6.00876 6.89286 6.0117 7.07724 5.96631 7.25259C5.92092 7.42795 5.8289 7.58774 5.7 7.715C5.56222 7.85166 5.38669 7.94396 5.196 7.98C5.06673 7.99946 4.93527 7.99946 4.806 7.98C4.61246 7.94085 4.43476 7.84549 4.29513 7.70587C4.15551 7.56624 4.06015 7.38854 4.021 7.195C4.00154 7.06573 4.00154 6.93427 4.021 6.805C4.111 6.387 4.427 6.082 4.849 6.012C4.96717 5.99902 5.08554 6.00171 5.203 6.02ZM11.203 6.02C11.5 6.09 11.727 6.258 11.871 6.508C12.066 6.848 12.039 7.281 11.805 7.598C11.6547 7.79502 11.4379 7.93076 11.195 7.98C11.133 7.996 11.047 7.996 9.5 7.996C7.953 7.996 7.867 7.996 7.805 7.98C7.61146 7.94085 7.43376 7.84549 7.29413 7.70587C7.15451 7.56624 7.05915 7.38854 7.02 7.195C7.00054 7.06573 7.00054 6.93427 7.02 6.805C7.11 6.387 7.43 6.078 7.848 6.012C7.898 6.004 8.254 6 9.528 6.004C11.051 6.004 11.148 6.004 11.203 6.02ZM5.203 10.02C5.38013 10.0576 5.54376 10.1425 5.67653 10.2657C5.80931 10.3888 5.90626 10.5456 5.95712 10.7194C6.00798 10.8932 6.01084 11.0775 5.96539 11.2528C5.91995 11.4281 5.82789 11.5878 5.699 11.715C5.56122 11.8517 5.38569 11.944 5.195 11.98C5.06573 11.9995 4.93427 11.9995 4.805 11.98C4.61146 11.9408 4.43376 11.8455 4.29413 11.7059C4.15451 11.5662 4.05915 11.3885 4.02 11.195C4.00054 11.0657 4.00054 10.9343 4.02 10.805C4.11 10.387 4.426 10.082 4.848 10.012C4.96617 9.99902 5.08554 10.0017 5.203 10.02ZM11.203 10.02C11.5 10.09 11.727 10.258 11.871 10.508C12.066 10.848 12.039 11.281 11.805 11.598C11.6547 11.795 11.4379 11.9308 11.195 11.98C11.133 11.996 11.047 11.996 9.5 11.996C7.953 11.996 7.867 11.996 7.805 11.98C7.61146 11.9408 7.43376 11.8455 7.29413 11.7059C7.15451 11.5662 7.05915 11.3885 7.02 11.195C7.00054 11.0657 7.00054 10.9343 7.02 10.805C7.11 10.387 7.43 10.078 7.848 10.012C7.898 10.004 8.254 10 9.528 10.004C11.051 10.004 11.148 10.004 11.203 10.02Z" fill="#202020"/>
</svg>
