<svg width="16" height="16" viewBox="0 0 16 16" fill="none" xmlns="http://www.w3.org/2000/svg">
<g clip-path="url(#clip0_2064_21188)">
<path d="M2.82 0.00402832C2.20124 0.0443499 1.60969 0.273292 1.125 0.660028C1 0.758028 0.758002 1.00003 0.660002 1.12503C0.297002 1.58203 0.0900016 2.08203 0.0200016 2.67203C0.00400162 2.78203 0.00400162 3.04303 0.00400162 7.99603C0.00400162 12.992 0.00400162 13.211 0.0200016 13.328C0.0590016 13.684 0.152002 14.008 0.305002 14.316C0.52655 14.7696 0.858998 15.1599 1.27154 15.4508C1.68409 15.7417 2.16338 15.9237 2.665 15.98C2.754 15.996 3.109 15.996 7.915 16C11.59 16 13.102 16 13.191 15.992C13.6385 15.9654 14.0741 15.8378 14.4652 15.6187C14.8563 15.3996 15.1926 15.0948 15.449 14.727C15.746 14.305 15.914 13.863 15.98 13.328C15.996 13.218 15.996 12.988 15.996 8.00003C15.996 3.01203 15.996 2.78103 15.98 2.67203C15.9186 2.10587 15.6965 1.56909 15.34 1.12503C15.1977 0.955307 15.0407 0.798374 14.871 0.656028C14.4298 0.303169 13.8975 0.0826421 13.336 0.0200283C13.234 0.00402832 12.946 0.00402832 8.046 0.00402832H2.82ZM13.2 2.02003C13.57 2.11003 13.844 2.35203 13.953 2.70003C14.003 2.85503 14 2.76203 13.996 4.62503C13.996 6.12903 13.992 6.33203 13.98 6.44103C13.8777 7.58903 13.3822 8.66651 12.5772 9.49135C11.7723 10.3162 10.7072 10.8378 9.562 10.968C9.305 10.996 9.172 11 8.074 11H7L6.996 11.867C6.996 12.723 6.996 12.738 6.98 12.805C6.92863 13.0281 6.80276 13.2271 6.62316 13.369C6.44356 13.511 6.22094 13.5875 5.992 13.586C5.73807 13.5879 5.49368 13.4894 5.312 13.312C4.68796 12.6927 4.06563 12.0717 3.445 11.449C2.203 10.207 1.645 9.64103 1.613 9.59803C1.52567 9.47765 1.46437 9.3404 1.433 9.19503C1.41354 9.06576 1.41354 8.9343 1.433 8.80503C1.465 8.66003 1.527 8.52003 1.613 8.40203C1.645 8.35903 2.203 7.79303 3.445 6.55103C4.425 5.57103 5.265 4.73103 5.313 4.68703C5.49484 4.50998 5.73922 4.41187 5.993 4.41403C6.22177 4.41274 6.44415 4.48938 6.62355 4.63133C6.80295 4.77329 6.92866 4.9721 6.98 5.19503C6.996 5.26203 6.996 5.27703 6.996 6.13303L7 7.00003L8.07 6.99603C9.059 6.99603 9.14 6.99603 9.195 6.98003C9.38827 6.94069 9.56526 6.84419 9.703 6.70303C9.84416 6.56528 9.94067 6.3883 9.98 6.19503C9.996 6.14103 9.996 6.03103 10 4.49603C10.004 2.98803 10.004 2.85203 10.02 2.80103C10.11 2.43003 10.355 2.15603 10.7 2.04703C10.848 2.00003 10.805 2.00003 12.027 2.00403C13.047 2.00403 13.149 2.00403 13.2 2.02003Z" fill="#202020"/>
</g>
<defs>
<clipPath id="clip0_2064_21188">
<rect width="16" height="16" fill="white"/>
</clipPath>
</defs>
</svg>
