<svg width="16" height="16" viewBox="0 0 16 16" fill="none" xmlns="http://www.w3.org/2000/svg">
<g clip-path="url(#clip0_2064_21472)">
<path d="M4.785 3.00397C4.367 3.03097 4.078 3.07397 3.742 3.15997C2.73394 3.42333 1.83316 3.99467 1.16526 4.79433C0.497351 5.59399 0.0955964 6.58212 0.0159999 7.62097C0.000368403 7.8734 0.000368403 8.12655 0.0159999 8.37897C0.0699999 9.05497 0.234 9.64897 0.531 10.242C0.987516 11.1494 1.70921 11.8964 2.60029 12.384C3.49136 12.8716 4.50966 13.0767 5.52 12.972C6.20366 12.9009 6.86529 12.6894 7.46342 12.3508C8.06155 12.0122 8.58331 11.5536 8.996 11.004C9.238 10.684 9.488 10.246 9.536 10.066C9.56351 9.9444 9.56589 9.81849 9.543 9.69597C9.445 9.30897 9.082 9.02697 8.641 9.00397C8.324 8.98397 7.992 9.12497 7.723 9.39397C7.6257 9.48992 7.53919 9.59621 7.465 9.71097C7.27576 9.98258 7.04336 10.2214 6.777 10.418C6.38525 10.7049 5.9299 10.8927 5.44982 10.9655C4.96975 11.0383 4.47918 10.9938 4.02 10.836C3.63003 10.7002 3.27209 10.4859 2.96832 10.2062C2.66455 9.92649 2.42142 9.58742 2.254 9.20997C2.13183 8.93334 2.05291 8.63958 2.02 8.33897C2.00107 8.1231 1.99973 7.90606 2.016 7.68997C2.082 7.12397 2.27 6.63997 2.594 6.20597C2.954 5.72597 3.449 5.36197 4.008 5.16697C4.308 5.06097 4.59 5.01097 4.945 4.99897C5.156 4.99097 5.242 4.97897 5.363 4.93597C5.707 4.81597 5.937 4.56897 5.988 4.26897C6.004 4.18697 6.004 3.83897 5.992 3.74497C5.949 3.44497 5.785 3.19797 5.535 3.08097C5.44275 3.03448 5.34128 3.00919 5.238 3.00697C5.08711 2.99978 4.93599 2.99945 4.785 3.00397Z" fill="currentColor"/>
<path d="M10.773 3.00397C10.2774 3.02822 9.78801 3.12422 9.32 3.28897C8.30972 3.65342 7.44224 4.331 6.844 5.22297C6.66 5.49597 6.5 5.79697 6.464 5.93297C6.43621 6.05518 6.43383 6.1818 6.457 6.30497C6.49889 6.45435 6.57719 6.59101 6.68487 6.70271C6.79255 6.8144 6.92625 6.89764 7.074 6.94497C7.488 7.08197 7.926 6.95697 8.281 6.60197C8.371 6.51197 8.421 6.44897 8.535 6.28897C8.81556 5.88901 9.18799 5.5622 9.621 5.33597C10.287 4.99271 11.0569 4.90931 11.781 5.10197C12.3162 5.24821 12.8006 5.53928 13.181 5.94314C13.5614 6.34701 13.823 6.848 13.937 7.39097C13.984 7.62097 13.997 7.73797 13.997 7.99997C13.997 8.26197 13.984 8.37897 13.937 8.60997C13.7978 9.27618 13.4366 9.87541 12.9125 10.3096C12.3884 10.7438 11.7325 10.9872 11.052 11C10.845 11.008 10.778 11.016 10.653 11.059C10.306 11.172 10.067 11.426 10.013 11.73C9.997 11.812 9.997 12.16 10.009 12.254C10.052 12.554 10.212 12.793 10.458 12.914C10.5024 12.9377 10.5494 12.9562 10.598 12.969C10.794 13.019 11.337 13.008 11.767 12.941C12.9252 12.7637 13.9835 12.1828 14.755 11.301C15.3232 10.6566 15.7153 9.87641 15.8933 9.03597C16.0713 8.19552 16.0292 7.32335 15.771 6.50397C15.4498 5.48281 14.8098 4.59149 13.9448 3.96084C13.0798 3.33019 12.0355 2.99343 10.965 2.99997C10.883 3.00397 10.797 3.00397 10.773 3.00397Z" fill="currentColor"/>
</g>
<defs>
<clipPath id="clip0_2064_21472">
<rect width="16" height="16" fill="white"/>
</clipPath>
</defs>
</svg>
