<svg width="16" height="16" viewBox="0 0 16 16" fill="none" xmlns="http://www.w3.org/2000/svg">
<g clip-path="url(#clip0_2064_21757)">
<path d="M2.82 0.00402832C2.20124 0.0443499 1.60969 0.273292 1.125 0.660028C1 0.758028 0.758002 1.00003 0.660002 1.12503C0.297002 1.58203 0.0900016 2.08203 0.0200016 2.67203C0.00400162 2.78203 0.00400162 3.04303 0.00400162 7.99603C0.00400162 12.992 0.00400162 13.211 0.0200016 13.328C0.0590016 13.684 0.152002 14.008 0.305002 14.316C0.52655 14.7696 0.858998 15.1599 1.27154 15.4508C1.68409 15.7417 2.16338 15.9237 2.665 15.98C2.754 15.996 3.109 15.996 7.915 16C11.59 16 13.102 16 13.191 15.992C13.6385 15.9654 14.0741 15.8378 14.4652 15.6187C14.8563 15.3996 15.1926 15.0948 15.449 14.727C15.746 14.305 15.914 13.863 15.98 13.328C15.996 13.218 15.996 12.988 15.996 8.00003C15.996 3.01203 15.996 2.78103 15.98 2.67203C15.9186 2.10587 15.6965 1.56909 15.34 1.12503C15.1977 0.955307 15.0407 0.798374 14.871 0.656028C14.4298 0.303169 13.8975 0.0826421 13.336 0.0200283C13.234 0.00402832 12.946 0.00402832 8.046 0.00402832H2.82ZM8.195 3.02003C8.445 3.07403 8.656 3.20703 8.809 3.41003C8.844 3.46003 9.246 4.25403 10.891 7.54303C11.5807 8.9182 12.2653 10.2959 12.945 11.676C12.9824 11.7798 12.9997 11.8898 12.996 12C12.9984 12.0654 12.993 12.1309 12.98 12.195C12.895 12.598 12.598 12.895 12.195 12.98C12.0657 12.9995 11.9343 12.9995 11.805 12.98C11.5595 12.9295 11.3411 12.7907 11.191 12.59C11.156 12.543 11.059 12.348 10.766 11.766L10.383 11H5.617L5.234 11.766C4.941 12.348 4.844 12.543 4.809 12.59C4.6589 12.7907 4.44046 12.9295 4.195 12.98C4.06573 12.9995 3.93427 12.9995 3.805 12.98C3.61135 12.9411 3.43352 12.8458 3.29385 12.7062C3.15418 12.5665 3.05891 12.3887 3.02 12.195C3.00698 12.1309 3.00161 12.0654 3.004 12C2.99999 11.8898 3.01695 11.7799 3.054 11.676C3.066 11.641 3.957 9.85203 5.109 7.54303C6.754 4.25803 7.156 3.46103 7.191 3.41003C7.34637 3.20341 7.57375 3.06277 7.828 3.01603C7.859 3.01203 7.891 3.00403 7.898 3.00403C7.99728 3.00019 8.09671 3.00554 8.195 3.02003Z" fill="#202020"/>
<path d="M7.305 7.62103L6.617 9.00003H9.383L8.695 7.62103C8.312 6.86303 8.004 6.24203 8 6.24203C7.996 6.24203 7.687 6.86303 7.305 7.62203V7.62103Z" fill="#202020"/>
</g>
<defs>
<clipPath id="clip0_2064_21757">
<rect width="16" height="16" fill="white"/>
</clipPath>
</defs>
</svg>
