<svg width="16" height="16" viewBox="0 0 16 16" fill="none" xmlns="http://www.w3.org/2000/svg">
<path d="M12.871 0.00802832C12.7374 0.0280399 12.6088 0.0731682 12.492 0.141028C12.3666 0.215006 12.2588 0.315566 12.1764 0.435637C12.094 0.555709 12.0389 0.692376 12.015 0.836028C12 0.910028 12 15.09 12.016 15.164C12.056 15.383 12.146 15.551 12.298 15.704C12.45 15.855 12.618 15.945 12.837 15.984C13.6129 15.9997 14.3891 15.9997 15.165 15.984C15.3705 15.9514 15.5599 15.8532 15.705 15.704C15.8542 15.559 15.9524 15.3695 15.985 15.164C16 15.09 16 0.910028 15.984 0.836028C15.9514 0.630527 15.8532 0.441093 15.704 0.296028C15.5692 0.156942 15.3963 0.0609007 15.207 0.0200283C15.137 0.00402832 15.129 0.00402832 14.031 0.00402832C13.406 0.00402832 12.902 0.00402832 12.871 0.00802832ZM6.871 3.00803C6.7374 3.02804 6.60881 3.07317 6.492 3.14103C6.36656 3.21501 6.25885 3.31557 6.17644 3.43564C6.09403 3.55571 6.03892 3.69238 6.015 3.83603C6 3.91003 6 15.09 6.016 15.164C6.056 15.383 6.146 15.551 6.298 15.704C6.45 15.855 6.618 15.945 6.837 15.984C7.61292 15.9997 8.38908 15.9997 9.165 15.984C9.3705 15.9514 9.55993 15.8532 9.705 15.704C9.85417 15.559 9.95239 15.3695 9.985 15.164C10 15.09 10 3.91003 9.984 3.83603C9.95139 3.63053 9.85317 3.44109 9.704 3.29603C9.56924 3.15694 9.3963 3.0609 9.207 3.02003C9.137 3.00403 9.129 3.00403 8.031 3.00403C7.406 3.00403 6.902 3.00403 6.871 3.00803ZM0.871 8.00803C0.737404 8.02804 0.608805 8.07317 0.492 8.14103C0.366558 8.21501 0.258845 8.31557 0.176437 8.43564C0.0940278 8.55571 0.0389239 8.69238 0.0149999 8.83603C-5.7742e-08 8.91003 -5.7742e-08 15.09 0.0159999 15.164C0.0559999 15.383 0.146 15.551 0.298 15.704C0.45 15.855 0.618 15.945 0.837 15.984C1.61292 15.9997 2.38908 15.9997 3.165 15.984C3.3705 15.9514 3.55993 15.8532 3.705 15.704C3.85416 15.559 3.95239 15.3695 3.985 15.164C4 15.09 4 8.91003 3.984 8.83603C3.95139 8.63053 3.85316 8.44109 3.704 8.29603C3.56924 8.15694 3.3963 8.0609 3.207 8.02003C3.137 8.00403 3.129 8.00403 2.031 8.00403C1.406 8.00403 0.902 8.00403 0.871 8.00803Z" fill="#202020"/>
</svg>
