<svg width="16" height="16" viewBox="0 0 16 16" fill="none" xmlns="http://www.w3.org/2000/svg">
<path d="M12.371 4.008C12.227 4.028 12.074 4.086 11.953 4.164C11.887 4.207 11.648 4.445 9.191 6.902L6.5 9.59L5.309 8.398C4.035 7.128 4.086 7.176 3.937 7.102C3.72064 6.99784 3.47427 6.97409 3.242 7.035C3.08387 7.07896 2.93876 7.1606 2.81911 7.27294C2.69946 7.38528 2.60883 7.52496 2.555 7.68C2.51792 7.78248 2.50062 7.89107 2.504 8C2.504 8.21 2.551 8.371 2.668 8.555C2.707 8.613 2.902 8.813 4.297 10.203C5.734 11.641 5.887 11.793 5.953 11.836C6.313 12.066 6.777 12.051 7.113 11.789C7.133 11.773 8.535 10.375 10.223 8.688C12.918 5.988 13.301 5.605 13.332 5.551C13.4429 5.389 13.5003 5.1963 13.496 5C13.499 4.86885 13.4745 4.73852 13.4241 4.61742C13.3736 4.49633 13.2983 4.38717 13.203 4.297C13.0652 4.15385 12.8862 4.05705 12.691 4.02C12.5851 4.00433 12.4778 4.00031 12.371 4.008Z" fill="#202020"/>
</svg>
