<svg width="16" height="16" viewBox="0 0 16 16" fill="none" xmlns="http://www.w3.org/2000/svg">
<path d="M7.645 0.00798532C6.9351 0.0389631 6.23239 0.163368 5.555 0.377985C4.715 0.647985 3.902 1.06599 3.191 1.60199C2.19865 2.34697 1.39384 3.31324 0.840571 4.42394C0.287305 5.53464 0.000853145 6.75912 0.00400112 7.99999C-0.00080554 9.49017 0.412428 10.9518 1.19676 12.2189C1.98108 13.486 3.10506 14.5077 4.441 15.168C4.77 15.328 5.023 15.438 5.344 15.551C6.73102 16.0325 8.2228 16.1283 9.66 15.828C11.3522 15.4701 12.8829 14.5737 14.023 13.273C15.0658 12.0794 15.7306 10.603 15.933 9.03099C15.98 8.65599 15.996 8.41098 15.996 7.99999C15.996 7.58999 15.98 7.34399 15.934 6.96899C15.6729 4.94741 14.65 3.10176 13.074 1.80899C11.7905 0.754225 10.2087 0.128225 8.551 0.0189853C8.348 0.00498532 7.832 -0.00101468 7.645 0.00798532ZM8.496 2.01999C9.38247 2.09114 10.2419 2.35912 11.0117 2.8044C11.7815 3.24968 12.4423 3.86105 12.946 4.59399C13.8303 5.88204 14.1788 7.46354 13.918 9.00399C13.7395 10.0694 13.2759 11.0667 12.5764 11.89C11.877 12.7132 10.9676 13.3318 9.945 13.68C9.012 14 7.985 14.082 6.996 13.918C5.7673 13.7127 4.63364 13.1281 3.754 12.246C3.14447 11.6396 2.67395 10.9081 2.375 10.102C2.1762 9.56596 2.05498 9.00429 2.015 8.43399C1.99935 8.14486 1.99935 7.85511 2.015 7.56599C2.07549 6.70725 2.32027 5.87162 2.7327 5.11598C3.14512 4.36033 3.71549 3.70241 4.405 3.18699C5.31248 2.51128 6.39291 2.10664 7.521 2.01999C7.743 2.00399 7.755 1.99999 8.067 2.00399C8.243 2.00799 8.41 2.01199 8.496 2.01999Z" fill="#202020"/>
<path d="M11.621 5.00799C11.477 5.02799 11.324 5.08599 11.203 5.16399C11.137 5.20699 10.953 5.38699 9.191 7.15199L7.25 9.08999L6.434 8.27299C5.566 7.40599 5.586 7.42599 5.437 7.35199C5.22064 7.24782 4.97427 7.22407 4.742 7.28499C4.58387 7.32894 4.43876 7.41059 4.31911 7.52293C4.19946 7.63526 4.10883 7.77494 4.055 7.92999C4.01792 8.03247 4.00062 8.14105 4.004 8.24999C4.004 8.45999 4.051 8.62099 4.168 8.80499C4.207 8.86299 4.363 9.02299 5.422 10.078C6.512 11.168 6.637 11.293 6.703 11.336C7.063 11.566 7.527 11.551 7.863 11.289C7.883 11.273 8.945 10.215 10.223 8.93799C12.253 6.90199 12.551 6.60499 12.582 6.55099C12.6929 6.38898 12.7503 6.19628 12.746 5.99999C12.749 5.86883 12.7245 5.7385 12.6741 5.61741C12.6236 5.49632 12.5483 5.38716 12.453 5.29699C12.3152 5.15383 12.1362 5.05704 11.941 5.01999C11.8351 5.00432 11.7278 5.0003 11.621 5.00799Z" fill="#202020"/>
</svg>
