<svg width="16" height="16" viewBox="0 0 16 16" fill="none" xmlns="http://www.w3.org/2000/svg">
<path d="M7.633 0.00797851C6.56331 0.0541652 5.51389 0.315465 4.54743 0.776272C3.58098 1.23708 2.7173 1.88794 2.008 2.68998C0.824026 4.0289 0.122713 5.72585 0.0160005 7.50998C-0.0567429 8.68158 0.128621 9.85486 0.559 10.947C1.1564 12.4549 2.1968 13.7463 3.543 14.651C5.17698 15.7353 7.14979 16.1878 9.093 15.924C10.328 15.7553 11.5064 15.3 12.534 14.5945C13.5616 13.889 14.4098 12.9529 15.011 11.861C15.6619 10.6789 16.0006 9.35039 15.995 8.00098C16.0004 6.41317 15.5309 4.86 14.647 3.54098C13.7889 2.2596 12.5782 1.25411 11.161 0.645979C10.4206 0.329494 9.63686 0.126218 8.836 0.0429785C8.43612 0.0062933 8.03434 -0.0053961 7.633 0.00797851ZM7.195 5.01998C7.598 5.10498 7.895 5.40198 7.98 5.80498C8 5.89798 8 6.10198 7.98 6.19498C7.94863 6.34035 7.88733 6.4776 7.8 6.59798C7.773 6.63698 7.527 6.89098 7.086 7.32798L6.418 7.99998L7.086 8.67198C7.527 9.10898 7.773 9.36298 7.801 9.40198C7.887 9.51998 7.949 9.65998 7.981 9.80498C8 9.89798 8 10.102 7.981 10.195C7.895 10.598 7.598 10.895 7.195 10.98C7.06573 10.9994 6.93427 10.9994 6.805 10.98C6.65963 10.9486 6.52238 10.8873 6.402 10.8C5.65635 10.0781 4.92225 9.3443 4.2 8.59898C4.11267 8.4786 4.05137 8.34135 4.02 8.19598C4.00054 8.06671 4.00054 7.93525 4.02 7.80598C4.052 7.66098 4.114 7.52098 4.2 7.40298C4.92224 6.65698 5.65633 5.92256 6.402 5.19998C6.523 5.10998 6.692 5.03998 6.828 5.01698C6.859 5.01298 6.891 5.00498 6.898 5.00498C6.99728 5.00114 7.09671 5.00549 7.195 5.01998ZM11.195 5.01998C11.598 5.10498 11.895 5.40198 11.98 5.80498C11.992 5.85498 11.996 5.90598 11.996 5.99998C11.9984 6.06538 11.993 6.13084 11.98 6.19498C11.9486 6.34035 11.8873 6.4776 11.8 6.59798C11.773 6.63698 11.527 6.89098 11.086 7.32798L10.418 7.99998L11.086 8.67198C11.527 9.10898 11.773 9.36298 11.801 9.40198C11.887 9.51998 11.949 9.65998 11.981 9.80498C12 9.89798 12 10.102 11.981 10.195C11.895 10.598 11.598 10.895 11.195 10.98C11.0657 10.9994 10.9343 10.9994 10.805 10.98C10.6596 10.9486 10.5224 10.8873 10.402 10.8C9.65635 10.0781 8.92225 9.3443 8.2 8.59898C8.11267 8.4786 8.05137 8.34135 8.02 8.19598C8.00054 8.06671 8.00054 7.93525 8.02 7.80598C8.052 7.66098 8.114 7.52098 8.2 7.40298C8.92224 6.65698 9.65633 5.92256 10.402 5.19998C10.523 5.10998 10.692 5.03998 10.828 5.01698C10.859 5.01298 10.891 5.00498 10.898 5.00498C10.9973 5.00114 11.0967 5.00549 11.195 5.01998Z" fill="#202020"/>
</svg>
