<svg width="16" height="16" viewBox="0 0 16 16" fill="none" xmlns="http://www.w3.org/2000/svg">
<path d="M7.645 0.00798532C6.9351 0.0389631 6.23239 0.163368 5.555 0.377985C4.715 0.647985 3.902 1.06599 3.191 1.60199C2.19865 2.34697 1.39384 3.31324 0.840571 4.42394C0.287305 5.53464 0.000853145 6.75912 0.00400112 7.99999C-0.00080554 9.49017 0.412428 10.9518 1.19676 12.2189C1.98108 13.486 3.10506 14.5077 4.441 15.168C4.77 15.328 5.023 15.438 5.344 15.551C6.73102 16.0325 8.2228 16.1283 9.66 15.828C11.3522 15.4701 12.8829 14.5737 14.023 13.273C15.0658 12.0794 15.7306 10.603 15.933 9.03099C15.98 8.65599 15.996 8.41098 15.996 7.99999C15.996 7.58999 15.98 7.34399 15.934 6.96899C15.6729 4.94741 14.65 3.10176 13.074 1.80899C11.7905 0.754225 10.2087 0.128225 8.551 0.0189853C8.348 0.00498532 7.832 -0.00101468 7.645 0.00798532ZM8.496 2.01999C9.38247 2.09114 10.2419 2.35912 11.0117 2.8044C11.7815 3.24968 12.4423 3.86105 12.946 4.59399C13.8303 5.88204 14.1788 7.46354 13.918 9.00399C13.7395 10.0694 13.2759 11.0667 12.5764 11.89C11.877 12.7132 10.9676 13.3318 9.945 13.68C9.012 14 7.985 14.082 6.996 13.918C5.7673 13.7127 4.63364 13.1281 3.754 12.246C3.14447 11.6396 2.67395 10.9081 2.375 10.102C2.1762 9.56596 2.05498 9.00429 2.015 8.43399C1.99935 8.14486 1.99935 7.85511 2.015 7.56599C2.07549 6.70725 2.32027 5.87162 2.7327 5.11598C3.14512 4.36033 3.71549 3.70241 4.405 3.18699C5.31248 2.51128 6.39291 2.10664 7.521 2.01999C7.743 2.00399 7.755 1.99999 8.067 2.00399C8.243 2.00799 8.41 2.01199 8.496 2.01999Z" fill="#202020"/>
<path d="M5.871 6.00799C5.65308 6.03854 5.45133 6.14012 5.297 6.29699C5.20172 6.38716 5.12641 6.49632 5.07594 6.61741C5.02547 6.7385 5.00096 6.86883 5.004 6.99999C5.004 7.20999 5.051 7.37099 5.168 7.55499C5.207 7.61299 5.352 7.75798 6.297 8.70298C7.27 9.67999 7.387 9.79298 7.453 9.83599C7.813 10.066 8.277 10.051 8.613 9.78898C8.633 9.77298 9.133 9.27698 9.723 8.68798C10.648 7.76198 10.801 7.60499 10.832 7.55099C10.9429 7.38898 11.0003 7.19628 10.996 6.99999C10.999 6.86883 10.9745 6.7385 10.9241 6.61741C10.8736 6.49632 10.7983 6.38716 10.703 6.29699C10.5977 6.18539 10.466 6.10215 10.32 6.05499C10.1766 6.00642 10.024 5.99109 9.87383 6.01015C9.72363 6.0292 9.57973 6.08215 9.453 6.16499C9.387 6.20698 9.301 6.29298 8.691 6.90199L8 7.58999L7.312 6.90199C6.582 6.17199 6.582 6.17599 6.437 6.10199C6.35887 6.0642 6.27618 6.03663 6.191 6.01999C6.08509 6.00432 5.97779 6.0003 5.871 6.00799Z" fill="#202020"/>
</svg>
