<svg width="16" height="16" viewBox="0 0 16 16" fill="none" xmlns="http://www.w3.org/2000/svg">
<path d="M5.871 2.00806C5.65308 2.03862 5.45133 2.1402 5.297 2.29706C5.20172 2.38723 5.12641 2.49639 5.07594 2.61748C5.02547 2.73858 5.00096 2.86891 5.004 3.00006C5.004 3.21006 5.051 3.36706 5.168 3.55006C5.199 3.60506 5.48 3.88706 7.398 5.80506L9.59 8.00006L7.398 10.1911C5.48 12.1131 5.2 12.3951 5.168 12.4501C5.05707 12.6121 4.99972 12.8048 5.004 13.0011C5.004 13.2161 5.051 13.3721 5.168 13.5561C5.227 13.6461 5.359 13.7741 5.453 13.8331C5.62669 13.9478 5.8319 14.0053 6.0399 13.9976C6.24789 13.9898 6.44828 13.9173 6.613 13.7901C6.633 13.7741 7.809 12.6031 9.223 11.1891C11.477 8.93006 11.8 8.60406 11.832 8.55006C11.9427 8.38834 12.0001 8.19602 11.996 8.00006C12.0004 7.80251 11.9431 7.6085 11.832 7.44506C11.793 7.38706 11.492 7.08206 9.203 4.79706C6.918 2.50706 6.613 2.20706 6.555 2.16806C6.44456 2.0953 6.32088 2.04501 6.191 2.02006C6.08509 2.0044 5.97779 2.00037 5.871 2.00806Z" fill="#202020"/>
</svg>
