<svg width="16" height="16" viewBox="0 0 16 16" fill="none" xmlns="http://www.w3.org/2000/svg">
<path d="M9.871 2.008C9.727 2.028 9.574 2.086 9.453 2.164C9.387 2.207 9.156 2.434 6.797 4.797C4.507 7.082 4.207 7.387 4.168 7.445C4.05694 7.60844 3.99961 7.80245 4.004 8C4.004 8.21 4.051 8.367 4.168 8.55C4.199 8.605 4.523 8.934 6.781 11.191C8.77 13.18 9.371 13.777 9.421 13.812C9.535 13.895 9.68 13.957 9.828 13.984C9.906 14 10.109 14 10.188 13.98C10.3844 13.9437 10.5645 13.8469 10.703 13.703C10.7983 13.6128 10.8736 13.5037 10.9241 13.3826C10.9745 13.2615 10.999 13.1312 10.996 13C11.0001 12.804 10.9427 12.6117 10.832 12.45C10.801 12.395 10.52 12.113 8.602 10.191L6.41 8L8.602 5.805C10.52 3.887 10.801 3.605 10.832 3.551C10.9429 3.389 11.0003 3.1963 10.996 3C10.999 2.86885 10.9745 2.73852 10.9241 2.61742C10.8736 2.49633 10.7983 2.38717 10.703 2.297C10.5652 2.15385 10.3862 2.05705 10.191 2.02C10.0851 2.00433 9.97778 2.00031 9.871 2.008Z" fill="#202020"/>
</svg>
