<svg width="16" height="16" viewBox="0 0 16 16" fill="none" xmlns="http://www.w3.org/2000/svg">
<path d="M7.871 4.50806C7.727 4.52806 7.574 4.58606 7.453 4.66406C7.387 4.70706 7.156 4.93406 4.797 7.29706C2.507 9.58206 2.207 9.88706 2.168 9.94506C2.05694 10.1085 1.99961 10.3025 2.004 10.5001C2.004 10.7771 2.098 11.0081 2.297 11.2031C2.45617 11.3668 2.66783 11.4695 2.895 11.4931C3.07 11.5121 3.281 11.4771 3.437 11.3981C3.59 11.3201 3.461 11.4451 5.809 9.10206L8 6.91006L10.191 9.09806C12.184 11.0941 12.387 11.2931 12.453 11.3361C12.5798 11.4188 12.7237 11.4717 12.8738 11.4908C13.024 11.5098 13.1766 11.4945 13.32 11.4461C13.4661 11.3986 13.5978 11.315 13.703 11.2031C13.7983 11.1129 13.8736 11.0037 13.9241 10.8826C13.9745 10.7615 13.999 10.6312 13.996 10.5001C14.0004 10.3025 13.9431 10.1085 13.832 9.94506C13.793 9.88706 13.492 9.58206 11.203 7.29706C8.918 5.00706 8.613 4.70706 8.555 4.66806C8.44456 4.5953 8.32087 4.54501 8.191 4.52006C8.08509 4.5044 7.97778 4.50037 7.871 4.50806Z" fill="#202020"/>
</svg>
