<svg width="16" height="16" viewBox="0 0 16 16" fill="none" xmlns="http://www.w3.org/2000/svg">
<path d="M7.633 0.00797851C6.56331 0.0541652 5.51389 0.315465 4.54743 0.776272C3.58098 1.23708 2.7173 1.88794 2.008 2.68998C0.824026 4.0289 0.122713 5.72585 0.0160005 7.50998C-0.0567429 8.68158 0.128621 9.85486 0.559 10.947C1.1564 12.4549 2.1968 13.7463 3.543 14.651C5.17698 15.7353 7.14979 16.1878 9.093 15.924C10.328 15.7553 11.5064 15.3 12.534 14.5945C13.5616 13.889 14.4098 12.9529 15.011 11.861C15.6619 10.6789 16.0006 9.35039 15.995 8.00098C16.0004 6.41317 15.5309 4.86 14.647 3.54098C13.7889 2.2596 12.5782 1.25411 11.161 0.645979C10.4206 0.329494 9.63686 0.126218 8.836 0.0429785C8.43612 0.0062933 8.03434 -0.0053961 7.633 0.00797851ZM6.195 6.01998C6.34 6.04998 6.485 6.11298 6.598 6.19998C6.637 6.22698 6.887 6.46898 7.328 6.91398L8 7.58198L8.668 6.91398C9.109 6.47298 9.363 6.22698 9.402 6.19898C9.52 6.11298 9.66 6.05098 9.805 6.01898C9.898 5.99998 10.102 5.99998 10.195 6.01898C10.598 6.10498 10.895 6.40198 10.98 6.80498C11 6.89798 11 7.10198 10.98 7.19498C10.9486 7.34035 10.8873 7.4776 10.8 7.59798C10.0781 8.34363 9.34432 9.07772 8.599 9.79998C8.47862 9.88731 8.34137 9.94861 8.196 9.97998C8.06673 9.99944 7.93527 9.99944 7.806 9.97998C7.66063 9.94861 7.52338 9.88731 7.403 9.79998C6.657 9.07774 5.92258 8.34365 5.2 7.59798C5.11267 7.4776 5.05137 7.34035 5.02 7.19498C5.00054 7.06571 5.00054 6.93425 5.02 6.80498C5.075 6.55498 5.208 6.34398 5.407 6.19498C5.524 6.10898 5.692 6.03898 5.829 6.01498C5.86 6.01198 5.892 6.00398 5.899 6.00398C5.99828 6.00014 6.09671 6.00549 6.195 6.01998Z" fill="#202020"/>
</svg>
