<svg width="16" height="16" viewBox="0 0 16 16" fill="none" xmlns="http://www.w3.org/2000/svg">
<path d="M7.645 0.00804636C6.9351 0.0390242 6.23239 0.163429 5.555 0.378046C4.715 0.648046 3.902 1.06605 3.191 1.60205C2.19865 2.34703 1.39384 3.3133 0.840571 4.424C0.287305 5.5347 0.000853145 6.75918 0.00400112 8.00005C-0.00080554 9.49023 0.412428 10.9519 1.19676 12.219C1.98108 13.4861 3.10506 14.5078 4.441 15.168C4.77 15.328 5.023 15.438 5.344 15.551C6.73102 16.0326 8.2228 16.1283 9.66 15.828C11.3522 15.4702 12.8829 14.5738 14.023 13.273C15.0658 12.0795 15.7306 10.603 15.933 9.03105C15.98 8.65605 15.996 8.41105 15.996 8.00005C15.996 7.59005 15.98 7.34405 15.934 6.96905C15.6729 4.94747 14.65 3.10182 13.074 1.80905C11.7905 0.754286 10.2087 0.128286 8.551 0.0190464C8.348 0.00504636 7.832 -0.000953641 7.645 0.00804636ZM8.496 2.02005C9.38247 2.0912 10.2419 2.35918 11.0117 2.80446C11.7815 3.24974 12.4423 3.86111 12.946 4.59405C13.8303 5.8821 14.1788 7.4636 13.918 9.00405C13.7395 10.0695 13.2759 11.0668 12.5764 11.89C11.877 12.7133 10.9676 13.3318 9.945 13.68C9.012 14 7.985 14.082 6.996 13.918C5.7673 13.7128 4.63364 13.1281 3.754 12.246C3.14447 11.6397 2.67395 10.9082 2.375 10.102C2.1762 9.56602 2.05498 9.00435 2.015 8.43405C1.99935 8.14493 1.99935 7.85517 2.015 7.56605C2.07549 6.70731 2.32027 5.87168 2.7327 5.11604C3.14512 4.36039 3.71549 3.70247 4.405 3.18705C5.31248 2.51134 6.39291 2.1067 7.521 2.02005C7.743 2.00405 7.755 2.00005 8.067 2.00405C8.243 2.00805 8.41 2.01205 8.496 2.02005Z" fill="#202020"/>
<path d="M8.371 5.00805C8.227 5.02805 8.074 5.08605 7.953 5.16405C7.887 5.20705 7.77 5.32005 6.797 6.29705C5.852 7.24205 5.707 7.38705 5.668 7.44505C5.55694 7.60849 5.49962 7.80249 5.504 8.00005C5.504 8.21005 5.551 8.36705 5.668 8.55005C5.699 8.60505 5.855 8.76205 6.781 9.69105C7.594 10.504 7.871 10.777 7.921 10.812C8.035 10.895 8.18 10.957 8.328 10.984C8.406 11 8.609 11 8.688 10.98C8.88439 10.9438 9.06448 10.8469 9.203 10.703C9.29828 10.6129 9.37359 10.5037 9.42406 10.3826C9.47453 10.2615 9.49904 10.1312 9.496 10C9.50039 9.80249 9.44306 9.60849 9.332 9.44505C9.293 9.38705 9.187 9.28105 8.598 8.68705L7.91 8.00005L8.598 7.30905C9.188 6.71905 9.293 6.61305 9.332 6.55505C9.44306 6.3916 9.50039 6.1976 9.496 6.00005C9.49904 5.86889 9.47453 5.73856 9.42406 5.61747C9.37359 5.49638 9.29828 5.38722 9.203 5.29705C9.06516 5.15389 8.88625 5.0571 8.691 5.02005C8.58509 5.00438 8.47779 5.00036 8.371 5.00805Z" fill="#202020"/>
</svg>
