<svg width="16" height="16" viewBox="0 0 16 16" fill="none" xmlns="http://www.w3.org/2000/svg">
<path d="M6.871 2.008C6.727 2.028 6.574 2.086 6.453 2.164C6.387 2.207 6.156 2.434 3.797 4.797C1.507 7.082 1.207 7.387 1.168 7.445C1.05694 7.60844 0.999615 7.80245 1.004 8C1.004 8.21 1.051 8.367 1.168 8.55C1.199 8.605 1.523 8.934 3.781 11.191C5.77 13.18 6.371 13.777 6.421 13.812C6.535 13.895 6.68 13.957 6.828 13.984C6.906 14 7.109 14 7.188 13.98C7.38438 13.9437 7.56448 13.8469 7.703 13.703C7.79828 13.6128 7.87359 13.5037 7.92406 13.3826C7.97453 13.2615 7.99904 13.1312 7.996 13C8.00007 12.804 7.94273 12.6117 7.832 12.45C7.801 12.395 7.52 12.113 5.602 10.191L3.41 8L5.602 5.805C7.52 3.887 7.8 3.605 7.832 3.55C7.94273 3.38828 8.00007 3.19596 7.996 3C7.99904 2.86885 7.97453 2.73852 7.92406 2.61742C7.87359 2.49633 7.79828 2.38717 7.703 2.297C7.56516 2.15385 7.38624 2.05705 7.191 2.02C7.08509 2.00433 6.97778 2.00031 6.871 2.008ZM13.871 2.008C13.727 2.028 13.574 2.086 13.453 2.164C13.387 2.207 13.156 2.434 10.797 4.797C8.507 7.082 8.207 7.387 8.168 7.445C8.05694 7.60844 7.99961 7.80245 8.004 8C8.004 8.21 8.051 8.367 8.168 8.55C8.199 8.605 8.523 8.934 10.781 11.191C12.77 13.18 13.371 13.777 13.421 13.812C13.535 13.895 13.68 13.957 13.828 13.984C13.906 14 14.109 14 14.188 13.98C14.3844 13.9437 14.5645 13.8469 14.703 13.703C14.7983 13.6128 14.8736 13.5037 14.9241 13.3826C14.9745 13.2615 14.999 13.1312 14.996 13C15.0001 12.804 14.9427 12.6117 14.832 12.45C14.801 12.395 14.52 12.113 12.602 10.191L10.41 8L12.602 5.805C14.52 3.887 14.801 3.605 14.832 3.551C14.9429 3.389 15.0003 3.1963 14.996 3C14.999 2.86885 14.9745 2.73852 14.9241 2.61742C14.8736 2.49633 14.7983 2.38717 14.703 2.297C14.5652 2.15385 14.3862 2.05705 14.191 2.02C14.0851 2.00433 13.9778 2.00031 13.871 2.008Z" fill="#202020"/>
</svg>
