<svg width="16" height="16" viewBox="0 0 16 16" fill="none" xmlns="http://www.w3.org/2000/svg">
<path d="M2.871 4.50802C2.65308 4.53858 2.45133 4.64016 2.297 4.79702C2.20172 4.8872 2.12641 4.99635 2.07594 5.11745C2.02547 5.23854 2.00096 5.36887 2.004 5.50002C2.004 5.71002 2.051 5.87102 2.168 6.05502C2.207 6.11302 2.508 6.41802 4.797 8.70302C7.157 11.066 7.387 11.293 7.453 11.336C7.813 11.566 8.277 11.551 8.613 11.289C8.633 11.273 9.809 10.102 11.223 8.68802C13.477 6.43002 13.8 6.10402 13.832 6.05002C13.9429 5.88802 14.0003 5.69532 13.996 5.49902C13.999 5.36787 13.9745 5.23754 13.9241 5.11645C13.8736 4.99536 13.7983 4.8862 13.703 4.79602C13.5977 4.68443 13.466 4.60119 13.32 4.55402C13.1766 4.50553 13.024 4.49024 12.8738 4.5093C12.7237 4.52835 12.5798 4.58126 12.453 4.66402C12.387 4.70602 12.183 4.90502 10.191 6.90102L8 9.09002L5.809 6.89802C3.46 4.55502 3.589 4.68002 3.437 4.60202C3.35887 4.56423 3.27618 4.53667 3.191 4.52002C3.08509 4.50436 2.97779 4.50033 2.871 4.50802Z" fill="#202020"/>
</svg>
