<svg width="16" height="16" viewBox="0 0 16 16" fill="none" xmlns="http://www.w3.org/2000/svg">
<path d="M7.645 0.00804636C6.9351 0.0390242 6.23239 0.163429 5.555 0.378046C4.715 0.648046 3.902 1.06605 3.191 1.60205C2.19865 2.34703 1.39384 3.3133 0.840571 4.424C0.287305 5.5347 0.000853145 6.75918 0.00400112 8.00005C-0.00080554 9.49023 0.412428 10.9519 1.19676 12.219C1.98108 13.4861 3.10506 14.5078 4.441 15.168C4.77 15.328 5.023 15.438 5.344 15.551C6.73102 16.0326 8.2228 16.1283 9.66 15.828C11.3522 15.4702 12.8829 14.5738 14.023 13.273C15.0658 12.0795 15.7306 10.603 15.933 9.03105C15.98 8.65605 15.996 8.41105 15.996 8.00005C15.996 7.59005 15.98 7.34405 15.934 6.96905C15.6729 4.94747 14.65 3.10182 13.074 1.80905C11.7905 0.754286 10.2087 0.128286 8.551 0.0190464C8.348 0.00504636 7.832 -0.000953641 7.645 0.00804636ZM8.496 2.02005C9.38247 2.0912 10.2419 2.35918 11.0117 2.80446C11.7815 3.24974 12.4423 3.86111 12.946 4.59405C13.8303 5.8821 14.1788 7.4636 13.918 9.00405C13.7395 10.0695 13.2759 11.0668 12.5764 11.89C11.877 12.7133 10.9676 13.3318 9.945 13.68C9.012 14 7.985 14.082 6.996 13.918C5.7673 13.7128 4.63364 13.1281 3.754 12.246C3.14447 11.6397 2.67395 10.9082 2.375 10.102C2.1762 9.56602 2.05498 9.00435 2.015 8.43405C1.99935 8.14493 1.99935 7.85517 2.015 7.56605C2.07549 6.70731 2.32027 5.87168 2.7327 5.11604C3.14512 4.36039 3.71549 3.70247 4.405 3.18705C5.31248 2.51134 6.39291 2.1067 7.521 2.02005C7.743 2.00405 7.755 2.00005 8.067 2.00405C8.243 2.00805 8.41 2.01205 8.496 2.02005Z" fill="#202020"/>
<path d="M7.871 5.50805C7.727 5.52805 7.574 5.58605 7.453 5.66405C7.387 5.70705 7.27 5.82005 6.297 6.79705C5.352 7.74205 5.207 7.88705 5.168 7.94505C5.05694 8.10849 4.99962 8.30249 5.004 8.50005C5.004 8.77705 5.098 9.00805 5.297 9.20305C5.45617 9.36683 5.66783 9.46948 5.895 9.49305C6.07 9.51205 6.281 9.47705 6.438 9.39805C6.582 9.32405 6.582 9.32805 7.313 8.59805L8 7.91005L8.691 8.59805C9.301 9.20705 9.387 9.29305 9.453 9.33605C9.711 9.50405 10.023 9.54305 10.32 9.44605C10.4661 9.39859 10.5978 9.31501 10.703 9.20305C10.7983 9.11287 10.8736 9.00371 10.9241 8.88262C10.9745 8.76153 10.999 8.6312 10.996 8.50005C11.0004 8.30249 10.9431 8.10849 10.832 7.94505C10.793 7.88705 10.648 7.74205 9.703 6.79705C8.551 5.64005 8.586 5.67605 8.438 5.60205C8.35955 5.56418 8.27653 5.53661 8.191 5.52005C8.08509 5.50438 7.97779 5.50036 7.871 5.50805Z" fill="#202020"/>
</svg>
