<svg width="16" height="16" viewBox="0 0 16 16" fill="none" xmlns="http://www.w3.org/2000/svg">
<path d="M6.898 0.00402832C6.558 0.0430283 6.258 0.246028 6.109 0.547028C6.03678 0.686911 6.00068 0.842635 6.004 1.00003C6.00001 1.15937 6.03795 1.31696 6.114 1.45703C6.18177 1.59182 6.27975 1.70914 6.4003 1.79986C6.52085 1.89057 6.66072 1.95223 6.809 1.98003C6.875 1.99603 6.929 1.99603 7.996 1.99603C9.211 1.99603 9.156 1.99603 9.305 1.95303C9.648 1.84303 9.91 1.54703 9.98 1.19103C10 1.10503 10 0.914028 9.984 0.828028C9.94558 0.626581 9.84933 0.440681 9.707 0.293028C9.56586 0.155072 9.38821 0.0603493 9.195 0.0200283C9.141 0.00802832 9.035 0.00402832 8.031 0.00402832H6.898Z" fill="currentColor"/>
<path d="M4.82 1.00403C4.20124 1.04435 3.60969 1.27329 3.125 1.66003C3 1.75803 2.758 2.00003 2.66 2.12503C2.297 2.58203 2.09 3.08203 2.02 3.67203C2.004 3.78203 2.004 4.02303 2.004 8.49603C2.004 13.008 2.004 13.211 2.02 13.328C2.098 14.008 2.383 14.609 2.848 15.086C3.297 15.543 3.84 15.836 4.457 15.949C4.734 16 4.441 15.996 7.914 16C11.125 16 11.191 16 11.402 15.973C11.8647 15.9103 12.3065 15.7405 12.692 15.477C12.9852 15.272 13.2412 15.0183 13.449 14.727C13.746 14.305 13.914 13.863 13.98 13.328C13.996 13.218 13.996 13.004 13.996 8.50003C13.996 3.99603 13.996 3.78103 13.98 3.67203C13.9186 3.10587 13.6965 2.56909 13.34 2.12503C13.1977 1.95531 13.0407 1.79837 12.871 1.65603C12.3714 1.25619 11.7565 1.02761 11.117 1.00403L11.004 0.996028L10.996 1.09803C10.988 1.28503 10.957 1.44903 10.898 1.62503C10.7901 1.95823 10.596 2.25696 10.3354 2.4909C10.0748 2.72484 9.75688 2.88566 9.414 2.95703C9.223 2.99703 9.25 2.99703 7.996 2.99703C7.078 2.99703 6.809 2.99203 6.754 2.98403C6.47449 2.94919 6.20538 2.85619 5.964 2.71103C5.68304 2.54257 5.44826 2.30703 5.28071 2.02552C5.11317 1.74401 5.01809 1.42532 5.004 1.09803L4.996 1.00003H4.93C4.895 1.00403 4.844 1.00403 4.82 1.00403ZM9.82 6.25403C10.043 6.28503 10.262 6.36403 10.441 6.48003C10.531 6.54303 12.648 8.23403 12.711 8.30003C12.844 8.43403 12.937 8.61003 12.981 8.80503C13 8.89803 13 9.10203 12.981 9.19503C12.895 9.59803 12.598 9.89503 12.195 9.98003C12.0657 9.99949 11.9343 9.99949 11.805 9.98003C11.6821 9.9529 11.5645 9.90559 11.457 9.84003C11.434 9.82403 11.047 9.52003 10.594 9.15603C10.141 8.79303 9.766 8.49603 9.762 8.49203C9.754 8.48803 9.492 8.90203 8.934 9.79303C8.484 10.516 8.094 11.133 8.066 11.168C7.84973 11.4476 7.5434 11.6436 7.199 11.723C6.809 11.809 6.395 11.734 6.059 11.516C5.29494 10.921 4.53822 10.3166 3.789 9.70303C3.65276 9.56264 3.55913 9.38649 3.519 9.19503C3.49954 9.06576 3.49954 8.9343 3.519 8.80503C3.605 8.40203 3.902 8.10503 4.305 8.02003C4.398 8.00003 4.602 8.00003 4.695 8.02003C4.82 8.04703 4.941 8.09803 5.043 8.16003C5.066 8.17603 5.453 8.48003 5.906 8.84403C6.359 9.20703 6.734 9.50403 6.738 9.50803C6.746 9.51203 7.008 9.09803 7.566 8.20703C8.016 7.48403 8.406 6.86703 8.434 6.83203C8.488 6.75803 8.633 6.61303 8.699 6.56203C8.918 6.39503 9.168 6.28903 9.426 6.25403C9.536 6.23803 9.715 6.23803 9.82 6.25403Z" fill="currentColor"/>
</svg>
