<svg width="16" height="16" viewBox="0 0 16 16" fill="none" xmlns="http://www.w3.org/2000/svg">
<path d="M7.723 1.00401C6.25577 1.06047 4.84376 1.57839 3.688 2.48401L3.618 2.54301L2.98 1.91001C2.75721 1.68513 2.5322 1.46245 2.305 1.24201C2.11262 1.08391 1.86809 1.00343 1.61942 1.01639C1.37075 1.02934 1.13591 1.13478 0.960999 1.31201C0.825927 1.44572 0.732195 1.61548 0.690999 1.80101L0.675999 1.87101L0.671999 3.80101C0.671999 5.94102 0.667999 5.82101 0.721999 5.98101C0.776999 6.14101 0.843999 6.25401 0.968999 6.37501C1.10675 6.51617 1.28373 6.61268 1.477 6.65201C1.531 6.66801 1.645 6.66801 3.449 6.67201C4.832 6.67201 5.387 6.67201 5.441 6.66401C5.60724 6.64731 5.76642 6.58826 5.90333 6.49249C6.04024 6.39672 6.1503 6.26745 6.223 6.11701C6.258 6.05101 6.297 5.92601 6.313 5.84701C6.32922 5.7201 6.32787 5.59156 6.309 5.46501C6.28081 5.32933 6.22349 5.20138 6.141 5.09001C5.95766 4.88573 5.76756 4.68762 5.571 4.49601L5.043 3.96901L5.063 3.95301C5.117 3.91001 5.32 3.77301 5.426 3.71501C6.23037 3.22742 7.15767 2.98067 8.098 3.00401C8.391 3.00801 8.602 3.02701 8.868 3.07401C9.77336 3.23388 10.6172 3.64004 11.3069 4.24792C11.9967 4.8558 12.5056 5.64191 12.778 6.52001C12.8812 6.8584 12.9489 7.20661 12.98 7.55901C13 7.73401 13 8.23002 12.984 8.39502C12.8962 9.49948 12.4443 10.5436 11.6992 11.3636C10.9542 12.1836 9.95802 12.7331 8.867 12.926C8.61288 12.9719 8.35522 12.9953 8.097 12.996C7.2139 13.0176 6.3412 12.8018 5.57 12.371C5.48259 12.3181 5.38972 12.2749 5.293 12.242C5.093 12.184 4.863 12.187 4.672 12.254C4.53671 12.3015 4.41319 12.3775 4.30975 12.4768C4.20632 12.5762 4.12539 12.6965 4.07241 12.8298C4.01944 12.963 3.99565 13.1061 4.00265 13.2493C4.00965 13.3925 4.04728 13.5326 4.113 13.66C4.183 13.79 4.285 13.91 4.403 13.996C4.5 14.07 4.82 14.242 5.082 14.363C6.28563 14.9145 7.62089 15.1136 8.93306 14.9373C10.2452 14.7611 11.4806 14.2166 12.496 13.367C12.8143 13.0952 13.1097 12.7975 13.379 12.477C14.3041 11.3708 14.8625 10.0045 14.977 8.56702C15.096 7.09175 14.746 5.61659 13.977 4.35202C13.4353 3.47258 12.7085 2.72181 11.847 2.15201C11.3231 1.80783 10.7558 1.53477 10.16 1.34001C9.373 1.08884 8.5486 0.975181 7.723 1.00401Z" fill="currentColor"/>
<path d="M7.871 5.00801C7.65308 5.03857 7.45132 5.14015 7.297 5.29701C7.14695 5.44115 7.04825 5.63047 7.016 5.83601C7.00038 6.61194 7.00038 7.38809 7.016 8.16401C7.039 8.30401 7.09 8.42601 7.164 8.54701C7.199 8.60501 7.309 8.71501 8.031 9.44101C8.648 10.059 8.871 10.277 8.921 10.312C9.035 10.395 9.18 10.457 9.328 10.484C9.406 10.5 9.609 10.5 9.688 10.48C9.88438 10.4437 10.0645 10.3469 10.203 10.203C10.2983 10.1128 10.3736 10.0037 10.4241 9.88259C10.4745 9.7615 10.499 9.63117 10.496 9.50001C10.5004 9.30246 10.4431 9.10846 10.332 8.94501C10.293 8.88701 10.195 8.78501 9.645 8.23501L9 7.59001L8.996 6.72702C8.996 5.93402 8.992 5.85901 8.98 5.80501C8.94066 5.61175 8.84416 5.43476 8.703 5.29701C8.56516 5.15386 8.38624 5.05707 8.191 5.02001C8.08509 5.00435 7.97778 5.00033 7.871 5.00801Z" fill="currentColor"/>
</svg>
