<svg width="16" height="16" viewBox="0 0 16 16" fill="none" xmlns="http://www.w3.org/2000/svg">
<path d="M7.633 0.00803954C6.56331 0.0542262 5.51389 0.315526 4.54743 0.776333C3.58098 1.23714 2.7173 1.888 2.008 2.69004C0.824026 4.02896 0.122713 5.72591 0.0160005 7.51004C-0.0567429 8.68164 0.128621 9.85493 0.559 10.947C1.1564 12.4549 2.1968 13.7464 3.543 14.651C5.17698 15.7354 7.14979 16.1879 9.093 15.924C10.328 15.7553 11.5064 15.3001 12.534 14.5946C13.5616 13.8891 14.4098 12.953 15.011 11.861C15.6619 10.679 16.0006 9.35045 15.995 8.00104C16.0004 6.41323 15.5309 4.86006 14.647 3.54104C13.7889 2.25966 12.5782 1.25417 11.161 0.64604C10.4206 0.329555 9.63686 0.126279 8.836 0.0430395C8.43612 0.00635433 8.03434 -0.00533506 7.633 0.00803954ZM6.078 4.89804C6.21178 4.92391 6.33836 4.9785 6.449 5.05804C6.508 5.09804 6.637 5.22304 7.258 5.84404L8 6.58204L8.73 5.85204C9.137 5.44904 9.484 5.10504 9.508 5.08604C9.633 4.99604 9.778 4.93004 9.922 4.89804C10.086 4.86304 10.297 4.87804 10.453 4.93404C10.734 5.03504 10.965 5.26604 11.066 5.54704C11.121 5.70304 11.136 5.91404 11.102 6.07804C11.07 6.22304 11.004 6.36804 10.914 6.49204C10.894 6.51604 10.551 6.86304 10.148 7.26604L9.418 8.00004L10.156 8.73804C10.805 9.39104 10.902 9.48804 10.946 9.55504C11.0636 9.72001 11.125 9.91847 11.121 10.121C11.1234 10.3235 11.0618 10.5216 10.945 10.687C10.835 10.852 10.648 10.997 10.453 11.067C10.297 11.121 10.086 11.137 9.922 11.102C9.77271 11.068 9.63186 11.0041 9.508 10.914C9.484 10.894 9.137 10.551 8.734 10.148L8 9.41804L7.262 10.156C6.637 10.777 6.508 10.902 6.449 10.941C6.28355 11.0613 6.08349 11.1244 5.879 11.121C5.67733 11.1242 5.47999 11.0625 5.316 10.945C5.18193 10.8533 5.07212 10.7304 4.99601 10.5869C4.91989 10.4433 4.87974 10.2835 4.879 10.121C4.87611 9.91662 4.93923 9.71672 5.059 9.55104C5.098 9.49204 5.223 9.36304 5.844 8.73804L6.582 8.00004L5.852 7.26604C5.449 6.86304 5.105 6.51604 5.086 6.49204C4.99598 6.36818 4.93202 6.22733 4.898 6.07804C4.86487 5.90085 4.87725 5.71814 4.934 5.54704C5.035 5.26604 5.266 5.03504 5.543 4.93404C5.711 4.87504 5.903 4.86404 6.078 4.89804Z" fill="#202020"/>
</svg>
