<svg width="16" height="16" viewBox="0 0 16 16" fill="none" xmlns="http://www.w3.org/2000/svg">
<path d="M7.645 0.00804636C6.9351 0.0390242 6.23239 0.163429 5.555 0.378046C4.715 0.648046 3.902 1.06605 3.191 1.60205C2.19865 2.34703 1.39384 3.3133 0.840571 4.424C0.287305 5.5347 0.000853145 6.75918 0.00400112 8.00005C-0.00080554 9.49023 0.412428 10.9519 1.19676 12.219C1.98108 13.4861 3.10506 14.5078 4.441 15.168C4.77 15.328 5.023 15.438 5.344 15.551C6.73102 16.0326 8.2228 16.1283 9.66 15.828C11.3522 15.4702 12.8829 14.5738 14.023 13.273C15.0658 12.0795 15.7306 10.603 15.933 9.03105C15.98 8.65605 15.996 8.41105 15.996 8.00005C15.996 7.59005 15.98 7.34405 15.934 6.96905C15.6729 4.94747 14.65 3.10182 13.074 1.80905C11.7905 0.754286 10.2087 0.128286 8.551 0.0190464C8.348 0.00504636 7.832 -0.000953641 7.645 0.00804636ZM8.496 2.02005C9.38247 2.0912 10.2419 2.35918 11.0117 2.80446C11.7815 3.24974 12.4423 3.86111 12.946 4.59405C13.8303 5.8821 14.1788 7.4636 13.918 9.00405C13.7395 10.0695 13.2759 11.0668 12.5764 11.89C11.877 12.7133 10.9676 13.3318 9.945 13.68C9.012 14 7.985 14.082 6.996 13.918C5.7673 13.7128 4.63364 13.1281 3.754 12.246C3.14447 11.6397 2.67395 10.9082 2.375 10.102C2.1762 9.56602 2.05498 9.00435 2.015 8.43405C1.99935 8.14493 1.99935 7.85517 2.015 7.56605C2.07549 6.70731 2.32027 5.87168 2.7327 5.11604C3.14512 4.36039 3.71549 3.70247 4.405 3.18705C5.31248 2.51134 6.39291 2.1067 7.521 2.02005C7.743 2.00405 7.755 2.00005 8.067 2.00405C8.243 2.00805 8.41 2.01205 8.496 2.02005Z" fill="#202020"/>
<path d="M5.79 4.88305C5.6439 4.89793 5.50253 4.94323 5.375 5.01605C5.20847 5.11773 5.07211 5.26204 4.98 5.43405C4.91581 5.5736 4.88271 5.72544 4.883 5.87905C4.883 6.08605 4.945 6.28505 5.059 6.45305C5.082 6.48405 5.379 6.78505 5.844 7.25005L6.59 8.00005L5.844 8.75005C5.379 9.21505 5.082 9.51605 5.059 9.54705C4.971 9.67514 4.91353 9.82169 4.89099 9.97545C4.86846 10.1292 4.88146 10.2861 4.929 10.434C4.97607 10.5791 5.05816 10.7103 5.168 10.816C5.359 11.016 5.602 11.117 5.878 11.117C6.08321 11.119 6.28402 11.0575 6.453 10.941C6.484 10.918 6.785 10.621 7.25 10.156L8 9.41005L8.75 10.16C9.555 10.96 9.543 10.953 9.691 11.023C9.82544 11.0863 9.97242 11.1184 10.121 11.117C10.3295 11.1194 10.5334 11.0553 10.703 10.934C10.777 10.879 10.891 10.766 10.941 10.695C11.0566 10.526 11.1185 10.3259 11.1185 10.121C11.1185 9.91621 11.0566 9.71614 10.941 9.54705C10.918 9.51605 10.621 9.21505 10.156 8.74705L9.41 8.00005L10.156 7.25005C10.621 6.78505 10.918 6.48405 10.941 6.45305C11.117 6.19905 11.168 5.87105 11.074 5.57405C11.0256 5.42239 10.9396 5.28546 10.824 5.17605C10.7206 5.06604 10.5918 4.98297 10.449 4.93405C10.2005 4.84807 9.92816 4.86352 9.691 4.97705C9.543 5.04705 9.555 5.03905 8.754 5.84005L8 6.59005L7.25 5.84005C6.46 5.05505 6.453 5.04705 6.324 4.98005C6.15672 4.90304 5.97367 4.86967 5.79 4.88305Z" fill="#202020"/>
</svg>
