<svg width="16" height="16" viewBox="0 0 16 16" fill="none" xmlns="http://www.w3.org/2000/svg">
<path d="M2.871 2.008C2.65308 2.03855 2.45133 2.14013 2.297 2.297C2.20172 2.38717 2.12641 2.49633 2.07594 2.61742C2.02547 2.73851 2.00096 2.86885 2.004 3C2.004 3.21 2.051 3.367 2.168 3.55C2.199 3.605 2.48 3.887 4.398 5.805L6.59 8L4.398 10.191C2.48 12.113 2.2 12.395 2.168 12.45C2.05707 12.612 1.99972 12.8047 2.004 13.001C2.004 13.278 2.098 13.509 2.297 13.704C2.45617 13.8678 2.66783 13.9704 2.895 13.994C3.07 14.013 3.281 13.978 3.437 13.899C3.59 13.821 3.461 13.946 5.809 11.603L8 9.41L10.191 11.598C12.184 13.594 12.387 13.793 12.453 13.836C12.5798 13.9188 12.7237 13.9717 12.8738 13.9907C13.024 14.0098 13.1766 13.9945 13.32 13.946C13.4661 13.8985 13.5978 13.815 13.703 13.703C13.7983 13.6128 13.8736 13.5037 13.9241 13.3826C13.9745 13.2615 13.999 13.1312 13.996 13C14.0001 12.804 13.9427 12.6117 13.832 12.45C13.801 12.395 13.52 12.113 11.602 10.191L9.41 8L11.602 5.805C13.52 3.887 13.801 3.605 13.832 3.551C13.9429 3.389 14.0003 3.19629 13.996 3C13.999 2.86885 13.9745 2.73851 13.9241 2.61742C13.8736 2.49633 13.7983 2.38717 13.703 2.297C13.5977 2.1854 13.466 2.10217 13.32 2.055C13.1766 2.00651 13.024 1.99122 12.8738 2.01027C12.7237 2.02933 12.5798 2.08223 12.453 2.165C12.387 2.207 12.183 2.406 10.191 4.402L8 6.59L5.809 4.398C3.46 2.055 3.589 2.18 3.437 2.102C3.35887 2.06421 3.27618 2.03665 3.191 2.02C3.08509 2.00433 2.97779 2.00031 2.871 2.008Z" fill="#202020"/>
</svg>
