<svg width="16" height="16" viewBox="0 0 16 16" fill="none" xmlns="http://www.w3.org/2000/svg">
<path d="M7.297 2.00395C6.64597 2.03466 6.00929 2.2059 5.43069 2.5059C4.85209 2.80591 4.34526 3.22757 3.945 3.74195C3.23716 4.65014 2.9069 5.79636 3.023 6.94195L3.027 6.99595L2.898 7.00395C2.25138 7.02395 1.62892 7.25426 1.125 7.65995C1 7.75795 0.758001 7.99995 0.660001 8.12495C0.303049 8.56723 0.0808795 9.10286 0.0200011 9.66795C1.06823e-06 9.83195 1.06823e-06 10.1679 0.0200011 10.3319C0.0620011 10.6869 0.156001 11.0079 0.305001 11.3159C0.605001 11.9339 1.133 12.4459 1.75 12.7259C2.04 12.8589 2.305 12.9339 2.664 12.9799C2.754 12.9959 3.074 12.9959 7.414 12.9999C10.762 12.9999 12.109 12.9999 12.219 12.9919C12.7713 12.9632 13.3115 12.8195 13.805 12.5699C14.2892 12.3236 14.7184 11.9817 15.0668 11.565C15.4151 11.1482 15.6755 10.6651 15.832 10.1449C16.0712 9.34605 16.0545 8.49231 15.784 7.70342C15.5136 6.91453 15.0031 6.23005 14.324 5.74595C13.648 5.26064 12.8361 5.00099 12.004 5.00395C11.859 5.00395 11.742 4.99995 11.742 4.99595C11.742 4.97295 11.609 4.66395 11.539 4.51995C11.1038 3.62899 10.3853 2.90762 9.496 2.46895C9.00171 2.22066 8.46497 2.06799 7.914 2.01895C7.70859 2.00639 7.50278 2.00138 7.297 2.00395ZM8.629 3.72295C8.69886 3.7433 8.76385 3.77766 8.82 3.82395C8.898 3.88695 10.676 5.67195 10.703 5.71395C10.7611 5.79789 10.7915 5.89788 10.79 5.99995C10.7916 6.10157 10.7615 6.20116 10.704 6.28495C10.677 6.32795 8.899 8.11295 8.821 8.17495C8.75863 8.23017 8.68283 8.26801 8.60122 8.28469C8.5196 8.30136 8.43503 8.29628 8.356 8.26995C8.22758 8.22995 8.11991 8.1413 8.056 8.02295C8 7.91395 8 7.90295 8 7.42195V6.99995H7.965C7.75778 7.00523 7.55391 7.05346 7.36629 7.14159C7.17866 7.22972 7.01137 7.35583 6.875 7.51195C6.425 8.01995 6.375 8.76995 6.754 9.33195C6.977 9.66395 7.324 9.89495 7.714 9.97195C8.098 10.0469 8.5 9.96495 8.824 9.75395C8.961 9.65995 9.074 9.55395 9.191 9.40995C9.363 9.19495 9.555 9.07395 9.805 9.01995C9.898 8.99995 10.102 8.99995 10.195 9.01995C10.598 9.10495 10.895 9.40195 10.98 9.80495C11 9.89795 11 10.1019 10.98 10.1949C10.934 10.4099 10.848 10.5619 10.621 10.8159C10.0403 11.4766 9.23154 11.8936 8.35657 11.9835C7.48161 12.0734 6.60495 11.8296 5.902 11.3009C5.37685 10.9066 4.97287 10.3728 4.73599 9.76026C4.49911 9.14773 4.43883 8.48103 4.562 7.83595C4.66 7.32395 4.875 6.83595 5.187 6.41795C5.383 6.15195 5.652 5.88295 5.918 5.68795C6.48564 5.26631 7.1683 5.02771 7.875 5.00395L8 4.99595V4.57395C8 4.10495 8 4.08595 8.05 3.98795C8.129 3.83195 8.258 3.74195 8.453 3.70695C8.5121 3.70514 8.5712 3.71052 8.629 3.72295Z" fill="#202020"/>
</svg>
