<svg width="16" height="16" viewBox="0 0 16 16" fill="none" xmlns="http://www.w3.org/2000/svg">
<path d="M2.82 0.504028C2.20124 0.54435 1.60969 0.773292 1.125 1.16003C1 1.25803 0.758002 1.50003 0.660002 1.62503C0.340002 2.02703 0.137002 2.48003 0.0470016 2.97303C0.00400161 3.20703 0.00400162 3.23003 0.00400162 4.00003C0.00400162 4.78103 0.00400162 4.80503 0.0510016 5.05003C0.169156 5.68138 0.486758 6.25816 0.957111 6.69557C1.42746 7.13298 2.02575 7.40794 2.664 7.48003C2.754 7.49603 3.109 7.49603 7.914 7.50003C13.172 7.50003 13.191 7.50003 13.402 7.47303C14.0428 7.38753 14.6382 7.09543 15.098 6.64103C15.5403 6.21098 15.8378 5.65385 15.949 5.04703C15.996 4.78903 15.996 4.77703 15.996 4.00003C15.996 3.22303 15.996 3.21003 15.949 2.95303C15.8595 2.46646 15.6498 2.00998 15.339 1.62503C15.197 1.45535 15.0404 1.29842 14.871 1.15603C14.4298 0.803169 13.8975 0.582642 13.336 0.520028C13.234 0.504028 12.946 0.504028 8.046 0.504028H2.82ZM3.203 2.52003C3.40687 2.56202 3.59256 2.66657 3.73417 2.81912C3.87578 2.97167 3.96627 3.1646 3.993 3.37103C3.996 3.41103 4 3.64103 4 4.00403C4 4.46403 3.996 4.59003 3.988 4.64803C3.96022 4.82962 3.88329 5.00016 3.76555 5.14117C3.6478 5.28218 3.49373 5.3883 3.32 5.44803C3.21701 5.48281 3.10867 5.49906 3 5.49603C2.84384 5.50129 2.68893 5.46652 2.55 5.39503C2.41405 5.3266 2.29558 5.22793 2.20371 5.10658C2.11183 4.98523 2.04899 4.84445 2.02 4.69503C2.004 4.63303 2.004 4.57803 2.004 4.00003C2.004 3.42203 2.004 3.36703 2.02 3.30503C2.11 2.88703 2.426 2.58203 2.848 2.51203C2.96617 2.49905 3.08554 2.50174 3.203 2.52003ZM6.203 2.52003C6.40687 2.56202 6.59256 2.66657 6.73417 2.81912C6.87578 2.97167 6.96627 3.1646 6.993 3.37103C6.996 3.41103 7 3.64103 7 4.00403C7 4.46403 6.996 4.59003 6.988 4.64803C6.96022 4.82962 6.88329 5.00016 6.76555 5.14117C6.6478 5.28218 6.49373 5.3883 6.32 5.44803C6.21701 5.48281 6.10867 5.49906 6 5.49603C5.84384 5.50129 5.68893 5.46652 5.55 5.39503C5.41405 5.3266 5.29558 5.22793 5.20371 5.10658C5.11183 4.98523 5.04899 4.84445 5.02 4.69503C5.004 4.63303 5.004 4.57803 5.004 4.00003C5.004 3.42203 5.004 3.36703 5.02 3.30503C5.11 2.88703 5.426 2.58203 5.848 2.51203C5.96617 2.49905 6.08554 2.50174 6.203 2.52003ZM12.762 2.52303C12.992 2.56603 13.195 2.65303 13.382 2.78503C13.5459 2.90459 13.6839 3.05607 13.7877 3.23036C13.8915 3.40464 13.959 3.59812 13.9861 3.79916C14.0132 4.00021 13.9993 4.20465 13.9453 4.4002C13.8914 4.59574 13.7984 4.77835 13.672 4.93703C13.602 5.02303 13.469 5.15203 13.382 5.21503C12.984 5.50003 12.484 5.57503 12.02 5.42203C11.7135 5.31916 11.4487 5.11951 11.2654 4.85313C11.0822 4.58675 10.9905 4.26806 11.004 3.94503C11.016 3.57003 11.156 3.23803 11.41 2.96903C11.66 2.70703 11.969 2.55503 12.336 2.50803C12.43 2.49603 12.664 2.50403 12.762 2.52303ZM2.82 8.50403C2.20124 8.54435 1.60969 8.77329 1.125 9.16003C1 9.25803 0.758002 9.50003 0.660002 9.62503C0.340002 10.027 0.137002 10.48 0.0470016 10.973C0.00400161 11.207 0.00400162 11.23 0.00400162 12C0.00400162 12.781 0.00400162 12.805 0.0510016 13.05C0.169156 13.6814 0.486758 14.2582 0.957111 14.6956C1.42746 15.133 2.02575 15.4079 2.664 15.48C2.754 15.496 3.109 15.496 7.914 15.5C13.172 15.5 13.191 15.5 13.402 15.473C14.0428 15.3875 14.6382 15.0954 15.098 14.641C15.5403 14.211 15.8378 13.6539 15.949 13.047C15.996 12.789 15.996 12.777 15.996 12C15.996 11.223 15.996 11.21 15.949 10.953C15.8595 10.4665 15.6498 10.01 15.339 9.62503C15.197 9.45535 15.0404 9.29842 14.871 9.15603C14.4298 8.80317 13.8975 8.58264 13.336 8.52003C13.234 8.50403 12.946 8.50403 8.046 8.50403H2.82ZM3.203 10.52C3.40687 10.562 3.59256 10.6666 3.73417 10.8191C3.87578 10.9717 3.96627 11.1646 3.993 11.371C3.996 11.411 4 11.641 4 12.004C4 12.464 3.996 12.59 3.988 12.648C3.96022 12.8296 3.88329 13.0002 3.76555 13.1412C3.6478 13.2822 3.49373 13.3883 3.32 13.448C3.21701 13.4828 3.10867 13.4991 3 13.496C2.84384 13.5013 2.68893 13.4665 2.55 13.395C2.41405 13.3266 2.29558 13.2279 2.20371 13.1066C2.11183 12.9852 2.04899 12.8444 2.02 12.695C2.004 12.633 2.004 12.578 2.004 12C2.004 11.422 2.004 11.367 2.02 11.305C2.11 10.887 2.426 10.582 2.848 10.512C2.96617 10.4991 3.08554 10.5017 3.203 10.52ZM6.203 10.52C6.40687 10.562 6.59256 10.6666 6.73417 10.8191C6.87578 10.9717 6.96627 11.1646 6.993 11.371C6.996 11.411 7 11.641 7 12.004C7 12.464 6.996 12.59 6.988 12.648C6.96022 12.8296 6.88329 13.0002 6.76555 13.1412C6.6478 13.2822 6.49373 13.3883 6.32 13.448C6.21701 13.4828 6.10867 13.4991 6 13.496C5.84384 13.5013 5.68893 13.4665 5.55 13.395C5.41405 13.3266 5.29558 13.2279 5.20371 13.1066C5.11183 12.9852 5.04899 12.8444 5.02 12.695C5.004 12.633 5.004 12.578 5.004 12C5.004 11.422 5.004 11.367 5.02 11.305C5.11 10.887 5.426 10.582 5.848 10.512C5.96617 10.4991 6.08554 10.5017 6.203 10.52Z" fill="#202020"/>
</svg>
