<svg width="16" height="16" viewBox="0 0 16 16" fill="none" xmlns="http://www.w3.org/2000/svg">
<path d="M2.82 0.00402832C2.20124 0.0443499 1.60969 0.273292 1.125 0.660028C1 0.758028 0.758002 1.00003 0.660002 1.12503C0.297002 1.58203 0.0900016 2.08203 0.0200016 2.67203C0.00400162 2.77703 0.00400162 2.98403 0.00400162 6.49603C0.00400162 10.039 0.00400162 10.211 0.0200016 10.328C0.0980016 11.008 0.383002 11.609 0.848002 12.086C1.172 12.414 1.535 12.656 1.953 12.812C2.27487 12.9301 2.6142 12.9937 2.957 13C3.19437 12.9918 3.42703 13.0675 3.61412 13.2138C3.80121 13.3601 3.93076 13.5677 3.98 13.8C3.992 13.848 3.996 13.938 4 14.5L4.004 15.145L4.024 15.227C4.105 15.555 4.328 15.809 4.637 15.93C4.773 15.984 4.847 15.996 5.012 15.996C5.091 16.0016 5.17034 15.9924 5.246 15.969C5.35267 15.9416 5.45405 15.8967 5.546 15.836C5.574 15.816 6.391 15.207 7.363 14.476C8.648 13.516 9.148 13.141 9.199 13.117C9.28371 13.0747 9.37295 13.0422 9.465 13.02C9.515 13.004 9.665 13.004 11.379 13C13.379 12.996 13.266 12.996 13.504 12.957C14.1453 12.8451 14.7332 12.5285 15.1795 12.0546C15.6259 11.5807 15.9067 10.9749 15.98 10.328C15.996 10.218 15.996 10.039 15.996 6.50003C15.996 2.96003 15.996 2.78103 15.98 2.67203C15.9186 2.10587 15.6965 1.56909 15.34 1.12503C15.1977 0.955307 15.0407 0.798374 14.871 0.656028C14.4298 0.303169 13.8975 0.0826421 13.336 0.0200283C13.234 0.00402832 12.946 0.00402832 8.046 0.00402832H2.82ZM3.762 5.02403C3.992 5.06603 4.195 5.15203 4.382 5.28503C4.54588 5.40459 4.68388 5.55607 4.78769 5.73036C4.8915 5.90464 4.95898 6.09812 4.98608 6.29916C5.01317 6.50021 4.99931 6.70465 4.94533 6.9002C4.89136 7.09574 4.79838 7.27835 4.672 7.43703C4.602 7.52303 4.469 7.65203 4.382 7.71503C3.984 8.00003 3.484 8.07503 3.02 7.92203C2.71348 7.81916 2.44868 7.61951 2.26544 7.35313C2.0822 7.08675 1.99045 6.76806 2.004 6.44503C2.016 6.07003 2.156 5.73803 2.41 5.46903C2.66 5.20703 2.969 5.05503 3.336 5.00803C3.43 4.99603 3.664 5.00403 3.762 5.02303V5.02403ZM8.262 5.02403C8.492 5.06603 8.695 5.15203 8.882 5.28503C9.04588 5.40459 9.18388 5.55607 9.28769 5.73036C9.3915 5.90464 9.45898 6.09812 9.48608 6.29916C9.51317 6.50021 9.49931 6.70465 9.44534 6.9002C9.39136 7.09574 9.29838 7.27835 9.172 7.43703C9.102 7.52303 8.969 7.65203 8.882 7.71503C8.484 8.00003 7.984 8.07503 7.52 7.92203C7.21348 7.81916 6.94868 7.61951 6.76544 7.35313C6.5822 7.08675 6.49045 6.76806 6.504 6.44503C6.516 6.07003 6.656 5.73803 6.91 5.46903C7.16 5.20703 7.469 5.05503 7.836 5.00803C7.93 4.99603 8.164 5.00403 8.262 5.02303V5.02403ZM12.762 5.02403C12.992 5.06603 13.195 5.15203 13.382 5.28503C13.5459 5.40459 13.6839 5.55607 13.7877 5.73036C13.8915 5.90464 13.959 6.09812 13.9861 6.29916C14.0132 6.50021 13.9993 6.70465 13.9453 6.9002C13.8914 7.09574 13.7984 7.27835 13.672 7.43703C13.602 7.52303 13.469 7.65203 13.382 7.71503C12.984 8.00003 12.484 8.07503 12.02 7.92203C11.7135 7.81916 11.4487 7.61951 11.2654 7.35313C11.0822 7.08675 10.9905 6.76806 11.004 6.44503C11.016 6.07003 11.156 5.73803 11.41 5.46903C11.66 5.20703 11.969 5.05503 12.336 5.00803C12.43 4.99603 12.664 5.00403 12.762 5.02303V5.02403Z" fill="#202020"/>
</svg>
