<svg width="16" height="16" viewBox="0 0 16 16" fill="none" xmlns="http://www.w3.org/2000/svg">
<path d="M7.816 1.00805C7.426 1.04705 7.063 1.19505 6.754 1.43405C6.672 1.50005 6.473 1.70405 6.41 1.78905C6.20579 2.0576 6.07267 2.37336 6.023 2.70705C6.008 2.80105 6.003 2.85205 6 3.47705C5.996 4.05905 5.992 4.15205 5.98 4.19905C5.93105 4.43106 5.80204 4.63845 5.61555 4.7849C5.42906 4.93134 5.197 5.00751 4.96 5.00005C4.75 5.00805 4.594 5.02305 4.45 5.05005C3.9649 5.14136 3.5098 5.35088 3.125 5.66005C3 5.75805 2.758 6.00005 2.66 6.12505C2.297 6.58205 2.09 7.08205 2.02 7.67205C2.004 7.77705 2.004 7.92205 2.004 9.99605C2.004 12.0901 2.004 12.2151 2.02 12.3281C2.098 13.0121 2.383 13.6091 2.855 14.0941C3.352 14.6021 3.949 14.8911 4.672 14.9801C4.782 14.9961 4.977 14.9961 8.949 14.9961C12.289 14.9961 13.125 14.9921 13.164 14.9841C13.3695 14.9514 13.5589 14.8532 13.704 14.7041C13.8532 14.559 13.9514 14.3696 13.984 14.1641C13.9996 13.7215 13.9996 13.2786 13.984 12.8361C13.9514 12.6306 13.8532 12.4411 13.704 12.2961C13.5706 12.1557 13.397 12.0604 13.207 12.0231C13.141 12.0081 13.109 12.0031 12.469 12.0001C11.906 11.9961 11.789 11.9921 11.719 11.9801C11.2847 11.9184 10.8827 11.7156 10.575 11.403C10.2673 11.0904 10.0709 10.6853 10.016 10.2501C10 10.1401 10 9.84005 10.02 9.72705C10.0757 9.32565 10.2517 8.95054 10.5248 8.65117C10.7979 8.3518 11.1554 8.14222 11.55 8.05005C11.753 8.00305 11.749 8.00305 12.468 7.99905C13.198 7.99505 13.167 7.99505 13.319 7.94405C13.465 7.89688 13.5967 7.81365 13.702 7.70205C13.8513 7.55739 13.9499 7.36832 13.983 7.16305C13.9986 6.72052 13.9986 6.27758 13.983 5.83505C13.9504 5.62955 13.8522 5.44012 13.703 5.29505C13.5649 5.15409 13.3875 5.05792 13.194 5.01905C13.14 5.00705 13.046 5.00305 11.995 4.99905C10.945 4.99505 10.851 4.99105 10.795 4.97905C10.6041 4.93797 10.4292 4.84243 10.2915 4.704C10.1537 4.56556 10.0591 4.39017 10.019 4.19905C10.007 4.15105 10.003 4.05805 9.999 3.47605C9.995 2.84605 9.991 2.80005 9.976 2.70205C9.925 2.36605 9.796 2.06205 9.593 1.79205C9.47836 1.65199 9.35006 1.52369 9.21 1.40905C8.94083 1.20591 8.62536 1.07292 8.292 1.02205C8.13387 1.00155 7.97411 0.996531 7.815 1.00705L7.816 1.00805Z" fill="#202020"/>
</svg>
