<svg width="16" height="16" viewBox="0 0 16 16" fill="none" xmlns="http://www.w3.org/2000/svg">
<g clip-path="url(#clip0_2064_31375)">
<path d="M0.871002 0.00802832C0.643987 0.0382073 0.434257 0.145544 0.277002 0.312028C0.139527 0.456643 0.0486072 0.63918 0.0160016 0.836028C1.61678e-06 0.910028 1.61678e-06 7.09003 0.0160016 7.16403C0.0550016 7.38303 0.145002 7.55103 0.296002 7.70403C0.449002 7.85503 0.617002 7.94503 0.836002 7.98403C0.910002 8.00003 7.09 8.00003 7.164 7.98403C7.3695 7.95142 7.55894 7.85319 7.704 7.70403C7.85317 7.55896 7.95139 7.36953 7.984 7.16403C8 7.09003 8 0.910028 7.984 0.836028C7.95139 0.630527 7.85317 0.441093 7.704 0.296028C7.56924 0.156942 7.3963 0.0609007 7.207 0.0200283L7.137 0.00402832H4.03C2.233 0.00402832 0.902002 0.00402832 0.871002 0.00802832ZM9.828 1.35503C9.528 1.41003 9.258 1.60503 9.118 1.87503C9.00736 2.0844 8.97477 2.3263 9.02606 2.55749C9.07736 2.78868 9.20919 2.99409 9.398 3.13703C9.484 3.20303 9.57 3.24703 9.727 3.30503C10.4065 3.55643 11.0233 3.95219 11.535 4.46503C12.051 4.98003 12.43 5.57503 12.691 6.26503C12.75 6.41803 12.789 6.50003 12.844 6.57803C13.004 6.80503 13.258 6.95703 13.539 6.99203C13.7207 7.01261 13.9046 6.98348 14.071 6.90775C14.2374 6.83202 14.3802 6.71253 14.484 6.56203C14.5893 6.40904 14.6477 6.22868 14.652 6.04303C14.66 5.87103 14.641 5.77703 14.559 5.54703C14.2141 4.62959 13.681 3.79449 12.994 3.09544C12.307 2.39638 11.4813 1.84884 10.57 1.48803C10.371 1.41003 10.25 1.37103 10.164 1.35503C10.0525 1.3394 9.93946 1.3394 9.828 1.35503ZM8 16H16V8.00003H8V16ZM14 14H10V10H14V14ZM2.191 9.01203C2.03119 9.04016 1.87937 9.10259 1.746 9.19503C1.61778 9.29424 1.51353 9.42104 1.441 9.56603C1.37048 9.71222 1.33847 9.874 1.348 10.036C1.352 10.199 1.375 10.293 1.496 10.59C1.85913 11.4952 2.40637 12.3151 3.10303 12.9976C3.79969 13.6802 4.63058 14.2105 5.543 14.555C5.707 14.617 5.777 14.637 5.875 14.648C5.957 14.66 6.125 14.656 6.203 14.637C6.559 14.559 6.832 14.312 6.949 13.969C7.07 13.609 6.965 13.199 6.691 12.938C6.56972 12.8248 6.42444 12.7403 6.266 12.691C5.58983 12.4391 4.97579 12.0447 4.46557 11.5345C3.95535 11.0242 3.5609 10.4102 3.309 9.73403C3.28479 9.66907 3.25742 9.60533 3.227 9.54303C3.15827 9.40953 3.06038 9.29321 2.94059 9.20268C2.82081 9.11215 2.68219 9.04972 2.535 9.02003C2.42142 8.99979 2.3054 8.99709 2.191 9.01203Z" fill="currentColor"/>
</g>
<defs>
<clipPath id="clip0_2064_31375">
<rect width="16" height="16" fill="white"/>
</clipPath>
</defs>
</svg>
