<svg width="16" height="16" viewBox="0 0 16 16" fill="none" xmlns="http://www.w3.org/2000/svg">
<g clip-path="url(#clip0_2064_32699)">
<path d="M13.816 0.00805176C13.777 0.0120518 13.703 0.0230518 13.648 0.0310518C13.3742 0.0804303 13.1137 0.186207 12.8831 0.341662C12.6524 0.497117 12.4565 0.698852 12.308 0.934052L12.27 0.996052L10.652 1.00005C9.472 1.00405 9.012 1.00805 8.953 1.01605C8.67144 1.03994 8.3936 1.09631 8.125 1.18405C7.56743 1.36484 7.09059 1.73485 6.777 2.23005C6.707 2.34805 6.597 2.57405 6.547 2.70705C6.437 3.00005 6.367 3.33605 6.344 3.69505C6.34 3.76505 6.336 4.41505 6.336 5.40205V7.00005L5.102 7.00405C3.961 7.00405 3.859 7.00405 3.809 7.02005C3.758 7.03105 3.754 7.03105 3.746 7.02005C3.539 6.68005 3.324 6.46005 3.023 6.28105C2.76398 6.12893 2.47436 6.03637 2.17513 6.01007C1.8759 5.98378 1.57457 6.02443 1.293 6.12905C1.00054 6.24377 0.737444 6.42247 0.522998 6.65205C0.32161 6.87119 0.172103 7.13282 0.0855513 7.41758C-0.00100058 7.70233 -0.0223794 8.00291 0.0229983 8.29705C0.108998 8.85905 0.409998 9.33605 0.878998 9.65705C1.13143 9.8264 1.41891 9.93641 1.71991 9.97884C2.0209 10.0213 2.32759 9.99502 2.617 9.90205C2.98 9.78505 3.317 9.55505 3.551 9.26605C3.594 9.21105 3.703 9.05105 3.746 8.98005C3.754 8.96905 3.758 8.96905 3.809 8.98005C3.859 8.99605 3.961 8.99605 5.102 8.99605L6.336 9.00005V10.5981C6.336 11.5861 6.34 12.2341 6.344 12.3051C6.418 13.3711 6.864 14.1521 7.66 14.6091C8.008 14.8091 8.406 14.9261 8.953 14.9841C9.012 14.9921 9.508 14.9961 10.648 14.9961L12.266 15.0001L12.301 15.0591C12.511 15.3911 12.821 15.6601 13.171 15.8201C13.625 16.0271 14.145 16.0551 14.617 15.9021C14.9463 15.7956 15.2423 15.6053 15.4758 15.3499C15.7094 15.0944 15.8724 14.7826 15.949 14.4451C15.984 14.2851 15.996 14.1871 15.996 14.0001C15.996 13.8121 15.984 13.7151 15.949 13.5551C15.8737 13.2259 15.7165 12.921 15.4918 12.6689C15.2671 12.4168 14.9824 12.2256 14.664 12.1131C14.3378 11.9996 13.9881 11.9714 13.648 12.0311C13.3746 12.0814 13.1145 12.1876 12.8839 12.343C12.6534 12.4983 12.4573 12.6995 12.308 12.9341L12.27 12.9961L10.754 13.0001C9.214 13.0001 9.121 13.0001 8.961 12.9731C8.82191 12.9526 8.68945 12.9003 8.574 12.8201C8.469 12.7381 8.402 12.5981 8.359 12.3601L8.339 12.2701V10.6371L8.337 9.00005L10.235 8.99605C12.001 8.99605 12.142 8.99605 12.192 8.98005C12.224 8.97705 12.247 8.97305 12.251 8.97705C12.255 8.97705 12.278 9.01605 12.301 9.05505C12.5377 9.43387 12.894 9.72294 13.3135 9.87653C13.7329 10.0301 14.1916 10.0394 14.617 9.90305C14.9466 9.79666 15.2429 9.60628 15.4766 9.35063C15.7104 9.09498 15.8735 8.78289 15.95 8.44505C15.985 8.28505 15.997 8.18705 15.997 8.00005C15.997 7.81205 15.985 7.71505 15.95 7.55505C15.8747 7.22586 15.7175 6.92104 15.4928 6.66893C15.2681 6.41682 14.9834 6.2256 14.665 6.11305C14.3388 5.99962 13.9891 5.9714 13.649 6.03105C13.3733 6.08134 13.111 6.1886 12.8791 6.34598C12.6472 6.50336 12.4506 6.7074 12.302 6.94505C12.2874 6.97253 12.2703 6.99864 12.251 7.02305C12.251 7.02705 12.224 7.02305 12.192 7.01605C12.142 7.00805 11.95 7.00405 10.235 7.00405L8.336 7.00005L8.34 5.36305V3.73005L8.36 3.64005C8.395 3.45705 8.434 3.35205 8.496 3.26205C8.598 3.11705 8.805 3.03505 9.125 3.00805C9.18 3.00405 9.785 3.00005 10.738 3.00005H12.266L12.301 3.05905C12.511 3.39105 12.821 3.66005 13.171 3.82005C13.625 4.02705 14.145 4.05505 14.617 3.90205C14.9463 3.7956 15.2423 3.6053 15.4758 3.34985C15.7094 3.0944 15.8724 2.78259 15.949 2.44505C15.984 2.28505 15.996 2.18805 15.996 2.00005C15.996 1.81205 15.984 1.71505 15.949 1.55505C15.8737 1.22586 15.7165 0.921043 15.4918 0.668933C15.2671 0.416823 14.9824 0.225604 14.664 0.113052C14.4631 0.0424161 14.2519 0.00525492 14.039 0.00305176C13.957 0.00305176 13.855 0.00305176 13.816 0.00805176Z" fill="#202020"/>
</g>
<defs>
<clipPath id="clip0_2064_32699">
<rect width="16" height="16" fill="white"/>
</clipPath>
</defs>
</svg>
