<svg width="16" height="16" viewBox="0 0 16 16" fill="none" xmlns="http://www.w3.org/2000/svg">
<g clip-path="url(#clip0_2064_32981)">
<path d="M2.82 0.00402832C2.20124 0.0443499 1.60969 0.273292 1.125 0.660028C1 0.758028 0.758002 1.00003 0.660002 1.12503C0.297002 1.58203 0.0900016 2.08203 0.0200016 2.67203C0.00400162 2.78203 0.00400162 3.04303 0.00400162 7.99603C0.00400162 12.992 0.00400162 13.211 0.0200016 13.328C0.0590016 13.684 0.152002 14.008 0.305002 14.316C0.52655 14.7696 0.858998 15.1599 1.27154 15.4508C1.68409 15.7417 2.16338 15.9237 2.665 15.98C2.754 15.996 3.109 15.996 7.915 16C11.59 16 13.102 16 13.191 15.992C13.6385 15.9654 14.0741 15.8378 14.4652 15.6187C14.8563 15.3996 15.1926 15.0948 15.449 14.727C15.746 14.305 15.914 13.863 15.98 13.328C15.996 13.218 15.996 12.988 15.996 8.00003C15.996 3.01203 15.996 2.78103 15.98 2.67203C15.9186 2.10587 15.6965 1.56909 15.34 1.12503C15.1977 0.955307 15.0407 0.798374 14.871 0.656028C14.4298 0.303169 13.8975 0.0826421 13.336 0.0200283C13.234 0.00402832 12.946 0.00402832 8.046 0.00402832H2.82ZM6.7 2.02003C7.105 2.11303 7.395 2.40203 7.48 2.80503C7.5 2.89803 7.5 3.10203 7.48 3.19503C7.395 3.59803 7.098 3.89503 6.695 3.98003C6.62152 3.99153 6.54736 3.99821 6.473 4.00003C6.14605 4.00141 5.82877 4.11108 5.57076 4.31192C5.31276 4.51275 5.12857 4.79341 5.047 5.11003C5.016 5.23003 5.007 5.30903 5 5.52003C4.98976 6.41194 4.63586 7.26552 4.012 7.90303L3.922 8.00003L4.035 8.12103C4.64467 8.75662 4.98967 9.60037 5 10.481C4.99356 10.6784 5.02691 10.875 5.09807 11.0592C5.16923 11.2434 5.27674 11.4113 5.4142 11.5531C5.55165 11.6948 5.71624 11.8074 5.89814 11.8842C6.08005 11.961 6.27555 12.0004 6.473 12C6.566 12.003 6.664 12.01 6.695 12.019C7.098 12.104 7.395 12.401 7.48 12.804C7.5 12.897 7.5 13.101 7.48 13.194C7.44109 13.3877 7.34582 13.5655 7.20615 13.7052C7.06648 13.8448 6.88865 13.9401 6.695 13.979C6.60988 13.9941 6.52333 13.9995 6.437 13.995C6.242 13.995 6.125 13.987 5.953 13.96C5.1377 13.836 4.39305 13.4261 3.8521 12.8037C3.31115 12.1812 3.00913 11.3867 3 10.562C3 10.215 2.91 9.93003 2.715 9.65603C2.684 9.60903 2.543 9.46103 2.207 9.12503C1.918 8.83503 1.727 8.63703 1.699 8.59803C1.61167 8.47765 1.55037 8.3404 1.519 8.19503C1.49954 8.06576 1.49954 7.9343 1.519 7.80503C1.551 7.66003 1.613 7.52003 1.699 7.40203C1.727 7.36303 1.918 7.16403 2.203 6.87903C2.461 6.62103 2.68 6.39103 2.703 6.35903C2.903 6.08903 3 5.78903 3 5.43803C3 5.09803 3.063 4.71803 3.18 4.37503C3.35034 3.86386 3.63738 3.39938 4.01837 3.01839C4.39936 2.6374 4.86383 2.35037 5.375 2.18003C5.648 2.08603 5.922 2.03103 6.219 2.00803C6.348 1.99603 6.634 2.00403 6.7 2.02003ZM9.898 2.02003C10.7419 2.11237 11.5231 2.50996 12.0943 3.13797C12.6656 3.76599 12.9877 4.58113 13 5.43003C13.004 5.54303 13.012 5.66803 13.02 5.70703C13.059 5.94503 13.148 6.16003 13.297 6.35903C13.32 6.39503 13.527 6.60903 13.797 6.87903C14.082 7.16403 14.273 7.36303 14.301 7.40203C14.387 7.52003 14.449 7.66003 14.481 7.80503C14.5 7.89803 14.5 8.10203 14.481 8.19503C14.4496 8.3404 14.3883 8.47765 14.301 8.59803C14.273 8.63703 14.082 8.83603 13.797 9.12103C13.527 9.39103 13.32 9.60503 13.297 9.64103C13.094 9.9088 12.9892 10.2382 13 10.574C12.992 10.809 12.98 10.945 12.95 11.121C12.8332 11.7848 12.5263 12.4005 12.0666 12.8934C11.6069 13.3863 11.0141 13.7353 10.36 13.898C10.21 13.934 10.004 13.968 9.852 13.984C9.692 14 9.387 14 9.305 13.98C8.898 13.89 8.605 13.598 8.52 13.195C8.50054 13.0658 8.50054 12.9343 8.52 12.805C8.605 12.402 8.902 12.105 9.305 12.02C9.335 12.012 9.434 12.004 9.52 12C9.63536 11.9978 9.75024 11.9844 9.863 11.96C10.403 11.832 10.832 11.402 10.961 10.863C10.989 10.7363 11.002 10.6068 11 10.477C11.016 10.067 11.063 9.77303 11.176 9.43003C11.34 8.93403 11.598 8.51603 11.988 8.09803L12.078 8.00003L11.988 7.90203C11.5839 7.49092 11.2899 6.98469 11.133 6.43003C11.0477 6.13411 11.003 5.82798 11 5.52003C11.0056 5.32285 10.9717 5.12654 10.9002 4.94268C10.8288 4.75881 10.7213 4.59111 10.584 4.44946C10.4467 4.3078 10.2825 4.19506 10.1009 4.11787C9.9194 4.04068 9.72426 4.00062 9.527 4.00003C9.45265 3.99821 9.37849 3.99153 9.305 3.98003C9.11135 3.94112 8.93352 3.84585 8.79385 3.70618C8.65418 3.56651 8.55891 3.38868 8.52 3.19503C8.50054 3.06576 8.50054 2.9343 8.52 2.80503C8.574 2.55503 8.707 2.34403 8.906 2.19503C9.023 2.10903 9.191 2.03903 9.328 2.01503C9.359 2.01203 9.391 2.00403 9.398 2.00403C9.426 1.99603 9.805 2.00803 9.898 2.02003Z" fill="#202020"/>
</g>
<defs>
<clipPath id="clip0_2064_32981">
<rect width="16" height="16" fill="white"/>
</clipPath>
</defs>
</svg>
