<svg width="16" height="16" viewBox="0 0 16 16" fill="none" xmlns="http://www.w3.org/2000/svg">
<g clip-path="url(#clip0_2064_33827)">
<path d="M6.188 0.00805602C5.987 0.0333026 5.79369 0.101146 5.621 0.207056C5.45718 0.314919 5.31645 0.454289 5.207 0.617056C5.051 0.863056 4.969 1.21106 5.012 1.44906C5.03344 1.57924 5.09497 1.6995 5.188 1.79306C5.25188 1.86179 5.33052 1.91513 5.418 1.94906C5.547 2.00406 5.363 2.00006 8 2.00006C10.621 2.00006 10.45 2.00406 10.578 1.95306C10.6584 1.92138 10.7315 1.87376 10.793 1.81306C10.957 1.65606 11.02 1.46106 10.993 1.19506C10.9596 0.884528 10.818 0.595654 10.593 0.379056C10.3803 0.169135 10.1023 0.0382291 9.805 0.00805602C8.59935 0.000244348 7.39366 0.000244348 6.188 0.00805602ZM3.188 3.00806C2.987 3.0333 2.79369 3.10115 2.621 3.20706C2.45718 3.31492 2.31645 3.45429 2.207 3.61706C2.051 3.86306 1.969 4.21106 2.012 4.44906C2.03317 4.57912 2.09434 4.69936 2.187 4.79306C2.28355 4.89637 2.4115 4.96492 2.551 4.98806C2.613 5.00006 3.176 5.00006 8 5.00006C12.8 5.00006 13.387 5.00006 13.45 4.98806C13.5798 4.96642 13.6997 4.9049 13.793 4.81206C13.957 4.65606 14.02 4.46106 13.993 4.19506C13.9596 3.88453 13.818 3.59565 13.593 3.37906C13.3803 3.16913 13.1023 3.03823 12.805 3.00806C12.71 3.00006 3.277 3.00006 3.188 3.00806ZM2.82 6.00406C2.20124 6.04438 1.60969 6.27332 1.125 6.66006C1 6.75806 0.758002 7.00006 0.660002 7.12506C0.297002 7.58206 0.0900016 8.08206 0.0200016 8.67206C0.00400162 8.77706 0.00400162 8.92206 0.00400162 10.9961C0.00400162 13.0901 0.00400162 13.2151 0.0200016 13.3281C0.0590016 13.6841 0.152002 14.0081 0.305002 14.3161C0.52655 14.7696 0.858998 15.1599 1.27154 15.4508C1.68409 15.7417 2.16338 15.9237 2.665 15.9801C2.754 15.9961 3.109 15.9961 7.915 16.0001C13.172 16.0001 13.191 16.0001 13.402 15.9731C14.0428 15.8876 14.6382 15.5955 15.098 15.1411C15.5403 14.711 15.8378 14.1539 15.949 13.5471C16 13.2701 15.996 13.4451 15.996 11.0001C15.996 8.55506 16 8.73006 15.949 8.45306C15.8595 7.96649 15.6498 7.51001 15.339 7.12506C15.197 6.95538 15.0404 6.79845 14.871 6.65606C14.4298 6.3032 13.8975 6.08267 13.336 6.02006C13.234 6.00406 12.946 6.00406 8.046 6.00406H2.82ZM11.203 8.02006C11.5 8.09006 11.727 8.25806 11.871 8.50806C12.066 8.84806 12.039 9.28106 11.805 9.59806C11.6547 9.79508 11.4379 9.93082 11.195 9.98006C11.133 9.99606 10.965 9.99606 7 9.99606C3.035 9.99606 2.867 9.99606 2.805 9.98006C2.6558 9.95051 2.51526 9.88745 2.39399 9.79563C2.27273 9.70382 2.17391 9.58565 2.105 9.45006C2.03351 9.31112 1.99874 9.15622 2.004 9.00006C2.00065 8.89145 2.01656 8.78311 2.051 8.68006C2.168 8.32806 2.477 8.07006 2.848 8.01206C2.898 8.00406 3.746 8.00006 7.028 8.00406C10.965 8.00406 11.148 8.00406 11.203 8.02006ZM9.203 12.0201C9.5 12.0901 9.727 12.2581 9.871 12.5081C10.066 12.8481 10.039 13.2811 9.805 13.5981C9.65465 13.7951 9.43789 13.9308 9.195 13.9801C9.133 13.9961 8.996 13.9961 6 13.9961C3.004 13.9961 2.867 13.9961 2.805 13.9801C2.6558 13.9505 2.51526 13.8874 2.39399 13.7956C2.27273 13.7038 2.17391 13.5857 2.105 13.4501C2.03351 13.3111 1.99874 13.1562 2.004 13.0001C2.00065 12.8915 2.01656 12.7831 2.051 12.6801C2.168 12.3281 2.477 12.0701 2.848 12.0121C2.898 12.0041 3.551 12.0001 6.028 12.0041C9 12.0041 9.148 12.0041 9.203 12.0201Z" fill="#202020"/>
</g>
<defs>
<clipPath id="clip0_2064_33827">
<rect width="16" height="16" fill="white"/>
</clipPath>
</defs>
</svg>
