<svg width="16" height="16" viewBox="0 0 16 16" fill="none" xmlns="http://www.w3.org/2000/svg">
<path d="M2.8 1.00403C2.07782 1.05147 1.39721 1.35873 0.883983 1.86901C0.370753 2.3793 0.0595888 3.05813 0.008 3.78003C0 3.86003 0 5.15203 0 8.06303C0.004 12 0.004 12.234 0.02 12.336C0.095911 13.0126 0.399893 13.6431 0.881913 14.1238C1.36393 14.6046 1.99527 14.9069 2.672 14.981C2.782 14.996 3.023 14.996 8 14.996C12.988 14.996 13.219 14.996 13.328 14.98C14.0063 14.9068 14.6391 14.6039 15.1215 14.1215C15.6039 13.6391 15.9068 13.0063 15.98 12.328C15.996 12.211 15.996 12.023 15.996 7.99203C15.996 3.45703 16 3.73403 15.957 3.48803C15.8638 2.95115 15.6263 2.44974 15.27 2.03752C14.9136 1.62531 14.4518 1.31783 13.934 1.14803C13.7529 1.08997 13.5672 1.04716 13.379 1.02003L13.262 1.00403H2.8ZM4 8.00003H2V5.00003H4V8.00003ZM10 8.00003H6V5.00003H10V8.00003ZM14 8.00003H12V5.00003H14V8.00003ZM4 13H3.465C2.883 13 2.848 12.996 2.707 12.957C2.55099 12.9093 2.40898 12.8243 2.29327 12.7093C2.17756 12.5942 2.09166 12.4527 2.043 12.297C2 12.152 2 12.164 2 11.035V10H4V13ZM10 13H6V10H10V13ZM14 11.035C14 12.156 14 12.145 13.957 12.289C13.867 12.602 13.602 12.867 13.289 12.957C13.152 12.997 13.117 13 12.539 13H12V10H14V11.035Z" fill="#202020"/>
</svg>
