<svg width="16" height="16" viewBox="0 0 16 16" fill="none" xmlns="http://www.w3.org/2000/svg">
<g clip-path="url(#clip0_2064_33545)">
<path d="M4.871 0.00802832C4.66321 0.0353793 4.46927 0.127324 4.31657 0.270874C4.16386 0.414424 4.06012 0.602324 4.02 0.808028C4 0.902028 4 1.09803 4.02 1.19103C4.105 1.63703 4.477 1.96103 4.934 1.99603L5 2.00403L4.996 4.36703C4.996 6.54703 4.996 6.73803 4.98 6.81303C4.93895 7.10259 4.8352 7.3797 4.676 7.62503L4.164 8.34403C2.676 10.414 0.941 12.828 0.898 12.894C0.641243 13.2736 0.52522 13.731 0.57 14.187C0.633 14.777 0.945 15.313 1.422 15.645C1.66 15.813 1.918 15.918 2.227 15.973L2.347 15.996L7.937 16C11.844 16 13.555 16 13.617 15.992C13.73 15.98 13.836 15.965 13.93 15.942C14.2985 15.847 14.6325 15.6493 14.8931 15.3719C15.1537 15.0945 15.3302 14.7488 15.402 14.375C15.43 14.227 15.442 14.109 15.434 13.934C15.4326 13.7285 15.3953 13.5248 15.324 13.332C15.2642 13.1831 15.1923 13.0393 15.109 12.902C15.059 12.828 13.32 10.406 11.836 8.34403C11.324 7.63303 11.296 7.59003 11.226 7.46103C11.1231 7.26585 11.0544 7.05444 11.023 6.83603L11.003 6.73803V4.37103L11 2.00403L11.066 1.99603C11.2863 1.98139 11.4954 1.89415 11.6608 1.74794C11.8262 1.60174 11.9385 1.40483 11.98 1.18803C12 1.09803 12 0.902028 11.98 0.813028C11.9432 0.619559 11.8503 0.441194 11.7129 0.300176C11.5754 0.159157 11.3995 0.0617245 11.207 0.0200283L11.137 0.00402832H8.03C6.26 0.00402832 4.902 0.00402832 4.871 0.00802832ZM9.004 4.40203C9.004 7.02303 9.004 6.85503 9.047 7.14103C9.14691 7.78276 9.40006 8.39094 9.785 8.91403L9.844 8.99603L8.922 9.00003H7.078L6.156 8.99603L6.215 8.91403C6.67568 8.28943 6.94556 7.54475 6.992 6.77003C6.996 6.68803 7 5.83203 7 4.32403V2.00003H9L9.004 4.40203ZM10.762 11.023C10.992 11.066 11.195 11.153 11.382 11.285C11.5459 11.4046 11.6839 11.5561 11.7877 11.7304C11.8915 11.9046 11.959 12.0981 11.9861 12.2992C12.0132 12.5002 11.9993 12.7047 11.9453 12.9002C11.8914 13.0957 11.7984 13.2783 11.672 13.437C11.602 13.523 11.469 13.652 11.382 13.715C10.984 14 10.484 14.075 10.02 13.922C9.71348 13.8192 9.44867 13.6195 9.26544 13.3531C9.0822 13.0868 8.99045 12.7681 9.004 12.445C9.016 12.07 9.156 11.738 9.41 11.469C9.66 11.207 9.969 11.055 10.336 11.008C10.43 10.996 10.664 11.004 10.762 11.023Z" fill="#202020"/>
</g>
<defs>
<clipPath id="clip0_2064_33545">
<rect width="16" height="16" fill="white"/>
</clipPath>
</defs>
</svg>
