<svg width="16" height="16" viewBox="0 0 16 16" fill="none" xmlns="http://www.w3.org/2000/svg">
<path d="M6.66 0.00404748L6.09 0.0350475C4.836 0.133047 3.695 0.418047 2.785 0.867047C2.305 1.10205 1.937 1.35505 1.633 1.66405C1.418 1.87905 1.293 2.04705 1.18 2.27405C0.879001 2.88305 0.960001 3.50805 1.418 4.10205C1.508 4.21505 1.73 4.44205 1.863 4.55105C2.324 4.93005 2.938 5.25005 3.672 5.49605C4.285 5.69905 4.98 5.84805 5.707 5.93005C5.918 5.95305 6.41 5.98805 6.418 5.98405C6.418 5.98005 6.457 5.90605 6.5 5.81305C6.74893 5.29536 7.08748 4.82579 7.5 4.42605C8.12347 3.80983 8.90026 3.37138 9.75 3.15605C10.556 2.95321 11.3992 2.94943 12.207 3.14505C12.4595 3.21041 12.7074 3.2926 12.949 3.39105C12.949 3.38705 12.957 3.35105 12.969 3.30505C13.063 2.82805 12.934 2.35205 12.582 1.89805C12.4481 1.73732 12.3005 1.58844 12.141 1.45305C11.8562 1.22229 11.5455 1.02562 11.215 0.867047C10.23 0.383047 9.008 0.0940475 7.609 0.0160475C7.29277 0.00633465 6.97638 0.002334 6.66 0.00404748Z" fill="#202020"/>
<path d="M10.793 4.00405C9.86584 4.0514 8.98408 4.42002 8.29908 5.04664C7.61408 5.67325 7.16856 6.51876 7.039 7.43805C7.01264 7.62418 7.00094 7.81209 7.004 8.00005C7.00068 8.65968 7.16177 9.30974 7.47273 9.89149C7.78368 10.4732 8.23469 10.9683 8.785 11.332C9.33115 11.6963 9.95935 11.919 10.613 11.98C10.77 12 11.195 12 11.348 11.984C11.504 11.969 11.664 11.945 11.793 11.922C12.3842 11.8031 12.9408 11.5518 13.421 11.1871C13.9013 10.8223 14.2927 10.3536 14.566 9.81605C14.796 9.36305 14.934 8.87905 14.984 8.34405C15.0778 7.29469 14.7524 6.25087 14.079 5.44066C13.4056 4.63045 12.4388 4.11971 11.39 4.02005C11.1913 4.00692 10.9921 4.00159 10.793 4.00405ZM11.586 5.71405C11.656 5.72705 11.715 5.75005 11.773 5.78505C11.816 5.81605 13.566 7.55105 13.66 7.66505C13.719 7.73005 13.766 7.82505 13.781 7.89505C13.7926 7.96457 13.7926 8.03553 13.781 8.10505C13.7658 8.16917 13.7394 8.2301 13.703 8.28505C13.676 8.32805 11.898 10.113 11.82 10.175C11.7306 10.2536 11.615 10.2957 11.496 10.293C11.3905 10.2912 11.2881 10.2567 11.2029 10.1944C11.1177 10.1322 11.0538 10.045 11.02 9.94505C11.004 9.89505 11.004 9.88305 11 9.44505V9.00005H9.723C8.637 9.00005 8.44 9.00005 8.395 8.98805C8.32311 8.97103 8.25564 8.93896 8.19703 8.89398C8.13843 8.84899 8.09002 8.7921 8.055 8.72705C8 8.61305 8 8.62005 8 7.99705C8 7.46905 8 7.43705 8.016 7.37905C8.03343 7.30991 8.06536 7.24527 8.10966 7.18941C8.15397 7.13355 8.20965 7.08775 8.273 7.05505C8.395 6.99605 8.301 7.00005 9.727 7.00005H11V6.57405C11 6.10505 11 6.08605 11.05 5.98805C11.088 5.91101 11.1449 5.84484 11.2154 5.79571C11.2858 5.74657 11.3676 5.71607 11.453 5.70705C11.4975 5.70237 11.5424 5.70407 11.586 5.71405ZM1.531 5.73405C1.336 5.76205 1.133 5.89405 1.059 6.05405C0.996001 6.17705 1 6.13005 1 7.15305C1 7.71605 1.004 8.09105 1.008 8.14205C1.039 8.47405 1.176 8.79005 1.418 9.10205C1.566 9.29805 1.855 9.56005 2.113 9.73905C2.68 10.138 3.433 10.462 4.301 10.681C5.071 10.872 5.871 10.978 6.766 10.997L6.996 11.005L6.965 10.962C6.35865 10.1315 6.02308 9.13421 6.004 8.10605C5.996 7.73105 6.02 7.44605 6.098 6.99705L6.102 6.97405L6.039 6.96605C5.37362 6.91808 4.71356 6.81337 4.066 6.65305C3.34327 6.47844 2.64711 6.20805 1.996 5.84905C1.809 5.74305 1.696 5.71505 1.531 5.73405ZM1.531 10.734C1.336 10.762 1.133 10.894 1.059 11.054C0.996001 11.176 1 11.129 1 12.152C1 12.715 1.004 13.09 1.008 13.141C1.028 13.34 1.086 13.535 1.18 13.727C1.293 13.953 1.418 14.121 1.633 14.336C1.941 14.645 2.309 14.898 2.793 15.136C3.602 15.536 4.609 15.809 5.711 15.93C6.171 15.98 6.473 15.996 6.992 15.996C7.406 15.996 7.586 15.988 7.914 15.965C9.664 15.832 11.214 15.313 12.141 14.547C12.27 14.441 12.496 14.215 12.582 14.102C12.824 13.789 12.961 13.472 12.992 13.141C12.996 13.098 13 12.953 13 12.824V12.59L12.867 12.64C11.959 13.0018 10.9656 13.0928 10.007 12.902C9.48482 12.7963 8.98285 12.6079 8.52 12.344C8.35024 12.2471 8.18568 12.1413 8.027 12.027L7.949 11.969L7.797 11.977C6.77791 12.0409 5.75484 11.9815 4.75 11.8C3.715 11.612 2.75 11.276 1.996 10.847C1.809 10.741 1.696 10.714 1.531 10.733V10.734Z" fill="#202020"/>
</svg>
