<svg width="16" height="16" viewBox="0 0 16 16" fill="none" xmlns="http://www.w3.org/2000/svg">
<g clip-path="url(#clip0_2435_29034)">
<path d="M13.438 0.709978C13.3353 0.723482 13.2392 0.768385 13.163 0.83855C13.0867 0.908714 13.034 1.00072 13.012 1.10198C13.004 1.15198 13 1.22998 13 1.58198V1.99998L11.016 2.00398C9.566 2.00398 9.008 2.00798 8.949 2.01598C8.66863 2.03901 8.39201 2.09541 8.125 2.18398C7.56743 2.36477 7.09059 2.73477 6.777 3.22998C6.707 3.34798 6.597 3.57398 6.547 3.70698C6.437 3.99998 6.367 4.33598 6.344 4.69498C6.33689 5.09727 6.33423 5.49963 6.336 5.90198V6.99998H3.734L3.68 6.90998C3.5106 6.65398 3.28613 6.43907 3.023 6.28098C2.76398 6.12886 2.47436 6.03629 2.17513 6.01C1.8759 5.98371 1.57457 6.02435 1.293 6.12898C1.00054 6.2437 0.737444 6.4224 0.522998 6.65198C0.32161 6.87111 0.172103 7.13275 0.0855513 7.4175C-0.00100058 7.70226 -0.0223794 8.00284 0.0229983 8.29698C0.108998 8.85898 0.409998 9.33598 0.878998 9.65698C1.13143 9.82632 1.41891 9.93634 1.71991 9.97877C2.0209 10.0212 2.32759 9.99495 2.617 9.90198C3.04894 9.762 3.41987 9.47824 3.668 9.09798L3.734 8.99998H6.336V10.094C6.336 11.214 6.34 11.309 6.367 11.547C6.527 12.828 7.309 13.684 8.535 13.926C8.668 13.949 8.77 13.965 8.953 13.984C9.012 13.992 9.59 13.996 11.02 13.996L13 14V14.418C13 14.77 13.004 14.848 13.012 14.898C13.0273 14.9711 13.0592 15.0398 13.1051 15.0987C13.151 15.1576 13.2098 15.2053 13.277 15.238C13.352 15.278 13.414 15.289 13.5 15.289C13.5795 15.2905 13.6583 15.2734 13.73 15.239C13.781 15.211 13.855 15.137 14.738 14.254C15.48 13.516 15.699 13.293 15.723 13.254C15.7695 13.1778 15.7911 13.089 15.785 13C15.7911 12.9109 15.7695 12.8222 15.723 12.746C15.699 12.707 15.48 12.484 14.738 11.746C13.855 10.863 13.781 10.789 13.73 10.762C13.7 10.75 13.652 10.73 13.625 10.722C13.5437 10.7064 13.4603 10.7064 13.379 10.722C13.2887 10.7452 13.2065 10.793 13.1417 10.86C13.0769 10.9271 13.032 11.0109 13.012 11.102C13.004 11.152 13 11.23 13 11.582V12H11.11C9.906 12 9.184 11.996 9.125 11.992C8.875 11.969 8.687 11.91 8.575 11.82C8.469 11.738 8.402 11.598 8.359 11.36C8.339 11.27 8.339 11.266 8.339 10.133L8.337 8.99998H13V9.41798C13 9.76998 13.004 9.84798 13.012 9.89798C13.0273 9.9711 13.0592 10.0398 13.1051 10.0987C13.151 10.1576 13.2098 10.2053 13.277 10.238C13.352 10.278 13.414 10.289 13.5 10.289C13.5795 10.2905 13.6583 10.2734 13.73 10.239C13.781 10.211 13.855 10.137 14.738 9.25398C15.48 8.51598 15.699 8.29298 15.723 8.25398C15.7695 8.17777 15.7911 8.08902 15.785 7.99998C15.7911 7.91093 15.7695 7.82218 15.723 7.74598C15.699 7.70698 15.48 7.48398 14.738 6.74598C13.855 5.86298 13.781 5.78898 13.73 5.76198C13.6598 5.7273 13.5823 5.70982 13.504 5.71098C13.3893 5.70791 13.2771 5.74529 13.1871 5.81659C13.0972 5.8879 13.0352 5.98857 13.012 6.10098C13.004 6.15198 13 6.23098 13 6.58198V6.99998H8.336L8.34 5.86298C8.34 4.73398 8.34 4.72998 8.36 4.64098C8.395 4.46098 8.434 4.35098 8.496 4.26098C8.598 4.11698 8.805 4.03498 9.125 4.00798C9.184 4.00398 9.906 3.99998 11.109 3.99998H13V4.41798C13 4.88298 13.004 4.90998 13.05 5.01198C13.0982 5.11061 13.1782 5.1902 13.277 5.23798C13.352 5.27798 13.414 5.28898 13.5 5.28898C13.5795 5.29047 13.6583 5.27335 13.73 5.23898C13.781 5.21098 13.855 5.13698 14.738 4.25398C15.758 3.23798 15.73 3.26598 15.77 3.15198C15.7933 3.05199 15.7933 2.94797 15.77 2.84798C15.73 2.73398 15.758 2.76198 14.738 1.74598C13.855 0.862978 13.781 0.788978 13.73 0.761978C13.639 0.718092 13.5375 0.700432 13.437 0.710978L13.438 0.709978Z" fill="currentColor"/>
</g>
<defs>
<clipPath id="clip0_2435_29034">
<rect width="16" height="16" fill="white"/>
</clipPath>
</defs>
</svg>
