<svg width="16" height="16" viewBox="0 0 16 16" fill="none" xmlns="http://www.w3.org/2000/svg">
<g clip-path="url(#clip0_2064_34960)">
<path d="M3.824 0.00390625C3.20357 0.0421404 2.61014 0.271271 2.125 0.659906C2 0.757906 1.758 0.999906 1.66 1.12491C1.297 1.58191 1.09 2.08191 1.02 2.67191C1.004 2.78191 1.004 3.04291 1.004 7.99591C1.004 12.9919 1.004 13.2109 1.02 13.3279C1.098 14.0079 1.383 14.6089 1.848 15.0859C2.297 15.5429 2.84 15.8359 3.457 15.9489C3.734 15.9999 3.336 15.9959 7.914 15.9999C10.871 15.9999 12.102 15.9999 12.191 15.9919C12.6385 15.9653 13.0741 15.8377 13.4652 15.6186C13.8563 15.3995 14.1926 15.0946 14.449 14.7269C14.746 14.3049 14.914 13.8629 14.98 13.3279C14.996 13.2229 14.996 13.0739 14.996 10.5229C14.996 7.49591 15 7.76191 14.937 7.51191C14.871 7.24991 14.757 7.01191 14.59 6.78891C14.4764 6.65014 14.3491 6.52317 14.21 6.40991C13.9417 6.20584 13.6263 6.07274 13.293 6.02291C13.191 6.00291 13.168 6.00291 11.996 5.99991C10.934 5.99591 10.793 5.99191 10.719 5.97991C10.2895 5.92059 9.89138 5.72171 9.586 5.41391C9.27892 5.108 9.08018 4.71016 9.02 4.28091C9.008 4.20691 9.004 4.06591 9 3.00391C8.996 1.82791 8.996 1.80891 8.977 1.70391C8.92633 1.37333 8.79476 1.06039 8.594 0.792906C8.47905 0.652797 8.35041 0.524496 8.21 0.409906C7.94073 0.206385 7.62542 0.0724277 7.292 0.0199062C7.191 0.00390625 7.191 0.00390625 5.527 0.00390625H3.824Z" fill="currentColor"/>
<path d="M10.438 0.209906C10.3346 0.222889 10.2379 0.267989 10.1614 0.338852C10.085 0.409715 10.0327 0.502769 10.012 0.604906C10 0.659906 10 0.839906 10.004 2.40191C10.004 4.03491 10.004 4.14091 10.02 4.19491C10.07 4.40991 10.152 4.55891 10.297 4.70291C10.4347 4.84406 10.6117 4.94057 10.805 4.97991C10.859 4.99591 10.965 4.99591 12.598 4.99591C14.16 4.99991 14.34 4.99991 14.395 4.98791C14.5068 4.96441 14.6071 4.90301 14.6789 4.81409C14.7507 4.72517 14.7896 4.61419 14.789 4.49991C14.7927 4.42406 14.7765 4.34855 14.742 4.28091L14.711 4.21491L12.746 2.25391C10.91 0.417906 10.781 0.288906 10.73 0.261906C10.639 0.218021 10.5375 0.200361 10.437 0.210906L10.438 0.209906Z" fill="currentColor"/>
</g>
<defs>
<clipPath id="clip0_2064_34960">
<rect width="16" height="16" fill="white"/>
</clipPath>
</defs>
</svg>
