<svg width="16" height="16" viewBox="0 0 16 16" fill="none" xmlns="http://www.w3.org/2000/svg">
<path d="M6.871 0.00790625C6.7374 0.0279179 6.60881 0.0730462 6.492 0.140906C6.37147 0.212783 6.26718 0.30892 6.18576 0.423224C6.10433 0.537527 6.04755 0.667501 6.019 0.804906C6.004 0.858906 6.004 1.01191 6.004 3.92991L6 6.99991H5.176C4.648 6.99991 4.332 7.00391 4.289 7.00791C4.1558 7.02395 4.02723 7.06678 3.911 7.13379C3.79478 7.20081 3.69331 7.29064 3.61269 7.39787C3.53208 7.50511 3.47398 7.62755 3.4419 7.75782C3.40982 7.88808 3.40441 8.02349 3.426 8.15591C3.449 8.31191 3.516 8.46891 3.606 8.58591C3.636 8.62891 4.273 9.26991 5.516 10.5119C7.562 12.5549 7.422 12.4219 7.598 12.4999C7.868 12.6169 8.188 12.6099 8.438 12.4839C8.59 12.4059 8.488 12.5079 10.48 10.5159C11.727 9.26991 12.363 8.62891 12.395 8.58591C12.453 8.50791 12.512 8.39091 12.543 8.29591C12.6057 8.08311 12.5976 7.85573 12.52 7.64791C12.4694 7.51091 12.3892 7.38674 12.2852 7.28425C12.1811 7.18176 12.0557 7.10345 11.918 7.05491C11.754 6.99991 11.82 7.00391 10.868 7.00391L10 6.99991L9.996 3.92991C9.996 1.01191 9.996 0.859906 9.98 0.804906C9.94066 0.611639 9.84416 0.434652 9.703 0.296906C9.56864 0.157625 9.39606 0.0612412 9.207 0.0199062C9.137 0.00390625 9.129 0.00390625 8.031 0.00390625C7.406 0.00390625 6.902 0.00390625 6.871 0.00790625ZM2.871 14.0079C2.449 14.0629 2.101 14.3869 2.02 14.8079C2 14.9019 2 15.0979 2.02 15.1909C2.05888 15.3862 2.15492 15.5656 2.29593 15.7063C2.43694 15.8469 2.61656 15.9425 2.812 15.9809C2.875 15.9959 3.082 15.9959 8 15.9959C12.887 15.9959 13.125 15.9959 13.191 15.9799C13.3868 15.9416 13.5666 15.8456 13.7073 15.7043C13.8481 15.563 13.9434 15.3828 13.981 15.1869C14 15.0969 14 14.9019 13.981 14.8129C13.9442 14.6193 13.8511 14.4408 13.7135 14.2998C13.5758 14.1588 13.3997 14.0614 13.207 14.0199L13.137 14.0039H8.03C5.108 14.0039 2.901 14.0039 2.87 14.0079H2.871Z" fill="#202020"/>
</svg>
