<svg width="16" height="16" viewBox="0 0 16 16" fill="none" xmlns="http://www.w3.org/2000/svg">
<path d="M4.816 0.00792969C4.48644 0.0386846 4.16981 0.151445 3.895 0.33593C3.418 0.65193 3.109 1.13593 3.023 1.70293C2.996 1.86293 2.996 2.13693 3.023 2.29693C3.109 2.85893 3.41 3.33593 3.879 3.65693C4.13143 3.82628 4.41891 3.93629 4.71991 3.97872C5.0209 4.02115 5.3276 3.9949 5.617 3.90193C5.94652 3.79563 6.2427 3.60539 6.47642 3.34993C6.71014 3.09447 6.87335 2.78258 6.95 2.44493C6.985 2.28493 6.997 2.18793 6.997 1.99993C6.997 1.81193 6.985 1.71493 6.95 1.55493C6.87464 1.22563 6.71721 0.920737 6.49237 0.668617C6.26752 0.416498 5.98256 0.225341 5.664 0.11293C5.46309 0.042294 5.25195 0.00513285 5.039 0.00292969C4.957 0.00292969 4.855 0.00292969 4.816 0.00792969ZM10.816 0.00792969C10.4864 0.0386846 10.1698 0.151445 9.895 0.33593C9.61946 0.516946 9.39359 0.764027 9.23797 1.05466C9.08235 1.3453 9.00191 1.67026 9.004 1.99993C9.00212 2.32668 9.08102 2.64884 9.23367 2.93774C9.38632 3.22665 9.608 3.47336 9.879 3.65593C10.1313 3.82544 10.4188 3.93563 10.7198 3.97824C11.0208 4.02084 11.3275 3.99475 11.617 3.90193C11.9463 3.79548 12.2423 3.60518 12.4758 3.34973C12.7094 3.09428 12.8724 2.78247 12.949 2.44493C12.984 2.28493 12.996 2.18793 12.996 1.99993C12.996 1.81193 12.984 1.71493 12.949 1.55493C12.8737 1.22574 12.7165 0.920921 12.4918 0.668811C12.2671 0.4167 11.9824 0.225482 11.664 0.11293C11.4631 0.042294 11.252 0.00513285 11.039 0.00292969C10.957 0.00292969 10.855 0.00292969 10.816 0.00792969ZM4.816 6.00793C4.48644 6.03868 4.16981 6.15144 3.895 6.33593C3.418 6.65193 3.109 7.13593 3.023 7.70293C2.996 7.86293 2.996 8.13693 3.023 8.29693C3.109 8.85893 3.41 9.33593 3.879 9.65693C4.13143 9.82628 4.41891 9.93629 4.71991 9.97872C5.0209 10.0211 5.3276 9.9949 5.617 9.90193C5.94652 9.79563 6.2427 9.60539 6.47642 9.34993C6.71014 9.09447 6.87335 8.78258 6.95 8.44493C6.985 8.28493 6.997 8.18693 6.997 7.99993C6.997 7.81193 6.985 7.71493 6.95 7.55493C6.87473 7.22574 6.71745 6.92092 6.49279 6.66881C6.26813 6.4167 5.98338 6.22548 5.665 6.11293C5.46409 6.04229 5.25295 6.00513 5.04 6.00293C4.958 6.00293 4.855 6.00293 4.816 6.00793ZM10.816 6.00793C10.4864 6.03868 10.1698 6.15144 9.895 6.33593C9.61946 6.51695 9.39359 6.76403 9.23797 7.05466C9.08235 7.3453 9.00191 7.67026 9.004 7.99993C9.00212 8.32668 9.08102 8.64884 9.23367 8.93774C9.38632 9.22665 9.608 9.47336 9.879 9.65593C10.1313 9.82544 10.4188 9.93563 10.7198 9.97824C11.0208 10.0208 11.3275 9.99475 11.617 9.90193C11.9463 9.79548 12.2423 9.60518 12.4758 9.34973C12.7094 9.09428 12.8724 8.78247 12.949 8.44493C12.984 8.28493 12.996 8.18693 12.996 7.99993C12.996 7.81193 12.984 7.71493 12.949 7.55493C12.8737 7.22574 12.7165 6.92092 12.4918 6.66881C12.2671 6.4167 11.9824 6.22548 11.664 6.11293C11.4631 6.04229 11.252 6.00513 11.039 6.00293C10.957 6.00293 10.855 6.00293 10.816 6.00793ZM4.816 12.0079C4.48644 12.0387 4.16981 12.1514 3.895 12.3359C3.418 12.6519 3.109 13.1359 3.023 13.7029C2.996 13.8629 2.996 14.1369 3.023 14.2969C3.109 14.8589 3.41 15.3359 3.879 15.6569C4.13143 15.8263 4.41891 15.9363 4.71991 15.9787C5.0209 16.0211 5.3276 15.9949 5.617 15.9019C5.94634 15.7955 6.24231 15.6052 6.47585 15.3497C6.70938 15.0943 6.87244 14.7825 6.949 14.4449C6.984 14.2849 6.996 14.1869 6.996 13.9999C6.996 13.8119 6.984 13.7149 6.949 13.5549C6.87373 13.2257 6.71645 12.9209 6.49179 12.6688C6.26713 12.4167 5.98238 12.2255 5.664 12.1129C5.46309 12.0423 5.25195 12.0051 5.039 12.0029C4.957 12.0029 4.855 12.0029 4.816 12.0079ZM10.816 12.0079C10.4864 12.0387 10.1698 12.1514 9.895 12.3359C9.61946 12.5169 9.39359 12.764 9.23797 13.0547C9.08235 13.3453 9.00191 13.6703 9.004 13.9999C9.00212 14.3267 9.08102 14.6488 9.23367 14.9377C9.38632 15.2267 9.608 15.4734 9.879 15.6559C10.1313 15.8254 10.4188 15.9356 10.7198 15.9782C11.0208 16.0208 11.3275 15.9948 11.617 15.9019C11.9463 15.7955 12.2423 15.6052 12.4758 15.3497C12.7094 15.0943 12.8724 14.7825 12.949 14.4449C12.984 14.2849 12.996 14.1869 12.996 13.9999C12.996 13.8119 12.984 13.7149 12.949 13.5549C12.8737 13.2257 12.7165 12.9209 12.4918 12.6688C12.2671 12.4167 11.9824 12.2255 11.664 12.1129C11.4631 12.0423 11.252 12.0051 11.039 12.0029C10.957 12.0029 10.855 12.0029 10.816 12.0079Z" fill="#202020"/>
</svg>
