<svg width="16" height="16" viewBox="0 0 16 16" fill="none" xmlns="http://www.w3.org/2000/svg">
<path d="M4.055 4.50806C3.74032 4.54221 3.444 4.67325 3.207 4.88306C2.96625 5.10025 2.80181 5.38917 2.738 5.70706C2.715 5.80106 2.715 5.82006 2.715 6.00006C2.715 6.16806 2.719 6.20306 2.735 6.28106C2.781 6.52306 2.895 6.76606 3.047 6.94906C3.113 7.02706 7.027 10.9381 7.082 10.9771C7.34721 11.1833 7.67412 11.2943 8.01008 11.2921C8.34604 11.2899 8.67149 11.1747 8.934 10.9651C8.992 10.9181 12.898 7.01206 12.954 6.94906C13.125 6.74206 13.238 6.48006 13.277 6.20706C13.297 6.07006 13.289 5.83606 13.262 5.70306C13.1981 5.38706 13.034 5.1001 12.794 4.88481C12.5541 4.66952 12.2511 4.5374 11.93 4.50806C11.828 4.49606 4.152 4.50006 4.055 4.50806Z" fill="currentColor"/>
</svg>
