<svg width="16" height="16" viewBox="0 0 16 16" fill="none" xmlns="http://www.w3.org/2000/svg">
<path d="M11.34 0.74592C11.324 0.74992 11.266 0.75392 11.21 0.75792C10.71 0.80092 10.184 0.99592 9.77 1.29292C9.582 1.42592 9.54 1.46892 8.648 2.35492L7.762 3.24192L7.793 3.31192C7.887 3.54292 8.039 3.85892 8.18 4.10492C8.781 5.15592 9.715 6.22292 10.77 7.05492C11.39 7.54692 12.04 7.93792 12.64 8.18792L12.758 8.23792L13.641 7.35492C14.293 6.70292 14.539 6.44892 14.594 6.37892C15.0855 5.76894 15.3181 4.99055 15.242 4.21092C15.184 3.61197 14.9471 3.04434 14.562 2.58192C14.1791 2.17591 13.7833 1.78237 13.375 1.40192C12.9233 1.04007 12.3768 0.816435 11.801 0.75792C11.6475 0.748401 11.4938 0.744398 11.34 0.74592ZM4.168 6.83592C1.125 9.87892 1.281 9.71892 1.16 9.92192C1.04 10.1219 0.952999 10.3439 0.905999 10.5699L0.559999 12.6479L0.223999 14.6449V14.7849C0.223999 14.9369 0.230999 14.9879 0.273999 15.1169C0.33447 15.2875 0.440225 15.4384 0.579925 15.5534C0.719624 15.6685 0.888 15.7433 1.067 15.7699C1.235 15.7969 1.157 15.8089 3.353 15.4409C4.45 15.2579 5.383 15.1009 5.431 15.0939C5.66059 15.0449 5.88076 14.9591 6.083 14.8399C6.286 14.7149 6.123 14.8749 9.165 11.8319C10.72 10.2769 11.992 9.00392 11.992 8.99992C11.992 8.99592 11.898 8.94992 11.782 8.89492C9.945 7.98492 8.016 6.05492 7.105 4.21892C7.07376 4.14678 7.03871 4.07634 7 4.00792C6.996 4.00792 5.723 5.28092 4.168 6.83592Z" fill="#202020"/>
</svg>
