<svg width="16" height="16" viewBox="0 0 16 16" fill="none" xmlns="http://www.w3.org/2000/svg">
<path d="M2.871 4.00794C2.727 4.02794 2.574 4.08594 2.453 4.16394C2.387 4.20694 2.27 4.31994 1.297 5.29694C0.351999 6.24194 0.206999 6.38694 0.167999 6.44494C0.0569421 6.60838 -0.000385398 6.80238 0.0039991 6.99994C0.0039991 7.21494 0.0509991 7.37094 0.167999 7.55494C0.226999 7.64494 0.358999 7.77294 0.452999 7.83194C0.626691 7.94663 0.831895 8.00415 1.03989 7.99644C1.24789 7.98872 1.44828 7.91617 1.613 7.78894C1.633 7.77294 2.133 7.27694 2.723 6.68794C3.648 5.76194 3.801 5.60494 3.832 5.55094C3.94293 5.38893 4.00028 5.19623 3.996 4.99994C3.99904 4.86879 3.97453 4.73845 3.92406 4.61736C3.87359 4.49627 3.79828 4.38711 3.703 4.29694C3.56516 4.15379 3.38624 4.05699 3.191 4.01994C3.08509 4.00427 2.97778 4.00025 2.871 4.00794ZM6.871 4.00794C6.727 4.02794 6.574 4.08594 6.453 4.16394C6.387 4.20694 6.117 4.47294 3.297 7.29694C0.561999 10.0299 0.206999 10.3869 0.167999 10.4449C0.0569421 10.6084 -0.000385398 10.8024 0.0039991 10.9999C0.0039991 11.2769 0.0979991 11.5079 0.296999 11.7029C0.458652 11.8701 0.675323 11.9731 0.906999 11.9929C1.152 12.0199 1.414 11.9409 1.613 11.7889C1.633 11.7729 3.035 10.3749 4.723 8.68794C7.418 5.98694 7.8 5.60394 7.832 5.54994C7.94273 5.38821 8.00007 5.19589 7.996 4.99994C7.99904 4.86879 7.97453 4.73845 7.92406 4.61736C7.87359 4.49627 7.79828 4.38711 7.703 4.29694C7.56516 4.15379 7.38624 4.05699 7.191 4.01994C7.08509 4.00427 6.97778 4.00025 6.871 4.00794ZM10.871 4.00794C10.727 4.02794 10.574 4.08594 10.453 4.16394C10.387 4.20694 10.117 4.47294 7.297 7.29694C4.563 10.0309 4.207 10.3869 4.168 10.4449C4.05694 10.6084 3.99961 10.8024 4.004 10.9999C4.004 11.2769 4.098 11.5079 4.297 11.7029C4.45865 11.8701 4.67532 11.9731 4.907 11.9929C5.152 12.0199 5.414 11.9409 5.613 11.7889C5.633 11.7729 7.035 10.3749 8.723 8.68794C11.418 5.98794 11.801 5.60494 11.832 5.55094C11.9429 5.38893 12.0003 5.19623 11.996 4.99994C11.999 4.86879 11.9745 4.73845 11.9241 4.61736C11.8736 4.49627 11.7983 4.38711 11.703 4.29694C11.5652 4.15379 11.3862 4.05699 11.191 4.01994C11.0851 4.00427 10.9778 4.00025 10.871 4.00794ZM14.871 4.00794C14.727 4.02794 14.574 4.08594 14.453 4.16394C14.387 4.20694 14.117 4.47294 11.297 7.29694C8.562 10.0309 8.207 10.3869 8.168 10.4449C8.05694 10.6084 7.99961 10.8024 8.004 10.9999C8.004 11.2769 8.098 11.5079 8.297 11.7029C8.45865 11.8701 8.67532 11.9731 8.907 11.9929C9.152 12.0199 9.414 11.9409 9.613 11.7889C9.633 11.7729 11.035 10.3749 12.723 8.68794C15.418 5.98794 15.801 5.60494 15.832 5.55094C15.9429 5.38893 16.0003 5.19623 15.996 4.99994C15.999 4.86879 15.9745 4.73845 15.9241 4.61736C15.8736 4.49627 15.7983 4.38711 15.703 4.29694C15.5652 4.15379 15.3862 4.05699 15.191 4.01994C15.0851 4.00427 14.9778 4.00025 14.871 4.00794ZM14.871 8.00794C14.727 8.02794 14.574 8.08594 14.453 8.16394C14.387 8.20694 14.27 8.31994 13.297 9.29694C12.352 10.2419 12.207 10.3869 12.168 10.4449C12.0569 10.6084 11.9996 10.8024 12.004 10.9999C12.004 11.2149 12.051 11.3709 12.168 11.5549C12.227 11.6449 12.359 11.7729 12.453 11.8319C12.6267 11.9466 12.8319 12.0041 13.0399 11.9964C13.2479 11.9887 13.4483 11.9162 13.613 11.7889C13.633 11.7729 14.133 11.2769 14.723 10.6879C15.648 9.76194 15.801 9.60494 15.832 9.55094C15.9429 9.38893 16.0003 9.19623 15.996 8.99994C15.999 8.86879 15.9745 8.73845 15.9241 8.61736C15.8736 8.49627 15.7983 8.38711 15.703 8.29694C15.5652 8.15379 15.3862 8.05699 15.191 8.01994C15.0851 8.00427 14.9778 8.00025 14.871 8.00794Z" fill="#202020"/>
</svg>
