<svg width="16" height="16" viewBox="0 0 16 16" fill="none" xmlns="http://www.w3.org/2000/svg">
<g clip-path="url(#clip0_2422_8454)">
<path d="M0.871002 0.00800858C0.441002 0.0660086 0.105002 0.387009 0.0200016 0.808009C0.00400162 0.876009 0.00400162 1.19201 0.00400162 8.00001C0.00400162 14.808 0.00400162 15.125 0.0200016 15.191C0.0900016 15.543 0.344002 15.832 0.680002 15.945C0.797002 15.985 0.867002 15.996 1 15.996C1.11154 16.0007 1.22292 15.9837 1.328 15.946C1.668 15.824 1.902 15.551 1.98 15.188C1.996 15.125 1.996 14.852 1.996 8.00001C1.996 1.14801 1.996 0.875009 1.98 0.812009C1.93221 0.565627 1.79466 0.345758 1.594 0.195009C1.47435 0.110027 1.33856 0.0504688 1.195 0.0200086C1.08774 0.00446866 0.979121 0.000445781 0.871002 0.00800858ZM14.844 0.0120086C14.7439 0.0310729 14.6465 0.0623046 14.554 0.105009C14.512 0.125009 3.59 7.07501 3.434 7.17501C3.227 7.31601 3.074 7.54701 3.02 7.80501C3.00054 7.93428 3.00054 8.06574 3.02 8.19501C3.074 8.45301 3.227 8.68401 3.434 8.82501C3.59 8.92501 14.512 15.875 14.554 15.895C14.7515 15.9932 14.9759 16.0232 15.1922 15.9805C15.4086 15.9377 15.6047 15.8246 15.75 15.6587C15.8954 15.4929 15.9817 15.2836 15.9956 15.0635C16.0096 14.8434 15.9503 14.6249 15.827 14.442C15.7655 14.3516 15.6907 14.271 15.605 14.203C15.585 14.191 13.391 12.789 10.723 11.093C8.05 9.39601 5.867 8.00401 5.867 8.00001C5.867 7.99601 8.051 6.60501 10.723 4.90601C13.391 3.21101 15.586 1.80901 15.605 1.79601C15.7831 1.6614 15.911 1.4711 15.9684 1.25539C16.0257 1.03968 16.0093 0.810969 15.9217 0.60568C15.834 0.40039 15.6802 0.230323 15.4848 0.122558C15.2893 0.0147924 15.0634 -0.0244748 14.843 0.0110086L14.844 0.0120086Z" fill="currentColor"/>
</g>
<defs>
<clipPath id="clip0_2422_8454">
<rect width="16" height="16" fill="white"/>
</clipPath>
</defs>
</svg>
