<svg width="16" height="16" viewBox="0 0 16 16" fill="none" xmlns="http://www.w3.org/2000/svg">
<g clip-path="url(#clip0_2064_37595)">
<path d="M3.367 0.00790625C3.109 0.0309063 2.879 0.0979063 2.657 0.206906C2.383 0.339906 2.172 0.506906 1.969 0.756906C1.945 0.784906 1.598 1.30091 1.195 1.90191L0.465 2.99991H0L0.004 8.11691C0.004 12.8949 0.004 13.2469 0.02 13.3359C0.055 13.6169 0.105 13.8199 0.188 14.0459C0.461 14.7769 1.02 15.3829 1.727 15.7149C2.023 15.8519 2.301 15.9339 2.664 15.9799C2.754 15.9959 3.109 15.9959 7.914 15.9999C11.582 15.9999 13.102 15.9999 13.191 15.9919C13.8043 15.9537 14.3909 15.7274 14.871 15.3439C15 15.2419 15.238 14.9999 15.34 14.8749C15.7223 14.3968 15.9497 13.8136 15.992 13.2029C15.996 13.1329 16 11.3519 16 8.04691V2.99991H15.535L14.797 1.88991C14.02 0.729906 13.988 0.688906 13.84 0.547906C13.5403 0.267577 13.1634 0.0836431 12.758 0.0199062L12.66 0.00390625H8.047C5.507 0.00390625 3.402 0.00390625 3.367 0.00790625ZM12.801 2.49991L13.133 2.99991H2.867L3.199 2.49991L3.535 1.99991H12.465L12.801 2.49991ZM14 9.03491C14 13.3949 14.004 13.1329 13.96 13.2809C13.924 13.3903 13.8732 13.4943 13.809 13.5899C13.7103 13.721 13.5818 13.8266 13.434 13.8979C13.3451 13.9454 13.2481 13.9759 13.148 13.9879C13.035 14.0039 2.965 14.0039 2.852 13.9879C2.7519 13.9759 2.65491 13.9454 2.566 13.8979C2.41823 13.8266 2.28966 13.721 2.191 13.5899C2.12643 13.4943 2.07529 13.3904 2.039 13.2809C1.996 13.1329 2 13.3949 2 9.03491V4.99991H14V9.03491Z" fill="#202020"/>
<path d="M4.871 7.00791C4.66321 7.03526 4.46927 7.1272 4.31657 7.27075C4.16386 7.4143 4.06012 7.6022 4.02 7.80791C4 7.90191 4 8.09791 4.02 8.19091C4.05894 8.38638 4.15513 8.56586 4.29634 8.70653C4.43754 8.8472 4.61738 8.9427 4.813 8.98091C4.875 8.99591 5.016 8.99591 8 8.99591C10.965 8.99591 11.125 8.99591 11.191 8.97991C11.3868 8.94159 11.5666 8.84561 11.7073 8.7043C11.8481 8.56298 11.9434 8.3828 11.981 8.18691C12 8.09691 12 7.90191 11.981 7.81291C11.9442 7.61931 11.8511 7.44085 11.7135 7.29981C11.5758 7.15878 11.3997 7.06143 11.207 7.01991L11.137 7.00391H8.03C6.26 7.00391 4.902 7.00391 4.871 7.00791ZM4.871 10.0079C4.66321 10.0353 4.46927 10.1272 4.31657 10.2708C4.16386 10.4143 4.06012 10.6022 4.02 10.8079C4 10.9019 4 11.0979 4.02 11.1909C4.05894 11.3864 4.15513 11.5659 4.29634 11.7065C4.43754 11.8472 4.61738 11.9427 4.813 11.9809C4.875 11.9959 5.016 11.9959 8 11.9959C10.965 11.9959 11.125 11.9959 11.191 11.9799C11.3868 11.9416 11.5666 11.8456 11.7073 11.7043C11.8481 11.563 11.9434 11.3828 11.981 11.1869C12 11.0969 12 10.9019 11.981 10.8129C11.9442 10.6193 11.8511 10.4408 11.7135 10.2998C11.5758 10.1588 11.3997 10.0614 11.207 10.0199L11.137 10.0039H8.03C6.26 10.0039 4.902 10.0039 4.871 10.0079Z" fill="#202020"/>
</g>
<defs>
<clipPath id="clip0_2064_37595">
<rect width="16" height="16" fill="white"/>
</clipPath>
</defs>
</svg>
