<svg width="16" height="16" viewBox="0 0 16 16" fill="none" xmlns="http://www.w3.org/2000/svg">
<g clip-path="url(#clip0_2064_37878)">
<path d="M2.82 0.00390625C2.20124 0.0442279 1.60969 0.27317 1.125 0.659906C1 0.757906 0.758002 0.999906 0.660002 1.12491C0.297002 1.58191 0.0900016 2.08191 0.0200016 2.67191C0.00400162 2.78191 0.00400162 3.04291 0.00400162 7.99591C0.00400162 12.9919 0.00400162 13.2109 0.0200016 13.3279C0.0590016 13.6839 0.152002 14.0079 0.305002 14.3159C0.52655 14.7695 0.858998 15.1598 1.27154 15.4507C1.68409 15.7415 2.16338 15.9236 2.665 15.9799C2.754 15.9959 3.109 15.9959 7.915 15.9999C11.59 15.9999 13.102 15.9999 13.191 15.9919C13.6385 15.9653 14.0741 15.8377 14.4652 15.6186C14.8563 15.3995 15.1926 15.0946 15.449 14.7269C15.746 14.3049 15.914 13.8629 15.98 13.3279C15.996 13.2179 15.996 12.9879 15.996 7.99991C15.996 3.01191 15.996 2.78091 15.98 2.67191C15.9186 2.10575 15.6965 1.56897 15.34 1.12491C15.1977 0.955185 15.0407 0.798252 14.871 0.655906C14.4298 0.303047 13.8975 0.08252 13.336 0.0199062C13.234 0.00390625 12.946 0.00390625 8.046 0.00390625H2.82ZM4.664 3.48391C4.79778 3.50978 4.92436 3.56437 5.035 3.64391C5.098 3.68391 5.305 3.89091 6.555 5.13691L8 6.58191L9.441 5.14491C10.231 4.35191 10.898 3.69091 10.921 3.67191C11.047 3.58191 11.191 3.51591 11.336 3.48391C11.5 3.44891 11.711 3.46391 11.867 3.51991C12.148 3.62091 12.379 3.85191 12.48 4.13291C12.535 4.28891 12.55 4.49991 12.516 4.66391C12.484 4.80891 12.418 4.95391 12.328 5.07791C12.308 5.10191 11.648 5.76991 10.855 6.55791L9.418 7.99991L10.855 9.43791C11.648 10.2299 12.309 10.8979 12.328 10.9219C12.418 11.0469 12.484 11.1919 12.516 11.3359C12.551 11.4999 12.536 11.7109 12.48 11.8669C12.4283 12.0074 12.3467 12.1349 12.2408 12.2408C12.135 12.3466 12.0075 12.4282 11.867 12.4799C11.711 12.5349 11.5 12.5499 11.336 12.5159C11.1867 12.4819 11.0459 12.4179 10.922 12.3279C10.898 12.3079 10.23 11.6479 9.442 10.8549L8 9.41791L6.555 10.8629C5.305 12.1089 5.098 12.3159 5.035 12.3549C4.96075 12.4056 4.88089 12.4476 4.797 12.4799C4.594 12.5549 4.336 12.5549 4.133 12.4799C3.99187 12.4294 3.86369 12.3482 3.75769 12.2422C3.65169 12.1362 3.57052 12.008 3.52 11.8669C3.44579 11.6518 3.44579 11.418 3.52 11.2029C3.55 11.1209 3.59 11.0469 3.645 10.9649C3.684 10.9019 3.891 10.6949 5.137 9.44491L6.582 7.99991L5.137 6.54991C3.754 5.16791 3.687 5.10191 3.637 5.02291C3.52586 4.85842 3.46618 4.66458 3.46558 4.46607C3.46497 4.26756 3.52346 4.07335 3.63361 3.9082C3.74375 3.74304 3.90055 3.6144 4.08405 3.53866C4.26755 3.46292 4.46943 3.44452 4.664 3.48391Z" fill="#202020"/>
</g>
<defs>
<clipPath id="clip0_2064_37878">
<rect width="16" height="16" fill="white"/>
</clipPath>
</defs>
</svg>
