<svg width="16" height="16" viewBox="0 0 16 16" fill="none" xmlns="http://www.w3.org/2000/svg">
<path d="M0.871002 1.00791C0.643987 1.03809 0.434257 1.14542 0.277002 1.31191C0.139527 1.45652 0.0486072 1.63906 0.0160016 1.83591C0.000378009 2.61183 0.000378009 3.38798 0.0160016 4.16391C0.0550016 4.38291 0.145002 4.55091 0.296002 4.70391C0.449002 4.85491 0.617002 4.94491 0.836002 4.98391C0.910002 4.99991 15.09 4.99991 15.164 4.98391C15.3695 4.9513 15.5589 4.85307 15.704 4.70391C15.8532 4.55884 15.9514 4.36941 15.984 4.16391C15.9996 3.38798 15.9996 2.61183 15.984 1.83591C15.9514 1.63041 15.8532 1.44097 15.704 1.29591C15.5692 1.15682 15.3963 1.06078 15.207 1.01991L15.137 1.00391H8.03C3.89 1.00391 0.902002 1.00391 0.871002 1.00791ZM0.871002 6.00791C0.643987 6.03808 0.434257 6.14542 0.277002 6.31191C0.139527 6.45652 0.0486072 6.63906 0.0160016 6.83591C0.000378009 7.61183 0.000378009 8.38798 0.0160016 9.16391C0.0550016 9.38291 0.145002 9.55091 0.296002 9.70391C0.449002 9.85491 0.617002 9.94491 0.836002 9.98391C0.910002 9.99991 15.09 9.99991 15.164 9.98391C15.3695 9.9513 15.5589 9.85307 15.704 9.70391C15.8532 9.55884 15.9514 9.36941 15.984 9.16391C15.9996 8.38798 15.9996 7.61183 15.984 6.83591C15.9514 6.6304 15.8532 6.44097 15.704 6.29591C15.5692 6.15682 15.3963 6.06078 15.207 6.01991L15.137 6.00391H8.03C3.89 6.00391 0.902002 6.00391 0.871002 6.00791ZM0.871002 11.0079C0.643855 11.0384 0.434109 11.1461 0.277002 11.3129C0.139705 11.4572 0.0487972 11.6394 0.0160016 11.8359C0.000378009 12.6118 0.000378009 13.388 0.0160016 14.1639C0.0550016 14.3829 0.145002 14.5509 0.296002 14.7039C0.449002 14.8549 0.617002 14.9449 0.836002 14.9839C0.910002 14.9999 15.09 14.9999 15.164 14.9839C15.3695 14.9513 15.5589 14.8531 15.704 14.7039C15.8532 14.5588 15.9514 14.3694 15.984 14.1639C15.9996 13.388 15.9996 12.6118 15.984 11.8359C15.9514 11.6304 15.8532 11.441 15.704 11.2959C15.5692 11.1568 15.3963 11.0608 15.207 11.0199L15.137 11.0039H8.03C3.89 11.0039 0.902002 11.0039 0.871002 11.0079Z" fill="#202020"/>
</svg>
