<svg width="16" height="16" viewBox="0 0 16 16" fill="none" xmlns="http://www.w3.org/2000/svg">
<g clip-path="url(#clip0_2064_38444)">
<path d="M2.824 0.00390625C2.20357 0.0421404 1.61014 0.271271 1.125 0.659906C1 0.757906 0.758002 0.999906 0.660002 1.12491C0.297002 1.58191 0.0900016 2.08191 0.0200016 2.67191C0.00400162 2.78191 0.00400162 3.04291 0.00400162 7.99591C0.00400162 12.9919 0.00400162 13.2109 0.0200016 13.3279C0.0590016 13.6839 0.152002 14.0079 0.305002 14.3159C0.52655 14.7695 0.858998 15.1598 1.27154 15.4507C1.68409 15.7415 2.16338 15.9236 2.665 15.9799C2.754 15.9959 3.109 15.9959 7.915 15.9999C13.172 15.9999 13.191 15.9999 13.402 15.9729C14.0428 15.8874 14.6382 15.5953 15.098 15.1409C15.5403 14.7109 15.8378 14.1537 15.949 13.5469C15.996 13.2929 15.996 13.2729 15.996 12.5509C15.996 11.8439 15.996 11.8509 15.957 11.7149C15.9165 11.5834 15.8499 11.4613 15.7613 11.356C15.6726 11.2507 15.5637 11.1643 15.441 11.1019C15.3038 11.0348 15.1527 11.0012 15 11.0039C14.8688 11.0009 14.7385 11.0254 14.6174 11.0758C14.4963 11.1263 14.3872 11.2016 14.297 11.2969C14.1854 11.4022 14.1022 11.5339 14.055 11.6799C14.004 11.8319 14.004 11.7999 14 12.5039C13.996 13.0629 13.992 13.1519 13.98 13.1989C13.934 13.4019 13.84 13.5699 13.707 13.7069C13.5658 13.8427 13.3901 13.9371 13.199 13.9799C13.149 13.9959 12.836 13.9959 8.035 13.9959C2.383 13.9999 2.855 14.0039 2.691 13.9489C2.53982 13.9 2.40251 13.8156 2.2905 13.7029C2.17849 13.5902 2.09501 13.4524 2.047 13.3009C1.997 13.1409 2 13.5779 2.004 7.96491C2.004 3.16491 2.004 2.85191 2.02 2.80091C2.07 2.59391 2.156 2.42991 2.293 2.29291C2.43 2.15591 2.593 2.06591 2.801 2.01991C2.851 2.00391 2.984 2.00391 4.496 1.99991C6.031 1.99591 6.141 1.99591 6.196 1.97991C6.38891 1.94038 6.56553 1.84389 6.703 1.70291C6.79829 1.61273 6.87359 1.50357 6.92406 1.38248C6.97453 1.26139 6.99904 1.13106 6.996 0.999906C6.99904 0.868753 6.97453 0.738422 6.92406 0.61733C6.87359 0.496239 6.79829 0.38708 6.703 0.296906C6.56526 0.155749 6.38827 0.0592421 6.195 0.0199062C6.141 0.00390625 6.043 0.00390625 4.5 0.00390625H2.824Z" fill="currentColor"/>
<path d="M10.89 0.417906C10.6302 0.451455 10.3923 0.58093 10.223 0.780906C10.1043 0.926248 10.0297 1.10252 10.008 1.28891C10.004 1.33191 10 1.69491 10 2.30091V3.24991L9.965 3.25791C9.867 3.28091 9.645 3.34791 9.496 3.39791C7.867 3.95291 6.508 5.09791 5.516 6.74991C4.77842 7.99851 4.29387 9.38012 4.09 10.8159C4.055 11.0509 4.05 11.1679 4.078 11.2809C4.152 11.6369 4.43 11.9019 4.812 11.9809C4.891 11.9999 5.094 11.9999 5.172 11.9839C5.532 11.9139 5.828 11.6719 6.004 11.3089C6.059 11.1989 6.086 11.1089 6.125 10.9609C6.29789 10.2804 6.62847 9.65006 7.09 9.12091C7.195 8.99591 7.52 8.67091 7.64 8.56591C8.19892 8.09028 8.83601 7.71507 9.523 7.45691C9.648 7.40991 9.93 7.31291 9.98 7.30091L10 7.29691V7.97291C10 8.39091 10.004 8.67191 10.008 8.71091C10.0326 8.91231 10.1185 9.10128 10.2541 9.25224C10.3897 9.4032 10.5684 9.50886 10.766 9.55491C10.8318 9.57474 10.9003 9.58386 10.969 9.58191C11.1266 9.59262 11.2842 9.56158 11.426 9.49191C11.578 9.4179 11.476 9.51991 13.492 7.49991C15.152 5.84391 15.379 5.61291 15.418 5.55491C15.5291 5.39146 15.5864 5.19746 15.582 4.99991C15.5861 4.80395 15.5287 4.61163 15.418 4.44991C15.387 4.39491 15.141 4.14791 13.516 2.51991C12.27 1.27291 11.629 0.636906 11.586 0.604906C11.4607 0.511264 11.3145 0.44949 11.16 0.424906C11.0705 0.412944 10.98 0.410597 10.89 0.417906Z" fill="currentColor"/>
</g>
<defs>
<clipPath id="clip0_2064_38444">
<rect width="16" height="16" fill="white"/>
</clipPath>
</defs>
</svg>
