<svg width="16" height="16" viewBox="0 0 16 16" fill="none" xmlns="http://www.w3.org/2000/svg">
<path d="M13.906 1.00407C13.895 1.00807 13.859 1.01207 13.828 1.01607C13.707 1.03607 13.558 1.09407 13.438 1.17607C13.352 1.23007 1.23 13.3521 1.176 13.4371C1.09702 13.5554 1.04261 13.6883 1.016 13.8281C1 13.9021 1 14.0981 1.016 14.1721C1.039 14.3051 1.098 14.4451 1.176 14.5621C1.223 14.6371 1.363 14.7771 1.438 14.8241C1.60266 14.9389 1.79926 14.9991 2 14.9961C2.21 14.9961 2.387 14.9461 2.563 14.8241C2.648 14.7701 14.77 2.64807 14.824 2.56307C14.902 2.45019 14.9552 2.32203 14.98 2.18707C15 2.09707 15 1.90207 14.98 1.81307C14.9456 1.61573 14.8485 1.43476 14.703 1.29707C14.5654 1.15567 14.3884 1.05912 14.195 1.02007C14.0994 1.00571 14.0026 1.00035 13.906 1.00407ZM7.66 2.00807C6.164 2.08207 4.566 2.64507 3.14 3.59807C2.344 4.13307 1.629 4.77807 1.09 5.45307C0.540002 6.14507 0.184002 6.84008 0.0550016 7.48007C0.0150016 7.68407 0.00400162 7.78108 0.00400162 8.00007C0.00400162 8.21907 0.0160016 8.31608 0.0540016 8.52008C0.230002 9.38708 0.820002 10.3551 1.723 11.2501L1.82 11.3481L4.133 9.03507L4.109 8.93407C3.89319 8.03378 3.99675 7.08647 4.402 6.25408C4.79252 5.44534 5.44527 4.79259 6.254 4.40207C6.76961 4.14811 7.3353 4.01216 7.91 4.00407C8.262 3.99607 8.598 4.03107 8.934 4.10907L9.035 4.13307L9.852 3.31607C10.305 2.86307 10.672 2.49207 10.672 2.49207C10.672 2.48407 10.293 2.35907 10.113 2.30907C9.31719 2.07579 8.48861 1.97412 7.66 2.00807ZM13.02 5.81308L11.867 6.96508L11.891 7.06607C11.969 7.40207 11.996 7.64107 11.996 8.00007C11.996 8.25807 11.988 8.34807 11.961 8.55907C11.8683 9.20967 11.6171 9.82749 11.2295 10.3581C10.8418 10.8888 10.3296 11.316 9.738 11.6021C9.168 11.8791 8.543 12.0121 7.91 11.9961C7.61504 11.991 7.32157 11.9531 7.035 11.8831L6.969 11.8631L6.149 12.6831C5.695 13.1371 5.329 13.5081 5.329 13.5081C6.08685 13.7872 6.88247 13.9503 7.689 13.9921C9.258 14.0661 10.996 13.5701 12.562 12.5941C14.372 11.4691 15.692 9.87107 15.953 8.48408C15.9858 8.32491 16.0002 8.16252 15.996 8.00007C15.996 7.79308 15.988 7.70007 15.953 7.51607C15.805 6.73807 15.313 5.86307 14.566 5.05107C14.442 4.91495 14.3132 4.78321 14.18 4.65607C14.18 4.65607 13.656 5.17607 13.02 5.81308Z" fill="#202020"/>
</svg>
