<svg width="16" height="16" viewBox="0 0 16 16" fill="none" xmlns="http://www.w3.org/2000/svg">
<g clip-path="url(#clip0_2064_39103)">
<path d="M7.871 0.00790625C7.66321 0.0352572 7.46927 0.127202 7.31657 0.270752C7.16387 0.414302 7.06013 0.602202 7.02 0.807906C7 0.901906 7 1.09791 7.02 1.19091C7.05895 1.38638 7.15513 1.56586 7.29634 1.70653C7.43754 1.8472 7.61738 1.9427 7.813 1.98091C7.875 1.99591 8.031 1.99591 11.5 1.99591C14.945 1.99591 15.125 1.99591 15.191 1.97991C15.3866 1.94166 15.5663 1.84582 15.7071 1.7047C15.8479 1.56358 15.9432 1.38362 15.981 1.18791C16 1.09791 16 0.901906 15.981 0.812906C15.9442 0.619305 15.8511 0.440847 15.7135 0.299815C15.5758 0.158783 15.3997 0.0614277 15.207 0.0199062L15.137 0.00390625H11.53C9.472 0.00390625 7.902 0.00390625 7.871 0.00790625ZM7.871 3.00791C7.68711 3.03293 7.51367 3.10814 7.36972 3.22528C7.22578 3.34241 7.11688 3.49694 7.055 3.67191C7.0173 3.777 6.99999 3.88832 7.004 3.99991C7.004 4.13691 7.016 4.21491 7.054 4.32791C7.109 4.47691 7.187 4.60191 7.301 4.71491C7.437 4.84791 7.609 4.93791 7.812 4.97991C7.875 4.99591 7.996 4.99591 10.5 4.99591C12.984 4.99591 13.125 4.99591 13.191 4.97991C13.3868 4.94159 13.5666 4.84561 13.7074 4.7043C13.8481 4.56298 13.9434 4.3828 13.981 4.18691C14 4.09691 14 3.90191 13.981 3.81191C13.944 3.61849 13.8509 3.44025 13.7132 3.29941C13.5756 3.15856 13.3995 3.06136 13.207 3.01991L13.137 3.00391H10.53C9.05 3.00391 7.902 3.00391 7.871 3.00791ZM3.438 5.70991C3.33526 5.72341 3.23921 5.76831 3.16296 5.83848C3.0867 5.90864 3.03398 6.00064 3.012 6.10191C3.004 6.15191 3 6.22991 3 6.58191V6.99991H1.73C0.610002 6.99991 0.453002 6.99991 0.402002 7.01191C0.306281 7.03086 0.218256 7.07756 0.148903 7.14621C0.0795498 7.21485 0.0319371 7.30239 0.0120016 7.39791C-0.00799835 7.48791 -0.00799835 8.51191 0.0120016 8.60191C0.0510016 8.79691 0.203002 8.94491 0.402002 8.98791C0.453002 8.99991 0.602002 8.99991 1.73 8.99991H3V9.41791C3 9.88291 3.004 9.90991 3.05 10.0119C3.09821 10.1105 3.17815 10.1901 3.277 10.2379C3.352 10.2779 3.414 10.2889 3.5 10.2889C3.59 10.2889 3.633 10.2809 3.719 10.2419L3.785 10.2109L4.738 9.25791C5.758 8.23791 5.73 8.26591 5.77 8.15191C5.79333 8.05192 5.79333 7.9479 5.77 7.84791C5.73 7.73391 5.758 7.76191 4.738 6.74591C3.855 5.86291 3.781 5.78891 3.73 5.76191C3.63927 5.7182 3.53818 5.69955 3.438 5.70991ZM7.871 6.00791C7.64399 6.03808 7.43426 6.14542 7.277 6.31191C7.13953 6.45652 7.04861 6.63906 7.016 6.83591C7.00038 7.61183 7.00038 8.38799 7.016 9.16391C7.055 9.38291 7.145 9.55091 7.296 9.70391C7.449 9.85491 7.617 9.94491 7.836 9.98391C7.91 9.99991 15.09 9.99991 15.164 9.98391C15.3695 9.9513 15.5589 9.85307 15.704 9.70391C15.8532 9.55884 15.9514 9.36941 15.984 9.16391C15.9996 8.38799 15.9996 7.61183 15.984 6.83591C15.9514 6.6304 15.8532 6.44097 15.704 6.29591C15.5692 6.15682 15.3963 6.06078 15.207 6.01991L15.137 6.00391H11.53C9.44 6.00391 7.902 6.00391 7.871 6.00791ZM7.871 11.0079C7.66321 11.0353 7.46927 11.1272 7.31657 11.2708C7.16387 11.4143 7.06013 11.6022 7.02 11.8079C7 11.9019 7 12.0979 7.02 12.1909C7.05895 12.3864 7.15513 12.5659 7.29634 12.7065C7.43754 12.8472 7.61738 12.9427 7.813 12.9809C7.875 12.9959 7.98 12.9959 10 12.9959C12.008 12.9959 12.125 12.9959 12.191 12.9799C12.3868 12.9416 12.5666 12.8456 12.7074 12.7043C12.8481 12.563 12.9434 12.3828 12.981 12.1869C13 12.0969 13 11.9019 12.981 11.8129C12.9442 11.6193 12.8511 11.4408 12.7135 11.2998C12.5758 11.1588 12.3997 11.0614 12.207 11.0199L12.137 11.0039H10.03C8.839 11.0039 7.902 11.0039 7.871 11.0079ZM7.871 14.0079C7.68711 14.0329 7.51367 14.1081 7.36972 14.2253C7.22578 14.3424 7.11688 14.4969 7.055 14.6719C7.0173 14.777 6.99999 14.8883 7.004 14.9999C7.004 15.1369 7.016 15.2149 7.054 15.3279C7.109 15.4769 7.187 15.6019 7.301 15.7149C7.437 15.8479 7.609 15.9379 7.812 15.9799C7.875 15.9959 8.032 15.9959 11.5 15.9959C14.945 15.9959 15.125 15.9959 15.191 15.9799C15.3868 15.9416 15.5666 15.8456 15.7074 15.7043C15.8481 15.563 15.9434 15.3828 15.981 15.1869C16 15.0969 16 14.9019 15.981 14.8129C15.9442 14.6193 15.8511 14.4408 15.7135 14.2998C15.5758 14.1588 15.3997 14.0614 15.207 14.0199L15.137 14.0039H11.53C9.472 14.0039 7.902 14.0039 7.871 14.0079Z" fill="#202020"/>
</g>
<defs>
<clipPath id="clip0_2064_39103">
<rect width="16" height="16" fill="white"/>
</clipPath>
</defs>
</svg>
