<svg width="16" height="16" viewBox="0 0 16 16" fill="none" xmlns="http://www.w3.org/2000/svg">
<path d="M1.871 1.00812C1.441 1.06612 1.105 1.38712 1.02 1.80812C1.004 1.87512 1.004 2.15212 1.004 8.00012C1.004 13.8481 1.004 14.1251 1.02 14.1911C1.09 14.5431 1.344 14.8321 1.68 14.9451C1.797 14.9851 1.867 14.9961 2 14.9961C2.11154 15.0008 2.22292 14.9838 2.328 14.9461C2.668 14.8241 2.902 14.5511 2.98 14.1881C2.996 14.1251 2.996 13.8831 2.996 8.00012C2.996 2.11712 2.996 1.87512 2.98 1.81212C2.93221 1.56573 2.79466 1.34587 2.594 1.19512C2.47435 1.11014 2.33856 1.05058 2.195 1.02012C2.08774 1.00458 1.97912 1.00055 1.871 1.00812ZM5.871 1.00812C5.441 1.06612 5.105 1.38712 5.02 1.80812C5.004 1.87512 5.004 2.15212 5.004 8.00012C5.004 13.8481 5.004 14.1251 5.02 14.1911C5.09 14.5431 5.344 14.8321 5.68 14.9451C5.797 14.9851 5.867 14.9961 6 14.9961C6.11154 15.0008 6.22292 14.9838 6.328 14.9461C6.668 14.8241 6.902 14.5511 6.98 14.1881C6.996 14.1251 6.996 13.8831 6.996 8.00012C6.996 2.11712 6.996 1.87512 6.98 1.81212C6.93221 1.56573 6.79466 1.34587 6.594 1.19512C6.47435 1.11014 6.33856 1.05058 6.195 1.02012C6.08774 1.00458 5.97912 1.00055 5.871 1.00812ZM9.656 1.00412C9.226 1.05112 8.879 1.37112 8.786 1.80912C8.77225 1.87586 8.76688 1.94405 8.77 2.01212C8.77 2.14512 8.773 2.15612 8.797 2.24612C8.809 2.29612 8.836 2.37112 8.855 2.41012C8.875 2.45012 9.332 3.22312 9.875 4.12912C10.2186 4.69698 10.5586 5.26699 10.895 5.83912C10.9344 5.91826 10.963 6.00235 10.98 6.08912C10.992 6.13712 10.996 6.24212 11 7.04312C11.004 8.04312 11 7.96512 11.059 8.07812C11.152 8.25812 11.371 8.36812 11.579 8.33612C11.6551 8.32316 11.7271 8.29231 11.789 8.24612C11.867 8.19112 12.734 7.37112 12.781 7.30912C12.8584 7.20947 12.918 7.09714 12.957 6.97712C12.992 6.85212 12.992 6.83612 13 6.48412C13.008 6.11712 13.008 6.09812 13.055 5.95712C13.07 5.91812 13.094 5.86312 13.109 5.83212C13.125 5.80112 13.582 5.03512 14.125 4.13212C14.665 3.22712 15.117 2.46512 15.133 2.44212C15.2205 2.25861 15.2518 2.05335 15.223 1.85212C15.1904 1.63661 15.0884 1.43761 14.9325 1.2853C14.7765 1.133 14.5752 1.03568 14.359 1.00812C14.297 1.00012 9.727 0.996117 9.656 1.00412ZM9.871 10.0081C9.441 10.0661 9.105 10.3871 9.02 10.8081C9.004 10.8751 9.004 10.9731 9.004 12.5001C9.004 14.0271 9.004 14.1251 9.02 14.1911C9.09 14.5431 9.344 14.8321 9.68 14.9451C9.797 14.9851 9.867 14.9961 10 14.9961C10.1115 15.0008 10.2229 14.9838 10.328 14.9461C10.668 14.8241 10.902 14.5511 10.98 14.1881C10.996 14.1251 10.996 14.0351 10.996 12.5001C10.996 10.7001 11 10.8441 10.946 10.6761C10.8886 10.5111 10.7893 10.3639 10.6578 10.2489C10.5263 10.1338 10.3672 10.055 10.196 10.0201C10.0884 10.0045 9.97945 10.0005 9.871 10.0081ZM13.871 10.0081C13.441 10.0661 13.105 10.3871 13.02 10.8081C13.004 10.8751 13.004 10.9731 13.004 12.5001C13.004 14.0271 13.004 14.1251 13.02 14.1911C13.09 14.5431 13.344 14.8321 13.68 14.9451C13.797 14.9851 13.867 14.9961 14 14.9961C14.1115 15.0008 14.2229 14.9838 14.328 14.9461C14.668 14.8241 14.902 14.5511 14.98 14.1881C14.996 14.1251 14.996 14.0351 14.996 12.5001C14.996 10.7001 15 10.8441 14.946 10.6761C14.8886 10.5111 14.7893 10.3639 14.6578 10.2489C14.5263 10.1338 14.3672 10.055 14.196 10.0201C14.0884 10.0045 13.9795 10.0005 13.871 10.0081Z" fill="#202020"/>
</svg>
