<svg width="16" height="16" viewBox="0 0 16 16" fill="none" xmlns="http://www.w3.org/2000/svg">
<g clip-path="url(#clip0_2064_40043)">
<path d="M1.871 0.00809951C1.441 0.0660995 1.105 0.3871 1.02 0.8081C1.004 0.8751 1.004 1.1911 1.004 8.0001C1.004 14.8091 1.004 15.1251 1.02 15.1911C1.09 15.5431 1.344 15.8321 1.68 15.9451C1.797 15.9851 1.867 15.9961 2 15.9961C2.11154 16.0008 2.22292 15.9838 2.328 15.9461C2.668 15.8241 2.902 15.5511 2.98 15.1881C2.996 15.1251 2.996 14.8521 2.996 8.0001C2.996 1.1481 2.996 0.875099 2.98 0.812099C2.93221 0.565717 2.79466 0.345849 2.594 0.1951C2.47435 0.110118 2.33856 0.0505598 2.195 0.0200995C2.08774 0.00455958 1.97912 0.000536706 1.871 0.00809951ZM4.906 1.0081C4.71151 1.01117 4.52346 1.07831 4.371 1.1991C4.18979 1.3446 4.06553 1.54921 4.02 1.7771C4.004 1.8441 4.004 2.0201 4.004 5.4101C4.004 8.7931 4.004 8.9771 4.02 9.0401C4.105 9.4651 4.422 9.7811 4.86 9.8751C4.93 9.8911 4.973 9.8951 5.492 9.8981C6.164 9.9061 6.52 9.9221 7.055 9.9651C8.047 10.0471 8.934 10.1911 9.73 10.4061C9.91 10.4531 10.094 10.5081 10.383 10.6021C10.789 10.7301 11.121 10.8091 11.563 10.8821C12.664 11.0621 13.961 11.0321 15.137 10.8011C15.215 10.7851 15.305 10.7661 15.336 10.7581C15.4829 10.7178 15.6171 10.6405 15.7258 10.5338C15.8344 10.427 15.914 10.2943 15.957 10.1481C16.004 9.9961 16 10.2461 16 6.4261C15.996 3.0981 15.996 2.9301 15.98 2.8751C15.9369 2.67045 15.8351 2.4828 15.687 2.3351C15.4866 2.13756 15.2249 2.01412 14.945 1.9851C14.8108 1.97338 14.6755 1.97977 14.543 2.0041C14.23 2.0471 13.875 2.0781 13.516 2.0941C13.281 2.1051 12.656 2.1021 12.461 2.0861C11.7211 2.04311 10.9898 1.90532 10.285 1.6761C9.805 1.5231 9.437 1.4261 8.937 1.3281C8.0208 1.15243 7.09234 1.04812 6.16 1.0161C5.74212 1.00396 5.32401 1.00129 4.906 1.0081Z" fill="#202020"/>
</g>
<defs>
<clipPath id="clip0_2064_40043">
<rect width="16" height="16" fill="white"/>
</clipPath>
</defs>
</svg>
