<svg width="16" height="16" viewBox="0 0 16 16" fill="none" xmlns="http://www.w3.org/2000/svg">
<path d="M8.832 0.425972C8.681 0.454086 8.53819 0.515584 8.414 0.605972C8.324 0.670972 1.641 7.35797 1.59 7.42997C1.508 7.54697 1.45 7.69497 1.426 7.84397C1.40513 7.97629 1.41105 8.11146 1.44343 8.24145C1.4758 8.37144 1.53396 8.4936 1.61446 8.60068C1.69495 8.70776 1.79614 8.79757 1.91202 8.86479C2.02789 8.932 2.15609 8.97526 2.289 8.99197C2.332 8.99597 2.965 8.99997 4.176 8.99997H6V11.824C6 13.727 6.004 14.668 6.008 14.711C6.03263 14.9124 6.11855 15.1013 6.25413 15.2523C6.3897 15.4033 6.56839 15.5089 6.766 15.555C6.883 15.585 7.043 15.594 7.156 15.575C7.305 15.551 7.453 15.492 7.57 15.41C7.64 15.36 14.328 8.67597 14.395 8.58597C14.453 8.50797 14.512 8.39097 14.543 8.29597C14.593 8.12897 14.598 7.93397 14.555 7.76197C14.5082 7.5651 14.4023 7.38729 14.2514 7.25248C14.1005 7.11767 13.9119 7.03234 13.711 7.00797C13.082 6.99973 12.453 6.99707 11.824 6.99997H10V4.17597C10 2.27297 9.996 1.33197 9.992 1.28897C9.96665 1.08128 9.87647 0.886873 9.73428 0.733379C9.5921 0.579884 9.40515 0.475117 9.2 0.433972C9.07868 0.413769 8.95509 0.411075 8.833 0.425972H8.832Z" fill="#202020"/>
</svg>
