<svg width="16" height="16" viewBox="0 0 16 16" fill="none" xmlns="http://www.w3.org/2000/svg">
<path d="M2.824 2.00391C2.20357 2.04214 1.61014 2.27127 1.125 2.65991C1 2.75791 0.758002 2.99991 0.660002 3.12491C0.297002 3.58191 0.0900016 4.08191 0.0200016 4.67191C0.00400162 4.77691 0.00400162 4.96091 0.00400162 7.99591C0.00400162 11.0549 0.00400162 11.2109 0.0200016 11.3279C0.0980016 12.0079 0.383002 12.6089 0.848002 13.0859C1.348 13.5979 1.945 13.8909 2.672 13.9799C2.782 13.9959 2.969 13.9959 6.742 13.9959C9.914 13.9959 10.711 13.9919 10.75 13.9839C10.8886 13.9622 11.0207 13.9103 11.137 13.8319C11.199 13.7929 11.414 13.5819 13.113 11.8789C15.125 9.87091 15.086 9.90991 15.234 9.68791C15.6025 9.15039 15.7853 8.50716 15.7544 7.85617C15.7235 7.20519 15.4807 6.58214 15.063 6.08191C15.003 6.01191 14.371 5.37491 13.09 4.09391C11.07 2.07791 11.176 2.17991 11.023 2.10191C10.9454 2.06635 10.8643 2.03887 10.781 2.01991C10.727 2.00391 10.547 2.00391 6.793 2.00391H2.824ZM11.844 5.66791C12.992 6.81991 13.527 7.35891 13.559 7.40191C13.645 7.51991 13.707 7.65991 13.739 7.80491C13.758 7.89791 13.758 8.10191 13.739 8.19491C13.7207 8.28286 13.6915 8.36819 13.652 8.44891C13.574 8.60191 13.645 8.52691 11.852 10.3239L10.176 11.9999H6.55C2.542 11.9999 2.85 12.0039 2.69 11.9499C2.5386 11.9008 2.40115 11.8161 2.28912 11.7031C2.17709 11.59 2.09373 11.4518 2.046 11.2999C1.996 11.1399 1.999 11.3789 2.003 7.96491C2.003 5.05891 2.003 4.85191 2.019 4.80091C2.109 4.42591 2.354 4.15591 2.699 4.04691C2.851 3.99991 2.581 3.99991 6.542 3.99991H10.175L11.844 5.66791Z" fill="currentColor"/>
</svg>
