<svg width="16" height="16" viewBox="0 0 16 16" fill="none" xmlns="http://www.w3.org/2000/svg">
<path d="M2.824 2.00401C2.20357 2.04224 1.61014 2.27138 1.125 2.66001C1 2.75801 0.758002 3.00001 0.660002 3.12501C0.297002 3.58201 0.0900016 4.08201 0.0200016 4.67201C0.00400162 4.77701 0.00400162 4.96101 0.00400162 7.99601C0.00400162 11.055 0.00400162 11.211 0.0200016 11.328C0.0860016 11.91 0.297002 12.418 0.660002 12.875C0.758002 13 1 13.242 1.121 13.335C1.621 13.735 2.176 13.949 2.809 13.992C2.895 14 3.633 14 5.262 14C7.504 13.996 7.59 13.996 7.632 13.98C7.824 13.918 7.965 13.785 8.125 13.516C8.15013 13.4713 8.17749 13.4279 8.207 13.386C8.227 13.363 9.157 12.426 10.27 11.313C11.836 9.74301 12.309 9.27001 12.352 9.21101C12.6147 8.86193 12.7568 8.43689 12.7568 8.00001C12.7568 7.56313 12.6147 7.13809 12.352 6.78901C12.309 6.73001 11.836 6.25801 10.27 4.68801C9.57934 3.99933 8.89166 3.30766 8.207 2.61301C8.17752 2.57141 8.15015 2.52836 8.125 2.48401C8.07269 2.38802 8.00852 2.29899 7.934 2.21901C7.85257 2.12753 7.74889 2.05864 7.633 2.01901C7.59 2.00401 7.503 2.00401 5.227 2.00401H2.824ZM5.191 3.00801C5.941 3.06601 6.617 3.38301 7.137 3.91401C7.547 4.33601 7.824 4.85501 7.937 5.42201C7.984 5.64801 7.997 5.77001 7.997 6.02001C7.997 6.30001 7.98 6.45701 7.926 6.70301C7.77186 7.37226 7.3958 7.96965 6.859 8.39801C6.7235 8.50813 6.57861 8.60617 6.426 8.69101C6.356 8.73101 6.262 8.78901 6.223 8.81601C6.145 8.86701 6.031 8.97301 5.996 9.02301L5.973 9.05901L5.969 9.23901C5.961 9.48001 5.937 9.57901 5.855 9.74201C5.77808 9.89217 5.66373 10.02 5.523 10.113C5.35862 10.2249 5.16382 10.2835 4.965 10.281C4.77222 10.2821 4.58337 10.2265 4.422 10.121C4.30876 10.0466 4.21163 9.95018 4.13639 9.83749C4.06114 9.7248 4.00932 9.59813 3.984 9.46501C3.96587 9.23998 3.9672 9.01381 3.988 8.78901C4.055 8.34801 4.246 7.96901 4.574 7.60501C4.785 7.37901 5.054 7.16801 5.387 6.98001C5.547 6.89001 5.602 6.85201 5.684 6.77301C5.81023 6.65245 5.90344 6.50155 5.95474 6.33471C6.00603 6.16787 6.0137 5.99066 5.977 5.82001C5.94661 5.67268 5.88375 5.53399 5.793 5.41401C5.64386 5.21276 5.42549 5.07383 5.18 5.02401C5.04067 4.99665 4.89734 4.99665 4.758 5.02401C4.57183 5.06144 4.39995 5.1505 4.262 5.28101C4.122 5.41401 4.035 5.55901 3.969 5.77301C3.94711 5.84404 3.91969 5.91325 3.887 5.98001C3.75 6.25001 3.5 6.43701 3.203 6.50401C3.121 6.52001 2.953 6.52701 2.875 6.51601C2.65525 6.4859 2.45111 6.38558 2.293 6.23001C2.15547 6.09054 2.06074 5.91461 2.02 5.72301C2.00232 5.6173 1.99829 5.50975 2.008 5.40301C2.031 5.21901 2.137 4.91401 2.258 4.66801C2.40382 4.37933 2.59642 4.11678 2.828 3.89101C2.973 3.74601 3.074 3.65601 3.218 3.55501C3.67767 3.22966 4.21892 3.03886 4.781 3.00401C4.867 3.00001 5.101 3.00001 5.191 3.00801ZM5.203 11.02C5.38013 11.0577 5.54376 11.1426 5.67653 11.2657C5.8093 11.3888 5.90626 11.5456 5.95712 11.7194C6.00798 11.8932 6.01084 12.0775 5.96539 12.2528C5.91995 12.4281 5.82789 12.5878 5.699 12.715C5.56122 12.8517 5.38569 12.944 5.195 12.98C5.06573 12.9995 4.93427 12.9995 4.805 12.98C4.61146 12.9409 4.43376 12.8455 4.29413 12.7059C4.15451 12.5663 4.05915 12.3886 4.02 12.195C4.00054 12.0657 4.00054 11.9343 4.02 11.805C4.11 11.387 4.426 11.082 4.848 11.012C4.96617 10.999 5.08554 11.0017 5.203 11.02Z" fill="#202020"/>
<path d="M11.512 2.01201C11.4385 2.0287 11.3696 2.06178 11.3106 2.10878C11.2517 2.15578 11.2041 2.21549 11.1714 2.28346C11.1387 2.35142 11.1218 2.42589 11.1219 2.50131C11.122 2.57672 11.1391 2.65114 11.172 2.71901L11.203 2.78501L12.433 4.01501C13.109 4.69101 13.691 5.28101 13.727 5.32001C13.914 5.52701 14.051 5.71501 14.199 5.95701C14.273 6.08601 14.414 6.36701 14.473 6.51601C14.6791 7.03599 14.7745 7.59326 14.753 8.1522C14.7314 8.71113 14.5935 9.25942 14.348 9.76201C14.18 10.102 13.984 10.395 13.73 10.676C13.691 10.719 13.11 11.309 12.434 11.984L11.204 13.214L11.172 13.281C11.1375 13.3487 11.1213 13.4242 11.125 13.5C11.1233 13.5936 11.1486 13.6858 11.1976 13.7655C11.2467 13.8453 11.3177 13.9093 11.402 13.95C11.508 14 11.496 14 12.336 14C12.77 14 13.145 13.996 13.203 13.992C13.7517 13.9567 14.2796 13.7686 14.727 13.449C15.004 13.258 15.289 12.969 15.477 12.691C15.757 12.277 15.918 11.848 15.98 11.328C15.996 11.218 15.996 11.058 15.996 8.00001C15.996 4.94101 15.996 4.78101 15.98 4.67201C15.9186 4.10585 15.6965 3.56907 15.34 3.12501C15.1977 2.95529 15.0407 2.79836 14.871 2.65601C14.4294 2.30381 13.8973 2.08337 13.336 2.02001C13.242 2.00801 13.129 2.00401 12.398 2.00401C11.68 2.00001 11.558 2.00401 11.512 2.01201Z" fill="#202020"/>
</svg>
