<svg width="16" height="16" viewBox="0 0 16 16" fill="none" xmlns="http://www.w3.org/2000/svg">
<path d="M2.824 2.00391C2.20326 2.04071 1.60941 2.27 1.125 2.65991C1 2.75791 0.758002 2.99991 0.660002 3.12491C0.297002 3.58191 0.0900016 4.08191 0.0200016 4.67191C0.00400162 4.77691 0.00400162 4.96091 0.00400162 7.99591C0.00400162 11.0549 0.00400162 11.2109 0.0200016 11.3279C0.0860016 11.9099 0.297002 12.4179 0.660002 12.8749C0.758002 12.9999 1.016 13.2579 1.137 13.3519C1.551 13.6719 1.997 13.8719 2.492 13.9569C2.715 13.9969 2.742 13.9969 3.492 13.9969C4.156 13.9969 4.203 13.9969 4.27 13.9799C4.44456 13.9453 4.60718 13.8661 4.742 13.7499C4.777 13.7189 8.59 9.27691 8.652 9.19091C8.86048 8.91005 8.99185 8.57953 9.03308 8.23219C9.0743 7.88485 9.02394 7.53276 8.887 7.21091C8.82349 7.06878 8.74469 6.93398 8.652 6.80891C7.35431 5.28441 6.05097 3.76473 4.742 2.24991C4.60982 2.13845 4.45327 2.05966 4.285 2.01991C4.219 2.00391 4.195 2.00391 3.539 2.00391H2.824ZM5.332 5.99591C6.273 7.09391 7.043 7.99591 7.043 7.99991C7.043 8.00391 6.273 8.90591 5.332 10.0039L3.622 11.9999H3.273C2.883 11.9999 2.828 11.9959 2.691 11.9499C2.5396 11.9008 2.40215 11.8161 2.29012 11.7031C2.17809 11.59 2.09473 11.4518 2.047 11.2999C1.997 11.1399 2 11.3789 2.004 7.96491C2.004 5.05891 2.004 4.85191 2.02 4.80091C2.11 4.42591 2.355 4.15591 2.7 4.04691C2.832 4.00391 2.875 3.99991 3.266 3.99991H3.621L5.332 5.99591Z" fill="#202020"/>
<path d="M9.242 2.00391C9.09663 2.01978 8.95654 2.06753 8.83174 2.14376C8.70694 2.21999 8.6005 2.32281 8.52 2.44491C8.40543 2.61008 8.3453 2.80691 8.348 3.00791C8.352 3.20691 8.402 3.38291 8.512 3.54691C8.532 3.57791 8.91 4.02291 9.352 4.53891C9.797 5.05891 10.195 5.52691 10.238 5.58591C10.68 6.17191 10.934 6.81191 11.023 7.55891C11.039 7.67891 11.043 7.73891 11.043 7.99991C11.043 8.26191 11.039 8.31991 11.023 8.44091C10.947 9.13948 10.6871 9.80542 10.27 10.3709C10.18 10.4919 10.14 10.5389 9.305 11.5159C8.895 11.9959 8.547 12.4059 8.531 12.4259C8.41433 12.5905 8.35075 12.7869 8.34878 12.9887C8.34682 13.1905 8.40656 13.388 8.52 13.5549C8.66259 13.7714 8.8839 13.9238 9.137 13.9799L9.207 13.9959L11.137 13.9999C13.097 13.9999 13.199 13.9999 13.402 13.9729C14.0652 13.8828 14.6792 13.5735 15.1463 13.0942C15.6134 12.6149 15.9069 11.9932 15.98 11.3279C15.996 11.2179 15.996 11.0579 15.996 7.99991C15.996 4.94091 15.996 4.78091 15.98 4.67191C15.9186 4.10575 15.6965 3.56897 15.34 3.12491C15.1977 2.95518 15.0407 2.79825 14.871 2.65591C14.4298 2.30305 13.8975 2.08252 13.336 2.01991C13.238 2.00391 13.086 2.00391 11.25 2.00391H9.242ZM13.2 4.01991C13.571 4.10491 13.845 4.35491 13.954 4.69991C14.004 4.85491 14.001 4.62491 14.001 7.99991C14.001 11.3749 14.005 11.1449 13.954 11.2999C13.844 11.6449 13.571 11.8949 13.2 11.9799C13.15 11.9919 13.064 11.9959 12.333 11.9959L11.524 11.9999L11.603 11.9059C12.5327 10.8222 13.0455 9.44245 13.0491 8.01459C13.0528 6.58674 12.5471 5.20438 11.623 4.11591L11.524 3.99991L12.333 4.00391C13.063 4.00391 13.149 4.00791 13.2 4.01991Z" fill="#202020"/>
</svg>
