<svg width="16" height="16" viewBox="0 0 16 16" fill="none" xmlns="http://www.w3.org/2000/svg">
<path d="M1.277 2.00791C1.04298 2.04156 0.828406 2.15688 0.671209 2.33348C0.514013 2.51007 0.424323 2.73657 0.418001 2.97291C0.408702 3.18534 0.469103 3.39499 0.590001 3.56991C0.613001 3.60191 1.281 4.27691 2.484 5.47991C3.777 6.77291 4.355 7.35991 4.387 7.40191C4.473 7.51991 4.535 7.65991 4.567 7.80491C4.586 7.89791 4.586 8.10191 4.567 8.19491C4.53563 8.34028 4.47433 8.47753 4.387 8.59791C4.355 8.64091 3.766 9.23791 2.484 10.5199C1.8471 11.151 1.21574 11.7877 0.590001 12.4299C0.508001 12.5469 0.450001 12.6949 0.426001 12.8439C0.404437 12.9769 0.410115 13.1129 0.44269 13.2437C0.475265 13.3744 0.534058 13.4972 0.615504 13.6045C0.69695 13.7119 0.799352 13.8016 0.916499 13.8682C1.03365 13.9348 1.1631 13.9769 1.297 13.9919C1.347 13.9999 2.734 13.9999 6.047 13.9999C10.516 13.9959 10.727 13.9959 10.781 13.9799C10.867 13.9599 10.969 13.9259 11.023 13.8979C11.176 13.8199 11.074 13.9219 13.113 11.8779C15.125 9.87091 15.086 9.90991 15.234 9.68791C15.6025 9.15039 15.7853 8.50716 15.7544 7.85617C15.7235 7.20519 15.4807 6.58214 15.063 6.08191C15.003 6.01191 14.371 5.37491 13.09 4.09391C11.07 2.07791 11.176 2.17991 11.023 2.10191C10.9454 2.06635 10.8643 2.03887 10.781 2.01991C10.727 2.00391 10.52 2.00391 6.027 2.00391C3.34 2.00391 1.309 2.00391 1.277 2.00791ZM11.844 5.66791C12.984 6.80791 13.527 7.35891 13.559 7.40191C13.719 7.61691 13.785 7.88191 13.746 8.14091C13.73 8.24191 13.696 8.35891 13.652 8.44491C13.574 8.60191 13.648 8.52291 11.852 10.3199L10.176 11.9999H3.824L4.836 10.9839C5.895 9.92991 5.922 9.89791 6.062 9.69091C6.39822 9.1995 6.58045 8.61907 6.58543 8.02367C6.59042 7.42827 6.41794 6.84488 6.09 6.34791C5.93 6.10491 5.926 6.10491 4.836 5.01191L3.824 3.99991H10.176L11.844 5.66791Z" fill="currentColor"/>
</svg>
