<svg width="16" height="16" viewBox="0 0 16 16" fill="none" xmlns="http://www.w3.org/2000/svg">
<path d="M0.883001 1.00793C0.748748 1.02575 0.61892 1.06812 0.500001 1.13293C0.376071 1.20808 0.269306 1.30842 0.186619 1.42746C0.103932 1.54649 0.0471677 1.68156 0.0200011 1.82393C1.06823e-06 1.91793 1.06823e-06 2.09793 0.0200011 2.19093C0.0557404 2.373 0.142434 2.54119 0.270001 2.67593C0.297001 2.70693 0.710001 3.04293 1.27 3.49193C1.867 3.97193 2.242 4.27693 2.277 4.31193C2.457 4.50393 2.551 4.73793 2.551 4.99993C2.55295 5.25623 2.45462 5.50314 2.277 5.68793C2.242 5.72293 1.867 6.02793 1.27 6.50793C0.710001 6.95693 0.297001 7.29293 0.270001 7.32393C0.137251 7.46304 0.0488412 7.63847 0.0160011 7.82793C1.06823e-06 7.90993 0.00400107 8.08993 0.0200011 8.17593C0.0470011 8.31193 0.102001 8.45293 0.184001 8.56993C0.230001 8.63993 0.367001 8.78093 0.437001 8.82793C0.547001 8.90193 0.672001 8.95293 0.817001 8.97993C0.883001 8.99593 1.067 8.99593 5.074 8.99593C8.57 8.99593 9.27 8.99593 9.32 8.98393C9.465 8.96093 9.637 8.88693 9.746 8.80393C9.953 8.64793 10.098 8.41393 10.136 8.15993C10.152 8.05493 10.156 1.96493 10.136 1.85193C10.124 1.75183 10.0935 1.65484 10.046 1.56593C9.98075 1.42752 9.88399 1.30632 9.76347 1.21203C9.64296 1.11774 9.50204 1.05297 9.352 1.02293L9.277 1.00293H5.11C2.743 1.00293 0.914001 1.00293 0.883001 1.00793Z" fill="currentColor"/>
<path d="M11.148 7.57393C11.148 8.19093 11.145 8.24193 11.105 8.42993C11.0331 8.73321 10.8959 9.01715 10.703 9.26193C10.637 9.34393 10.488 9.49193 10.406 9.55893C10.18 9.73893 9.91 9.87093 9.633 9.94093C9.387 9.99993 9.609 9.99593 7.176 9.99593L5 9.99993L5.004 12.0699C5.004 14.0229 5.004 14.1399 5.02 14.1949C5.07 14.4099 5.152 14.5589 5.297 14.7029C5.449 14.8549 5.617 14.9449 5.836 14.9839C5.875 14.9919 6.48 14.9959 8.836 14.9959H11.786L11.867 14.9759C11.969 14.9529 12.09 14.9099 12.168 14.8589C12.23 14.8239 15.125 12.6209 15.25 12.5189C15.4691 12.331 15.6449 12.0979 15.7655 11.8356C15.8861 11.5733 15.9485 11.2881 15.9485 10.9994C15.9485 10.7108 15.8861 10.4255 15.7655 10.1633C15.6449 9.90098 15.4691 9.66788 15.25 9.47993C15.129 9.37893 12.23 7.17593 12.172 7.13993C12.0522 7.07013 11.9196 7.02523 11.782 7.00793C11.6658 7.00175 11.5494 6.99908 11.433 6.99993H11.147L11.148 7.57393Z" fill="currentColor"/>
</svg>
