<svg width="16" height="16" viewBox="0 0 16 16" fill="none" xmlns="http://www.w3.org/2000/svg">
<g clip-path="url(#clip0_2064_42781)">
<path d="M2.82 0.00390625C2.20124 0.0442279 1.60969 0.27317 1.125 0.659906C1 0.757906 0.758002 0.999906 0.660002 1.12491C0.297002 1.58191 0.0900016 2.08191 0.0200016 2.67191C0.00400162 2.78191 0.00400162 3.04291 0.00400162 7.99591C0.00400162 12.9919 0.00400162 13.2109 0.0200016 13.3279C0.0590016 13.6839 0.152002 14.0079 0.305002 14.3159C0.52655 14.7695 0.858998 15.1598 1.27154 15.4507C1.68409 15.7415 2.16338 15.9236 2.665 15.9799C2.754 15.9959 3.109 15.9959 7.915 15.9999C11.59 15.9999 13.102 15.9999 13.191 15.9919C13.6385 15.9653 14.0741 15.8377 14.4652 15.6186C14.8563 15.3995 15.1926 15.0946 15.449 14.7269C15.746 14.3049 15.914 13.8629 15.98 13.3279C15.996 13.2179 15.996 12.9879 15.996 7.99991C15.996 3.01191 15.996 2.78091 15.98 2.67191C15.9186 2.10575 15.6965 1.56897 15.34 1.12491C15.1977 0.955185 15.0407 0.798252 14.871 0.655906C14.4298 0.303047 13.8975 0.08252 13.336 0.0199062C13.234 0.00390625 12.946 0.00390625 8.046 0.00390625H2.82ZM11.707 2.00791C12.039 2.03491 12.312 2.11291 12.613 2.26191C13.0305 2.4674 13.3816 2.78631 13.6262 3.18212C13.8708 3.57793 13.9989 4.03463 13.996 4.49991C13.996 4.70691 13.988 4.78991 13.957 4.96491C13.8863 5.3315 13.7357 5.67803 13.516 5.97991C13.3932 6.14321 13.253 6.29274 13.098 6.42591C12.6658 6.78208 12.127 6.9836 11.5671 6.99846C11.0073 7.01331 10.4585 6.84065 10.008 6.50791L9.906 6.42991L9.883 6.41391L9.523 6.59391C9.324 6.69491 9.113 6.79691 9.059 6.82391C9.004 6.85191 8.688 7.00791 8.359 7.16791L7.379 7.65591L6.996 7.84391L7 7.97691V8.10491L7.262 8.23491C7.402 8.30891 7.719 8.46891 7.965 8.59391C8.211 8.71391 8.656 8.94091 8.957 9.09391C9.257 9.24591 9.594 9.41391 9.703 9.47291C9.832 9.53891 9.903 9.56991 9.91 9.56591L10.004 9.49591C10.3187 9.2625 10.6835 9.10571 11.0694 9.03801C11.4553 8.97031 11.8517 8.99356 12.227 9.10591C12.375 9.15191 12.457 9.18391 12.613 9.26191C13.0305 9.4674 13.3816 9.78631 13.6262 10.1821C13.8708 10.5779 13.9989 11.0346 13.996 11.4999C13.996 11.7069 13.988 11.7899 13.957 11.9649C13.8863 12.3315 13.7357 12.678 13.516 12.9799C13.3932 13.1432 13.253 13.2927 13.098 13.4259C12.6909 13.7616 12.1884 13.9608 11.6618 13.995C11.1352 14.0293 10.6112 13.897 10.164 13.6169C9.94343 13.4727 9.74473 13.2976 9.574 13.0969C9.34938 12.8231 9.18452 12.5052 9.09 12.1639C9.03224 11.962 9.00328 11.7529 9.004 11.5429L8.996 11.3549L8.562 11.1369L7.125 10.4099L6.125 9.90591L6.055 9.96091C5.60062 10.3197 5.03608 10.5103 4.45718 10.5003C3.87828 10.4903 3.32068 10.2803 2.879 9.90591C2.77059 9.81014 2.6687 9.70725 2.574 9.59791C2.26524 9.22169 2.07151 8.76443 2.016 8.28091C2.0004 8.0939 2.0004 7.90591 2.016 7.71891C2.059 7.35191 2.172 7.02291 2.352 6.71891C2.523 6.42891 2.77 6.15991 3.047 5.96491C3.35899 5.74291 3.71755 5.59507 4.09535 5.53269C4.47315 5.4703 4.8602 5.495 5.227 5.60491C5.504 5.69091 5.785 5.83491 6.007 6.00391L6.086 6.06291L6.656 5.77691C6.973 5.62491 7.629 5.30091 8.113 5.05891L8.996 4.62091L9.004 4.44491C9.008 4.20691 9.031 4.04291 9.09 3.83491C9.184 3.49191 9.355 3.15991 9.586 2.89091C9.66 2.80091 9.816 2.64491 9.902 2.57391C10.285 2.25391 10.782 2.05091 11.282 2.00791C11.391 1.99991 11.602 1.99991 11.707 2.00791Z" fill="currentColor"/>
</g>
<defs>
<clipPath id="clip0_2064_42781">
<rect width="16" height="16" fill="white"/>
</clipPath>
</defs>
</svg>
