<svg width="16" height="16" viewBox="0 0 16 16" fill="none" xmlns="http://www.w3.org/2000/svg">
<path d="M2.8 0.00795313C2.25873 0.0460817 1.73745 0.228012 1.29 0.534953C1.094 0.674953 0.844 0.901953 0.691 1.08495C0.281795 1.58009 0.0423781 2.19353 0.00799967 2.83495C-0.00400033 3.05495 -3.28757e-07 13.203 0.0159997 13.305C0.0619997 13.675 0.145 13.977 0.286 14.27C0.43 14.582 0.606 14.836 0.844 15.082C1.086 15.332 1.328 15.512 1.629 15.664C1.961 15.836 2.273 15.93 2.668 15.98C2.762 15.996 3.121 15.996 7.895 15.996C11.504 16 13.063 16 13.165 15.992C13.5812 15.9715 13.9883 15.8624 14.359 15.672C14.649 15.523 14.879 15.355 15.117 15.117C15.6044 14.635 15.9094 13.9988 15.98 13.317C15.996 13.203 15.996 13.039 15.996 10.007C15.996 6.61695 15.996 6.75695 15.961 6.52695C15.8875 6.08318 15.7182 5.66073 15.465 5.28895C15.2937 5.0544 15.0942 4.84181 14.871 4.65595C14.4294 4.30376 13.8973 4.08331 13.336 4.01995C13.242 4.00795 13.09 4.00395 11.84 3.99995C10.324 3.99595 10.414 3.99595 10.207 3.94995C9.71528 3.83825 9.28406 3.54458 9 3.12795C8.84 2.89795 8.762 2.71395 8.68 2.36995C8.62752 2.12941 8.54627 1.89607 8.438 1.67495C8.20267 1.20068 7.84643 0.796848 7.40523 0.504176C6.96403 0.211505 6.45346 0.0403433 5.925 0.00795313C5.786 -4.68753e-05 2.949 -4.68753e-05 2.8 0.00795313ZM8.204 7.01995C8.40787 7.06194 8.59355 7.1665 8.73517 7.31905C8.87678 7.47159 8.96727 7.66453 8.994 7.87095C8.997 7.91095 9.001 8.43395 9.001 9.50395C9.001 10.84 9.001 11.086 8.989 11.148C8.96122 11.3295 8.88429 11.5001 8.76655 11.6411C8.6488 11.7821 8.49473 11.8882 8.321 11.948C8.21801 11.9827 8.10966 11.999 8.001 11.996C7.84484 12.0012 7.68993 11.9664 7.551 11.895C7.41504 11.8265 7.29658 11.7279 7.2047 11.6065C7.11283 11.4852 7.04998 11.3444 7.021 11.195C7.005 11.133 7.005 11.047 7.005 9.49995C7.005 7.95295 7.005 7.86695 7.021 7.80495C7.111 7.38695 7.427 7.08195 7.849 7.01195C7.96717 6.99898 8.08654 7.00167 8.204 7.01995Z" fill="#202020"/>
<path d="M9.242 1.05495C9.301 1.15595 9.41 1.39095 9.461 1.51195C9.543 1.72195 9.594 1.89095 9.656 2.14495C9.719 2.41795 9.786 2.54295 9.946 2.70295C10.0835 2.84394 10.2601 2.94043 10.453 2.97995C10.508 2.99595 10.609 2.99595 11.898 2.99995C12.906 3.00395 13.308 3.00795 13.371 3.01595C13.911 3.07395 14.344 3.19895 14.793 3.42595C14.879 3.46895 14.953 3.50395 14.953 3.50795C14.9484 3.43371 14.9353 3.36024 14.914 3.28895C14.8096 2.86383 14.6137 2.4666 14.34 2.12495C14.1977 1.95523 14.0407 1.7983 13.871 1.65595C13.4298 1.30309 12.8975 1.08257 12.336 1.01995C12.238 1.00395 12.098 1.00395 10.723 1.00395L9.21 0.999953L9.242 1.05495Z" fill="#202020"/>
</svg>
