<svg width="16" height="16" viewBox="0 0 16 16" fill="none" xmlns="http://www.w3.org/2000/svg">
<path d="M1.39 1.01206C1.29942 1.03378 1.21643 1.07966 1.14987 1.14482C1.08331 1.20998 1.03566 1.29197 1.012 1.38206C1 1.42706 1 1.59906 1 2.77006C1 4.23406 0.996001 4.14806 1.047 4.25406C1.097 4.35906 1.176 4.43406 1.285 4.48406C1.363 4.52406 1.418 4.53506 1.5 4.53506C1.5761 4.53767 1.65157 4.52043 1.719 4.48506C1.785 4.45306 1.789 4.44906 2.102 4.13706L2.414 3.82406L3.48 4.88706C4.64 6.05006 4.566 5.98006 4.7 6.01606C4.79638 6.0388 4.89702 6.03604 4.992 6.00806C5.102 5.96506 5.117 5.95306 5.535 5.53506C5.953 5.11706 5.965 5.10206 6.008 4.99206C6.03616 4.89676 6.03892 4.79575 6.016 4.69906C5.98 4.56606 6.051 4.64106 4.886 3.48006L3.825 2.41406L4.13 2.10906C4.349 1.89106 4.442 1.78906 4.466 1.75406C4.52193 1.65856 4.54425 1.54708 4.52938 1.43741C4.51452 1.32774 4.46333 1.22622 4.384 1.14906C4.33144 1.0899 4.26364 1.04631 4.188 1.02306L4.13 1.00306H2.785C1.656 1.00006 1.434 1.00306 1.391 1.01206H1.39ZM11.879 1.00806C11.7785 1.02425 11.6863 1.07352 11.617 1.14806C11.5374 1.22706 11.4865 1.33039 11.4724 1.44164C11.4583 1.55289 11.4817 1.66566 11.539 1.76206C11.555 1.78506 11.695 1.93406 11.871 2.10906L12.176 2.41406L11.113 3.48006C10.074 4.52006 10.047 4.54306 10.02 4.60206C9.97929 4.67874 9.96158 4.76555 9.969 4.85206C9.977 4.94906 9.992 5.01206 10.039 5.09006C10.055 5.11306 10.211 5.27706 10.465 5.53106C10.891 5.96106 10.902 5.97306 11.015 6.00806C11.1079 6.03619 11.2067 6.03896 11.301 6.01606C11.434 5.98006 11.359 6.05106 12.52 4.88606L13.586 3.82406L13.898 4.13706C14.211 4.44906 14.215 4.45306 14.281 4.48406C14.363 4.52406 14.414 4.53506 14.5 4.53506C14.5748 4.53762 14.649 4.52037 14.715 4.48506C14.8196 4.43931 14.9041 4.35726 14.953 4.25406C15.003 4.14806 15 4.23406 15 2.77006C15 1.29006 15.004 1.39006 14.95 1.27306C14.8996 1.1794 14.8218 1.10336 14.727 1.05506C14.605 0.996057 14.703 1.00006 13.234 1.00006C12.512 1.00006 11.902 1.00406 11.879 1.00806ZM4.688 9.98806C4.566 10.0231 4.625 9.96806 3.48 11.1131L2.414 12.1761L2.102 11.8631C1.789 11.5511 1.785 11.5471 1.719 11.5161C1.65167 11.4803 1.57619 11.4628 1.5 11.4651C1.42518 11.4625 1.35101 11.4797 1.285 11.5151C1.18039 11.5608 1.09585 11.6429 1.047 11.7461C0.997001 11.8521 1 11.7661 1 13.2301C1 14.7151 0.996001 14.6131 1.055 14.7271C1.094 14.8121 1.184 14.8981 1.273 14.9451C1.395 15.0041 1.297 15.0001 2.793 15.0001L4.129 14.9961L4.191 14.9731C4.26212 14.949 4.32695 14.9092 4.38071 14.8568C4.43448 14.8044 4.47583 14.7406 4.50172 14.6701C4.52762 14.5996 4.5374 14.5242 4.53035 14.4495C4.52331 14.3747 4.49961 14.3025 4.461 14.2381C4.35471 14.1183 4.24396 14.0025 4.129 13.8911L3.824 13.5861L4.887 12.5201C6.051 11.3601 5.98 11.4341 6.016 11.3001C6.031 11.2501 6.031 11.2271 6.031 11.1481C6.02807 11.0641 6.004 10.9822 5.961 10.9101C5.921 10.8441 5.156 10.0781 5.09 10.0401C5.01741 9.99169 4.93109 9.96818 4.844 9.97306C4.79121 9.96619 4.73754 9.97131 4.687 9.98806H4.688ZM11.031 9.98806C10.9791 10.0008 10.9302 10.0236 10.887 10.0551C10.7441 10.1908 10.6034 10.3288 10.465 10.4691C10.199 10.7341 10.055 10.8831 10.039 10.9101C9.99495 10.9818 9.97079 11.0639 9.969 11.1481C9.96128 11.2345 9.97864 11.3213 10.019 11.3981C10.047 11.4571 10.074 11.4801 11.113 12.5201L12.176 13.5861L11.871 13.8911C11.756 14.0025 11.6453 14.1183 11.539 14.2381C11.4805 14.3339 11.4564 14.4468 11.4706 14.5582C11.4848 14.6696 11.5364 14.7729 11.617 14.8511C11.6696 14.9102 11.7374 14.9538 11.813 14.9771L11.871 14.9971L13.207 15.0001C14.703 15.0001 14.605 15.0041 14.727 14.9451C14.8203 14.8964 14.8964 14.8203 14.945 14.7271C15.004 14.6131 15 14.7151 15 13.2301C15 11.7661 15.004 11.8521 14.953 11.7461C14.8929 11.6279 14.7891 11.5378 14.6636 11.4948C14.5382 11.4519 14.4009 11.4595 14.281 11.5161C14.215 11.5461 14.211 11.5511 13.898 11.8631L13.586 12.1761L12.52 11.1131C11.48 10.0741 11.457 10.0471 11.398 10.0201C11.327 9.98355 11.2478 9.96599 11.168 9.96906C11.1215 9.96682 11.0749 9.97361 11.031 9.98906V9.98806Z" fill="#202020"/>
</svg>
