<svg width="16" height="16" viewBox="0 0 16 16" fill="none" xmlns="http://www.w3.org/2000/svg">
<path d="M2.816 0.00793918C2.48644 0.0386941 2.16982 0.151454 1.895 0.335939C1.418 0.651939 1.109 1.13594 1.023 1.70294C0.996002 1.86294 0.996002 2.13694 1.023 2.29694C1.06386 2.57486 1.16348 2.84089 1.31522 3.0773C1.46696 3.3137 1.66734 3.51505 1.903 3.66794L2 3.73394V4.95394C2 6.10494 2 6.17194 1.984 6.17594C1.714 6.26994 1.387 6.45294 1.125 6.65994C1 6.75794 0.758002 6.99994 0.660002 7.12494C0.297002 7.58194 0.0900016 8.08194 0.0200016 8.67194C0.00400162 8.77694 0.00400162 8.92194 0.00400162 10.9959C0.00400162 13.0899 0.00400162 13.2149 0.0200016 13.3279C0.0590016 13.6839 0.152002 14.0079 0.305002 14.3159C0.52655 14.7695 0.858998 15.1598 1.27154 15.4507C1.68409 15.7416 2.16338 15.9236 2.665 15.9799C2.754 15.9959 3.109 15.9959 7.915 15.9999C13.172 15.9999 13.191 15.9999 13.402 15.9729C14.0428 15.8874 14.6382 15.5953 15.098 15.1409C15.5403 14.7109 15.8378 14.1538 15.949 13.5469C16 13.2699 15.996 13.4449 15.996 10.9999C15.996 8.55494 16 8.72994 15.949 8.45294C15.8595 7.96638 15.6498 7.50989 15.339 7.12494C15.197 6.95526 15.0404 6.79833 14.871 6.65594C14.629 6.46894 14.371 6.31594 14.105 6.21094L14 6.16794V3.73394L14.035 3.71394C14.453 3.45394 14.754 3.07394 14.902 2.61694C14.969 2.40694 14.996 2.23794 14.996 1.99994C14.996 1.81194 14.984 1.71494 14.949 1.55494C14.8737 1.22575 14.7165 0.920931 14.4918 0.66882C14.2671 0.41671 13.9824 0.225491 13.664 0.112939C13.2192 -0.0419836 12.7341 -0.0363231 12.293 0.128939C12.0005 0.243659 11.7374 0.422357 11.523 0.651939C11.3216 0.871074 11.1721 1.13271 11.0856 1.41746C10.999 1.70222 10.9776 2.0028 11.023 2.29694C11.0639 2.57486 11.1635 2.84089 11.3152 3.0773C11.467 3.3137 11.6673 3.51505 11.903 3.66794L12 3.73394V5.99994H4V3.73394L4.035 3.71394C4.28154 3.56233 4.49318 3.36023 4.656 3.12094C4.828 2.86694 4.934 2.58994 4.98 2.26994C5 2.13994 5 1.85994 4.98 1.72994C4.92201 1.30209 4.72698 0.904538 4.42412 0.596812C4.12126 0.289086 3.72687 0.0877456 3.3 0.0229392C3.13951 0.00260969 2.97745 -0.00241291 2.816 0.00793918ZM8.617 7.21794C8.68502 7.24074 8.74961 7.2727 8.809 7.31294C8.86872 7.35952 8.91667 7.41946 8.949 7.48794C9.004 7.59394 9 7.49994 9 9.07394V10.4999H9.95L10.895 10.5039L10.945 10.5199C11.0397 10.5527 11.123 10.6121 11.1847 10.6911C11.2464 10.77 11.284 10.8651 11.293 10.9649C11.2975 11.0846 11.2631 11.2025 11.195 11.3009C11.16 11.3479 7.883 14.6249 7.82 14.6759C7.73045 14.7541 7.61484 14.7959 7.496 14.7929C7.39061 14.7905 7.2885 14.7558 7.2034 14.6936C7.1183 14.6314 7.0543 14.5446 7.02 14.4449L7.004 14.3949L7 12.9449V11.4999H6.074C5.066 11.4999 5.094 11.4999 4.996 11.4529C4.88763 11.4038 4.80138 11.3161 4.754 11.2069C4.72054 11.1404 4.70438 11.0664 4.707 10.9919C4.707 10.8749 4.747 10.7769 4.824 10.6799C4.902 10.5859 8.18 7.31594 8.227 7.28994C8.28374 7.25214 8.3476 7.22635 8.41467 7.21414C8.48173 7.20193 8.55059 7.20256 8.617 7.21794Z" fill="#202020"/>
</svg>
