<svg width="16" height="16" viewBox="0 0 16 16" fill="none" xmlns="http://www.w3.org/2000/svg">
<path d="M3.86 2.00412C3.844 2.00812 3.797 2.01212 3.758 2.01612C3.4024 2.05756 3.06465 2.19454 2.78065 2.41251C2.49665 2.63049 2.27699 2.92132 2.145 3.25412C1.96907 3.69167 1.95384 4.1774 2.102 4.62512C2.21619 4.97738 2.42664 5.29068 2.70956 5.52959C2.99248 5.76851 3.33659 5.92353 3.703 5.97712C3.863 6.00412 4.137 6.00412 4.297 5.97712C4.67432 5.92312 5.02755 5.75972 5.313 5.50712C5.422 5.41812 5.5 5.32812 5.605 5.18712C5.812 4.91012 5.93 4.62512 5.98 4.27012C6.004 4.12912 6 3.85212 5.977 3.70312C5.91462 3.27119 5.71164 2.87185 5.39945 2.56689C5.08726 2.26194 4.68328 2.06836 4.25 2.01612C4.12023 2.00662 3.99011 2.00262 3.86 2.00412ZM11.86 2.00412C11.844 2.00812 11.797 2.01212 11.758 2.01612C11.4024 2.05756 11.0647 2.19454 10.7807 2.41251C10.4966 2.63049 10.277 2.92132 10.145 3.25412C9.97252 3.68506 9.9545 4.16241 10.094 4.60512C10.164 4.82812 10.254 5.00412 10.394 5.18712C10.5485 5.39947 10.7438 5.57876 10.9686 5.71443C11.1935 5.85011 11.4431 5.93942 11.703 5.97712C11.863 6.00412 12.137 6.00412 12.297 5.97712C12.7208 5.9159 13.1135 5.7192 13.4163 5.4164C13.7191 5.11359 13.9158 4.72095 13.977 4.29712C14.004 4.13712 14.004 3.86312 13.977 3.70312C13.9392 3.44388 13.8503 3.19474 13.7154 2.97018C13.5804 2.74563 13.4022 2.55015 13.191 2.39512C12.9148 2.19044 12.5909 2.05965 12.25 2.01512C12.1202 2.00596 11.9901 2.00229 11.86 2.00412ZM7.86 5.00412C7.844 5.00812 7.797 5.01212 7.758 5.01612C7.4024 5.05756 7.06465 5.19454 6.78065 5.41251C6.49664 5.63049 6.27699 5.92132 6.145 6.25412C5.96907 6.69167 5.95384 7.1774 6.102 7.62512C6.21619 7.97738 6.42664 8.29068 6.70956 8.52959C6.99248 8.76851 7.33659 8.92353 7.703 8.97712C7.863 9.00412 8.137 9.00412 8.297 8.97712C8.72083 8.9159 9.11348 8.7192 9.41628 8.4164C9.71908 8.11359 9.91578 7.72095 9.977 7.29712C10.004 7.13712 10.004 6.86312 9.977 6.70312C9.93924 6.44388 9.8503 6.19474 9.71536 5.97018C9.58042 5.74563 9.40218 5.55015 9.191 5.39512C8.91478 5.19044 8.59089 5.05965 8.25 5.01512C8.12022 5.00596 7.9901 5.00229 7.86 5.00412ZM3.836 7.00412C3.46671 7.02214 3.10148 7.0894 2.75 7.20412C2.1694 7.39283 1.64099 7.71474 1.207 8.14412C0.688605 8.64513 0.318373 9.27937 0.137002 9.97712C0.112286 10.0484 0.101424 10.1238 0.105002 10.1991C0.105002 10.3391 0.121002 10.3991 0.180002 10.5191C0.293002 10.7501 0.512002 10.9101 0.800002 10.9801L0.871002 10.9961H2.434L4 11.0001L4.066 10.9141C4.58551 10.255 5.26077 9.7354 6.031 9.40212L6.137 9.35512L6.07 9.30112C5.75527 9.03793 5.49817 8.71268 5.31476 8.34569C5.13135 7.97869 5.02556 7.57783 5.004 7.16812L5 7.12512L4.941 7.11312C4.75463 7.06949 4.56554 7.03842 4.375 7.02012C4.1953 7.00729 4.01615 7.00195 3.836 7.00412ZM11.836 7.00412C11.559 7.02012 11.309 7.05412 11.074 7.10912L11 7.13012L10.996 7.15712C10.996 7.17312 10.992 7.20012 10.992 7.21612C10.992 7.26612 10.965 7.48612 10.945 7.57912C10.811 8.24956 10.4548 8.8552 9.934 9.29812L9.864 9.35612L9.961 9.39912C10.7261 9.72797 11.3983 10.2404 11.918 10.8911L12.004 11.0011L13.566 10.9971C15 10.9971 15.133 10.9971 15.187 10.9811C15.48 10.9151 15.707 10.7511 15.82 10.5211C15.8744 10.4236 15.9004 10.3127 15.895 10.2011C15.8984 10.1241 15.8876 10.0472 15.863 9.97412C15.6789 9.27895 15.309 8.64702 14.793 8.14612C14.1414 7.50276 13.2869 7.10519 12.375 7.02112C12.1953 7.00829 12.0151 7.00295 11.835 7.00512L11.836 7.00412ZM7.836 10.0041C6.85091 10.0438 5.91557 10.4475 5.211 11.1371C4.69212 11.6412 4.32076 12.2774 4.137 12.9771C4.11229 13.0484 4.10142 13.1238 4.105 13.1991C4.105 13.3391 4.121 13.3991 4.18 13.5191C4.293 13.7541 4.523 13.9221 4.816 13.9801C4.883 13.9961 4.976 13.9961 7.996 13.9961C11.383 13.9961 11.145 14.0001 11.296 13.9531C11.4075 13.919 11.5113 13.8632 11.6012 13.7889C11.6911 13.7146 11.7655 13.6232 11.82 13.5201C11.8744 13.4226 11.9004 13.3117 11.895 13.2001C11.8984 13.1231 11.8876 13.0462 11.863 12.9731C11.6531 12.1856 11.2079 11.4808 10.5867 10.9531C9.96556 10.4254 9.19812 10.0999 8.387 10.0201C8.20363 10.0072 8.01981 10.0019 7.836 10.0041Z" fill="#202020"/>
</svg>
