<svg width="16" height="16" viewBox="0 0 16 16" fill="none" xmlns="http://www.w3.org/2000/svg">
<path d="M2.828 0.00392417C2.23123 0.0370236 1.65808 0.248213 1.18251 0.610238C0.706939 0.972262 0.350781 1.46851 0.159999 2.03492C0.0510381 2.34476 -0.00178909 2.67154 0.00399944 2.99992C0.00399944 3.36692 0.0469994 3.63292 0.159999 3.96492C0.299913 4.38034 0.529603 4.75985 0.832749 5.07648C1.1359 5.39311 1.50506 5.63908 1.914 5.79692L2 5.83192V10.1679L1.906 10.2069C1.266 10.4609 0.725999 10.9259 0.390999 11.5199C0.194999 11.8629 0.0709994 12.2499 0.0199994 12.6719C-0.0274197 13.0909 0.0143793 13.5152 0.142648 13.9169C0.270918 14.3186 0.482752 14.6886 0.764226 15.0025C1.0457 15.3165 1.39044 15.5673 1.77578 15.7385C2.16112 15.9098 2.57834 15.9975 3 15.9959C3.60289 15.9968 4.19203 15.8158 4.69035 15.4764C5.18867 15.1371 5.57298 14.6552 5.793 14.0939L5.832 13.9999H10.168L10.211 14.1049C10.363 14.5039 10.637 14.9059 10.953 15.1949C11.4254 15.6342 12.0268 15.9094 12.668 15.9799C12.813 15.9999 13.156 15.9999 13.297 15.9839C13.6891 15.9458 14.0698 15.8306 14.4173 15.6449C14.7648 15.4593 15.0721 15.2068 15.3218 14.9021C15.5715 14.5973 15.7585 14.2462 15.8721 13.869C15.9857 13.4918 16.0238 13.0959 15.984 12.7039C15.9304 12.1558 15.7267 11.633 15.3951 11.1931C15.0636 10.7533 14.6172 10.4134 14.105 10.2109L14 10.1679V5.83192L14.09 5.79692C14.2 5.75392 14.406 5.65692 14.504 5.59692C14.8843 5.37606 15.2116 5.07443 15.4626 4.71331C15.7137 4.35219 15.8825 3.94038 15.957 3.50692C15.988 3.32392 15.997 3.21092 15.997 2.99992C15.9977 2.90077 15.9934 2.80164 15.984 2.70292C15.9163 2.01329 15.6114 1.3685 15.1214 0.878508C14.6314 0.388516 13.9866 0.0836601 13.297 0.0159242C13.0993 0.000284835 12.9007 0.000284835 12.703 0.0159242C12.0494 0.0817371 11.4351 0.358717 10.953 0.804924C10.637 1.09392 10.367 1.49192 10.211 1.89492L10.168 1.99992H5.832L5.797 1.90992C5.69451 1.65395 5.55939 1.41229 5.395 1.19092C5.14656 0.862304 4.83316 0.588316 4.47429 0.386003C4.11543 0.183689 3.71877 0.0573777 3.309 0.0149242C3.14918 0.00564631 2.98808 0.00197739 2.828 0.00392417ZM10.211 4.10492C10.312 4.36692 10.477 4.65192 10.661 4.88292C10.981 5.28092 11.438 5.61692 11.914 5.79692L12 5.83192V10.1679L11.91 10.2029C11.441 10.3829 10.98 10.7189 10.66 11.1169C10.48 11.3469 10.312 11.6329 10.21 11.8949L10.168 11.9999H5.832L5.793 11.9019C5.55701 11.3039 5.13534 10.7974 4.59 10.4569C4.43701 10.3619 4.27647 10.2796 4.11 10.2109L4 10.1679V5.83192L4.09 5.79692C4.2 5.75392 4.406 5.65692 4.504 5.59692C4.742 5.45692 4.934 5.31192 5.129 5.11292C5.418 4.82392 5.656 4.45692 5.797 4.08592L5.832 3.99992H10.168L10.211 4.10492ZM3.152 12.0119C3.48 12.0619 3.758 12.2659 3.902 12.5659C3.96374 12.6962 3.99672 12.8382 3.99869 12.9823C4.00065 13.1264 3.97157 13.2692 3.91341 13.4011C3.85526 13.533 3.76939 13.6508 3.66164 13.7465C3.5539 13.8423 3.4268 13.9137 3.289 13.9559C3.15206 13.9976 3.00777 14.0093 2.86591 13.9903C2.72405 13.9713 2.58794 13.9219 2.46681 13.8457C2.34569 13.7694 2.24238 13.668 2.16391 13.5483C2.08543 13.4286 2.03363 13.2934 2.012 13.1519C1.98776 12.9967 2.00052 12.8379 2.04924 12.6885C2.09796 12.5392 2.18126 12.4034 2.29236 12.2923C2.40346 12.1812 2.53923 12.0979 2.68861 12.0492C2.83799 12.0004 2.99676 11.9877 3.152 12.0119Z" fill="#202020"/>
</svg>
