<svg width="16" height="16" viewBox="0 0 16 16" fill="none" xmlns="http://www.w3.org/2000/svg">
<path d="M5.871 0.00790625C5.64398 0.0380852 5.43426 0.145421 5.277 0.311906C5.13953 0.456521 5.0486 0.639058 5.016 0.835906C5.00038 2.27853 5.00038 3.72128 5.016 5.16391C5.055 5.38291 5.145 5.55091 5.296 5.70391C5.40167 5.81528 5.53375 5.89818 5.68 5.94491C5.832 5.99591 5.809 5.99591 6.434 5.99591L7 5.99991V8.33591H5.406C4.414 8.33591 3.766 8.33991 3.696 8.34391C3.26648 8.36527 2.84541 8.4713 2.457 8.65591C2.31431 8.72509 2.17838 8.80745 2.051 8.90191C1.473 9.33991 1.125 9.99591 1.027 10.8359C1.004 11.0309 1 11.2069 1 11.7339V12.2659L0.89 12.3399C0.657063 12.4926 0.459282 12.6931 0.309799 12.9281C0.160315 13.1631 0.0625502 13.4272 0.0229996 13.7029C-0.00435536 13.9 -0.00435536 14.0999 0.0229996 14.2969C0.109 14.8589 0.41 15.3359 0.879 15.6569C1.13143 15.8263 1.41891 15.9363 1.71991 15.9787C2.0209 16.0211 2.32759 15.9949 2.617 15.9019C2.94634 15.7955 3.24231 15.6052 3.47585 15.3497C3.70938 15.0943 3.87244 14.7824 3.949 14.4449C3.984 14.2849 3.996 14.1869 3.996 13.9999C3.996 13.8119 3.984 13.7149 3.949 13.5549C3.88974 13.2953 3.77949 13.05 3.62465 12.8334C3.4698 12.6167 3.27345 12.433 3.047 12.2929L3 12.2659V11.7379C3 11.2179 3.004 11.1049 3.027 10.9609C3.04742 10.8218 3.09979 10.6894 3.18 10.5739C3.262 10.4689 3.402 10.4019 3.64 10.3589L3.73 10.3389H5.363L7 10.3369L7.004 11.2349C7.004 12.0549 7.008 12.1419 7.02 12.1919C7.031 12.2429 7.031 12.2469 7.02 12.2549L6.89 12.3369C6.61571 12.5185 6.39111 12.7658 6.23657 13.0562C6.08202 13.3466 6.00243 13.671 6.005 13.9999C6.00312 14.3267 6.08202 14.6488 6.23467 14.9377C6.38732 15.2266 6.609 15.4733 6.88 15.6559C7.13235 15.8254 7.41979 15.9356 7.72079 15.9782C8.02179 16.0208 8.32852 15.9947 8.618 15.9019C8.94734 15.7955 9.24331 15.6052 9.47685 15.3497C9.71038 15.0943 9.87344 14.7824 9.95 14.4449C9.985 14.2849 9.997 14.1869 9.997 13.9999C9.997 13.8119 9.985 13.7149 9.95 13.5549C9.8912 13.2972 9.78192 13.0537 9.62847 12.8385C9.47503 12.6232 9.28046 12.4405 9.056 12.3009C9.02852 12.2863 9.00241 12.2692 8.978 12.2499C8.974 12.2459 8.978 12.2229 8.981 12.1909C8.993 12.1409 8.997 12.0509 8.997 11.2339L9 10.3359H10.633L12.262 10.3399L12.355 10.3549C12.59 10.3979 12.738 10.4689 12.82 10.5749C12.9001 10.6901 12.9524 10.8222 12.973 10.9609C12.996 11.1009 13 11.2189 13 11.7379V12.2659L12.89 12.3399C12.6571 12.4926 12.4593 12.6931 12.3098 12.9281C12.1603 13.1631 12.0626 13.4272 12.023 13.7029C11.996 13.8629 11.996 14.1369 12.023 14.2969C12.109 14.8589 12.41 15.3359 12.879 15.6569C13.1314 15.8263 13.4189 15.9363 13.7199 15.9787C14.0209 16.0211 14.3276 15.9949 14.617 15.9019C14.9463 15.7955 15.2423 15.6052 15.4758 15.3497C15.7094 15.0943 15.8724 14.7824 15.949 14.4449C15.984 14.2849 15.996 14.1869 15.996 13.9999C15.9969 13.6584 15.91 13.3224 15.7436 13.0242C15.5773 12.726 15.337 12.4755 15.046 12.2969L15 12.2659L14.996 11.6559C14.996 11.0549 14.992 10.9959 14.965 10.7729C14.863 9.97691 14.512 9.32791 13.949 8.90291C13.8217 8.8081 13.6857 8.72541 13.543 8.65591C13.1549 8.47143 12.7342 8.3654 12.305 8.34391C12.235 8.33991 11.585 8.33591 10.598 8.33591H9V5.99991L9.57 5.99591C10.191 5.99591 10.168 5.99591 10.32 5.94591C10.4661 5.89845 10.5978 5.81487 10.703 5.70291C10.8523 5.55824 10.9509 5.36917 10.984 5.16391C11 5.08991 11 0.909906 10.984 0.835906C10.9514 0.630405 10.8532 0.440971 10.704 0.295906C10.5692 0.15682 10.3963 0.0607786 10.207 0.0199062L10.137 0.00390625H8.03C6.82 0.00390625 5.902 0.00390625 5.871 0.00790625Z" fill="#202020"/>
</svg>
