<svg width="16" height="16" viewBox="0 0 16 16" fill="none" xmlns="http://www.w3.org/2000/svg">
<path d="M7.816 0.00791584C7.48644 0.0386708 7.16981 0.151431 6.895 0.335916C6.61946 0.516933 6.39359 0.764013 6.23797 1.05465C6.08235 1.34529 6.00191 1.67024 6.004 1.99992C6.004 2.20292 6.02 2.32792 6.063 2.49592C6.172 2.91392 6.41 3.28892 6.734 3.55092C6.789 3.59392 6.949 3.70292 7.02 3.74592C7.031 3.75392 7.031 3.75792 7.02 3.80892C7.004 3.85892 7.004 3.96092 7.004 5.09792L7 6.33592H5.402C4.414 6.33592 3.766 6.33992 3.695 6.34392C3.26582 6.36541 2.8451 6.47144 2.457 6.65592C2.31431 6.7251 2.17838 6.80746 2.051 6.90192C1.473 7.33992 1.125 7.99592 1.027 8.83592C1.004 9.06192 1 9.20992 1 10.7339V12.2659L0.89 12.3399C0.657063 12.4926 0.459282 12.6931 0.309799 12.9281C0.160315 13.1631 0.0625502 13.4272 0.0229996 13.7029C-0.00435536 13.9 -0.00435536 14.0999 0.0229996 14.2969C0.109 14.8589 0.41 15.3359 0.879 15.6569C1.13143 15.8263 1.41891 15.9363 1.71991 15.9787C2.0209 16.0211 2.32759 15.9949 2.617 15.9019C2.94634 15.7955 3.24231 15.6052 3.47585 15.3497C3.70938 15.0943 3.87244 14.7825 3.949 14.4449C3.984 14.2849 3.996 14.1869 3.996 13.9999C3.996 13.8119 3.984 13.7149 3.949 13.5549C3.88974 13.2953 3.77949 13.05 3.62465 12.8334C3.4698 12.6168 3.27345 12.433 3.047 12.2929L3 12.2659V10.7379C3 9.21092 3 9.12092 3.027 8.96092C3.04742 8.82183 3.09979 8.68937 3.18 8.57392C3.262 8.46892 3.402 8.40192 3.64 8.35892L3.73 8.33892H5.363L7 8.33692L7.004 10.2349C7.004 12.0129 7.004 12.1419 7.02 12.1919C7.031 12.2429 7.031 12.2469 7.02 12.2549L6.89 12.3369C6.418 12.6489 6.11 13.1369 6.023 13.7039C5.996 13.8639 5.996 14.1379 6.023 14.2979C6.109 14.8599 6.41 15.3369 6.879 15.6579C7.13143 15.8273 7.41891 15.9373 7.71991 15.9797C8.0209 16.0221 8.32759 15.9959 8.617 15.9029C8.94633 15.7965 9.24231 15.6062 9.47585 15.3507C9.70938 15.0953 9.87244 14.7835 9.949 14.4459C9.984 14.2859 9.996 14.1879 9.996 14.0009C9.996 13.8129 9.984 13.7159 9.949 13.5559C9.8902 13.2982 9.78092 13.0547 9.62747 12.8395C9.47403 12.6242 9.27946 12.4415 9.055 12.3019C9.02752 12.2873 9.00142 12.2702 8.977 12.2509C8.973 12.2469 8.977 12.2239 8.98 12.1919C8.996 12.1419 8.996 12.0009 8.996 10.2349L9 8.33592H10.633L12.262 8.33992L12.355 8.35492C12.535 8.39092 12.648 8.42992 12.738 8.49592C12.883 8.59792 12.965 8.80492 12.992 9.12492C12.996 9.17992 13 9.78492 13 10.7379V12.2659L12.89 12.3399C12.6571 12.4926 12.4593 12.6931 12.3098 12.9281C12.1603 13.1631 12.0626 13.4272 12.023 13.7029C11.996 13.8629 11.996 14.1369 12.023 14.2969C12.109 14.8589 12.41 15.3359 12.879 15.6569C13.1314 15.8263 13.4189 15.9363 13.7199 15.9787C14.0209 16.0211 14.3276 15.9949 14.617 15.9019C14.9463 15.7955 15.2423 15.6052 15.4758 15.3497C15.7094 15.0943 15.8724 14.7825 15.949 14.4449C15.984 14.2849 15.996 14.1869 15.996 13.9999C15.9969 13.6584 15.91 13.3224 15.7436 13.0242C15.5773 12.726 15.337 12.4755 15.046 12.2969L15 12.2659L14.996 10.6559C14.996 8.92992 14.996 8.99192 14.957 8.71492C14.844 7.94092 14.5 7.31592 13.949 6.90192C13.8216 6.80746 13.6857 6.7251 13.543 6.65592C13.1549 6.47144 12.7342 6.36541 12.305 6.34392C12.235 6.33992 11.585 6.33592 10.598 6.33592H9L8.996 5.09792C8.996 3.96492 8.996 3.85892 8.98 3.80792C8.977 3.77792 8.969 3.75392 8.969 3.75392L9.039 3.71092C9.555 3.39492 9.891 2.88292 9.98 2.26992C10 2.13992 10 1.85992 9.98 1.72992C9.92201 1.30207 9.72698 0.904514 9.42412 0.596788C9.12126 0.289063 8.72687 0.0877223 8.3 0.0229158C8.13951 0.00258635 7.97744 -0.00243625 7.816 0.00791584Z" fill="currentColor"/>
</svg>
