<svg width="16" height="16" viewBox="0 0 16 16" fill="none" xmlns="http://www.w3.org/2000/svg">
<g clip-path="url(#clip0_2064_45139)">
<path d="M2.824 0.00390625C2.20357 0.0421404 1.61014 0.271271 1.125 0.659906C1 0.757906 0.758002 0.999906 0.660002 1.12491C0.297002 1.58191 0.0900016 2.08191 0.0200016 2.67191C0.00400162 2.78191 0.00400162 3.04291 0.00400162 7.99591C0.00400162 12.9919 0.00400162 13.2109 0.0200016 13.3279C0.0590016 13.6839 0.152002 14.0079 0.305002 14.3159C0.52655 14.7695 0.858998 15.1598 1.27154 15.4507C1.68409 15.7415 2.16338 15.9236 2.665 15.9799C2.754 15.9959 3.109 15.9959 7.915 15.9999C11.59 15.9999 13.102 15.9999 13.191 15.9919C13.6385 15.9653 14.0741 15.8377 14.4652 15.6186C14.8563 15.3995 15.1926 15.0946 15.449 14.7269C15.746 14.3049 15.914 13.8629 15.98 13.3279C15.996 13.2229 15.996 13.0739 15.996 10.5509C15.996 8.42591 15.992 7.87491 15.984 7.83591C15.9514 7.6304 15.8532 7.44097 15.704 7.29591C15.6139 7.20038 15.5045 7.12498 15.3832 7.07465C15.2619 7.02433 15.1313 7.00022 15 7.00391C14.8688 7.00087 14.7385 7.02538 14.6174 7.07584C14.4963 7.12631 14.3872 7.20162 14.297 7.29691C14.1558 7.43465 14.0593 7.61164 14.02 7.80491C14.004 7.85891 14.004 8.00391 14 10.5039C13.996 12.9639 13.996 13.1479 13.98 13.1989C13.9372 13.39 13.8428 13.5658 13.707 13.7069C13.5658 13.8427 13.3901 13.9371 13.199 13.9799C13.149 13.9959 12.836 13.9959 8.035 13.9959C2.383 13.9999 2.855 14.0039 2.691 13.9489C2.53982 13.9 2.40251 13.8156 2.2905 13.7029C2.17849 13.5902 2.09501 13.4524 2.047 13.3009C1.997 13.1409 2 13.5779 2.004 7.96491C2.004 3.16491 2.004 2.85191 2.02 2.80091C2.07 2.59391 2.156 2.42991 2.293 2.29291C2.43 2.15591 2.593 2.06591 2.801 2.01991C2.851 2.00391 2.984 2.00391 4.496 1.99991C6.031 1.99591 6.141 1.99591 6.196 1.97991C6.38891 1.94038 6.56553 1.84389 6.703 1.70291C6.79829 1.61273 6.87359 1.50357 6.92406 1.38248C6.97453 1.26139 6.99904 1.13106 6.996 0.999906C6.99904 0.868753 6.97453 0.738422 6.92406 0.61733C6.87359 0.496239 6.79829 0.38708 6.703 0.296906C6.56526 0.155749 6.38827 0.0592421 6.195 0.0199062C6.141 0.00390625 6.043 0.00390625 4.5 0.00390625H2.824Z" fill="#202020"/>
<path d="M14.05 1.05891C12.6249 1.23233 11.2467 1.67916 9.991 2.37491C8.81 3.03891 7.868 3.88291 7.2 4.88291C6.919 5.30091 6.7 5.71891 6.513 6.19091C6.443 6.36291 6.321 6.72691 6.278 6.88691L6.247 6.99991H5.3C4.686 6.99991 4.331 7.00391 4.288 7.00791C4.1548 7.02395 4.02623 7.06678 3.91 7.13379C3.79378 7.20081 3.69231 7.29064 3.6117 7.39787C3.53108 7.50511 3.47298 7.62755 3.4409 7.75782C3.40882 7.88808 3.40341 8.02349 3.425 8.15591C3.448 8.31191 3.515 8.46891 3.605 8.58591C3.635 8.62891 4.272 9.26991 5.515 10.5119C7.561 12.5549 7.421 12.4219 7.597 12.4999C7.867 12.6169 8.187 12.6099 8.437 12.4839C8.589 12.4059 8.487 12.5079 10.479 10.5159C11.726 9.26991 12.362 8.62891 12.394 8.58591C12.452 8.50791 12.511 8.39091 12.542 8.29591C12.6047 8.08311 12.5966 7.85573 12.519 7.64791C12.4684 7.51091 12.3882 7.38674 12.2842 7.28425C12.1801 7.18176 12.0547 7.10345 11.917 7.05491C11.757 7.00391 11.804 7.00391 11.015 7.00391C10.775 7.00379 10.5349 6.99979 10.295 6.99191C10.295 6.97991 10.397 6.67591 10.445 6.55891C10.7077 5.83941 11.1009 5.1746 11.605 4.59791C11.733 4.45291 11.983 4.20291 12.12 4.08991C12.6428 3.6342 13.2646 3.30654 13.936 3.13291C14.183 3.06591 14.319 3.01191 14.472 2.90991C14.749 2.72691 14.917 2.47991 14.979 2.18691C14.999 2.09691 14.999 1.90191 14.979 1.81291C14.909 1.47291 14.694 1.21491 14.394 1.10491C14.2827 1.07049 14.1664 1.05494 14.05 1.05891Z" fill="#202020"/>
</g>
<defs>
<clipPath id="clip0_2064_45139">
<rect width="16" height="16" fill="white"/>
</clipPath>
</defs>
</svg>
