<svg width="16" height="16" viewBox="0 0 16 16" fill="none" xmlns="http://www.w3.org/2000/svg">
<path d="M7.633 0.00803954C6.56331 0.0542262 5.51389 0.315526 4.54743 0.776333C3.58098 1.23714 2.7173 1.888 2.008 2.69004C0.824026 4.02896 0.122713 5.72591 0.0160005 7.51004C-0.0567429 8.68164 0.128621 9.85493 0.559 10.947C1.1564 12.4549 2.1968 13.7464 3.543 14.651C5.17698 15.7354 7.14979 16.1879 9.093 15.924C10.328 15.7553 11.5064 15.3001 12.534 14.5946C13.5616 13.8891 14.4098 12.953 15.011 11.861C15.6619 10.679 16.0006 9.35045 15.995 8.00104C16.0004 6.41323 15.5309 4.86006 14.647 3.54104C13.7889 2.25966 12.5782 1.25417 11.161 0.64604C10.4206 0.329555 9.63686 0.126279 8.836 0.0430395C8.43612 0.00635433 8.03434 -0.00533506 7.633 0.00803954ZM8.203 3.02004C8.38021 3.05755 8.54395 3.14234 8.67685 3.26542C8.80974 3.3885 8.90682 3.54527 8.95779 3.71909C9.00875 3.8929 9.0117 4.07728 8.96631 4.25263C8.92092 4.42799 8.8289 4.58778 8.7 4.71504C8.56222 4.85171 8.38669 4.944 8.196 4.98004C8.06673 4.9995 7.93527 4.9995 7.806 4.98004C7.61246 4.94089 7.43476 4.84553 7.29513 4.70591C7.15551 4.56628 7.06015 4.38858 7.021 4.19504C7.00154 4.06577 7.00154 3.93431 7.021 3.80504C7.111 3.38704 7.427 3.08204 7.849 3.01204C7.96717 2.99906 8.08654 3.00175 8.204 3.02004H8.203ZM8.203 6.02004C8.40687 6.06203 8.59256 6.16658 8.73417 6.31913C8.87578 6.47168 8.96626 6.66462 8.993 6.87104C8.996 6.91104 9 7.72704 9 9.50404C9 11.719 9 12.086 8.988 12.148C8.96022 12.3296 8.88329 12.5002 8.76555 12.6412C8.6478 12.7822 8.49372 12.8883 8.32 12.948C8.21701 12.9828 8.10867 12.9991 8 12.996C7.84384 13.0013 7.68893 12.9665 7.55 12.895C7.41405 12.8266 7.29558 12.7279 7.2037 12.6066C7.11183 12.4852 7.04899 12.3445 7.02 12.195C7.004 12.133 7.004 12.012 7.004 9.50004C7.004 6.98804 7.004 6.86704 7.02 6.80504C7.11 6.38704 7.426 6.08204 7.848 6.01204C7.96617 5.99906 8.08554 6.00175 8.203 6.02004Z" fill="#202020"/>
</svg>
