<svg width="16" height="16" viewBox="0 0 16 16" fill="none" xmlns="http://www.w3.org/2000/svg">
<path d="M7.645 0.00792429C6.9351 0.0389021 6.23239 0.163307 5.555 0.377924C4.715 0.647924 3.902 1.06592 3.191 1.60192C2.19865 2.34691 1.39384 3.31318 0.840571 4.42388C0.287305 5.53458 0.000853145 6.75906 0.00400112 7.99992C-0.00080554 9.49011 0.412428 10.9518 1.19676 12.2189C1.98108 13.4859 3.10506 14.5077 4.441 15.1679C4.77 15.3279 5.023 15.4379 5.344 15.5509C6.73102 16.0325 8.2228 16.1282 9.66 15.8279C11.3522 15.47 12.8829 14.5736 14.023 13.2729C15.0658 12.0793 15.7306 10.6029 15.933 9.03092C15.98 8.65592 15.996 8.41092 15.996 7.99992C15.996 7.58992 15.98 7.34392 15.934 6.96892C15.6729 4.94735 14.65 3.1017 13.074 1.80892C11.7905 0.754164 10.2087 0.128164 8.551 0.0189243C8.348 0.00492429 7.832 -0.00107571 7.645 0.00792429ZM8.496 2.01992C9.38247 2.09108 10.2419 2.35906 11.0117 2.80434C11.7815 3.24961 12.4423 3.86099 12.946 4.59392C13.8303 5.88198 14.1788 7.46348 13.918 9.00392C13.7395 10.0694 13.2759 11.0666 12.5764 11.8899C11.877 12.7132 10.9676 13.3317 9.945 13.6799C9.012 13.9999 7.985 14.0819 6.996 13.9179C5.7673 13.7127 4.63364 13.128 3.754 12.2459C3.14447 11.6396 2.67395 10.908 2.375 10.1019C2.1762 9.5659 2.05498 9.00423 2.015 8.43392C1.99935 8.1448 1.99935 7.85505 2.015 7.56592C2.07549 6.70719 2.32027 5.87156 2.7327 5.11592C3.14512 4.36027 3.71549 3.70235 4.405 3.18692C5.31248 2.51122 6.39291 2.10658 7.521 2.01992C7.743 2.00392 7.755 1.99992 8.067 2.00392C8.243 2.00792 8.41 2.01192 8.496 2.01992Z" fill="#202020"/>
<path d="M5.84 4.26992C5.74472 4.2862 5.65238 4.31653 5.566 4.35992C5.42546 4.42577 5.30262 4.52416 5.20767 4.64693C5.11272 4.76971 5.04839 4.91334 5.02 5.06592C5.004 5.12492 5.004 5.28892 5.004 7.99992C5.004 10.7699 5.004 10.8749 5.02 10.9379C5.04963 11.088 5.11336 11.2292 5.20626 11.3508C5.29917 11.4723 5.41876 11.5708 5.55581 11.6388C5.69286 11.7067 5.84369 11.7422 5.99665 11.7426C6.14962 11.743 6.30062 11.7082 6.438 11.6409C6.531 11.5939 11.141 8.85493 11.215 8.80492C11.297 8.74592 11.415 8.62092 11.469 8.53492C11.568 8.37403 11.6204 8.18883 11.6204 7.99992C11.6204 7.81102 11.568 7.62582 11.469 7.46492C11.399 7.36221 11.3133 7.2711 11.215 7.19492C11.141 7.14492 6.527 4.40192 6.438 4.35892C6.2532 4.26644 6.04384 4.23593 5.84 4.26992Z" fill="#202020"/>
</svg>
