<svg width="16" height="16" viewBox="0 0 16 16" fill="none" xmlns="http://www.w3.org/2000/svg">
<g clip-path="url(#clip0_2064_46274)">
<path d="M10.203 0.00796684C9.12387 0.0651273 8.08552 0.439092 7.21775 1.08312C6.34998 1.72714 5.69129 2.61265 5.324 3.62897C4.86878 4.90795 4.89509 6.30897 5.398 7.56997L5.41 7.59397L2.809 10.199C0.473002 12.531 0.203002 12.81 0.164002 12.867C0.0897779 12.9836 0.0394699 13.1138 0.0160016 13.25C1.61678e-06 13.324 1.61678e-06 15.09 0.0160016 15.164C0.0550016 15.383 0.145002 15.551 0.296002 15.704C0.434148 15.8449 0.611494 15.9411 0.805002 15.98C0.859002 15.992 0.934002 15.996 1.742 16C2.348 16 2.645 16 2.695 15.992C2.85136 15.9757 3.00154 15.9222 3.133 15.836C3.195 15.796 3.246 15.75 3.426 15.566C3.574 15.418 3.656 15.328 3.684 15.293C3.76102 15.1744 3.81403 15.0419 3.84 14.903C3.855 14.813 3.855 14.648 3.84 14.559C3.80446 14.4246 3.7641 14.2915 3.719 14.16C3.67472 14.0285 3.63437 13.8958 3.598 13.762C3.57847 13.6391 3.57847 13.5139 3.598 13.391C3.63825 13.1958 3.73481 13.0166 3.87574 12.8757C4.01667 12.7348 4.1958 12.6382 4.391 12.598C4.481 12.578 4.664 12.578 4.761 12.598C4.801 12.605 4.981 12.66 5.161 12.718C5.348 12.781 5.52 12.832 5.559 12.84C5.649 12.855 5.812 12.855 5.902 12.84C5.984 12.824 6.086 12.793 6.164 12.754C6.309 12.688 6.281 12.714 7.375 11.617L8.406 10.59L8.441 10.605C8.601 10.665 8.75 10.719 8.871 10.754C10.1144 11.1367 11.4527 11.0702 12.652 10.566C13.4326 10.2342 14.1259 9.72623 14.6776 9.08191C15.2292 8.4376 15.6244 7.67438 15.832 6.85197C16.0488 5.99554 16.0565 5.09957 15.8547 4.23951C15.6528 3.37946 15.2472 2.58051 14.672 1.90997C14.099 1.24392 13.3743 0.72536 12.559 0.397967C11.8111 0.099319 11.0073 -0.0337331 10.203 0.00796684ZM10.707 3.00797C11.039 3.03497 11.312 3.11297 11.613 3.26197C12.0305 3.46746 12.3816 3.78637 12.6262 4.18218C12.8708 4.57799 12.9989 5.03469 12.996 5.49997C12.996 5.70697 12.988 5.78997 12.957 5.96497C12.8863 6.33156 12.7357 6.67809 12.516 6.97997C12.3932 7.14327 12.253 7.29281 12.098 7.42597C11.6909 7.76171 11.1884 7.96082 10.6618 7.9951C10.1352 8.02939 9.61122 7.89709 9.164 7.61697C8.94343 7.47281 8.74473 7.29768 8.574 7.09697C8.26542 6.72103 8.07169 6.26414 8.016 5.78097C8.0004 5.59396 8.0004 5.40597 8.016 5.21897C8.059 4.85197 8.172 4.52297 8.352 4.21897C8.55543 3.87923 8.83632 3.59242 9.17174 3.38196C9.50716 3.17149 9.8876 3.04334 10.282 3.00797C10.391 2.99997 10.602 2.99997 10.707 3.00797Z" fill="#202020"/>
</g>
<defs>
<clipPath id="clip0_2064_46274">
<rect width="16" height="16" fill="white"/>
</clipPath>
</defs>
</svg>
