<svg width="16" height="16" viewBox="0 0 16 16" fill="none" xmlns="http://www.w3.org/2000/svg">
<path d="M9.563 1.01205C9.38927 1.0345 9.22195 1.0922 9.07131 1.18161C8.92068 1.27103 8.7899 1.39028 8.687 1.53205C8.625 1.62205 6.257 5.57005 6.211 5.66405C6.09597 5.89308 6.027 6.14246 6.008 6.39805C6 6.47305 6 7.40205 6.004 9.48005V12.4571L6.02 12.5551C6.059 12.7771 6.113 12.9451 6.21 13.1451C6.34461 13.4196 6.54081 13.6594 6.7833 13.8457C7.02579 14.032 7.30802 14.1597 7.608 14.2191C7.762 14.2501 10.43 14.6251 10.547 14.6331C10.8524 14.6525 11.1588 14.6194 11.453 14.5351C11.738 14.4531 12.047 14.3011 12.305 14.1171C12.835 13.7381 13.313 13.1331 13.621 12.4491C13.641 12.4061 13.93 11.5351 14.273 10.5041C14.613 9.47705 14.933 8.50805 14.988 8.34805C15.098 8.02005 15.109 7.96805 15.109 7.80105C15.109 7.52005 15.019 7.21905 14.848 6.91805C14.7569 6.75352 14.6439 6.60213 14.512 6.46805C14.282 6.23005 14.051 6.09005 13.782 6.02005C13.715 6.00405 13.711 6.00405 12.168 6.00005C10.465 5.99605 10.598 6.00005 10.445 5.95005C10.2413 5.8791 10.0658 5.7446 9.94423 5.56637C9.82271 5.38814 9.76164 5.1756 9.77 4.96005C9.7712 4.82296 9.80442 4.68804 9.867 4.56605C9.879 4.53605 10.109 4.14805 10.375 3.70305C10.645 3.26205 10.875 2.86305 10.895 2.82405C10.938 2.73005 10.973 2.62905 10.992 2.52405C11.0291 2.32457 11.0186 2.11912 10.9612 1.92449C10.9038 1.72986 10.8012 1.55155 10.6618 1.40413C10.5224 1.2567 10.3501 1.14433 10.1589 1.0762C9.96778 1.00806 9.76425 0.986078 9.563 1.01205ZM1.871 6.00805C1.7374 6.02806 1.60881 6.07319 1.492 6.14105C1.36656 6.21503 1.25885 6.31559 1.17644 6.43566C1.09403 6.55573 1.03892 6.6924 1.015 6.83605C1 6.91005 1 13.0901 1.016 13.1641C1.056 13.3831 1.146 13.5511 1.298 13.7041C1.45 13.8551 1.618 13.9451 1.837 13.9841C2.61292 13.9997 3.38908 13.9997 4.165 13.9841C4.3705 13.9514 4.55993 13.8532 4.705 13.7041C4.85416 13.559 4.95239 13.3696 4.985 13.1641C5 13.0901 5 6.91005 4.984 6.83605C4.95139 6.63055 4.85316 6.44112 4.704 6.29605C4.56924 6.15697 4.3963 6.06093 4.207 6.02005C4.137 6.00405 4.129 6.00405 3.031 6.00405C2.406 6.00405 1.902 6.00405 1.871 6.00805Z" fill="#202020"/>
</svg>
