<svg width="16" height="16" viewBox="0 0 16 16" fill="none" xmlns="http://www.w3.org/2000/svg">
<path d="M0.871 0.00793837C0.653081 0.0384932 0.451325 0.140074 0.297 0.296938C0.155842 0.434685 0.0593359 0.611671 0.02 0.804938C0.004 0.858938 0.004 1.10194 0 6.46494C0 10.4959 0 12.1089 0.008 12.2189C0.0595369 13.2029 0.473592 14.1329 1.17031 14.8296C1.86702 15.5263 2.79704 15.9404 3.781 15.9919C3.891 15.9999 5.531 15.9999 9.535 15.9999C14.898 15.9959 15.141 15.9959 15.195 15.9799C15.3883 15.9406 15.5653 15.8441 15.703 15.7029C15.7983 15.6128 15.8736 15.5036 15.9241 15.3825C15.9745 15.2614 15.999 15.1311 15.996 14.9999C15.999 14.8688 15.9745 14.7385 15.9241 14.6174C15.8736 14.4963 15.7983 14.3871 15.703 14.2969C15.5653 14.1558 15.3883 14.0593 15.195 14.0199C15.141 14.0039 14.887 14.0039 9.469 13.9999C4.172 13.9959 3.797 13.9959 3.719 13.9799C3.29004 13.9186 2.89252 13.7199 2.58603 13.4136C2.27954 13.1073 2.08059 12.7099 2.019 12.2809C2.004 12.2029 2.004 11.8279 2 6.53094C1.996 1.11294 1.996 0.859938 1.98 0.804938C1.94066 0.611671 1.84416 0.434685 1.703 0.296938C1.56516 0.153785 1.38625 0.0569915 1.191 0.0199384C1.08509 0.00427358 0.977785 0.000249613 0.871 0.00793837Z" fill="#202020"/>
<path d="M6.871 5.00794C6.727 5.02794 6.574 5.08594 6.453 5.16394C6.387 5.20694 6.234 5.35894 4.797 6.79694C3.402 8.18694 3.207 8.38694 3.168 8.44494C3.05694 8.60838 2.99962 8.80238 3.004 8.99994C3.004 9.27694 3.098 9.50794 3.297 9.70294C3.45617 9.86673 3.66783 9.96937 3.895 9.99294C4.07 10.0119 4.281 9.97694 4.437 9.89794C4.586 9.82394 4.535 9.87094 5.809 8.60194L7 7.40994L8.191 8.59794C9.261 9.66794 9.387 9.79294 9.453 9.83594C9.813 10.0659 10.277 10.0509 10.613 9.78894C10.633 9.77294 11.359 9.05094 12.223 8.18794C13.59 6.81594 13.8 6.60394 13.832 6.54994C13.9427 6.38821 14.0001 6.19589 13.996 5.99994C13.999 5.86879 13.9745 5.73845 13.9241 5.61736C13.8736 5.49627 13.7983 5.38711 13.703 5.29694C13.5977 5.18534 13.466 5.10211 13.32 5.05494C13.1766 5.00638 13.024 4.99104 12.8738 5.0101C12.7236 5.02916 12.5797 5.0821 12.453 5.16494C12.387 5.20694 12.262 5.33194 11.191 6.40194L10 7.58994L8.809 6.39794C7.535 5.12794 7.586 5.17594 7.438 5.10194C7.35955 5.06407 7.27653 5.03651 7.191 5.01994C7.08509 5.00427 6.97778 5.00025 6.871 5.00794Z" fill="#202020"/>
</svg>
