<svg width="16" height="16" viewBox="0 0 16 16" fill="none" xmlns="http://www.w3.org/2000/svg">
<path d="M0.871 0.00818251C0.653081 0.0387374 0.451325 0.140318 0.297 0.297183C0.155842 0.434929 0.0593359 0.611915 0.02 0.805183C0.004 0.859183 0.004 1.10218 0 6.46518C0 10.4962 0 12.1092 0.008 12.2192C0.0595369 13.2031 0.473592 14.1332 1.17031 14.8299C1.86702 15.5266 2.79704 15.9406 3.781 15.9922C3.891 16.0002 5.531 16.0002 9.535 16.0002C14.898 15.9962 15.141 15.9962 15.195 15.9802C15.3883 15.9408 15.5653 15.8443 15.703 15.7032C15.7983 15.613 15.8736 15.5038 15.9241 15.3828C15.9745 15.2617 15.999 15.1313 15.996 15.0002C15.999 14.869 15.9745 14.7387 15.9241 14.6176C15.8736 14.4965 15.7983 14.3874 15.703 14.2972C15.5653 14.156 15.3883 14.0595 15.195 14.0202C15.141 14.0042 14.887 14.0042 9.469 14.0002C4.172 13.9962 3.797 13.9962 3.719 13.9802C3.29004 13.9188 2.89252 13.7201 2.58603 13.4138C2.27954 13.1075 2.08059 12.7101 2.019 12.2812C2.004 12.2032 2.004 11.8282 2 6.53118C1.996 1.11318 1.996 0.860183 1.98 0.805183C1.94066 0.611915 1.84416 0.434929 1.703 0.297183C1.56516 0.15403 1.38625 0.0572356 1.191 0.0201825C1.08509 0.00451772 0.977785 0.000493754 0.871 0.00818251Z" fill="currentColor"/>
<path d="M6.871 5.00818C6.727 5.02818 6.574 5.08618 6.453 5.16418C6.387 5.20718 6.234 5.35918 4.797 6.79718C3.402 8.18718 3.207 8.38718 3.168 8.44518C3.05694 8.60862 2.99962 8.80263 3.004 9.00018C3.004 9.27718 3.098 9.50818 3.297 9.70318C3.45617 9.86697 3.66783 9.96962 3.895 9.99318C4.07 10.0122 4.281 9.97718 4.437 9.89818C4.586 9.82418 4.535 9.87118 5.809 8.60218L7 7.41018L8.191 8.59818C9.261 9.66818 9.387 9.79318 9.453 9.83618C9.813 10.0662 10.277 10.0512 10.613 9.78918C10.633 9.77318 11.359 9.05118 12.223 8.18818C13.59 6.81618 13.8 6.60418 13.832 6.55018C13.9427 6.38846 14.0001 6.19614 13.996 6.00018C13.999 5.86903 13.9745 5.7387 13.9241 5.61761C13.8736 5.49652 13.7983 5.38736 13.703 5.29718C13.5977 5.18559 13.466 5.10235 13.32 5.05518C13.1766 5.00662 13.024 4.99129 12.8738 5.01034C12.7236 5.0294 12.5797 5.08235 12.453 5.16518C12.387 5.20718 12.262 5.33218 11.191 6.40218L10 7.59018L8.809 6.39818C7.535 5.12818 7.586 5.17618 7.438 5.10218C7.35955 5.06431 7.27653 5.03675 7.191 5.02018C7.08509 5.00452 6.97778 5.00049 6.871 5.00818Z" fill="currentColor"/>
</svg>
