<svg width="16" height="16" viewBox="0 0 16 16" fill="none" xmlns="http://www.w3.org/2000/svg">
<path d="M6.668 0.00797799C5.51094 0.0622266 4.38522 0.401624 3.391 0.995978C1.9493 1.86364 0.867798 3.22093 0.343998 4.81998C0.0586394 5.70555 -0.0500833 6.63852 0.0239983 7.56598C0.162824 9.35416 0.9868 11.0197 2.324 12.215C3.25017 13.046 4.38208 13.6137 5.602 13.859C6.55129 14.0512 7.53003 14.0453 8.47695 13.8417C9.42387 13.6382 10.3186 13.2413 11.105 12.676L11.199 12.609L12.789 14.199C14.23 15.641 14.387 15.793 14.453 15.836C14.5798 15.9187 14.7237 15.9717 14.8738 15.9907C15.024 16.0098 15.1766 15.9945 15.32 15.946C15.4661 15.8985 15.5978 15.8149 15.703 15.703C15.7983 15.6128 15.8736 15.5036 15.9241 15.3826C15.9745 15.2615 15.999 15.1311 15.996 15C16.0001 14.804 15.9427 14.6117 15.832 14.45C15.801 14.395 15.586 14.18 14.203 12.793L12.609 11.199L12.691 11.082C13.4353 10.0388 13.8805 8.81205 13.9783 7.53428C14.0761 6.25651 13.8229 4.9763 13.246 3.83198C12.8306 3.01201 12.2577 2.28192 11.56 1.68344C10.8624 1.08496 10.0536 0.629799 9.18 0.343978C8.36915 0.0841857 7.51862 -0.0295798 6.668 0.00797799ZM7.285 2.00798C7.97041 2.04462 8.64081 2.22274 9.25401 2.53115C9.86721 2.83956 10.4099 3.27156 10.848 3.79998C11.6192 4.72537 12.0272 5.89978 11.996 7.10398C11.9846 7.76082 11.8433 8.40892 11.5802 9.01089C11.3172 9.61287 10.9375 10.1568 10.4633 10.6114C9.98899 11.066 9.42942 11.4222 8.81683 11.6595C8.20424 11.8967 7.55074 12.0104 6.894 11.994C6.15165 11.984 5.42126 11.8055 4.758 11.472C3.9581 11.0712 3.2803 10.4633 2.79522 9.71152C2.31013 8.95976 2.03552 8.09167 1.99998 7.1977C1.96444 6.30373 2.16928 5.41658 2.59316 4.62868C3.01703 3.84079 3.64443 3.18097 4.41 2.71798C5.27442 2.19579 6.27682 1.94889 7.285 2.00798Z" fill="currentColor"/>
</svg>
