<svg width="16" height="16" viewBox="0 0 16 16" fill="none" xmlns="http://www.w3.org/2000/svg">
<path d="M7.871 0.00809951C7.66578 0.0359169 7.47408 0.126146 7.32186 0.266561C7.16964 0.406976 7.06426 0.590791 7.02 0.793099L7.004 0.863099V3.2271L7 5.5901L5.332 3.9261C3.887 2.4761 3.66 2.2541 3.602 2.2151C3.43969 2.10797 3.24948 2.05086 3.055 2.05086C2.86052 2.05086 2.67032 2.10797 2.508 2.2151C2.39533 2.28785 2.29847 2.38254 2.22318 2.49353C2.14789 2.60451 2.09572 2.72952 2.06978 2.8611C2.04383 2.99268 2.04465 3.12814 2.07218 3.2594C2.0997 3.39066 2.15338 3.51503 2.23 3.6251C2.254 3.6561 2.852 4.2621 3.93 5.3351L5.59 7.0001L3.227 7.0041C0.984001 7.0041 0.859001 7.0041 0.805001 7.0201C0.610846 7.05972 0.432738 7.15586 0.293066 7.29642C0.153393 7.43698 0.0583908 7.6157 0.0200011 7.8101C1.06823e-06 7.9001 1.06823e-06 8.0971 0.0200011 8.1901C0.0583908 8.3845 0.153393 8.56322 0.293066 8.70378C0.432738 8.84434 0.610846 8.94048 0.805001 8.9801C0.859001 8.9951 0.985001 8.9951 3.227 8.9951L5.59 9.0001L3.93 10.6641C3.35732 11.2284 2.79062 11.7988 2.23 12.3751C2.066 12.6131 2.012 12.9151 2.082 13.1951C2.156 13.4921 2.375 13.7461 2.652 13.8671C2.972 14.0041 3.336 13.9691 3.625 13.7661C3.656 13.7461 4.262 13.1451 5.335 12.0701L7 10.4101L7.004 12.7731V15.1371L7.02 15.2071C7.05018 15.3457 7.10931 15.4763 7.19351 15.5904C7.27772 15.7045 7.38511 15.7995 7.50862 15.8692C7.63213 15.9389 7.76898 15.9817 7.9102 15.9948C8.05141 16.0078 8.19379 15.9909 8.328 15.9451C8.668 15.8251 8.895 15.5661 8.98 15.1951C8.996 15.1411 8.996 15.0151 8.996 12.7731L9 10.4101L10.664 12.0701C11.578 12.9841 12.344 13.7461 12.364 13.7581C12.5272 13.8763 12.7224 13.9421 12.9238 13.9469C13.1252 13.9518 13.3234 13.8953 13.492 13.7851C13.6048 13.7124 13.7017 13.6177 13.7769 13.5065C13.8522 13.3954 13.9041 13.2703 13.9297 13.1385C13.9553 13.0068 13.954 12.8713 13.9259 12.7401C13.8977 12.6089 13.8434 12.4847 13.766 12.3751C13.746 12.3401 13.16 11.7541 12.07 10.6651L10.41 9.0001L12.773 8.9961H15.137L15.207 8.9801C15.4307 8.93136 15.6309 8.80758 15.7745 8.62931C15.9181 8.45104 15.9964 8.22901 15.9964 8.0001C15.9964 7.77119 15.9181 7.54916 15.7745 7.37089C15.6309 7.19262 15.4307 7.06884 15.207 7.0201L15.137 7.0041H12.773L10.41 7.0001L12.07 5.3361C13.16 4.2461 13.746 3.6601 13.766 3.6251C13.996 3.2891 14.008 2.8591 13.796 2.5201C13.7238 2.40534 13.629 2.30646 13.5174 2.22947C13.4059 2.15248 13.2798 2.09898 13.1469 2.07223C13.014 2.04548 12.877 2.04603 12.7443 2.07386C12.6116 2.10169 12.486 2.1562 12.375 2.2341C12.34 2.2541 11.754 2.8401 10.665 3.9301L9 5.5901L8.996 3.2271C8.996 0.984099 8.996 0.8591 8.98 0.805099C8.93979 0.611856 8.84505 0.434179 8.707 0.2931C8.56671 0.15398 8.3887 0.0590623 8.195 0.0200995C8.08774 0.00455958 7.97912 0.000536706 7.871 0.00809951Z" fill="#202020"/>
</svg>
