<svg width="16" height="16" viewBox="0 0 16 16" fill="none" xmlns="http://www.w3.org/2000/svg">
<g clip-path="url(#clip0_2064_47784)">
<path d="M2.82 0.00390625C2.20124 0.0442279 1.60969 0.27317 1.125 0.659906C1 0.757906 0.758002 0.999906 0.660002 1.12491C0.297002 1.58191 0.0900016 2.08191 0.0200016 2.67191C0.00400162 2.78191 0.00400162 3.04291 0.00400162 7.99591C0.00400162 12.9919 0.00400162 13.2109 0.0200016 13.3279C0.0590016 13.6839 0.152002 14.0079 0.305002 14.3159C0.52655 14.7695 0.858998 15.1598 1.27154 15.4507C1.68409 15.7415 2.16338 15.9236 2.665 15.9799C2.754 15.9959 3.109 15.9959 7.915 15.9999C11.59 15.9999 13.102 15.9999 13.191 15.9919C13.6385 15.9653 14.0741 15.8377 14.4652 15.6186C14.8563 15.3995 15.1926 15.0946 15.449 14.7269C15.746 14.3049 15.914 13.8629 15.98 13.3279C15.996 13.2179 15.996 12.9879 15.996 7.99991C15.996 3.01191 15.996 2.78091 15.98 2.67191C15.9186 2.10575 15.6965 1.56897 15.34 1.12491C15.1977 0.955185 15.0407 0.798252 14.871 0.655906C14.4298 0.303047 13.8975 0.08252 13.336 0.0199062C13.234 0.00390625 12.946 0.00390625 8.046 0.00390625H2.82ZM5.203 2.01991C5.40687 2.06189 5.59256 2.16645 5.73417 2.319C5.87578 2.47155 5.96627 2.66448 5.993 2.87091C5.996 2.90591 6 3.12891 6 3.46491V3.99991L6.574 4.00391C7.195 4.00391 7.176 4.00391 7.32 4.05091C7.46951 4.1018 7.6049 4.18725 7.71517 4.3003C7.82545 4.41336 7.9075 4.55083 7.95465 4.70156C8.00181 4.85229 8.01274 5.01201 7.98657 5.16776C7.96039 5.3235 7.89784 5.47088 7.804 5.59791C7.684 5.75791 7.504 5.88691 7.32 5.94891C7.176 5.99591 7.195 5.99591 6.574 5.99591L6 5.99991V6.53991C6 6.96891 5.996 7.08991 5.988 7.14791C5.96022 7.3295 5.88329 7.50003 5.76555 7.64105C5.6478 7.78206 5.49373 7.88818 5.32 7.94791C5.21701 7.98269 5.10867 7.99894 5 7.99591C4.84384 8.00117 4.68893 7.9664 4.55 7.89491C4.41577 7.82622 4.29854 7.72847 4.20685 7.60876C4.11517 7.48905 4.05133 7.3504 4.02 7.20291C4.008 7.15291 4.004 7.08591 4.004 6.57391L4 5.99991L3.426 5.99591C2.914 5.99591 2.848 5.99191 2.796 5.97991C2.64866 5.94884 2.51016 5.88509 2.39074 5.79336C2.27132 5.70163 2.17401 5.58426 2.106 5.44991C2.03416 5.31107 1.99905 5.15615 2.004 4.99991C2.00065 4.8913 2.01656 4.78296 2.051 4.67991C2.11073 4.50618 2.21685 4.3521 2.35786 4.23436C2.49887 4.11661 2.66941 4.03969 2.851 4.01191C2.911 4.00391 3.031 3.99991 3.461 3.99991H4L4.004 3.42591C4.004 2.80491 4.004 2.82391 4.051 2.67991C4.168 2.32791 4.473 2.07391 4.848 2.01191C4.96617 1.99893 5.08554 2.00162 5.203 2.01991ZM13.195 2.01991C13.598 2.10491 13.895 2.40191 13.98 2.80491C13.992 2.85491 13.996 2.90591 13.996 2.99991C13.9984 3.06531 13.993 3.13077 13.98 3.19491C13.9486 3.34028 13.8873 3.47753 13.8 3.59791C13.738 3.68791 3.687 13.7379 3.598 13.8009C3.47762 13.8882 3.34038 13.9495 3.195 13.9809C3.06573 14.0004 2.93427 14.0004 2.805 13.9809C2.61122 13.9419 2.43329 13.8465 2.29361 13.7066C2.15393 13.5668 2.05873 13.3887 2.02 13.1949C2.00054 13.0656 2.00054 12.9342 2.02 12.8049C2.05 12.6599 2.113 12.5199 2.2 12.4019C2.262 12.3119 12.313 2.26191 12.402 2.19891C12.523 2.10891 12.692 2.03891 12.828 2.01591C12.859 2.01191 12.891 2.00391 12.898 2.00391C12.9973 2.00006 13.0967 2.00542 13.195 2.01991ZM13.203 10.0199C13.5 10.0899 13.727 10.2579 13.871 10.5079C14.066 10.8479 14.039 11.2809 13.805 11.5979C13.6547 11.7949 13.4379 11.9307 13.195 11.9799C13.133 11.9959 13.047 11.9959 11.5 11.9959C9.953 11.9959 9.867 11.9959 9.805 11.9799C9.6558 11.9504 9.51526 11.8873 9.394 11.7955C9.27273 11.7037 9.17391 11.5855 9.105 11.4499C9.03351 11.311 8.99874 11.1561 9.004 10.9999C9.00065 10.8913 9.01656 10.783 9.051 10.6799C9.168 10.3279 9.477 10.0699 9.848 10.0119C9.898 10.0039 10.254 9.99991 11.528 10.0039C13.051 10.0039 13.148 10.0039 13.203 10.0199Z" fill="#202020"/>
</g>
<defs>
<clipPath id="clip0_2064_47784">
<rect width="16" height="16" fill="white"/>
</clipPath>
</defs>
</svg>
