<svg width="16" height="16" viewBox="0 0 16 16" fill="none" xmlns="http://www.w3.org/2000/svg">
<path d="M7.633 0.00803954C6.56331 0.0542262 5.51389 0.315526 4.54743 0.776333C3.58098 1.23714 2.7173 1.888 2.008 2.69004C0.824026 4.02896 0.122713 5.72591 0.0160005 7.51004C-0.0567429 8.68164 0.128621 9.85493 0.559 10.947C1.1564 12.4549 2.1968 13.7464 3.543 14.651C5.17698 15.7354 7.14979 16.1879 9.093 15.924C10.328 15.7553 11.5064 15.3001 12.534 14.5946C13.5616 13.8891 14.4098 12.953 15.011 11.861C15.6619 10.679 16.0006 9.35045 15.995 8.00104C16.0004 6.41323 15.5309 4.86006 14.647 3.54104C13.7889 2.25966 12.5782 1.25417 11.161 0.64604C10.4206 0.329555 9.63686 0.126279 8.836 0.0430395C8.43612 0.00635433 8.03434 -0.00533506 7.633 0.00803954ZM11.203 7.02004C11.5 7.09004 11.727 7.25804 11.871 7.50804C12.066 7.84804 12.039 8.28104 11.805 8.59804C11.6547 8.79506 11.4379 8.9308 11.195 8.98004C11.133 8.99604 10.996 8.99604 8 8.99604C5.004 8.99604 4.867 8.99604 4.805 8.98004C4.61146 8.94089 4.43376 8.84553 4.29413 8.70591C4.15451 8.56628 4.05915 8.38858 4.02 8.19504C4.00054 8.06577 4.00054 7.93431 4.02 7.80504C4.11 7.38704 4.43 7.07804 4.848 7.01204C4.898 7.00404 5.551 7.00004 8.028 7.00404C11 7.00404 11.148 7.00404 11.203 7.02004Z" fill="#202020"/>
</svg>
