<svg width="16" height="16" viewBox="0 0 16 16" fill="none" xmlns="http://www.w3.org/2000/svg">
<path d="M0.870999 1.00791C0.737402 1.02792 0.608804 1.07305 0.491999 1.14091C0.366557 1.21488 0.258844 1.31544 0.176435 1.43552C0.0940266 1.55559 0.0389228 1.69225 0.0149988 1.83591C-0.000625404 3.27853 -0.000625404 4.72128 0.0149988 6.16391C0.0549988 6.38291 0.144999 6.55091 0.296999 6.70391C0.448999 6.85491 0.616999 6.94491 0.835999 6.98391C1.61192 6.99953 2.38808 6.99953 3.164 6.98391C3.3695 6.9513 3.55893 6.85307 3.704 6.70391C3.85316 6.55884 3.95139 6.36941 3.984 6.16391C4 6.08991 4 1.90991 3.984 1.83591C3.95139 1.63041 3.85316 1.44097 3.704 1.29591C3.56924 1.15682 3.3963 1.06078 3.207 1.01991C3.137 1.00391 3.129 1.00391 2.031 1.00391C1.406 1.00391 0.901999 1.00391 0.870999 1.00791ZM12.871 1.00791C12.7374 1.02792 12.6088 1.07305 12.492 1.14091C12.3666 1.21488 12.2588 1.31544 12.1764 1.43552C12.094 1.55559 12.0389 1.69225 12.015 1.83591C11.9994 2.61183 11.9994 3.38798 12.015 4.16391C12.055 4.38291 12.145 4.55091 12.297 4.70391C12.449 4.85491 12.617 4.94491 12.836 4.98391C13.6119 4.99953 14.3881 4.99953 15.164 4.98391C15.3695 4.9513 15.5589 4.85307 15.704 4.70391C15.8532 4.55884 15.9514 4.36941 15.984 4.16391C15.9996 3.38798 15.9996 2.61183 15.984 1.83591C15.9514 1.63041 15.8532 1.44097 15.704 1.29591C15.5692 1.15682 15.3963 1.06078 15.207 1.01991C15.137 1.00391 15.129 1.00391 14.031 1.00391C13.406 1.00391 12.902 1.00391 12.871 1.00791ZM7.371 5.00791C7.15308 5.03846 6.95132 5.14004 6.797 5.29691C6.70171 5.38708 6.62641 5.49624 6.57594 5.61733C6.52547 5.73842 6.50096 5.86875 6.504 5.99991C6.504 6.20991 6.551 6.37091 6.668 6.55491C6.707 6.61291 6.812 6.71891 7.402 7.30891L8.09 7.99991L7.402 8.68791C6.812 9.28091 6.707 9.38691 6.668 9.44491C6.55694 9.60835 6.49961 9.80235 6.504 9.99991C6.504 10.2149 6.551 10.3709 6.668 10.5549C6.727 10.6449 6.859 10.7729 6.953 10.8319C7.12669 10.9466 7.33189 11.0041 7.53989 10.9964C7.74789 10.9887 7.94828 10.9161 8.113 10.7889C8.133 10.7729 8.633 10.2769 9.223 9.68791C10.148 8.76191 10.301 8.60491 10.332 8.55091C10.4429 8.3889 10.5003 8.1962 10.496 7.99991C10.5004 7.80235 10.4431 7.60835 10.332 7.44491C10.293 7.38691 10.148 7.24191 9.203 6.29691C8.051 5.13991 8.086 5.17591 7.938 5.10191C7.85955 5.06404 7.77652 5.03647 7.691 5.01991C7.58509 5.00424 7.47778 5.00022 7.371 5.00791ZM12.871 6.00791C12.7374 6.02792 12.6088 6.07305 12.492 6.14091C12.3666 6.21488 12.2588 6.31544 12.1764 6.43552C12.094 6.55559 12.0389 6.69225 12.015 6.83591C11.9994 7.61183 11.9994 8.38798 12.015 9.16391C12.055 9.38291 12.145 9.55091 12.297 9.70391C12.449 9.85491 12.617 9.94491 12.836 9.98391C13.6119 9.99953 14.3881 9.99953 15.164 9.98391C15.3695 9.9513 15.5589 9.85307 15.704 9.70391C15.8532 9.55884 15.9514 9.36941 15.984 9.16391C15.9996 8.38798 15.9996 7.61183 15.984 6.83591C15.9514 6.6304 15.8532 6.44097 15.704 6.29591C15.5692 6.15682 15.3963 6.06078 15.207 6.01991C15.137 6.00391 15.129 6.00391 14.031 6.00391C13.406 6.00391 12.902 6.00391 12.871 6.00791ZM0.870999 9.00791C0.737402 9.02792 0.608804 9.07305 0.491999 9.14091C0.366557 9.21488 0.258844 9.31544 0.176435 9.43552C0.0940266 9.55559 0.0389228 9.69226 0.0149988 9.83591C-0.000625404 11.2785 -0.000625404 12.7213 0.0149988 14.1639C0.0549988 14.3829 0.144999 14.5509 0.296999 14.7039C0.448999 14.8549 0.616999 14.9449 0.835999 14.9839C1.61192 14.9995 2.38808 14.9995 3.164 14.9839C3.3695 14.9513 3.55893 14.8531 3.704 14.7039C3.85316 14.5588 3.95139 14.3694 3.984 14.1639C4 14.0899 4 9.90991 3.984 9.83591C3.95139 9.63041 3.85316 9.44097 3.704 9.29591C3.56924 9.15682 3.3963 9.06078 3.207 9.01991C3.137 9.00391 3.129 9.00391 2.031 9.00391C1.406 9.00391 0.901999 9.00391 0.870999 9.00791ZM12.871 11.0079C12.7374 11.0279 12.6088 11.073 12.492 11.1409C12.3666 11.2149 12.2588 11.3154 12.1764 11.4355C12.094 11.5556 12.0389 11.6923 12.015 11.8359C11.9994 12.6118 11.9994 13.388 12.015 14.1639C12.055 14.3829 12.145 14.5509 12.297 14.7039C12.449 14.8549 12.617 14.9449 12.836 14.9839C13.6119 14.9995 14.3881 14.9995 15.164 14.9839C15.3695 14.9513 15.5589 14.8531 15.704 14.7039C15.8532 14.5588 15.9514 14.3694 15.984 14.1639C15.9996 13.388 15.9996 12.6118 15.984 11.8359C15.9514 11.6304 15.8532 11.441 15.704 11.2959C15.5692 11.1568 15.3963 11.0608 15.207 11.0199C15.137 11.0039 15.129 11.0039 14.031 11.0039C13.406 11.0039 12.902 11.0039 12.871 11.0079Z" fill="#202020"/>
</svg>
