<svg width="16" height="16" viewBox="0 0 16 16" fill="none" xmlns="http://www.w3.org/2000/svg">
<path d="M9.629 0.253871C9.46493 0.28547 9.31126 0.35728 9.18176 0.462868C9.05226 0.568455 8.95098 0.70452 8.887 0.858871C8.867 0.909871 8.039 3.97287 8.039 3.99587C8.039 3.99987 6.426 3.99987 4.453 4.00387C1.031 4.00387 0.858999 4.00387 0.804999 4.01987C0.610844 4.05949 0.432736 4.15563 0.293063 4.29619C0.153391 4.43675 0.0583885 4.61547 0.0199988 4.80987C-1.22748e-06 4.89987 -1.22748e-06 5.09687 0.0199988 5.18987C0.0583885 5.38427 0.153391 5.56299 0.293063 5.70355C0.432736 5.84411 0.610844 5.94025 0.804999 5.97987C0.858999 5.99487 1.02 5.99487 4.184 5.99487C7.332 5.99987 7.5 5.99987 7.496 6.01587C7.496 6.01987 7.254 6.91387 6.965 7.99987C6.675 9.08587 6.434 9.97987 6.434 9.98387C6.43 9.99987 6.281 9.99987 3.644 10.0039C0.999999 10.0039 0.858999 10.0039 0.803999 10.0199C0.609844 10.0595 0.431736 10.1556 0.292063 10.2962C0.152391 10.4368 0.0573885 10.6155 0.0189988 10.8099C-1.22748e-06 10.8999 -1.22748e-06 11.0969 0.0199988 11.1899C0.0584583 11.3844 0.153609 11.5632 0.293472 11.7038C0.433336 11.8444 0.611661 11.9404 0.805999 11.9799C0.859999 11.9949 0.992999 11.9949 3.38 11.9949L5.89 11.9999L5.886 12.0229L5.55 13.2809C5.366 13.9609 5.214 14.5469 5.206 14.5819C5.186 14.6679 5.186 14.8549 5.206 14.9449C5.246 15.1519 5.339 15.3249 5.483 15.4689C5.59078 15.5784 5.7236 15.6601 5.87 15.7069C5.98 15.7419 6.07 15.7569 6.19 15.7569C6.31725 15.7581 6.4435 15.7343 6.56155 15.6868C6.6796 15.6393 6.78713 15.569 6.878 15.4799C6.988 15.3789 7.085 15.2229 7.132 15.0899C7.144 15.0469 7.96 12.0119 7.96 12.0039C7.96 11.9999 9.573 11.9999 11.55 11.9959H15.136L15.206 11.9799C15.4297 11.9311 15.6299 11.8073 15.7735 11.6291C15.9171 11.4508 15.9954 11.2288 15.9954 10.9999C15.9954 10.771 15.9171 10.5489 15.7735 10.3707C15.6299 10.1924 15.4297 10.0686 15.206 10.0199L15.136 10.0039H11.816C8.667 9.99987 8.5 9.99987 8.503 9.98387C8.503 9.97987 8.741 9.09787 9.026 8.02687C9.312 6.95687 9.554 6.06287 9.558 6.04287L9.57 5.99987L12.355 5.99587H15.137L15.207 5.97987C15.613 5.88287 15.895 5.59387 15.98 5.18687C16 5.09687 16 4.90187 15.98 4.81187C15.9431 4.61858 15.8501 4.44044 15.7126 4.29961C15.5752 4.15878 15.3993 4.0615 15.207 4.01987L15.137 4.00387H12.62L10.11 3.99987L10.114 3.97687C10.118 3.96487 10.267 3.39787 10.45 2.71887C10.634 2.03887 10.79 1.45287 10.794 1.41787C10.814 1.33987 10.814 1.15187 10.798 1.06987C10.7707 0.926275 10.7149 0.789594 10.634 0.667871C10.5359 0.532163 10.4075 0.421221 10.259 0.343871C10.1703 0.302796 10.0769 0.272578 9.981 0.253871C9.86452 0.238293 9.74648 0.238293 9.63 0.253871H9.629Z" fill="currentColor"/>
</svg>
