<svg width="16" height="16" viewBox="0 0 16 16" fill="none" xmlns="http://www.w3.org/2000/svg">
<path d="M2.82 0.00390625C2.20109 0.0435278 1.60933 0.272548 1.125 0.659906C1 0.757906 0.758002 0.999906 0.660002 1.12491C0.297002 1.58191 0.0900016 2.08191 0.0200016 2.67191C0.00400162 2.78191 0.00400162 3.04291 0.00400162 7.99591C0.00400162 12.9919 0.00400162 13.2109 0.0200016 13.3279C0.0980016 14.0119 0.383002 14.6089 0.855002 15.0939C1.305 15.5539 1.863 15.8479 2.492 15.9569C2.73 15.9969 3.059 16.0069 3.188 15.9799C3.38439 15.9436 3.56448 15.8468 3.703 15.7029C3.79829 15.6127 3.87359 15.5036 3.92406 15.3825C3.97453 15.2614 3.99904 15.1311 3.996 14.9999C3.9997 14.891 3.98274 14.7825 3.946 14.6799C3.85824 14.4295 3.67739 14.2225 3.441 14.1019C3.30142 14.0372 3.14983 14.0024 2.996 13.9999C2.88576 13.999 2.77638 13.9804 2.672 13.9449C2.52543 13.8927 2.39283 13.8074 2.28446 13.6957C2.17609 13.5841 2.09484 13.449 2.047 13.3009C1.997 13.1409 2 13.5779 2.004 7.96491C2.004 3.16491 2.004 2.85191 2.02 2.80091C2.11 2.42591 2.355 2.15591 2.7 2.04691C2.86 1.99691 2.621 1.99991 6.035 2.00391C8.941 2.00391 9.148 2.00391 9.199 2.01991C9.516 2.09391 9.75 2.27691 9.887 2.54291C9.96109 2.68134 9.9999 2.8359 10 2.99291C10.008 3.14491 10.02 3.21891 10.055 3.31991C10.1022 3.4659 10.1854 3.59763 10.297 3.70291C10.492 3.90291 10.723 3.99591 11 3.99591C11.1312 3.99894 11.2615 3.97444 11.3826 3.92397C11.5037 3.8735 11.6128 3.79819 11.703 3.70291C11.8035 3.60673 11.8817 3.48979 11.9323 3.36026C11.9829 3.23072 12.0047 3.09171 11.996 2.95291C11.9897 2.28704 11.7585 1.64285 11.34 1.12491C11.1977 0.955185 11.0407 0.798252 10.871 0.655906C10.4298 0.303047 9.89751 0.08252 9.336 0.0199062C9.238 0.00390625 9.036 0.00390625 6.046 0.00390625H2.82Z" fill="currentColor"/>
<path d="M3.871 4.00791C3.66321 4.03526 3.46927 4.1272 3.31657 4.27075C3.16387 4.4143 3.06013 4.6022 3.02 4.80791C3 4.90191 3 5.09791 3.02 5.19091C3.05888 5.38624 3.15492 5.56563 3.29593 5.70628C3.43694 5.84694 3.61657 5.94252 3.812 5.98091C3.875 5.99591 3.98 5.99591 6 5.99591C8.008 5.99591 8.125 5.99591 8.191 5.97991C8.38675 5.94159 8.56657 5.84561 8.70735 5.7043C8.84813 5.56298 8.94343 5.3828 8.981 5.18691C9 5.09691 9 4.90191 8.981 4.81191C8.94398 4.61849 8.85085 4.44025 8.71321 4.29941C8.57557 4.15856 8.39952 4.06136 8.207 4.01991L8.137 4.00391H6.03C4.839 4.00391 3.901 4.00391 3.87 4.00791H3.871ZM12.746 5.42191C12.602 5.44191 12.449 5.49991 12.328 5.57791C12.262 5.62091 12.172 5.71091 11.52 6.35891L10.785 7.09391L10.863 7.24191C11.457 8.39491 12.66 9.58591 13.805 10.1599L13.91 10.2099L14.64 9.47991C15.27 8.84791 15.379 8.73791 15.418 8.67991C15.5291 8.51647 15.5864 8.32246 15.582 8.12491C15.5864 7.92735 15.5291 7.73335 15.418 7.56991C15.378 7.51191 15.25 7.37891 14.434 6.56591C13.438 5.56591 13.461 5.58991 13.313 5.51591C13.2345 5.47803 13.1515 5.45047 13.066 5.43391C12.9601 5.41823 12.8528 5.41421 12.746 5.42191ZM8.605 9.27291C7.066 10.8129 7.09 10.7889 6.934 11.0229C6.73221 11.3254 6.58655 11.6618 6.504 12.0159C6.464 12.1869 6.109 14.3319 6.109 14.3979C6.11156 14.5279 6.16432 14.6518 6.25623 14.7437C6.34814 14.8356 6.47205 14.8883 6.602 14.8909C6.668 14.8909 8.809 14.5349 8.984 14.4959C9.324 14.4179 9.68 14.2659 9.973 14.0659C10.211 13.9099 10.183 13.9339 11.727 12.3949C12.723 11.3979 13.16 10.9569 13.157 10.9489C13.148 10.9489 13.086 10.9099 13.016 10.8709C12.4208 10.5182 11.8744 10.0889 11.391 9.59391C10.918 9.12945 10.5057 8.60696 10.164 8.03891C10.117 7.96491 10.074 7.88691 10.063 7.86691C10.055 7.85191 10.047 7.83591 10.043 7.83591L8.605 9.27291ZM3.871 8.00791C3.445 8.06591 3.101 8.38691 3.02 8.80791C3 8.90191 3 9.09791 3.02 9.19091C3.09 9.54291 3.344 9.83191 3.68 9.94491C3.836 9.99591 3.816 9.99591 4.5 9.99591C5.066 9.99591 5.129 9.99591 5.191 9.97991C5.41849 9.93624 5.62353 9.81435 5.77056 9.63535C5.9176 9.45635 5.99735 9.23155 5.996 8.99991C5.99597 8.77092 5.91759 8.54883 5.77388 8.37055C5.63016 8.19227 5.42977 8.06854 5.206 8.01991C5.141 8.00391 5.113 8.00391 4.531 8.00391C4.199 8.00391 3.902 8.00391 3.871 8.00791Z" fill="currentColor"/>
</svg>
