<svg width="16" height="16" viewBox="0 0 16 16" fill="none" xmlns="http://www.w3.org/2000/svg">
<path d="M4.871 0.0081943C4.441 0.0661943 4.105 0.387194 4.02 0.808194C4.004 0.876194 4.004 0.954194 4.004 2.00019C4.004 3.04619 4.004 3.12519 4.02 3.19119C4.09 3.54319 4.344 3.83219 4.68 3.94519C4.797 3.98519 4.867 3.99619 5 3.99619C5.11154 4.00085 5.22292 3.98387 5.328 3.94619C5.668 3.82419 5.902 3.55119 5.98 3.18719C5.996 3.12519 5.996 3.05519 5.996 2.00019C5.996 0.758194 6 0.840194 5.946 0.676194C5.88863 0.511187 5.78932 0.363944 5.65782 0.24893C5.52633 0.133917 5.36718 0.0550899 5.196 0.0201943C5.08808 0.00451116 4.97978 0.000487995 4.871 0.0081943ZM10.871 0.0081943C10.441 0.0661943 10.105 0.387194 10.02 0.808194C10.004 0.875194 10.004 0.953194 10.004 2.00019C10.004 3.04719 10.004 3.12519 10.02 3.19119C10.09 3.54319 10.344 3.83219 10.68 3.94519C10.797 3.98519 10.867 3.99619 11 3.99619C11.1115 4.00085 11.2229 3.98387 11.328 3.94619C11.668 3.82419 11.902 3.55119 11.98 3.18719C11.996 3.12519 11.996 3.05519 11.996 2.00019C11.996 0.758194 12 0.840194 11.946 0.676194C11.8886 0.511187 11.7893 0.363944 11.6578 0.24893C11.5263 0.133917 11.3672 0.0550899 11.196 0.0201943C11.0884 0.00458288 10.9795 0.000559862 10.871 0.0081943Z" fill="#202020"/>
<path d="M7.871 2.00819C7.69505 2.03367 7.52848 2.10353 7.387 2.21119C7.32 2.26119 7.215 2.37919 7.168 2.44519C7.051 2.62919 7.012 2.76519 7 3.03119C6.99358 3.3839 6.89459 3.72872 6.71294 4.03112C6.53129 4.33351 6.27336 4.58287 5.965 4.75419C5.77 4.86419 5.52 4.94519 5.277 4.98019C5.152 5.00019 4.847 5.00019 4.723 4.98019C4.25257 4.91452 3.82087 4.68356 3.50517 4.32866C3.18948 3.97375 3.0104 3.51807 3 3.04319C2.992 2.87519 2.98 2.82819 2.926 2.72319C2.89521 2.66493 2.85307 2.61341 2.80206 2.57168C2.75105 2.52994 2.69221 2.49884 2.629 2.48019C2.5292 2.45752 2.42469 2.46878 2.332 2.51219C2.184 2.59019 1.832 2.90619 1.66 3.12519C1.297 3.58219 1.094 4.07519 1.02 4.67219C1.004 4.78219 1.004 4.97719 1.004 8.99619C1.004 13.0232 1.004 13.2112 1.02 13.3282C1.098 14.0082 1.383 14.6092 1.848 15.0862C2.297 15.5432 2.84 15.8362 3.457 15.9492C3.734 16.0002 3.336 15.9962 7.914 16.0002C10.871 16.0002 12.102 16.0002 12.191 15.9922C12.6385 15.9656 13.0741 15.838 13.4652 15.6189C13.8563 15.3998 14.1926 15.0949 14.449 14.7272C14.746 14.3052 14.914 13.8632 14.98 13.3282C14.996 13.2182 14.996 13.0232 14.996 9.00019C14.996 4.97719 14.996 4.78119 14.98 4.67219C14.9258 4.16822 14.7433 3.68656 14.45 3.27319C14.246 2.98019 13.867 2.61319 13.668 2.51219C13.449 2.40219 13.184 2.50419 13.066 2.73419C13.016 2.84019 13.008 2.87519 13 3.04319C12.9923 3.39389 12.8927 3.73643 12.711 4.03653C12.5294 4.33662 12.2721 4.58375 11.965 4.75319C11.77 4.86319 11.52 4.94519 11.277 4.98019C11.152 5.00019 10.847 5.00019 10.723 4.98019C10.2506 4.91419 9.81728 4.68149 9.50133 4.3241C9.18538 3.96671 9.00758 3.50816 9 3.03119C8.99778 2.95686 8.9911 2.88273 8.98 2.80919C8.94295 2.61395 8.84615 2.43504 8.703 2.29719C8.56885 2.15823 8.39605 2.06278 8.207 2.02319C8.09623 2.00271 7.98316 1.99766 7.871 2.00819ZM12.203 8.0202C12.5 8.09019 12.727 8.25819 12.871 8.50819C13.066 8.8482 13.039 9.28119 12.805 9.59819C12.6547 9.79521 12.4379 9.93095 12.195 9.98019C12.133 9.99619 11.965 9.99619 8 9.99619C4.035 9.99619 3.867 9.99619 3.805 9.98019C3.6558 9.95065 3.51526 9.88758 3.39399 9.79577C3.27273 9.70396 3.17391 9.58579 3.105 9.45019C3.03351 9.31126 2.99874 9.15635 3.004 9.00019C3.00065 8.89159 3.01656 8.78325 3.051 8.68019C3.168 8.32819 3.477 8.07019 3.848 8.01219C3.898 8.00419 4.746 8.00019 8.028 8.00419C11.965 8.00419 12.148 8.0042 12.203 8.0202ZM9.203 11.0202C9.5 11.0902 9.727 11.2582 9.871 11.5082C10.066 11.8482 10.039 12.2812 9.805 12.5982C9.65465 12.7952 9.43789 12.931 9.195 12.9802C9.133 12.9962 9.012 12.9962 6.5 12.9962C3.988 12.9962 3.867 12.9962 3.805 12.9802C3.6558 12.9506 3.51526 12.8876 3.39399 12.7958C3.27273 12.704 3.17391 12.5858 3.105 12.4502C3.03351 12.3113 2.99874 12.1564 3.004 12.0002C3.00065 11.8916 3.01656 11.7832 3.051 11.6802C3.168 11.3282 3.477 11.0702 3.848 11.0122C3.898 11.0042 4.453 11.0002 6.528 11.0042C9.02 11.0042 9.148 11.0042 9.203 11.0202Z" fill="#202020"/>
</svg>
