<svg width="16" height="16" viewBox="0 0 16 16" fill="none" xmlns="http://www.w3.org/2000/svg">
<path d="M2.8 1.00391C2.09367 1.0503 1.42658 1.3453 0.916978 1.83659C0.40738 2.32788 0.0881941 2.98374 0.0160011 3.68791C0.00900107 3.75391 0.00500107 4.59791 0.00500107 7.99191C0.00500107 11.9959 0.00500107 12.2219 0.0210011 12.3279C0.095421 13.0057 0.398745 13.6379 0.880899 14.12C1.36305 14.6022 1.99521 14.9055 2.673 14.9799C2.783 14.9959 3.024 14.9959 8.001 14.9959C12.989 14.9959 13.22 14.9959 13.329 14.9799C14.0073 14.9067 14.6401 14.6038 15.1225 14.1214C15.6049 13.639 15.9078 13.0062 15.981 12.3279C15.997 12.2109 15.997 12.0229 15.997 7.99191C15.997 3.45691 16.001 3.73391 15.958 3.48791C15.8648 2.95103 15.6273 2.44962 15.271 2.0374C14.9146 1.62519 14.4528 1.31771 13.935 1.14791C13.7539 1.08985 13.5682 1.04703 13.38 1.01991L13.263 1.00391H2.8ZM14 8.53491C14 12.3789 14.004 12.1369 13.957 12.2889C13.867 12.6019 13.602 12.8669 13.289 12.9569C13.137 13.0039 13.516 12.9999 8 12.9999C2.473 12.9999 2.867 13.0039 2.707 12.9569C2.55099 12.9092 2.40898 12.8241 2.29327 12.7091C2.17756 12.5941 2.09166 12.4526 2.043 12.2969C1.996 12.1449 2 12.3979 2 8.53491V4.99991H14V8.53491Z" fill="currentColor"/>
<path d="M3.871 6.00791C3.64399 6.03808 3.43426 6.14542 3.277 6.31191C3.13953 6.45652 3.04861 6.63906 3.016 6.83591C3.00038 8.27853 3.00038 9.72128 3.016 11.1639C3.055 11.3829 3.145 11.5509 3.296 11.7039C3.449 11.8549 3.617 11.9449 3.836 11.9839C3.91 11.9999 7.09 11.9999 7.164 11.9839C7.3695 11.9513 7.55894 11.8531 7.704 11.7039C7.85317 11.5588 7.95139 11.3694 7.984 11.1639C8 11.0899 8 6.90991 7.984 6.83591C7.95139 6.6304 7.85317 6.44097 7.704 6.29591C7.56924 6.15682 7.3963 6.06078 7.207 6.01991L7.137 6.00391H5.53C4.612 6.00391 3.901 6.00391 3.87 6.00791H3.871ZM9.871 6.00791C9.66321 6.03526 9.46927 6.1272 9.31657 6.27075C9.16387 6.4143 9.06013 6.6022 9.02 6.80791C9 6.90191 9 7.09791 9.02 7.19091C9.09 7.54291 9.344 7.83191 9.68 7.94491C9.84 7.99991 9.758 7.99591 11 7.99591C12.047 7.99591 12.125 7.99591 12.191 7.97991C12.4185 7.93624 12.6235 7.81435 12.7706 7.63535C12.9176 7.45635 12.9974 7.23154 12.996 6.99991C12.9983 6.93682 12.993 6.87369 12.98 6.81191C12.9425 6.61888 12.8493 6.44106 12.7119 6.30033C12.5746 6.15961 12.3991 6.06213 12.207 6.01991C12.137 6.00391 12.125 6.00391 11.031 6.00391C10.414 6.00391 9.902 6.00391 9.871 6.00791ZM9.871 9.00791C9.66321 9.03526 9.46927 9.1272 9.31657 9.27075C9.16387 9.4143 9.06013 9.6022 9.02 9.80791C9 9.90191 9 10.0979 9.02 10.1909C9.09 10.5429 9.344 10.8319 9.68 10.9449C9.84 10.9999 9.758 10.9959 11 10.9959C12.047 10.9959 12.125 10.9959 12.191 10.9799C12.4185 10.9362 12.6235 10.8143 12.7706 10.6353C12.9176 10.4564 12.9974 10.2315 12.996 9.99991C12.9983 9.93682 12.993 9.87369 12.98 9.81191C12.9425 9.61888 12.8493 9.44106 12.7119 9.30033C12.5746 9.15961 12.3991 9.06213 12.207 9.01991C12.137 9.00391 12.125 9.00391 11.031 9.00391C10.414 9.00391 9.902 9.00391 9.871 9.00791Z" fill="currentColor"/>
</svg>
