<svg width="16" height="16" viewBox="0 0 16 16" fill="none" xmlns="http://www.w3.org/2000/svg">
<path d="M2.82 1.00391C2.20124 1.04423 1.60969 1.27317 1.125 1.65991C1 1.75791 0.758002 1.99991 0.660002 2.12491C0.297002 2.58191 0.0900016 3.08191 0.0200016 3.67191C0.00400162 3.77691 0.00400162 4.00391 0.00400162 7.99591C0.00400162 12.0229 0.00400162 12.2109 0.0200016 12.3279C0.0590016 12.6839 0.152002 13.0079 0.305002 13.3159C0.52655 13.7695 0.858998 14.1598 1.27154 14.4507C1.68409 14.7415 2.16338 14.9236 2.665 14.9799C2.754 14.9959 3.109 14.9959 7.915 14.9999C11.59 14.9999 13.102 14.9999 13.191 14.9919C13.6385 14.9653 14.0741 14.8377 14.4652 14.6186C14.8563 14.3995 15.1926 14.0946 15.449 13.7269C15.746 13.3049 15.914 12.8629 15.98 12.3279C15.996 12.2179 15.996 12.0229 15.996 7.99991C15.996 3.97691 15.996 3.78091 15.98 3.67191C15.9186 3.10575 15.6965 2.56897 15.34 2.12491C15.1977 1.95518 15.0407 1.79825 14.871 1.65591C14.4298 1.30305 13.8975 1.08252 13.336 1.01991C13.234 1.00391 12.946 1.00391 8.046 1.00391H2.82ZM13.2 10.0199C13.574 10.1099 13.844 10.3519 13.953 10.6999C14 10.8439 14 10.8669 14 11.4999C14 12.1329 14 12.1559 13.953 12.2999C13.843 12.6479 13.574 12.8899 13.199 12.9799C13.149 12.9959 12.836 12.9959 8.035 12.9959C2.383 12.9999 2.855 13.0039 2.691 12.9489C2.53982 12.9 2.40251 12.8156 2.2905 12.7029C2.17849 12.5902 2.09501 12.4524 2.047 12.3009C2 12.1519 2 12.1329 2.004 11.4609C2.004 10.9259 2.008 10.8479 2.02 10.8009C2.078 10.5469 2.21 10.3439 2.406 10.1949C2.527 10.1049 2.699 10.0349 2.844 10.0119C2.898 10.0039 3.804 9.99991 8.027 10.0039C12.84 10.0039 13.149 10.0039 13.2 10.0199Z" fill="currentColor"/>
</svg>
