<svg width="16" height="16" viewBox="0 0 16 16" fill="none" xmlns="http://www.w3.org/2000/svg">
<path d="M7.871 0.00809951C7.66578 0.0359169 7.47408 0.126146 7.32186 0.266561C7.16964 0.406976 7.06426 0.590791 7.02 0.793099L7.004 0.863099V3.9301L7 7.0001L3.93 7.0041C1.012 7.0041 0.860001 7.0041 0.805001 7.0201C0.610846 7.05972 0.432738 7.15586 0.293066 7.29642C0.153393 7.43698 0.0583908 7.6157 0.0200011 7.8101C1.06823e-06 7.9001 1.06823e-06 8.0971 0.0200011 8.1901C0.0583908 8.3845 0.153393 8.56322 0.293066 8.70378C0.432738 8.84434 0.610846 8.94048 0.805001 8.9801C0.859001 8.9951 1.012 8.9951 3.93 8.9951L7 9.0001L7.004 12.0701V15.1371L7.02 15.2071C7.05018 15.3457 7.10931 15.4763 7.19351 15.5904C7.27772 15.7045 7.38511 15.7995 7.50862 15.8692C7.63213 15.9389 7.76898 15.9817 7.9102 15.9948C8.05141 16.0078 8.19379 15.9909 8.328 15.9451C8.668 15.8251 8.895 15.5661 8.98 15.1951C8.996 15.1411 8.996 14.9881 8.996 12.0701L9 9.0001L12.07 8.9961H15.137L15.207 8.9801C15.4307 8.93136 15.6309 8.80758 15.7745 8.62931C15.9181 8.45104 15.9964 8.22901 15.9964 8.0001C15.9964 7.77119 15.9181 7.54916 15.7745 7.37089C15.6309 7.19262 15.4307 7.06884 15.207 7.0201L15.137 7.0041H12.07L9 7.0001L8.996 3.9301C8.996 1.0121 8.996 0.860099 8.98 0.805099C8.93979 0.611856 8.84505 0.434179 8.707 0.2931C8.56671 0.15398 8.3887 0.0590623 8.195 0.0200995C8.08774 0.00455958 7.97912 0.000536706 7.871 0.00809951Z" fill="#202020"/>
</svg>
