<svg width="16" height="16" viewBox="0 0 16 16" fill="none" xmlns="http://www.w3.org/2000/svg">
<path d="M7.816 1.00781C7.426 1.04681 7.063 1.19481 6.754 1.43381C6.672 1.49981 6.473 1.70381 6.41 1.78881C6.20579 2.05735 6.07267 2.37311 6.023 2.70681C6.008 2.80081 6.003 2.85181 6 3.47681C5.996 4.05881 5.992 4.15181 5.98 4.19881C5.93105 4.43082 5.80204 4.63821 5.61555 4.78465C5.42906 4.9311 5.197 5.00726 4.96 4.99981C4.75 5.00781 4.594 5.02281 4.45 5.04981C3.9649 5.14112 3.5098 5.35063 3.125 5.65981C3 5.75781 2.758 5.99981 2.66 6.12481C2.297 6.58181 2.09 7.08181 2.02 7.67181C2.004 7.77681 2.004 7.92181 2.004 9.99581C2.004 12.0898 2.004 12.2148 2.02 12.3278C2.098 13.0118 2.383 13.6088 2.855 14.0938C3.352 14.6018 3.949 14.8908 4.672 14.9798C4.782 14.9958 4.977 14.9958 8.949 14.9958C12.289 14.9958 13.125 14.9918 13.164 14.9838C13.3695 14.9512 13.5589 14.853 13.704 14.7038C13.8532 14.5587 13.9514 14.3693 13.984 14.1638C13.9996 13.7213 13.9996 13.2783 13.984 12.8358C13.9514 12.6303 13.8532 12.4409 13.704 12.2958C13.5706 12.1555 13.397 12.0601 13.207 12.0228C13.141 12.0078 13.109 12.0028 12.469 11.9998C11.906 11.9958 11.789 11.9918 11.719 11.9798C11.2847 11.9181 10.8827 11.7153 10.575 11.4027C10.2673 11.0901 10.0709 10.685 10.016 10.2498C10 10.1398 10 9.83981 10.02 9.72681C10.0757 9.32541 10.2517 8.9503 10.5248 8.65092C10.7979 8.35155 11.1554 8.14197 11.55 8.04981C11.753 8.00281 11.749 8.00281 12.468 7.99881C13.198 7.99481 13.167 7.99481 13.319 7.94381C13.465 7.89664 13.5967 7.81341 13.702 7.70181C13.8513 7.55715 13.9499 7.36808 13.983 7.16281C13.9986 6.72028 13.9986 6.27734 13.983 5.83481C13.9504 5.62931 13.8522 5.43987 13.703 5.29481C13.5649 5.15384 13.3875 5.05768 13.194 5.01881C13.14 5.00681 13.046 5.00281 11.995 4.99881C10.945 4.99481 10.851 4.99081 10.795 4.97881C10.6041 4.93773 10.4292 4.84219 10.2915 4.70375C10.1537 4.56532 10.0591 4.38992 10.019 4.19881C10.007 4.15081 10.003 4.05781 9.999 3.47581C9.995 2.84581 9.991 2.79981 9.976 2.70181C9.925 2.36581 9.796 2.06181 9.593 1.79181C9.47836 1.65175 9.35006 1.52345 9.21 1.40881C8.94083 1.20567 8.62536 1.07268 8.292 1.02181C8.13387 1.00131 7.97411 0.996287 7.815 1.00681L7.816 1.00781Z" fill="currentColor"/>
</svg>
