<svg width="16" height="16" viewBox="0 0 16 16" fill="none" xmlns="http://www.w3.org/2000/svg">
<g clip-path="url(#clip0_2435_48542)">
<path d="M7.82 0.00394152C7.18 0.0499415 6.621 0.265942 6.125 0.659942C6.07 0.702942 5.961 0.799942 5.883 0.882942C5.74845 1.01198 5.62779 1.15476 5.523 1.30894C5.28328 1.65863 5.121 2.05548 5.047 2.47294C5.007 2.69894 5.004 2.72994 5.004 3.38294L5 3.99594L4.863 4.00394C4.00624 4.03135 3.18141 4.33553 2.512 4.87094C1.72211 5.49506 1.19852 6.3957 1.047 7.39094C0.999999 7.67994 1.004 7.53894 1.004 9.99194C1.004 12.3319 1.004 12.2819 1.035 12.5319C1.10787 13.0752 1.2919 13.5977 1.57561 14.0667C1.85932 14.5357 2.23663 14.9412 2.684 15.2579C3.22352 15.6426 3.85043 15.8866 4.508 15.9679C4.77 15.9999 4.77 15.9999 9.066 15.9999L13.199 15.9959L13.297 15.9799C13.512 15.9409 13.703 15.8829 13.883 15.7929C14.102 15.6829 14.234 15.5899 14.41 15.4099C14.59 15.2299 14.684 15.0979 14.793 14.8789C14.863 14.7339 14.898 14.6409 14.938 14.4889C14.996 14.2579 14.996 14.2499 14.996 13.4999C14.996 12.8899 14.996 12.8239 14.98 12.7299C14.933 12.3883 14.7986 12.0645 14.59 11.7899C14.4764 11.6508 14.3491 11.5235 14.21 11.4099C13.9423 11.205 13.6266 11.0718 13.293 11.0229C13.199 11.0079 13.153 11.0029 12.523 10.9999C11.789 10.9959 11.82 10.9959 11.672 10.9449C11.4436 10.865 11.2518 10.7052 11.132 10.4949C11.0122 10.2847 10.9724 10.0382 11.02 9.80094C11.0568 9.62937 11.1373 9.4702 11.2536 9.33882C11.3699 9.20743 11.5182 9.10828 11.684 9.05094C11.832 9.00394 11.797 9.00394 12.524 8.99994C13.148 8.99594 13.199 8.99194 13.293 8.97694C13.512 8.94494 13.695 8.88294 13.883 8.79294C14.102 8.68294 14.234 8.58994 14.41 8.40994C14.59 8.22994 14.684 8.09794 14.793 7.87894C14.863 7.73394 14.898 7.64094 14.938 7.48894C14.996 7.25794 14.996 7.24994 14.996 6.49994C14.996 5.74994 14.996 5.74194 14.937 5.51194C14.871 5.24994 14.757 5.01194 14.59 4.78894C14.4764 4.65018 14.3491 4.5232 14.21 4.40994C13.941 4.20657 13.6261 4.07262 13.293 4.01994C13.191 4.00394 13.176 4.00394 12.098 4.00394L11 3.99994L10.996 3.37894C10.992 2.71494 10.992 2.70294 10.949 2.45694C10.8558 1.95097 10.634 1.47747 10.305 1.08194C9.81048 0.486901 9.10487 0.106324 8.336 0.0199415C8.16432 0.00696946 7.99215 0.00163086 7.82 0.00394152ZM8.2 2.01994C8.555 2.09794 8.84 2.35194 8.95 2.68394C8.996 2.83194 8.996 2.79694 9 3.52394C9.004 4.14794 9.008 4.19894 9.023 4.29294C9.078 4.63294 9.203 4.93694 9.41 5.21094C9.48 5.30494 9.691 5.51994 9.79 5.58994C10.0921 5.82017 10.4535 5.95961 10.832 5.99194C10.887 5.99594 11.316 5.99994 11.961 5.99994H13V6.99994L12.387 7.00394C11.867 7.00394 11.754 7.00794 11.664 7.01994C11.1005 7.08222 10.5665 7.30428 10.125 7.65994C10 7.75794 9.758 7.99994 9.66 8.12494C9.30322 8.56886 9.08112 9.10571 9.02 9.67194C9 9.83194 9 10.1719 9.02 10.3319C9.086 10.9099 9.297 11.4179 9.66 11.8749C9.758 11.9999 10 12.2419 10.129 12.3439C10.523 12.6559 10.969 12.8589 11.457 12.9489C11.703 12.9919 11.715 12.9919 12.383 12.9959L13 12.9999V13.9999L8.902 13.9959C5.078 13.9959 4.797 13.9959 4.719 13.9799C4.28391 13.9185 3.88123 13.7153 3.57334 13.4018C3.26545 13.0884 3.06955 12.6821 3.016 12.2459C3.008 12.1839 3.004 11.7579 3.004 9.99194C3.004 7.59394 3 7.77294 3.051 7.55094C3.13639 7.18597 3.32208 6.85212 3.58713 6.58707C3.85218 6.32203 4.18602 6.13633 4.551 6.05094C4.695 6.01994 4.789 6.00794 4.996 5.99994C5.363 5.98394 5.598 5.92994 5.871 5.79694C6.09 5.69094 6.231 5.58994 6.411 5.40994C6.59 5.22994 6.695 5.08594 6.797 4.87094C6.891 4.68394 6.945 4.50394 6.977 4.29694C6.992 4.19894 6.997 4.15194 7 3.52294C7.004 2.94094 7.008 2.84794 7.02 2.80094C7.078 2.54694 7.21 2.34394 7.406 2.19494C7.523 2.10894 7.696 2.03494 7.844 2.01194C7.96217 1.99897 8.08253 2.00166 8.2 2.01994Z" fill="currentColor"/>
</g>
<defs>
<clipPath id="clip0_2435_48542">
<rect width="16" height="16" fill="white"/>
</clipPath>
</defs>
</svg>
