<svg width="16" height="16" viewBox="0 0 16 16" fill="none" xmlns="http://www.w3.org/2000/svg">
<path d="M7.633 0.0077954C6.56331 0.053982 5.51389 0.315282 4.54743 0.776088C3.58098 1.23689 2.7173 1.88776 2.008 2.6898C0.824026 4.02871 0.122713 5.72567 0.0160005 7.5098C-0.0567429 8.6814 0.128621 9.85468 0.559 10.9468C1.1564 12.4547 2.1968 13.7461 3.543 14.6508C5.17698 15.7351 7.14979 16.1876 9.093 15.9238C10.328 15.7551 11.5064 15.2998 12.534 14.5943C13.5616 13.8888 14.4098 12.9527 15.011 11.8608C15.6619 10.6787 16.0006 9.35021 15.995 8.0008C16.0004 6.41298 15.5309 4.85982 14.647 3.5408C13.7889 2.25942 12.5782 1.25392 11.161 0.645795C10.4206 0.329311 9.63686 0.126035 8.836 0.0427954C8.43612 0.00611019 8.03434 -0.0055792 7.633 0.0077954ZM8.191 3.0078C8.941 3.0658 9.617 3.3828 10.137 3.9138C10.547 4.3358 10.824 4.8548 10.937 5.4218C10.984 5.6478 10.997 5.7698 10.997 6.0198C10.997 6.2998 10.98 6.4568 10.926 6.7028C10.7719 7.37204 10.3958 7.96944 9.859 8.39779C9.7235 8.50792 9.57861 8.60596 9.426 8.69079C9.356 8.73079 9.262 8.78879 9.223 8.81579C9.145 8.86679 9.031 8.97279 8.996 9.02279L8.973 9.05879L8.969 9.2388C8.961 9.4798 8.938 9.57879 8.855 9.74179C8.77808 9.89195 8.66373 10.0197 8.523 10.1128C8.35861 10.2247 8.16382 10.2833 7.965 10.2808C7.77222 10.2819 7.58337 10.2263 7.422 10.1208C7.30876 10.0464 7.21163 9.94997 7.13638 9.83727C7.06114 9.72458 7.00932 9.59791 6.984 9.4648C6.96587 9.23977 6.9672 9.01359 6.988 8.78879C7.055 8.34779 7.246 7.9688 7.574 7.6048C7.785 7.3788 8.054 7.1678 8.387 6.9798C8.547 6.8898 8.602 6.8518 8.684 6.7728C8.81023 6.65224 8.90344 6.50133 8.95474 6.33449C9.00603 6.16765 9.0137 5.99044 8.977 5.8198C8.9466 5.67247 8.88375 5.53377 8.793 5.4138C8.64385 5.21254 8.42549 5.07362 8.18 5.0238C8.04066 4.99643 7.89734 4.99643 7.758 5.0238C7.57183 5.06123 7.39995 5.15029 7.262 5.2808C7.122 5.4138 7.035 5.55879 6.969 5.7728C6.94711 5.84383 6.91969 5.91304 6.887 5.9798C6.75 6.2498 6.5 6.4368 6.203 6.5038C6.121 6.5198 5.953 6.5268 5.875 6.5158C5.65525 6.48568 5.45111 6.38536 5.293 6.2298C5.15547 6.09032 5.06074 5.91439 5.02 5.7228C5.00232 5.61708 4.99829 5.50954 5.008 5.4028C5.031 5.2188 5.137 4.9138 5.258 4.6678C5.40381 4.37911 5.59642 4.11656 5.828 3.8908C5.973 3.7458 6.074 3.6558 6.218 3.5548C6.67767 3.22945 7.21892 3.03864 7.781 3.0038C7.867 2.9998 8.101 2.9998 8.191 3.0078ZM8.203 11.0198C8.38013 11.0574 8.54376 11.1423 8.67653 11.2655C8.8093 11.3886 8.90626 11.5454 8.95712 11.7192C9.00798 11.893 9.01083 12.0773 8.96539 12.2526C8.91994 12.4279 8.82789 12.5876 8.699 12.7148C8.56122 12.8515 8.38569 12.9438 8.195 12.9798C8.06573 12.9993 7.93427 12.9993 7.805 12.9798C7.61146 12.9406 7.43376 12.8453 7.29413 12.7057C7.15451 12.566 7.05915 12.3883 7.02 12.1948C7.00054 12.0655 7.00054 11.9341 7.02 11.8048C7.11 11.3868 7.426 11.0818 7.848 11.0118C7.96617 10.9988 8.08554 11.0015 8.203 11.0198Z" fill="#202020"/>
</svg>
