<svg width="16" height="16" viewBox="0 0 16 16" fill="none" xmlns="http://www.w3.org/2000/svg">
<g clip-path="url(#clip0_2064_53355)">
<path d="M3.824 0.00390625C3.20357 0.0421404 2.61014 0.271271 2.125 0.659906C2 0.757906 1.758 0.999906 1.66 1.12491C1.297 1.58191 1.09 2.08191 1.02 2.67191C1.004 2.78191 1.004 3.04291 1.004 7.99591C1.004 12.9919 1.004 13.2109 1.02 13.3279C1.098 14.0079 1.383 14.6089 1.848 15.0859C2.297 15.5429 2.84 15.8359 3.457 15.9489C3.734 15.9999 3.336 15.9959 7.914 15.9999C10.871 15.9999 12.102 15.9999 12.191 15.9919C12.6385 15.9653 13.0741 15.8377 13.4652 15.6186C13.8563 15.3995 14.1926 15.0946 14.449 14.7269C14.746 14.3049 14.914 13.8629 14.98 13.3279C14.996 13.2229 14.996 13.0739 14.996 10.5229C14.996 7.49591 15 7.76191 14.937 7.51191C14.871 7.24991 14.757 7.01191 14.59 6.78891C14.4764 6.65014 14.3491 6.52317 14.21 6.40991C13.9417 6.20584 13.6263 6.07274 13.293 6.02291C13.191 6.00291 13.168 6.00291 11.996 5.99991C10.934 5.99591 10.793 5.99191 10.719 5.97991C10.2895 5.92059 9.89138 5.72171 9.586 5.41391C9.27892 5.108 9.08018 4.71016 9.02 4.28091C9.008 4.20691 9.004 4.06591 9 3.00391C8.996 1.82791 8.996 1.80891 8.977 1.70391C8.92633 1.37333 8.79476 1.06039 8.594 0.792906C8.47905 0.652797 8.35041 0.524496 8.21 0.409906C7.94073 0.206385 7.62542 0.0724277 7.292 0.0199062C7.191 0.00390625 7.191 0.00390625 5.527 0.00390625H3.824ZM6.195 7.51991C6.598 7.60491 6.895 7.90191 6.98 8.30491C7 8.39791 7 8.60191 6.98 8.69491C6.94863 8.84028 6.88733 8.97753 6.8 9.09791C6.773 9.13691 6.527 9.39091 6.086 9.83191L5.418 10.4999L6.086 11.1719C6.527 11.6089 6.773 11.8629 6.801 11.9019C6.887 12.0199 6.949 12.1599 6.981 12.3049C6.992 12.3549 6.996 12.4059 6.996 12.4999C6.99839 12.5653 6.99302 12.6308 6.98 12.6949C6.895 13.0979 6.598 13.3949 6.195 13.4799C6.06573 13.4994 5.93427 13.4994 5.805 13.4799C5.65963 13.4485 5.52238 13.3872 5.402 13.2999C4.65635 12.578 3.92226 11.8442 3.2 11.0989C3.11267 10.9785 3.05137 10.8413 3.02 10.6959C3.00054 10.5666 3.00054 10.4352 3.02 10.3059C3.052 10.1609 3.114 10.0209 3.2 9.90291C3.92224 9.15691 4.65633 8.42248 5.402 7.69991C5.523 7.60991 5.692 7.53991 5.828 7.51691C5.859 7.51291 5.891 7.50491 5.898 7.50491C5.99728 7.50106 6.09671 7.50542 6.195 7.51991ZM10.195 7.51991C10.34 7.54991 10.48 7.61291 10.598 7.69991C11.3437 8.42182 12.0777 9.15558 12.8 9.90091C12.886 10.0189 12.948 10.1589 12.98 10.3039C12.991 10.3539 12.995 10.4049 12.995 10.4989C12.9974 10.5643 12.992 10.6298 12.979 10.6939C12.9476 10.8393 12.8863 10.9765 12.799 11.0969C12.0768 11.8429 11.3427 12.5773 10.597 13.2999C10.4766 13.3872 10.3394 13.4485 10.194 13.4799C10.0647 13.4994 9.93327 13.4994 9.804 13.4799C9.61022 13.4409 9.43229 13.3455 9.29261 13.2056C9.15293 13.0658 9.05773 12.8877 9.019 12.6939C9.00598 12.6298 9.00061 12.5643 9.003 12.4989C9.003 12.4049 9.007 12.3539 9.019 12.3039C9.049 12.1589 9.112 12.0189 9.199 11.9009C9.226 11.8619 9.472 11.6079 9.913 11.1709L10.581 10.4989L9.913 9.83091C9.66772 9.59311 9.42929 9.34834 9.198 9.09691C9.11067 8.97653 9.04937 8.83928 9.018 8.69391C8.99854 8.56464 8.99854 8.43318 9.018 8.30391C9.073 8.05391 9.206 7.84291 9.405 7.69391C9.522 7.60791 9.69 7.53791 9.827 7.51391C9.858 7.51091 9.89 7.50291 9.897 7.50291C9.99628 7.49906 10.0957 7.50442 10.194 7.51891L10.195 7.51991Z" fill="#202020"/>
<path d="M10.438 0.209906C10.3346 0.222889 10.2379 0.267989 10.1614 0.338852C10.085 0.409715 10.0327 0.502769 10.012 0.604906C10 0.659906 10 0.839906 10.004 2.40191C10.004 4.03491 10.004 4.14091 10.02 4.19491C10.07 4.40991 10.152 4.55891 10.297 4.70291C10.4347 4.84406 10.6117 4.94057 10.805 4.97991C10.859 4.99591 10.965 4.99591 12.598 4.99591C14.16 4.99991 14.34 4.99991 14.395 4.98791C14.5068 4.96441 14.6071 4.90301 14.6789 4.81409C14.7507 4.72517 14.7896 4.61419 14.789 4.49991C14.7927 4.42406 14.7765 4.34855 14.742 4.28091L14.711 4.21491L12.746 2.25391C10.91 0.417906 10.781 0.288906 10.73 0.261906C10.639 0.218021 10.5375 0.200361 10.437 0.210906L10.438 0.209906Z" fill="#202020"/>
</g>
<defs>
<clipPath id="clip0_2064_53355">
<rect width="16" height="16" fill="white"/>
</clipPath>
</defs>
</svg>
