<svg width="16" height="16" viewBox="0 0 16 16" fill="none" xmlns="http://www.w3.org/2000/svg">
<path d="M8.117 0.465098C8.097 0.469098 8.023 0.473098 7.953 0.477098C6.141 0.594098 4.129 1.3831 2.496 2.6211C2.344 2.7341 2.286 2.7891 2.226 2.8671C1.91 3.2851 2.046 3.9141 2.52 4.2071C2.703 4.3241 2.89 4.3711 3.137 4.3631C3.41 4.3551 3.602 4.2971 3.891 4.1211C4.035 4.0351 4.328 3.8911 4.484 3.8281C4.94146 3.64881 5.42376 3.54088 5.914 3.5081C6.14185 3.49636 6.37015 3.49636 6.598 3.5081C7.797 3.5861 9.012 4.0471 10.055 4.8201C10.168 4.9021 10.406 5.0941 10.406 5.1021C10.406 5.1021 10.121 5.3911 9.773 5.7381C9.297 6.2181 9.133 6.3871 9.102 6.4341C9.02011 6.55341 8.96548 6.6893 8.942 6.8321C8.90259 7.06942 8.95004 7.313 9.07568 7.51817C9.20131 7.72333 9.3967 7.87633 9.626 7.9491C9.773 7.9961 9.594 7.9921 12.461 7.9921C15.328 7.9921 15.148 7.9961 15.297 7.9491C15.5 7.8871 15.695 7.7461 15.812 7.5791C15.895 7.4611 15.961 7.3051 15.984 7.1641C15.996 7.1171 15.996 6.6561 15.996 4.4541C15.996 1.9451 15.996 1.7971 15.98 1.7341C15.9484 1.53813 15.8523 1.35831 15.707 1.2231C15.561 1.07422 15.3721 0.974856 15.1667 0.93898C14.9613 0.903104 14.7498 0.932523 14.562 1.0231C14.422 1.0931 14.41 1.1051 13.812 1.7031L13.242 2.2701L13.109 2.1561C11.99 1.2201 10.742 0.672098 9.363 0.508098C9.0923 0.475167 8.81966 0.4608 8.547 0.465098H8.117ZM0.848002 8.0161C0.645115 8.0485 0.457014 8.14224 0.308989 8.28472C0.160965 8.42721 0.0601153 8.6116 0.0200016 8.8131C0.00400162 8.8751 0.00400162 8.9961 0.00400162 11.5391C0.00400162 14.0551 0.00400162 14.2031 0.0200016 14.2661C0.0590016 14.4651 0.137002 14.6211 0.273002 14.7581C0.418678 14.9139 0.610342 15.019 0.820002 15.0581C0.910002 15.0781 1.094 15.0781 1.191 15.0581C1.27695 15.04 1.36075 15.0128 1.441 14.9771C1.578 14.9071 1.586 14.9021 2.309 14.1801L2.996 13.4921L3.125 13.6091C4.301 14.6841 5.617 15.3051 7.109 15.4891C7.395 15.5231 7.543 15.5311 7.899 15.5351C8.316 15.5431 8.566 15.5311 8.934 15.4881C10.422 15.3161 12.008 14.7181 13.398 13.8051C13.73 13.5901 14.094 13.3201 14.191 13.2231C14.605 12.8091 14.492 12.0931 13.961 11.7771C13.776 11.6711 13.5637 11.6224 13.351 11.6371C13.09 11.6451 12.902 11.7031 12.609 11.8791C12.0661 12.1983 11.4619 12.3994 10.836 12.4691C10.598 12.4961 10.441 12.5041 10.152 12.4961C9.8694 12.4957 9.58735 12.471 9.309 12.4221C8.38665 12.2576 7.50847 11.9034 6.73 11.3821C6.42386 11.1758 6.1331 10.9475 5.86 10.6991L5.824 10.6641L6.34 10.1481C6.895 9.5901 6.906 9.5781 6.977 9.4261C7.04855 9.28354 7.07968 9.1241 7.067 8.9651C7.06 8.75998 6.98975 8.56205 6.86586 8.39842C6.74198 8.23479 6.57053 8.11348 6.375 8.0511C6.227 8.0041 6.406 8.0081 3.531 8.0081C2.082 8.0081 0.875002 8.0121 0.848002 8.0161Z" fill="#202020"/>
</svg>
