<svg width="16" height="16" viewBox="0 0 16 16" fill="none" xmlns="http://www.w3.org/2000/svg">
<path d="M4.871 0.00781275C4.66384 0.0355539 4.47051 0.127254 4.31796 0.270126C4.1654 0.412997 4.06124 0.599915 4.02 0.804813C4.004 0.862813 4.004 0.936813 4 1.52281L3.996 2.17181L3.918 2.20281C3.63126 2.31245 3.36363 2.46669 3.125 2.65981C3 2.75781 2.758 2.99981 2.66 3.12481C2.469 3.36681 2.32 3.62481 2.21 3.89481L2.169 3.99981L1.517 4.00381C0.797001 4.00381 0.837001 4.00381 0.681001 4.05381C0.345001 4.16781 0.0910011 4.45681 0.0210011 4.80881C0.00100107 4.90181 0.00100107 5.09781 0.0210011 5.19081C0.0910011 5.54281 0.345001 5.83181 0.681001 5.94481C0.833001 5.99581 0.810001 5.99581 1.435 5.99581L2 5.99981V6.99981L1.434 7.00381C0.809001 7.00381 0.832001 7.00381 0.680001 7.05381C0.344001 7.16781 0.0900011 7.45681 0.0200011 7.80881C1.06823e-06 7.90181 1.06823e-06 8.09781 0.0200011 8.19081C0.0900011 8.54281 0.344001 8.83181 0.680001 8.94481C0.832001 8.99581 0.809001 8.99581 1.434 8.99581L2 8.99981V9.99981L1.434 10.0038C0.809001 10.0038 0.832001 10.0038 0.680001 10.0538C0.344001 10.1678 0.0900011 10.4568 0.0200011 10.8088C1.06823e-06 10.9018 1.06823e-06 11.0978 0.0200011 11.1908C0.0900011 11.5428 0.344001 11.8318 0.680001 11.9448C0.836001 11.9958 0.797001 11.9958 1.516 11.9958L2.168 11.9998L2.211 12.1048C2.438 12.6748 2.844 13.1718 3.359 13.5118C3.535 13.6248 3.739 13.7298 3.918 13.7968L3.996 13.8278L4 14.4768C4.004 15.1948 4.004 15.1798 4.055 15.3278C4.16 15.6178 4.391 15.8478 4.68 15.9448C4.797 15.9848 4.867 15.9958 5 15.9958C5.082 15.9958 5.14 15.9918 5.191 15.9798C5.543 15.9098 5.832 15.6598 5.945 15.3198C5.996 15.1678 5.996 15.1908 5.996 14.5658L6 13.9998H7L7.004 14.5658C7.004 15.1088 7.004 15.1408 7.02 15.2068C7.066 15.4068 7.16 15.5738 7.3 15.7148C7.438 15.8478 7.61 15.9378 7.813 15.9798C7.903 15.9998 8.093 15.9998 8.191 15.9798C8.543 15.9098 8.832 15.6598 8.945 15.3198C8.996 15.1678 8.996 15.1908 8.996 14.5658L9 13.9998H10L10.004 14.5658C10.004 15.1088 10.004 15.1408 10.02 15.2068C10.066 15.4068 10.16 15.5738 10.3 15.7148C10.437 15.8478 10.61 15.9378 10.812 15.9798C10.902 15.9998 11.094 15.9998 11.192 15.9798C11.543 15.9098 11.832 15.6598 11.945 15.3198C11.996 15.1638 11.996 15.2028 11.996 14.4838L12 13.8318L12.105 13.7888C12.477 13.6408 12.805 13.4258 13.098 13.1408C13.402 12.8438 13.633 12.4958 13.785 12.1128L13.832 11.9998L14.484 11.9958C15.114 11.9958 15.141 11.9958 15.207 11.9798C15.609 11.8868 15.895 11.5938 15.98 11.1868C16 11.0968 16 10.9018 15.98 10.8128C15.9432 10.6193 15.8503 10.441 15.7129 10.3C15.5754 10.1589 15.3995 10.0615 15.207 10.0198C15.141 10.0038 15.109 10.0038 14.57 10.0038L14 9.99981V8.99981L14.57 8.99581C15.11 8.99581 15.14 8.99581 15.207 8.97981C15.609 8.88681 15.895 8.59381 15.98 8.18681C16 8.09681 16 7.90181 15.98 7.81281C15.9432 7.61934 15.8503 7.44098 15.7129 7.29996C15.5754 7.15894 15.3995 7.06151 15.207 7.01981C15.141 7.00381 15.109 7.00381 14.57 7.00381L14 6.99981V5.99981L14.57 5.99581C15.11 5.99581 15.14 5.99581 15.207 5.97981C15.609 5.88681 15.895 5.59381 15.98 5.18681C16 5.09681 16 4.90181 15.98 4.81181C15.9431 4.61853 15.8501 4.44038 15.7126 4.29955C15.5752 4.15872 15.3993 4.06144 15.207 4.01981C15.141 4.00381 15.113 4.00381 14.484 4.00381L13.832 3.99981L13.789 3.89481C13.6788 3.61688 13.5271 3.35726 13.339 3.12481C13.197 2.95513 13.0404 2.7982 12.871 2.65581C12.629 2.46881 12.371 2.31581 12.105 2.21081L12 2.16781L11.996 1.51581C11.996 0.795813 11.996 0.835813 11.946 0.675813C11.8881 0.51005 11.7879 0.362304 11.6553 0.247231C11.5227 0.132159 11.3623 0.05376 11.19 0.0198128C10.9322 -0.0316619 10.6645 0.0206485 10.4451 0.165382C10.2257 0.310116 10.0722 0.535583 10.018 0.792813C10.003 0.858813 10.003 0.890813 10.003 1.42981L10 1.99981H9L8.996 1.42981C8.996 0.808813 8.996 0.831813 8.946 0.675813C8.88811 0.51005 8.78789 0.362304 8.65528 0.247231C8.52266 0.132159 8.36227 0.05376 8.19 0.0198128C7.93252 -0.0310775 7.66535 0.0215133 7.44636 0.166195C7.22737 0.310877 7.07419 0.536002 7.02 0.792813C7.005 0.858813 7.005 0.890813 7.005 1.42981L7 1.99981H6L5.996 1.42981C5.996 0.808813 5.996 0.831813 5.946 0.675813C5.88863 0.510806 5.78932 0.363562 5.65782 0.248549C5.52633 0.133535 5.36718 0.0547083 5.196 0.0198128C5.08808 0.00412961 4.97978 0.000106446 4.871 0.00781275ZM8.617 4.21781C8.68502 4.24061 8.74961 4.27258 8.809 4.31281C8.86872 4.35939 8.91667 4.41933 8.949 4.48781C9.004 4.59381 9 4.49981 9 6.07381V7.49981H9.95L10.895 7.50381L10.945 7.51981C11.0397 7.55256 11.123 7.61199 11.1847 7.69094C11.2464 7.76988 11.284 7.86499 11.293 7.96481C11.2975 8.08446 11.2631 8.20235 11.195 8.30081C11.16 8.34781 7.883 11.6248 7.82 11.6758C7.73045 11.754 7.61484 11.7957 7.496 11.7928C7.39061 11.7904 7.2885 11.7557 7.2034 11.6935C7.1183 11.6313 7.05429 11.5445 7.02 11.4448L7.004 11.3948L7 9.94481V8.49981H6.074C5.054 8.49981 5.094 8.49981 4.988 8.44981C4.88139 8.39899 4.79683 8.31123 4.75 8.20281C4.71985 8.137 4.70515 8.06518 4.707 7.99281C4.707 7.86281 4.747 7.76981 4.844 7.65981C4.961 7.52681 8.184 4.31581 8.227 4.28981C8.28373 4.25202 8.3476 4.22622 8.41466 4.21401C8.48173 4.2018 8.55059 4.20244 8.617 4.21781Z" fill="#202020"/>
</svg>
