<svg width="16" height="16" viewBox="0 0 16 16" fill="none" xmlns="http://www.w3.org/2000/svg">
<path d="M6.898 0.00390625C6.558 0.0429063 6.258 0.245906 6.109 0.546906C6.03678 0.686789 6.00068 0.842513 6.004 0.999906C6.00001 1.15924 6.03795 1.31684 6.114 1.45691C6.18177 1.5917 6.27975 1.70902 6.4003 1.79974C6.52085 1.89045 6.66072 1.95211 6.809 1.97991C6.875 1.99591 6.929 1.99591 7.996 1.99591C9.211 1.99591 9.156 1.99591 9.305 1.95291C9.648 1.84291 9.91 1.54691 9.98 1.19091C10 1.10491 10 0.913906 9.984 0.827906C9.94558 0.626459 9.84933 0.440559 9.707 0.292906C9.56586 0.15495 9.38821 0.0602273 9.195 0.0199062C9.141 0.00790625 9.035 0.00390625 8.031 0.00390625H6.898Z" fill="#202020"/>
<path d="M4.82 1.00391C4.20124 1.04423 3.60969 1.27317 3.125 1.65991C3 1.75791 2.758 1.99991 2.66 2.12491C2.297 2.58191 2.09 3.08191 2.02 3.67191C2.004 3.78191 2.004 4.02291 2.004 8.49591C2.004 13.0079 2.004 13.2109 2.02 13.3279C2.098 14.0079 2.383 14.6089 2.848 15.0859C3.297 15.5429 3.84 15.8359 4.457 15.9489C4.734 15.9999 4.441 15.9959 7.914 15.9999C11.125 15.9999 11.191 15.9999 11.402 15.9729C11.8647 15.9102 12.3065 15.7404 12.692 15.4769C12.9852 15.2719 13.2412 15.0182 13.449 14.7269C13.746 14.3049 13.914 13.8629 13.98 13.3279C13.996 13.2179 13.996 13.0039 13.996 8.49991C13.996 3.99591 13.996 3.78091 13.98 3.67191C13.9186 3.10575 13.6965 2.56897 13.34 2.12491C13.1977 1.95518 13.0407 1.79825 12.871 1.65591C12.3714 1.25607 11.7565 1.02748 11.117 1.00391L11.004 0.995906L10.996 1.09791C10.988 1.28491 10.957 1.44891 10.898 1.62491C10.7901 1.95811 10.596 2.25684 10.3354 2.49078C10.0748 2.72472 9.75688 2.88554 9.414 2.95691C9.223 2.99691 9.25 2.99691 7.996 2.99691C7.078 2.99691 6.809 2.99191 6.754 2.98391C6.47449 2.94907 6.20538 2.85607 5.964 2.71091C5.68304 2.54245 5.44826 2.30691 5.28071 2.0254C5.11317 1.74388 5.01809 1.4252 5.004 1.09791L4.996 0.999906H4.93C4.895 1.00391 4.844 1.00391 4.82 1.00391ZM8.262 5.01991C8.754 5.09391 9.184 5.36691 9.461 5.78091C9.484 5.81591 9.531 5.89791 9.562 5.96491C10.043 6.90991 9.562 8.07491 8.559 8.40991C8.32637 8.48604 8.08035 8.51252 7.83685 8.48764C7.59334 8.46276 7.35777 8.38708 7.14534 8.26548C6.93291 8.14388 6.74834 7.97907 6.60358 7.7817C6.45882 7.58432 6.35707 7.35877 6.30491 7.11962C6.25275 6.88047 6.25134 6.63304 6.30076 6.39331C6.35019 6.15358 6.44936 5.92689 6.59187 5.72787C6.73437 5.52886 6.91704 5.36196 7.12807 5.23794C7.3391 5.11393 7.5738 5.03556 7.817 5.00791C7.91 4.99991 8.168 5.00391 8.262 5.01991ZM8.402 9.01991C8.95151 9.07493 9.48357 9.24363 9.96439 9.51529C10.4452 9.78694 10.8643 10.1556 11.195 10.5979C11.5 10.9999 11.738 11.4839 11.867 11.9769C11.898 12.0939 11.907 12.2379 11.887 12.3359C11.8574 12.485 11.7823 12.6213 11.672 12.7259C11.5422 12.8567 11.376 12.9453 11.195 12.9799C11.133 12.9959 11.027 12.9959 8 12.9959C4.973 12.9959 4.867 12.9959 4.805 12.9799C4.62299 12.9439 4.45585 12.8544 4.325 12.7229C4.21688 12.6183 4.14297 12.4834 4.113 12.3359C4.09479 12.2148 4.1016 12.0913 4.133 11.9729C4.3423 11.1856 4.78702 10.4809 5.40766 9.95323C6.0283 9.42552 6.79527 9.09989 7.606 9.01991C7.793 8.99991 7.796 8.99991 8.051 9.00391C8.191 9.00791 8.332 9.01191 8.402 9.01991Z" fill="#202020"/>
</svg>
