<svg width="16" height="16" viewBox="0 0 16 16" fill="none" xmlns="http://www.w3.org/2000/svg">
<path d="M13.438 1.70998C13.3353 1.72348 13.2392 1.76839 13.163 1.83855C13.0867 1.90871 13.034 2.00072 13.012 2.10198C13.004 2.15198 13 2.22998 13 2.58198V2.99998H12.781C12.1052 2.98118 11.4356 3.1336 10.8345 3.44307C10.2334 3.75253 9.72033 4.20899 9.343 4.76998C9.309 4.82398 9.035 5.25798 8.743 5.72698C8.449 6.19498 8.207 6.58598 8.203 6.58998C7.93754 6.25258 7.67718 5.91121 7.422 5.56598C7.14162 5.18726 6.85761 4.81124 6.57 4.43798C6.43739 4.28345 6.29546 4.13718 6.145 3.99998C5.55615 3.4841 4.83001 3.15056 4.055 3.03998C3.789 3.00398 3.809 3.00398 2.305 3.00398C0.957001 3.00398 0.875001 3.00398 0.812001 3.01998C0.609279 3.05801 0.423773 3.15917 0.282001 3.30898C0.146357 3.44669 0.0550981 3.62189 0.020001 3.81198C9.62988e-07 3.90198 9.62988e-07 4.09798 0.020001 4.18798C0.057702 4.38382 0.153044 4.56393 0.293799 4.70522C0.434554 4.84651 0.614305 4.94253 0.810001 4.98098C0.860001 4.99598 0.988001 4.99598 2.281 4.99998C3.816 5.00398 3.727 5.00398 3.934 5.04698C4.324 5.13298 4.707 5.35198 4.977 5.64798C5.012 5.69098 5.497 6.32798 6.051 7.06998L7.062 8.41398L7.023 8.47698C7.003 8.50698 6.762 8.89498 6.488 9.33198C6.215 9.76998 5.968 10.16 5.938 10.199C5.6175 10.6224 5.14342 10.9029 4.618 10.98C4.543 10.996 4.371 10.996 2.699 11C0.691001 11.004 0.855001 11 0.699001 11.047C0.410001 11.133 0.152001 11.387 0.055001 11.68C0.0179248 11.7825 0.000619046 11.891 0.00400096 12C0.00400096 12.277 0.0980009 12.508 0.297001 12.703C0.455687 12.8652 0.665508 12.9676 0.891001 12.993C0.996001 13.003 4.582 13 4.691 12.984C5.066 12.941 5.313 12.891 5.609 12.789C6.379 12.531 7.039 12.059 7.523 11.414C7.633 11.274 7.688 11.188 8.035 10.629C8.285 10.23 8.348 10.133 8.355 10.141C8.359 10.148 8.594 10.453 8.867 10.824C9.145 11.195 9.418 11.547 9.469 11.609C10.0095 12.2361 10.7314 12.6799 11.535 12.879C11.915 12.973 12.172 13 12.695 13H13V13.418C13 13.77 13.004 13.848 13.012 13.898C13.0273 13.9711 13.0592 14.0398 13.1051 14.0987C13.151 14.1576 13.2098 14.2053 13.277 14.238C13.352 14.278 13.414 14.289 13.5 14.289C13.5795 14.2905 13.6583 14.2734 13.73 14.239C13.781 14.211 13.855 14.137 14.738 13.254C15.758 12.238 15.73 12.266 15.77 12.152C15.7933 12.052 15.7933 11.948 15.77 11.848C15.73 11.734 15.758 11.762 14.738 10.746C13.855 9.86298 13.781 9.78898 13.73 9.76198C13.6598 9.7273 13.5823 9.70982 13.504 9.71098C13.3893 9.70791 13.2771 9.74529 13.1871 9.81659C13.0972 9.8879 13.0352 9.98857 13.012 10.101C13.004 10.152 13 10.231 13 10.582V11H12.7C12.383 11 12.293 10.996 12.129 10.965C11.7016 10.8834 11.3122 10.6655 11.019 10.344C10.984 10.309 10.629 9.83598 10.223 9.29298L9.484 8.31298L10.25 7.08598C10.672 6.41398 11.035 5.83598 11.063 5.80098C11.316 5.46498 11.656 5.22298 12.055 5.09398C12.281 5.02398 12.398 5.00798 12.735 5.00398L13 4.99998V5.41798C13 5.88298 13.004 5.90998 13.05 6.01198C13.0982 6.11061 13.1782 6.1902 13.277 6.23798C13.352 6.27798 13.414 6.28898 13.5 6.28898C13.5795 6.29047 13.6583 6.27335 13.73 6.23898C13.781 6.21098 13.855 6.13698 14.738 5.25398C15.48 4.51598 15.699 4.29298 15.723 4.25398C15.7695 4.17777 15.7911 4.08902 15.785 3.99998C15.7911 3.91093 15.7695 3.82218 15.723 3.74598C15.699 3.70698 15.48 3.48398 14.738 2.74598C13.855 1.86298 13.781 1.78898 13.73 1.76198C13.639 1.71809 13.5375 1.70043 13.437 1.71098L13.438 1.70998Z" fill="#202020"/>
</svg>
