<svg width="16" height="16" viewBox="0 0 16 16" fill="none" xmlns="http://www.w3.org/2000/svg">
<path d="M7.352 0.0941843C7.13274 0.118409 6.92206 0.193031 6.73644 0.312212C6.55082 0.431393 6.39528 0.591902 6.282 0.781184C6.12904 1.04211 6.06352 1.3451 6.095 1.64591C6.12649 1.94672 6.25333 2.22959 6.457 2.45318L6.504 2.50018L5 4.00018L3.5 5.50418L3.45 5.45418C3.26335 5.28496 3.03498 5.16852 2.78839 5.11684C2.5418 5.06517 2.28589 5.08013 2.047 5.16018C1.73 5.27018 1.457 5.48818 1.281 5.78118C1.13467 6.02979 1.06932 6.31777 1.094 6.60518C1.117 6.88718 1.204 7.12118 1.367 7.34418C3.10417 9.10297 4.8502 10.853 6.605 12.5942C6.88268 12.8165 7.23397 12.926 7.58881 12.9009C7.94364 12.8757 8.27596 12.7177 8.51949 12.4584C8.76302 12.1991 8.89986 11.8576 8.90274 11.5018C8.90561 11.1461 8.77431 10.8024 8.535 10.5392L8.496 10.5002L10 9.00018L11.5 7.49618L11.54 7.53618C11.7325 7.71551 11.9713 7.83743 12.2295 7.88819C12.4877 7.93895 12.7549 7.91652 13.0009 7.82343C13.247 7.73035 13.4622 7.57031 13.6221 7.3614C13.782 7.15249 13.8804 6.90303 13.906 6.64118C13.946 6.27718 13.828 5.89118 13.594 5.60518C11.8528 3.85038 10.1028 2.10435 8.344 0.367184C8.05891 0.155732 7.70514 0.0583712 7.352 0.0941843Z" fill="#202020"/>
<path d="M11.102 9.01218C11.0619 9.02429 11.0225 9.03864 10.984 9.05518C10.918 9.08518 10.918 9.08518 10.504 9.50418C10.086 9.91818 10.086 9.91818 10.054 9.98418C10.0192 10.0534 10.001 10.1297 10.001 10.2072C10.001 10.2846 10.0192 10.361 10.054 10.4302L10.086 10.4962L11.883 12.2892C13.281 13.6912 13.688 14.0892 13.73 14.1172C13.91 14.2342 14.055 14.2812 14.258 14.2892C14.3747 14.297 14.4917 14.281 14.602 14.2422C14.7517 14.194 14.887 14.1095 14.996 13.9962C15.0913 13.906 15.1666 13.7969 15.2171 13.6758C15.2675 13.5547 15.292 13.4243 15.289 13.2932C15.291 13.1428 15.2574 12.9941 15.191 12.8592C15.121 12.7112 15.207 12.8012 13.289 10.8832L11.496 9.08618L11.43 9.05518C11.3285 9.00481 11.2131 8.98968 11.102 9.01218ZM1.871 14.0082C1.66321 14.0355 1.46927 14.1275 1.31657 14.271C1.16387 14.4146 1.06013 14.6025 1.02 14.8082C1 14.9022 1 15.0982 1.02 15.1912C1.05888 15.3865 1.15492 15.5659 1.29593 15.7066C1.43694 15.8472 1.61656 15.9428 1.812 15.9812C1.875 15.9962 2.032 15.9962 5.5 15.9962C8.945 15.9962 9.125 15.9962 9.191 15.9802C9.38675 15.9419 9.56657 15.8459 9.70735 15.7046C9.84813 15.5633 9.94343 15.3831 9.981 15.1872C10 15.0972 10 14.9022 9.981 14.8132C9.94416 14.6196 9.85111 14.4411 9.71345 14.3001C9.5758 14.1591 9.39965 14.0617 9.207 14.0202L9.137 14.0042H5.53C3.472 14.0042 1.901 14.0042 1.87 14.0082H1.871Z" fill="#202020"/>
</svg>
