<svg width="16" height="16" viewBox="0 0 16 16" fill="none" xmlns="http://www.w3.org/2000/svg">
<path d="M4.824 0.00390625C4.20317 0.0403122 3.6092 0.26965 3.125 0.659906C3 0.757906 2.758 0.999906 2.66 1.12491C2.3 1.57791 2.098 2.06591 2.02 2.66491C2.004 2.76491 2.004 2.99591 2.004 6.85491C2 9.10191 2 11.1249 2 11.3519L2.004 11.7619L2.066 11.7069C2.29516 11.5154 2.55038 11.3575 2.824 11.2379C3.078 11.1329 3.32 11.0659 3.625 11.0229L3.746 11.0029L8.406 10.9999C11.773 10.9999 13.094 10.9999 13.168 11.0079C13.43 11.0309 13.684 11.1019 13.91 11.2179L14 11.2659L13.996 6.06191C13.996 1.08591 13.996 0.858906 13.98 0.804906C13.9407 0.611639 13.8442 0.434652 13.703 0.296906C13.5653 0.155749 13.3883 0.0592421 13.195 0.0199062C13.141 0.00390625 12.953 0.00390625 9 0.00390625H4.824ZM11.204 2.01991C11.5 2.08991 11.727 2.25791 11.871 2.50791C12.066 2.84791 12.039 3.28091 11.805 3.59791C11.6547 3.79493 11.4379 3.93067 11.195 3.97991C11.133 3.99591 10.996 3.99591 8 3.99591C5.004 3.99591 4.867 3.99591 4.805 3.97991C4.61146 3.94075 4.43376 3.8454 4.29413 3.70577C4.15451 3.56615 4.05915 3.38845 4.02 3.19491C4.00054 3.06563 4.00054 2.93418 4.02 2.80491C4.11 2.38691 4.43 2.07791 4.848 2.01191C4.898 2.00391 5.551 1.99991 8.028 2.00391C11 2.00391 11.148 2.00391 11.203 2.01991H11.204ZM8.204 6.01991C8.5 6.08991 8.727 6.25791 8.871 6.50791C9.066 6.84791 9.039 7.28091 8.805 7.59791C8.65465 7.79493 8.43789 7.93067 8.195 7.97991C8.133 7.99591 8.047 7.99591 6.5 7.99591C4.953 7.99591 4.867 7.99591 4.805 7.97991C4.61146 7.94075 4.43376 7.8454 4.29413 7.70577C4.15451 7.56615 4.05915 7.38845 4.02 7.19491C4.00054 7.06563 4.00054 6.93418 4.02 6.80491C4.11 6.38691 4.43 6.07791 4.848 6.01191C4.898 6.00391 5.254 5.99991 6.528 6.00391C8.051 6.00391 8.148 6.00391 8.203 6.01991H8.204ZM3.855 12.0039C3.45011 12.0361 3.06401 12.1882 2.746 12.4409C2.62192 12.5474 2.50809 12.6652 2.406 12.7929C2.19601 13.0714 2.06245 13.3999 2.01855 13.7459C1.97466 14.0919 2.02196 14.4433 2.15576 14.7654C2.28956 15.0875 2.50522 15.369 2.78136 15.582C3.05749 15.795 3.38451 15.9322 3.73 15.9799C3.828 15.9959 3.988 15.9959 8.473 15.9959C12.363 15.9959 13.121 15.9959 13.172 15.9839C13.3744 15.9499 13.5606 15.8518 13.703 15.7039C13.8525 15.559 13.9511 15.3695 13.984 15.1639C13.9996 14.388 13.9996 13.6118 13.984 12.8359C13.9514 12.6304 13.8532 12.441 13.704 12.2959C13.559 12.1519 13.402 12.0659 13.191 12.0159C13.141 12.0039 12.77 12.0039 8.511 12.0039H3.855Z" fill="#202020"/>
</svg>
