<svg width="16" height="16" viewBox="0 0 16 16" fill="none" xmlns="http://www.w3.org/2000/svg">
<g clip-path="url(#clip0_2064_57125)">
<path d="M12.32 0.0040594C11.8362 0.0281946 11.3627 0.153201 10.93 0.371059C10.3823 0.642258 9.91691 1.0548 9.582 1.56606C9.45914 1.74934 9.35464 1.94429 9.27 2.14806C9.0239 2.74605 8.94542 3.39981 9.043 4.03906C9.051 4.10206 9.051 4.10206 9.035 4.11306C9.027 4.11706 8.352 4.45706 7.539 4.86306L6.055 5.60506L5.969 5.51506C5.54591 5.09592 5.02299 4.7915 4.4496 4.63053C3.87622 4.46956 3.27127 4.45735 2.69185 4.59505C2.11244 4.73275 1.57766 5.01581 1.138 5.41754C0.698337 5.81926 0.368287 6.32639 0.178999 6.89106C-0.00139427 7.43727 -0.0454936 8.01931 0.0505429 8.58646C0.146579 9.15362 0.379838 9.68869 0.729999 10.1451C1.27426 10.8468 2.06458 11.3157 2.94128 11.4571C3.81797 11.5986 4.71568 11.402 5.453 10.9071C5.609 10.8011 5.777 10.6681 5.891 10.5551C5.941 10.5081 5.945 10.5041 5.965 10.5151C5.992 10.5271 8.953 12.1721 8.985 12.1911L9.012 12.2071L9.008 12.2891C8.95658 13.1358 9.21301 13.9725 9.73 14.6451C10.094 15.1144 10.5714 15.4835 11.1173 15.7176C11.6632 15.9517 12.2597 16.0432 12.8507 15.9834C13.4416 15.9236 14.0077 15.7145 14.4956 15.3758C14.9836 15.0371 15.3774 14.5798 15.64 14.0471C15.9082 13.4976 16.0288 12.8878 15.9899 12.2777C15.951 11.6675 15.7539 11.078 15.418 10.5671C14.9882 9.91442 14.3508 9.42577 13.609 9.18006C13.0016 8.97947 12.3513 8.94699 11.727 9.08606C10.9556 9.26187 10.2661 9.69277 9.77 10.3091L9.75 10.3291L8.34 9.54306C6.969 8.78106 6.926 8.75806 6.926 8.73806C6.926 8.72706 6.937 8.66006 6.949 8.59806C6.984 8.37806 6.996 8.25806 6.996 8.00006C7.00086 7.81921 6.98779 7.63833 6.957 7.46006C6.949 7.39806 6.949 7.39806 6.965 7.38706C6.973 7.38306 7.648 7.04306 8.461 6.63706L9.945 5.89506L10.047 6.00006C10.51 6.45164 11.0887 6.76675 11.7192 6.91072C12.3498 7.05469 13.0079 7.02193 13.621 6.81606C14.058 6.6693 14.4616 6.43729 14.8084 6.13347C15.1551 5.82964 15.4381 5.46003 15.641 5.04606C15.9091 4.49654 16.0295 3.8867 15.9904 3.27652C15.9513 2.66635 15.754 2.07686 15.418 1.56606C15.2898 1.37054 15.1421 1.1886 14.977 1.02306C14.4255 0.473346 13.7067 0.122912 12.934 0.0270594C12.746 0.0040594 12.477 -0.0029406 12.32 0.0040594Z" fill="#202020"/>
</g>
<defs>
<clipPath id="clip0_2064_57125">
<rect width="16" height="16" fill="white"/>
</clipPath>
</defs>
</svg>
