<svg width="16" height="16" viewBox="0 0 16 16" fill="none" xmlns="http://www.w3.org/2000/svg">
<g clip-path="url(#clip0_2435_51571)">
<path d="M12.32 0.0040594C11.8362 0.0281946 11.3627 0.153201 10.93 0.371059C10.3823 0.642258 9.91691 1.0548 9.582 1.56606C9.45914 1.74934 9.35464 1.94429 9.27 2.14806C9.0239 2.74605 8.94542 3.39981 9.043 4.03906C9.051 4.10206 9.051 4.10206 9.035 4.11306C9.027 4.11706 8.352 4.45706 7.539 4.86306L6.055 5.60506L5.941 5.49206C5.68615 5.24219 5.39357 5.03397 5.074 4.87506C4.68298 4.67568 4.25723 4.55346 3.82 4.51506C3.59354 4.49914 3.3662 4.50081 3.14 4.52006C2.44971 4.5914 1.79612 4.86599 1.262 5.30906C1.10139 5.45014 0.950079 5.60146 0.808999 5.76206C0.641207 5.96368 0.496943 6.18377 0.378999 6.41806C0.183758 6.7997 0.0616562 7.21451 0.0189988 7.64106C-1.22748e-06 7.80906 -1.22748e-06 8.19006 0.0199988 8.35906C0.0989988 9.06606 0.363999 9.69906 0.809999 10.2391C0.899999 10.3481 1.153 10.6021 1.263 10.6911C1.79635 11.1362 2.45081 11.4113 3.142 11.4811C3.31 11.5001 3.692 11.5001 3.86 11.4811C4.41532 11.4261 4.94896 11.237 5.415 10.9301C5.579 10.8241 5.775 10.6721 5.895 10.5501C5.942 10.5081 5.946 10.5041 5.965 10.5161C5.993 10.5271 8.955 12.1721 8.985 12.1911L9.013 12.2071L9.009 12.2891C8.95758 13.1358 9.21401 13.9725 9.731 14.6451C10.095 15.1144 10.5724 15.4835 11.1183 15.7176C11.6642 15.9517 12.2607 16.0432 12.8517 15.9834C13.4426 15.9236 14.0087 15.7145 14.4966 15.3758C14.9846 15.0371 15.3784 14.5798 15.641 14.0471C15.9092 13.4976 16.0298 12.8878 15.9909 12.2777C15.952 11.6675 15.7549 11.078 15.419 10.5671C14.9892 9.91442 14.3518 9.42577 13.61 9.18006C13.0026 8.97947 12.3523 8.94699 11.728 9.08606C10.9566 9.26187 10.2671 9.69277 9.771 10.3091L9.751 10.3291L8.341 9.54306C6.97 8.78106 6.927 8.75806 6.927 8.73806C6.927 8.72706 6.938 8.66006 6.95 8.59806C6.985 8.37806 6.997 8.25806 6.997 8.00006C7.00186 7.81921 6.98879 7.63833 6.958 7.46006C6.95 7.39806 6.95 7.39806 6.966 7.38706C6.974 7.38306 7.649 7.04306 8.462 6.63706L9.946 5.89506L10.048 6.00006C10.511 6.45164 11.0897 6.76675 11.7202 6.91072C12.3508 7.05469 13.0089 7.02193 13.622 6.81606C14.059 6.6693 14.4626 6.43729 14.8094 6.13347C15.1561 5.82964 15.4391 5.46003 15.642 5.04606C15.9101 4.49654 16.0305 3.8867 15.9914 3.27652C15.9523 2.66635 15.755 2.07686 15.419 1.56606C15.2908 1.37054 15.1431 1.1886 14.978 1.02306C14.4265 0.473346 13.7077 0.122912 12.935 0.0270594C12.747 0.0040594 12.478 -0.0029406 12.321 0.0040594H12.32ZM3.66 6.50806C4.105 6.55806 4.496 6.79306 4.742 7.16006C4.85312 7.32517 4.93039 7.51069 4.96934 7.70587C5.00828 7.90105 5.00813 8.10202 4.96888 8.29714C4.92963 8.49226 4.85207 8.67765 4.74069 8.8426C4.62931 9.00754 4.48632 9.14875 4.32 9.25806C4.10312 9.3982 3.85394 9.48042 3.59625 9.49687C3.33855 9.51333 3.08094 9.46347 2.848 9.35206C2.69725 9.28227 2.56064 9.18532 2.445 9.06606C2.32195 8.95099 2.22244 8.8131 2.152 8.66006C1.99497 8.33711 1.95776 7.96889 2.047 7.62106C2.097 7.42106 2.203 7.21506 2.332 7.05506C2.582 6.75227 2.93835 6.55657 3.328 6.50806C3.41 6.50006 3.578 6.50006 3.66 6.50806Z" fill="currentColor"/>
</g>
<defs>
<clipPath id="clip0_2435_51571">
<rect width="16" height="16" fill="white"/>
</clipPath>
</defs>
</svg>
