<svg width="16" height="16" viewBox="0 0 16 16" fill="none" xmlns="http://www.w3.org/2000/svg">
<path d="M12.309 0.00396635C11.5585 0.0481282 10.8415 0.330077 10.262 0.808966C10.1014 0.950047 9.95008 1.10136 9.809 1.26197C9.64121 1.46359 9.49694 1.68367 9.379 1.91797C9.18376 2.29961 9.06166 2.71441 9.019 3.14097C9.004 3.28897 9 3.68397 9.016 3.82097C9.023 3.91797 9.046 4.07397 9.051 4.09397C9.055 4.10197 8.68 4.29297 7.555 4.85497L6.055 5.60497L5.969 5.51497C5.54591 5.09583 5.02299 4.79141 4.4496 4.63044C3.87622 4.46947 3.27127 4.45725 2.69185 4.59495C2.11244 4.73265 1.57766 5.01572 1.138 5.41744C0.698337 5.81917 0.368287 6.32629 0.178999 6.89097C-0.00139427 7.43718 -0.0454936 8.01921 0.0505429 8.58637C0.146579 9.15352 0.379838 9.68859 0.729999 10.145C1.27426 10.8467 2.06458 11.3156 2.94128 11.4571C3.81797 11.5985 4.71568 11.4019 5.453 10.907C5.609 10.801 5.777 10.668 5.891 10.555C5.941 10.508 5.945 10.504 5.965 10.515C5.992 10.527 8.953 12.172 8.985 12.191L9.012 12.207L9.004 12.309C8.95597 13.1915 9.24354 14.0596 9.809 14.739C9.899 14.848 10.152 15.102 10.262 15.191C10.672 15.531 11.145 15.77 11.652 15.895C11.957 15.969 12.168 15.996 12.5 15.996C12.9991 15.9974 13.4928 15.8919 13.9477 15.6864C14.4025 15.481 14.8081 15.1804 15.137 14.805C15.609 14.265 15.898 13.598 15.98 12.859C16 12.691 16 12.309 15.98 12.141C15.909 11.45 15.6344 10.7956 15.191 10.261C15.0499 10.1007 14.8986 9.94973 14.738 9.80897C14.535 9.63808 14.312 9.49236 14.074 9.37497C13.683 9.17559 13.2572 9.05336 12.82 9.01497C12.5935 8.99905 12.3662 9.00072 12.14 9.01997C11.4497 9.09131 10.7961 9.3659 10.262 9.80897C10.156 9.89497 9.902 10.149 9.816 10.25C9.781 10.29 9.75 10.324 9.746 10.324C9.742 10.324 9.106 9.97297 8.332 9.53897C6.969 8.78097 6.926 8.75797 6.926 8.73897C6.926 8.72697 6.937 8.65997 6.949 8.59797C6.984 8.37797 6.996 8.25797 6.996 7.99997C7.00086 7.81912 6.98779 7.63824 6.957 7.45997C6.949 7.39797 6.949 7.39797 6.965 7.38697C6.973 7.38297 7.648 7.04297 8.461 6.63697L9.945 5.89497L10.059 6.00797C10.32 6.26197 10.589 6.45697 10.918 6.62097C11.2998 6.81568 11.7146 6.93776 12.141 6.98097C12.309 6.99997 12.691 6.99997 12.859 6.98097C13.5793 6.90731 14.259 6.61248 14.805 6.13697C15.4707 5.55359 15.8906 4.73959 15.98 3.85897C16 3.69097 16 3.30897 15.98 3.14097C15.909 2.44998 15.6344 1.79564 15.191 1.26097C15.0499 1.10071 14.8986 0.949725 14.738 0.808966C14.535 0.63808 14.312 0.492357 14.074 0.374966C13.6962 0.182591 13.2859 0.0622079 12.864 0.0199664C12.6793 0.00692971 12.4941 0.00159175 12.309 0.00396635ZM12.66 2.00797C13.105 2.05797 13.496 2.29297 13.742 2.65997C13.8531 2.82508 13.9304 3.0106 13.9693 3.20578C14.0083 3.40096 14.0081 3.60192 13.9689 3.79704C13.9296 3.99216 13.8521 4.17756 13.7407 4.3425C13.6293 4.50744 13.4863 4.64866 13.32 4.75797C13.1031 4.89811 12.8539 4.98033 12.5962 4.99678C12.3386 5.01324 12.0809 4.96338 11.848 4.85197C11.6972 4.78218 11.5606 4.68523 11.445 4.56597C11.3219 4.4509 11.2224 4.31301 11.152 4.15997C10.995 3.83702 10.9578 3.4688 11.047 3.12097C11.097 2.92097 11.203 2.71497 11.332 2.55497C11.582 2.25218 11.9383 2.05647 12.328 2.00797C12.41 1.99997 12.578 1.99997 12.66 2.00797ZM12.66 11.008C13.105 11.058 13.496 11.293 13.742 11.66C13.8531 11.8251 13.9304 12.0106 13.9693 12.2058C14.0083 12.401 14.0081 12.6019 13.9689 12.797C13.9296 12.9922 13.8521 13.1776 13.7407 13.3425C13.6293 13.5074 13.4863 13.6487 13.32 13.758C13.1031 13.8981 12.8539 13.9803 12.5962 13.9968C12.3386 14.0132 12.0809 13.9634 11.848 13.852C11.6972 13.7822 11.5606 13.6852 11.445 13.566C11.3219 13.4509 11.2224 13.313 11.152 13.16C10.995 12.837 10.9578 12.4688 11.047 12.121C11.097 11.921 11.203 11.715 11.332 11.555C11.582 11.2522 11.9383 11.0565 12.328 11.008C12.41 11 12.578 11 12.66 11.008Z" fill="#202020"/>
</svg>
