<svg width="16" height="16" viewBox="0 0 16 16" fill="none" xmlns="http://www.w3.org/2000/svg">
<path d="M7.883 0.0472434C7.85422 0.051552 7.82554 0.0565535 7.797 0.0622434C7.73 0.0792434 1.69 1.80624 1.637 1.82524C1.55099 1.85882 1.47044 1.90499 1.398 1.96224C1.20429 2.10625 1.06986 2.31607 1.02 2.55224L1.004 2.62224L1 5.31324C1 8.10224 1 8.20724 1.031 8.51224C1.11025 9.29749 1.34359 10.0594 1.71766 10.7543C2.09173 11.4493 2.5992 12.0637 3.211 12.5622C3.351 12.6802 3.414 12.7222 5.461 14.1882C6.898 15.2152 7.484 15.6282 7.539 15.6562C7.68123 15.7308 7.83942 15.7697 8 15.7697C8.16058 15.7697 8.31877 15.7308 8.461 15.6562C8.516 15.6292 9.105 15.2072 10.566 14.1682C11.684 13.3682 12.645 12.6762 12.703 12.6332C12.898 12.4772 13.043 12.3482 13.243 12.1482C13.449 11.9452 13.555 11.8242 13.711 11.6252C14.4832 10.6454 14.931 9.44931 14.992 8.20324C14.996 8.10524 15 7.05924 15 5.37124C15 2.97724 15 2.68424 14.988 2.60924C14.9618 2.43138 14.8882 2.26386 14.7749 2.1243C14.6616 1.98475 14.5127 1.87833 14.344 1.81624C12.2977 1.22435 10.2494 0.639683 8.199 0.0622434C8.09496 0.041903 7.9885 0.0368498 7.883 0.0472434Z" fill="#202020"/>
</svg>
