<svg width="16" height="16" viewBox="0 0 16 16" fill="none" xmlns="http://www.w3.org/2000/svg">
<path d="M7.898 0.027C5.60768 0.68089 3.31768 1.33589 1.028 1.992L1 2L1.004 5.14C1.004 8.566 1 8.309 1.047 8.668C1.18617 9.76076 1.6227 10.7943 2.309 11.656C2.562 11.969 2.883 12.296 3.199 12.555C3.375 12.699 3.086 12.492 6.266 14.762L8 16L10.254 14.387C11.496 13.5 12.539 12.757 12.574 12.73C12.859 12.52 13.188 12.223 13.438 11.95C14.286 11.0162 14.8188 9.83934 14.961 8.586C14.996 8.27 14.996 8.449 14.996 5.125L15 2L14.95 1.984C14.831 1.954 8 0 8 0C7.996 0 7.953 0.016 7.898 0.027ZM10.457 2.781L12.949 3.492L13 3.508L12.996 5.852C12.996 8.422 13 8.242 12.949 8.547C12.8318 9.26919 12.5199 9.94577 12.047 10.504C11.8682 10.7078 11.6721 10.8958 11.461 11.066C11.391 11.121 8.047 13.512 8.011 13.536C8.005 13.538 8 12.39 8 7.808C8 3.226 8.004 2.078 8.012 2.081C8.016 2.081 9.117 2.397 10.457 2.781Z" fill="#202020"/>
</svg>
