<svg width="16" height="16" viewBox="0 0 16 16" fill="none" xmlns="http://www.w3.org/2000/svg">
<path d="M7.871 0.035C5.828 0.621 1.601 1.828 1.371 1.895C1.199 1.945 1.047 1.988 1.027 1.992L1 2L1.004 5.129C1.004 8.461 1.004 8.254 1.039 8.586C1.13329 9.40314 1.39368 10.1924 1.80417 10.9052C2.21465 11.618 2.76657 12.2393 3.426 12.731C3.461 12.754 4.504 13.5 5.746 14.387L8 16L8.285 15.797C9.602 14.855 12.504 12.785 12.598 12.715C12.844 12.531 13.035 12.359 13.273 12.121C14.134 11.2471 14.7063 10.1302 14.913 8.921C14.949 8.707 14.957 8.621 14.984 8.34C14.992 8.27 14.996 7.438 14.996 5.125L15 2L14.95 1.984C14.831 1.954 8 0 8 0C7.996 0 7.941 0.016 7.871 0.035ZM10.457 2.781L12.949 3.492L13 3.508V8L10.934 8.004C8.977 8.004 8.859 8.004 8.804 8.02C8.61109 8.05952 8.43448 8.15602 8.297 8.297C8.15584 8.43475 8.05934 8.61173 8.02 8.805C8.004 8.859 8.004 8.988 8 11.203L7.996 13.539L6.32 12.344C5.398 11.684 4.61 11.117 4.562 11.082C4.10863 10.7357 3.7351 10.2958 3.46679 9.79231C3.19848 9.28881 3.04166 8.73347 3.007 8.164L3 8.024V8L5.07 7.996C7.023 7.996 7.14 7.996 7.195 7.98C7.38827 7.94066 7.56525 7.84416 7.703 7.703C7.84416 7.56525 7.94066 7.38827 7.98 7.195C7.996 7.141 7.996 7.008 7.996 4.609C8 2.602 8.004 2.079 8.012 2.082C8.016 2.082 9.117 2.398 10.457 2.782V2.781Z" fill="currentColor"/>
</svg>
