<svg width="16" height="16" viewBox="0 0 16 16" fill="none" xmlns="http://www.w3.org/2000/svg">
<path d="M7.633 0.0077954C6.56331 0.053982 5.51389 0.315282 4.54743 0.776088C3.58098 1.23689 2.7173 1.88776 2.008 2.6898C0.824026 4.02871 0.122713 5.72567 0.0160005 7.5098C-0.0567429 8.6814 0.128621 9.85468 0.559 10.9468C1.1564 12.4547 2.1968 13.7461 3.543 14.6508C5.17698 15.7351 7.14979 16.1876 9.093 15.9238C10.328 15.7551 11.5064 15.2998 12.534 14.5943C13.5616 13.8888 14.4098 12.9527 15.011 11.8608C15.6619 10.6787 16.0006 9.35021 15.995 8.0008C16.0004 6.41298 15.5309 4.85982 14.647 3.5408C13.7889 2.25942 12.5782 1.25392 11.161 0.645795C10.4206 0.329311 9.63686 0.126035 8.836 0.0427954C8.43612 0.00611019 8.03434 -0.0055792 7.633 0.0077954ZM5.762 3.0228C5.992 3.0658 6.195 3.1528 6.382 3.2848C6.54588 3.40436 6.68388 3.55584 6.78769 3.73012C6.8915 3.90441 6.95898 4.09789 6.98607 4.29893C7.01317 4.49997 6.99931 4.70442 6.94533 4.89996C6.89136 5.09551 6.79838 5.27812 6.672 5.4368C6.602 5.5228 6.469 5.6518 6.382 5.7148C5.984 5.9998 5.484 6.0748 5.02 5.9218C4.71348 5.81893 4.44867 5.61928 4.26544 5.3529C4.0822 5.08652 3.99045 4.76783 4.004 4.4448C4.016 4.0698 4.156 3.7378 4.41 3.4688C4.66 3.2068 4.969 3.0548 5.336 3.0078C5.43 2.9958 5.664 3.0038 5.762 3.0228ZM10.762 3.0228C10.992 3.0658 11.195 3.1528 11.382 3.2848C11.5459 3.40436 11.6839 3.55584 11.7877 3.73012C11.8915 3.90441 11.959 4.09789 11.9861 4.29893C12.0132 4.49997 11.9993 4.70442 11.9453 4.89996C11.8914 5.09551 11.7984 5.27812 11.672 5.4368C11.602 5.5228 11.469 5.6518 11.382 5.7148C10.984 5.9998 10.484 6.0748 10.02 5.9218C9.71348 5.81893 9.44867 5.61928 9.26544 5.3529C9.0822 5.08652 8.99045 4.76783 9.004 4.4448C9.016 4.0698 9.156 3.7378 9.41 3.4688C9.66 3.2068 9.969 3.0548 10.336 3.0078C10.43 2.9958 10.664 3.0038 10.762 3.0228ZM11.152 8.0118C11.523 8.06579 11.82 8.33179 11.887 8.66379C11.9053 8.78389 11.8985 8.90648 11.867 9.0238C11.6652 9.78377 11.2442 10.4676 10.6565 10.99C10.0688 11.5124 9.34039 11.8504 8.562 11.9618C8.37473 11.99 8.1853 12.0014 7.996 11.9958C7.719 11.9958 7.594 11.9878 7.359 11.9488C6.59766 11.8222 5.88874 11.4795 5.31663 10.9614C4.74452 10.4434 4.33332 9.77187 4.132 9.0268C4.08601 8.86648 4.09161 8.69576 4.148 8.53879C4.2294 8.34804 4.3767 8.19293 4.563 8.1018C4.633 8.06579 4.762 8.02279 4.84 8.0118C4.898 8.00379 5.434 7.9998 7.992 7.9998C10.68 7.9998 11.086 7.99979 11.152 8.0118Z" fill="currentColor"/>
</svg>
