<svg width="16" height="16" viewBox="0 0 16 16" fill="none" xmlns="http://www.w3.org/2000/svg">
<path d="M3.371 0.00790625C3.2374 0.0279179 3.10881 0.0730462 2.992 0.140906C2.87147 0.212783 2.76718 0.30892 2.68576 0.423224C2.60433 0.537527 2.54755 0.667501 2.519 0.804906C2.504 0.858906 2.504 1.08191 2.504 5.92991L2.5 10.9999H1.926C1.71363 10.9981 1.50125 11.0008 1.289 11.0079C1.1558 11.024 1.02723 11.0668 0.911004 11.1338C0.794781 11.2008 0.69331 11.2906 0.612694 11.3979C0.532078 11.5051 0.473982 11.6275 0.441899 11.7578C0.409816 11.8881 0.404408 12.0235 0.426001 12.1559C0.449001 12.3119 0.516001 12.4689 0.606001 12.5859C0.636001 12.6289 1.117 13.1129 2.016 14.0119C3.246 15.2419 3.386 15.3789 3.453 15.4219C3.813 15.6519 4.277 15.6369 4.613 15.3749C4.633 15.3589 5.266 14.7299 6.016 13.9799C7.476 12.5159 7.418 12.5779 7.492 12.4259C7.54878 12.3048 7.58052 12.1734 7.58534 12.0398C7.59015 11.9061 7.56792 11.7728 7.52 11.6479C7.46939 11.5109 7.3892 11.3867 7.28515 11.2843C7.1811 11.1818 7.05575 11.1035 6.918 11.0549C6.758 11.0039 6.793 11.0039 6.118 11.0039L5.5 10.9999L5.496 5.92991C5.496 1.08191 5.496 0.859906 5.48 0.804906C5.44067 0.611639 5.34416 0.434652 5.203 0.296906C5.06864 0.157625 4.89606 0.0612412 4.707 0.0199062C4.641 0.00390625 4.617 0.00390625 4.031 0.00390625C3.699 0.00390625 3.402 0.00390625 3.371 0.00790625ZM7.871 1.00791C7.68711 1.03293 7.51367 1.10814 7.36972 1.22528C7.22577 1.34241 7.11688 1.49694 7.055 1.67191C7.0173 1.777 6.99999 1.88832 7.004 1.99991C7.004 2.13691 7.016 2.21491 7.054 2.32791C7.16 2.61791 7.391 2.84791 7.68 2.94491C7.836 2.99591 7.816 2.99591 8.5 2.99591C9.066 2.99591 9.129 2.99591 9.191 2.97991C9.41849 2.93624 9.62353 2.81435 9.77056 2.63535C9.91759 2.45635 9.99735 2.23155 9.996 1.99991C9.99597 1.77091 9.91759 1.54883 9.77388 1.37055C9.63016 1.19227 9.42977 1.06854 9.206 1.01991C9.141 1.00391 9.113 1.00391 8.531 1.00391C8.199 1.00391 7.902 1.00391 7.871 1.00791ZM7.871 4.00791C7.66321 4.03526 7.46927 4.1272 7.31657 4.27075C7.16387 4.4143 7.06012 4.6022 7.02 4.80791C7 4.90191 7 5.09791 7.02 5.19091C7.05894 5.38638 7.15513 5.56586 7.29634 5.70653C7.43754 5.8472 7.61738 5.9427 7.813 5.98091C7.875 5.99591 7.98 5.99591 10 5.99591C12.008 5.99591 12.125 5.99591 12.191 5.97991C12.3868 5.94159 12.5666 5.84561 12.7073 5.7043C12.8481 5.56298 12.9434 5.3828 12.981 5.18691C13 5.09691 13 4.90191 12.981 4.81191C12.944 4.61849 12.8509 4.44025 12.7132 4.29941C12.5756 4.15856 12.3995 4.06136 12.207 4.01991L12.137 4.00391H10.03C8.839 4.00391 7.902 4.00391 7.871 4.00791ZM7.871 7.00791C7.68711 7.03293 7.51367 7.10814 7.36972 7.22528C7.22577 7.34241 7.11688 7.49694 7.055 7.67191C7.0173 7.777 6.99999 7.88832 7.004 7.99991C7.004 8.13691 7.016 8.21491 7.054 8.32791C7.109 8.47691 7.187 8.60191 7.301 8.71491C7.437 8.84791 7.609 8.93791 7.812 8.97991C7.875 8.99591 8.016 8.99591 11 8.99591C13.965 8.99591 14.125 8.99591 14.191 8.97991C14.3868 8.94159 14.5666 8.84561 14.7073 8.7043C14.8481 8.56298 14.9434 8.3828 14.981 8.18691C15 8.09691 15 7.90191 14.981 7.81291C14.9442 7.61931 14.8511 7.44085 14.7135 7.29981C14.5758 7.15878 14.3997 7.06143 14.207 7.01991L14.137 7.00391H11.03C9.26 7.00391 7.902 7.00391 7.871 7.00791Z" fill="#202020"/>
</svg>
