<svg width="16" height="16" viewBox="0 0 16 16" fill="none" xmlns="http://www.w3.org/2000/svg">
<path d="M3.371 0.00790625C3.2374 0.0279179 3.10881 0.0730462 2.992 0.140906C2.87147 0.212783 2.76718 0.30892 2.68576 0.423224C2.60433 0.537527 2.54755 0.667501 2.519 0.804906C2.504 0.858906 2.504 1.08191 2.504 5.92991L2.5 10.9999H1.926C1.71363 10.9981 1.50125 11.0008 1.289 11.0079C1.1558 11.024 1.02723 11.0668 0.911004 11.1338C0.794781 11.2008 0.69331 11.2906 0.612694 11.3979C0.532078 11.5051 0.473982 11.6275 0.441899 11.7578C0.409816 11.8881 0.404408 12.0235 0.426001 12.1559C0.449001 12.3119 0.516001 12.4689 0.606001 12.5859C0.636001 12.6289 1.117 13.1129 2.016 14.0119C3.246 15.2419 3.386 15.3789 3.453 15.4219C3.813 15.6519 4.277 15.6369 4.613 15.3749C4.633 15.3589 5.266 14.7299 6.016 13.9799C7.476 12.5159 7.418 12.5779 7.492 12.4259C7.54878 12.3048 7.58052 12.1734 7.58534 12.0398C7.59015 11.9061 7.56792 11.7728 7.52 11.6479C7.46939 11.5109 7.3892 11.3867 7.28515 11.2843C7.1811 11.1818 7.05575 11.1035 6.918 11.0549C6.758 11.0039 6.793 11.0039 6.118 11.0039L5.5 10.9999L5.496 5.92991C5.496 1.08191 5.496 0.859906 5.48 0.804906C5.44067 0.611639 5.34416 0.434652 5.203 0.296906C5.06864 0.157625 4.89606 0.0612412 4.707 0.0199062C4.641 0.00390625 4.617 0.00390625 4.031 0.00390625C3.699 0.00390625 3.402 0.00390625 3.371 0.00790625ZM11.871 0.00790625C11.727 0.0279063 11.574 0.0859063 11.453 0.163906C11.387 0.206906 11.27 0.319906 10.297 1.29691C9.352 2.24191 9.207 2.38691 9.168 2.44491C9.05694 2.60835 8.99962 2.80235 9.004 2.99991C9.004 3.27691 9.098 3.50791 9.297 3.70291C9.45617 3.86669 9.66783 3.96934 9.895 3.99291C10.07 4.01191 10.281 3.97691 10.438 3.89791C10.558 3.83591 10.618 3.79291 10.808 3.59791L11 3.40991L11.004 4.77291C11.004 6.28491 11 6.15591 11.054 6.31991C11.121 6.51991 11.274 6.71891 11.454 6.83191C11.6449 6.95896 11.8741 7.01558 12.1022 6.99204C12.3303 6.9685 12.5431 6.86627 12.704 6.70291C12.853 6.5581 12.9512 6.36905 12.984 6.16391C13 6.08991 13 0.909906 12.984 0.835906C12.9514 0.630405 12.8532 0.440971 12.704 0.295906C12.5658 0.152939 12.3865 0.0564884 12.191 0.0199062C12.0851 0.00424146 11.9778 0.000217492 11.871 0.00790625ZM11.293 8.00791C10.9307 8.03957 10.5794 8.14906 10.2632 8.32889C9.94707 8.50871 9.67343 8.75465 9.461 9.04991C9.20584 9.41109 9.05089 9.83341 9.0119 10.2739C8.97291 10.7144 9.05128 11.1574 9.23903 11.5578C9.42678 11.9582 9.71721 12.3017 10.0808 12.5534C10.4444 12.8051 10.8682 12.9561 11.309 12.9909C11.512 13.0069 11.703 12.9989 11.969 12.9559L12 12.9479V13.2489C12 13.5929 11.996 13.6199 11.945 13.7259C11.9026 13.8076 11.8388 13.8763 11.7604 13.9245C11.6821 13.9728 11.592 13.9988 11.5 13.9999C11.375 13.9999 11.273 13.9569 11.145 13.8549C11.0295 13.7567 10.8929 13.6863 10.7459 13.6492C10.5989 13.6121 10.4453 13.6093 10.297 13.6409C10.0729 13.6879 9.87182 13.8106 9.72744 13.9883C9.58306 14.166 9.50417 14.3879 9.504 14.6169C9.504 14.9489 9.641 15.2149 9.934 15.4449C10.086 15.5699 10.214 15.6479 10.391 15.7379C10.648 15.8629 10.906 15.9409 11.199 15.9799C11.324 15.9999 11.652 15.9999 11.769 15.9839C12.3065 15.9256 12.8106 15.6946 13.2056 15.3255C13.6007 14.9564 13.8654 14.4692 13.96 13.9369C13.996 13.7269 13.996 13.7769 13.996 11.9999C13.996 10.2229 13.996 10.2729 13.961 10.0619C13.8429 9.41765 13.4803 8.84399 12.949 8.46091C12.466 8.12304 11.8808 7.96296 11.293 8.00791ZM11.605 10.0119C11.7163 10.0367 11.8158 10.0985 11.8876 10.1871C11.9593 10.2757 11.9989 10.3859 12 10.4999C11.9999 10.5744 11.9831 10.6479 11.9509 10.7151C11.9187 10.7823 11.8719 10.8415 11.8139 10.8882C11.7559 10.935 11.6882 10.9682 11.6157 10.9855C11.5433 11.0027 11.4678 11.0036 11.395 10.9879C11.3231 10.9709 11.2556 10.9388 11.197 10.8938C11.1384 10.8489 11.09 10.792 11.055 10.7269C11.0063 10.6332 10.9891 10.5263 11.0058 10.422C11.0226 10.3178 11.0724 10.2217 11.148 10.1479C11.2066 10.0887 11.2792 10.0452 11.3591 10.0214C11.439 9.99762 11.5235 9.99436 11.605 10.0119Z" fill="#202020"/>
</svg>
