<svg width="16" height="16" viewBox="0 0 16 16" fill="none" xmlns="http://www.w3.org/2000/svg">
<path d="M11.871 0.00818251C11.727 0.0281825 11.574 0.0861825 11.453 0.164183C11.387 0.207183 11.27 0.320183 10.297 1.29718C9.352 2.24218 9.207 2.38718 9.168 2.44518C9.05694 2.60862 8.99962 2.80263 9.004 3.00018C9.004 3.27718 9.098 3.50818 9.297 3.70318C9.45617 3.86697 9.66783 3.96962 9.895 3.99318C10.07 4.01218 10.281 3.97718 10.438 3.89818C10.558 3.83618 10.618 3.79318 10.808 3.59818L11 3.41018L11.004 4.77318C11.004 6.28518 11 6.15618 11.054 6.32018C11.121 6.52018 11.274 6.71918 11.454 6.83218C11.6449 6.95924 11.8741 7.01586 12.1022 6.99232C12.3303 6.96878 12.5431 6.86655 12.704 6.70318C12.853 6.55838 12.9512 6.36933 12.984 6.16418C13 6.09018 13 0.910183 12.984 0.836183C12.9514 0.630682 12.8532 0.441248 12.704 0.296183C12.5658 0.153216 12.3865 0.0567647 12.191 0.0201825C12.0851 0.00451772 11.9778 0.000493754 11.871 0.00818251ZM3.871 0.422183C3.77593 0.437255 3.68297 0.463434 3.594 0.500183C3.426 0.574183 3.508 0.500183 2.016 1.98818C1.117 2.88718 0.636002 3.37118 0.606002 3.41418C0.511621 3.54057 0.449802 3.68825 0.426002 3.84418C0.405129 3.97651 0.411055 4.11167 0.443428 4.24166C0.475801 4.37165 0.533962 4.49381 0.614457 4.60089C0.694952 4.70797 0.79614 4.79778 0.912015 4.865C1.02789 4.93222 1.15609 4.97547 1.289 4.99218C1.329 4.99618 1.579 5.00018 1.926 5.00018H2.5L2.504 10.0662C2.504 14.9182 2.504 15.1412 2.52 15.1962C2.57 15.4102 2.652 15.5592 2.797 15.7032C2.949 15.8552 3.117 15.9452 3.336 15.9842C3.77853 15.9998 4.22147 15.9998 4.664 15.9842C4.8695 15.9516 5.05894 15.8533 5.204 15.7042C5.34497 15.566 5.44113 15.3887 5.48 15.1952C5.496 15.1412 5.496 14.9182 5.496 10.0662L5.5 5.00018H6.074C6.422 5.00018 6.672 4.99618 6.711 4.99218C6.91241 4.96755 7.10138 4.88164 7.25234 4.74606C7.4033 4.61048 7.50895 4.43179 7.555 4.23418C7.598 4.06618 7.594 3.87118 7.543 3.70418C7.50799 3.60085 7.45814 3.50316 7.395 3.41418C7.363 3.37118 6.883 2.88718 5.98 1.98418C4.523 0.531183 4.586 0.590182 4.437 0.516182C4.35887 0.478393 4.27618 0.450832 4.191 0.434182C4.08509 0.41851 3.97779 0.414486 3.871 0.422183ZM11.293 8.00818C10.9307 8.03985 10.5794 8.14933 10.2632 8.32916C9.94707 8.50899 9.67343 8.75493 9.461 9.05018C9.20585 9.41137 9.05089 9.83369 9.0119 10.2742C8.97292 10.7147 9.05128 11.1577 9.23903 11.558C9.42678 11.9584 9.71721 12.302 10.0808 12.5537C10.4444 12.8054 10.8682 12.9564 11.309 12.9912C11.512 13.0072 11.703 12.9992 11.969 12.9562L12 12.9482V13.2492C12 13.5932 11.996 13.6202 11.945 13.7262C11.9026 13.8079 11.8388 13.8765 11.7604 13.9248C11.6821 13.9731 11.592 13.9991 11.5 14.0002C11.375 14.0002 11.273 13.9572 11.145 13.8552C11.0295 13.7569 10.8929 13.6866 10.7459 13.6495C10.5989 13.6124 10.4453 13.6095 10.297 13.6412C10.0729 13.6882 9.87182 13.8109 9.72744 13.9886C9.58306 14.1663 9.50417 14.3882 9.504 14.6172C9.504 14.9492 9.641 15.2152 9.934 15.4452C10.086 15.5702 10.214 15.6482 10.391 15.7382C10.648 15.8632 10.906 15.9412 11.199 15.9802C11.324 16.0002 11.652 16.0002 11.769 15.9842C12.3065 15.9259 12.8106 15.6949 13.2056 15.3258C13.6007 14.9567 13.8654 14.4695 13.96 13.9372C13.996 13.7272 13.996 13.7772 13.996 12.0002C13.996 10.2232 13.996 10.2732 13.961 10.0622C13.8429 9.41792 13.4803 8.84427 12.949 8.46118C12.466 8.12331 11.8808 7.96323 11.293 8.00818ZM11.605 10.0122C11.7163 10.037 11.8158 10.0987 11.8876 10.1873C11.9593 10.2759 11.9989 10.3862 12 10.5002C11.9999 10.5747 11.9831 10.6482 11.9509 10.7154C11.9187 10.7826 11.8719 10.8417 11.8139 10.8885C11.7559 10.9353 11.6882 10.9685 11.6157 10.9858C11.5433 11.003 11.4678 11.0038 11.395 10.9882C11.3231 10.9712 11.2556 10.9391 11.197 10.8941C11.1384 10.8491 11.09 10.7922 11.055 10.7272C11.0063 10.6335 10.9891 10.5266 11.0058 10.4223C11.0226 10.318 11.0724 10.2219 11.148 10.1482C11.2066 10.0889 11.2792 10.0454 11.3591 10.0217C11.439 9.9979 11.5235 9.99463 11.605 10.0122Z" fill="#202020"/>
</svg>
