<svg width="16" height="16" viewBox="0 0 16 16" fill="none" xmlns="http://www.w3.org/2000/svg">
<g clip-path="url(#clip0_2435_54968)">
<path d="M2.82 0.00390625C2.20124 0.0442279 1.60969 0.27317 1.125 0.659906C1 0.757906 0.758002 0.999906 0.660002 1.12491C0.297002 1.58191 0.0900016 2.08191 0.0200016 2.67191C0.00400162 2.78191 0.00400162 3.04291 0.00400162 7.99591C0.00400162 12.9919 0.00400162 13.2109 0.0200016 13.3279C0.0590016 13.6839 0.152002 14.0079 0.305002 14.3159C0.52655 14.7695 0.858998 15.1598 1.27154 15.4507C1.68409 15.7415 2.16338 15.9236 2.665 15.9799C2.754 15.9959 3.109 15.9959 7.915 15.9999C11.59 15.9999 13.102 15.9999 13.191 15.9919C13.6385 15.9653 14.0741 15.8377 14.4652 15.6186C14.8563 15.3995 15.1926 15.0946 15.449 14.7269C15.746 14.3049 15.914 13.8629 15.98 13.3279C15.996 13.2179 15.996 12.9879 15.996 7.99991C15.996 3.01191 15.996 2.78091 15.98 2.67191C15.9186 2.10575 15.6965 1.56897 15.34 1.12491C15.1977 0.955185 15.0407 0.798252 14.871 0.655906C14.4298 0.303047 13.8975 0.08252 13.336 0.0199062C13.234 0.00390625 12.946 0.00390625 8.046 0.00390625H2.82ZM8.195 3.01991C8.445 3.07391 8.656 3.20691 8.809 3.40991C8.844 3.45991 9.246 4.25391 10.891 7.54291C11.5807 8.91808 12.2653 10.2958 12.945 11.6759C12.9824 11.7797 12.9997 11.8896 12.996 11.9999C12.9984 12.0653 12.993 12.1308 12.98 12.1949C12.895 12.5979 12.598 12.8949 12.195 12.9799C12.0657 12.9994 11.9343 12.9994 11.805 12.9799C11.5595 12.9293 11.3411 12.7906 11.191 12.5899C11.156 12.5429 11.059 12.3479 10.766 11.7659L10.383 10.9999H5.617L5.234 11.7659C4.941 12.3479 4.844 12.5429 4.809 12.5899C4.6589 12.7906 4.44046 12.9293 4.195 12.9799C4.06573 12.9994 3.93427 12.9994 3.805 12.9799C3.61135 12.941 3.43352 12.8457 3.29385 12.7061C3.15418 12.5664 3.05891 12.3886 3.02 12.1949C3.00698 12.1308 3.00161 12.0653 3.004 11.9999C2.99999 11.8897 3.01695 11.7798 3.054 11.6759C3.066 11.6409 3.957 9.85191 5.109 7.54291C6.754 4.25791 7.156 3.46091 7.191 3.40991C7.34637 3.20329 7.57375 3.06265 7.828 3.01591C7.859 3.01191 7.891 3.00391 7.898 3.00391C7.99728 3.00006 8.09671 3.00542 8.195 3.01991Z" fill="currentColor"/>
<path d="M7.305 7.62091L6.617 8.99991H9.383L8.695 7.62091C8.312 6.86291 8.004 6.24191 8 6.24191C7.996 6.24191 7.687 6.86291 7.305 7.62191V7.62091Z" fill="currentColor"/>
</g>
<defs>
<clipPath id="clip0_2435_54968">
<rect width="16" height="16" fill="white"/>
</clipPath>
</defs>
</svg>
