<svg width="16" height="16" viewBox="0 0 16 16" fill="none" xmlns="http://www.w3.org/2000/svg">
<g clip-path="url(#clip0_2435_55160)">
<path d="M2.82 0.00390625C2.20124 0.0442279 1.60969 0.27317 1.125 0.659906C1 0.757906 0.758002 0.999906 0.660002 1.12491C0.297002 1.58191 0.0900016 2.08191 0.0200016 2.67191C0.00400162 2.78191 0.00400162 3.04291 0.00400162 7.99591C0.00400162 12.9919 0.00400162 13.2109 0.0200016 13.3279C0.0590016 13.6839 0.152002 14.0079 0.305002 14.3159C0.52655 14.7695 0.858998 15.1598 1.27154 15.4507C1.68409 15.7415 2.16338 15.9236 2.665 15.9799C2.754 15.9959 3.109 15.9959 7.915 15.9999C11.59 15.9999 13.102 15.9999 13.191 15.9919C13.6385 15.9653 14.0741 15.8377 14.4652 15.6186C14.8563 15.3995 15.1926 15.0946 15.449 14.7269C15.746 14.3049 15.914 13.8629 15.98 13.3279C15.996 13.2179 15.996 12.9879 15.996 7.99991C15.996 3.01191 15.996 2.78091 15.98 2.67191C15.9186 2.10575 15.6965 1.56897 15.34 1.12491C15.1977 0.955185 15.0407 0.798252 14.871 0.655906C14.4298 0.303047 13.8975 0.08252 13.336 0.0199062C13.234 0.00390625 12.946 0.00390625 8.046 0.00390625H2.82ZM5.195 4.01991C5.445 4.07391 5.656 4.20691 5.809 4.40991C5.844 4.45991 6.152 5.07391 7.391 7.54291C7.91393 8.58479 8.43193 9.62914 8.945 10.6759C8.98239 10.7797 8.9997 10.8896 8.996 10.9999C8.99839 11.0653 8.99302 11.1308 8.98 11.1949C8.895 11.5979 8.598 11.8949 8.195 11.9799C8.06573 11.9994 7.93427 11.9994 7.805 11.9799C7.55954 11.9293 7.34111 11.7906 7.191 11.5899C7.08261 11.4031 6.98251 11.2116 6.891 11.0159L6.633 10.4999H3.367L3.109 11.0159C2.918 11.3949 2.839 11.5429 2.809 11.5899C2.6589 11.7906 2.44046 11.9293 2.195 11.9799C2.06573 11.9994 1.93427 11.9994 1.805 11.9799C1.61135 11.941 1.43352 11.8457 1.29385 11.7061C1.15418 11.5664 1.05891 11.3886 1.02 11.1949C1.00698 11.1308 1.00161 11.0653 1.004 10.9999C0.999985 10.8897 1.01695 10.7798 1.054 10.6759C1.066 10.6409 1.746 9.27291 2.609 7.54291C3.844 5.07391 4.156 4.46091 4.191 4.40991C4.34637 4.20329 4.57375 4.06265 4.828 4.01591C4.859 4.01191 4.891 4.00391 4.898 4.00391C4.99728 4.00006 5.09671 4.00542 5.195 4.01991ZM11.195 4.01991C11.551 4.09791 11.84 4.34791 11.949 4.68391C12 4.83991 11.996 4.74991 11.996 5.92591L12 6.99991L12.367 7.00391C12.747 7.00791 12.793 7.01191 12.984 7.04691C13.4989 7.14967 13.9685 7.4115 14.3266 7.79546C14.6848 8.17941 14.9133 8.66612 14.98 9.18691C15 9.32391 15 9.67591 14.98 9.81291C14.9137 10.3332 14.6858 10.8196 14.3284 11.2035C13.971 11.5874 13.5022 11.8495 12.988 11.9529C12.762 11.9959 12.781 11.9959 11.789 11.9959C10.929 11.9959 10.867 11.9959 10.805 11.9799C10.6114 11.941 10.4335 11.8457 10.2938 11.7061C10.1542 11.5664 10.0589 11.3886 10.02 11.1949C10.004 11.1329 10.004 10.9959 10.004 7.99991C10.004 5.00391 10.004 4.86691 10.02 4.80491C10.074 4.55491 10.207 4.34391 10.406 4.19491C10.523 4.10891 10.691 4.03891 10.828 4.01491C10.859 4.01191 10.891 4.00391 10.898 4.00391C10.9973 4.00006 11.0967 4.00542 11.195 4.01991Z" fill="currentColor"/>
<path d="M4.68 7.87091L4.367 8.49991H5.633L5.32 7.87091C5.145 7.52291 5.004 7.24191 5 7.24191C4.996 7.24191 4.855 7.52291 4.68 7.87191V7.87091ZM12 9.99991H12.3C12.582 9.99591 12.602 9.99591 12.648 9.97691C12.725 9.95222 12.795 9.90934 12.852 9.85191C12.9074 9.79642 12.9501 9.72954 12.977 9.65591C12.9937 9.60568 13.0005 9.55271 12.997 9.49991C13.0005 9.4471 12.9937 9.39413 12.977 9.34391C12.9495 9.26848 12.9053 9.20021 12.8479 9.14413C12.7904 9.08805 12.7211 9.0456 12.645 9.01991C12.602 9.00391 12.575 9.00391 12.301 8.99991H12V9.99991Z" fill="currentColor"/>
</g>
<defs>
<clipPath id="clip0_2435_55160">
<rect width="16" height="16" fill="white"/>
</clipPath>
</defs>
</svg>
