<svg width="16" height="16" viewBox="0 0 16 16" fill="none" xmlns="http://www.w3.org/2000/svg">
<path d="M7.828 0.49577C7.578 0.53077 7.371 0.62477 7.184 0.78077C7.024 0.91377 6.887 1.11677 6.812 1.34377C6.797 1.39777 6.582 2.08577 6.34 2.87077C6.098 3.65577 5.89 4.32377 5.879 4.35077C5.809 4.51977 5.73 4.63677 5.598 4.76977C5.39835 4.97504 5.13285 5.10354 4.848 5.13277C4.801 5.13677 4.223 5.14077 3.191 5.14077C1.496 5.14077 1.531 5.14077 1.375 5.17977C0.905998 5.29977 0.561999 5.67577 0.464999 6.17577C0.445485 6.32614 0.445485 6.4784 0.464999 6.62877C0.519999 6.89877 0.659999 7.14877 0.858999 7.31577C0.898999 7.34777 1.496 7.80877 2.195 8.34377C2.961 8.92977 3.496 9.33977 3.543 9.38277C3.70878 9.54001 3.82844 9.73956 3.88907 9.95987C3.9497 10.1802 3.94898 10.4128 3.887 10.6328C3.875 10.6718 3.613 11.3828 3.301 12.2188C2.992 13.0548 2.731 13.7538 2.723 13.7768C2.648 14.0118 2.648 14.2848 2.73 14.5308C2.902 15.0468 3.426 15.4108 3.969 15.3868C4.195 15.3788 4.41 15.3088 4.598 15.1838C4.628 15.1638 5.254 14.7228 5.992 14.1988C7.418 13.1908 7.418 13.1908 7.594 13.1288C7.71055 13.0873 7.8333 13.066 7.957 13.0658C8.18321 13.0535 8.40816 13.1066 8.605 13.2188C8.641 13.2338 8.902 13.4138 9.184 13.6168C10.48 14.5348 11.359 15.1568 11.402 15.1838C11.5976 15.3158 11.8276 15.3876 12.0636 15.3904C12.2996 15.3933 12.5312 15.327 12.73 15.1998C12.9654 15.0593 13.1473 14.8445 13.2471 14.5892C13.3469 14.3339 13.3588 14.0526 13.281 13.7898C13.0855 13.2666 12.8915 12.743 12.699 12.2188C12.387 11.3828 12.125 10.6678 12.113 10.6328C12.0506 10.4148 12.0489 10.1839 12.1081 9.965C12.1673 9.74612 12.2852 9.54757 12.449 9.39077C12.492 9.35077 13.023 8.93677 13.789 8.35477C14.489 7.82477 15.089 7.35877 15.129 7.32777C15.2813 7.19667 15.3991 7.03017 15.4719 6.8429C15.5448 6.65563 15.5706 6.45333 15.547 6.25377C15.48 5.72677 15.121 5.30377 14.625 5.17977C14.469 5.13977 14.504 5.13977 12.809 5.13977C11.777 5.13977 11.199 5.13677 11.152 5.13277C10.9712 5.11453 10.7967 5.05669 10.6408 4.96336C10.4849 4.87003 10.3515 4.7435 10.25 4.59277C10.1927 4.50764 10.1457 4.416 10.11 4.31977C10.098 4.28477 9.883 3.59377 9.633 2.78477C9.383 1.97677 9.168 1.29277 9.16 1.26477C9.06795 1.03679 8.9116 0.840494 8.71 0.69977C8.56289 0.60459 8.39895 0.538403 8.227 0.50477C8.09493 0.484568 7.96077 0.481878 7.828 0.49677V0.49577Z" fill="#202020"/>
</svg>
