<svg width="16" height="16" viewBox="0 0 16 16" fill="none" xmlns="http://www.w3.org/2000/svg">
<path d="M2.8 1.00391C2.07782 1.05135 1.39721 1.3586 0.883983 1.86889C0.370753 2.37918 0.0595888 3.05801 0.008 3.77991C0 3.85991 0 5.15191 0 8.06291C0.004 11.9999 0.004 12.2339 0.02 12.3359C0.095911 13.0124 0.399893 13.643 0.881913 14.1237C1.36393 14.6045 1.99527 14.9068 2.672 14.9809C2.782 14.9959 3.023 14.9959 8 14.9959C12.988 14.9959 13.219 14.9959 13.328 14.9799C14.0063 14.9067 14.6391 14.6038 15.1215 14.1214C15.6039 13.639 15.9068 13.0062 15.98 12.3279C15.996 12.2109 15.996 12.0229 15.996 7.99191C15.996 3.45691 16 3.73391 15.957 3.48791C15.8638 2.95103 15.6263 2.44962 15.27 2.0374C14.9136 1.62519 14.4518 1.31771 13.934 1.14791C13.7529 1.08985 13.5672 1.04703 13.379 1.01991L13.262 1.00391H2.8ZM14 7.99991H2V4.99991H14V7.99991ZM14 11.0349C14 12.1559 14 12.1449 13.957 12.2889C13.867 12.6019 13.602 12.8669 13.289 12.9569C13.137 13.0039 13.516 12.9999 8 12.9999C2.473 12.9999 2.867 13.0039 2.707 12.9569C2.55099 12.9092 2.40898 12.8241 2.29327 12.7091C2.17756 12.5941 2.09166 12.4526 2.043 12.2969C2 12.1519 2 12.1639 2 11.0349V9.99991H14V11.0349Z" fill="#202020"/>
</svg>
