<svg width="16" height="16" viewBox="0 0 16 16" fill="none" xmlns="http://www.w3.org/2000/svg">
<path d="M5.871 0.00818251C5.727 0.0281825 5.574 0.0861825 5.453 0.164183C5.387 0.207183 5.262 0.332182 4.191 1.40218L3 2.59018L2.312 1.90218C1.719 1.31218 1.613 1.20718 1.555 1.16818C1.39156 1.05713 1.19755 0.999798 1 1.00418C0.889845 1.00078 0.780007 1.01773 0.676001 1.05418C0.395001 1.14818 0.148001 1.39418 0.055001 1.68018C0.0179248 1.78267 0.000619046 1.89125 0.00400096 2.00018C0.00400096 2.21018 0.051001 2.37118 0.168001 2.55518C0.207001 2.61318 0.352001 2.75818 1.297 3.70318C2.27 4.68018 2.387 4.79318 2.453 4.83618C2.813 5.06618 3.277 5.05118 3.613 4.78918C3.633 4.77318 4.359 4.05118 5.223 3.18818C6.59 1.81518 6.8 1.60518 6.832 1.55018C6.94273 1.38846 7.00007 1.19614 6.996 1.00018C6.99904 0.86903 6.97453 0.738698 6.92406 0.617607C6.87359 0.496515 6.79828 0.387357 6.703 0.297183C6.56516 0.15403 6.38625 0.0572356 6.191 0.0201825C6.08509 0.00451772 5.97779 0.000493754 5.871 0.00818251ZM8.871 2.00818C8.66321 2.03553 8.46927 2.12748 8.31657 2.27103C8.16387 2.41458 8.06013 2.60248 8.02 2.80818C8 2.90218 8 3.09818 8.02 3.19118C8.05895 3.38666 8.15513 3.56613 8.29634 3.7068C8.43754 3.84747 8.61738 3.94298 8.813 3.98118C8.875 3.99618 9.016 3.99618 12 3.99618C14.965 3.99618 15.125 3.99618 15.191 3.98018C15.3866 3.94193 15.5663 3.8461 15.7071 3.70498C15.8479 3.56386 15.9432 3.3839 15.981 3.18818C16 3.09818 16 2.90218 15.981 2.81218C15.944 2.61876 15.8509 2.44052 15.7132 2.29968C15.5756 2.15884 15.3995 2.06163 15.207 2.02018L15.137 2.00418H12.03C10.26 2.00418 8.901 2.00418 8.87 2.00818H8.871ZM5.871 5.00818C5.727 5.02818 5.574 5.08618 5.453 5.16418C5.387 5.20718 5.262 5.33218 4.191 6.40218L3 7.59018L2.312 6.90218C1.719 6.31218 1.613 6.20718 1.555 6.16818C1.39156 6.05713 1.19755 5.9998 1 6.00418C0.889845 6.00078 0.780007 6.01773 0.676001 6.05418C0.395001 6.14818 0.148001 6.39418 0.055001 6.68018C0.0179248 6.78267 0.000619046 6.89125 0.00400096 7.00018C0.00400096 7.21018 0.051001 7.37118 0.168001 7.55518C0.207001 7.61318 0.352001 7.75818 1.297 8.70318C2.27 9.68018 2.387 9.79318 2.453 9.83618C2.813 10.0662 3.277 10.0512 3.613 9.78918C3.633 9.77318 4.359 9.05118 5.223 8.18818C6.59 6.81618 6.8 6.60418 6.832 6.55018C6.94273 6.38846 7.00007 6.19614 6.996 6.00018C6.99904 5.86903 6.97453 5.7387 6.92406 5.61761C6.87359 5.49652 6.79828 5.38736 6.703 5.29718C6.56516 5.15403 6.38625 5.05724 6.191 5.02018C6.08509 5.00452 5.97779 5.00049 5.871 5.00818ZM8.871 7.00818C8.66321 7.03553 8.46927 7.12748 8.31657 7.27103C8.16387 7.41458 8.06013 7.60248 8.02 7.80818C8 7.90218 8 8.09818 8.02 8.19118C8.05895 8.38665 8.15513 8.56613 8.29634 8.7068C8.43754 8.84747 8.61738 8.94298 8.813 8.98118C8.875 8.99618 9.016 8.99618 12 8.99618C14.965 8.99618 15.125 8.99618 15.191 8.98018C15.3868 8.94186 15.5666 8.84588 15.7073 8.70457C15.8481 8.56326 15.9434 8.38308 15.981 8.18718C16 8.09718 16 7.90218 15.981 7.81318C15.9442 7.61958 15.8511 7.44112 15.7135 7.30009C15.5758 7.15906 15.3997 7.0617 15.207 7.02018L15.137 7.00418H12.03C10.26 7.00418 8.901 7.00418 8.87 7.00818H8.871ZM5.871 10.0082C5.727 10.0282 5.574 10.0862 5.453 10.1642C5.387 10.2072 5.262 10.3322 4.191 11.4022L3 12.5902L2.312 11.9022C1.719 11.3122 1.613 11.2072 1.555 11.1682C1.39156 11.0571 1.19755 10.9998 1 11.0042C0.889845 11.0008 0.780007 11.0177 0.676001 11.0542C0.395001 11.1482 0.148001 11.3942 0.055001 11.6802C0.0179248 11.7827 0.000619046 11.8913 0.00400096 12.0002C0.00400096 12.2102 0.051001 12.3712 0.168001 12.5552C0.207001 12.6132 0.352001 12.7582 1.297 13.7032C2.27 14.6802 2.387 14.7932 2.453 14.8362C2.813 15.0662 3.277 15.0512 3.613 14.7892C3.633 14.7732 4.359 14.0512 5.223 13.1882C6.59 11.8162 6.8 11.6042 6.832 11.5502C6.94273 11.3885 7.00007 11.1961 6.996 11.0002C6.99904 10.869 6.97453 10.7387 6.92406 10.6176C6.87359 10.4965 6.79828 10.3874 6.703 10.2972C6.56516 10.154 6.38625 10.0572 6.191 10.0202C6.08509 10.0045 5.97779 10.0005 5.871 10.0082ZM8.871 12.0082C8.66321 12.0355 8.46927 12.1275 8.31657 12.271C8.16387 12.4146 8.06013 12.6025 8.02 12.8082C8 12.9022 8 13.0982 8.02 13.1912C8.05895 13.3867 8.15513 13.5661 8.29634 13.7068C8.43754 13.8475 8.61738 13.943 8.813 13.9812C8.875 13.9962 9.016 13.9962 12 13.9962C14.965 13.9962 15.125 13.9962 15.191 13.9802C15.3868 13.9419 15.5666 13.8459 15.7073 13.7046C15.8481 13.5633 15.9434 13.3831 15.981 13.1872C16 13.0972 16 12.9022 15.981 12.8132C15.9442 12.6196 15.8511 12.4411 15.7135 12.3001C15.5758 12.1591 15.3997 12.0617 15.207 12.0202L15.137 12.0042H12.03C10.26 12.0042 8.901 12.0042 8.87 12.0082H8.871Z" fill="#202020"/>
</svg>
