<svg width="16" height="16" viewBox="0 0 16 16" fill="none" xmlns="http://www.w3.org/2000/svg">
<path d="M1.871 1.00791C1.7374 1.02792 1.6088 1.07305 1.492 1.14091C1.36656 1.21488 1.25884 1.31544 1.17644 1.43552C1.09403 1.55559 1.03892 1.69225 1.015 1.83591C0.999375 2.61183 0.999375 3.38798 1.015 4.16391C1.055 4.38291 1.145 4.55091 1.297 4.70391C1.449 4.85491 1.617 4.94491 1.836 4.98391C2.61192 4.99953 3.38808 4.99953 4.164 4.98391C4.3695 4.9513 4.55893 4.85307 4.704 4.70391C4.85316 4.55884 4.95139 4.36941 4.984 4.16391C4.99962 3.38798 4.99962 2.61183 4.984 1.83591C4.95139 1.63041 4.85316 1.44097 4.704 1.29591C4.56924 1.15682 4.3963 1.06078 4.207 1.01991C4.137 1.00391 4.129 1.00391 3.031 1.00391C2.406 1.00391 1.902 1.00391 1.871 1.00791ZM6.871 1.00791C6.7374 1.02792 6.6088 1.07305 6.492 1.14091C6.36656 1.21488 6.25884 1.31544 6.17643 1.43552C6.09403 1.55559 6.03892 1.69225 6.015 1.83591C5.99937 2.61183 5.99937 3.38798 6.015 4.16391C6.055 4.38291 6.145 4.55091 6.297 4.70391C6.449 4.85491 6.617 4.94491 6.836 4.98391C7.61192 4.99953 8.38808 4.99953 9.164 4.98391C9.3695 4.9513 9.55893 4.85307 9.704 4.70391C9.85316 4.55884 9.95139 4.36941 9.984 4.16391C9.99962 3.38798 9.99962 2.61183 9.984 1.83591C9.95139 1.63041 9.85316 1.44097 9.704 1.29591C9.56924 1.15682 9.3963 1.06078 9.207 1.01991C9.137 1.00391 9.129 1.00391 8.031 1.00391C7.406 1.00391 6.902 1.00391 6.871 1.00791ZM11.871 1.00791C11.7374 1.02792 11.6088 1.07305 11.492 1.14091C11.3666 1.21488 11.2588 1.31544 11.1764 1.43552C11.094 1.55559 11.0389 1.69225 11.015 1.83591C10.9994 2.61183 10.9994 3.38798 11.015 4.16391C11.055 4.38291 11.145 4.55091 11.297 4.70391C11.449 4.85491 11.617 4.94491 11.836 4.98391C12.6119 4.99953 13.3881 4.99953 14.164 4.98391C14.3695 4.9513 14.5589 4.85307 14.704 4.70391C14.8532 4.55884 14.9514 4.36941 14.984 4.16391C14.9996 3.38798 14.9996 2.61183 14.984 1.83591C14.9514 1.63041 14.8532 1.44097 14.704 1.29591C14.5692 1.15682 14.3963 1.06078 14.207 1.01991C14.137 1.00391 14.129 1.00391 13.031 1.00391C12.406 1.00391 11.902 1.00391 11.871 1.00791ZM1.871 6.00791C1.7374 6.02792 1.6088 6.07305 1.492 6.14091C1.36656 6.21488 1.25884 6.31544 1.17644 6.43552C1.09403 6.55559 1.03892 6.69225 1.015 6.83591C0.999375 7.61183 0.999375 8.38798 1.015 9.16391C1.055 9.38291 1.145 9.55091 1.297 9.70391C1.449 9.85491 1.617 9.94491 1.836 9.98391C2.61192 9.99953 3.38808 9.99953 4.164 9.98391C4.3695 9.9513 4.55893 9.85307 4.704 9.70391C4.85316 9.55884 4.95139 9.36941 4.984 9.16391C4.99962 8.38798 4.99962 7.61183 4.984 6.83591C4.95139 6.6304 4.85316 6.44097 4.704 6.29591C4.56924 6.15682 4.3963 6.06078 4.207 6.01991C4.137 6.00391 4.129 6.00391 3.031 6.00391C2.406 6.00391 1.902 6.00391 1.871 6.00791ZM6.871 6.00791C6.7374 6.02792 6.6088 6.07305 6.492 6.14091C6.36656 6.21488 6.25884 6.31544 6.17643 6.43552C6.09403 6.55559 6.03892 6.69225 6.015 6.83591C5.99937 7.61183 5.99937 8.38798 6.015 9.16391C6.055 9.38291 6.145 9.55091 6.297 9.70391C6.449 9.85491 6.617 9.94491 6.836 9.98391C7.61192 9.99953 8.38808 9.99953 9.164 9.98391C9.3695 9.9513 9.55893 9.85307 9.704 9.70391C9.85316 9.55884 9.95139 9.36941 9.984 9.16391C9.99962 8.38798 9.99962 7.61183 9.984 6.83591C9.95139 6.6304 9.85316 6.44097 9.704 6.29591C9.56924 6.15682 9.3963 6.06078 9.207 6.01991C9.137 6.00391 9.129 6.00391 8.031 6.00391C7.406 6.00391 6.902 6.00391 6.871 6.00791ZM11.871 6.00791C11.7374 6.02792 11.6088 6.07305 11.492 6.14091C11.3666 6.21488 11.2588 6.31544 11.1764 6.43552C11.094 6.55559 11.0389 6.69225 11.015 6.83591C10.9994 7.61183 10.9994 8.38798 11.015 9.16391C11.055 9.38291 11.145 9.55091 11.297 9.70391C11.449 9.85491 11.617 9.94491 11.836 9.98391C12.6119 9.99953 13.3881 9.99953 14.164 9.98391C14.3695 9.9513 14.5589 9.85307 14.704 9.70391C14.8532 9.55884 14.9514 9.36941 14.984 9.16391C14.9996 8.38798 14.9996 7.61183 14.984 6.83591C14.9514 6.6304 14.8532 6.44097 14.704 6.29591C14.5692 6.15682 14.3963 6.06078 14.207 6.01991C14.137 6.00391 14.129 6.00391 13.031 6.00391C12.406 6.00391 11.902 6.00391 11.871 6.00791ZM1.871 11.0079C1.7374 11.0279 1.6088 11.073 1.492 11.1409C1.36656 11.2149 1.25884 11.3154 1.17644 11.4355C1.09403 11.5556 1.03892 11.6923 1.015 11.8359C0.999375 12.6118 0.999375 13.388 1.015 14.1639C1.055 14.3829 1.145 14.5509 1.297 14.7039C1.449 14.8549 1.617 14.9449 1.836 14.9839C2.61192 14.9995 3.38808 14.9995 4.164 14.9839C4.3695 14.9513 4.55893 14.8531 4.704 14.7039C4.85316 14.5588 4.95139 14.3694 4.984 14.1639C4.99962 13.388 4.99962 12.6118 4.984 11.8359C4.95139 11.6304 4.85316 11.441 4.704 11.2959C4.56924 11.1568 4.3963 11.0608 4.207 11.0199C4.137 11.0039 4.129 11.0039 3.031 11.0039C2.406 11.0039 1.902 11.0039 1.871 11.0079ZM6.871 11.0079C6.7374 11.0279 6.6088 11.073 6.492 11.1409C6.36656 11.2149 6.25884 11.3154 6.17643 11.4355C6.09403 11.5556 6.03892 11.6923 6.015 11.8359C5.99937 12.6118 5.99937 13.388 6.015 14.1639C6.055 14.3829 6.145 14.5509 6.297 14.7039C6.449 14.8549 6.617 14.9449 6.836 14.9839C7.61192 14.9995 8.38808 14.9995 9.164 14.9839C9.3695 14.9513 9.55893 14.8531 9.704 14.7039C9.85316 14.5588 9.95139 14.3694 9.984 14.1639C9.99962 13.388 9.99962 12.6118 9.984 11.8359C9.95139 11.6304 9.85316 11.441 9.704 11.2959C9.56924 11.1568 9.3963 11.0608 9.207 11.0199C9.137 11.0039 9.129 11.0039 8.031 11.0039C7.406 11.0039 6.902 11.0039 6.871 11.0079ZM11.871 11.0079C11.7374 11.0279 11.6088 11.073 11.492 11.1409C11.3666 11.2149 11.2588 11.3154 11.1764 11.4355C11.094 11.5556 11.0389 11.6923 11.015 11.8359C10.9994 12.6118 10.9994 13.388 11.015 14.1639C11.055 14.3829 11.145 14.5509 11.297 14.7039C11.449 14.8549 11.617 14.9449 11.836 14.9839C12.6119 14.9995 13.3881 14.9995 14.164 14.9839C14.3695 14.9513 14.5589 14.8531 14.704 14.7039C14.8532 14.5588 14.9514 14.3694 14.984 14.1639C14.9996 13.388 14.9996 12.6118 14.984 11.8359C14.9514 11.6304 14.8532 11.441 14.704 11.2959C14.5692 11.1568 14.3963 11.0608 14.207 11.0199C14.137 11.0039 14.129 11.0039 13.031 11.0039C12.406 11.0039 11.902 11.0039 11.871 11.0079Z" fill="#202020"/>
</svg>
