<svg width="16" height="16" viewBox="0 0 16 16" fill="none" xmlns="http://www.w3.org/2000/svg">
<g clip-path="url(#clip0_2435_59522)">
<path d="M6.488 0.00806185C6.34727 0.0275305 6.21225 0.0765271 6.09179 0.151839C5.97132 0.22715 5.86814 0.327076 5.789 0.445062C5.762 0.480062 5.633 0.735062 5.496 1.00806C5.40534 1.19563 5.30896 1.38039 5.207 1.56206C5.17435 1.61042 5.13645 1.65503 5.094 1.69506C4.95886 1.83701 4.78499 1.93611 4.594 1.98006C4.527 1.99606 4.516 1.99606 3.195 2.00006C1.957 2.00406 1.859 2.00406 1.805 2.02006C1.61173 2.0594 1.43475 2.1559 1.297 2.29706C1.20172 2.38724 1.12641 2.49639 1.07594 2.61749C1.02547 2.73858 1.00096 2.86891 1.004 3.00006C1.004 3.27706 1.098 3.50806 1.297 3.70306C1.449 3.85506 1.617 3.94506 1.836 3.98406C1.91 4.00006 14.09 4.00006 14.164 3.98406C14.3695 3.95145 14.5589 3.85323 14.704 3.70406C14.7992 3.61369 14.8744 3.50433 14.9247 3.38306C14.975 3.26179 14.9993 3.13131 14.996 3.00006C14.999 2.86891 14.9745 2.73858 14.9241 2.61749C14.8736 2.49639 14.7983 2.38724 14.703 2.29706C14.5686 2.15778 14.3961 2.0614 14.207 2.02006C14.137 2.00406 14.129 2.00406 12.805 2.00006C11.485 1.99606 11.473 1.99606 11.406 1.98006C11.2805 1.94981 11.1616 1.89694 11.055 1.82406C10.9545 1.75097 10.8661 1.66256 10.793 1.56206C10.77 1.53206 10.637 1.27306 10.493 0.988062C10.211 0.426062 10.195 0.398062 10.07 0.278062C9.9141 0.128932 9.71415 0.034219 9.5 0.00806185C9.418 -0.00393815 6.566 6.18449e-05 6.488 0.00806185ZM3.133 5.00406C3.121 5.00806 3.086 5.01206 3.055 5.01606C2.922 5.03606 2.75 5.10906 2.633 5.19606C2.55286 5.25834 2.48065 5.33021 2.418 5.41006C2.35343 5.50562 2.30229 5.60959 2.266 5.71906C2.23 5.85506 2.219 6.00806 2.234 6.12906C2.25 6.22306 3.758 13.5891 3.789 13.7271C3.95585 14.3941 4.34619 14.9838 4.895 15.3981C5.297 15.6991 5.785 15.9021 6.293 15.9731C6.493 16.0001 6.602 16.0001 8.086 16.0001C9.664 15.9961 9.578 15.9961 9.828 15.9531C10.3979 15.8506 10.926 15.5855 11.3488 15.1899C11.7715 14.7943 12.071 14.2849 12.211 13.7231C12.25 13.5701 13.754 6.20706 13.766 6.11706C13.7776 6.01171 13.7735 5.90523 13.754 5.80106C13.7136 5.61029 13.6192 5.43518 13.4819 5.29667C13.3447 5.15817 13.1704 5.06214 12.98 5.02006L12.91 5.00406H3.133ZM10.203 8.02006C10.5 8.09006 10.727 8.25806 10.871 8.50806C11.066 8.84806 11.039 9.28106 10.805 9.59806C10.6547 9.79508 10.4379 9.93082 10.195 9.98006C10.133 9.99606 10.031 9.99606 8 9.99606C5.969 9.99606 5.867 9.99606 5.805 9.98006C5.61146 9.94091 5.43376 9.84556 5.29413 9.70593C5.15451 9.5663 5.05915 9.3886 5.02 9.19506C5.00054 9.06579 5.00054 8.93433 5.02 8.80506C5.11 8.38706 5.43 8.07806 5.848 8.01206C5.898 8.00406 6.352 8.00006 8.028 8.00406C10.035 8.00406 10.148 8.00406 10.203 8.02006Z" fill="currentColor"/>
</g>
<defs>
<clipPath id="clip0_2435_59522">
<rect width="16" height="16" fill="white"/>
</clipPath>
</defs>
</svg>
