<svg width="16" height="16" viewBox="0 0 16 16" fill="none" xmlns="http://www.w3.org/2000/svg">
<path d="M5.332 2.42608C5.181 2.4542 5.03819 2.5157 4.914 2.60608C4.871 2.63608 4.23 3.27308 2.988 4.51608C1.52 5.98408 1.118 6.39008 1.09 6.43708C0.973217 6.60117 0.912859 6.79874 0.918001 7.00008C0.918001 7.21008 0.965001 7.36708 1.082 7.55008C1.113 7.60508 1.359 7.85208 2.984 9.48008C4.207 10.7031 4.871 11.3631 4.914 11.3951C5.09158 11.5274 5.30982 11.5936 5.531 11.5821C5.75444 11.5763 5.96939 11.4953 6.141 11.3521C6.281 11.2421 6.402 11.0621 6.453 10.8951C6.496 10.7461 6.496 10.8011 6.5 9.90208L6.504 9.07408L6.656 9.09808C7.875 9.30508 9.004 9.82408 9.871 10.5781C10.004 10.6911 10.25 10.9381 10.359 11.0631C10.867 11.6451 11.203 12.2701 11.375 12.9611C11.43 13.1761 11.492 13.3241 11.59 13.4731C11.773 13.7461 12.02 13.9181 12.313 13.9801C12.403 14.0001 12.598 14.0001 12.687 13.9801C13.023 13.9101 13.281 13.7001 13.391 13.3981C13.445 13.2541 13.453 13.1091 13.418 12.8711C13.2531 11.6816 12.8986 10.5263 12.368 9.44908C11.738 8.17908 10.906 7.15208 9.91 6.40608C9.08678 5.78728 8.13498 5.36145 7.125 5.16008C6.94636 5.12243 6.7662 5.09241 6.585 5.07008L6.5 5.06008V4.20808C6.5 3.66508 6.496 3.33308 6.492 3.29008C6.46659 3.08226 6.37626 2.88775 6.23388 2.73424C6.09151 2.58073 5.90433 2.47604 5.699 2.43508C5.57768 2.41488 5.45409 2.41119 5.332 2.42608Z" fill="#202020"/>
</svg>
