<svg width="16" height="16" viewBox="0 0 16 16" fill="none" xmlns="http://www.w3.org/2000/svg">
<path d="M7.871 0.421762C7.77593 0.436834 7.68296 0.463013 7.594 0.499762C7.422 0.577762 7.554 0.449762 5.516 2.48776C4.273 3.72976 3.636 4.37076 3.606 4.41376C3.51162 4.54015 3.4498 4.68783 3.426 4.84376C3.40513 4.97609 3.41105 5.11125 3.44343 5.24124C3.4758 5.37123 3.53396 5.49339 3.61446 5.60047C3.69495 5.70755 3.79614 5.79736 3.91201 5.86458C4.02789 5.9318 4.15609 5.97505 4.289 5.99176C4.332 5.99576 4.656 5.99976 5.176 5.99976H6L6.004 9.06576C6.004 11.9878 6.004 12.1408 6.02 12.1958C6.07 12.4098 6.152 12.5588 6.297 12.7028C6.449 12.8548 6.617 12.9448 6.836 12.9838C6.875 12.9918 7.129 12.9958 8 12.9958C8.871 12.9958 9.125 12.9918 9.164 12.9838C9.3695 12.9512 9.55894 12.8529 9.704 12.7038C9.84497 12.5656 9.94113 12.3883 9.98 12.1948C9.996 12.1408 9.996 11.9878 9.996 9.06976L10 5.99976L10.867 5.99576C11.645 5.99576 11.734 5.99176 11.785 5.97976C11.9204 5.95303 12.0486 5.89831 12.1616 5.81909C12.2746 5.73987 12.3697 5.63792 12.441 5.51976C12.586 5.27276 12.625 4.96876 12.543 4.70276C12.5079 4.59978 12.458 4.50243 12.395 4.41376C12.363 4.37076 11.727 3.72976 10.48 2.48376C8.488 0.491762 8.59 0.593762 8.437 0.515762C8.35887 0.477972 8.27618 0.450412 8.191 0.433762C8.08509 0.418089 7.97779 0.414065 7.871 0.421762ZM2.871 14.0078C2.449 14.0628 2.101 14.3868 2.02 14.8078C2 14.9018 2 15.0978 2.02 15.1908C2.05888 15.3861 2.15492 15.5655 2.29593 15.7061C2.43694 15.8468 2.61656 15.9424 2.812 15.9808C2.875 15.9958 3.082 15.9958 8 15.9958C12.887 15.9958 13.125 15.9958 13.191 15.9798C13.3868 15.9414 13.5666 15.8455 13.7073 15.7042C13.8481 15.5628 13.9434 15.3827 13.981 15.1868C14 15.0968 14 14.9018 13.981 14.8128C13.9442 14.6192 13.8511 14.4407 13.7135 14.2997C13.5758 14.1586 13.3997 14.0613 13.207 14.0198L13.137 14.0038H8.03C5.108 14.0038 2.901 14.0038 2.87 14.0078H2.871Z" fill="#202020"/>
</svg>
