<svg width="16" height="16" viewBox="0 0 16 16" fill="none" xmlns="http://www.w3.org/2000/svg">
<path d="M7.82 0.0040594C7.33623 0.027883 6.86277 0.152548 6.43 0.370059C5.88228 0.641258 5.41691 1.0538 5.082 1.56506C4.902 1.83906 4.782 2.08906 4.68 2.39006C4.49947 2.93619 4.4552 3.51818 4.55107 4.08533C4.64693 4.65249 4.88001 5.1876 5.23 5.64406C5.59403 6.11342 6.07144 6.4825 6.61734 6.71662C7.16324 6.95073 7.7597 7.04219 8.35067 6.98239C8.94164 6.9226 9.5077 6.71351 9.99563 6.37479C10.4836 6.03606 10.8774 5.57883 11.14 5.04606C11.4082 4.49663 11.5288 3.88683 11.4899 3.27666C11.451 2.66648 11.2539 2.07695 10.918 1.56606C10.7899 1.3702 10.6421 1.18792 10.477 1.02206C9.9254 0.472712 9.2066 0.122638 8.434 0.0270594C8.246 0.0040594 7.977 -0.0029406 7.82 0.0040594ZM7.715 8.00406C7.675 8.00806 7.563 8.01206 7.461 8.02006C6.14143 8.10651 4.86439 8.52141 3.746 9.22706C2.31166 10.129 1.19983 11.4621 0.569999 13.0351C0.464873 13.2766 0.411723 13.5376 0.413999 13.8011C0.413999 13.9731 0.429999 14.1011 0.468999 14.2611C0.651999 14.9841 1.266 15.5861 2.089 15.8551C2.277 15.9151 2.461 15.9571 2.676 15.9801C2.781 15.9961 3.046 15.9961 8 15.9961C12.984 15.9961 13.219 15.9961 13.328 15.9801C13.984 15.8981 14.555 15.6331 14.98 15.2071C15.277 14.9071 15.48 14.5431 15.555 14.1601C15.6012 13.9079 15.5985 13.6492 15.547 13.3981C15.497 13.1761 15.375 12.8711 15.172 12.4571C14.4893 11.0759 13.4226 9.92117 12.0999 9.1313C10.7772 8.34143 9.25466 7.95002 7.715 8.00406Z" fill="#202020"/>
</svg>
