<svg width="16" height="16" viewBox="0 0 16 16" fill="none" xmlns="http://www.w3.org/2000/svg">
<path d="M7.863 1.67193C7.473 1.69893 7.102 1.83993 6.793 2.06993C6.61976 2.20527 6.46803 2.3661 6.343 2.54693C6.254 2.67993 0.770002 11.9969 0.708002 12.1199C0.614002 12.3079 0.548002 12.5149 0.517002 12.7329C0.497002 12.8389 0.501002 13.1789 0.521002 13.2839C0.560002 13.5219 0.622002 13.7139 0.728002 13.9169C1.044 14.5299 1.638 14.9289 2.325 14.9909C2.458 15.0029 13.544 15.0029 13.677 14.9909C14 14.9622 14.3112 14.8553 14.5837 14.6795C14.8561 14.5036 15.0817 14.2641 15.2409 13.9815C15.4001 13.699 15.4881 13.3819 15.4973 13.0578C15.5066 12.7336 15.4368 12.4121 15.294 12.1209C15.231 11.9949 9.747 2.67893 9.657 2.54593C9.49813 2.31324 9.29367 2.11524 9.056 1.96393C8.86387 1.85046 8.65593 1.7662 8.439 1.71393C8.25002 1.67462 8.05672 1.66017 7.864 1.67093L7.863 1.67193ZM8.203 4.01993C8.40687 4.06191 8.59256 4.16647 8.73417 4.31902C8.87578 4.47157 8.96627 4.6645 8.993 4.87093C8.996 4.91093 9 5.57793 9 7.00393C9 8.77693 9 9.08593 8.988 9.14793C8.96022 9.32952 8.88329 9.50006 8.76555 9.64107C8.6478 9.78208 8.49373 9.8882 8.32 9.94793C8.21701 9.98271 8.10867 9.99896 8 9.99593C7.84384 10.0012 7.68893 9.96642 7.55 9.89493C7.41405 9.8265 7.29558 9.72783 7.20371 9.60648C7.11183 9.48513 7.04899 9.34435 7.02 9.19493C7.004 9.13293 7.004 9.03093 7.004 6.99993C7.004 4.96893 7.004 4.86693 7.02 4.80493C7.11 4.38693 7.426 4.08193 7.848 4.01193C7.96617 3.99895 8.08554 4.00164 8.203 4.01993ZM8.203 11.0199C8.38013 11.0576 8.54376 11.1425 8.67653 11.2656C8.80931 11.3887 8.90627 11.5455 8.95712 11.7193C9.00798 11.8931 9.01084 12.0774 8.96539 12.2527C8.91995 12.428 8.82789 12.5877 8.699 12.7149C8.56122 12.8516 8.38569 12.9439 8.195 12.9799C8.06573 12.9994 7.93427 12.9994 7.805 12.9799C7.61146 12.9408 7.43376 12.8454 7.29413 12.7058C7.15451 12.5662 7.05915 12.3885 7.02 12.1949C7.00054 12.0657 7.00054 11.9342 7.02 11.8049C7.11 11.3869 7.426 11.0819 7.848 11.0119C7.96617 10.999 8.08554 11.0016 8.203 11.0199Z" fill="#202020"/>
</svg>
