<svg width="16" height="16" viewBox="0 0 16 16" fill="none" xmlns="http://www.w3.org/2000/svg">
<g clip-path="url(#clip0_2064_63901)">
<path d="M2.828 1.00409C2.19691 1.03956 1.59346 1.27491 1.105 1.67609C0.992002 1.76609 0.750002 2.01209 0.652002 2.13309C0.299018 2.57541 0.0797476 3.10936 0.0200016 3.67209C0.00400162 3.77709 0.00400162 3.92209 0.00400162 6.00009C0.00400162 8.07809 0.00400162 8.22309 0.0200016 8.32809C0.0900016 8.91809 0.297002 9.41809 0.660002 9.87509C0.758002 10.0001 1 10.2421 1.129 10.3441C1.582 10.7041 2.086 10.9101 2.672 10.9801C2.777 10.9961 2.984 10.9961 6.496 10.9961C10.039 10.9961 10.211 10.9961 10.328 10.9801C10.9964 10.9095 11.6207 10.6132 12.098 10.1401C12.5764 9.67531 12.8845 9.06318 12.973 8.40209C13 8.19509 13 8.10209 13 5.91809C12.996 3.93009 12.996 3.76209 12.98 3.66409C12.9175 3.10065 12.6954 2.56675 12.34 2.12509C12.1993 1.95771 12.0452 1.80219 11.879 1.66009C11.4005 1.27847 10.8175 1.05111 10.207 1.00809C10.109 1.00009 2.93 1.00009 2.828 1.00409ZM3.203 3.02009C3.38021 3.0576 3.54395 3.14239 3.67685 3.26547C3.80974 3.38855 3.90683 3.54532 3.95779 3.71914C4.00876 3.89296 4.0117 4.07733 3.96631 4.25268C3.92092 4.42804 3.8289 4.58783 3.7 4.71509C3.56222 4.85176 3.38669 4.94405 3.196 4.98009C3.06673 4.99955 2.93527 4.99955 2.806 4.98009C2.6568 4.95054 2.51626 4.88748 2.39499 4.79567C2.27373 4.70385 2.17491 4.58569 2.106 4.45009C2.03451 4.31116 1.99974 4.15625 2.005 4.00009C2.005 3.90609 2.009 3.85509 2.021 3.80509C2.111 3.38709 2.427 3.08209 2.849 3.01209C2.96717 2.99912 3.08554 3.00181 3.203 3.02009ZM6.203 3.02009C6.38021 3.0576 6.54395 3.14239 6.67685 3.26547C6.80974 3.38855 6.90683 3.54532 6.95779 3.71914C7.00876 3.89296 7.0117 4.07733 6.96631 4.25268C6.92092 4.42804 6.8289 4.58783 6.7 4.71509C6.56222 4.85176 6.38669 4.94405 6.196 4.98009C6.06673 4.99955 5.93527 4.99955 5.806 4.98009C5.61246 4.94094 5.43476 4.84559 5.29513 4.70596C5.15551 4.56633 5.06015 4.38863 5.021 4.19509C5.00154 4.06582 5.00154 3.93436 5.021 3.80509C5.111 3.38709 5.427 3.08209 5.849 3.01209C5.96717 2.99912 6.08554 3.00181 6.203 3.02009ZM9.203 3.02009C9.38021 3.0576 9.54395 3.14239 9.67685 3.26547C9.80974 3.38855 9.90683 3.54532 9.95779 3.71914C10.0088 3.89296 10.0117 4.07733 9.96631 4.25268C9.92093 4.42804 9.8289 4.58783 9.7 4.71509C9.56222 4.85176 9.38669 4.94405 9.196 4.98009C9.06673 4.99955 8.93527 4.99955 8.806 4.98009C8.6568 4.95054 8.51626 4.88748 8.39499 4.79567C8.27373 4.70385 8.17491 4.58569 8.106 4.45009C8.03451 4.31116 7.99974 4.15625 8.005 4.00009C8.005 3.90609 8.009 3.85509 8.021 3.80509C8.111 3.38709 8.427 3.08209 8.849 3.01209C8.96717 2.99912 9.08654 3.00181 9.204 3.02009H9.203Z" fill="#202020"/>
<path d="M13.996 6.73009C13.996 8.12509 13.992 8.30509 13.98 8.39809C13.9251 8.94819 13.7565 9.48087 13.4848 9.96236C13.2132 10.4438 12.8444 10.8636 12.402 11.1951C11.8713 11.5968 11.2483 11.8588 10.59 11.9571C10.313 11.9971 10.586 11.9971 6.645 11.9971L2.996 12.0001L3.004 12.1171C3.031 12.7731 3.25 13.3591 3.66 13.8751C3.758 14.0001 4 14.2421 4.129 14.3441C4.582 14.7041 5.086 14.9101 5.672 14.9801C5.777 14.9961 5.984 14.9961 9.496 14.9961C13.039 14.9961 13.211 14.9961 13.328 14.9801C13.9964 14.9095 14.6207 14.6132 15.098 14.1401C15.5764 13.6753 15.8845 13.0632 15.973 12.4021C16 12.1951 16 12.1021 16 9.91809C15.996 7.93009 15.996 7.76209 15.98 7.66409C15.9175 7.10065 15.6954 6.56675 15.34 6.12509C15.1993 5.95771 15.0452 5.80219 14.879 5.66009C14.6975 5.519 14.5025 5.39608 14.297 5.29309C14.2003 5.25039 14.1026 5.21004 14.004 5.17209C14 5.17209 14 5.87509 13.996 6.73009Z" fill="#202020"/>
</g>
<defs>
<clipPath id="clip0_2064_63901">
<rect width="16" height="16" fill="white"/>
</clipPath>
</defs>
</svg>
