<svg width="16" height="16" viewBox="0 0 16 16" fill="none" xmlns="http://www.w3.org/2000/svg">
<g clip-path="url(#clip0_3369_7874)">
<path d="M3.75 0.0080034C2.80078 0.0661109 1.90348 0.461182 1.21965 1.12209C0.535834 1.78299 0.110418 2.66631 0.0200011 3.613C1.06823e-06 3.793 1.06823e-06 4.203 0.0200011 4.387C0.105001 5.227 0.430001 5.98 0.965001 6.609C1.31871 7.01838 1.7516 7.35194 2.23761 7.58962C2.72362 7.8273 3.2527 7.96417 3.793 7.992C3.82 7.992 3.843 7.996 3.843 8C3.843 8.004 3.82 8.008 3.785 8.008C3.20148 8.03812 2.63172 8.19616 2.11606 8.47093C1.6004 8.74569 1.15145 9.13047 0.801001 9.598C0.359001 10.188 0.101001 10.852 0.0200011 11.613C1.06823e-06 11.793 1.06823e-06 12.203 0.0200011 12.387C0.105001 13.227 0.430001 13.98 0.965001 14.609C1.063 14.727 1.277 14.938 1.391 15.035C1.93 15.496 2.582 15.805 3.273 15.934C3.531 15.98 3.711 15.996 4 15.996C4.29 15.996 4.469 15.98 4.727 15.934C5.60862 15.7713 6.40993 15.317 7.00211 14.6439C7.59429 13.9708 7.94294 13.1182 7.992 12.223C7.996 12.145 8.004 12.082 8.004 12.078C8.008 12.078 8.008 12.09 8.008 12.102C8.008 12.148 8.031 12.254 8.055 12.328C8.16 12.618 8.391 12.848 8.68 12.945C8.84 13 8.75 12.996 9.93 12.996L11 13L11.004 14.07C11.004 15.125 11.004 15.137 11.02 15.207C11.066 15.41 11.16 15.574 11.3 15.715C11.437 15.848 11.61 15.938 11.812 15.98C11.902 16 12.094 16 12.192 15.98C12.543 15.91 12.832 15.66 12.945 15.32C13 15.16 12.996 15.25 12.996 14.07L13 13L14.07 12.996C15.125 12.996 15.137 12.996 15.207 12.98C15.613 12.883 15.895 12.594 15.98 12.187C16 12.097 16 11.902 15.98 11.813C15.9426 11.6198 15.8495 11.4418 15.7122 11.3008C15.5748 11.1599 15.3992 11.0623 15.207 11.02C15.137 11.004 15.125 11.004 14.07 11.004L13 11L12.996 9.93C12.996 8.75 13 8.84 12.946 8.676C12.884 8.49557 12.7715 8.33673 12.6219 8.21832C12.4723 8.09992 12.2919 8.02692 12.102 8.008C12.086 8.004 12.113 8 12.16 7.996C12.9708 7.96408 13.7527 7.68607 14.4017 7.19895C15.0507 6.71182 15.5359 6.03866 15.793 5.269C15.9598 4.76713 16.026 4.23728 15.9877 3.70979C15.9495 3.1823 15.8075 2.66755 15.57 2.195C15.3823 1.81893 15.1344 1.47607 14.836 1.18C14.1791 0.520106 13.3127 0.109893 12.386 0.0200034C12.199 3.40119e-06 11.796 3.40119e-06 11.613 0.0200034C10.7249 0.107132 9.89128 0.488386 9.24452 1.10326C8.59776 1.71814 8.17488 2.53141 8.043 3.414C8.0261 3.53712 8.01442 3.6609 8.008 3.785C8.008 3.82 8.004 3.844 8 3.844C7.996 3.844 7.992 3.82 7.992 3.789C7.992 3.687 7.965 3.453 7.934 3.277C7.82159 2.67175 7.57299 2.1 7.207 1.605C7.03024 1.37164 6.82984 1.15717 6.609 0.965003C5.98479 0.431358 5.21217 0.101583 4.395 0.0200034C4.18038 0.00430894 3.96506 0.000303018 3.75 0.0080034ZM4.184 2.008C4.45145 2.03231 4.71127 2.11017 4.94801 2.23695C5.18474 2.36374 5.39355 2.53686 5.562 2.746C5.684 2.902 5.812 3.129 5.879 3.309C5.918 3.41 5.965 3.598 5.98 3.715C5.992 3.785 5.996 3.855 5.996 4C5.996 4.219 5.984 4.309 5.937 4.496C5.81816 4.97582 5.52241 5.39301 5.109 5.664C4.85267 5.83552 4.55996 5.94507 4.254 5.984C4.144 6 3.832 6 3.714 5.98C3.57611 5.9592 3.44051 5.92538 3.309 5.879C3.10732 5.80085 2.91777 5.69445 2.746 5.563C2.63374 5.46966 2.53061 5.36586 2.438 5.253C2.20922 4.96413 2.06334 4.61845 2.016 4.253C2.00043 4.08436 2.00043 3.91464 2.016 3.746C2.07 3.367 2.207 3.036 2.437 2.746C2.64528 2.48934 2.91345 2.2878 3.2179 2.15912C3.52236 2.03043 3.85478 1.97854 4.184 2.008ZM12.184 2.008C12.4516 2.03218 12.7116 2.10997 12.9486 2.23676C13.1855 2.36355 13.3944 2.53674 13.563 2.746C13.683 2.902 13.813 3.129 13.879 3.309C13.918 3.41 13.965 3.598 13.98 3.715C13.992 3.785 13.996 3.855 13.996 4C13.996 4.219 13.984 4.309 13.937 4.496C13.8182 4.97582 13.5224 5.39301 13.109 5.664C12.8527 5.83552 12.56 5.94507 12.254 5.984C12.144 6 11.832 6 11.714 5.98C11.5761 5.9592 11.4405 5.92538 11.309 5.879C11.1073 5.80085 10.9178 5.69445 10.746 5.563C10.6334 5.46971 10.5299 5.36591 10.437 5.253C10.242 5.00325 10.106 4.71269 10.039 4.403C10.012 4.27045 10.0002 4.13523 10.004 4C10.004 3.812 10.012 3.746 10.039 3.598C10.102 3.297 10.242 2.996 10.438 2.746C10.5 2.664 10.664 2.5 10.746 2.438C11.1522 2.11502 11.6672 1.96102 12.184 2.008ZM8.008 4.215C8.05589 5.09665 8.39213 5.93814 8.965 6.61C9.063 6.727 9.277 6.937 9.391 7.035C9.93 7.496 10.582 7.805 11.273 7.934C11.449 7.964 11.586 7.98 11.84 7.996L11.926 8.004L11.871 8.008C11.6666 8.03831 11.4761 8.12938 11.3242 8.26937C11.1722 8.40936 11.0659 8.5918 11.019 8.793C11.004 8.863 11.004 8.875 11.004 9.93L11 11L9.93 11.004C8.75 11.004 8.84 11 8.68 11.054C8.43654 11.1343 8.23437 11.3071 8.117 11.535C8.05618 11.6473 8.01876 11.7708 8.007 11.898C8.004 11.914 8 11.887 7.997 11.84C7.973 11.48 7.945 11.3 7.879 11.023C7.74959 10.511 7.5213 10.0293 7.207 9.605C7.03024 9.37164 6.82984 9.15717 6.609 8.965C5.93717 8.39272 5.0962 8.05654 4.215 8.008C4.18 8.008 4.156 8.004 4.156 8C4.156 7.996 4.18 7.992 4.211 7.992C5.18875 7.94058 6.11357 7.53189 6.80985 6.84353C7.50613 6.15518 7.92539 5.2351 7.988 4.258C7.996 4.148 8.008 4.118 8.008 4.215ZM4.184 10.008C4.45145 10.0323 4.71127 10.1102 4.94801 10.237C5.18474 10.3637 5.39355 10.5369 5.562 10.746C5.684 10.902 5.812 11.129 5.879 11.309C5.918 11.41 5.965 11.598 5.98 11.715C5.992 11.785 5.996 11.855 5.996 12C5.996 12.219 5.984 12.309 5.937 12.496C5.81816 12.9758 5.52241 13.393 5.109 13.664C4.85267 13.8355 4.55996 13.9451 4.254 13.984C4.144 14 3.832 14 3.714 13.98C3.57611 13.9592 3.44051 13.9254 3.309 13.879C3.10732 13.8008 2.91777 13.6945 2.746 13.563C2.63374 13.4697 2.53061 13.3659 2.438 13.253C2.20922 12.9641 2.06334 12.6184 2.016 12.253C2.00043 12.0844 2.00043 11.9146 2.016 11.746C2.07 11.367 2.207 11.036 2.437 10.746C2.64528 10.4893 2.91345 10.2878 3.2179 10.1591C3.52236 10.0304 3.85478 9.97854 4.184 10.008Z" fill="currentColor"/>
</g>
<defs>
<clipPath id="clip0_3369_7874">
<rect width="16" height="16" fill="white"/>
</clipPath>
</defs>
</svg>
