<svg width="16" height="16" viewBox="0 0 16 16" fill="none" xmlns="http://www.w3.org/2000/svg">
<g clip-path="url(#clip0_2538_9387)">
<path d="M7.871 0.0079978C7.66321 0.0353488 7.46927 0.127294 7.31657 0.270844C7.16387 0.414394 7.06013 0.602293 7.02 0.807998C7 0.901998 7 1.098 7.02 1.191C7.05895 1.38647 7.15513 1.56595 7.29634 1.70662C7.43754 1.84729 7.61738 1.94279 7.813 1.981C7.875 1.996 8.031 1.996 11.5 1.996C14.945 1.996 15.125 1.996 15.191 1.98C15.3866 1.94175 15.5663 1.84591 15.7071 1.7048C15.8479 1.56368 15.9432 1.38371 15.981 1.188C16 1.098 16 0.901998 15.981 0.812998C15.9442 0.619397 15.8511 0.440938 15.7135 0.299906C15.5758 0.158874 15.3997 0.0615193 15.207 0.0199978L15.137 0.0039978H11.53C9.472 0.0039978 7.902 0.0039978 7.871 0.0079978ZM7.871 3.008C7.68711 3.03302 7.51367 3.10823 7.36972 3.22537C7.22578 3.3425 7.11688 3.49703 7.055 3.672C7.0173 3.77709 6.99999 3.88842 7.004 4C7.004 4.137 7.016 4.215 7.054 4.328C7.109 4.477 7.187 4.602 7.301 4.715C7.437 4.848 7.609 4.938 7.812 4.98C7.875 4.996 7.996 4.996 10.5 4.996C12.984 4.996 13.125 4.996 13.191 4.98C13.3868 4.94168 13.5666 4.8457 13.7074 4.70439C13.8481 4.56308 13.9434 4.38289 13.981 4.187C14 4.097 14 3.902 13.981 3.812C13.944 3.61858 13.8509 3.44034 13.7132 3.2995C13.5756 3.15866 13.3995 3.06145 13.207 3.02L13.137 3.004H10.53C9.05 3.004 7.902 3.004 7.871 3.008ZM3.438 5.71C3.33526 5.7235 3.23921 5.7684 3.16296 5.83857C3.0867 5.90873 3.03398 6.00074 3.012 6.102C3.004 6.152 3 6.23 3 6.582V7H1.73C0.610002 7 0.453002 7 0.402002 7.012C0.306281 7.03095 0.218256 7.07766 0.148903 7.1463C0.0795498 7.21494 0.0319371 7.30248 0.0120016 7.398C-0.00799835 7.488 -0.00799835 8.512 0.0120016 8.602C0.0510016 8.797 0.203002 8.945 0.402002 8.988C0.453002 9 0.602002 9 1.73 9H3V9.418C3 9.883 3.004 9.91 3.05 10.012C3.09821 10.1106 3.17815 10.1902 3.277 10.238C3.352 10.278 3.414 10.289 3.5 10.289C3.59 10.289 3.633 10.281 3.719 10.242L3.785 10.211L4.738 9.258C5.758 8.238 5.73 8.266 5.77 8.152C5.79333 8.05201 5.79333 7.94799 5.77 7.848C5.73 7.734 5.758 7.762 4.738 6.746C3.855 5.863 3.781 5.789 3.73 5.762C3.63927 5.7183 3.53818 5.69964 3.438 5.71ZM7.871 6.008C7.64399 6.03818 7.43426 6.14551 7.277 6.312C7.13953 6.45661 7.04861 6.63915 7.016 6.836C7.00038 7.61192 7.00038 8.38808 7.016 9.164C7.055 9.383 7.145 9.551 7.296 9.704C7.449 9.855 7.617 9.945 7.836 9.984C7.91 10 15.09 10 15.164 9.984C15.3695 9.95139 15.5589 9.85316 15.704 9.704C15.8532 9.55893 15.9514 9.3695 15.984 9.164C15.9996 8.38808 15.9996 7.61192 15.984 6.836C15.9514 6.6305 15.8532 6.44106 15.704 6.296C15.5692 6.15691 15.3963 6.06087 15.207 6.02L15.137 6.004H11.53C9.44 6.004 7.902 6.004 7.871 6.008ZM7.871 11.008C7.66321 11.0353 7.46927 11.1273 7.31657 11.2708C7.16387 11.4144 7.06013 11.6023 7.02 11.808C7 11.902 7 12.098 7.02 12.191C7.05895 12.3865 7.15513 12.5659 7.29634 12.7066C7.43754 12.8473 7.61738 12.9428 7.813 12.981C7.875 12.996 7.98 12.996 10 12.996C12.008 12.996 12.125 12.996 12.191 12.98C12.3868 12.9417 12.5666 12.8457 12.7074 12.7044C12.8481 12.5631 12.9434 12.3829 12.981 12.187C13 12.097 13 11.902 12.981 11.813C12.9442 11.6194 12.8511 11.4409 12.7135 11.2999C12.5758 11.1589 12.3997 11.0615 12.207 11.02L12.137 11.004H10.03C8.839 11.004 7.902 11.004 7.871 11.008ZM7.871 14.008C7.68711 14.033 7.51367 14.1082 7.36972 14.2254C7.22578 14.3425 7.11688 14.497 7.055 14.672C7.0173 14.7771 6.99999 14.8884 7.004 15C7.004 15.137 7.016 15.215 7.054 15.328C7.109 15.477 7.187 15.602 7.301 15.715C7.437 15.848 7.609 15.938 7.812 15.98C7.875 15.996 8.032 15.996 11.5 15.996C14.945 15.996 15.125 15.996 15.191 15.98C15.3868 15.9417 15.5666 15.8457 15.7074 15.7044C15.8481 15.5631 15.9434 15.3829 15.981 15.187C16 15.097 16 14.902 15.981 14.813C15.9442 14.6194 15.8511 14.4409 15.7135 14.2999C15.5758 14.1589 15.3997 14.0615 15.207 14.02L15.137 14.004H11.53C9.472 14.004 7.902 14.004 7.871 14.008Z" fill="currentColor"/>
</g>
<defs>
<clipPath id="clip0_2538_9387">
<rect width="16" height="16" fill="white"/>
</clipPath>
</defs>
</svg>
