<svg width="16" height="16" viewBox="0 0 16 16" fill="none" xmlns="http://www.w3.org/2000/svg">
<path d="M6.871 1.008C6.7374 1.02801 6.60881 1.07314 6.492 1.141C6.37147 1.21287 6.26718 1.30901 6.18576 1.42332C6.10433 1.53762 6.04755 1.66759 6.019 1.805C6.004 1.859 6.004 2.027 6.004 5.43L6 9H5.176C4.648 9 4.332 9.004 4.289 9.008C4.1558 9.02405 4.02723 9.06687 3.911 9.13388C3.79478 9.2009 3.69331 9.29073 3.61269 9.39797C3.53208 9.50521 3.47398 9.62764 3.4419 9.75791C3.40982 9.88818 3.40441 10.0236 3.426 10.156C3.449 10.312 3.516 10.469 3.606 10.586C3.636 10.629 4.273 11.27 5.516 12.512C7.562 14.555 7.422 14.422 7.598 14.5C7.868 14.617 8.188 14.61 8.438 14.484C8.59 14.406 8.488 14.508 10.48 12.516C11.727 11.27 12.363 10.629 12.395 10.586C12.453 10.508 12.512 10.391 12.543 10.296C12.6057 10.0832 12.5976 9.85582 12.52 9.648C12.4694 9.511 12.3892 9.38684 12.2852 9.28434C12.1811 9.18185 12.0557 9.10355 11.918 9.055C11.754 9 11.82 9.004 10.868 9.004L10 9L9.996 5.43C9.996 2.027 9.996 1.86 9.98 1.805C9.94066 1.61173 9.84416 1.43474 9.703 1.297C9.56864 1.15772 9.39606 1.06133 9.207 1.02C9.137 1.004 9.129 1.004 8.031 1.004C7.406 1.004 6.902 1.004 6.871 1.008Z" fill="currentColor"/>
</svg>
