<svg width="16" height="16" viewBox="0 0 16 16" fill="none" xmlns="http://www.w3.org/2000/svg">
<path d="M5.832 3.426C5.681 3.45412 5.53819 3.51561 5.414 3.606C5.371 3.636 4.73 4.273 3.488 5.516C2.02 6.984 1.618 7.39 1.59 7.437C1.47322 7.60109 1.41286 7.79866 1.418 8C1.418 8.21 1.465 8.367 1.582 8.55C1.613 8.605 1.859 8.852 3.484 10.48C4.707 11.703 5.371 12.363 5.414 12.395C5.59158 12.5274 5.80982 12.5935 6.031 12.582C6.25444 12.5762 6.46939 12.4952 6.641 12.352C6.781 12.242 6.902 12.062 6.953 11.895C6.996 11.742 6.996 11.805 6.996 10.867L7 10L10.57 9.996C13.973 9.996 14.14 9.996 14.195 9.98C14.3883 9.94067 14.5653 9.84416 14.703 9.703C14.8523 9.55834 14.9509 9.36927 14.984 9.164C14.9996 8.38808 14.9996 7.61192 14.984 6.836C14.9514 6.6305 14.8532 6.44107 14.704 6.296C14.5692 6.15692 14.3963 6.06087 14.207 6.02L14.137 6.004H10.57L7 6V5.176C7 4.656 6.996 4.332 6.992 4.289C6.96659 4.08118 6.87626 3.88667 6.73388 3.73315C6.59151 3.57964 6.40433 3.47496 6.199 3.434C6.07768 3.4138 5.95409 3.41111 5.832 3.426Z" fill="currentColor"/>
</svg>
