<svg width="16" height="16" viewBox="0 0 16 16" fill="none" xmlns="http://www.w3.org/2000/svg">
<g clip-path="url(#clip0_2538_10717)">
<path d="M7.871 0.00799269C7.66578 0.0358101 7.47408 0.126039 7.32186 0.266454C7.16964 0.406869 7.06426 0.590684 7.02 0.792993L7.004 0.862993V3.22699L7 5.58999L5.332 3.92599C3.887 2.47599 3.66 2.25399 3.602 2.21499C3.43969 2.10786 3.24948 2.05075 3.055 2.05075C2.86052 2.05075 2.67032 2.10786 2.508 2.21499C2.39533 2.28774 2.29847 2.38243 2.22318 2.49342C2.14789 2.60441 2.09572 2.72942 2.06978 2.861C2.04383 2.99258 2.04465 3.12803 2.07218 3.25929C2.0997 3.39055 2.15338 3.51492 2.23 3.62499C2.254 3.65599 2.852 4.26199 3.93 5.33499L5.59 6.99999L3.227 7.00399C0.984001 7.00399 0.859001 7.00399 0.805001 7.01999C0.610846 7.05962 0.432738 7.15575 0.293066 7.29631C0.153393 7.43688 0.0583908 7.61559 0.0200011 7.80999C1.06823e-06 7.89999 1.06823e-06 8.09699 0.0200011 8.18999C0.0583908 8.38439 0.153393 8.56311 0.293066 8.70367C0.432738 8.84423 0.610846 8.94037 0.805001 8.97999C0.859001 8.99499 0.985001 8.99499 3.227 8.99499L5.59 8.99999L3.93 10.664C3.35732 11.2283 2.79062 11.7987 2.23 12.375C2.066 12.613 2.012 12.915 2.082 13.195C2.156 13.492 2.375 13.746 2.652 13.867C2.972 14.004 3.336 13.969 3.625 13.766C3.656 13.746 4.262 13.145 5.335 12.07L7 10.41L7.004 12.773V15.137L7.02 15.207C7.05018 15.3456 7.10931 15.4762 7.19351 15.5903C7.27772 15.7044 7.38511 15.7994 7.50862 15.8691C7.63213 15.9388 7.76898 15.9816 7.9102 15.9947C8.05141 16.0077 8.19379 15.9908 8.328 15.945C8.668 15.825 8.895 15.566 8.98 15.195C8.996 15.141 8.996 15.015 8.996 12.773L9 10.41L10.664 12.07C11.578 12.984 12.344 13.746 12.364 13.758C12.5272 13.8762 12.7224 13.942 12.9238 13.9468C13.1252 13.9517 13.3234 13.8952 13.492 13.785C13.6048 13.7123 13.7017 13.6176 13.7769 13.5064C13.8522 13.3953 13.9041 13.2702 13.9297 13.1384C13.9553 13.0067 13.954 12.8712 13.9259 12.74C13.8977 12.6088 13.8434 12.4846 13.766 12.375C13.746 12.34 13.16 11.754 12.07 10.665L10.41 8.99999L12.773 8.99599H15.137L15.207 8.97999C15.4307 8.93125 15.6309 8.80747 15.7745 8.6292C15.9181 8.45093 15.9964 8.22891 15.9964 7.99999C15.9964 7.77108 15.9181 7.54905 15.7745 7.37078C15.6309 7.19252 15.4307 7.06873 15.207 7.01999L15.137 7.00399H12.773L10.41 6.99999L12.07 5.33599C13.16 4.24599 13.746 3.65999 13.766 3.62499C13.996 3.28899 14.008 2.85899 13.796 2.51999C13.7238 2.40523 13.629 2.30635 13.5174 2.22936C13.4059 2.15237 13.2798 2.09887 13.1469 2.07212C13.014 2.04537 12.877 2.04593 12.7443 2.07375C12.6116 2.10158 12.486 2.1561 12.375 2.23399C12.34 2.25399 11.754 2.83999 10.665 3.92999L9 5.58999L8.996 3.22699C8.996 0.983993 8.996 0.858993 8.98 0.804993C8.93979 0.611749 8.84505 0.434072 8.707 0.292993C8.56671 0.153873 8.3887 0.0589555 8.195 0.0199927C8.08774 0.00445277 7.97912 0.000429894 7.871 0.00799269Z" fill="currentColor"/>
</g>
<defs>
<clipPath id="clip0_2538_10717">
<rect width="16" height="16" fill="white"/>
</clipPath>
</defs>
</svg>
