<svg width="16" height="16" viewBox="0 0 16 16" fill="none" xmlns="http://www.w3.org/2000/svg">
<g clip-path="url(#clip0_2538_10717)">
<path d="M7.871 0.00800795C7.66578 0.0358253 7.47408 0.126054 7.32186 0.266469C7.16964 0.406885 7.06426 0.590699 7.02 0.793008L7.004 0.863008V3.22701L7 5.59001L5.332 3.92601C3.887 2.47601 3.66 2.25401 3.602 2.21501C3.43969 2.10788 3.24948 2.05077 3.055 2.05077C2.86052 2.05077 2.67032 2.10788 2.508 2.21501C2.39533 2.28776 2.29847 2.38245 2.22318 2.49343C2.14789 2.60442 2.09572 2.72943 2.06978 2.86101C2.04383 2.99259 2.04465 3.12805 2.07218 3.25931C2.0997 3.39057 2.15338 3.51494 2.23 3.62501C2.254 3.65601 2.852 4.26201 3.93 5.33501L5.59 7.00001L3.227 7.00401C0.984001 7.00401 0.859001 7.00401 0.805001 7.02001C0.610846 7.05963 0.432738 7.15577 0.293066 7.29633C0.153393 7.43689 0.0583908 7.61561 0.0200011 7.81001C1.06823e-06 7.90001 1.06823e-06 8.09701 0.0200011 8.19001C0.0583908 8.38441 0.153393 8.56312 0.293066 8.70369C0.432738 8.84425 0.610846 8.94038 0.805001 8.98001C0.859001 8.99501 0.985001 8.99501 3.227 8.99501L5.59 9.00001L3.93 10.664C3.35732 11.2283 2.79062 11.7987 2.23 12.375C2.066 12.613 2.012 12.915 2.082 13.195C2.156 13.492 2.375 13.746 2.652 13.867C2.972 14.004 3.336 13.969 3.625 13.766C3.656 13.746 4.262 13.145 5.335 12.07L7 10.41L7.004 12.773V15.137L7.02 15.207C7.05018 15.3456 7.10931 15.4762 7.19351 15.5903C7.27772 15.7044 7.38511 15.7994 7.50862 15.8691C7.63213 15.9388 7.76898 15.9816 7.9102 15.9947C8.05141 16.0078 8.19379 15.9908 8.328 15.945C8.668 15.825 8.895 15.566 8.98 15.195C8.996 15.141 8.996 15.015 8.996 12.773L9 10.41L10.664 12.07C11.578 12.984 12.344 13.746 12.364 13.758C12.5272 13.8762 12.7224 13.942 12.9238 13.9469C13.1252 13.9517 13.3234 13.8952 13.492 13.785C13.6048 13.7123 13.7017 13.6176 13.7769 13.5065C13.8522 13.3953 13.9041 13.2702 13.9297 13.1384C13.9553 13.0067 13.954 12.8712 13.9259 12.74C13.8977 12.6088 13.8434 12.4846 13.766 12.375C13.746 12.34 13.16 11.754 12.07 10.665L10.41 9.00001L12.773 8.99601H15.137L15.207 8.98001C15.4307 8.93127 15.6309 8.80748 15.7745 8.62922C15.9181 8.45095 15.9964 8.22892 15.9964 8.00001C15.9964 7.77109 15.9181 7.54907 15.7745 7.3708C15.6309 7.19253 15.4307 7.06875 15.207 7.02001L15.137 7.00401H12.773L10.41 7.00001L12.07 5.33601C13.16 4.24601 13.746 3.66001 13.766 3.62501C13.996 3.28901 14.008 2.85901 13.796 2.52001C13.7238 2.40525 13.629 2.30637 13.5174 2.22938C13.4059 2.15238 13.2798 2.09889 13.1469 2.07214C13.014 2.04539 12.877 2.04594 12.7443 2.07377C12.6116 2.10159 12.486 2.15611 12.375 2.23401C12.34 2.25401 11.754 2.84001 10.665 3.93001L9 5.59001L8.996 3.22701C8.996 0.984008 8.996 0.859008 8.98 0.805008C8.93979 0.611764 8.84505 0.434087 8.707 0.293008C8.56671 0.153888 8.3887 0.0589708 8.195 0.020008C8.08774 0.00446803 7.97912 0.000445153 7.871 0.00800795Z" fill="currentColor"/>
</g>
<defs>
<clipPath id="clip0_2538_10717">
<rect width="16" height="16" fill="white"/>
</clipPath>
</defs>
</svg>
