<svg width="16" height="16" viewBox="0 0 16 16" fill="none" xmlns="http://www.w3.org/2000/svg">
<path d="M12.871 0.0079978C12.7374 0.0280094 12.6088 0.0731377 12.492 0.140998C12.3666 0.214975 12.2588 0.315535 12.1764 0.435607C12.094 0.555678 12.0389 0.692345 12.015 0.835998C12 0.909998 12 15.09 12.016 15.164C12.056 15.383 12.146 15.551 12.298 15.704C12.45 15.855 12.618 15.945 12.837 15.984C13.6129 15.9996 14.3891 15.9996 15.165 15.984C15.3705 15.9514 15.5599 15.8532 15.705 15.704C15.8542 15.5589 15.9524 15.3695 15.985 15.164C16 15.09 16 0.909998 15.984 0.835998C15.9514 0.630497 15.8532 0.441063 15.704 0.295998C15.5692 0.156912 15.3963 0.0608702 15.207 0.0199978C15.137 0.0039978 15.129 0.0039978 14.031 0.0039978C13.406 0.0039978 12.902 0.0039978 12.871 0.0079978ZM6.871 3.008C6.7374 3.02801 6.60881 3.07314 6.492 3.141C6.36656 3.21498 6.25885 3.31554 6.17644 3.43561C6.09403 3.55568 6.03892 3.69235 6.015 3.836C6 3.91 6 15.09 6.016 15.164C6.056 15.383 6.146 15.551 6.298 15.704C6.45 15.855 6.618 15.945 6.837 15.984C7.61292 15.9996 8.38908 15.9996 9.165 15.984C9.3705 15.9514 9.55993 15.8532 9.705 15.704C9.85417 15.5589 9.95239 15.3695 9.985 15.164C10 15.09 10 3.91 9.984 3.836C9.95139 3.6305 9.85317 3.44106 9.704 3.296C9.56924 3.15691 9.3963 3.06087 9.207 3.02C9.137 3.004 9.129 3.004 8.031 3.004C7.406 3.004 6.902 3.004 6.871 3.008ZM0.871 8.008C0.737404 8.02801 0.608805 8.07314 0.492 8.141C0.366558 8.21498 0.258845 8.31554 0.176437 8.43561C0.0940278 8.55568 0.0389239 8.69235 0.0149999 8.836C-5.7742e-08 8.91 -5.7742e-08 15.09 0.0159999 15.164C0.0559999 15.383 0.146 15.551 0.298 15.704C0.45 15.855 0.618 15.945 0.837 15.984C1.61292 15.9996 2.38908 15.9996 3.165 15.984C3.3705 15.9514 3.55993 15.8532 3.705 15.704C3.85416 15.5589 3.95239 15.3695 3.985 15.164C4 15.09 4 8.91 3.984 8.836C3.95139 8.6305 3.85316 8.44106 3.704 8.296C3.56924 8.15691 3.3963 8.06087 3.207 8.02C3.137 8.004 3.129 8.004 2.031 8.004C1.406 8.004 0.902 8.004 0.871 8.008Z" fill="currentColor"/>
</svg>
