<svg width="16" height="16" viewBox="0 0 16 16" fill="none" xmlns="http://www.w3.org/2000/svg">
<path d="M7.816 1.00799C7.48644 1.03875 7.16981 1.15151 6.895 1.33599C6.61946 1.51701 6.39359 1.76409 6.23797 2.05473C6.08234 2.34536 6.00191 2.67032 6.004 2.99999C6.00212 3.32674 6.08101 3.6489 6.23367 3.9378C6.38632 4.22671 6.608 4.47342 6.879 4.65599C7.13135 4.8255 7.41879 4.93569 7.71979 4.9783C8.02078 5.0209 8.32752 4.99481 8.617 4.90199C8.94652 4.79569 9.2427 4.60545 9.47642 4.34999C9.71014 4.09453 9.87335 3.78264 9.95 3.44499C9.985 3.28499 9.997 3.18799 9.997 2.99999C9.997 2.81199 9.985 2.71499 9.95 2.55499C9.87473 2.2258 9.71745 1.92098 9.49279 1.66887C9.26813 1.41676 8.98338 1.22554 8.665 1.11299C8.46409 1.04236 8.25295 1.00519 8.04 1.00299C7.958 1.00299 7.855 1.00299 7.816 1.00799ZM7.816 11.008C7.48644 11.0387 7.16981 11.1515 6.895 11.336C6.61946 11.517 6.39359 11.7641 6.23797 12.0547C6.08234 12.3454 6.00191 12.6703 6.004 13C6.00212 13.3267 6.08101 13.6489 6.23367 13.9378C6.38632 14.2267 6.608 14.4734 6.879 14.656C7.13135 14.8255 7.41879 14.9357 7.71979 14.9783C8.02078 15.0209 8.32752 14.9948 8.617 14.902C8.94633 14.7955 9.24231 14.6052 9.47584 14.3498C9.70938 14.0943 9.87244 13.7825 9.949 13.445C9.984 13.285 9.996 13.187 9.996 13C9.996 12.812 9.984 12.715 9.949 12.555C9.87373 12.2258 9.71645 11.921 9.49179 11.6689C9.26713 11.4168 8.98238 11.2255 8.664 11.113C8.46309 11.0424 8.25195 11.0052 8.039 11.003C7.957 11.003 7.855 11.003 7.816 11.008Z" fill="currentColor"/>
</svg>
