<svg width="16" height="16" viewBox="0 0 16 16" fill="none" xmlns="http://www.w3.org/2000/svg">
<g clip-path="url(#clip0_2538_12142)">
<path d="M8.344 0.00399014C8.328 0.00799014 8.277 0.0119901 8.23 0.0159901C7.67658 0.0752688 7.15883 0.317749 6.75897 0.704923C6.35912 1.0921 6.10008 1.60177 6.023 2.15299C5.99927 2.3602 5.99692 2.5693 6.016 2.77699C6.07 3.24699 6.242 3.66799 6.536 4.04699C6.617 4.15199 6.832 4.37099 6.938 4.45299C7.37875 4.80571 7.9259 4.99888 8.49041 5.00105C9.05491 5.00323 9.60354 4.8143 10.047 4.46499C10.152 4.38299 10.371 4.16799 10.453 4.06299C10.734 3.70699 10.906 3.30899 10.973 2.86699C11.0239 2.52732 11.0042 2.1808 10.915 1.84911C10.8259 1.51741 10.6693 1.20766 10.4551 0.939238C10.2408 0.670811 9.97344 0.449475 9.66973 0.289069C9.36603 0.128662 9.0325 0.0326348 8.69 0.00699014C8.57445 0.000269613 8.45964 -0.00073161 8.344 0.00399014ZM8.344 11.004C8.328 11.008 8.277 11.012 8.23 11.016C7.67658 11.0753 7.15883 11.3177 6.75897 11.7049C6.35912 12.0921 6.10008 12.6018 6.023 13.153C5.99927 13.3602 5.99692 13.5693 6.016 13.777C6.07 14.247 6.242 14.668 6.536 15.047C6.617 15.152 6.832 15.371 6.938 15.453C7.37875 15.8057 7.9259 15.9989 8.49041 16.0011C9.05491 16.0032 9.60354 15.8143 10.047 15.465C10.152 15.383 10.371 15.168 10.453 15.063C10.734 14.707 10.906 14.309 10.973 13.867C11.0239 13.5274 11.0042 13.181 10.9151 12.8493C10.8261 12.5177 10.6696 12.208 10.4554 11.9396C10.2412 11.6712 9.974 11.4498 9.67042 11.2894C9.36683 11.1289 9.03341 11.0328 8.691 11.007C8.57545 11.0003 8.45964 10.9993 8.344 11.004Z" fill="currentColor"/>
</g>
<defs>
<clipPath id="clip0_2538_12142">
<rect width="16" height="16" fill="white"/>
</clipPath>
</defs>
</svg>
