<svg width="16" height="16" viewBox="0 0 16 16" fill="none" xmlns="http://www.w3.org/2000/svg">
<g clip-path="url(#clip0_2538_12332)">
<path d="M0.871001 0.0079978C0.450001 0.0619978 0.101001 0.386998 0.0200011 0.807998C1.06823e-06 0.901998 1.06823e-06 1.098 0.0200011 1.191C0.105001 1.637 0.477001 1.961 0.930001 1.996L1 2.004V5.117C1.004 8.555 1 8.277 1.05 8.547C1.164 9.137 1.434 9.66 1.848 10.086C2.297 10.543 2.84 10.836 3.457 10.949C3.727 10.996 3.609 10.996 5.383 10.996L7 11V12.324L4.82 13.195C3.625 13.672 2.61 14.082 2.566 14.102C2.39733 14.1837 2.25512 14.3112 2.15571 14.4701C2.0563 14.6289 2.00371 14.8126 2.004 15C2.004 15.215 2.051 15.371 2.168 15.555C2.227 15.645 2.359 15.773 2.453 15.832C2.688 15.988 2.98 16.035 3.246 15.969C4.05024 15.657 4.85226 15.3393 5.652 15.016L8 14.078L10.344 15.016C11.637 15.531 12.719 15.961 12.754 15.969C12.941 16.0157 13.1376 16.0074 13.32 15.945C13.466 15.8978 13.5977 15.8146 13.703 15.703C13.7983 15.6128 13.8736 15.5037 13.9241 15.3826C13.9745 15.2615 13.999 15.1312 13.996 15C13.9997 14.8911 13.9827 14.7825 13.946 14.68C13.8581 14.4304 13.6772 14.2244 13.441 14.105C13.414 14.09 12.406 13.684 11.199 13.203L9 12.324V11H10.55C11.508 11 12.137 10.996 12.203 10.992C12.9167 10.9464 13.5898 10.6441 14.098 10.141C14.547 9.699 14.836 9.156 14.949 8.543C15 8.266 14.996 8.555 14.996 5.121L15 2.004L15.07 1.996C15.3224 1.97966 15.5589 1.86737 15.7311 1.68216C15.9033 1.49695 15.9981 1.25287 15.996 0.999998C15.996 0.771006 15.9176 0.548919 15.7739 0.37064C15.6302 0.192362 15.4298 0.0686271 15.206 0.0199978L15.136 0.0039978H8.032C3.954 0.0039978 0.902001 0.0039978 0.871001 0.0079978Z" fill="currentColor"/>
</g>
<defs>
<clipPath id="clip0_2538_12332">
<rect width="16" height="16" fill="white"/>
</clipPath>
</defs>
</svg>
