<svg width="16" height="16" viewBox="0 0 16 16" fill="none" xmlns="http://www.w3.org/2000/svg">
<g clip-path="url(#clip0_2538_12332)">
<path d="M0.871001 0.00802832C0.450001 0.0620283 0.101001 0.387028 0.0200011 0.808028C1.06823e-06 0.902028 1.06823e-06 1.09803 0.0200011 1.19103C0.105001 1.63703 0.477001 1.96103 0.930001 1.99603L1 2.00403V5.11703C1.004 8.55503 1 8.27703 1.05 8.54703C1.164 9.13703 1.434 9.66003 1.848 10.086C2.297 10.543 2.84 10.836 3.457 10.949C3.727 10.996 3.609 10.996 5.383 10.996L7 11V12.324L4.82 13.195C3.625 13.672 2.61 14.082 2.566 14.102C2.39733 14.1837 2.25512 14.3113 2.15571 14.4701C2.0563 14.629 2.00371 14.8126 2.004 15C2.004 15.215 2.051 15.371 2.168 15.555C2.227 15.645 2.359 15.773 2.453 15.832C2.688 15.988 2.98 16.035 3.246 15.969C4.05024 15.6571 4.85226 15.3394 5.652 15.016L8 14.078L10.344 15.016C11.637 15.531 12.719 15.961 12.754 15.969C12.941 16.0158 13.1376 16.0074 13.32 15.945C13.466 15.8979 13.5977 15.8146 13.703 15.703C13.7983 15.6129 13.8736 15.5037 13.9241 15.3826C13.9745 15.2615 13.999 15.1312 13.996 15C13.9997 14.8912 13.9827 14.7826 13.946 14.68C13.8581 14.4304 13.6772 14.2244 13.441 14.105C13.414 14.09 12.406 13.684 11.199 13.203L9 12.324V11H10.55C11.508 11 12.137 10.996 12.203 10.992C12.9167 10.9464 13.5898 10.6442 14.098 10.141C14.547 9.69903 14.836 9.15603 14.949 8.54303C15 8.26603 14.996 8.55503 14.996 5.12103L15 2.00403L15.07 1.99603C15.3224 1.97969 15.5589 1.8674 15.7311 1.68219C15.9033 1.49698 15.9981 1.2529 15.996 1.00003C15.996 0.771037 15.9176 0.548949 15.7739 0.370671C15.6302 0.192392 15.4298 0.0686576 15.206 0.0200283L15.136 0.00402832H8.032C3.954 0.00402832 0.902001 0.00402832 0.871001 0.00802832Z" fill="currentColor"/>
</g>
<defs>
<clipPath id="clip0_2538_12332">
<rect width="16" height="16" fill="white"/>
</clipPath>
</defs>
</svg>
