<svg width="16" height="16" viewBox="0 0 16 16" fill="none" xmlns="http://www.w3.org/2000/svg">
<path d="M4.824 0.00402832C4.20317 0.0404343 3.6092 0.269772 3.125 0.660028C3 0.758028 2.758 1.00003 2.66 1.12503C2.3 1.57803 2.098 2.06603 2.02 2.66503C2.004 2.76503 2.004 2.99603 2.004 6.85503C2 9.10203 2 11.125 2 11.352L2.004 11.762L2.066 11.707C2.29516 11.5156 2.55038 11.3576 2.824 11.238C3.078 11.133 3.32 11.066 3.625 11.023L3.746 11.003L8.406 11C11.773 11 13.094 11 13.168 11.008C13.43 11.031 13.684 11.102 13.91 11.218L14 11.266L13.996 6.06203C13.996 1.08603 13.996 0.859028 13.98 0.805028C13.9407 0.611761 13.8442 0.434775 13.703 0.297028C13.5653 0.155871 13.3883 0.0593642 13.195 0.0200283C13.141 0.00402832 12.953 0.00402832 9 0.00402832H4.824ZM11.204 2.02003C11.5 2.09003 11.727 2.25803 11.871 2.50803C12.066 2.84803 12.039 3.28103 11.805 3.59803C11.6547 3.79505 11.4379 3.93079 11.195 3.98003C11.133 3.99603 10.996 3.99603 8 3.99603C5.004 3.99603 4.867 3.99603 4.805 3.98003C4.61146 3.94088 4.43376 3.84552 4.29413 3.7059C4.15451 3.56627 4.05915 3.38857 4.02 3.19503C4.00054 3.06576 4.00054 2.9343 4.02 2.80503C4.11 2.38703 4.43 2.07803 4.848 2.01203C4.898 2.00403 5.551 2.00003 8.028 2.00403C11 2.00403 11.148 2.00403 11.203 2.02003H11.204ZM8.204 6.02003C8.5 6.09003 8.727 6.25803 8.871 6.50803C9.066 6.84803 9.039 7.28103 8.805 7.59803C8.65465 7.79505 8.43789 7.93079 8.195 7.98003C8.133 7.99603 8.047 7.99603 6.5 7.99603C4.953 7.99603 4.867 7.99603 4.805 7.98003C4.61146 7.94088 4.43376 7.84552 4.29413 7.7059C4.15451 7.56627 4.05915 7.38857 4.02 7.19503C4.00054 7.06576 4.00054 6.9343 4.02 6.80503C4.11 6.38703 4.43 6.07803 4.848 6.01203C4.898 6.00403 5.254 6.00003 6.528 6.00403C8.051 6.00403 8.148 6.00403 8.203 6.02003H8.204ZM3.855 12.004C3.45011 12.0362 3.06401 12.1884 2.746 12.441C2.62192 12.5475 2.50809 12.6653 2.406 12.793C2.19601 13.0715 2.06245 13.4 2.01855 13.746C1.97466 14.092 2.02196 14.4434 2.15576 14.7655C2.28956 15.0876 2.50522 15.3691 2.78136 15.5821C3.05749 15.7952 3.38451 15.9323 3.73 15.98C3.828 15.996 3.988 15.996 8.473 15.996C12.363 15.996 13.121 15.996 13.172 15.984C13.3744 15.9501 13.5606 15.8519 13.703 15.704C13.8525 15.5591 13.9511 15.3697 13.984 15.164C13.9996 14.3881 13.9996 13.6119 13.984 12.836C13.9514 12.6305 13.8532 12.4411 13.704 12.296C13.559 12.152 13.402 12.066 13.191 12.016C13.141 12.004 12.77 12.004 8.511 12.004H3.855Z" fill="currentColor"/>
</svg>
