<svg width="16" height="16" viewBox="0 0 16 16" fill="none" xmlns="http://www.w3.org/2000/svg">
<path d="M2.82 2.00397C2.20124 2.04429 1.60969 2.27323 1.125 2.65997C1 2.75797 0.758002 2.99997 0.660002 3.12497C0.297002 3.58197 0.0900016 4.08197 0.0200016 4.67197C0.00400162 4.77697 0.00400162 4.96097 0.00400162 7.99597C0.00400162 11.055 0.00400162 11.211 0.0200016 11.328C0.0980016 12.008 0.383002 12.609 0.848002 13.086C1.297 13.543 1.84 13.836 2.457 13.949C2.727 13.996 2.605 13.996 4.414 13.996C5.57 14 6.102 14 6.184 13.992C6.422 13.972 6.469 13.972 6.531 13.988C6.63152 14.0033 6.72603 14.0454 6.80455 14.11C6.88306 14.1747 6.94264 14.2593 6.977 14.355C6.988 14.387 6.997 14.437 7 14.52C7.008 14.648 7.023 14.723 7.055 14.82C7.10217 14.966 7.1854 15.0977 7.297 15.203C7.492 15.403 7.723 15.496 8 15.496C8.10887 15.4997 8.21745 15.4827 8.32 15.446C8.562 15.363 8.781 15.176 8.898 14.938C8.957 14.824 8.988 14.691 9 14.52C8.99782 14.4417 9.01391 14.364 9.047 14.293C9.08186 14.2245 9.13036 14.1639 9.18952 14.1149C9.24868 14.0659 9.31725 14.0295 9.391 14.008C9.461 13.984 9.473 13.98 9.571 13.98C9.629 13.98 9.731 13.984 9.797 13.992C9.949 14.004 13.039 14.004 13.203 13.992C13.753 13.953 14.243 13.782 14.691 13.477C14.9846 13.272 15.2409 13.0184 15.449 12.727C15.746 12.305 15.914 11.863 15.98 11.328C15.996 11.218 15.996 11.058 15.996 7.99997C15.996 4.94097 15.996 4.78097 15.98 4.67197C15.9186 4.10581 15.6965 3.56903 15.34 3.12497C15.1977 2.95525 15.0407 2.79832 14.871 2.65597C14.428 2.30085 13.8926 2.08013 13.328 2.01997C13.215 2.00397 13.105 2.00397 11.496 2.00397C9.891 2.00397 9.777 2.00397 9.672 2.01997C9.54189 2.03486 9.41269 2.05689 9.285 2.08597C9.129 2.12897 9.027 2.21497 8.922 2.40197C8.824 2.56997 8.801 2.60897 8.711 2.69897C8.57112 2.84445 8.38935 2.94268 8.191 2.97997C8.105 2.99997 7.895 2.99997 7.809 2.97997C7.59553 2.93823 7.40183 2.82714 7.258 2.66397C7.19161 2.59575 7.13749 2.51659 7.098 2.42997C6.988 2.23797 6.895 2.14497 6.77 2.10197C6.58309 2.05414 6.39237 2.02269 6.2 2.00797C6.101 1.99997 2.936 1.99997 2.82 2.00397ZM6.2 4.01997C6.57 4.10997 6.844 4.35197 6.953 4.69997C7.003 4.85497 7 4.62497 7 7.99997C7 11.375 7.004 11.145 6.953 11.3C6.843 11.648 6.57 11.89 6.199 11.98C6.149 11.996 6.019 11.996 4.535 11.996C2.754 12 2.852 12.004 2.691 11.949C2.53982 11.9 2.40251 11.8157 2.2905 11.703C2.17849 11.5903 2.09501 11.4524 2.047 11.301C1.997 11.141 2 11.379 2.004 7.96497C2.004 5.05897 2.004 4.85197 2.02 4.80097C2.11 4.42597 2.355 4.15597 2.7 4.04697C2.851 3.99997 2.761 3.99997 4.526 4.00397C6.022 4.00397 6.147 4.00397 6.198 4.01997H6.2ZM13.2 4.01997C13.57 4.10997 13.844 4.35197 13.953 4.69997C14.003 4.85497 14 4.62497 14 7.99997C14 11.375 14.004 11.145 13.953 11.3C13.843 11.648 13.57 11.89 13.199 11.98C13.149 11.996 13.019 11.996 11.535 11.996C9.754 12 9.852 12.004 9.691 11.949C9.53982 11.9 9.40251 11.8157 9.2905 11.703C9.17849 11.5903 9.09501 11.4524 9.047 11.301C8.997 11.141 9 11.379 9.004 7.96497C9.004 5.05897 9.004 4.85197 9.02 4.80097C9.11 4.42597 9.355 4.15597 9.7 4.04697C9.852 3.99997 9.762 3.99997 11.527 4.00397C13.023 4.00397 13.149 4.00397 13.2 4.01997Z" fill="currentColor"/>
<path d="M10.871 5.50797C10.445 5.56597 10.101 5.88697 10.02 6.30797C10 6.40197 10 6.59797 10.02 6.69097C10.09 7.04297 10.344 7.33197 10.68 7.44497C10.836 7.49597 10.816 7.49597 11.5 7.49597C12.066 7.49597 12.129 7.49597 12.191 7.47997C12.4185 7.43631 12.6235 7.31441 12.7706 7.13541C12.9176 6.95642 12.9974 6.73161 12.996 6.49997C12.996 6.27098 12.9176 6.04889 12.7739 5.87061C12.6302 5.69233 12.4298 5.5686 12.206 5.51997C12.141 5.50397 12.113 5.50397 11.531 5.50397C11.199 5.50397 10.902 5.50397 10.871 5.50797ZM10.871 8.50797C10.445 8.56597 10.101 8.88697 10.02 9.30797C10 9.40197 10 9.59797 10.02 9.69097C10.09 10.043 10.344 10.332 10.68 10.445C10.836 10.496 10.816 10.496 11.5 10.496C12.066 10.496 12.129 10.496 12.191 10.48C12.4185 10.4363 12.6235 10.3144 12.7706 10.1354C12.9176 9.95642 12.9974 9.73161 12.996 9.49997C12.996 9.27098 12.9176 9.04889 12.7739 8.87061C12.6302 8.69233 12.4298 8.5686 12.206 8.51997C12.141 8.50397 12.113 8.50397 11.531 8.50397C11.199 8.50397 10.902 8.50397 10.871 8.50797Z" fill="currentColor"/>
</svg>
