<svg width="16" height="16" viewBox="0 0 16 16" fill="none" xmlns="http://www.w3.org/2000/svg">
<path d="M4.824 0.0039978C4.20317 0.0404038 3.6092 0.269741 3.125 0.659998C3 0.757998 2.758 0.999998 2.66 1.125C2.3 1.578 2.098 2.066 2.02 2.665C2.004 2.765 2.004 2.996 2.004 6.855C2 9.102 2 11.125 2 11.352L2.004 11.762L2.066 11.707C2.29516 11.5155 2.55038 11.3576 2.824 11.238C3.078 11.133 3.32 11.066 3.625 11.023L3.746 11.003L8.406 11C11.773 11 13.094 11 13.168 11.008C13.43 11.031 13.684 11.102 13.91 11.218L14 11.266L13.996 6.062C13.996 1.086 13.996 0.858998 13.98 0.804998C13.9407 0.611731 13.8442 0.434744 13.703 0.296998C13.5653 0.15584 13.3883 0.0593337 13.195 0.0199978C13.141 0.0039978 12.953 0.0039978 9 0.0039978H4.824ZM11.204 2.02C11.5 2.09 11.727 2.258 11.871 2.508C12.066 2.848 12.039 3.281 11.805 3.598C11.6547 3.79502 11.4379 3.93076 11.195 3.98C11.133 3.996 10.996 3.996 8 3.996C5.004 3.996 4.867 3.996 4.805 3.98C4.61146 3.94085 4.43376 3.84549 4.29413 3.70587C4.15451 3.56624 4.05915 3.38854 4.02 3.195C4.00054 3.06573 4.00054 2.93427 4.02 2.805C4.11 2.387 4.43 2.078 4.848 2.012C4.898 2.004 5.551 2 8.028 2.004C11 2.004 11.148 2.004 11.203 2.02H11.204ZM8.204 6.02C8.5 6.09 8.727 6.258 8.871 6.508C9.066 6.848 9.039 7.281 8.805 7.598C8.65465 7.79502 8.43789 7.93076 8.195 7.98C8.133 7.996 8.047 7.996 6.5 7.996C4.953 7.996 4.867 7.996 4.805 7.98C4.61146 7.94085 4.43376 7.84549 4.29413 7.70587C4.15451 7.56624 4.05915 7.38854 4.02 7.195C4.00054 7.06573 4.00054 6.93427 4.02 6.805C4.11 6.387 4.43 6.078 4.848 6.012C4.898 6.004 5.254 6 6.528 6.004C8.051 6.004 8.148 6.004 8.203 6.02H8.204ZM3.855 12.004C3.45011 12.0362 3.06401 12.1883 2.746 12.441C2.62192 12.5475 2.50809 12.6653 2.406 12.793C2.19601 13.0715 2.06245 13.4 2.01855 13.746C1.97466 14.0919 2.02196 14.4434 2.15576 14.7655C2.28956 15.0876 2.50522 15.3691 2.78136 15.5821C3.05749 15.7951 3.38451 15.9323 3.73 15.98C3.828 15.996 3.988 15.996 8.473 15.996C12.363 15.996 13.121 15.996 13.172 15.984C13.3744 15.95 13.5606 15.8519 13.703 15.704C13.8525 15.5591 13.9511 15.3696 13.984 15.164C13.9996 14.3881 13.9996 13.6119 13.984 12.836C13.9514 12.6305 13.8532 12.4411 13.704 12.296C13.559 12.152 13.402 12.066 13.191 12.016C13.141 12.004 12.77 12.004 8.511 12.004H3.855Z" fill="currentColor"/>
</svg>
