<svg width="16" height="16" viewBox="0 0 16 16" fill="none" xmlns="http://www.w3.org/2000/svg">
<g clip-path="url(#clip0_2538_13287)">
<path d="M5.836 0.00802832C5.36813 0.0457627 4.92911 0.249316 4.598 0.582028C4.49435 0.67788 4.40359 0.786791 4.328 0.906028C4.168 1.14803 4.062 1.43003 4.02 1.74203C4.004 1.83603 4.004 1.99203 4.004 4.50403C4.004 7.06303 4.004 7.17203 4.02 7.27003C4.066 7.61303 4.2 7.93403 4.41 8.21003C4.48 8.30503 4.633 8.46003 4.73 8.54303C5.043 8.80103 5.422 8.95303 5.832 8.99303C5.887 8.99603 6.328 9.00003 6.996 9.00003C8.18 9.00003 8.148 9.00003 8.301 9.04703C8.473 9.10203 8.395 9.04703 10.383 10.535L12.253 11.934C12.273 11.945 12.316 11.961 12.348 11.973C12.402 11.993 12.422 11.996 12.496 11.996C12.5747 11.9995 12.653 11.9823 12.723 11.946C12.782 11.916 12.8345 11.8745 12.8774 11.8241C12.9204 11.7736 12.9528 11.7151 12.973 11.652L12.996 11.59L13 10.719C13.004 9.77303 13.004 9.82403 13.047 9.68803C13.148 9.38303 13.402 9.13703 13.707 9.04303C13.801 9.01603 13.895 9.00003 14.039 8.99603C14.359 8.98403 14.602 8.92603 14.879 8.79303C15 8.73403 15.145 8.64503 15.25 8.55903C15.3094 8.5105 15.3656 8.45805 15.418 8.40203C15.738 8.08203 15.93 7.68403 15.984 7.22703C16 7.10503 16 1.89503 15.984 1.77303C15.9408 1.4058 15.7976 1.05748 15.57 0.766028C15.468 0.644472 15.3556 0.532046 15.234 0.430028C14.9538 0.209277 14.6195 0.067695 14.266 0.0200283C14.18 0.00402832 13.941 0.00402832 10.046 0.00402832C7.777 0.00402832 5.883 0.00402832 5.836 0.00802832Z" fill="currentColor"/>
<path d="M1.816 4.00803C1.434 4.04703 1.062 4.19503 0.754002 4.43403C0.672002 4.50003 0.473002 4.70403 0.410002 4.78903C0.200002 5.07003 0.0660016 5.38703 0.0200016 5.73003C0.00400162 5.82803 0.00400162 5.93703 0.00400162 8.50003C0.00400162 11.063 0.00400162 11.172 0.0200016 11.27C0.0660016 11.613 0.200002 11.934 0.410002 12.21C0.480002 12.305 0.633002 12.46 0.730002 12.543C1.086 12.836 1.543 13 1.996 13C2.426 13 2.816 13.277 2.949 13.684C2.996 13.836 2.996 13.774 3 14.727C3.004 15.699 3 15.621 3.063 15.738C3.10693 15.8154 3.16863 15.8812 3.243 15.93C3.31931 15.9757 3.4071 15.9986 3.496 15.996C3.58195 16.0002 3.66731 15.9798 3.742 15.937C3.766 15.922 4.609 15.293 5.625 14.531C7.563 13.078 7.52 13.109 7.672 13.055C7.828 13 7.73 13.004 9.023 13C10.164 12.996 10.195 12.996 10.293 12.98C10.512 12.941 10.695 12.883 10.883 12.793C11.039 12.715 11.183 12.621 11.301 12.516L11.328 12.496L9.668 11.25L8.004 10.004L6.875 10C5.762 9.99603 5.746 9.99603 5.625 9.97703C5.07041 9.90622 4.54651 9.68235 4.11201 9.33051C3.67751 8.97867 3.34959 8.51277 3.165 7.98503C3.09675 7.78577 3.04917 7.58002 3.023 7.37103C3.003 7.25403 3.003 7.24603 3.003 5.62503L3 4.00003H2.441C2.137 4.00003 1.855 4.00403 1.816 4.00803Z" fill="currentColor"/>
</g>
<defs>
<clipPath id="clip0_2538_13287">
<rect width="16" height="16" fill="white"/>
</clipPath>
</defs>
</svg>
