<svg width="16" height="16" viewBox="0 0 16 16" fill="none" xmlns="http://www.w3.org/2000/svg">
<g clip-path="url(#clip0_2538_13573)">
<path d="M4.871 0.00799586C4.66578 0.0358132 4.47408 0.126042 4.32186 0.266457C4.16964 0.406873 4.06426 0.590687 4.02 0.792996C4.004 0.858996 4.004 0.890996 4.004 1.43L4 2L3.383 2.004C2.723 2.004 2.691 2.008 2.453 2.051C1.961 2.145 1.523 2.344 1.125 2.661C1 2.757 0.758 3 0.66 3.124C0.241482 3.64194 0.0103061 4.28613 0.00399985 4.952C-0.00465256 5.0908 0.0170819 5.22981 0.0676871 5.35935C0.118292 5.48888 0.19655 5.60582 0.297 5.702C0.449 5.854 0.617 5.944 0.836 5.983C0.91 6 15.09 6 15.164 5.984C15.3695 5.95139 15.5589 5.85316 15.704 5.704C15.8043 5.60773 15.8823 5.49075 15.9328 5.36122C15.9832 5.23169 16.0048 5.09272 15.996 4.954C15.9899 4.28778 15.7587 3.6432 15.34 3.125C15.1977 2.95527 15.0407 2.79834 14.871 2.656C14.4299 2.3029 13.8976 2.08234 13.336 2.02C13.246 2.008 13.133 2.004 12.617 2.004L12 2L11.996 1.43C11.996 0.808996 11.996 0.831996 11.946 0.675996C11.8881 0.510233 11.7879 0.362487 11.6553 0.247414C11.5227 0.132342 11.3623 0.0539431 11.19 0.0199959C10.9322 -0.0314788 10.6645 0.0208316 10.4451 0.165565C10.2257 0.310299 10.0722 0.535766 10.018 0.792996C10.003 0.858996 10.003 0.890996 10.003 1.43L10 2H6L5.996 1.43C5.996 0.808996 5.996 0.831996 5.946 0.675996C5.88863 0.510989 5.78932 0.363745 5.65782 0.248732C5.52633 0.133718 5.36718 0.0548914 5.196 0.0199959C5.08808 0.00431271 4.97978 0.000289551 4.871 0.00799586ZM0.871 7.008C0.695258 7.03423 0.528872 7.10401 0.387 7.211C0.23 7.332 0.0969999 7.527 0.0429998 7.715C-1.52737e-07 7.859 0.00299985 7.691 0.00299985 10.547C0.00299985 13.074 0.00299984 13.215 0.0199998 13.328C0.0589998 13.684 0.152 14.008 0.305 14.316C0.526548 14.7696 0.858996 15.1599 1.27154 15.4507C1.68408 15.7416 2.16337 15.9237 2.665 15.98C2.754 15.996 3.109 15.996 7.915 16C11.59 16 13.102 16 13.191 15.992C13.6385 15.9654 14.0741 15.8378 14.4652 15.6187C14.8563 15.3996 15.1926 15.0947 15.449 14.727C15.746 14.305 15.914 13.863 15.98 13.328C15.996 13.223 15.996 13.074 15.996 10.551C15.996 8.426 15.992 7.875 15.984 7.836C15.9514 7.63049 15.8532 7.44106 15.704 7.296C15.5692 7.15691 15.3963 7.06087 15.207 7.02L15.137 7.004H8.03C3.89 7.004 0.902 7.004 0.871 7.008Z" fill="currentColor"/>
</g>
<defs>
<clipPath id="clip0_2538_13573">
<rect width="16" height="16" fill="white"/>
</clipPath>
</defs>
</svg>
