<svg width="16" height="16" viewBox="0 0 16 16" fill="none" xmlns="http://www.w3.org/2000/svg">
<path d="M9.871 2.008C9.727 2.028 9.574 2.086 9.453 2.164C9.387 2.207 9.148 2.445 6.691 4.902L4 7.59L2.809 6.398C1.535 5.128 1.586 5.176 1.437 5.102C1.22064 4.99784 0.974273 4.97409 0.742001 5.035C0.583874 5.07896 0.438765 5.1606 0.319112 5.27294C0.19946 5.38528 0.108833 5.52496 0.055001 5.68C0.0179248 5.78248 0.000619046 5.89107 0.00400096 6C0.00400096 6.21 0.051001 6.371 0.168001 6.555C0.207001 6.613 0.402001 6.813 1.797 8.203C3.234 9.641 3.387 9.793 3.453 9.836C3.813 10.066 4.277 10.051 4.613 9.789C4.633 9.773 6.035 8.375 7.723 6.688C10.418 3.988 10.801 3.605 10.832 3.551C10.9429 3.389 11.0003 3.1963 10.996 3C10.999 2.86885 10.9745 2.73852 10.9241 2.61742C10.8736 2.49633 10.7983 2.38717 10.703 2.297C10.5652 2.15385 10.3862 2.05705 10.191 2.02C10.0851 2.00433 9.97779 2.00031 9.871 2.008ZM11.871 6.008C11.6658 6.03582 11.4741 6.12605 11.3219 6.26646C11.1696 6.40688 11.0643 6.59069 11.02 6.793C11.004 6.863 11.004 6.875 11.004 7.93L11 9L9.93 9.004C8.75 9.004 8.84 9 8.68 9.054C8.344 9.168 8.09 9.457 8.02 9.809C8 9.902 8 10.098 8.02 10.191C8.09 10.543 8.344 10.832 8.68 10.945C8.84 11 8.75 10.996 9.93 10.996L11 11L11.004 12.07C11.004 13.125 11.004 13.137 11.02 13.207C11.066 13.41 11.16 13.574 11.3 13.715C11.437 13.848 11.61 13.938 11.812 13.98C11.902 14 12.094 14 12.192 13.98C12.543 13.91 12.832 13.66 12.945 13.32C13 13.16 12.996 13.25 12.996 12.07L13 11L14.07 10.996C15.125 10.996 15.137 10.996 15.207 10.98C15.613 10.883 15.895 10.594 15.98 10.187C16 10.097 16 9.902 15.98 9.813C15.9426 9.61979 15.8495 9.44175 15.7122 9.30084C15.5748 9.15992 15.3992 9.0623 15.207 9.02C15.137 9.004 15.125 9.004 14.07 9.004L13 9L12.996 7.93C12.996 6.75 13 6.84 12.946 6.676C12.8886 6.51099 12.7893 6.36375 12.6578 6.24874C12.5263 6.13372 12.3672 6.05489 12.196 6.02C12.0884 6.00439 11.9795 6.00037 11.871 6.008Z" fill="currentColor"/>
</svg>
