<svg width="16" height="16" viewBox="0 0 16 16" fill="none" xmlns="http://www.w3.org/2000/svg">
<path d="M5.871 0.00799941C5.727 0.0279994 5.574 0.0859994 5.453 0.163999C5.387 0.206999 5.262 0.331999 4.191 1.402L3 2.59L2.312 1.902C1.719 1.312 1.613 1.207 1.555 1.168C1.39156 1.05694 1.19755 0.999615 1 1.004C0.889845 1.0006 0.780007 1.01755 0.676001 1.054C0.395001 1.148 0.148001 1.394 0.055001 1.68C0.0179248 1.78248 0.000619046 1.89107 0.00400096 2C0.00400096 2.21 0.051001 2.371 0.168001 2.555C0.207001 2.613 0.352001 2.758 1.297 3.703C2.27 4.68 2.387 4.793 2.453 4.836C2.813 5.066 3.277 5.051 3.613 4.789C3.633 4.773 4.359 4.051 5.223 3.188C6.59 1.815 6.8 1.605 6.832 1.55C6.94273 1.38828 7.00007 1.19596 6.996 0.999999C6.99904 0.868847 6.97453 0.738515 6.92406 0.617423C6.87359 0.496332 6.79828 0.387173 6.703 0.296999C6.56516 0.153847 6.38625 0.0570525 6.191 0.0199994C6.08509 0.00433461 5.97779 0.000310648 5.871 0.00799941ZM8.871 2.008C8.66321 2.03535 8.46927 2.1273 8.31657 2.27085C8.16387 2.4144 8.06013 2.60229 8.02 2.808C8 2.902 8 3.098 8.02 3.191C8.05895 3.38647 8.15513 3.56595 8.29634 3.70662C8.43754 3.84729 8.61738 3.9428 8.813 3.981C8.875 3.996 9.016 3.996 12 3.996C14.965 3.996 15.125 3.996 15.191 3.98C15.3866 3.94175 15.5663 3.84592 15.7071 3.7048C15.8479 3.56368 15.9432 3.38371 15.981 3.188C16 3.098 16 2.902 15.981 2.812C15.944 2.61858 15.8509 2.44034 15.7132 2.2995C15.5756 2.15866 15.3995 2.06145 15.207 2.02L15.137 2.004H12.03C10.26 2.004 8.901 2.004 8.87 2.008H8.871ZM5.871 5.008C5.727 5.028 5.574 5.086 5.453 5.164C5.387 5.207 5.262 5.332 4.191 6.402L3 7.59L2.312 6.902C1.719 6.312 1.613 6.207 1.555 6.168C1.39156 6.05694 1.19755 5.99962 1 6.004C0.889845 6.0006 0.780007 6.01755 0.676001 6.054C0.395001 6.148 0.148001 6.394 0.055001 6.68C0.0179248 6.78248 0.000619046 6.89107 0.00400096 7C0.00400096 7.21 0.051001 7.371 0.168001 7.555C0.207001 7.613 0.352001 7.758 1.297 8.703C2.27 9.68 2.387 9.793 2.453 9.836C2.813 10.066 3.277 10.051 3.613 9.789C3.633 9.773 4.359 9.051 5.223 8.188C6.59 6.816 6.8 6.604 6.832 6.55C6.94273 6.38828 7.00007 6.19596 6.996 6C6.99904 5.86885 6.97453 5.73851 6.92406 5.61742C6.87359 5.49633 6.79828 5.38717 6.703 5.297C6.56516 5.15385 6.38625 5.05705 6.191 5.02C6.08509 5.00433 5.97779 5.00031 5.871 5.008ZM8.871 7.008C8.66321 7.03535 8.46927 7.1273 8.31657 7.27085C8.16387 7.4144 8.06013 7.60229 8.02 7.808C8 7.902 8 8.098 8.02 8.191C8.05895 8.38647 8.15513 8.56595 8.29634 8.70662C8.43754 8.84729 8.61738 8.9428 8.813 8.981C8.875 8.996 9.016 8.996 12 8.996C14.965 8.996 15.125 8.996 15.191 8.98C15.3868 8.94168 15.5666 8.8457 15.7073 8.70439C15.8481 8.56308 15.9434 8.38289 15.981 8.187C16 8.097 16 7.902 15.981 7.813C15.9442 7.6194 15.8511 7.44094 15.7135 7.29991C15.5758 7.15888 15.3997 7.06152 15.207 7.02L15.137 7.004H12.03C10.26 7.004 8.901 7.004 8.87 7.008H8.871ZM5.871 10.008C5.727 10.028 5.574 10.086 5.453 10.164C5.387 10.207 5.262 10.332 4.191 11.402L3 12.59L2.312 11.902C1.719 11.312 1.613 11.207 1.555 11.168C1.39156 11.0569 1.19755 10.9996 1 11.004C0.889845 11.0006 0.780007 11.0175 0.676001 11.054C0.395001 11.148 0.148001 11.394 0.055001 11.68C0.0179248 11.7825 0.000619046 11.8911 0.00400096 12C0.00400096 12.21 0.051001 12.371 0.168001 12.555C0.207001 12.613 0.352001 12.758 1.297 13.703C2.27 14.68 2.387 14.793 2.453 14.836C2.813 15.066 3.277 15.051 3.613 14.789C3.633 14.773 4.359 14.051 5.223 13.188C6.59 11.816 6.8 11.604 6.832 11.55C6.94273 11.3883 7.00007 11.196 6.996 11C6.99904 10.8688 6.97453 10.7385 6.92406 10.6174C6.87359 10.4963 6.79828 10.3872 6.703 10.297C6.56516 10.1538 6.38625 10.0571 6.191 10.02C6.08509 10.0043 5.97779 10.0003 5.871 10.008ZM8.871 12.008C8.66321 12.0354 8.46927 12.1273 8.31657 12.2708C8.16387 12.4144 8.06013 12.6023 8.02 12.808C8 12.902 8 13.098 8.02 13.191C8.05895 13.3865 8.15513 13.566 8.29634 13.7066C8.43754 13.8473 8.61738 13.9428 8.813 13.981C8.875 13.996 9.016 13.996 12 13.996C14.965 13.996 15.125 13.996 15.191 13.98C15.3868 13.9417 15.5666 13.8457 15.7073 13.7044C15.8481 13.5631 15.9434 13.3829 15.981 13.187C16 13.097 16 12.902 15.981 12.813C15.9442 12.6194 15.8511 12.4409 15.7135 12.2999C15.5758 12.1589 15.3997 12.0615 15.207 12.02L15.137 12.004H12.03C10.26 12.004 8.901 12.004 8.87 12.008H8.871Z" fill="currentColor"/>
</svg>
