<svg width="16" height="16" viewBox="0 0 16 16" fill="none" xmlns="http://www.w3.org/2000/svg">
<path d="M7.633 0.00797851C6.56331 0.0541652 5.51389 0.315465 4.54743 0.776272C3.58098 1.23708 2.7173 1.88794 2.008 2.68998C0.824026 4.0289 0.122713 5.72585 0.0160005 7.50998C-0.0567429 8.68158 0.128621 9.85486 0.559 10.947C1.1564 12.4549 2.1968 13.7463 3.543 14.651C5.17698 15.7353 7.14979 16.1878 9.093 15.924C10.328 15.7553 11.5064 15.3 12.534 14.5945C13.5616 13.889 14.4098 12.9529 15.011 11.861C15.6619 10.6789 16.0006 9.35039 15.995 8.00098C16.0004 6.41317 15.5309 4.86 14.647 3.54098C13.7889 2.2596 12.5782 1.25411 11.161 0.645979C10.4206 0.329494 9.63686 0.126218 8.836 0.0429785C8.43612 0.0062933 8.03434 -0.0053961 7.633 0.00797851ZM11.945 5.01998C12.348 5.10498 12.645 5.40198 12.73 5.80498C12.742 5.85498 12.746 5.90598 12.746 5.99998C12.7484 6.06538 12.743 6.13084 12.73 6.19498C12.6986 6.34035 12.6373 6.4776 12.55 6.59798C12.488 6.68798 7.937 11.238 7.848 11.301C7.72762 11.3883 7.59037 11.4496 7.445 11.481C7.31573 11.5004 7.18427 11.5004 7.055 11.481C6.90963 11.4496 6.77238 11.3883 6.652 11.301C6.566 11.238 4.262 8.93398 4.199 8.84798C4.11167 8.7276 4.05037 8.59035 4.019 8.44498C3.99954 8.31571 3.99954 8.18425 4.019 8.05498C4.105 7.65198 4.402 7.35498 4.805 7.26998C4.898 7.24998 5.102 7.24998 5.195 7.26998C5.34 7.29998 5.48 7.36298 5.598 7.44998C5.641 7.47998 5.926 7.75798 6.457 8.28998L7.25 9.08198L9.172 7.16398C10.516 5.81998 11.109 5.22998 11.152 5.19898C11.273 5.10898 11.442 5.03898 11.578 5.01598C11.609 5.01198 11.641 5.00398 11.648 5.00398C11.7473 5.00014 11.8467 5.00549 11.945 5.01998Z" fill="currentColor"/>
</svg>
