<svg width="16" height="16" viewBox="0 0 16 16" fill="none" xmlns="http://www.w3.org/2000/svg">
<path d="M7.633 0.00803954C6.56331 0.0542262 5.51389 0.315526 4.54743 0.776333C3.58098 1.23714 2.7173 1.888 2.008 2.69004C0.824026 4.02896 0.122713 5.72591 0.0160005 7.51004C-0.0567429 8.68164 0.128621 9.85493 0.559 10.947C1.1564 12.4549 2.1968 13.7464 3.543 14.651C5.17698 15.7354 7.14979 16.1879 9.093 15.924C10.328 15.7553 11.5064 15.3001 12.534 14.5946C13.5616 13.8891 14.4098 12.953 15.011 11.861C15.6619 10.679 16.0006 9.35045 15.995 8.00104C16.0004 6.41323 15.5309 4.86006 14.647 3.54104C13.7889 2.25966 12.5782 1.25417 11.161 0.64604C10.4206 0.329555 9.63686 0.126279 8.836 0.0430395C8.43612 0.00635433 8.03434 -0.00533506 7.633 0.00803954ZM5.195 5.02004C5.34 5.05004 5.48 5.11304 5.598 5.20004C6.34365 5.92196 7.07775 6.65572 7.8 7.40104C7.886 7.51904 7.948 7.65904 7.98 7.80404C7.991 7.85404 7.995 7.90504 7.995 7.99904C7.99739 8.06444 7.99202 8.1299 7.979 8.19404C7.94763 8.33941 7.88633 8.47666 7.799 8.59704C7.07742 9.34302 6.344 10.0774 5.599 10.8C5.47862 10.8874 5.34137 10.9487 5.196 10.98C5.06673 10.9995 4.93527 10.9995 4.806 10.98C4.61222 10.9411 4.43429 10.8456 4.29461 10.7058C4.15492 10.5659 4.05973 10.3879 4.021 10.194C4.00154 10.0648 4.00154 9.93331 4.021 9.80404C4.051 9.65904 4.114 9.51904 4.201 9.40104C4.228 9.36204 4.474 9.10804 4.915 8.67104L5.582 8.00004L4.914 7.32804C4.473 6.89104 4.227 6.63704 4.199 6.59804C4.11167 6.47766 4.05037 6.34041 4.019 6.19504C3.99954 6.06577 3.99954 5.93431 4.019 5.80504C4.074 5.55504 4.207 5.34404 4.406 5.19504C4.523 5.10904 4.691 5.03904 4.828 5.01504C4.859 5.01204 4.891 5.00404 4.898 5.00404C4.99728 5.0002 5.09671 5.00555 5.195 5.02004ZM9.195 5.02004C9.34 5.05004 9.48 5.11304 9.598 5.20004C10.3437 5.92196 11.0777 6.65572 11.8 7.40104C11.886 7.51904 11.948 7.65904 11.98 7.80404C11.991 7.85404 11.995 7.90504 11.995 7.99904C11.9974 8.06444 11.992 8.1299 11.979 8.19404C11.9476 8.33941 11.8863 8.47666 11.799 8.59704C11.0774 9.34302 10.344 10.0774 9.599 10.8C9.47862 10.8874 9.34137 10.9487 9.196 10.98C9.06673 10.9995 8.93527 10.9995 8.806 10.98C8.61222 10.9411 8.43429 10.8456 8.29461 10.7058C8.15492 10.5659 8.05973 10.3879 8.021 10.194C8.00798 10.1299 8.00261 10.0644 8.005 9.99904C8.005 9.90504 8.009 9.85404 8.021 9.80404C8.051 9.65904 8.114 9.51904 8.201 9.40104C8.228 9.36204 8.474 9.10804 8.915 8.67104L9.582 8.00004L8.914 7.32804C8.473 6.89104 8.227 6.63704 8.199 6.59804C8.11167 6.47766 8.05037 6.34041 8.019 6.19504C7.99954 6.06577 7.99954 5.93431 8.019 5.80504C8.074 5.55504 8.207 5.34404 8.406 5.19504C8.523 5.10904 8.691 5.03904 8.828 5.01504C8.859 5.01204 8.891 5.00404 8.898 5.00404C8.99728 5.0002 9.09671 5.00555 9.195 5.02004Z" fill="currentColor"/>
</svg>
