<svg width="16" height="16" viewBox="0 0 16 16" fill="none" xmlns="http://www.w3.org/2000/svg">
<path d="M7.633 0.00803954C6.56331 0.0542262 5.51389 0.315526 4.54743 0.776333C3.58098 1.23714 2.7173 1.888 2.008 2.69004C0.824026 4.02896 0.122713 5.72591 0.0160005 7.51004C-0.0567429 8.68164 0.128621 9.85493 0.559 10.947C1.1564 12.4549 2.1968 13.7464 3.543 14.651C5.17698 15.7354 7.14979 16.1879 9.093 15.924C10.328 15.7553 11.5064 15.3001 12.534 14.5946C13.5616 13.8891 14.4098 12.953 15.011 11.861C15.6619 10.679 16.0006 9.35045 15.995 8.00104C16.0004 6.41323 15.5309 4.86006 14.647 3.54104C13.7889 2.25966 12.5782 1.25417 11.161 0.64604C10.4206 0.329555 9.63686 0.126279 8.836 0.0430395C8.43612 0.00635433 8.03434 -0.00533506 7.633 0.00803954ZM8.195 6.02004C8.34 6.05004 8.48 6.11304 8.598 6.20004C9.34365 6.92196 10.0777 7.65571 10.8 8.40104C10.886 8.51904 10.948 8.65904 10.98 8.80404C10.991 8.85404 10.995 8.90504 10.995 8.99904C10.9974 9.06444 10.992 9.1299 10.979 9.19404C10.894 9.59704 10.597 9.89404 10.194 9.97904C10.0647 9.9985 9.93327 9.9985 9.804 9.97904C9.65863 9.94767 9.52138 9.88637 9.401 9.79904C9.362 9.77204 9.108 9.52604 8.667 9.08504L8 8.41804L7.328 9.08604C6.891 9.52704 6.637 9.77304 6.598 9.80104C6.47762 9.88837 6.34037 9.94967 6.195 9.98104C6.06573 10.0005 5.93427 10.0005 5.805 9.98104C5.61122 9.94206 5.43329 9.84664 5.29361 9.70678C5.15392 9.56692 5.05873 9.38887 5.02 9.19504C5.00054 9.06577 5.00054 8.93431 5.02 8.80504C5.05 8.66004 5.113 8.52004 5.2 8.40204C5.92192 7.65639 6.65568 6.92229 7.401 6.20004C7.522 6.11004 7.691 6.04004 7.827 6.01704C7.858 6.01304 7.89 6.00504 7.897 6.00504C7.99628 6.0012 8.09571 6.00655 8.194 6.02104L8.195 6.02004Z" fill="currentColor"/>
</svg>
