<svg width="16" height="16" viewBox="0 0 16 16" fill="none" xmlns="http://www.w3.org/2000/svg">
<g clip-path="url(#clip0_2538_16718)">
<path d="M7.645 0.00804636C6.9351 0.0390242 6.23239 0.163429 5.555 0.378046C4.715 0.648046 3.902 1.06605 3.191 1.60205C2.19865 2.34703 1.39384 3.3133 0.840571 4.424C0.287305 5.5347 0.000853145 6.75918 0.00400112 8.00005C-0.00080554 9.49023 0.412428 10.9519 1.19676 12.219C1.98108 13.4861 3.10506 14.5078 4.441 15.168C4.77 15.328 5.023 15.438 5.344 15.551C6.73102 16.0326 8.2228 16.1283 9.66 15.828C11.3522 15.4702 12.8829 14.5738 14.023 13.273C15.0658 12.0795 15.7306 10.603 15.933 9.03105C15.98 8.65605 15.996 8.41105 15.996 8.00005C15.996 7.59005 15.98 7.34405 15.934 6.96905C15.6729 4.94747 14.65 3.10182 13.074 1.80905C11.7905 0.754286 10.2087 0.128286 8.551 0.0190464C8.348 0.00504636 7.832 -0.000953641 7.645 0.00804636ZM8.496 2.02005C9.38247 2.0912 10.2419 2.35918 11.0117 2.80446C11.7815 3.24974 12.4423 3.86111 12.946 4.59405C13.8303 5.8821 14.1788 7.4636 13.918 9.00405C13.7395 10.0695 13.2759 11.0668 12.5764 11.89C11.877 12.7133 10.9676 13.3318 9.945 13.68C9.012 14 7.985 14.082 6.996 13.918C5.7673 13.7128 4.63364 13.1281 3.754 12.246C3.14447 11.6397 2.67395 10.9082 2.375 10.102C2.1762 9.56602 2.05498 9.00435 2.015 8.43405C1.99935 8.14493 1.99935 7.85517 2.015 7.56605C2.07549 6.70731 2.32027 5.87168 2.7327 5.11604C3.14512 4.36039 3.71549 3.70247 4.405 3.18705C5.31248 2.51134 6.39291 2.1067 7.521 2.02005C7.743 2.00405 7.755 2.00005 8.067 2.00405C8.243 2.00805 8.41 2.01205 8.496 2.02005Z" fill="currentColor"/>
<path d="M6.871 5.00805C6.727 5.02805 6.574 5.08605 6.453 5.16405C6.387 5.20705 6.27 5.32005 5.297 6.29705C4.352 7.24205 4.207 7.38705 4.168 7.44505C4.05694 7.60849 3.99962 7.80249 4.004 8.00005C4.004 8.21005 4.051 8.36705 4.168 8.55005C4.199 8.60505 4.355 8.76205 5.281 9.69105C6.094 10.504 6.371 10.777 6.421 10.812C6.535 10.895 6.68 10.957 6.828 10.984C6.906 11 7.109 11 7.188 10.98C7.38439 10.9438 7.56448 10.8469 7.703 10.703C7.79828 10.6129 7.87359 10.5037 7.92406 10.3826C7.97453 10.2615 7.99904 10.1312 7.996 10C8.00039 9.80249 7.94306 9.60849 7.832 9.44505C7.793 9.38705 7.688 9.28105 7.098 8.68705L6.41 8.00005L7.098 7.30905C7.688 6.71905 7.793 6.61305 7.832 6.55505C7.94306 6.3916 8.00039 6.1976 7.996 6.00005C7.99904 5.86889 7.97453 5.73856 7.92406 5.61747C7.87359 5.49638 7.79828 5.38722 7.703 5.29705C7.56516 5.15389 7.38625 5.0571 7.191 5.02005C7.08509 5.00438 6.97779 5.00036 6.871 5.00805ZM10.871 5.00805C10.727 5.02805 10.574 5.08605 10.453 5.16405C10.387 5.20705 10.27 5.32005 9.297 6.29705C8.352 7.24205 8.207 7.38705 8.168 7.44505C8.05694 7.60849 7.99962 7.80249 8.004 8.00005C8.004 8.21005 8.051 8.36705 8.168 8.55005C8.199 8.60505 8.355 8.76205 9.281 9.69105C10.094 10.504 10.371 10.777 10.421 10.812C10.535 10.895 10.68 10.957 10.828 10.984C10.906 11 11.109 11 11.188 10.98C11.3844 10.9438 11.5645 10.8469 11.703 10.703C11.7983 10.6129 11.8736 10.5037 11.9241 10.3826C11.9745 10.2615 11.999 10.1312 11.996 10C12.0004 9.80249 11.9431 9.60849 11.832 9.44505C11.793 9.38705 11.687 9.28105 11.098 8.68705L10.41 8.00005L11.098 7.30905C11.688 6.71905 11.793 6.61305 11.832 6.55505C11.9431 6.3916 12.0004 6.1976 11.996 6.00005C11.999 5.86889 11.9745 5.73856 11.9241 5.61747C11.8736 5.49638 11.7983 5.38722 11.703 5.29705C11.5652 5.15389 11.3862 5.0571 11.191 5.02005C11.0851 5.00438 10.9778 5.00036 10.871 5.00805Z" fill="currentColor"/>
</g>
<defs>
<clipPath id="clip0_2538_16718">
<rect width="16" height="16" fill="white"/>
</clipPath>
</defs>
</svg>
