<svg width="16" height="16" viewBox="0 0 16 16" fill="none" xmlns="http://www.w3.org/2000/svg">
<g clip-path="url(#clip0_2538_17484)">
<path d="M7.645 0.00804636C6.9351 0.0390242 6.23239 0.163429 5.555 0.378046C4.715 0.648046 3.902 1.06605 3.191 1.60205C2.19865 2.34703 1.39384 3.3133 0.840571 4.424C0.287305 5.5347 0.000853145 6.75918 0.00400112 8.00005C-0.00080554 9.49023 0.412428 10.9519 1.19676 12.219C1.98108 13.4861 3.10506 14.5078 4.441 15.168C4.77 15.328 5.023 15.438 5.344 15.551C6.73102 16.0326 8.2228 16.1283 9.66 15.828C11.3522 15.4702 12.8829 14.5738 14.023 13.273C15.0658 12.0795 15.7306 10.603 15.933 9.03105C15.98 8.65605 15.996 8.41105 15.996 8.00005C15.996 7.59005 15.98 7.34405 15.934 6.96905C15.6729 4.94747 14.65 3.10182 13.074 1.80905C11.7905 0.754286 10.2087 0.128286 8.551 0.0190464C8.348 0.00504636 7.832 -0.000953641 7.645 0.00804636ZM8.496 2.02005C9.38247 2.0912 10.2419 2.35918 11.0117 2.80446C11.7815 3.24974 12.4423 3.86111 12.946 4.59405C13.8303 5.8821 14.1788 7.4636 13.918 9.00405C13.7395 10.0695 13.2759 11.0668 12.5764 11.89C11.877 12.7133 10.9676 13.3318 9.945 13.68C9.012 14 7.985 14.082 6.996 13.918C5.7673 13.7128 4.63364 13.1281 3.754 12.246C3.14447 11.6397 2.67395 10.9082 2.375 10.102C2.1762 9.56602 2.05498 9.00435 2.015 8.43405C1.99935 8.14493 1.99935 7.85517 2.015 7.56605C2.07549 6.70731 2.32027 5.87168 2.7327 5.11604C3.14512 4.36039 3.71549 3.70247 4.405 3.18705C5.31248 2.51134 6.39291 2.1067 7.521 2.02005C7.743 2.00405 7.755 2.00005 8.067 2.00405C8.243 2.00805 8.41 2.01205 8.496 2.02005Z" fill="currentColor"/>
<path d="M4.871 5.00805C4.65308 5.0386 4.45133 5.14018 4.297 5.29705C4.20172 5.38722 4.12641 5.49638 4.07594 5.61747C4.02547 5.73856 4.00096 5.86889 4.004 6.00005C4.004 6.21005 4.051 6.37105 4.168 6.55505C4.207 6.61305 4.312 6.71905 4.902 7.30905L5.59 8.00005L4.902 8.68805C4.312 9.28105 4.207 9.38705 4.168 9.44505C4.05694 9.60849 3.99962 9.80249 4.004 10C4.004 10.215 4.051 10.371 4.168 10.555C4.227 10.645 4.359 10.773 4.453 10.832C4.62669 10.9467 4.8319 11.0043 5.0399 10.9965C5.24789 10.9888 5.44828 10.9163 5.613 10.789C5.633 10.773 6.133 10.277 6.723 9.68805C7.648 8.76205 7.801 8.60505 7.832 8.55105C7.94293 8.38904 8.00029 8.19634 7.996 8.00005C8.00039 7.80249 7.94306 7.60849 7.832 7.44505C7.793 7.38705 7.648 7.24205 6.703 6.29705C5.551 5.14005 5.586 5.17605 5.437 5.10205C5.35887 5.06426 5.27618 5.0367 5.191 5.02005C5.08509 5.00438 4.97779 5.00036 4.871 5.00805ZM8.871 5.00805C8.65308 5.0386 8.45133 5.14018 8.297 5.29705C8.20172 5.38722 8.12641 5.49638 8.07594 5.61747C8.02547 5.73856 8.00096 5.86889 8.004 6.00005C8.004 6.21005 8.051 6.37105 8.168 6.55505C8.207 6.61305 8.313 6.71905 8.902 7.30905L9.59 8.00005L8.902 8.68805C8.312 9.28105 8.207 9.38705 8.168 9.44505C8.05694 9.60849 7.99962 9.80249 8.004 10C8.004 10.215 8.051 10.371 8.168 10.555C8.227 10.645 8.359 10.773 8.453 10.832C8.62669 10.9467 8.8319 11.0043 9.0399 10.9965C9.24789 10.9888 9.44828 10.9163 9.613 10.789C9.633 10.773 10.133 10.277 10.723 9.68805C11.648 8.76205 11.801 8.60505 11.832 8.55105C11.9429 8.38904 12.0003 8.19634 11.996 8.00005C12.0004 7.80249 11.9431 7.60849 11.832 7.44505C11.793 7.38705 11.648 7.24205 10.703 6.29705C9.551 5.14005 9.586 5.17605 9.438 5.10205C9.35955 5.06418 9.27653 5.03661 9.191 5.02005C9.08509 5.00438 8.97779 5.00036 8.871 5.00805Z" fill="currentColor"/>
</g>
<defs>
<clipPath id="clip0_2538_17484">
<rect width="16" height="16" fill="white"/>
</clipPath>
</defs>
</svg>
