<svg width="16" height="16" viewBox="0 0 16 16" fill="none" xmlns="http://www.w3.org/2000/svg">
<path d="M6.871 2.00806C6.727 2.02806 6.574 2.08606 6.453 2.16406C6.387 2.20706 6.156 2.43406 3.797 4.79706C1.507 7.08206 1.207 7.38706 1.168 7.44506C1.05694 7.6085 0.999615 7.80251 1.004 8.00006C1.004 8.21006 1.051 8.36706 1.168 8.55006C1.199 8.60506 1.523 8.93406 3.781 11.1911C5.77 13.1801 6.371 13.7771 6.421 13.8121C6.535 13.8951 6.68 13.9571 6.828 13.9841C6.906 14.0001 7.109 14.0001 7.188 13.9801C7.38438 13.9438 7.56448 13.8469 7.703 13.7031C7.79828 13.6129 7.87359 13.5037 7.92406 13.3826C7.97453 13.2615 7.99904 13.1312 7.996 13.0001C8.00007 12.8041 7.94273 12.6118 7.832 12.4501C7.801 12.3951 7.52 12.1131 5.602 10.1911L3.41 8.00006L5.602 5.80506C7.52 3.88706 7.8 3.60506 7.832 3.55006C7.94273 3.38834 8.00007 3.19602 7.996 3.00006C7.99904 2.86891 7.97453 2.73858 7.92406 2.61748C7.87359 2.49639 7.79828 2.38723 7.703 2.29706C7.56516 2.15391 7.38624 2.05711 7.191 2.02006C7.08509 2.0044 6.97778 2.00037 6.871 2.00806ZM13.871 2.00806C13.727 2.02806 13.574 2.08606 13.453 2.16406C13.387 2.20706 13.156 2.43406 10.797 4.79706C8.507 7.08206 8.207 7.38706 8.168 7.44506C8.05694 7.6085 7.99961 7.80251 8.004 8.00006C8.004 8.21006 8.051 8.36706 8.168 8.55006C8.199 8.60506 8.523 8.93406 10.781 11.1911C12.77 13.1801 13.371 13.7771 13.421 13.8121C13.535 13.8951 13.68 13.9571 13.828 13.9841C13.906 14.0001 14.109 14.0001 14.188 13.9801C14.3844 13.9438 14.5645 13.8469 14.703 13.7031C14.7983 13.6129 14.8736 13.5037 14.9241 13.3826C14.9745 13.2615 14.999 13.1312 14.996 13.0001C15.0001 12.8041 14.9427 12.6118 14.832 12.4501C14.801 12.3951 14.52 12.1131 12.602 10.1911L10.41 8.00006L12.602 5.80506C14.52 3.88706 14.801 3.60506 14.832 3.55106C14.9429 3.38906 15.0003 3.19636 14.996 3.00006C14.999 2.86891 14.9745 2.73858 14.9241 2.61748C14.8736 2.49639 14.7983 2.38723 14.703 2.29706C14.5652 2.15391 14.3862 2.05711 14.191 2.02006C14.0851 2.0044 13.9778 2.00037 13.871 2.00806Z" fill="currentColor"/>
</svg>
