<svg width="16" height="16" viewBox="0 0 16 16" fill="none" xmlns="http://www.w3.org/2000/svg">
<g clip-path="url(#clip0_2538_20344)">
<path d="M7.645 0.00804636C6.9351 0.0390242 6.23239 0.163429 5.555 0.378046C4.715 0.648046 3.902 1.06605 3.191 1.60205C2.19865 2.34703 1.39384 3.3133 0.840571 4.424C0.287305 5.5347 0.000853145 6.75918 0.00400112 8.00005C-0.00080554 9.49023 0.412428 10.9519 1.19676 12.219C1.98108 13.4861 3.10506 14.5078 4.441 15.168C4.77 15.328 5.023 15.438 5.344 15.551C6.73102 16.0326 8.2228 16.1283 9.66 15.828C11.3522 15.4702 12.8829 14.5738 14.023 13.273C15.0658 12.0795 15.7306 10.603 15.933 9.03105C15.98 8.65605 15.996 8.41105 15.996 8.00005C15.996 7.59005 15.98 7.34405 15.934 6.96905C15.6729 4.94747 14.65 3.10182 13.074 1.80905C11.7905 0.754286 10.2087 0.128286 8.551 0.0190464C8.348 0.00504636 7.832 -0.000953641 7.645 0.00804636ZM8.496 2.02005C9.38247 2.0912 10.2419 2.35918 11.0117 2.80446C11.7815 3.24974 12.4423 3.86111 12.946 4.59405C13.8303 5.8821 14.1788 7.4636 13.918 9.00405C13.7395 10.0695 13.2759 11.0668 12.5764 11.89C11.877 12.7133 10.9676 13.3318 9.945 13.68C9.012 14 7.985 14.082 6.996 13.918C5.7673 13.7128 4.63364 13.1281 3.754 12.246C3.14447 11.6397 2.67395 10.9082 2.375 10.102C2.1762 9.56602 2.05498 9.00435 2.015 8.43405C1.99935 8.14493 1.99935 7.85517 2.015 7.56605C2.07549 6.70731 2.32027 5.87168 2.7327 5.11604C3.14512 4.36039 3.71549 3.70247 4.405 3.18705C5.31248 2.51134 6.39291 2.1067 7.521 2.02005C7.743 2.00405 7.755 2.00005 8.067 2.00405C8.243 2.00805 8.41 2.01205 8.496 2.02005Z" fill="currentColor"/>
<path d="M7.371 5.00805C7.15308 5.0386 6.95133 5.14018 6.797 5.29705C6.70172 5.38722 6.62641 5.49638 6.57594 5.61747C6.52547 5.73856 6.50096 5.86889 6.504 6.00005C6.504 6.21005 6.551 6.37105 6.668 6.55505C6.707 6.61305 6.812 6.71905 7.402 7.30905L8.09 8.00005L7.402 8.68805C6.812 9.28105 6.707 9.38705 6.668 9.44505C6.55694 9.60849 6.49962 9.80249 6.504 10C6.504 10.215 6.551 10.371 6.668 10.555C6.727 10.645 6.859 10.773 6.953 10.832C7.12669 10.9467 7.3319 11.0043 7.5399 10.9965C7.74789 10.9888 7.94828 10.9163 8.113 10.789C8.133 10.773 8.633 10.277 9.223 9.68805C10.148 8.76205 10.301 8.60505 10.332 8.55105C10.4429 8.38904 10.5003 8.19634 10.496 8.00005C10.5004 7.80249 10.4431 7.60849 10.332 7.44505C10.293 7.38705 10.148 7.24205 9.203 6.29705C8.051 5.14005 8.086 5.17605 7.938 5.10205C7.85955 5.06418 7.77653 5.03661 7.691 5.02005C7.58509 5.00438 7.47779 5.00036 7.371 5.00805Z" fill="currentColor"/>
</g>
<defs>
<clipPath id="clip0_2538_20344">
<rect width="16" height="16" fill="white"/>
</clipPath>
</defs>
</svg>
