<svg width="16" height="16" viewBox="0 0 16 16" fill="none" xmlns="http://www.w3.org/2000/svg">
<g clip-path="url(#clip0_2538_16718)">
<path d="M7.645 0.00798532C6.9351 0.0389631 6.23239 0.163368 5.555 0.377985C4.715 0.647985 3.902 1.06599 3.191 1.60199C2.19865 2.34697 1.39384 3.31324 0.840571 4.42394C0.287305 5.53464 0.000853145 6.75912 0.00400112 7.99999C-0.00080554 9.49017 0.412428 10.9518 1.19676 12.2189C1.98108 13.486 3.10506 14.5077 4.441 15.168C4.77 15.328 5.023 15.438 5.344 15.551C6.73102 16.0325 8.2228 16.1283 9.66 15.828C11.3522 15.4701 12.8829 14.5737 14.023 13.273C15.0658 12.0794 15.7306 10.603 15.933 9.03099C15.98 8.65599 15.996 8.41098 15.996 7.99999C15.996 7.58999 15.98 7.34399 15.934 6.96899C15.6729 4.94741 14.65 3.10176 13.074 1.80899C11.7905 0.754225 10.2087 0.128225 8.551 0.0189853C8.348 0.00498532 7.832 -0.00101468 7.645 0.00798532ZM8.496 2.01999C9.38247 2.09114 10.2419 2.35912 11.0117 2.8044C11.7815 3.24968 12.4423 3.86105 12.946 4.59399C13.8303 5.88204 14.1788 7.46354 13.918 9.00399C13.7395 10.0694 13.2759 11.0667 12.5764 11.89C11.877 12.7132 10.9676 13.3318 9.945 13.68C9.012 14 7.985 14.082 6.996 13.918C5.7673 13.7127 4.63364 13.1281 3.754 12.246C3.14447 11.6396 2.67395 10.9081 2.375 10.102C2.1762 9.56596 2.05498 9.00429 2.015 8.43399C1.99935 8.14486 1.99935 7.85511 2.015 7.56599C2.07549 6.70725 2.32027 5.87162 2.7327 5.11598C3.14512 4.36033 3.71549 3.70241 4.405 3.18699C5.31248 2.51128 6.39291 2.10664 7.521 2.01999C7.743 2.00399 7.755 1.99999 8.067 2.00399C8.243 2.00799 8.41 2.01199 8.496 2.01999Z" fill="currentColor"/>
<path d="M6.871 5.00799C6.727 5.02799 6.574 5.08599 6.453 5.16399C6.387 5.20699 6.27 5.31999 5.297 6.29699C4.352 7.24199 4.207 7.38699 4.168 7.44499C4.05694 7.60843 3.99962 7.80243 4.004 7.99999C4.004 8.20998 4.051 8.36699 4.168 8.54999C4.199 8.60499 4.355 8.76199 5.281 9.69099C6.094 10.504 6.371 10.777 6.421 10.812C6.535 10.895 6.68 10.957 6.828 10.984C6.906 11 7.109 11 7.188 10.98C7.38439 10.9437 7.56448 10.8468 7.703 10.703C7.79828 10.6128 7.87359 10.5037 7.92406 10.3826C7.97453 10.2615 7.99904 10.1311 7.996 9.99999C8.00039 9.80243 7.94306 9.60843 7.832 9.44499C7.793 9.38699 7.688 9.28099 7.098 8.68699L6.41 7.99999L7.098 7.30899C7.688 6.71899 7.793 6.61299 7.832 6.55499C7.94306 6.39154 8.00039 6.19754 7.996 5.99999C7.99904 5.86883 7.97453 5.7385 7.92406 5.61741C7.87359 5.49632 7.79828 5.38716 7.703 5.29699C7.56516 5.15383 7.38625 5.05704 7.191 5.01999C7.08509 5.00432 6.97779 5.0003 6.871 5.00799ZM10.871 5.00799C10.727 5.02799 10.574 5.08599 10.453 5.16399C10.387 5.20699 10.27 5.31999 9.297 6.29699C8.352 7.24199 8.207 7.38699 8.168 7.44499C8.05694 7.60843 7.99962 7.80243 8.004 7.99999C8.004 8.20998 8.051 8.36699 8.168 8.54999C8.199 8.60499 8.355 8.76199 9.281 9.69099C10.094 10.504 10.371 10.777 10.421 10.812C10.535 10.895 10.68 10.957 10.828 10.984C10.906 11 11.109 11 11.188 10.98C11.3844 10.9437 11.5645 10.8468 11.703 10.703C11.7983 10.6128 11.8736 10.5037 11.9241 10.3826C11.9745 10.2615 11.999 10.1311 11.996 9.99999C12.0004 9.80243 11.9431 9.60843 11.832 9.44499C11.793 9.38699 11.687 9.28099 11.098 8.68699L10.41 7.99999L11.098 7.30899C11.688 6.71899 11.793 6.61299 11.832 6.55499C11.9431 6.39154 12.0004 6.19754 11.996 5.99999C11.999 5.86883 11.9745 5.7385 11.9241 5.61741C11.8736 5.49632 11.7983 5.38716 11.703 5.29699C11.5652 5.15383 11.3862 5.05704 11.191 5.01999C11.0851 5.00432 10.9778 5.0003 10.871 5.00799Z" fill="currentColor"/>
</g>
<defs>
<clipPath id="clip0_2538_16718">
<rect width="16" height="16" fill="white"/>
</clipPath>
</defs>
</svg>
