<svg width="16" height="16" viewBox="0 0 16 16" fill="none" xmlns="http://www.w3.org/2000/svg">
<g clip-path="url(#clip0_2538_16527)">
<path d="M7.633 0.00803954C6.56331 0.0542262 5.51389 0.315526 4.54743 0.776333C3.58098 1.23714 2.7173 1.888 2.008 2.69004C0.824026 4.02896 0.122713 5.72591 0.0160005 7.51004C-0.0567429 8.68164 0.128621 9.85493 0.559 10.947C1.1564 12.4549 2.1968 13.7464 3.543 14.651C5.17698 15.7354 7.14979 16.1879 9.093 15.924C10.328 15.7553 11.5064 15.3001 12.534 14.5946C13.5616 13.8891 14.4098 12.953 15.011 11.861C15.6619 10.679 16.0006 9.35045 15.995 8.00104C16.0004 6.41323 15.5309 4.86006 14.647 3.54104C13.7889 2.25966 12.5782 1.25417 11.161 0.64604C10.4206 0.329555 9.63686 0.126279 8.836 0.0430395C8.43612 0.00635433 8.03434 -0.00533506 7.633 0.00803954ZM6.695 5.02004C7.098 5.10504 7.395 5.40204 7.48 5.80504C7.5 5.89804 7.5 6.10204 7.48 6.19504C7.44863 6.34041 7.38733 6.47766 7.3 6.59804C7.273 6.63704 7.027 6.89104 6.586 7.32804L5.918 8.00004L6.586 8.67204C7.027 9.10904 7.273 9.36304 7.301 9.40204C7.387 9.52004 7.449 9.66004 7.481 9.80504C7.492 9.85504 7.496 9.90604 7.496 10C7.49839 10.0654 7.49302 10.1309 7.48 10.195C7.395 10.598 7.098 10.895 6.695 10.98C6.56573 10.9995 6.43427 10.9995 6.305 10.98C6.15963 10.9487 6.02238 10.8874 5.902 10.8C5.15635 10.0781 4.42226 9.34436 3.7 8.59904C3.61267 8.47866 3.55137 8.34141 3.52 8.19604C3.50054 8.06677 3.50054 7.93531 3.52 7.80604C3.552 7.66104 3.614 7.52104 3.7 7.40304C4.42224 6.65704 5.15633 5.92262 5.902 5.20004C6.023 5.11004 6.192 5.04004 6.328 5.01704C6.359 5.01304 6.391 5.00504 6.398 5.00504C6.49728 5.0012 6.59671 5.00555 6.695 5.02004ZM10.695 5.02004C11.098 5.10504 11.395 5.40204 11.48 5.80504C11.492 5.85504 11.496 5.90604 11.496 6.00004C11.4984 6.06544 11.493 6.1309 11.48 6.19504C11.4486 6.34041 11.3873 6.47766 11.3 6.59804C11.273 6.63704 11.027 6.89104 10.586 7.32804L9.918 8.00004L10.586 8.67204C11.027 9.10904 11.273 9.36304 11.301 9.40204C11.387 9.52004 11.449 9.66004 11.481 9.80504C11.5 9.89804 11.5 10.102 11.481 10.195C11.395 10.598 11.098 10.895 10.695 10.98C10.5657 10.9995 10.4343 10.9995 10.305 10.98C10.1596 10.9487 10.0224 10.8874 9.902 10.8C9.15635 10.0781 8.42225 9.34436 7.7 8.59904C7.61267 8.47866 7.55137 8.34141 7.52 8.19604C7.50054 8.06677 7.50054 7.93531 7.52 7.80604C7.552 7.66104 7.614 7.52104 7.7 7.40304C8.42224 6.65704 9.15633 5.92262 9.902 5.20004C10.023 5.11004 10.192 5.04004 10.328 5.01704C10.359 5.01304 10.391 5.00504 10.398 5.00504C10.4973 5.0012 10.5967 5.00555 10.695 5.02004Z" fill="currentColor"/>
</g>
<defs>
<clipPath id="clip0_2538_16527">
<rect width="16" height="16" fill="white"/>
</clipPath>
</defs>
</svg>
