<svg width="16" height="16" viewBox="0 0 16 16" fill="none" xmlns="http://www.w3.org/2000/svg">
<g clip-path="url(#clip0_2538_20057)">
<path d="M7.633 0.00803954C6.56331 0.0542262 5.51389 0.315526 4.54743 0.776333C3.58098 1.23714 2.7173 1.888 2.008 2.69004C0.824026 4.02896 0.122713 5.72591 0.0160005 7.51004C-0.0567429 8.68164 0.128621 9.85493 0.559 10.947C1.1564 12.4549 2.1968 13.7464 3.543 14.651C5.17698 15.7354 7.14979 16.1879 9.093 15.924C10.328 15.7553 11.5064 15.3001 12.534 14.5946C13.5616 13.8891 14.4098 12.953 15.011 11.861C15.6619 10.679 16.0006 9.35045 15.995 8.00104C16.0004 6.41323 15.5309 4.86006 14.647 3.54104C13.7889 2.25966 12.5782 1.25417 11.161 0.64604C10.4206 0.329555 9.63686 0.126279 8.836 0.0430395C8.43612 0.00635433 8.03434 -0.00533506 7.633 0.00803954ZM7.695 5.02004C7.84 5.05004 7.98 5.11304 8.098 5.20004C8.84365 5.92196 9.57775 6.65572 10.3 7.40104C10.386 7.51904 10.448 7.65904 10.48 7.80404C10.491 7.85404 10.495 7.90504 10.495 7.99904C10.4974 8.06444 10.492 8.1299 10.479 8.19404C10.4476 8.33941 10.3863 8.47666 10.299 8.59704C9.57742 9.34302 8.844 10.0774 8.099 10.8C7.97862 10.8874 7.84137 10.9487 7.696 10.98C7.56673 10.9995 7.43527 10.9995 7.306 10.98C7.11222 10.9411 6.93429 10.8456 6.79461 10.7058C6.65492 10.5659 6.55973 10.3879 6.521 10.194C6.50154 10.0648 6.50154 9.93331 6.521 9.80404C6.551 9.65904 6.614 9.51904 6.701 9.40104C6.728 9.36204 6.974 9.10804 7.415 8.67104L8.082 8.00004L7.414 7.32804C6.973 6.89104 6.727 6.63704 6.699 6.59804C6.61167 6.47766 6.55037 6.34041 6.519 6.19504C6.49954 6.06577 6.49954 5.93431 6.519 5.80504C6.574 5.55504 6.707 5.34404 6.906 5.19504C7.023 5.10904 7.191 5.03904 7.328 5.01504C7.359 5.01204 7.391 5.00404 7.398 5.00404C7.49728 5.0002 7.59671 5.00555 7.695 5.02004Z" fill="currentColor"/>
</g>
<defs>
<clipPath id="clip0_2538_20057">
<rect width="16" height="16" fill="white"/>
</clipPath>
</defs>
</svg>
