<svg width="16" height="16" viewBox="0 0 16 16" fill="none" xmlns="http://www.w3.org/2000/svg">
<g clip-path="url(#clip0_2538_18151)">
<path d="M7.633 0.00803954C6.56331 0.0542262 5.51389 0.315526 4.54743 0.776333C3.58098 1.23714 2.7173 1.888 2.008 2.69004C0.824026 4.02896 0.122713 5.72591 0.0160005 7.51004C-0.0567429 8.68164 0.128621 9.85493 0.559 10.947C1.1564 12.4549 2.1968 13.7464 3.543 14.651C5.17698 15.7354 7.14979 16.1879 9.093 15.924C10.328 15.7553 11.5064 15.3001 12.534 14.5946C13.5616 13.8891 14.4098 12.953 15.011 11.861C15.6619 10.679 16.0006 9.35045 15.995 8.00104C16.0004 6.41323 15.5309 4.86006 14.647 3.54104C13.7889 2.25966 12.5782 1.25417 11.161 0.64604C10.4206 0.329555 9.63686 0.126279 8.836 0.0430395C8.43612 0.00635433 8.03434 -0.00533506 7.633 0.00803954ZM6.195 6.02004C6.34 6.05004 6.485 6.11304 6.598 6.20004C6.637 6.22704 6.887 6.46904 7.328 6.91404L8 7.58204L8.668 6.91404C9.109 6.47304 9.363 6.22704 9.402 6.19904C9.52 6.11304 9.66 6.05104 9.805 6.01904C9.898 6.00004 10.102 6.00004 10.195 6.01904C10.598 6.10504 10.895 6.40204 10.98 6.80504C11 6.89804 11 7.10204 10.98 7.19504C10.9486 7.34041 10.8873 7.47766 10.8 7.59804C10.0781 8.34369 9.34432 9.07778 8.599 9.80004C8.47862 9.88737 8.34137 9.94867 8.196 9.98004C8.06673 9.9995 7.93527 9.9995 7.806 9.98004C7.66063 9.94867 7.52338 9.88737 7.403 9.80004C6.657 9.0778 5.92258 8.34371 5.2 7.59804C5.11267 7.47766 5.05137 7.34041 5.02 7.19504C5.00054 7.06577 5.00054 6.93431 5.02 6.80504C5.075 6.55504 5.208 6.34404 5.407 6.19504C5.524 6.10904 5.692 6.03904 5.829 6.01504C5.86 6.01204 5.892 6.00404 5.899 6.00404C5.99828 6.0002 6.09671 6.00555 6.195 6.02004Z" fill="currentColor"/>
</g>
<defs>
<clipPath id="clip0_2538_18151">
<rect width="16" height="16" fill="white"/>
</clipPath>
</defs>
</svg>
