<svg width="16" height="16" viewBox="0 0 16 16" fill="none" xmlns="http://www.w3.org/2000/svg">
<path d="M1.871 2.00806C1.65308 2.03862 1.45133 2.1402 1.297 2.29706C1.20172 2.38723 1.12641 2.49639 1.07594 2.61748C1.02547 2.73858 1.00096 2.86891 1.004 3.00006C1.004 3.21006 1.051 3.36706 1.168 3.55006C1.199 3.60506 1.48 3.88706 3.398 5.80506L5.59 8.00006L3.398 10.1911C1.48 12.1131 1.2 12.3951 1.168 12.4501C1.05707 12.6121 0.999717 12.8048 1.004 13.0011C1.004 13.2161 1.051 13.3721 1.168 13.5561C1.227 13.6461 1.359 13.7741 1.453 13.8331C1.62669 13.9478 1.8319 14.0053 2.0399 13.9976C2.2479 13.9898 2.44828 13.9173 2.613 13.7901C2.633 13.7741 3.809 12.6031 5.223 11.1891C7.477 8.93006 7.8 8.60406 7.832 8.55006C7.94273 8.38834 8.00008 8.19602 7.996 8.00006C8.00039 7.80251 7.94306 7.6085 7.832 7.44506C7.793 7.38706 7.492 7.08206 5.203 4.79706C2.918 2.50706 2.613 2.20706 2.555 2.16806C2.44456 2.0953 2.32088 2.04501 2.191 2.02006C2.08509 2.0044 1.97779 2.00037 1.871 2.00806ZM8.871 2.00806C8.65308 2.03862 8.45133 2.1402 8.297 2.29706C8.20172 2.38723 8.12641 2.49639 8.07594 2.61748C8.02547 2.73858 8.00096 2.86891 8.004 3.00006C8.004 3.21006 8.051 3.36706 8.168 3.55006C8.199 3.60506 8.48 3.88706 10.398 5.80506L12.59 8.00006L10.398 10.1911C8.48 12.1131 8.2 12.3951 8.168 12.4501C8.05707 12.6121 7.99972 12.8048 8.004 13.0011C8.004 13.2161 8.051 13.3721 8.168 13.5561C8.227 13.6461 8.359 13.7741 8.453 13.8331C8.62669 13.9478 8.8319 14.0053 9.0399 13.9976C9.24789 13.9898 9.44828 13.9173 9.613 13.7901C9.633 13.7741 10.809 12.6031 12.223 11.1891C14.477 8.93006 14.8 8.60406 14.832 8.55006C14.9427 8.38834 15.0001 8.19602 14.996 8.00006C15.0004 7.80251 14.9431 7.6085 14.832 7.44506C14.793 7.38706 14.492 7.08206 12.203 4.79706C9.918 2.50706 9.613 2.20706 9.555 2.16806C9.44456 2.0953 9.32088 2.04501 9.191 2.02006C9.08509 2.0044 8.97779 2.00037 8.871 2.00806Z" fill="currentColor"/>
</svg>
