<svg width="16" height="16" viewBox="0 0 16 16" fill="none" xmlns="http://www.w3.org/2000/svg">
<path d="M9.871 2.00806C9.727 2.02806 9.574 2.08606 9.453 2.16406C9.387 2.20706 9.156 2.43406 6.797 4.79706C4.507 7.08206 4.207 7.38706 4.168 7.44506C4.05694 7.6085 3.99961 7.80251 4.004 8.00006C4.004 8.21006 4.051 8.36706 4.168 8.55006C4.199 8.60506 4.523 8.93406 6.781 11.1911C8.77 13.1801 9.371 13.7771 9.421 13.8121C9.535 13.8951 9.68 13.9571 9.828 13.9841C9.906 14.0001 10.109 14.0001 10.188 13.9801C10.3844 13.9438 10.5645 13.8469 10.703 13.7031C10.7983 13.6129 10.8736 13.5037 10.9241 13.3826C10.9745 13.2615 10.999 13.1312 10.996 13.0001C11.0001 12.8041 10.9427 12.6118 10.832 12.4501C10.801 12.3951 10.52 12.1131 8.602 10.1911L6.41 8.00006L8.602 5.80506C10.52 3.88706 10.801 3.60506 10.832 3.55106C10.9429 3.38906 11.0003 3.19636 10.996 3.00006C10.999 2.86891 10.9745 2.73858 10.9241 2.61748C10.8736 2.49639 10.7983 2.38723 10.703 2.29706C10.5652 2.15391 10.3862 2.05711 10.191 2.02006C10.0851 2.0044 9.97778 2.00037 9.871 2.00806Z" fill="currentColor"/>
</svg>
