<svg width="16" height="16" viewBox="0 0 16 16" fill="none" xmlns="http://www.w3.org/2000/svg">
<g clip-path="url(#clip0_2538_19104)">
<path d="M7.633 0.00803954C6.56331 0.0542262 5.51389 0.315526 4.54743 0.776333C3.58098 1.23714 2.7173 1.888 2.008 2.69004C0.824026 4.02896 0.122713 5.72591 0.0160005 7.51004C-0.0567429 8.68164 0.128621 9.85493 0.559 10.947C1.1564 12.4549 2.1968 13.7464 3.543 14.651C5.17698 15.7354 7.14979 16.1879 9.093 15.924C10.328 15.7553 11.5064 15.3001 12.534 14.5946C13.5616 13.8891 14.4098 12.953 15.011 11.861C15.6619 10.679 16.0006 9.35045 15.995 8.00104C16.0004 6.41323 15.5309 4.86006 14.647 3.54104C13.7889 2.25966 12.5782 1.25417 11.161 0.64604C10.4206 0.329555 9.63686 0.126279 8.836 0.0430395C8.43612 0.00635433 8.03434 -0.00533506 7.633 0.00803954ZM8.695 5.02004C9.098 5.10504 9.395 5.40204 9.48 5.80504C9.492 5.85504 9.496 5.90604 9.496 6.00004C9.49839 6.06544 9.49302 6.1309 9.48 6.19504C9.44863 6.34041 9.38733 6.47766 9.3 6.59804C9.273 6.63704 9.027 6.89104 8.586 7.32804L7.918 8.00004L8.586 8.67204C9.027 9.10904 9.273 9.36304 9.301 9.40204C9.387 9.52004 9.449 9.66004 9.481 9.80504C9.5 9.89804 9.5 10.102 9.481 10.195C9.395 10.598 9.098 10.895 8.695 10.98C8.56573 10.9995 8.43427 10.9995 8.305 10.98C8.15963 10.9487 8.02238 10.8874 7.902 10.8C7.15635 10.0781 6.42225 9.34436 5.7 8.59904C5.61267 8.47866 5.55137 8.34141 5.52 8.19604C5.50054 8.06677 5.50054 7.93531 5.52 7.80604C5.552 7.66104 5.614 7.52104 5.7 7.40304C6.42224 6.65704 7.15633 5.92262 7.902 5.20004C8.023 5.11004 8.192 5.04004 8.328 5.01704C8.359 5.01304 8.391 5.00504 8.398 5.00504C8.49728 5.0012 8.59671 5.00555 8.695 5.02004Z" fill="currentColor"/>
</g>
<defs>
<clipPath id="clip0_2538_19104">
<rect width="16" height="16" fill="white"/>
</clipPath>
</defs>
</svg>
