<svg width="16" height="16" viewBox="0 0 16 16" fill="none" xmlns="http://www.w3.org/2000/svg">
<g clip-path="url(#clip0_2538_18438)">
<path d="M7.645 0.00804636C6.9351 0.0390242 6.23239 0.163429 5.555 0.378046C4.715 0.648046 3.902 1.06605 3.191 1.60205C2.19865 2.34703 1.39384 3.3133 0.840571 4.424C0.287305 5.5347 0.000853145 6.75918 0.00400112 8.00005C-0.00080554 9.49023 0.412428 10.9519 1.19676 12.219C1.98108 13.4861 3.10506 14.5078 4.441 15.168C4.77 15.328 5.023 15.438 5.344 15.551C6.73102 16.0326 8.2228 16.1283 9.66 15.828C11.3522 15.4702 12.8829 14.5738 14.023 13.273C15.0658 12.0795 15.7306 10.603 15.933 9.03105C15.98 8.65605 15.996 8.41105 15.996 8.00005C15.996 7.59005 15.98 7.34405 15.934 6.96905C15.6729 4.94747 14.65 3.10182 13.074 1.80905C11.7905 0.754286 10.2087 0.128286 8.551 0.0190464C8.348 0.00504636 7.832 -0.000953641 7.645 0.00804636ZM8.496 2.02005C9.38247 2.0912 10.2419 2.35918 11.0117 2.80446C11.7815 3.24974 12.4423 3.86111 12.946 4.59405C13.8303 5.8821 14.1788 7.4636 13.918 9.00405C13.7395 10.0695 13.2759 11.0668 12.5764 11.89C11.877 12.7133 10.9676 13.3318 9.945 13.68C9.012 14 7.985 14.082 6.996 13.918C5.7673 13.7128 4.63364 13.1281 3.754 12.246C3.14447 11.6397 2.67395 10.9082 2.375 10.102C2.1762 9.56602 2.05498 9.00435 2.015 8.43405C1.99935 8.14493 1.99935 7.85517 2.015 7.56605C2.07549 6.70731 2.32027 5.87168 2.7327 5.11604C3.14512 4.36039 3.71549 3.70247 4.405 3.18705C5.31248 2.51134 6.39291 2.1067 7.521 2.02005C7.743 2.00405 7.755 2.00005 8.067 2.00405C8.243 2.00805 8.41 2.01205 8.496 2.02005Z" fill="currentColor"/>
<path d="M5.871 6.00805C5.65308 6.0386 5.45133 6.14018 5.297 6.29705C5.20172 6.38722 5.12641 6.49638 5.07594 6.61747C5.02547 6.73856 5.00096 6.86889 5.004 7.00005C5.004 7.21005 5.051 7.37105 5.168 7.55505C5.207 7.61305 5.352 7.75805 6.297 8.70305C7.27 9.68005 7.387 9.79305 7.453 9.83605C7.813 10.066 8.277 10.051 8.613 9.78905C8.633 9.77305 9.133 9.27705 9.723 8.68805C10.648 7.76205 10.801 7.60505 10.832 7.55105C10.9429 7.38904 11.0003 7.19634 10.996 7.00005C10.999 6.86889 10.9745 6.73856 10.9241 6.61747C10.8736 6.49638 10.7983 6.38722 10.703 6.29705C10.5977 6.18545 10.466 6.10221 10.32 6.05505C10.1766 6.00648 10.024 5.99115 9.87383 6.01021C9.72363 6.02926 9.57973 6.08221 9.453 6.16505C9.387 6.20705 9.301 6.29305 8.691 6.90205L8 7.59005L7.312 6.90205C6.582 6.17205 6.582 6.17605 6.437 6.10205C6.35887 6.06426 6.27618 6.0367 6.191 6.02005C6.08509 6.00438 5.97779 6.00036 5.871 6.00805Z" fill="currentColor"/>
</g>
<defs>
<clipPath id="clip0_2538_18438">
<rect width="16" height="16" fill="white"/>
</clipPath>
</defs>
</svg>
