<svg width="16" height="16" viewBox="0 0 16 16" fill="none" xmlns="http://www.w3.org/2000/svg">
<g clip-path="url(#clip0_2538_16718)">
<path d="M7.645 0.00804636C6.9351 0.0390242 6.23239 0.163429 5.555 0.378046C4.715 0.648046 3.902 1.06605 3.191 1.60205C2.19865 2.34703 1.39384 3.3133 0.840571 4.424C0.287305 5.5347 0.000853145 6.75918 0.00400112 8.00005C-0.00080554 9.49023 0.412428 10.9519 1.19676 12.219C1.98108 13.4861 3.10506 14.5078 4.441 15.168C4.77 15.328 5.023 15.438 5.344 15.551C6.73102 16.0326 8.2228 16.1283 9.66 15.828C11.3522 15.4702 12.8829 14.5738 14.023 13.273C15.0658 12.0795 15.7306 10.603 15.933 9.03105C15.98 8.65605 15.996 8.41105 15.996 8.00005C15.996 7.59005 15.98 7.34405 15.934 6.96905C15.6729 4.94747 14.65 3.10182 13.074 1.80905C11.7905 0.754286 10.2087 0.128286 8.551 0.0190464C8.348 0.00504636 7.832 -0.000953641 7.645 0.00804636ZM8.496 2.02005C9.38247 2.0912 10.2419 2.35918 11.0117 2.80446C11.7815 3.24974 12.4423 3.86111 12.946 4.59405C13.8303 5.8821 14.1788 7.4636 13.918 9.00405C13.7395 10.0695 13.2759 11.0668 12.5764 11.89C11.877 12.7133 10.9676 13.3318 9.945 13.68C9.012 14 7.985 14.082 6.996 13.918C5.7673 13.7128 4.63364 13.1281 3.754 12.246C3.14447 11.6397 2.67395 10.9082 2.375 10.102C2.1762 9.56602 2.05498 9.00435 2.015 8.43405C1.99935 8.14493 1.99935 7.85517 2.015 7.56605C2.07549 6.70731 2.32027 5.87168 2.7327 5.11604C3.14512 4.36039 3.71549 3.70247 4.405 3.18705C5.31248 2.51134 6.39291 2.1067 7.521 2.02005C7.743 2.00405 7.755 2.00005 8.067 2.00405C8.243 2.00805 8.41 2.01205 8.496 2.02005Z" fill="currentColor"/>
<path d="M6.371 5.00805C6.227 5.02805 6.074 5.08605 5.953 5.16405C5.887 5.20705 5.77 5.32005 4.797 6.29705C3.852 7.24205 3.707 7.38705 3.668 7.44505C3.55694 7.60849 3.49962 7.80249 3.504 8.00005C3.504 8.21005 3.551 8.36705 3.668 8.55005C3.699 8.60505 3.855 8.76205 4.781 9.69105C5.594 10.504 5.871 10.777 5.921 10.812C6.035 10.895 6.18 10.957 6.328 10.984C6.406 11 6.609 11 6.688 10.98C6.88439 10.9438 7.06448 10.8469 7.203 10.703C7.29829 10.6129 7.37359 10.5037 7.42406 10.3826C7.47453 10.2615 7.49904 10.1312 7.496 10C7.50039 9.80249 7.44306 9.60849 7.332 9.44505C7.293 9.38705 7.188 9.28105 6.598 8.68705L5.91 8.00005L6.598 7.30905C7.188 6.71905 7.293 6.61305 7.332 6.55505C7.44306 6.3916 7.50039 6.1976 7.496 6.00005C7.49904 5.86889 7.47453 5.73856 7.42406 5.61747C7.37359 5.49638 7.29829 5.38722 7.203 5.29705C7.06516 5.15389 6.88625 5.0571 6.691 5.02005C6.58509 5.00438 6.47779 5.00036 6.371 5.00805ZM10.371 5.00805C10.227 5.02805 10.074 5.08605 9.953 5.16405C9.887 5.20705 9.77 5.32005 8.797 6.29705C7.852 7.24205 7.707 7.38705 7.668 7.44505C7.55694 7.60849 7.49962 7.80249 7.504 8.00005C7.504 8.21005 7.551 8.36705 7.668 8.55005C7.699 8.60505 7.855 8.76205 8.781 9.69105C9.594 10.504 9.871 10.777 9.921 10.812C10.035 10.895 10.18 10.957 10.328 10.984C10.406 11 10.609 11 10.688 10.98C10.8844 10.9438 11.0645 10.8469 11.203 10.703C11.2983 10.6129 11.3736 10.5037 11.4241 10.3826C11.4745 10.2615 11.499 10.1312 11.496 10C11.5004 9.80249 11.4431 9.60849 11.332 9.44505C11.293 9.38705 11.187 9.28105 10.598 8.68705L9.91 8.00005L10.598 7.30905C11.188 6.71905 11.293 6.61305 11.332 6.55505C11.4431 6.3916 11.5004 6.1976 11.496 6.00005C11.499 5.86889 11.4745 5.73856 11.4241 5.61747C11.3736 5.49638 11.2983 5.38722 11.203 5.29705C11.0652 5.15389 10.8862 5.0571 10.691 5.02005C10.5851 5.00438 10.4778 5.00036 10.371 5.00805Z" fill="currentColor"/>
</g>
<defs>
<clipPath id="clip0_2538_16718">
<rect width="16" height="16" fill="white"/>
</clipPath>
</defs>
</svg>
