<svg width="16" height="16" viewBox="0 0 16 16" fill="none" xmlns="http://www.w3.org/2000/svg">
<g clip-path="url(#clip0_2538_17293)">
<path d="M7.633 0.00803954C6.56331 0.0542262 5.51389 0.315526 4.54743 0.776333C3.58098 1.23714 2.7173 1.888 2.008 2.69004C0.824026 4.02896 0.122713 5.72591 0.0160005 7.51004C-0.0567429 8.68164 0.128621 9.85493 0.559 10.947C1.1564 12.4549 2.1968 13.7464 3.543 14.651C5.17698 15.7354 7.14979 16.1879 9.093 15.924C10.328 15.7553 11.5064 15.3001 12.534 14.5946C13.5616 13.8891 14.4098 12.953 15.011 11.861C15.6619 10.679 16.0006 9.35045 15.995 8.00104C16.0004 6.41323 15.5309 4.86006 14.647 3.54104C13.7889 2.25966 12.5782 1.25417 11.161 0.64604C10.4206 0.329555 9.63686 0.126279 8.836 0.0430395C8.43612 0.00635433 8.03434 -0.00533506 7.633 0.00803954ZM5.695 5.02004C5.84 5.05004 5.98 5.11304 6.098 5.20004C6.84365 5.92196 7.57775 6.65572 8.3 7.40104C8.386 7.51904 8.448 7.65904 8.48 7.80404C8.491 7.85404 8.495 7.90504 8.495 7.99904C8.49739 8.06444 8.49202 8.1299 8.479 8.19404C8.44763 8.33941 8.38633 8.47666 8.299 8.59704C7.57742 9.34302 6.844 10.0774 6.099 10.8C5.97862 10.8874 5.84137 10.9487 5.696 10.98C5.56673 10.9995 5.43527 10.9995 5.306 10.98C5.11222 10.9411 4.93429 10.8456 4.79461 10.7058C4.65492 10.5659 4.55973 10.3879 4.521 10.194C4.50154 10.0648 4.50154 9.93331 4.521 9.80404C4.551 9.65904 4.614 9.51904 4.701 9.40104C4.728 9.36204 4.974 9.10804 5.415 8.67104L6.082 8.00004L5.414 7.32804C4.973 6.89104 4.727 6.63704 4.699 6.59804C4.61167 6.47766 4.55037 6.34041 4.519 6.19504C4.49954 6.06577 4.49954 5.93431 4.519 5.80504C4.574 5.55504 4.707 5.34404 4.906 5.19504C5.023 5.10904 5.191 5.03904 5.328 5.01504C5.359 5.01204 5.391 5.00404 5.398 5.00404C5.49728 5.0002 5.59671 5.00555 5.695 5.02004ZM9.695 5.02004C9.84 5.05004 9.98 5.11304 10.098 5.20004C10.8437 5.92196 11.5777 6.65572 12.3 7.40104C12.386 7.51904 12.448 7.65904 12.48 7.80404C12.491 7.85404 12.495 7.90504 12.495 7.99904C12.4974 8.06444 12.492 8.1299 12.479 8.19404C12.4476 8.33941 12.3863 8.47666 12.299 8.59704C11.5768 9.34304 10.8427 10.0775 10.097 10.8C9.97662 10.8874 9.83937 10.9487 9.694 10.98C9.56473 10.9995 9.43327 10.9995 9.304 10.98C9.11022 10.9411 8.93229 10.8456 8.79261 10.7058C8.65292 10.5659 8.55773 10.3879 8.519 10.194C8.50598 10.1299 8.50061 10.0644 8.503 9.99904C8.503 9.90504 8.507 9.85404 8.519 9.80404C8.549 9.65904 8.612 9.51904 8.699 9.40104C8.726 9.36204 8.972 9.10804 9.413 8.67104L10.082 8.00004L9.414 7.32804C8.973 6.89104 8.727 6.63704 8.699 6.59804C8.61167 6.47766 8.55037 6.34041 8.519 6.19504C8.49954 6.06577 8.49954 5.93431 8.519 5.80504C8.574 5.55504 8.707 5.34404 8.906 5.19504C9.023 5.10904 9.191 5.03904 9.328 5.01504C9.359 5.01204 9.391 5.00404 9.398 5.00404C9.49728 5.0002 9.59671 5.00555 9.695 5.02004Z" fill="currentColor"/>
</g>
<defs>
<clipPath id="clip0_2538_17293">
<rect width="16" height="16" fill="white"/>
</clipPath>
</defs>
</svg>
