<svg width="16" height="16" viewBox="0 0 16 16" fill="none" xmlns="http://www.w3.org/2000/svg">
<g clip-path="url(#clip0_2538_16527)">
<path d="M7.633 0.00803954C6.56331 0.0542262 5.51389 0.315526 4.54743 0.776333C3.58098 1.23714 2.7173 1.888 2.008 2.69004C0.824026 4.02896 0.122713 5.72591 0.0160005 7.51004C-0.0567429 8.68164 0.128621 9.85493 0.559 10.947C1.1564 12.4549 2.1968 13.7464 3.543 14.651C5.17698 15.7354 7.14979 16.1879 9.093 15.924C10.328 15.7553 11.5064 15.3001 12.534 14.5946C13.5616 13.8891 14.4098 12.953 15.011 11.861C15.6619 10.679 16.0006 9.35045 15.995 8.00104C16.0004 6.41323 15.5309 4.86006 14.647 3.54104C13.7889 2.25966 12.5782 1.25417 11.161 0.64604C10.4206 0.329555 9.63686 0.126279 8.836 0.0430395C8.43612 0.00635433 8.03434 -0.00533506 7.633 0.00803954ZM7.195 5.02004C7.598 5.10504 7.895 5.40204 7.98 5.80504C8 5.89804 8 6.10204 7.98 6.19504C7.94863 6.34041 7.88733 6.47766 7.8 6.59804C7.773 6.63704 7.527 6.89104 7.086 7.32804L6.418 8.00004L7.086 8.67204C7.527 9.10904 7.773 9.36304 7.801 9.40204C7.887 9.52004 7.949 9.66004 7.981 9.80504C8 9.89804 8 10.102 7.981 10.195C7.895 10.598 7.598 10.895 7.195 10.98C7.06573 10.9995 6.93427 10.9995 6.805 10.98C6.65963 10.9487 6.52238 10.8874 6.402 10.8C5.65635 10.0781 4.92225 9.34436 4.2 8.59904C4.11267 8.47866 4.05137 8.34141 4.02 8.19604C4.00054 8.06677 4.00054 7.93531 4.02 7.80604C4.052 7.66104 4.114 7.52104 4.2 7.40304C4.92224 6.65704 5.65633 5.92262 6.402 5.20004C6.523 5.11004 6.692 5.04004 6.828 5.01704C6.859 5.01304 6.891 5.00504 6.898 5.00504C6.99728 5.0012 7.09671 5.00555 7.195 5.02004ZM11.195 5.02004C11.598 5.10504 11.895 5.40204 11.98 5.80504C11.992 5.85504 11.996 5.90604 11.996 6.00004C11.9984 6.06544 11.993 6.1309 11.98 6.19504C11.9486 6.34041 11.8873 6.47766 11.8 6.59804C11.773 6.63704 11.527 6.89104 11.086 7.32804L10.418 8.00004L11.086 8.67204C11.527 9.10904 11.773 9.36304 11.801 9.40204C11.887 9.52004 11.949 9.66004 11.981 9.80504C12 9.89804 12 10.102 11.981 10.195C11.895 10.598 11.598 10.895 11.195 10.98C11.0657 10.9995 10.9343 10.9995 10.805 10.98C10.6596 10.9487 10.5224 10.8874 10.402 10.8C9.65635 10.0781 8.92225 9.34436 8.2 8.59904C8.11267 8.47866 8.05137 8.34141 8.02 8.19604C8.00054 8.06677 8.00054 7.93531 8.02 7.80604C8.052 7.66104 8.114 7.52104 8.2 7.40304C8.92224 6.65704 9.65633 5.92262 10.402 5.20004C10.523 5.11004 10.692 5.04004 10.828 5.01704C10.859 5.01304 10.891 5.00504 10.898 5.00504C10.9973 5.0012 11.0967 5.00555 11.195 5.02004Z" fill="currentColor"/>
</g>
<defs>
<clipPath id="clip0_2538_16527">
<rect width="16" height="16" fill="white"/>
</clipPath>
</defs>
</svg>
