<svg width="16" height="16" viewBox="0 0 16 16" fill="none" xmlns="http://www.w3.org/2000/svg">
<g clip-path="url(#clip0_2538_21584)">
<path d="M7.645 0.00804636C6.9351 0.0390242 6.23239 0.163429 5.555 0.378046C4.715 0.648046 3.902 1.06605 3.191 1.60205C2.19865 2.34703 1.39384 3.3133 0.840571 4.424C0.287305 5.5347 0.000853145 6.75918 0.00400112 8.00005C-0.00080554 9.49023 0.412428 10.9519 1.19676 12.219C1.98108 13.4861 3.10506 14.5078 4.441 15.168C4.77 15.328 5.023 15.438 5.344 15.551C6.73102 16.0326 8.2228 16.1283 9.66 15.828C11.3522 15.4702 12.8829 14.5738 14.023 13.273C15.0658 12.0795 15.7306 10.603 15.933 9.03105C15.98 8.65605 15.996 8.41105 15.996 8.00005C15.996 7.59005 15.98 7.34405 15.934 6.96905C15.6729 4.94747 14.65 3.10182 13.074 1.80905C11.7905 0.754286 10.2087 0.128286 8.551 0.0190464C8.348 0.00504636 7.832 -0.000953641 7.645 0.00804636ZM8.496 2.02005C9.38247 2.0912 10.2419 2.35918 11.0117 2.80446C11.7815 3.24974 12.4423 3.86111 12.946 4.59405C13.8303 5.8821 14.1788 7.4636 13.918 9.00405C13.7395 10.0695 13.2759 11.0668 12.5764 11.89C11.877 12.7133 10.9676 13.3318 9.945 13.68C9.012 14 7.985 14.082 6.996 13.918C5.7673 13.7128 4.63364 13.1281 3.754 12.246C3.14447 11.6397 2.67395 10.9082 2.375 10.102C2.1762 9.56602 2.05498 9.00435 2.015 8.43405C1.99935 8.14493 1.99935 7.85517 2.015 7.56605C2.07549 6.70731 2.32027 5.87168 2.7327 5.11604C3.14512 4.36039 3.71549 3.70247 4.405 3.18705C5.31248 2.51134 6.39291 2.1067 7.521 2.02005C7.743 2.00405 7.755 2.00005 8.067 2.00405C8.243 2.00805 8.41 2.01205 8.496 2.02005Z" fill="currentColor"/>
<path d="M10.871 4.00805C10.727 4.02805 10.574 4.08605 10.453 4.16405C10.387 4.20705 10.117 4.47305 7.297 7.29705C4.563 10.031 4.207 10.387 4.168 10.445C4.05694 10.6085 3.99962 10.8025 4.004 11C4.004 11.277 4.098 11.508 4.297 11.703C4.45865 11.8702 4.67532 11.9732 4.907 11.993C5.152 12.02 5.414 11.941 5.613 11.789C5.633 11.773 7.035 10.375 8.723 8.68805C11.418 5.98805 11.801 5.60505 11.832 5.55105C11.9429 5.38904 12.0003 5.19634 11.996 5.00005C11.999 4.86889 11.9745 4.73856 11.9241 4.61747C11.8736 4.49638 11.7983 4.38722 11.703 4.29705C11.5652 4.15389 11.3862 4.0571 11.191 4.02005C11.0851 4.00438 10.9778 4.00036 10.871 4.00805Z" fill="currentColor"/>
</g>
<defs>
<clipPath id="clip0_2538_21584">
<rect width="16" height="16" fill="white"/>
</clipPath>
</defs>
</svg>
