<svg width="16" height="16" viewBox="0 0 16 16" fill="none" xmlns="http://www.w3.org/2000/svg">
<path d="M6.898 0.00402832C6.558 0.0430283 6.258 0.246028 6.109 0.547028C6.03678 0.686911 6.00068 0.842635 6.004 1.00003C6.00001 1.15937 6.03795 1.31696 6.114 1.45703C6.18177 1.59182 6.27975 1.70914 6.4003 1.79986C6.52085 1.89057 6.66072 1.95223 6.809 1.98003C6.875 1.99603 6.929 1.99603 7.996 1.99603C9.211 1.99603 9.156 1.99603 9.305 1.95303C9.648 1.84303 9.91 1.54703 9.98 1.19103C10 1.10503 10 0.914028 9.984 0.828028C9.94558 0.626581 9.84933 0.440681 9.707 0.293028C9.56586 0.155072 9.38821 0.0603493 9.195 0.0200283C9.141 0.00802832 9.035 0.00402832 8.031 0.00402832H6.898Z" fill="currentColor"/>
<path d="M4.82 1.00403C4.20124 1.04435 3.60969 1.27329 3.125 1.66003C3 1.75803 2.758 2.00003 2.66 2.12503C2.297 2.58203 2.09 3.08203 2.02 3.67203C2.004 3.78203 2.004 4.02303 2.004 8.49603C2.004 13.008 2.004 13.211 2.02 13.328C2.098 14.008 2.383 14.609 2.848 15.086C3.297 15.543 3.84 15.836 4.457 15.949C4.734 16 4.441 15.996 7.914 16C11.125 16 11.191 16 11.402 15.973C11.8647 15.9103 12.3065 15.7405 12.692 15.477C12.9852 15.272 13.2412 15.0183 13.449 14.727C13.746 14.305 13.914 13.863 13.98 13.328C13.996 13.218 13.996 13.004 13.996 8.50003C13.996 3.99603 13.996 3.78103 13.98 3.67203C13.9186 3.10587 13.6965 2.56909 13.34 2.12503C13.1977 1.95531 13.0407 1.79837 12.871 1.65603C12.3714 1.25619 11.7565 1.02761 11.117 1.00403L11.004 0.996028L10.996 1.09803C10.988 1.28503 10.957 1.44903 10.898 1.62503C10.7901 1.95823 10.596 2.25696 10.3354 2.4909C10.0748 2.72484 9.75688 2.88566 9.414 2.95703C9.223 2.99703 9.25 2.99703 7.996 2.99703C7.078 2.99703 6.809 2.99203 6.754 2.98403C6.47449 2.94919 6.20538 2.85619 5.964 2.71103C5.68304 2.54257 5.44826 2.30703 5.28071 2.02552C5.11317 1.74401 5.01809 1.42532 5.004 1.09803L4.996 1.00003H4.93C4.895 1.00403 4.844 1.00403 4.82 1.00403ZM5.203 6.02003C5.38021 6.05754 5.54395 6.14233 5.67685 6.26541C5.80974 6.38849 5.90683 6.54526 5.95779 6.71908C6.00876 6.89289 6.0117 7.07727 5.96631 7.25262C5.92092 7.42798 5.8289 7.58777 5.7 7.71503C5.56222 7.85169 5.38669 7.94399 5.196 7.98003C5.06673 7.99949 4.93527 7.99949 4.806 7.98003C4.61246 7.94088 4.43476 7.84552 4.29513 7.7059C4.15551 7.56627 4.06015 7.38857 4.021 7.19503C4.00154 7.06576 4.00154 6.9343 4.021 6.80503C4.111 6.38703 4.427 6.08203 4.849 6.01203C4.96717 5.99905 5.08554 6.00174 5.203 6.02003ZM11.203 6.02003C11.5 6.09003 11.727 6.25803 11.871 6.50803C12.066 6.84803 12.039 7.28103 11.805 7.59803C11.6547 7.79505 11.4379 7.93079 11.195 7.98003C11.133 7.99603 11.047 7.99603 9.5 7.99603C7.953 7.99603 7.867 7.99603 7.805 7.98003C7.61146 7.94088 7.43376 7.84552 7.29413 7.7059C7.15451 7.56627 7.05915 7.38857 7.02 7.19503C7.00054 7.06576 7.00054 6.9343 7.02 6.80503C7.11 6.38703 7.43 6.07803 7.848 6.01203C7.898 6.00403 8.254 6.00003 9.528 6.00403C11.051 6.00403 11.148 6.00403 11.203 6.02003ZM5.203 10.02C5.38013 10.0577 5.54376 10.1426 5.67653 10.2657C5.80931 10.3888 5.90626 10.5456 5.95712 10.7194C6.00798 10.8932 6.01084 11.0775 5.96539 11.2528C5.91995 11.4281 5.82789 11.5878 5.699 11.715C5.56122 11.8517 5.38569 11.944 5.195 11.98C5.06573 11.9995 4.93427 11.9995 4.805 11.98C4.61146 11.9409 4.43376 11.8455 4.29413 11.7059C4.15451 11.5663 4.05915 11.3886 4.02 11.195C4.00054 11.0658 4.00054 10.9343 4.02 10.805C4.11 10.387 4.426 10.082 4.848 10.012C4.96617 9.99905 5.08554 10.0017 5.203 10.02ZM11.203 10.02C11.5 10.09 11.727 10.258 11.871 10.508C12.066 10.848 12.039 11.281 11.805 11.598C11.6547 11.795 11.4379 11.9308 11.195 11.98C11.133 11.996 11.047 11.996 9.5 11.996C7.953 11.996 7.867 11.996 7.805 11.98C7.61146 11.9409 7.43376 11.8455 7.29413 11.7059C7.15451 11.5663 7.05915 11.3886 7.02 11.195C7.00054 11.0658 7.00054 10.9343 7.02 10.805C7.11 10.387 7.43 10.078 7.848 10.012C7.898 10.004 8.254 10 9.528 10.004C11.051 10.004 11.148 10.004 11.203 10.02Z" fill="currentColor"/>
</svg>
