<svg width="16" height="16" viewBox="0 0 16 16" fill="none" xmlns="http://www.w3.org/2000/svg">
<path d="M6.898 0.00402832C6.558 0.0430283 6.258 0.246028 6.109 0.547028C6.03678 0.686911 6.00068 0.842635 6.004 1.00003C6.00001 1.15937 6.03795 1.31696 6.114 1.45703C6.18177 1.59182 6.27975 1.70914 6.4003 1.79986C6.52085 1.89057 6.66072 1.95223 6.809 1.98003C6.875 1.99603 6.929 1.99603 7.996 1.99603C9.211 1.99603 9.156 1.99603 9.305 1.95303C9.648 1.84303 9.91 1.54703 9.98 1.19103C10 1.10503 10 0.914028 9.984 0.828028C9.94558 0.626581 9.84933 0.440681 9.707 0.293028C9.56586 0.155072 9.38821 0.0603493 9.195 0.0200283C9.141 0.00802832 9.035 0.00402832 8.031 0.00402832H6.898Z" fill="currentColor"/>
<path d="M4.82 1.00403C4.20124 1.04435 3.60969 1.27329 3.125 1.66003C3 1.75803 2.758 2.00003 2.66 2.12503C2.297 2.58203 2.09 3.08203 2.02 3.67203C2.004 3.78203 2.004 4.02303 2.004 8.49603C2.004 13.008 2.004 13.211 2.02 13.328C2.098 14.008 2.383 14.609 2.848 15.086C3.297 15.543 3.84 15.836 4.457 15.949C4.734 16 4.441 15.996 7.914 16C11.125 16 11.191 16 11.402 15.973C11.8647 15.9103 12.3065 15.7405 12.692 15.477C12.9852 15.272 13.2412 15.0183 13.449 14.727C13.746 14.305 13.914 13.863 13.98 13.328C13.996 13.218 13.996 13.004 13.996 8.50003C13.996 3.99603 13.996 3.78103 13.98 3.67203C13.9186 3.10587 13.6965 2.56909 13.34 2.12503C13.1977 1.95531 13.0407 1.79837 12.871 1.65603C12.3714 1.25619 11.7565 1.02761 11.117 1.00403L11.004 0.996028L10.996 1.09803C10.988 1.28503 10.957 1.44903 10.898 1.62503C10.7901 1.95823 10.596 2.25696 10.3354 2.4909C10.0748 2.72484 9.75688 2.88566 9.414 2.95703C9.223 2.99703 9.25 2.99703 7.996 2.99703C7.078 2.99703 6.809 2.99203 6.754 2.98403C6.47449 2.94919 6.20538 2.85619 5.964 2.71103C5.68304 2.54257 5.44826 2.30703 5.28071 2.02552C5.11317 1.74401 5.01809 1.42532 5.004 1.09803L4.996 1.00003H4.93C4.895 1.00403 4.844 1.00403 4.82 1.00403ZM8.262 5.02003C8.754 5.09403 9.184 5.36703 9.461 5.78103C9.484 5.81603 9.531 5.89803 9.562 5.96503C10.043 6.91003 9.562 8.07503 8.559 8.41003C8.32637 8.48616 8.08035 8.51264 7.83685 8.48776C7.59334 8.46288 7.35777 8.3872 7.14534 8.2656C6.93291 8.144 6.74834 7.97919 6.60358 7.78182C6.45882 7.58444 6.35707 7.35889 6.30491 7.11974C6.25275 6.88059 6.25134 6.63316 6.30076 6.39343C6.35019 6.1537 6.44936 5.92701 6.59187 5.728C6.73437 5.52898 6.91704 5.36208 7.12807 5.23806C7.3391 5.11405 7.5738 5.03568 7.817 5.00803C7.91 5.00003 8.168 5.00403 8.262 5.02003ZM8.402 9.02003C8.95151 9.07505 9.48357 9.24375 9.96439 9.51541C10.4452 9.78707 10.8643 10.1557 11.195 10.598C11.5 11 11.738 11.484 11.867 11.977C11.898 12.094 11.907 12.238 11.887 12.336C11.8574 12.4851 11.7823 12.6214 11.672 12.726C11.5422 12.8568 11.376 12.9454 11.195 12.98C11.133 12.996 11.027 12.996 8 12.996C4.973 12.996 4.867 12.996 4.805 12.98C4.62299 12.944 4.45585 12.8546 4.325 12.723C4.21688 12.6184 4.14297 12.4835 4.113 12.336C4.09479 12.2149 4.1016 12.0914 4.133 11.973C4.3423 11.1857 4.78702 10.4811 5.40766 9.95335C6.0283 9.42564 6.79527 9.10001 7.606 9.02003C7.793 9.00003 7.796 9.00003 8.051 9.00403C8.191 9.00803 8.332 9.01203 8.402 9.02003Z" fill="currentColor"/>
</svg>
