<svg width="16" height="16" viewBox="0 0 16 16" fill="none" xmlns="http://www.w3.org/2000/svg">
<path d="M5.871 0.00802832C5.66321 0.0353793 5.46927 0.127324 5.31656 0.270874C5.16386 0.414424 5.06012 0.602324 5.02 0.808028C5 0.902028 5 1.09803 5.02 1.19103C5.05894 1.3865 5.15513 1.56598 5.29633 1.70665C5.43754 1.84732 5.61738 1.94283 5.813 1.98103C5.875 1.99603 5.98 1.99603 8 1.99603C10.008 1.99603 10.125 1.99603 10.191 1.98003C10.3866 1.94178 10.5663 1.84595 10.7071 1.70483C10.8479 1.56371 10.9432 1.38374 10.981 1.18803C11 1.09803 11 0.902028 10.981 0.813028C10.9442 0.619428 10.8511 0.440969 10.7135 0.299937C10.5758 0.158905 10.3996 0.0615498 10.207 0.0200283L10.137 0.00402832H8.03C6.839 0.00402832 5.902 0.00402832 5.871 0.00802832ZM7.68 3.00803C6.19808 3.07861 4.78502 3.65456 3.676 4.64003C3.555 4.74903 3.262 5.03803 3.148 5.16703C2.64916 5.72372 2.25151 6.36336 1.973 7.05703C1.62707 7.91906 1.46832 8.84479 1.50729 9.77283C1.54625 10.7009 1.78203 11.61 2.199 12.44C2.50748 13.054 2.91378 13.6136 3.402 14.097C3.703 14.397 3.992 14.64 4.34 14.874C5.7289 15.8157 7.42706 16.1863 9.082 15.909C10.5428 15.6668 11.8761 14.9304 12.859 13.823C13.239 13.397 13.547 12.937 13.801 12.44C14.5406 10.9673 14.6994 9.2704 14.246 7.68603C13.9745 6.75699 13.5008 5.89951 12.859 5.17503C12.6886 4.98897 12.5101 4.81047 12.324 4.64003C11.9907 4.34343 11.6282 4.08142 11.242 3.85803C10.4534 3.40765 9.57938 3.12699 8.676 3.03403C8.3449 3.00399 8.01224 2.99597 7.68 3.00803ZM8.195 6.02003C8.551 6.09803 8.84 6.34803 8.949 6.68403C9 6.84003 8.996 6.74603 8.996 7.96903L9 9.08203L9.629 9.71103C10.039 10.121 10.273 10.363 10.301 10.402C10.387 10.52 10.449 10.66 10.481 10.805C10.5 10.898 10.5 11.102 10.481 11.195C10.395 11.598 10.098 11.895 9.695 11.98C9.63086 11.993 9.5654 11.9984 9.5 11.996C9.4346 11.9984 9.36914 11.993 9.305 11.98C9.15963 11.9487 9.02238 11.8874 8.902 11.8C8.32303 11.2448 7.75558 10.6777 7.2 10.099C7.11267 9.97865 7.05137 9.8414 7.02 9.69603C7.005 9.63403 7.005 9.55603 7.005 8.25103C7.005 6.72003 7.001 6.83703 7.055 6.67703C7.169 6.33703 7.481 6.07103 7.829 6.01703C7.86 6.01303 7.892 6.00503 7.899 6.00503C7.99828 6.00119 8.0977 6.00654 8.196 6.02103L8.195 6.02003Z" fill="currentColor"/>
</svg>
