<svg width="16" height="16" viewBox="0 0 16 16" fill="none" xmlns="http://www.w3.org/2000/svg">
<g clip-path="url(#clip0_2538_23403)">
<path d="M7.297 0.0039465C6.64597 0.0346618 6.00929 0.2059 5.43069 0.505904C4.85209 0.805909 4.34526 1.22757 3.945 1.74195C3.23716 2.65014 2.9069 3.79636 3.023 4.94195L3.027 4.99595L2.898 5.00395C2.25138 5.02395 1.62892 5.25426 1.125 5.65995C1 5.75795 0.758001 5.99995 0.660001 6.12495C0.303049 6.56723 0.0808795 7.10286 0.0200011 7.66795C1.06823e-06 7.83195 1.06823e-06 8.16795 0.0200011 8.33195C0.0980011 9.00795 0.383001 9.60895 0.848001 10.0859C1.281 10.5269 1.797 10.8119 2.398 10.9369C2.504 10.9609 2.684 10.9839 2.688 10.9769C2.691 10.9769 2.715 10.9409 2.742 10.9019C2.77 10.8589 2.816 10.7929 2.852 10.7499C2.945 10.6329 6.629 6.94995 6.742 6.85995C7.07815 6.58516 7.49599 6.4297 7.93 6.41795C8.41469 6.39849 8.88979 6.55674 9.266 6.86295C9.356 6.93695 13.066 10.6479 13.141 10.7379C13.1592 10.766 13.1815 10.7913 13.207 10.8129C14.0488 10.5442 14.7789 10.0063 15.285 9.28195C15.7957 8.54606 16.0446 7.66011 15.992 6.76595C15.9393 5.8609 15.5795 5.00089 14.972 4.32795C14.4456 3.74176 13.7584 3.32339 12.996 3.12495C12.6725 3.03891 12.3387 2.99819 12.004 3.00395C11.859 3.00395 11.742 2.99995 11.742 2.99595C11.742 2.97295 11.609 2.66395 11.539 2.51995C11.1038 1.62899 10.3853 0.907624 9.496 0.468947C9.00171 0.220664 8.46497 0.0679869 7.914 0.0189465C7.70859 0.00638825 7.50278 0.00138488 7.297 0.0039465Z" fill="currentColor"/>
<path d="M7.871 7.42195C7.727 7.44195 7.574 7.49995 7.453 7.57795C7.387 7.62095 7.211 7.79695 5.52 9.48395C4.313 10.6909 3.645 11.3639 3.613 11.4059C3.5012 11.5553 3.43382 11.7331 3.4186 11.9191C3.40339 12.105 3.44096 12.2914 3.527 12.4569C3.59368 12.5879 3.68851 12.7024 3.8047 12.7923C3.92089 12.8822 4.05555 12.9453 4.199 12.9769C4.297 12.9969 4.41 12.9999 5.188 12.9999H6L6.004 14.0629C6.004 15.1129 6.004 15.1289 6.02 15.1989C6.07 15.4059 6.152 15.5589 6.297 15.7029C6.40639 15.8177 6.54345 15.9024 6.695 15.9489C6.852 15.9999 6.789 15.9959 8.004 15.9959C9.035 15.9959 9.117 15.9959 9.18 15.9799C9.547 15.9059 9.832 15.6559 9.95 15.3089C9.996 15.1559 9.996 15.2299 9.996 14.0629L10 12.9999H10.813C11.59 12.9999 11.703 12.9959 11.801 12.9769C11.9717 12.9395 12.1295 12.8576 12.2584 12.7396C12.3873 12.6216 12.4827 12.4717 12.535 12.3049C12.5858 12.1544 12.5989 11.9937 12.5731 11.837C12.5473 11.6802 12.4834 11.5322 12.387 11.4059C12.355 11.3629 11.715 10.7189 10.477 9.47995C8.488 7.49195 8.59 7.59395 8.437 7.51595C8.35886 7.47816 8.27618 7.4506 8.191 7.43395C8.08509 7.41827 7.97779 7.41425 7.871 7.42195Z" fill="currentColor"/>
</g>
<defs>
<clipPath id="clip0_2538_23403">
<rect width="16" height="16" fill="white"/>
</clipPath>
</defs>
</svg>
