<svg width="16" height="16" viewBox="0 0 16 16" fill="none" xmlns="http://www.w3.org/2000/svg">
<path d="M8.953 3.13995C8.76847 3.15513 8.59179 3.22134 8.44274 3.33119C8.29369 3.44104 8.17813 3.59018 8.109 3.76195C8.08 3.84395 6 11.5779 5.98 11.6949C5.965 11.7849 5.965 11.9609 5.984 12.0549C6.01211 12.1958 6.07013 12.3289 6.15414 12.4454C6.23816 12.5619 6.3462 12.6589 6.47097 12.73C6.59574 12.8012 6.73432 12.8446 6.87735 12.8576C7.02037 12.8705 7.16451 12.8525 7.3 12.8049C7.57 12.7109 7.785 12.5039 7.89 12.2379C7.922 12.1559 10 4.42195 10.02 4.30495C10.035 4.21495 10.035 4.03495 10.016 3.94495C9.97765 3.74995 9.88229 3.57071 9.742 3.42995C9.63857 3.32843 9.51473 3.25007 9.3787 3.20007C9.24267 3.15007 9.09756 3.12958 8.953 3.13995ZM4.371 4.00795C4.227 4.02795 4.074 4.08595 3.953 4.16395C3.887 4.20695 3.734 4.35895 2.297 5.79695C0.901999 7.18695 0.706999 7.38695 0.667999 7.44495C0.556942 7.60839 0.499615 7.80239 0.503999 7.99995C0.503999 8.20995 0.550999 8.36695 0.667999 8.54995C0.698999 8.60495 0.909999 8.81595 2.281 10.1909C3.484 11.3949 3.871 11.7769 3.921 11.8119C4.035 11.8949 4.18 11.9569 4.328 11.9839C4.406 11.9999 4.609 11.9999 4.688 11.9799C4.88438 11.9437 5.06448 11.8468 5.203 11.7029C5.29828 11.6128 5.37359 11.5036 5.42406 11.3825C5.47453 11.2614 5.49904 11.1311 5.496 10.9999C5.50007 10.804 5.44273 10.6117 5.332 10.4499C5.301 10.3949 5.132 10.2269 4.102 9.19095L2.91 7.99995L4.102 6.80495C5.132 5.77295 5.301 5.60495 5.332 5.55095C5.44293 5.38894 5.50028 5.19624 5.496 4.99995C5.49904 4.8688 5.47453 4.73846 5.42406 4.61737C5.37359 4.49628 5.29828 4.38712 5.203 4.29695C5.06516 4.1538 4.88624 4.057 4.691 4.01995C4.58509 4.00428 4.47778 4.00026 4.371 4.00795ZM11.371 4.00795C11.1531 4.0385 10.9513 4.14008 10.797 4.29695C10.7017 4.38712 10.6264 4.49628 10.5759 4.61737C10.5255 4.73846 10.501 4.8688 10.504 4.99995C10.504 5.20995 10.551 5.36695 10.668 5.54995C10.699 5.60495 10.868 5.77295 11.898 6.80495L13.09 7.99995L11.898 9.19095C10.868 10.2269 10.699 10.3949 10.668 10.4489C10.5571 10.611 10.4997 10.8037 10.504 10.9999C10.504 11.2149 10.551 11.3709 10.668 11.5549C10.727 11.6449 10.859 11.7729 10.953 11.8319C11.1267 11.9466 11.3319 12.0042 11.5399 11.9964C11.7479 11.9887 11.9483 11.9162 12.113 11.7889C12.133 11.7729 12.859 11.0509 13.723 10.1879C15.09 8.81595 15.3 8.60395 15.332 8.54995C15.4427 8.38822 15.5001 8.1959 15.496 7.99995C15.5004 7.80239 15.4431 7.60839 15.332 7.44495C15.293 7.38695 15.098 7.18695 13.703 5.79695C12.012 4.10195 12.09 4.17995 11.938 4.10195C11.8595 4.06408 11.7765 4.03651 11.691 4.01995C11.5851 4.00428 11.4778 4.00026 11.371 4.00795Z" fill="currentColor"/>
</svg>
