<svg width="16" height="16" viewBox="0 0 16 16" fill="none" xmlns="http://www.w3.org/2000/svg">
<path d="M3.871 1.50802C3.65308 1.53858 3.45133 1.64016 3.297 1.79702C3.20172 1.8872 3.12641 1.99635 3.07594 2.11745C3.02547 2.23854 3.00096 2.36887 3.004 2.50002C3.004 2.71002 3.051 2.87102 3.168 3.05502C3.207 3.11302 3.457 3.36302 5.297 5.20302C7.195 7.10202 7.387 7.29302 7.453 7.33602C7.813 7.56602 8.277 7.55102 8.613 7.28902C8.633 7.27302 9.586 6.32402 10.723 5.18802C12.53 3.37502 12.8 3.10402 12.832 3.05002C12.9429 2.88802 13.0003 2.69532 12.996 2.49902C12.999 2.36787 12.9745 2.23754 12.9241 2.11645C12.8736 1.99536 12.7983 1.8862 12.703 1.79602C12.5977 1.68443 12.466 1.60119 12.32 1.55402C12.1766 1.50553 12.024 1.49024 11.8738 1.5093C11.7237 1.52835 11.5798 1.58126 11.453 1.66402C11.387 1.70602 11.223 1.86602 9.691 3.40102L8 5.09002L6.309 3.39802C4.5 1.59402 4.589 1.67602 4.437 1.60202C4.35887 1.56423 4.27618 1.53667 4.191 1.52002C4.08509 1.50436 3.97779 1.50033 3.871 1.50802ZM7.871 8.50802C7.727 8.52802 7.574 8.58602 7.453 8.66402C7.387 8.70702 7.195 8.89802 5.297 10.797C3.457 12.637 3.207 12.887 3.168 12.945C3.05694 13.1085 2.99962 13.3025 3.004 13.5C3.004 13.777 3.098 14.008 3.297 14.203C3.45617 14.3668 3.66783 14.4695 3.895 14.493C4.07 14.512 4.281 14.477 4.437 14.398C4.59 14.324 4.5 14.406 6.309 12.602L8 10.91L9.691 12.598C11.223 14.133 11.387 14.293 11.453 14.336C11.5798 14.4188 11.7237 14.4717 11.8738 14.4908C12.024 14.5098 12.1766 14.4945 12.32 14.446C12.4661 14.3986 12.5978 14.315 12.703 14.203C12.7983 14.1128 12.8736 14.0037 12.9241 13.8826C12.9745 13.7615 12.999 13.6312 12.996 13.5C13.0004 13.3025 12.9431 13.1085 12.832 12.945C12.793 12.887 12.543 12.637 10.703 10.797C8.473 8.56202 8.59 8.68002 8.438 8.60202C8.35955 8.56415 8.27653 8.53659 8.191 8.52002C8.08509 8.50436 7.97779 8.50033 7.871 8.50802Z" fill="currentColor"/>
</svg>
