<svg width="16" height="16" viewBox="0 0 16 16" fill="none" xmlns="http://www.w3.org/2000/svg">
<path d="M4.105 4.00794C3.675 4.04294 3.254 4.15994 2.855 4.35894C2.398 4.58194 2.008 4.87494 1.594 5.29294C1.07169 5.83846 0.635372 6.46024 0.300001 7.13694C0.136001 7.46094 0.0460006 7.67594 0.0190006 7.80494C-0.000458911 7.93421 -0.000458911 8.06567 0.0190006 8.19494C0.0655184 8.42121 0.188346 8.62465 0.366925 8.77119C0.545503 8.91773 0.768998 8.99848 1 8.99994C1.242 8.99994 1.5 8.89794 1.668 8.74194C1.793 8.62494 1.855 8.53194 1.941 8.34394C2.191 7.78894 2.484 7.31294 2.816 6.91394C2.934 6.77694 3.188 6.52694 3.305 6.43394C3.687 6.12894 4.047 5.98394 4.398 6.00394C5.07 6.03494 5.832 6.62494 6.621 7.71894C6.738 7.88294 6.965 8.22294 7.071 8.39894C7.473 9.06294 7.754 9.46894 8.094 9.89494C8.464 10.3589 8.864 10.7649 9.254 11.0749C10.164 11.7969 11.137 12.1019 12.102 11.9689C13.055 11.8359 13.953 11.2809 14.738 10.3389C15.1871 9.79012 15.5626 9.185 15.855 8.53894C15.937 8.35194 15.973 8.25394 15.988 8.14894C16.0181 7.94687 15.9856 7.74043 15.8948 7.55739C15.804 7.37436 15.6594 7.22352 15.4803 7.12516C15.3013 7.02681 15.0964 6.98566 14.8932 7.00725C14.6901 7.02884 14.4984 7.11214 14.344 7.24594C14.211 7.36294 14.144 7.46094 14.043 7.69094C13.8214 8.18758 13.5349 8.65264 13.191 9.07394C13.0386 9.25048 12.8728 9.41497 12.695 9.56594C12.312 9.87494 11.953 10.0159 11.602 9.99594C11.012 9.96894 10.344 9.50794 9.66 8.65194C9.371 8.29294 9.156 7.97694 8.773 7.34794C8.46053 6.83602 8.11093 6.34771 7.727 5.88694C7.4948 5.61575 7.24527 5.35988 6.98 5.12094C6.23 4.46494 5.5 4.11294 4.695 4.01994C4.49874 4.00426 4.30173 4.00025 4.105 4.00794Z" fill="currentColor"/>
</svg>
