<svg width="16" height="16" viewBox="0 0 16 16" fill="none" xmlns="http://www.w3.org/2000/svg">
<path d="M4.672 5.00397C4.648 5.00797 4.578 5.01197 4.512 5.01997C3.484 5.12897 2.512 5.69097 1.715 6.65197C1.43 6.99597 1.121 7.47197 1.051 7.68697C0.975933 7.91425 0.985142 8.16096 1.07694 8.38202C1.16874 8.60307 1.33701 8.78372 1.551 8.89097C1.68 8.95697 1.855 8.99997 2 8.99997C2.242 8.99997 2.5 8.89797 2.668 8.74197C2.77 8.64797 2.816 8.58597 2.906 8.42997C3.226 7.87897 3.68 7.42197 4.141 7.18797C4.727 6.88697 5.301 6.94897 5.953 7.37797C6.176 7.52797 6.367 7.68797 6.613 7.93397C6.848 8.16797 6.965 8.30397 7.207 8.60897C7.715 9.25797 8.184 9.73397 8.691 10.113C9.375 10.621 10.055 10.903 10.812 10.984C10.949 11 11.344 11 11.488 10.98C12.281 10.89 12.98 10.57 13.652 9.99597C13.777 9.89097 14.062 9.60597 14.172 9.47997C14.355 9.26997 14.496 9.08597 14.648 8.85497C14.82 8.59797 14.906 8.43697 14.949 8.30897C15.0216 8.08407 15.0124 7.84076 14.9232 7.62195C14.8339 7.40314 14.6702 7.22289 14.461 7.11297C14.3415 7.05098 14.2106 7.01372 14.0764 7.00342C13.9421 6.99313 13.8072 7.01 13.6796 7.05303C13.552 7.09606 13.4343 7.16437 13.3337 7.25387C13.2331 7.34338 13.1516 7.45224 13.094 7.57397C12.688 8.26997 12.074 8.80097 11.512 8.94897C11.367 8.98897 11.297 8.99597 11.132 8.99597C10.969 8.99597 10.895 8.98397 10.75 8.94897C10.41 8.86297 10.047 8.65597 9.664 8.32897C9.47195 8.15527 9.2884 7.97238 9.114 7.78097C9.062 7.72297 8.954 7.58997 8.867 7.48397C8.609 7.15997 8.57 7.10897 8.461 6.98397C8.2252 6.70904 7.97201 6.4495 7.703 6.20697C7.074 5.65697 6.433 5.29297 5.766 5.11697C5.409 5.02498 5.04026 4.98689 4.672 5.00397Z" fill="currentColor"/>
</svg>
