<svg width="16" height="16" viewBox="0 0 16 16" fill="none" xmlns="http://www.w3.org/2000/svg">
<g clip-path="url(#clip0_2538_24639)">
<path d="M0.871002 0.00790625C0.643987 0.0380852 0.434257 0.145421 0.277002 0.311906C0.139527 0.456521 0.0486072 0.639058 0.0160016 0.835906C1.61678e-06 0.909906 1.61678e-06 7.08991 0.0160016 7.16391C0.0550016 7.38291 0.145002 7.55091 0.296002 7.70391C0.449002 7.85491 0.617002 7.94491 0.836002 7.98391C0.910002 7.99991 7.09 7.99991 7.164 7.98391C7.3695 7.9513 7.55894 7.85307 7.704 7.70391C7.85317 7.55884 7.95139 7.36941 7.984 7.16391C8 7.08991 8 0.909906 7.984 0.835906C7.95139 0.630405 7.85317 0.440971 7.704 0.295906C7.56924 0.15682 7.3963 0.0607786 7.207 0.0199062L7.137 0.00390625H4.03C2.233 0.00390625 0.902002 0.00390625 0.871002 0.00790625ZM9.828 1.35491C9.528 1.40991 9.258 1.60491 9.118 1.87491C9.00736 2.08428 8.97477 2.32618 9.02606 2.55737C9.07736 2.78856 9.20919 2.99397 9.398 3.13691C9.484 3.20291 9.57 3.24691 9.727 3.30491C10.4065 3.5563 11.0233 3.95207 11.535 4.46491C12.051 4.97991 12.43 5.57491 12.691 6.26491C12.75 6.41791 12.789 6.49991 12.844 6.57791C13.004 6.80491 13.258 6.95691 13.539 6.99191C13.7207 7.01249 13.9046 6.98336 14.071 6.90763C14.2374 6.8319 14.3802 6.71241 14.484 6.56191C14.5893 6.40892 14.6477 6.22856 14.652 6.04291C14.66 5.87091 14.641 5.77691 14.559 5.54691C14.2141 4.62947 13.681 3.79437 12.994 3.09531C12.307 2.39626 11.4813 1.84872 10.57 1.48791C10.371 1.40991 10.25 1.37091 10.164 1.35491C10.0525 1.33928 9.93946 1.33928 9.828 1.35491ZM8 15.9999H16V7.99991H8V15.9999ZM14 13.9999H10V9.99991H14V13.9999ZM2.191 9.01191C2.03119 9.04004 1.87937 9.10247 1.746 9.19491C1.61778 9.29411 1.51353 9.42092 1.441 9.56591C1.37048 9.7121 1.33847 9.87388 1.348 10.0359C1.352 10.1989 1.375 10.2929 1.496 10.5899C1.85913 11.4951 2.40637 12.3149 3.10303 12.9975C3.79969 13.68 4.63058 14.2104 5.543 14.5549C5.707 14.6169 5.777 14.6369 5.875 14.6479C5.957 14.6599 6.125 14.6559 6.203 14.6369C6.559 14.5589 6.832 14.3119 6.949 13.9689C7.07 13.6089 6.965 13.1989 6.691 12.9379C6.56972 12.8247 6.42444 12.7402 6.266 12.6909C5.58983 12.439 4.97579 12.0446 4.46557 11.5343C3.95535 11.0241 3.5609 10.4101 3.309 9.73391C3.28479 9.66895 3.25742 9.6052 3.227 9.54291C3.15827 9.40941 3.06038 9.29309 2.94059 9.20256C2.82081 9.11203 2.68219 9.0496 2.535 9.01991C2.42142 8.99966 2.3054 8.99697 2.191 9.01191Z" fill="currentColor"/>
</g>
<defs>
<clipPath id="clip0_2538_24639">
<rect width="16" height="16" fill="white"/>
</clipPath>
</defs>
</svg>
