<svg width="16" height="16" viewBox="0 0 16 16" fill="none" xmlns="http://www.w3.org/2000/svg">
<path d="M3.82 0.00402832C3.20109 0.0436499 2.60933 0.27267 2.125 0.660028C2 0.758028 1.758 1.00003 1.66 1.12503C1.297 1.58203 1.09 2.08203 1.02 2.67203C1.004 2.77703 1.004 2.94203 1.004 5.49603C1.004 8.07403 1.004 8.21503 1.02 8.32803C1.098 9.00803 1.383 9.60903 1.848 10.086C2.297 10.543 2.84 10.836 3.457 10.949C3.727 10.996 3.605 10.996 5.414 11C7.094 11 7.199 11 7.402 10.973C7.86474 10.9103 8.30647 10.7405 8.692 10.477C8.98522 10.272 9.24124 10.0183 9.449 9.72703C9.746 9.30503 9.914 8.86303 9.98 8.32803C9.996 8.22303 9.996 8.07403 9.996 5.50003C9.996 2.92603 9.996 2.77703 9.98 2.67203C9.9186 2.10587 9.69654 1.56909 9.34 1.12503C9.19734 0.955264 9.04007 0.79833 8.87 0.656028C8.42903 0.303343 7.89716 0.0828255 7.336 0.0200283C7.238 0.00402832 7.098 0.00402832 5.546 0.00402832H3.82Z" fill="currentColor"/>
<path d="M11.871 5.00803C11.6951 5.0335 11.5285 5.10337 11.387 5.21103C11.32 5.26103 11.215 5.37903 11.168 5.44503C11.0565 5.60827 10.9991 5.80241 11.004 6.00003C11.004 6.27703 11.098 6.50803 11.297 6.70303C11.4023 6.81463 11.534 6.89786 11.68 6.94503C11.781 6.98003 11.855 6.99203 12.004 7.00003C12.162 6.99984 12.3176 7.03866 12.457 7.11303C12.5742 7.17317 12.6784 7.25591 12.7635 7.35648C12.8487 7.45705 12.9131 7.57347 12.953 7.69903C13.003 7.85503 13 7.67603 13 10.5C13 13.324 13.004 13.145 12.953 13.3C12.843 13.648 12.57 13.89 12.199 13.98C12.149 13.996 12.019 13.996 10.535 13.996C8.754 14 8.852 14.004 8.691 13.949C8.56678 13.9096 8.45168 13.8457 8.35243 13.7613C8.25319 13.6768 8.17179 13.5734 8.113 13.457C8.03892 13.3186 8.0001 13.164 8 13.007C7.988 12.762 7.945 12.621 7.832 12.445C7.75381 12.3396 7.66047 12.2462 7.555 12.168C7.39176 12.0565 7.19762 11.9992 7 12.004C6.86885 12.001 6.73852 12.0255 6.61743 12.076C6.49633 12.1264 6.38718 12.2017 6.297 12.297C6.19655 12.3932 6.11829 12.5101 6.06769 12.6397C6.01708 12.7692 5.99535 12.9082 6.004 13.047C6.008 13.801 6.313 14.539 6.848 15.086C7.297 15.543 7.84 15.836 8.457 15.949C8.727 15.996 8.605 15.996 10.414 16C12.094 16 12.199 16 12.402 15.973C12.8647 15.9103 13.3065 15.7405 13.692 15.477C13.9852 15.272 14.2412 15.0183 14.449 14.727C14.746 14.305 14.914 13.863 14.98 13.328C14.996 13.223 14.996 13.074 14.996 10.5C14.996 7.92603 14.996 7.77703 14.98 7.67203C14.9186 7.10587 14.6965 6.56909 14.34 6.12503C14.1977 5.95531 14.0407 5.79837 13.871 5.65603C13.4298 5.30303 12.8975 5.08248 12.336 5.02003C12.1815 5.00495 12.0261 5.00094 11.871 5.00803Z" fill="currentColor"/>
</svg>
