<svg width="16" height="16" viewBox="0 0 16 16" fill="none" xmlns="http://www.w3.org/2000/svg">
<path d="M3.82 0.00390625C3.20109 0.0435278 2.60933 0.272548 2.125 0.659906C2 0.757906 1.758 0.999906 1.66 1.12491C1.297 1.58191 1.09 2.08191 1.02 2.67191C1.004 2.77691 1.004 2.94191 1.004 5.49591C1.004 8.07391 1.004 8.21491 1.02 8.32791C1.098 9.00791 1.383 9.60891 1.848 10.0859C2.297 10.5429 2.84 10.8359 3.457 10.9489C3.727 10.9959 3.605 10.9959 5.414 10.9999C7.094 10.9999 7.199 10.9999 7.402 10.9729C7.86474 10.9102 8.30647 10.7404 8.692 10.4769C8.98522 10.2719 9.24124 10.0182 9.449 9.72691C9.746 9.30491 9.914 8.86291 9.98 8.32791C9.996 8.22291 9.996 8.07391 9.996 5.49991C9.996 2.92591 9.996 2.77691 9.98 2.67191C9.9186 2.10575 9.69654 1.56897 9.34 1.12491C9.19734 0.955142 9.04007 0.798208 8.87 0.655906C8.42903 0.303221 7.89716 0.0827034 7.336 0.0199062C7.238 0.00390625 7.098 0.00390625 5.546 0.00390625H3.82Z" fill="currentColor"/>
<path d="M11.871 5.00791C11.6951 5.03338 11.5285 5.10324 11.387 5.21091C11.32 5.26091 11.215 5.37891 11.168 5.44491C11.0565 5.60814 10.9991 5.80229 11.004 5.99991C11.004 6.27691 11.098 6.50791 11.297 6.70291C11.4023 6.8145 11.534 6.89774 11.68 6.94491C11.781 6.97991 11.855 6.99191 12.004 6.99991C12.162 6.99972 12.3176 7.03854 12.457 7.11291C12.5742 7.17305 12.6784 7.25578 12.7635 7.35636C12.8487 7.45693 12.9131 7.57335 12.953 7.69891C13.003 7.85491 13 7.67591 13 10.4999C13 13.3239 13.004 13.1449 12.953 13.2999C12.843 13.6479 12.57 13.8899 12.199 13.9799C12.149 13.9959 12.019 13.9959 10.535 13.9959C8.754 13.9999 8.852 14.0039 8.691 13.9489C8.56678 13.9095 8.45168 13.8456 8.35243 13.7611C8.25319 13.6767 8.17179 13.5732 8.113 13.4569C8.03892 13.3185 8.0001 13.1639 8 13.0069C7.988 12.7619 7.945 12.6209 7.832 12.4449C7.75381 12.3394 7.66047 12.2461 7.555 12.1679C7.39176 12.0564 7.19762 11.9991 7 12.0039C6.86885 12.0009 6.73852 12.0254 6.61743 12.0758C6.49633 12.1263 6.38718 12.2016 6.297 12.2969C6.19655 12.3931 6.11829 12.51 6.06769 12.6396C6.01708 12.7691 5.99535 12.9081 6.004 13.0469C6.008 13.8009 6.313 14.5389 6.848 15.0859C7.297 15.5429 7.84 15.8359 8.457 15.9489C8.727 15.9959 8.605 15.9959 10.414 15.9999C12.094 15.9999 12.199 15.9999 12.402 15.9729C12.8647 15.9102 13.3065 15.7404 13.692 15.4769C13.9852 15.2719 14.2412 15.0182 14.449 14.7269C14.746 14.3049 14.914 13.8629 14.98 13.3279C14.996 13.2229 14.996 13.0739 14.996 10.4999C14.996 7.92591 14.996 7.77691 14.98 7.67191C14.9186 7.10575 14.6965 6.56897 14.34 6.12491C14.1977 5.95518 14.0407 5.79825 13.871 5.65591C13.4298 5.3029 12.8975 5.08236 12.336 5.01991C12.1815 5.00483 12.0261 5.00082 11.871 5.00791Z" fill="currentColor"/>
</svg>
