<svg width="16" height="16" viewBox="0 0 16 16" fill="none" xmlns="http://www.w3.org/2000/svg">
<path d="M7.871 0.00795016C7.449 0.0659502 7.121 0.37095 7.02 0.79295C7.004 0.85895 7.004 0.88695 7.004 1.47295L7 2.08195L6.848 2.11295C5.96363 2.28125 5.12961 2.65002 4.41 3.19095C3.21204 4.08336 2.39153 5.39189 2.11 6.85895L2.081 6.99995L1.471 7.00395C0.804002 7.00395 0.831002 7.00395 0.679002 7.05395C0.343002 7.16795 0.0890016 7.45695 0.0190016 7.80895C-0.000998382 7.90195 -0.000998382 8.09795 0.0190016 8.19095C0.0890016 8.54295 0.343002 8.83195 0.679002 8.94495C0.831002 8.99595 0.804002 8.99595 1.472 8.99595L2.082 8.99995L2.109 9.13995C2.28757 10.0731 2.68514 10.9505 3.269 11.7C3.523 12.023 3.879 12.387 4.207 12.652C4.9701 13.2757 5.87625 13.7001 6.844 13.887L7 13.918L7.004 14.528C7.004 15.113 7.004 15.141 7.02 15.207C7.066 15.4069 7.16 15.574 7.3 15.715C7.438 15.848 7.61 15.938 7.813 15.9799C7.903 16 8.093 16 8.191 15.9799C8.543 15.91 8.832 15.66 8.945 15.32C8.996 15.1679 8.996 15.195 8.996 14.527L9 13.918L9.14 13.891C10.3162 13.6655 11.3977 13.0923 12.2445 12.2455C13.0914 11.3987 13.6646 10.3172 13.89 9.14095L13.919 8.99995L14.529 8.99595C15.114 8.99595 15.142 8.99595 15.208 8.97995C15.4317 8.93121 15.6319 8.80743 15.7755 8.62916C15.9191 8.45089 15.9974 8.22886 15.9974 7.99995C15.9974 7.77104 15.9191 7.54901 15.7755 7.37074C15.6319 7.19247 15.4317 7.06869 15.208 7.01995C15.142 7.00395 15.114 7.00395 14.528 7.00395L13.918 6.99995L13.898 6.90195C13.6165 5.37627 12.754 4.01936 11.492 3.11695C10.7835 2.61072 9.97291 2.26534 9.117 2.10495L9 2.08195L8.996 1.47195C8.996 0.80495 8.996 0.83195 8.946 0.67595C8.88863 0.510943 8.78932 0.3637 8.65782 0.248686C8.52633 0.133673 8.36718 0.0548457 8.196 0.0199502C8.08808 0.00426702 7.97978 0.000243855 7.871 0.00795016ZM7.004 4.62795C7.004 5.10895 7.008 5.14095 7.02 5.20695C7.066 5.40695 7.16 5.57395 7.3 5.71495C7.438 5.84795 7.61 5.93795 7.813 5.97995C7.903 5.99995 8.093 5.99995 8.191 5.97995C8.543 5.90995 8.832 5.65995 8.945 5.31995C8.996 5.16795 8.996 5.18395 8.996 4.62895L9.004 4.12495C9.004 4.12495 9.054 4.14095 9.114 4.15595C9.65313 4.30987 10.1535 4.5764 10.582 4.93795C10.687 5.02795 10.93 5.26595 11.023 5.37495C11.352 5.75795 11.593 6.16795 11.762 6.63695C11.797 6.72695 11.875 6.97995 11.875 6.99695L11.371 7.00395C10.816 7.00395 10.832 7.00395 10.68 7.05395C10.344 7.16795 10.09 7.45695 10.02 7.80895C10 7.90195 10 8.09795 10.02 8.19095C10.09 8.54295 10.344 8.83195 10.68 8.94495C10.832 8.99595 10.816 8.99595 11.371 8.99595L11.875 9.00395C11.875 9.00395 11.859 9.05395 11.844 9.11395C11.719 9.55895 11.496 10.004 11.214 10.387C10.9936 10.679 10.7365 10.9415 10.449 11.168C10.059 11.468 9.582 11.7109 9.113 11.844C9.055 11.859 9.003 11.875 9.003 11.875L8.996 11.367C8.996 10.8169 8.996 10.832 8.946 10.676C8.8882 10.5103 8.78813 10.3627 8.6557 10.2476C8.52328 10.1325 8.36309 10.0541 8.191 10.02C7.93322 9.96848 7.66553 10.0208 7.44609 10.1655C7.22665 10.3103 7.07318 10.5357 7.019 10.793C7.008 10.859 7.004 10.891 7.004 11.367L6.996 11.875C6.996 11.875 6.937 11.859 6.875 11.84C6.42013 11.7093 5.9926 11.4976 5.613 11.215C5.32083 10.9942 5.05833 10.7368 4.832 10.449C4.71907 10.2987 4.6149 10.1422 4.52 9.97995C4.40158 9.76727 4.30091 9.54518 4.219 9.31595C4.18548 9.21262 4.15414 9.1086 4.125 9.00395L4.633 8.99595C5.109 8.99595 5.141 8.99195 5.207 8.97995C5.43067 8.93121 5.63093 8.80743 5.77453 8.62916C5.91814 8.45089 5.99644 8.22886 5.99644 7.99995C5.99644 7.77104 5.91814 7.54901 5.77453 7.37074C5.63093 7.19247 5.43067 7.06869 5.207 7.01995C5.141 7.00795 5.109 7.00395 4.633 7.00395L4.125 6.99595C4.125 6.99595 4.141 6.94595 4.156 6.88595C4.31671 6.32885 4.59649 5.8133 4.976 5.37495C5.07 5.26495 5.313 5.02695 5.418 4.93695C5.87574 4.55258 6.41347 4.27517 6.992 4.12495C6.996 4.12495 7 4.35195 7.004 4.62895V4.62795Z" fill="currentColor"/>
</svg>
