<svg width="16" height="16" viewBox="0 0 16 16" fill="none" xmlns="http://www.w3.org/2000/svg">
<path d="M2.871 2.00812C2.65308 2.03868 2.45133 2.14026 2.297 2.29712C2.20172 2.3873 2.12641 2.49645 2.07594 2.61755C2.02547 2.73864 2.00096 2.86897 2.004 3.00012C2.004 3.21012 2.051 3.36712 2.168 3.55012C2.199 3.60512 2.48 3.88712 4.398 5.80512L6.59 8.00012L4.398 10.1911C2.48 12.1131 2.2 12.3951 2.168 12.4501C2.05707 12.6121 1.99972 12.8048 2.004 13.0011C2.004 13.2781 2.098 13.5091 2.297 13.7041C2.45617 13.8679 2.66783 13.9706 2.895 13.9941C3.07 14.0131 3.281 13.9781 3.437 13.8991C3.59 13.8211 3.461 13.9461 5.809 11.6031L8 9.41012L10.191 11.5981C12.184 13.5941 12.387 13.7931 12.453 13.8361C12.5798 13.9189 12.7237 13.9718 12.8738 13.9908C13.024 14.0099 13.1766 13.9946 13.32 13.9461C13.4661 13.8987 13.5978 13.8151 13.703 13.7031C13.7983 13.6129 13.8736 13.5038 13.9241 13.3827C13.9745 13.2616 13.999 13.1313 13.996 13.0001C14.0001 12.8042 13.9427 12.6118 13.832 12.4501C13.801 12.3951 13.52 12.1131 11.602 10.1911L9.41 8.00012L11.602 5.80512C13.52 3.88712 13.801 3.60512 13.832 3.55112C13.9429 3.38912 14.0003 3.19642 13.996 3.00012C13.999 2.86897 13.9745 2.73864 13.9241 2.61755C13.8736 2.49645 13.7983 2.3873 13.703 2.29712C13.5977 2.18552 13.466 2.10229 13.32 2.05512C13.1766 2.00663 13.024 1.99134 12.8738 2.01039C12.7237 2.02945 12.5798 2.08235 12.453 2.16512C12.387 2.20712 12.183 2.40612 10.191 4.40212L8 6.59012L5.809 4.39812C3.46 2.05512 3.589 2.18012 3.437 2.10212C3.35887 2.06433 3.27618 2.03677 3.191 2.02012C3.08509 2.00446 2.97779 2.00043 2.871 2.00812Z" fill="currentColor"/>
</svg>
