<svg width="16" height="16" viewBox="0 0 16 16" fill="none" xmlns="http://www.w3.org/2000/svg">
<g clip-path="url(#clip0_2538_25974)">
<path d="M7.645 0.00792429C6.9351 0.0389021 6.23239 0.163307 5.555 0.377924C4.715 0.647924 3.902 1.06592 3.191 1.60192C2.19865 2.34691 1.39384 3.31318 0.840571 4.42388C0.287305 5.53458 0.000853145 6.75906 0.00400112 7.99992C-0.00080554 9.49011 0.412428 10.9518 1.19676 12.2189C1.98108 13.4859 3.10506 14.5077 4.441 15.1679C4.77 15.3279 5.023 15.4379 5.344 15.5509C6.73102 16.0325 8.2228 16.1282 9.66 15.8279C11.3522 15.47 12.8829 14.5736 14.023 13.2729C15.0658 12.0793 15.7306 10.6029 15.933 9.03092C15.98 8.65592 15.996 8.41092 15.996 7.99992C15.996 7.58992 15.98 7.34392 15.934 6.96892C15.6729 4.94735 14.65 3.1017 13.074 1.80892C11.7905 0.754164 10.2087 0.128164 8.551 0.0189243C8.348 0.00492429 7.832 -0.00107571 7.645 0.00792429ZM8.496 2.01992C9.38247 2.09108 10.2419 2.35906 11.0117 2.80434C11.7815 3.24961 12.4423 3.86099 12.946 4.59392C13.8303 5.88198 14.1788 7.46348 13.918 9.00392C13.7395 10.0694 13.2759 11.0666 12.5764 11.8899C11.877 12.7132 10.9676 13.3317 9.945 13.6799C9.012 13.9999 7.985 14.0819 6.996 13.9179C5.7673 13.7127 4.63364 13.128 3.754 12.2459C3.14447 11.6396 2.67395 10.908 2.375 10.1019C2.1762 9.5659 2.05498 9.00423 2.015 8.43392C1.99935 8.1448 1.99935 7.85505 2.015 7.56592C2.07549 6.70719 2.32027 5.87156 2.7327 5.11592C3.14512 4.36027 3.71549 3.70235 4.405 3.18692C5.31248 2.51122 6.39291 2.10658 7.521 2.01992C7.743 2.00392 7.755 1.99992 8.067 2.00392C8.243 2.00792 8.41 2.01192 8.496 2.01992Z" fill="currentColor"/>
<path d="M5.79 4.88292C5.6439 4.89781 5.50253 4.94311 5.375 5.01592C5.20847 5.11761 5.07211 5.26191 4.98 5.43392C4.91581 5.57348 4.88271 5.72532 4.883 5.87892C4.883 6.08592 4.945 6.28492 5.059 6.45292C5.082 6.48392 5.379 6.78492 5.844 7.24992L6.59 7.99992L5.844 8.74992C5.379 9.21492 5.082 9.51592 5.059 9.54692C4.971 9.67501 4.91353 9.82157 4.89099 9.97533C4.86846 10.1291 4.88146 10.286 4.929 10.4339C4.97607 10.579 5.05816 10.7102 5.168 10.8159C5.359 11.0159 5.602 11.1169 5.878 11.1169C6.08321 11.1188 6.28402 11.0574 6.453 10.9409C6.484 10.9179 6.785 10.6209 7.25 10.1559L8 9.40992L8.75 10.1599C9.555 10.9599 9.543 10.9529 9.691 11.0229C9.82544 11.0862 9.97242 11.1183 10.121 11.1169C10.3295 11.1193 10.5334 11.0552 10.703 10.9339C10.777 10.8789 10.891 10.7659 10.941 10.6949C11.0566 10.5258 11.1185 10.3258 11.1185 10.1209C11.1185 9.91609 11.0566 9.71602 10.941 9.54692C10.918 9.51592 10.621 9.21492 10.156 8.74692L9.41 7.99992L10.156 7.24992C10.621 6.78492 10.918 6.48392 10.941 6.45292C11.117 6.19892 11.168 5.87092 11.074 5.57392C11.0256 5.42227 10.9396 5.28534 10.824 5.17592C10.7206 5.06592 10.5918 4.98285 10.449 4.93392C10.2005 4.84795 9.92816 4.8634 9.691 4.97692C9.543 5.04692 9.555 5.03892 8.754 5.83992L8 6.58992L7.25 5.83992C6.46 5.05492 6.453 5.04692 6.324 4.97992C6.15672 4.90292 5.97367 4.86955 5.79 4.88292Z" fill="currentColor"/>
</g>
<defs>
<clipPath id="clip0_2538_25974">
<rect width="16" height="16" fill="white"/>
</clipPath>
</defs>
</svg>
