<svg width="16" height="16" viewBox="0 0 16 16" fill="none" xmlns="http://www.w3.org/2000/svg">
<path d="M4.895 2.00791C4.16364 2.06173 3.47463 2.37154 2.949 2.88291C2.65236 3.16863 2.41566 3.51061 2.25271 3.88886C2.08977 4.26712 2.00386 4.67406 2 5.08591C1.988 5.33991 1.96 5.46491 1.875 5.62891C1.793 5.79291 1.793 5.79291 0.973 6.61691C0.324 7.26991 0.199 7.39491 0.168 7.44891C0.0570717 7.61091 -0.000283885 7.80361 0.00400021 7.99991C0.00400021 8.20991 0.0510002 8.36691 0.168 8.54991C0.199 8.60491 0.324 8.72991 0.973 9.38291C1.793 10.2069 1.793 10.2069 1.875 10.3709C1.918 10.4489 1.961 10.5709 1.98 10.6679C1.988 10.7069 1.996 10.8009 2 10.9179C2.016 11.2969 2.063 11.5699 2.164 11.8749C2.281 12.2269 2.454 12.5349 2.695 12.8399C2.789 12.9599 3.039 13.2099 3.16 13.3049C3.62522 13.6819 4.18956 13.9164 4.785 13.9799C4.891 13.9959 4.973 13.9959 5.508 13.9959C5.965 13.9959 6.125 13.9919 6.164 13.9839C6.3695 13.9513 6.55894 13.8531 6.704 13.7039C6.79923 13.6135 6.87443 13.5042 6.92473 13.3829C6.97502 13.2616 6.99931 13.1312 6.996 12.9999C6.99904 12.8688 6.97453 12.7384 6.92406 12.6173C6.87359 12.4962 6.79828 12.3871 6.703 12.2969C6.59772 12.1853 6.46599 12.1021 6.32 12.0549C6.168 12.0039 6.191 12.0079 5.55 11.9999C5.055 11.9959 4.957 11.9919 4.906 11.9799C4.6822 11.9342 4.47772 11.8211 4.32 11.6559C4.19954 11.535 4.10882 11.3878 4.055 11.2259C4.017 11.1008 3.99845 10.9706 4 10.8399C3.99144 10.1309 3.74095 9.44609 3.29 8.89891C3.254 8.85191 3.04 8.63291 2.816 8.40991L2.41 7.99991L2.816 7.59391C3.039 7.36691 3.254 7.14791 3.289 7.10191C3.582 6.74191 3.785 6.34391 3.899 5.90191C3.961 5.66391 3.989 5.46091 4 5.15991C4.008 4.95991 4.016 4.88691 4.055 4.77291C4.109 4.60891 4.195 4.47291 4.32 4.34291C4.47786 4.17804 4.68232 4.06535 4.906 4.01991C4.957 4.00791 5.055 4.00391 5.551 3.99991C6.191 3.99191 6.168 3.99591 6.321 3.94491C6.46663 3.89759 6.598 3.81436 6.703 3.70291C6.79828 3.61273 6.87359 3.50357 6.92406 3.38248C6.97453 3.26139 6.99904 3.13106 6.996 2.99991C6.99904 2.86875 6.97453 2.73842 6.92406 2.61733C6.87359 2.49624 6.79828 2.38708 6.703 2.29691C6.59772 2.18531 6.46599 2.10207 6.32 2.05491C6.168 2.00391 6.195 2.00391 5.559 2.00391C5.242 2.00391 4.941 2.00391 4.895 2.00791ZM9.871 2.00791C9.496 2.05791 9.171 2.32391 9.055 2.67991C9.01792 2.78239 9.00062 2.89097 9.004 2.99991C9.004 3.13291 9.016 3.20291 9.054 3.31991C9.1106 3.48647 9.2101 3.63518 9.34247 3.75105C9.47484 3.86691 9.63541 3.94585 9.808 3.97991C9.855 3.99191 9.945 3.99591 10.449 3.99991C11.094 4.00391 11.079 4.00391 11.239 4.05891C11.562 4.16791 11.839 4.44491 11.945 4.76891C11.985 4.88691 11.992 4.95691 12 5.15991C12.0094 5.80126 12.2153 6.4243 12.59 6.94491C12.703 7.10191 12.79 7.19891 13.184 7.58991L13.59 7.99991L13.18 8.40991C12.742 8.85191 12.668 8.93391 12.527 9.14491C12.1936 9.65008 12.0108 10.2397 12 10.8449C11.996 10.9799 11.988 11.0549 11.977 11.1049C11.9334 11.3254 11.8214 11.5266 11.657 11.6799C11.5 11.8359 11.328 11.9299 11.105 11.9799C11.039 11.9919 11 11.9959 10.449 11.9999C9.82 12.0039 9.844 12.0039 9.699 12.0469C9.41 12.1329 9.152 12.3869 9.055 12.6799C9.01792 12.7824 9.00062 12.891 9.004 12.9999C9.004 13.1329 9.016 13.2029 9.054 13.3199C9.148 13.6049 9.394 13.8519 9.676 13.9449C9.836 13.9959 9.816 13.9959 10.488 13.9959C11.148 13.9959 11.188 13.9919 11.438 13.9489C12.0486 13.8387 12.612 13.5474 13.055 13.1129C13.3507 12.8275 13.5865 12.486 13.7487 12.1085C13.911 11.7309 13.9964 11.3248 14 10.9139C14.012 10.6519 14.04 10.5349 14.125 10.3639C14.207 10.2069 14.215 10.1989 15.027 9.38291C15.676 8.72991 15.801 8.60491 15.832 8.55091C15.9429 8.3889 16.0003 8.1962 15.996 7.99991C16.0001 7.80395 15.9427 7.61163 15.832 7.44991C15.801 7.39491 15.676 7.26991 15.027 6.61691C14.215 5.80091 14.207 5.79291 14.125 5.63691C14.035 5.46491 14.012 5.34691 14 5.08591C13.9922 4.38389 13.7473 3.70513 13.305 3.15991C13.167 2.99743 13.0166 2.84597 12.855 2.70691C12.4454 2.37189 11.9575 2.14619 11.437 2.05091C11.195 2.00791 11.16 2.00391 10.52 2.00391C10.191 2.00391 9.902 2.00391 9.871 2.00791Z" fill="currentColor"/>
</svg>
