<svg width="16" height="16" viewBox="0 0 16 16" fill="none" xmlns="http://www.w3.org/2000/svg">
<path d="M10.313 3.12501C10.0088 3.15235 9.71983 3.27084 9.484 3.46501C9.316 3.60501 9.164 3.81301 9.078 4.01501C9.063 4.05501 8.555 5.45301 7.953 7.12501C7.348 8.79701 6.855 10.165 6.852 10.165C6.848 10.165 6.578 9.47701 6.246 8.63701C6.03736 8.09848 5.82402 7.5618 5.606 7.02701C5.50603 6.81066 5.35427 6.62229 5.16415 6.47856C4.97403 6.33484 4.75141 6.2402 4.516 6.20301C4.102 6.13301 3.652 6.24301 3.328 6.49601C3.12294 6.65751 2.96424 6.87037 2.868 7.11301C2.75018 7.49136 2.63784 7.8714 2.531 8.25301L1.715 8.26201C0.977002 8.26201 0.887002 8.26601 0.825002 8.27701C0.63081 8.31167 0.451151 8.40283 0.308501 8.53908C0.165851 8.67532 0.0665432 8.85061 0.0230018 9.04301C0.00688713 9.11348 0.000162171 9.18577 0.00300179 9.25801C0.00300179 9.39801 0.0160018 9.465 0.0550018 9.58201C0.156002 9.88201 0.398002 10.117 0.703002 10.215C0.843002 10.258 0.836002 10.258 1.832 10.254C2.836 10.254 2.782 10.254 2.996 10.204C3.296 10.129 3.578 9.98801 3.813 9.79301C3.895 9.72301 4.027 9.58601 4.093 9.50301C4.145 9.43701 4.246 9.28501 4.285 9.21901C4.301 9.188 4.309 9.17901 4.312 9.188C4.316 9.195 4.586 9.87501 4.914 10.703C5.238 11.531 5.52 12.234 5.535 12.266C5.711 12.617 6.004 12.875 6.371 13C6.926 13.191 7.547 13.05 7.941 12.64C8.05702 12.5238 8.15118 12.3876 8.219 12.238C8.246 12.18 8.371 11.844 8.547 11.368C9.847 7.75801 10.395 6.25001 10.398 6.25001C10.398 6.25001 10.5 6.58601 10.618 6.99601C11.082 8.61301 11.164 8.89101 11.195 8.973C11.3258 9.3149 11.5478 9.61438 11.837 9.83883C12.1262 10.0633 12.4714 10.2041 12.835 10.246C12.98 10.262 15.055 10.262 15.16 10.246C15.414 10.207 15.648 10.062 15.805 9.85601C15.887 9.74601 15.961 9.57001 15.985 9.43001C15.992 9.39501 15.996 9.32001 15.996 9.25001C15.9926 9.01811 15.9091 8.79454 15.7596 8.6172C15.6101 8.43986 15.404 8.31967 15.176 8.27701C15.113 8.26201 15.016 8.26201 14.082 8.25701L13.059 8.254L12.473 6.21901C12.148 5.09801 11.875 4.14901 11.859 4.10901C11.664 3.54701 11.172 3.17601 10.566 3.12501C10.4815 3.11719 10.3975 3.11719 10.313 3.12501Z" fill="currentColor"/>
</svg>
