<svg width="16" height="16" viewBox="0 0 16 16" fill="none" xmlns="http://www.w3.org/2000/svg">
<path d="M7.66 0.00404748L7.09 0.0350475C5.836 0.133047 4.695 0.418047 3.785 0.867047C3.305 1.10205 2.937 1.35505 2.633 1.66405C2.418 1.87905 2.293 2.04705 2.18 2.27405C1.879 2.88305 1.96 3.50805 2.418 4.10205C2.508 4.21505 2.73 4.44205 2.863 4.55105C3.457 5.03905 4.305 5.43005 5.32 5.68405C6.742 6.03905 8.426 6.09805 9.934 5.84005C11.285 5.61005 12.426 5.14505 13.168 4.52305C13.273 4.43805 13.504 4.20305 13.578 4.10905C13.68 3.97705 13.754 3.85505 13.82 3.72705C14.121 3.11705 14.04 2.49205 13.582 1.89805C13.4481 1.73732 13.3005 1.58844 13.141 1.45305C12.8562 1.22229 12.5455 1.02562 12.215 0.867047C11.23 0.383047 10.008 0.0940475 8.609 0.0160475C8.29277 0.00633465 7.97638 0.002334 7.66 0.00404748Z" fill="currentColor"/>
<path d="M2.531 5.73405C2.336 5.76205 2.133 5.89405 2.059 6.05405C1.996 6.17705 2 6.13005 2 7.15305C2 7.71605 2.004 8.09105 2.008 8.14205C2.028 8.34105 2.086 8.53605 2.18 8.72805C2.293 8.95405 2.418 9.12205 2.633 9.33705C2.941 9.64605 3.309 9.89905 3.793 10.137C4.602 10.537 5.609 10.81 6.711 10.931C7.171 10.981 7.473 10.997 7.992 10.997C8.406 10.997 8.586 10.989 8.914 10.966C10.664 10.833 12.214 10.314 13.141 9.54805C13.27 9.44205 13.496 9.21605 13.582 9.10305C13.824 8.79005 13.961 8.47305 13.992 8.14205C13.996 8.09105 14 7.71605 14 7.15305C14 6.35605 14 6.23505 13.988 6.18505C13.945 5.97405 13.778 5.81305 13.539 5.75105C13.4297 5.72501 13.3156 5.72639 13.207 5.75505C13.1666 5.76697 13.1274 5.78271 13.09 5.80205C13.063 5.81305 12.996 5.85205 12.941 5.88405C12.8554 5.93233 12.7684 5.97801 12.68 6.02105C10.836 6.94205 8.172 7.24305 5.75 6.80105C4.715 6.61405 3.75 6.27805 2.996 5.84905C2.809 5.74305 2.696 5.71505 2.531 5.73405Z" fill="currentColor"/>
<path d="M2.531 10.734C2.336 10.762 2.133 10.894 2.059 11.054C1.996 11.176 2 11.129 2 12.152C2 12.715 2.004 13.09 2.008 13.141C2.028 13.34 2.086 13.535 2.18 13.727C2.293 13.953 2.418 14.121 2.633 14.336C2.941 14.645 3.309 14.898 3.793 15.136C4.602 15.536 5.609 15.809 6.711 15.93C7.171 15.98 7.473 15.996 7.992 15.996C8.406 15.996 8.586 15.988 8.914 15.965C10.664 15.832 12.214 15.313 13.141 14.547C13.27 14.441 13.496 14.215 13.582 14.102C13.824 13.789 13.961 13.472 13.992 13.141C13.996 13.09 14 12.715 14 12.152C14 11.355 14 11.234 13.988 11.184C13.945 10.973 13.778 10.813 13.539 10.75C13.4297 10.724 13.3156 10.7254 13.207 10.754C13.1666 10.766 13.1274 10.7817 13.09 10.801C13.063 10.812 12.996 10.851 12.941 10.883C12.8554 10.9313 12.7684 10.977 12.68 11.02C10.836 11.941 8.172 12.242 5.75 11.8C4.715 11.613 3.75 11.277 2.996 10.848C2.809 10.742 2.696 10.715 2.531 10.734Z" fill="currentColor"/>
</svg>
