<svg width="16" height="16" viewBox="0 0 16 16" fill="none" xmlns="http://www.w3.org/2000/svg">
<path d="M8.246 0.00406169C7.13704 0.0466984 6.05742 0.3723 5.1098 0.949904C4.16217 1.52751 3.37805 2.33792 2.832 3.30406L2.812 3.34406L2.844 3.34806C2.864 3.35206 2.977 3.36306 3.098 3.37806C3.355 3.41006 3.468 3.43406 3.605 3.47706C3.902 3.57006 4.156 3.72306 4.391 3.94506L4.449 4.00006H4.754L4.777 3.96506C5.15386 3.41138 5.6497 2.94894 6.22828 2.61155C6.80686 2.27417 7.45353 2.07037 8.121 2.01506C8.273 2.00006 8.758 2.00006 8.921 2.02006C9.93399 2.11403 10.8851 2.54885 11.619 3.25345C12.3528 3.95804 12.8259 4.89073 12.961 5.89906C12.992 6.12906 12.996 6.21906 12.996 6.50006C12.996 6.83206 12.976 7.04006 12.926 7.32406C12.8076 7.96245 12.5526 8.56769 12.1784 9.09828C11.8041 9.62888 11.3196 10.0723 10.758 10.3981C10.328 10.6481 9.82 10.8361 9.328 10.9261C9.039 10.9761 8.832 10.9961 8.5 10.9961C8.07308 11.0024 7.64764 10.9445 7.238 10.8241C7.23 10.8201 7.223 10.8441 7.195 10.9221C7.01654 11.4939 6.7289 12.0257 6.348 12.4881C6.258 12.5981 6.254 12.6021 6.258 12.6051C7.49129 13.0516 8.82985 13.1195 10.102 12.8001C10.457 12.7101 10.812 12.5901 11.141 12.4411C11.258 12.3911 11.566 12.2381 11.671 12.1801L11.734 12.1451L13.054 13.4651C14.25 14.6601 14.387 14.7931 14.454 14.8351C14.5806 14.9177 14.7244 14.9705 14.8744 14.9895C15.0244 15.0086 15.1767 14.9934 15.32 14.9451C15.466 14.8979 15.5977 14.8147 15.703 14.7031C15.7983 14.6129 15.8736 14.5037 15.9241 14.3826C15.9745 14.2615 15.999 14.1312 15.996 14.0001C16.0001 13.8041 15.9427 13.6118 15.832 13.4501C15.801 13.3951 15.629 13.2191 14.547 12.1401L13.3 10.8901L13.32 10.8671C13.331 10.8551 13.382 10.7931 13.44 10.7301C13.982 10.0948 14.3971 9.36161 14.663 8.57006C15.1082 7.22596 15.1082 5.77416 14.663 4.43006C14.2767 3.2749 13.573 2.25187 12.6323 1.47812C11.6916 0.704375 10.552 0.211196 9.344 0.0550617C8.97976 0.0109605 8.61276 -0.00608619 8.246 0.00406169Z" fill="currentColor"/>
<path d="M0.383001 4.08206C0.294184 4.10532 0.213254 4.15202 0.148686 4.2173C0.0841193 4.28257 0.0382907 4.364 0.0160007 4.45306C0.000373224 5.48434 0.000373224 6.51579 0.0160007 7.54706C0.0416882 7.65462 0.102377 7.7506 0.188534 7.81992C0.274691 7.88925 0.381436 7.92799 0.492001 7.93006C0.523001 7.93006 0.902001 7.88706 1.336 7.83206C1.766 7.77706 2.359 7.70306 2.652 7.66806C3.258 7.59406 3.305 7.58206 3.453 7.50806C3.637 7.41806 3.809 7.23806 3.898 7.05106L3.926 7.00006H5.008L4.977 7.05906C4.84398 7.31593 4.74033 7.58698 4.668 7.86706C4.574 8.23806 4.543 8.52006 4.531 9.02306C4.523 9.41806 4.508 9.57406 4.453 9.80106C4.375 10.1411 4.243 10.3871 4.043 10.5781C3.97057 10.645 3.89225 10.7052 3.809 10.7581C3.793 10.7661 3.781 10.7581 3.707 10.6801C3.57439 10.5462 3.40659 10.4526 3.223 10.4101C3.195 10.4021 2.582 10.3241 1.859 10.2341C0.406001 10.0511 0.449001 10.0541 0.336001 10.0981C0.257541 10.1263 0.187274 10.1735 0.131446 10.2354C0.0756179 10.2973 0.0359607 10.3721 0.0160007 10.4531C0.000373224 11.4843 0.000373224 12.5158 0.0160007 13.5471C0.0416882 13.6546 0.102377 13.7506 0.188534 13.8199C0.274691 13.8892 0.381436 13.928 0.492001 13.9301C0.566001 13.9301 3.16 13.6051 3.238 13.5861C3.566 13.5041 3.832 13.2621 3.941 12.9491L3.961 12.8951L4.094 12.8481C4.293 12.7781 4.383 12.7421 4.559 12.6521C4.88295 12.4924 5.17639 12.2771 5.426 12.0161C5.8526 11.5624 6.1553 11.0066 6.305 10.4021C6.41 9.97706 6.457 9.60906 6.465 9.07006C6.469 8.93006 6.473 8.77706 6.477 8.73006C6.527 8.17606 6.754 7.79006 7.199 7.49606C7.239 7.46906 7.293 7.43706 7.32 7.42206L7.371 7.39506L7.437 7.44106C7.543 7.51106 7.633 7.55506 7.754 7.58606C7.836 7.60606 10.426 7.93006 10.512 7.93006C10.575 7.93041 10.6374 7.9177 10.6952 7.89275C10.753 7.86779 10.805 7.83112 10.848 7.78506C10.9193 7.71812 10.9682 7.63082 10.988 7.53506C11.004 7.45306 11.004 4.54706 10.988 4.46506C10.9673 4.37393 10.9223 4.29015 10.8576 4.22268C10.793 4.15521 10.7112 4.1066 10.621 4.08206C10.585 4.07352 10.548 4.06949 10.511 4.07006C10.426 4.07006 7.836 4.39506 7.754 4.41406C7.5787 4.45554 7.41965 4.54812 7.297 4.68006C7.21622 4.75562 7.15011 4.84546 7.102 4.94506L7.074 5.00006H3.926L3.898 4.94506C3.7883 4.7284 3.60604 4.55712 3.383 4.46106C3.277 4.41406 3.195 4.39806 2.773 4.34806L1.457 4.18406C1.13462 4.14095 0.811582 4.10294 0.488001 4.07006C0.453001 4.07006 0.406001 4.07806 0.383001 4.08206Z" fill="currentColor"/>
</svg>
