<svg width="16" height="16" viewBox="0 0 16 16" fill="none" xmlns="http://www.w3.org/2000/svg">
<path d="M9.21 1.2301C9.05398 1.25234 8.90478 1.30867 8.773 1.3951C8.6201 1.49942 8.4987 1.64364 8.422 1.8121C8.382 1.9021 8.398 1.8441 7.82 4.0001C7.6541 4.62896 7.48376 5.25664 7.309 5.8831C7.305 5.8831 7.269 5.8551 7.223 5.8241C6.90776 5.59722 6.56671 5.40857 6.207 5.2621C5.51537 4.97991 4.75193 4.92493 4.027 5.1051C3.172 5.3201 2.383 5.8481 1.715 6.6521C1.43 6.9961 1.121 7.4721 1.051 7.6871C0.975933 7.91438 0.985142 8.16109 1.07694 8.38214C1.16874 8.6032 1.33701 8.78385 1.551 8.8911C1.68 8.9571 1.855 9.0001 2 9.0001C2.242 9.0001 2.5 8.8981 2.668 8.7421C2.77 8.6481 2.816 8.5861 2.906 8.4301C3.309 7.7421 3.895 7.2231 4.457 7.0591C5.113 6.8671 5.82 7.1491 6.586 7.9021L6.734 8.0511L5.988 10.8321C5.578 12.3631 5.242 13.6411 5.234 13.6761C5.21355 13.8179 5.22396 13.9625 5.26453 14.0999C5.3051 14.2373 5.37487 14.3643 5.46906 14.4723C5.56325 14.5802 5.67965 14.6666 5.81029 14.7254C5.94093 14.7842 6.08273 14.8141 6.226 14.8131C6.43707 14.8132 6.64274 14.7463 6.81344 14.6222C6.98413 14.498 7.11107 14.3229 7.176 14.1221C7.191 14.0661 8.328 9.8321 8.328 9.8241C8.328 9.8201 8.383 9.8641 8.449 9.9181C9.149 10.5001 9.891 10.8551 10.641 10.9651C10.821 10.9921 10.906 10.9961 11.137 10.9961C11.387 10.9961 11.497 10.9841 11.719 10.9491C12.2174 10.8601 12.6929 10.6716 13.117 10.3951C13.418 10.2031 13.648 10.0151 13.922 9.7421C14.215 9.4491 14.422 9.1991 14.648 8.8551C14.82 8.5981 14.906 8.4371 14.949 8.3091C15.0216 8.0842 15.0124 7.84089 14.9232 7.62208C14.8339 7.40327 14.6702 7.22301 14.461 7.1131C14.3415 7.05111 14.2106 7.01385 14.0764 7.00355C13.9421 6.99325 13.8072 7.01012 13.6796 7.05315C13.552 7.09619 13.4343 7.16449 13.3337 7.254C13.2331 7.34351 13.1516 7.45237 13.094 7.5741C12.688 8.2701 12.074 8.8011 11.512 8.9491C11.367 8.9891 11.297 8.9961 11.132 8.9961C10.969 8.9961 10.895 8.9841 10.75 8.9491C10.21 8.8131 9.613 8.3711 9.02 7.6721C8.977 7.6171 8.938 7.5701 8.938 7.5621C8.938 7.5591 9.242 6.4181 9.613 5.0321C9.984 3.6451 10.297 2.4801 10.305 2.4421C10.323 2.37024 10.3297 2.29602 10.325 2.2221C10.325 2.0861 10.325 2.0661 10.301 1.9881C10.255 1.79661 10.1532 1.6231 10.0085 1.48957C9.86371 1.35604 9.68257 1.26851 9.488 1.2381C9.3962 1.22581 9.30336 1.22313 9.211 1.2301H9.21Z" fill="currentColor"/>
</svg>
