<svg width="16" height="16" viewBox="0 0 16 16" fill="none" xmlns="http://www.w3.org/2000/svg">
<path d="M9.621 0.257921C9.45689 0.290019 9.30341 0.362639 9.17451 0.469175C9.04562 0.575711 8.94541 0.712783 8.883 0.867921C8.87 0.900921 8.574 1.99992 8.223 3.30692C7.87 4.62192 7.582 5.69592 7.578 5.69992C7.574 5.70792 7.539 5.67292 7.473 5.60292C6.993 5.07892 6.43 4.64192 5.895 4.37992C5.07 3.97792 4.242 3.89592 3.415 4.13792C2.773 4.32892 2.168 4.71192 1.594 5.29392C1.07178 5.83914 0.635459 6.46057 0.300001 7.13692C0.136001 7.46092 0.0460006 7.67592 0.0190006 7.80492C-0.000458911 7.93419 -0.000458911 8.06565 0.0190006 8.19492C0.0655184 8.4212 0.188346 8.62463 0.366925 8.77117C0.545503 8.91771 0.768998 8.99847 1 8.99992C1.242 8.99992 1.5 8.89792 1.668 8.74192C1.793 8.62492 1.855 8.53192 1.941 8.34392C2.191 7.78892 2.484 7.31292 2.816 6.91392C2.934 6.77692 3.188 6.52692 3.305 6.43392C3.687 6.12892 4.047 5.98392 4.398 6.00392C5.016 6.03092 5.715 6.53492 6.438 7.47292C6.555 7.62092 6.723 7.85892 6.836 8.02692L6.922 8.15992L6.07 11.3399C5.602 13.0899 5.21 14.5469 5.207 14.5819C5.187 14.6679 5.187 14.8549 5.207 14.9449C5.24482 15.1452 5.34295 15.3292 5.48826 15.4722C5.63356 15.6152 5.8191 15.7103 6.02 15.7449C6.11 15.7619 6.273 15.7619 6.363 15.7459C6.699 15.6869 6.993 15.4489 7.117 15.1329C7.129 15.0979 7.426 13.9999 7.777 12.6909C8.129 11.3789 8.418 10.3049 8.422 10.3009C8.426 10.2929 8.461 10.3279 8.527 10.3979C8.727 10.6179 9.02 10.8909 9.254 11.0739C10.164 11.7969 11.137 12.1019 12.102 11.9689C13.055 11.8359 13.953 11.2809 14.738 10.3389C15.1871 9.7901 15.5626 9.18498 15.855 8.53892C15.937 8.35192 15.973 8.25392 15.988 8.14892C16.0181 7.94685 15.9856 7.74041 15.8948 7.55738C15.804 7.37434 15.6594 7.2235 15.4803 7.12514C15.3013 7.02679 15.0964 6.98564 14.8932 7.00723C14.6901 7.02882 14.4984 7.11212 14.344 7.24592C14.211 7.36292 14.144 7.46092 14.043 7.69092C13.8214 8.18756 13.5349 8.65262 13.191 9.07392C13.0386 9.25046 12.8728 9.41495 12.695 9.56592C12.312 9.87492 11.953 10.0159 11.602 9.99592C10.988 9.96892 10.289 9.46492 9.578 8.54592C9.43 8.35592 9.238 8.08592 9.109 7.89092L9.079 7.83992L9.929 4.65992C10.399 2.91392 10.789 1.45292 10.793 1.41792C10.813 1.33992 10.813 1.15592 10.797 1.06992C10.7701 0.924314 10.7128 0.785993 10.629 0.663921C10.5311 0.530578 10.4043 0.421168 10.258 0.343921C10.1693 0.302847 10.076 0.272628 9.98 0.253921C9.86078 0.237689 9.73983 0.239036 9.621 0.257921Z" fill="currentColor"/>
</svg>
