<svg width="16" height="16" viewBox="0 0 16 16" fill="none" xmlns="http://www.w3.org/2000/svg">
<path d="M1.816 6.00793C1.48644 6.03868 1.16981 6.15145 0.895 6.33593C0.418 6.65193 0.109 7.13593 0.0229996 7.70293C-0.00435536 7.89999 -0.00435536 8.09987 0.0229996 8.29693C0.109 8.85893 0.41 9.33593 0.879 9.65693C1.13143 9.82628 1.41891 9.93629 1.71991 9.97872C2.0209 10.0211 2.32759 9.9949 2.617 9.90193C2.94652 9.79563 3.2427 9.60539 3.47642 9.34993C3.71014 9.09447 3.87335 8.78258 3.95 8.44493C3.985 8.28493 3.997 8.18693 3.997 7.99993C3.997 7.81193 3.985 7.71493 3.95 7.55493C3.87473 7.22574 3.71745 6.92092 3.49279 6.66881C3.26813 6.4167 2.98338 6.22548 2.665 6.11293C2.46409 6.04229 2.25295 6.00513 2.04 6.00293C1.958 6.00293 1.856 6.00293 1.817 6.00793H1.816ZM7.816 6.00793C7.48644 6.03868 7.16981 6.15145 6.895 6.33593C6.61946 6.51695 6.39359 6.76403 6.23797 7.05466C6.08235 7.3453 6.00191 7.67026 6.004 7.99993C6.00212 8.32668 6.08102 8.64884 6.23367 8.93774C6.38632 9.22665 6.608 9.47336 6.879 9.65593C7.13135 9.82544 7.41879 9.93563 7.71979 9.97824C8.02079 10.0208 8.32752 9.99475 8.617 9.90193C8.94652 9.79563 9.2427 9.60539 9.47642 9.34993C9.71014 9.09447 9.87335 8.78258 9.95 8.44493C9.985 8.28493 9.997 8.18693 9.997 7.99993C9.997 7.81193 9.985 7.71493 9.95 7.55493C9.87473 7.22574 9.71745 6.92092 9.49279 6.66881C9.26813 6.4167 8.98338 6.22548 8.665 6.11293C8.46409 6.04229 8.25295 6.00513 8.04 6.00293C7.958 6.00293 7.855 6.00293 7.816 6.00793ZM13.816 6.00793C13.4864 6.03868 13.1698 6.15145 12.895 6.33593C12.6195 6.51695 12.3936 6.76403 12.238 7.05466C12.0823 7.3453 12.0019 7.67026 12.004 7.99993C12.0021 8.32668 12.081 8.64884 12.2337 8.93774C12.3863 9.22665 12.608 9.47336 12.879 9.65593C13.1313 9.82544 13.4188 9.93563 13.7198 9.97824C14.0208 10.0208 14.3275 9.99475 14.617 9.90193C14.9463 9.79548 15.2423 9.60518 15.4758 9.34973C15.7094 9.09428 15.8724 8.78247 15.949 8.44493C15.984 8.28493 15.996 8.18693 15.996 7.99993C15.996 7.81193 15.984 7.71493 15.949 7.55493C15.8737 7.22574 15.7165 6.92092 15.4918 6.66881C15.2671 6.4167 14.9824 6.22548 14.664 6.11293C14.4631 6.04229 14.252 6.00513 14.039 6.00293C13.957 6.00293 13.855 6.00293 13.816 6.00793Z" fill="currentColor"/>
</svg>
