<svg width="16" height="16" viewBox="0 0 16 16" fill="none" xmlns="http://www.w3.org/2000/svg">
<path d="M7.816 0.00792969C7.48644 0.0386846 7.16981 0.151445 6.895 0.33593C6.61946 0.516946 6.39359 0.764027 6.23797 1.05466C6.08234 1.3453 6.00191 1.67026 6.004 1.99993C6.00212 2.32668 6.08101 2.64884 6.23367 2.93774C6.38632 3.22665 6.608 3.47336 6.879 3.65593C7.13135 3.82544 7.41879 3.93563 7.71979 3.97824C8.02078 4.02084 8.32752 3.99475 8.617 3.90193C8.94652 3.79563 9.2427 3.60539 9.47642 3.34993C9.71014 3.09447 9.87335 2.78258 9.95 2.44493C9.985 2.28493 9.997 2.18793 9.997 1.99993C9.997 1.81193 9.985 1.71493 9.95 1.55493C9.87464 1.22563 9.71721 0.920737 9.49236 0.668617C9.26752 0.416498 8.98256 0.225341 8.664 0.11293C8.46309 0.042294 8.25195 0.00513285 8.039 0.00292969C7.957 0.00292969 7.855 0.00292969 7.816 0.00792969ZM7.816 6.00793C7.48644 6.03868 7.16981 6.15144 6.895 6.33593C6.61946 6.51695 6.39359 6.76403 6.23797 7.05466C6.08234 7.3453 6.00191 7.67026 6.004 7.99993C6.00212 8.32668 6.08101 8.64884 6.23367 8.93774C6.38632 9.22665 6.608 9.47336 6.879 9.65593C7.13135 9.82544 7.41879 9.93563 7.71979 9.97824C8.02078 10.0208 8.32752 9.99475 8.617 9.90193C8.94652 9.79563 9.2427 9.60539 9.47642 9.34993C9.71014 9.09447 9.87335 8.78258 9.95 8.44493C9.985 8.28493 9.997 8.18693 9.997 7.99993C9.997 7.81193 9.985 7.71493 9.95 7.55493C9.87473 7.22574 9.71745 6.92092 9.49279 6.66881C9.26813 6.4167 8.98338 6.22548 8.665 6.11293C8.46409 6.04229 8.25295 6.00513 8.04 6.00293C7.958 6.00293 7.855 6.00293 7.816 6.00793ZM7.816 12.0079C7.48644 12.0387 7.16981 12.1514 6.895 12.3359C6.61946 12.5169 6.39359 12.764 6.23797 13.0547C6.08234 13.3453 6.00191 13.6703 6.004 13.9999C6.00212 14.3267 6.08101 14.6488 6.23367 14.9377C6.38632 15.2267 6.608 15.4734 6.879 15.6559C7.13135 15.8254 7.41879 15.9356 7.71979 15.9782C8.02078 16.0208 8.32752 15.9948 8.617 15.9019C8.94633 15.7955 9.24231 15.6052 9.47584 15.3497C9.70938 15.0943 9.87244 14.7825 9.949 14.4449C9.984 14.2849 9.996 14.1869 9.996 13.9999C9.996 13.8119 9.984 13.7149 9.949 13.5549C9.87373 13.2257 9.71645 12.9209 9.49179 12.6688C9.26713 12.4167 8.98238 12.2255 8.664 12.1129C8.46309 12.0423 8.25195 12.0051 8.039 12.0029C7.957 12.0029 7.855 12.0029 7.816 12.0079Z" fill="currentColor"/>
</svg>
