<svg width="16" height="16" viewBox="0 0 16 16" fill="none" xmlns="http://www.w3.org/2000/svg">
<path d="M6.148 0.941C5.34 1.754 5.199 1.895 5.168 1.949C5.05707 2.111 4.99972 2.3037 5.004 2.5C5.004 2.777 5.098 3.008 5.297 3.203C5.45617 3.36679 5.66783 3.46943 5.895 3.493C6.07 3.512 6.281 3.477 6.438 3.398C6.582 3.324 6.582 3.328 7.313 2.598L8 1.91L8.691 2.598C9.301 3.207 9.387 3.293 9.453 3.336C9.711 3.504 10.023 3.543 10.32 3.446C10.4661 3.39855 10.5978 3.31496 10.703 3.203C10.7983 3.11283 10.8736 3.00367 10.9241 2.88258C10.9745 2.76148 10.999 2.63115 10.996 2.5C11.0001 2.30404 10.9427 2.11172 10.832 1.95C10.801 1.895 10.66 1.754 9.852 0.941L8.91 0H7.09L6.148 0.941ZM4.871 5.508C4.66321 5.53535 4.46927 5.6273 4.31657 5.77085C4.16387 5.9144 4.06013 6.1023 4.02 6.308C4 6.402 4 6.598 4.02 6.691C4.05895 6.88647 4.15513 7.06595 4.29634 7.20662C4.43754 7.34729 4.61738 7.4428 4.813 7.481C4.875 7.496 5.016 7.496 8 7.496C10.965 7.496 11.125 7.496 11.191 7.48C11.3868 7.44168 11.5666 7.3457 11.7073 7.20439C11.8481 7.06308 11.9434 6.8829 11.981 6.687C12 6.597 12 6.402 11.981 6.312C11.944 6.11858 11.8509 5.94034 11.7132 5.7995C11.5756 5.65866 11.3995 5.56145 11.207 5.52L11.137 5.504H8.03C6.26 5.504 4.902 5.504 4.871 5.508ZM4.871 8.508C4.66321 8.53535 4.46927 8.6273 4.31657 8.77085C4.16387 8.9144 4.06013 9.10229 4.02 9.308C4 9.402 4 9.598 4.02 9.691C4.05895 9.88647 4.15513 10.066 4.29634 10.2066C4.43754 10.3473 4.61738 10.4428 4.813 10.481C4.875 10.496 5.016 10.496 8 10.496C10.965 10.496 11.125 10.496 11.191 10.48C11.3868 10.4417 11.5666 10.3457 11.7073 10.2044C11.8481 10.0631 11.9434 9.8829 11.981 9.687C12 9.597 12 9.402 11.981 9.313C11.9442 9.1194 11.8511 8.94094 11.7135 8.79991C11.5758 8.65888 11.3997 8.56152 11.207 8.52L11.137 8.504H8.03C6.26 8.504 4.902 8.504 4.871 8.508ZM5.871 12.508C5.65308 12.5386 5.45133 12.6401 5.297 12.797C5.20172 12.8872 5.12641 12.9963 5.07594 13.1174C5.02547 13.2385 5.00096 13.3688 5.004 13.5C5.004 13.71 5.051 13.867 5.168 14.05C5.199 14.105 5.34 14.246 6.148 15.055L7.09 16H8.91L9.852 15.059C10.66 14.246 10.801 14.105 10.832 14.051C10.9429 13.889 11.0003 13.6963 10.996 13.5C10.999 13.3688 10.9745 13.2385 10.9241 13.1174C10.8736 12.9963 10.7983 12.8872 10.703 12.797C10.5977 12.6854 10.466 12.6022 10.32 12.555C10.1766 12.5064 10.024 12.4911 9.87383 12.5102C9.72364 12.5292 9.57973 12.5822 9.453 12.665C9.387 12.707 9.301 12.793 8.691 13.402L8 14.09L7.312 13.402C6.582 12.672 6.582 12.676 6.437 12.602C6.35887 12.5642 6.27618 12.5367 6.191 12.52C6.08509 12.5043 5.97779 12.5003 5.871 12.508Z" fill="currentColor"/>
</svg>
