<svg width="16" height="16" viewBox="0 0 16 16" fill="none" xmlns="http://www.w3.org/2000/svg">
<path d="M4.055 5.00806C3.74032 5.04221 3.444 5.17325 3.207 5.38306C2.96625 5.60025 2.80181 5.88917 2.738 6.20706C2.715 6.30106 2.715 6.32006 2.715 6.50006C2.715 6.66806 2.719 6.70306 2.735 6.78106C2.781 7.02306 2.895 7.26606 3.047 7.44906C3.113 7.52706 7.027 11.4381 7.082 11.4771C7.34721 11.6833 7.67412 11.7943 8.01008 11.7921C8.34604 11.7899 8.67149 11.6747 8.934 11.4651C8.992 11.4181 12.898 7.51206 12.954 7.44906C13.125 7.24206 13.238 6.98006 13.277 6.70706C13.297 6.57006 13.289 6.33606 13.262 6.20306C13.1981 5.88706 13.034 5.6001 12.794 5.38481C12.5541 5.16952 12.2511 5.0374 11.93 5.00806C11.828 4.99606 4.152 5.00006 4.055 5.00806Z" fill="currentColor"/>
</svg>
