<svg width="16" height="16" viewBox="0 0 16 16" fill="none" xmlns="http://www.w3.org/2000/svg">
<path d="M7.773 5.22696C7.503 5.27296 7.301 5.35896 7.082 5.52296C7.027 5.56296 3.113 9.47296 3.047 9.55096C2.88971 9.74474 2.78225 9.97408 2.734 10.219C2.719 10.297 2.714 10.332 2.714 10.5C2.714 10.68 2.714 10.7 2.738 10.793C2.7997 11.1104 2.96303 11.3992 3.20333 11.6157C3.44362 11.8322 3.74782 11.9646 4.07 11.993C4.18 12.003 11.82 12.003 11.93 11.993C12.1517 11.9736 12.3662 11.9045 12.5576 11.7907C12.7489 11.6769 12.9121 11.5215 13.035 11.336C13.145 11.176 13.219 10.992 13.262 10.796C13.289 10.664 13.297 10.43 13.277 10.293C13.2397 10.0271 13.132 9.77611 12.965 9.56596C11.6312 8.22108 10.2926 6.88107 8.949 5.54596C8.73427 5.37256 8.47638 5.2609 8.203 5.22296C8.06005 5.20667 7.91563 5.20801 7.773 5.22696Z" fill="currentColor"/>
</svg>
