<svg width="16" height="16" viewBox="0 0 16 16" fill="none" xmlns="http://www.w3.org/2000/svg">
<path d="M12.871 1.42201C12.727 1.44201 12.574 1.50001 12.453 1.57801C12.387 1.62101 12.281 1.72701 11.441 2.56601L10.5 3.50401L10.246 3.25001C9.98 2.98401 9.941 2.95701 9.816 2.89001C9.689 2.82551 9.54844 2.79225 9.406 2.79301C9.23855 2.78443 9.07175 2.81958 8.922 2.89501C8.848 2.93401 7.48 3.84401 7.414 3.90201C7.28153 4.01743 7.18184 4.16575 7.125 4.33201C7.08764 4.43578 7.07066 4.54579 7.075 4.65601C7.075 4.75001 7.078 4.80101 7.09 4.85201C7.11646 4.98369 7.16955 5.10857 7.246 5.21901C7.301 5.30501 10.696 8.69901 10.781 8.75401C10.9281 8.85503 11.0998 8.91449 11.2779 8.9261C11.456 8.93772 11.634 8.90107 11.793 8.82001C11.9094 8.76332 12.0131 8.68373 12.098 8.58601C12.152 8.52301 13.047 7.18401 13.098 7.09401C13.178 6.9385 13.2156 6.76467 13.207 6.59001C13.2061 6.44844 13.1711 6.30918 13.105 6.18401C13.043 6.05901 13.008 6.01201 12.746 5.75001L12.496 5.50001L13.437 4.55501C14.247 3.74601 14.387 3.60501 14.418 3.55101C14.5289 3.389 14.5863 3.1963 14.582 3.00001C14.5864 2.80245 14.5291 2.60845 14.418 2.44501C14.383 2.39101 14.308 2.31601 13.996 2.00401C13.606 1.60901 13.578 1.58601 13.437 1.51601C13.3589 1.47822 13.2762 1.45066 13.191 1.43401C13.0851 1.41833 12.9778 1.41431 12.871 1.42201ZM7.371 6.92201C7.227 6.94201 7.074 7.00001 6.953 7.07801C6.887 7.12101 6.707 7.30101 4.93 9.07801L2.98 11.028L2.31 12C1.938 12.535 1.626 12.988 1.61 13.008C1.56328 13.0861 1.52411 13.1685 1.493 13.254C1.43818 13.4281 1.43329 13.6142 1.4789 13.7909C1.52451 13.9677 1.61878 14.1281 1.751 14.254C1.8777 14.3862 2.03922 14.4798 2.21689 14.524C2.39455 14.5683 2.58112 14.5613 2.755 14.504C2.888 14.461 2.97 14.406 3.981 13.707L4.974 13.02L6.923 11.07C8.646 9.35201 8.88 9.11301 8.919 9.05501C9.03006 8.89156 9.08739 8.69756 9.083 8.50001C9.08739 8.30245 9.03006 8.10845 8.919 7.94501C8.884 7.89101 8.809 7.81601 8.497 7.50401C8.107 7.10901 8.079 7.08601 7.938 7.01601C7.85987 6.97822 7.77718 6.95066 7.692 6.93401C7.58609 6.91833 7.47879 6.91431 7.372 6.92201H7.371Z" fill="currentColor"/>
</svg>
