<svg width="16" height="16" viewBox="0 0 16 16" fill="none" xmlns="http://www.w3.org/2000/svg">
<path d="M6.871 0.00793837C6.727 0.0279384 6.574 0.0859384 6.453 0.163938C6.387 0.206938 6.27 0.319938 5.297 1.29694C4.352 2.24194 4.207 2.38694 4.168 2.44494C4.05694 2.60838 3.99961 2.80238 4.004 2.99994C4.004 3.21494 4.051 3.37094 4.168 3.55494C4.227 3.64494 4.359 3.77294 4.453 3.83194C4.62669 3.94663 4.83189 4.00415 5.03989 3.99644C5.24789 3.98873 5.44828 3.91617 5.613 3.78894C5.633 3.77294 6.133 3.27694 6.723 2.68694C7.648 1.76194 7.801 1.60494 7.832 1.55094C7.94293 1.38893 8.00028 1.19623 7.996 0.999938C7.99904 0.868786 7.97453 0.738454 7.92406 0.617362C7.87359 0.496271 7.79828 0.387112 7.703 0.296938C7.56516 0.153785 7.38624 0.0569915 7.191 0.0199384C7.08509 0.00427358 6.97778 0.000249613 6.871 0.00793837ZM10.871 0.00793837C10.727 0.0279384 10.574 0.0859384 10.453 0.163938C10.387 0.206938 10.117 0.472939 7.297 3.29694C4.563 6.03094 4.207 6.38694 4.168 6.44494C4.05694 6.60838 3.99961 6.80238 4.004 6.99994C4.004 7.27694 4.098 7.50794 4.297 7.70294C4.45865 7.87008 4.67532 7.97309 4.907 7.99294C5.152 8.01994 5.414 7.94094 5.613 7.78894C5.633 7.77294 7.035 6.37494 8.723 4.68794C11.418 1.98794 11.801 1.60494 11.832 1.55094C11.9429 1.38893 12.0003 1.19623 11.996 0.999938C11.999 0.868786 11.9745 0.738454 11.9241 0.617362C11.8736 0.496271 11.7983 0.387112 11.703 0.296938C11.5652 0.153785 11.3862 0.0569915 11.191 0.0199384C11.0851 0.00427358 10.9778 0.000249613 10.871 0.00793837ZM10.871 4.00794C10.727 4.02794 10.574 4.08594 10.453 4.16394C10.387 4.20694 10.117 4.47294 7.297 7.29694C4.563 10.0309 4.207 10.3869 4.168 10.4449C4.05694 10.6084 3.99961 10.8024 4.004 10.9999C4.004 11.2769 4.098 11.5079 4.297 11.7029C4.45865 11.8701 4.67532 11.9731 4.907 11.9929C5.152 12.0199 5.414 11.9409 5.613 11.7889C5.633 11.7729 7.035 10.3749 8.723 8.68794C11.418 5.98794 11.801 5.60494 11.832 5.55094C11.9429 5.38894 12.0003 5.19623 11.996 4.99994C11.999 4.86879 11.9745 4.73845 11.9241 4.61736C11.8736 4.49627 11.7983 4.38711 11.703 4.29694C11.5652 4.15379 11.3862 4.05699 11.191 4.01994C11.0851 4.00427 10.9778 4.00025 10.871 4.00794ZM10.871 8.00794C10.727 8.02794 10.574 8.08594 10.453 8.16394C10.387 8.20694 10.117 8.47294 7.297 11.2969C4.563 14.0309 4.207 14.3869 4.168 14.4449C4.05694 14.6084 3.99961 14.8024 4.004 14.9999C4.004 15.2769 4.098 15.5079 4.297 15.7029C4.45865 15.8701 4.67532 15.9731 4.907 15.9929C5.152 16.0199 5.414 15.9409 5.613 15.7889C5.633 15.7729 7.035 14.3749 8.723 12.6879C11.418 9.98794 11.801 9.60494 11.832 9.55094C11.9429 9.38893 12.0003 9.19623 11.996 8.99994C11.999 8.86878 11.9745 8.73845 11.9241 8.61736C11.8736 8.49627 11.7983 8.38711 11.703 8.29694C11.5652 8.15378 11.3862 8.05699 11.191 8.01994C11.0851 8.00427 10.9778 8.00025 10.871 8.00794ZM10.871 12.0079C10.727 12.0279 10.574 12.0859 10.453 12.1639C10.387 12.2069 10.27 12.3199 9.297 13.2969C8.352 14.2419 8.207 14.3869 8.168 14.4449C8.05694 14.6084 7.99961 14.8024 8.004 14.9999C8.004 15.2149 8.051 15.3709 8.168 15.5549C8.227 15.6449 8.359 15.7729 8.453 15.8319C8.62669 15.9466 8.8319 16.0041 9.03989 15.9964C9.24789 15.9887 9.44828 15.9162 9.613 15.7889C9.633 15.7729 10.133 15.2769 10.723 14.6879C11.648 13.7619 11.801 13.6049 11.832 13.5509C11.9429 13.3889 12.0003 13.1962 11.996 12.9999C11.999 12.8688 11.9745 12.7385 11.9241 12.6174C11.8736 12.4963 11.7983 12.3871 11.703 12.2969C11.5652 12.1538 11.3862 12.057 11.191 12.0199C11.0851 12.0043 10.9778 12.0002 10.871 12.0079Z" fill="currentColor"/>
</svg>
