<svg width="16" height="16" viewBox="0 0 16 16" fill="none" xmlns="http://www.w3.org/2000/svg">
<path d="M2.871 0.00793837C2.727 0.0279384 2.574 0.0859384 2.453 0.163938C2.387 0.206938 2.27 0.319938 1.297 1.29694C0.351999 2.24194 0.206999 2.38694 0.167999 2.44494C0.0569421 2.60838 -0.000385398 2.80238 0.0039991 2.99994C0.0039991 3.21494 0.0509991 3.37094 0.167999 3.55494C0.226999 3.64494 0.358999 3.77294 0.452999 3.83194C0.626691 3.94663 0.831895 4.00415 1.03989 3.99644C1.24789 3.98873 1.44828 3.91617 1.613 3.78894C1.633 3.77294 2.133 3.27694 2.723 2.68694C3.648 1.76194 3.801 1.60494 3.832 1.55094C3.94293 1.38893 4.00028 1.19623 3.996 0.999938C3.99904 0.868786 3.97453 0.738454 3.92406 0.617362C3.87359 0.496271 3.79828 0.387112 3.703 0.296938C3.56516 0.153785 3.38624 0.0569915 3.191 0.0199384C3.08509 0.00427358 2.97778 0.000249613 2.871 0.00793837ZM6.871 0.00793837C6.727 0.0279384 6.574 0.0859384 6.453 0.163938C6.387 0.206938 6.117 0.472939 3.297 3.29694C0.561999 6.02994 0.206999 6.38694 0.167999 6.44494C0.0569421 6.60838 -0.000385398 6.80238 0.0039991 6.99994C0.0039991 7.27694 0.0979991 7.50794 0.296999 7.70294C0.458652 7.87008 0.675323 7.97309 0.906999 7.99294C1.152 8.01994 1.414 7.94094 1.613 7.78894C1.633 7.77294 3.035 6.37494 4.723 4.68794C7.418 1.98694 7.8 1.60394 7.832 1.54994C7.94273 1.38821 8.00007 1.19589 7.996 0.999938C7.99904 0.868786 7.97453 0.738454 7.92406 0.617362C7.87359 0.496271 7.79828 0.387112 7.703 0.296938C7.56516 0.153785 7.38624 0.0569915 7.191 0.0199384C7.08509 0.00427358 6.97778 0.000249613 6.871 0.00793837ZM10.871 0.00793837C10.727 0.0279384 10.574 0.0859384 10.453 0.163938C10.387 0.210938 9.965 0.624938 5.297 5.29694C0.772999 9.81994 0.206999 10.3869 0.167999 10.4449C0.0569421 10.6084 -0.000385398 10.8024 0.0039991 10.9999C0.0039991 11.2769 0.0979991 11.5079 0.296999 11.7029C0.458652 11.8701 0.675323 11.9731 0.906999 11.9929C1.152 12.0199 1.414 11.9409 1.613 11.7889C1.633 11.7729 3.933 9.47694 6.723 6.68794C11.19 2.21494 11.8 1.60394 11.832 1.54994C11.9427 1.38821 12.0001 1.19589 11.996 0.999938C11.999 0.868786 11.9745 0.738454 11.9241 0.617362C11.8736 0.496271 11.7983 0.387112 11.703 0.296938C11.5652 0.153785 11.3862 0.0569915 11.191 0.0199384C11.0851 0.00427358 10.9778 0.000249613 10.871 0.00793837ZM14.871 0.00793837C14.727 0.0279384 14.574 0.0859384 14.453 0.163938C14.383 0.210938 13.813 0.776938 7.297 7.29694C0.983999 13.6089 0.206999 14.3869 0.167999 14.4449C0.0569421 14.6084 -0.000385398 14.8024 0.0039991 14.9999C0.0039991 15.2769 0.0979991 15.5079 0.296999 15.7029C0.468804 15.8741 0.696856 15.9771 0.938856 15.993C1.18086 16.0088 1.42038 15.9363 1.613 15.7889C1.633 15.7729 4.836 12.5739 8.723 8.68794C14.965 2.43994 15.8 1.60394 15.832 1.54994C15.9427 1.38821 16.0001 1.19589 15.996 0.999938C15.999 0.868786 15.9745 0.738454 15.9241 0.617362C15.8736 0.496271 15.7983 0.387112 15.703 0.296938C15.5652 0.153785 15.3862 0.0569915 15.191 0.0199384C15.0851 0.00427358 14.9778 0.000249613 14.871 0.00793837ZM14.871 4.00794C14.727 4.02794 14.574 4.08594 14.453 4.16394C14.387 4.21094 13.965 4.62494 9.297 9.29694C4.773 13.8199 4.207 14.3869 4.168 14.4449C4.05694 14.6084 3.99961 14.8024 4.004 14.9999C4.004 15.2769 4.098 15.5079 4.297 15.7029C4.45865 15.8701 4.67532 15.9731 4.907 15.9929C5.152 16.0199 5.414 15.9409 5.613 15.7889C5.633 15.7729 7.933 13.4769 10.723 10.6879C15.19 6.21494 15.8 5.60394 15.832 5.54994C15.9427 5.38821 16.0001 5.19589 15.996 4.99994C15.999 4.86879 15.9745 4.73845 15.9241 4.61736C15.8736 4.49627 15.7983 4.38711 15.703 4.29694C15.5652 4.15379 15.3862 4.05699 15.191 4.01994C15.0851 4.00427 14.9778 4.00025 14.871 4.00794ZM14.871 8.00794C14.727 8.02794 14.574 8.08594 14.453 8.16394C14.387 8.20694 14.117 8.47294 11.297 11.2969C8.562 14.0309 8.207 14.3869 8.168 14.4449C8.05694 14.6084 7.99961 14.8024 8.004 14.9999C8.004 15.2769 8.098 15.5079 8.297 15.7029C8.45865 15.8701 8.67532 15.9731 8.907 15.9929C9.152 16.0199 9.414 15.9409 9.613 15.7889C9.633 15.7729 11.035 14.3749 12.723 12.6879C15.418 9.98794 15.801 9.60494 15.832 9.55094C15.9429 9.38893 16.0003 9.19623 15.996 8.99994C15.999 8.86878 15.9745 8.73845 15.9241 8.61736C15.8736 8.49627 15.7983 8.38711 15.703 8.29694C15.5652 8.15378 15.3862 8.05699 15.191 8.01994C15.0851 8.00427 14.9778 8.00025 14.871 8.00794ZM14.871 12.0079C14.727 12.0279 14.574 12.0859 14.453 12.1639C14.387 12.2069 14.27 12.3199 13.297 13.2969C12.352 14.2419 12.207 14.3869 12.168 14.4449C12.0569 14.6084 11.9996 14.8024 12.004 14.9999C12.004 15.2149 12.051 15.3709 12.168 15.5549C12.227 15.6449 12.359 15.7729 12.453 15.8319C12.6267 15.9466 12.8319 16.0041 13.0399 15.9964C13.2479 15.9887 13.4483 15.9162 13.613 15.7889C13.633 15.7729 14.133 15.2769 14.723 14.6879C15.648 13.7619 15.801 13.6049 15.832 13.5509C15.9429 13.3889 16.0003 13.1962 15.996 12.9999C15.999 12.8688 15.9745 12.7385 15.9241 12.6174C15.8736 12.4963 15.7983 12.3871 15.703 12.2969C15.5652 12.1538 15.3862 12.057 15.191 12.0199C15.0851 12.0043 14.9778 12.0002 14.871 12.0079Z" fill="currentColor"/>
</svg>
