<svg width="16" height="16" viewBox="0 0 16 16" fill="none" xmlns="http://www.w3.org/2000/svg">
<path d="M2.871 2.00807C2.441 2.06607 2.105 2.38707 2.02 2.80807C2.004 2.87507 2.004 3.11307 2.004 8.00007C2.004 12.8871 2.004 13.1251 2.02 13.1911C2.09 13.5431 2.344 13.8321 2.68 13.9451C2.797 13.9851 2.867 13.9961 3 13.9961C3.11154 14.0007 3.22292 13.9837 3.328 13.9461C3.668 13.8241 3.902 13.5511 3.98 13.1881C3.996 13.1251 3.996 12.9181 3.996 8.00007C3.996 3.08207 3.996 2.87507 3.98 2.81207C3.93221 2.56569 3.79466 2.34582 3.594 2.19507C3.47435 2.11009 3.33856 2.05053 3.195 2.02007C3.08774 2.00453 2.97912 2.00051 2.871 2.00807ZM12.844 2.01207C12.7028 2.03578 12.5683 2.08893 12.449 2.16807C12.289 2.27307 5.379 7.21807 5.339 7.25007C5.17583 7.39617 5.0637 7.59066 5.019 7.80507C4.99954 7.93434 4.99954 8.0658 5.019 8.19507C5.066 8.41507 5.176 8.60207 5.339 8.75007C5.379 8.78107 12.289 13.7271 12.449 13.8321C12.5771 13.9174 12.7232 13.9719 12.8759 13.9912C13.0286 14.0106 13.1837 13.9943 13.3291 13.9436C13.4744 13.8929 13.606 13.8093 13.7136 13.6992C13.8211 13.5891 13.9017 13.4555 13.949 13.3091C14.0089 13.1255 14.0142 12.9285 13.9643 12.7419C13.9144 12.5554 13.8115 12.3873 13.668 12.2581C13.645 12.2341 12.301 11.2701 10.68 10.1131C9.059 8.95307 7.73 8.00307 7.73 8.00007C7.73 7.99607 9.059 7.04707 10.68 5.88707C11.6799 5.17747 12.6759 4.46246 13.668 3.74207C13.7871 3.63367 13.8784 3.49816 13.9341 3.34702C13.9898 3.19588 14.0083 3.03355 13.988 2.87376C13.9677 2.71396 13.9092 2.56141 13.8175 2.429C13.7257 2.2966 13.6035 2.18823 13.461 2.11307C13.271 2.01565 13.0552 1.98032 12.844 2.01207Z" fill="currentColor"/>
</svg>
