<svg width="16" height="16" viewBox="0 0 16 16" fill="none" xmlns="http://www.w3.org/2000/svg">
<path d="M1.871 4.00791C1.449 4.06191 1.101 4.38691 1.02 4.80791C1 4.90191 1 5.09791 1.02 5.19091C1.05888 5.38624 1.15492 5.56563 1.29593 5.70628C1.43694 5.84694 1.61656 5.94252 1.812 5.98091C1.875 5.99591 2.117 5.99591 8 5.99591C13.848 5.99591 14.125 5.99591 14.191 5.97991C14.4185 5.93624 14.6235 5.81435 14.7706 5.63535C14.9176 5.45635 14.9974 5.23154 14.996 4.99991C14.996 4.77091 14.9176 4.54883 14.7739 4.37055C14.6302 4.19227 14.4298 4.06854 14.206 4.01991L14.136 4.00391H8.032C4.532 4.00391 1.902 4.00391 1.871 4.00791ZM1.871 10.0079C1.449 10.0629 1.101 10.3869 1.02 10.8079C1 10.9019 1 11.0979 1.02 11.1909C1.05888 11.3862 1.15492 11.5656 1.29593 11.7063C1.43694 11.8469 1.61656 11.9425 1.812 11.9809C1.875 11.9959 2.117 11.9959 8 11.9959C13.848 11.9959 14.125 11.9959 14.191 11.9799C14.4185 11.9362 14.6235 11.8143 14.7706 11.6353C14.9176 11.4564 14.9974 11.2315 14.996 10.9999C14.996 10.7709 14.9176 10.5488 14.7739 10.3705C14.6302 10.1923 14.4298 10.0685 14.206 10.0199L14.136 10.0039H8.032C4.532 10.0039 1.902 10.0039 1.871 10.0079Z" fill="currentColor"/>
</svg>
