<svg width="16" height="16" viewBox="0 0 16 16" fill="none" xmlns="http://www.w3.org/2000/svg">
<path d="M0.871001 4.00791C0.449001 4.06191 0.101001 4.38691 0.0200011 4.80791C1.06823e-06 4.90191 1.06823e-06 5.09791 0.0200011 5.19091C0.0588763 5.38624 0.154916 5.56563 0.295928 5.70628C0.43694 5.84694 0.616565 5.94252 0.812001 5.98091C0.875001 5.99591 1.148 5.99591 8 5.99591C14.809 5.99591 15.125 5.99591 15.191 5.97991C15.4185 5.93624 15.6235 5.81435 15.7706 5.63535C15.9176 5.45635 15.9974 5.23154 15.996 4.99991C15.996 4.77091 15.9176 4.54883 15.7739 4.37055C15.6302 4.19227 15.4298 4.06854 15.206 4.01991L15.136 4.00391H8.032C3.954 4.00391 0.902001 4.00391 0.871001 4.00791ZM0.871001 10.0079C0.449001 10.0629 0.101001 10.3869 0.0200011 10.8079C1.06823e-06 10.9019 1.06823e-06 11.0979 0.0200011 11.1909C0.0588763 11.3862 0.154916 11.5656 0.295928 11.7063C0.43694 11.8469 0.616565 11.9425 0.812001 11.9809C0.875001 11.9959 1.148 11.9959 8 11.9959C14.809 11.9959 15.125 11.9959 15.191 11.9799C15.4185 11.9362 15.6235 11.8143 15.7706 11.6353C15.9176 11.4564 15.9974 11.2315 15.996 10.9999C15.996 10.7709 15.9176 10.5488 15.7739 10.3705C15.6302 10.1923 15.4298 10.0685 15.206 10.0199L15.136 10.0039H8.032C3.954 10.0039 0.902001 10.0039 0.871001 10.0079Z" fill="currentColor"/>
</svg>
