<svg width="16" height="16" viewBox="0 0 16 16" fill="none" xmlns="http://www.w3.org/2000/svg">
<g clip-path="url(#clip0_2538_31301)">
<path d="M4.871 0.00790625C4.66321 0.0352572 4.46927 0.127202 4.31657 0.270752C4.16386 0.414302 4.06012 0.602202 4.02 0.807906C4 0.901906 4 1.09791 4.02 1.19091C4.105 1.63691 4.477 1.96091 4.934 1.99591L5 2.00391L4.996 4.36691C4.996 6.54691 4.996 6.73791 4.98 6.81291C4.93895 7.10247 4.8352 7.37958 4.676 7.62491L4.164 8.34391C2.676 10.4139 0.941 12.8279 0.898 12.8939C0.641243 13.2735 0.52522 13.7308 0.57 14.1869C0.633 14.7769 0.945 15.3129 1.422 15.6449C1.66 15.8129 1.918 15.9179 2.227 15.9729L2.347 15.9959L7.937 15.9999C11.844 15.9999 13.555 15.9999 13.617 15.9919C13.73 15.9799 13.836 15.9649 13.93 15.9419C14.2985 15.8469 14.6325 15.6492 14.8931 15.3718C15.1537 15.0944 15.3302 14.7487 15.402 14.3749C15.43 14.2269 15.442 14.1089 15.434 13.9339C15.4326 13.7284 15.3953 13.5247 15.324 13.3319C15.2642 13.1829 15.1923 13.0391 15.109 12.9019C15.059 12.8279 13.32 10.4059 11.836 8.34391C11.324 7.63291 11.296 7.58991 11.226 7.46091C11.1231 7.26572 11.0544 7.05432 11.023 6.83591L11.003 6.73791V4.37091L11 2.00391L11.066 1.99591C11.2863 1.98127 11.4954 1.89402 11.6608 1.74782C11.8262 1.60162 11.9385 1.40471 11.98 1.18791C12 1.09791 12 0.901906 11.98 0.812906C11.9432 0.619437 11.8503 0.441072 11.7129 0.300053C11.5754 0.159035 11.3995 0.0616024 11.207 0.0199062L11.137 0.00390625H8.03C6.26 0.00390625 4.902 0.00390625 4.871 0.00790625ZM9.004 4.40191C9.004 7.02291 9.004 6.85491 9.047 7.14091C9.14691 7.78263 9.40006 8.39082 9.785 8.91391L9.844 8.99591L8.922 8.99991H7.078L6.156 8.99591L6.215 8.91391C6.67568 8.28931 6.94556 7.54463 6.992 6.76991C6.996 6.68791 7 5.83191 7 4.32391V1.99991H9L9.004 4.40191ZM10.762 11.0229C10.992 11.0659 11.195 11.1529 11.382 11.2849C11.5459 11.4045 11.6839 11.556 11.7877 11.7302C11.8915 11.9045 11.959 12.098 11.9861 12.299C12.0132 12.5001 11.9993 12.7045 11.9453 12.9001C11.8914 13.0956 11.7984 13.2782 11.672 13.4369C11.602 13.5229 11.469 13.6519 11.382 13.7149C10.984 13.9999 10.484 14.0749 10.02 13.9219C9.71348 13.819 9.44867 13.6194 9.26544 13.353C9.0822 13.0866 8.99045 12.7679 9.004 12.4449C9.016 12.0699 9.156 11.7379 9.41 11.4689C9.66 11.2069 9.969 11.0549 10.336 11.0079C10.43 10.9959 10.664 11.0039 10.762 11.0229Z" fill="currentColor"/>
</g>
<defs>
<clipPath id="clip0_2538_31301">
<rect width="16" height="16" fill="white"/>
</clipPath>
</defs>
</svg>
