<svg width="16" height="16" viewBox="0 0 16 16" fill="none" xmlns="http://www.w3.org/2000/svg">
<path d="M7.645 0.00792429C6.9351 0.0389021 6.23239 0.163307 5.555 0.377924C4.715 0.647924 3.902 1.06592 3.191 1.60192C2.19865 2.34691 1.39384 3.31318 0.840571 4.42388C0.287305 5.53458 0.000853145 6.75906 0.00400112 7.99992C-0.00080554 9.49011 0.412428 10.9518 1.19676 12.2189C1.98108 13.4859 3.10506 14.5077 4.441 15.1679C4.77 15.3279 5.023 15.4379 5.344 15.5509C6.73102 16.0325 8.2228 16.1282 9.66 15.8279C11.3522 15.47 12.8829 14.5736 14.023 13.2729C15.0658 12.0793 15.7306 10.6029 15.933 9.03092C15.98 8.65592 15.996 8.41092 15.996 7.99992C15.996 7.58992 15.98 7.34392 15.934 6.96892C15.6729 4.94735 14.65 3.1017 13.074 1.80892C11.7905 0.754164 10.2087 0.128164 8.551 0.0189243C8.348 0.00492429 7.832 -0.00107571 7.645 0.00792429ZM8.496 2.01992C9.38247 2.09108 10.2419 2.35906 11.0117 2.80434C11.7815 3.24961 12.4423 3.86099 12.946 4.59392C13.8303 5.88198 14.1788 7.46348 13.918 9.00392C13.7395 10.0694 13.2759 11.0666 12.5764 11.8899C11.877 12.7132 10.9676 13.3317 9.945 13.6799C9.012 13.9999 7.985 14.0819 6.996 13.9179C5.7673 13.7127 4.63364 13.128 3.754 12.2459C3.14447 11.6396 2.67395 10.908 2.375 10.1019C2.1762 9.5659 2.05498 9.00423 2.015 8.43392C1.99935 8.1448 1.99935 7.85505 2.015 7.56592C2.07549 6.70719 2.32027 5.87156 2.7327 5.11592C3.14512 4.36027 3.71549 3.70235 4.405 3.18692C5.31248 2.51122 6.39291 2.10658 7.521 2.01992C7.743 2.00392 7.755 1.99992 8.067 2.00392C8.243 2.00792 8.41 2.01192 8.496 2.01992Z" fill="currentColor"/>
<path d="M7.871 4.00792C7.441 4.06592 7.105 4.38692 7.02 4.80792C7.004 4.87492 7.004 4.97292 7.004 6.49992C7.004 8.02692 7.004 8.12492 7.02 8.19092C7.09 8.54292 7.344 8.83192 7.68 8.94492C7.797 8.98492 7.867 8.99592 8 8.99592C8.11154 9.00058 8.22292 8.9836 8.328 8.94592C8.668 8.82393 8.902 8.55092 8.98 8.18792C8.996 8.12492 8.996 8.03492 8.996 6.49992C8.996 4.69992 9 4.84392 8.946 4.67592C8.88863 4.51092 8.78932 4.36367 8.65782 4.24866C8.52633 4.13365 8.36718 4.05482 8.196 4.01992C8.08841 4.00431 7.97945 4.00029 7.871 4.00792ZM7.871 10.0079C7.68711 10.033 7.51367 10.1082 7.36972 10.2253C7.22577 10.3424 7.11688 10.497 7.055 10.6719C7.0173 10.777 6.99999 10.8883 7.004 10.9999C7.004 11.1369 7.016 11.2149 7.054 11.3279C7.16 11.6179 7.391 11.8479 7.68 11.9449C7.797 11.9849 7.867 11.9959 8 11.9959C8.11154 12.0006 8.22292 11.9836 8.328 11.9459C8.55516 11.8676 8.74632 11.7098 8.86616 11.5015C8.986 11.2933 9.02644 11.0487 8.98 10.8129C8.94327 10.6175 8.84888 10.4375 8.70897 10.2962C8.56907 10.1548 8.39006 10.0586 8.195 10.0199C8.08774 10.0044 7.97912 10.0004 7.871 10.0079Z" fill="currentColor"/>
</svg>
