<svg width="16" height="16" viewBox="0 0 16 16" fill="none" xmlns="http://www.w3.org/2000/svg">
<g clip-path="url(#clip0_2538_32161)">
<path d="M2.824 0.00390625C2.20342 0.0414267 1.60977 0.270638 1.125 0.659906C1 0.757906 0.758002 0.999906 0.660002 1.12491C0.297002 1.58191 0.0900016 2.08191 0.0200016 2.67191C0.00400162 2.78191 0.00400162 3.04291 0.00400162 7.99591C0.00400162 12.9919 0.00400162 13.2109 0.0200016 13.3279C0.0590016 13.6839 0.152002 14.0079 0.305002 14.3159C0.52655 14.7695 0.858998 15.1598 1.27154 15.4507C1.68409 15.7415 2.16338 15.9236 2.665 15.9799C2.754 15.9959 3.109 15.9959 7.915 15.9999C13.172 15.9999 13.191 15.9999 13.402 15.9729C14.0428 15.8874 14.6382 15.5953 15.098 15.1409C15.5403 14.7109 15.8378 14.1537 15.949 13.5469C15.996 13.2809 15.996 13.3279 15.996 12.0509C15.996 11.1409 15.992 10.8749 15.984 10.8359C15.9514 10.6304 15.8532 10.441 15.704 10.2959C15.6139 10.2004 15.5045 10.125 15.3832 10.0747C15.2619 10.0243 15.1313 10.0002 15 10.0039C14.8688 10.0009 14.7385 10.0254 14.6174 10.0758C14.4963 10.1263 14.3872 10.2016 14.297 10.2969C14.1558 10.4347 14.0593 10.6116 14.02 10.8049C14.008 10.8589 14.004 10.9529 14 12.0039C13.996 13.0389 13.992 13.1479 13.98 13.1989C13.934 13.4059 13.84 13.5699 13.707 13.7069C13.5658 13.8427 13.3901 13.9371 13.199 13.9799C13.149 13.9959 12.836 13.9959 8.035 13.9959C2.383 13.9999 2.855 14.0039 2.691 13.9489C2.53982 13.9 2.40251 13.8156 2.2905 13.7029C2.17849 13.5902 2.09501 13.4524 2.047 13.3009C1.997 13.1409 2 13.5779 2.004 7.96491C2.004 3.16491 2.004 2.85191 2.02 2.80091C2.07 2.59391 2.156 2.42991 2.293 2.29291C2.43 2.15591 2.593 2.06591 2.801 2.01991C2.851 2.00791 2.961 2.00391 3.996 1.99991C5.046 1.99591 5.141 1.99191 5.196 1.97991C5.38891 1.94038 5.56553 1.84389 5.703 1.70291C5.79829 1.61273 5.87359 1.50357 5.92406 1.38248C5.97453 1.26139 5.99904 1.13106 5.996 0.999906C5.99904 0.868753 5.97453 0.738422 5.92406 0.61733C5.87359 0.496239 5.79829 0.38708 5.703 0.296906C5.56526 0.155749 5.38827 0.0592421 5.195 0.0199062C5.141 0.00390625 5.06 0.00390625 4 0.00390625H2.824Z" fill="currentColor"/>
<path d="M8.754 1.01991C8.56516 1.05213 8.38992 1.13906 8.25 1.26991C8.10367 1.40793 8.0005 1.58543 7.953 1.78091C7.93568 1.85525 7.92895 1.93168 7.933 2.00791C7.933 2.10191 7.938 2.16791 7.945 2.19891C7.973 2.33191 8.027 2.45691 8.102 2.56991C8.132 2.61291 8.297 2.78091 8.738 3.22691L9.332 3.81991L6.93 6.22691C4.68 8.47691 4.523 8.63291 4.473 8.70691C4.36022 8.87123 4.30149 9.06663 4.305 9.26591C4.305 9.47591 4.355 9.65191 4.473 9.83191C4.527 9.90991 6.039 11.4259 6.133 11.4919C6.26042 11.5841 6.40797 11.6446 6.56344 11.6685C6.71891 11.6923 6.87782 11.6787 7.027 11.6289C7.125 11.5979 7.184 11.5659 7.273 11.5119C7.332 11.4719 7.645 11.1639 9.75 9.05891L12.16 6.64891L12.75 7.23891C13.11 7.60191 13.363 7.84791 13.406 7.87891C13.52 7.96491 13.668 8.03091 13.809 8.05891C13.9728 8.08921 14.1416 8.0786 14.3004 8.02801C14.4591 7.97742 14.6029 7.88842 14.719 7.76891C14.8557 7.63208 14.9468 7.45643 14.98 7.26591C14.996 7.20291 14.996 7.05491 14.996 4.54591C14.996 1.65591 15 1.85591 14.953 1.70291C14.9054 1.55344 14.8233 1.41726 14.7133 1.30539C14.6034 1.19351 14.4686 1.10908 14.32 1.05891C14.156 1.00391 14.375 1.00791 11.453 1.00791C9.273 1.00791 8.806 1.01191 8.754 1.01991Z" fill="currentColor"/>
</g>
<defs>
<clipPath id="clip0_2538_32161">
<rect width="16" height="16" fill="white"/>
</clipPath>
</defs>
</svg>
