<svg width="16" height="16" viewBox="0 0 16 16" fill="none" xmlns="http://www.w3.org/2000/svg">
<path d="M7.66 2.00792C6.164 2.08192 4.566 2.64492 3.14 3.59792C1.91 4.42192 0.919001 5.47692 0.396001 6.52292C0.195001 6.92192 0.0700011 7.31592 0.0200011 7.69992C1.06823e-06 7.83992 1.06823e-06 8.16092 0.0200011 8.30192C0.113001 9.02392 0.480001 9.78592 1.105 10.5669C1.898 11.5559 3.027 12.4419 4.277 13.0629C5.414 13.6259 6.555 13.9389 7.687 13.9929C9.257 14.0669 10.997 13.5709 12.562 12.5949C14.372 11.4699 15.692 9.87192 15.953 8.48492C15.9858 8.32543 16.0003 8.1627 15.996 7.99992C15.996 7.79292 15.988 7.69992 15.953 7.51592C15.8816 7.17094 15.7645 6.83701 15.605 6.52292C14.789 4.89492 12.883 3.31292 10.805 2.53492C9.73 2.13692 8.675 1.96092 7.66 2.00792ZM8.258 4.00792C9.17598 4.06724 10.0455 4.44114 10.72 5.06664C11.3945 5.69214 11.8328 6.53101 11.961 7.44192C11.988 7.65192 11.996 7.74192 11.996 7.99992C11.996 8.25792 11.988 8.34792 11.961 8.55892C11.848 9.36367 11.4924 10.1149 10.9416 10.7124C10.3909 11.31 9.67109 11.7255 8.8782 11.9036C8.08531 12.0818 7.25696 12.014 6.50353 11.7095C5.75011 11.4049 5.10738 10.878 4.661 10.1989C4.30875 9.66502 4.08974 9.0544 4.02236 8.41833C3.95498 7.78225 4.0412 7.1393 4.27378 6.54345C4.50636 5.9476 4.87851 5.41625 5.35898 4.99402C5.83944 4.57179 6.41421 4.27101 7.035 4.11692C7.27 4.05892 7.508 4.02292 7.781 4.00392C7.94 3.99944 8.0991 4.00078 8.258 4.00792Z" fill="currentColor"/>
<path d="M7.816 6.00792C7.426 6.04692 7.063 6.19492 6.754 6.43392C6.672 6.49992 6.473 6.70392 6.41 6.78892C6.2 7.06992 6.066 7.38692 6.02 7.72992C6 7.87092 6 8.12892 6.02 8.26992C6.066 8.61292 6.2 8.93392 6.41 9.20992C6.48 9.30492 6.633 9.45992 6.73 9.54292C7.336 10.0429 8.184 10.1409 8.883 9.79292C9.102 9.68292 9.234 9.58992 9.41 9.40992C9.59 9.22992 9.684 9.09792 9.793 8.87892C9.863 8.73892 9.895 8.64892 9.933 8.50792C9.97927 8.34267 10.0008 8.17148 9.997 7.99992C9.99787 7.56457 9.85674 7.14081 9.595 6.79292C9.48036 6.65286 9.35206 6.52456 9.212 6.40992C8.94283 6.20678 8.62736 6.07379 8.294 6.02292C8.13587 6.00242 7.97511 5.9974 7.816 6.00792Z" fill="currentColor"/>
</svg>
