<svg width="16" height="16" viewBox="0 0 16 16" fill="none" xmlns="http://www.w3.org/2000/svg">
<g clip-path="url(#clip0_2538_32925)">
<path d="M4.34 4.0079C4.06823 4.03822 3.8098 4.14178 3.59229 4.30751C3.37478 4.47324 3.20636 4.69492 3.105 4.9489L3.075 5.0269L2.98 5.0469C2.72413 5.10255 2.48175 5.20813 2.26674 5.35759C2.05173 5.50705 1.86832 5.69745 1.727 5.9179C1.707 5.9489 1.461 6.3779 1.18 6.8749C0.895001 7.3709 0.633001 7.8319 0.594001 7.8979C0.275116 8.41865 0.078833 9.00511 0.0200011 9.6129C1.06823e-06 9.7929 1.06823e-06 10.2029 0.0200011 10.3869C0.105001 11.2269 0.430001 11.9799 0.965001 12.6089C1.60607 13.3513 2.49681 13.8334 3.469 13.9639C3.723 13.9959 4.121 14.0079 4.339 13.9839C4.94347 13.933 5.52867 13.7464 6.051 13.4379C6.91874 12.919 7.55789 12.0908 7.84 11.1199L7.875 11.0029H8.125L8.16 11.1199C8.316 11.6599 8.594 12.1749 8.965 12.6079C9.063 12.7259 9.277 12.9369 9.391 13.0339C9.93 13.4949 10.582 13.8039 11.273 13.9329C11.531 13.9789 11.711 13.9949 12 13.9949C12.29 13.9949 12.469 13.9789 12.727 13.9329C13.2904 13.8295 13.825 13.6061 14.2945 13.278C14.7641 12.9498 15.1575 12.5246 15.4483 12.031C15.7391 11.5375 15.9204 10.9872 15.9798 10.4174C16.0393 9.84771 15.9756 9.27185 15.793 8.7289C15.6972 8.44955 15.5743 8.18026 15.426 7.9249C15.386 7.8659 15.113 7.3939 14.809 6.8779C14.508 6.3619 14.246 5.9169 14.227 5.8859C13.9411 5.46253 13.505 5.16367 13.007 5.0499C12.965 5.0379 12.926 5.0299 12.926 5.0299C12.926 5.0259 12.914 4.9989 12.902 4.9679C12.8125 4.73137 12.6646 4.52133 12.4721 4.35732C12.2796 4.19332 12.0487 4.08068 11.801 4.0299C11.6648 4.00271 11.5254 3.99497 11.387 4.0069C11.187 4.0219 11.023 4.0649 10.852 4.1469C10.508 4.3149 10.246 4.5969 10.102 4.9519L10.086 4.9999H5.914L5.898 4.9529C5.87685 4.90879 5.85618 4.86446 5.836 4.8199C5.69862 4.54863 5.48188 4.32564 5.21464 4.18058C4.9474 4.03553 4.64232 3.9753 4.34 4.0079ZM4.184 8.0079C4.45145 8.0322 4.71127 8.11006 4.94801 8.23685C5.18474 8.36363 5.39355 8.53675 5.562 8.7459C5.684 8.9019 5.812 9.1289 5.879 9.3089C5.918 9.4099 5.965 9.5979 5.98 9.7149C5.992 9.7849 5.996 9.8549 5.996 9.9999C5.996 10.2189 5.984 10.3089 5.937 10.4959C5.81816 10.9757 5.52241 11.3929 5.109 11.6639C4.85267 11.8354 4.55996 11.945 4.254 11.9839C4.144 11.9999 3.832 11.9999 3.714 11.9799C3.57611 11.9591 3.44051 11.9253 3.309 11.8789C3.10732 11.8007 2.91777 11.6943 2.746 11.5629C2.63374 11.4696 2.53061 11.3658 2.438 11.2529C2.20922 10.964 2.06334 10.6183 2.016 10.2529C2.00043 10.0843 2.00043 9.91454 2.016 9.7459C2.07 9.3669 2.207 9.0359 2.437 8.7459C2.64528 8.48924 2.91345 8.2877 3.2179 8.15901C3.52236 8.03032 3.85478 7.97843 4.184 8.0079ZM12.184 8.0079C12.4516 8.03207 12.7116 8.10987 12.9486 8.23666C13.1855 8.36345 13.3944 8.53664 13.563 8.7459C13.683 8.9019 13.813 9.1289 13.879 9.3089C13.918 9.4099 13.965 9.5979 13.98 9.7149C13.992 9.7849 13.996 9.8549 13.996 9.9999C13.996 10.2189 13.984 10.3089 13.937 10.4959C13.8182 10.9757 13.5224 11.3929 13.109 11.6639C12.8527 11.8354 12.56 11.945 12.254 11.9839C12.144 11.9999 11.832 11.9999 11.714 11.9799C11.5761 11.9591 11.4405 11.9253 11.309 11.8789C11.1073 11.8007 10.9178 11.6943 10.746 11.5629C10.6334 11.4696 10.5299 11.3658 10.437 11.2529C10.242 11.0031 10.106 10.7126 10.039 10.4029C10.012 10.2703 10.0002 10.1351 10.004 9.9999C10.004 9.8119 10.012 9.7459 10.039 9.5979C10.102 9.2969 10.242 8.9959 10.438 8.7459C10.5 8.6639 10.664 8.4999 10.746 8.4369C11.1522 8.11392 11.6672 7.95991 12.184 8.0069V8.0079Z" fill="currentColor"/>
</g>
<defs>
<clipPath id="clip0_2538_32925">
<rect width="16" height="16" fill="white"/>
</clipPath>
</defs>
</svg>
