<svg width="16" height="16" viewBox="0 0 16 16" fill="none" xmlns="http://www.w3.org/2000/svg">
<path d="M3.43 0.00795313C2.95914 0.0528682 2.5192 0.2624 2.18759 0.599685C1.85597 0.936969 1.65393 1.3804 1.617 1.85195C1.586 2.20295 1.668 2.60495 1.844 2.93395C1.864 2.96895 2.738 4.37095 3.793 6.05395C4.44872 7.09813 5.10205 8.1438 5.753 9.19095C5.859 9.38295 5.941 9.61695 5.98 9.87495C5.996 9.94895 5.996 10.152 6 12.344C6.004 14.938 6 14.738 6.043 14.883C6.09509 15.0479 6.18908 15.1966 6.31581 15.3144C6.44254 15.4322 6.59765 15.5151 6.766 15.555C6.934 15.598 7.129 15.594 7.296 15.543C7.391 15.512 7.508 15.453 7.586 15.395C7.629 15.363 7.976 15.02 8.59 14.406C9.383 13.613 9.54 13.449 9.594 13.375C9.774 13.133 9.891 12.879 9.954 12.594C9.996 12.394 9.996 12.457 10 11.156C10.004 9.83595 10.004 9.92595 10.05 9.70295C10.09 9.52695 10.168 9.32795 10.258 9.17595C10.285 9.12495 11.164 7.71895 12.207 6.05495C13.25 4.39095 14.121 2.99195 14.145 2.95295C14.391 2.49995 14.453 2.00295 14.325 1.50295C14.2926 1.37012 14.2439 1.24181 14.18 1.12095C14.0879 0.930061 13.965 0.755709 13.816 0.604953C13.4853 0.257811 13.038 0.0451806 12.56 0.00795313C12.445 -4.68753e-05 3.543 -4.68753e-05 3.429 0.00795313H3.43ZM10.203 2.01995C10.5 2.08995 10.727 2.25795 10.871 2.50795C11.066 2.84795 11.039 3.28095 10.805 3.59795C10.6547 3.79497 10.4379 3.93071 10.195 3.97995C10.133 3.99595 10.031 3.99595 8 3.99595C5.969 3.99595 5.867 3.99595 5.805 3.97995C5.61146 3.9408 5.43376 3.84545 5.29413 3.70582C5.15451 3.56619 5.05915 3.38849 5.02 3.19495C5.00054 3.06568 5.00054 2.93422 5.02 2.80495C5.11 2.38695 5.43 2.07795 5.848 2.01195C5.898 2.00395 6.352 1.99995 8.028 2.00395C10.035 2.00395 10.148 2.00395 10.203 2.01995Z" fill="currentColor"/>
</svg>
