<svg width="16" height="16" viewBox="0 0 16 16" fill="none" xmlns="http://www.w3.org/2000/svg">
<path d="M1.871 1.00812C1.66321 1.03547 1.46927 1.12741 1.31657 1.27096C1.16387 1.41451 1.06013 1.60241 1.02 1.80812C1 1.90212 1 2.09812 1.02 2.19112C1.05888 2.38646 1.15492 2.56584 1.29593 2.70649C1.43694 2.84715 1.61656 2.94274 1.812 2.98112C1.875 2.99612 1.98 2.99612 4 2.99612C6.008 2.99612 6.125 2.99612 6.191 2.98012C6.38662 2.94187 6.56634 2.84603 6.7071 2.70491C6.84787 2.56379 6.94325 2.38383 6.981 2.18812C7 2.09812 7 1.90212 6.981 1.81212C6.94399 1.6187 6.85085 1.44046 6.71321 1.29962C6.57557 1.15877 6.39952 1.06157 6.207 1.02012L6.137 1.00412H4.03C2.839 1.00412 1.901 1.00412 1.87 1.00812H1.871ZM9.656 1.00412C9.226 1.05112 8.879 1.37112 8.786 1.80912C8.77225 1.87586 8.76688 1.94405 8.77 2.01212C8.77 2.14512 8.773 2.15612 8.797 2.24612C8.809 2.29612 8.836 2.37112 8.855 2.41012C8.875 2.45012 9.332 3.22312 9.875 4.12912C10.2186 4.69698 10.5586 5.26699 10.895 5.83912C10.9344 5.91826 10.963 6.00235 10.98 6.08912C10.992 6.13712 10.996 6.24212 11 7.04312C11.004 8.04312 11 7.96512 11.059 8.07812C11.152 8.25812 11.371 8.36812 11.579 8.33612C11.6551 8.32316 11.7271 8.29231 11.789 8.24612C11.867 8.19112 12.734 7.37112 12.781 7.30912C12.8584 7.20947 12.918 7.09714 12.957 6.97712C12.992 6.85212 12.992 6.83612 13 6.48412C13.008 6.11712 13.008 6.09812 13.055 5.95712C13.07 5.91812 13.094 5.86312 13.109 5.83212C13.125 5.80112 13.582 5.03512 14.125 4.13212C14.665 3.22712 15.117 2.46512 15.133 2.44212C15.2205 2.25861 15.2518 2.05335 15.223 1.85212C15.1904 1.63661 15.0884 1.43761 14.9325 1.2853C14.7765 1.133 14.5752 1.03568 14.359 1.00812C14.297 1.00012 9.727 0.996117 9.656 1.00412ZM1.871 5.00812C1.66321 5.03547 1.46927 5.12741 1.31657 5.27096C1.16387 5.41451 1.06013 5.60241 1.02 5.80812C1 5.90212 1 6.09812 1.02 6.19112C1.05888 6.38646 1.15492 6.56584 1.29593 6.70649C1.43694 6.84715 1.61656 6.94274 1.812 6.98112C1.875 6.99612 1.98 6.99612 4 6.99612C6.008 6.99612 6.125 6.99612 6.191 6.98012C6.38675 6.9418 6.56657 6.84582 6.70735 6.70451C6.84813 6.56319 6.94343 6.38301 6.981 6.18712C7 6.09712 7 5.90212 6.981 5.81212C6.94399 5.6187 6.85085 5.44046 6.71321 5.29962C6.57557 5.15877 6.39952 5.06157 6.207 5.02012L6.137 5.00412H4.03C2.839 5.00412 1.901 5.00412 1.87 5.00812H1.871ZM1.871 9.00812C1.449 9.06312 1.101 9.38712 1.02 9.80812C1 9.90212 1 10.0981 1.02 10.1911C1.05888 10.3865 1.15492 10.5658 1.29593 10.7065C1.43694 10.8471 1.61656 10.9427 1.812 10.9811C1.875 10.9961 2.117 10.9961 8 10.9961C13.848 10.9961 14.125 10.9961 14.191 10.9801C14.4185 10.9365 14.6235 10.8146 14.7706 10.6356C14.9176 10.4566 14.9974 10.2318 14.996 10.0001C14.996 9.77112 14.9176 9.54904 14.7739 9.37076C14.6302 9.19248 14.4298 9.06875 14.206 9.02012L14.136 9.00412H8.032C4.532 9.00412 1.902 9.00412 1.871 9.00812ZM1.871 13.0081C1.449 13.0631 1.101 13.3871 1.02 13.8081C1 13.9021 1 14.0981 1.02 14.1911C1.05888 14.3865 1.15492 14.5658 1.29593 14.7065C1.43694 14.8471 1.61656 14.9427 1.812 14.9811C1.875 14.9961 2.117 14.9961 8 14.9961C13.848 14.9961 14.125 14.9961 14.191 14.9801C14.4185 14.9365 14.6235 14.8146 14.7706 14.6356C14.9176 14.4566 14.9974 14.2318 14.996 14.0001C14.996 13.7711 14.9176 13.549 14.7739 13.3708C14.6302 13.1925 14.4298 13.0687 14.206 13.0201L14.136 13.0041H8.032C4.532 13.0041 1.902 13.0041 1.871 13.0081Z" fill="currentColor"/>
</svg>
