<svg width="16" height="16" viewBox="0 0 16 16" fill="none" xmlns="http://www.w3.org/2000/svg">
<path d="M2.04 2.00391C2.027 2.00791 1.992 2.01191 1.96 2.01591C1.79782 2.04576 1.64549 2.11506 1.51642 2.21769C1.38735 2.32032 1.28553 2.45314 1.21991 2.60442C1.1543 2.7557 1.12692 2.92081 1.14019 3.08517C1.15346 3.24953 1.20697 3.40811 1.296 3.54691C1.316 3.57391 2.043 4.45291 2.914 5.49691C3.45612 6.14364 3.99513 6.79298 4.531 7.44491C4.637 7.60491 4.695 7.79691 4.695 7.99991C4.69696 8.19772 4.63834 8.39139 4.527 8.55491C4.507 8.58491 3.781 9.46091 2.914 10.5039C2.37171 11.1484 1.83403 11.7967 1.301 12.4489C1.21206 12.5859 1.15784 12.7424 1.14303 12.9051C1.12822 13.0677 1.15327 13.2315 1.216 13.3823C1.27874 13.5331 1.37727 13.6663 1.50307 13.7704C1.62887 13.8745 1.77815 13.9464 1.938 13.9799C1.992 13.9959 2.348 13.9959 7.531 13.9999C11.481 13.9999 13.101 13.9999 13.191 13.9919C13.6385 13.9653 14.0741 13.8377 14.4652 13.6186C14.8563 13.3995 15.1926 13.0946 15.449 12.7269C15.746 12.3049 15.914 11.8629 15.98 11.3279C15.996 11.2179 15.996 11.0579 15.996 7.99991C15.996 4.94091 15.996 4.78091 15.98 4.67191C15.9186 4.10575 15.6965 3.56897 15.34 3.12491C15.1977 2.95518 15.0407 2.79825 14.871 2.65591C14.4298 2.30305 13.8975 2.08252 13.336 2.01991C13.234 2.00391 12.93 2.00391 7.645 2.00391H2.04Z" fill="currentColor"/>
</svg>
