<svg width="16" height="16" viewBox="0 0 16 16" fill="none" xmlns="http://www.w3.org/2000/svg">
<path d="M2.82 2.00406C2.20124 2.04438 1.60969 2.27332 1.125 2.66006C1 2.75806 0.758002 3.00006 0.660002 3.12506C0.297002 3.58206 0.0900016 4.08206 0.0200016 4.67206C0.00400162 4.77706 0.00400162 4.96106 0.00400162 7.99606C0.00400162 11.0551 0.00400162 11.2111 0.0200016 11.3281C0.0860016 11.9101 0.297002 12.4181 0.660002 12.8751C0.758002 12.9961 0.996002 13.2381 1.121 13.3351C1.52 13.6561 1.969 13.8591 2.457 13.9491C2.723 13.9961 2.641 13.9961 4.09 13.9961C5.578 14.0001 5.477 14.0041 5.602 13.9461L5.668 13.9141L7.98 11.5981C9.785 9.79706 10.305 9.27006 10.352 9.21106C10.6147 8.86198 10.7568 8.43694 10.7568 8.00006C10.7568 7.56318 10.6147 7.13814 10.352 6.78906C10.305 6.73006 9.785 6.20306 7.98 4.40206L5.668 2.08606L5.602 2.05506C5.48 1.99606 5.574 2.00006 4.145 2.00006C3.441 2.00406 2.844 2.00406 2.82 2.00406Z" fill="currentColor"/>
<path d="M9.512 2.01206C9.43846 2.02875 9.36963 2.06183 9.31065 2.10883C9.25167 2.15583 9.20406 2.21554 9.17138 2.2835C9.13869 2.35147 9.12177 2.42594 9.12188 2.50135C9.12199 2.57677 9.13912 2.65119 9.172 2.71906L9.203 2.78506L10.433 4.01506C11.109 4.69106 11.691 5.28106 11.727 5.32006C11.914 5.52706 12.051 5.71506 12.199 5.95706C12.273 6.08606 12.414 6.36706 12.473 6.51606C12.6791 7.03604 12.7745 7.59331 12.753 8.15225C12.7314 8.71118 12.5935 9.25947 12.348 9.76206C12.18 10.1021 11.984 10.3951 11.73 10.6761C11.691 10.7191 11.11 11.3091 10.434 11.9841L9.204 13.2141L9.172 13.2811C9.13749 13.3487 9.12128 13.4242 9.125 13.5001C9.125 13.5861 9.137 13.6481 9.175 13.7231C9.223 13.8241 9.305 13.9031 9.402 13.9491C9.516 14.0041 9.387 14.0001 11.336 14.0001C12.437 14.0001 13.136 13.9961 13.203 13.9921C13.753 13.9531 14.243 13.7821 14.691 13.4771C14.9846 13.2721 15.2409 13.0184 15.449 12.7271C15.746 12.3051 15.914 11.8631 15.98 11.3281C15.996 11.2181 15.996 11.0581 15.996 8.00006C15.996 4.94106 15.996 4.78106 15.98 4.67206C15.9186 4.1059 15.6965 3.56912 15.34 3.12506C15.1977 2.95534 15.0407 2.7984 14.871 2.65606C14.4298 2.3032 13.8975 2.08267 13.336 2.02006C13.238 2.00406 13.09 2.00406 11.398 2.00406C9.797 2.00006 9.558 2.00406 9.512 2.01206Z" fill="currentColor"/>
</svg>
