<svg width="16" height="16" viewBox="0 0 16 16" fill="none" xmlns="http://www.w3.org/2000/svg">
<path d="M2.824 2.00391C2.20357 2.04214 1.61014 2.27127 1.125 2.65991C1 2.75791 0.758002 2.99991 0.660002 3.12491C0.297002 3.58191 0.0900016 4.08191 0.0200016 4.67191C0.00400162 4.77691 0.00400162 4.96091 0.00400162 7.99591C0.00400162 11.0549 0.00400162 11.2109 0.0200016 11.3279C0.0980016 12.0079 0.383002 12.6089 0.848002 13.0859C1.348 13.5979 1.945 13.8909 2.672 13.9799C2.782 13.9959 2.969 13.9959 6.742 13.9959C9.914 13.9959 10.711 13.9919 10.75 13.9839C10.8886 13.9622 11.0207 13.9103 11.137 13.8319C11.199 13.7929 11.414 13.5819 13.113 11.8789C14.586 10.4059 15.039 9.95291 15.093 9.87891C15.454 9.43393 15.678 8.89374 15.738 8.32391C15.7816 7.92396 15.7442 7.51933 15.628 7.13415C15.5119 6.74897 15.3194 6.39111 15.062 6.08191C15.004 6.01191 14.372 5.37491 13.09 4.09391C11.07 2.07791 11.176 2.17991 11.023 2.10191C10.9454 2.06635 10.8643 2.03887 10.781 2.01991C10.727 2.00391 10.547 2.00391 6.793 2.00391H2.824Z" fill="currentColor"/>
</svg>
