<svg width="16" height="16" viewBox="0 0 16 16" fill="none" xmlns="http://www.w3.org/2000/svg">
<g clip-path="url(#clip0_2538_36644)">
<path d="M2.824 0.00390625C2.20341 0.0414267 1.60977 0.270638 1.125 0.659906C1 0.757906 0.758 0.999906 0.66 1.12491C0.3 1.57791 0.094 2.06991 0.02 2.66491C0.004 2.76191 0.004 2.95291 0 5.56191V8.35191L0.055 8.29291C0.505825 7.80363 1.07056 7.43332 1.699 7.21491C2.03606 7.10037 2.38675 7.03077 2.742 7.00791C2.902 6.99591 13.098 6.99591 13.258 7.00791C14.104 7.06288 14.9109 7.38423 15.563 7.92591C15.653 8.00391 15.871 8.20691 15.879 8.22291C15.883 8.22691 15.914 8.25791 15.945 8.29291L16 8.35191L15.996 7.55891C15.996 6.69491 15.996 6.71091 15.949 6.45691C15.8588 5.96936 15.6492 5.51174 15.339 5.12491C15.197 4.95523 15.0404 4.7983 14.871 4.65591C14.4294 4.30371 13.8973 4.08327 13.336 4.01991C13.242 4.00791 13.094 4.00391 11.906 3.99991C10.586 3.99591 10.582 3.99591 10.476 3.97691C10.1252 3.92677 9.79207 3.79109 9.50607 3.58182C9.22006 3.37254 8.98994 3.09612 8.836 2.77691C8.75776 2.62198 8.69866 2.45811 8.66 2.28891C8.55742 1.86113 8.35988 1.46193 8.082 1.12091C7.6321 0.560638 6.9957 0.18086 6.289 0.0509062C6.023 0.00390625 6.137 0.00390625 4.426 0.00390625H2.824Z" fill="currentColor"/>
<path d="M2.828 8.00391C2.1969 8.03937 1.59346 8.27472 1.105 8.67591C0.992 8.76591 0.75 9.01191 0.652 9.13291C0.342669 9.5227 0.134801 9.9831 0.047 10.4729C0.004 10.7189 0.004 10.6829 0.004 11.9999C0.004 13.3159 0.004 13.2809 0.047 13.5269C0.137 14.0199 0.34 14.4729 0.66 14.8749C0.758 14.9999 1 15.2419 1.129 15.3439C1.582 15.7039 2.086 15.9099 2.672 15.9799C2.782 15.9959 3.043 15.9959 7.996 15.9959C12.992 15.9959 13.211 15.9959 13.328 15.9799C13.9964 15.9093 14.6207 15.613 15.098 15.1399C15.5764 14.6751 15.8845 14.063 15.973 13.4019C16 13.2029 16 13.0819 16 11.9179C15.996 10.8869 15.992 10.7579 15.98 10.6639C15.9167 10.1006 15.6948 9.56693 15.34 9.12491C15.1993 8.95753 15.0452 8.802 14.879 8.65991C14.4005 8.27828 13.8175 8.05092 13.207 8.00791C13.133 8.00391 11.422 7.99991 7.98 7.99991C5.168 8.00391 2.848 8.00391 2.828 8.00391ZM9.703 11.0199C10 11.0899 10.227 11.2579 10.371 11.5079C10.566 11.8479 10.539 12.2809 10.305 12.5979C10.1547 12.7949 9.93789 12.9307 9.695 12.9799C9.633 12.9959 9.547 12.9959 8 12.9959C6.453 12.9959 6.367 12.9959 6.305 12.9799C6.11146 12.9408 5.93376 12.8454 5.79413 12.7058C5.65451 12.5661 5.55915 12.3884 5.52 12.1949C5.50054 12.0656 5.50054 11.9342 5.52 11.8049C5.61 11.3869 5.93 11.0779 6.348 11.0119C6.398 11.0039 6.754 10.9999 8.028 11.0039C9.551 11.0039 9.648 11.0039 9.703 11.0199Z" fill="currentColor"/>
</g>
<defs>
<clipPath id="clip0_2538_36644">
<rect width="16" height="16" fill="white"/>
</clipPath>
</defs>
</svg>
