<svg width="16" height="16" viewBox="0 0 16 16" fill="none" xmlns="http://www.w3.org/2000/svg">
<g clip-path="url(#clip0_4791_7748)">
<path d="M2.8 0.00795313C2.25873 0.0460817 1.73745 0.228012 1.29 0.534953C1.094 0.674953 0.844 0.901953 0.691 1.08495C0.281795 1.58009 0.0423781 2.19353 0.00799967 2.83495C-0.00400033 3.05495 -3.28757e-07 13.203 0.0159997 13.305C0.0619997 13.675 0.145 13.977 0.286 14.27C0.43 14.582 0.606 14.836 0.844 15.082C1.086 15.332 1.328 15.512 1.629 15.664C1.961 15.836 2.273 15.93 2.668 15.98C2.762 15.996 3.121 15.996 7.895 15.996C11.504 16 13.063 16 13.165 15.992C13.5812 15.9715 13.9883 15.8624 14.359 15.672C14.649 15.523 14.879 15.355 15.117 15.117C15.6044 14.635 15.9094 13.9988 15.98 13.317C15.996 13.203 15.996 13.039 15.996 10.007C15.996 6.61695 15.996 6.75695 15.961 6.52695C15.8875 6.08318 15.7182 5.66073 15.465 5.28895C15.2937 5.0544 15.0942 4.84181 14.871 4.65595C14.4294 4.30376 13.8973 4.08331 13.336 4.01995C13.242 4.00795 13.09 4.00395 11.84 3.99995C10.324 3.99595 10.414 3.99595 10.207 3.94995C9.71528 3.83825 9.28406 3.54458 9 3.12795C8.84 2.89795 8.762 2.71395 8.68 2.36995C8.62752 2.12941 8.54627 1.89607 8.438 1.67495C8.20267 1.20068 7.84643 0.796848 7.40523 0.504176C6.96403 0.211505 6.45346 0.0403433 5.925 0.00795313C5.786 -4.68753e-05 2.949 -4.68753e-05 2.8 0.00795313ZM8.21 5.02295C8.39186 5.06076 8.5589 5.15036 8.691 5.28095C8.84493 5.42704 8.94768 5.61886 8.984 5.82795C9 5.89795 9 5.92995 9 6.94995V7.99995H10.05C11.066 7.99995 11.102 7.99995 11.176 8.01595C11.586 8.09795 11.875 8.37895 11.98 8.78895C12 8.87895 12.004 9.10195 11.98 9.19895C11.9384 9.39095 11.8421 9.56682 11.7028 9.70539C11.5636 9.84395 11.3872 9.9393 11.195 9.97995C11.141 9.99595 11.062 9.99595 10.07 9.99595L9 9.99995V12.094L8.98 12.188C8.95339 12.3266 8.89763 12.458 8.81642 12.5735C8.7352 12.689 8.63039 12.7859 8.50891 12.8579C8.38742 12.9298 8.25205 12.9751 8.11174 12.9908C7.97142 13.0065 7.82938 12.9923 7.695 12.949C7.51759 12.8918 7.35966 12.7863 7.23899 12.6442C7.11832 12.5022 7.03971 12.3293 7.012 12.145C7 12.085 7 11.91 7 11.035V9.99995H5.965C4.84 9.99995 4.867 9.99995 4.715 9.95695C4.53976 9.90453 4.38229 9.805 4.25973 9.66922C4.13718 9.53344 4.05425 9.36663 4.02 9.18695C3.97014 8.93025 4.02283 8.66422 4.16676 8.44589C4.31069 8.22756 4.53442 8.0743 4.79 8.01895C4.855 8.00395 4.867 8.00395 5.93 8.00395L7 7.99995V6.95695C7 5.95695 7 5.91395 7.016 5.83195C7.04979 5.6247 7.14861 5.43356 7.29817 5.28616C7.44772 5.13876 7.64028 5.04273 7.848 5.01195C7.9689 4.99807 8.09117 5.00178 8.211 5.02295H8.21Z" fill="currentColor"/>
<path d="M9.242 1.05495C9.301 1.15595 9.41 1.39095 9.461 1.51195C9.543 1.72195 9.594 1.89095 9.656 2.14495C9.719 2.41795 9.786 2.54295 9.946 2.70295C10.0835 2.84394 10.2601 2.94043 10.453 2.97995C10.508 2.99595 10.609 2.99595 11.898 2.99995C12.906 3.00395 13.308 3.00795 13.371 3.01595C13.911 3.07395 14.344 3.19895 14.793 3.42595C14.879 3.46895 14.953 3.50395 14.953 3.50795C14.9484 3.43371 14.9353 3.36024 14.914 3.28895C14.8096 2.86383 14.6137 2.4666 14.34 2.12495C14.1977 1.95523 14.0407 1.7983 13.871 1.65595C13.4298 1.30309 12.8975 1.08257 12.336 1.01995C12.238 1.00395 12.098 1.00395 10.723 1.00395L9.21 0.999953L9.242 1.05495Z" fill="currentColor"/>
</g>
<defs>
<clipPath id="clip0_4791_7748">
<rect width="16" height="16" fill="white"/>
</clipPath>
</defs>
</svg>
