<svg width="16" height="16" viewBox="0 0 16 16" fill="none" xmlns="http://www.w3.org/2000/svg">
<path d="M2.844 2.01212C2.64249 2.04527 2.4558 2.13884 2.30866 2.28045C2.16151 2.42206 2.06085 2.60503 2.02 2.80512C2.00054 2.93439 2.00054 3.06584 2.02 3.19512C2.074 3.46112 2.23 3.68812 2.45 3.83512C2.48 3.85512 4.363 4.80112 6.633 5.93412C8.00993 6.61893 9.38494 7.30759 10.758 8.00012C10.758 8.00412 8.902 8.93412 6.633 10.0661C5.23619 10.7612 3.84152 11.4605 2.449 12.1641C2.269 12.2851 2.129 12.4641 2.055 12.6721C2.01699 12.7771 1.99967 12.8885 2.004 13.0001C2.004 13.0941 2.008 13.1451 2.02 13.1951C2.04781 13.3334 2.10455 13.4642 2.18649 13.579C2.26843 13.6937 2.37372 13.7899 2.49546 13.8611C2.61719 13.9323 2.7526 13.977 2.89281 13.9921C3.03302 14.0073 3.17486 13.9926 3.309 13.9491C3.414 13.9141 13.504 8.87112 13.579 8.81612C13.801 8.65212 13.949 8.41012 13.989 8.14812C14.0157 7.96528 13.9915 7.77864 13.9192 7.60861C13.8469 7.43858 13.7292 7.29172 13.579 7.18412C13.504 7.12912 3.414 2.08612 3.309 2.05112C3.15908 2.00252 3.00002 1.98884 2.844 2.01112V2.01212Z" fill="currentColor"/>
</svg>
