<svg width="16" height="16" viewBox="0 0 16 16" fill="none" xmlns="http://www.w3.org/2000/svg">
<g clip-path="url(#clip0_2538_37310)">
<path d="M0.844 0.0120404C0.64249 0.045191 0.455803 0.138766 0.308657 0.280376C0.161512 0.421986 0.0608495 0.604949 0.0199997 0.80504C0.00054016 0.934312 0.00054016 1.06577 0.0199997 1.19504C0.0739997 1.46104 0.23 1.68704 0.45 1.83504C0.48 1.85504 3.262 3.25004 6.633 4.93404C8.67612 5.95312 10.7178 6.97513 12.758 8.00004C12.758 8.00404 10 9.38304 6.633 11.066C4.56951 12.0944 2.50817 13.1271 0.449 14.164C0.227604 14.313 0.0732753 14.5427 0.0189997 14.804C-0.000560327 14.9336 -0.000560327 15.0654 0.0189997 15.195C0.0467863 15.3334 0.10355 15.4643 0.185557 15.5792C0.267564 15.6941 0.372958 15.7903 0.494808 15.8615C0.616658 15.9327 0.752204 15.9773 0.892533 15.9924C1.03286 16.0075 1.1748 15.9927 1.309 15.949C1.418 15.914 15.504 8.87104 15.579 8.81604C15.801 8.65204 15.949 8.41004 15.989 8.14804C16.0157 7.96521 15.9915 7.77856 15.9192 7.60853C15.8469 7.4385 15.7292 7.29165 15.579 7.18404C15.503 7.12904 1.417 0.0860404 1.308 0.0500404C1.15839 0.00159582 0.999696 -0.0120845 0.844 0.0100404V0.0120404Z" fill="currentColor"/>
</g>
<defs>
<clipPath id="clip0_2538_37310">
<rect width="16" height="16" fill="white"/>
</clipPath>
</defs>
</svg>
