<svg width="16" height="16" viewBox="0 0 16 16" fill="none" xmlns="http://www.w3.org/2000/svg">
<g clip-path="url(#clip0_2538_37500)">
<path d="M2.82 0.00390625C2.20109 0.0435278 1.60933 0.272548 1.125 0.659906C1 0.757906 0.758002 0.999906 0.660002 1.12491C0.297002 1.58191 0.0900016 2.08191 0.0200016 2.67191C0.00400162 2.77691 0.00400162 2.94191 0.00400162 5.49591C0.00400162 8.07391 0.00400162 8.21491 0.0200016 8.32791C0.0980016 9.00791 0.383002 9.60891 0.848002 10.0859C1.297 10.5429 1.84 10.8359 2.457 10.9489C2.719 10.9959 2.66 10.9959 3.879 10.9959L5 10.9999L5.004 12.1169C5.004 13.3319 5.004 13.2929 5.051 13.5469C5.164 14.1369 5.434 14.6599 5.848 15.0859C6.297 15.5429 6.84 15.8359 7.457 15.9489C7.73 15.9999 7.497 15.9959 10.414 15.9999C13.114 15.9999 13.195 15.9999 13.402 15.9729C13.8647 15.9102 14.3065 15.7404 14.692 15.4769C14.9852 15.2719 15.2412 15.0182 15.449 14.7269C15.746 14.3049 15.914 13.8629 15.98 13.3279C15.996 13.2229 15.996 13.0739 15.996 10.4999C15.996 7.92591 15.996 7.77691 15.98 7.67191C15.9186 7.10575 15.6965 6.56897 15.34 6.12491C15.1977 5.95518 15.0407 5.79825 14.871 5.65591C14.4294 5.30371 13.8973 5.08327 13.336 5.01991C13.242 5.00791 13.117 5.00391 12.117 5.00391L11 4.99991L10.996 3.87891C10.996 2.65991 10.996 2.71891 10.949 2.45691C10.8588 1.96936 10.6492 1.51174 10.339 1.12491C10.197 0.955228 10.0404 0.798297 9.871 0.655906C9.42975 0.303047 8.89751 0.08252 8.336 0.0199062C8.238 0.00390625 8.055 0.00390625 5.546 0.00390625H2.82ZM8.203 4.01991C8.40687 4.06189 8.59256 4.16645 8.73417 4.319C8.87578 4.47155 8.96627 4.66448 8.993 4.87091C8.996 4.91091 9 5.27691 9 5.96491V6.99991L10.074 7.00391C11.25 7.00391 11.168 6.99991 11.32 7.05091C11.4695 7.1018 11.6049 7.18725 11.7152 7.3003C11.8254 7.41336 11.9075 7.55083 11.9547 7.70156C12.0018 7.85229 12.0127 8.01201 11.9866 8.16776C11.9604 8.3235 11.8978 8.47088 11.804 8.59791C11.684 8.75791 11.504 8.88691 11.32 8.94891C11.168 8.99991 11.25 8.99591 10.074 8.99591L9 8.99991V10.0399C9 10.9059 9 11.0859 8.988 11.1479C8.96022 11.3295 8.88329 11.5 8.76555 11.641C8.6478 11.7821 8.49373 11.8882 8.32 11.9479C8.21701 11.9827 8.10867 11.9989 8 11.9959C7.84384 12.0012 7.68893 11.9664 7.55 11.8949C7.41577 11.8262 7.29854 11.7285 7.20685 11.6088C7.11517 11.4891 7.05133 11.3504 7.02 11.2029C7.004 11.1479 7.004 11.0699 7.004 10.0739L7 8.99991L5.926 8.99591C4.93 8.99591 4.852 8.99591 4.796 8.97991C4.64866 8.94884 4.51016 8.88509 4.39074 8.79336C4.27132 8.70163 4.17401 8.58426 4.106 8.44991C4.03416 8.31107 3.99905 8.15615 4.004 7.99991C4.00065 7.8913 4.01656 7.78296 4.051 7.67991C4.11073 7.50618 4.21685 7.3521 4.35786 7.23436C4.49887 7.11661 4.66941 7.03969 4.851 7.01191C4.915 6.99991 5.095 6.99991 5.962 6.99991H7L7.004 5.92591C7.004 4.74991 7 4.83191 7.051 4.67991C7.168 4.32791 7.473 4.07391 7.848 4.01191C7.96617 3.99893 8.08554 4.00162 8.203 4.01991Z" fill="currentColor"/>
</g>
<defs>
<clipPath id="clip0_2538_37500">
<rect width="16" height="16" fill="white"/>
</clipPath>
</defs>
</svg>
