<svg width="16" height="16" viewBox="0 0 16 16" fill="none" xmlns="http://www.w3.org/2000/svg">
<path d="M8.09 0.00791073C7.7 0.0509107 7.367 0.323911 7.246 0.698911C7.21531 0.797593 7.20079 0.90059 7.203 1.00391C7.203 1.28091 7.309 1.52691 7.508 1.72291C7.609 1.81591 7.652 1.84791 7.918 1.97991C8.398 2.21891 8.754 2.44991 9.121 2.75391C9.261 2.87091 9.551 3.15991 9.652 3.28891C9.879 3.57391 10.02 3.85191 10.078 4.12491C10.105 4.24591 10.105 4.47991 10.078 4.60491C10.028 4.86291 9.91 5.10891 9.699 5.39091C9.68029 5.42196 9.65815 5.45081 9.633 5.47691C9.629 5.47691 9.59 5.45291 9.543 5.42591C9.16255 5.19999 8.73727 5.06005 8.297 5.01591C8.09931 5.00027 7.90069 5.00027 7.703 5.01591C7.508 5.03591 7.301 5.07791 7.133 5.12891C7.082 5.14491 7.035 5.15591 7.031 5.15591C7.027 5.15591 6.973 5.11291 6.911 5.05891C5.797 4.10491 4.594 3.78891 3.414 4.13691C2.774 4.32791 2.168 4.71091 1.594 5.29291C1.07169 5.83843 0.635372 6.46021 0.300001 7.13691C0.136001 7.46091 0.0460006 7.67591 0.0190006 7.80491C-0.000458911 7.93418 -0.000458911 8.06564 0.0190006 8.19491C0.0655184 8.42119 0.188346 8.62462 0.366925 8.77116C0.545503 8.9177 0.768998 8.99846 1 8.99991C1.242 8.99991 1.5 8.89791 1.668 8.74191C1.793 8.62491 1.855 8.53191 1.941 8.34391C2.191 7.78891 2.484 7.31291 2.816 6.91391C2.934 6.77691 3.188 6.52691 3.305 6.43391C3.75 6.07791 4.165 5.94491 4.582 6.02391C4.82 6.06991 5.098 6.19891 5.355 6.38291L5.437 6.43691L5.402 6.49691C5.22926 6.79837 5.1092 7.12708 5.047 7.46891C4.969 7.90191 4.992 8.37491 5.105 8.79291L5.133 8.89091L5.039 8.99591C4.352 9.75791 3.977 10.5429 3.906 11.3789C3.89428 11.5454 3.89428 11.7124 3.906 11.8789C3.973 12.6949 4.332 13.4649 4.98 14.1879C5.098 14.3199 5.379 14.5899 5.512 14.7069C6.01014 15.1343 6.55973 15.4978 7.148 15.7889C7.449 15.9409 7.539 15.9769 7.715 15.9919C7.91 16.0119 8.137 15.9609 8.313 15.8549C8.617 15.6749 8.797 15.3549 8.797 14.9999C8.80039 14.8713 8.77758 14.7434 8.72996 14.6239C8.68234 14.5044 8.61091 14.3959 8.52 14.3049C8.422 14.2029 8.355 14.1599 8.129 14.0469C7.68253 13.8322 7.26407 13.5635 6.883 13.2469C6.70219 13.0905 6.53245 12.9218 6.375 12.7419C6.129 12.4419 5.985 12.1599 5.922 11.8749C5.90452 11.7955 5.89779 11.7141 5.902 11.6329C5.89805 11.5504 5.90478 11.4677 5.922 11.3869C5.977 11.1289 6.094 10.8829 6.301 10.6089C6.31971 10.5779 6.34185 10.549 6.367 10.5229C6.371 10.5229 6.41 10.5469 6.457 10.5739C6.81535 10.7861 7.21354 10.9222 7.62679 10.9738C8.04003 11.0254 8.45947 10.9914 8.859 10.8739C8.914 10.8589 8.965 10.8439 8.969 10.8439C8.973 10.8439 9.016 10.8749 9.063 10.9179C10.02 11.7499 11.066 12.1129 12.102 11.9679C13.055 11.8359 13.953 11.2809 14.738 10.3399C15.1871 9.79109 15.5626 9.18597 15.855 8.53991C15.937 8.35191 15.973 8.25391 15.988 8.14791C16.0178 7.94592 15.9851 7.73964 15.8943 7.55678C15.8034 7.37393 15.6588 7.22327 15.4798 7.12506C15.3007 7.02684 15.096 6.98578 14.8929 7.00738C14.6899 7.02899 14.4983 7.11223 14.344 7.24591C14.211 7.36291 14.144 7.46091 14.043 7.69091C13.8214 8.18755 13.5349 8.65261 13.191 9.07391C13.0386 9.25045 12.8728 9.41494 12.695 9.56591C12.312 9.87491 11.953 10.0159 11.602 9.99591C11.305 9.98391 10.98 9.85591 10.652 9.62491L10.562 9.56191L10.602 9.49191C10.773 9.19491 10.898 8.85191 10.957 8.50791C10.988 8.31991 10.997 8.21091 10.997 7.99591C10.997 7.69091 10.961 7.44591 10.887 7.17591L10.867 7.10891L10.945 7.02291C11.422 6.49591 11.746 5.96491 11.934 5.40291C12.004 5.19091 12.051 4.97991 12.082 4.73391C12.098 4.60191 12.105 4.28091 12.094 4.13691C12.039 3.44891 11.789 2.80891 11.324 2.18391C11.1555 1.95813 10.9689 1.74643 10.766 1.55091C10.3892 1.18362 9.97223 0.859919 9.523 0.585911C9.2 0.378911 8.68 0.108911 8.503 0.0499107C8.36905 0.0108409 8.22908 -0.00339341 8.09 0.00791073Z" fill="currentColor"/>
</svg>
