<svg width="16" height="16" viewBox="0 0 16 16" fill="none" xmlns="http://www.w3.org/2000/svg">
<path d="M6.746 0.00807704C5.84834 0.0669385 4.99661 0.426227 4.328 1.02808C3.492 1.78108 3.008 2.84408 3.004 3.93408C3.004 4.14808 3.008 4.18408 3.054 4.32008C3.121 4.52008 3.274 4.71908 3.454 4.83208C3.711 5.00408 4.024 5.04308 4.32 4.94508C4.562 4.86308 4.781 4.67508 4.898 4.43708C4.965 4.30908 4.992 4.18008 5 3.96508C5.00993 3.48922 5.18865 3.03238 5.50426 2.67611C5.81986 2.31984 6.25182 2.08732 6.723 2.02008C6.843 2.00008 7.156 2.00008 7.281 2.02008C7.75238 2.08814 8.18415 2.3217 8.4991 2.67896C8.81404 3.03623 8.99159 3.49389 9 3.97008C9.012 4.23408 9.05 4.37108 9.168 4.55508C9.227 4.64508 9.359 4.77308 9.453 4.83208C9.6439 4.95913 9.87308 5.01575 10.1012 4.99221C10.3293 4.96867 10.5421 4.86644 10.703 4.70308C10.847 4.56429 10.9439 4.38382 10.98 4.18708C10.992 4.13308 10.996 4.08608 10.996 3.94108C10.9853 3.02109 10.6551 2.13344 10.062 1.43008C9.89992 1.24618 9.72659 1.07251 9.543 0.910077C8.75749 0.267974 7.75865 -0.0541416 6.746 0.00807704Z" fill="currentColor"/>
<path d="M6.871 3.00808C6.7374 3.02809 6.60881 3.07322 6.492 3.14108C6.37147 3.21295 6.26718 3.30909 6.18576 3.42339C6.10433 3.5377 6.04755 3.66767 6.019 3.80508C6.004 3.85908 6.004 4.03908 6 7.58208C5.996 11.0591 5.996 11.3051 5.984 11.3441C5.96007 11.4212 5.91708 11.491 5.859 11.5471C5.79943 11.61 5.72418 11.6559 5.641 11.6801C5.54269 11.7111 5.43704 11.71 5.3394 11.6769C5.24176 11.6438 5.1572 11.5805 5.098 11.4961C5.078 11.4691 4.793 10.9761 4.461 10.4021C4.24746 10.0308 4.03112 9.66111 3.812 9.29308C3.71502 9.16326 3.58944 9.05753 3.445 8.98408C3.20961 8.87048 2.93934 8.85255 2.691 8.93408C2.59315 8.97272 2.49936 9.02096 2.411 9.07808C2.21323 9.22809 2.07676 9.44489 2.027 9.68808C2.007 9.77808 2.007 9.98408 2.027 10.0741C2.04247 10.1583 2.07009 10.2398 2.109 10.3161C2.92986 11.7518 3.75654 13.1841 4.589 14.6131C4.895 15.0931 5.339 15.4841 5.863 15.7231C6.086 15.8281 6.336 15.9061 6.574 15.9491C6.848 16.0001 6.66 15.9961 9.098 15.9961C10.652 16.0001 11.348 16.0001 11.422 15.9921C11.8254 15.9608 12.2096 15.807 12.523 15.5511C12.613 15.4811 12.762 15.3321 12.828 15.2461C13.025 14.9956 13.1616 14.703 13.227 14.3911C13.242 14.3011 13.617 11.6801 13.633 11.5351C13.6492 11.3337 13.6479 11.1312 13.629 10.9301C13.5921 10.5835 13.4939 10.2463 13.339 9.93408C13.1649 9.5769 12.9213 9.25811 12.6223 8.9964C12.3233 8.73469 11.9751 8.53535 11.598 8.41008C11.516 8.38308 10.992 8.25008 10.094 8.02308C9.34 7.83608 8.695 7.67208 8.668 7.66408C8.50508 7.60574 8.35991 7.50647 8.24643 7.37583C8.13295 7.24519 8.05498 7.08755 8.02 6.91808C8.004 6.86808 8.004 6.73808 8 5.36308C7.996 3.96508 7.996 3.85908 7.98 3.80508C7.94067 3.61181 7.84416 3.43482 7.703 3.29708C7.56885 3.15812 7.39605 3.06266 7.207 3.02308C7.09623 3.00259 6.98316 2.99754 6.871 3.00808Z" fill="currentColor"/>
</svg>
