<svg width="16" height="16" viewBox="0 0 16 16" fill="none" xmlns="http://www.w3.org/2000/svg">
<g clip-path="url(#clip0_2538_37977)">
<path d="M7.816 0.00815998C7.48644 0.0389149 7.16981 0.151675 6.895 0.33616C6.61946 0.517177 6.39359 0.764257 6.23797 1.05489C6.08235 1.34553 6.00191 1.67049 6.004 2.00016C6.004 2.20316 6.02 2.32816 6.063 2.49616C6.172 2.91416 6.41 3.28916 6.734 3.55116C6.789 3.59416 6.949 3.70316 7.02 3.74616C7.031 3.75416 7.031 3.75816 7.02 3.80916C7.004 3.85916 7.004 3.96116 7.004 5.09816L7 6.33616H5.402C4.414 6.33616 3.766 6.34016 3.695 6.34416C3.26582 6.36565 2.8451 6.47168 2.457 6.65616C2.31431 6.72535 2.17838 6.8077 2.051 6.90216C1.473 7.34016 1.125 7.99616 1.027 8.83616C1.004 9.06216 1 9.21016 1 10.7342V12.2662L0.89 12.3402C0.657063 12.4928 0.459282 12.6933 0.309799 12.9283C0.160315 13.1633 0.0625502 13.4275 0.0229996 13.7032C-0.00435536 13.9002 -0.00435536 14.1001 0.0229996 14.2972C0.109 14.8592 0.41 15.3362 0.879 15.6572C1.13143 15.8265 1.41891 15.9365 1.71991 15.9789C2.0209 16.0214 2.32759 15.9951 2.617 15.9022C2.94634 15.7957 3.24231 15.6054 3.47585 15.35C3.70938 15.0945 3.87244 14.7827 3.949 14.4452C3.984 14.2852 3.996 14.1872 3.996 14.0002C3.996 13.8122 3.984 13.7152 3.949 13.5552C3.88974 13.2955 3.77949 13.0503 3.62465 12.8336C3.4698 12.617 3.27345 12.4333 3.047 12.2932L3 12.2662V10.7382C3 9.21116 3 9.12116 3.027 8.96116C3.04742 8.82207 3.09979 8.68961 3.18 8.57416C3.262 8.46916 3.402 8.40216 3.64 8.35916L3.73 8.33916H5.363L7 8.33716L7.004 10.2352C7.004 12.0132 7.004 12.1422 7.02 12.1922C7.031 12.2432 7.031 12.2472 7.02 12.2552L6.89 12.3372C6.418 12.6492 6.11 13.1372 6.023 13.7042C5.996 13.8642 5.996 14.1382 6.023 14.2982C6.109 14.8602 6.41 15.3372 6.879 15.6582C7.13143 15.8275 7.41891 15.9375 7.71991 15.9799C8.0209 16.0224 8.32759 15.9961 8.617 15.9032C8.94633 15.7967 9.24231 15.6064 9.47585 15.351C9.70938 15.0955 9.87244 14.7837 9.949 14.4462C9.984 14.2862 9.996 14.1882 9.996 14.0012C9.996 13.8132 9.984 13.7162 9.949 13.5562C9.8902 13.2985 9.78092 13.0549 9.62747 12.8397C9.47403 12.6245 9.27946 12.4418 9.055 12.3022C9.02752 12.2875 9.00142 12.2705 8.977 12.2512C8.973 12.2472 8.977 12.2242 8.98 12.1922C8.996 12.1422 8.996 12.0012 8.996 10.2352L9 8.33616H10.633L12.262 8.34016L12.355 8.35516C12.535 8.39116 12.648 8.43016 12.738 8.49616C12.883 8.59816 12.965 8.80516 12.992 9.12516C12.996 9.18016 13 9.78516 13 10.7382V12.2662L12.89 12.3402C12.6571 12.4928 12.4593 12.6933 12.3098 12.9283C12.1603 13.1633 12.0626 13.4275 12.023 13.7032C11.996 13.8632 11.996 14.1372 12.023 14.2972C12.109 14.8592 12.41 15.3362 12.879 15.6572C13.1314 15.8265 13.4189 15.9365 13.7199 15.9789C14.0209 16.0214 14.3276 15.9951 14.617 15.9022C14.9463 15.7957 15.2423 15.6054 15.4758 15.35C15.7094 15.0945 15.8724 14.7827 15.949 14.4452C15.984 14.2852 15.996 14.1872 15.996 14.0002C15.9969 13.6587 15.91 13.3227 15.7436 13.0245C15.5773 12.7262 15.337 12.4758 15.046 12.2972L15 12.2662L14.996 10.6562C14.996 8.93016 14.996 8.99216 14.957 8.71516C14.844 7.94116 14.5 7.31616 13.949 6.90216C13.8216 6.8077 13.6857 6.72535 13.543 6.65616C13.1549 6.47168 12.7342 6.36565 12.305 6.34416C12.235 6.34016 11.585 6.33616 10.598 6.33616H9L8.996 5.09816C8.996 3.96516 8.996 3.85916 8.98 3.80816C8.977 3.77816 8.969 3.75416 8.969 3.75416L9.039 3.71116C9.555 3.39516 9.891 2.88316 9.98 2.27016C10 2.14016 10 1.86016 9.98 1.73016C9.92201 1.30231 9.72698 0.904758 9.42412 0.597033C9.12126 0.289307 8.72687 0.0879664 8.3 0.02316C8.13951 0.00283049 7.97744 -0.00219211 7.816 0.00815998Z" fill="currentColor"/>
</g>
<defs>
<clipPath id="clip0_2538_37977">
<rect width="16" height="16" fill="white"/>
</clipPath>
</defs>
</svg>
