<svg width="16" height="16" viewBox="0 0 16 16" fill="none" xmlns="http://www.w3.org/2000/svg">
<g clip-path="url(#clip0_2538_38262)">
<path d="M13.816 0.00792969C13.777 0.0119297 13.703 0.0229297 13.648 0.0309297C13.3742 0.0803082 13.1137 0.186085 12.8831 0.34154C12.6524 0.496995 12.4565 0.69873 12.308 0.93393L12.27 0.99593L10.652 0.99993C9.472 1.00393 9.012 1.00793 8.953 1.01593C8.67144 1.03981 8.3936 1.09619 8.125 1.18393C7.56743 1.36472 7.09059 1.73472 6.777 2.22993C6.707 2.34793 6.597 2.57393 6.547 2.70693C6.437 2.99993 6.367 3.33593 6.344 3.69493C6.34 3.76493 6.336 4.41493 6.336 5.40193V6.99993L5.102 7.00393C3.961 7.00393 3.859 7.00393 3.809 7.01993C3.758 7.03093 3.754 7.03093 3.746 7.01993C3.539 6.67993 3.324 6.45993 3.023 6.28093C2.76398 6.12881 2.47436 6.03624 2.17513 6.00995C1.8759 5.98366 1.57457 6.0243 1.293 6.12893C1.00054 6.24365 0.737444 6.42235 0.522998 6.65193C0.32161 6.87106 0.172103 7.1327 0.0855513 7.41746C-0.00100058 7.70221 -0.0223794 8.00279 0.0229983 8.29693C0.108998 8.85893 0.409998 9.33593 0.878998 9.65693C1.13143 9.82628 1.41891 9.93629 1.71991 9.97872C2.0209 10.0211 2.32759 9.9949 2.617 9.90193C2.98 9.78493 3.317 9.55493 3.551 9.26593C3.594 9.21093 3.703 9.05093 3.746 8.97993C3.754 8.96893 3.758 8.96893 3.809 8.97993C3.859 8.99593 3.961 8.99593 5.102 8.99593L6.336 8.99993V10.5979C6.336 11.5859 6.34 12.2339 6.344 12.3049C6.418 13.3709 6.864 14.1519 7.66 14.6089C8.008 14.8089 8.406 14.9259 8.953 14.9839C9.012 14.9919 9.508 14.9959 10.648 14.9959L12.266 14.9999L12.301 15.0589C12.511 15.3909 12.821 15.6599 13.171 15.8199C13.625 16.0269 14.145 16.0549 14.617 15.9019C14.9463 15.7955 15.2423 15.6052 15.4758 15.3497C15.7094 15.0943 15.8724 14.7825 15.949 14.4449C15.984 14.2849 15.996 14.1869 15.996 13.9999C15.996 13.8119 15.984 13.7149 15.949 13.5549C15.8737 13.2257 15.7165 12.9209 15.4918 12.6688C15.2671 12.4167 14.9824 12.2255 14.664 12.1129C14.3378 11.9995 13.9881 11.9713 13.648 12.0309C13.3746 12.0813 13.1145 12.1875 12.8839 12.3428C12.6534 12.4982 12.4573 12.6994 12.308 12.9339L12.27 12.9959L10.754 12.9999C9.214 12.9999 9.121 12.9999 8.961 12.9729C8.82191 12.9525 8.68945 12.9001 8.574 12.8199C8.469 12.7379 8.402 12.5979 8.359 12.3599L8.339 12.2699V10.6369L8.337 8.99993L10.235 8.99593C12.001 8.99593 12.142 8.99593 12.192 8.97993C12.224 8.97693 12.247 8.97293 12.251 8.97693C12.255 8.97693 12.278 9.01593 12.301 9.05493C12.5377 9.43375 12.894 9.72282 13.3135 9.87641C13.7329 10.03 14.1916 10.0393 14.617 9.90293C14.9466 9.79654 15.2429 9.60615 15.4766 9.35051C15.7104 9.09486 15.8735 8.78276 15.95 8.44493C15.985 8.28493 15.997 8.18693 15.997 7.99993C15.997 7.81193 15.985 7.71493 15.95 7.55493C15.8747 7.22574 15.7175 6.92092 15.4928 6.66881C15.2681 6.4167 14.9834 6.22548 14.665 6.11293C14.3388 5.9995 13.9891 5.97128 13.649 6.03093C13.3733 6.08121 13.111 6.18847 12.8791 6.34585C12.6472 6.50324 12.4506 6.70727 12.302 6.94493C12.2874 6.97241 12.2703 6.99851 12.251 7.02293C12.251 7.02693 12.224 7.02293 12.192 7.01593C12.142 7.00793 11.95 7.00393 10.235 7.00393L8.336 6.99993L8.34 5.36293V3.72993L8.36 3.63993C8.395 3.45693 8.434 3.35193 8.496 3.26193C8.598 3.11693 8.805 3.03493 9.125 3.00793C9.18 3.00393 9.785 2.99993 10.738 2.99993H12.266L12.301 3.05893C12.511 3.39093 12.821 3.65993 13.171 3.81993C13.625 4.02693 14.145 4.05493 14.617 3.90193C14.9463 3.79548 15.2423 3.60518 15.4758 3.34973C15.7094 3.09428 15.8724 2.78247 15.949 2.44493C15.984 2.28493 15.996 2.18793 15.996 1.99993C15.996 1.81193 15.984 1.71493 15.949 1.55493C15.8737 1.22574 15.7165 0.920921 15.4918 0.668811C15.2671 0.4167 14.9824 0.225482 14.664 0.11293C14.4631 0.042294 14.2519 0.00513285 14.039 0.00292969C13.957 0.00292969 13.855 0.00292969 13.816 0.00792969Z" fill="currentColor"/>
</g>
<defs>
<clipPath id="clip0_2538_38262">
<rect width="16" height="16" fill="white"/>
</clipPath>
</defs>
</svg>
