<svg width="16" height="16" viewBox="0 0 16 16" fill="none" xmlns="http://www.w3.org/2000/svg">
<path d="M7.855 0.734154C7.69034 0.759346 7.53461 0.825352 7.402 0.926154C7.27 1.02715 1.07 6.25415 1.012 6.31615C0.923222 6.40462 0.8532 6.51008 0.80612 6.62624C0.759041 6.74239 0.735872 6.86684 0.738 6.99215C0.738034 7.22204 0.816259 7.44508 0.959823 7.62462C1.10339 7.80417 1.30375 7.92955 1.528 7.98015C1.594 7.99615 1.621 7.99615 2.297 7.99615L3 8.00015L3.004 11.0702C3.004 13.9882 3.004 14.1402 3.02 14.1952C3.07 14.4102 3.152 14.5592 3.297 14.7032C3.449 14.8552 3.617 14.9452 3.836 14.9842C4.27853 14.9998 4.72147 14.9998 5.164 14.9842C5.3695 14.9515 5.55894 14.8533 5.704 14.7042C5.84497 14.566 5.94113 14.3887 5.98 14.1952C5.996 14.1412 5.996 14.0312 6 12.4962C6.004 10.9882 6.004 10.8522 6.02 10.8012C6.11 10.4302 6.355 10.1562 6.7 10.0472C6.852 10.0002 6.816 10.0002 8.04 10.0042C9.254 10.0042 9.164 10.0002 9.316 10.0512C9.606 10.1482 9.852 10.3912 9.949 10.6842C10 10.8402 9.996 10.6912 10 12.4962C10.004 14.0312 10.004 14.1412 10.02 14.1962C10.07 14.4102 10.152 14.5592 10.297 14.7032C10.449 14.8552 10.617 14.9452 10.836 14.9842C11.2785 14.9998 11.7215 14.9998 12.164 14.9842C12.3695 14.9515 12.5589 14.8533 12.704 14.7042C12.845 14.566 12.9411 14.3887 12.98 14.1952C12.996 14.1412 12.996 13.9882 12.996 11.0702L13 8.00015L13.703 7.99615C14.379 7.99615 14.406 7.99615 14.473 7.98015C14.665 7.93872 14.8404 7.84128 14.977 7.70015C15.16 7.50815 15.257 7.26615 15.262 6.99615C15.2654 6.84692 15.2317 6.69917 15.164 6.56615C15.111 6.46471 15.0436 6.37142 14.964 6.28915C14.868 6.20015 8.61 0.930154 8.552 0.895154C8.44814 0.823545 8.33128 0.77293 8.208 0.746154C8.09153 0.728473 7.9724 0.724446 7.855 0.734154Z" fill="currentColor"/>
</svg>
