<svg width="16" height="16" viewBox="0 0 16 16" fill="none" xmlns="http://www.w3.org/2000/svg">
<path d="M7.855 0.733909C7.69034 0.759102 7.53461 0.825108 7.402 0.925909C7.27 1.02691 1.07 6.25391 1.012 6.31591C0.923222 6.40438 0.8532 6.50984 0.80612 6.62599C0.759041 6.74214 0.735872 6.8666 0.738 6.99191C0.738034 7.2218 0.816259 7.44483 0.959823 7.62438C1.10339 7.80393 1.30375 7.9293 1.528 7.97991C1.594 7.99591 1.621 7.99591 2.297 7.99591L3 7.99991L3.004 11.0699C3.004 13.9879 3.004 14.1399 3.02 14.1949C3.07 14.4099 3.152 14.5589 3.297 14.7029C3.449 14.8549 3.617 14.9449 3.836 14.9839C4.27853 14.9995 4.72147 14.9995 5.164 14.9839C5.3695 14.9513 5.55894 14.8531 5.704 14.7039C5.84497 14.5658 5.94113 14.3884 5.98 14.1949C5.996 14.1409 5.996 14.0309 6 12.4959C6.004 10.9879 6.004 10.8519 6.02 10.8009C6.11 10.4299 6.355 10.1559 6.7 10.0469C6.852 9.99991 6.816 9.99991 8.04 10.0039C9.254 10.0039 9.164 9.99991 9.316 10.0509C9.606 10.1479 9.852 10.3909 9.949 10.6839C10 10.8399 9.996 10.6909 10 12.4959C10.004 14.0309 10.004 14.1409 10.02 14.1959C10.07 14.4099 10.152 14.5589 10.297 14.7029C10.449 14.8549 10.617 14.9449 10.836 14.9839C11.2785 14.9995 11.7215 14.9995 12.164 14.9839C12.3695 14.9513 12.5589 14.8531 12.704 14.7039C12.845 14.5658 12.9411 14.3884 12.98 14.1949C12.996 14.1409 12.996 13.9879 12.996 11.0699L13 7.99991L13.703 7.99591C14.379 7.99591 14.406 7.99591 14.473 7.97991C14.665 7.93848 14.8404 7.84103 14.977 7.69991C15.16 7.50791 15.257 7.26591 15.262 6.99591C15.2654 6.84667 15.2317 6.69893 15.164 6.56591C15.111 6.46447 15.0436 6.37118 14.964 6.28891C14.868 6.19991 8.61 0.929909 8.552 0.894909C8.44814 0.823301 8.33128 0.772686 8.208 0.745909C8.09153 0.728229 7.9724 0.724202 7.855 0.733909Z" fill="currentColor"/>
</svg>
