<svg width="16" height="16" viewBox="0 0 16 16" fill="none" xmlns="http://www.w3.org/2000/svg">
<g clip-path="url(#clip0_2538_39120)">
<path d="M7.633 0.0077954C6.56331 0.053982 5.51389 0.315282 4.54743 0.776088C3.58098 1.23689 2.7173 1.88776 2.008 2.6898C0.824026 4.02871 0.122713 5.72567 0.0160005 7.5098C-0.0567429 8.6814 0.128621 9.85468 0.559 10.9468C1.1564 12.4547 2.1968 13.7461 3.543 14.6508C5.17698 15.7351 7.14979 16.1876 9.093 15.9238C10.328 15.7551 11.5064 15.2998 12.534 14.5943C13.5616 13.8888 14.4098 12.9527 15.011 11.8608C15.6619 10.6787 16.0006 9.35021 15.995 8.0008C16.0004 6.41298 15.5309 4.85982 14.647 3.5408C13.7889 2.25942 12.5782 1.25392 11.161 0.645795C10.4206 0.329311 9.63686 0.126035 8.836 0.0427954C8.43612 0.00611019 8.03434 -0.0055792 7.633 0.0077954ZM8.203 3.0198C8.38021 3.0573 8.54395 3.1421 8.67685 3.26518C8.80974 3.38826 8.90682 3.54503 8.95779 3.71884C9.00875 3.89266 9.0117 4.07703 8.96631 4.25239C8.92092 4.42774 8.8289 4.58753 8.7 4.7148C8.56222 4.85146 8.38669 4.94376 8.196 4.9798C8.06673 4.99926 7.93527 4.99926 7.806 4.9798C7.61246 4.94064 7.43476 4.84529 7.29513 4.70566C7.15551 4.56604 7.06015 4.38834 7.021 4.1948C7.00154 4.06552 7.00154 3.93407 7.021 3.8048C7.111 3.3868 7.427 3.0818 7.849 3.0118C7.96717 2.99882 8.08654 3.00151 8.204 3.0198H8.203ZM8.203 6.0198C8.40687 6.06178 8.59256 6.16634 8.73417 6.31889C8.87578 6.47144 8.96626 6.66437 8.993 6.8708C8.996 6.9108 9 7.72679 9 9.50379C9 11.7188 9 12.0858 8.988 12.1478C8.96022 12.3294 8.88329 12.4999 8.76555 12.6409C8.6478 12.7819 8.49372 12.8881 8.32 12.9478C8.21701 12.9826 8.10867 12.9988 8 12.9958C7.84384 13.0011 7.68893 12.9663 7.55 12.8948C7.41405 12.8264 7.29558 12.7277 7.2037 12.6063C7.11183 12.485 7.04899 12.3442 7.02 12.1948C7.004 12.1328 7.004 12.0118 7.004 9.49979C7.004 6.98779 7.004 6.8668 7.02 6.8048C7.11 6.3868 7.426 6.0818 7.848 6.0118C7.96617 5.99882 8.08554 6.00151 8.203 6.0198Z" fill="currentColor"/>
</g>
<defs>
<clipPath id="clip0_2538_39120">
<rect width="16" height="16" fill="white"/>
</clipPath>
</defs>
</svg>
