<svg width="16" height="16" viewBox="0 0 16 16" fill="none" xmlns="http://www.w3.org/2000/svg">
<path d="M2.82 1.00419C2.321 1.03551 1.83762 1.19046 1.41342 1.45511C0.989221 1.71976 0.63752 2.08577 0.390002 2.52019C0.195002 2.86319 0.0700018 3.25019 0.0200018 3.67219C-0.0274173 4.09118 0.0143817 4.51547 0.142651 4.91715C0.27092 5.31883 0.482755 5.68882 0.764228 6.00279C1.0457 6.31675 1.39044 6.56759 1.77578 6.7388C2.16112 6.91002 2.57834 6.99774 3 6.99619C3.60237 6.99715 4.19105 6.81657 4.68926 6.47801C5.18748 6.13944 5.57211 5.6586 5.793 5.09819C5.828 5.00819 5.84 4.98819 5.848 4.99219C5.855 4.99219 6.25 4.99619 6.723 4.99619L7.578 5.00019L7.516 5.07819C6.94549 5.78092 6.59857 6.63845 6.52 7.54019C6.50905 7.69498 6.50238 7.85004 6.5 8.00519C6.492 8.39919 6.477 8.56419 6.422 8.82519C6.30783 9.37832 6.05218 9.89238 5.68 10.3172C5.64 10.3602 5.602 10.4072 5.586 10.4192L5.562 10.4392L5.527 10.3842C5.20774 9.88741 4.75035 9.49467 4.211 9.25419C3.53048 8.954 2.76271 8.91731 2.05666 9.15124C1.35061 9.38517 0.756643 9.87304 0.390002 10.5202C0.194002 10.8642 0.0700018 11.2512 0.0190018 11.6732C-0.0282756 12.0922 0.0136628 12.5164 0.14206 12.9181C0.270457 13.3197 0.482405 13.6896 0.763972 14.0035C1.04554 14.3174 1.39035 14.5681 1.77573 14.7392C2.16112 14.9103 2.57835 14.9979 3 14.9962C3.48013 14.998 3.95359 14.8838 4.38014 14.6634C4.80669 14.443 5.17371 14.1229 5.45 13.7302C5.645 13.4572 5.809 13.1102 5.895 12.7902L5.915 12.7152C5.918 12.7152 5.969 12.6802 6.031 12.6412C6.516 12.3212 6.973 11.9022 7.332 11.4532C7.71604 10.9748 8.01351 10.433 8.211 9.85219C8.406 9.27019 8.5 8.67219 8.5 8.00419C8.5 7.61719 8.555 7.32019 8.676 7.00419C8.922 6.38319 9.446 5.83619 10.199 5.41419C10.293 5.35919 10.316 5.35219 10.32 5.35919C10.324 5.36719 10.355 5.41419 10.383 5.46919C10.7055 6.04659 11.2111 6.50013 11.82 6.75819C12.086 6.87119 12.36 6.94519 12.672 6.98019C12.828 7.00019 13.172 7.00019 13.328 6.98019C13.9335 6.91305 14.5043 6.66344 14.9647 6.26446C15.4251 5.86549 15.7534 5.336 15.906 4.74619C15.973 4.47619 15.996 4.28919 15.996 4.00019C15.996 3.77719 15.984 3.65619 15.953 3.47319C15.8664 2.98888 15.6623 2.53322 15.3586 2.14616C15.0549 1.75911 14.6608 1.45249 14.211 1.25319C13.5285 0.954105 12.7594 0.918708 12.0523 1.15384C11.3452 1.38898 10.7505 1.87795 10.383 2.52619C10.3025 2.68004 10.2307 2.83829 10.168 3.00019C10.164 3.01219 10.16 3.01619 10.137 3.00819C10.102 3.00419 5.941 3.00019 5.875 3.00819L5.835 3.01219L5.793 2.90219C5.60919 2.43583 5.31159 2.02288 4.92733 1.70098C4.54307 1.37907 4.08436 1.15844 3.593 1.05919C3.33826 1.01153 3.07892 0.993076 2.82 1.00419ZM3.152 3.01219C3.48 3.06219 3.758 3.26619 3.902 3.56619C3.96374 3.69643 3.99672 3.83843 3.99869 3.98255C4.00066 4.12667 3.97157 4.26952 3.91342 4.4014C3.85526 4.53327 3.76939 4.65108 3.66164 4.74681C3.5539 4.84254 3.4268 4.91396 3.289 4.95619C3.15207 4.99785 3.00777 5.00957 2.86591 4.99054C2.72405 4.97152 2.58794 4.92221 2.46681 4.84595C2.34569 4.76969 2.24239 4.66827 2.16391 4.54856C2.08544 4.42886 2.03363 4.29368 2.012 4.15219C1.98777 3.99695 2.00053 3.83818 2.04924 3.6888C2.09796 3.53942 2.18126 3.40366 2.29236 3.29256C2.40347 3.18145 2.53923 3.09815 2.68861 3.04944C2.83799 3.00072 2.99676 2.98796 3.152 3.01219ZM13.152 3.01219C13.48 3.06219 13.758 3.26619 13.902 3.56619C13.9637 3.69643 13.9967 3.83843 13.9987 3.98255C14.0007 4.12667 13.9716 4.26952 13.9134 4.4014C13.8553 4.53327 13.7694 4.65108 13.6616 4.74681C13.5539 4.84254 13.4268 4.91396 13.289 4.95619C13.1521 4.99785 13.0078 5.00957 12.8659 4.99054C12.724 4.97152 12.5879 4.92221 12.4668 4.84595C12.3457 4.76969 12.2424 4.66827 12.1639 4.54856C12.0854 4.42886 12.0336 4.29368 12.012 4.15219C11.9878 3.99695 12.0005 3.83818 12.0492 3.6888C12.098 3.53942 12.1813 3.40366 12.2924 3.29256C12.4035 3.18145 12.5392 3.09815 12.6886 3.04944C12.838 3.00072 12.9968 2.98796 13.152 3.01219ZM3.152 11.0122C3.48 11.0622 3.758 11.2662 3.902 11.5662C3.96374 11.6964 3.99672 11.8384 3.99869 11.9826C4.00066 12.1267 3.97157 12.2695 3.91342 12.4014C3.85526 12.5333 3.76939 12.6511 3.66164 12.7468C3.5539 12.8425 3.4268 12.914 3.289 12.9562C3.15207 12.9979 3.00777 13.0096 2.86591 12.9905C2.72405 12.9715 2.58794 12.9222 2.46681 12.8459C2.34569 12.7697 2.24239 12.6683 2.16391 12.5486C2.08544 12.4289 2.03363 12.2937 2.012 12.1522C1.98777 11.997 2.00053 11.8382 2.04924 11.6888C2.09796 11.5394 2.18126 11.4037 2.29236 11.2926C2.40347 11.1815 2.53923 11.0982 2.68861 11.0494C2.83799 11.0007 2.99676 10.988 3.152 11.0122Z" fill="currentColor"/>
</svg>
