<svg width="16" height="16" viewBox="0 0 16 16" fill="none" xmlns="http://www.w3.org/2000/svg">
<path d="M0 7L0.031 6.996C0.047 6.992 1.383 6.828 3 6.625C4.617 6.422 5.953 6.254 5.973 6.254L6 6.25V5H7.578L7.516 5.074C6.84498 5.90173 6.48545 6.93855 6.5 8.004C6.50947 8.47931 6.4245 8.95178 6.25 9.394C6.21 9.492 6.094 9.727 6.043 9.816L6.003 9.879L6 9.816V9.75L5.969 9.746C5.953 9.746 4.617 9.578 3 9.375C1.383 9.172 0.047 9.004 0.031 9.004L0 9V15L0.027 14.996C0.047 14.992 1.383 14.828 3 14.625C4.617 14.422 5.953 14.254 5.973 14.254L6 14.25V12.66L6.078 12.61C6.55017 12.2875 6.97264 11.8977 7.332 11.453C7.71603 10.9746 8.01351 10.4328 8.211 9.852C8.406 9.27 8.5 8.672 8.5 8.004C8.5 7.832 8.508 7.707 8.527 7.566C8.637 6.796 9.09 6.141 9.879 5.609L9.996 5.531L10 5.891C10 6.09 10 6.25 10.004 6.25C10.012 6.25 15.954 6.992 15.977 6.996L16 7V1L15.977 1.004L10.004 1.75C10 1.75 10 2.031 10 2.375V3H6V1.75L5.973 1.746C5.953 1.746 4.617 1.578 3 1.375C1.383 1.172 0.047 1.004 0.031 1.004L0 1V7ZM2.98 3.387C3.512 3.453 3.96 3.507 3.977 3.512L4 3.516V4.484L3.977 4.488L2.004 4.734C2 4.734 2 4.402 2 4C2 3.598 2 3.266 2.004 3.266L2.98 3.386V3.387ZM14 4V4.738L13.973 4.73C13.953 4.73 13.52 4.676 13 4.61C12.48 4.547 12.047 4.488 12.031 4.488L12 4.484V4C12 3.734 12.004 3.516 12.008 3.516C12.008 3.516 12.453 3.461 12.992 3.391L13.988 3.266C14 3.266 14 3.305 14 4ZM2.98 11.387C3.512 11.453 3.96 11.507 3.977 11.512L4 11.516V12.484L3.977 12.488L2.004 12.734C2 12.734 2 12.402 2 12C2 11.598 2 11.266 2.004 11.266L2.98 11.386V11.387Z" fill="currentColor"/>
</svg>
