<svg width="16" height="16" viewBox="0 0 16 16" fill="none" xmlns="http://www.w3.org/2000/svg">
<path d="M7.352 0.0939401C7.13274 0.118165 6.92206 0.192786 6.73644 0.311967C6.55082 0.431148 6.39528 0.591658 6.282 0.78094C6.12904 1.04186 6.06352 1.34486 6.095 1.64567C6.12649 1.94648 6.25333 2.22934 6.457 2.45294L6.504 2.49994L5 3.99994L3.5 5.50394L3.45 5.45394C3.26335 5.28471 3.03498 5.16827 2.78839 5.1166C2.5418 5.06493 2.28589 5.07989 2.047 5.15994C1.73 5.26994 1.457 5.48794 1.281 5.78094C1.13467 6.02955 1.06932 6.31752 1.094 6.60494C1.117 6.88694 1.204 7.12094 1.367 7.34394C3.10417 9.10272 4.8502 10.8527 6.605 12.5939C6.88268 12.8163 7.23397 12.9258 7.58881 12.9006C7.94364 12.8755 8.27596 12.7175 8.51949 12.4582C8.76302 12.1989 8.89986 11.8573 8.90274 11.5016C8.90561 11.1459 8.77431 10.8021 8.535 10.5389L8.496 10.4999L10 8.99994L11.5 7.49594L11.54 7.53594C11.7325 7.71526 11.9713 7.83719 12.2295 7.88795C12.4877 7.9387 12.7549 7.91627 13.0009 7.82319C13.247 7.7301 13.4622 7.57007 13.6221 7.36116C13.782 7.15225 13.8804 6.90279 13.906 6.64094C13.946 6.27694 13.828 5.89094 13.594 5.60494C11.8528 3.85013 10.1028 2.10411 8.344 0.36694C8.05891 0.155488 7.70514 0.0581271 7.352 0.0939401Z" fill="currentColor"/>
<path d="M11.102 9.01194C11.0619 9.02404 11.0225 9.0384 10.984 9.05494C10.918 9.08494 10.918 9.08494 10.504 9.50394C10.086 9.91794 10.086 9.91794 10.054 9.98394C10.0192 10.0531 10.001 10.1295 10.001 10.2069C10.001 10.2844 10.0192 10.3608 10.054 10.4299L10.086 10.4959L11.883 12.2889C13.281 13.6909 13.688 14.0889 13.73 14.1169C13.91 14.2339 14.055 14.2809 14.258 14.2889C14.3747 14.2967 14.4917 14.2807 14.602 14.2419C14.7517 14.1938 14.887 14.1093 14.996 13.9959C15.0913 13.9058 15.1666 13.7966 15.2171 13.6755C15.2675 13.5544 15.292 13.4241 15.289 13.2929C15.291 13.1426 15.2574 12.9939 15.191 12.8589C15.121 12.7109 15.207 12.8009 13.289 10.8829L11.496 9.08594L11.43 9.05494C11.3285 9.00456 11.2131 8.98943 11.102 9.01194ZM1.871 14.0079C1.66321 14.0353 1.46927 14.1272 1.31657 14.2708C1.16387 14.4143 1.06013 14.6022 1.02 14.8079C1 14.9019 1 15.0979 1.02 15.1909C1.05888 15.3863 1.15492 15.5657 1.29593 15.7063C1.43694 15.847 1.61656 15.9426 1.812 15.9809C1.875 15.9959 2.032 15.9959 5.5 15.9959C8.945 15.9959 9.125 15.9959 9.191 15.9799C9.38675 15.9416 9.56657 15.8456 9.70735 15.7043C9.84813 15.563 9.94343 15.3828 9.981 15.1869C10 15.0969 10 14.9019 9.981 14.8129C9.94416 14.6193 9.85111 14.4409 9.71345 14.2998C9.5758 14.1588 9.39965 14.0615 9.207 14.0199L9.137 14.0039H5.53C3.472 14.0039 1.901 14.0039 1.87 14.0079H1.871Z" fill="currentColor"/>
</svg>
