<svg width="16" height="16" viewBox="0 0 16 16" fill="none" xmlns="http://www.w3.org/2000/svg">
<path d="M12.844 2.01183C12.7922 2.02159 12.7411 2.03462 12.691 2.05083C12.633 2.07083 11.242 2.76083 7.551 4.60883C5.84479 5.45741 4.14145 6.31175 2.441 7.17183C2.22358 7.31994 2.07254 7.54705 2.02 7.80483C2.00054 7.9341 2.00054 8.06555 2.02 8.19483C2.074 8.45683 2.227 8.68383 2.441 8.82783C2.469 8.84783 4.766 9.99983 7.551 11.3908C11.258 13.2458 12.633 13.9298 12.691 13.9488C12.941 14.0308 13.223 14.0078 13.461 13.8868C13.742 13.7418 13.941 13.4608 13.988 13.1478C14.0147 12.965 13.9905 12.7783 13.9182 12.6083C13.8459 12.4383 13.7282 12.2914 13.578 12.1838C13.543 12.1598 12.18 11.4728 9.387 10.0738C8.00319 9.38678 6.62152 8.69544 5.242 7.99983C5.242 7.99583 7.105 7.06183 9.387 5.92583C10.7874 5.22929 12.1844 4.52595 13.578 3.81583C13.7171 3.71621 13.8283 3.58268 13.9013 3.42793C13.9742 3.27318 14.0063 3.10235 13.9946 2.93169C13.9828 2.76102 13.9277 2.5962 13.8343 2.45287C13.7409 2.30955 13.6124 2.19249 13.461 2.11283C13.271 2.0154 13.0552 1.98008 12.844 2.01183Z" fill="currentColor"/>
</svg>
