<svg width="16" height="16" viewBox="0 0 16 16" fill="none" xmlns="http://www.w3.org/2000/svg">
<path d="M14.844 0.0120703C14.7922 0.0218331 14.7411 0.0348591 14.691 0.0510703C14.633 0.0710703 12.715 1.02307 7.551 3.60907C5.17825 4.7919 2.80791 5.97957 0.440001 7.17207C0.222584 7.32019 0.0715391 7.54729 0.0190006 7.80507C-0.000458911 7.93434 -0.000458911 8.0658 0.0190006 8.19507C0.0730006 8.45707 0.226001 8.68407 0.440001 8.82807C0.468001 8.84807 3.667 10.4491 7.55 12.3911C12.737 14.9841 14.632 15.9301 14.69 15.9491C14.94 16.0311 15.222 16.0081 15.46 15.8871C15.741 15.7421 15.94 15.4611 15.987 15.1481C16.0137 14.9652 15.9895 14.7786 15.9172 14.6086C15.8449 14.4385 15.7272 14.2917 15.577 14.1841C15.542 14.1601 13.55 13.1601 9.386 11.0741C6.007 9.38707 3.242 8.00407 3.242 8.00007C3.242 7.99607 6.008 6.61307 9.387 4.92607C13.551 2.84007 15.543 1.84007 15.578 1.81607C15.7171 1.71645 15.8283 1.58292 15.9013 1.42817C15.9742 1.27342 16.0063 1.1026 15.9946 0.931932C15.9828 0.761268 15.9277 0.596439 15.8343 0.453115C15.7409 0.30979 15.6124 0.192732 15.461 0.11307C15.271 0.0156477 15.0552 -0.019679 14.844 0.0120703Z" fill="currentColor"/>
</svg>
