<svg width="16" height="16" viewBox="0 0 16 16" fill="none" xmlns="http://www.w3.org/2000/svg">
<path d="M14.844 0.0118262C14.7922 0.021589 14.7411 0.034615 14.691 0.0508262C14.633 0.0708262 12.715 1.02283 7.551 3.60883C5.17825 4.79166 2.80791 5.97933 0.440001 7.17183C0.222584 7.31994 0.0715391 7.54705 0.0190006 7.80483C-0.000458911 7.9341 -0.000458911 8.06555 0.0190006 8.19483C0.0730006 8.45683 0.226001 8.68383 0.440001 8.82783C0.468001 8.84783 3.667 10.4488 7.55 12.3908C12.737 14.9838 14.632 15.9298 14.69 15.9488C14.94 16.0308 15.222 16.0078 15.46 15.8868C15.741 15.7418 15.94 15.4608 15.987 15.1478C16.0137 14.965 15.9895 14.7783 15.9172 14.6083C15.8449 14.4383 15.7272 14.2914 15.577 14.1838C15.542 14.1598 13.55 13.1598 9.386 11.0738C6.007 9.38683 3.242 8.00383 3.242 7.99983C3.242 7.99583 6.008 6.61283 9.387 4.92583C13.551 2.83983 15.543 1.83983 15.578 1.81583C15.7171 1.71621 15.8283 1.58268 15.9013 1.42793C15.9742 1.27318 16.0063 1.10235 15.9946 0.931688C15.9828 0.761024 15.9277 0.596195 15.8343 0.45287C15.7409 0.309546 15.6124 0.192488 15.461 0.112826C15.271 0.0154036 15.0552 -0.0199231 14.844 0.0118262Z" fill="currentColor"/>
</svg>
