<svg width="16" height="16" viewBox="0 0 16 16" fill="none" xmlns="http://www.w3.org/2000/svg">
<g clip-path="url(#clip0_2613_7329)">
<path d="M7.785 0.00400194C7.2306 0.0277783 6.68407 0.144047 6.168 0.348002C5.0123 0.805312 4.06734 1.67509 3.516 2.789C3.23273 3.3617 3.06295 3.9838 3.016 4.621C2.99975 4.89047 3.00109 5.16071 3.02 5.43C3.07 5.984 3.2 6.496 3.41 6.988C3.484 7.156 3.559 7.301 3.73 7.609C4.117 8.313 4.32 8.762 4.445 9.195C4.504 9.395 4.531 9.527 4.57 9.801C4.582 9.891 4.598 9.973 4.598 9.984L4.602 10H11.398L11.402 9.98C11.402 9.965 11.418 9.875 11.434 9.773C11.48 9.457 11.52 9.297 11.605 9.035C11.735 8.648 11.925 8.235 12.27 7.609C12.434 7.316 12.504 7.176 12.574 7.019C13.0909 5.8449 13.1371 4.51712 12.7032 3.30991C12.2692 2.10269 11.3881 1.10826 10.242 0.532002C9.62496 0.219547 8.94886 0.0409814 8.258 0.00800194C8.10044 0.000929421 7.94266 -0.000404796 7.785 0.00400194ZM9.57 1.762C9.84046 1.80825 10.0985 1.90965 10.3281 2.0599C10.5577 2.21016 10.7539 2.40604 10.9045 2.63537C11.0552 2.8647 11.157 3.12258 11.2037 3.39295C11.2504 3.66333 11.241 3.94043 11.176 4.207C11.1593 4.29513 11.1173 4.37647 11.055 4.441C10.9963 4.49171 10.9253 4.526 10.849 4.5404C10.7728 4.5548 10.6942 4.5488 10.621 4.523C10.1539 4.26296 9.68922 3.99862 9.227 3.73C7.945 2.988 7.883 2.953 7.832 2.902C7.76775 2.84389 7.72336 2.76709 7.70506 2.68241C7.68676 2.59774 7.69548 2.50946 7.73 2.43C7.785 2.324 8.047 2.102 8.262 1.984C8.472 1.867 8.719 1.785 8.937 1.754C8.988 1.746 9.039 1.742 9.051 1.738H9.266C9.43 1.738 9.473 1.742 9.57 1.762ZM4.543 11.012C4.40581 11.0377 4.28079 11.1076 4.187 11.211C4.043 11.359 3.984 11.535 4.007 11.77C4.0261 12.0807 4.15804 12.3737 4.378 12.594C4.602 12.82 4.878 12.957 5.195 12.992C5.305 13.004 10.695 13.004 10.805 12.992C11.1025 12.9623 11.3809 12.8318 11.594 12.622C11.754 12.465 11.859 12.293 11.93 12.09C12.012 11.84 12.02 11.605 11.957 11.434C11.923 11.3474 11.8719 11.2685 11.8068 11.2021C11.7417 11.1356 11.6639 11.0829 11.578 11.047C11.445 10.997 11.718 11 7.992 11C5.09 11 4.598 11.004 4.543 11.012ZM5.242 14.004C5.242 14.024 5.336 14.25 5.382 14.348C5.58272 14.771 5.88302 15.1391 6.25717 15.4207C6.63132 15.7022 7.06816 15.8888 7.53024 15.9645C7.99233 16.0402 8.46588 16.0028 8.91031 15.8553C9.35474 15.7079 9.75679 15.4549 10.082 15.118C10.367 14.82 10.574 14.496 10.722 14.098L10.758 14.004C10.758 14 9.516 14 8 14C6.484 14 5.242 14 5.242 14.004Z" fill="currentColor"/>
</g>
<defs>
<clipPath id="clip0_2613_7329">
<rect width="16" height="16" fill="white"/>
</clipPath>
</defs>
</svg>
