<svg width="16" height="16" viewBox="0 0 16 16" fill="none" xmlns="http://www.w3.org/2000/svg">
<path d="M7.723 0.00779803C7.22866 0.032018 6.74113 0.133236 6.278 0.307798C5.41668 0.623746 4.65888 1.17059 4.08759 1.88845C3.5163 2.60632 3.15353 3.46753 3.039 4.3778C3.004 4.6598 3.004 4.6908 3.004 5.9298C3.004 6.5818 3.008 7.1248 3.008 7.1398C3.016 7.1598 3.012 7.1638 2.996 7.1718L2.886 7.2148C2.61212 7.3255 2.35578 7.47539 2.125 7.6598C2 7.7578 1.758 7.9998 1.66 8.1248C1.297 8.5818 1.09 9.0818 1.02 9.6718C1.004 9.7768 1.004 9.9018 1.004 11.4958C1.004 13.1058 1.004 13.2148 1.02 13.3278C1.098 14.0078 1.383 14.6088 1.848 15.0858C2.297 15.5428 2.84 15.8358 3.457 15.9488C3.734 15.9998 3.336 15.9958 7.914 15.9998C12.148 15.9998 12.191 15.9998 12.402 15.9728C13.0428 15.8873 13.6382 15.5952 14.098 15.1408C14.5403 14.7107 14.8378 14.1536 14.949 13.5468C15 13.2728 14.996 13.3868 14.996 11.4998C14.996 9.6128 15 9.7268 14.949 9.4528C14.8595 8.96623 14.6498 8.50975 14.339 8.1248C14.197 7.95512 14.0404 7.79819 13.871 7.6558C13.638 7.46991 13.3784 7.31992 13.101 7.2108C13.008 7.1708 12.988 7.1638 12.992 7.1518C13 7.1168 13 4.9178 12.992 4.7618C12.9558 3.9808 12.7365 3.21925 12.3517 2.53865C11.967 1.85805 11.4275 1.27747 10.777 0.843798C9.87599 0.24264 8.80457 -0.0506509 7.723 0.00779803ZM8.352 2.0198C9.01794 2.09937 9.63813 2.39944 10.1138 2.87223C10.5895 3.34502 10.8934 3.96336 10.977 4.6288C10.997 4.7418 10.997 4.7688 10.997 5.8708L11 6.9998H5L5.004 5.8708C5.004 4.6448 5.004 4.6948 5.051 4.4448C5.1841 3.73846 5.5667 3.10351 6.129 2.6558C6.60615 2.27258 7.1894 2.045 7.8 2.0038C7.89 1.9958 8.249 2.0078 8.35 2.0198H8.352ZM8.203 9.0198C8.40687 9.06178 8.59256 9.16634 8.73417 9.31889C8.87578 9.47144 8.96627 9.66437 8.993 9.8708C8.996 9.9108 9 10.4338 9 11.5038C9 12.8398 9 13.0858 8.988 13.1478C8.96022 13.3294 8.88329 13.4999 8.76555 13.6409C8.6478 13.782 8.49373 13.8881 8.32 13.9478C8.21701 13.9826 8.10867 13.9988 8 13.9958C7.84384 14.0011 7.68893 13.9663 7.55 13.8948C7.41405 13.8264 7.29558 13.7277 7.20371 13.6063C7.11183 13.485 7.04899 13.3442 7.02 13.1948C7.004 13.1328 7.004 13.0468 7.004 11.4998C7.004 9.9528 7.004 9.8668 7.02 9.8048C7.11 9.3868 7.426 9.0818 7.848 9.0118C7.96617 8.99882 8.08554 9.00151 8.203 9.0198Z" fill="currentColor"/>
</svg>
