<svg width="16" height="16" viewBox="0 0 16 16" fill="none" xmlns="http://www.w3.org/2000/svg">
<path d="M7.785 0.0040594C7.50663 0.0167222 7.22973 0.0518362 6.957 0.109059C6.21888 0.268396 5.52619 0.5921 4.93044 1.05609C4.3347 1.52009 3.85123 2.11243 3.516 2.78906C3.26869 3.28845 3.10742 3.826 3.039 4.37906C3.004 4.66006 3.004 4.69106 3.004 5.92906C3.004 6.58206 3.008 7.12506 3.008 7.14106C3.016 7.16106 3.012 7.16406 2.996 7.17106C2.988 7.17606 2.938 7.19506 2.886 7.21506C2.61212 7.32576 2.35578 7.47566 2.125 7.66006C2 7.75806 1.758 8.00006 1.66 8.12506C1.297 8.58206 1.09 9.08206 1.02 9.67206C1.004 9.77706 1.004 9.90206 1.004 11.4961C1.004 13.1061 1.004 13.2151 1.02 13.3281C1.098 14.0081 1.383 14.6091 1.848 15.0861C2.297 15.5431 2.84 15.8361 3.457 15.9491C3.734 16.0001 3.336 15.9961 7.914 16.0001C12.148 16.0001 12.191 16.0001 12.402 15.9731C13.0428 15.8876 13.6382 15.5955 14.098 15.1411C14.5403 14.711 14.8378 14.1539 14.949 13.5471C15 13.2731 14.996 13.3871 14.996 11.5001C14.996 9.61306 15 9.72706 14.949 9.45306C14.8595 8.9665 14.6498 8.51001 14.339 8.12506C14.197 7.95538 14.0404 7.79845 13.871 7.65606C13.4298 7.3032 12.8975 7.08267 12.336 7.02006C12.238 7.00406 12.008 7.00406 8.613 7.00006H5L5.004 5.87106C5.004 5.06606 5.008 4.72706 5.016 4.68006C5.06449 4.22655 5.21603 3.79013 5.45902 3.40415C5.70201 3.01817 6.03003 2.69285 6.418 2.45306C6.76043 2.23965 7.14238 2.09751 7.54101 2.03513C7.93964 1.97276 8.34676 1.99144 8.738 2.09006C9.22173 2.21318 9.66718 2.45481 10.0342 2.79316C10.4011 3.1315 10.6781 3.5559 10.84 4.02806C11.008 4.48806 11.324 4.83206 11.695 4.94906C12.035 5.05906 12.41 4.98006 12.66 4.74206C12.7321 4.67356 12.7916 4.59302 12.836 4.50406C12.891 4.39406 12.906 4.32406 12.91 4.19506C12.918 4.07806 12.91 4.03506 12.86 3.82006C12.72 3.25371 12.4831 2.7158 12.16 2.23006C11.753 1.61737 11.2157 1.10218 10.5865 0.721344C9.9572 0.340504 9.25156 0.103424 8.52 0.0270594C8.29 0.0040594 7.965 -0.0029406 7.785 0.0040594ZM10.203 10.0201C10.5 10.0901 10.727 10.2581 10.871 10.5081C11.066 10.8481 11.039 11.2811 10.805 11.5981C10.6547 11.7951 10.4379 11.9308 10.195 11.9801C10.133 11.9961 10.031 11.9961 8 11.9961C5.969 11.9961 5.867 11.9961 5.805 11.9801C5.61146 11.9409 5.43376 11.8456 5.29413 11.7059C5.15451 11.5663 5.05915 11.3886 5.02 11.1951C5.00054 11.0658 5.00054 10.9343 5.02 10.8051C5.11 10.3871 5.43 10.0781 5.848 10.0121C5.898 10.0041 6.352 10.0001 8.028 10.0041C10.035 10.0041 10.148 10.0041 10.203 10.0201Z" fill="currentColor"/>
</svg>
