<svg width="16" height="16" viewBox="0 0 16 16" fill="none" xmlns="http://www.w3.org/2000/svg">
<path d="M1.816 0.00802106C1.437 0.0470211 1.094 0.180021 0.79 0.410021C0.695 0.480021 0.48 0.695021 0.41 0.790021C0.2 1.07002 0.0659996 1.38702 0.0199996 1.73002C-4.48897e-07 1.87102 -4.48897e-07 2.12902 0.0199996 2.27002C0.0659996 2.61302 0.2 2.93402 0.41 3.21002C0.48 3.30502 0.633 3.46002 0.73 3.54302C0.95025 3.72457 1.20681 3.85688 1.48244 3.93105C1.75807 4.00522 2.04638 4.01953 2.328 3.97302C2.60595 3.92546 2.87085 3.82018 3.10561 3.66395C3.34037 3.50773 3.53979 3.30404 3.691 3.06602C3.758 2.95702 3.746 2.96502 3.813 2.98002C3.867 2.99602 4.078 2.99602 7.993 2.99602C12.133 2.99602 12.145 2.99602 12.23 2.97302C12.246 2.96902 12.254 2.98002 12.297 3.04302C12.379 3.18002 12.461 3.28102 12.59 3.41002C12.762 3.58202 12.902 3.68702 13.102 3.78502C13.3779 3.92384 13.6822 3.99681 13.9911 3.9982C14.2999 3.99958 14.6049 3.92935 14.882 3.79302C15.102 3.68302 15.234 3.59002 15.41 3.41002C15.59 3.23002 15.684 3.09802 15.793 2.87902C15.863 2.73902 15.895 2.64902 15.933 2.50802C15.9793 2.34277 16.0008 2.17158 15.997 2.00002C15.997 1.79002 15.981 1.67202 15.935 1.49202C15.9038 1.36604 15.8578 1.24419 15.798 1.12902C15.7044 0.92611 15.5731 0.742853 15.411 0.589021C15.261 0.429637 15.0822 0.300031 14.884 0.207021C14.5416 0.0391726 14.1584 -0.0275878 13.7794 0.014565C13.4003 0.0567178 13.0412 0.206037 12.744 0.445021C12.5682 0.589975 12.4175 0.762968 12.298 0.957021C12.255 1.02002 12.248 1.03102 12.231 1.02702C12.146 1.00402 12.134 1.00402 8.001 1.00402C3.868 1.00402 3.856 1.00402 3.771 1.02702C3.755 1.03102 3.747 1.02002 3.704 0.957021C3.58395 0.766053 3.43521 0.594711 3.263 0.449021C2.85554 0.120994 2.33715 -0.0369971 1.816 0.00802106ZM1.816 6.00802C1.437 6.04702 1.094 6.18002 0.788999 6.41002C0.695 6.48002 0.48 6.69502 0.41 6.79002C0.2 7.07002 0.0659996 7.38702 0.0199996 7.73002C-4.48897e-07 7.87102 -4.48897e-07 8.12902 0.0199996 8.27002C0.0659996 8.61302 0.2 8.93002 0.41 9.21002C0.48 9.30902 0.695 9.52002 0.793 9.59402C1.15168 9.86666 1.59218 10.0097 2.04261 9.99966C2.49303 9.98967 2.92676 9.82729 3.273 9.53902C3.43 9.41002 3.602 9.21102 3.695 9.05902L3.73 9.00002L4.293 9.00402C4.766 9.00402 4.867 9.00802 4.93 9.02002C5.223 9.07002 5.46 9.15202 5.691 9.29302C5.859 9.39802 6.051 9.56302 6.18 9.71902C6.332 9.89502 6.332 9.89502 7.105 11.445C7.504 12.238 7.855 12.934 7.887 12.992C8.067 13.305 8.266 13.566 8.531 13.828C8.859 14.156 9.168 14.378 9.582 14.582C10.032 14.805 10.442 14.922 10.969 14.98C11.059 14.992 11.199 14.996 11.676 14.996L12.27 15L12.305 15.063C12.438 15.277 12.665 15.512 12.887 15.66C13.48 16.059 14.247 16.11 14.883 15.793C15.102 15.683 15.234 15.59 15.41 15.41C15.59 15.23 15.684 15.098 15.793 14.879C15.891 14.684 15.945 14.508 15.977 14.293C16.004 14.137 16.004 13.863 15.977 13.707C15.9481 13.506 15.8873 13.3109 15.797 13.129C15.7034 12.9261 15.5721 12.7429 15.41 12.589C15.26 12.4296 15.0812 12.3 14.883 12.207C14.5406 12.0392 14.1574 11.9724 13.7784 12.0146C13.3993 12.0567 13.0402 12.206 12.743 12.445C12.5716 12.5861 12.4238 12.7535 12.305 12.941L12.27 13L11.71 12.996C11.086 12.996 11.09 12.996 10.863 12.937C10.7283 12.9029 10.5976 12.8546 10.473 12.793C10.1535 12.6378 9.88191 12.399 9.687 12.102C9.625 12.012 9.507 11.777 8.891 10.547C8.492 9.75002 8.152 9.07402 8.137 9.05102L8.109 9.00002L10.125 8.99602C11.992 8.99602 12.141 8.99602 12.191 8.98002C12.223 8.97702 12.246 8.97302 12.25 8.97702C12.254 8.97702 12.277 9.01602 12.305 9.05502C12.383 9.18802 12.461 9.28102 12.59 9.41002C12.762 9.58202 12.902 9.68702 13.102 9.78502C13.3779 9.92384 13.6822 9.99681 13.9911 9.9982C14.2999 9.99958 14.6049 9.92935 14.882 9.79302C15.102 9.68302 15.234 9.59002 15.41 9.41002C15.59 9.23002 15.684 9.09802 15.793 8.87902C15.863 8.73902 15.895 8.64902 15.933 8.50802C15.9793 8.34277 16.0008 8.17158 15.997 8.00002C15.997 7.79002 15.981 7.67202 15.935 7.49202C15.9038 7.36604 15.8578 7.24419 15.798 7.12902C15.7044 6.92611 15.5731 6.74285 15.411 6.58902C15.261 6.42964 15.0822 6.30003 14.884 6.20702C14.5406 6.03844 14.1562 5.97165 13.7761 6.01454C13.396 6.05742 13.0362 6.20818 12.739 6.44902C12.5678 6.59421 12.4192 6.76407 12.298 6.95302L12.248 7.03102C12.248 7.03102 12.224 7.02302 12.192 7.02002C12.142 7.00402 11.888 7.00402 7.935 7.00002H3.73L3.695 6.93702C3.57454 6.75464 3.42875 6.59033 3.262 6.44902C2.8548 6.12124 2.33681 5.96327 1.816 6.00802ZM1.816 12.008C1.48644 12.0388 1.16981 12.1515 0.895 12.336C0.418 12.652 0.109 13.136 0.0229996 13.703C-0.00435536 13.9001 -0.00435536 14.1 0.0229996 14.297C0.109 14.859 0.41 15.336 0.879 15.657C1.13143 15.8264 1.41891 15.9364 1.71991 15.9788C2.0209 16.0212 2.32759 15.995 2.617 15.902C2.94634 15.7956 3.24231 15.6053 3.47585 15.3498C3.70938 15.0944 3.87244 14.7826 3.949 14.445C3.984 14.285 3.996 14.187 3.996 14C3.996 13.812 3.984 13.715 3.949 13.555C3.87373 13.2258 3.71645 12.921 3.49179 12.6689C3.26713 12.4168 2.98238 12.2256 2.664 12.113C2.46309 12.0424 2.25195 12.0052 2.039 12.003C1.957 12.003 1.855 12.003 1.816 12.008Z" fill="currentColor"/>
</svg>
