<svg width="16" height="16" viewBox="0 0 16 16" fill="none" xmlns="http://www.w3.org/2000/svg">
<g clip-path="url(#clip0_5449_8120)">
<path d="M9.273 0.32788C9.234 0.33188 8.703 0.41388 8.093 0.51188C4.953 1.01188 4.234 1.12488 4.164 1.14088C3.422 1.29288 2.77 1.75788 2.348 2.43388C2.238 2.61388 2.105 2.89388 2.043 3.08188C2.031 3.11688 2.027 3.12488 2.008 3.12888C1.878 3.15988 1.562 3.30888 1.398 3.40988C0.980532 3.67537 0.635811 4.04071 0.394999 4.47288C0.149321 4.91844 0.0146841 5.41666 0.00249867 5.92532C-0.0096868 6.43397 0.100939 6.93807 0.324999 7.39488C0.436999 7.62088 0.546999 7.78888 0.714999 7.99188C0.788999 8.08588 1.004 8.29688 1.098 8.37488L1.176 8.43788L1.867 11.1759C2.247 12.6839 2.574 13.9649 2.59 14.0229C2.883 14.9299 3.906 15.3129 4.672 14.7969C5.16 14.4729 5.414 13.8549 5.309 13.2569C5.21398 12.8632 5.11631 12.4702 5.016 12.0779C4.859 11.4609 4.734 10.9569 4.734 10.9569C4.738 10.9569 5.254 11.0349 5.887 11.1369C9.543 11.7189 9.203 11.6679 9.336 11.6759C9.426 11.6799 9.598 11.6719 9.707 11.6519C10.434 11.5269 11.027 10.9649 11.223 10.2149C11.258 10.0749 11.281 9.94088 11.289 9.78088C11.301 9.59788 11.301 2.40188 11.289 2.21888C11.2684 1.70289 11.052 1.21412 10.684 0.85188C10.5007 0.667957 10.2798 0.52589 10.0364 0.435438C9.793 0.344986 9.53292 0.308293 9.274 0.32788H9.273ZM9.414 5.99988V9.67988L9.394 9.67588C9.336 9.66388 9.109 9.62888 7.535 9.37888C6.63475 9.2371 5.73475 9.09377 4.835 8.94888C4.70979 8.93007 4.58508 8.90806 4.461 8.88288C4.29053 8.82908 4.13774 8.73026 4.01876 8.59685C3.89978 8.46343 3.81902 8.30037 3.785 8.12488C3.77 8.06188 3.77 7.96088 3.77 6.00388C3.77 3.75388 3.766 3.91788 3.816 3.75788C3.8793 3.56126 4.00235 3.38928 4.168 3.26588C4.25803 3.20244 4.3567 3.15226 4.461 3.11688C4.492 3.10888 4.661 3.07788 4.836 3.05088C5.184 2.99588 5.266 2.98388 7.633 2.60488C8.539 2.46088 9.305 2.33988 9.34 2.33188C9.375 2.32788 9.406 2.31988 9.41 2.31988C9.41 2.31988 9.414 3.97688 9.414 5.99988ZM14.023 0.87488C13.9892 0.879035 13.9555 0.884371 13.922 0.89088C13.848 0.90588 12.922 1.17088 12.875 1.19088C12.6681 1.27039 12.4955 1.41965 12.387 1.61288C12.2914 1.78715 12.2454 1.98429 12.254 2.18288C12.281 2.60188 12.52 2.93788 12.891 3.07388C13.0561 3.13384 13.2353 3.14358 13.406 3.10188C13.566 3.06188 14.402 2.81588 14.449 2.80088C14.576 2.74479 14.6897 2.66254 14.7828 2.55949C14.8758 2.45645 14.9461 2.33493 14.989 2.20288C15.023 2.08988 15.039 1.99988 15.039 1.87488C15.039 1.69888 15.004 1.54288 14.926 1.39488C14.8455 1.22725 14.7162 1.08788 14.555 0.995081C14.3938 0.902279 14.2084 0.860378 14.023 0.87488ZM13.055 5.00788C12.707 5.05488 12.398 5.32388 12.285 5.67588C12.2511 5.78045 12.2352 5.89 12.238 5.99988C12.238 6.17188 12.27 6.30488 12.336 6.44988C12.473 6.73788 12.742 6.94088 13.043 6.98788C13.105 6.99588 13.223 6.99988 13.641 6.99988C13.973 6.99988 14.187 6.99588 14.231 6.99188C14.4125 6.96522 14.5825 6.88695 14.7208 6.7664C14.8591 6.64584 14.9598 6.48807 15.011 6.31188C15.043 6.21088 15.055 6.11688 15.055 5.99988C15.055 5.93688 15.051 5.86288 15.043 5.82388C14.969 5.39788 14.653 5.06988 14.253 5.01188C14.191 5.00388 14.078 4.99988 13.641 4.99988C13.348 4.99988 13.082 5.00388 13.055 5.00788ZM13.125 8.87088C12.9414 8.88938 12.7671 8.96045 12.6229 9.07557C12.4786 9.19068 12.3707 9.34495 12.312 9.51988C12.184 9.88688 12.266 10.2969 12.523 10.5739C12.6179 10.6729 12.7323 10.7512 12.859 10.8039C13.2191 10.9137 13.5812 11.017 13.945 11.1139C14.101 11.1378 14.2604 11.1241 14.41 11.0739C14.5709 11.0102 14.7124 10.9057 14.8206 10.7707C14.9287 10.6356 14.9999 10.4748 15.027 10.3039C15.0426 10.1861 15.0426 10.0667 15.027 9.94888C15.0067 9.84177 14.9714 9.73808 14.922 9.64088C14.8622 9.5244 14.7789 9.4216 14.6774 9.33897C14.5758 9.25635 14.4582 9.19571 14.332 9.16088C14.0075 9.06532 13.6818 8.97397 13.355 8.88688C13.279 8.8742 13.202 8.86884 13.125 8.87088Z" fill="currentColor"/>
</g>
<defs>
<clipPath id="clip0_5449_8120">
<rect width="16" height="16" fill="white"/>
</clipPath>
</defs>
</svg>
