<svg width="16" height="16" viewBox="0 0 16 16" fill="none" xmlns="http://www.w3.org/2000/svg">
<g clip-path="url(#clip0_2538_41883)">
<path d="M1.816 0.00790625C1.48644 0.0386612 1.16981 0.151421 0.894998 0.335906C0.417998 0.651906 0.108998 1.13591 0.0229983 1.70291C-0.00435662 1.89996 -0.00435662 2.09985 0.0229983 2.29691C0.108998 2.85891 0.409998 3.33591 0.878998 3.65691C1.13143 3.82625 1.41891 3.93627 1.71991 3.9787C2.0209 4.02113 2.32759 3.99487 2.617 3.90191C3.04894 3.76193 3.41987 3.47817 3.668 3.09791L3.738 2.99991L4.82 3.00391C5.8 3.00391 5.91 3.00791 5.988 3.01991C6.199 3.04991 6.348 3.10991 6.441 3.19091C6.52 3.25391 6.586 3.39091 6.621 3.54691C6.668 3.74691 6.664 3.45691 6.664 7.99991C6.664 12.5429 6.668 12.2539 6.621 12.4529C6.586 12.6089 6.52 12.7459 6.437 12.8129C6.31876 12.8968 6.1824 12.9516 6.039 12.9729C5.887 12.9959 5.785 12.9999 4.762 12.9999H3.734L3.68 12.9099C3.5106 12.6539 3.28613 12.439 3.023 12.2809C2.76398 12.1288 2.47436 12.0362 2.17513 12.0099C1.8759 11.9836 1.57457 12.0243 1.293 12.1289C1.00054 12.2436 0.737444 12.4223 0.522998 12.6519C0.32161 12.871 0.172103 13.1327 0.0855513 13.4174C-0.00100058 13.7022 -0.0223794 14.0028 0.0229983 14.2969C0.108998 14.8589 0.409998 15.3359 0.878998 15.6569C1.13143 15.8263 1.41891 15.9363 1.71991 15.9787C2.0209 16.0211 2.32759 15.9949 2.617 15.9019C3.04834 15.763 3.4192 15.4807 3.668 15.1019L3.734 14.9999L4.848 14.9959C5.996 14.9959 6.004 14.9959 6.254 14.9609C7.051 14.8509 7.676 14.5079 8.098 13.9489C8.195 13.8159 8.262 13.7069 8.344 13.5429C8.508 13.2109 8.598 12.8829 8.648 12.4099C8.656 12.3439 8.66 11.9179 8.66 10.6599L8.664 8.99991H13V9.41791C13 9.76991 13.004 9.84791 13.012 9.89791C13.0273 9.97103 13.0592 10.0397 13.1051 10.0986C13.151 10.1575 13.2098 10.2052 13.277 10.2379C13.352 10.2779 13.414 10.2889 13.5 10.2889C13.5795 10.2904 13.6583 10.2733 13.73 10.2389C13.781 10.2109 13.855 10.1369 14.738 9.25391C15.48 8.51591 15.699 8.29291 15.723 8.25391C15.7695 8.1777 15.7911 8.08895 15.785 7.99991C15.7911 7.91086 15.7695 7.82211 15.723 7.74591C15.699 7.70691 15.48 7.48391 14.738 6.74591C13.855 5.86291 13.781 5.78891 13.73 5.76191C13.6598 5.72723 13.5823 5.70975 13.504 5.71091C13.3893 5.70783 13.2771 5.74522 13.1871 5.81652C13.0972 5.88782 13.0352 5.98849 13.012 6.10091C13.004 6.15191 13 6.23091 13 6.58191V6.99991H8.664L8.66 5.33191C8.66 3.49591 8.664 3.62191 8.61 3.30091C8.406 2.07391 7.605 1.26991 6.383 1.05891C6.059 1.00391 5.953 0.999906 4.766 0.999906H3.734L3.68 0.909906C3.405 0.489377 2.98267 0.186898 2.496 0.0619062C2.34669 0.0253362 2.19371 0.0058777 2.04 0.00390625C1.958 0.00390625 1.856 0.00390625 1.817 0.00790625H1.816Z" fill="currentColor"/>
</g>
<defs>
<clipPath id="clip0_2538_41883">
<rect width="16" height="16" fill="white"/>
</clipPath>
</defs>
</svg>
