<svg width="16" height="16" viewBox="0 0 16 16" fill="none" xmlns="http://www.w3.org/2000/svg">
<path d="M7.645 0.00816843C6.9351 0.0391462 6.23239 0.163551 5.555 0.378168C4.715 0.648168 3.902 1.06617 3.191 1.60217C2.19865 2.34715 1.39384 3.31342 0.840571 4.42412C0.287305 5.53482 0.000853145 6.7593 0.00400112 8.00017C-0.00080554 9.49035 0.412428 10.952 1.19676 12.2191C1.98108 13.4862 3.10506 14.5079 4.441 15.1682C4.77 15.3282 5.023 15.4382 5.344 15.5512C6.73102 16.0327 8.2228 16.1285 9.66 15.8282C11.3522 15.4703 12.8829 14.5739 14.023 13.2732C15.0658 12.0796 15.7306 10.6032 15.933 9.03117C15.98 8.65617 15.996 8.41117 15.996 8.00017C15.996 7.59017 15.98 7.34417 15.934 6.96917C15.6729 4.94759 14.65 3.10194 13.074 1.80917C11.7905 0.754408 10.2087 0.128408 8.551 0.0191684C8.348 0.00516843 7.832 -0.000831571 7.645 0.00816843ZM8.496 2.02017C9.38247 2.09132 10.2419 2.3593 11.0117 2.80458C11.7815 3.24986 12.4423 3.86123 12.946 4.59417C13.8303 5.88222 14.1788 7.46372 13.918 9.00417C13.7395 10.0696 13.2759 11.0669 12.5764 11.8902C11.877 12.7134 10.9676 13.332 9.945 13.6802C9.012 14.0002 7.985 14.0822 6.996 13.9182C5.7673 13.7129 4.63364 13.1283 3.754 12.2462C3.14447 11.6398 2.67395 10.9083 2.375 10.1022C2.1762 9.56614 2.05498 9.00447 2.015 8.43417C1.99935 8.14505 1.99935 7.85529 2.015 7.56617C2.07549 6.70743 2.32027 5.8718 2.7327 5.11616C3.14512 4.36052 3.71549 3.70259 4.405 3.18717C5.31248 2.51146 6.39291 2.10682 7.521 2.02017C7.743 2.00417 7.755 2.00017 8.067 2.00417C8.243 2.00817 8.41 2.01217 8.496 2.02017Z" fill="currentColor"/>
<path d="M4.871 7.00817C4.66321 7.03552 4.46927 7.12746 4.31657 7.27101C4.16387 7.41456 4.06012 7.60246 4.02 7.80817C4 7.90217 4 8.09817 4.02 8.19117C4.05894 8.38664 4.15513 8.56612 4.29634 8.70679C4.43754 8.84746 4.61738 8.94297 4.813 8.98117C4.875 8.99617 5.016 8.99617 8 8.99617C10.965 8.99617 11.125 8.99617 11.191 8.98017C11.3868 8.94185 11.5666 8.84587 11.7073 8.70456C11.8481 8.56325 11.9434 8.38306 11.981 8.18717C12 8.09717 12 7.90217 11.981 7.81317C11.9442 7.61957 11.8511 7.44111 11.7135 7.30008C11.5758 7.15905 11.3997 7.06169 11.207 7.02017L11.137 7.00417H8.03C6.26 7.00417 4.902 7.00417 4.871 7.00817Z" fill="currentColor"/>
</svg>
