<svg width="16" height="16" viewBox="0 0 16 16" fill="none" xmlns="http://www.w3.org/2000/svg">
<path d="M0.871001 7.00791C0.449001 7.06191 0.101001 7.38691 0.0200011 7.80791C1.06823e-06 7.90191 1.06823e-06 8.09791 0.0200011 8.19091C0.0588763 8.38624 0.154916 8.56563 0.295928 8.70628C0.43694 8.84694 0.616565 8.94252 0.812001 8.98091C0.875001 8.99591 1.148 8.99591 8 8.99591C14.809 8.99591 15.125 8.99591 15.191 8.97991C15.4185 8.93624 15.6235 8.81435 15.7706 8.63535C15.9176 8.45635 15.9974 8.23154 15.996 7.99991C15.996 7.77091 15.9176 7.54883 15.7739 7.37055C15.6302 7.19227 15.4298 7.06854 15.206 7.01991L15.136 7.00391H8.032C3.954 7.00391 0.902001 7.00391 0.871001 7.00791Z" fill="currentColor"/>
</svg>
