<svg width="16" height="16" viewBox="0 0 16 16" fill="none" xmlns="http://www.w3.org/2000/svg">
<g clip-path="url(#clip0_2538_42834)">
<path d="M7.633 0.0077954C6.56331 0.053982 5.51389 0.315282 4.54743 0.776088C3.58098 1.23689 2.7173 1.88776 2.008 2.6898C0.824026 4.02871 0.122713 5.72567 0.0160005 7.5098C-0.0567429 8.6814 0.128621 9.85468 0.559 10.9468C1.1564 12.4547 2.1968 13.7461 3.543 14.6508C5.17698 15.7351 7.14979 16.1876 9.093 15.9238C10.328 15.7551 11.5064 15.2998 12.534 14.5943C13.5616 13.8888 14.4098 12.9527 15.011 11.8608C15.6619 10.6787 16.0006 9.35021 15.995 8.0008C16.0004 6.41298 15.5309 4.85982 14.647 3.5408C13.7889 2.25942 12.5782 1.25392 11.161 0.645795C10.4206 0.329311 9.63686 0.126035 8.836 0.0427954C8.43612 0.00611019 8.03434 -0.0055792 7.633 0.0077954ZM11.203 7.0198C11.5 7.0898 11.727 7.2578 11.871 7.5078C12.066 7.8478 12.039 8.28079 11.805 8.59779C11.6547 8.79481 11.4379 8.93055 11.195 8.97979C11.133 8.99579 10.996 8.9958 8 8.9958C5.004 8.9958 4.867 8.99579 4.805 8.97979C4.61146 8.94064 4.43376 8.84529 4.29413 8.70566C4.15451 8.56604 4.05915 8.38834 4.02 8.19479C4.00054 8.06552 4.00054 7.93407 4.02 7.8048C4.11 7.3868 4.43 7.0778 4.848 7.0118C4.898 7.0038 5.551 6.9998 8.028 7.0038C11 7.0038 11.148 7.0038 11.203 7.0198Z" fill="currentColor"/>
</g>
<defs>
<clipPath id="clip0_2538_42834">
<rect width="16" height="16" fill="white"/>
</clipPath>
</defs>
</svg>
