<svg width="16" height="16" viewBox="0 0 16 16" fill="none" xmlns="http://www.w3.org/2000/svg">
<path d="M7.645 0.00790625C6.09876 0.0753433 4.6052 0.589408 3.345 1.48791C2.67981 1.96317 2.09133 2.5375 1.6 3.19091C0.558192 4.57717 -0.0022342 6.26582 0.00399966 7.99991C0.00399966 8.40991 0.0199997 8.65591 0.0659997 9.03091C0.235338 10.3442 0.728076 11.595 1.5 12.6709C2.3478 13.8475 3.49904 14.772 4.83096 15.3458C6.16288 15.9195 7.62554 16.1211 9.063 15.9289C11.0709 15.6638 12.9027 14.6449 14.187 13.0789C15.3622 11.6476 16.0025 9.85185 15.998 7.99991C15.9994 6.81604 15.7381 5.64662 15.2328 4.57601C14.7275 3.50541 13.9908 2.56031 13.076 1.80891C12.1058 1.01364 10.9619 0.457978 9.737 0.186906C9.378 0.109906 8.95 0.0469062 8.551 0.0199062C8.348 0.00390625 7.832 -9.37497e-05 7.645 0.00790625ZM4.75 3.00391C3.99123 3.9554 3.45819 5.06661 3.191 6.25391C3.145 6.47691 3.121 6.60891 3.066 6.96891L3.063 6.99991H2.086V6.97991C2.229 6.14194 2.54849 5.34395 3.02328 4.63882C3.49808 3.9337 4.11734 3.33755 4.84 2.88991C4.844 2.88991 4.8 2.94091 4.75 3.00391ZM11.344 3.01191C12.6586 3.89254 13.5714 5.25757 13.883 6.80891C13.898 6.89491 13.914 6.97291 13.914 6.97991V6.99991H13.426C13.156 6.99991 12.937 6.99991 12.937 6.99591C12.937 6.99591 12.93 6.93391 12.918 6.85891C12.7991 6.02357 12.5472 5.21265 12.172 4.45691C11.9152 3.93157 11.5992 3.43736 11.23 2.98391C11.191 2.93391 11.16 2.89391 11.172 2.89791C11.18 2.90191 11.258 2.95291 11.344 3.01191ZM7 5.26591V6.99991H6.043C5.238 6.99991 5.086 6.99991 5.086 6.98791C5.086 6.96791 5.125 6.76991 5.152 6.64791C5.4324 5.44436 6.07617 4.35617 6.996 3.53091C7 3.53091 7 4.31191 7 5.26591ZM9.223 3.74191C10.1075 4.61265 10.6977 5.73815 10.911 6.96091L10.914 6.99991H9V3.53091L9.04 3.56191C9.059 3.57791 9.145 3.65991 9.223 3.74191ZM3.066 9.02691C3.25366 10.4882 3.8432 11.8688 4.769 13.0149C4.809 13.0659 4.839 13.1049 4.829 13.1019C4.12691 12.6659 3.52313 12.0887 3.056 11.4069C2.62923 10.7868 2.32259 10.0921 2.152 9.35891C2.12647 9.24528 2.10446 9.13089 2.086 9.01591C2.086 8.99991 2.102 8.99991 2.574 8.99991H3.063L3.066 9.02691ZM7 12.4689L6.953 12.4289C6.14645 11.6954 5.55611 10.7551 5.246 9.70991C5.18231 9.48777 5.13024 9.26246 5.09 9.03491L5.086 8.99991H7V12.4689ZM10.91 9.03491C10.7174 10.1442 10.2147 11.1764 9.46 12.0119C9.32585 12.1592 9.18573 12.301 9.04 12.4369L9 12.4699V8.99991H10.914L10.91 9.03491ZM13.914 9.01491C13.7721 9.85122 13.4543 10.6479 12.9816 11.3523C12.5089 12.0566 11.8921 12.6526 11.172 13.1009C11.2004 13.0539 11.2332 13.0097 11.27 12.9689C12.1768 11.8238 12.7535 10.4528 12.938 9.00391C12.938 8.99991 13.156 8.99991 13.426 8.99991H13.914V9.01491Z" fill="currentColor"/>
</svg>
