<svg width="16" height="16" viewBox="0 0 16 16" fill="none" xmlns="http://www.w3.org/2000/svg">
<path d="M9.434 1.2098C9.24911 1.23377 9.07437 1.30811 8.92887 1.42468C8.78337 1.54126 8.67272 1.69559 8.609 1.8708C8.598 1.9138 8.039 3.9838 8.039 3.9958C8.039 3.9998 6.649 3.9998 4.953 4.0038C2.012 4.0038 1.859 4.0038 1.805 4.0198C1.61085 4.05942 1.43274 4.15556 1.29307 4.29612C1.15339 4.43668 1.05839 4.6154 1.02 4.8098C1 4.9018 1 5.0978 1.02 5.1908C1.05839 5.3852 1.15339 5.56392 1.29307 5.70448C1.43274 5.84504 1.61085 5.94118 1.805 5.9808C1.859 5.9958 2.004 5.9958 4.684 5.9958C7.355 5.9998 7.5 5.9998 7.496 6.0158C7.496 6.0198 7.258 6.9018 6.973 7.9728C6.688 9.0428 6.445 9.9378 6.441 9.9568L6.43 9.9998L4.145 10.0038C1.985 10.0038 1.859 10.0038 1.805 10.0198C1.61085 10.0594 1.43274 10.1556 1.29307 10.2961C1.15339 10.4367 1.05839 10.6154 1.02 10.8098C1 10.9018 1 11.0978 1.02 11.1908C1.09 11.5428 1.344 11.8318 1.68 11.9448C1.844 11.9998 1.64 11.9958 3.879 11.9958L5.89 11.9998L5.886 12.0228L5.675 12.8128C5.561 13.2338 5.464 13.6048 5.46 13.6328C5.44633 13.7417 5.44633 13.8519 5.46 13.9608C5.48463 14.1035 5.53982 14.2391 5.6218 14.3585C5.70378 14.4778 5.81061 14.578 5.93495 14.6522C6.05929 14.7264 6.19821 14.7728 6.34217 14.7883C6.48614 14.8038 6.63174 14.7879 6.769 14.7418C6.91165 14.6932 7.04136 14.6127 7.14826 14.5065C7.25517 14.4003 7.33648 14.2711 7.386 14.1288C7.401 14.0858 7.96 12.0158 7.96 12.0038C7.96 11.9998 9.35 11.9998 11.05 11.9958H14.136L14.206 11.9798C14.4297 11.9311 14.6299 11.8073 14.7735 11.629C14.9171 11.4507 14.9954 11.2287 14.9954 10.9998C14.9954 10.7709 14.9171 10.5489 14.7735 10.3706C14.6299 10.1923 14.4297 10.0685 14.206 10.0198L14.136 10.0038H11.316C8.644 9.9998 8.5 9.9998 8.503 9.9838C8.503 9.9798 8.741 9.0978 9.026 8.0268C9.312 6.9568 9.554 6.0628 9.558 6.0428L9.57 5.9998L11.855 5.9958H14.137L14.207 5.9798C14.613 5.8828 14.895 5.5938 14.98 5.1868C15 5.0968 15 4.9018 14.98 4.8118C14.9431 4.61851 14.8501 4.44036 14.7126 4.29954C14.5752 4.15871 14.3993 4.06143 14.207 4.0198L14.137 4.0038H12.12L10.11 3.9998L10.114 3.9768C10.118 3.9648 10.212 3.6168 10.321 3.2028C10.431 2.7888 10.528 2.4218 10.536 2.3868C10.552 2.3088 10.556 2.1208 10.54 2.0388C10.5127 1.89584 10.4584 1.7594 10.38 1.6368C10.3037 1.54029 10.2157 1.45363 10.118 1.3788C10.0031 1.30245 9.87434 1.24945 9.739 1.2228C9.63846 1.20717 9.53646 1.20314 9.435 1.2108L9.434 1.2098Z" fill="currentColor"/>
</svg>
