<svg width="16" height="16" viewBox="0 0 16 16" fill="none" xmlns="http://www.w3.org/2000/svg">
<path d="M2.82 1.00391C2.20124 1.04423 1.60969 1.27317 1.125 1.65991C1 1.75791 0.758002 1.99991 0.660002 2.12491C0.297002 2.58191 0.0900016 3.08191 0.0200016 3.67191C0.00400162 3.77691 0.00400162 4.00391 0.00400162 7.99591C0.00400162 12.0229 0.00400162 12.2109 0.0200016 12.3279C0.0590016 12.6839 0.152002 13.0079 0.305002 13.3159C0.52655 13.7695 0.858998 14.1598 1.27154 14.4507C1.68409 14.7415 2.16338 14.9236 2.665 14.9799C2.754 14.9959 3.109 14.9959 7.915 14.9999C11.59 14.9999 13.102 14.9999 13.191 14.9919C13.6385 14.9653 14.0741 14.8377 14.4652 14.6186C14.8563 14.3995 15.1926 14.0946 15.449 13.7269C15.746 13.3049 15.914 12.8629 15.98 12.3279C15.996 12.2179 15.996 12.0229 15.996 7.99991C15.996 3.97691 15.996 3.78091 15.98 3.67191C15.9186 3.10575 15.6965 2.56897 15.34 2.12491C15.1977 1.95518 15.0407 1.79825 14.871 1.65591C14.4298 1.30305 13.8975 1.08252 13.336 1.01991C13.234 1.00391 12.946 1.00391 8.046 1.00391H2.82ZM13.2 3.01991C13.3748 3.05558 13.5369 3.13748 13.6694 3.25708C13.8018 3.37668 13.8997 3.52959 13.953 3.69991C14.003 3.85991 14 3.52691 14 7.99991C14 12.4729 14.004 12.1399 13.953 12.2999C13.8997 12.4703 13.8016 12.6234 13.6689 12.743C13.5363 12.8626 13.374 12.9444 13.199 12.9799C13.152 12.9919 13.074 12.9959 12.539 12.9959C11.859 12.9999 11.839 12.9999 11.691 12.9489C11.5398 12.9 11.4025 12.8156 11.2905 12.7029C11.1785 12.5902 11.095 12.4524 11.047 12.3009C10.997 12.1409 11 12.4809 11.004 7.96491C11.004 4.10891 11.004 3.85191 11.02 3.80091C11.11 3.42591 11.355 3.15591 11.7 3.04691C11.844 2.99991 11.852 2.99991 12.527 3.00391C13.074 3.00391 13.153 3.00791 13.2 3.01991Z" fill="currentColor"/>
</svg>
