<svg width="16" height="16" viewBox="0 0 16 16" fill="none" xmlns="http://www.w3.org/2000/svg">
<path d="M2.82 1.00391C2.20119 1.04397 1.60956 1.27294 1.125 1.65991C1 1.75791 0.758002 1.99991 0.660002 2.12491C0.297002 2.58191 0.0900016 3.08191 0.0200016 3.67191C0.00400162 3.77691 0.00400162 4.00391 0.00400162 7.99591C0.00400162 12.0229 0.00400162 12.2109 0.0200016 12.3279C0.0590016 12.6839 0.152002 13.0079 0.305002 13.3159C0.52655 13.7695 0.858998 14.1598 1.27154 14.4507C1.68409 14.7415 2.16338 14.9236 2.665 14.9799C2.754 14.9959 3.109 14.9959 7.915 14.9999C11.59 14.9999 13.102 14.9999 13.191 14.9919C13.6384 14.9651 14.074 14.8374 14.465 14.6183C14.8561 14.3992 15.1925 14.0945 15.449 13.7269C15.746 13.3049 15.914 12.8629 15.98 12.3279C15.996 12.2179 15.996 12.0229 15.996 7.99991C15.996 3.97691 15.996 3.78091 15.98 3.67191C15.9178 3.10596 15.6958 2.56939 15.34 2.12491C15.1969 1.95586 15.04 1.79899 14.871 1.65591C14.4294 1.30362 13.8973 1.08316 13.336 1.01991C13.234 1.00391 12.946 1.00391 8.046 1.00391H2.82ZM4.2 3.01991C4.37476 3.05578 4.53674 3.13775 4.66915 3.25732C4.80155 3.37689 4.89956 3.5297 4.953 3.69991C5.003 3.85991 5 3.52591 5 7.99991C5 12.4739 5.004 12.1399 4.953 12.2999C4.89947 12.4702 4.80132 12.6231 4.66872 12.7427C4.53613 12.8623 4.37394 12.9442 4.199 12.9799C4.152 12.9919 4.074 12.9959 3.539 12.9959C2.859 12.9999 2.839 12.9999 2.691 12.9489C2.5399 12.8998 2.40267 12.8154 2.29068 12.7027C2.17868 12.5901 2.09515 12.4523 2.047 12.3009C1.997 12.1409 2 12.4809 2.004 7.96491C2.004 4.10891 2.004 3.85191 2.02 3.80091C2.11 3.42591 2.355 3.15591 2.7 3.04691C2.844 2.99991 2.852 2.99991 3.527 3.00391C4.074 3.00391 4.153 3.00791 4.2 3.01991Z" fill="currentColor"/>
</svg>
