<svg width="16" height="16" viewBox="0 0 16 16" fill="none" xmlns="http://www.w3.org/2000/svg">
<g clip-path="url(#clip0_3869_7729)">
<path d="M4.992 0.00390625C4.45471 0.0379853 3.93591 0.213215 3.488 0.511906C2.988 0.847906 2.59 1.34391 2.371 1.89791C2.355 1.94891 1.906 3.28891 1.375 4.87491C0.702998 6.89491 0.409998 7.78091 0.401998 7.83191C0.374614 7.98961 0.385875 8.15159 0.434815 8.30399C0.483755 8.45638 0.568916 8.59464 0.682998 8.70691C0.823998 8.84691 0.999998 8.94091 1.203 8.97991C1.266 8.99591 1.586 8.99591 8.003 8.99591C14.535 8.99591 14.743 8.99591 14.805 8.97991C14.84 8.97291 14.895 8.95691 14.925 8.94991C15.273 8.83591 15.535 8.53091 15.598 8.16791C15.6136 8.05645 15.6136 7.94336 15.598 7.83191C15.59 7.78191 15.308 6.92991 14.625 4.87491C14.094 3.28891 13.645 1.94891 13.629 1.89791C13.4275 1.392 13.0926 0.950197 12.6599 0.619501C12.2273 0.288804 11.7131 0.0815897 11.172 0.0199062C11.082 0.00390625 10.855 0.00390625 8.051 0.00390625H4.992ZM11.309 3.02391C11.516 3.05391 11.691 3.11391 11.887 3.20691C12.2993 3.40973 12.629 3.74866 12.8203 4.16645C13.0116 4.58423 13.0528 5.05524 12.937 5.49991C12.8268 5.91539 12.5889 6.2858 12.257 6.55891C11.9952 6.76893 11.685 6.90989 11.3546 6.96887C11.0242 7.02784 10.6843 7.00295 10.3661 6.89647C10.0478 6.78998 9.76136 6.60532 9.533 6.3594C9.30464 6.11347 9.14166 5.81417 9.059 5.48891C9.0177 5.32931 8.99918 5.16468 9.004 4.99991C9.004 4.78491 9.016 4.69491 9.059 4.51191C9.129 4.23391 9.262 3.96891 9.441 3.74191C9.511 3.65591 9.656 3.51191 9.742 3.44191C10.047 3.19891 10.414 3.05091 10.809 3.00791C10.914 2.99591 11.195 3.00491 11.309 3.02391ZM1.762 11.0119C1.58076 11.0413 1.41089 11.1193 1.27053 11.2376C1.13016 11.356 1.02456 11.5102 0.964998 11.6839C0.805934 12.3602 0.655921 13.0386 0.514998 13.7189C0.487675 13.9093 0.487675 14.1025 0.514998 14.2929C0.546998 14.5079 0.601998 14.6799 0.698998 14.8789C0.800998 15.0889 0.933998 15.2689 1.102 15.4339C1.442 15.7619 1.859 15.9539 2.332 15.9919C2.406 15.9999 4.008 15.9999 8.07 15.9959H13.707L13.805 15.9799C14.015 15.9409 14.184 15.8899 14.367 15.8049C14.6702 15.6583 14.9319 15.4383 15.1284 15.1648C15.3249 14.8913 15.4499 14.573 15.492 14.2389C15.5082 14.0726 15.5069 13.905 15.488 13.7389C15.468 13.6049 15.058 11.7619 15.031 11.6759C14.9823 11.5306 14.8993 11.3993 14.789 11.2929C14.6764 11.1795 14.538 11.095 14.3856 11.0468C14.2332 10.9985 14.0714 10.9879 13.914 11.0159C13.6917 11.0561 13.4895 11.17 13.34 11.3393C13.1904 11.5086 13.1024 11.7234 13.09 11.9489C13.082 12.0509 13.094 12.1369 13.137 12.3359C13.187 12.5659 13.195 12.6089 13.199 12.7189C13.2118 13.0248 13.11 13.3245 12.9136 13.5593C12.7172 13.7942 12.4403 13.9474 12.137 13.9889C12.004 14.0039 3.997 14.0039 3.867 13.9889C3.61271 13.9547 3.37533 13.8424 3.18775 13.6673C3.00016 13.4923 2.87164 13.2632 2.82 13.0119C2.79941 12.8863 2.79437 12.7587 2.805 12.6319C2.81825 12.543 2.83493 12.4546 2.855 12.3669C2.906 12.1369 2.918 12.0509 2.91 11.9529C2.90362 11.8131 2.86788 11.6761 2.80512 11.551C2.74236 11.4258 2.65397 11.3153 2.5457 11.2266C2.43743 11.1378 2.31171 11.0729 2.17669 11.0359C2.04167 10.9989 1.90038 10.9907 1.762 11.0119Z" fill="currentColor"/>
</g>
<defs>
<clipPath id="clip0_3869_7729">
<rect width="16" height="16" fill="white"/>
</clipPath>
</defs>
</svg>
