<svg width="16" height="16" viewBox="0 0 16 16" fill="none" xmlns="http://www.w3.org/2000/svg">
<g clip-path="url(#clip0_2538_46265)">
<path d="M7.633 0.0077954C6.56331 0.053982 5.51389 0.315282 4.54743 0.776088C3.58098 1.23689 2.7173 1.88776 2.008 2.6898C0.824026 4.02871 0.122713 5.72567 0.0160005 7.5098C-0.0567429 8.6814 0.128621 9.85468 0.559 10.9468C1.1564 12.4547 2.1968 13.7461 3.543 14.6508C5.17698 15.7351 7.14979 16.1876 9.093 15.9238C10.328 15.7551 11.5064 15.2998 12.534 14.5943C13.5616 13.8888 14.4098 12.9527 15.011 11.8608C15.6619 10.6787 16.0006 9.35021 15.995 8.0008C16.0004 6.41298 15.5309 4.85982 14.647 3.5408C13.7889 2.25942 12.5782 1.25392 11.161 0.645795C10.4206 0.329311 9.63686 0.126035 8.836 0.0427954C8.43612 0.00611019 8.03434 -0.0055792 7.633 0.0077954ZM8.203 4.0198C8.40687 4.06178 8.59256 4.16634 8.73417 4.31889C8.87578 4.47144 8.96626 4.66437 8.993 4.8708C8.996 4.9108 9 5.2768 9 5.9648V6.9998L10.074 7.0038C11.25 7.0038 11.168 6.9998 11.32 7.0508C11.4695 7.10169 11.6049 7.18714 11.7152 7.30019C11.8254 7.41325 11.9075 7.55072 11.9547 7.70145C12.0018 7.85218 12.0127 8.0119 11.9866 8.16765C11.9604 8.32339 11.8978 8.47077 11.804 8.59779C11.684 8.75779 11.504 8.8868 11.32 8.9488C11.168 8.99979 11.25 8.9958 10.074 8.9958L9 8.99979V10.0398C9 10.9058 9 11.0858 8.988 11.1478C8.96022 11.3294 8.88329 11.4999 8.76555 11.6409C8.6478 11.7819 8.49372 11.8881 8.32 11.9478C8.21701 11.9826 8.10867 11.9988 8 11.9958C7.84384 12.0011 7.68893 11.9663 7.55 11.8948C7.41576 11.8261 7.29854 11.7284 7.20685 11.6086C7.11517 11.4889 7.05133 11.3503 7.02 11.2028C7.004 11.1478 7.004 11.0698 7.004 10.0738L7 8.99979L5.926 8.9958C4.93 8.9958 4.852 8.99579 4.796 8.97979C4.64865 8.94873 4.51016 8.88498 4.39074 8.79325C4.27132 8.70152 4.17401 8.58415 4.106 8.44979C4.03416 8.31096 3.99905 8.15604 4.004 7.9998C4.00065 7.89119 4.01656 7.78285 4.051 7.6798C4.11073 7.50607 4.21685 7.35199 4.35786 7.23425C4.49887 7.1165 4.66941 7.03958 4.851 7.0118C4.915 6.9998 5.095 6.9998 5.962 6.9998H7L7.004 5.9258C7.004 4.7498 7 4.8318 7.051 4.6798C7.168 4.3278 7.473 4.0738 7.848 4.0118C7.96617 3.99882 8.08554 4.00151 8.203 4.0198Z" fill="currentColor"/>
</g>
<defs>
<clipPath id="clip0_2538_46265">
<rect width="16" height="16" fill="white"/>
</clipPath>
</defs>
</svg>
