<svg width="16" height="16" viewBox="0 0 16 16" fill="none" xmlns="http://www.w3.org/2000/svg">
<path d="M7.645 0.00816843C6.9351 0.0391462 6.23239 0.163551 5.555 0.378168C4.715 0.648168 3.902 1.06617 3.191 1.60217C2.19865 2.34715 1.39384 3.31342 0.840571 4.42412C0.287305 5.53482 0.000853145 6.7593 0.00400112 8.00017C-0.00080554 9.49035 0.412428 10.952 1.19676 12.2191C1.98108 13.4862 3.10506 14.5079 4.441 15.1682C4.77 15.3282 5.023 15.4382 5.344 15.5512C6.73102 16.0327 8.2228 16.1285 9.66 15.8282C11.3522 15.4703 12.8829 14.5739 14.023 13.2732C15.0658 12.0796 15.7306 10.6032 15.933 9.03117C15.98 8.65617 15.996 8.41117 15.996 8.00017C15.996 7.59017 15.98 7.34417 15.934 6.96917C15.6729 4.94759 14.65 3.10194 13.074 1.80917C11.7905 0.754408 10.2087 0.128408 8.551 0.0191684C8.348 0.00516843 7.832 -0.000831571 7.645 0.00816843ZM8.496 2.02017C9.38247 2.09132 10.2419 2.3593 11.0117 2.80458C11.7815 3.24986 12.4423 3.86123 12.946 4.59417C13.8303 5.88222 14.1788 7.46372 13.918 9.00417C13.7395 10.0696 13.2759 11.0669 12.5764 11.8902C11.877 12.7134 10.9676 13.332 9.945 13.6802C9.012 14.0002 7.985 14.0822 6.996 13.9182C5.7673 13.7129 4.63364 13.1283 3.754 12.2462C3.14447 11.6398 2.67395 10.9083 2.375 10.1022C2.1762 9.56614 2.05498 9.00447 2.015 8.43417C1.99935 8.14505 1.99935 7.85529 2.015 7.56617C2.07549 6.70743 2.32027 5.8718 2.7327 5.11616C3.14512 4.36052 3.71549 3.70259 4.405 3.18717C5.31248 2.51146 6.39291 2.10682 7.521 2.02017C7.743 2.00417 7.755 2.00017 8.067 2.00417C8.243 2.00817 8.41 2.01217 8.496 2.02017Z" fill="currentColor"/>
<path d="M7.871 4.00817C7.66578 4.03599 7.47408 4.12621 7.32186 4.26663C7.16964 4.40704 7.06426 4.59086 7.02 4.79317C7.004 4.86317 7.004 4.87517 7.004 5.93017L7 7.00017L5.93 7.00417C4.75 7.00417 4.84 7.00017 4.68 7.05417C4.344 7.16817 4.09 7.45717 4.02 7.80917C4 7.90217 4 8.09817 4.02 8.19117C4.09 8.54317 4.344 8.83217 4.68 8.94517C4.84 9.00017 4.75 8.99617 5.93 8.99617L7 9.00017L7.004 10.0702C7.004 11.1252 7.004 11.1372 7.02 11.2072C7.066 11.4102 7.16 11.5742 7.3 11.7152C7.438 11.8482 7.61 11.9382 7.813 11.9802C7.903 12.0002 8.093 12.0002 8.191 11.9802C8.543 11.9102 8.832 11.6602 8.945 11.3202C9 11.1602 8.996 11.2502 8.996 10.0702L9 9.00017L10.07 8.99617C11.125 8.99617 11.137 8.99617 11.207 8.98017C11.613 8.88317 11.895 8.59417 11.98 8.18717C12 8.09717 12 7.90217 11.98 7.81317C11.9426 7.61996 11.8495 7.44192 11.7122 7.30101C11.5748 7.16009 11.3992 7.06246 11.207 7.02017C11.137 7.00417 11.125 7.00417 10.07 7.00417L9 7.00017L8.996 5.93017C8.996 4.75017 9 4.84017 8.946 4.67617C8.88863 4.51116 8.78932 4.36392 8.65782 4.2489C8.52633 4.13389 8.36718 4.05506 8.196 4.02017C8.08841 4.00456 7.97945 4.00053 7.871 4.00817Z" fill="currentColor"/>
</svg>
