<svg width="16" height="16" viewBox="0 0 16 16" fill="none" xmlns="http://www.w3.org/2000/svg">
<path d="M7.871 1.0081C7.441 1.0661 7.105 1.3871 7.02 1.8081C7.004 1.8751 7.004 2.0161 7.004 4.5001C7.004 6.9841 7.004 7.1251 7.02 7.1911C7.09 7.5431 7.344 7.8321 7.68 7.9451C7.797 7.9851 7.867 7.9961 8 7.9961C8.11154 8.00075 8.22292 7.98378 8.328 7.9461C8.668 7.8241 8.902 7.5511 8.98 7.1881C8.996 7.1251 8.996 7.0041 8.996 4.5001C8.996 1.9961 8.996 1.8751 8.98 1.8121C8.93221 1.56572 8.79466 1.34585 8.594 1.1951C8.47435 1.11012 8.33856 1.05056 8.195 1.0201C8.08774 1.00456 7.97912 1.00054 7.871 1.0081Z" fill="currentColor"/>
<path d="M3.605 2.7701C3.4639 2.7929 3.32946 2.84613 3.211 2.9261C3.10595 2.99568 3.01133 3.07986 2.93 3.1761C2.15545 3.98851 1.58809 4.97561 1.27598 6.05382C0.963866 7.13202 0.916194 8.26956 1.137 9.3701C1.3339 10.3581 1.74187 11.2919 2.33299 12.1077C2.92412 12.9235 3.68445 13.602 4.562 14.0968C5.43956 14.5916 6.41362 14.891 7.41758 14.9746C8.42153 15.0582 9.4317 14.924 10.379 14.5811C11.5497 14.1565 12.5864 13.4283 13.383 12.4711C14.2174 11.467 14.7543 10.2494 14.933 8.9561C14.98 8.6161 14.996 8.3821 14.996 7.9991C14.996 7.6201 14.98 7.3861 14.934 7.0421C14.7289 5.56577 14.0585 4.19329 13.02 3.1241C12.9314 3.0217 12.8254 2.93571 12.707 2.8701C12.515 2.77079 12.296 2.73612 12.0827 2.77126C11.8693 2.80639 11.673 2.90945 11.523 3.0651C11.3626 3.23216 11.2652 3.44977 11.2475 3.68071C11.2298 3.91164 11.2929 4.14155 11.426 4.3311C11.446 4.3581 11.523 4.4481 11.602 4.5311C12.108 5.05694 12.493 5.68708 12.7298 6.37736C12.9666 7.06764 13.0496 7.80136 12.973 8.5271C12.8854 9.34919 12.5954 10.1368 12.1289 10.8194C11.6625 11.502 11.0341 12.0583 10.3001 12.4387C9.56606 12.8191 8.74919 13.0117 7.92253 12.9992C7.09588 12.9867 6.2852 12.7695 5.563 12.3671C4.48371 11.7646 3.66657 10.7828 3.27 9.6121C3.13927 9.23203 3.05532 8.83746 3.02 8.4371C3.00042 8.14543 3.00042 7.85277 3.02 7.5611C3.07352 6.93392 3.247 6.32285 3.531 5.7611C3.758 5.3081 4.02 4.9331 4.398 4.5311C4.477 4.4481 4.555 4.3581 4.574 4.3311C4.774 4.0501 4.813 3.6751 4.672 3.3541C4.582 3.1471 4.402 2.9641 4.195 2.8581C4.01128 2.77133 3.80623 2.74005 3.605 2.7681V2.7701Z" fill="currentColor"/>
</svg>
