<svg width="16" height="16" viewBox="0 0 16 16" fill="none" xmlns="http://www.w3.org/2000/svg">
<g clip-path="url(#clip0_2538_47032)">
<path d="M0.871002 0.00778958C0.643987 0.0379686 0.434257 0.145305 0.277002 0.31179C0.139527 0.456404 0.0486072 0.638941 0.0160016 0.83579C1.61678e-06 0.90979 1.61678e-06 15.0898 0.0160016 15.1638C0.0550016 15.3828 0.145002 15.5508 0.296002 15.7038C0.449002 15.8548 0.617002 15.9448 0.836002 15.9838C0.910002 15.9998 4.09 15.9998 4.164 15.9838C4.3695 15.9512 4.55894 15.853 4.704 15.7038C4.84497 15.5656 4.94113 15.3883 4.98 15.1948C4.996 15.1408 4.996 14.9958 4.996 12.3158L5 9.49979H11V10.0588C11 10.5938 11.004 10.7068 11.023 10.8008C11.051 10.9258 11.113 11.0618 11.183 11.1638C11.23 11.2268 11.332 11.3318 11.391 11.3788C11.527 11.4798 11.691 11.5508 11.867 11.5738C12.121 11.6138 12.387 11.5428 12.594 11.3868C12.637 11.3548 13.129 10.8668 14.016 9.97979C15.098 8.89779 15.379 8.60979 15.41 8.56179C15.5238 8.39664 15.5839 8.20036 15.582 7.99979C15.5855 7.84927 15.5518 7.70022 15.484 7.56579C15.41 7.41379 15.469 7.47579 14.016 6.01979C13.141 5.14479 12.636 4.64479 12.594 4.61279C12.411 4.47532 12.1856 4.40633 11.957 4.41779C11.7369 4.42635 11.5258 4.50765 11.3568 4.64896C11.1878 4.79028 11.0704 4.98364 11.023 5.19879C11.003 5.29279 11 5.40579 11 5.93779V6.49979H5L4.996 3.67979C4.996 1.00379 4.996 0.85979 4.98 0.80479C4.94067 0.611522 4.84416 0.434536 4.703 0.29679C4.56864 0.157508 4.39606 0.0611245 4.207 0.0197896L4.137 0.00378958H2.53C1.612 0.00378958 0.902002 0.00378958 0.871002 0.00778958Z" fill="currentColor"/>
<path d="M7.871 0.00778958C7.7374 0.0278012 7.60881 0.0729295 7.492 0.14079C7.37147 0.212666 7.26718 0.308804 7.18576 0.423107C7.10433 0.53741 7.04755 0.667385 7.019 0.80479C7.004 0.85879 7.004 0.98479 7.004 3.17979L7 5.49979H9L8.996 3.17979C8.996 0.983789 8.996 0.85979 8.98 0.80479C8.94067 0.611522 8.84416 0.434536 8.703 0.29679C8.56885 0.157829 8.39605 0.0623708 8.207 0.0227896C8.09623 0.00230121 7.98316 -0.00274675 7.871 0.00778958ZM7.004 12.8158C7.004 15.0158 7.004 15.1408 7.02 15.1958C7.07 15.4098 7.152 15.5588 7.297 15.7028C7.492 15.9028 7.723 15.9958 8 15.9958C8.13115 15.9988 8.26149 15.9743 8.38258 15.9239C8.50367 15.8734 8.61283 15.7981 8.703 15.7028C8.84416 15.565 8.94067 15.3881 8.98 15.1948C8.996 15.1408 8.996 15.0148 8.996 12.8158L9 10.4998H7L7.004 12.8158Z" fill="currentColor"/>
</g>
<defs>
<clipPath id="clip0_2538_47032">
<rect width="16" height="16" fill="white"/>
</clipPath>
</defs>
</svg>
