<svg width="16" height="16" viewBox="0 0 16 16" fill="none" xmlns="http://www.w3.org/2000/svg">
<g clip-path="url(#clip0_2538_47889)">
<path d="M7.645 0.00816843C6.9351 0.0391462 6.23239 0.163551 5.555 0.378168C4.715 0.648168 3.902 1.06617 3.191 1.60217C2.19865 2.34715 1.39384 3.31342 0.840571 4.42412C0.287305 5.53482 0.000853145 6.7593 0.00400112 8.00017C-0.00080554 9.49035 0.412428 10.952 1.19676 12.2191C1.98108 13.4862 3.10506 14.5079 4.441 15.1682C4.77 15.3282 5.023 15.4382 5.344 15.5512C6.73102 16.0327 8.2228 16.1285 9.66 15.8282C11.3522 15.4703 12.8829 14.5739 14.023 13.2732C15.0658 12.0796 15.7306 10.6032 15.933 9.03117C15.98 8.65617 15.996 8.41117 15.996 8.00017C15.996 7.59017 15.98 7.34417 15.934 6.96917C15.6729 4.94759 14.65 3.10194 13.074 1.80917C11.7905 0.754408 10.2087 0.128408 8.551 0.0191684C8.348 0.00516843 7.832 -0.000831571 7.645 0.00816843ZM8.496 2.02017C9.38247 2.09132 10.2419 2.3593 11.0117 2.80458C11.7815 3.24986 12.4423 3.86123 12.946 4.59417C13.8303 5.88222 14.1788 7.46372 13.918 9.00417C13.7395 10.0696 13.2759 11.0669 12.5764 11.8902C11.877 12.7134 10.9676 13.332 9.945 13.6802C9.012 14.0002 7.985 14.0822 6.996 13.9182C5.7673 13.7129 4.63364 13.1283 3.754 12.2462C3.14447 11.6398 2.67395 10.9083 2.375 10.1022C2.1762 9.56614 2.05498 9.00447 2.015 8.43417C1.99935 8.14505 1.99935 7.85529 2.015 7.56617C2.07549 6.70743 2.32027 5.8718 2.7327 5.11616C3.14512 4.36052 3.71549 3.70259 4.405 3.18717C5.31248 2.51146 6.39291 2.10682 7.521 2.02017C7.743 2.00417 7.755 2.00017 8.067 2.00417C8.243 2.00817 8.41 2.01217 8.496 2.02017Z" fill="currentColor"/>
<path d="M7.797 3.00417C7.52564 3.02099 7.25768 3.07344 7 3.16017C6.28328 3.4008 5.68255 3.90093 5.316 4.56217C5.168 4.83217 5.031 5.20317 5.008 5.41417C4.99094 5.56275 5.00812 5.71327 5.05821 5.85419C5.1083 5.99511 5.18999 6.12269 5.297 6.22717C5.38991 6.32105 5.50063 6.39543 5.62267 6.44595C5.74471 6.49646 5.8756 6.5221 6.00768 6.52136C6.13976 6.52061 6.27036 6.4935 6.39182 6.44161C6.51328 6.38971 6.62316 6.31409 6.715 6.21917C6.835 6.09417 6.91 5.96117 6.965 5.78117C7.01254 5.58816 7.11707 5.41394 7.265 5.28117C7.40311 5.1479 7.57671 5.05728 7.765 5.02017C7.859 5.00017 8.078 5.00017 8.172 5.02017C8.672 5.12517 9.02 5.57017 8.996 6.07417C8.99067 6.32525 8.88857 6.56457 8.711 6.74217C8.625 6.83617 8.562 6.88217 8.402 6.97217C8.13643 7.11648 7.89211 7.29686 7.676 7.50817C7.281 7.89517 7.066 8.30117 6.988 8.79717C6.96451 9.02323 6.96451 9.25111 6.988 9.47717C7.09 9.93717 7.461 10.2572 7.922 10.2772C8.102 10.2852 8.246 10.2572 8.402 10.1802C8.54078 10.1149 8.66226 10.0179 8.75659 9.89699C8.85092 9.77608 8.91547 9.63466 8.945 9.48417C8.96101 9.40185 8.96772 9.31799 8.965 9.23417L8.973 9.05917L8.996 9.02317C9.066 8.92217 9.207 8.81317 9.449 8.67617C10.0476 8.34168 10.5152 7.81407 10.7752 7.17952C11.0352 6.54498 11.0724 5.84102 10.8806 5.18262C10.6889 4.52422 10.2795 3.95031 9.71943 3.55463C9.15934 3.15896 8.48163 2.9649 7.797 3.00417ZM7.871 11.0082C7.68711 11.0332 7.51367 11.1084 7.36972 11.2255C7.22577 11.3427 7.11688 11.4972 7.055 11.6722C7.0173 11.7773 6.99999 11.8886 7.004 12.0002C7.004 12.1372 7.016 12.2152 7.059 12.3282C7.1157 12.4937 7.21526 12.6412 7.34753 12.7558C7.4798 12.8703 7.64007 12.9477 7.812 12.9802C7.902 13.0002 8.094 13.0002 8.192 12.9802C8.33161 12.9528 8.46376 12.8959 8.57957 12.8132C8.69539 12.7306 8.7922 12.6242 8.86351 12.501C8.93482 12.3779 8.97898 12.241 8.99304 12.0994C9.00709 11.9578 8.99071 11.8149 8.945 11.6802C8.88892 11.514 8.79008 11.3655 8.65843 11.2497C8.52678 11.1338 8.36694 11.0547 8.195 11.0202C8.08774 11.0046 7.97912 11.0006 7.871 11.0082Z" fill="currentColor"/>
</g>
<defs>
<clipPath id="clip0_2538_47889">
<rect width="16" height="16" fill="white"/>
</clipPath>
</defs>
</svg>
