<svg width="16" height="16" viewBox="0 0 16 16" fill="none" xmlns="http://www.w3.org/2000/svg">
<path d="M9.39 2.41821C9.13016 2.45176 8.89226 2.58124 8.723 2.78121C8.60431 2.92656 8.52971 3.10283 8.508 3.28921C8.504 3.33221 8.5 3.66421 8.5 4.20721V5.05921L8.422 5.07021C8.282 5.08621 8.012 5.13321 7.836 5.16821C5.828 5.59021 4.176 6.81621 3.016 8.75021C2.27841 9.99882 1.79387 11.3804 1.59 12.8162C1.555 13.0512 1.55 13.1682 1.578 13.2812C1.652 13.6372 1.93 13.9022 2.312 13.9812C2.391 14.0002 2.594 14.0002 2.672 13.9842C3.032 13.9142 3.328 13.6722 3.504 13.3092C3.559 13.1992 3.586 13.1092 3.625 12.9612C3.7987 12.281 4.12918 11.6509 4.59 11.1212C4.8115 10.8686 5.05331 10.6344 5.313 10.4212C6.145 9.75821 7.223 9.28521 8.343 9.09821L8.496 9.07421L8.5 9.90221C8.504 10.7892 8.504 10.7422 8.543 10.8822C8.59494 11.0474 8.68887 11.1962 8.8156 11.3142C8.94234 11.4322 9.09753 11.5152 9.266 11.5552C9.434 11.5982 9.629 11.5942 9.796 11.5432C9.891 11.5122 10.008 11.4532 10.086 11.3952C10.129 11.3632 10.77 10.7272 12.016 9.48021C13.641 7.85221 13.886 7.60521 13.918 7.55021C14.0287 7.38849 14.0861 7.19617 14.082 7.00021C14.0861 6.80426 14.0287 6.61194 13.918 6.45021C13.887 6.39521 13.641 6.14821 12.016 4.52021C10.77 3.27321 10.129 2.63721 10.086 2.60521C9.96069 2.51157 9.81449 2.4498 9.66 2.42521C9.57051 2.41325 9.47999 2.41091 9.39 2.41821Z" fill="currentColor"/>
</svg>
