<svg width="16" height="16" viewBox="0 0 16 16" fill="none" xmlns="http://www.w3.org/2000/svg">
<path d="M4.371 0.00820595C4.171 0.0352059 3.969 0.133206 3.824 0.266206C2.59718 1.65339 1.37849 3.04774 0.168001 4.44921C0.0560717 4.61073 -0.00138282 4.80376 0.00400111 5.00021C0.00400111 5.21521 0.0510011 5.37121 0.168001 5.55521C0.227001 5.64521 0.359001 5.77321 0.453001 5.83221C0.639237 5.95554 0.861588 6.01256 1.0842 5.99405C1.3068 5.97555 1.51669 5.8826 1.68 5.73021C1.715 5.70021 2.36 4.96021 3.117 4.09821C3.875 3.23021 4.497 2.52321 4.5 2.52321C4.504 2.52321 5.125 3.23021 5.883 4.09821C6.641 4.96121 7.285 5.69521 7.32 5.72721C7.43475 5.83538 7.57356 5.91473 7.725 5.95872C7.87643 6.00271 8.03616 6.01007 8.191 5.98021C8.38625 5.94315 8.56516 5.84636 8.703 5.70321C8.79828 5.61303 8.87359 5.50387 8.92406 5.38278C8.97453 5.26169 8.99904 5.13136 8.996 5.00021C9.00117 4.8041 8.94373 4.61145 8.832 4.45021C8.785 4.37421 5.262 0.347206 5.172 0.261206C5.03597 0.139868 4.87044 0.0564139 4.692 0.0192059C4.58609 0.00354116 4.47879 -0.000482809 4.372 0.00720595L4.371 0.00820595ZM14.574 2.42621C14.434 2.44921 14.297 2.50421 14.172 2.58221C14.113 2.62221 13.422 3.30921 8.382 8.34821C6.45307 10.2706 4.53006 12.199 2.613 14.1332C2.52543 14.2509 2.46489 14.3864 2.43571 14.5301C2.40653 14.6739 2.40943 14.8223 2.44419 14.9648C2.47896 15.1073 2.54473 15.2404 2.63683 15.3545C2.72893 15.4687 2.84508 15.5611 2.977 15.6252C3.14242 15.7061 3.32697 15.7398 3.5103 15.7225C3.69363 15.7052 3.86863 15.6376 4.016 15.5272C4.078 15.4802 15.406 4.16021 15.492 4.06021C15.6543 3.86899 15.7367 3.62259 15.722 3.37221C15.7205 3.22781 15.6845 3.08585 15.617 2.95821C15.5203 2.77196 15.3677 2.62064 15.1807 2.52542C14.9936 2.4302 14.7815 2.39486 14.574 2.42621Z" fill="currentColor"/>
</svg>
