<svg width="16" height="16" viewBox="0 0 16 16" fill="none" xmlns="http://www.w3.org/2000/svg">
<path d="M4.371 1.00818C4.16531 1.03763 3.97347 1.12902 3.821 1.27018C3.734 1.34818 1.191 4.40218 1.145 4.48018C1.07006 4.60532 1.02319 4.74525 1.00765 4.89029C0.992114 5.03532 1.00827 5.182 1.055 5.32018C1.121 5.52018 1.273 5.71918 1.453 5.83218C1.64052 5.95696 1.86498 6.01406 2.08933 5.99406C2.31368 5.97406 2.52451 5.87816 2.687 5.72218C2.723 5.68718 3.137 5.19518 3.625 4.60918C4.105 4.03518 4.496 3.56318 4.5 3.56318C4.504 3.56318 4.895 4.03518 5.375 4.60918C5.855 5.18818 6.277 5.68818 6.313 5.72318C6.543 5.94518 6.883 6.04318 7.191 5.98018C7.38624 5.94313 7.56516 5.84634 7.703 5.70318C7.8146 5.5979 7.89783 5.46617 7.945 5.32018C7.99173 5.182 8.00789 5.03532 7.99235 4.89029C7.97681 4.74525 7.92994 4.60532 7.855 4.48018C7.805 4.40218 5.262 1.34818 5.175 1.26618C5.03929 1.14133 4.87185 1.05623 4.691 1.02018C4.58509 1.00452 4.47779 1.00049 4.371 1.00818ZM13.086 3.77018C12.9416 3.7967 12.8037 3.85104 12.68 3.93018C12.594 3.98818 3.988 12.5942 3.93 12.6802C3.78211 12.9044 3.72724 13.1773 3.777 13.4412C3.844 13.7422 4.035 13.9922 4.305 14.1332C4.629 14.2972 5.008 14.2732 5.32 14.0702C5.406 14.0122 14.012 5.40618 14.07 5.32018C14.1754 5.16429 14.2338 4.98134 14.238 4.79318C14.2467 4.55695 14.1714 4.32529 14.0255 4.13929C13.8796 3.9533 13.6725 3.82501 13.441 3.77718C13.3235 3.75923 13.2041 3.75688 13.086 3.77018Z" fill="currentColor"/>
</svg>
