<svg width="16" height="16" viewBox="0 0 16 16" fill="none" xmlns="http://www.w3.org/2000/svg">
<path d="M7.723 1.00389C6.25577 1.06035 4.84376 1.57827 3.688 2.48389L3.618 2.54289L2.98 1.90989C2.75721 1.685 2.5322 1.46233 2.305 1.24189C2.11262 1.08379 1.86809 1.00331 1.61942 1.01626C1.37075 1.02922 1.13591 1.13466 0.960999 1.31189C0.825927 1.4456 0.732195 1.61536 0.690999 1.80089L0.675999 1.87089L0.671999 3.80089C0.671999 5.94089 0.667999 5.82089 0.721999 5.98089C0.776999 6.14089 0.843999 6.25389 0.968999 6.37489C1.10675 6.51605 1.28373 6.61256 1.477 6.65189C1.531 6.66789 1.645 6.66789 3.449 6.67189C4.832 6.67189 5.387 6.67189 5.441 6.66389C5.60724 6.64719 5.76642 6.58813 5.90333 6.49237C6.04024 6.3966 6.1503 6.26733 6.223 6.11689C6.258 6.05089 6.297 5.92589 6.313 5.84689C6.32922 5.71998 6.32787 5.59144 6.309 5.46489C6.28081 5.3292 6.22349 5.20125 6.141 5.08989C5.95766 4.8856 5.76756 4.68749 5.571 4.49589L5.043 3.96889L5.063 3.95289C5.117 3.90989 5.32 3.77289 5.426 3.71489C6.23037 3.2273 7.15767 2.98055 8.098 3.00389C8.391 3.00789 8.602 3.02689 8.868 3.07389C9.77336 3.23376 10.6172 3.63992 11.3069 4.2478C11.9967 4.85568 12.5056 5.64179 12.778 6.51989C12.8812 6.85828 12.9489 7.20649 12.98 7.55889C13 7.73389 13 8.22989 12.984 8.39489C12.8962 9.49935 12.4443 10.5434 11.6992 11.3634C10.9542 12.1834 9.95802 12.733 8.867 12.9259C8.61288 12.9718 8.35522 12.9952 8.097 12.9959C7.2139 13.0175 6.3412 12.8017 5.57 12.3709C5.48259 12.318 5.38972 12.2748 5.293 12.2419C5.093 12.1839 4.863 12.1869 4.672 12.2539C4.53671 12.3014 4.41319 12.3774 4.30975 12.4767C4.20632 12.576 4.12539 12.6964 4.07241 12.8296C4.01944 12.9629 3.99565 13.1059 4.00265 13.2492C4.00965 13.3924 4.04728 13.5324 4.113 13.6599C4.183 13.7899 4.285 13.9099 4.403 13.9959C4.5 14.0699 4.82 14.2419 5.082 14.3629C6.28563 14.9144 7.62089 15.1135 8.93306 14.9372C10.2452 14.7609 11.4806 14.2165 12.496 13.3669C12.8143 13.095 13.1097 12.7974 13.379 12.4769C14.3041 11.3707 14.8625 10.0044 14.977 8.56689C15.096 7.09163 14.746 5.61647 13.977 4.35189C13.4353 3.47246 12.7085 2.72169 11.847 2.15189C11.3231 1.80771 10.7558 1.53465 10.16 1.33989C9.373 1.08872 8.5486 0.975059 7.723 1.00389Z" fill="currentColor"/>
</svg>
