<svg width="16" height="16" viewBox="0 0 16 16" fill="none" xmlns="http://www.w3.org/2000/svg">
<path d="M3.309 0.00396635C2.5585 0.0481282 1.84154 0.330077 1.262 0.808966C1.10139 0.950047 0.950079 1.10136 0.808999 1.26197C0.641207 1.46359 0.496943 1.68367 0.378999 1.91797C0.183758 2.29961 0.0616562 2.71441 0.0189988 3.14097C-1.22748e-06 3.30897 -1.22748e-06 3.68997 0.0199988 3.85897C0.0989988 4.56597 0.363999 5.19897 0.809999 5.73897C0.899999 5.84797 1.153 6.10197 1.263 6.19097C1.673 6.53097 2.146 6.76997 2.653 6.89497C2.958 6.96897 3.169 6.99597 3.501 6.99597C3.759 6.99597 3.872 6.98397 4.099 6.94897C4.29 6.91397 4.564 6.83897 4.751 6.76897C4.759 6.76897 4.915 6.94497 5.278 7.37897C5.563 7.71897 5.794 7.99597 5.794 7.99997C5.794 8.00397 5.564 8.28097 5.278 8.62097C4.915 9.05497 4.758 9.23097 4.751 9.23097C4.45182 9.11864 4.13912 9.04635 3.821 9.01597C3.59457 8.99972 3.36722 9.00105 3.141 9.01997C2.45071 9.09131 1.79712 9.3659 1.263 9.80897C1.10239 9.95005 0.951079 10.1014 0.809999 10.262C0.642207 10.4636 0.497943 10.6837 0.379999 10.918C0.184758 11.2996 0.0626562 11.7144 0.0199988 12.141C0.000998773 12.309 0.000998773 12.691 0.0199988 12.859C0.0989988 13.566 0.363999 14.199 0.809999 14.739C0.899999 14.848 1.153 15.102 1.263 15.191C1.673 15.531 2.146 15.77 2.653 15.895C2.958 15.969 3.169 15.996 3.501 15.996C4.00013 15.9974 4.49377 15.8919 4.94866 15.6864C5.40355 15.481 5.80911 15.1804 6.138 14.805C6.61 14.265 6.899 13.598 6.981 12.859C7.001 12.691 7.001 12.309 6.981 12.141C6.94359 11.7805 6.85259 11.4276 6.711 11.094C6.716 11.09 7.767 10.246 9.048 9.22297C10.329 8.19497 11.435 7.30897 11.501 7.25297C12.773 6.18439 14.0427 5.11305 15.31 4.03897C15.603 3.75397 15.759 3.37897 15.759 2.96897C15.759 2.61697 15.646 2.29297 15.423 2.02297C15.399 1.99297 15.149 1.73397 14.868 1.45697C14.45 1.03897 14.341 0.933966 14.267 0.882966C13.8486 0.564705 13.321 0.425516 12.8 0.495966C12.339 0.562966 11.929 0.769966 11.62 1.09397C11.577 1.14097 10.698 2.17997 9.67 3.40197C9.04814 4.14533 8.42347 4.88633 7.796 5.62497C7.788 5.62497 6.769 4.76197 6.769 4.75397C6.772 4.74997 6.792 4.68797 6.815 4.61697C6.894 4.38297 6.952 4.12097 6.979 3.85897C6.999 3.69097 6.999 3.30897 6.979 3.14097C6.90804 2.44998 6.63343 1.79564 6.19 1.26097C6.04917 1.10108 5.8982 0.950436 5.738 0.809966C5.53496 0.63908 5.31201 0.493357 5.074 0.375966C4.69625 0.183244 4.28593 0.0625208 3.864 0.0199664C3.6793 0.00692971 3.49414 0.00159175 3.309 0.00396635ZM3.66 2.00797C4.105 2.05797 4.496 2.29297 4.742 2.65997C5.066 3.13997 5.086 3.76597 4.793 4.26997C4.762 4.31997 4.723 4.36697 4.559 4.53097C4.352 4.73797 4.305 4.77697 4.176 4.83997C3.9702 4.94305 3.74355 4.99772 3.51339 4.9998C3.28322 5.00188 3.05563 4.95131 2.848 4.85197C2.69725 4.78218 2.56064 4.68523 2.445 4.56597C2.32195 4.4509 2.22244 4.31301 2.152 4.15997C1.99497 3.83702 1.95776 3.4688 2.047 3.12097C2.097 2.92097 2.203 2.71497 2.332 2.55497C2.582 2.25218 2.93835 2.05647 3.328 2.00797C3.41 1.99997 3.578 1.99997 3.66 2.00797ZM3.66 11.008C3.828 11.028 3.992 11.07 4.14 11.141C4.293 11.215 4.324 11.238 4.535 11.445C4.746 11.656 4.785 11.703 4.855 11.852C4.95127 12.0568 5.0006 12.2805 4.99939 12.5068C4.99818 12.733 4.94646 12.9562 4.848 13.16C4.72945 13.4035 4.54695 13.6102 4.32 13.758C4.10312 13.8981 3.85394 13.9803 3.59625 13.9968C3.33855 14.0132 3.08094 13.9634 2.848 13.852C2.69725 13.7822 2.56064 13.6852 2.445 13.566C2.32195 13.4509 2.22244 13.313 2.152 13.16C1.99497 12.837 1.95776 12.4688 2.047 12.121C2.097 11.921 2.203 11.715 2.332 11.555C2.582 11.2522 2.93835 11.0565 3.328 11.008C3.41 11 3.578 11 3.66 11.008Z" fill="currentColor"/>
<path d="M9.867 9.84397C8.504 10.938 8.367 11.051 8.379 11.063C8.383 11.066 9.102 11.922 9.973 12.957C10.519 13.6098 11.0683 14.2598 11.621 14.907C12.266 15.582 13.301 15.715 14.101 15.23C14.285 15.121 14.328 15.082 14.867 14.543C15.148 14.266 15.398 14.008 15.422 13.977C15.598 13.762 15.707 13.512 15.746 13.23C15.766 13.094 15.758 12.867 15.73 12.734C15.6715 12.4375 15.5231 12.1662 15.305 11.957C13.9973 10.849 12.6873 9.74363 11.375 8.64097C11.371 8.64097 10.695 9.18397 9.867 9.84397Z" fill="currentColor"/>
</svg>
