<svg width="16" height="16" viewBox="0 0 16 16" fill="none" xmlns="http://www.w3.org/2000/svg">
<g clip-path="url(#clip0_2538_50172)">
<path d="M12.309 0.00396635C11.5585 0.0481282 10.8415 0.330077 10.262 0.808966C10.1014 0.950047 9.95008 1.10136 9.809 1.26197C9.64121 1.46359 9.49694 1.68367 9.379 1.91797C9.18376 2.29961 9.06166 2.71441 9.019 3.14097C9.004 3.28897 9 3.68397 9.016 3.82097C9.023 3.91797 9.046 4.07397 9.051 4.09397C9.055 4.10197 8.68 4.29297 7.555 4.85497L6.055 5.60497L5.941 5.49197C5.68615 5.24209 5.39357 5.03388 5.074 4.87497C4.68298 4.67559 4.25723 4.55336 3.82 4.51497C3.59354 4.49905 3.3662 4.50072 3.14 4.51997C2.44971 4.59131 1.79612 4.8659 1.262 5.30897C1.10139 5.45005 0.950079 5.60136 0.808999 5.76197C0.641207 5.96359 0.496943 6.18367 0.378999 6.41797C0.183758 6.79961 0.0616562 7.21441 0.0189988 7.64097C-1.22748e-06 7.80897 -1.22748e-06 8.18997 0.0199988 8.35897C0.0989988 9.06597 0.363999 9.69897 0.809999 10.239C0.899999 10.348 1.153 10.602 1.263 10.691C1.79635 11.1361 2.45081 11.4113 3.142 11.481C3.31 11.5 3.692 11.5 3.86 11.481C4.41532 11.426 4.94896 11.2369 5.415 10.93C5.579 10.824 5.775 10.672 5.895 10.55C5.942 10.508 5.946 10.504 5.965 10.516C5.993 10.527 8.955 12.172 8.985 12.191L9.013 12.207L9.005 12.309C8.95697 13.1915 9.24454 14.0596 9.81 14.739C9.9 14.848 10.153 15.102 10.263 15.191C10.673 15.531 11.146 15.77 11.653 15.895C11.958 15.969 12.169 15.996 12.501 15.996C13.0001 15.9974 13.4938 15.8919 13.9487 15.6864C14.4035 15.481 14.8091 15.1804 15.138 14.805C15.61 14.265 15.899 13.598 15.981 12.859C16.001 12.691 16.001 12.309 15.981 12.141C15.91 11.45 15.6354 10.7956 15.192 10.261C15.0509 10.1007 14.8996 9.94973 14.739 9.80897C14.536 9.63808 14.313 9.49236 14.075 9.37497C13.684 9.17559 13.2582 9.05336 12.821 9.01497C12.5945 8.99905 12.3672 9.00072 12.141 9.01997C11.4507 9.09131 10.7971 9.3659 10.263 9.80897C10.157 9.89497 9.903 10.149 9.817 10.25C9.782 10.29 9.751 10.324 9.747 10.324C9.743 10.324 9.107 9.97297 8.333 9.53897C6.97 8.78097 6.927 8.75797 6.927 8.73897C6.927 8.72697 6.938 8.65997 6.95 8.59797C6.985 8.37797 6.997 8.25797 6.997 7.99997C7.00186 7.81912 6.98879 7.63824 6.958 7.45997C6.95 7.39797 6.95 7.39797 6.966 7.38697C6.974 7.38297 7.649 7.04297 8.462 6.63697L9.946 5.89497L10.06 6.00797C10.321 6.26197 10.59 6.45697 10.919 6.62097C11.3008 6.81568 11.7156 6.93776 12.142 6.98097C12.31 6.99997 12.692 6.99997 12.86 6.98097C13.5803 6.90731 14.26 6.61248 14.806 6.13697C15.4717 5.55359 15.8916 4.73959 15.981 3.85897C16.001 3.69097 16.001 3.30897 15.981 3.14097C15.91 2.44998 15.6354 1.79564 15.192 1.26097C15.0509 1.10071 14.8996 0.949725 14.739 0.808966C14.536 0.63808 14.313 0.492357 14.075 0.374966C13.6972 0.182591 13.2869 0.0622079 12.865 0.0199664C12.6803 0.00692971 12.4951 0.00159175 12.31 0.00396635H12.309ZM12.66 2.00797C13.105 2.05797 13.496 2.29297 13.742 2.65997C13.8531 2.82508 13.9304 3.0106 13.9693 3.20578C14.0083 3.40096 14.0081 3.60192 13.9689 3.79704C13.9296 3.99216 13.8521 4.17756 13.7407 4.3425C13.6293 4.50744 13.4863 4.64866 13.32 4.75797C13.1031 4.89811 12.8539 4.98033 12.5962 4.99678C12.3386 5.01324 12.0809 4.96338 11.848 4.85197C11.6972 4.78218 11.5606 4.68523 11.445 4.56597C11.3219 4.4509 11.2224 4.31301 11.152 4.15997C10.995 3.83702 10.9578 3.4688 11.047 3.12097C11.097 2.92097 11.203 2.71497 11.332 2.55497C11.582 2.25218 11.9383 2.05647 12.328 2.00797C12.41 1.99997 12.578 1.99997 12.66 2.00797ZM3.66 6.50797C4.105 6.55797 4.496 6.79297 4.742 7.15997C4.85312 7.32508 4.93039 7.5106 4.96934 7.70578C5.00828 7.90096 5.00813 8.10192 4.96888 8.29704C4.92963 8.49216 4.85207 8.67756 4.74069 8.8425C4.62931 9.00745 4.48632 9.14866 4.32 9.25797C4.10312 9.39811 3.85394 9.48033 3.59625 9.49678C3.33855 9.51324 3.08094 9.46338 2.848 9.35197C2.69725 9.28218 2.56064 9.18523 2.445 9.06597C2.32195 8.9509 2.22244 8.81301 2.152 8.65997C1.99497 8.33702 1.95776 7.9688 2.047 7.62097C2.097 7.42097 2.203 7.21497 2.332 7.05497C2.582 6.75218 2.93835 6.55647 3.328 6.50797C3.41 6.49997 3.578 6.49997 3.66 6.50797ZM12.66 11.008C13.105 11.058 13.496 11.293 13.742 11.66C13.8531 11.8251 13.9304 12.0106 13.9693 12.2058C14.0083 12.401 14.0081 12.6019 13.9689 12.797C13.9296 12.9922 13.8521 13.1776 13.7407 13.3425C13.6293 13.5074 13.4863 13.6487 13.32 13.758C13.1031 13.8981 12.8539 13.9803 12.5962 13.9968C12.3386 14.0132 12.0809 13.9634 11.848 13.852C11.6972 13.7822 11.5606 13.6852 11.445 13.566C11.3219 13.4509 11.2224 13.313 11.152 13.16C10.995 12.837 10.9578 12.4688 11.047 12.121C11.097 11.921 11.203 11.715 11.332 11.555C11.582 11.2522 11.9383 11.0565 12.328 11.008C12.41 11 12.578 11 12.66 11.008Z" fill="currentColor"/>
</g>
<defs>
<clipPath id="clip0_2538_50172">
<rect width="16" height="16" fill="white"/>
</clipPath>
</defs>
</svg>
