<svg width="16" height="16" viewBox="0 0 16 16" fill="none" xmlns="http://www.w3.org/2000/svg">
<path d="M3.816 0.00795313C3.434 0.0469531 3.063 0.194953 2.754 0.433953C2.672 0.499953 2.473 0.703953 2.41 0.788953C2.203 1.06195 2.078 1.35895 2.02 1.70695L2.004 1.80895V3.78495L2 5.75795L2.027 5.73395C2.238 5.55895 2.418 5.43795 2.648 5.31995C2.965 5.15995 3.289 5.06195 3.656 5.01995C3.766 5.00395 3.957 5.00395 8 5.00395C12.02 5.00395 12.234 5.00395 12.344 5.01995C12.947 5.08724 13.5153 5.33664 13.973 5.73495L14 5.76195L13.996 5.28495C13.996 4.84795 13.992 4.80095 13.976 4.70295C13.926 4.36695 13.796 4.06295 13.59 3.78895C13.4764 3.65019 13.3491 3.52321 13.21 3.40995C12.9417 3.20589 12.6263 3.07279 12.293 3.02295C12.195 3.00295 12.164 3.00295 11.195 2.99995C10.215 2.99595 10.199 2.99595 10.109 2.97695C9.594 2.87895 9.191 2.61695 8.918 2.19895C8.79439 2.01412 8.7081 1.8069 8.664 1.58895C8.62916 1.4267 8.57406 1.26946 8.5 1.12095C8.4051 0.921299 8.27541 0.740137 8.117 0.585953C7.7846 0.252153 7.34443 0.0473034 6.875 0.00795313C6.765 -4.68753e-05 3.922 -4.68753e-05 3.816 0.00795313ZM3.86 6.00395C3.55056 6.02958 3.25051 6.12277 2.981 6.27695C2.70509 6.44004 2.47258 6.66727 2.3032 6.93936C2.13382 7.21146 2.03255 7.52039 2.008 7.83995C1.996 7.99595 2 10.164 2.016 10.254C2.07067 10.6854 2.26475 11.0872 2.56872 11.3982C2.87269 11.7092 3.26993 11.9124 3.7 11.977L3.809 11.997H5.406L7 12V14L4.934 14.004C2.977 14.004 2.859 14.004 2.804 14.02C2.60985 14.0596 2.43174 14.1557 2.29206 14.2963C2.15239 14.4368 2.05739 14.6156 2.019 14.81C2 14.902 2 15.098 2.019 15.191C2.05794 15.3864 2.15413 15.5659 2.29534 15.7066C2.43654 15.8472 2.61638 15.9427 2.812 15.981C2.875 15.996 3.082 15.996 8 15.996C12.887 15.996 13.125 15.996 13.191 15.98C13.3868 15.9416 13.5666 15.8457 13.7073 15.7043C13.8481 15.563 13.9434 15.3828 13.981 15.187C14 15.097 14 14.902 13.981 14.813C13.9442 14.6194 13.8511 14.4409 13.7135 14.2999C13.5758 14.1588 13.3997 14.0615 13.207 14.02L13.137 14.004H11.07L9 14V12L10.598 11.996H12.191L12.301 11.976C12.7237 11.9129 13.1148 11.7155 13.4166 11.4129C13.7185 11.1104 13.9149 10.7188 13.977 10.296L13.997 10.184V7.81595L13.977 7.70295C13.9389 7.44381 13.8498 7.19479 13.7149 6.97028C13.58 6.74577 13.4019 6.55022 13.191 6.39495C12.93 6.19495 12.621 6.06995 12.254 6.01495C12.204 6.00795 11.32 6.00395 8.039 6.00395H3.86ZM9.202 8.01995C9.495 8.08995 9.726 8.25795 9.87 8.50795C10.065 8.84795 10.038 9.28095 9.804 9.59795C9.683 9.75795 9.507 9.88695 9.319 9.94895C9.167 9.99995 9.241 9.99595 7.999 9.99595C6.936 9.99595 6.866 9.99595 6.804 9.97995C6.61046 9.9408 6.43276 9.84545 6.29313 9.70582C6.15351 9.56619 6.05815 9.38849 6.019 9.19495C5.99954 9.06568 5.99954 8.93423 6.019 8.80495C6.109 8.38695 6.429 8.07795 6.847 8.01195C6.894 8.00395 7.155 7.99995 8.027 8.00395C9.069 8.00395 9.147 8.00395 9.202 8.01995Z" fill="currentColor"/>
</svg>
