<svg width="16" height="16" viewBox="0 0 16 16" fill="none" xmlns="http://www.w3.org/2000/svg">
<path d="M7.883 0.0472434C7.85422 0.051552 7.82554 0.0565535 7.797 0.0622434C7.73 0.0792434 1.69 1.80624 1.637 1.82524C1.55099 1.85882 1.47044 1.90499 1.398 1.96224C1.20429 2.10625 1.06986 2.31607 1.02 2.55224L1.004 2.62224L1 5.31324C1 8.10224 1 8.20724 1.031 8.51224C1.11025 9.29749 1.34359 10.0594 1.71766 10.7543C2.09173 11.4493 2.5992 12.0637 3.211 12.5622C3.351 12.6802 3.414 12.7222 5.461 14.1882C6.898 15.2152 7.484 15.6282 7.539 15.6562C7.68123 15.7308 7.83942 15.7697 8 15.7697C8.16058 15.7697 8.31877 15.7308 8.461 15.6562C8.516 15.6292 9.105 15.2072 10.566 14.1682C11.684 13.3682 12.645 12.6762 12.703 12.6332C12.898 12.4772 13.043 12.3482 13.243 12.1482C13.449 11.9452 13.555 11.8242 13.711 11.6252C14.4832 10.6454 14.931 9.44931 14.992 8.20324C14.996 8.10524 15 7.05924 15 5.37124C15 2.97724 15 2.68424 14.988 2.60924C14.9618 2.43138 14.8882 2.26386 14.7749 2.1243C14.6616 1.98475 14.5127 1.87833 14.344 1.81624C12.2977 1.22435 10.2494 0.639683 8.199 0.0622434C8.09496 0.041903 7.9885 0.0368498 7.883 0.0472434ZM11.57 4.77024C11.973 4.85524 12.27 5.15224 12.355 5.55524C12.367 5.60524 12.371 5.65624 12.371 5.75024C12.3734 5.81565 12.368 5.8811 12.355 5.94524C12.3236 6.09062 12.2623 6.22786 12.175 6.34824C12.113 6.43824 7.562 10.9882 7.473 11.0512C7.35262 11.1386 7.21537 11.1999 7.07 11.2312C6.94073 11.2507 6.80927 11.2507 6.68 11.2312C6.53463 11.1999 6.39738 11.1386 6.277 11.0512C6.191 10.9882 3.887 8.68424 3.824 8.59824C3.73667 8.47786 3.67537 8.34062 3.644 8.19524C3.62454 8.06597 3.62454 7.93451 3.644 7.80524C3.73 7.40224 4.027 7.10524 4.43 7.02024C4.523 7.00024 4.727 7.00024 4.82 7.02024C4.965 7.05024 5.105 7.11324 5.223 7.20024C5.266 7.23024 5.551 7.50824 6.082 8.04024L6.875 8.83224L8.797 6.91424C10.141 5.57024 10.734 4.98024 10.777 4.94924C10.898 4.85924 11.067 4.78924 11.203 4.76624C11.234 4.76224 11.266 4.75424 11.273 4.75424C11.3723 4.7504 11.4717 4.75576 11.57 4.77024Z" fill="currentColor"/>
</svg>
