<svg width="16" height="16" viewBox="0 0 16 16" fill="none" xmlns="http://www.w3.org/2000/svg">
<path d="M4.82 2.00411C4.24913 2.03952 3.70017 2.23686 3.2374 2.573C2.77463 2.90914 2.41721 3.37017 2.207 3.90211L2.168 4.00011L1.516 4.00411C0.796001 4.00411 0.836001 4.00411 0.680001 4.05411C0.344001 4.16811 0.0900011 4.45711 0.0200011 4.80911C1.06823e-06 4.90211 1.06823e-06 5.09811 0.0200011 5.19111C0.0900011 5.54311 0.344001 5.83211 0.680001 5.94511C0.836001 5.99611 0.797001 5.99611 1.516 5.99611L2.168 6.00011L2.207 6.09811C2.40774 6.60642 2.74338 7.05031 3.17775 7.38195C3.61213 7.71359 4.12877 7.92041 4.672 7.98011C4.828 8.00011 5.172 8.00011 5.328 7.98011C5.87152 7.92085 6.38848 7.71409 6.82296 7.38219C7.25744 7.0503 7.59288 6.60591 7.793 6.09711L7.832 6.00011L11.484 5.99611H15.137L15.207 5.98011C15.4307 5.93137 15.6309 5.80759 15.7745 5.62932C15.9181 5.45105 15.9964 5.22903 15.9964 5.00011C15.9964 4.7712 15.9181 4.54917 15.7745 4.37091C15.6309 4.19264 15.4307 4.06885 15.207 4.02011L15.137 4.00411H11.484L7.832 4.00011L7.793 3.90211C7.60919 3.43575 7.31159 3.0228 6.92733 2.7009C6.54307 2.37899 6.08436 2.15836 5.593 2.05911C5.33826 2.01145 5.07892 1.993 4.82 2.00411ZM5.203 4.02011C5.38021 4.05762 5.54395 4.14242 5.67685 4.2655C5.80974 4.38858 5.90683 4.54535 5.95779 4.71916C6.00876 4.89298 6.0117 5.07735 5.96631 5.25271C5.92092 5.42806 5.8289 5.58785 5.7 5.71511C5.56222 5.85178 5.38669 5.94407 5.196 5.98011C5.06673 5.99957 4.93527 5.99957 4.806 5.98011C4.61246 5.94096 4.43476 5.84561 4.29513 5.70598C4.15551 5.56636 4.06015 5.38866 4.021 5.19511C4.00154 5.06584 4.00154 4.93439 4.021 4.80511C4.111 4.38711 4.427 4.08211 4.849 4.01211C4.96717 3.99914 5.08554 4.00183 5.203 4.02011ZM10.82 8.00411C10.2491 8.03952 9.70017 8.23686 9.2374 8.573C8.77463 8.90914 8.41721 9.37017 8.207 9.90211L8.168 10.0001L4.516 10.0041C1.031 10.0041 0.859001 10.0041 0.805001 10.0201C0.610846 10.0597 0.432738 10.1559 0.293066 10.2964C0.153393 10.437 0.0583908 10.6157 0.0200011 10.8101C1.06823e-06 10.9021 1.06823e-06 11.0981 0.0200011 11.1911C0.0583908 11.3855 0.153393 11.5642 0.293066 11.7048C0.432738 11.8454 0.610846 11.9415 0.805001 11.9811C0.859001 11.9961 1.031 11.9961 4.515 11.9961L8.169 12.0001L8.208 12.0981C8.40874 12.6064 8.74438 13.0503 9.17875 13.3819C9.61313 13.7136 10.1298 13.9204 10.673 13.9801C10.829 14.0001 11.173 14.0001 11.329 13.9801C11.8725 13.9209 12.3895 13.7141 12.824 13.3822C13.2584 13.0503 13.5939 12.6059 13.794 12.0971L13.833 12.0001L14.485 11.9961C15.115 11.9961 15.142 11.9961 15.208 11.9801C15.4317 11.9314 15.6319 11.8076 15.7755 11.6293C15.9191 11.4511 15.9974 11.229 15.9974 11.0001C15.9974 10.7712 15.9191 10.5492 15.7755 10.3709C15.6319 10.1926 15.4317 10.0689 15.208 10.0201C15.142 10.0041 15.114 10.0041 14.485 10.0041L13.832 10.0001L13.793 9.90211C13.6092 9.43575 13.3116 9.0228 12.9273 8.7009C12.5431 8.37899 12.0844 8.15836 11.593 8.05911C11.3383 8.01145 11.0789 7.993 10.82 8.00411ZM11.203 10.0201C11.3801 10.0578 11.5438 10.1427 11.6765 10.2658C11.8093 10.3889 11.9063 10.5457 11.9571 10.7195C12.008 10.8933 12.0108 11.0776 11.9654 11.2529C11.9199 11.4282 11.8279 11.5879 11.699 11.7151C11.5612 11.8518 11.3857 11.9441 11.195 11.9801C11.0657 11.9996 10.9343 11.9996 10.805 11.9801C10.6558 11.9506 10.5153 11.8875 10.394 11.7957C10.2727 11.7039 10.1739 11.5857 10.105 11.4501C10.0335 11.3112 9.99874 11.1563 10.004 11.0001C10.004 10.9061 10.008 10.8551 10.02 10.8051C10.11 10.3871 10.426 10.0821 10.848 10.0121C10.9662 9.99914 11.0855 10.0018 11.203 10.0201Z" fill="currentColor"/>
</svg>
