<svg width="16" height="16" viewBox="0 0 16 16" fill="none" xmlns="http://www.w3.org/2000/svg">
<path d="M11.824 1.00819C11.285 1.05519 10.781 1.32819 10.445 1.74619C10.3807 1.82307 10.3231 1.90538 10.273 1.99219C10.273 1.99619 8.34 2.00019 5.57 2.00419C1.07 2.00419 0.860001 2.00419 0.805001 2.02019C0.610846 2.05982 0.432738 2.15595 0.293066 2.29652C0.153393 2.43708 0.0583908 2.61579 0.0200011 2.81019C1.06823e-06 2.90019 1.06823e-06 3.0972 0.0200011 3.1902C0.0583908 3.3846 0.153393 3.56331 0.293066 3.70387C0.432738 3.84444 0.610846 3.94057 0.805001 3.9802C0.859001 3.9952 1.07 3.99519 5.57 3.99519C8.156 3.99919 10.273 4.0032 10.273 4.00719C10.273 4.0192 10.383 4.17919 10.441 4.25319C10.7282 4.60701 11.1271 4.85268 11.5723 4.9499C12.0175 5.04712 12.4825 4.99009 12.891 4.7882C13.2408 4.61629 13.5317 4.34449 13.727 4.00719C13.727 4.0032 14.043 3.99919 14.434 3.99519C15.114 3.99519 15.141 3.9952 15.207 3.9792C15.609 3.8862 15.895 3.59319 15.98 3.1872C16 3.0972 16 2.9012 15.98 2.8112C15.9431 2.61791 15.8501 2.43976 15.7126 2.29893C15.5752 2.15811 15.3993 2.06082 15.207 2.01919C15.141 2.00319 15.113 2.00319 14.434 2.00319C14.043 1.99919 13.727 1.99519 13.727 1.99119C13.727 1.97919 13.617 1.81919 13.555 1.74519C13.3489 1.49016 13.0835 1.28953 12.7819 1.16087C12.4803 1.03222 12.1517 0.979449 11.825 1.00719L11.824 1.00819ZM3.824 6.00819C3.285 6.05519 2.781 6.32819 2.445 6.74619C2.38203 6.82411 2.32456 6.90631 2.273 6.9922C2.273 6.9962 1.957 7.0002 1.57 7.0042C0.793001 7.0042 0.836001 7.00419 0.680001 7.05419C0.344001 7.16819 0.0900011 7.4572 0.0200011 7.8092C1.06823e-06 7.90219 1.06823e-06 8.0982 0.0200011 8.1912C0.0900011 8.54319 0.344001 8.83219 0.680001 8.94519C0.836001 8.99619 0.793001 8.9962 1.57 8.9962C1.957 9.0002 2.273 9.0042 2.273 9.00819C2.273 9.0202 2.383 9.18019 2.441 9.25419C2.72817 9.60801 3.12708 9.85368 3.57228 9.9509C4.01747 10.0481 4.48249 9.99109 4.891 9.78919C5.24079 9.61729 5.53173 9.34549 5.727 9.00819C5.727 9.0042 7.73 9.0002 10.434 8.9962H15.137L15.207 8.98019C15.613 8.88319 15.895 8.5942 15.98 8.1872C16 8.0972 16 7.9022 15.98 7.8132C15.9432 7.61973 15.8503 7.44136 15.7129 7.30034C15.5754 7.15932 15.3995 7.06189 15.207 7.0202L15.137 7.0042H10.434C7.844 7.0002 5.727 6.9962 5.727 6.9922C5.727 6.9802 5.617 6.82019 5.555 6.74619C5.34891 6.49116 5.08345 6.29053 4.78185 6.16187C4.48026 6.03322 4.15172 5.98045 3.825 6.00819H3.824ZM8.824 11.0082C8.285 11.0552 7.781 11.3282 7.445 11.7462C7.38067 11.8231 7.32312 11.9054 7.273 11.9922C7.273 11.9962 5.945 12.0002 4.07 12.0042C1.016 12.0042 0.860001 12.0042 0.805001 12.0202C0.610846 12.0598 0.432738 12.156 0.293066 12.2965C0.153393 12.4371 0.0583908 12.6158 0.0200011 12.8102C1.06823e-06 12.9022 1.06823e-06 13.0982 0.0200011 13.1912C0.0583908 13.3856 0.153393 13.5643 0.293066 13.7049C0.432738 13.8454 0.610846 13.9416 0.805001 13.9812C0.859001 13.9962 1.015 13.9962 4.07 13.9962C5.832 14.0002 7.273 14.0042 7.273 14.0082C7.273 14.0202 7.383 14.1802 7.441 14.2542C7.72817 14.608 8.12708 14.8537 8.57228 14.9509C9.01747 15.0481 9.48249 14.9911 9.891 14.7892C10.2408 14.6173 10.5317 14.3455 10.727 14.0082C10.727 14.0042 11.684 14.0002 12.934 13.9962H15.137L15.207 13.9802C15.613 13.8832 15.895 13.5942 15.98 13.1872C16 13.0972 16 12.9022 15.98 12.8132C15.9432 12.6197 15.8503 12.4414 15.7129 12.3003C15.5754 12.1593 15.3995 12.0619 15.207 12.0202L15.137 12.0042H12.934C12.1983 12.0041 11.4626 12.0001 10.727 11.9922C10.727 11.9802 10.617 11.8202 10.555 11.7462C10.3489 11.4912 10.0835 11.2905 9.78185 11.1619C9.48026 11.0332 9.15072 10.9804 8.824 11.0082Z" fill="currentColor"/>
</svg>
