<svg width="16" height="16" viewBox="0 0 16 16" fill="none" xmlns="http://www.w3.org/2000/svg">
<g clip-path="url(#clip0_5184_7765)">
<path d="M7.633 0.00790625C6.56331 0.0540929 5.51389 0.315393 4.54743 0.776199C3.58098 1.23701 2.7173 1.88787 2.008 2.68991C0.824026 4.02882 0.122713 5.72578 0.0160005 7.50991C-0.0567429 8.68151 0.128621 9.85479 0.559 10.9469C1.1564 12.4548 2.1968 13.7462 3.543 14.6509C4.129 15.0419 4.75 15.3469 5.418 15.5729C6.77902 16.0331 8.23811 16.1221 9.645 15.8309C11.3429 15.4792 12.8793 14.5819 14.02 13.2759C14.7258 12.4722 15.2625 11.5346 15.598 10.5189C15.8129 9.86082 15.9426 9.17794 15.984 8.48691C16 8.31191 16 7.69391 15.984 7.51091C15.9598 7.11704 15.9077 6.72538 15.828 6.33891C15.7957 6.18264 15.758 6.02755 15.715 5.87391C15.6778 5.8821 15.641 5.89245 15.605 5.90491C15.496 5.93991 15.402 5.95991 15.277 5.98291C15.207 5.99491 15.043 5.99491 13.563 5.99891C11.863 5.99891 11.828 5.99891 11.648 5.96791C11.2505 5.89669 10.8842 5.70585 10.598 5.42091C10.2781 5.10655 10.0731 4.69378 10.016 4.24891C10.0066 4.16592 10.0026 4.08241 10.004 3.99891C10.004 3.76091 10.027 3.60091 10.094 3.39391C10.191 3.08891 10.344 2.83391 10.586 2.58091L10.668 2.49491L10.59 2.41691C10.2739 2.10236 10.0719 1.6913 10.016 1.24891C10.0004 1.08261 10.0004 0.915207 10.016 0.748906C10.0327 0.625755 10.0602 0.504296 10.098 0.385906L10.128 0.279906L9.953 0.236906C9.49448 0.122627 9.02658 0.0499986 8.555 0.0199062C8.355 0.00390625 7.828 -9.37497e-05 7.633 0.00790625ZM3.21 7.52291C3.343 7.55491 3.483 7.61691 3.581 7.68791C3.83723 7.8843 4.14976 7.99322 4.47255 7.99862C4.79535 8.00402 5.11134 7.90562 5.374 7.71791C5.55 7.59791 5.647 7.55091 5.804 7.51991C5.897 7.49991 6.101 7.49991 6.194 7.51991C6.597 7.60491 6.894 7.90191 6.979 8.30491C6.999 8.39791 6.999 8.60191 6.979 8.69491C6.925 8.94491 6.796 9.14791 6.597 9.30091C6.456 9.40591 6.233 9.54691 6.069 9.62891C5.41582 9.95502 4.67731 10.0697 3.956 9.95691C3.3988 9.86807 2.87104 9.64688 2.417 9.31191C2.28282 9.21647 2.17464 9.08897 2.10233 8.94103C2.03002 8.79309 1.99588 8.62942 2.003 8.46491C2.00519 8.33757 2.03255 8.21193 2.08353 8.09522C2.1345 7.97851 2.20807 7.87305 2.3 7.78491C2.46109 7.63219 2.66606 7.53391 2.886 7.50391C2.94 7.49591 3.144 7.50791 3.21 7.52391V7.52291ZM10.21 7.52291C10.343 7.55491 10.483 7.61691 10.581 7.68791C10.8372 7.8843 11.1498 7.99322 11.4726 7.99862C11.7953 8.00402 12.1113 7.90562 12.374 7.71791C12.55 7.59791 12.647 7.55091 12.804 7.51991C12.897 7.49991 13.101 7.49991 13.194 7.51991C13.597 7.60491 13.894 7.90191 13.979 8.30491C13.999 8.39791 13.999 8.60191 13.979 8.69491C13.925 8.94491 13.796 9.14791 13.597 9.30091C13.456 9.40591 13.233 9.54691 13.069 9.62891C12.4158 9.95502 11.6773 10.0697 10.956 9.95691C10.3988 9.86807 9.87104 9.64688 9.417 9.31191C9.28282 9.21647 9.17464 9.08897 9.10233 8.94103C9.03002 8.79309 8.99588 8.62942 9.003 8.46491C9.00519 8.33757 9.03255 8.21193 9.08353 8.09522C9.1345 7.97851 9.20807 7.87305 9.3 7.78491C9.46109 7.63219 9.66606 7.53391 9.886 7.50391C9.94 7.49591 10.144 7.50791 10.21 7.52391V7.52291ZM8.26 11.0229C8.491 11.0659 8.694 11.1529 8.882 11.2849C9.04588 11.4045 9.18388 11.556 9.28769 11.7302C9.3915 11.9045 9.45898 12.098 9.48607 12.299C9.51317 12.5001 9.49931 12.7045 9.44533 12.9001C9.39136 13.0956 9.29838 13.2782 9.172 13.4369C9.101 13.5229 8.968 13.6519 8.882 13.7149C8.483 13.9999 7.983 14.0749 7.519 13.9219C7.21248 13.819 6.94767 13.6194 6.76444 13.353C6.5812 13.0866 6.48945 12.7679 6.503 12.4449C6.515 12.0699 6.655 11.7379 6.909 11.4689C7.159 11.2069 7.468 11.0549 7.835 11.0079C7.929 10.9959 8.162 11.0039 8.26 11.0229Z" fill="currentColor"/>
<path d="M11.871 0.00790625C11.5 0.0549062 11.171 0.327906 11.055 0.679906C11.0179 0.78239 11.0006 0.890975 11.004 0.999906C11.004 1.27691 11.098 1.50791 11.297 1.70291C11.461 1.86691 11.657 1.96491 11.883 1.99291C11.918 1.99591 12.093 1.99991 12.27 1.99991H12.59L11.902 2.68791C11.312 3.28091 11.207 3.38691 11.168 3.44491C11.0569 3.60835 10.9996 3.80235 11.004 3.99991C11.004 4.27691 11.098 4.50791 11.297 4.70291C11.4546 4.86656 11.665 4.96927 11.891 4.99291C11.941 4.99991 12.437 4.99991 13.551 4.99991C15.039 4.99591 15.141 4.99591 15.195 4.97991C15.3883 4.94057 15.5653 4.84406 15.703 4.70291C15.7983 4.61273 15.8736 4.50357 15.9241 4.38248C15.9745 4.26139 15.999 4.13106 15.996 3.99991C15.999 3.86875 15.9745 3.73842 15.9241 3.61733C15.8736 3.49624 15.7983 3.38708 15.703 3.29691C15.5977 3.18531 15.466 3.10207 15.32 3.05491C15.176 3.00791 15.168 3.00391 14.773 3.00391L14.41 2.99991L15.102 2.30891C15.687 1.71891 15.793 1.61291 15.832 1.55491C15.9431 1.39146 16.0004 1.19746 15.996 0.999906C15.999 0.868753 15.9745 0.738422 15.9241 0.61733C15.8736 0.496239 15.7983 0.38708 15.703 0.296906C15.5653 0.155749 15.3883 0.0592421 15.195 0.0199062C15.141 0.00390625 15.043 0.00390625 13.531 0.00390625C12.613 0.00390625 11.902 0.00390625 11.871 0.00790625Z" fill="currentColor"/>
</g>
<defs>
<clipPath id="clip0_5184_7765">
<rect width="16" height="16" fill="white"/>
</clipPath>
</defs>
</svg>
