<svg width="16" height="16" viewBox="0 0 16 16" fill="none" xmlns="http://www.w3.org/2000/svg">
<path d="M7.633 0.0077954C6.56331 0.053982 5.51389 0.315282 4.54743 0.776088C3.58098 1.23689 2.7173 1.88776 2.008 2.6898C0.824026 4.02871 0.122713 5.72567 0.0160005 7.5098C-0.0567429 8.6814 0.128621 9.85468 0.559 10.9468C1.1564 12.4547 2.1968 13.7461 3.543 14.6508C5.17698 15.7351 7.14979 16.1876 9.093 15.9238C10.328 15.7551 11.5064 15.2998 12.534 14.5943C13.5616 13.8888 14.4098 12.9527 15.011 11.8608C15.6619 10.6787 16.0006 9.35021 15.995 8.0008C16.0004 6.41298 15.5309 4.85982 14.647 3.5408C13.7889 2.25942 12.5782 1.25392 11.161 0.645795C10.4206 0.329311 9.63686 0.126035 8.836 0.0427954C8.43612 0.00611019 8.03434 -0.0055792 7.633 0.0077954ZM4.762 5.0228C4.992 5.0658 5.195 5.1528 5.382 5.2848C5.54588 5.40436 5.68388 5.55584 5.78769 5.73012C5.8915 5.90441 5.95898 6.09789 5.98607 6.29893C6.01317 6.49997 5.99931 6.70442 5.94533 6.89996C5.89136 7.09551 5.79838 7.27812 5.672 7.4368C5.602 7.5228 5.469 7.6518 5.382 7.7148C4.984 7.9998 4.484 8.0748 4.02 7.9218C3.71348 7.81893 3.44868 7.61928 3.26544 7.3529C3.0822 7.08652 2.99045 6.76783 3.004 6.4448C3.016 6.0698 3.156 5.7378 3.41 5.4688C3.66 5.2068 3.969 5.0548 4.336 5.0078C4.43 4.9958 4.664 5.0038 4.762 5.0228ZM11.762 5.0228C11.992 5.0658 12.195 5.1528 12.382 5.2848C12.5459 5.40436 12.6839 5.55584 12.7877 5.73012C12.8915 5.90441 12.959 6.09789 12.9861 6.29893C13.0132 6.49997 12.9993 6.70442 12.9453 6.89996C12.8914 7.09551 12.7984 7.27812 12.672 7.4368C12.602 7.5228 12.469 7.6518 12.382 7.7148C11.984 7.9998 11.484 8.0748 11.02 7.9218C10.7135 7.81893 10.4487 7.61928 10.2654 7.3529C10.0822 7.08652 9.99045 6.76783 10.004 6.4448C10.016 6.0698 10.156 5.7378 10.41 5.4688C10.66 5.2068 10.969 5.0548 11.336 5.0078C11.43 4.9958 11.664 5.0038 11.762 5.0228ZM10.203 10.0198C10.5 10.0898 10.727 10.2578 10.871 10.5078C11.066 10.8478 11.039 11.2808 10.805 11.5978C10.6547 11.7948 10.4379 11.9306 10.195 11.9798C10.133 11.9958 10.031 11.9958 8 11.9958C5.969 11.9958 5.867 11.9958 5.805 11.9798C5.61146 11.9406 5.43376 11.8453 5.29413 11.7057C5.15451 11.566 5.05915 11.3883 5.02 11.1948C5.00054 11.0655 5.00054 10.9341 5.02 10.8048C5.11 10.3868 5.43 10.0778 5.848 10.0118C5.898 10.0038 6.352 9.99979 8.028 10.0038C10.035 10.0038 10.148 10.0038 10.203 10.0198Z" fill="currentColor"/>
</svg>
