<svg width="16" height="16" viewBox="0 0 16 16" fill="none" xmlns="http://www.w3.org/2000/svg">
<path d="M7.633 0.0077954C6.56331 0.053982 5.51389 0.315282 4.54743 0.776088C3.58098 1.23689 2.7173 1.88776 2.008 2.6898C0.824026 4.02871 0.122713 5.72567 0.0160005 7.5098C-0.0567429 8.6814 0.128621 9.85468 0.559 10.9468C1.1564 12.4547 2.1968 13.7461 3.543 14.6508C5.17698 15.7351 7.14979 16.1876 9.093 15.9238C10.328 15.7551 11.5064 15.2998 12.534 14.5943C13.5616 13.8888 14.4098 12.9527 15.011 11.8608C15.6619 10.6787 16.0006 9.35021 15.995 8.0008C16.0004 6.41298 15.5309 4.85982 14.647 3.5408C13.7889 2.25942 12.5782 1.25392 11.161 0.645795C10.4206 0.329311 9.63686 0.126035 8.836 0.0427954C8.43612 0.00611019 8.03434 -0.0055792 7.633 0.0077954ZM4.762 5.0228C4.992 5.0658 5.195 5.1528 5.382 5.2848C5.54588 5.40436 5.68388 5.55584 5.78769 5.73012C5.8915 5.90441 5.95898 6.09789 5.98607 6.29893C6.01317 6.49997 5.99931 6.70442 5.94533 6.89996C5.89136 7.09551 5.79838 7.27812 5.672 7.4368C5.602 7.5228 5.469 7.6518 5.382 7.7148C4.984 7.9998 4.484 8.0748 4.02 7.9218C3.71348 7.81893 3.44868 7.61928 3.26544 7.3529C3.0822 7.08652 2.99045 6.76783 3.004 6.4448C3.016 6.0698 3.156 5.7378 3.41 5.4688C3.66 5.2068 3.969 5.0548 4.336 5.0078C4.43 4.9958 4.664 5.0038 4.762 5.0228ZM11.762 5.0228C11.992 5.0658 12.195 5.1528 12.382 5.2848C12.5459 5.40436 12.6839 5.55584 12.7877 5.73012C12.8915 5.90441 12.959 6.09789 12.9861 6.29893C13.0132 6.49997 12.9993 6.70442 12.9453 6.89996C12.8914 7.09551 12.7984 7.27812 12.672 7.4368C12.602 7.5228 12.469 7.6518 12.382 7.7148C11.984 7.9998 11.484 8.0748 11.02 7.9218C10.7135 7.81893 10.4487 7.61928 10.2654 7.3529C10.0822 7.08652 9.99045 6.76783 10.004 6.4448C10.016 6.0698 10.156 5.7378 10.41 5.4688C10.66 5.2068 10.969 5.0548 11.336 5.0078C11.43 4.9958 11.664 5.0038 11.762 5.0228ZM8.449 10.0198C9.46872 10.1103 10.4359 10.5125 11.219 11.1718C11.434 11.3518 11.535 11.4918 11.602 11.7028C11.6327 11.7987 11.6472 11.8991 11.645 11.9998C11.6475 12.1034 11.6316 12.2067 11.598 12.3048C11.5426 12.4736 11.4438 12.6248 11.3114 12.7433C11.1791 12.8618 11.0179 12.9434 10.844 12.9798C10.7147 12.9993 10.5833 12.9993 10.454 12.9798C10.2678 12.9439 10.0956 12.8562 9.957 12.7268C9.64961 12.4609 9.29109 12.2606 8.90347 12.1384C8.51586 12.0161 8.10733 11.9744 7.703 12.0158C7.348 12.0548 7.055 12.1328 6.743 12.2768C6.503 12.3868 6.23 12.5628 6.039 12.7298C5.94046 12.8207 5.8248 12.891 5.69877 12.9367C5.57274 12.9823 5.43888 13.0024 5.305 12.9958C5.16707 12.9948 5.03148 12.9601 4.91 12.8948C4.78897 12.8345 4.68129 12.7505 4.59334 12.6477C4.50539 12.545 4.43896 12.4257 4.398 12.2968C4.36733 12.2009 4.3528 12.1005 4.355 11.9998C4.35379 11.7475 4.44893 11.5043 4.621 11.3198C4.734 11.1998 5.016 10.9798 5.246 10.8238C5.652 10.5588 6.136 10.3318 6.586 10.2038C6.96541 10.0943 7.3558 10.0272 7.75 10.0038C7.867 9.99979 8.323 10.0078 8.449 10.0198Z" fill="currentColor"/>
</svg>
