<svg width="16" height="16" viewBox="0 0 16 16" fill="none" xmlns="http://www.w3.org/2000/svg">
<g clip-path="url(#clip0_2538_52263)">
<path d="M7.633 0.0077954C6.56331 0.053982 5.51389 0.315282 4.54743 0.776088C3.58098 1.23689 2.7173 1.88776 2.008 2.6898C0.824026 4.02871 0.122713 5.72567 0.0160005 7.5098C-0.0567429 8.6814 0.128621 9.85468 0.559 10.9468C1.1564 12.4547 2.1968 13.7461 3.543 14.6508C5.17698 15.7351 7.14979 16.1876 9.093 15.9238C10.328 15.7551 11.5064 15.2998 12.534 14.5943C13.5616 13.8888 14.4098 12.9527 15.011 11.8608C15.6619 10.6787 16.0006 9.35021 15.995 8.0008C16.0004 6.41298 15.5309 4.85982 14.647 3.5408C13.7889 2.25942 12.5782 1.25392 11.161 0.645795C10.4206 0.329311 9.63686 0.126035 8.836 0.0427954C8.43612 0.00611019 8.03434 -0.0055792 7.633 0.0077954ZM3.195 4.0198L3.305 4.0468C3.375 4.0698 6.879 5.5698 6.965 5.6168C7.227 5.7498 7.415 5.9998 7.48 6.3048C7.5 6.3978 7.5 6.6018 7.48 6.6948C7.395 7.0978 7.098 7.3948 6.695 7.4798C6.56573 7.49926 6.43427 7.49926 6.305 7.4798C6.2208 7.45956 6.1385 7.43212 6.059 7.3978C6.027 7.3868 6 7.3748 6 7.3748C5.99538 7.40462 5.99538 7.43497 6 7.4648C6.008 7.8128 5.89 8.16479 5.672 8.43779C5.602 8.52279 5.469 8.6518 5.382 8.7148C4.882 9.07479 4.215 9.0938 3.699 8.7698C3.50891 8.64904 3.34837 8.48713 3.22922 8.29604C3.11007 8.10494 3.03536 7.88952 3.01059 7.66569C2.98583 7.44185 3.01165 7.21531 3.08614 7.00279C3.16064 6.79026 3.28191 6.59718 3.441 6.4378C3.535 6.3478 3.551 6.3278 3.539 6.3198L3.066 6.1168C2.813 6.0068 2.574 5.9018 2.536 5.8828C2.40449 5.81338 2.29 5.71568 2.20078 5.59671C2.11155 5.47775 2.04981 5.34048 2.02 5.1948C2.00054 5.06552 2.00054 4.93407 2.02 4.8048C2.074 4.5548 2.207 4.3438 2.406 4.1948C2.523 4.1088 2.691 4.0388 2.828 4.0148C2.859 4.0118 2.891 4.0038 2.898 4.0038C2.99728 3.99995 3.09671 4.00531 3.195 4.0198ZM13.195 4.0198C13.598 4.1048 13.895 4.4018 13.98 4.8048C13.992 4.8548 13.996 4.9058 13.996 4.9998C13.9984 5.0652 13.993 5.13066 13.98 5.1948C13.9509 5.34062 13.8895 5.47809 13.8004 5.59713C13.7113 5.71618 13.5967 5.81378 13.465 5.8828C13.425 5.9028 13.188 6.0078 12.934 6.1168C12.68 6.2268 12.464 6.3168 12.457 6.3198C12.445 6.3278 12.457 6.3398 12.531 6.4098C12.8036 6.66897 12.9691 7.02086 12.995 7.39608C13.021 7.7713 12.9053 8.14261 12.671 8.4368C12.601 8.5228 12.469 8.6518 12.383 8.7148C11.984 8.99979 11.484 9.07479 11.02 8.92179C10.7165 8.8199 10.4537 8.62342 10.2702 8.36119C10.0866 8.09896 9.9919 7.78479 10 7.4648C10.0046 7.43497 10.0046 7.40462 10 7.3748C10 7.3748 9.973 7.3868 9.941 7.3978C9.80384 7.46493 9.65269 7.49852 9.5 7.4958C9.4346 7.49819 9.36914 7.49282 9.305 7.4798C9.11135 7.44089 8.93352 7.34562 8.79385 7.20595C8.65418 7.06628 8.55891 6.88845 8.52 6.6948C8.50054 6.56552 8.50054 6.43407 8.52 6.3048C8.586 6.0038 8.773 5.7498 9.035 5.6168C9.137 5.5628 12.633 4.0668 12.707 4.0428C12.742 4.0348 12.797 4.0198 12.828 4.0158C12.859 4.0118 12.891 4.0038 12.898 4.0038C12.9973 3.99995 13.0967 4.00531 13.195 4.0198ZM8.406 9.01579C9.22001 9.08119 10.0055 9.34544 10.6935 9.78535C11.3816 10.2253 11.9511 10.8274 12.352 11.5388C12.5 11.8288 12.5 12.1638 12.355 12.4488C12.2912 12.5758 12.201 12.6878 12.0904 12.7771C11.9798 12.8664 11.8514 12.9309 11.7137 12.9665C11.5761 13.002 11.4324 13.0076 11.2924 12.983C11.1524 12.9584 11.0193 12.9041 10.902 12.8238C10.773 12.7378 10.68 12.6328 10.566 12.4488C10.4938 12.3284 10.4129 12.2134 10.324 12.1048C10.1849 11.9436 10.0334 11.7935 9.871 11.6558C9.41886 11.2954 8.87232 11.0732 8.297 11.0158C8.08893 10.9995 7.87985 11.0009 7.672 11.0198C7.09691 11.0811 6.55226 11.3091 6.105 11.6758C5.992 11.7658 5.75 12.0118 5.656 12.1288C5.586 12.2188 5.516 12.3198 5.375 12.5388C5.133 12.9178 4.665 13.0888 4.23 12.9528C4.05655 12.8964 3.90168 12.794 3.78192 12.6564C3.66215 12.5188 3.58199 12.3514 3.55 12.1718C3.53435 12.0577 3.53435 11.9419 3.55 11.8278C3.578 11.6758 3.629 11.5578 3.758 11.3518C4.31934 10.4574 5.14725 9.76168 6.125 9.36279C6.625 9.16379 7.145 9.0428 7.699 9.0078C7.829 8.99979 8.277 9.00379 8.406 9.01579Z" fill="currentColor"/>
</g>
<defs>
<clipPath id="clip0_2538_52263">
<rect width="16" height="16" fill="white"/>
</clipPath>
</defs>
</svg>
