<svg width="16" height="16" viewBox="0 0 16 16" fill="none" xmlns="http://www.w3.org/2000/svg">
<g clip-path="url(#clip0_2910_7687)">
<path d="M7.633 0.0077954C6.56331 0.053982 5.51389 0.315282 4.54743 0.776088C3.58098 1.23689 2.7173 1.88776 2.008 2.6898C0.824026 4.02871 0.122713 5.72567 0.0160005 7.5098C-0.0567429 8.6814 0.128621 9.85468 0.559 10.9468C1.1564 12.4547 2.1968 13.7461 3.543 14.6508C5.17698 15.7351 7.14979 16.1876 9.093 15.9238C10.328 15.7551 11.5064 15.2998 12.534 14.5943C13.5616 13.8888 14.4098 12.9527 15.011 11.8608C15.6619 10.6787 16.0006 9.35021 15.995 8.0008C16.0004 6.41298 15.5309 4.85982 14.647 3.5408C13.7889 2.25942 12.5782 1.25392 11.161 0.645795C10.4206 0.329311 9.63686 0.126035 8.836 0.0427954C8.43612 0.00611019 8.03434 -0.0055792 7.633 0.0077954ZM4.762 5.0228C4.992 5.0658 5.195 5.1528 5.382 5.2848C5.54588 5.40436 5.68388 5.55584 5.78769 5.73012C5.8915 5.90441 5.95898 6.09789 5.98607 6.29893C6.01317 6.49997 5.99931 6.70442 5.94533 6.89996C5.89136 7.09551 5.79838 7.27812 5.672 7.4368C5.602 7.5228 5.469 7.6518 5.382 7.7148C4.984 7.9998 4.484 8.0748 4.02 7.9218C3.71348 7.81893 3.44868 7.61928 3.26544 7.3529C3.0822 7.08652 2.99045 6.76783 3.004 6.4448C3.016 6.0698 3.156 5.7378 3.41 5.4688C3.66 5.2068 3.969 5.0548 4.336 5.0078C4.43 4.9958 4.664 5.0038 4.762 5.0228ZM11.762 5.0228C11.992 5.0658 12.195 5.1528 12.382 5.2848C12.5459 5.40436 12.6839 5.55584 12.7877 5.73012C12.8915 5.90441 12.959 6.09789 12.9861 6.29893C13.0132 6.49997 12.9993 6.70442 12.9453 6.89996C12.8914 7.09551 12.7984 7.27812 12.672 7.4368C12.602 7.5228 12.469 7.6518 12.382 7.7148C11.984 7.9998 11.484 8.0748 11.02 7.9218C10.7135 7.81893 10.4487 7.61928 10.2654 7.3529C10.0822 7.08652 9.99045 6.76783 10.004 6.4448C10.016 6.0698 10.156 5.7378 10.41 5.4688C10.66 5.2068 10.969 5.0548 11.336 5.0078C11.43 4.9958 11.664 5.0038 11.762 5.0228ZM5.5 10.0118C5.68276 10.0382 5.85453 10.1151 5.996 10.2338C6.27 10.4638 6.488 10.6048 6.746 10.7268C7.043 10.8588 7.328 10.9368 7.672 10.9798C7.828 10.9998 8.168 10.9998 8.328 10.9798C8.89409 10.9181 9.4308 10.6961 9.875 10.3398C9.925 10.2968 9.996 10.2418 10.023 10.2188C10.289 10.0038 10.66 9.94079 10.984 10.0588C11.223 10.1448 11.438 10.3358 11.547 10.5658C11.582 10.6408 11.621 10.7578 11.633 10.8358C11.648 10.9178 11.645 11.1058 11.629 11.1838C11.574 11.4448 11.461 11.6208 11.219 11.8278C10.4323 12.487 9.46236 12.8891 8.44 12.9798C8.241 12.9998 7.753 12.9998 7.561 12.9798C6.94225 12.9277 6.33913 12.758 5.784 12.4798C5.42405 12.3041 5.08689 12.0852 4.78 11.8278C4.612 11.6838 4.522 11.5778 4.452 11.4338C4.41221 11.3477 4.38332 11.257 4.366 11.1638C4.35038 11.055 4.35038 10.9446 4.366 10.8358C4.44 10.4058 4.784 10.0698 5.214 10.0078C5.288 9.9958 5.418 9.99979 5.5 10.0118Z" fill="currentColor"/>
</g>
<defs>
<clipPath id="clip0_2910_7687">
<rect width="16" height="16" fill="white"/>
</clipPath>
</defs>
</svg>
