<svg width="16" height="16" viewBox="0 0 16 16" fill="none" xmlns="http://www.w3.org/2000/svg">
<g clip-path="url(#clip0_2538_53213)">
<path d="M3.371 0.00790625C3.2374 0.0279179 3.10881 0.0730462 2.992 0.140906C2.87147 0.212783 2.76718 0.30892 2.68576 0.423224C2.60433 0.537527 2.54755 0.667501 2.519 0.804906C2.504 0.858906 2.504 1.08191 2.504 5.92991L2.5 10.9999H1.926C1.71363 10.9981 1.50125 11.0008 1.289 11.0079C1.1558 11.024 1.02723 11.0668 0.911004 11.1338C0.794781 11.2008 0.69331 11.2906 0.612694 11.3979C0.532078 11.5051 0.473982 11.6275 0.441899 11.7578C0.409816 11.8881 0.404408 12.0235 0.426001 12.1559C0.449001 12.3119 0.516001 12.4689 0.606001 12.5859C0.636001 12.6289 1.117 13.1129 2.016 14.0119C3.246 15.2419 3.386 15.3789 3.453 15.4219C3.813 15.6519 4.277 15.6369 4.613 15.3749C4.633 15.3589 5.266 14.7299 6.016 13.9799C7.476 12.5159 7.418 12.5779 7.492 12.4259C7.54878 12.3048 7.58052 12.1734 7.58534 12.0398C7.59015 11.9061 7.56792 11.7728 7.52 11.6479C7.46939 11.5109 7.3892 11.3867 7.28515 11.2843C7.1811 11.1818 7.05575 11.1035 6.918 11.0549C6.758 11.0039 6.793 11.0039 6.118 11.0039L5.5 10.9999L5.496 5.92991C5.496 1.08191 5.496 0.859906 5.48 0.804906C5.44067 0.611639 5.34416 0.434652 5.203 0.296906C5.06864 0.157625 4.89606 0.0612412 4.707 0.0199062C4.641 0.00390625 4.617 0.00390625 4.031 0.00390625C3.699 0.00390625 3.402 0.00390625 3.371 0.00790625ZM11.871 0.00790625C11.727 0.0279063 11.574 0.0859063 11.453 0.167906C11.3424 0.242726 11.2459 0.336502 11.168 0.444906C11.109 0.539906 8.082 6.59391 8.055 6.67991C8.01793 6.78239 8.00062 6.89097 8.004 6.99991C8.004 7.27691 8.098 7.50791 8.297 7.70291C8.45617 7.86669 8.66783 7.96934 8.895 7.99291C9.07 8.01191 9.281 7.97691 9.438 7.89791C9.586 7.82391 9.746 7.68391 9.832 7.55491C9.855 7.51991 9.984 7.26491 10.122 6.99191L10.367 6.49991H13.633L13.879 6.99191C14.016 7.26591 14.145 7.51991 14.168 7.55491C14.227 7.64491 14.359 7.77291 14.453 7.83191C14.6439 7.95896 14.8731 8.01558 15.1012 7.99204C15.3293 7.9685 15.5421 7.86627 15.703 7.70291C15.7983 7.61273 15.8736 7.50357 15.9241 7.38248C15.9745 7.26139 15.999 7.13106 15.996 6.99991C15.9997 6.89104 15.9827 6.78245 15.946 6.67991C15.917 6.59391 12.89 0.539906 12.831 0.444906C12.7929 0.39154 12.7497 0.341977 12.702 0.296906C12.5642 0.153753 12.3852 0.0569594 12.19 0.0199062C12.0841 0.00424146 11.9768 0.000217492 11.87 0.00790625H11.871ZM12.321 3.87091L12.633 4.49991H11.367L11.68 3.87091C11.855 3.52291 11.996 3.24191 12 3.24191C12.004 3.24191 12.145 3.52291 12.32 3.87191L12.321 3.87091ZM8.871 9.00791C8.5 9.05491 8.171 9.32791 8.055 9.67991C8.01793 9.78239 8.00062 9.89097 8.004 9.99991C8.004 10.1329 8.016 10.2029 8.054 10.3199C8.11166 10.4859 8.21149 10.634 8.34368 10.7497C8.47587 10.8654 8.63588 10.9447 8.808 10.9799C8.859 10.9959 8.996 10.9959 10.551 10.9999L12.234 11.0039L10.285 12.6289C9.6111 13.1874 8.94042 13.7497 8.273 14.3159C8.1742 14.4195 8.09973 14.5439 8.055 14.6799C8.01793 14.7824 8.00062 14.891 8.004 14.9999C8.004 15.2769 8.098 15.5079 8.297 15.7029C8.45464 15.8666 8.66501 15.9693 8.891 15.9929C8.941 15.9999 9.863 15.9999 12.051 15.9999C14.988 15.9959 15.141 15.9959 15.195 15.9799C15.3883 15.9406 15.5653 15.8441 15.703 15.7029C15.7983 15.6127 15.8736 15.5036 15.9241 15.3825C15.9745 15.2614 15.999 15.1311 15.996 14.9999C15.999 14.8688 15.9745 14.7384 15.9241 14.6173C15.8736 14.4962 15.7983 14.3871 15.703 14.2969C15.5653 14.1557 15.3883 14.0592 15.195 14.0199C15.141 14.0039 15.035 14.0039 13.449 13.9999L11.766 13.9959L13.715 12.3709C14.3889 11.8124 15.0596 11.2501 15.727 10.6839C15.857 10.5462 15.9449 10.374 15.98 10.1879C16 10.0979 16 9.90191 15.98 9.81191C15.9437 9.61552 15.8469 9.43543 15.703 9.29691C15.5653 9.15575 15.3883 9.05924 15.195 9.01991C15.141 9.00391 14.988 9.00391 12.031 9.00391C10.234 9.00391 8.902 9.00391 8.871 9.00791Z" fill="currentColor"/>
</g>
<defs>
<clipPath id="clip0_2538_53213">
<rect width="16" height="16" fill="white"/>
</clipPath>
</defs>
</svg>
