<svg width="16" height="16" viewBox="0 0 16 16" fill="none" xmlns="http://www.w3.org/2000/svg">
<path d="M11.871 0.00818251C11.727 0.0281825 11.574 0.0861825 11.453 0.168183C11.3424 0.243002 11.2459 0.336778 11.168 0.445183C11.109 0.540182 8.082 6.59418 8.055 6.68018C8.01793 6.78267 8.00062 6.89125 8.004 7.00018C8.004 7.27718 8.098 7.50818 8.297 7.70318C8.45617 7.86697 8.66783 7.96962 8.895 7.99318C9.07 8.01218 9.281 7.97718 9.438 7.89818C9.586 7.82418 9.746 7.68418 9.832 7.55518C9.855 7.52018 9.984 7.26518 10.122 6.99218L10.367 6.50018H13.633L13.879 6.99218C14.016 7.26618 14.145 7.52018 14.168 7.55518C14.227 7.64518 14.359 7.77318 14.453 7.83218C14.6439 7.95924 14.8731 8.01586 15.1012 7.99232C15.3293 7.96878 15.5421 7.86655 15.703 7.70318C15.7983 7.61301 15.8736 7.50385 15.9241 7.38276C15.9745 7.26167 15.999 7.13134 15.996 7.00018C15.9997 6.89131 15.9827 6.78273 15.946 6.68018C15.917 6.59418 12.89 0.540182 12.831 0.445183C12.7929 0.391816 12.7497 0.342253 12.702 0.297183C12.5642 0.15403 12.3852 0.0572356 12.19 0.0201825C12.0841 0.00451772 11.9768 0.000493754 11.87 0.00818251H11.871ZM12.321 3.87118L12.633 4.50018H11.367L11.68 3.87118C11.855 3.52318 11.996 3.24218 12 3.24218C12.004 3.24218 12.145 3.52318 12.32 3.87218L12.321 3.87118ZM3.871 0.422183C3.77593 0.437255 3.68297 0.463434 3.594 0.500183C3.426 0.574183 3.508 0.500183 2.016 1.98818C1.117 2.88718 0.636002 3.37118 0.606002 3.41418C0.511621 3.54057 0.449802 3.68825 0.426002 3.84418C0.405129 3.97651 0.411055 4.11167 0.443428 4.24166C0.475801 4.37165 0.533962 4.49381 0.614457 4.60089C0.694952 4.70797 0.79614 4.79778 0.912015 4.865C1.02789 4.93222 1.15609 4.97547 1.289 4.99218C1.329 4.99618 1.579 5.00018 1.926 5.00018H2.5L2.504 10.0662C2.504 14.9182 2.504 15.1412 2.52 15.1962C2.57 15.4102 2.652 15.5592 2.797 15.7032C2.949 15.8552 3.117 15.9452 3.336 15.9842C3.77853 15.9998 4.22147 15.9998 4.664 15.9842C4.8695 15.9516 5.05894 15.8533 5.204 15.7042C5.34497 15.566 5.44113 15.3887 5.48 15.1952C5.496 15.1412 5.496 14.9182 5.496 10.0662L5.5 5.00018H6.074C6.422 5.00018 6.672 4.99618 6.711 4.99218C6.91241 4.96755 7.10138 4.88164 7.25234 4.74606C7.4033 4.61048 7.50895 4.43179 7.555 4.23418C7.598 4.06618 7.594 3.87118 7.543 3.70418C7.50799 3.60085 7.45814 3.50316 7.395 3.41418C7.363 3.37118 6.883 2.88718 5.98 1.98418C4.523 0.531183 4.586 0.590182 4.437 0.516182C4.35887 0.478393 4.27618 0.450832 4.191 0.434182C4.08509 0.41851 3.97779 0.414486 3.871 0.422183ZM8.871 9.00818C8.5 9.05518 8.171 9.32818 8.055 9.68018C8.01793 9.78267 8.00062 9.89125 8.004 10.0002C8.004 10.1332 8.016 10.2032 8.054 10.3202C8.11166 10.4861 8.21149 10.6342 8.34368 10.7499C8.47587 10.8657 8.63588 10.945 8.808 10.9802C8.859 10.9962 8.996 10.9962 10.551 11.0002L12.234 11.0042L10.285 12.6292C9.6111 13.1876 8.94042 13.75 8.273 14.3162C8.1742 14.4198 8.09973 14.5442 8.055 14.6802C8.01793 14.7827 8.00062 14.8913 8.004 15.0002C8.004 15.2772 8.098 15.5082 8.297 15.7032C8.45464 15.8668 8.66501 15.9695 8.891 15.9932C8.941 16.0002 9.863 16.0002 12.051 16.0002C14.988 15.9962 15.141 15.9962 15.195 15.9802C15.3883 15.9408 15.5653 15.8443 15.703 15.7032C15.7983 15.613 15.8736 15.5038 15.9241 15.3828C15.9745 15.2617 15.999 15.1313 15.996 15.0002C15.999 14.869 15.9745 14.7387 15.9241 14.6176C15.8736 14.4965 15.7983 14.3874 15.703 14.2972C15.5653 14.156 15.3883 14.0595 15.195 14.0202C15.141 14.0042 15.035 14.0042 13.449 14.0002L11.766 13.9962L13.715 12.3712C14.3889 11.8127 15.0596 11.2504 15.727 10.6842C15.857 10.5465 15.9449 10.3743 15.98 10.1882C16 10.0982 16 9.90218 15.98 9.81218C15.9437 9.6158 15.8469 9.4357 15.703 9.29718C15.5653 9.15602 15.3883 9.05952 15.195 9.02018C15.141 9.00418 14.988 9.00418 12.031 9.00418C10.234 9.00418 8.902 9.00418 8.871 9.00818Z" fill="currentColor"/>
</svg>
