<svg width="16" height="16" viewBox="0 0 16 16" fill="none" xmlns="http://www.w3.org/2000/svg">
<g clip-path="url(#clip0_3400_7907)">
<path d="M3.824 0.004C3.20357 0.0422341 2.61014 0.271364 2.125 0.66C2 0.758 1.758 1 1.66 1.125C1.297 1.582 1.09 2.082 1.02 2.672C1.004 2.782 1.004 3.043 1.004 7.996C1.004 12.992 1.004 13.211 1.02 13.328C1.098 14.008 1.383 14.609 1.848 15.086C2.297 15.543 2.84 15.836 3.457 15.949C3.734 16 3.336 15.996 7.914 16C10.871 16 12.102 16 12.191 15.992C12.6385 15.9654 13.0741 15.8378 13.4652 15.6187C13.8563 15.3996 14.1926 15.0947 14.449 14.727C14.746 14.305 14.914 13.863 14.98 13.328C14.996 13.223 14.996 13.074 14.996 10.523C14.996 7.496 15 7.762 14.937 7.512C14.871 7.25 14.757 7.012 14.59 6.789C14.4764 6.65023 14.3491 6.52326 14.21 6.41C13.9417 6.20594 13.6263 6.07283 13.293 6.023C13.191 6.003 13.168 6.003 11.996 6C10.934 5.996 10.793 5.992 10.719 5.98C10.2895 5.92068 9.89138 5.72181 9.586 5.414C9.27892 5.10809 9.08018 4.71025 9.02 4.281C9.008 4.207 9.004 4.066 9 3.004C8.996 1.828 8.996 1.809 8.977 1.704C8.92633 1.37342 8.79476 1.06048 8.594 0.793C8.47905 0.65289 8.35041 0.524589 8.21 0.41C7.94073 0.206478 7.62542 0.0725215 7.292 0.02C7.191 0.004 7.191 0.004 5.527 0.004H3.824ZM4.188 9.02C4.47132 9.04969 4.74666 9.13174 5 9.262C5.176 9.359 5.242 9.434 5.29 9.594C5.31727 9.69486 5.31727 9.80114 5.29 9.902C5.25341 10.0166 5.17481 10.113 5.07 10.172C4.937 10.234 4.855 10.222 4.59 10.113C4.47865 10.0708 4.36343 10.0397 4.246 10.02C4.11758 9.99468 3.98689 9.98262 3.856 9.984C3.696 9.984 3.602 9.996 3.484 10.035C3.39868 10.0596 3.32095 10.1054 3.258 10.168C3.22116 10.2035 3.19283 10.2468 3.17517 10.2948C3.1575 10.3428 3.15094 10.3941 3.156 10.445C3.15559 10.4952 3.16829 10.5447 3.19284 10.5886C3.21739 10.6324 3.25295 10.6691 3.296 10.695C3.398 10.758 3.465 10.781 3.992 10.902C4.222 10.957 4.453 11.012 4.504 11.027C5.172 11.219 5.516 11.629 5.516 12.242C5.516 12.477 5.469 12.687 5.371 12.887C5.242 13.148 5.039 13.347 4.766 13.488C4.52661 13.6076 4.26666 13.6806 4 13.703C3.883 13.719 3.52 13.719 3.406 13.703C3.12115 13.6815 2.84021 13.6237 2.57 13.531C2.4562 13.489 2.34529 13.4396 2.238 13.383C2.1599 13.3366 2.09649 13.2691 2.05509 13.1882C2.01369 13.1074 1.99598 13.0165 2.004 12.926C2.00458 12.8442 2.02445 12.7637 2.062 12.691C2.141 12.535 2.262 12.449 2.41 12.441C2.496 12.434 2.555 12.449 2.695 12.516C2.891 12.602 3.102 12.664 3.32 12.703C3.484 12.73 3.594 12.738 3.773 12.73C4.07 12.727 4.215 12.684 4.324 12.574C4.36153 12.5384 4.39001 12.4943 4.40705 12.4454C4.4241 12.3965 4.42923 12.3443 4.422 12.293C4.398 12.133 4.277 12.039 4.008 11.969L3.528 11.855C3.098 11.758 3.004 11.735 2.898 11.691C2.504 11.535 2.254 11.301 2.137 10.965C2.02336 10.6097 2.04255 10.2252 2.191 9.883C2.351 9.547 2.621 9.305 3.011 9.153C3.215 9.074 3.414 9.027 3.68 9.003C3.758 8.996 4.102 9.008 4.187 9.02H4.188ZM8.328 9.008C8.852 9.051 9.281 9.246 9.625 9.59C9.785 9.746 9.915 9.93 10.02 10.145C10.09 10.285 10.121 10.371 10.168 10.52C10.293 10.934 10.316 11.496 10.223 11.96C10.145 12.344 9.98 12.71 9.758 12.984C9.63241 13.1378 9.48482 13.2723 9.32 13.383C9.258 13.422 9.25 13.43 9.266 13.433C9.301 13.445 9.41 13.5 9.457 13.535C9.516 13.578 9.613 13.675 9.652 13.738C9.711 13.824 9.953 14.246 9.977 14.297C10.0185 14.3816 10.0329 14.4769 10.0182 14.57C10.0035 14.663 9.96049 14.7493 9.895 14.817C9.665 15.067 9.273 15.059 9.075 14.797C9.055 14.773 8.93 14.562 8.793 14.328C8.52 13.852 8.5 13.824 8.403 13.778C8.316 13.734 8.273 13.727 8.082 13.718C7.93779 13.7152 7.79403 13.7012 7.652 13.676C6.844 13.527 6.242 12.934 6.035 12.09C5.97614 11.8472 5.94991 11.5977 5.957 11.348C5.957 11.078 5.965 10.977 6.004 10.766C6.09 10.301 6.297 9.891 6.598 9.59C6.84008 9.3503 7.13964 9.17676 7.468 9.086C7.598 9.046 7.742 9.023 7.938 9.004C8.004 9 8.246 9 8.328 9.008ZM11.668 9.086C11.7517 9.10291 11.8281 9.14515 11.887 9.207C11.9545 9.27464 12.0016 9.35988 12.023 9.453L12.043 9.52L12.051 12.652L12.851 12.656C13.605 12.66 13.656 12.66 13.695 12.676C13.77 12.699 13.816 12.726 13.867 12.781C13.9236 12.8334 13.963 12.9018 13.98 12.977C13.9994 13.0878 13.9994 13.2012 13.98 13.312C13.9634 13.3883 13.9258 13.4585 13.8713 13.5145C13.8169 13.5706 13.7478 13.6102 13.672 13.629C13.625 13.645 13.547 13.645 12.508 13.645H11.395L11.328 13.629C11.2373 13.6075 11.1544 13.561 11.0888 13.4947C11.0232 13.4284 10.9775 13.345 10.957 13.254L10.941 13.191L10.937 11.383C10.937 9.406 10.934 9.5 10.98 9.383C11.0123 9.29829 11.0674 9.22418 11.1392 9.16892C11.2111 9.11367 11.2968 9.07942 11.387 9.07C11.4809 9.05987 11.5758 9.06527 11.668 9.086Z" fill="currentColor"/>
<path d="M7.977 10.008C7.507 10.074 7.219 10.418 7.129 11.02C7.117 11.094 7.113 11.16 7.113 11.36C7.113 11.574 7.117 11.621 7.133 11.719C7.203 12.172 7.387 12.473 7.683 12.621C7.922 12.738 8.243 12.75 8.496 12.645C8.738 12.547 8.93 12.32 9.031 12.008C9.098 11.808 9.121 11.637 9.121 11.355C9.121 11.133 9.113 11.055 9.082 10.891C8.996 10.461 8.773 10.164 8.453 10.055C8.299 10.008 8.13722 9.99205 7.977 10.008ZM10.438 0.21C10.3346 0.222983 10.2379 0.268083 10.1614 0.338946C10.085 0.409809 10.0327 0.502863 10.012 0.605C10 0.66 10 0.84 10.004 2.402C10.004 4.035 10.004 4.141 10.02 4.195C10.07 4.41 10.152 4.559 10.297 4.703C10.4347 4.84416 10.6117 4.94066 10.805 4.98C10.859 4.996 10.965 4.996 12.598 4.996C14.16 5 14.34 5 14.395 4.988C14.5068 4.9645 14.6071 4.9031 14.6789 4.81418C14.7507 4.72526 14.7896 4.61428 14.789 4.5C14.7927 4.42415 14.7765 4.34865 14.742 4.281L14.711 4.215L12.746 2.254C10.91 0.418 10.781 0.289 10.73 0.262C10.639 0.218115 10.5375 0.200454 10.437 0.211L10.438 0.21Z" fill="currentColor"/>
</g>
<defs>
<clipPath id="clip0_3400_7907">
<rect width="16" height="16" fill="white"/>
</clipPath>
</defs>
</svg>
