<svg width="16" height="16" viewBox="0 0 16 16" fill="none" xmlns="http://www.w3.org/2000/svg">
<g clip-path="url(#clip0_2538_54645)">
<path d="M7.645 0.00816843C6.9351 0.0391462 6.23239 0.163551 5.555 0.378168C4.715 0.648168 3.902 1.06617 3.191 1.60217C2.19865 2.34715 1.39384 3.31342 0.840571 4.42412C0.287305 5.53482 0.000853145 6.7593 0.00400112 8.00017C-0.00080554 9.49035 0.412428 10.952 1.19676 12.2191C1.98108 13.4862 3.10506 14.5079 4.441 15.1682C4.77 15.3282 5.023 15.4382 5.344 15.5512C6.73102 16.0327 8.2228 16.1285 9.66 15.8282C11.3522 15.4703 12.8829 14.5739 14.023 13.2732C15.0658 12.0796 15.7306 10.6032 15.933 9.03117C15.98 8.65617 15.996 8.41117 15.996 8.00017C15.996 7.59017 15.98 7.34417 15.934 6.96917C15.6729 4.94759 14.65 3.10194 13.074 1.80917C11.7905 0.754408 10.2087 0.128408 8.551 0.0191684C8.348 0.00516843 7.832 -0.000831571 7.645 0.00816843ZM8.496 2.02017C9.38247 2.09132 10.2419 2.3593 11.0117 2.80458C11.7815 3.24986 12.4423 3.86123 12.946 4.59417C13.8303 5.88222 14.1788 7.46372 13.918 9.00417C13.7395 10.0696 13.2759 11.0669 12.5764 11.8902C11.877 12.7134 10.9676 13.332 9.945 13.6802C9.012 14.0002 7.985 14.0822 6.996 13.9182C5.7673 13.7129 4.63364 13.1283 3.754 12.2462C3.14447 11.6398 2.67395 10.9083 2.375 10.1022C2.1762 9.56614 2.05498 9.00447 2.015 8.43417C1.99935 8.14505 1.99935 7.85529 2.015 7.56617C2.07549 6.70743 2.32027 5.8718 2.7327 5.11616C3.14512 4.36052 3.71549 3.70259 4.405 3.18717C5.31248 2.51146 6.39291 2.10682 7.521 2.02017C7.743 2.00417 7.755 2.00017 8.067 2.00417C8.243 2.00817 8.41 2.01217 8.496 2.02017Z" fill="currentColor"/>
<path d="M5.871 5.00817C5.64399 5.03835 5.43426 5.14568 5.277 5.31217C5.13953 5.45678 5.04861 5.63932 5.016 5.83617C5.00038 7.27879 5.00038 8.72154 5.016 10.1642C5.055 10.3832 5.145 10.5512 5.296 10.7042C5.449 10.8552 5.617 10.9452 5.836 10.9842C5.91 11.0002 10.09 11.0002 10.164 10.9842C10.3695 10.9516 10.5589 10.8533 10.704 10.7042C10.8532 10.5591 10.9514 10.3697 10.984 10.1642C11 10.0902 11 5.91017 10.984 5.83617C10.9514 5.63067 10.8532 5.44123 10.704 5.29617C10.5692 5.15708 10.3963 5.06104 10.207 5.02017L10.137 5.00417H8.03C6.82 5.00417 5.902 5.00417 5.871 5.00817Z" fill="currentColor"/>
</g>
<defs>
<clipPath id="clip0_2538_54645">
<rect width="16" height="16" fill="white"/>
</clipPath>
</defs>
</svg>
