<svg width="16" height="16" viewBox="0 0 16 16" fill="none" xmlns="http://www.w3.org/2000/svg">
<g clip-path="url(#clip0_2538_54358)">
<path d="M2.82 0.00390625C2.20124 0.0442279 1.60969 0.27317 1.125 0.659906C1 0.757906 0.758002 0.999906 0.660002 1.12491C0.297002 1.58191 0.0900016 2.08191 0.0200016 2.67191C0.00400162 2.78191 0.00400162 3.04291 0.00400162 7.99591C0.00400162 12.9919 0.00400162 13.2109 0.0200016 13.3279C0.0590016 13.6839 0.152002 14.0079 0.305002 14.3159C0.52655 14.7695 0.858998 15.1598 1.27154 15.4507C1.68409 15.7415 2.16338 15.9236 2.665 15.9799C2.754 15.9959 3.109 15.9959 7.915 15.9999C11.59 15.9999 13.102 15.9999 13.191 15.9919C13.6385 15.9653 14.0741 15.8377 14.4652 15.6186C14.8563 15.3995 15.1926 15.0946 15.449 14.7269C15.746 14.3049 15.914 13.8629 15.98 13.3279C15.996 13.2179 15.996 12.9879 15.996 7.99991C15.996 3.01191 15.996 2.78091 15.98 2.67191C15.9186 2.10575 15.6965 1.56897 15.34 1.12491C15.1977 0.955185 15.0407 0.798252 14.871 0.655906C14.4298 0.303047 13.8975 0.08252 13.336 0.0199062C13.234 0.00390625 12.946 0.00390625 8.046 0.00390625H2.82ZM13.2 2.01991C13.57 2.10991 13.844 2.35191 13.953 2.69991C14.003 2.85491 14 2.76191 13.996 4.62491C13.996 6.12891 13.992 6.33191 13.98 6.44091C13.8777 7.58891 13.3822 8.66639 12.5772 9.49123C11.7723 10.3161 10.7072 10.8377 9.562 10.9679C9.305 10.9959 9.172 10.9999 8.074 10.9999H7L6.996 11.8669C6.996 12.7229 6.996 12.7379 6.98 12.8049C6.92863 13.028 6.80276 13.2269 6.62316 13.3689C6.44356 13.5109 6.22094 13.5874 5.992 13.5859C5.73807 13.5878 5.49368 13.4893 5.312 13.3119C4.68796 12.6926 4.06563 12.0716 3.445 11.4489C2.203 10.2069 1.645 9.64091 1.613 9.59791C1.52567 9.47753 1.46437 9.34028 1.433 9.19491C1.41354 9.06563 1.41354 8.93418 1.433 8.80491C1.465 8.65991 1.527 8.51991 1.613 8.40191C1.645 8.35891 2.203 7.79291 3.445 6.55091C4.425 5.57091 5.265 4.73091 5.313 4.68691C5.49484 4.50986 5.73922 4.41175 5.993 4.41391C6.22177 4.41261 6.44415 4.48925 6.62355 4.63121C6.80295 4.77316 6.92866 4.97197 6.98 5.19491C6.996 5.26191 6.996 5.27691 6.996 6.13291L7 6.99991L8.07 6.99591C9.059 6.99591 9.14 6.99591 9.195 6.97991C9.38827 6.94057 9.56526 6.84406 9.703 6.70291C9.84416 6.56516 9.94067 6.38817 9.98 6.19491C9.996 6.14091 9.996 6.03091 10 4.49591C10.004 2.98791 10.004 2.85191 10.02 2.80091C10.11 2.42991 10.355 2.15591 10.7 2.04691C10.848 1.99991 10.805 1.99991 12.027 2.00391C13.047 2.00391 13.149 2.00391 13.2 2.01991Z" fill="currentColor"/>
</g>
<defs>
<clipPath id="clip0_2538_54358">
<rect width="16" height="16" fill="white"/>
</clipPath>
</defs>
</svg>
