<svg width="16" height="16" viewBox="0 0 16 16" fill="none" xmlns="http://www.w3.org/2000/svg">
<g clip-path="url(#clip0_2538_55216)">
<path d="M2.82 0.00390625C2.20124 0.0442279 1.60969 0.27317 1.125 0.659906C1 0.757906 0.758002 0.999906 0.660002 1.12491C0.297002 1.58191 0.0900016 2.08191 0.0200016 2.67191C0.00400162 2.78191 0.00400162 3.04291 0.00400162 7.99591C0.00400162 12.9919 0.00400162 13.2109 0.0200016 13.3279C0.0590016 13.6839 0.152002 14.0079 0.305002 14.3159C0.52655 14.7695 0.858998 15.1598 1.27154 15.4507C1.68409 15.7415 2.16338 15.9236 2.665 15.9799C2.754 15.9959 3.109 15.9959 7.915 15.9999C11.59 15.9999 13.102 15.9999 13.191 15.9919C13.6385 15.9653 14.0741 15.8377 14.4652 15.6186C14.8563 15.3995 15.1926 15.0946 15.449 14.7269C15.746 14.3049 15.914 13.8629 15.98 13.3279C15.996 13.2179 15.996 12.9879 15.996 7.99991C15.996 3.01191 15.996 2.78091 15.98 2.67191C15.9186 2.10575 15.6965 1.56897 15.34 1.12491C15.1977 0.955185 15.0407 0.798252 14.871 0.655906C14.4298 0.303047 13.8975 0.08252 13.336 0.0199062C13.234 0.00390625 12.946 0.00390625 8.046 0.00390625H2.82ZM6.7 2.01991C7.105 2.11291 7.395 2.40191 7.48 2.80491C7.5 2.89791 7.5 3.10191 7.48 3.19491C7.395 3.59791 7.098 3.89491 6.695 3.97991C6.62152 3.99141 6.54736 3.99809 6.473 3.99991C6.14605 4.00128 5.82877 4.11096 5.57076 4.31179C5.31276 4.51263 5.12857 4.79329 5.047 5.10991C5.016 5.22991 5.007 5.30891 5 5.51991C4.98976 6.41182 4.63586 7.2654 4.012 7.90291L3.922 7.99991L4.035 8.12091C4.64467 8.7565 4.98967 9.60024 5 10.4809C4.99356 10.6783 5.02691 10.8749 5.09807 11.0591C5.16923 11.2432 5.27674 11.4112 5.4142 11.553C5.55165 11.6947 5.71624 11.8073 5.89814 11.8841C6.08005 11.9609 6.27555 12.0003 6.473 11.9999C6.566 12.0029 6.664 12.0099 6.695 12.0189C7.098 12.1039 7.395 12.4009 7.48 12.8039C7.5 12.8969 7.5 13.1009 7.48 13.1939C7.44109 13.3876 7.34582 13.5654 7.20615 13.7051C7.06648 13.8447 6.88865 13.94 6.695 13.9789C6.60988 13.994 6.52333 13.9993 6.437 13.9949C6.242 13.9949 6.125 13.9869 5.953 13.9599C5.1377 13.8359 4.39305 13.426 3.8521 12.8035C3.31115 12.1811 3.00913 11.3865 3 10.5619C3 10.2149 2.91 9.92991 2.715 9.65591C2.684 9.60891 2.543 9.46091 2.207 9.12491C1.918 8.83491 1.727 8.63691 1.699 8.59791C1.61167 8.47753 1.55037 8.34028 1.519 8.19491C1.49954 8.06563 1.49954 7.93418 1.519 7.80491C1.551 7.65991 1.613 7.51991 1.699 7.40191C1.727 7.36291 1.918 7.16391 2.203 6.87891C2.461 6.62091 2.68 6.39091 2.703 6.35891C2.903 6.08891 3 5.78891 3 5.43791C3 5.09791 3.063 4.71791 3.18 4.37491C3.35034 3.86374 3.63738 3.39926 4.01837 3.01827C4.39936 2.63728 4.86383 2.35025 5.375 2.17991C5.648 2.08591 5.922 2.03091 6.219 2.00791C6.348 1.99591 6.634 2.00391 6.7 2.01991ZM9.898 2.01991C10.7419 2.11225 11.5231 2.50984 12.0943 3.13785C12.6656 3.76587 12.9877 4.58101 13 5.42991C13.004 5.54291 13.012 5.66791 13.02 5.70691C13.059 5.94491 13.148 6.15991 13.297 6.35891C13.32 6.39491 13.527 6.60891 13.797 6.87891C14.082 7.16391 14.273 7.36291 14.301 7.40191C14.387 7.51991 14.449 7.65991 14.481 7.80491C14.5 7.89791 14.5 8.10191 14.481 8.19491C14.4496 8.34028 14.3883 8.47753 14.301 8.59791C14.273 8.63691 14.082 8.83591 13.797 9.12091C13.527 9.39091 13.32 9.60491 13.297 9.64091C13.094 9.90868 12.9892 10.2381 13 10.5739C12.992 10.8089 12.98 10.9449 12.95 11.1209C12.8332 11.7847 12.5263 12.4004 12.0666 12.8933C11.6069 13.3862 11.0141 13.7352 10.36 13.8979C10.21 13.9339 10.004 13.9679 9.852 13.9839C9.692 13.9999 9.387 13.9999 9.305 13.9799C8.898 13.8899 8.605 13.5979 8.52 13.1949C8.50054 13.0656 8.50054 12.9342 8.52 12.8049C8.605 12.4019 8.902 12.1049 9.305 12.0199C9.335 12.0119 9.434 12.0039 9.52 11.9999C9.63536 11.9977 9.75024 11.9843 9.863 11.9599C10.403 11.8319 10.832 11.4019 10.961 10.8629C10.989 10.7362 11.002 10.6067 11 10.4769C11.016 10.0669 11.063 9.77291 11.176 9.42991C11.34 8.93391 11.598 8.51591 11.988 8.09791L12.078 7.99991L11.988 7.90191C11.5839 7.4908 11.2899 6.98457 11.133 6.42991C11.0477 6.13398 11.003 5.82786 11 5.51991C11.0056 5.32273 10.9717 5.12642 10.9002 4.94256C10.8288 4.75869 10.7213 4.59099 10.584 4.44933C10.4467 4.30768 10.2825 4.19493 10.1009 4.11775C9.9194 4.04056 9.72426 4.00049 9.527 3.99991C9.45265 3.99809 9.37849 3.99141 9.305 3.97991C9.11135 3.941 8.93352 3.84573 8.79385 3.70606C8.65418 3.56639 8.55891 3.38856 8.52 3.19491C8.50054 3.06563 8.50054 2.93418 8.52 2.80491C8.574 2.55491 8.707 2.34391 8.906 2.19491C9.023 2.10891 9.191 2.03891 9.328 2.01491C9.359 2.01191 9.391 2.00391 9.398 2.00391C9.426 1.99591 9.805 2.00791 9.898 2.01991Z" fill="currentColor"/>
</g>
<defs>
<clipPath id="clip0_2538_55216">
<rect width="16" height="16" fill="white"/>
</clipPath>
</defs>
</svg>
