<svg width="16" height="16" viewBox="0 0 16 16" fill="none" xmlns="http://www.w3.org/2000/svg">
<path d="M10.82 0.00390625C10.408 0.0317702 10.0057 0.14194 9.637 0.327906C9.347 0.476906 9.121 0.644906 8.883 0.882906C8.74845 1.01194 8.62779 1.15472 8.523 1.30891C8.24523 1.71467 8.07241 2.18298 8.02 2.67191C8.004 2.78191 8.004 3.04291 8.004 7.99591C8.004 12.9919 8.004 13.2109 8.02 13.3279C8.098 14.0079 8.383 14.6089 8.848 15.0859C9.297 15.5429 9.84 15.8359 10.457 15.9489C10.719 15.9959 10.66 15.9959 11.914 15.9959C13.082 15.9999 13.204 15.9999 13.402 15.9729C13.8647 15.9102 14.3065 15.7404 14.692 15.4769C14.9852 15.2719 15.2412 15.0182 15.449 14.7269C15.746 14.3049 15.914 13.8629 15.98 13.3279C15.996 13.2179 15.996 12.9879 15.996 7.99991C15.996 3.01191 15.996 2.78091 15.98 2.67191C15.9186 2.10575 15.6965 1.56897 15.34 1.12491C15.1977 0.955185 15.0407 0.798252 14.871 0.655906C14.4294 0.30371 13.8973 0.0832657 13.336 0.0199062C13.242 0.00390625 13.117 0.00390625 12.046 0.00390625H10.82ZM6.129 2.13691C5.989 2.16391 5.699 2.28491 5.484 2.41391C5.07976 2.64882 4.73655 2.97567 4.4822 3.36798C4.22785 3.76028 4.0695 4.20699 4.02 4.67191C4.005 4.78191 4.005 4.94191 4.005 7.99991C4.005 11.0589 4.005 11.2189 4.021 11.3279C4.106 12.0279 4.384 12.6089 4.856 13.0939C5.185 13.4259 5.556 13.6679 5.993 13.8239C6.12049 13.8761 6.26099 13.8875 6.39525 13.8567C6.52952 13.826 6.65098 13.7544 6.743 13.6519C6.88572 13.503 6.97384 13.3102 6.993 13.1049C7.024 12.8399 6.935 12.5779 6.704 12.2579C6.62906 12.1539 6.55103 12.0522 6.47 11.9529C6.138 11.5349 6.067 11.4179 6.02 11.1909C6.005 11.1329 6.005 10.9649 6.005 7.99991C6.005 5.03491 6.005 4.86691 6.021 4.80891C6.067 4.58191 6.138 4.46491 6.47 4.04691C6.567 3.92191 6.677 3.78491 6.708 3.74191C6.978 3.36691 7.052 3.06991 6.966 2.74191C6.93718 2.64219 6.89334 2.54744 6.836 2.46091C6.78022 2.38281 6.71355 2.3131 6.638 2.25391C6.56518 2.20195 6.48283 2.16487 6.39566 2.14479C6.30849 2.12472 6.21721 2.12204 6.129 2.13691ZM2.129 4.13691C1.989 4.16391 1.699 4.28491 1.484 4.41391C1.114 4.62891 0.774002 4.94491 0.527002 5.30091C0.285002 5.65591 0.117002 6.06191 0.0470016 6.47291C0.00400161 6.72991 0.00400162 6.67991 0.00400162 7.99991C0.00400162 9.31991 0.00400161 9.26991 0.0470016 9.52691C0.184002 10.3199 0.657002 11.0389 1.34 11.4969C1.59 11.6639 1.953 11.8319 2.133 11.8629C2.24414 11.8822 2.35834 11.873 2.46499 11.8363C2.57164 11.7996 2.66727 11.7365 2.743 11.6529C2.88593 11.5038 2.97406 11.3106 2.993 11.1049C3.023 10.8399 2.933 10.5779 2.703 10.2579C2.62806 10.1539 2.55003 10.0522 2.469 9.95291C2.137 9.53491 2.066 9.41791 2.019 9.19091C2.004 9.13291 2.004 9.05091 2.004 7.99991C2.004 6.94991 2.004 6.86691 2.02 6.80891C2.066 6.58191 2.137 6.46491 2.469 6.04691C2.566 5.92191 2.676 5.78491 2.707 5.74191C2.977 5.36691 3.051 5.06991 2.965 4.74191C2.93618 4.64219 2.89234 4.54743 2.835 4.46091C2.77922 4.38281 2.71255 4.3131 2.637 4.25391C2.56418 4.20195 2.48183 4.16487 2.39466 4.14479C2.30749 4.12472 2.21721 4.12204 2.129 4.13691Z" fill="currentColor"/>
</svg>
