<svg width="16" height="16" viewBox="0 0 16 16" fill="none" xmlns="http://www.w3.org/2000/svg">
<path d="M2.871 2.00792C2.441 2.06592 2.105 2.38692 2.02 2.80792C2.004 2.87492 2.004 3.11292 2.004 7.99992C2.004 12.8869 2.004 13.1249 2.02 13.1909C2.09 13.5429 2.344 13.8319 2.68 13.9449C2.797 13.9849 2.867 13.9959 3 13.9959C3.11154 14.0006 3.22292 13.9836 3.328 13.9459C3.668 13.8239 3.902 13.5509 3.98 13.1879C3.996 13.1249 3.996 12.9179 3.996 7.99992C3.996 3.08192 3.996 2.87492 3.98 2.81192C3.93221 2.56554 3.79466 2.34567 3.594 2.19492C3.47435 2.10994 3.33856 2.05038 3.195 2.01992C3.08774 2.00438 2.97912 2.00036 2.871 2.00792ZM5.844 2.01192C5.64249 2.04507 5.4558 2.13864 5.30866 2.28025C5.16151 2.42186 5.06085 2.60483 5.02 2.80492C5.00054 2.93419 5.00054 3.06565 5.02 3.19492C5.066 3.41492 5.176 3.60192 5.34 3.74992C5.367 3.77292 6.71 4.73792 8.328 5.88992C9.31077 6.59031 10.2914 7.29365 11.27 7.99992C11.27 8.00392 9.945 8.95292 8.328 10.1099C7.32921 10.8193 6.3332 11.5327 5.34 12.2499C5.21025 12.3637 5.11208 12.5091 5.055 12.6719C5.01699 12.7769 4.99967 12.8883 5.004 12.9999C5.004 13.0939 5.008 13.1449 5.02 13.1949C5.05067 13.3472 5.11638 13.4902 5.21192 13.6126C5.30746 13.7351 5.4302 13.8336 5.57042 13.9003C5.71065 13.9671 5.86449 14.0003 6.01977 13.9973C6.17505 13.9942 6.32748 13.9551 6.465 13.8829C6.543 13.8429 13.59 8.81292 13.665 8.74592C13.8618 8.57128 13.9816 8.32599 13.9985 8.06344C14.0153 7.80088 13.9278 7.54229 13.755 7.34392C13.727 7.31592 13.688 7.27392 13.665 7.25392C13.59 7.18792 6.543 2.15592 6.465 2.11692C6.27458 2.01635 6.0569 1.97955 5.844 2.01192Z" fill="currentColor"/>
</svg>
