<svg width="16" height="16" viewBox="0 0 16 16" fill="none" xmlns="http://www.w3.org/2000/svg">
<path d="M0.871002 0.00813274C0.441002 0.0661327 0.105002 0.387133 0.0200016 0.808133C0.00400162 0.876133 0.00400162 1.19213 0.00400162 8.00013C0.00400162 14.8081 0.00400162 15.1251 0.0200016 15.1911C0.0900016 15.5431 0.344002 15.8321 0.680002 15.9451C0.797002 15.9851 0.867002 15.9961 1 15.9961C1.11154 16.0008 1.22292 15.9838 1.328 15.9461C1.668 15.8241 1.902 15.5511 1.98 15.1881C1.996 15.1251 1.996 14.8521 1.996 8.00013C1.996 1.14813 1.996 0.875133 1.98 0.812133C1.93221 0.565751 1.79466 0.345882 1.594 0.195133C1.47435 0.110152 1.33856 0.050593 1.195 0.0201327C1.08774 0.00459282 0.979121 0.000569941 0.871002 0.00813274ZM3.844 0.0121327C3.64249 0.0452834 3.4558 0.138859 3.30866 0.280468C3.16151 0.422078 3.06085 0.605042 3.02 0.805133C3.00054 0.934404 3.00054 1.06586 3.02 1.19513C3.078 1.47713 3.23 1.69113 3.484 1.85513C3.531 1.88713 5.719 3.28113 8.352 4.95313C10.98 6.62513 13.132 7.99613 13.132 8.00013C13.132 8.00413 10.98 9.37513 8.352 11.0471C5.719 12.7191 3.532 14.1131 3.484 14.1451C3.28304 14.2646 3.13075 14.4513 3.054 14.6721C3.01633 14.7772 2.99935 14.8886 3.004 15.0001C3.004 15.1451 3.016 15.2101 3.054 15.3281C3.144 15.5741 3.316 15.7731 3.551 15.8911C3.68 15.9571 3.855 16.0001 4 16.0001C4.145 16.0001 4.32 15.9571 4.445 15.8951C4.504 15.8631 15.539 8.84813 15.602 8.80113C15.762 8.67613 15.882 8.50413 15.949 8.30913C15.9969 8.16493 16.011 8.01166 15.9902 7.86115C15.9693 7.71064 15.9142 7.56693 15.829 7.44113C15.7648 7.35042 15.6884 7.26899 15.602 7.19913C15.539 7.15213 4.504 0.137133 4.445 0.105133C4.25869 0.0140472 4.04913 -0.0183805 3.844 0.0121327Z" fill="currentColor"/>
</svg>
