<svg width="16" height="16" viewBox="0 0 16 16" fill="none" xmlns="http://www.w3.org/2000/svg">
<path d="M5.762 2.004C4.93617 2.03561 4.12583 2.23785 3.382 2.598C2.63111 2.96186 1.96443 3.47844 1.4246 4.11469C0.884778 4.75095 0.483691 5.49287 0.246998 6.293C-0.0232517 7.21073 -0.0713367 8.17957 0.106713 9.11955C0.284763 10.0595 0.683841 10.9437 1.271 11.699C1.763 12.3262 2.37492 12.8493 3.07111 13.2376C3.76729 13.626 4.53382 13.8719 5.326 13.961C5.634 13.996 5.586 13.996 7.884 13.996C10.415 14 10.411 14 10.864 13.937C12.333 13.7278 13.6714 12.9787 14.618 11.836C15.1398 11.2059 15.5278 10.4761 15.758 9.691C16.001 8.855 16.06 7.996 15.938 7.137C15.7402 5.75848 15.0679 4.49206 14.0371 3.55573C13.0062 2.6194 11.6811 2.07173 10.29 2.007C10.156 2 5.9 2 5.762 2.005V2.004ZM10.262 4.008C11.1147 4.06264 11.9276 4.3885 12.582 4.938C12.687 5.028 12.93 5.266 13.023 5.375C13.375 5.785 13.633 6.238 13.801 6.746C13.9761 7.28539 14.0359 7.85554 13.9767 8.41953C13.9174 8.98351 13.7404 9.52877 13.457 10.02C13.157 10.535 12.742 10.977 12.257 11.305C11.6627 11.7141 10.9673 11.9517 10.247 11.992C10.148 12 9.445 12 7.907 12C5.473 11.996 5.668 12 5.336 11.945C4.71151 11.8431 4.12061 11.5928 3.613 11.215C3.32083 10.9943 3.05833 10.7368 2.832 10.449C2.71907 10.2988 2.61489 10.1422 2.52 9.98C2.11188 9.25902 1.93673 8.42947 2.01854 7.60506C2.10036 6.78064 2.43514 6.00169 2.977 5.375C3.07 5.265 3.313 5.027 3.418 4.937C4.00959 4.44219 4.73085 4.12773 5.496 4.031C5.566 4.023 5.664 4.011 5.719 4.008C7.23332 4.00018 8.74767 4.00018 10.262 4.008Z" fill="currentColor"/>
<path d="M5.828 5.004C5.23123 5.0371 4.65808 5.24829 4.18251 5.61031C3.70694 5.97233 3.35078 6.46858 3.16 7.035C3.05104 7.34483 2.99821 7.67161 3.004 8C3.004 8.367 3.047 8.633 3.16 8.965C3.37596 9.60777 3.8042 10.1579 4.37431 10.525C4.94442 10.8922 5.62247 11.0544 6.297 10.985C6.68929 10.9469 7.07019 10.8316 7.4178 10.6458C7.76541 10.46 8.07289 10.2074 8.32257 9.90241C8.57225 9.59744 8.75922 9.24614 8.87273 8.8687C8.98624 8.49125 9.02405 8.0951 8.984 7.703C8.91677 7.01536 8.61378 6.37214 8.12641 5.8824C7.63905 5.39267 6.9973 5.08656 6.31 5.016C6.15019 5.00638 5.99009 5.00238 5.83 5.004H5.828Z" fill="currentColor"/>
</svg>
