<svg width="16" height="16" viewBox="0 0 16 16" fill="none" xmlns="http://www.w3.org/2000/svg">
<path d="M9.285 1.00791C9.121 1.03091 8.945 1.10191 8.812 1.20291C8.785 1.22291 7.234 2.76991 5.372 4.63291C2.637 7.36691 1.965 8.04691 1.902 8.12491C1.41093 8.73339 1.17954 9.51093 1.258 10.2889C1.32 10.9019 1.551 11.4569 1.938 11.9179C2.65289 12.6549 3.37966 13.3804 4.118 14.0939C4.598 14.4689 5.082 14.6679 5.68 14.7379C6.07936 14.7824 6.4836 14.7454 6.86826 14.6292C7.25293 14.513 7.61004 14.32 7.918 14.0619C7.988 14.0039 9.07 12.9299 11.402 10.5939C14.555 7.44091 14.793 7.20391 14.836 7.13291C14.9222 7.00145 14.9757 6.85126 14.992 6.69491C15 6.64491 15 5.92491 15 4.24191C14.996 1.98791 14.996 1.85891 14.98 1.80491C14.9407 1.61164 14.8442 1.43465 14.703 1.29691C14.5686 1.15763 14.3961 1.06124 14.207 1.01991L14.137 1.00391H11.738C10.355 1.00391 9.316 1.00391 9.285 1.00791ZM11.762 3.02291C11.992 3.06591 12.195 3.15291 12.382 3.28491C12.5459 3.40447 12.6839 3.55595 12.7877 3.73023C12.8915 3.90452 12.959 4.098 12.9861 4.29904C13.0132 4.50008 12.9993 4.70453 12.9453 4.90007C12.8914 5.09562 12.7984 5.27823 12.672 5.43691C12.602 5.52291 12.469 5.65191 12.382 5.71491C11.984 5.99991 11.484 6.07491 11.02 5.92191C10.7135 5.81904 10.4487 5.61939 10.2654 5.35301C10.0822 5.08663 9.99045 4.76794 10.004 4.44491C10.016 4.06991 10.156 3.73791 10.41 3.46891C10.66 3.20691 10.969 3.05491 11.336 3.00791C11.43 2.99591 11.664 3.00391 11.762 3.02291ZM8.695 6.51991C9.098 6.60491 9.395 6.90191 9.48 7.30491C9.492 7.35491 9.496 7.40591 9.496 7.49991C9.49839 7.56531 9.49302 7.63077 9.48 7.69491C9.44863 7.84028 9.38733 7.97753 9.3 8.09791C9.238 8.18791 6.187 11.2379 6.098 11.3009C5.97762 11.3882 5.84037 11.4495 5.695 11.4809C5.63082 11.4936 5.56537 11.4986 5.5 11.4959C5.4346 11.4983 5.36914 11.4929 5.305 11.4799C5.11135 11.441 4.93352 11.3457 4.79385 11.2061C4.65418 11.0664 4.55891 10.8886 4.52 10.6949C4.50054 10.5656 4.50054 10.4342 4.52 10.3049C4.55 10.1599 4.613 10.0199 4.7 9.90191C4.762 9.81191 7.812 6.76191 7.902 6.69891C8.023 6.60891 8.192 6.53891 8.328 6.51591C8.359 6.51191 8.391 6.50391 8.398 6.50391C8.49728 6.50006 8.59671 6.50542 8.695 6.51991Z" fill="currentColor"/>
</svg>
