<svg width="16" height="16" viewBox="0 0 16 16" fill="none" xmlns="http://www.w3.org/2000/svg">
<path d="M4.871 2.00791C4.727 2.02791 4.574 2.08591 4.453 2.16791C4.34242 2.24273 4.24594 2.3365 4.168 2.44491C4.109 2.53891 1.082 8.59391 1.055 8.67991C1.01792 8.78239 1.00062 8.89097 1.004 8.99991C1.004 9.27691 1.098 9.50791 1.297 9.70291C1.45617 9.86669 1.66783 9.96934 1.895 9.99291C2.07 10.0119 2.281 9.97691 2.437 9.89791C2.586 9.82391 2.747 9.68391 2.832 9.55491C2.855 9.51991 2.984 9.26491 3.122 8.99191L3.367 8.49991H6.633L6.879 8.99191C7.016 9.26591 7.145 9.51991 7.168 9.55491C7.227 9.64491 7.359 9.77291 7.453 9.83191C7.6439 9.95896 7.87308 10.0156 8.10118 9.99204C8.32929 9.9685 8.54207 9.86627 8.703 9.70291C8.79828 9.61273 8.87359 9.50357 8.92406 9.38248C8.97453 9.26139 8.99904 9.13106 8.996 8.99991C8.9997 8.89104 8.98274 8.78246 8.946 8.67991C8.918 8.59391 5.891 2.53991 5.832 2.44491C5.79386 2.39154 5.75066 2.34198 5.703 2.29691C5.56516 2.15375 5.38625 2.05696 5.191 2.01991C5.08509 2.00424 4.97779 2.00022 4.871 2.00791ZM5.321 5.87091L5.633 6.49991H4.367L4.68 5.87091C4.855 5.52291 4.996 5.24191 5 5.24191C5.004 5.24191 5.145 5.52291 5.32 5.87191L5.321 5.87091ZM8.871 2.00791C8.66321 2.03526 8.46927 2.1272 8.31657 2.27075C8.16387 2.4143 8.06013 2.6022 8.02 2.80791C8 2.90191 8 3.09791 8.02 3.19091C8.05895 3.38638 8.15513 3.56586 8.29634 3.70653C8.43754 3.8472 8.61738 3.9427 8.813 3.98091C8.875 3.99591 8.996 3.99591 11.5 3.99591C13.984 3.99591 14.125 3.99591 14.191 3.97991C14.3866 3.94166 14.5663 3.84582 14.7071 3.7047C14.8479 3.56358 14.9432 3.38362 14.981 3.18791C15 3.09791 15 2.90191 14.981 2.81191C14.944 2.61849 14.8509 2.44025 14.7132 2.29941C14.5756 2.15856 14.3995 2.06136 14.207 2.01991L14.137 2.00391H11.53C10.05 2.00391 8.901 2.00391 8.87 2.00791H8.871ZM10.871 6.00791C10.6632 6.03526 10.4693 6.1272 10.3166 6.27075C10.1639 6.4143 10.0601 6.6022 10.02 6.80791C10 6.90191 10 7.09791 10.02 7.19091C10.09 7.54291 10.344 7.83191 10.68 7.94491C10.844 7.99991 10.7 7.99591 12.5 7.99591C14.305 7.99591 14.168 7.99991 14.328 7.94591C14.5552 7.86761 14.7463 7.70975 14.8662 7.5015C14.986 7.29324 15.0264 7.04865 14.98 6.81291C14.9432 6.61944 14.8503 6.44107 14.7129 6.30005C14.5754 6.15903 14.3995 6.0616 14.207 6.01991L14.137 6.00391H12.53C11.628 6.00391 10.901 6.00391 10.87 6.00791H10.871ZM1.871 11.0079C1.449 11.0629 1.101 11.3869 1.02 11.8079C1 11.9019 1 12.0979 1.02 12.1909C1.05888 12.3862 1.15492 12.5656 1.29593 12.7063C1.43694 12.8469 1.61656 12.9425 1.812 12.9809C1.875 12.9959 2.117 12.9959 8 12.9959C13.848 12.9959 14.125 12.9959 14.191 12.9799C14.4185 12.9362 14.6235 12.8143 14.7706 12.6353C14.9176 12.4564 14.9974 12.2315 14.996 11.9999C14.996 11.7709 14.9176 11.5488 14.7739 11.3705C14.6302 11.1923 14.4298 11.0685 14.206 11.0199L14.136 11.0039H8.032C4.532 11.0039 1.902 11.0039 1.871 11.0079Z" fill="currentColor"/>
</svg>
