<svg width="16" height="16" viewBox="0 0 16 16" fill="none" xmlns="http://www.w3.org/2000/svg">
<path d="M5.691 0.00805202C4.59317 0.0640606 3.53155 0.419201 2.621 1.03505C2.07782 1.40968 1.59809 1.86882 1.2 2.39505C0.296856 3.60158 -0.120363 5.10323 0.0309388 6.60273C0.18224 8.10223 0.891033 9.49026 2.017 10.4921C2.67119 11.071 3.4438 11.5002 4.28095 11.7497C5.11809 11.9993 5.99961 12.0632 6.864 11.9371C7.75936 11.8083 8.614 11.4788 9.364 10.9731C10.3656 10.2941 11.1389 9.32865 11.583 8.20305C12.028 7.06802 12.1193 5.82494 11.845 4.63705C11.5681 3.44218 10.9315 2.36093 10.021 1.53905C9.40843 0.985651 8.68654 0.566962 7.902 0.310052C7.19068 0.0722202 6.44102 -0.0298834 5.692 0.00905202L5.691 0.00805202ZM6.375 3.27305V4.03905H7.77L7.695 4.34405C7.598 4.73405 7.492 5.11405 7.461 5.17605C7.42845 5.23222 7.37964 5.2772 7.321 5.30505L7.277 5.32505L6.824 5.32805H6.375L6.379 6.62105V7.91105L6.395 7.98405C6.418 8.08205 6.441 8.12505 6.488 8.15205C6.523 8.17205 6.531 8.17605 6.613 8.18005C6.809 8.18405 6.922 8.14805 7.25 7.96505C7.324 7.92505 7.387 7.89505 7.39 7.89505C7.402 7.91005 7.797 9.08505 7.793 9.09405C7.61822 9.17825 7.44115 9.25761 7.262 9.33205C7.10446 9.39024 6.94219 9.43474 6.777 9.46505C6.281 9.55505 5.812 9.46505 5.497 9.21505C5.26882 9.02685 5.11153 8.76657 5.051 8.47705C5 8.24705 5.004 8.49205 5.004 5.59405L5 2.96405L5.398 2.82805C5.621 2.75405 5.926 2.64805 6.082 2.59805C6.238 2.54305 6.367 2.50405 6.372 2.50405C6.372 2.50805 6.375 2.85105 6.375 3.27305Z" fill="currentColor"/>
<path d="M13.469 5.35205C13.3806 5.37944 13.299 5.42524 13.2295 5.48642C13.1601 5.54761 13.1043 5.6228 13.066 5.70705C13.016 5.82005 13.008 5.85905 13 6.11705C12.9708 7.92925 12.2382 9.65911 10.957 10.9411C9.93168 11.9726 8.60982 12.6581 7.176 12.9021C6.82575 12.9596 6.47187 12.9924 6.117 13.0001C6.02011 12.9967 5.92315 13.0044 5.828 13.0231C5.69884 13.0554 5.582 13.1249 5.492 13.2231C5.41164 13.3026 5.35939 13.4061 5.34315 13.518C5.32691 13.6299 5.34757 13.744 5.402 13.8431C5.453 13.9221 5.645 14.1331 5.872 14.3521C6.51522 14.9631 7.28611 15.4237 8.12899 15.7006C8.97188 15.9774 9.86573 16.0637 10.746 15.9531C11.8722 15.8114 12.9352 15.3537 13.8119 14.6329C14.6887 13.912 15.3433 12.9576 15.7 11.8801C16.076 10.728 16.098 9.48969 15.763 8.32505C15.4781 7.34538 14.9468 6.45507 14.22 5.73905C13.876 5.39905 13.798 5.34905 13.61 5.34105C13.563 5.33663 13.5156 5.3407 13.47 5.35305L13.469 5.35205Z" fill="currentColor"/>
</svg>
