<svg width="16" height="16" viewBox="0 0 16 16" fill="none" xmlns="http://www.w3.org/2000/svg">
<path d="M7.645 0.00816843C6.9351 0.0391462 6.23239 0.163551 5.555 0.378168C4.715 0.648168 3.902 1.06617 3.191 1.60217C2.19865 2.34715 1.39384 3.31342 0.840571 4.42412C0.287305 5.53482 0.000853145 6.7593 0.00400112 8.00017C-0.00080554 9.49035 0.412428 10.952 1.19676 12.2191C1.98108 13.4862 3.10506 14.5079 4.441 15.1682C4.77 15.3282 5.023 15.4382 5.344 15.5512C6.73102 16.0327 8.2228 16.1285 9.66 15.8282C11.3522 15.4703 12.8829 14.5739 14.023 13.2732C15.0658 12.0796 15.7306 10.6032 15.933 9.03117C15.98 8.65617 15.996 8.41117 15.996 8.00017C15.996 7.59017 15.98 7.34417 15.934 6.96917C15.6729 4.94759 14.65 3.10194 13.074 1.80917C11.7905 0.754408 10.2087 0.128408 8.551 0.0191684C8.348 0.00516843 7.832 -0.000831571 7.645 0.00816843ZM8.496 2.02017C9.38247 2.09132 10.2419 2.3593 11.0117 2.80458C11.7815 3.24986 12.4423 3.86123 12.946 4.59417C13.8303 5.88222 14.1788 7.46372 13.918 9.00417C13.7395 10.0696 13.2759 11.0669 12.5764 11.8902C11.877 12.7134 10.9676 13.332 9.945 13.6802C9.012 14.0002 7.985 14.0822 6.996 13.9182C5.7673 13.7129 4.63364 13.1283 3.754 12.2462C3.14447 11.6398 2.67395 10.9083 2.375 10.1022C2.1762 9.56614 2.05498 9.00447 2.015 8.43417C1.99935 8.14505 1.99935 7.85529 2.015 7.56617C2.07549 6.70743 2.32027 5.8718 2.7327 5.11616C3.14512 4.36052 3.71549 3.70259 4.405 3.18717C5.31248 2.51146 6.39291 2.10682 7.521 2.02017C7.743 2.00417 7.755 2.00017 8.067 2.00417C8.243 2.00817 8.41 2.01217 8.496 2.02017Z" fill="currentColor"/>
<path d="M6.418 4.41017C6.34356 4.41814 6.27016 4.4339 6.199 4.45717C6.02514 4.51211 5.8696 4.61354 5.74922 4.75049C5.62884 4.88744 5.54819 5.05469 5.516 5.23417C5.50037 7.07814 5.50037 8.9222 5.516 10.7662C5.586 11.1682 5.895 11.4802 6.296 11.5702C6.536 11.6212 6.786 11.5822 6.992 11.4602C7.051 11.4262 10.82 8.82017 10.875 8.77317C11.051 8.63317 11.172 8.42617 11.223 8.19517C11.243 8.10517 11.243 7.89817 11.223 7.80917C11.1782 7.58062 11.0551 7.37483 10.875 7.22717C9.58313 6.32762 8.28879 5.43161 6.992 4.53917C6.81771 4.44016 6.6179 4.39526 6.418 4.41017Z" fill="currentColor"/>
</svg>
