<svg width="16" height="16" viewBox="0 0 16 16" fill="none" xmlns="http://www.w3.org/2000/svg">
<path d="M7.64 0.00790625C6.2663 0.0700856 4.93192 0.485832 3.766 1.21491C3.332 1.48491 2.926 1.79691 2.555 2.14091L2.465 2.22691L2.145 1.90691C2.0263 1.78282 1.90218 1.66404 1.773 1.55091C1.67952 1.49075 1.56883 1.46305 1.45803 1.47208C1.34723 1.48112 1.2425 1.52639 1.16 1.60091C1.10071 1.65789 1.05522 1.72767 1.027 1.80491L1.004 1.87091L1 3.20691C1 4.70291 0.996 4.60491 1.055 4.72691C1.098 4.81691 1.188 4.90691 1.273 4.94891C1.391 5.00391 1.289 4.99991 2.77 4.99991C4.234 4.99991 4.148 5.00391 4.254 4.95291C4.35683 4.90386 4.4385 4.81935 4.484 4.71491C4.51966 4.64899 4.53725 4.57482 4.535 4.49991C4.53761 4.42381 4.52038 4.34833 4.485 4.28091C4.453 4.21491 4.445 4.21091 4.168 3.92991C4.06929 3.8358 3.9755 3.73667 3.887 3.63291C5.02858 2.55391 6.54959 1.96857 8.12 2.00391C8.362 2.00791 8.534 2.01991 8.757 2.04691C9.73881 2.17056 10.6743 2.53693 11.479 3.11291C12.4194 3.78302 13.1475 4.70904 13.577 5.78091C13.933 6.67591 14.065 7.64791 13.967 8.61691C13.8822 9.44473 13.6258 10.2458 13.214 10.9689C12.7281 11.8204 12.0415 12.5402 11.214 13.0659C10.0549 13.8041 8.67689 14.1201 7.312 13.9609C6.25925 13.8413 5.2573 13.4437 4.409 12.8089C4.20227 12.6515 4.004 12.4832 3.815 12.3049C3.67283 12.158 3.4888 12.0584 3.288 12.0199C3.04902 11.9726 2.80097 12.0149 2.59124 12.1389C2.3815 12.2628 2.22478 12.4597 2.151 12.6919C2.042 13.0229 2.121 13.4019 2.351 13.6599C2.542 13.8709 3.003 14.2619 3.366 14.5199C4.45943 15.3014 5.73375 15.7918 7.069 15.9449C7.757 16.0229 8.436 16.0149 9.116 15.9219C10.898 15.6699 12.5431 14.8246 13.7856 13.5226C15.0281 12.2206 15.7956 10.5378 15.964 8.74591C15.987 8.46891 15.995 8.32791 15.995 7.99991C15.9975 6.27321 15.4396 4.59234 14.405 3.20991C13.716 2.28666 12.8353 1.5235 11.8234 0.972854C10.8115 0.422204 9.69242 0.0971107 8.543 0.0199062C8.348 0.00390625 7.831 -9.37497e-05 7.64 0.00790625Z" fill="currentColor"/>
<path d="M6.406 5.03491C6.32825 5.05047 6.25522 5.08398 6.19272 5.13277C6.13021 5.18155 6.07997 5.24427 6.046 5.31591C5.997 5.42591 6 5.23391 6 7.99991C6 10.2659 6 10.5229 6.012 10.5739C6.02734 10.6475 6.05911 10.7168 6.10492 10.7764C6.15073 10.8361 6.20942 10.8847 6.2766 10.9185C6.34379 10.9523 6.41774 10.9706 6.49295 10.9718C6.56817 10.9731 6.6427 10.9574 6.711 10.9259C6.746 10.9059 7.668 10.3359 8.766 9.65191C10.68 8.46091 10.766 8.40591 10.824 8.34791C10.8714 8.3034 10.9089 8.24942 10.9341 8.18946C10.9592 8.1295 10.9715 8.06491 10.97 7.99991C10.97 7.85991 10.923 7.74991 10.825 7.65191C10.767 7.59391 10.681 7.53891 8.767 6.34791C8.0828 5.92087 7.39713 5.4962 6.71 5.07391C6.64194 5.04441 6.5691 5.02747 6.495 5.02391C6.479 5.02391 6.437 5.03091 6.406 5.03491Z" fill="currentColor"/>
</svg>
