<svg width="16" height="16" viewBox="0 0 16 16" fill="none" xmlns="http://www.w3.org/2000/svg">
<path d="M7.645 0.00816843C6.9351 0.0391462 6.23239 0.163551 5.555 0.378168C4.715 0.648168 3.902 1.06617 3.191 1.60217C2.19865 2.34715 1.39384 3.31342 0.840571 4.42412C0.287305 5.53482 0.000853145 6.7593 0.00400112 8.00017C-0.00080554 9.49035 0.412428 10.952 1.19676 12.2191C1.98108 13.4862 3.10506 14.5079 4.441 15.1682C4.77 15.3282 5.023 15.4382 5.344 15.5512C6.73102 16.0327 8.2228 16.1285 9.66 15.8282C11.3522 15.4703 12.8829 14.5739 14.023 13.2732C15.0658 12.0796 15.7306 10.6032 15.933 9.03117C15.98 8.65617 15.996 8.41117 15.996 8.00017C15.996 7.59017 15.98 7.34417 15.934 6.96917C15.6729 4.94759 14.65 3.10194 13.074 1.80917C11.7905 0.754408 10.2087 0.128408 8.551 0.0191684C8.348 0.00516843 7.832 -0.000831571 7.645 0.00816843ZM8.496 2.02017C9.38247 2.09132 10.2419 2.3593 11.0117 2.80458C11.7815 3.24986 12.4423 3.86123 12.946 4.59417C13.8303 5.88222 14.1788 7.46372 13.918 9.00417C13.7395 10.0696 13.2759 11.0669 12.5764 11.8902C11.877 12.7134 10.9676 13.332 9.945 13.6802C9.012 14.0002 7.985 14.0822 6.996 13.9182C5.7673 13.7129 4.63364 13.1283 3.754 12.2462C3.14447 11.6398 2.67395 10.9083 2.375 10.1022C2.1762 9.56614 2.05498 9.00447 2.015 8.43417C1.99935 8.14505 1.99935 7.85529 2.015 7.56617C2.07549 6.70743 2.32027 5.8718 2.7327 5.11616C3.14512 4.36052 3.71549 3.70259 4.405 3.18717C5.31248 2.51146 6.39291 2.10682 7.521 2.02017C7.743 2.00417 7.755 2.00017 8.067 2.00417C8.243 2.00817 8.41 2.01217 8.496 2.02017Z" fill="currentColor"/>
<path d="M5.84 4.27017C5.74472 4.28645 5.65238 4.31678 5.566 4.36017C5.42546 4.42602 5.30262 4.52441 5.20767 4.64718C5.11272 4.76995 5.04839 4.91358 5.02 5.06617C5.004 5.12517 5.004 5.28917 5.004 8.00017C5.004 10.7702 5.004 10.8752 5.02 10.9382C5.04963 11.0882 5.11336 11.2295 5.20626 11.351C5.29917 11.4725 5.41876 11.5711 5.55581 11.639C5.69286 11.707 5.84369 11.7425 5.99665 11.7429C6.14962 11.7432 6.30062 11.7084 6.438 11.6412C6.531 11.5942 11.141 8.85517 11.215 8.80517C11.297 8.74617 11.415 8.62117 11.469 8.53517C11.568 8.37427 11.6204 8.18907 11.6204 8.00017C11.6204 7.81126 11.568 7.62606 11.469 7.46517C11.399 7.36245 11.3133 7.27135 11.215 7.19517C11.141 7.14517 6.527 4.40217 6.438 4.35917C6.2532 4.26668 6.04384 4.23617 5.84 4.27017Z" fill="currentColor"/>
</svg>
