<svg width="16" height="16" viewBox="0 0 16 16" fill="none" xmlns="http://www.w3.org/2000/svg">
<g clip-path="url(#clip0_4297_7807)">
<path d="M7.645 0.00816843C6.9351 0.0391462 6.23239 0.163551 5.555 0.378168C4.715 0.648168 3.902 1.06617 3.191 1.60217C2.19865 2.34715 1.39384 3.31342 0.840571 4.42412C0.287305 5.53482 0.000853145 6.7593 0.00400112 8.00017C-0.00080554 9.49035 0.412428 10.952 1.19676 12.2191C1.98108 13.4862 3.10506 14.5079 4.441 15.1682C4.77 15.3282 5.023 15.4382 5.344 15.5512C6.73102 16.0327 8.2228 16.1285 9.66 15.8282C11.3522 15.4703 12.8829 14.5739 14.023 13.2732C15.0658 12.0796 15.7306 10.6032 15.933 9.03117C15.98 8.65617 15.996 8.41117 15.996 8.00017C15.996 7.59017 15.98 7.34417 15.934 6.96917C15.6729 4.94759 14.65 3.10194 13.074 1.80917C11.7905 0.754408 10.2087 0.128408 8.551 0.0191684C8.348 0.00516843 7.832 -0.000831571 7.645 0.00816843ZM8.496 2.02017C9.38247 2.09132 10.2419 2.3593 11.0117 2.80458C11.7815 3.24986 12.4423 3.86123 12.946 4.59417C13.8303 5.88222 14.1788 7.46372 13.918 9.00417C13.7395 10.0696 13.2759 11.0669 12.5764 11.8902C11.877 12.7134 10.9676 13.332 9.945 13.6802C9.012 14.0002 7.985 14.0822 6.996 13.9182C5.7673 13.7129 4.63364 13.1283 3.754 12.2462C3.14447 11.6398 2.67395 10.9083 2.375 10.1022C2.1762 9.56614 2.05498 9.00447 2.015 8.43417C1.99935 8.14505 1.99935 7.85529 2.015 7.56617C2.07549 6.70743 2.32027 5.8718 2.7327 5.11616C3.14512 4.36052 3.71549 3.70259 4.405 3.18717C5.31248 2.51146 6.39291 2.10682 7.521 2.02017C7.743 2.00417 7.755 2.00017 8.067 2.00417C8.243 2.00817 8.41 2.01217 8.496 2.02017Z" fill="currentColor"/>
<path d="M5.871 5.00817C5.441 5.06617 5.105 5.38717 5.02 5.80817C5.004 5.87517 5.004 5.99217 5.004 8.00017C5.004 10.0082 5.004 10.1252 5.02 10.1912C5.09 10.5432 5.344 10.8322 5.68 10.9452C5.797 10.9852 5.867 10.9962 6 10.9962C6.11154 11.0008 6.22292 10.9838 6.328 10.9462C6.668 10.8242 6.902 10.5512 6.98 10.1882C6.996 10.1252 6.996 10.0202 6.996 8.00017C6.996 5.98017 6.996 5.87517 6.98 5.81217C6.93221 5.56579 6.79466 5.34592 6.594 5.19517C6.47435 5.11019 6.33856 5.05063 6.195 5.02017C6.08774 5.00463 5.97912 5.00061 5.871 5.00817ZM9.871 5.00817C9.441 5.06617 9.105 5.38717 9.02 5.80817C9.004 5.87517 9.004 5.99217 9.004 8.00017C9.004 10.0082 9.004 10.1252 9.02 10.1912C9.09 10.5432 9.344 10.8322 9.68 10.9452C9.797 10.9852 9.867 10.9962 10 10.9962C10.1115 11.0008 10.2229 10.9838 10.328 10.9462C10.668 10.8242 10.902 10.5512 10.98 10.1882C10.996 10.1252 10.996 10.0202 10.996 8.00017C10.996 5.98017 10.996 5.87517 10.98 5.81217C10.9322 5.56579 10.7947 5.34592 10.594 5.19517C10.4744 5.11019 10.3386 5.05063 10.195 5.02017C10.0877 5.00463 9.97912 5.00061 9.871 5.00817Z" fill="currentColor"/>
</g>
<defs>
<clipPath id="clip0_4297_7807">
<rect width="16" height="16" fill="white"/>
</clipPath>
</defs>
</svg>
