<svg width="16" height="16" viewBox="0 0 16 16" fill="none" xmlns="http://www.w3.org/2000/svg">
<g clip-path="url(#clip0_2538_59309)">
<path d="M2.82 0.00390625C2.20109 0.0435278 1.60933 0.272548 1.125 0.659906C1 0.757906 0.758002 0.999906 0.660002 1.12491C0.297002 1.58191 0.0900016 2.08191 0.0200016 2.67191C0.00400162 2.77691 0.00400162 2.94191 0.00400162 5.49591C0.00400162 8.07391 0.00400162 8.21491 0.0200016 8.32791C0.0980016 9.00791 0.383002 9.60891 0.848002 10.0859C1.297 10.5429 1.84 10.8359 2.457 10.9489C2.719 10.9959 2.66 10.9959 3.879 10.9959L5 10.9999L5.004 12.1169C5.004 13.3319 5.004 13.2929 5.051 13.5469C5.164 14.1369 5.434 14.6599 5.848 15.0859C6.297 15.5429 6.84 15.8359 7.457 15.9489C7.73 15.9999 7.497 15.9959 10.414 15.9999C13.114 15.9999 13.195 15.9999 13.402 15.9729C13.8647 15.9102 14.3065 15.7404 14.692 15.4769C14.9852 15.2719 15.2412 15.0182 15.449 14.7269C15.746 14.3049 15.914 13.8629 15.98 13.3279C15.996 13.2229 15.996 13.0739 15.996 10.4999C15.996 7.92591 15.996 7.77691 15.98 7.67191C15.9186 7.10575 15.6965 6.56897 15.34 6.12491C15.1977 5.95518 15.0407 5.79825 14.871 5.65591C14.4294 5.30371 13.8973 5.08327 13.336 5.01991C13.242 5.00791 13.117 5.00391 12.117 5.00391L11 4.99991L10.996 3.87891C10.996 2.65991 10.996 2.71891 10.949 2.45691C10.8588 1.96936 10.6492 1.51174 10.339 1.12491C10.197 0.955228 10.0404 0.798297 9.871 0.655906C9.42975 0.303047 8.89751 0.08252 8.336 0.0199062C8.238 0.00390625 8.055 0.00390625 5.546 0.00390625H2.82ZM9.695 5.51991C10.098 5.60491 10.395 5.90191 10.48 6.30491C10.492 6.35491 10.496 6.40591 10.496 6.49991C10.4984 6.56531 10.493 6.63077 10.48 6.69491C10.4486 6.84028 10.3873 6.97753 10.3 7.09791C10.238 7.18791 7.187 10.2379 7.098 10.3009C6.97762 10.3882 6.84038 10.4495 6.695 10.4809C6.63082 10.4936 6.56537 10.4986 6.5 10.4959C6.4346 10.4983 6.36914 10.4929 6.305 10.4799C6.11135 10.441 5.93352 10.3457 5.79385 10.2061C5.65418 10.0664 5.55891 9.88856 5.52 9.69491C5.50054 9.56563 5.50054 9.43418 5.52 9.30491C5.55 9.15991 5.613 9.01991 5.7 8.90191C5.762 8.81191 8.812 5.76191 8.902 5.69891C9.023 5.60891 9.192 5.53891 9.328 5.51591C9.359 5.51191 9.391 5.50391 9.398 5.50391C9.49728 5.50006 9.59671 5.50542 9.695 5.51991Z" fill="currentColor"/>
</g>
<defs>
<clipPath id="clip0_2538_59309">
<rect width="16" height="16" fill="white"/>
</clipPath>
</defs>
</svg>
