<svg width="16" height="16" viewBox="0 0 16 16" fill="none" xmlns="http://www.w3.org/2000/svg">
<path d="M3.86 2.00388C3.844 2.00788 3.797 2.01188 3.758 2.01588C3.4024 2.05731 3.06465 2.19429 2.78065 2.41227C2.49665 2.63025 2.27699 2.92108 2.145 3.25388C1.96907 3.69143 1.95384 4.17716 2.102 4.62488C2.21619 4.97714 2.42664 5.29043 2.70956 5.52935C2.99248 5.76827 3.33659 5.92329 3.703 5.97688C3.863 6.00388 4.137 6.00388 4.297 5.97688C4.67432 5.92288 5.02755 5.75947 5.313 5.50688C5.422 5.41788 5.5 5.32788 5.605 5.18688C5.812 4.90988 5.93 4.62488 5.98 4.26988C6.004 4.12888 6 3.85188 5.977 3.70288C5.91462 3.27094 5.71164 2.8716 5.39945 2.56665C5.08726 2.26169 4.68328 2.06812 4.25 2.01588C4.12023 2.00638 3.99011 2.00238 3.86 2.00388ZM11.86 2.00388C11.844 2.00788 11.797 2.01188 11.758 2.01588C11.4024 2.05731 11.0647 2.19429 10.7807 2.41227C10.4966 2.63025 10.277 2.92108 10.145 3.25388C9.97252 3.68481 9.9545 4.16216 10.094 4.60488C10.164 4.82788 10.254 5.00388 10.394 5.18688C10.5485 5.39922 10.7438 5.57851 10.9686 5.71419C11.1935 5.84986 11.4431 5.93918 11.703 5.97688C11.863 6.00388 12.137 6.00388 12.297 5.97688C12.7208 5.91566 13.1135 5.71895 13.4163 5.41615C13.7191 5.11335 13.9158 4.7207 13.977 4.29688C14.004 4.13688 14.004 3.86288 13.977 3.70288C13.9392 3.44363 13.8503 3.19449 13.7154 2.96994C13.5804 2.74539 13.4022 2.54991 13.191 2.39488C12.9148 2.1902 12.5909 2.0594 12.25 2.01488C12.1202 2.00571 11.9901 2.00204 11.86 2.00388ZM7.86 5.00388C7.844 5.00788 7.797 5.01188 7.758 5.01588C7.4024 5.05731 7.06465 5.19429 6.78065 5.41227C6.49664 5.63025 6.27699 5.92108 6.145 6.25388C5.96907 6.69143 5.95384 7.17716 6.102 7.62488C6.21619 7.97714 6.42664 8.29043 6.70956 8.52935C6.99248 8.76827 7.33659 8.92329 7.703 8.97688C7.863 9.00388 8.137 9.00388 8.297 8.97688C8.72083 8.91566 9.11348 8.71895 9.41628 8.41615C9.71908 8.11335 9.91578 7.7207 9.977 7.29688C10.004 7.13688 10.004 6.86287 9.977 6.70288C9.93924 6.44363 9.8503 6.19449 9.71536 5.96994C9.58042 5.74539 9.40218 5.54991 9.191 5.39488C8.91478 5.1902 8.59089 5.0594 8.25 5.01488C8.12022 5.00571 7.9901 5.00204 7.86 5.00388ZM3.836 7.00388C3.46671 7.02189 3.10148 7.08915 2.75 7.20388C2.1694 7.39258 1.64099 7.71449 1.207 8.14388C0.688605 8.64489 0.318373 9.27913 0.137002 9.97688C0.112286 10.0482 0.101424 10.1235 0.105002 10.1989C0.105002 10.3389 0.121002 10.3989 0.180002 10.5189C0.293002 10.7499 0.512002 10.9099 0.800002 10.9799L0.871002 10.9959H2.434L4 10.9999L4.066 10.9139C4.58551 10.2547 5.26077 9.73516 6.031 9.40188L6.137 9.35487L6.07 9.30087C5.75527 9.03768 5.49817 8.71244 5.31476 8.34544C5.13135 7.97845 5.02556 7.57758 5.004 7.16788L5 7.12488L4.941 7.11287C4.75463 7.06925 4.56554 7.03818 4.375 7.01988C4.1953 7.00704 4.01615 7.00171 3.836 7.00388ZM11.836 7.00388C11.559 7.01988 11.309 7.05388 11.074 7.10888L11 7.12988L10.996 7.15688C10.996 7.17287 10.992 7.19988 10.992 7.21588C10.992 7.26588 10.965 7.48588 10.945 7.57888C10.811 8.24931 10.4548 8.85496 9.934 9.29788L9.864 9.35588L9.961 9.39888C10.7261 9.72773 11.3983 10.2402 11.918 10.8909L12.004 11.0009L13.566 10.9969C15 10.9969 15.133 10.9969 15.187 10.9809C15.48 10.9149 15.707 10.7509 15.82 10.5209C15.8744 10.4233 15.9004 10.3125 15.895 10.2009C15.8984 10.1239 15.8876 10.0469 15.863 9.97388C15.6789 9.27871 15.309 8.64678 14.793 8.14587C14.1414 7.50252 13.2869 7.10495 12.375 7.02087C12.1953 7.00804 12.0151 7.00271 11.835 7.00488L11.836 7.00388ZM7.836 10.0039C6.85091 10.0436 5.91557 10.4473 5.211 11.1369C4.69212 11.641 4.32076 12.2772 4.137 12.9769C4.11229 13.0482 4.10142 13.1235 4.105 13.1989C4.105 13.3389 4.121 13.3989 4.18 13.5189C4.293 13.7539 4.523 13.9219 4.816 13.9799C4.883 13.9959 4.976 13.9959 7.996 13.9959C11.383 13.9959 11.145 13.9999 11.296 13.9529C11.4075 13.9187 11.5113 13.8629 11.6012 13.7886C11.6911 13.7143 11.7655 13.623 11.82 13.5199C11.8744 13.4223 11.9004 13.3115 11.895 13.1999C11.8984 13.1229 11.8876 13.0459 11.863 12.9729C11.6531 12.1853 11.2079 11.4806 10.5867 10.9529C9.96556 10.4252 9.19812 10.0997 8.387 10.0199C8.20363 10.0069 8.01981 10.0016 7.836 10.0039Z" fill="currentColor"/>
</svg>
