<svg width="16" height="16" viewBox="0 0 16 16" fill="none" xmlns="http://www.w3.org/2000/svg">
<g clip-path="url(#clip0_2538_60356)">
<path d="M7.645 0.00816843C6.9351 0.0391462 6.23239 0.163551 5.555 0.378168C4.715 0.648168 3.902 1.06617 3.191 1.60217C2.19865 2.34715 1.39384 3.31342 0.840569 4.42412C0.287303 5.53482 0.000851318 6.7593 0.00399929 8.00017C-0.0015433 10.0863 0.810487 12.0916 2.266 13.5862C2.348 13.6722 2.441 13.7702 2.473 13.8092C2.593 13.9532 2.727 14.0742 2.867 14.1682C3 14.2542 3.02 14.2702 3.187 14.3952C3.609 14.7112 3.977 14.9382 4.441 15.1682C4.77 15.3282 5.023 15.4382 5.344 15.5512C6.73102 16.0327 8.2228 16.1285 9.66 15.8282C11.3522 15.4703 12.8829 14.5739 14.023 13.2732C15.0658 12.0796 15.7306 10.6032 15.933 9.03117C15.98 8.65617 15.996 8.41117 15.996 8.00017C15.996 7.59017 15.98 7.34417 15.934 6.96917C15.6729 4.94759 14.65 3.10194 13.074 1.80917C11.7905 0.754408 10.2087 0.128408 8.551 0.0191684C8.348 0.00516843 7.832 -0.000831571 7.645 0.00816843ZM8.496 2.02017C9.38246 2.09132 10.2419 2.3593 11.0117 2.80458C11.7815 3.24986 12.4423 3.86123 12.946 4.59417C13.8303 5.88222 14.1788 7.46372 13.918 9.00417C13.8071 9.66782 13.5853 10.3081 13.262 10.8982C13.192 11.0202 13.055 11.2502 13.047 11.2542C13.043 11.2582 13.016 11.2192 12.984 11.1762C12.6231 10.6425 12.1803 10.169 11.672 9.77317C10.6301 8.96252 9.35133 8.5156 8.03131 8.50079C6.7113 8.48598 5.4228 8.9041 4.363 9.69117C3.81929 10.0959 3.34567 10.5871 2.961 11.1452L2.921 11.2072L2.895 11.1682C2.43751 10.4244 2.14683 9.5902 2.043 8.72317C2.0129 8.48339 1.99953 8.24181 2.003 8.00017C2.003 7.53517 2.039 7.18717 2.125 6.76617C2.38933 5.49771 3.05817 4.34928 4.03103 3.49346C5.00388 2.63764 6.22819 2.12065 7.52 2.02017C7.742 2.00417 7.754 2.00017 8.066 2.00417C8.242 2.00817 8.41 2.01217 8.496 2.02017Z" fill="currentColor"/>
<path d="M7.816 4.00817C7.48644 4.03892 7.16981 4.15168 6.895 4.33617C6.61946 4.51719 6.39359 4.76427 6.23797 5.0549C6.08235 5.34554 6.00191 5.6705 6.004 6.00017C6.00212 6.32692 6.08102 6.64907 6.23367 6.93798C6.38632 7.22689 6.608 7.4736 6.879 7.65617C7.13135 7.82568 7.41879 7.93587 7.71979 7.97848C8.02079 8.02108 8.32752 7.99499 8.617 7.90217C8.94652 7.79587 9.2427 7.60563 9.47642 7.35017C9.71014 7.09471 9.87335 6.78282 9.95 6.44517C9.985 6.28517 9.997 6.18717 9.997 6.00017C9.997 5.81217 9.985 5.71517 9.95 5.55517C9.87473 5.22598 9.71745 4.92116 9.49279 4.66905C9.26813 4.41694 8.98338 4.22572 8.665 4.11317C8.46409 4.04253 8.25295 4.00537 8.04 4.00317C7.958 4.00317 7.855 4.00317 7.816 4.00817Z" fill="currentColor"/>
</g>
<defs>
<clipPath id="clip0_2538_60356">
<rect width="16" height="16" fill="white"/>
</clipPath>
</defs>
</svg>
