<svg width="16" height="16" viewBox="0 0 16 16" fill="none" xmlns="http://www.w3.org/2000/svg">
<g clip-path="url(#clip0_2538_60547)">
<path d="M4.184 0.617162C3.49676 0.662426 2.82619 0.848621 2.214 1.16416C2.02 1.26216 0.493001 2.13716 0.410001 2.19516C0.246081 2.31794 0.122485 2.4868 0.055001 2.68016C0.0179248 2.78265 0.000619046 2.89123 0.00400096 3.00016C0.00400096 3.21516 0.051001 3.37116 0.168001 3.55516C0.227001 3.64516 0.359001 3.77316 0.453001 3.83216C0.730001 4.01616 1.082 4.04716 1.387 3.92216C1.418 3.91016 1.805 3.69216 2.25 3.43716C2.695 3.18416 3.102 2.95316 3.152 2.93016C3.465 2.77016 3.773 2.67616 4.141 2.62916C4.223 2.61716 4.297 2.61316 4.5 2.61316C4.703 2.61316 4.777 2.61716 4.86 2.62916C5.21 2.67616 5.508 2.76216 5.8 2.90616C5.883 2.94616 6.586 3.34416 7.504 3.86716C8.364 4.35916 9.133 4.79716 9.214 4.83616C9.961 5.22316 10.762 5.40616 11.602 5.38616C11.9436 5.38227 12.2839 5.34204 12.617 5.26616C13.027 5.17216 13.371 5.04616 13.757 4.85216C14.3655 4.51551 14.9699 4.17148 15.57 3.82016C15.645 3.77016 15.781 3.63316 15.832 3.55516C15.9435 3.39192 16.0009 3.19778 15.996 3.00016C15.999 2.86901 15.9745 2.73868 15.9241 2.61759C15.8736 2.49649 15.7983 2.38734 15.703 2.29716C15.5652 2.15401 15.3862 2.05722 15.191 2.02016C14.9922 1.98116 14.7863 2.0042 14.601 2.08616C14.566 2.10216 14.176 2.32016 13.742 2.57016C13.305 2.82016 12.898 3.04716 12.84 3.07816C12.5322 3.23048 12.2009 3.32955 11.86 3.37116C11.6206 3.39468 11.3794 3.39468 11.14 3.37116C10.8003 3.33006 10.4702 3.23096 10.164 3.07816C10.105 3.05116 9.371 2.63316 8.531 2.15216C6.793 1.16016 6.911 1.22216 6.727 1.13216C6.12634 0.831469 5.47062 0.656565 4.8 0.618162C4.59441 0.610352 4.38859 0.610352 4.183 0.618162L4.184 0.617162ZM4.184 5.61716C3.49676 5.66243 2.82619 5.84862 2.214 6.16416C2.02 6.26216 0.493001 7.13716 0.410001 7.19516C0.246081 7.31794 0.122485 7.4868 0.055001 7.68016C0.0179248 7.78265 0.000619046 7.89123 0.00400096 8.00016C0.00400096 8.21516 0.051001 8.37116 0.168001 8.55516C0.227001 8.64516 0.359001 8.77316 0.453001 8.83216C0.730001 9.01616 1.082 9.04716 1.387 8.92216C1.418 8.91016 1.805 8.69216 2.25 8.43716C2.695 8.18416 3.102 7.95316 3.152 7.93016C3.465 7.77016 3.773 7.67616 4.141 7.62916C4.223 7.61716 4.297 7.61316 4.5 7.61316C4.703 7.61316 4.777 7.61716 4.86 7.62916C5.21 7.67616 5.508 7.76216 5.8 7.90616C5.883 7.94616 6.586 8.34416 7.504 8.86716C8.364 9.35916 9.133 9.79716 9.214 9.83616C9.961 10.2232 10.762 10.4062 11.602 10.3862C11.9436 10.3823 12.2839 10.342 12.617 10.2662C13.027 10.1722 13.371 10.0462 13.757 9.85216C14.3655 9.51551 14.9699 9.17148 15.57 8.82016C15.645 8.77016 15.781 8.63316 15.832 8.55516C15.9435 8.39192 16.0009 8.19778 15.996 8.00016C15.999 7.86901 15.9745 7.73868 15.9241 7.61759C15.8736 7.49649 15.7983 7.38734 15.703 7.29716C15.5652 7.15401 15.3862 7.05722 15.191 7.02016C14.9922 6.98116 14.7863 7.0042 14.601 7.08616C14.566 7.10216 14.176 7.32016 13.742 7.57016C13.305 7.82016 12.898 8.04716 12.84 8.07816C12.5322 8.23048 12.2009 8.32955 11.86 8.37116C11.6206 8.39468 11.3794 8.39468 11.14 8.37116C10.8003 8.33006 10.4702 8.23096 10.164 8.07816C10.105 8.05116 9.371 7.63316 8.531 7.15216C6.793 6.16016 6.911 6.22216 6.727 6.13216C6.12634 5.83147 5.47062 5.65656 4.8 5.61816C4.59441 5.61035 4.38859 5.61035 4.183 5.61816L4.184 5.61716ZM4.184 10.6172C3.44537 10.6666 2.72654 10.8772 2.078 11.2342C1.75 11.4142 0.461001 12.1602 0.410001 12.1952C0.246081 12.3179 0.122485 12.4868 0.055001 12.6802C0.0179248 12.7826 0.000619046 12.8912 0.00400096 13.0002C0.00400096 13.2152 0.051001 13.3712 0.168001 13.5552C0.227001 13.6452 0.359001 13.7732 0.453001 13.8322C0.730001 14.0162 1.082 14.0472 1.387 13.9222C1.418 13.9102 1.805 13.6922 2.25 13.4372C2.695 13.1842 3.102 12.9532 3.152 12.9302C3.461 12.7732 3.773 12.6762 4.132 12.6292C4.33472 12.6094 4.53866 12.6054 4.742 12.6172C5.125 12.6482 5.469 12.7422 5.801 12.9072C5.883 12.9452 6.586 13.3442 7.504 13.8672C8.364 14.3592 9.133 14.7972 9.214 14.8362C9.964 15.2232 10.758 15.4062 11.602 15.3862C11.9436 15.3823 12.2839 15.342 12.617 15.2662C13.0104 15.1776 13.391 15.0398 13.75 14.8562C14.3613 14.519 14.968 14.1736 15.57 13.8202C15.645 13.7702 15.781 13.6332 15.832 13.5552C15.9435 13.3919 16.0009 13.1978 15.996 13.0002C15.999 12.869 15.9745 12.7387 15.9241 12.6176C15.8736 12.4965 15.7983 12.3873 15.703 12.2972C15.5652 12.154 15.3862 12.0572 15.191 12.0202C14.9922 11.9812 14.7863 12.0042 14.601 12.0862C14.566 12.1022 14.176 12.3202 13.742 12.5702C13.305 12.8202 12.898 13.0472 12.84 13.0782C12.5322 13.2305 12.2009 13.3295 11.86 13.3712C11.6206 13.3947 11.3794 13.3947 11.14 13.3712C10.7964 13.3282 10.4624 13.2278 10.152 13.0742C10.102 13.0472 9.372 12.6332 8.532 12.1522C6.793 11.1602 6.91 11.2222 6.727 11.1322C6.12672 10.8313 5.47135 10.656 4.801 10.6172C4.59541 10.6094 4.38959 10.6094 4.184 10.6172Z" fill="currentColor"/>
</g>
<defs>
<clipPath id="clip0_2538_60547">
<rect width="16" height="16" fill="white"/>
</clipPath>
</defs>
</svg>
