<svg width="16" height="16" viewBox="0 0 16 16" fill="none" xmlns="http://www.w3.org/2000/svg">
<g clip-path="url(#clip0_2538_60928)">
<path d="M6.871 0.00790625C6.69526 0.0341372 6.52887 0.103923 6.387 0.210906C6.32 0.260906 6.215 0.378906 6.168 0.444906C6.051 0.628906 6.012 0.764906 6 1.03491C5.9948 1.41568 5.88249 1.7873 5.67592 2.10723C5.46936 2.42715 5.1769 2.68245 4.832 2.84391C4.23 3.13291 3.543 3.10891 2.961 2.78091C2.74509 2.64893 2.48718 2.60372 2.23925 2.65438C1.99133 2.70504 1.77183 2.84781 1.625 3.05391C1.256 3.67516 0.893974 4.30053 0.539001 4.92991C0.501225 5.00944 0.473672 5.09345 0.457001 5.17991C0.42048 5.37138 0.441004 5.56937 0.516027 5.74928C0.591049 5.92919 0.717265 6.0831 0.879001 6.19191C1.164 6.37491 1.23 6.42591 1.367 6.56191C1.691 6.88691 1.883 7.28491 1.945 7.76591C2.00591 8.3087 1.84992 8.85358 1.511 9.28191C1.441 9.36691 1.297 9.51191 1.211 9.58191C1.152 9.62891 1.051 9.69491 0.879001 9.80891C0.743755 9.89954 0.633001 10.0222 0.556587 10.1659C0.480173 10.3097 0.440468 10.4701 0.441001 10.6329C0.441001 10.7969 0.473001 10.9409 0.539001 11.0699C0.893981 11.6989 1.256 12.324 1.625 12.9449C1.77198 13.1508 1.99139 13.2935 2.23919 13.3443C2.48699 13.3951 2.74485 13.3503 2.961 13.2189C3.26925 13.0474 3.61663 12.9585 3.96939 12.9609C4.32215 12.9633 4.66828 13.0569 4.97416 13.2327C5.28004 13.4084 5.53525 13.6603 5.71501 13.9638C5.89476 14.2673 5.99294 14.6122 6 14.9649C6.007 15.1409 6.019 15.2109 6.054 15.3199C6.10117 15.4659 6.1844 15.5976 6.296 15.7029C6.448 15.8549 6.616 15.9449 6.835 15.9839C7.61092 15.9995 8.38708 15.9995 9.163 15.9839C9.3685 15.9513 9.55794 15.8531 9.703 15.7039C9.81438 15.5982 9.89727 15.4662 9.944 15.3199C9.979 15.2099 9.991 15.1399 9.999 14.9649C10.0021 14.784 10.0283 14.6042 10.077 14.4299C10.1758 14.0928 10.3595 13.7867 10.6107 13.541C10.8618 13.2953 11.1718 13.1183 11.511 13.0269C11.9991 12.8938 12.5195 12.9499 12.968 13.1839C13.198 13.3009 13.253 13.3239 13.382 13.3479C13.464 13.3629 13.644 13.3679 13.726 13.3519C13.987 13.3049 14.246 13.1449 14.386 12.9339C14.425 12.8709 15.425 11.1409 15.46 11.0699C15.5271 10.9356 15.5607 10.787 15.558 10.6369C15.558 10.3669 15.468 10.1409 15.288 9.94891C15.2068 9.86536 15.1134 9.79456 15.011 9.73891C14.5864 9.48009 14.272 9.07388 14.128 8.59791C13.9752 8.09166 14.0228 7.54603 14.261 7.07391C14.358 6.87891 14.476 6.71391 14.631 6.56291C14.769 6.42591 14.851 6.36291 15.104 6.20291C15.327 6.06291 15.487 5.81991 15.542 5.54691C15.562 5.45291 15.562 5.26991 15.542 5.17991C15.5253 5.09345 15.4978 5.00944 15.46 4.92991C15.105 4.30087 14.743 3.67583 14.374 3.05491C14.2801 2.92274 14.1555 2.81534 14.011 2.74191C13.8715 2.66869 13.7155 2.63254 13.558 2.63691C13.3972 2.63438 13.2384 2.6733 13.097 2.74991C13.05 2.77691 12.967 2.81591 12.917 2.84391C12.5704 3.00999 12.1839 3.07428 11.8022 3.02932C11.4205 2.98436 11.0595 2.83198 10.761 2.58991C10.5264 2.4037 10.3364 2.16746 10.2047 1.89844C10.073 1.62942 10.0031 1.3344 10 1.03491C10.0004 0.914422 9.98182 0.794628 9.945 0.679906C9.89783 0.533917 9.8146 0.402186 9.703 0.296906C9.56864 0.157625 9.39606 0.0612412 9.207 0.0199062C9.137 0.00390625 9.129 0.00390625 8.031 0.00390625C7.406 0.00390625 6.902 0.00390625 6.871 0.00790625ZM8.261 4.00791C8.83965 4.0438 9.40347 4.20568 9.91302 4.48222C10.4226 4.75876 10.8656 5.14329 11.211 5.60891C11.5353 6.04602 11.7672 6.54459 11.8926 7.07424C12.018 7.60389 12.0342 8.15353 11.9403 8.68965C11.8463 9.22577 11.6442 9.73715 11.3462 10.1926C11.0482 10.6481 10.6606 11.0381 10.207 11.3389C9.777 11.6249 9.297 11.8199 8.781 11.9259C8.35727 12.0048 7.92406 12.0193 7.496 11.9689C6.59039 11.8563 5.75082 11.4365 5.11747 10.7794C4.48411 10.1224 4.09532 9.26803 4.016 8.35891C4.00041 8.11983 4.00041 7.87999 4.016 7.64091C4.113 6.68391 4.488 5.86691 5.133 5.20691C5.76433 4.5558 6.59975 4.14074 7.5 4.03091C7.73 3.99991 8.027 3.99191 8.262 4.00791H8.261Z" fill="currentColor"/>
<path d="M7.816 6.00791C7.48644 6.03866 7.16982 6.15142 6.895 6.33591C6.61946 6.51692 6.39359 6.764 6.23797 7.05464C6.08235 7.34528 6.00191 7.67023 6.004 7.99991C6.00212 8.32666 6.08102 8.64881 6.23367 8.93772C6.38632 9.22663 6.60801 9.47334 6.879 9.65591C7.13135 9.82542 7.41879 9.93561 7.71979 9.97821C8.02079 10.0208 8.32752 9.99473 8.617 9.90191C8.94652 9.7956 9.2427 9.60537 9.47642 9.34991C9.71014 9.09445 9.87335 8.78256 9.95 8.44491C9.985 8.28491 9.997 8.18691 9.997 7.99991C9.997 7.81191 9.985 7.71491 9.95 7.55491C9.87473 7.22571 9.71745 6.9209 9.49279 6.66879C9.26813 6.41668 8.98338 6.22546 8.665 6.11291C8.46409 6.04227 8.25295 6.00511 8.04 6.00291C7.958 6.00291 7.855 6.00291 7.816 6.00791Z" fill="currentColor"/>
</g>
<defs>
<clipPath id="clip0_2538_60928">
<rect width="16" height="16" fill="white"/>
</clipPath>
</defs>
</svg>
