<svg width="16" height="16" viewBox="0 0 16 16" fill="none" xmlns="http://www.w3.org/2000/svg">
<g clip-path="url(#clip0_2538_61216)">
<path d="M2.8 0.00390625C2.41959 0.0314864 2.04762 0.129482 1.703 0.292906C1.293 0.492906 0.936998 0.776906 0.644998 1.14091C0.550117 1.26429 0.462631 1.39318 0.382998 1.52691C0.186998 1.87491 0.0629981 2.26591 0.0159981 2.68691C0.000363912 3.5125 0.000363912 4.33831 0.0159981 5.16391C0.0549981 5.38291 0.144998 5.55091 0.295998 5.70391C0.491998 5.90191 0.722998 5.99591 0.999998 5.99591C1.13115 5.99894 1.26148 5.97444 1.38257 5.92397C1.50367 5.8735 1.61282 5.79819 1.703 5.70291C1.8146 5.59763 1.89783 5.4659 1.945 5.31991C1.996 5.16791 1.996 5.19091 1.996 4.56591L2 3.99991H14V7.53491C14 11.4219 14.004 11.1409 13.953 11.3009C13.843 11.6449 13.566 11.8949 13.199 11.9809C13.152 11.9919 13.063 11.9959 12.504 11.9999C11.801 12.0039 11.832 12.0039 11.68 12.0549C11.534 12.1021 11.4023 12.1853 11.297 12.2969C11.2017 12.3871 11.1264 12.4962 11.0759 12.6173C11.0255 12.7384 11.001 12.8688 11.004 12.9999C11.004 13.2769 11.098 13.5079 11.297 13.7029C11.4023 13.8145 11.534 13.8977 11.68 13.9449C11.832 13.9959 11.805 13.9959 12.465 13.9999C13.25 14.0039 13.395 13.9919 13.73 13.9099C14.1448 13.8034 14.5324 13.6102 14.8671 13.3431C15.2019 13.0759 15.4762 12.7408 15.672 12.3599C15.8373 12.0378 15.9418 11.6879 15.98 11.3279C15.996 11.2179 15.996 11.0229 15.996 6.99591C15.996 3.53091 15.996 2.76191 15.984 2.68691C15.9379 2.24839 15.7957 1.82542 15.5676 1.44811C15.3394 1.0708 15.0309 0.748413 14.664 0.503906C14.2792 0.245412 13.8397 0.0797334 13.38 0.0199062L13.263 0.00390625H2.8Z" fill="currentColor"/>
<path d="M3.754 6.01991C3.56516 6.05213 3.38992 6.13906 3.25 6.26991C3.10366 6.40793 3.0005 6.58543 2.953 6.78091C2.93568 6.85525 2.92895 6.93167 2.933 7.00791C2.933 7.10191 2.938 7.16791 2.945 7.19891C2.973 7.33191 3.027 7.45691 3.102 7.56991C3.132 7.61291 3.297 7.78091 3.738 8.22691C4.066 8.55491 4.336 8.82791 4.336 8.83191C4.336 8.83591 3.551 9.62491 2.594 10.5819C1.99577 11.174 1.40307 11.7717 0.815998 12.3749C0.699565 12.5435 0.63841 12.7441 0.640998 12.9489C0.640998 13.2149 0.726998 13.4289 0.905998 13.6329C1.012 13.7459 2.391 15.1169 2.437 15.1529C2.61202 15.2899 2.82878 15.3626 3.051 15.3589C3.261 15.3589 3.457 15.3009 3.625 15.1839C3.656 15.1599 4.289 14.5349 5.418 13.4059C5.99888 12.8228 6.58221 12.2421 7.168 11.6639C7.172 11.6639 7.445 11.9339 7.778 12.2659C8.281 12.7699 8.391 12.8709 8.445 12.9059C8.625 13.0269 8.785 13.0739 8.996 13.0739C9.15921 13.0751 9.32023 13.0363 9.465 12.9609C9.59843 12.8924 9.7143 12.794 9.80361 12.6735C9.89291 12.553 9.95327 12.4135 9.98 12.2659C9.996 12.2029 9.996 12.0549 9.996 9.54591C9.996 6.65591 10 6.85591 9.953 6.70291C9.90539 6.55344 9.82329 6.41726 9.71333 6.30539C9.60337 6.19351 9.46863 6.10908 9.32 6.05891C9.156 6.00391 9.375 6.00791 6.453 6.00791C4.273 6.00791 3.806 6.01191 3.754 6.01991Z" fill="currentColor"/>
</g>
<defs>
<clipPath id="clip0_2538_61216">
<rect width="16" height="16" fill="white"/>
</clipPath>
</defs>
</svg>
