<svg width="16" height="16" viewBox="0 0 16 16" fill="none" xmlns="http://www.w3.org/2000/svg">
<g clip-path="url(#clip0_5219_7767)">
<path d="M2.82 0.00390625C2.20124 0.0442279 1.60969 0.27317 1.125 0.659906C1 0.757906 0.758002 0.999906 0.660002 1.12491C0.297002 1.58191 0.0900016 2.08191 0.0200016 2.67191C0.00400162 2.78191 0.00400162 3.04291 0.00400162 7.99591C0.00400162 12.9919 0.00400162 13.2109 0.0200016 13.3279C0.0590016 13.6839 0.152002 14.0079 0.305002 14.3159C0.52655 14.7695 0.858998 15.1598 1.27154 15.4507C1.68409 15.7415 2.16338 15.9236 2.665 15.9799C2.754 15.9959 3.109 15.9959 7.915 15.9999C11.59 15.9999 13.102 15.9999 13.191 15.9919C13.6385 15.9653 14.0741 15.8377 14.4652 15.6186C14.8563 15.3995 15.1926 15.0946 15.449 14.7269C15.746 14.3049 15.914 13.8629 15.98 13.3279C15.996 13.2179 15.996 12.9879 15.996 7.99991C15.996 3.01191 15.996 2.78091 15.98 2.67191C15.9186 2.10575 15.6965 1.56897 15.34 1.12491C15.1977 0.955185 15.0407 0.798252 14.871 0.655906C14.4298 0.303047 13.8975 0.08252 13.336 0.0199062C13.234 0.00390625 12.946 0.00390625 8.046 0.00390625H2.82ZM3.656 2.00791C4.102 2.05491 4.5 2.29691 4.746 2.66791C5.113 3.21791 5.078 3.92991 4.66 4.44891C4.44769 4.70938 4.15387 4.89079 3.82588 4.96389C3.49789 5.037 3.15484 4.99755 2.852 4.85191C2.58847 4.7261 2.36766 4.52573 2.21692 4.27563C2.06618 4.02552 1.99215 3.73668 2.004 3.44491C2.00956 3.22925 2.06284 3.01751 2.16 2.82491C2.387 2.37491 2.832 2.06591 3.336 2.00791C3.418 1.99991 3.57 1.99991 3.656 2.00791ZM12.656 2.00791C13.102 2.05491 13.5 2.29691 13.746 2.66791C13.8914 2.88384 13.9777 3.1341 13.9963 3.39377C14.0149 3.65344 13.9652 3.91345 13.852 4.14791C13.637 4.59391 13.242 4.89091 12.742 4.97991C12.672 4.99591 12.512 4.99591 10.055 4.99991C8.195 4.99991 7.418 4.99991 7.355 4.99191C7.05994 4.96367 6.78001 4.84808 6.551 4.65991C6.32803 4.47651 6.16239 4.23297 6.07376 3.95821C5.98513 3.68345 5.97723 3.38902 6.051 3.10991C6.13057 2.81886 6.29552 2.55833 6.52456 2.36191C6.75359 2.16548 7.03623 2.04218 7.336 2.00791C7.422 1.99991 12.562 1.99991 12.656 2.00791Z" fill="currentColor"/>
</g>
<defs>
<clipPath id="clip0_5219_7767">
<rect width="16" height="16" fill="white"/>
</clipPath>
</defs>
</svg>
