<svg width="16" height="16" viewBox="0 0 16 16" fill="none" xmlns="http://www.w3.org/2000/svg">
<g clip-path="url(#clip0_2538_61695)">
<path d="M7.633 0.0077954C6.56331 0.053982 5.51389 0.315282 4.54743 0.776088C3.58098 1.23689 2.7173 1.88776 2.008 2.6898C0.824026 4.02871 0.122713 5.72567 0.0160005 7.5098C-0.0567429 8.6814 0.128621 9.85468 0.559 10.9468C1.1564 12.4547 2.1968 13.7461 3.543 14.6508C5.17698 15.7351 7.14979 16.1876 9.093 15.9238C10.328 15.7551 11.5064 15.2998 12.534 14.5943C13.5616 13.8888 14.4098 12.9527 15.011 11.8608C15.6619 10.6787 16.0006 9.35021 15.995 8.0008C16.0004 6.41298 15.5309 4.85982 14.647 3.5408C13.7889 2.25942 12.5782 1.25392 11.161 0.645795C10.4206 0.329311 9.63686 0.126035 8.836 0.0427954C8.43612 0.00611019 8.03434 -0.0055792 7.633 0.0077954ZM8.493 2.0198C9.477 2.10026 10.4259 2.42261 11.2553 2.95821C12.0846 3.4938 12.7688 4.22603 13.247 5.0898C13.34 5.2808 13.32 5.4648 13.191 5.5858C13.1504 5.62316 13.1023 5.65127 13.0498 5.66819C12.9973 5.68511 12.9417 5.69043 12.887 5.6838C12.75 5.6798 12.648 5.6328 12.507 5.5078C12.4448 5.4462 12.3724 5.3958 12.293 5.3588C12.2021 5.31421 12.1011 5.29422 12 5.3008C11.8989 5.29422 11.7979 5.31421 11.707 5.3588C11.6338 5.38973 11.5675 5.43495 11.512 5.4918C11.4478 5.55157 11.3959 5.62323 11.359 5.7028C11.3148 5.79527 11.2948 5.89748 11.301 5.9998C11.2923 6.14701 11.3367 6.29246 11.426 6.4098C11.446 6.4338 11.57 6.5658 11.703 6.6998C11.906 6.8978 11.957 6.9448 11.993 6.9598C12.0441 6.98396 12.0995 6.99756 12.156 6.9998C12.375 6.9998 12.546 7.2268 12.488 7.4408C12.465 7.5348 12.457 7.5428 11.98 8.0198C11.512 8.4878 11.488 8.5078 11.363 8.5738C11.2256 8.63898 11.0731 8.66577 10.9217 8.65133C10.7703 8.6369 10.6256 8.58177 10.503 8.49179C10.316 8.31588 10.1327 8.13618 9.953 7.9528C9.535 7.5348 9.449 7.4448 9.41 7.3908C9.33153 7.27569 9.29065 7.13909 9.293 6.9998C9.293 6.8088 9.352 6.6678 9.493 6.5078C9.57841 6.42293 9.64131 6.3181 9.676 6.2028C9.696 6.1408 9.699 6.1288 9.699 6.0028C9.699 5.8948 9.695 5.8628 9.684 5.8198C9.65925 5.74478 9.62639 5.67268 9.586 5.6048C9.41253 5.41185 9.22894 5.22826 9.036 5.0548C8.969 5.0118 8.902 4.9958 8.754 4.9998C8.641 5.0038 8.633 5.0038 8.586 5.0268C8.52162 5.05586 8.47006 5.10742 8.441 5.1718C8.42257 5.20932 8.41463 5.25113 8.418 5.2928C8.418 5.3748 8.434 5.4218 8.496 5.4958C8.53259 5.53069 8.55945 5.57451 8.57394 5.62295C8.58843 5.67139 8.59006 5.72276 8.57865 5.77202C8.56725 5.82127 8.54321 5.86671 8.5089 5.90384C8.47459 5.94098 8.4312 5.96853 8.383 5.9838C8.27613 6.00468 8.16636 6.00603 8.059 5.9878C7.965 5.9648 7.953 5.9528 7.57 5.5738C7.273 5.2768 7.195 5.2038 7.137 5.1678C7.0207 5.08938 6.88858 5.03749 6.75 5.0158C6.5837 5.00017 6.4163 5.00017 6.25 5.0158C6.11142 5.03749 5.9793 5.08938 5.863 5.1678C5.805 5.2028 5.734 5.2728 5.477 5.5278C5.148 5.8518 5.105 5.8868 4.997 5.9378C4.891 5.9838 4.844 5.9958 4.641 5.9958C4.426 5.9998 4.375 5.9958 4.273 5.9458C4.19134 5.90319 4.12279 5.83918 4.07471 5.76062C4.02662 5.68206 4.0008 5.5919 4 5.4998C4 5.3158 4.11 5.1368 4.273 5.0548C4.34245 5.02047 4.41855 5.0017 4.496 4.9998C4.59045 4.9987 4.68275 4.9715 4.7627 4.9212C4.84265 4.8709 4.90713 4.79946 4.949 4.7148C4.992 4.6288 5 4.5548 5 4.3788C4.996 4.2298 4.996 4.2228 4.977 4.1788C4.95311 4.1274 4.91559 4.08354 4.86851 4.05198C4.82144 4.02043 4.76662 4.00238 4.71 3.9998C4.64549 3.99832 4.58287 3.97779 4.53 3.9408C4.48915 3.90746 4.45719 3.86451 4.437 3.8158C4.421 3.7858 4.417 3.7658 4.417 3.7028C4.417 3.5738 4.397 3.6018 4.901 3.0978C5.191 2.8048 5.362 2.6408 5.405 2.6088C5.483 2.5508 5.593 2.4998 5.792 2.4178C6.39272 2.18266 7.02693 2.04428 7.671 2.0078C7.839 1.9998 8.323 2.0038 8.491 2.0198H8.493ZM6.785 7.0198C6.937 7.0548 7.07 7.1168 7.184 7.1998C7.266 7.2578 7.742 7.7338 7.801 7.8158C7.859 7.8948 7.921 8.01179 7.949 8.09779C7.992 8.23379 7.992 8.2418 8 8.6448L8.004 9.0198L8.031 9.09379C8.05739 9.17924 8.10445 9.25687 8.168 9.31979C8.278 9.43379 8.398 9.48779 8.582 9.49979C8.707 9.5078 8.762 9.5198 8.84 9.55879C8.992 9.62879 9.11 9.7688 9.152 9.93779C9.17406 10.0408 9.17269 10.1474 9.148 10.2498C9.105 10.3948 9.09 10.4098 8.628 10.8748C8.285 11.2188 8.207 11.3048 8.168 11.3588C8.11938 11.4314 8.08133 11.5105 8.055 11.5938C8.012 11.7188 8.008 11.7698 8 12.0038C7.992 12.2338 7.988 12.2808 7.95 12.4018C7.922 12.4878 7.86 12.6048 7.8 12.6838C7.60654 12.901 7.40087 13.107 7.184 13.3008C7.074 13.3828 6.941 13.4408 6.797 13.4768C6.734 13.4918 6.703 13.4968 6.332 13.4968C5.887 13.4998 5.84 13.4968 5.699 13.4528C5.52928 13.3982 5.37701 13.2997 5.2576 13.1672C5.13819 13.0348 5.05588 12.8732 5.019 12.6988C5.008 12.6488 5.004 12.5508 5 11.7108C4.996 10.6838 4.996 10.7498 4.945 10.5938C4.91867 10.5105 4.88062 10.4314 4.832 10.3588C4.797 10.3048 4.734 10.2388 4.496 10.0038C4.262 9.76579 4.196 9.7038 4.141 9.6678C4.06842 9.61917 3.9893 9.58113 3.906 9.5548C3.762 9.5078 3.762 9.5078 3.289 9.49979C2.929 9.4958 2.848 9.49179 2.801 9.47979C2.65505 9.44928 2.51766 9.38683 2.39871 9.29692C2.27976 9.20701 2.18218 9.09188 2.113 8.95979C2.066 8.86679 2.051 8.80479 2.031 8.61679C2.008 8.37079 2.004 8.31679 2.016 8.24679C2.036 8.10479 2.109 7.9408 2.199 7.8168C2.246 7.7498 2.589 7.4018 2.723 7.2768C2.813 7.1988 2.879 7.1478 2.973 7.1018C3.047 7.0658 3.164 7.0268 3.243 7.0158C3.273 7.0118 3.305 7.0038 3.313 7.0038H5.027C6.609 7.0038 6.734 7.0038 6.785 7.0198Z" fill="currentColor"/>
</g>
<defs>
<clipPath id="clip0_2538_61695">
<rect width="16" height="16" fill="white"/>
</clipPath>
</defs>
</svg>
