<svg width="16" height="16" viewBox="0 0 16 16" fill="none" xmlns="http://www.w3.org/2000/svg">
<g clip-path="url(#clip0_2538_62270)">
<path d="M6.668 0.0081596C5.51094 0.0624083 4.38522 0.401806 3.391 0.99616C1.9493 1.86382 0.867798 3.22111 0.343998 4.82016C0.0586394 5.70573 -0.0500833 6.6387 0.0239983 7.56616C0.162824 9.35434 0.9868 11.0198 2.324 12.2152C3.25017 13.0462 4.38208 13.6139 5.602 13.8592C6.367 14.0122 7.132 14.0392 7.906 13.9412C9.4953 13.7355 10.9657 12.9899 12.0707 11.8293C13.1758 10.6687 13.8485 9.16363 13.976 7.56616C14.1049 5.99834 13.7018 4.43282 12.8316 3.12229C11.9614 1.81177 10.675 0.832711 9.18 0.34316C8.36935 0.0841618 7.51917 -0.0289248 6.669 0.0091596L6.668 0.0081596ZM7.285 2.00816C7.97041 2.0448 8.64081 2.22293 9.25401 2.53133C9.86721 2.83974 10.4099 3.27175 10.848 3.80016C11.6192 4.72555 12.0272 5.89996 11.996 7.10416C11.9846 7.76101 11.8433 8.4091 11.5802 9.01107C11.3172 9.61305 10.9375 10.157 10.4633 10.6116C9.98899 11.0661 9.42942 11.4223 8.81683 11.6596C8.20424 11.8969 7.55074 12.0106 6.894 11.9942C6.15165 11.9842 5.42126 11.8057 4.758 11.4722C3.9581 11.0714 3.2803 10.4635 2.79522 9.71171C2.31013 8.95994 2.03552 8.09186 1.99998 7.19788C1.96444 6.30391 2.16928 5.41676 2.59316 4.62887C3.01703 3.84097 3.64443 3.18115 4.41 2.71816C5.27442 2.19597 6.27682 1.94907 7.285 2.00816Z" fill="currentColor"/>
<path d="M6.871 3.00816C6.66578 3.03598 6.47408 3.12621 6.32186 3.26662C6.16963 3.40704 6.06426 3.59085 6.02 3.79316C6.004 3.86316 6.004 3.87516 6.004 4.93016L6 6.00016L4.93 6.00416C3.75 6.00416 3.84 6.00016 3.68 6.05416C3.344 6.16816 3.09 6.45716 3.02 6.80916C3 6.90216 3 7.09816 3.02 7.19116C3.09 7.54316 3.344 7.83216 3.68 7.94516C3.84 8.00016 3.75 7.99616 4.93 7.99616L6 8.00016L6.004 9.07016C6.004 10.1252 6.004 10.1372 6.02 10.2072C6.066 10.4102 6.16 10.5742 6.3 10.7152C6.438 10.8482 6.61 10.9382 6.813 10.9802C6.903 11.0002 7.093 11.0002 7.191 10.9802C7.543 10.9102 7.832 10.6602 7.945 10.3202C8 10.1602 7.996 10.2502 7.996 9.07016L8 8.00016L9.07 7.99616C10.125 7.99616 10.137 7.99616 10.207 7.98016C10.613 7.88316 10.895 7.59416 10.98 7.18716C11 7.09716 11 6.90216 10.98 6.81216C10.9424 6.61914 10.8493 6.44131 10.7119 6.30059C10.5746 6.15986 10.3991 6.06239 10.207 6.02016C10.137 6.00416 10.125 6.00416 9.07 6.00416L8 6.00016L7.996 4.93016C7.996 3.75016 8 3.84016 7.946 3.67616C7.88863 3.51115 7.78932 3.36391 7.65782 3.2489C7.52633 3.13388 7.36717 3.05506 7.196 3.02016C7.08841 3.00455 6.97945 3.00052 6.871 3.00816ZM12.871 12.0082C12.6531 12.0387 12.4513 12.1403 12.297 12.2972C12.2017 12.3873 12.1264 12.4965 12.0759 12.6176C12.0255 12.7387 12.001 12.869 12.004 13.0002C12.004 13.2102 12.051 13.3672 12.168 13.5502C12.199 13.6052 12.355 13.7622 13.281 14.6912C14.094 15.5042 14.371 15.7772 14.421 15.8122C14.535 15.8952 14.68 15.9572 14.828 15.9842C14.906 16.0002 15.109 16.0002 15.188 15.9802C15.3844 15.9439 15.5645 15.847 15.703 15.7032C15.7983 15.613 15.8736 15.5038 15.9241 15.3827C15.9745 15.2616 15.999 15.1313 15.996 15.0002C16.0004 14.8026 15.9431 14.6086 15.832 14.4452C15.793 14.3872 15.648 14.2422 14.703 13.2972C13.551 12.1412 13.586 12.1762 13.438 12.1022C13.3595 12.0643 13.2765 12.0367 13.191 12.0202C13.0851 12.0045 12.9778 12.0005 12.871 12.0082Z" fill="currentColor"/>
</g>
<defs>
<clipPath id="clip0_2538_62270">
<rect width="16" height="16" fill="white"/>
</clipPath>
</defs>
</svg>
