<svg width="8" height="8" viewBox="0 0 8 8" fill="none" xmlns="http://www.w3.org/2000/svg">
<path d="M4.445 1.71C4.3333 1.7224 4.22903 1.77206 4.14902 1.85098C4.06901 1.92991 4.01792 2.03348 4.004 2.145C4 2.165 4 2.328 4 2.59V3H2.715C1.496 3 1.43 3.004 1.402 3.008C1.30525 3.02826 1.21679 3.07702 1.148 3.148C1.07376 3.22079 1.02471 3.31538 1.008 3.418C0.999999 3.457 0.999999 4.543 1.008 4.582C1.028 4.692 1.074 4.777 1.148 4.852C1.218 4.926 1.297 4.965 1.402 4.992C1.43 4.996 1.496 4.996 2.715 5H4V5.41C4 5.672 4 5.836 4.004 5.855C4.01631 5.9557 4.05927 6.05019 4.12706 6.12567C4.19485 6.20115 4.28419 6.25398 4.383 6.277C4.45305 6.29574 4.52647 6.2981 4.59757 6.28388C4.66868 6.26966 4.73555 6.23924 4.793 6.195C4.816 6.18 5.137 5.863 5.758 5.238C6.57 4.426 6.691 4.301 6.711 4.273C6.76539 4.19262 6.79271 4.09698 6.789 4C6.7922 3.90183 6.76496 3.80508 6.711 3.723C6.691 3.695 6.571 3.574 5.758 2.762C5.43962 2.43838 5.11794 2.11803 4.793 1.801C4.72955 1.75691 4.65774 1.72628 4.582 1.711C4.53642 1.70707 4.49058 1.70607 4.445 1.71Z" fill="#202020"/>
</svg>
