<svg width="8" height="8" viewBox="0 0 8 8" fill="none" xmlns="http://www.w3.org/2000/svg">
<path d="M3.938 1.21C3.8896 1.2178 3.84228 1.23122 3.797 1.25C3.711 1.29 3.777 1.227 2.757 2.242C2.137 2.867 1.82 3.184 1.805 3.207C1.75738 3.27038 1.72519 3.344 1.711 3.422C1.70646 3.48065 1.7078 3.53961 1.715 3.598C1.73707 3.70049 1.79019 3.79369 1.86714 3.86491C1.94408 3.93613 2.0411 3.9819 2.145 3.996C2.165 4 2.328 4 2.59 4H3V5.285C3.004 6.504 3.004 6.57 3.008 6.598C3.02826 6.69474 3.07702 6.78321 3.148 6.852C3.223 6.926 3.308 6.972 3.418 6.992C3.457 7 4.543 7 4.582 6.992C4.68461 6.97528 4.77921 6.92623 4.852 6.852C4.92298 6.78321 4.97174 6.69474 4.992 6.598C4.996 6.57 5 6.504 5 5.285V4H5.41C5.672 4 5.836 4 5.855 3.996C5.9557 3.98368 6.05018 3.94072 6.12566 3.87293C6.20114 3.80515 6.25397 3.7158 6.277 3.617C6.30003 3.52981 6.2976 3.43785 6.27 3.352C6.25472 3.30017 6.23107 3.25119 6.2 3.207C6.18 3.184 5.863 2.863 5.238 2.242C4.242 1.246 4.293 1.297 4.218 1.258C4.1791 1.24076 4.13899 1.22639 4.098 1.215C4.04497 1.20787 3.99132 1.20553 3.938 1.21Z" fill="currentColor"/>
</svg>
