<svg width="8" height="8" viewBox="0 0 8 8" fill="none" xmlns="http://www.w3.org/2000/svg">
<path d="M3.414 1.71C3.33974 1.72605 3.26939 1.75664 3.207 1.8C3.184 1.82 2.867 2.137 2.242 2.758C1.512 3.492 1.309 3.695 1.293 3.718C1.23706 3.80121 1.2084 3.89977 1.211 4C1.211 4.105 1.231 4.184 1.289 4.273C1.309 4.301 1.429 4.426 2.242 5.238C2.852 5.852 3.184 6.18 3.207 6.195C3.29649 6.26122 3.40571 6.29528 3.51698 6.29165C3.62825 6.28802 3.73502 6.24692 3.82 6.175C3.89437 6.11595 3.9491 6.03577 3.977 5.945C4 5.871 3.997 5.902 4 5.434V5H5.285C6.504 4.996 6.57 4.996 6.598 4.992C6.69508 4.97264 6.7838 4.92374 6.852 4.852C6.92768 4.78028 6.97699 4.68517 6.992 4.582C7 4.543 7 3.457 6.992 3.418C6.97699 3.31483 6.92768 3.21971 6.852 3.148C6.78514 3.07896 6.69909 3.03158 6.605 3.012L6.57 3H4V2.59C4 2.328 4 2.164 3.996 2.145C3.98246 2.04089 3.93688 1.94358 3.86557 1.86653C3.79426 1.78949 3.70075 1.73653 3.598 1.715C3.53694 1.7077 3.47532 1.70536 3.414 1.71Z" fill="currentColor"/>
</svg>
