<svg width="8" height="8" viewBox="0 0 8 8" fill="none" xmlns="http://www.w3.org/2000/svg">
<path d="M1.91 2.00401C1.77193 2.01793 1.63812 2.05966 1.51661 2.12669C1.3951 2.19371 1.28842 2.28465 1.203 2.39401C1.10184 2.52692 1.03595 2.68327 1.01147 2.8485C0.986996 3.01373 1.00472 3.18247 1.063 3.33901C1.08521 3.4069 1.11649 3.47149 1.156 3.53101C1.211 3.62101 1.188 3.59801 2.293 4.70301C3.433 5.84301 3.379 5.79301 3.48 5.85201C3.65673 5.9598 3.86255 6.01009 4.06907 5.99594C4.27559 5.98179 4.47263 5.90389 4.633 5.77301C4.653 5.75801 5.141 5.27301 5.719 4.69501C6.812 3.59801 6.789 3.62101 6.848 3.53101C6.875 3.48801 6.922 3.39501 6.941 3.34001C6.98849 3.20331 7.00722 3.05828 6.996 2.91401C6.97939 2.68414 6.88114 2.46779 6.719 2.30401C6.64014 2.22201 6.54737 2.15463 6.445 2.10501C6.32607 2.04423 6.19544 2.00978 6.062 2.00401C5.85761 1.98871 5.65368 2.03917 5.48 2.14801C5.383 2.20701 5.402 2.18401 4.68 2.91001L4 3.58601L3.32 2.91001C2.617 2.20301 2.621 2.21001 2.535 2.15201C2.47329 2.11713 2.40951 2.08608 2.344 2.05901C2.2046 2.01126 2.05691 1.99254 1.91 2.00401Z" fill="#202020"/>
</svg>
