<svg width="8" height="8" viewBox="0 0 8 8" fill="none" xmlns="http://www.w3.org/2000/svg">
<path d="M3.41 1.00394C3.27193 1.01787 3.13812 1.0596 3.01661 1.12663C2.8951 1.19365 2.78842 1.28458 2.703 1.39394C2.60184 1.52686 2.53595 1.68321 2.51147 1.84844C2.487 2.01367 2.50472 2.18241 2.563 2.33894C2.58521 2.40684 2.61649 2.47142 2.656 2.53094C2.711 2.62094 2.707 2.61694 3.41 3.32094L4.09 3.99994L3.41 4.67994C2.89 5.19994 2.727 5.36694 2.703 5.39494C2.60184 5.52786 2.53595 5.68421 2.51147 5.84944C2.487 6.01467 2.50472 6.18341 2.563 6.33994C2.64131 6.55247 2.78845 6.73269 2.981 6.85194C3.15762 6.95951 3.36325 7.00967 3.56956 6.99552C3.77587 6.98137 3.97272 6.90361 4.133 6.77294C4.153 6.75794 4.641 6.27294 5.219 5.69494C6.312 4.59794 6.289 4.62094 6.348 4.53094C6.375 4.48794 6.422 4.39494 6.441 4.33994C6.477 4.24194 6.5 4.10994 6.5 3.99994C6.5 3.88994 6.477 3.75794 6.441 3.65594C6.4147 3.59138 6.38361 3.52887 6.348 3.46894C6.289 3.37894 6.313 3.40194 5.218 2.30494C4.641 1.72694 4.152 1.24194 4.133 1.22294C4.04461 1.15478 3.94697 1.09956 3.843 1.05894C3.70392 1.01133 3.55657 0.992616 3.41 1.00394Z" fill="#202020"/>
</svg>
