<svg width="8" height="8" viewBox="0 0 8 8" fill="none" xmlns="http://www.w3.org/2000/svg">
<path d="M3.91 2.00394C3.762 2.01594 3.61 2.06994 3.48 2.14794C3.379 2.20694 3.434 2.15594 2.293 3.29694C1.92623 3.65951 1.56288 4.02553 1.203 4.39494C1.09096 4.54233 1.02241 4.71813 1.00509 4.90245C0.987772 5.08677 1.02238 5.27227 1.105 5.43794C1.156 5.54694 1.203 5.61294 1.293 5.70294C1.38523 5.79976 1.49705 5.87579 1.621 5.92594C1.76888 5.98598 1.92896 6.00986 2.08793 5.9956C2.24689 5.98134 2.40016 5.92935 2.535 5.84394C2.621 5.78894 2.617 5.79294 3.32 5.08994L4 4.40994L4.68 5.08994C5.402 5.81294 5.383 5.79294 5.48 5.85194C5.71 5.99594 5.984 6.03494 6.254 5.96494C6.32033 5.94965 6.38449 5.92613 6.445 5.89494C6.57384 5.83194 6.68738 5.74159 6.77771 5.63019C6.86804 5.51879 6.93298 5.38902 6.968 5.24994C7.01098 5.08469 7.01098 4.91119 6.968 4.74594C6.93261 4.6196 6.87468 4.50069 6.797 4.39494C6.44215 4.0272 6.08279 3.66384 5.719 3.30494C5.141 2.72694 4.652 2.24194 4.633 2.22294C4.54461 2.15478 4.44696 2.09956 4.343 2.05894C4.20391 2.01133 4.05657 1.99262 3.91 2.00394Z" fill="currentColor"/>
</svg>
