<svg width="8" height="8" viewBox="0 0 8 8" fill="none" xmlns="http://www.w3.org/2000/svg">
<path d="M4.41 1.004C4.262 1.016 4.11 1.07 3.98 1.148C3.879 1.207 3.934 1.156 2.793 2.297C2.42623 2.65957 2.06288 3.02559 1.703 3.395C1.62059 3.50361 1.56145 3.62804 1.52928 3.76052C1.4971 3.893 1.49258 4.0307 1.516 4.165C1.539 4.32 1.606 4.473 1.703 4.605C1.727 4.633 1.969 4.879 2.793 5.703C3.933 6.843 3.879 6.793 3.98 6.852C4.21 6.996 4.484 7.035 4.754 6.965C4.82033 6.94971 4.88449 6.92619 4.945 6.895C5.07384 6.832 5.18738 6.74165 5.27771 6.63025C5.36804 6.51885 5.43298 6.38908 5.468 6.25C5.51098 6.08475 5.51098 5.91125 5.468 5.746C5.43261 5.61966 5.37468 5.50075 5.297 5.395C5.06457 5.15349 4.82888 4.91514 4.59 4.68L3.914 4L4.59 3.32C5.293 2.617 5.29 2.621 5.348 2.531C5.375 2.488 5.422 2.395 5.441 2.34C5.477 2.242 5.5 2.11 5.5 2C5.5 1.89 5.477 1.758 5.441 1.656C5.4147 1.59144 5.38361 1.52894 5.348 1.469C5.289 1.37792 5.2165 1.29632 5.133 1.227C5.04571 1.15619 4.94785 1.0995 4.843 1.059C4.70391 1.01139 4.55657 0.992677 4.41 1.004Z" fill="#202020"/>
</svg>
