<svg width="8" height="8" viewBox="0 0 8 8" fill="none" xmlns="http://www.w3.org/2000/svg">
<g clip-path="url(#clip0_2064_31563)">
<path d="M0.909999 0.004C0.743685 0.0187451 0.583765 0.075147 0.444999 0.168C0.324907 0.247445 0.223591 0.352131 0.148116 0.474756C0.0726412 0.597382 0.0248239 0.734995 0.0079989 0.878C-1.09896e-06 0.939 -1.09896e-06 5.063 0.0079989 5.119C0.0389989 5.349 0.132999 5.548 0.292999 5.708C0.460999 5.876 0.675999 5.974 0.917999 5.998C0.944999 6 1.316 6 1.98 6H3V6.547C3.004 7.094 3.004 7.094 3.012 7.148C3.04459 7.37178 3.15252 7.57776 3.31796 7.73193C3.48341 7.8861 3.69648 7.97925 3.922 7.996C3.957 8 4.414 8 5.535 8L7.102 7.996L7.148 7.988C7.36187 7.95508 7.55945 7.85415 7.71147 7.70015C7.86349 7.54615 7.96185 7.34728 7.992 7.133C7.996 7.09 8 6.993 8 5C8 3.008 7.996 2.91 7.992 2.863C7.96152 2.64926 7.86295 2.45104 7.71092 2.29774C7.55888 2.14445 7.36148 2.04424 7.148 2.012L7.098 2H5V1.453C4.996 0.914 4.996 0.903 4.988 0.852C4.97014 0.721543 4.92602 0.596061 4.8583 0.483137C4.79059 0.370213 4.70067 0.272193 4.594 0.195C4.4623 0.0988591 4.30927 0.036067 4.148 0.012L4.098 0H2.52C1.652 0 0.929999 0.004 0.909999 0.004ZM6 6H5V4H6V6Z" fill="#202020"/>
</g>
<defs>
<clipPath id="clip0_2064_31563">
<rect width="8" height="8" fill="white"/>
</clipPath>
</defs>
</svg>
