<svg width="8" height="8" viewBox="0 0 8 8" fill="none" xmlns="http://www.w3.org/2000/svg">
<g clip-path="url(#clip0_2435_26468)">
<path d="M0.909997 0.00394598C0.77193 0.0178691 0.638111 0.0596012 0.516605 0.126627C0.395098 0.193654 0.288419 0.284587 0.202997 0.393946C0.120429 0.502467 0.0611931 0.62689 0.0290122 0.7594C-0.00316865 0.891909 -0.00759971 1.02964 0.0159974 1.16395C0.0389974 1.31995 0.105997 1.47295 0.202997 1.60495C0.226997 1.63295 0.492997 1.90195 1.41 2.81995L2.59 3.99995L1.41 5.17995C1.00418 5.58147 0.601832 5.98649 0.202997 6.39495C0.0909634 6.54233 0.0224096 6.71813 0.00509067 6.90245C-0.0122282 7.08678 0.0223789 7.27227 0.104997 7.43795C0.155997 7.54695 0.202997 7.61295 0.292997 7.70295C0.385226 7.79976 0.497048 7.87579 0.620997 7.92595C0.768881 7.98599 0.928957 8.00987 1.08793 7.99561C1.24689 7.98134 1.40016 7.92935 1.535 7.84395C1.625 7.78895 1.59 7.81995 2.82 6.58995L4 5.40995L5.18 6.58995C6.445 7.85495 6.379 7.79295 6.48 7.85195C6.71 7.99595 6.984 8.03495 7.254 7.96495C7.32033 7.94965 7.38449 7.92614 7.445 7.89495C7.57384 7.83194 7.68738 7.74159 7.77771 7.63019C7.86804 7.51879 7.93298 7.38902 7.968 7.24995C8.01098 7.0847 8.01098 6.9112 7.968 6.74595C7.93261 6.6196 7.87468 6.50069 7.797 6.39495C7.39816 5.98649 6.99581 5.58147 6.59 5.17995L5.414 3.99995L6.59 2.81995C7.82 1.58995 7.79 1.62095 7.848 1.53095C7.875 1.48795 7.922 1.39495 7.941 1.33995C7.98849 1.20325 8.00722 1.05822 7.996 0.913946C7.97939 0.68408 7.88114 0.467726 7.719 0.303946C7.64014 0.221949 7.54737 0.154574 7.445 0.104946C7.32607 0.0441674 7.19544 0.00971957 7.062 0.00394598C6.8576 -0.0113472 6.65368 0.0391092 6.48 0.147946C6.38 0.206946 6.445 0.144946 5.18 1.40995L4 2.58595L2.82 1.40995C1.59 0.179946 1.625 0.209946 1.535 0.151946C1.47327 0.117415 1.40948 0.0866906 1.344 0.059946C1.20467 0.0118596 1.05697 -0.00719825 0.909997 0.00394598Z" fill="currentColor"/>
</g>
<defs>
<clipPath id="clip0_2435_26468">
<rect width="8" height="8" fill="white"/>
</clipPath>
</defs>
</svg>
