<svg width="8" height="8" viewBox="0 0 8 8" fill="none" xmlns="http://www.w3.org/2000/svg">
<path d="M3.438 0.004C3.32366 0.0163679 3.21791 0.0704914 3.141 0.156C3.07504 0.224317 3.02904 0.309394 3.008 0.402C3.004 0.43 3.004 0.496 3 1.715V3H2.59C2.324 3 2.164 3 2.145 3.004C2.0409 3.01754 1.94358 3.06312 1.86654 3.13443C1.78949 3.20574 1.73653 3.29925 1.715 3.402C1.70776 3.46038 1.70642 3.51935 1.711 3.578C1.7252 3.656 1.75738 3.72961 1.805 3.793C1.82 3.816 2.137 4.133 2.758 4.758C3.781 5.778 3.711 5.711 3.797 5.75C3.86387 5.77874 3.9361 5.79289 4.00887 5.79151C4.08163 5.79013 4.15327 5.77325 4.219 5.742C4.293 5.703 4.242 5.754 5.239 4.758C5.863 4.133 6.179 3.816 6.199 3.793C6.23008 3.7488 6.25372 3.69982 6.269 3.648C6.30381 3.54238 6.30134 3.42802 6.262 3.324C6.23568 3.25538 6.19477 3.19329 6.14212 3.14201C6.08946 3.09073 6.0263 3.05149 5.957 3.027C5.879 3 5.91 3.004 5.434 3H5V1.715C5 0.496 4.996 0.43 4.992 0.402C4.97264 0.304923 4.92374 0.216205 4.852 0.148C4.78514 0.0789611 4.69909 0.0315832 4.605 0.012C4.57 0.004 4.566 0.004 4.015 0C3.703 0 3.453 0.004 3.438 0.004ZM1.91 6.004C1.74369 6.01875 1.58377 6.07515 1.445 6.168C1.32849 6.24483 1.22964 6.34554 1.15499 6.46346C1.08034 6.58138 1.0316 6.71382 1.012 6.852C0.990761 6.9878 0.997914 7.12652 1.03301 7.25941C1.0681 7.3923 1.13037 7.51647 1.21589 7.62407C1.30141 7.73167 1.40831 7.82037 1.52985 7.88456C1.65139 7.94875 1.78492 7.98704 1.922 7.997C1.957 8 2.55 8 4.035 8L6.102 7.996L6.148 7.988C6.36188 7.95508 6.55946 7.85415 6.71147 7.70015C6.86349 7.54615 6.96186 7.34728 6.992 7.133C6.99984 7.04317 6.99984 6.95283 6.992 6.863C6.97293 6.73093 6.92795 6.60393 6.85965 6.48929C6.79135 6.37465 6.70107 6.27464 6.594 6.195C6.46231 6.09886 6.30927 6.03607 6.148 6.012L6.098 6H4.02C2.875 6 1.93 6.004 1.91 6.004Z" fill="#202020"/>
</svg>
