<svg width="8" height="8" viewBox="0 0 8 8" fill="none" xmlns="http://www.w3.org/2000/svg">
<g clip-path="url(#clip0_2435_42381)">
<path d="M3.336 0.00380047C2.638 0.0357384 1.96566 0.276458 1.406 0.6948C1.18068 0.859938 0.977374 1.05317 0.801 1.2698C0.351454 1.81284 0.0765304 2.47906 0.0122874 3.1811C-0.0519557 3.88313 0.0974819 4.58819 0.441 5.2038C0.684 5.6408 1.016 6.0158 1.411 6.3088C1.668 6.4998 1.961 6.6598 2.258 6.7728C2.7114 6.94341 3.19508 7.01877 3.67889 6.99416C4.1627 6.96956 4.63625 6.84553 5.07 6.6298C5.1063 6.60949 5.14447 6.59275 5.184 6.5798C5.184 6.5798 5.195 6.5948 5.211 6.6098C5.227 6.6338 5.414 6.8298 5.793 7.2038C6.391 7.8018 6.383 7.7938 6.48 7.8528C6.71 7.9968 6.984 8.0358 7.254 7.9658C7.32033 7.95051 7.38449 7.92699 7.445 7.8958C7.57384 7.8328 7.68738 7.74244 7.77771 7.63104C7.86804 7.51964 7.93298 7.38988 7.968 7.2508C8.01099 7.08555 8.01099 6.91205 7.968 6.7468C7.93261 6.62045 7.87468 6.50154 7.797 6.3958C7.773 6.3678 7.637 6.2238 7.219 5.8058C6.73 5.3168 6.625 5.2158 6.582 5.1888L6.574 5.1808L6.629 5.0708C6.85913 4.60766 6.98468 4.09961 6.99678 3.58259C7.00887 3.06556 6.90722 2.5522 6.699 2.0788C6.5531 1.75274 6.35966 1.45012 6.125 1.1808C6.02531 1.07685 5.92362 0.974831 5.82 0.8748C5.55875 0.647519 5.2669 0.458006 4.953 0.3118C4.44551 0.0841349 3.89161 -0.0220278 3.336 0.00380047ZM3.676 2.0078C4.04904 2.05155 4.39185 2.23438 4.636 2.5198C4.76921 2.67435 4.86949 2.85446 4.9307 3.0491C4.99191 3.24374 5.01277 3.44882 4.992 3.6518C4.97329 3.84822 4.91575 4.03897 4.82272 4.21298C4.7297 4.38698 4.60304 4.54078 4.4501 4.66544C4.29715 4.7901 4.12097 4.88314 3.93178 4.93917C3.74259 4.99519 3.54416 5.01308 3.348 4.9918C3.05765 4.96375 2.78192 4.8511 2.555 4.6678C2.36063 4.51024 2.20877 4.30657 2.11323 4.07532C2.01769 3.84407 1.98152 3.5926 2.008 3.3438C2.03013 3.13127 2.09732 2.9259 2.2051 2.74139C2.31287 2.55688 2.45875 2.39748 2.633 2.2738C2.84 2.1248 3.093 2.0308 3.343 2.0078C3.367 2.0038 3.395 2.0038 3.406 2.0038C3.441 1.9998 3.625 2.0038 3.676 2.0078Z" fill="currentColor"/>
</g>
<defs>
<clipPath id="clip0_2435_42381">
<rect width="8" height="8" fill="white"/>
</clipPath>
</defs>
</svg>
