<svg width="8" height="8" viewBox="0 0 8 8" fill="none" xmlns="http://www.w3.org/2000/svg">
<path d="M0.910003 3.004C0.743689 3.01875 0.583769 3.07515 0.445003 3.168C0.328491 3.24483 0.229635 3.34554 0.154987 3.46346C0.080338 3.58138 0.0316003 3.71382 0.0120029 3.852C-0.00923849 3.9878 -0.0020863 4.12652 0.0330076 4.25941C0.0681015 4.3923 0.130374 4.51647 0.215892 4.62407C0.30141 4.73167 0.408315 4.82037 0.529852 4.88456C0.651389 4.94875 0.784918 4.98704 0.922003 4.997C0.957003 5 1.824 5 4.035 5L7.102 4.996L7.148 4.988C7.36188 4.95508 7.55946 4.85415 7.71147 4.70015C7.86349 4.54615 7.96186 4.34728 7.992 4.133C7.99984 4.04317 7.99984 3.95283 7.992 3.863C7.97293 3.73093 7.92795 3.60393 7.85965 3.48929C7.79135 3.37466 7.70107 3.27464 7.594 3.195C7.46231 3.09886 7.30927 3.03607 7.148 3.012L7.098 3H4.02C2.316 3 0.930003 3.004 0.910003 3.004Z" fill="#202020"/>
</svg>
