<svg width="8" height="8" viewBox="0 0 8 8" fill="none" xmlns="http://www.w3.org/2000/svg">
<path d="M3.91 0.00389272C3.68668 0.0234126 3.47649 0.117776 3.3135 0.271691C3.15051 0.425605 3.04427 0.63005 3.012 0.851893L3.004 0.901893L3 1.95289V2.99989H1.98C1.316 2.99989 0.945002 2.99989 0.918002 3.00389C0.693191 3.02151 0.481052 3.11505 0.316416 3.26914C0.151781 3.42324 0.044434 3.62874 0.0120016 3.85189C0.000353308 3.95022 0.000353308 4.04957 0.0120016 4.14789C0.0422171 4.35988 0.140894 4.55618 0.293002 4.70689C0.461002 4.87489 0.676002 4.97289 0.918002 4.99689C0.945002 4.99989 1.316 4.99989 1.98 4.99989H3V6.04689L3.004 7.09389L3.012 7.14789C3.04778 7.38454 3.16732 7.60048 3.34889 7.75641C3.53045 7.91235 3.76196 7.99792 4.00129 7.99756C4.24063 7.99719 4.47188 7.91092 4.65297 7.75443C4.83405 7.59795 4.95294 7.38165 4.988 7.14489L5 7.09389V4.99989H6.047L7.097 4.99589L7.148 4.98789C7.36187 4.95498 7.55945 4.85404 7.71147 4.70004C7.86349 4.54604 7.96186 4.34717 7.992 4.13289C7.99984 4.04306 7.99984 3.95272 7.992 3.86289C7.97293 3.73082 7.92795 3.60382 7.85965 3.48918C7.79135 3.37455 7.70107 3.27454 7.594 3.19489C7.46231 3.09875 7.30927 3.03596 7.148 3.01189L7.098 2.99989H5V0.901893L4.988 0.851893C4.95004 0.599874 4.81737 0.371826 4.61706 0.214252C4.41675 0.056678 4.16387 -0.0185555 3.91 0.00389272Z" fill="#202020"/>
</svg>
