<svg width="8" height="8" viewBox="0 0 8 8" fill="none" xmlns="http://www.w3.org/2000/svg">
<path d="M3.91 0.953209C3.82565 0.966689 3.74643 1.00243 3.68051 1.05675C3.61459 1.11107 3.56436 1.182 3.535 1.26221C3.527 1.28221 3.441 1.55921 3.344 1.88221L3.152 2.48821C3.12481 2.55636 3.08321 2.61783 3.03005 2.6684C2.97689 2.71897 2.91342 2.75746 2.844 2.78121C2.774 2.80521 2.824 2.80121 2.09 2.80521L1.414 2.80921L1.375 2.81621C1.27763 2.83737 1.18869 2.88681 1.11931 2.95833C1.04993 3.02984 1.0032 3.12025 0.985 3.21821C0.976214 3.28199 0.977226 3.34674 0.988 3.41021C1.00686 3.50632 1.05591 3.59391 1.128 3.66021C1.148 3.68021 1.391 3.86721 1.68 4.09021C2.2 4.48421 2.234 4.51221 2.273 4.56621C2.3161 4.62374 2.34643 4.6898 2.36195 4.75999C2.37747 4.83018 2.37783 4.90287 2.363 4.97321C2.355 5.00021 2.289 5.18821 2.133 5.60521C1.883 6.28121 1.891 6.25821 1.879 6.30521C1.8667 6.3627 1.864 6.42183 1.871 6.48021C1.88839 6.58411 1.93752 6.68007 2.01165 6.75492C2.08578 6.82977 2.18127 6.87982 2.285 6.89821C2.325 6.90621 2.43 6.90621 2.473 6.89521C2.52344 6.88167 2.57187 6.86149 2.617 6.83521C2.633 6.82821 2.887 6.65221 3.176 6.44521L3.726 6.05521C3.734 6.05121 3.762 6.03521 3.781 6.02721C3.84409 5.9949 3.9135 5.97681 3.98434 5.97422C4.05517 5.97163 4.12572 5.9846 4.191 6.01221C4.246 6.03521 4.191 5.99621 5.027 6.58621C5.207 6.71521 5.367 6.82821 5.383 6.83621C5.42818 6.86215 5.4766 6.88199 5.527 6.89521C5.59047 6.90598 5.65522 6.90699 5.719 6.89821C5.78823 6.88473 5.85404 6.85741 5.91246 6.81789C5.97088 6.77837 6.02072 6.72746 6.059 6.66821C6.09877 6.60468 6.12335 6.53282 6.13081 6.45824C6.13826 6.38366 6.12841 6.30836 6.102 6.23821C6.098 6.21821 5.992 5.93821 5.867 5.60521C5.707 5.17521 5.645 5.00021 5.637 4.96921C5.62589 4.90444 5.62454 4.83837 5.633 4.77321C5.65616 4.66026 5.71676 4.55843 5.805 4.48421C5.816 4.47321 6.055 4.29321 6.335 4.07821C6.625 3.85521 6.855 3.68021 6.871 3.66021C6.94229 3.59327 6.99118 3.50597 7.011 3.41021C7.03774 3.28033 7.01221 3.14514 6.93996 3.03395C6.86771 2.92277 6.75454 2.84453 6.625 2.81621L6.59 2.81021L5.914 2.80621C5.16 2.80221 5.223 2.80621 5.141 2.77421C5.07456 2.75054 5.01399 2.71283 4.96343 2.66365C4.91287 2.61447 4.8735 2.55497 4.848 2.48921C4.844 2.47821 4.758 2.20421 4.66 1.88421C4.559 1.56021 4.473 1.27821 4.465 1.26321C4.43404 1.18269 4.38278 1.11155 4.31619 1.0567C4.2496 1.00185 4.16996 0.965167 4.085 0.950209C4.02668 0.945736 3.96806 0.946076 3.91 0.953209Z" fill="#202020"/>
</svg>
