<svg width="8" height="8" viewBox="0 0 8 8" fill="none" xmlns="http://www.w3.org/2000/svg">
<path d="M3.91 0.00412826C3.648 0.0201283 3.434 0.0741283 3.215 0.187128C3.00967 0.288826 2.82658 0.430301 2.67637 0.603341C2.52616 0.776381 2.41183 0.977536 2.34 1.19513C2.25001 1.46802 2.22821 1.7588 2.27649 2.04206C2.32478 2.32533 2.44168 2.59246 2.617 2.82013C3.02 3.34013 3.668 3.58613 4.32 3.46913C4.58574 3.42083 4.83662 3.31144 5.05284 3.14958C5.26907 2.98772 5.44472 2.77783 5.56593 2.53647C5.68715 2.2951 5.75061 2.02887 5.75132 1.75878C5.75203 1.48868 5.68995 1.22212 5.57 0.980128C5.531 0.894128 5.512 0.862128 5.46 0.780128C5.32041 0.570132 5.13722 0.392664 4.9229 0.259795C4.70859 0.126926 4.46817 0.0417733 4.218 0.0101283C4.1156 0.000873095 4.01265 -0.00179813 3.91 0.00412826ZM3.82 4.00413C3.60636 4.01426 3.39376 4.04034 3.184 4.08213C2.50046 4.22675 1.86641 4.54702 1.34437 5.01137C0.822329 5.47572 0.430323 6.06811 0.207001 6.73013C0.163332 6.84823 0.130529 6.97007 0.109001 7.09413C0.101189 7.16291 0.101189 7.23235 0.109001 7.30113C0.128773 7.42236 0.176469 7.53732 0.248321 7.63694C0.320173 7.73656 0.41421 7.81811 0.523001 7.87513C0.621001 7.93413 0.738001 7.96913 0.867001 7.99213C0.910001 7.99613 1.047 7.99613 4 7.99613C6.902 7.99613 7.09 7.99613 7.133 7.99213C7.24938 7.97571 7.36184 7.93845 7.465 7.88213C7.57635 7.82464 7.67302 7.74236 7.74756 7.64163C7.82211 7.5409 7.87255 7.42441 7.895 7.30113C7.90281 7.23369 7.90281 7.16557 7.895 7.09813C7.80466 6.69266 7.64896 6.30459 7.434 5.94913C7.16231 5.49511 6.80363 5.09922 6.37857 4.78415C5.9535 4.46908 5.47041 4.24105 4.957 4.11313C4.58485 4.02445 4.20225 3.98744 3.82 4.00313V4.00413Z" fill="#202020"/>
</svg>
