<svg width="40" height="40" fill="none" xmlns="http://www.w3.org/2000/svg"><path fill-rule="evenodd" clip-rule="evenodd" d="M38.983 20.771c.011-.255.017-.513.017-.771 0-9.941-8.06-18-18-18-9.941 0-18 8.059-18 18 0 .258.005.516.016.771h3.752a.5.5 0 0 0 .483-.367L8.268 16.7c.642-2.337 3.899-2.485 4.75-.217l4.164 11.085 6.542-19.017c.8-2.325 4.124-2.22 4.775.151l3.214 11.7a.5.5 0 0 0 .483.368h6.788Zm-.379 3h-6.408a3.5 3.5 0 0 1-3.375-2.573l-2.786-10.14-6.468 18.802c-.762 2.216-3.88 2.26-4.704.066l-4.11-10.944-.61 2.216a3.5 3.5 0 0 1-3.375 2.573H3.395C5.13 31.901 12.352 38 21 38c8.647 0 15.87-6.098 17.604-14.229Z" fill="#FF7878"/><path d="M1.642 22.27a1 1 0 1 1 0-2v2Zm31.483-2a1 1 0 0 1 0 2v-2ZM7.697 19.8l-.964-.264.964.265Zm1.017-3.702.965.265-.965-.265Zm1.9-.087-.935.352.936-.352Zm4.653 12.387-.936.351.936-.351Zm14-8.597.965-.265-.965.265Zm-.964.265-3.215-11.7 1.93-.53 3.213 11.7-1.928.53ZM9.679 16.363 8.66 20.066l-1.928-.53 1.017-3.703 1.929.53Zm-3.91 5.908H1.642v-2H5.77v2Zm25.427-2h1.929v2h-1.93v-2ZM14.33 28.749 9.679 16.363l1.872-.704 4.652 12.387-1.872.703ZM25.089 8.365l-6.995 20.331-1.89-.65 6.993-20.331 1.892.65ZM8.66 20.065a3 3 0 0 1-2.892 2.206v-2a1 1 0 0 0 .964-.735l1.928.53Zm-.91-4.232c.513-1.87 3.119-1.988 3.8-.174l-1.872.704-1.929-.53Zm8.452 12.213 1.891.65c-.61 1.773-3.104 1.808-3.763.053l1.872-.703Zm8.886-19.68-1.892-.651c.64-1.86 3.299-1.776 3.82.12l-1.928.53Zm5.143 11.17a1 1 0 0 0 .964.735v2a3 3 0 0 1-2.893-2.206l1.928-.53Z" fill="#080713"/><circle cx="36.438" cy="21.313" r="1" fill="#080713"/></svg>