<svg width="40" height="37" fill="none" xmlns="http://www.w3.org/2000/svg"><path fill-rule="evenodd" clip-rule="evenodd" d="M31.809 4.277a2.666 2.666 0 0 0-2.66 2.674v26.732a2.666 2.666 0 0 0 2.66 2.673h2.659a2.666 2.666 0 0 0 2.659-2.673V6.951a2.666 2.666 0 0 0-2.66-2.674H31.81Zm-14.625 8.02a2.666 2.666 0 0 1 2.659-2.673h2.659a2.666 2.666 0 0 1 2.659 2.673v21.386a2.666 2.666 0 0 1-2.66 2.673h-2.658a2.666 2.666 0 0 1-2.66-2.673V12.297ZM5.218 22.99a2.666 2.666 0 0 1 2.659-2.673h2.659a2.666 2.666 0 0 1 2.659 2.673v10.693a2.666 2.666 0 0 1-2.659 2.673h-2.66a2.666 2.666 0 0 1-2.658-2.673V22.99Z" fill="url(#a)"/><circle cx="15.398" cy="28.455" r="1" fill="#080713"/><circle cx="35.227" cy="13.317" r="1" fill="#080713"/><circle cx="35.227" cy="16.317" r="1" fill="#080713"/><circle cx="35.227" cy="19.317" r="1" fill="#080713"/><path d="M4.47 33.968a2.633 2.633 0 0 0 1.674.598h2.644a2.644 2.644 0 0 0 2.644-2.644V21.346a2.644 2.644 0 0 0-2.644-2.644H6.144A2.644 2.644 0 0 0 3.5 21.346v8.637M15.398 31.924a2.644 2.644 0 0 0 2.644 2.644h2.643a2.644 2.644 0 0 0 2.644-2.644V10.772a2.644 2.644 0 0 0-2.643-2.644h-2.644a2.644 2.644 0 0 0-2.644 2.644v13.915M35.227 10.063v-4.58a2.644 2.644 0 0 0-2.644-2.643H29.94a2.644 2.644 0 0 0-2.644 2.644v26.439a2.644 2.644 0 0 0 2.644 2.644h2.644a2.644 2.644 0 0 0 2.644-2.644v-8.86" stroke="#080713" stroke-width="2" stroke-linecap="round"/><defs><radialGradient id="a" cx="0" cy="0" r="1" gradientUnits="userSpaceOnUse" gradientTransform="matrix(31.90909 32.07918 -32.07875 31.90867 5.218 4.277)"><stop stop-color="#FF9595"/><stop offset="1" stop-color="#D93E3E"/></radialGradient></defs></svg>