<svg width="40" height="41" fill="none" xmlns="http://www.w3.org/2000/svg"><path fill-rule="evenodd" clip-rule="evenodd" d="M10.507 4.27a5.899 5.899 0 0 0-5.899 5.898v17.696a5.9 5.9 0 0 0 4.867 5.809c.541.095.988.533.988 1.082v3.73a1 1 0 0 0 1.614.789l6.815-5.3a1 1 0 0 1 .614-.211h14.596A5.899 5.899 0 0 0 40 27.864V10.168a5.899 5.899 0 0 0-5.898-5.898H10.507Z" fill="#7DAFC9"/><path d="M7.416 31.782h1.278c.109 0 .197.088.197.197v6.775c0 .163.188.255.317.155l9.11-7.085a.197.197 0 0 1 .12-.042h12.573a5.899 5.899 0 0 0 5.899-5.898V8.188a5.89 5.89 0 0 0-2.36-4.72M3.386 30.19a5.882 5.882 0 0 1-1.867-4.306V8.188a5.899 5.899 0 0 1 5.898-5.899h16.771" stroke="#080713" stroke-width="2" stroke-linecap="round"/><path fill-rule="evenodd" clip-rule="evenodd" d="M7.031 16.08c0-1.657 1.377-3 3.074-3 1.698 0 3.074 1.343 3.074 3s-1.376 3-3.074 3c-1.697 0-3.074-1.343-3.074-3Zm9.222 0c0-1.657 1.377-3 3.074-3 1.698 0 3.074 1.343 3.074 3s-1.376 3-3.074 3-3.074-1.343-3.074-3Zm12.296-3c-1.698 0-3.074 1.343-3.074 3s1.376 3 3.074 3 3.074-1.343 3.074-3-1.376-3-3.074-3Z" fill="#153C73"/><path d="M28.635 2.29a1 1 0 1 1-2 0 1 1 0 0 1 2 0ZM31.936 2.29a1 1 0 1 1-2 0 1 1 0 0 1 2 0Z" fill="#080713"/></svg>