<svg width="40" height="40" fill="none" xmlns="http://www.w3.org/2000/svg"><path fill-rule="evenodd" clip-rule="evenodd" d="m7.342 31.984 4.409-5.859h19.312l4.952 5.86c2.382 3.1.172 7.585-3.738 7.585H11.08c-3.91 0-6.12-4.485-3.738-7.586ZM25.001 29a3 3 0 1 0 0 6 3 3 0 0 0 0-6Z" fill="url(#a)"/><path d="M14.192 18.826a1 1 0 0 0 1.586 1.219l-1.586-1.219ZM5.664 30.268l-.758-.652-.018.02-.017.023.793.609Zm28.672 0 .794-.61-.017-.021-.019-.021-.758.652Zm-9.321-10.832-.793.609.017.022.018.021.758-.652ZM13.03 9.063l.197-.98a1 1 0 0 0-.484 1.937l.287-.957Zm14.058 0 .287.957a1 1 0 0 0-.478-1.94l.19.982ZM20 10.313l.004-1-.005 1ZM9.515 27.325A1 1 0 0 0 8 26.021l1.516 1.304Zm6.771-11.718h1V11.141h-2V15.607h1Zm-.508 4.438a7.285 7.285 0 0 0 1.508-4.438h-2a5.285 5.285 0 0 1-1.094 3.22l1.586 1.218ZM9.401 36.853c-3.08 0-4.82-3.533-2.944-5.976L4.87 29.66c-2.887 3.758-.208 9.194 4.53 9.194v-2Zm21.198 0H9.4v2H30.6v-2Zm2.945-5.976c1.876 2.443.135 5.976-2.945 5.976v2c4.738 0 7.418-5.437 4.53-9.194l-1.585 1.218Zm-9.287-10.789 9.321 10.832 1.516-1.304-9.321-10.833-1.516 1.305Zm-1.543-4.481c0 1.605.53 3.165 1.508 4.438l1.586-1.219a5.285 5.285 0 0 1-1.094-3.22h-2Zm-5.428-4.464c0-.77-.444-1.331-.858-1.686-.418-.36-.933-.622-1.383-.811a10.3 10.3 0 0 0-1.802-.56l-.01-.003h-.006l-.197.98-.198.98h.003a3.89 3.89 0 0 1 .108.025 8.794 8.794 0 0 1 1.328.422c.365.153.664.32.856.485.196.17.16.225.16.168h2Zm9.802-2.08-.191-.982h-.005a1.786 1.786 0 0 0-.046.01l-.122.027a11.484 11.484 0 0 0-1.699.523c-.462.188-.992.449-1.422.805-.421.349-.89.912-.89 1.697h2c0 .071-.046.018.165-.157.203-.167.517-.337.898-.491a8.9 8.9 0 0 1 1.477-.446l.022-.004h.004v-.001l-.191-.982Zm-2.374 6.544v-4.464h-2v4.464h2ZM13.03 9.063l-.287.957h.001l.003.002.01.003.039.011a36.719 36.719 0 0 0 .663.186c.442.119 1.061.277 1.772.436 1.402.315 3.231.648 4.764.655l.01-2c-1.309-.006-2.965-.299-4.337-.606a41.44 41.44 0 0 1-2.31-.59l-.032-.01a.592.592 0 0 0-.008-.002h-.001l-.287.957Zm6.965 2.25c1.559.007 3.42-.327 4.848-.644a42.872 42.872 0 0 0 2.479-.633l.038-.011.011-.004h.004l-.287-.959-.288-.957h-.002l-.007.003a9.248 9.248 0 0 1-.165.047 40.78 40.78 0 0 1-2.218.561c-1.396.311-3.078.603-4.404.597l-.01 2ZM6.422 30.92l3.093-3.595L8 26.021l-3.093 3.595 1.516 1.304Z" fill="#080713"/><circle cx="10.915" cy="24.458" r="1" fill="#080713"/><circle cx="13" cy="22" r="1" fill="#080713"/><path d="M26.02 3.693a3 3 0 1 1-6 0 3 3 0 0 1 6 0ZM17 5.193a1.5 1.5 0 1 1-3 0 1.5 1.5 0 0 1 3 0Z" fill="#FF7878"/><path d="M23.5 29.402a3 3 0 1 0 4.098 1.098" stroke="#080713" stroke-width="2" stroke-linecap="round"/><defs><radialGradient id="a" cx="0" cy="0" r="1" gradientUnits="userSpaceOnUse" gradientTransform="matrix(30.64167 13.4447 -9.89358 22.54837 6.358 26.125)"><stop stop-color="#FF9595"/><stop offset="1" stop-color="#D93E3E"/></radialGradient></defs></svg>