<svg xmlns="http://www.w3.org/2000/svg">
    <symbol id="activity" width="40" height="40" fill="none" xmlns="http://www.w3.org/2000/svg"><path fill-rule="evenodd" clip-rule="evenodd" d="M38.983 20.771c.011-.255.017-.513.017-.771 0-9.941-8.06-18-18-18-9.941 0-18 8.059-18 18 0 .258.005.516.016.771h3.752a.5.5 0 0 0 .483-.367L8.268 16.7c.642-2.337 3.899-2.485 4.75-.217l4.164 11.085 6.542-19.017c.8-2.325 4.124-2.22 4.775.151l3.214 11.7a.5.5 0 0 0 .483.368h6.788Zm-.379 3h-6.408a3.5 3.5 0 0 1-3.375-2.573l-2.786-10.14-6.468 18.802c-.762 2.216-3.88 2.26-4.704.066l-4.11-10.944-.61 2.216a3.5 3.5 0 0 1-3.375 2.573H3.395C5.13 31.901 12.352 38 21 38c8.647 0 15.87-6.098 17.604-14.229Z" fill="#FF7878"/><path d="M1.642 22.27a1 1 0 1 1 0-2v2Zm31.483-2a1 1 0 0 1 0 2v-2ZM7.697 19.8l-.964-.264.964.265Zm1.017-3.702.965.265-.965-.265Zm1.9-.087-.935.352.936-.352Zm4.653 12.387-.936.351.936-.351Zm14-8.597.965-.265-.965.265Zm-.964.265-3.215-11.7 1.93-.53 3.213 11.7-1.928.53ZM9.679 16.363 8.66 20.066l-1.928-.53 1.017-3.703 1.929.53Zm-3.91 5.908H1.642v-2H5.77v2Zm25.427-2h1.929v2h-1.93v-2ZM14.33 28.749 9.679 16.363l1.872-.704 4.652 12.387-1.872.703ZM25.089 8.365l-6.995 20.331-1.89-.65 6.993-20.331 1.892.65ZM8.66 20.065a3 3 0 0 1-2.892 2.206v-2a1 1 0 0 0 .964-.735l1.928.53Zm-.91-4.232c.513-1.87 3.119-1.988 3.8-.174l-1.872.704-1.929-.53Zm8.452 12.213 1.891.65c-.61 1.773-3.104 1.808-3.763.053l1.872-.703Zm8.886-19.68-1.892-.651c.64-1.86 3.299-1.776 3.82.12l-1.928.53Zm5.143 11.17a1 1 0 0 0 .964.735v2a3 3 0 0 1-2.893-2.206l1.928-.53Z" fill="#080713"/><circle cx="36.438" cy="21.313" r="1" fill="#080713"/></symbol>
    <symbol id="chart" width="40" height="40" fill="none" xmlns="http://www.w3.org/2000/svg"><path fill-rule="evenodd" clip-rule="evenodd" d="M31.809 4.277a2.666 2.666 0 0 0-2.66 2.674v26.732a2.666 2.666 0 0 0 2.66 2.673h2.659a2.666 2.666 0 0 0 2.659-2.673V6.951a2.666 2.666 0 0 0-2.66-2.674H31.81Zm-14.625 8.02a2.666 2.666 0 0 1 2.659-2.673h2.659a2.666 2.666 0 0 1 2.659 2.673v21.386a2.666 2.666 0 0 1-2.66 2.673h-2.658a2.666 2.666 0 0 1-2.66-2.673V12.297ZM5.218 22.99a2.666 2.666 0 0 1 2.659-2.673h2.659a2.666 2.666 0 0 1 2.659 2.673v10.693a2.666 2.666 0 0 1-2.659 2.673h-2.66a2.666 2.666 0 0 1-2.658-2.673V22.99Z" fill="#FF7878"/><circle cx="15.398" cy="28.455" r="1" fill="#080713"/><circle cx="35.227" cy="13.317" r="1" fill="#080713"/><circle cx="35.227" cy="16.317" r="1" fill="#080713"/><circle cx="35.227" cy="19.317" r="1" fill="#080713"/><path d="M4.47 33.968a2.633 2.633 0 0 0 1.674.598h2.644a2.644 2.644 0 0 0 2.644-2.644V21.346a2.644 2.644 0 0 0-2.644-2.644H6.144A2.644 2.644 0 0 0 3.5 21.346v8.637M15.398 31.924a2.644 2.644 0 0 0 2.644 2.644h2.643a2.644 2.644 0 0 0 2.644-2.644V10.772a2.644 2.644 0 0 0-2.643-2.644h-2.644a2.644 2.644 0 0 0-2.644 2.644v13.915M35.227 10.063v-4.58a2.644 2.644 0 0 0-2.644-2.643H29.94a2.644 2.644 0 0 0-2.644 2.644v26.439a2.644 2.644 0 0 0 2.644 2.644h2.644a2.644 2.644 0 0 0 2.644-2.644v-8.86" stroke="#080713" stroke-width="2" stroke-linecap="round"/></symbol>
    <symbol id="chat" width="40" height="40" fill="none" xmlns="http://www.w3.org/2000/svg"><path fill-rule="evenodd" clip-rule="evenodd" d="M10.507 4.27a5.899 5.899 0 0 0-5.899 5.898v17.696a5.9 5.9 0 0 0 4.867 5.809c.541.095.988.533.988 1.082v3.73a1 1 0 0 0 1.614.789l6.815-5.3a1 1 0 0 1 .614-.211h14.596A5.899 5.899 0 0 0 40 27.864V10.168a5.899 5.899 0 0 0-5.898-5.898H10.507Z" fill="#7DAFC9"/><path d="M7.416 31.782h1.278c.109 0 .197.088.197.197v6.775c0 .163.188.255.317.155l9.11-7.085a.197.197 0 0 1 .12-.042h12.573a5.899 5.899 0 0 0 5.899-5.898V8.188a5.89 5.89 0 0 0-2.36-4.72M3.386 30.19a5.882 5.882 0 0 1-1.867-4.306V8.188a5.899 5.899 0 0 1 5.898-5.899h16.771" stroke="#080713" stroke-width="2" stroke-linecap="round"/><path fill-rule="evenodd" clip-rule="evenodd" d="M7.031 16.08c0-1.657 1.377-3 3.074-3 1.698 0 3.074 1.343 3.074 3s-1.376 3-3.074 3c-1.697 0-3.074-1.343-3.074-3Zm9.222 0c0-1.657 1.377-3 3.074-3 1.698 0 3.074 1.343 3.074 3s-1.376 3-3.074 3-3.074-1.343-3.074-3Zm12.296-3c-1.698 0-3.074 1.343-3.074 3s1.376 3 3.074 3 3.074-1.343 3.074-3-1.376-3-3.074-3Z" fill="#153C73"/><path d="M28.635 2.29a1 1 0 1 1-2 0 1 1 0 0 1 2 0ZM31.936 2.29a1 1 0 1 1-2 0 1 1 0 0 1 2 0Z" fill="#080713"/></symbol>
    <symbol id="dataprep" width="40" height="40" fill="none" xmlns="http://www.w3.org/2000/svg"><path fill-rule="evenodd" clip-rule="evenodd" d="m7.342 31.984 4.409-5.859h19.312l4.952 5.86c2.382 3.1.172 7.585-3.738 7.585H11.08c-3.91 0-6.12-4.485-3.738-7.586ZM25.001 29a3 3 0 1 0 0 6 3 3 0 0 0 0-6Z" fill="#FF7878"/><path d="M14.192 18.826a1 1 0 0 0 1.586 1.219l-1.586-1.219ZM5.664 30.268l-.758-.652-.018.02-.017.023.793.609Zm28.672 0 .794-.61-.017-.021-.019-.021-.758.652Zm-9.321-10.832-.793.609.017.022.018.021.758-.652ZM13.03 9.063l.197-.98a1 1 0 0 0-.484 1.937l.287-.957Zm14.058 0 .287.957a1 1 0 0 0-.478-1.94l.19.982ZM20 10.313l.004-1-.005 1ZM9.515 27.325A1 1 0 0 0 8 26.021l1.516 1.304Zm6.771-11.718h1V11.141h-2V15.607h1Zm-.508 4.438a7.285 7.285 0 0 0 1.508-4.438h-2a5.285 5.285 0 0 1-1.094 3.22l1.586 1.218ZM9.401 36.853c-3.08 0-4.82-3.533-2.944-5.976L4.87 29.66c-2.887 3.758-.208 9.194 4.53 9.194v-2Zm21.198 0H9.4v2H30.6v-2Zm2.945-5.976c1.876 2.443.135 5.976-2.945 5.976v2c4.738 0 7.418-5.437 4.53-9.194l-1.585 1.218Zm-9.287-10.789 9.321 10.832 1.516-1.304-9.321-10.833-1.516 1.305Zm-1.543-4.481c0 1.605.53 3.165 1.508 4.438l1.586-1.219a5.285 5.285 0 0 1-1.094-3.22h-2Zm-5.428-4.464c0-.77-.444-1.331-.858-1.686-.418-.36-.933-.622-1.383-.811a10.3 10.3 0 0 0-1.802-.56l-.01-.003h-.006l-.197.98-.198.98h.003a3.89 3.89 0 0 1 .108.025 8.794 8.794 0 0 1 1.328.422c.365.153.664.32.856.485.196.17.16.225.16.168h2Zm9.802-2.08-.191-.982h-.005a1.786 1.786 0 0 0-.046.01l-.122.027a11.484 11.484 0 0 0-1.699.523c-.462.188-.992.449-1.422.805-.421.349-.89.912-.89 1.697h2c0 .071-.046.018.165-.157.203-.167.517-.337.898-.491a8.9 8.9 0 0 1 1.477-.446l.022-.004h.004v-.001l-.191-.982Zm-2.374 6.544v-4.464h-2v4.464h2ZM13.03 9.063l-.287.957h.001l.003.002.01.003.039.011a36.719 36.719 0 0 0 .663.186c.442.119 1.061.277 1.772.436 1.402.315 3.231.648 4.764.655l.01-2c-1.309-.006-2.965-.299-4.337-.606a41.44 41.44 0 0 1-2.31-.59l-.032-.01a.592.592 0 0 0-.008-.002h-.001l-.287.957Zm6.965 2.25c1.559.007 3.42-.327 4.848-.644a42.872 42.872 0 0 0 2.479-.633l.038-.011.011-.004h.004l-.287-.959-.288-.957h-.002l-.007.003a9.248 9.248 0 0 1-.165.047 40.78 40.78 0 0 1-2.218.561c-1.396.311-3.078.603-4.404.597l-.01 2ZM6.422 30.92l3.093-3.595L8 26.021l-3.093 3.595 1.516 1.304Z" fill="#080713"/><circle cx="10.915" cy="24.458" r="1" fill="#080713"/><circle cx="13" cy="22" r="1" fill="#080713"/><path d="M26.02 3.693a3 3 0 1 1-6 0 3 3 0 0 1 6 0ZM17 5.193a1.5 1.5 0 1 1-3 0 1.5 1.5 0 0 1 3 0Z" fill="#FF7878"/><path d="M23.5 29.402a3 3 0 1 0 4.098 1.098" stroke="#080713" stroke-width="2" stroke-linecap="round"/></symbol>
    <symbol id="overview" width="40" height="40" fill="none" xmlns="http://www.w3.org/2000/svg"><path d="M9.618 21.984c0-1.537 1.278-2.783 2.855-2.783h5.71c1.576 0 2.854 1.246 2.854 2.783v8.348c0 1.536-1.278 2.782-2.855 2.782h-5.71c-1.576 0-2.854-1.246-2.854-2.782v-8.348Z" fill="#7DAFC9"/><path d="M19.073 29.88a3.12 3.12 0 0 1-2.75 1.617h-6.22c-1.717 0-3.109-1.357-3.109-3.03v-9.092c0-1.674 1.392-3.031 3.11-3.031h6.218c1.718 0 3.11 1.357 3.11 3.03v7.274" stroke="#080713" stroke-width="2" stroke-linecap="round"/><path d="M24.648 19.46c0-.829.674-1.5 1.505-1.5h6.018c.831 0 1.505.671 1.505 1.5 0 .828-.674 1.5-1.505 1.5h-6.018c-.83 0-1.505-.672-1.505-1.5ZM24.648 25.52c0-.828.674-1.5 1.505-1.5h6.018c.831 0 1.505.672 1.505 1.5 0 .829-.674 1.5-1.505 1.5h-6.018c-.83 0-1.505-.671-1.505-1.5ZM24.648 31.583c0-.828.674-1.5 1.505-1.5h3.01c.83 0 1.504.672 1.504 1.5s-.674 1.5-1.505 1.5h-3.009c-.83 0-1.505-.672-1.505-1.5Z" fill="#FF7878"/><path fill-rule="evenodd" clip-rule="evenodd" d="M1.98 14.825v-4.55c0-3.426 2.758-6.204 6.16-6.204h24.64c3.402 0 6.16 2.778 6.16 6.204v4.55H1.98Zm7.512-7.183a1.5 1.5 0 1 0-3 0 1.5 1.5 0 0 0 3 0Zm4.514 0a1.5 1.5 0 1 0-3 0 1.5 1.5 0 0 0 3 0Zm3.014-1.5a1.5 1.5 0 1 1 0 3 1.5 1.5 0 0 1 0-3Z" fill="#FF7878"/><path d="M1.979 9.07c0-3.347 2.694-6.061 6.018-6.061H32.07c3.324 0 6.018 2.714 6.018 6.061v21.215c0 1.652-.656 3.15-1.72 4.243m-10.43 1.818H7.997c-3.324 0-6.018-2.714-6.018-6.061V14.826" stroke="#080713" stroke-width="2" stroke-linecap="round"/><circle cx="24.221" cy="18.164" r="1" fill="#080713"/><circle cx="27.657" cy="18.164" r="1" fill="#080713"/><circle cx="29.666" cy="36.346" r="1" fill="#080713"/><circle cx="33.332" cy="35.945" r="1" fill="#080713"/><path d="M30.531 18.163h2.643m-1.805 6.162h-7.523m0 6.163h4.212" stroke="#080713" stroke-width="2" stroke-linecap="round"/></symbol>
    <symbol id="search" width="40" height="40" fill="none" xmlns="http://www.w3.org/2000/svg"><path d="M5.976 14.974c0 5.371 4.354 9.725 9.725 9.725 5.37 0 9.725-4.354 9.725-9.725 0-5.37-4.354-9.725-9.725-9.725-5.371 0-9.725 4.354-9.725 9.725Z" fill="#7DAFC9"/><path d="M25.426 14.974a9.696 9.696 0 0 1-2.914 6.942A9.694 9.694 0 0 1 15.7 24.7a9.693 9.693 0 0 1-6.745-2.718 9.697 9.697 0 0 1-2.98-7.007 9.694 9.694 0 0 1 2.783-6.81A9.696 9.696 0 0 1 15.7 5.248a9.697 9.697 0 0 1 7.006 2.98" stroke="#080713" stroke-width="2" stroke-linecap="round"/><path d="M10.051 12.017a8.448 8.448 0 0 1 5.301-3.988" stroke="#FAF8F7" stroke-width="2" stroke-linecap="round"/><path d="M22.656 31.093c-1.337-1.337-1.356-3.485-.043-4.798l1.19-1.189c1.312-1.313 3.46-1.294 4.797.043l8.58 8.579c1.336 1.337 1.355 3.485.042 4.798l-1.189 1.189c-1.313 1.313-3.461 1.294-4.798-.043l-8.58-8.579Z" fill="#153C73"/><path d="M15.7 28.57c2.75 0 5.31-.816 7.45-2.22-.044.826.25 1.666.88 2.297l7.573 7.573a3.021 3.021 0 0 0 4.273 0l1.068-1.068a3.021 3.021 0 0 0 0-4.273l-7.573-7.573a3.013 3.013 0 0 0-2.296-.88 13.532 13.532 0 0 0 2.222-7.452c0-7.509-6.088-13.596-13.596-13.596-7.51 0-13.597 6.087-13.597 13.596 0 3.782 1.545 7.204 4.037 9.668" stroke="#080713" stroke-width="2" stroke-linecap="round" stroke-linejoin="round"/><circle cx="8.813" cy="26.688" r="1" fill="#080713"/><circle cx="12.188" cy="28.125" r="1" fill="#080713"/></symbol>
    <symbol id="settings" width="40" height="40" fill="none" xmlns="http://www.w3.org/2000/svg"><path fill-rule="evenodd" clip-rule="evenodd" d="M19.601 2.87a3.094 3.094 0 0 0-3.094 3.094c0 3.303-3.576 5.367-6.436 3.715a3.094 3.094 0 0 0-4.227 1.133l-1.547 2.68a3.094 3.094 0 0 0 1.133 4.226c2.86 1.652 2.86 5.78 0 7.432a3.094 3.094 0 0 0-1.133 4.227l1.547 2.68a3.094 3.094 0 0 0 4.227 1.132c2.86-1.651 6.436.413 6.436 3.716A3.094 3.094 0 0 0 19.601 40h3.095a3.094 3.094 0 0 0 3.094-3.094c0-3.303 3.575-5.367 6.436-3.716a3.094 3.094 0 0 0 4.227-1.132L38 29.377a3.094 3.094 0 0 0-1.133-4.227c-2.86-1.651-2.86-5.78 0-7.432A3.094 3.094 0 0 0 38 13.492l-1.547-2.68a3.094 3.094 0 0 0-4.227-1.133c-2.86 1.652-6.436-.412-6.436-3.715a3.094 3.094 0 0 0-3.095-3.095h-3.094Zm-.666 7.196a9.282 9.282 0 1 0 0 18.565 9.282 9.282 0 0 0 0-18.565Z" fill="#FF7878"/><path d="M15.947 20.999a4.641 4.641 0 1 1 9.283 0 4.641 4.641 0 0 1-9.283 0Z" fill="#FF7878"/><path d="M24.054 35.233a3.094 3.094 0 0 1-3.094 3.094h-3.094a3.094 3.094 0 0 1-3.094-3.094c0-3.303-3.576-5.368-6.437-3.716a3.094 3.094 0 0 1-4.226-1.133l-1.547-2.68a3.094 3.094 0 0 1 1.132-4.226c2.86-1.652 2.86-5.78 0-7.432a3.094 3.094 0 0 1-1.132-4.226l1.547-2.68a3.094 3.094 0 0 1 4.226-1.133c2.86 1.652 6.437-.413 6.437-3.716a3.094 3.094 0 0 1 3.094-3.094h3.094a3.094 3.094 0 0 1 3.094 3.094c0 3.303 3.576 5.368 6.436 3.716a3.094 3.094 0 0 1 4.227 1.133l1.547 2.68a3.094 3.094 0 0 1-1.133 4.226c-2.86 1.652-2.86 5.78 0 7.432a3.094 3.094 0 0 1 1.133 4.227l-1.547 2.68a3.094 3.094 0 0 1-4.227 1.132 4.25 4.25 0 0 0-4.29 0" stroke="#080713" stroke-width="2" stroke-linecap="round"/><path d="M10.13 19.763a9.282 9.282 0 1 0 9.283-9.283" stroke="#080713" stroke-width="2" stroke-linecap="round"/><path d="M19.41 24.402a4.641 4.641 0 1 1 4.095-2.454" stroke="#080713" stroke-width="2" stroke-linecap="round"/><path fill-rule="evenodd" clip-rule="evenodd" d="M16.448 11.025a.92.92 0 1 1-1.84 0 .92.92 0 0 1 1.84 0Zm-2.971 2.065a.92.92 0 1 1-1.84 0 .92.92 0 0 1 1.84 0ZM10.8 17.102a.92.92 0 1 0 0-1.84.92.92 0 0 0 0 1.84Z" fill="#080713"/></symbol>
    <symbol id="user" width="40" height="40" fill="none" xmlns="http://www.w3.org/2000/svg"><path fill-rule="evenodd" clip-rule="evenodd" d="M20.998 4.153a6.956 6.956 0 1 0 0 13.911 6.956 6.956 0 0 0 0-13.91ZM5.22 32.383c2.263-6.536 8.473-11.23 15.779-11.23 7.305 0 13.515 4.694 15.778 11.23 1.006 2.904-1.576 5.464-4.65 5.464H9.871c-3.074 0-5.656-2.56-4.65-5.464Z" fill="#FF7878"/><circle cx="7.25" cy="23.847" r="1" fill="#080713"/><circle cx="4.75" cy="26.847" r="1" fill="#080713"/><path d="M18.75 16.064a6.956 6.956 0 1 1 5-2.12M2.97 30.383c-1.005 2.904 1.577 5.463 4.65 5.463h22.258c3.073 0 5.655-2.56 4.65-5.463-2.263-6.536-8.473-11.23-15.779-11.23-3.1 0-6.001.845-8.489 2.317" stroke="#080713" stroke-width="2" stroke-linecap="round"/></symbol>
</svg>
