<svg width="41" height="41" fill="none" xmlns="http://www.w3.org/2000/svg"><path d="M5.976 14.974c0 5.371 4.354 9.725 9.725 9.725 5.37 0 9.725-4.354 9.725-9.725 0-5.37-4.354-9.725-9.725-9.725-5.371 0-9.725 4.354-9.725 9.725Z" fill="url(#a)"/><path d="M25.426 14.974a9.696 9.696 0 0 1-2.914 6.942A9.694 9.694 0 0 1 15.7 24.7a9.693 9.693 0 0 1-6.745-2.718 9.697 9.697 0 0 1-2.98-7.007 9.694 9.694 0 0 1 2.783-6.81A9.696 9.696 0 0 1 15.7 5.248a9.697 9.697 0 0 1 7.006 2.98" stroke="#080713" stroke-width="2" stroke-linecap="round"/><path d="M10.051 12.017a8.448 8.448 0 0 1 5.3-3.988" stroke="#FAF8F7" stroke-width="2" stroke-linecap="round"/><path d="M22.656 31.093c-1.337-1.337-1.356-3.485-.043-4.798l1.19-1.189c1.312-1.313 3.46-1.294 4.797.043l8.58 8.579c1.336 1.337 1.355 3.485.042 4.798l-1.189 1.189c-1.313 1.313-3.461 1.294-4.798-.043l-8.58-8.579Z" fill="#153C73"/><path d="M15.7 28.57c2.75 0 5.31-.816 7.45-2.22-.044.826.25 1.666.88 2.297l7.573 7.573a3.021 3.021 0 0 0 4.273 0l1.068-1.068a3.021 3.021 0 0 0 0-4.273l-7.573-7.573a3.013 3.013 0 0 0-2.296-.88 13.532 13.532 0 0 0 2.222-7.452c0-7.509-6.088-13.596-13.596-13.596-7.51 0-13.597 6.087-13.597 13.596 0 3.782 1.545 7.204 4.037 9.668" stroke="#080713" stroke-width="2" stroke-linecap="round" stroke-linejoin="round"/><circle cx="8.813" cy="26.688" r="1" fill="#080713"/><circle cx="12.188" cy="28.125" r="1" fill="#080713"/><defs><radialGradient id="a" cx="0" cy="0" r="1" gradientUnits="userSpaceOnUse" gradientTransform="rotate(45 -3.348 9.838) scale(27.5069)"><stop stop-color="#7DAFC9"/><stop offset="1" stop-color="#214F78"/></radialGradient></defs></svg>