<svg width="40" height="40" fill="none" xmlns="http://www.w3.org/2000/svg"><path fill-rule="evenodd" clip-rule="evenodd" d="M19.601 2.87a3.094 3.094 0 0 0-3.094 3.094c0 3.303-3.576 5.367-6.436 3.715a3.094 3.094 0 0 0-4.227 1.133l-1.547 2.68a3.094 3.094 0 0 0 1.133 4.226c2.86 1.652 2.86 5.78 0 7.432a3.094 3.094 0 0 0-1.133 4.227l1.547 2.68a3.094 3.094 0 0 0 4.227 1.132c2.86-1.651 6.436.413 6.436 3.716A3.094 3.094 0 0 0 19.601 40h3.095a3.094 3.094 0 0 0 3.094-3.094c0-3.303 3.575-5.367 6.436-3.716a3.094 3.094 0 0 0 4.227-1.132L38 29.377a3.094 3.094 0 0 0-1.133-4.227c-2.86-1.651-2.86-5.78 0-7.432A3.094 3.094 0 0 0 38 13.492l-1.547-2.68a3.094 3.094 0 0 0-4.227-1.133c-2.86 1.652-6.436-.412-6.436-3.715a3.094 3.094 0 0 0-3.095-3.095h-3.094Zm-.666 7.196a9.282 9.282 0 1 0 0 18.565 9.282 9.282 0 0 0 0-18.565Z" fill="#FF7878"/><path d="M15.947 20.999a4.641 4.641 0 1 1 9.283 0 4.641 4.641 0 0 1-9.283 0Z" fill="#FF7878"/><path d="M24.054 35.233a3.094 3.094 0 0 1-3.094 3.094h-3.094a3.094 3.094 0 0 1-3.094-3.094c0-3.303-3.576-5.368-6.437-3.716a3.094 3.094 0 0 1-4.226-1.133l-1.547-2.68a3.094 3.094 0 0 1 1.132-4.226c2.86-1.652 2.86-5.78 0-7.432a3.094 3.094 0 0 1-1.132-4.226l1.547-2.68a3.094 3.094 0 0 1 4.226-1.133c2.86 1.652 6.437-.413 6.437-3.716a3.094 3.094 0 0 1 3.094-3.094h3.094a3.094 3.094 0 0 1 3.094 3.094c0 3.303 3.576 5.368 6.436 3.716a3.094 3.094 0 0 1 4.227 1.133l1.547 2.68a3.094 3.094 0 0 1-1.133 4.226c-2.86 1.652-2.86 5.78 0 7.432a3.094 3.094 0 0 1 1.133 4.227l-1.547 2.68a3.094 3.094 0 0 1-4.227 1.132 4.25 4.25 0 0 0-4.29 0" stroke="#080713" stroke-width="2" stroke-linecap="round"/><path d="M10.13 19.763a9.282 9.282 0 1 0 9.283-9.283" stroke="#080713" stroke-width="2" stroke-linecap="round"/><path d="M19.41 24.402a4.641 4.641 0 1 1 4.095-2.454" stroke="#080713" stroke-width="2" stroke-linecap="round"/><path fill-rule="evenodd" clip-rule="evenodd" d="M16.448 11.025a.92.92 0 1 1-1.84 0 .92.92 0 0 1 1.84 0Zm-2.971 2.065a.92.92 0 1 1-1.84 0 .92.92 0 0 1 1.84 0ZM10.8 17.102a.92.92 0 1 0 0-1.84.92.92 0 0 0 0 1.84Z" fill="#080713"/></svg>