<svg width="40" height="40" fill="none" xmlns="http://www.w3.org/2000/svg"><path fill-rule="evenodd" clip-rule="evenodd" d="M20.998 4.153a6.956 6.956 0 1 0 0 13.911 6.956 6.956 0 0 0 0-13.91ZM5.22 32.383c2.263-6.536 8.473-11.23 15.779-11.23 7.305 0 13.515 4.694 15.778 11.23 1.006 2.904-1.576 5.464-4.65 5.464H9.871c-3.074 0-5.656-2.56-4.65-5.464Z" fill="url(#a)"/><circle cx="7.25" cy="23.847" r="1" fill="#080713"/><circle cx="4.75" cy="26.847" r="1" fill="#080713"/><path d="M18.75 16.064a6.956 6.956 0 1 1 5-2.12M2.97 30.383c-1.005 2.904 1.577 5.463 4.65 5.463h22.258c3.073 0 5.655-2.56 4.65-5.463-2.263-6.536-8.473-11.23-15.779-11.23-3.1 0-6.001.845-8.489 2.317" stroke="#080713" stroke-width="2" stroke-linecap="round"/><defs><radialGradient id="a" cx="0" cy="0" r="1" gradientUnits="userSpaceOnUse" gradientTransform="rotate(46.477 -2.336 7.899) scale(46.4669 46.4051)"><stop stop-color="#FF9595"/><stop offset="1" stop-color="#D93E3E"/></radialGradient></defs></svg>