<svg xmlns="http://www.w3.org/2000/svg" viewBox="0 0 16 16">
  <g>
    <path fill="#19426C" fill-rule="evenodd" d="M14.7455401,10.148246 C14.9138776,10.2097805 14.9999547,10.394764 14.9377986,10.5614181 C13.865229,13.4372139 11.0965345,15.3470247 8,15.3470247 L7.984,15.347 L7.98316498,16 L7.09665917,15.2924398 C4.37496878,14.9617895 2.02922183,13.1542132 1.06220138,10.5614181 C1.00004532,10.394764 1.08612237,10.2097805 1.25445986,10.148246 C1.42279735,10.0867115 1.60964929,10.1719278 1.67180536,10.3385819 C2.55853098,12.7160889 4.71620286,14.3697606 7.21553045,14.658584 L7.98653199,14.05 L7.98590708,14.7036769 C7.99060389,14.7036865 7.99530153,14.7036913 8,14.7036913 C10.8244511,14.7036913 13.3498685,12.96169 14.3281946,10.3385819 C14.3903507,10.1719278 14.5772027,10.0867115 14.7455401,10.148246 Z M11.7649016,5.36063489 C12.0323405,5.56848425 12.0905682,5.94238823 11.9075261,6.21879875 L11.8747796,6.26391926 L7.7064294,11.5205859 C7.47055158,11.8180492 7.03143165,11.8484948 6.75594527,11.5974287 L6.71774284,11.5596455 L4.17902231,8.83631213 C3.93561974,8.57520962 3.95210642,8.16820062 4.21584633,7.92723208 C4.4657052,7.6989461 4.84783889,7.70157999 5.09432919,7.92449717 L5.13410901,7.96368787 L7.15521886,10.1316667 L10.8524932,5.46941408 C11.0741058,5.18994044 11.482605,5.14123834 11.7649016,5.36063489 Z M0.936026936,7.25 C1.45298034,7.25 1.87205387,7.6648828 1.87205387,8.17666667 C1.87205387,8.68845053 1.45298034,9.10333333 0.936026936,9.10333333 C0.419073534,9.10333333 -9.1038288e-15,8.68845053 -9.1038288e-15,8.17666667 C-9.1038288e-15,7.6648828 0.419073534,7.25 0.936026936,7.25 Z M15.0639731,7.25 C15.5809265,7.25 16,7.6648828 16,8.17666667 C16,8.68845053 15.5809265,9.10333333 15.0639731,9.10333333 C14.5470197,9.10333333 14.1279461,8.68845053 14.1279461,8.17666667 C14.1279461,7.6648828 14.5470197,7.25 15.0639731,7.25 Z M7.94949495,-9.99200722e-16 L8.96048924,0.792345485 C11.6613841,1.14164877 13.9833718,2.94626501 14.9413203,5.52566432 C15.0032445,5.69240303 14.9169102,5.8772689 14.7484872,5.93857381 C14.5800643,5.99987871 14.3933311,5.91440773 14.3314069,5.74766902 C13.4298012,3.31998 11.2034952,1.64472934 8.63968062,1.40386991 L7.95622896,1.95 L7.954,1.374 L7.73580624,1.37901775 C5.0156801,1.48392299 2.61394781,3.20218007 1.66859307,5.74766902 C1.60666893,5.91440773 1.41993572,5.99987871 1.25151278,5.93857381 C1.08308984,5.8772689 0.996755508,5.69240303 1.05867965,5.52566432 C2.12309752,2.65958259 4.87161134,0.750078237 7.95275736,0.730743375 L7.94949495,-9.99200722e-16 Z"/>
  </g>
</svg>
