<svg xmlns="http://www.w3.org/2000/svg" viewBox="0 0 16 16">
	<path d="M6.0689 6.8883C5.4849 8.5553 4.4159 11.6633 4.4159 11.6633 4.4159 11.6633 6.0569 9.7783 7.2399 8.4073 6.5709 7.6303 6.2189 7.2133 6.1909 7.1633 6.1399 7.0753 6.1009 6.9833 6.0689 6.8883M7.4429 7.049C7.1469 7.049 6.9069 6.809 6.9069 6.512 6.9069 6.216 7.1469 5.976 7.4429 5.976 7.7389 5.976 7.9799 6.216 7.9799 6.512 7.9799 6.809 7.7389 7.049 7.4429 7.049M8.4469 5.862C8.2939 5.597 8.0509 5.418 7.7779 5.337L7.7779 4.454C7.7779 4.269 7.6289 4.118 7.4429 4.118 7.2579 4.118 7.1079 4.269 7.1079 4.454L7.1079 5.341C7.0289 5.366 6.9519 5.398 6.8769 5.441 6.3279 5.758 6.1389 6.462 6.4569 7.01 6.5279 7.134 10.4699 11.663 10.4699 11.663 10.4699 11.663 8.5189 5.986 8.4469 5.862M14.1236 7.2042C13.6476 7.2042 13.2626 7.5902 13.2626 8.0652 13.2626 8.5412 13.6476 8.9272 14.1236 8.9272 14.5996 8.9272 14.9846 8.5412 14.9846 8.0652 14.9846 7.5902 14.5996 7.2042 14.1236 7.2042M1.7227 8.0338C1.7227 7.5578 1.3367 7.1728.8617 7.1728.3857 7.1728-.0003 7.5578-.0003 8.0338-.0003 8.5098.3857 8.8958.8617 8.8958 1.3367 8.8958 1.7227 8.5098 1.7227 8.0338" transform="translate(.5)"/>
	<path d="M1.0362 5.7872C1.1602 5.7872 1.2652 5.7132 1.3132 5.6072L1.3132 5.6082C1.3142 5.6072 1.3142 5.6062 1.3142 5.6052 1.3162 5.6022 1.3172 5.6002 1.3182 5.5962 2.3042 3.1392 4.7162 1.4102 7.4802 1.4032L7.4802 2.2702 8.4332 1.4732C10.7762 1.8032 12.7642 3.3462 13.6532 5.5322 13.7052 5.6702 13.8092 5.7832 13.9602 5.7832 14.1282 5.7832 14.2652 5.6462 14.2652 5.4772 14.2652 5.4192 14.2242 5.3182 14.2242 5.3182 13.2572 2.9232 11.0832 1.2312 8.5202.8702L7.4802.0002 7.4802.7932C4.4652.8002 1.8422 2.6752.7622 5.3472L.7642 5.3482C.7442 5.3892.7312 5.4342.7312 5.4822.7312 5.6502.8682 5.7872 1.0362 5.7872M13.9659 10.3278C13.8419 10.3278 13.7359 10.4018 13.6879 10.5068 13.6879 10.5078 13.6879 10.5088 13.6869 10.5098 13.6859 10.5128 13.6849 10.5148 13.6829 10.5178 12.6949 12.9818 10.2739 14.7148 7.5019 14.7128 7.4969 14.7128 7.4919 14.7118 7.4859 14.7118L7.4859 13.7298 6.4219 14.6198C4.1429 14.2468 2.2189 12.7228 1.3479 10.5828 1.2969 10.4448 1.1919 10.3318 1.0419 10.3318.8729 10.3318.7359 10.4688.7359 10.6378.7359 10.6958.7769 10.7968.7769 10.7968 1.7589 13.2268 3.9839 14.9268 6.5949 15.2538L7.4859 15.9998 7.4859 15.3218C7.4909 15.3218 7.4969 15.3228 7.5019 15.3228 10.5249 15.3248 13.1569 13.4458 14.2389 10.7678L14.2379 10.7668C14.2579 10.7258 14.2699 10.6808 14.2699 10.6328 14.2699 10.4638 14.1339 10.3278 13.9659 10.3278" transform="translate(.5)"/>
</svg>
