<svg xmlns="http://www.w3.org/2000/svg" viewBox="0 0 16 16">
	<path d="M5.224 11.182a2.779 2.779 0 0 0 1.721.594c.79 0 1.503-.328 2.01-.857l-.762-.762 1.214-1.214a.4.4 0 0 0 0-.564.4.4 0 0 0-.564 0L7.628 9.593 6.363 8.327l1.214-1.214a.398.398 0 1 0-.564-.564L5.798 7.763l-.788-.789a2.785 2.785 0 0 0-.256 3.74l-1.72 1.721a.864.864 0 0 0-.433.033 7.036 7.036 0 0 1-.872-7.695C3.376 1.511 7.301.044 10.682 1.418l-.42.834 1.913-.446L11.4 0l-.425.84C7.27-.697 2.961.897 1.151 4.481a7.68 7.68 0 0 0 .965 8.412.851.851 0 1 0 1.478-.082l1.63-1.63z"/>
	<path d="M13.981 3.086a.85.85 0 1 0-1.556-.043l-1.568 1.568a2.776 2.776 0 0 0-1.724-.597c-.79 0-1.503.33-2.01.857l3.945 3.945a2.785 2.785 0 0 0 .258-3.736l1.568-1.568a.853.853 0 0 0 .61.008 7.055 7.055 0 0 1 .815 7.625c-1.609 3.185-5.466 4.677-8.8 3.414l.41-.81-1.916.445L4.791 16l.434-.86c3.66 1.423 7.901-.197 9.671-3.703a7.7 7.7 0 0 0-.915-8.35"/>
</svg>
