<svg xmlns="http://www.w3.org/2000/svg" viewBox="0 0 16 16">
	<g fill="none">
		<path fill="#000" d="M8 16A8 8 0 1 1 8 0a8 8 0 0 1 0 16z"/>
		<path fill="#FFF" d="M5.69 10.662a2.3 2.3 0 0 0 1.425.492 2.3 2.3 0 0 0 1.664-.709l-.631-.632 1.005-1.005a.33.33 0 0 0 0-.466.332.332 0 0 0-.467 0L7.68 9.347 6.633 8.3l1.005-1.005a.33.33 0 0 0-.467-.466L6.167 7.832l-.653-.652a2.3 2.3 0 0 0-.71 1.664c0 .54.187 1.037.498 1.43L3.878 11.7a.721.721 0 0 0-.358.027 5.824 5.824 0 0 1-.722-6.368c1.364-2.7 4.612-3.914 7.41-2.777l-.348.69 1.584-.369-.643-1.495-.351.695C7.384.832 3.818 2.15 2.32 5.117a6.359 6.359 0 0 0 .798 6.962.704.704 0 0 0 1.26.631.704.704 0 0 0-.036-.699l1.349-1.349z"/>
		<path fill="#FFF" d="M12.623 3.031a.706.706 0 0 0-.973.894l-1.296 1.298a2.304 2.304 0 0 0-3.092.215l3.266 3.265a2.304 2.304 0 0 0 .213-3.092l1.299-1.297a.701.701 0 0 0 .504.006 5.838 5.838 0 0 1 .675 6.311c-1.332 2.636-4.524 3.871-7.284 2.826l.339-.67-1.585.368.643 1.494.36-.712c3.028 1.18 6.538-.162 8.005-3.064a6.375 6.375 0 0 0-.758-6.912.703.703 0 0 0-.316-.93z"/>
	</g>
</svg>
