<svg xmlns="http://www.w3.org/2000/svg" viewBox="0 0 16 16">
	<path d="M9.515 12.088c-.638 0-1.265-.304-1.866-.904-.47-.47-.927-.688-1.356-.64-.667.07-1.122.747-1.126.754a.438.438 0 1 1-.736-.476c.027-.042.68-1.035 1.77-1.15.705-.075 1.401.225 2.068.893.47.468.928.684 1.361.641.683-.069 1.155-.753 1.16-.76a.44.44 0 0 1 .73.485c-.028.042-.699 1.036-1.802 1.147-.068.007-.136.01-.203.01m0-2.958c-.638 0-1.265-.304-1.866-.904-.469-.47-.922-.686-1.35-.642-.672.068-1.129.75-1.133.757a.44.44 0 0 1-.735-.478c.027-.042.68-1.034 1.77-1.15.704-.075 1.401.225 2.068.893.47.468.928.685 1.361.641.683-.068 1.155-.753 1.16-.76a.44.44 0 0 1 .73.485c-.028.042-.699 1.037-1.802 1.147a1.988 1.988 0 0 1-.203.011m0-2.948c-.638 0-1.265-.304-1.866-.904-.47-.472-.927-.688-1.356-.642-.667.071-1.122.748-1.126.755a.438.438 0 1 1-.736-.476c.027-.042.68-1.035 1.77-1.15.705-.075 1.401.225 2.068.893.47.469.928.684 1.361.641.683-.068 1.155-.753 1.16-.76a.44.44 0 0 1 .73.485c-.028.042-.699 1.037-1.802 1.147a1.988 1.988 0 0 1-.203.011"/>
	<path d="M1.084 8.857a.827.827 0 0 0 .107-1.53 6.839 6.839 0 0 1 4.707-5.866c3.376-1.096 7.073.605 8.44 3.875l-.862.28 1.617 1.014.714-1.771-.87.282C13.46 1.538 9.415-.341 5.706.864A7.463 7.463 0 0 0 .564 7.287a.827.827 0 0 0 .52 1.57m14.875-1.139a.827.827 0 1 0-1.138 1.003 6.852 6.852 0 0 1-4.698 5.778c-3.295 1.072-6.963-.566-8.375-3.729l.84-.273L.97 9.484l-.714 1.771.891-.29c1.523 3.497 5.542 5.311 9.17 4.132a7.48 7.48 0 0 0 5.132-6.345.826.826 0 0 0 .51-1.034"/>
</svg>
