<svg xmlns="http://www.w3.org/2000/svg" viewBox="0 0 16 16">
  <g>
    <path class="ti-foreground" d="M9.91981589,4.21141649 C10.5824957,4.21141649 11.1197038,4.77934281 11.1197038,5.47991543 C11.1197038,6.06372595 10.7466426,6.55542098 10.2387936,6.70310237 L10.2387936,6.70310237 L10.175792,6.71627907 L10.175792,8.06257928 L13.9505669,15.3746332 C14.079841,15.6250926 13.9417863,15.9244078 13.696267,15.9878302 L13.696267,15.9878302 L13.5994721,16 L2.40051842,16 C2.09814073,16 1.90512106,15.6589455 2.04807906,15.3772602 L2.04807906,15.3772602 L5.76020452,8.05919662 L5.76020452,6.71289641 L5.71320138,6.70310237 C5.2561373,6.57018912 4.90825133,6.15862482 4.84324478,5.65204323 L4.84324478,5.65204323 L4.83229122,5.47991543 C4.83229122,4.77934281 5.36949933,4.21141649 6.03217911,4.21141649 L6.03217911,4.21141649 Z M9.91981589,5.05708245 L6.03217911,5.05708245 C5.81128585,5.05708245 5.63221648,5.24639123 5.63221648,5.47991543 C5.63221648,5.71343964 5.81128585,5.90274841 6.03217911,5.90274841 L6.03217911,5.90274841 L6.16016715,5.90274841 C6.38106042,5.90274841 6.56012979,6.09205719 6.56012979,6.3255814 L6.56012979,6.3255814 L6.56012979,8.16913319 L6.51260651,8.36904 L4.656,12.025 L11.31,12.025 L9.42473456,8.37166704 L9.37586671,8.16913319 L9.37586671,6.3255814 C9.37586671,6.09205719 9.55493608,5.90274841 9.77582934,5.90274841 L9.77582934,5.90274841 L9.91981589,5.90274841 C10.1407092,5.90274841 10.3197785,5.71343964 10.3197785,5.47991543 C10.3197785,5.24639123 10.1407092,5.05708245 9.91981589,5.05708245 L9.91981589,5.05708245 Z M11.6476545,2.6384778 C12.1689626,2.6384778 12.5915663,3.08524651 12.5915663,3.63636364 C12.5915663,4.18748077 12.1689626,4.63424947 11.6476545,4.63424947 C11.1263464,4.63424947 10.7037426,4.18748077 10.7037426,3.63636364 C10.7037426,3.08524651 11.1263464,2.6384778 11.6476545,2.6384778 Z M4.7682972,2.21564482 C5.21008372,2.21564482 5.56822246,2.59426237 5.56822246,3.06131078 C5.56822246,3.5283592 5.21008372,3.90697674 4.7682972,3.90697674 C4.32651067,3.90697674 3.96837193,3.5283592 3.96837193,3.06131078 C3.96837193,2.59426237 4.32651067,2.21564482 4.7682972,2.21564482 Z M8.14398181,-4.21884749e-14 C8.88618317,-4.21884749e-14 9.48785625,0.63607748 9.48785625,1.42071882 C9.48785625,2.20536015 8.88618317,2.84143763 8.14398181,2.84143763 C7.40178045,2.84143763 6.80010736,2.20536015 6.80010736,1.42071882 C6.80010736,0.63607748 7.40178045,-4.21884749e-14 8.14398181,-4.21884749e-14 Z"/>
  </g>
</svg>
