<svg xmlns="http://www.w3.org/2000/svg" viewBox="0 0 16 16">
  <g>
    <circle class="ti-background" cx="8" cy="8" r="8" fill="#19426C"/>
    <path class="ti-foreground" fill="#FFF" d="M9.50168084,3.74893575 C10.3664685,3.7697028 11.2093564,4.03725838 11.9297069,4.522679 C11.9986604,4.56914458 12.04,4.64685165 12.04,4.73 L12.04,4.73 L12.0396365,5.8986368 L12.52,6.16 L12.52,11.09 C12.5230046,11.125189 12.507225,11.1593533 12.4784864,11.1798809 C12.4497477,11.2004085 12.4123124,11.2042548 12.38,11.19 L12.38,11.19 L11.82,10.9 C11.0935474,10.4732438 10.2927175,10.1882026 9.46,10.06 C8.95738876,10.0304347 8.47583511,10.2655239 8.19,10.68 C8.15400438,10.726299 8.09864539,10.753381 8.04,10.753381 C7.98135461,10.753381 7.92599562,10.726299 7.89,10.68 C7.57001056,10.2686304 7.07068846,10.0376008 6.55,10.06 C5.72776117,10.1923079 4.93751349,10.477204 4.22,10.9 L4.22,10.9 L3.62,11.22 C3.5876876,11.2342548 3.55025227,11.2304085 3.52151363,11.2098809 C3.49277499,11.1893533 3.47699538,11.155189 3.48,11.12 L3.48,11.12 L3.48,6.32 L3.95963651,5.9716368 L3.96,4.76 C3.96,4.69843528 3.98266695,4.63981247 4.02248423,4.59465316 L4.06781397,4.55437137 C4.85936842,4.00703521 5.80437303,3.72538677 6.76834161,3.7501392 C7.24007718,3.76588811 7.67512885,3.97953226 7.97520609,4.32607306 L7.97520609,4.32607306 L8.003,4.362 L8.03273649,4.32672935 C8.30253347,4.0227243 8.67426669,3.82120671 9.08323441,3.76462095 L9.08323441,3.76462095 L9.23821629,3.75027787 Z M6.75358463,4.24991767 C5.8974941,4.22794189 5.05656488,4.47857178 4.35218603,4.96562863 L4.45963651,4.8956368 L4.46,9.668 L4.69283695,9.5544028 C5.21289561,9.31314918 5.76099233,9.1365181 6.32474707,9.02881176 L6.32474707,9.02881176 L6.66477984,8.97249335 C7.05250034,8.91732078 7.43757974,9.01048546 7.7507759,9.21949689 L7.75161049,4.881242 C7.55769629,4.50657628 7.17591661,4.2640244 6.75358463,4.24991767 Z M9.51275135,4.24941201 L9.26178371,4.24972213 C8.81783276,4.27067097 8.42039802,4.53138816 8.22436874,4.93026635 L8.24963651,4.8836368 L8.24902343,9.27309276 C8.51661443,9.09951447 8.82322532,8.99498964 9.14532862,8.96981618 L9.32630837,8.96406836 L9.4891332,8.97308181 C10.1316598,9.07491361 10.7555321,9.26666311 11.3426472,9.54183174 L11.3426472,9.54183174 L11.54,9.64 L11.54,4.868 L11.4349186,4.80184591 C10.8506669,4.45952844 10.1896016,4.26953721 9.51275135,4.24941201 L9.51275135,4.24941201 Z"/>
  </g>
</svg>
