<svg xmlns="http://www.w3.org/2000/svg" viewBox="0 0 16 16">
  <g>
    <path d="M7.47332886,2.99830535 C8.34697633,2.99830535 9.05520754,2.32711183 9.05520754,1.49915267 C9.05520754,0.671193515 8.34697633,0 7.47332886,0 C6.59968138,0 5.89145017,0.671193515 5.89145017,1.49915267 C5.89145017,2.32711183 6.59968138,2.99830535 7.47332886,2.99830535 Z M3.78227859,3.99774059 C4.36471024,3.99774059 4.83686438,3.55027812 4.83686438,2.99830535 C4.83686438,2.44633258 4.36471024,1.99887023 3.78227859,1.99887023 C3.19984694,1.99887023 2.72769267,2.44633258 2.72769267,2.99830535 C2.72755283,3.26341267 2.83861571,3.51769998 3.03641926,3.70515919 C3.23422281,3.89261839 3.50254216,3.99787312 3.78227859,3.99774059 L3.78227859,3.99774059 Z M12.2189649,3.1981925 C12.8013966,3.1981925 13.2735507,2.75073003 13.2735507,2.19875726 C13.2735507,1.64678448 12.8013966,1.19932214 12.2189649,1.19932214 C11.6365333,1.19932214 11.164379,1.64678448 11.164379,2.19875726 C11.1642391,2.46386457 11.275302,2.71815189 11.4731056,2.90561109 C11.6709091,3.0930703 11.9392285,3.19832502 12.2189649,3.1981925 L12.2189649,3.1981925 Z M14.8696663,15.1164561 L10.622322,7.86855267 C10.4914298,7.6678624 10.3166599,7.49609784 10.1097933,7.36483737 L10.1097933,5.74675192 C10.6543371,5.77711317 11.1238477,5.38777579 11.1643791,4.87224619 C11.1243971,4.35645675 10.6545359,3.96682868 10.1097933,3.99774046 L5.89145017,3.99774046 C5.34670755,3.96682868 4.87684645,4.35645675 4.83686438,4.87224619 C4.87739582,5.38777579 5.34690638,5.77711317 5.89145017,5.74675192 L5.89145017,7.36483737 C5.68442457,7.4959177 5.50961793,7.66771838 5.37892148,7.86855267 L1.13052262,15.1164561 C0.97793751,15.2914196 0.957177202,15.5381646 1.07857864,15.7338323 C1.19998008,15.9295001 1.43759357,16.0322663 1.67310701,15.9909619 L14.3281365,15.9909619 C14.5634648,16.0317219 14.8005852,15.9287518 14.9216664,15.7332202 C15.0427476,15.5376886 15.0219731,15.2912859 14.8696663,15.1164561 Z M3.31351521,13.9920916 L4.48516002,11.9932214 L11.5166108,11.9932214 L12.687201,13.9920916 L3.31351521,13.9920916 Z"/>
  </g>
</svg>
