<svg xmlns="http://www.w3.org/2000/svg" viewBox="0 0 336.1 123">
<g>
	<g>
		<g>
			<path fill="#FFFFFF" d="M280.9,80c-3.5-2.5-6.1-5.9-7.7-10s-2.4-8.8-2.4-13.9s1-9.5,3-13.7s5.1-7.6,9.2-10.2s9-3.9,14.9-3.9
				c3,0,5.6,0.2,7.6,0.7s4.3,1.4,6.5,2.8l-0.5-20.2c0-2.3-0.9-4-2.7-4.9c-1.8-0.9-4.5-1.5-7.9-1.8c-0.4-0.2-0.7-0.4-1-0.7
				c-0.2-0.3-0.3-0.8-0.3-1.4c0-0.5,0.1-1,0.4-1.5s0.5-0.8,0.9-0.8c5.5-0.4,12.7-0.6,21.4-0.6h4.4c0.4,0,0.8,0.2,1.1,0.5
				s0.5,0.9,0.5,1.6v70.8c0,1.4,0.3,2.5,0.9,3.2s1.3,1.2,2.1,1.4c0.8,0.2,1.8,0.4,3,0.5c0.8,0.1,1.3,0.2,1.5,0.4
				c0.2,0.2,0.4,0.7,0.4,1.5c0,0.5-0.2,0.9-0.5,1.4s-0.8,0.7-1.3,0.7H316c-1.4,0-2.3-0.2-2.9-0.6s-0.9-1-1-1.7s-0.1-1.9-0.1-3.4
				c-1.7,2.3-4.2,4.1-7.5,5.4s-6.6,1.9-9.9,1.9C289,83.8,284.5,82.5,280.9,80L280.9,80z M307.5,74.8c1.8-0.9,3.1-2.1,4-3.6V39.7
				c-0.3-0.8-0.9-1.7-1.9-2.6s-2-1.7-3.3-2.2c-1.2-0.6-2.4-0.9-3.4-0.9c-5.2,0-8.9,1.9-11,5.8c-2.2,3.8-3.3,9.3-3.3,16.4
				c0,13.3,4.5,20,13.5,20C303.9,76.1,305.7,75.6,307.5,74.8L307.5,74.8z"/>
			<path fill="#FFFFFF" d="M146.9,76.5c-5-4.8-7.5-11.8-7.5-20.9c0-5.7,1.3-10.6,4-14.7s6.3-7.2,10.8-9.3s9.4-3.2,14.8-3.2
				c7.9,0,13.7,1.5,17.6,4.6c3.9,3.1,6.3,7.5,7.3,13.5c0.3,1.9,0.5,4.8,0.5,8.8h-36.9c0,5.1,0.8,9.3,2.4,12.5
				c1.6,3.2,3.7,5.5,6.1,6.8s5.1,2.1,7.9,2.1c3.3,0,6-0.4,8.2-1.3c2.2-0.8,4.1-2.2,5.8-4.2c0,0,0.1-0.2,0.3-0.3s0.3-0.3,0.5-0.4
				s0.4-0.1,0.6-0.1l2.3,1.1c0.4,0.1,0.5,0.3,0.5,0.6c0,0.2-0.1,0.5-0.3,0.9c-1.9,3.3-4.7,5.9-8.4,7.9c-3.7,1.9-8.2,2.9-13.6,2.9
				C159.5,83.8,151.9,81.4,146.9,76.5L146.9,76.5z M174.8,37c-1.2-2.7-3.2-4.1-5.9-4.1c-2.9,0-5.3,1.4-7.4,4.3s-3.3,7.2-3.8,13.1h19
				C176.6,44.2,176,39.7,174.8,37z"/>
			<path fill="#FFFFFF" d="M198.8,81.5c-0.3-0.5-0.5-1-0.5-1.5c0-0.6,0.1-1.1,0.4-1.4s0.7-0.5,1.4-0.6c3.8-0.5,5.6-1.6,5.6-3.4V40.9
				c0-1.6-0.3-2.9-0.9-3.7c-0.6-0.8-1.3-1.4-2.1-1.7s-1.8-0.5-3.1-0.7c-1-0.1-1.6-0.2-1.8-0.3c-0.4-0.2-0.7-0.4-1-0.7
				c-0.2-0.3-0.3-0.8-0.3-1.4c0-0.5,0.1-1,0.4-1.5c0.2-0.5,0.5-0.8,0.9-0.8c8.3-0.5,15.8-0.7,22.5-0.7c0.4,0,0.7,0.2,1,0.5
				s0.5,0.9,0.6,1.6v5.9c0.8-1,2.3-2.2,4.6-3.6c2.2-1.4,4.8-2.7,7.8-3.8c3-1.1,5.9-1.6,8.7-1.6c5.2,0,9.4,1.1,12.5,3.4
				c3.1,2.3,4.6,6.4,4.6,12.5V73c0,2,0.5,3.3,1.5,3.9s2,1,3.1,1.1s1.8,0.2,2.1,0.2c0.6,0.1,1.1,0.2,1.4,0.5s0.4,0.8,0.4,1.5
				c0,0.5-0.2,1-0.5,1.5s-0.8,0.7-1.3,0.7h-28.5c-0.6,0-1-0.2-1.3-0.7s-0.5-1-0.5-1.5c0-0.6,0.1-1.1,0.3-1.4s0.7-0.5,1.3-0.6
				c1.3-0.1,2.5-0.5,3.5-1.1s1.6-1.4,1.6-2.3V44.5c0-1.4-0.1-2.6-0.3-3.7c-0.2-1.1-0.8-2.1-1.7-3s-2.4-1.3-4.3-1.3
				c-1.8,0-3.7,0.3-5.6,1c-1.9,0.7-3.6,1.5-5.2,2.6c-1.6,1-2.8,2-3.7,3V73c0,1.4,0.3,2.5,0.8,3.2s1.1,1.2,1.9,1.4
				c0.7,0.2,1.7,0.4,2.9,0.5c0.8,0.1,1.3,0.2,1.5,0.4s0.4,0.7,0.4,1.5c0,0.5-0.2,0.9-0.5,1.4s-0.8,0.7-1.3,0.7h-27.9
				C199.6,82.2,199.1,82,198.8,81.5L198.8,81.5z"/>
			<path fill="#FFFFFF" d="M137.1,78.6c-0.2-0.2-0.8-0.4-1.5-0.4c-1.3-0.1-2.4-0.3-3.2-0.5s-1.6-0.6-2.3-1.3c-0.7-0.7-1-1.6-1-2.8V2.1
				c0-0.7-0.2-1.3-0.5-1.6S127.9,0,127.5,0c-8.1,0-16,0.2-23.6,0.7c-0.4,0-0.7,0.3-0.9,0.8c-0.2,0.5-0.4,1-0.4,1.5
				c0,0.6,0.1,1.1,0.3,1.4s0.5,0.6,1,0.7c0.1,0,0.8,0.1,2,0.3c1.4,0.2,2.6,0.4,3.6,0.7s1.7,0.8,2.4,1.7s1,2.1,1,3.8l-0.1,63.5
				c0,0.9-5.3,3.1-9.2,3.1s-8.9-2.2-9.3-3.1s-0.6-2.1-0.6-3.5V43.1c0-2.9-0.8-5.5-2.4-7.7s-4.2-4-7.6-5.2c-3.4-1.3-7.8-1.9-13-1.9
				c-3.7,0-7.5,0.5-11.4,1.4s-7.2,2.3-9.9,4.2s-4.1,4.3-4.1,7.1c0,2.2,0.8,4,2.4,5.4c1.1,0.9,2.4,1.5,3.9,1.8c1.6,0.2,3.2-0.1,3-2.2
				c0-0.2,0-0.2,0-0.3c-0.4-4.3,1.8-8.8,7.2-11.2c0.2-0.1,0.5-0.2,0.7-0.3c0.9-0.5,3-0.8,5.9-0.8c2.6,0,4.6,0.6,5.9,1.8s2,3.4,2,6.5
				v8.8C70.2,51.1,64.8,52,60,53.2s-8.9,3.1-12.2,5.7c-3.3,2.6-5,6.1-5,10.5c0,3.2,0.8,5.8,2.5,8C47,79.5,49,81,51.5,82
				c2.4,1,4.8,1.5,7.2,1.5c3.8,0,7.3-0.6,10.5-1.8s5.9-3,8.2-5.4v0.2c0,1.2,0.2,3.1,0.2,3.1s0.2,1.5,2,2.5
				c1.8,0.9,13.1,0.2,15.1,0.2h41c0.6,0,1-0.2,1.3-0.7s0.5-1,0.5-1.5C137.5,79.3,137.4,78.8,137.1,78.6L137.1,78.6z M76.4,71.8
				c-2.2,2.7-5.1,4-8.6,4c-2.2,0-3.9-0.7-5.1-2.1c-1.2-1.4-1.8-3-1.8-4.9c0-3.4,0.7-6.1,2.2-8.1s3.3-3.3,5.5-4.1s4.8-1.5,7.8-1.9
				L76.4,71.8L76.4,71.8z"/>
			<path fill="#FFFFFF" d="M39.2,76.6c-0.2-0.6-0.5-1.2-0.9-1.7s-0.7-0.7-0.9-0.6C36,74.9,34.6,75.5,33,76s-3,0.7-4.1,0.7
				c-1.3,0-2.3-0.3-3-0.9s-1.2-1.7-1.5-3.2c-0.3-1.6-0.5-3.9-0.5-6.9V35.1h11.4c0.4,0,0.8-0.4,1.1-1.1c0.3-0.7,0.5-1.7,0.5-2.8
				c0-0.5-0.1-0.9-0.3-1.2c-0.2-0.4-0.5-0.5-0.9-0.6H23.9V14.6c0-0.6-0.4-1.1-1.1-1.4c-1.3-0.4-2.1,1-2.1,1
				c-3.6,8.3-10.6,14.6-19.3,17.4c0,0-1.8,0.4-1.3,2.3c0,0.2,0.1,0.3,0.2,0.5c0.2,0.5,0.6,0.8,0.9,0.8h5.7v35.2
				c0,5,1.5,8.5,4.5,10.5s7.1,3,12.2,3c1.6,0,3.4-0.3,5.5-0.9s4.1-1.4,6-2.3s3.2-1.9,4.1-2.8C39.4,77.6,39.4,77.3,39.2,76.6
				L39.2,76.6z"/>
		</g>
		<g>
			<path fill="#FFFFFF" d="M115.4,94.7h4.6l7,21.7h-4.2l-1.7-5.8H114l-1.7,5.8h-4L115.4,94.7L115.4,94.7z M114.9,107.4h5.4l-0.7-2.6
				c-0.7-2.3-1.3-4.8-1.9-7.1h-0.1c-0.6,2.4-1.2,4.8-1.9,7.1L114.9,107.4z"/>
			<path fill="#FFFFFF" d="M142.9,116.5c-4.7-0.8-7.8-4.9-7.8-11.2c0-7,3.9-11.1,9.6-11.1s9.6,4.1,9.6,11.1c0,6-2.9,10-7.2,11.1
				c1,1.7,3,2.4,5,2.4c1,0,1.8-0.1,2.4-0.3l0.7,2.8c-0.7,0.4-2,0.6-3.5,0.6C147.4,122.1,144.3,119.7,142.9,116.5L142.9,116.5z
				 M150.3,105.4c0-4.8-2.2-7.7-5.5-7.7s-5.5,2.9-5.5,7.7s2.1,8.1,5.5,8.1S150.3,110.4,150.3,105.4z"/>
			<path fill="#FFFFFF" d="M158.3,112V92.9h3.9v19.3c0,1,0.4,1.3,0.8,1.3c0.2,0,0.3,0,0.6-0.1l0.5,2.9c-0.5,0.2-1.1,0.4-2.1,0.4
				C159.3,116.7,158.3,114.9,158.3,112L158.3,112z"/>
			<path fill="#FFFFFF" d="M166.9,95c0-1.3,1-2.2,2.4-2.2s2.4,0.9,2.4,2.2s-1,2.2-2.4,2.2S166.9,96.3,166.9,95z M167.3,100h3.9v16.3
				h-3.9V100z"/>
			<path fill="#FFFFFF" d="M176,92.9h3.9v14.4h0.1l5.9-7.3h4.3l-5.5,6.7l6.1,9.6h-4.2l-4.1-7l-2.5,2.8v4.2h-4V92.9L176,92.9z"/>
			<path fill="#FFFFFF" d="M199.2,105.5c0-7.1,4.4-11.3,9.9-11.3c2.7,0,4.9,1.3,6.3,2.8l-2.1,2.4c-1.1-1.1-2.4-1.7-4.1-1.7
				c-3.4,0-6,2.9-6,7.8s2.3,7.8,5.9,7.8c1.9,0,3.4-0.8,4.6-2.1l2.1,2.3c-1.8,2.1-4.1,3.2-6.9,3.2
				C203.6,116.7,199.2,112.7,199.2,105.5L199.2,105.5z"/>
			<path fill="#FFFFFF" d="M218.1,108.2c0-5.4,3.7-8.6,7.8-8.6s7.8,3.2,7.8,8.6s-3.7,8.5-7.8,8.5S218.1,113.6,218.1,108.2z
				 M229.6,108.2c0-3.2-1.4-5.4-3.7-5.4s-3.7,2.1-3.7,5.4s1.4,5.3,3.7,5.3S229.6,111.4,229.6,108.2z"/>
			<path fill="#FFFFFF" d="M237.3,100h3.2l0.3,2.2h0.1c1.4-1.4,2.9-2.6,5-2.6c2.4,0,3.7,1.1,4.5,2.9c1.6-1.7,3.1-2.9,5.2-2.9
				c3.4,0,5,2.4,5,6.5v10.2h-3.9v-9.7c0-2.7-0.8-3.6-2.4-3.6c-1,0-2.1,0.6-3.3,2v11.3h-4v-9.7c0-2.7-0.8-3.6-2.4-3.6
				c-1,0-2.1,0.6-3.3,2v11.3h-3.9L237.3,100L237.3,100z"/>
			<path fill="#FFFFFF" d="M265.3,100h3.2l0.3,1.7h0.1c1.4-1.2,3.1-2.1,4.9-2.1c4,0,6.4,3.3,6.4,8.3c0,5.6-3.3,8.8-6.9,8.8
				c-1.5,0-2.9-0.7-4.2-1.8l0.1,2.7v5.1h-3.9V100L265.3,100z M276.2,108c0-3.2-1.1-5.1-3.5-5.1c-1.2,0-2.2,0.6-3.5,1.8v7.5
				c1.1,1,2.2,1.3,3.2,1.3C274.5,113.5,276.1,111.6,276.2,108L276.2,108z"/>
			<path fill="#FFFFFF" d="M282.7,111.9c0-3.6,2.9-5.4,9.5-6.1c-0.1-1.7-0.7-3.1-2.9-3.1c-1.6,0-3.1,0.7-4.6,1.5l-1.4-2.6
				c1.8-1.1,4.1-2.1,6.7-2.1c4,0,6.1,2.5,6.1,7.1v9.6H293l-0.3-1.8h-0.1c-1.5,1.3-3,2.2-5,2.2C284.7,116.7,282.7,114.8,282.7,111.9
				L282.7,111.9z M292.3,111.9v-3.4c-4.4,0.5-5.8,1.5-5.8,3.2c0,1.4,0.9,1.9,2.2,1.9S291.1,113.1,292.3,111.9z"/>
			<path fill="#FFFFFF" d="M300.7,100h3.2l0.3,2.2h0.1c1.5-1.4,3.1-2.6,5.3-2.6c3.5,0,5,2.4,5,6.5v10.2h-3.9v-9.7
				c0-2.7-0.8-3.6-2.5-3.6c-1.4,0-2.4,0.7-3.6,2v11.3h-3.9V100L300.7,100z"/>
			<path fill="#FFFFFF" d="M318.2,122.6l0.8-2.9c0.5,0.1,0.8,0.2,1.1,0.2c1.7,0,2.7-1.1,3.2-2.7l0.3-1l-6.4-16.1h4l2.8,7.9
				c0.5,1.4,1,3.1,1.4,4.6h0.1c0.4-1.5,0.8-3.1,1.2-4.6l2.4-7.9h3.8l-5.9,17c-1.4,3.7-3.1,6-6.7,6
				C319.5,122.9,318.9,122.8,318.2,122.6L318.2,122.6z"/>
		</g>
	</g>
</g>
</svg>
