<svg xmlns="http://www.w3.org/2000/svg" viewBox="0 0 36 36">
	<path class="ti-background" fill="#ff6d70" d="M30.76,17.79A13.14,13.14,0,1,1,17.62,4.65,13.14,13.14,0,0,1,30.76,17.79"/>
	<path class="ti-foreground" fill="#fff" d="M21.31,23.54a1.7,1.7,0,0,0-.19-.35c-.08-.11-.14-.16-.19-.13a6.9,6.9,0,0,1-.91.35,3.32,3.32,0,0,1-.85.14.92.92,0,0,1-.62-.18,1.11,1.11,0,0,1-.31-.67,8.25,8.25,0,0,1-.1-1.42V15H20.5c.08,0,.16-.08.23-.23a1.42,1.42,0,0,0,.1-.57.46.46,0,0,0-.07-.26.26.26,0,0,0-.19-.12H18.14V10.73c0-.13-.08-.22-.23-.28s-.43.22-.43.22a6.45,6.45,0,0,1-4,3.58.38.38,0,0,0-.28.47.42.42,0,0,1,0,.1c.05.11.11.16.19.17h1.17v7.26a2.38,2.38,0,0,0,.94,2.17,4.56,4.56,0,0,0,2.52.61,4.1,4.1,0,0,0,1.15-.19,6.85,6.85,0,0,0,1.22-.47,3.18,3.18,0,0,0,.86-.59s0-.11,0-.24Z"/>
</svg>
