<svg xmlns="http://www.w3.org/2000/svg" viewBox="0 0 16 16">
	<path d="M9.694 14.652a1.076 1.076 0 0 1-.715.421 1.086 1.086 0 1 1-.148-2.158c.235 0 .462.075.652.22.23.173.38.427.42.714a1.07 1.07 0 0 1-.209.803M2.15 2.627A1.084 1.084 0 1 1 .418 1.322 1.084 1.084 0 0 1 2.15 2.627m11.383 2.491a2.46 2.46 0 0 0-1.482.494L8.94 1.798a.59.59 0 1 0-.156.125l3.111 3.816a2.486 2.486 0 0 0-.557.718l-8.84-4.062c.065-.19.086-.394.057-.599A1.274 1.274 0 0 0 2.058.95a1.278 1.278 0 0 0-.952-.247 1.286 1.286 0 0 0 .356 2.544 1.279 1.279 0 0 0 .956-.668l8.838 4.06c-.11.264-.176.55-.187.85H3.563a.788.788 0 0 0-.31-.533.799.799 0 0 0-1.113.155.786.786 0 0 0 .156 1.105.799.799 0 0 0 1.267-.527h7.506c.014.323.088.63.215.91l-1.903.941a.592.592 0 1 0 .089.179l1.904-.94c.162.292.382.548.645.753l-2.473 3.404a1.28 1.28 0 0 0-1.742.291 1.288 1.288 0 0 0 .253 1.8 1.28 1.28 0 0 0 .952.246c.34-.048.64-.225.847-.499.207-.274.294-.612.246-.952a1.276 1.276 0 0 0-.399-.763l2.479-3.41a2.468 2.468 0 1 0 1.352-4.53"/>
</svg>
