<svg xmlns="http://www.w3.org/2000/svg" viewBox="0 0 74 74">
  <g>
    <path class="ti-background"  fill="#FF6D70" d="M36.8,0 C16.5,0 0,16.5 0,36.8 C0,57.1 16.5,73.6 36.8,73.6 C57.1,73.6 73.6,57.1 73.6,36.8 C73.6,16.5 57.1,0 36.8,0"/>
    <path class="ti-foreground"  fill="#F8F3EF" d="M37,32.9 C38.4,32.9 39.4,33.2 40.1,33.7 C40.8,34.2 41.2,35 41.4,36 C41.5,36.3 41.5,36.8 41.5,37.5 L35.1,37.5 C35.1,38.4 35.2,39.1 35.5,39.7 C35.8,40.3 36.1,40.7 36.6,40.9 C37.1,41.1 37.5,41.3 38,41.3 C38.6,41.3 39,41.2 39.4,41.1 C39.8,41 40.1,40.7 40.4,40.4 C40.4,40.4 40.4,40.4 40.4296296,40.3703704 L40.55,40.25 C40.575,40.225 40.6,40.2 40.6,40.2 L40.7,40.2 L40.7,40.2 L41.1,40.4 C41.2,40.4 41.2,40.5 41.2,40.5 C41.2,40.5 41.2,40.6 41.1,40.7 C40.8,41.3 40.3,41.7 39.6,42.1 C39,42.4 38.2,42.6 37.2,42.6 C35.3,42.5 34,42.1 33.1,41.2 C32.2,40.4 31.8,39.1 31.8,37.6 C31.8,36.6 32,35.8 32.5,35 C33,34.2 33.6,33.7 34.4,33.4 C35.2,33 36,32.9 37,32.9 Z M64.5,28.1 C64.6,28.2 64.6,28.3 64.6,28.4 L64.6,40.7 C64.6,40.9 64.7,41.1 64.8,41.3 C64.9,41.4 65,41.5 65.2,41.5 C65.3,41.5 65.5,41.6 65.7,41.6 C65.8,41.6 65.9,41.6 66,41.7 C66.1,41.8 66.1,41.8 66.1,42 C66.1,42.1 66.1,42.2 66,42.2 C65.9,42.3 65.9,42.3 65.8,42.3 L62.6,42.3 C62.4,42.3 62.2,42.3 62.1,42.2 C62,42.1 61.9,42 61.9,41.9 L61.9,41.3 L61.9,41.3 C61.6,41.7 61.2,42 60.6,42.2 C60,42.4 59.5,42.5 58.9,42.5 C57.8,42.5 57,42.3 56.4,41.8 C55.8,41.4 55.3,40.8 55.1,40.1 C54.8,39.4 54.7,38.6 54.7,37.7 C54.7,36.8 54.9,36.1 55.2,35.3 C55.6,34.6 56.1,34 56.8,33.5 C57.5,33.1 58.4,32.8 59.4,32.8 C59.9,32.8 60.4,32.8 60.7,32.9 C61.1,33 61.4,33.1 61.8,33.4 L61.7,29.9 C61.7,29.5 61.5,29.2 61.2,29.1 C60.9,29 60.4,28.8 59.8,28.8 C59.7,28.8 59.7,28.7 59.6,28.7 C59.6,28.6 59.5,28.6 59.5,28.5 C59.5,28.4 59.5,28.3 59.6,28.2 C59.7,28.1 59.7,28.1 59.8,28.1 C60.6,28.02 61.528,28.004 62.6352,28.0008 L64.3,28 C64.4,28 64.4,28 64.5,28.1 Z M49.9,32.9 C50.8,32.9 51.5,33.1 52.1,33.5 C52.6,33.9 52.9,34.6 52.9,35.7 L52.9,40.7 C52.9,41 53,41.3 53.2,41.4 C53.4,41.5 53.6,41.6 53.7,41.6 L54.1,41.6 C54.2,41.6 54.3,41.6 54.3,41.7 C54.3,41.7 54.4,41.8 54.4,42 C54.4,42.1 54.4,42.2 54.3,42.3 C54.2,42.4 54.2,42.4 54.1,42.4 L49.1,42.4 C49,42.4 48.9,42.4 48.9,42.3 C48.9,42.2 48.8,42.1 48.8,42 C48.8,41.9 48.8,41.8 48.9,41.8 C48.9,41.7 49,41.7 49.1,41.7 C49.3,41.7 49.5,41.6 49.7,41.5 C49.9,41.4 50,41.3 50,41.1 L50,35.9 C50,35.7 50,35.4 49.9,35.3 C49.8,35.2 49.8,34.9 49.6,34.8 C49.4,34.7 49.2,34.6 48.9,34.6 C48.6,34.6 48.3,34.7 47.9,34.8 C47.6,34.9 47.3,35.1 47,35.2 C46.7,35.4 46.5,35.6 46.4,35.7 L46.4,40.9 C46.4,41.1 46.4,41.3 46.5,41.5 C46.6,41.7 46.7,41.7 46.8,41.7 C46.9,41.7 47.1,41.8 47.3,41.8 C47.4,41.8 47.5,41.8 47.6,41.9 C47.7,42 47.7,42 47.7,42.2 C47.7,42.3 47.7,42.4 47.6,42.4 C47.5,42.5 47.5,42.5 47.4,42.5 L42.6,42.5 C42.3,42.2 42.2,42.2 42.2,42.1 C42.1,42 42.1,41.9 42.1,41.8 C42.1,41.7 42.1,41.6 42.2,41.6 C42.2,41.5 42.3,41.5 42.4,41.5 C43.1,41.4 43.4,41.2 43.4,40.9 L43.4,35 C43.4,34.7 43.3,34.5 43.2,34.4 C43.1,34.3 43,34.2 42.8,34.1 C42.7,34.1 42.5,34 42.3,34 C42.1,34 42,34 42,33.9 C41.9,33.9 41.9,33.8 41.8,33.8 C41.8,33.7 41.7,33.7 41.7,33.6 C41.7,33.5 41.7,33.4 41.8,33.3 C41.8,33.2 41.9,33.2 42,33.2 C43.2,33.1142857 44.3265306,33.1020408 45.3795918,33.1002915 L45.9,33.1 C46,33.1 46,33.1 46.1,33.2 C46.2,33.3 46.2,33.4 46.2,33.5 L46.2,34.5 C46.3,34.3 46.6,34.1 47,33.9 C47.4,33.7 47.8,33.4 48.4,33.2 C48.9,33 49.4,32.9 49.9,32.9 Z M29.6496,27.9008 C29.704,27.904 29.72,27.92 29.8,28 C29.9,28.1 29.9,28.2 29.9,28.3 L29.9,28.3 L29.9,40.7 C29.9,40.9 30,41.1 30.1,41.2 C30.2,41.3 30.4,41.4 30.5,41.4 C30.7,41.4 30.9,41.5 31.1,41.5 C31.3,41.5 31.4,41.6 31.4,41.6 C31.5,41.6 31.5,41.7 31.3,41.7 C31.3,41.8 31.3,41.9 31.2,42 C31.2,42.1 31.1,42.1 31,42.1 L31,42.1 L23.9,42.1 C23.6,42.1 21.6,42.3 21.3,42.1 C21,42 21,41.7 21,41.7 L21,41.2 L20.8496094,41.3453125 C20.496875,41.6734375 20.125,41.925 19.6,42.1 C19.1,42.3 18.5,42.4 17.8,42.4 C17.3,42.4 16.9,42.3 16.5,42.1 C16,41.9 15.7,41.7 15.4,41.3 C15.1,40.9 15,40.5 15,39.9 C15,39.2 15.3,38.6 15.9,38.1 C16.5,37.6 17.2,37.3 18,37.1 C18.8,36.9 19.7,36.7 20.8,36.6 L20.8,36.6 L20.8,35.1 C20.8,34.6 20.7,34.2 20.5,34 C20.3,33.8 20,33.7 19.5,33.7 C19,33.7 18.7,33.7 18.5,33.8 L18.5,33.8 L18.4,33.8 C17.4,34.2 17,34.9 17.1,35.7 L17.1,35.7 L17.1,35.8 C17.2,36.2 16.9,36.2 16.6,36.2 C16.3,36.2 16.1,36.1 15.9,35.9 C15.6,35.7 15.5,35.4 15.5,35 C15.5,34.5 15.8,34.1 16.2,33.8 C16.6,33.5 17.2,33.3 17.9,33.1 C18.6,33 19.3,32.9 19.9,32.9 C20.9,32.9 21.6,33 22.2,33.2 C22.8,33.4 23.2,33.7 23.5,34.1 C23.8,34.5 23.9,34.9 23.9,35.4 L23.9,35.4 L23.9,40.4 C23.9,40.6 23.9,40.8 24,41 C24.1,41.1 24.7,41.4 25.4,41.4 C26.1,41.4 27,41.1 27,40.9 L27,40.9 L27,29.9 C27,29.6 26.9,29.3 26.8,29.2 C26.7,29 26.6,28.9 26.4,28.9 C26.3,28.9 26.1,28.8 25.8,28.8 C25.6,28.7 25.5,28.7 25.5,28.7 C25.4,28.7 25.4,28.6 25.3,28.6 C25.2,28.6 25.2,28.5 25.2,28.4 C25.2,28.3 25.3,28.2 25.3,28.1 C25.4,28.1 25.4,28 25.5,28 C26.8,27.9 28.2,27.9 29.6,27.9 Z M11.5336077,30.1805213 L11.6,30.2 C11.7,30.2 11.8,30.3 11.8,30.4 L11.8,30.4 L11.8,33 L13.8,33 C13.9,33 13.7,33.1 13.8,33.1 C13.9,33.1 13.9,33.2 13.9,33.3 C13.9,33.5 13.9,33.7 13.8,33.8 C13.7,33.9 13.7,34 13.6,34 L13.6,34 L11.6,34 L11.6002915,39.4081633 C11.6020408,39.8122449 11.6142857,40.1428571 11.7,40.4 C11.8,40.7 11.9,40.9 12,41 C12.1,41.1 12.3,41.2 12.5,41.2 C12.7,41.2 12.9,41.2 13.2,41.1 C13.5,41 13.8,40.9 14,40.8 C14.1,40.8 14.1,40.8 14.2,40.9 C14.3,41 14.4,41.1 14.4,41.2 C14.4428571,41.2428571 14.4673469,41.2857143 14.4813411,41.312828 L14.4855918,41.321 L14.445481,41.3801749 C14.3361516,41.5055394 14.1393586,41.5944606 13.9279883,41.7198251 L13.8,41.8 C13.5,42 13.2,42.1 12.8,42.2 C12.4,42.3 12.1,42.4 11.8,42.4 C10.9,42.4 10.2,42.2 9.7,41.9 C9.2,41.6 8.9,41 8.9,40.1 L8.9,40.1 L8.9,34 L7.9,34 C7.8,34 7.7,34 7.7,33.9 L7.7,33.9 L7.7,33.8 C7.6,33.5 7.9,33.4 7.9,33.4 C9.4,32.9 10.6,31.8 11.2,30.4 C11.2,30.4 11.4,30.1 11.6,30.2 Z M60.2,33.8 C59.3,33.8 58.7,34.1 58.3,34.8 C57.9,35.5 57.7,36.4 57.7,37.6 C57.7,39.9 58.5,41.1 60,41.1 C60.4,41.1 60.7,41.1 61,40.9 C61.3,40.7 61.5,40.5 61.7,40.3 L61.7,34.8 C61.7,34.7 61.5,34.5 61.4,34.3 C61.3,34.1 61,34.1 60.8,34 C60.6,33.9 60.4,33.8 60.2,33.8 Z M21,37.4 C20.4,37.4 20,37.6 19.6,37.7 C19.2,37.8 18.9,38.1 18.6,38.4 C18.3,38.7 18.2,39.2 18.2,39.8 C18.2,40.2 18.3,40.4 18.5,40.7 C18.7,41 19,41.1 19.4,41.1 C20,41.1 20.5,40.9 20.9,40.4 L20.9,40.4 L21,40.4 Z M37,33.7 C36.5,33.7 36.1,33.9 35.7,34.4 C35.3,34.9 35.1,35.7 35,36.7 L38.3,36.7 C38.3,35.6 38.2,34.8 38,34.4 C37.8,33.9 37.4,33.7 37,33.7 Z"/>
  </g>
</svg>
