<svg width="131" height="33" viewBox="0 0 131 33" fill="none" xmlns="http://www.w3.org/2000/svg">
<g clip-path="url(#clip0_5382_33961)">
<path d="M109.153 30.9345C107.784 29.956 106.786 28.6641 106.163 27.0629C105.54 25.4616 105.227 23.6708 105.227 21.6983C105.227 19.7257 105.622 18.0277 106.407 16.3955C107.196 14.7672 108.375 13.456 109.95 12.462C111.524 11.468 113.442 10.9729 115.705 10.9729C116.869 10.9729 117.855 11.0657 118.664 11.2514C119.472 11.437 120.315 11.7967 121.193 12.3305L121.008 4.5021C121.008 3.59704 120.656 2.96659 119.952 2.61075C119.244 2.25492 118.223 2.02672 116.881 1.93389C116.718 1.86427 116.594 1.76758 116.509 1.64768C116.428 1.52391 116.386 1.34599 116.386 1.11392C116.386 0.920532 116.432 0.727143 116.529 0.529886C116.625 0.332629 116.741 0.224331 116.877 0.212728C119.016 0.0696201 121.77 0 125.138 0H126.844C126.995 0 127.134 0.0657523 127.266 0.197257C127.397 0.328761 127.459 0.537622 127.459 0.823838V28.2155C127.459 28.7647 127.571 29.1785 127.799 29.457C128.028 29.7394 128.295 29.9212 128.6 30.0024C128.91 30.0836 129.296 30.1532 129.76 30.2074C130.062 30.2344 130.259 30.2925 130.356 30.3814C130.453 30.4704 130.499 30.6676 130.499 30.9655C130.499 31.1434 130.433 31.329 130.306 31.5186C130.174 31.7119 130.008 31.8048 129.803 31.8048H122.733C122.211 31.8048 121.839 31.7274 121.611 31.5688C121.387 31.4103 121.251 31.1975 121.213 30.9229C121.17 30.6483 121.158 30.2035 121.17 29.5885C120.513 30.4936 119.546 31.1898 118.273 31.6733C117.001 32.1606 115.72 32.4043 114.432 32.4043C112.282 32.4043 110.522 31.9131 109.153 30.9345ZM119.449 28.9194C120.149 28.5829 120.667 28.1149 121.012 27.5115V15.3474C120.903 15.0186 120.663 14.6782 120.292 14.3301C119.921 13.982 119.499 13.6919 119.027 13.4676C118.555 13.2433 118.115 13.1273 117.701 13.1273C115.701 13.1273 114.278 13.8699 113.427 15.3551C112.58 16.8403 112.154 18.956 112.154 21.6944C112.154 26.8463 113.895 29.4183 117.372 29.4183C118.057 29.4183 118.749 29.252 119.449 28.9155V28.9194ZM57.3053 29.5885C55.3753 27.7127 54.4083 25.0129 54.4083 21.4933C54.4083 19.2886 54.9266 17.3895 55.9593 15.8038C56.992 14.2141 58.3805 13.0112 60.121 12.199C61.8615 11.3829 63.7722 10.9768 65.8531 10.9768C68.8932 10.9768 71.1597 11.5685 72.6565 12.7559C74.1495 13.9395 75.0893 15.6761 75.4722 17.9658C75.596 18.7046 75.6579 19.834 75.6579 21.3579L61.3974 21.3772C61.3974 23.3614 61.7068 24.9743 62.3334 26.2042C62.9561 27.438 63.749 28.3199 64.7082 28.8537C65.6674 29.3874 66.6808 29.6543 67.7483 29.6543C69.0092 29.6543 70.0651 29.488 70.9237 29.1592C71.7785 28.8304 72.5289 28.289 73.1748 27.5347C73.1903 27.5231 73.2251 27.4767 73.2869 27.4032C73.3488 27.3297 73.4146 27.2756 73.4803 27.2485C73.5461 27.2214 73.6234 27.2137 73.7085 27.2292L74.6136 27.6624C74.7528 27.7165 74.8186 27.7977 74.8186 27.9099C74.8186 27.9911 74.776 28.1072 74.6948 28.258C73.9561 29.546 72.8731 30.5593 71.4459 31.2981C70.0225 32.0368 68.2666 32.4081 66.1857 32.4081C62.198 32.4081 59.2392 31.4683 57.3091 29.5924L57.3053 29.5885ZM68.0925 14.3108C67.6129 13.251 66.8471 12.7173 65.7912 12.7173C64.6811 12.7173 63.7258 13.2704 62.9252 14.3727C62.1245 15.475 61.6333 17.173 61.4554 19.4588H68.8119C68.8119 17.0879 68.5721 15.3744 68.0925 14.3108ZM77.41 31.5302C77.2862 31.3445 77.2243 31.1588 77.2243 30.9655C77.2243 30.7334 77.2708 30.5555 77.3675 30.4317C77.4641 30.3079 77.6421 30.2344 77.9012 30.2074C79.3516 30.0295 80.0788 29.5924 80.0788 28.8923V15.8231C80.0788 15.1926 79.9627 14.713 79.7307 14.3843C79.4986 14.0555 79.2279 13.8351 78.9184 13.7268C78.609 13.6185 78.2106 13.5295 77.7156 13.4599C77.3172 13.4057 77.0851 13.3632 77.0155 13.3361C76.8492 13.2665 76.7293 13.1698 76.6442 13.0499C76.563 12.9261 76.5204 12.7482 76.5204 12.5161C76.5204 12.3228 76.5668 12.1294 76.6558 11.9321C76.7447 11.7348 76.8646 11.6266 77.0155 11.6149C80.2219 11.4254 83.1188 11.3287 85.7064 11.3287C85.8418 11.3287 85.9733 11.3906 86.097 11.5144C86.2208 11.6382 86.2943 11.8509 86.3214 12.1526V14.4539C86.6347 14.0826 87.2264 13.6223 88.0889 13.0654C88.9515 12.5123 89.9532 12.0249 91.0981 11.6072C92.2429 11.1895 93.3685 10.9806 94.4785 10.9806C96.5052 10.9806 98.1142 11.4138 99.3055 12.2841C100.497 13.1543 101.092 14.7595 101.092 17.1033V28.2193C101.092 28.9852 101.286 29.488 101.669 29.72C102.052 29.9521 102.454 30.0913 102.872 30.13C103.289 30.1726 103.568 30.1996 103.703 30.2112C103.951 30.2383 104.125 30.3041 104.225 30.4046C104.326 30.5052 104.38 30.6947 104.38 30.9693C104.38 31.1627 104.318 31.3484 104.194 31.534C104.071 31.7197 103.9 31.8125 103.68 31.8125H92.6452C92.4247 31.8125 92.2545 31.7197 92.1308 31.534C92.007 31.3484 91.9451 31.1627 91.9451 30.9693C91.9451 30.7218 91.9877 30.54 92.0689 30.424C92.1501 30.3079 92.3242 30.2344 92.5833 30.2074C93.09 30.1532 93.5464 30.0101 93.9486 29.7742C94.3509 29.5421 94.5559 29.2482 94.5559 28.8923V17.2C94.5559 16.6663 94.5133 16.1867 94.4321 15.7612C94.3509 15.3358 94.1265 14.9528 93.763 14.6125C93.3994 14.2682 92.8502 14.0981 92.1076 14.0981C91.4075 14.0981 90.692 14.2334 89.9609 14.5003C89.2299 14.7672 88.5569 15.0998 87.9497 15.4982C87.3386 15.8966 86.8629 16.2872 86.5225 16.6701V28.2193C86.5225 28.7686 86.6231 29.1824 86.8203 29.4609C87.0176 29.7432 87.2612 29.925 87.5513 30.0179C87.8375 30.1068 88.2088 30.1726 88.6614 30.2112C88.9631 30.2383 89.1603 30.2963 89.257 30.3853C89.3537 30.4743 89.4001 30.6715 89.4001 30.9693C89.4001 31.1472 89.3344 31.3329 89.2067 31.5224C89.0752 31.7158 88.9089 31.8086 88.7039 31.8086H77.9167C77.6962 31.8086 77.526 31.7158 77.4023 31.5302H77.41ZM53.5419 30.3814C53.4452 30.2925 53.248 30.2344 52.9463 30.2074C52.4396 30.1532 52.0219 30.0875 51.6931 30.014C51.3644 29.9405 51.0743 29.7742 50.819 29.5189C50.5637 29.2675 50.44 28.9001 50.44 28.4205V0.823838C50.44 0.537622 50.3742 0.328761 50.2466 0.197257C50.1151 0.0657523 49.9758 0 49.825 0C46.6882 0 43.6404 0.0966945 40.6815 0.286216C40.5423 0.301687 40.4263 0.406117 40.3334 0.603374C40.2368 0.800631 40.1903 0.997888 40.1903 1.18741C40.1903 1.41948 40.2329 1.59739 40.3141 1.72116C40.3953 1.84493 40.5191 1.94163 40.6854 2.00738C40.7396 2.02285 40.9987 2.06153 41.4667 2.13115C42.0275 2.20077 42.4878 2.28973 42.8436 2.39802C43.1995 2.50632 43.5089 2.72679 43.768 3.05555C44.0272 3.38431 44.1587 3.87165 44.1587 4.5137L44.1393 29.0896C44.1393 29.4338 42.0778 30.2731 40.5926 30.2731C39.1074 30.2731 37.158 29.4416 37.0072 29.078C36.8563 28.7144 36.7828 28.2657 36.7828 27.732V16.6779C36.7828 15.5562 36.4657 14.5661 35.8391 13.7074C35.2086 12.8526 34.2301 12.1796 32.8996 11.6923C31.5691 11.205 29.8943 10.9613 27.8676 10.9613C26.4442 10.9613 24.9745 11.1353 23.4583 11.4834C21.9421 11.8315 20.6619 12.373 19.6176 13.1079C18.5694 13.8428 18.0473 14.7556 18.0473 15.8502C18.0473 16.7011 18.3606 17.3934 18.9833 17.9349C19.4049 18.2985 19.9116 18.5305 20.4879 18.6504C21.099 18.7355 21.7333 18.5963 21.6559 17.7957C21.6521 17.7376 21.6559 17.7106 21.6559 17.668C21.5167 15.9971 22.3483 14.245 24.4446 13.3361C24.5413 13.2936 24.6225 13.2665 24.7115 13.2355C25.0712 13.0576 25.8679 12.9145 26.9857 12.9145C27.9991 12.9145 28.7649 13.1427 29.2755 13.603C29.7899 14.0633 30.0451 14.9026 30.0451 16.1209V19.513C27.7013 19.7605 25.6049 20.1125 23.7484 20.5727C21.8919 21.033 20.3177 21.7679 19.022 22.7812C17.7263 23.7946 17.0803 25.1445 17.0803 26.8308C17.0803 28.0646 17.3975 29.0896 18.0357 29.9134C18.6739 30.7373 19.4629 31.3368 20.4105 31.7235C21.3542 32.1065 22.2864 32.2998 23.2069 32.2998C24.6728 32.2998 26.0265 32.0639 27.2642 31.592C28.5019 31.1202 29.5617 30.424 30.4397 29.5073V29.5692C30.4397 30.0333 30.5325 30.7605 30.5325 30.7605C30.5325 30.7605 30.6098 31.3561 31.3138 31.7197C32.0138 32.0871 36.369 31.8048 37.1619 31.8048H53.0043C53.2248 31.8048 53.3949 31.7119 53.5187 31.5263C53.6425 31.3406 53.7044 31.155 53.7044 30.9616C53.7044 30.6599 53.658 30.4665 53.5613 30.3776L53.5419 30.3814ZM30.0335 27.7823C29.1826 28.8227 28.0803 29.3449 26.7266 29.3449C25.8757 29.3449 25.2182 29.078 24.7424 28.5442C24.2705 28.0105 24.0346 27.3723 24.0346 26.6335C24.0346 25.3069 24.3208 24.2626 24.8971 23.5122C25.4734 22.758 26.1812 22.2243 27.0244 21.911C27.8676 21.5977 28.8693 21.3502 30.0335 21.1722V27.79V27.7823ZM15.6609 29.6388C15.5796 29.399 15.4636 29.1785 15.3128 28.9697C15.1619 28.7647 15.0459 28.6835 14.9647 28.7221C14.4425 28.9813 13.874 29.2018 13.259 29.3797C12.644 29.5576 12.1064 29.6465 11.6577 29.6465C11.151 29.6465 10.7643 29.5344 10.4974 29.3062C10.2305 29.078 10.0371 28.6603 9.92108 28.053C9.80505 27.4419 9.74703 26.5562 9.74703 25.392V13.5759H14.164C14.3149 13.5759 14.4541 13.4328 14.5856 13.1427C14.7171 12.8565 14.779 12.5007 14.779 12.0752C14.779 11.8973 14.7326 11.7387 14.6436 11.6033C14.5547 11.468 14.4348 11.3906 14.2839 11.379H9.74316V5.64696C9.74316 5.40716 9.58458 5.24084 9.3061 5.12481C8.79169 4.96236 8.49 5.52319 8.49 5.52319C7.80272 7.11087 6.78168 8.53197 5.49627 9.68991C4.21087 10.8478 2.69123 11.7155 1.04065 12.2338C1.04065 12.2338 0.352188 12.3962 0.530106 13.1156C0.549445 13.1775 0.568784 13.2394 0.595858 13.3013C0.692553 13.4986 0.808586 13.6069 0.943958 13.6185H3.14086V27.2214C3.14086 29.1515 3.72876 30.5013 4.89683 31.271C6.06877 32.0368 7.63909 32.4236 9.61166 32.4236C10.2266 32.4236 10.9422 32.3076 11.7583 32.0755C12.5521 31.8518 13.3228 31.5527 14.0596 31.1821C14.779 30.8185 15.3089 30.451 15.6531 30.0836C15.7344 30.0295 15.7344 29.8825 15.6531 29.6427L15.6609 29.6388Z" fill="#54565A"/>
</g>
<defs>
<clipPath id="clip0_5382_33961">
<rect width="129.998" height="32.4236" fill="white" transform="translate(0.500732)"/>
</clipPath>
</defs>
</svg>
