<svg xmlns="http://www.w3.org/2000/svg"  viewBox="0 0 60 16">
  <g>
    <path d="M30.16,5.59 C31.2658025,5.50421025 32.3683033,5.79304433 33.29,6.41 C34.011932,7.01200415 34.4769009,7.86683151 34.59,8.8 C34.6892612,9.33467747 34.7461049,9.87636436 34.76,10.42 L34.76,10.42 L28.2,10.42 C28.1682894,11.1834043 28.3155435,11.9436461 28.63,12.64 C28.8606162,13.1481783 29.2409053,13.573823 29.72,13.86 C30.1459693,14.1043993 30.6289025,14.2320317 31.12,14.23 C31.6165813,14.2424096 32.1112844,14.1644769 32.58,14 C32.9710313,13.8379514 33.3149446,13.5800165 33.58,13.25 L33.58,13.25 L33.58,13.19 C33.6048815,13.1607409 33.6355165,13.1369136 33.67,13.12 L33.67,13.12 L33.78,13.12 L34.19,13.32 C34.29,13.35 34.29,13.38 34.29,13.44 C34.2817585,13.4970326 34.2612915,13.5516112 34.23,13.6 C33.8777681,14.2033936 33.3562234,14.6901687 32.73,15 C31.971938,15.3453196 31.1418932,15.5030968 30.31,15.46 C28.8288727,15.5803752 27.3598173,15.1134383 26.22,14.16 C25.282214,13.1526972 24.8010934,11.8033889 24.89,10.43 C24.8667721,9.50619564 25.1135159,8.59567628 25.6,7.81 C26.0724752,7.08827044 26.7375764,6.51323499 27.52,6.15 C28.3484115,5.77237454 29.2496214,5.5812088 30.16,5.59 Z M3.99677734,2.89337891 L4.05,2.9 C4.18,2.95 4.26,3.03 4.26,3.14 L4.26,3.14 L4.26,5.78 L6.32,5.78 C6.38728546,5.78262601 6.4481549,5.82066942 6.48,5.88 C6.52092235,5.94595834 6.54176963,6.02239839 6.54,6.1 C6.54490898,6.26785394 6.51423691,6.43484632 6.45,6.59 C6.39,6.72 6.33,6.79 6.26,6.79 L6.26,6.79 L4.26,6.79 L4.26,12.2 C4.24734007,12.6116137 4.27412903,13.023494 4.34,13.43 C4.36337573,13.6429444 4.45451684,13.8427537 4.6,14 C4.74889419,14.1303761 4.94227148,14.1984162 5.14,14.19 C5.38762753,14.1830624 5.63318227,14.1426972 5.87,14.07 C6.14133965,13.9883633 6.40555264,13.8846848 6.66,13.76 C6.7,13.74 6.75,13.78 6.82,13.88 C6.88180722,13.9722107 6.92902855,14.0733993 6.96,14.18 L6.96,14.18 L6.96,14.39 C6.74846777,14.5989108 6.50123181,14.7682505 6.23,14.89 C5.89041089,15.0624691 5.53555791,15.2030712 5.17,15.31 C4.84479162,15.405485 4.50876584,15.4592491 4.17,15.47 C3.41068374,15.5063735 2.65705761,15.3223081 2,14.94 C1.41846639,14.5029477 1.10752031,13.7938389 1.18,13.07 L1.18,13.07 L1.18,6.81 L0.18,6.81 C0.11,6.8 0.06,6.75 0.01,6.66 L0.01,6.66 L0.01,6.58 C-0.0142392818,6.49374341 -0.00229354499,6.40133848 0.0428995948,6.3240144 C0.088162472,6.24669032 0.16292097,6.19109465 0.25,6.17 C1.78712617,5.68577735 3.03852472,4.55842413 3.68,3.08 C3.68,3.08 3.92,2.85 4.05,2.9 L3.99677734,2.89337891 Z M58.32,0.53 C58.3926194,0.534181608 58.4607612,0.566459329 58.51,0.62 C58.5769504,0.701079976 58.6092826,0.805261487 58.6,0.91 L58.6,0.91 L58.6,13.53 C58.5861374,13.7313085 58.6388434,13.9315913 58.75,14.1 C58.8446479,14.2194449 58.9738661,14.3067544 59.12,14.35 C59.2977532,14.3944943 59.4781012,14.4278921 59.66,14.45 C59.8,14.46 59.93,14.48 59.93,14.53 C60,14.57 60,14.66 59.98,14.75 C59.9778801,14.8439374 59.9464086,14.9348549 59.89,15.01 C59.8412182,15.090445 59.7540796,15.1396973 59.66,15.14 L59.66,15.14 L56.4,15.14 C56.2226337,15.1583949 56.0440152,15.1198694 55.89,15.03 C55.7869007,14.9661838 55.7173359,14.8600059 55.7,14.74 C55.6869654,14.5335389 55.6869654,14.3264611 55.7,14.12 C55.3700996,14.5822207 54.9056523,14.9314293 54.37,15.12 C53.8065591,15.3433865 53.2061069,15.4587276 52.6,15.46 C51.7384954,15.4958002 50.8877966,15.2577446 50.17,14.78 C49.5436989,14.3366061 49.0633522,13.7170285 48.79,13 C48.4927569,12.2109945 48.3468776,11.3730367 48.36,10.53 C48.3521654,9.68619096 48.5368467,8.85170516 48.9,8.09 C49.261484,7.33905858 49.8306218,6.70745434 50.54,6.27 C51.3408557,5.79632993 52.2600209,5.56046868 53.19,5.59 C53.6462627,5.58287783 54.102034,5.62309294 54.55,5.71 C54.9594634,5.81781123 55.3504681,5.98634777 55.71,6.21 L55.71,6.21 L55.63,2.61 C55.6600483,2.24706136 55.4659483,1.90243483 55.14,1.74 C54.694351,1.54547482 54.2159602,1.43690386 53.73,1.42 C53.6588318,1.39992509 53.5980203,1.35342219 53.56,1.29 C53.5155566,1.2144986 53.4946645,1.12744835 53.5,1.04 C53.5028533,0.947028974 53.5232088,0.855429285 53.56,0.77 C53.61,0.63 53.66,0.63 53.73,0.63 C54.5318182,0.548181818 55.5277686,0.533305785 56.7123742,0.530601052 L58.32,0.53 Z M22.77,0.53 C22.8431792,0.531914566 22.9121607,0.564590032 22.96,0.62 C23.0269504,0.701079976 23.0592826,0.805261487 23.05,0.91 L23.05,0.91 L23.05,13.62 C23.0381,13.8074113 23.1030997,13.9915771 23.23,14.13 C23.3410813,14.2401234 23.4789455,14.3193952 23.63,14.36 C23.8216382,14.3977731 24.0152918,14.424484 24.21,14.44 L24.21,14.44 C24.2854835,14.4209516 24.3645165,14.4209516 24.44,14.44 C24.4949732,14.5186859 24.5198181,14.6145163 24.51,14.71 C24.5060136,14.8035921 24.4747281,14.8939723 24.42,14.97 C24.3669449,15.0497348 24.2756209,15.0953968 24.18,15.09 L24.18,15.09 L16.98,15.09 C16.0419377,15.1753555 15.0980623,15.1753555 14.16,15.09 C13.9797451,15.0051807 13.8474457,14.8434814 13.8,14.65 L13.8,14.65 L13.8,14.1 L13.6212145,14.2847674 C13.2517598,14.6413381 12.8124814,14.9191188 12.33,15.1 C11.7358348,15.3244138 11.1051015,15.4363181 10.47,15.43 C10.0262774,15.4271113 9.58763596,15.3353026 9.18,15.16 C8.74567096,14.9916493 8.36780009,14.7039128 8.09,14.33 C7.78375809,13.9216775 7.62829054,13.4199413 7.65,12.91 C7.62670785,12.1821943 7.95864412,11.4884848 8.54,11.05 C9.18656763,10.5642269 9.93004261,10.2231834 10.72,10.05 C11.6750302,9.82401198 12.6437385,9.66033368 13.62,9.56 L13.62,9.56 L13.62,8 C13.6547869,7.59180455 13.5211038,7.18714227 13.25,6.88 C12.9634926,6.66228671 12.6094164,6.55252308 12.25,6.57 C11.8933552,6.54585233 11.5356177,6.59695768 11.2,6.72 L11.2,6.72 L11.08,6.72 C10.2569719,7.03044618 9.73339631,7.84219135 9.79,8.72 L9.79,8.72 L9.79,8.77 C9.83,9.17 9.54,9.17 9.25,9.17 C8.99577105,9.12019001 8.75835271,9.00664211 8.56,8.84 C8.26635854,8.59359646 8.10684183,8.22262738 8.13,7.84 C8.13348606,7.32308141 8.4064246,6.84543896 8.85,6.58 C9.38700709,6.21984523 9.98771826,5.9653066 10.62,5.83 C11.2757738,5.67647655 11.9465218,5.59598679 12.62,5.59 C13.4064812,5.56711318 14.1910945,5.67871766 14.94,5.92 C15.4729543,6.09353795 15.9449506,6.41630011 16.3,6.85 C16.589783,7.24710962 16.7408829,7.7285208 16.73,8.22 L16.73,8.22 L16.73,13.31 C16.7273578,13.520885 16.7611892,13.7306397 16.83,13.93 C17.3121803,14.2174493 17.8696303,14.3533278 18.43,14.32 C19.16,14.32 20.16,14.09 20.16,13.93 L20.16,13.93 L20.16,2.62 C20.1775652,2.37959755 20.1142028,2.14022857 19.98,1.94 C19.8700421,1.79909117 19.7202055,1.69455395 19.55,1.64 C19.3438346,1.58198727 19.1330557,1.54183891 18.92,1.52 L18.92,1.52 L18.56,1.46 C18.4908172,1.43609542 18.431196,1.39050268 18.39,1.33 C18.3455566,1.2544986 18.3246645,1.16744835 18.33,1.08 C18.3292857,0.985422836 18.3534243,0.892316812 18.4,0.81 C18.44,0.72 18.49,0.67 18.56,0.67 C19.92,0.58 21.32,0.53 22.77,0.53 Z M43.37,5.59 C44.1582352,5.54767026 44.9394259,5.7578561 45.6,6.19 C46.2166256,6.75360344 46.5221981,7.58088511 46.42,8.41 L46.42,8.41 L46.42,13.57 C46.3837485,13.8292423 46.4816831,14.0891458 46.68,14.26 C46.8500432,14.3645552 47.0414403,14.4294935 47.24,14.45 L47.24,14.45 L47.62,14.45 C47.7364451,14.4248675 47.8579911,14.4543332 47.95,14.53 C48.0051592,14.6047994 48.0301487,14.6976177 48.02,14.79 C48.0215558,14.8860612 47.9936356,14.9802918 47.94,15.06 C47.8844292,15.136831 47.7948073,15.181642 47.7,15.180085 L47.7,15.180085 L42.62,15.180085 C42.5251927,15.181642 42.4355708,15.136831 42.38,15.06 C42.3307705,14.9782835 42.3032332,14.8853451 42.3,14.79 C42.2808095,14.7077715 42.2808095,14.6222285 42.3,14.54 C42.3651952,14.4798387 42.4513222,14.4475411 42.54,14.45 C42.7609023,14.4244433 42.9748058,14.3565375 43.17,14.25 C43.3337922,14.1778023 43.4423553,14.018835 43.45,13.84 L43.45,13.84 L43.45,8.45 C43.451733,8.22856302 43.4316358,8.00749436 43.39,7.79 C43.3475371,7.58643891 43.2426726,7.40117825 43.09,7.26 C42.8724741,7.087141 42.5966966,7.00476591 42.32,7.03 C41.9788568,7.03270456 41.640674,7.09357745 41.32,7.21 C40.9972659,7.32883946 40.688712,7.4831164 40.4,7.67 C40.1567536,7.81955186 39.934758,8.00118458 39.74,8.21 L39.74,8.21 L39.7403304,13.6294899 C39.7502631,13.7880748 39.7978954,13.9426246 39.88,14.08 C39.9574929,14.199255 40.0742197,14.2876844 40.21,14.33 C40.3754282,14.3834581 40.5466334,14.4170278 40.72,14.43 C40.8181851,14.4253028 40.9155766,14.4496507 41,14.5 C41.0478485,14.5814695 41.0688404,14.6759329 41.06,14.77 C41.0614661,14.8629412 41.0334606,14.9539593 40.98,15.03 C40.9294055,15.1135566 40.8376259,15.1632706 40.74,15.16 L40.74,15.16 L35.74,15.16 C35.6478802,15.1618645 35.5611693,15.116624 35.51,15.04 C35.4533946,14.961168 35.4220149,14.8670289 35.42,14.77 C35.4190493,14.6848329 35.4434126,14.6013018 35.49,14.53 C35.5545719,14.461523 35.6460155,14.4249455 35.74,14.43 C36.4,14.34 36.74,14.14 36.74,13.82 L36.74,13.82 L36.74,7.82 C36.7569291,7.58868701 36.7009762,7.3578814 36.58,7.16 C36.4888841,7.02174355 36.3556279,6.91654131 36.2,6.86 C36.0232901,6.79231463 35.8383136,6.74859289 35.65,6.73 L35.65,6.73 L35.33,6.68 C35.1773724,6.61855973 35.0836509,6.46371564 35.1,6.3 C35.1007057,6.20677242 35.1211547,6.1147521 35.16,6.03 C35.1863762,5.95360425 35.2509146,5.89665859 35.33,5.88 C36.8,5.75 38.14,5.75 39.33,5.75 C39.3974961,5.75484886 39.4611715,5.78314903 39.51,5.83 C39.5772435,5.91597693 39.6157276,6.02093364 39.62,6.13 L39.62,6.13 L39.62,7.19 C39.8569811,6.93791074 40.1299325,6.72224543 40.43,6.55 C40.865765,6.27348585 41.3322378,6.04863924 41.82,5.88 C42.3143097,5.68839121 42.8398529,5.59006378 43.37,5.59 Z M54.1,6.61 C53.2946888,6.52102222 52.5120045,6.91236437 52.1,7.61 C51.6542152,8.51596362 51.4509348,9.52202901 51.51,10.53 C51.51,12.9 52.31,14.08 53.91,14.08 C54.2571381,14.086376 54.6005294,14.007396 54.91,13.85 C55.2096939,13.7151501 55.4609436,13.4918171 55.63,13.21 L55.63,13.21 L55.63,7.63 C55.5600193,7.44874218 55.4467202,7.28737688 55.3,7.16 C55.1260966,6.99846702 54.9267584,6.86670111 54.71,6.77 C54.5225804,6.668165 54.3132741,6.61326498 54.1,6.61 Z M13.64,10.28 C13.1665883,10.3472186 12.7009876,10.4611066 12.25,10.62 C11.8526857,10.7658247 11.5055993,11.0226686 11.25,11.36 C10.9648512,11.7842974 10.8245388,12.289422 10.85,12.8 C10.8444345,13.1245661 10.9623935,13.4391234 11.18,13.68 C11.4143594,13.9308683 11.7470736,14.0661477 12.09,14.05 C12.6852444,14.0658426 13.2528023,13.7987565 13.62,13.33 L13.62,13.33 L13.64,10.28 Z M30.13,6.39 C29.5914147,6.40953418 29.0973007,6.69402407 28.81,7.15 C28.3802507,7.85919963 28.1488578,8.67080152 28.14,9.5 L28.14,9.5 L31.52,9.5 C31.5664925,8.69600302 31.4543635,7.89071323 31.19,7.13 C31.0341778,6.67982894 30.6062937,6.38111737 30.13,6.39 Z"/>
  </g>
</svg>
