<svg xmlns="http://www.w3.org/2000/svg" viewBox="0 0 16 16">
  <g>
    <path class="ti-background" fill="#FF6D70" d="M16,8 C16,12.418278 12.418278,16 8,16 C3.581722,16 0,12.418278 0,8 C0,3.581722 3.581722,0 8,0 C12.418278,0 16,3.581722 16,8"/>
    <path class="ti-foreground" fill="#FFF" d="M10.2577778,11.5792593 C10.2285025,11.505951 10.1907124,11.4363377 10.1451852,11.3718519 C10.0977778,11.3066667 10.0622222,11.277037 10.0325926,11.2948148 C9.85795502,11.3765798 9.67775219,11.4458886 9.49333333,11.5022222 C9.32974763,11.5516346 9.16042135,11.5795236 8.98962963,11.5851852 C8.85829638,11.5951785 8.72778555,11.5572883 8.62222222,11.4785185 C8.51748176,11.3710085 8.45266019,11.2309103 8.43851852,11.0814815 C8.39455788,10.8032189 8.374731,10.5216773 8.37925926,10.24 L8.37925926,6.51851852 L9.77777778,6.51851852 C9.82518519,6.51851852 9.87259259,6.47111111 9.91407407,6.38222222 C9.95680392,6.27489106 9.97697584,6.15991111 9.97333333,6.04444444 C9.97518318,5.99009859 9.96073702,5.93644141 9.93185185,5.89037037 C9.90703164,5.85083388 9.86562485,5.82468223 9.81925926,5.81925926 L8.37925926,5.81925926 L8.37925926,3.98814815 C8.37925926,3.91111111 8.33185185,3.85777778 8.24296296,3.82222222 C8.15407407,3.78666667 7.98814815,3.95259259 7.98814815,3.95259259 C7.54380683,4.97057498 6.67861884,5.74491823 5.61777778,6.07407407 C5.55824398,6.08800917 5.50693609,6.12555394 5.47564282,6.17808193 C5.44434955,6.23060993 5.43576148,6.2936048 5.45185185,6.35259259 C5.4542118,6.37227519 5.4542118,6.39216925 5.45185185,6.41185185 C5.48148148,6.47703704 5.51703704,6.50666667 5.56444444,6.51259259 L6.25777778,6.51259259 L6.25777778,10.8148148 C6.20229827,11.3119065 6.4142496,11.8011984 6.81481481,12.1007407 C7.26712869,12.3631936 7.78587918,12.4887642 8.30814815,12.4622222 C8.5395115,12.4573374 8.76899039,12.4194235 8.98962963,12.3496296 C9.23894611,12.2800527 9.48103613,12.1867885 9.71259259,12.0711111 C9.90055279,11.9834087 10.0727446,11.8652771 10.2222222,11.7214815 C10.2222222,11.7214815 10.2222222,11.6562963 10.2222222,11.5792593"/>
  </g>
</svg>
