<svg xmlns="http://www.w3.org/2000/svg" viewBox="0 0 74 74">
	<g>
		<path class="ti-background" fill="#FF6D70" d="M37,0.19 C16.6703984,0.19 0.19,16.6703984 0.19,37 C0.19,57.3296016 16.6703984,73.81 37,73.81 C57.3296016,73.81 73.81,57.3296016 73.81,37 C73.81,27.237381 69.9318147,17.8746135 63.0286006,10.9713994 C56.1253865,4.06818529 46.762619,0.19 37,0.19"/>
		<path class="ti-foreground" fill="#F8F3EF" d="M40.19,33.85 C40.8916507,34.4376596 41.3423606,35.2711154 41.45,36.18 C41.5213631,36.6833683 41.5514633,37.1917275 41.54,37.7 L35.14,37.7 C35.1089181,38.4461845 35.2527469,39.1892997 35.56,39.87 C35.7860795,40.3639402 36.1553845,40.7785373 36.62,41.06 C37.0379208,41.2962827 37.5099092,41.4203089 37.99,41.42 C38.4728456,41.4347883 38.9542656,41.3602021 39.41,41.2 C39.798444,41.0428757 40.1419827,40.7920924 40.41,40.47 L40.46,40.41 C40.4848815,40.3807409 40.5155165,40.3569136 40.55,40.34 L40.65,40.34 L41.06,40.54 C41.1128405,40.5497625 41.1508943,40.5962727 41.15,40.65 C41.142737,40.7041989 41.1221191,40.7557435 41.09,40.8 C40.7502534,41.3880162 40.2463314,41.8641356 39.64,42.17 C38.9012357,42.5234533 38.0885854,42.6948985 37.27,42.67 C35.8217108,42.7876175 34.3851876,42.3315213 33.27,41.4 L33.32,41.4 C32.3921569,40.4275695 31.9135063,39.1112803 32,37.77 C31.9749585,36.8662099 32.2185665,35.9753009 32.7,35.21 C33.1517419,34.5051723 33.7976952,33.9460407 34.56,33.6 C35.3679053,33.2256059 36.2496466,33.0376377 37.14,33.05 C38.2176758,32.9663901 39.292102,33.2482068 40.19,33.85 Z M64.63,28.12 C64.7031792,28.1219146 64.7721607,28.15459 64.82,28.21 C64.8863667,28.2874698 64.9187988,28.3883699 64.91,28.49 L64.91,40.78 C64.894506,40.9783261 64.9474469,41.1759723 65.06,41.34 C65.1491188,41.4607821 65.2756967,41.5486834 65.42,41.59 L65.94,41.68 C66.0359741,41.679073 66.1300223,41.7069391 66.21,41.76 C66.2599483,41.8369162 66.2811925,41.9289744 66.27,42.02 C66.2658471,42.1104925 66.2344794,42.197625 66.18,42.27 C66.1377495,42.3520171 66.0522247,42.4025546 65.96,42.4 L62.69,42.4 C62.5130262,42.4121905 62.336215,42.3740548 62.18,42.29 C62.0807023,42.2240897 62.0149987,42.1182338 62,42 C61.9882019,41.800174 61.9882019,41.599826 62,41.4 C61.6657808,41.8358639 61.2099381,42.1629572 60.69,42.34 C60.1422077,42.5561101 59.5588769,42.6680282 58.97,42.67 C58.125818,42.7036141 57.2926695,42.4690723 56.59,42 C55.9818127,41.5645286 55.515675,40.9592453 55.25,40.26 C54.9608145,39.4899203 54.8183605,38.6725057 54.83,37.85 C54.8250019,37.0268577 55.0061859,36.2132387 55.36,35.47 C55.7225201,34.7379733 56.2930148,34.1292137 57,33.72 C57.7777654,33.253423 58.6734896,33.0208124 59.58,33.05 C60.0263355,33.0426923 60.4721808,33.0829189 60.91,33.17 C61.3110396,33.2701112 61.6928273,33.4356651 62.04,33.66 L61.96,30.14 C61.9880418,29.7880349 61.8030018,29.4533881 61.49,29.29 C61.0533003,29.1030365 60.5849066,29.0012118 60.11,28.99 C60.0404655,28.9667546 59.980652,28.9210149 59.94,28.86 C59.9196773,28.7812907 59.9196773,28.6987093 59.94,28.62 C59.9408923,28.5300058 59.9613664,28.4412847 60,28.36 C60,28.27 60.1,28.22 60.16,28.22 C61.06,28.157 62.1139,28.1264 63.42376,28.12091 L64.63,28.12 Z M11.7496484,30.4105078 L11.8,30.42 C11.92,30.48 12,30.55 12,30.66 L12,30.66 L12,33.23 L14.03,33.23 C14.0961485,33.2361488 14.1554866,33.273235 14.19,33.33 C14.2309223,33.3959583 14.2517696,33.4723984 14.25,33.55 C14.2590199,33.7106894 14.2316745,33.8713436 14.17,34.02 C14.11,34.15 14.05,34.22 13.98,34.22 L13.98,34.22 L11.98,34.22 L11.98,39.52 C11.9707091,39.9212372 11.9941199,40.3225645 12.05,40.72 C12.0754293,40.9294182 12.166435,41.1254305 12.31,41.28 C12.4610089,41.3881403 12.6445954,41.4410979 12.83,41.43 C13.074487,41.4244597 13.3169317,41.3840523 13.55,41.31 C13.813718,41.2332053 14.071143,41.1362531 14.32,41.02 C14.35,41 14.41,41.03 14.47,41.13 C14.5388383,41.2209251 14.5928407,41.3221795 14.63,41.43 L14.63,41.43 L14.64,41.41 L14.64,41.41 L14.64,41.6 C14.4336615,41.806035 14.1935134,41.9751534 13.93,42.1 C13.6077839,42.2596014 13.2733989,42.3933554 12.93,42.5 C12.6056043,42.5990389 12.2691026,42.6528791 11.93,42.66 C11.188021,42.6942498 10.4519169,42.5136959 9.81,42.14 C9.2431017,41.7159175 8.94264678,41.0237302 9.02,40.32 L9.02,40.32 L9.02,34.22 L8.02,34.22 C7.94472676,34.2002843 7.88452602,34.1438461 7.86,34.07 L7.86,34.07 L7.86,33.99 C7.83580365,33.9076796 7.84680855,33.8190124 7.89039508,33.7451048 C7.93398161,33.6711972 8.0062509,33.6186603 8.09,33.6 C9.58529459,33.1309547 10.8037262,32.0365551 11.43,30.6 C11.43,30.6 11.68,30.36 11.8,30.42 Z M29.96,28.12 C30.0331792,28.1219146 30.1021607,28.15459 30.15,28.21 C30.2163667,28.2874698 30.2487988,28.3883699 30.24,28.49 L30.24,28.49 L30.24,40.88 C30.2297061,41.0593782 30.2908234,41.2355401 30.41,41.37 C30.5149569,41.4808346 30.6508566,41.557496 30.8,41.59 C30.9880755,41.6311262 31.1784028,41.6611779 31.37,41.68 C31.4629412,41.6785339 31.5539593,41.7065394 31.63,41.76 L31.63,41.76 L31.63,41.74 C31.7,41.78 31.7,41.87 31.7,42 C31.6757825,42.1040223 31.6109701,42.1940395 31.52,42.25 C31.4743614,42.333613 31.3851726,42.384024 31.29,42.38 L31.29,42.38 L24.18,42.38 C23.3085118,42.460286 22.4314882,42.460286 21.56,42.38 C21.3801335,42.3023965 21.2494762,42.1418747 21.21,41.95 L21.21,41.95 L21.21,41.41 L21.0328328,41.581113 C20.6682003,41.9114056 20.2430369,42.1692796 19.78,42.34 C19.1979992,42.5570391 18.5811285,42.6654999 17.96,42.66 C17.5304636,42.6547692 17.1059965,42.5664801 16.71,42.4 C16.2864264,42.2321207 15.9165379,41.9521117 15.64,41.59 C15.3474259,41.1904995 15.1961417,40.704983 15.21,40.21 C15.186697,39.4979351 15.5112246,38.8190383 16.08,38.39 C16.7061053,37.9073929 17.429376,37.5662275 18.2,37.39 C19.1309658,37.1641046 20.0766144,37.0037119 21.03,36.91 L21.03,36.91 L21.03,35.39 C21.0782243,34.9824862 20.955089,34.5732426 20.69,34.26 C20.4030981,34.0430546 20.0493074,33.9333795 19.69,33.95 C19.3500489,33.9338124 19.0102405,33.9847837 18.69,34.1 L18.69,34.1 L18.57,34.1 C17.7423331,34.3990817 17.2261519,35.2249714 17.32,36.1 L17.32,36.1 L17.3212211,36.1896007 C17.3033333,36.49 17.0466667,36.49 16.79,36.49 C16.5419361,36.4455798 16.3104617,36.3350248 16.12,36.17 C15.8446859,35.9365786 15.6901956,35.5908148 15.7,35.23 C15.7057406,34.7267554 15.9702655,34.2619472 16.4,34 C16.8959099,33.6186154 17.4589886,33.333684 18.06,33.16 C18.7161222,33.0096806 19.3868835,32.932543 20.06,32.93 C20.8259175,32.9097097 21.5898229,33.0178733 22.32,33.25 C22.8417112,33.4132561 23.301853,33.730475 23.64,34.16 C23.9241043,34.5448008 24.0750599,35.01171 24.07,35.49 L24.07,35.49 L24.07,40.49 C24.0631069,40.6979173 24.0970822,40.9051665 24.17,41.1 C24.6371602,41.4423922 25.200805,41.6279399 25.78,41.63 C26.3544554,41.6367456 26.914483,41.4500697 27.37,41.1 L27.37,41.1 L27.37,30.1 C27.3870818,29.8690264 27.3234611,29.6392848 27.19,29.45 C27.0895591,29.3081088 26.9456322,29.2027965 26.78,29.15 C26.5772595,29.0918653 26.3697904,29.05171 26.16,29.03 L26.16,29.03 L25.81,29.03 C25.7437038,29.0009679 25.6853881,28.9563735 25.64,28.9 C25.6219972,28.8210128 25.6219972,28.7389872 25.64,28.66 C25.6407057,28.5667724 25.6611547,28.4747521 25.7,28.39 C25.75,28.31 25.8,28.25 25.86,28.25 C27.19,28.17 28.56,28.12 29.96,28.12 Z M52.17,33.63 C52.7806531,34.1769994 53.0897447,34.9851065 53,35.8 L53,40.8 C53,41.14 53.08,41.36 53.26,41.47 C53.4249011,41.5682662 53.6091194,41.6296724 53.8,41.65 L54.17,41.65 C54.2554261,41.6490977 54.3378732,41.6813596 54.4,41.74 C54.4565098,41.8102696 54.4818031,41.9006029 54.47,41.99 C54.4730203,42.0800736 54.4447516,42.1684134 54.39,42.24 C54.3427025,42.321959 54.2546111,42.3717498 54.16,42.37 L49.16,42.37 C49.0648274,42.374024 48.9756386,42.323613 48.93,42.24 C48.8723901,42.1693562 48.8406373,42.081154 48.84,41.99 C48.8326705,41.905547 48.8537902,41.8210682 48.9,41.75 C48.9566174,41.6822751 49.0418564,41.6452146 49.13,41.65 C49.3445579,41.6309008 49.5525462,41.5661176 49.74,41.46 C49.8968086,41.3865788 50.0005499,41.2328881 50.01,41.06 L50.01,35.84 C50.0317977,35.6272235 50.0317977,35.4127765 50.01,35.2 C49.9656169,35.0000324 49.8608967,34.8185175 49.71,34.68 C49.501202,34.512686 49.2368543,34.4305239 48.97,34.45 C48.6284982,34.4487356 48.2896261,34.5097326 47.97,34.63 C47.6530886,34.7434802 47.350931,34.894559 47.07,35.08 C46.8358857,35.226063 46.6208945,35.4007434 46.43,35.6 L46.43,40.79 C46.4152302,40.98238 46.4606619,41.174591 46.56,41.34 C46.6374929,41.459255 46.7542197,41.5476844 46.89,41.59 C47.0534135,41.6358836 47.2208436,41.6660211 47.39,41.68 C47.4857244,41.6807985 47.5792917,41.7085221 47.66,41.76 C47.7099483,41.8369162 47.7311925,41.9289744 47.72,42.02 C47.7158471,42.1104925 47.6844794,42.197625 47.63,42.27 C47.5860257,42.3503701 47.5016135,42.4002501 47.41,42.4000009 L42.57,42.4000009 C42.4759204,42.3996973 42.3887818,42.350445 42.34,42.27 C42.2896186,42.1962052 42.26182,42.1093345 42.26,42.02 C42.2539145,41.9342066 42.2787462,41.8490694 42.33,41.78 C42.3935922,41.7161868 42.4799109,41.6802207 42.57,41.68 C43.22,41.6 43.57,41.4 43.57,41.09 L43.57,35.22 C43.5839245,34.9965661 43.5317554,34.7739776 43.42,34.58 C43.3299897,34.4447501 43.2009341,34.3401105 43.05,34.28 C42.8744908,34.2219518 42.6935758,34.1817485 42.51,34.16 L42.2,34.16 C42.1192425,34.1271653 42.0497611,34.0715802 42,34 C41.9819972,33.9210128 41.9819972,33.8389872 42,33.76 C42.0008923,33.6700058 42.0213664,33.5812847 42.06,33.5 C42.06,33.41 42.15,33.36 42.22,33.35 C43.66,33.27 44.96,33.22 46.12,33.22 C46.1896485,33.2246216 46.2545136,33.2570541 46.3,33.31 C46.359366,33.3918804 46.3940649,33.4890372 46.4,33.59 L46.4,34.59 C46.6318535,34.3433045 46.8978964,34.1311438 47.19,33.96 C47.6156695,33.6960601 48.0682175,33.4781667 48.54,33.31 C49.0081459,33.1402129 49.5020209,33.0522625 50,33.05 C50.766534,33.0083555 51.5264619,33.2114699 52.17,33.63 Z M58.51,35.01 C58.0816041,35.8927989 57.8854223,36.8702662 57.94,37.85 C57.94,40.16 58.72,41.32 60.28,41.32 C60.6034432,41.3149474 60.9214869,41.2362915 61.21,41.09 L61.21,41.1 C61.5033946,40.9682475 61.748177,40.7479432 61.91,40.47 L61.91,35 C61.8418214,34.8260433 61.7319313,34.6715104 61.59,34.55 C61.4215091,34.3910601 61.2291822,34.2594681 61.02,34.16 C60.8368329,34.0670188 60.6353343,34.0157903 60.43,34.01 C59.6493222,33.9382174 58.8986923,34.3291704 58.51,35.01 Z M21.08,37.62 C20.6201676,37.6849466 20.1679394,37.7954913 19.73,37.95 C19.347511,38.0878595 19.0161221,38.3390175 18.78,38.67 C18.4994069,39.0810001 18.3623156,39.5731226 18.39,40.07 C18.3796165,40.3875622 18.4945575,40.6964661 18.71,40.93 C18.9375875,41.1775122 19.2643349,41.3096797 19.6,41.29 C20.1766995,41.3058679 20.7264179,41.045866 21.08,40.59 L21.08,40.59 Z M37.16,33.83 C36.6335353,33.8462276 36.1497755,34.1237332 35.87,34.57 C35.4504463,35.2611361 35.2226314,36.051585 35.21,36.86 L38.52,36.86 C38.5659695,36.0756635 38.4537449,35.2900916 38.19,34.55 L38.16,34.55 C38.0121846,34.122887 37.6119432,33.8347132 37.16,33.83 Z"/>
	</g>
</svg>
