<svg xmlns="http://www.w3.org/2000/svg" viewBox="0 0 16 16">
	<path d="M14.137 7.768l-2.85.011-.001-2.122c0-.833-1.344-1.513-3.045-1.57v-2.23a.955.955 0 0 0 .574-.434c3.029.363 5.439 2.752 5.816 5.759a.944.944 0 0 0-.494.586zm-5.316 6.82a.946.946 0 0 0-.578-.444v-2.28c1.702-.057 3.044-.737 3.044-1.57v-2.03l2.838-.01a.946.946 0 0 0 .5.619c-.394 2.986-2.793 5.352-5.804 5.714zM5.33 10.52v-.919c.592.399 1.576.661 2.69.661 1.098 0 2.068-.254 2.662-.644v.919c-.594.39-1.564.644-2.662.644-1.114 0-2.098-.263-2.69-.661zm2.425 3.62a.955.955 0 0 0-.582.442c-3.002-.374-5.39-2.74-5.776-5.721a.942.942 0 0 0 .473-.598h2.864V10.3c.006.827 1.336 1.503 3.022 1.566v2.276zM7.18 1.427a.95.95 0 0 0 .573.43v2.23c-1.678.063-3 .732-3.017 1.553l-.001 2.14H1.867a.944.944 0 0 0-.475-.585C1.762 4.19 4.16 1.802 7.18 1.427zm3.503 6.635v.918c-.594.389-1.564.643-2.662.643-1.114 0-2.098-.261-2.69-.66v-.92c.592.4 1.576.662 2.69.662 1.098 0 2.068-.254 2.662-.643zM8.02 7.147c1.098 0 2.068-.254 2.662-.643v.917c-.594.39-1.564.645-2.662.645-1.114 0-2.098-.263-2.69-.661v-.919c.592.399 1.576.661 2.69.661zm7.215-.046c-.411-3.268-3.013-5.858-6.3-6.273a.948.948 0 0 0-1.88.004c-3.271.426-5.857 3.01-6.267 6.267a.947.947 0 0 0-.79.93c0 .469.346.857.796.931.43 3.236 3.007 5.795 6.262 6.22.062.463.457.82.939.82a.946.946 0 0 0 .939-.816c3.27-.412 5.865-2.98 6.294-6.227a.946.946 0 0 0 .007-1.856z"/>
</svg>
