<svg xmlns="http://www.w3.org/2000/svg" viewBox="0 0 16 16">
	<g fill="none" fill-rule="evenodd">
		<path fill="#5599D8" d="M15.974 8A7.974 7.974 0 1 1 .026 8a7.974 7.974 0 0 1 15.948 0"/>
		<path fill="#FFF" d="M13.479 7.784l-2.537.01v-1.9c0-.746-1.197-1.355-2.71-1.406V2.492a.849.849 0 0 0 .51-.389 5.947 5.947 0 0 1 5.176 5.156.845.845 0 0 0-.44.525zM8.747 13.89a.844.844 0 0 0-.513-.397v-2.04c1.514-.052 2.709-.661 2.709-1.407V8.227l2.526-.009c.06.245.224.445.444.555a5.948 5.948 0 0 1-5.166 5.116zm-3.104-3.641v-.822c.526.357 1.4.591 2.393.591.977 0 1.84-.228 2.369-.576v.822c-.529.348-1.392.576-2.37.576-.991 0-1.866-.234-2.392-.591zM7.8 13.49a.844.844 0 0 0-.518.396 5.948 5.948 0 0 1-5.14-5.124.844.844 0 0 0 .421-.534h2.548v1.822c.005.74 1.188 1.345 2.69 1.401v2.039zM7.288 2.107a.845.845 0 0 0 .51.385v1.996c-1.493.057-2.67.656-2.686 1.39v1.916H2.558a.843.843 0 0 0-.422-.524 5.947 5.947 0 0 1 5.15-5.163zm3.117 5.94v.821c-.529.349-1.392.576-2.37.576-.991 0-1.866-.234-2.392-.59V8.03c.526.357 1.4.591 2.393.591.977 0 1.84-.227 2.369-.576zm-2.37-.82c.978 0 1.841-.227 2.37-.576v.822c-.529.349-1.392.576-2.37.576-.991 0-1.866-.234-2.392-.59v-.823c.526.357 1.4.591 2.393.591zm6.421-.04A6.48 6.48 0 0 0 8.851 1.57a.845.845 0 0 0-.837-.74.844.844 0 0 0-.837.745A6.48 6.48 0 0 0 1.6 7.184a.846.846 0 0 0 .006 1.667 6.48 6.48 0 0 0 5.572 5.568.845.845 0 0 0 .836.735.845.845 0 0 0 .836-.73 6.48 6.48 0 0 0 5.6-5.575.847.847 0 0 0 .006-1.662z"/>
	</g>
</svg>
