<svg viewBox="0 0 16 16" fill="none" xmlns="http://www.w3.org/2000/svg">
    <path fill-rule="evenodd" clip-rule="evenodd"
        d="m 12.02985,7.6825299 c 0,2.6068651 -2.0495995,4.7204131 -4.5784999,4.7204131 -2.5287701,0 -4.5787401,-2.113548 -4.5787401,-4.7207744 0,-2.6069164 2.04997,-4.7200212 4.5787401,-4.7200212 2.5286504,0 4.5784999,2.1131048 4.5784999,4.7203825 z m 3.80795,5.9006461 -2.08505,-1.803768 c 0.7272,-1.185807 1.1498,-2.5901941 1.1498,-4.0968781 C 14.90255,3.4395875 11.5666,0 7.4513501,0 3.33619,0 0,3.4395875 0,7.6821686 0,11.92475 3.33619,15.364802 7.4513501,15.364802 c 1.59645,0 3.0749999,-0.51902 4.2876499,-1.400413 l 2.2234,1.923406 c 0,0 0.3305,0.285833 0.60785,-0.05492 l 1.3208,-1.622916 c 0,0 0.2775,-0.3408 -0.05325,-0.626787 z"
        fill="#009845" />
    <path fill-rule="evenodd" clip-rule="evenodd"
        d="m 4.515625,7.6819105 c 0,-1.6710195 1.3139251,-3.0256622 2.9350751,-3.0256622 1.62085,0 2.9345499,1.3546427 2.9345499,3.0260235 0,1.6710712 -1.3136999,3.0259102 -2.9345499,3.0256522 -1.62115,0 -2.9350751,-1.354581 -2.9350751,-3.0260135"
        fill="#54565a" />
</svg>
