<svg xmlns="http://www.w3.org/2000/svg" viewBox="0 0 42 42">
    <path
        d="m0 0-2.418 2.029A8.643 8.643 0 1 1-4.754-.429l2.579-2.164s.383-.321.705.062L.062-.705S.384-.322 0 0m-4.417 6.638a5.31 5.31 0 1 0-10.62.001 5.31 5.31 0 0 0 10.62-.001"
        style="fill:#009c4d;fill-opacity:1;fill-rule:nonzero;stroke:none"
        transform="matrix(2.35513 0 0 -2.35513 52.805 45.87)" />
    <path d="M0 0a3.404 3.404 0 1 0 6.808 0A3.404 3.404 0 0 0 0 0"
        style="fill:#54565b;fill-opacity:1;fill-rule:nonzero;stroke:none"
        transform="matrix(2.35513 0 0 -2.35513 21.88 30.235)" />
</svg>