<svg viewBox="0 0 33 32" fill="none" xmlns="http://www.w3.org/2000/svg">
    <path d="M16 27.9172C9.41725 27.9172 4.08088 22.5808 4.08088 15.9981C4.08088 13.2019 5.04555 10.6321 6.65781 8.59921L4.47912 6.39453C2.3078 8.9965 1 12.3442 1 15.9981C1 24.2824 7.71573 30.9981 16 30.9981C19.59 30.9981 22.8846 29.7358 25.4666 27.6323L23.2875 25.4272C21.2724 26.987 18.7454 27.9172 16 27.9172Z" fill="#54565A"/>
    <path d="M27.5378 25.5482L27.707 25.3757C29.7666 22.8076 30.9999 19.5482 30.9999 16C30.9999 7.71573 24.2841 1 15.9999 1C12.429 1 9.15054 2.24873 6.57498 4.33222C5.83241 4.93293 5.14782 5.60253 4.53203 6.33223C4.51413 6.35344 4.49678 6.37513 4.479 6.39644L6.65769 8.60112C6.67652 8.57738 6.69427 8.55274 6.71328 8.52913C7.31133 7.78668 7.99705 7.118 8.75391 6.53745C10.7619 4.99715 13.2736 4.08089 15.9999 4.08089C22.5826 4.08089 27.919 9.41726 27.919 16C27.919 18.7777 26.9678 21.3325 25.3747 23.3589C24.7972 24.0934 24.1362 24.7591 23.4045 25.34C23.3661 25.3705 23.3262 25.3991 23.2874 25.4291L25.4665 27.6342L28.0315 30.2298H32.1636L27.5378 25.5482Z" fill="#009845"/>
</svg>
