<svg width="32" height="32" viewBox="0 0 32 32" fill="none" xmlns="http://www.w3.org/2000/svg">
    <path fill-rule="evenodd" clip-rule="evenodd"
        d="M24.0597 15.3849C24.0597 20.4357 19.9605 24.5307 14.9027 24.5307C9.84516 24.5307 5.74522 20.4357 5.74522 15.3842C5.74522 10.3333 9.84516 6.23916 14.9027 6.23916C19.96 6.23916 24.0597 10.3333 24.0597 15.3849ZM31.6756 26.8174L27.5055 23.3226C28.9599 21.0251 29.8051 18.3041 29.8051 15.3849C29.8051 7.1642 23.1332 0.5 14.9027 0.5C6.67238 0.5 0 7.1642 0 15.3842C0 23.6042 6.67238 30.2693 14.9027 30.2693C18.0956 30.2693 21.0527 29.2637 23.478 27.556L27.9248 31.2826C27.9248 31.2826 28.5858 31.8364 29.1405 31.1762L31.7821 28.0318C31.7821 28.0318 32.3371 27.3715 31.6756 26.8174V26.8174Z"
        fill="#009845" />
    <path fill-rule="evenodd" clip-rule="evenodd"
        d="M9.03125 15.3837C9.03125 12.1461 11.6591 9.52148 14.9014 9.52148C18.1431 9.52148 20.7705 12.1461 20.7705 15.3844C20.7705 18.6221 18.1431 21.2471 14.9014 21.2466C11.6591 21.2466 9.03125 18.6221 9.03125 15.3837"
        fill="#54565A" />
</svg>
