<svg xmlns="http://www.w3.org/2000/svg" viewBox="0 0 16 16">
  <g>
    <circle class="ti-background" cx="8" cy="8" r="8" fill="#19426C"/>
    <path class="ti-foreground" fill="#FFF" fill-rule="nonzero" d="M8,1.17666667 C8.37008927,1.17666667 8.68123785,1.4290218 8.77075767,1.771044 C11.6206593,2.11896492 13.8804639,4.37847614 14.2297399,7.22863461 C14.5710113,7.31880294 14.8233333,7.62993498 14.8233333,8 C14.8233333,8.37006502 14.5710113,8.68119706 14.2290233,8.77074006 C13.8809942,11.6209937 11.6209937,13.8809942 8.77036226,14.2298627 C8.68119706,14.5710113 8.37006502,14.8233333 8,14.8233333 C7.62993498,14.8233333 7.31880294,14.5710113 7.22925994,14.2290233 C4.37847614,13.8804639 2.11896492,11.6206593 1.77013727,8.77036226 C1.4290218,8.68123785 1.17666667,8.37008927 1.17666667,8 C1.17666667,7.62991073 1.4290218,7.31876215 1.771044,7.22924233 C2.11949508,4.37881051 4.37881051,2.11949508 7.22863461,1.77026011 C7.31876215,1.4290218 7.62991073,1.17666667 8,1.17666667 Z M8.73847198,2.2700932 L8.70332468,2.34785035 C8.56928434,2.59904695 8.30460628,2.77 8,2.77 C7.66543882,2.77 7.37904506,2.56377077 7.26100719,2.27150077 C4.66170597,2.60183317 2.60183317,4.66170597 2.2700932,7.26152802 C2.56377077,7.37904506 2.77,7.66543882 2.77,8 C2.77,8.33456118 2.56377077,8.62095494 2.27150077,8.73899281 C2.60183317,11.338294 4.66170597,13.3981668 7.26152802,13.7299068 C7.37904506,13.4362292 7.66543882,13.23 8,13.23 C8.33456118,13.23 8.62095494,13.4362292 8.73899281,13.7284992 C11.338294,13.3981668 13.3981668,11.338294 13.7299068,8.73847198 C13.4362292,8.62095494 13.23,8.33456118 13.23,8 C13.23,7.66543882 13.4362292,7.37904506 13.7284992,7.26100719 C13.3981668,4.66170597 11.338294,2.60183317 8.73847198,2.2700932 Z M10.22,4.98666667 C10.2752285,4.98666667 10.32,5.03143819 10.32,5.08666667 L10.32,6.06666667 C10.32,6.12189514 10.2752285,6.16666667 10.22,6.16666667 L8.1,6.16666667 C8.04477153,6.16666667 8,6.12189514 8,6.06666667 L7.99966667,5.82566667 L6.17333333,5.82666667 C5.66441144,5.82666667 5.25144479,6.23845948 5.25000101,6.74597259 C5.25068272,6.9922296 5.34970936,7.22801046 5.52506713,7.40090533 C5.68448327,7.55808248 5.89497388,7.65144731 6.11906785,7.66500843 L6.18666667,7.66666667 L7.56266667,7.66666667 L7.99424076,7.23636532 L8.42466667,7.66666667 L9.82666566,7.66666667 C10.5881008,7.66666359 11.2101955,8.26465942 11.2481694,9.01778562 L11.250001,9.08666667 L11.250001,9.13069407 C11.2489451,9.51030325 11.0962939,9.87376327 10.8259771,10.1402835 C10.5749686,10.3877666 10.2418176,10.532621 9.89386275,10.5486098 L9.81333333,10.55 L7.96139496,10.550392 C7.85049182,10.9759176 7.46359152,11.29 7.00333333,11.29 C6.45657143,11.29 6.01333333,10.8467619 6.01333333,10.3 C6.01333333,9.7532381 6.45657143,9.31 7.00333333,9.31 C7.46359152,9.31 7.85049182,9.62408242 7.96139496,10.049608 L9.81617521,10.0500162 C10.0624173,10.0528155 10.2995751,9.95713353 10.4749329,9.78423866 C10.634349,9.6270615 10.7306816,9.41791246 10.7473921,9.19668928 L10.750001,9.13 L10.750001,9.08737689 C10.7486088,8.59730748 10.3656136,8.19730111 9.88280257,8.16834509 L9.82666667,8.16666667 L8.42566667,8.16666667 L7.99424076,8.59872439 L7.56166667,8.16566667 L6.18950854,8.16665051 C5.80992242,8.17096573 5.44433973,8.02347045 5.17402289,7.75695019 C4.90370605,7.49042994 4.75105488,7.12696992 4.75000101,6.74595644 C4.75216417,5.98452537 5.35192627,5.36413648 6.10450818,5.32830169 L6.17333333,5.32666667 L7.99966667,5.32566667 L8,5.08666667 C8,5.03143819 8.04477153,4.98666667 8.1,4.98666667 L10.22,4.98666667 Z"/>
  </g>
</svg>
