<svg xmlns="http://www.w3.org/2000/svg" viewBox="0 0 16 16">
  <g>
    <path fill="#19426C" fill-rule="evenodd" d="M8,-8.8817842e-16 C8.42104877,-8.8817842e-16 8.77697865,0.27880709 8.89324236,0.661873974 C12.261254,1.06684301 14.933157,3.73874603 15.3384002,7.10805216 C15.7211929,7.22302135 16,7.57895123 16,8 C16,8.42104877 15.7211929,8.77697865 15.338126,8.89324236 C14.933157,12.261254 12.261254,14.933157 8.89194784,15.3384002 C8.77697865,15.7211929 8.42104877,16 8,16 C7.57895123,16 7.22302135,15.7211929 7.10675764,15.338126 C3.73874603,14.933157 1.06684301,12.261254 0.661599752,8.89194784 C0.27880709,8.77697865 -8.8817842e-16,8.42104877 -8.8817842e-16,8 C-8.8817842e-16,7.57895123 0.27880709,7.22302135 0.661873974,7.10675764 C1.06684301,3.73874603 3.73874603,1.06684301 7.10805216,0.661599752 C7.22302135,0.27880709 7.57895123,-8.8817842e-16 8,-8.8817842e-16 Z M8.85211706,1.31167168 L8.83846826,1.34378969 C8.68658467,1.65346893 8.36818983,1.86666667 8,1.86666667 C7.61979555,1.86666667 7.2926889,1.63932795 7.14719911,1.31316958 C4.1059336,1.69533962 1.69533962,4.1059336 1.31167168,7.14788294 C1.63932795,7.2926889 1.86666667,7.61979555 1.86666667,8 C1.86666667,8.38020445 1.63932795,8.7073111 1.31316958,8.85280089 C1.69533962,11.8940664 4.1059336,14.3046604 7.14788294,14.6883283 C7.2926889,14.360672 7.61979555,14.1333333 8,14.1333333 C8.38020445,14.1333333 8.7073111,14.360672 8.85280089,14.6868304 C11.8940664,14.3046604 14.3046604,11.8940664 14.6883283,8.85211706 C14.360672,8.7073111 14.1333333,8.38020445 14.1333333,8 C14.1333333,7.61979555 14.360672,7.2926889 14.6868304,7.14719911 C14.3046604,4.1059336 11.8940664,1.69533962 8.85211706,1.31167168 Z M10.62,4.46666667 C10.6752285,4.46666667 10.72,4.51143819 10.72,4.56666667 L10.72,5.75 C10.72,5.80522847 10.6752285,5.85 10.62,5.85 L8.1,5.85 C8.04477153,5.85 8,5.80522847 8,5.75 L7.999,5.416 L5.87272785,5.41666261 C5.57521099,5.4159413 5.28963334,5.53362248 5.07900327,5.74374132 C4.86837144,5.95386191 4.74999117,6.23915282 4.74999117,6.53727289 C4.7492726,6.83526256 4.8673274,7.12125472 5.07803634,7.33196366 C5.27118658,7.5251139 5.52759472,7.64040761 5.79898316,7.65772219 L5.87333333,7.66 L7.438,7.659 L7.99366885,7.10460895 L8.549,7.66 L10.1260577,7.66000074 C10.5570748,7.65895076 10.970741,7.82970692 11.2755171,8.13448295 C11.5599734,8.41893926 11.7276853,8.79825102 11.7479335,9.19750172 L11.7500041,9.28333333 L11.7500041,9.33455048 C11.7457702,10.2035711 11.0579638,10.9097428 10.1986612,10.9452733 L10.1266667,10.9466708 L7.96983466,10.946229 C7.85561279,11.4687897 7.39015909,11.86 6.83333333,11.86 C6.19084207,11.86 5.67,11.3391579 5.67,10.6966667 C5.67,10.0541754 6.19084207,9.53333333 6.83333333,9.53333333 C7.38979915,9.53333333 7.85501101,9.924038 7.96961271,10.4460912 L10.1272765,10.4466716 C10.7241939,10.4481277 11.213391,9.98229352 11.2480539,9.39455461 L11.2500041,9.33333333 L11.2500048,9.28272711 C11.2507274,8.98473744 11.1326726,8.69874528 10.9219637,8.48803634 C10.7288134,8.2948861 10.4724053,8.17959239 10.2010168,8.16227781 L10.1266667,8.16 L8.536,8.159 L7.99366885,8.70267027 L7.45,8.159 L5.87394235,8.15999926 C5.44292523,8.16104924 5.02925898,7.99029308 4.72448295,7.68551705 C4.41970833,7.38074243 4.24895149,6.96707763 4.24999117,6.53666667 C4.24999117,6.10633349 4.42121719,5.69368167 4.72587973,5.3897586 C5.01022958,5.10609892 5.38901195,4.93891086 5.78763712,4.91872662 L5.87333333,4.91666261 L7.999,4.916 L8,4.56666667 C8,4.51143819 8.04477153,4.46666667 8.1,4.46666667 L10.62,4.46666667 Z"/>
  </g>
</svg>
