<svg xmlns="http://www.w3.org/2000/svg" viewBox="0 0 16 16">
  <g>
    <circle class="ti-background" cx="8" cy="8" r="8" fill="#19426C"/>
    <path class="ti-foreground" fill="#FFF" fill-rule="nonzero" d="M7.94666667,1.23 C8.29394726,1.23 8.58932833,1.45220824 8.69838561,1.76220045 C11.5819433,2.08032148 13.8776802,4.35427268 14.2297876,7.22902421 C14.5710113,7.31880294 14.8233333,7.62993498 14.8233333,8 C14.8233333,8.37006502 14.5710113,8.68119706 14.2290233,8.77074006 C13.8784173,11.6397086 11.5915478,13.9101541 8.71511535,14.236376 C8.62357156,14.5744779 8.31418077,14.8233333 7.94666667,14.8233333 C7.57401755,14.8233333 7.26112731,14.5674751 7.17408328,14.2218461 C4.34960124,13.851304 2.11703663,11.6025929 1.77021238,8.77097579 C1.4290218,8.68123785 1.17666667,8.37008927 1.17666667,8 C1.17666667,7.62991073 1.4290218,7.31876215 1.771044,7.22924233 C2.11773287,4.39172268 4.35857243,2.13966993 7.19055192,1.77504512 C7.29525511,1.45884804 7.59423573,1.23 7.94666667,1.23 Z M8.70542414,2.26597296 L8.68970859,2.31460393 C8.57427541,2.61228019 8.28511809,2.82333333 7.94666667,2.82333333 C7.59570726,2.82333333 7.29775275,2.59639235 7.1915448,2.28125205 C4.62484954,2.6388725 2.59885411,4.68505267 2.2700932,7.26152802 C2.56377077,7.37904506 2.77,7.66543882 2.77,8 C2.77,8.33456118 2.56377077,8.62095494 2.27150077,8.73899281 C2.59966271,11.3212843 4.63482587,13.3711896 7.21056847,13.7231738 C7.32983433,13.4332731 7.61451201,13.23 7.94666667,13.23 C8.28393745,13.23 8.57225743,13.4395833 8.68849424,13.7356174 C11.3123287,13.4240425 13.3960815,11.3546367 13.7299068,8.73847198 C13.4362292,8.62095494 13.23,8.33456118 13.23,8 C13.23,7.66543882 13.4362292,7.37904506 13.7284992,7.26100719 C13.3967624,4.65069966 11.3208222,2.58440197 8.70542414,2.26597296 Z M9.19435823,4.72928397 L9.22695731,4.73894386 L11.203624,5.47227719 C11.2947747,5.50609366 11.358054,5.58968729 11.3658596,5.68659489 L11.3719524,5.79338354 C11.4096929,6.65878277 11.3048806,7.70690309 10.9346983,8.72042173 C10.4730368,9.98440041 9.66923456,10.936028 8.45926416,11.4337123 L8.60666667,11.7733333 L7.64,11.5133333 L8.10666667,10.6266667 L8.25866667,10.974 L8.30958771,10.9543163 C9.35617821,10.509672 10.0538459,9.67470035 10.4650446,8.54888324 C10.7886219,7.66296405 10.8950899,6.7365137 10.8772135,5.95913362 L10.8746667,5.88333333 L9.05304269,5.20772281 C8.93438044,5.16369971 8.86902717,5.0391388 8.89595063,4.9189751 L8.90561052,4.88637602 C8.94963362,4.76771377 9.07419454,4.7023605 9.19435823,4.72928397 Z M7.42333333,4.08666667 L8.36666667,4.42333333 L7.83333333,5.26666667 L7.71166667,4.919 L5.125,5.883 L5.122661,5.96037996 C5.10569215,6.68893514 5.19728997,7.54767975 5.47329445,8.3810546 L5.53097657,8.54734521 C5.83362068,9.38137227 6.29754575,10.0610544 6.94793385,10.5384669 C7.05923749,10.6201685 7.08323467,10.7766302 7.00153307,10.8879338 C6.91983146,10.9992375 6.76336979,11.0232347 6.65206615,10.9415331 C5.91495401,10.4004614 5.39520015,9.63898625 5.06096441,8.71789892 C4.71420753,7.76230583 4.60242625,6.77571998 4.62297868,5.94038559 L4.62963979,5.75895219 L4.6341458,5.68652785 C4.6409874,5.60187332 4.6901629,5.5273788 4.76328103,5.48737022 L4.79602963,5.47240599 L7.54766667,4.446 L7.42333333,4.08666667 Z M9.54051829,6.30124051 C9.713419,6.4286559 9.75936063,6.66437426 9.65372478,6.84585281 L9.62875949,6.88385163 L8.12542616,8.92385163 C7.97355924,9.12993268 7.677196,9.14928435 7.49932267,8.97529219 L7.46742418,8.94040129 L6.63075752,7.91706796 C6.4851009,7.73891425 6.511445,7.47641413 6.68959871,7.33075752 C6.8558755,7.19481134 7.09562739,7.2086969 7.24527953,7.35599808 L7.27590915,7.38959871 L7.77266667,7.99733333 L8.95790718,6.38948171 C9.09442366,6.20423095 9.35526754,6.16472403 9.54051829,6.30124051 Z"/>
  </g>
</svg>
