<svg xmlns="http://www.w3.org/2000/svg" viewBox="0 0 16 16">
  <g>
    <path fill="#19426C" fill-rule="evenodd" d="M7.99666667,-8.8817842e-16 C8.41625726,-8.8817842e-16 8.77117922,0.276879303 8.88869247,0.657897817 C12.2589128,1.0613739 14.9326279,3.7337145 15.3383162,7.10402063 C15.7211929,7.21968801 16,7.5756179 16,7.99666667 C16,8.41771544 15.7211929,8.77364532 15.338126,8.88990902 C14.9330771,12.2585852 12.2601999,14.9308776 8.88995409,15.3353064 C8.77549387,15.7197427 8.41880907,16 7.99666667,16 C7.57452426,16 7.21783947,15.7197427 7.10252321,15.335139 C3.73611156,14.9271885 1.06664318,12.2562592 0.661599752,8.88861451 C0.27880709,8.77364532 3.88578059e-15,8.41771544 3.88578059e-15,7.99666667 C3.88578059e-15,7.5756179 0.27880709,7.21968801 0.661873974,7.10342431 C1.06709215,3.73604039 3.73739792,1.06506266 7.10506183,0.658626697 C7.22153744,0.277360623 7.57671153,-8.8817842e-16 7.99666667,-8.8817842e-16 Z M8.85011876,1.30808661 L8.83513493,1.34378969 C8.68325133,1.65346893 8.3648565,1.86666667 7.99666667,1.86666667 C7.61568708,1.86666667 7.28802202,1.63840004 7.14297819,1.31117349 C4.1034897,1.69415992 1.69464397,4.10446032 1.31154574,7.14554874 C1.63932795,7.28935557 1.86666667,7.61646222 1.86666667,7.99666667 C1.86666667,8.37687112 1.63932795,8.70397776 1.31316958,8.84946756 C1.69525561,11.890067 4.10487804,14.3002714 7.14588481,14.6847427 C7.29135672,14.3592837 7.61762492,14.1333333 7.99666667,14.1333333 C8.37570841,14.1333333 8.70197661,14.3592837 8.8481277,14.6838409 C11.8919547,14.3034382 14.3044924,11.8920652 14.6883283,8.84878373 C14.360672,8.70397776 14.1333333,8.37687112 14.1333333,7.99666667 C14.1333333,7.61646222 14.360672,7.28935557 14.6868304,7.14386577 C14.3051043,4.10246202 11.8933437,1.69099256 8.85011876,1.30808661 Z M9.3975829,4.17230546 L9.43189477,4.18258526 L11.7652281,5.04258526 C11.869662,5.08107662 11.9421332,5.17684136 11.9508011,5.28780486 L11.9573875,5.40699588 C12.0001066,6.41910376 11.8754017,7.64956077 11.4384585,8.84004331 C10.8949876,10.3207682 9.95219174,11.434698 8.535515,12.0164827 L8.71333333,12.4233333 L7.57666667,12.12 L8.12333333,11.0766667 L8.306,11.493 L8.33401374,11.4829544 C9.58203704,10.9647781 10.4135425,9.97819436 10.9033619,8.64364664 C11.2897396,7.59093351 11.4152368,6.49064091 11.3926715,5.57417652 L11.3903333,5.512 L9.2347719,4.71741474 C9.09844352,4.66716799 9.02354168,4.52368837 9.0556388,4.38575044 L9.06591859,4.35143857 C9.11616534,4.21511018 9.25964496,4.14020835 9.3975829,4.17230546 Z M7.32666667,3.40666667 L8.08097866,3.67672907 C8.08884711,3.67906731 8.09660581,3.68174147 8.10423248,3.68474135 L8.43,3.80333333 L7.80333333,4.79333333 L7.661,4.379 L4.60833333,5.51166667 L4.60578086,5.58668908 C4.58168397,6.4592847 4.69092687,7.49111549 5.02898145,8.48968708 L5.08745887,8.65577472 C5.44292912,9.62736388 5.98701094,10.4217076 6.7491931,10.9839893 C6.87585632,11.077432 6.90278682,11.2558632 6.80934406,11.3825264 C6.71590129,11.5091897 6.53747013,11.5361202 6.4108069,11.4426774 C5.55101364,10.8083855 4.94364419,9.92164362 4.55216077,8.85162144 C4.13838871,7.72067884 4.00791735,6.55200959 4.03618207,5.56386469 L4.04493436,5.3513315 L4.04931779,5.28633204 C4.05747876,5.18840038 4.11532868,5.10251743 4.20088341,5.0576392 L4.23422217,5.04278852 L7.475,3.84 L7.32666667,3.40666667 Z M9.75788539,6.07259917 C9.92664931,6.19693916 9.9715121,6.42699565 9.86842979,6.60412935 L9.8440675,6.64121872 L8.08073417,9.03455205 C7.93247122,9.23578608 7.64306959,9.25461966 7.46948423,9.08464789 L7.43835693,9.05056406 L6.45835693,7.85056406 C6.31629233,7.6766074 6.34214595,7.42042154 6.51610261,7.27835693 C6.67846216,7.1457633 6.91245247,7.1594451 7.05843337,7.30329185 L7.08830973,7.33610261 L7.73666667,8.13 L9.18926583,6.15878128 C9.32248725,5.97796279 9.5770669,5.93937774 9.75788539,6.07259917 Z"/>
  </g>
</svg>
