<svg xmlns="http://www.w3.org/2000/svg" viewBox="0 0 16 16">
	<path d="M8.896 14.637a.957.957 0 0 0-.614-.512s-.21-.067-.488-.002a.952.952 0 0 0-.622.517 6.695 6.695 0 0 1-5.775-5.788.953.953 0 0 0 .001-1.688 6.694 6.694 0 0 1 5.79-5.781.952.952 0 0 0 1.7.003 6.697 6.697 0 0 1 5.763 5.755.95.95 0 0 0 .001 1.734 6.695 6.695 0 0 1-5.756 5.762m6.363-7.56A7.295 7.295 0 0 0 8.975.783.953.953 0 0 0 7.101.779a7.294 7.294 0 0 0-6.307 6.29.95.95 0 0 0-.794.939c0 .472.343.862.793.94a7.294 7.294 0 0 0 6.31 6.298.952.952 0 0 0 1.864-.002 7.294 7.294 0 0 0 6.293-6.307.954.954 0 0 0 0-1.86"/>
	<path d="M10.966 11.248a9.36 9.36 0 0 1-.616-.479c-.35-.287-.83-.68-1.374-.889-.398-.153-.778-.184-1.134-.094L9.404 5.71c.778-.745 1.572-.206 2.454.518l.172.142c.254.203.465.36.627.464l-1.691 4.415zM7.196 9.54c-.573-.859-1.782-.912-2.524-.944a11.383 11.383 0 0 1-.215-.01 9.175 9.175 0 0 1-.561-.046l1.69-4.415c.193.031.453.056.778.073l.2.01.023.001c1.14.05 2.09.18 2.172 1.254L7.197 9.54zm6.005-3.193a6.485 6.485 0 0 1-.738-.516c-.048-.039-.1-.08-.151-.124l-.016-.013c-.632-.519-1.792-1.473-2.947-.805-.414-1.269-1.914-1.334-2.732-1.37l-.042-.002a6.555 6.555 0 0 1-1.066-.118c-.12-.02-.168-.03-.21-.02a.338.338 0 0 0-.247.213L3.107 8.667a.346.346 0 0 0 .082.372c.069.066.184.177 1.23.235l.224.011c.77.033 1.822.08 2.099.884 0 0 .084.241.085.24l.695.26.26-.123c.757-.373 1.54.273 2.132.76l.17.14c.433.346.73.547.908.615.067.027.16.032.166.031a.343.343 0 0 0 .309-.222l1.945-5.076a.343.343 0 0 0-.041-.325c-.025-.034-.067-.06-.17-.123z"/>
	<path d="M10.97 12.362a.41.41 0 0 1-.053-.009c-.081-.03-.293-.147-.814-.569l-.167-.139-.177-.15c-.538-.466-1.338-1.156-2.297-.544l-.805-.302C6.455 9.596 5.341 9.55 4.658 9.523a9.833 9.833 0 0 1-.179-.008l-.219-.01c-.844-.053-.997-.135-1.008-.142l-.008-.008a.335.335 0 1 0-.467.48c.154.15.358.27 1.442.337a189.445 189.445 0 0 1 .412.02c.947.038 1.35.147 1.386.721l.014.216 1.537.577.148-.115c.555-.432.977-.134 1.606.41l.186.158c.061.051.119.1.173.143.471.382.776.59.992.674a.893.893 0 0 0 .293.054h.01a.334.334 0 0 0-.006-.668"/>
</svg>
