<svg xmlns="http://www.w3.org/2000/svg" viewBox="0 0 16 16">
	<g fill-rule="evenodd">
		<path d="M6.706 4.59l-.02-.001a30.435 30.435 0 0 1-.179-.009 6.925 6.925 0 0 1-.693-.065L4.306 8.452c.136.016.303.03.5.04l.192.01c.662.028 1.74.075 2.251.842l1.394-3.636c-.073-.959-.92-1.074-1.937-1.118m4.7 1.8c-.785-.645-1.493-1.126-2.187-.462L7.826 9.565c.317-.081.656-.053 1.01.083.487.185.914.537 1.226.794l.15.122c.154.123.288.225.4.305L12.12 6.93a7.245 7.245 0 0 1-.56-.414l-.153-.126"/>
		<path d="M14.441 8.807a6.506 6.506 0 0 1-5.612 5.625.85.85 0 0 1-1.663.002A6.505 6.505 0 0 1 1.54 8.816a.85.85 0 0 1 .001-1.675 6.506 6.506 0 0 1 5.624-5.61.85.85 0 0 1 1.672.003A6.505 6.505 0 0 1 14.44 7.15a.85.85 0 0 1 .001 1.657M8.001 0C3.587 0 0 3.589 0 8c0 4.41 3.587 8 8 8 4.41 0 8-3.59 8-8 0-4.411-3.59-8-8-8"/>
		<path d="M12.793 6.896l-1.735 4.527a.308.308 0 0 1-.276.199.521.521 0 0 1-.148-.028c-.159-.06-.423-.24-.808-.55a8.766 8.766 0 0 1-.153-.125c-.528-.433-1.226-1.01-1.9-.676l-.233.109s-.62-.231-.62-.233l-.076-.213c-.247-.717-1.185-.758-1.872-.788 0 0-.143-.006-.2-.01-.933-.052-1.035-.15-1.097-.21a.307.307 0 0 1-.073-.331L5.337 4.04a.305.305 0 0 1 .221-.191c.037-.01.081-.001.187.02.154.028.412.075.796.096l.154.008h.038c.73.033 2.067.092 2.436 1.224 1.03-.596 2.064.255 2.628.719l.014.01.135.11c.3.24.524.379.658.46.092.056.13.08.152.11a.31.31 0 0 1 .037.29m-2.173 5.562h-.009a.79.79 0 0 1-.26-.048c-.193-.076-.466-.26-.885-.601l-.155-.128-.165-.141c-.56-.485-.938-.751-1.433-.366l-.132.103-1.37-.515-.013-.192c-.032-.512-.39-.61-1.237-.644a8.282 8.282 0 0 1-.164-.007s-.145-.006-.203-.01c-.966-.06-1.148-.167-1.285-.301a.298.298 0 0 1 .416-.427l.007.007c.01.006.146.079.9.125.055.004.194.01.195.01l.158.008c.61.024 1.604.064 1.784 1.004l.718.269c.854-.547 1.568.069 2.048.484l.158.135c.053.043.102.085.15.123.463.377.653.48.724.508a.282.282 0 0 0 .048.008.298.298 0 0 1 .005.596m2.78-4.48a.85.85 0 0 1 .498-.773 5.97 5.97 0 0 0-5.14-5.131.852.852 0 0 1-1.517-.003A5.97 5.97 0 0 0 2.08 7.226a.851.851 0 0 1 0 1.506 5.97 5.97 0 0 0 5.15 5.16.853.853 0 0 1 .554-.46.908.908 0 0 1 .436.002.852.852 0 0 1 .547.457A5.971 5.971 0 0 0 13.9 8.75a.85.85 0 0 1-.5-.772"/>
		<path fill-rule="nonzero" d="M44.896 14.637a.957.957 0 0 0-.614-.512s-.21-.067-.488-.002a.952.952 0 0 0-.622.517 6.695 6.695 0 0 1-5.775-5.788.953.953 0 0 0 .001-1.688 6.694 6.694 0 0 1 5.79-5.781.952.952 0 0 0 1.7.003 6.697 6.697 0 0 1 5.763 5.755.95.95 0 0 0 .001 1.734 6.695 6.695 0 0 1-5.756 5.762m6.363-7.56A7.295 7.295 0 0 0 44.975.783.953.953 0 0 0 43.101.78a7.294 7.294 0 0 0-6.307 6.29.95.95 0 0 0-.794.939c0 .472.343.862.793.94a7.294 7.294 0 0 0 6.31 6.298.952.952 0 0 0 1.864-.002 7.294 7.294 0 0 0 6.293-6.307.954.954 0 0 0 0-1.86"/>
	</g>
</svg>
