<svg xmlns="http://www.w3.org/2000/svg" viewBox="0 0 16 16">
  <g>
    <circle class="ti-background" cx="8" cy="8" r="8" fill="#19426C"/>
    <path class="ti-foreground" fill="#FFF" fill-rule="nonzero" d="M4.29,7.76666667 C4.42807119,7.76666667 4.54,7.87859548 4.54,8.01666667 C4.54,8.14323192 4.44594871,8.24783032 4.32392352,8.26438446 L4.29,8.26666667 L2.395,8.26633333 L2.39983839,8.36254561 C2.55308078,10.9945558 4.47954383,13.2038848 7.08892393,13.6987381 L7.20280224,13.7191692 L7.27217127,13.7288969 C7.39640592,13.4506147 7.67555346,13.2566667 8,13.2566667 C8.34031105,13.2566667 8.63078481,13.4700454 8.74492892,13.7703106 C10.9374631,13.5513546 12.8718101,12.0841865 13.6238273,9.91800949 C13.6691094,9.7875749 13.8115559,9.71854517 13.9419905,9.76382727 C14.0724251,9.80910938 14.1414548,9.95155591 14.0961727,10.0819905 C13.2755578,12.4457626 11.1592258,14.0434896 8.76543908,14.2723743 C8.67117557,14.6057276 8.36411422,14.85 8,14.85 C7.62002722,14.85 7.30218528,14.5839862 7.22254754,14.228032 C7.18870865,14.2235975 7.1540467,14.2180273 7.11937519,14.21216 C4.09728694,13.7007429 1.88653408,11.081439 1.88999219,8.01638428 C1.8901391,7.88992018 1.98416387,7.78547477 2.10609872,7.76894542 L2.13999609,7.76666667 L4.29,7.76666667 Z M8.89014644,5.98107759 C9.13070837,5.95866947 9.36322615,6.07435648 9.49044686,6.27975136 C9.61766757,6.48514623 9.61766757,6.74485377 9.49044686,6.95024864 C9.40237098,7.09244509 9.26382728,7.19164547 9.11477962,7.23215166 L9.11477962,7.23215166 L9.1,7.23533333 L9.1,7.75666667 L10.8863826,11.0473985 C10.971156,11.2035682 10.8704586,11.3914718 10.7013631,11.4143497 L10.7013631,11.4143497 L10.6666667,11.4166667 L5.33333333,11.4166667 C5.14433528,11.4166667 5.02368621,11.2150291 5.11303209,11.0484831 L5.11303209,11.0484831 L6.87333333,7.767 L6.87333333,7.21233333 L6.83860669,7.19897007 C6.62697705,7.10695094 6.47697659,6.90408153 6.45791711,6.66642999 L6.45791711,6.66642999 L6.45586239,6.615 C6.45586239,6.28625615 6.70615293,6.01156778 7.03347978,5.98107759 L7.03347978,5.98107759 L7.05666667,5.98 Z M8.91333333,6.48 L7.073,6.48 L7.05435239,6.48375424 C7.00519092,6.49801335 6.96794626,6.53888855 6.95830822,6.58916061 L6.95830822,6.58916061 L6.95586239,6.615 C6.95586239,6.68556805 7.00958968,6.74453257 7.05666667,6.75 L7.05666667,6.75 L7.12333333,6.75 C7.26140452,6.75 7.37333333,6.86192881 7.37333333,7 L7.37333333,7 L7.37333333,7.83 C7.37333333,7.87124112 7.36313067,7.91184171 7.34363458,7.94818359 L7.34363458,7.94818359 L6.47598814,9.56333333 L9.51198814,9.56333333 L8.63028402,7.93926814 C8.62283126,7.92553866 8.61670939,7.9111924 8.61196827,7.89642583 L8.60193709,7.85106167 L8.6,7.82 L8.6,7 C8.6,6.86192881 8.71192881,6.75 8.85,6.75 L8.85,6.75 L8.96209915,6.75106044 C9.00416871,6.74707502 9.04262289,6.72370603 9.06538052,6.68696437 C9.09268968,6.64287437 9.09268968,6.58712563 9.06538052,6.54303563 C9.03807137,6.49894563 8.98815917,6.47411229 8.91333333,6.48 L8.91333333,6.48 Z M13.1433333,7.16 L14.19,8.00333333 L13.1366667,8.84 L13.1433333,7.16 Z M10.08,5.32666667 C10.3266872,5.32666667 10.5266667,5.52664615 10.5266667,5.77333333 C10.5266667,6.02002052 10.3266872,6.22 10.08,6.22 C9.83331281,6.22 9.63333333,6.02002052 9.63333333,5.77333333 C9.63333333,5.52664615 9.83331281,5.32666667 10.08,5.32666667 Z M8,1.20333333 C8.35905281,1.20333333 8.66262786,1.44086188 8.76216197,1.76735579 C11.0873048,2.05119961 13.0895064,3.61827108 13.901733,5.86155614 C13.9487383,5.99137972 13.8816008,6.1347278 13.7517772,6.18173304 C13.6219536,6.22873828 13.4786055,6.16160076 13.4316003,6.03177719 C12.689698,3.98272059 10.8690265,2.54668398 8.74881,2.27026152 C8.63827816,2.57774167 8.34470542,2.79666667 8,2.79666667 C7.65529458,2.79666667 7.36172184,2.57774167 7.2507378,2.2713477 C5.13097355,2.54668398 3.31030198,3.98272059 2.56839971,6.03177719 C2.52139446,6.16160076 2.37804638,6.22873828 2.24822281,6.18173304 C2.11839924,6.1347278 2.05126172,5.99137972 2.09826696,5.86155614 C2.91049357,3.61827108 4.91269518,2.05119961 7.23880665,1.76785114 C7.33737214,1.44086188 7.64094719,1.20333333 8,1.20333333 Z M6.12333333,5.13 C6.33504249,5.13 6.50666667,5.30162418 6.50666667,5.51333333 C6.50666667,5.72504249 6.33504249,5.89666667 6.12333333,5.89666667 C5.91162418,5.89666667 5.74,5.72504249 5.74,5.51333333 C5.74,5.30162418 5.91162418,5.13 6.12333333,5.13 Z M8.07,4.12666667 C8.42346224,4.12666667 8.71,4.41320443 8.71,4.76666667 C8.71,5.12012891 8.42346224,5.40666667 8.07,5.40666667 C7.71653776,5.40666667 7.43,5.12012891 7.43,4.76666667 C7.43,4.41320443 7.71653776,4.12666667 8.07,4.12666667 Z"/>
  </g>
</svg>
