<svg xmlns="http://www.w3.org/2000/svg" viewBox="0 0 16 16">
	<g fill="none">
		<path d="M16 8A8 8 0 1 1 0 8a8 8 0 0 1 16 0" class="ti-tds-positive-bg" fill="#60769e"/>
		<g class="ti-tds-positive-logo" fill="#FFF">
			<path d="M14.444 7.15c-.256-.025-.374-.003-.538.096a.848.848 0 0 0-.004 1.485 5.97 5.97 0 0 1-5.17 5.15.85.85 0 0 0-1.47.004 5.972 5.972 0 0 1-5.197-5.137.85.85 0 0 0-.003-1.518c-.002 0-.003 0-.005-.002a6.085 6.085 0 0 1 3.46-4.638c2.862-1.335 6.31-.233 7.873 2.507l-.731.341 1.538.721.438-1.643-.736.344C12.203 1.838 8.425.617 5.279 2.084A6.641 6.641 0 0 0 1.503 7.16a.85.85 0 0 0 .023 1.665 6.507 6.507 0 0 0 5.63 5.595.852.852 0 0 0 1.689-.004A6.508 6.508 0 0 0 14.44 8.83a.85.85 0 0 0 .73-.84.852.852 0 0 0-.726-.84"/>
			<path d="M6.45 8.151l.272.124.17.506.577-.165.039.017.251.55-.848 1.856-.477-.906-.995.233L6.45 8.151zm1.547-2.804a1.364 1.364 0 1 1 0 2.727 1.364 1.364 0 0 1 0-2.727zm2.559 5.02l-.996-.234-.477.906-.847-1.857.25-.549.04-.017.576.165.171-.506.272-.124 1.011 2.215zm-5.88.624l1.531-.359.732 1.392 1.058-2.319 1.059 2.32.732-1.393 1.531.36-1.37-3.002-.099-.61.508-.417-.393-.527.256-.604-.593-.283-.053-.654-.657.026-.352-.555-.569.328-.569-.328-.352.555-.656-.026-.054.654-.592.283.256.604-.393.527.507.416-.098.611-1.37 3.001z"/>
		</g>
	</g>
</svg>
