<svg xmlns="http://www.w3.org/2000/svg" viewBox="0 0 16 16">
	<path d="M9.102 8.781l-.575-.165-.041.018-.25.548.848 1.857.476-.905.996.232-1.012-2.215-.271.124zm-2.667 1.353l.477.905.847-1.856-.25-.549-.04-.018-.576.165-.171-.505-.271-.124-1.012 2.214zm1.562-2.061a1.363 1.363 0 1 0 0-2.725 1.363 1.363 0 0 0 0 2.725"/>
	<path d="M5.636 6.963l.394-.526-.257-.605.593-.282.054-.654.656.025.352-.555.57.328.568-.328.352.555.656-.025.054.654.592.282-.255.605.393.526-.508.416.098.61 1.37 3.002-1.53-.358-.733 1.392-1.058-2.32-1.058 2.32-.733-1.392-1.53.358 1.37-3.001.098-.611-.508-.416zM14.44 8.83a6.507 6.507 0 0 1-5.595 5.586.852.852 0 0 1-1.689.004 6.507 6.507 0 0 1-5.63-5.596A.85.85 0 0 1 1.5 7.16a6.644 6.644 0 0 1 3.78-5.076c3.144-1.467 6.921-.247 8.617 2.776l.737-.343-.438 1.64-1.539-.718.732-.341c-1.562-2.74-5.01-3.842-7.874-2.507a6.085 6.085 0 0 0-3.46 4.638.847.847 0 0 1 .008 1.519 5.972 5.972 0 0 0 5.198 5.138.853.853 0 0 1 1.471-.004 5.972 5.972 0 0 0 5.17-5.15.849.849 0 0 1 .002-1.486c.165-.098.282-.121.538-.096a.85.85 0 0 1-.004 1.68zM8 0a8 8 0 0 0-8 8 8 8 0 1 0 16 0 8 8 0 0 0-8-8z"/>
</svg>
