<svg xmlns="http://www.w3.org/2000/svg" viewBox="0 0 16 16">
	<g fill="none">
		<path d="M16 8A8 8 0 1 1 0 8a8 8 0 0 1 16 0" class="ti-tic-positive-bg" fill="#009597"/>
		<path d="M8.807 13.911a.848.848 0 0 0-.547-.458v-3.266l2.15.003c.955 0 1.728-.794 1.728-1.774 0-.979-.773-1.774-1.727-1.774-.081 0-.161.008-.238.02a2.219 2.219 0 0 0-4.124-.574.934.934 0 0 0-.192-.022c-.554 0-1.003.461-1.003 1.031 0 .14.028.275.078.397a1.347 1.347 0 0 0-1.083 1.332c0 .751.592 1.358 1.322 1.358l2.652.003v3.264a.85.85 0 0 0-.555.462 5.978 5.978 0 0 1-5.156-5.168.853.853 0 0 0 0-1.507 5.978 5.978 0 0 1 5.169-5.162.852.852 0 0 0 1.519.003 5.978 5.978 0 0 1 5.146 5.138.85.85 0 0 0 0 1.55 5.98 5.98 0 0 1-5.14 5.144m6.344-5.92a.851.851 0 0 0-.662-.829 6.514 6.514 0 0 0-5.61-5.623.851.851 0 1 0-1.674-.003 6.512 6.512 0 0 0-5.63 5.616.852.852 0 0 0-.001 1.678 6.512 6.512 0 0 0 5.633 5.625.852.852 0 0 0 1.665-.003 6.511 6.511 0 0 0 5.618-5.63.851.851 0 0 0 .66-.83" class="ti-tic-positive-logo" fill="#FFF"/>
	</g>
</svg>
