<svg xmlns="http://www.w3.org/2000/svg" viewBox="0 0 16 16">
	<path d="M13.446 7.991a.85.85 0 0 1 .5-.774A5.978 5.978 0 0 0 8.798 2.08a.852.852 0 0 1-1.519-.003 5.979 5.979 0 0 0-5.168 5.162.852.852 0 0 1 0 1.507 5.978 5.978 0 0 0 5.155 5.168.852.852 0 0 1 .555-.462v-3.264l-2.65-.003c-.73 0-1.324-.607-1.324-1.358 0-.665.468-1.216 1.083-1.332a1.05 1.05 0 0 1-.078-.398c0-.569.45-1.03 1.003-1.03.066 0 .13.01.193.022a2.219 2.219 0 0 1 4.123.574 1.56 1.56 0 0 1 .238-.02c.954 0 1.727.794 1.727 1.774s-.773 1.774-1.727 1.774l-2.15-.003v3.266a.845.845 0 0 1 .546.458 5.98 5.98 0 0 0 5.14-5.145.85.85 0 0 1-.5-.775"/>
	<path d="M14.49 8.821a6.512 6.512 0 0 1-5.62 5.631.85.85 0 0 1-1.665.002A6.511 6.511 0 0 1 1.572 8.83a.851.851 0 0 1 .001-1.678 6.512 6.512 0 0 1 5.631-5.616.851.851 0 0 1 1.674.003 6.514 6.514 0 0 1 5.61 5.623.851.851 0 0 1 .001 1.66M8 0a8 8 0 0 0-8 8 8 8 0 1 0 16 0 8 8 0 0 0-8-8"/>
</svg>
