<svg xmlns="http://www.w3.org/2000/svg" viewBox="0 0 16 16">
	<g fill="none">
		<path d="M15.998 7.999A8 8 0 1 1 0 7.999a8 8 0 0 1 15.998 0" class="ti-tmc-positive-bg" fill="#009597"/>
		<g class="ti-tmc-positive-logo" fill="#FFF">
			<path d="M12.317 12.086l-.609-.61-.308.309.608.609a5.948 5.948 0 0 1-3.267 1.534.844.844 0 0 0-.547-.457v-1.106h-.436v1.104a.851.851 0 0 0-.556.462 5.957 5.957 0 0 1-3.338-1.586l.622-.622-.308-.31-.62.62a5.952 5.952 0 0 1-1.512-3.247.853.853 0 0 0 .476-.564h1.01v-.437H2.518a.852.852 0 0 0-.472-.552A5.942 5.942 0 0 1 3.58 3.97l.59.59.31-.308-.593-.592a5.937 5.937 0 0 1 3.326-1.564.85.85 0 0 0 .542.438v1.068h.436V2.534a.845.845 0 0 0 .54-.436 5.953 5.953 0 0 1 3.252 1.51l-.573.574.31.308.573-.574a5.946 5.946 0 0 1 1.586 3.342.853.853 0 0 0-.422.532l-1.013.007v.436l1.013-.007a.855.855 0 0 0 .423.536 5.952 5.952 0 0 1-1.563 3.324m2.814-4.076a.851.851 0 0 0-.713-.84A6.511 6.511 0 0 0 8.81 1.559a.852.852 0 0 0-1.674-.003A6.512 6.512 0 0 0 1.504 7.18a.852.852 0 0 0 0 1.657 6.512 6.512 0 0 0 5.637 5.634.85.85 0 0 0 1.664-.002 6.514 6.514 0 0 0 5.614-5.621.852.852 0 0 0 .712-.84"/>
			<path d="M7.973 9.084a1.096 1.096 0 1 1 0-2.192 1.096 1.096 0 1 1 0 2.192zm1.965-.943a1.994 1.994 0 0 0-.113-.818l.735-.65-.948.227a1.98 1.98 0 0 0-.633-.6l.391-2.59-1.255 2.317a1.967 1.967 0 0 0-.916.148l-.66-.744.238.99a2.017 2.017 0 0 0-.508.565l-1.81-.09 1.537.959c-.003.047-.007.095-.007.144 0 .214.035.42.098.613l-.76.672.967-.232c.167.264.395.487.664.647l-.522 2.59L7.822 9.97c.048.004.096.008.146.008.253 0 .495-.05.718-.138l.647.729-.229-.954c.227-.16.418-.366.56-.605l1.81.104-1.536-.974z"/>
			<path d="M7.973 7.473a.513.513 0 1 0 0 1.029.515.515 0 1 0 0-1.029"/>
		</g>
	</g>
</svg>
