<svg xmlns="http://www.w3.org/2000/svg" viewBox="0 0 16 16">
	<g fill-rule="evenodd">
		<path d="M12.848 12.573l-.682-.681-.345.345.681.681a6.658 6.658 0 0 1-3.659 1.719.955.955 0 0 0-.613-.513v-1.238h-.489v1.237a.952.952 0 0 0-.622.517 6.658 6.658 0 0 1-3.739-1.777l.697-.695-.346-.346-.695.694a6.665 6.665 0 0 1-1.692-3.639.95.95 0 0 0 .532-.633h1.131v-.487H1.873a.956.956 0 0 0-.528-.62 6.66 6.66 0 0 1 1.716-3.654l.662.66.345-.344-.662-.663a6.655 6.655 0 0 1 3.725-1.753c.121.24.341.421.607.492v1.196h.488V1.875a.955.955 0 0 0 .605-.49 6.66 6.66 0 0 1 3.642 1.694l-.64.64.345.347.643-.643a6.662 6.662 0 0 1 1.777 3.742.958.958 0 0 0-.473.596l-1.135.008v.49l1.134-.008c.07.26.243.476.475.599a6.664 6.664 0 0 1-1.75 3.723M15.2 7.067A7.294 7.294 0 0 0 8.92.782.953.953 0 0 0 7.045.778 7.295 7.295 0 0 0 .737 7.08a.954.954 0 0 0 0 1.856 7.295 7.295 0 0 0 6.313 6.311.953.953 0 0 0 1.864-.003 7.295 7.295 0 0 0 6.288-6.296.953.953 0 0 0 0-1.88"/>
		<path d="M7.982 9.212a1.227 1.227 0 1 1 0-2.457 1.228 1.228 0 1 1 0 2.457m2.21-1.217a2.21 2.21 0 0 0-.136-.756l.824-.728-1.063.254a2.229 2.229 0 0 0-.709-.67l.44-2.904L8.14 5.787a2.207 2.207 0 0 0-1.026.166l-.737-.834.266 1.11a2.237 2.237 0 0 0-.57.632l-2.027-.1 1.721 1.072a2.208 2.208 0 0 0 .102.85l-.853.753 1.085-.26c.188.296.444.545.745.724v.001l-.585 2.9 1.553-2.597c.053.004.106.01.162.01.285 0 .555-.057.805-.155l.724.816-.256-1.067c.255-.18.467-.41.628-.679l2.025.116-1.718-1.09c.004-.053.008-.106.008-.16"/>
		<path d="M7.982 7.407a.577.577 0 1 0 0 1.154.577.577 0 0 0 0-1.154"/>
	</g>
</svg>
