<svg xmlns="http://www.w3.org/2000/svg" viewBox="0 0 16 16">
	<g fill-rule="evenodd">
		<path d="M7.973 8.502a.514.514 0 1 1 0-1.028.514.514 0 0 1 0 1.028m0-1.61a1.096 1.096 0 1 0 0 2.192 1.096 1.096 0 1 0 0-2.192"/>
		<path fill-rule="nonzero" d="M9.665 9.01a1.966 1.966 0 0 1-.561.606l.229.955-.646-.73a1.953 1.953 0 0 1-.72.138c-.048 0-.096-.004-.144-.008l-1.387 2.318.523-2.59a1.988 1.988 0 0 1-.665-.647l-.968.232.76-.671a1.983 1.983 0 0 1-.097-.614c0-.05.004-.096.008-.144L4.46 6.897l1.81.09c.13-.22.304-.412.508-.566l-.238-.99.659.744c.237-.1.496-.155.769-.155.05 0 .098.004.147.008L9.37 3.71 8.98 6.3c.252.152.469.357.632.6l.949-.226-.736.65c.077.21.12.438.12.675 0 .048-.003.095-.006.142l1.535.974-1.81-.104zm3.792-.784l-1.012.008v-.437l1.013-.007a.85.85 0 0 1 .422-.532 5.946 5.946 0 0 0-1.586-3.342l-.574.574-.31-.308.573-.572a5.94 5.94 0 0 0-3.251-1.512.85.85 0 0 1-.54.436v1.068h-.436V2.534a.85.85 0 0 1-.542-.438A5.943 5.943 0 0 0 3.888 3.66l.59.592-.307.309-.59-.591a5.952 5.952 0 0 0-1.533 3.264c.23.103.405.305.47.55h1.014v.437h-1.01a.853.853 0 0 1-.474.565 5.93 5.93 0 0 0 1.51 3.248l.62-.62.309.309-.622.622a5.95 5.95 0 0 0 3.338 1.586.851.851 0 0 1 .556-.462v-1.104h.436v1.106a.846.846 0 0 1 .547.457 5.948 5.948 0 0 0 3.267-1.534l-.61-.61.31-.307.609.609a5.943 5.943 0 0 0 1.563-3.324.857.857 0 0 1-.424-.536z"/>
		<path d="M14.42 8.848a6.512 6.512 0 0 1-5.614 5.62.85.85 0 0 1-1.664.004 6.513 6.513 0 0 1-5.639-5.634.851.851 0 0 1 .002-1.657 6.512 6.512 0 0 1 5.631-5.625.852.852 0 0 1 1.674.002 6.511 6.511 0 0 1 5.608 5.612.852.852 0 0 1 .002 1.678M8 0a7.999 7.999 0 0 0-8 8 7.999 7.999 0 1 0 15.997 0A7.998 7.998 0 0 0 8-.002"/>
	</g>
</svg>
