<svg xmlns="http://www.w3.org/2000/svg" viewBox="0 0 16 16">
  <g>
    <circle class="ti-background" cx="8" cy="8" r="8" fill="#19426C"/>
    <path class="ti-foreground" fill="#FFF" fill-rule="nonzero" d="M8,1.17666667 C8.37008927,1.17666667 8.68123785,1.4290218 8.77075767,1.771044 C11.6206593,2.11896492 13.8804639,4.37847614 14.2297399,7.22863461 C14.5710113,7.31880294 14.8233333,7.62993498 14.8233333,8 C14.8233333,8.37006502 14.5710113,8.68119706 14.2290233,8.77074006 C13.8809942,11.6209937 11.6209937,13.8809942 8.77036226,14.2298627 C8.68119706,14.5710113 8.37006502,14.8233333 8,14.8233333 C7.62993498,14.8233333 7.31880294,14.5710113 7.22925994,14.2290233 C4.37847614,13.8804639 2.11896492,11.6206593 1.77013727,8.77036226 C1.4290218,8.68123785 1.17666667,8.37008927 1.17666667,8 C1.17666667,7.62991073 1.4290218,7.31876215 1.771044,7.22924233 C2.11949508,4.37881051 4.37881051,2.11949508 7.22863461,1.77026011 C7.31876215,1.4290218 7.62991073,1.17666667 8,1.17666667 Z M8.73847198,2.2700932 L8.70332468,2.34785035 C8.60781284,2.5268431 8.44597071,2.6650928 8.25061671,2.72978102 L8.25,3.87666667 C8.25,4.01473785 8.13807119,4.12666667 8,4.12666667 C7.87343474,4.12666667 7.76883635,4.03261537 7.75228221,3.91059019 L7.75,3.87666667 L7.74938329,2.72978102 C7.52706869,2.65616524 7.34815411,2.48728262 7.26100719,2.27150077 C4.66170597,2.60183317 2.60183317,4.66170597 2.2700932,7.26152802 C2.48728262,7.34815411 2.65616524,7.52706869 2.72978102,7.74938329 L3.87666667,7.75 C4.01473785,7.75 4.12666667,7.86192881 4.12666667,8 C4.12666667,8.12656526 4.03261537,8.23116365 3.91059019,8.24771779 L3.87666667,8.25 L2.72978102,8.25061671 C2.65616524,8.47293131 2.48728262,8.65184589 2.27150077,8.73899281 C2.60183317,11.338294 4.66170597,13.3981668 7.26152802,13.7299068 C7.34815411,13.5127174 7.52706869,13.3438348 7.74938329,13.270219 L7.75,12.1233333 C7.75,11.9852621 7.86192881,11.8733333 8,11.8733333 C8.12656526,11.8733333 8.23116365,11.9673846 8.24771779,12.0894098 L8.25,12.1233333 L8.25061671,13.270219 C8.47293131,13.3438348 8.65184589,13.5127174 8.73899281,13.7284992 C11.338294,13.3981668 13.3981668,11.338294 13.7299068,8.73847198 C13.5127174,8.65184589 13.3438348,8.47293131 13.270219,8.25061671 L12.1233333,8.25 C11.9852621,8.25 11.8733333,8.13807119 11.8733333,8 C11.8733333,7.87343474 11.9673846,7.76883635 12.0894098,7.75228221 L12.1233333,7.75 L13.270219,7.74938329 C13.3438348,7.52706869 13.5127174,7.34815411 13.7284992,7.26100719 C13.3981668,4.66170597 11.338294,2.60183317 8.73847198,2.2700932 Z M9.43333333,3.55333333 L9.02666667,6.24 C9.29270049,6.39531719 9.52051334,6.6083222 9.69333333,6.86333333 L9.69333333,6.86333333 L10.6766667,6.63 L9.91666667,7.29666667 C9.99693925,7.52253312 10.0386325,7.76029712 10.04,8 L10.04,8 L10.04,8.14666667 L11.6266667,9.13666667 L9.75,9.03 C9.60403228,9.2782054 9.40619058,9.4919654 9.17,9.65666667 L9.17,9.65666667 L9.40666667,10.6566667 L8.74,9.9 C8.50326904,9.99351002 8.25119406,10.0421164 7.99666667,10.0433333 L7.99666667,10.0433333 L7.84333333,10.0433333 L6.40666667,12.4466667 L6.94666667,9.76 L6.78550704,9.65297741 C6.57778346,9.5007471 6.39946976,9.31114597 6.26,9.09333333 L6.26,9.09333333 L5.26,9.33333333 L6.05666667,8.64 C5.99108223,8.43411412 5.95735933,8.21941163 5.95666667,8.00333333 L5.95666667,8.00333333 L5.95666667,7.85333333 L4.36333333,6.85333333 L6.24,6.94666667 C6.37621613,6.71907769 6.55503533,6.51988669 6.76666667,6.36 L6.76666667,6.36 L6.52,5.33333333 L7.18,6.11666667 C7.43335966,6.01061937 7.70534212,5.95622288 7.98,5.95666667 L7.98,5.95666667 L8.13,5.95666667 L9.43333333,3.55333333 Z M8.45657043,6.94140979 C8.03351667,6.76070554 7.54325402,6.85281748 7.21463669,7.17474783 C6.88601935,7.49667819 6.78384911,7.98494381 6.95581896,8.4116227 C7.12778881,8.8383016 7.53998709,9.1192547 8,9.12333333 C8.62648538,9.12888797 9.1393422,8.62646718 9.14666667,8 C9.15204484,7.54000045 8.87962419,7.12211404 8.45657043,6.94140979 Z M8,7.45333333 C8.14144879,7.45333333 8.27710421,7.50952365 8.37712362,7.60954305 C8.47714302,7.70956245 8.53333333,7.84521787 8.53333333,7.98666667 C8.53333333,8.28121853 8.29455187,8.52 8,8.52 C7.70544813,8.52 7.46666667,8.28121853 7.46666667,7.98666667 C7.46666667,7.6921148 7.70544813,7.45333333 8,7.45333333 Z"/>
  </g>
</svg>
