<svg xmlns="http://www.w3.org/2000/svg" viewBox="0 0 16 16">
  <g>
    <path d="M10.9998565,9.33321741 C11.0036406,9.51112176 10.9324245,9.68282544 10.8026656,9.80864956 C10.6988584,9.90930886 10.5647701,9.97363689 10.4213515,9.99346305 L10.3123655,9.99986089 L6,9.999 L5.99992931,12.9998609 L12.4998206,12.9998609 L14.7499527,10 L12.4998104,7.00012547 L10.999,7 L10.9998565,9.33321741 Z M10.0000707,3.00013911 L2.17790116,3.00013911 L4.75599887,6 L2.17790116,8.99990304 L9.99986781,9.0000544 L10.0000707,3.00013911 Z M0,9.99986089 L3.43745517,6 L0,2.00013911 L10.3123655,2.00013911 C10.4958334,1.9964698 10.6729066,2.06552632 10.8026656,2.19135044 C10.9064727,2.29200974 10.9728125,2.42203195 10.9932586,2.56110149 L10.9998565,2.66678259 L10.999,6 L12.9997891,6.00013911 L16,10 L12.9997891,13.9998609 L5.68763449,13.9998609 C5.50416664,14.0035302 5.32709338,13.9344737 5.19733443,13.8086496 C5.09352727,13.7079903 5.02718755,13.577968 5.00674138,13.4388985 L5.00014346,13.3332174 L5,9.999 L0,9.99986089 Z"/>
  </g>
</svg>
