<svg xmlns="http://www.w3.org/2000/svg" viewBox="0 0 16 16">
  <g>
    <path d="M6.00020867,2.00020867 L9.00020867,8.00020867 L6.00020867,14.0002087 L1.00020867,14.0002087 C0.733342866,14.0057128 0.475778391,13.9021244 0.287035642,13.7133817 C0.129750017,13.5560961 0.0315993703,13.3510176 0.00643680819,13.1325909 L0.000208665916,13.0002087 L0.000208665916,3.00020867 C-0.00529548925,2.73334287 0.0982928921,2.47577839 0.287035642,2.28703564 C0.444321266,2.12975002 0.649399755,2.03159937 0.867826434,2.00643681 L1.00020867,2.00020867 L6.00020867,2.00020867 Z M2.93659942,10.2017291 C2.69068081,10.2017291 2.48703251,10.2862624 2.32564841,10.4553314 C2.16426432,10.6244005 2.08357349,10.839576 2.08357349,11.1008646 C2.08357349,11.3621531 2.16426432,11.5773286 2.32564841,11.7463977 C2.48703251,11.9154667 2.69068081,12 2.93659942,12 C3.18251804,12 3.38808755,11.9154667 3.55331412,11.7463977 C3.71854069,11.5773286 3.80115274,11.3621531 3.80115274,11.1008646 C3.80115274,10.839576 3.71854069,10.6244005 3.55331412,10.4553314 C3.38808755,10.2862624 3.18251804,10.2017291 2.93659942,10.2017291 Z M3.01729107,4 C2.59461844,4 2.21421879,4.09413931 1.87608069,4.28242075 C1.53794259,4.47070219 1.24591862,4.71085349 1,5.00288184 L1,5.00288184 L1.73775216,5.68299712 C1.90682121,5.49855816 2.08741499,5.35254617 2.2795389,5.24495677 C2.47166282,5.13736738 2.68683839,5.08357349 2.92507205,5.08357349 C3.2171004,5.08357349 3.44572444,5.16810674 3.61095101,5.33717579 C3.77617758,5.50624484 3.85878963,5.72910524 3.85878963,6.00576369 C3.85878963,6.18251769 3.816523,6.34774179 3.73198847,6.50144092 C3.64745395,6.65514006 3.54178738,6.8107581 3.41498559,6.96829971 C3.2881838,7.12584133 3.15369908,7.287223 3.01152738,7.45244957 C2.86935568,7.61767614 2.74255579,7.7963487 2.63112392,7.98847262 C2.51969205,8.18059654 2.43515879,8.39192968 2.37752161,8.62247839 C2.31988444,8.85302709 2.31027839,9.10662686 2.34870317,9.3832853 L2.34870317,9.3832853 L3.5129683,9.3832853 C3.48222847,9.13736669 3.50336179,8.91450628 3.57636888,8.71469741 C3.64937597,8.51488853 3.74543648,8.32660991 3.86455331,8.14985591 C3.98367014,7.9731019 4.11815487,7.80403539 4.26801153,7.6426513 L4.26801153,7.6426513 L4.41466557,7.47870621 C4.51029997,7.36770203 4.60166463,7.25328269 4.68876081,7.13544669 C4.81940507,6.95869268 4.92891406,6.77233527 5.01729107,6.57636888 C5.10566807,6.38040248 5.14985591,6.15946329 5.14985591,5.91354467 C5.14985591,5.59846144 5.09798323,5.32180715 4.99423631,5.08357349 C4.89048939,4.84533983 4.7425562,4.64553395 4.55043228,4.48414986 C4.35830836,4.32276576 4.13160553,4.20172951 3.870317,4.12103746 C3.60902847,4.04034542 3.32468934,4 3.01729107,4 Z M8.00020867,2.00020867 L15.0002087,2.00020867 C15.2670745,1.99470451 15.5246389,2.09829289 15.7133817,2.28703564 C15.8706673,2.44432127 15.968818,2.64939976 15.9939805,2.86782643 L16.0002087,3.00020867 L16.0002087,13.0002087 C16.0057128,13.2670745 15.9021244,13.5246389 15.7133817,13.7133817 C15.5560961,13.8706673 15.3510176,13.968818 15.1325909,13.9939805 L15.0002087,14.0002087 L12,14.0002087 L8.00020867,14.0002087 L11.0002087,8.00020867 L8.00020867,2.00020867 Z"/>
  </g>
</svg>
