<svg xmlns="http://www.w3.org/2000/svg" viewBox="0 0 16 16">
  <g>
    <path d="M6.00020867,2.00020867 L9.00020867,8.00020867 L6.00020867,14.0002087 L1.00020867,14.0002087 C0.733342866,14.0057128 0.475778391,13.9021244 0.287035642,13.7133817 C0.129750017,13.5560961 0.0315993703,13.3510176 0.00643680819,13.1325909 L0.000208665916,13.0002087 L0.000208665916,3.00020867 C-0.00529548925,2.73334287 0.0982928921,2.47577839 0.287035642,2.28703564 C0.444321266,2.12975002 0.649399755,2.03159937 0.867826434,2.00643681 L1.00020867,2.00020867 L6.00020867,2.00020867 Z M7.00020867,2.00020867 L15.0002087,2.00020867 C15.2670745,1.99470451 15.5246389,2.09829289 15.7133817,2.28703564 C15.8706673,2.44432127 15.968818,2.64939976 15.9939805,2.86782643 L16.0002087,3.00020867 L16.0002087,13.0002087 C16.0057128,13.2670745 15.9021244,13.5246389 15.7133817,13.7133817 C15.5560961,13.8706673 15.3510176,13.968818 15.1325909,13.9939805 L15.0002087,14.0002087 L7.00020867,14.0002087 L10.0002087,8.00020867 L7.00020867,2.00020867 Z M1.00020713,2.99999691 L0.999996472,13.0002102 L5.38217468,13.0002102 L7.88217468,8.00020867 L5.38216159,3.00018249 L1.00020713,2.99999691 Z M15.0004209,3.00020712 L8.61822121,3.00020712 L11.1182427,8.00020712 L8.61822121,13.0002516 L15.0002102,13.0004208 L15.0004209,3.00020712 Z"/>
  </g>
</svg>
