<svg xmlns="http://www.w3.org/2000/svg" viewBox="0 0 16 16">
	<path d="M11 1H1a.98.98 0 0 0-1 1v12a.98.98 0 0 0 1 1h10l3-7zm-1 13H2a.98.98 0 0 1-1-1V3a.98.98 0 0 1 1-1h8l3 6zm6-12v12a.98.98 0 0 1-1 1h-3l3-7-3-7h3a.98.98 0 0 1 1 1zM7.56 7.88c-.706.37-.595 1.642-.595 1.822a.292.292 0 0 1-.25.298H5.224C5.087 10 5 9.789 5 9.652v-.28a2.731 2.731 0 0 1 1.293-2.647c.48-.214.677-.423.677-.82 0-.349-.453-.66-.957-.66a1.271 1.271 0 0 0-.671.181 3.51 3.51 0 0 0-.666.715.258.258 0 0 1-.192.099.29.29 0 0 1-.155-.05l-1.02-.777a.253.253 0 0 1-.063-.326A3.155 3.155 0 0 1 6.13 3.43a2.787 2.787 0 0 1 2.823 2.486A2.145 2.145 0 0 1 7.56 7.881zM6.753 13H5.248A.249.249 0 0 1 5 12.752v-1.504A.249.249 0 0 1 5.248 11h1.504a.249.249 0 0 1 .248.248v1.504a.249.249 0 0 1-.248.248z"/>
</svg>
