<svg xmlns="http://www.w3.org/2000/svg" focusable="false" class="sr-only"><symbol id="talend-file-cog"><svg xmlns="http://www.w3.org/2000/svg" viewBox="0 0 32 32">
	<path class="ti-file" d="M17 19a6.055 6.055 0 0 0-.108-1.12L19 16.01l-2.656-2.992-1.526 1.354A5.985 5.985 0 0 0 13 13.35V11H9v2.35a5.985 5.985 0 0 0-1.818 1.022l-1.526-1.354L3 16.01l2.108 1.87a5.848 5.848 0 0 0 0 2.241L3 21.992l2.656 2.99 1.526-1.353A6.008 6.008 0 0 0 9 24.652V27h4v-2.348a6.009 6.009 0 0 0 1.818-1.023l1.526 1.353L19 21.992l-2.108-1.87A6.05 6.05 0 0 0 17 19zm-6 3a3 3 0 1 1 3-3 3.003 3.003 0 0 1-3 3z"/>
	<path class="ti-file-cog-o-badge" d="M22 0H6v11h2V2h11v10h11v18H8v-3H6v5h26V10zm-1 10V2l8 8z"/>
</svg>
</symbol><symbol id="talend-file-compressed"><svg xmlns="http://www.w3.org/2000/svg" viewBox="0 0 32 32">
	<path class="ti-file" d="M22 0H6v32h4v-2H8V2h11v10h11v18H19v2h13V10zm-1 10V2l8 8z"/>
	<path class="ti-file-compressed-o-badge" d="M13 32h4v-2h-2v-2h2v-2h-2v-2h2v-2h-2v-2h2v-2h-2v-2h2v-2h-2v-2h2v-2h-4v2h-2v2h2v2h-2v2h2v2h-2v2h2v2h-2v2h2v2h-2v2h2v2z"/>
</svg>
</symbol><symbol id="talend-file-connect-o"><svg xmlns="http://www.w3.org/2000/svg" viewBox="0 0 16 16">
  <g>
    <path class="ti-background"  fill="#FF6E70" d="M16,8 C16,12.4188737 12.4182648,16.0006088 8,16.0006088 C3.58173516,16.0006088 0,12.4188737 0,8 C0,3.58173516 3.58173516,5.34996883e-14 8,5.34996883e-14 C12.4182648,5.34996883e-14 16,3.58173516 16,8"/>
    <path class="ti-foreground" fill="#FFF" d="M10.1780168,11.4316034 C10.151395,11.354158 10.1138824,11.282158 10.0648739,11.2162084 C10.0164706,11.1496538 9.97895798,11.1230319 9.95233613,11.1363429 C9.78413445,11.2198387 9.60020168,11.2912336 9.40114286,11.3487126 C9.20208403,11.4061916 9.02904202,11.4352336 8.88322689,11.4352336 C8.7192605,11.4352336 8.59401681,11.397721 8.50810084,11.325721 C8.42157983,11.2525109 8.35986555,11.1169815 8.32235294,10.9203429 C8.28423529,10.7237042 8.26547899,10.4363092 8.26547899,10.0599731 L8.26547899,6.24276303 L9.69337815,6.24276303 C9.74178151,6.24276303 9.78715966,6.19617479 9.82951261,6.10239328 C9.8712605,6.01042689 9.89243697,5.89546891 9.89243697,5.75812437 C9.89243697,5.70004034 9.87791597,5.64861176 9.84887395,5.60504874 C9.82043697,5.56088067 9.78171429,5.53667899 9.73331092,5.5324437 L8.26547899,5.5324437 L8.26547899,3.6792 C8.26547899,3.60235966 8.21465546,3.54790588 8.1245042,3.51099832 C7.95811765,3.45896471 7.86070588,3.63987227 7.86070588,3.63987227 C7.41418487,4.67207395 6.53747899,5.46891429 5.4532437,5.80834286 C5.4532437,5.80834286 5.23179832,5.86098151 5.28867227,6.09271261 C5.29532773,6.11267899 5.30137815,6.13264538 5.31105882,6.15261176 C5.34191597,6.21735126 5.37942857,6.25062857 5.42359664,6.25607395 L6.13391597,6.25607395 L6.13391597,10.6517042 C6.13391597,11.2755025 6.32329412,11.7117378 6.70205042,11.959805 C7.08020168,12.2072672 7.58843697,12.3306958 8.22554622,12.3306958 C8.42521008,12.3306958 8.65633613,12.2937882 8.91952941,12.218763 C9.18272269,12.1431328 9.43078992,12.0469311 9.66312605,11.9295529 C9.89606723,11.8127798 10.0672941,11.6941916 10.1780168,11.5737882 C10.2046387,11.5568471 10.2046387,11.5090487 10.1780168,11.4316034"/>
  </g>
</svg>
</symbol><symbol id="talend-file-csv-o"><svg xmlns="http://www.w3.org/2000/svg" viewBox="0 0 32 32">
	<path class="ti-file" d="M22 0H6v14h2V2h11v10h11v18H8v-2H6v4h26V10zm-1 10V2l8 8z"/>
	<path class="ti-file-csv-o-badge" d="M8 15H0v12h26V15zm.12 9.682a3.403 3.403 0 0 1-1.395.293 4.348 4.348 0 0 1-1.48-.25 3.415 3.415 0 0 1-1.224-.76 3.602 3.602 0 0 1-.832-1.272 4.79 4.79 0 0 1-.306-1.78 4.669 4.669 0 0 1 .318-1.78 3.875 3.875 0 0 1 .857-1.31A3.71 3.71 0 0 1 5.3 17.01a3.931 3.931 0 0 1 1.473-.281 3.012 3.012 0 0 1 1.377.311 4.036 4.036 0 0 1 1.046.74l-1.15 1.297a2.759 2.759 0 0 0-.574-.397 1.494 1.494 0 0 0-.673-.14 1.53 1.53 0 0 0-.68.158 1.668 1.668 0 0 0-.562.453 2.237 2.237 0 0 0-.38.722 3.088 3.088 0 0 0-.14.967 2.737 2.737 0 0 0 .47 1.724 1.502 1.502 0 0 0 1.242.6 1.687 1.687 0 0 0 .802-.178 2.168 2.168 0 0 0 .594-.458l1.149 1.273a3.384 3.384 0 0 1-1.174.88zm7.328-1.286a2.336 2.336 0 0 1-.605.814 3 3 0 0 1-.973.557 3.877 3.877 0 0 1-1.321.208 4.783 4.783 0 0 1-1.56-.276 4.133 4.133 0 0 1-1.45-.862l1.2-1.443a4.004 4.004 0 0 0 .923.556 2.363 2.363 0 0 0 .936.214 1.255 1.255 0 0 0 .691-.146.476.476 0 0 0 .214-.416.4.4 0 0 0-.073-.246.755.755 0 0 0-.214-.183 2.468 2.468 0 0 0-.337-.165c-.13-.053-.281-.112-.452-.178l-.991-.416a2.93 2.93 0 0 1-.613-.324 2.383 2.383 0 0 1-.513-.477 2.215 2.215 0 0 1-.349-.63 2.284 2.284 0 0 1-.128-.783 2.148 2.148 0 0 1 .22-.96 2.45 2.45 0 0 1 .612-.784 2.962 2.962 0 0 1 .936-.532 3.52 3.52 0 0 1 1.193-.195 4.044 4.044 0 0 1 1.389.256 3.411 3.411 0 0 1 1.254.808l-1.053 1.321a3.865 3.865 0 0 0-.777-.428 2.21 2.21 0 0 0-.813-.147 1.174 1.174 0 0 0-.612.135.443.443 0 0 0-.22.403.473.473 0 0 0 .311.435q.312.154.863.361l.967.38a2.618 2.618 0 0 1 1.15.82 2.163 2.163 0 0 1 .403 1.357 2.34 2.34 0 0 1-.208.966zM21 25h-3l-2-8h2l.984 3.35q.172.637.294 1.254c.081.412.179.834.293 1.266h.05c.113-.432.214-.854.299-1.266q.129-.618.288-1.254L21 17h2z"/>
</svg>
</symbol><symbol id="talend-file-database-o"><svg xmlns="http://www.w3.org/2000/svg" viewBox="0 0 32 32">
	<path class="ti-file" d="M0 12v4h16v-4zm2 3H1v-2h1zm2 0H3v-2h1zm2 0H5v-2h1zm9 0h-2v-2h2zM0 17v4h16v-4zm2 3H1v-2h1zm2 0H3v-2h1zm2 0H5v-2h1zm-6 2v4h16v-4zm2 3H1v-2h1zm2 0H3v-2h1zm2 0H5v-2h1z"/>
	<path class="ti-file-database-o-badge" d="M22 0H6v11h2V2h11v10h11v18H8v-3H6v5h26V10zm-1 10V2l8 8z"/>
</svg>
</symbol><symbol id="talend-file-hdfs-o"><svg xmlns="http://www.w3.org/2000/svg" viewBox="0 0 32 32">
	<path class="ti-file" d="M22 0H6v10h2V2h11v10h11v18H8v-3H6v5h26V10zm-1 10V2l8 8z"/>
	<path class="ti-file-hdfs-o-badge" d="M7.829 12.838a.127.127 0 0 0 .148-.068 2.58 2.58 0 0 1 1.491-1.505.136.136 0 0 0 .086-.169.129.129 0 0 0-.142-.094.124.124 0 0 0-.032.006 4.69 4.69 0 0 0-.595.184.13.13 0 0 0-.146-.114l-.01.002a1.137 1.137 0 0 0-.546.244 1.193 1.193 0 0 0-.269.552.136.136 0 0 0 .089.166.123.123 0 0 0 .049.005 4.723 4.723 0 0 0-.213.624.136.136 0 0 0 .09.167zm11.573 4.914a3.716 3.716 0 0 1-1.672 3.03 3.71 3.71 0 0 1-2.387.296l-.125.428a1.616 1.616 0 0 1-1.403 1.09 1.168 1.168 0 0 1-.69-.177 2.808 2.808 0 0 1-.513-.44l-.344-.348-.007.052c.128.277.2.52.307.789a2.382 2.382 0 0 1 .213.92c.008.302.018.605.025.907a.969.969 0 0 1 .12.605.771.771 0 0 1-.314.651 1.248 1.248 0 0 1-.67.125 25.99 25.99 0 0 1-.99-.02 2.742 2.742 0 0 1-.432-.052.628.628 0 0 1-.207-.099c-.137.118-.3.253-.45.381-.088.075-.166.143-.232.197a1.505 1.505 0 0 1-.126.092c-.073.12-.122.226-.188.33a.876.876 0 0 1-.32.301 1.056 1.056 0 0 1-1.146.04 2.94 2.94 0 0 1-.795-.96 3.677 3.677 0 0 1-.413-.835 1.063 1.063 0 0 1-.044-.5.578.578 0 0 1 .3-.4l.07-.04a5.895 5.895 0 0 1-1.01-.039l.007.053a1.634 1.634 0 0 1 .019.414.936.936 0 0 1-.163.381 2.859 2.859 0 0 0-.307.578 2.022 2.022 0 0 1-.063.75.626.626 0 0 1-.375.427 1.323 1.323 0 0 1-.577.066 5.318 5.318 0 0 1-1.077-.224 3.356 3.356 0 0 1-.933-.342.715.715 0 0 1-.307-.38.859.859 0 0 1 .062-.592 3.072 3.072 0 0 0 .107-.31 1.3 1.3 0 0 1-.708-.157 2.876 2.876 0 0 1-.764-.565 2.271 2.271 0 0 1-.595-1.21.639.639 0 0 1 .018-.394 1.13 1.13 0 0 1 .238-.283l.596-.618.225-.638a5.245 5.245 0 0 1-.069-.5 6.248 6.248 0 0 1 .038-1.55.888.888 0 0 1-.426 0 .793.793 0 0 1-.501-.441 2.83 2.83 0 0 1-.163-.546l-.007-.013a.858.858 0 0 1-.225-.69 1.426 1.426 0 0 1 .357-.69 2.873 2.873 0 0 1 .589-.5 1.546 1.546 0 0 1 .52-.243.123.123 0 0 1 .065.006.137.137 0 0 1 .079.172 2.858 2.858 0 0 0-.295 1.203 2.15 2.15 0 0 1-.025.289.844.844 0 0 1-.2.388l.006.006c.021-.007.044-.01.082-.026a2.097 2.097 0 0 0 .701-.618 4.584 4.584 0 0 1 .99-1.347 6.331 6.331 0 0 1 3.683-1.598c.207-.224.417-.439.645-.65a1.33 1.33 0 0 1 .865-.401A4.017 4.017 0 0 1 9.8 11.718a4.995 4.995 0 0 1 2.324-.546 3.509 3.509 0 0 1 2.085.967 13.307 13.307 0 0 0 1.335 1.13 2.487 2.487 0 0 1 .657.552 3.614 3.614 0 0 1 .533.894 1.457 1.457 0 0 0 .407-.217c.178-.16.306-.462.526-.696a.473.473 0 0 1 .332-.145.852.852 0 0 1 .351.072.967.967 0 0 1 .507.421 7.853 7.853 0 0 1 .545 3.602zm-2.626-2.73a1.172 1.172 0 0 1 .38.203c.239.198.902-.676.937-.983l-.052-.078a.086.086 0 0 0-.07.026 7.743 7.743 0 0 1-.634.6 3.243 3.243 0 0 1-.561.232zM.86 17.32a4.539 4.539 0 0 1 .063-.592 1.856 1.856 0 0 0-.301.355.784.784 0 0 0-.132.368.443.443 0 0 0 .132.335.132.132 0 0 1 .019-.02.574.574 0 0 0 .219-.446zm1.672 6.632a9.27 9.27 0 0 1-.914-1.972l-.006.02a.137.137 0 0 1-.026.046l-.582.618a1.003 1.003 0 0 0-.113.131c-.005.011-.013.03 0 .132a1.576 1.576 0 0 0 .426.808 2.543 2.543 0 0 0 .595.447.832.832 0 0 0 .332.106.207.207 0 0 0 .2-.092.752.752 0 0 0 .088-.244zm9.728.434l-.025-.973a1.77 1.77 0 0 0-.169-.723c-.015-.038-.019-.068-.031-.105-.081.253-.162.498-.244.77a5.624 5.624 0 0 1-.47.985 4.425 4.425 0 0 1-.508.723.879.879 0 0 0 .2.04c.068.006.27.01.47.013s.4-.002.483 0a.661.661 0 0 0 .307-.033c.035-.026.07-.092.088-.29.016-.2.015-.169-.082-.348a.14.14 0 0 1-.019-.059zm2.724-3.397c-.062.07-1.182-.624-1.27-.58.006.014-.455 1.484.239 1.515.759.035 1.031-.935 1.031-.935zm3.453-6.456a.844.844 0 0 0-.094-.112 1.614 1.614 0 0 1-.959 1.091.748.748 0 0 1-.426.033 2.133 2.133 0 0 1-.244-.072c-.004.034-.023.047-.013.105a3.427 3.427 0 0 1 .013 1.282 3.229 3.229 0 0 1-.363 1.157.125.125 0 0 1-.135.047.136.136 0 0 1-.09-.165 7.802 7.802 0 0 0 .168-1.065 3.073 3.073 0 0 0-.037-.526.525.525 0 0 0-.176.099.732.732 0 0 0-.156.177c-.163.348-.168.702-.382 1.091a.126.126 0 0 1-.171.062.138.138 0 0 1-.061-.18 1.802 1.802 0 0 0 .1-.546 2.517 2.517 0 0 1 .113-.637c.006-.017.018-.03.025-.046a.634.634 0 0 0-.244.243 3.881 3.881 0 0 1-.345.611.125.125 0 0 1-.17.035.139.139 0 0 1-.043-.186 7.308 7.308 0 0 0 .27-.736.779.779 0 0 1 .618-.46.77.77 0 0 1 .202-.03 1.54 1.54 0 0 1 .33.02l-.012-.059c-.046-.005-.274-.01-.26-.01a2.98 2.98 0 0 0-.503.046c-.055.007-.145-.022-.132-.078.085-.345-.053-.552-.112-.573a.137.137 0 0 1 .025-.257 2.84 2.84 0 0 1 .908-.23 5.418 5.418 0 0 0-.281-.493 1.309 1.309 0 0 0-.508-.44 48.9 48.9 0 0 1-1.36-1.111 2.94 2.94 0 0 0-1.847-.861v.002a4.764 4.764 0 0 0-2.136.558 2.644 2.644 0 0 0-1.115.927c.333-.012.666-.019 1.008-.052a.13.13 0 0 1 .124.091.137.137 0 0 1-.08.171 16.88 16.88 0 0 1-1.36.277 3.237 3.237 0 0 0-.538.105 1.12 1.12 0 0 0-.42.309c-.681.695-1.254 1.492-1.891 2.215a4.655 4.655 0 0 0-.74 1.269.94.94 0 0 0-.125.473.994.994 0 0 0 .213.44 5.433 5.433 0 0 1 .508.802c.304-.454.642-.859 1.002-1.314a.124.124 0 0 1 .157-.026.139.139 0 0 1 .05.183c-.335.562-.635 1.09-.909 1.657a1.632 1.632 0 0 0-.225.828c.294.353.467.526.72.598a1.046 1.046 0 0 0 .833-.065 6.29 6.29 0 0 1 2.193-.967 4.207 4.207 0 0 0 .119-2.517 5.394 5.394 0 0 1 .075-2.183.13.13 0 0 1 .14-.12.134.134 0 0 1 .117.147 15.51 15.51 0 0 0 .225 2.07 5.194 5.194 0 0 1-.181 3.07.129.129 0 0 1-.12.086 5.577 5.577 0 0 0-2.361.972 1.56 1.56 0 0 1-1.178.125 2.54 2.54 0 0 1-1.196-.946.14.14 0 0 1-.031-.106 2.876 2.876 0 0 1 .194-.841 3.76 3.76 0 0 0-.64-1.098 1.48 1.48 0 0 1-.337-.756 1.695 1.695 0 0 1 .225-.815 6.087 6.087 0 0 1 .77-1.334c.252-.311.486-.602.721-.888a4.806 4.806 0 0 0-2.593 1.25 5.023 5.023 0 0 0-1.329 2.175 4.325 4.325 0 0 0-.143 1.94 8.066 8.066 0 0 0 1.309 3.352.14.14 0 0 1 .018.098 6.535 6.535 0 0 1-.338 1.486.188.188 0 0 0 .006.184.452.452 0 0 0 .176.158 3.196 3.196 0 0 0 .607.203 5.281 5.281 0 0 0 .77.171 1.27 1.27 0 0 0 .383 0c.094-.02.121-.048.131-.085a1.632 1.632 0 0 0 .038-.605.14.14 0 0 1 .019-.066 6.488 6.488 0 0 1 .382-.69.823.823 0 0 0 .138-.572c0-.376-.01-1.044.006-1.308a.134.134 0 0 1 .115-.147.13.13 0 0 1 .142.12c.043.194.093.465.138.724a5.488 5.488 0 0 0 2.042-.033l.025-.099c.056-.206.156-.396.2-.558a.129.129 0 0 1 .132-.093.133.133 0 0 1 .119.145c-.014.18-.024.362-.038.546a2.339 2.339 0 0 0 .006.493l.038.308a.138.138 0 0 1-.062.142.125.125 0 0 1-.176-.05 2.197 2.197 0 0 0-.119-.17 8.171 8.171 0 0 1-.745.486.122.122 0 0 0-.07.118.717.717 0 0 0 .045.263 2.983 2.983 0 0 0 .263.546 3.148 3.148 0 0 0 .513.703.448.448 0 0 0 .595.079 1.823 1.823 0 0 0 .395-.493.132.132 0 0 1 .038-.04c.024-.015.114-.085.225-.177s.248-.209.382-.322.272-.225.382-.316a2.533 2.533 0 0 1 .245-.19.438.438 0 0 0 .068-.066c.036-.042.078-.103.126-.17a7.979 7.979 0 0 0 .614-1.033 2.839 2.839 0 0 0 .163-.355 10.655 10.655 0 0 0 .494-1.86 2.755 2.755 0 0 1-.99-.835.14.14 0 0 1-.005-.18.125.125 0 0 1 .181-.017 4.166 4.166 0 0 0 1.353.716.128.128 0 0 1 .05.033c.186.172.375.343.57.526a3.086 3.086 0 0 0 .439.361.54.54 0 0 1-.07-.065.735.735 0 0 1-.1-.388 2.733 2.733 0 0 1 .132-.77 1.578 1.578 0 0 0-.006-.742.141.141 0 0 1 .006-.072c-.01.007-.037.02-.044.026a.339.339 0 0 0-.068.118 8.303 8.303 0 0 0-.195.493.128.128 0 0 1-.122.076.133.133 0 0 1-.122-.142c.022-.146.054-.321.075-.46a.737.737 0 0 1 .12-.374.544.544 0 0 1 .356-.165c.1-.018.296-.064.414-.085a.127.127 0 0 1 .124.064.139.139 0 0 1-.043.185c-.106.061-.257.126-.357.178a.125.125 0 0 1 .05.02 2.597 2.597 0 0 0 .577.328 4.032 4.032 0 0 0 3.382.138 3.37 3.37 0 0 0 1.378-2.544 8.039 8.039 0 0 0-.42-3.188zM14.24 15.82a1.849 1.849 0 0 0-.476.086.759.759 0 0 0-.032-.119.74.74 0 0 0-.232-.276 1.48 1.48 0 0 0 .22-.15.14.14 0 0 0 .012-.191.126.126 0 0 0-.1-.046.124.124 0 0 0-.056.012 1.885 1.885 0 0 1-.439.125 1.253 1.253 0 0 0-.488.184 2.273 2.273 0 0 0-.414.454 4.669 4.669 0 0 1-.376.454.14.14 0 0 0 .001.19.124.124 0 0 0 .13.033 1.59 1.59 0 0 0 .352-.23.85.85 0 0 0 .025.125.748.748 0 0 0 .232.276 1.485 1.485 0 0 0-.163.302.137.137 0 0 0 .08.171.125.125 0 0 0 .139-.04 3.426 3.426 0 0 1 1.622-1.09.136.136 0 0 0 .107-.157.13.13 0 0 0-.144-.113zm-1.742-1.617a.136.136 0 0 0 .087-.168.129.129 0 0 0-.143-.095.123.123 0 0 0-.031.006 1.59 1.59 0 0 0-.959.546 1.14 1.14 0 0 0-.119.887.129.129 0 0 0 .153.105.132.132 0 0 0 .098-.098 1.504 1.504 0 0 1 .914-1.183zm-2.806-.21l-.006.006c-.374.044-.748.088-1.121.125a1.348 1.348 0 0 0-.364.06.852.852 0 0 0-.3.23 2.948 2.948 0 0 0-.508 1.025 10.805 10.805 0 0 0-.3 1.078.137.137 0 0 0 .081.17.127.127 0 0 0 .163-.085c.085-.205.227-.579.388-.94a4.848 4.848 0 0 1 .307-.585 2.634 2.634 0 0 0 .044.559.129.129 0 0 0 .155.1.132.132 0 0 0 .096-.1 1.913 1.913 0 0 1 .488-1.065 7.626 7.626 0 0 0 .927-.316.137.137 0 0 0 .082-.17.129.129 0 0 0-.132-.093z"/>
</svg>
</symbol><symbol id="talend-file-job-o"><svg xmlns="http://www.w3.org/2000/svg" viewBox="0 0 32 32">
	<path class="ti-file" d="M22 25v-8a2.504 2.504 0 0 0-2-2h-6l3.886 6.113L14 27h6a2.503 2.503 0 0 0 2-2zM12 15H2a1.959 1.959 0 0 0-2 1.917V25a1.959 1.959 0 0 0 1.917 2H12l4-6zm-5.939 9.817l-3.645-3.645 1.66-1.66L6.06 21.5l3.864-3.863 1.66 1.66z"/>
	<path class="ti-file-job-o-badge" d="M22 0H6v14h2V2h11v10h11v18H8v-2H6v4h26V10zm-1 10V2l8 8z"/>
</svg>
</symbol><symbol id="talend-file-json-o"><svg xmlns="http://www.w3.org/2000/svg" viewBox="0 0 32 32">
	<path class="ti-file" d="M22 0H6v14h2V2h11v10h11v18H8v-2H6v4h26V10zm-1 10V2l8 8z"/>
	<path class="ti-file-json-o-badge" d="M15.734 19.514A3.224 3.224 0 0 1 16 20.968a3.436 3.436 0 0 1-.266 1.487.767.767 0 0 1-1.468 0A3.425 3.425 0 0 1 14 20.968a3.213 3.213 0 0 1 .266-1.454.781.781 0 0 1 1.468 0zM26 15v12H0V15zM5.027 17h-2.03l-.008 5.325a2.084 2.084 0 0 1-.058.542.908.908 0 0 1-.163.34.537.537 0 0 1-.262.174 1.235 1.235 0 0 1-.356.048.946.946 0 0 1-.501-.16c-.171-.105-.163-.27-.295-.498L0 23.695a2.396 2.396 0 0 0 .91.987A3.361 3.361 0 0 0 2.461 25a2.949 2.949 0 0 0 1.137-.201 2.216 2.216 0 0 0 .8-.547 2.274 2.274 0 0 0 .472-.801 2.97 2.97 0 0 0 .157-.977zm6.198 5.532a2.304 2.304 0 0 0-.345-1.318 2.264 2.264 0 0 0-.982-.795l-.825-.369a7.78 7.78 0 0 1-.737-.35.46.46 0 0 1-.267-.42.448.448 0 0 1 .188-.393.914.914 0 0 1 .522-.13 1.68 1.68 0 0 1 .696.143 3.158 3.158 0 0 1 .664.415l.898-1.282a2.91 2.91 0 0 0-1.072-.784A3.08 3.08 0 0 0 8.78 17a2.678 2.678 0 0 0-1.018.19 2.479 2.479 0 0 0-.8.516 2.373 2.373 0 0 0-.522.76 2.3 2.3 0 0 0-.188.932 2.487 2.487 0 0 0 .11.759 2.226 2.226 0 0 0 .298.612 2.15 2.15 0 0 0 .438.462 2.393 2.393 0 0 0 .522.315l.847.404c.146.063.275.12.387.171a2.12 2.12 0 0 1 .288.16.675.675 0 0 1 .182.18.42.42 0 0 1 .063.237.482.482 0 0 1-.183.403.972.972 0 0 1-.59.143 1.814 1.814 0 0 1-.8-.208 3.372 3.372 0 0 1-.79-.54L6 23.896a3.478 3.478 0 0 0 1.238.837A3.647 3.647 0 0 0 8.571 25a2.956 2.956 0 0 0 1.128-.201 2.514 2.514 0 0 0 .831-.54 2.285 2.285 0 0 0 .517-.79 2.537 2.537 0 0 0 .178-.937zM18 20.964a5.963 5.963 0 0 0-.219-1.685 3.82 3.82 0 0 0-.61-1.246 2.546 2.546 0 0 0-.949-.772 2.997 2.997 0 0 0-2.449 0 2.6 2.6 0 0 0-.943.766 3.724 3.724 0 0 0-.611 1.247 5.993 5.993 0 0 0-.219 1.69 6.127 6.127 0 0 0 .219 1.704 3.847 3.847 0 0 0 .61 1.27 2.656 2.656 0 0 0 .944.79 2.883 2.883 0 0 0 2.449 0 2.639 2.639 0 0 0 .948-.79 3.885 3.885 0 0 0 .611-1.27A6.163 6.163 0 0 0 18 20.964zM25 17h-2v4l-2-4h-2v8h2v-3l2 3h2z"/>
</svg>
</symbol><symbol id="talend-file-move"><svg xmlns="http://www.w3.org/2000/svg" viewBox="0 0 32 32">
	<path class="ti-file" d="M22.429 19L11 11v5H0v6h11v5z"/>
	<path class="ti-file-move-o-badge" d="M22 0H6v11h2V2h11v10h11v18H8v-3H6v5h26V10zm-1 10V2l8 8z"/>
</svg>
</symbol><symbol id="talend-file-o"><svg xmlns="http://www.w3.org/2000/svg" viewBox="0 0 32 32">
	<path d="M22 0H6v32h26V10zm-1 2l8 8h-8zm9 28H8V2h11v10h11z"/>
</svg>
</symbol><symbol id="talend-file-s3-o"><svg xmlns="http://www.w3.org/2000/svg" viewBox="0 0 16 16">
	<path fill="#F90" fill-rule="evenodd" d="M2.748,3.011 L2.515,2.26 C2.342,1.712 2.185,1.172 2.026,0.601 L1.997,0.601 C1.839,1.172 1.682,1.712 1.509,2.26 L1.269,3.011 L2.748,3.011 Z M2.904,3.514 L1.11,3.514 L0.638,5.015 L0,5.015 L1.667,0.091 L2.372,0.091 L4.039,5.015 L3.378,5.015 L2.904,3.514 Z M4.185,0.091 L4.831,0.091 L5.348,2.77 C5.446,3.303 5.543,3.829 5.641,4.362 L5.671,4.362 C5.777,3.829 5.896,3.297 6.018,2.77 L6.7,0.091 L7.27,0.091 L7.954,2.77 C8.066,3.288 8.186,3.829 8.306,4.362 L8.336,4.362 C8.435,3.829 8.524,3.297 8.614,2.77 L9.132,0.091 L9.74,0.091 L8.719,5.015 L7.961,5.015 L7.218,2.05 C7.135,1.667 7.052,1.315 6.985,0.931 L6.955,0.931 C6.873,1.315 6.789,1.667 6.707,2.05 L5.971,5.015 L5.228,5.015 L4.185,0.091 Z M10.523,3.942 C10.876,4.309 11.364,4.557 11.881,4.557 C12.527,4.557 12.91,4.235 12.91,3.755 C12.91,3.252 12.55,3.094 12.085,2.884 L11.378,2.575 C10.92,2.38 10.38,2.028 10.38,1.306 C10.38,0.555 11.041,0.001 11.934,0.001 C12.519,0.001 13.038,0.249 13.383,0.609 L13.053,1.013 C12.752,0.729 12.384,0.549 11.934,0.549 C11.378,0.549 11.011,0.826 11.011,1.27 C11.011,1.741 11.446,1.923 11.83,2.088 L12.535,2.387 C13.105,2.636 13.548,2.973 13.548,3.701 C13.548,4.483 12.903,5.106 11.867,5.106 C11.176,5.106 10.576,4.82 10.148,4.378 L10.523,3.942 Z M8.375,10.398 L7.464,10.073 C6.749,9.813 6.357,9.681 6.357,9.292 C6.357,8.967 6.684,8.772 7.139,8.772 C7.725,8.772 8.113,8.967 8.635,9.292 L9.609,8.055 C8.894,7.341 7.919,7.015 7.073,7.015 C5.383,7.015 4.212,8.055 4.212,9.357 C4.212,10.463 4.928,11.178 5.772,11.503 L6.749,11.894 C7.398,12.154 7.789,12.283 7.789,12.609 C7.789,12.933 7.528,13.129 6.942,13.129 C6.357,13.129 5.708,12.803 5.186,12.413 L4.017,13.78 C4.861,14.494 5.968,14.886 6.879,14.886 C8.765,14.886 9.869,13.715 9.869,12.479 C9.869,11.439 9.351,10.787 8.375,10.398 Z M14.618,10.983 C15.398,10.593 15.789,10.073 15.789,9.357 C15.789,7.99 14.749,7.276 13.123,7.276 C12.212,7.276 11.431,7.6 10.716,8.252 L11.69,9.487 C12.146,9.096 12.537,8.902 12.992,8.902 C13.513,8.902 13.772,9.161 13.772,9.552 C13.772,10.073 13.383,10.398 12.146,10.398 L12.146,11.828 C13.708,11.828 13.968,12.154 13.968,12.739 C13.968,13.194 13.578,13.454 12.861,13.454 C12.342,13.454 11.82,13.194 11.366,12.739 L10.456,13.974 C11.041,14.626 11.887,15.015 13.123,15.015 C14.683,15.015 15.983,14.235 15.983,12.868 C15.983,11.828 15.398,11.242 14.618,10.983 Z"/>
</svg>
</symbol><symbol id="talend-file-salesforce"><svg xmlns="http://www.w3.org/2000/svg" viewBox="0 0 16 16">
	<g fill="none">
		<path fill="#FFF" d="M5.0078 9.167C4.9858 9.227 5.0168 9.239 5.0238 9.249 5.0918 9.298 5.1588 9.334 5.2288 9.373 5.5958 9.568 5.9438 9.625 6.3058 9.625 7.0438 9.625 7.5028 9.232 7.5028 8.6L7.5028 8.587C7.5028 8.002 6.9858 7.79 6.4998 7.636L6.4368 7.616C6.0698 7.497 5.7538 7.395 5.7538 7.153L5.7538 7.141C5.7538 6.935 5.9398 6.783 6.2258 6.783 6.5428 6.783 6.9208 6.889 7.1628 7.023 7.1628 7.023 7.2358 7.069 7.2618 7 7.2758 6.962 7.3988 6.632 7.4108 6.596 7.4258 6.557 7.4018 6.528 7.3758 6.513 7.0978 6.344 6.7138 6.229 6.3178 6.229L6.2438 6.229C5.5678 6.229 5.0958 6.638 5.0958 7.223L5.0958 7.235C5.0958 7.851 5.6158 8.052 6.1048 8.191L6.1828 8.215C6.5378 8.324 6.8448 8.418 6.8448 8.668L6.8448 8.681C6.8448 8.91 6.6448 9.08 6.3238 9.08 6.1988 9.08 5.8018 9.078 5.3728 8.806 5.3208 8.776 5.2908 8.754 5.2508 8.73 5.2298 8.716 5.1768 8.694 5.1538 8.763L5.0078 9.167zM10.6006 4.9682C10.5346 4.9472 10.4736 4.9342 10.3946 4.9202 10.3146 4.9052 10.2186 4.8972 10.1116 4.8972 9.7336 4.8972 9.4366 5.0042 9.2276 5.2152 9.0196 5.4242 8.8786 5.7422 8.8076 6.1612L8.7826 6.3022 8.3086 6.3022C8.3086 6.3022 8.2506 6.3002 8.2396 6.3632L8.1616 6.7972C8.1556 6.8382 8.1726 6.8642 8.2286 6.8642L8.6906 6.8642 8.2216 9.4762C8.1856 9.6862 8.1436 9.8592 8.0966 9.9902 8.0516 10.1202 8.0066 10.2172 7.9516 10.2872 7.8986 10.3552 7.8476 10.4052 7.7606 10.4352 7.6886 10.4582 7.6056 10.4692 7.5146 10.4692 7.4646 10.4692 7.3976 10.4612 7.3476 10.4512 7.2976 10.4422 7.2726 10.4302 7.2356 10.4152 7.2356 10.4152 7.1816 10.3942 7.1596 10.4482 7.1426 10.4932 7.0196 10.8312 7.0046 10.8732 6.9906 10.9142 7.0106 10.9462 7.0376 10.9562 7.0986 10.9772 7.1446 10.9922 7.2276 11.0112 7.3436 11.0392 7.4426 11.0402 7.5336 11.0402 7.7256 11.0402 7.9006 11.0132 8.0456 10.9612 8.1916 10.9082 8.3186 10.8162 8.4316 10.6922 8.5526 10.5582 8.6286 10.4172 8.7026 10.2252 8.7746 10.0352 8.8356 9.7992 8.8856 9.5242L9.3556 6.8642 10.0426 6.8642C10.0426 6.8642 10.1016 6.8662 10.1136 6.8032L10.1906 6.3692C10.1966 6.3282 10.1786 6.3022 10.1226 6.3022L9.4556 6.3022C9.4586 6.2872 9.4896 6.0522 9.5666 5.8322 9.5986 5.7372 9.6606 5.6612 9.7126 5.6092 9.7636 5.5572 9.8226 5.5212 9.8866 5.5002 9.9536 5.4792 10.0286 5.4682 10.1116 5.4682 10.1736 5.4682 10.2356 5.4762 10.2826 5.4852 10.3466 5.4992 10.3716 5.5062 10.3896 5.5112 10.4566 5.5322 10.4656 5.5122 10.4796 5.4792L10.6386 5.0412C10.6556 4.9942 10.6166 4.9742 10.6006 4.9682"/>
		<path fill="#2FB1E6" d="M6.6582,3.7221 C7.1742,3.1841 7.8922,2.8511 8.6862,2.8511 C9.7432,2.8511 10.6652,3.4401 11.1552,4.3141 C11.5822,4.1241 12.0542,4.0181 12.5512,4.0181 C14.4552,4.0181 16.0002,5.5761 16.0002,7.4971 C16.0002,9.4191 14.4552,10.9771 12.5512,10.9771 C12.3182,10.9771 12.0912,10.9531 11.8712,10.9091 C11.4392,11.6801 10.6152,12.2011 9.6702,12.2011 C9.2742,12.2011 8.9002,12.1101 8.5672,11.9471 C8.1292,12.9771 7.1082,13.7001 5.9192,13.7001 C4.6802,13.7001 3.6242,12.9161 3.2192,11.8171 C3.0422,11.8541 2.8582,11.8741 2.6702,11.8741 C1.1952,11.8741 0.0002,10.6661 0.0002,9.1761 C0.0002,8.1771 0.5372,7.3051 1.3352,6.8381 C1.1712,6.4601 1.0792,6.0431 1.0792,5.6041 C1.0792,3.8901 2.4712,2.5011 4.1872,2.5011 C5.1942,2.5011 6.0902,2.9801 6.6582,3.7221 M5.0078,9.167 C4.9858,9.227 5.0168,9.239 5.0238,9.249 C5.0918,9.298 5.1588,9.334 5.2288,9.373 C5.5958,9.568 5.9438,9.625 6.3058,9.625 C7.0438,9.625 7.5028,9.232 7.5028,8.6 L7.5028,8.587 C7.5028,8.002 6.9858,7.79 6.4998,7.636 L6.4368,7.616 C6.0698,7.497 5.7538,7.395 5.7538,7.153 L5.7538,7.141 C5.7538,6.935 5.9398,6.783 6.2258,6.783 C6.5428,6.783 6.9208,6.889 7.1628,7.023 C7.1628,7.023 7.2358,7.069 7.2618,7 C7.2758,6.962 7.3988,6.632 7.4108,6.596 C7.4258,6.557 7.4018,6.528 7.3758,6.513 C7.0978,6.344 6.7138,6.229 6.3178,6.229 L6.2438,6.229 C5.5678,6.229 5.0958,6.638 5.0958,7.223 L5.0958,7.235 C5.0958,7.851 5.6158,8.052 6.1048,8.191 L6.1828,8.215 C6.5378,8.324 6.8448,8.418 6.8448,8.668 L6.8448,8.681 C6.8448,8.91 6.6448,9.08 6.3238,9.08 C6.1988,9.08 5.8018,9.078 5.3728,8.806 C5.3208,8.776 5.2908,8.754 5.2508,8.73 C5.2298,8.716 5.1768,8.694 5.1538,8.763 L5.0078,9.167 Z M10.6006,4.9682 C10.5346,4.9472 10.4736,4.9342 10.3946,4.9202 C10.3146,4.9052 10.2186,4.8972 10.1116,4.8972 C9.7336,4.8972 9.4366,5.0042 9.2276,5.2152 C9.0196,5.4242 8.8786,5.7422 8.8076,6.1612 L8.7826,6.3022 L8.3086,6.3022 C8.3086,6.3022 8.2506,6.3002 8.2396,6.3632 L8.1616,6.7972 C8.1556,6.8382 8.1726,6.8642 8.2286,6.8642 L8.6906,6.8642 L8.2216,9.4762 C8.1856,9.6862 8.1436,9.8592 8.0966,9.9902 C8.0516,10.1202 8.0066,10.2172 7.9516,10.2872 C7.8986,10.3552 7.8476,10.4052 7.7606,10.4352 C7.6886,10.4582 7.6056,10.4692 7.5146,10.4692 C7.4646,10.4692 7.3976,10.4612 7.3476,10.4512 C7.2976,10.4422 7.2726,10.4302 7.2356,10.4152 C7.2356,10.4152 7.1816,10.3942 7.1596,10.4482 C7.1426,10.4932 7.0196,10.8312 7.0046,10.8732 C6.9906,10.9142 7.0106,10.9462 7.0376,10.9562 C7.0986,10.9772 7.1446,10.9922 7.2276,11.0112 C7.3436,11.0392 7.4426,11.0402 7.5336,11.0402 C7.7256,11.0402 7.9006,11.0132 8.0456,10.9612 C8.1916,10.9082 8.3186,10.8162 8.4316,10.6922 C8.5526,10.5582 8.6286,10.4172 8.7026,10.2252 C8.7746,10.0352 8.8356,9.7992 8.8856,9.5242 L9.3556,6.8642 L10.0426,6.8642 C10.0426,6.8642 10.1016,6.8662 10.1136,6.8032 L10.1906,6.3692 C10.1966,6.3282 10.1786,6.3022 10.1226,6.3022 L9.4556,6.3022 C9.4586,6.2872 9.4896,6.0522 9.5666,5.8322 C9.5986,5.7372 9.6606,5.6612 9.7126,5.6092 C9.7636,5.5572 9.8226,5.5212 9.8866,5.5002 C9.9536,5.4792 10.0286,5.4682 10.1116,5.4682 C10.1736,5.4682 10.2356,5.4762 10.2826,5.4852 C10.3466,5.4992 10.3716,5.5062 10.3896,5.5112 C10.4566,5.5322 10.4656,5.5122 10.4796,5.4792 L10.6386,5.0412 C10.6556,4.9942 10.6166,4.9742 10.6006,4.9682 Z"/>
	</g>
</svg>
</symbol><symbol id="talend-file-txt-o"><svg xmlns="http://www.w3.org/2000/svg" viewBox="0 0 32 32">
	<path class="ti-file" d="M22 0H6v14h2V2h11v10h11v18H8v-2H6v4h26V10zm-1 10V2l8 8z"/>
	<path class="ti-file-txt-o-badge" d="M8 15H0v12h26V15zm1 4H7v6H5v-6H3v-2h6zm5 6s-.9-1.756-1-2c-.09.244-1 2-1 2h-2l2-4-2-4h2s.887 1.74 1 2c.09-.26 1-2 1-2h2l-2 4 2 4zm9-6h-2v6h-2v-6h-2v-2h6z"/>
</svg>
</symbol><symbol id="talend-file-xls-o"><svg xmlns="http://www.w3.org/2000/svg" viewBox="0 0 32 32">
	<path class="ti-file" d="M22 0H6v14h2V2h11v10h11v18H8v-2H6v4h26V10zm-1 10V2l8 8z"/>
	<path class="ti-file-xls-o-badge" d="M8 15H0v12h26V15zm7 10h-5v-8h2v6h3zm6.788-1.568a2.215 2.215 0 0 1-.605.813 2.98 2.98 0 0 1-.973.557 3.87 3.87 0 0 1-1.32.208 4.793 4.793 0 0 1-1.56-.276 4.12 4.12 0 0 1-1.45-.862l1.2-1.443a3.983 3.983 0 0 0 .923.556 2.36 2.36 0 0 0 .936.214 1.255 1.255 0 0 0 .691-.146.475.475 0 0 0 .213-.416.399.399 0 0 0-.072-.245.76.76 0 0 0-.215-.184 2.452 2.452 0 0 0-.336-.165c-.13-.053-.281-.112-.453-.178l-.99-.416a2.938 2.938 0 0 1-.614-.324 2.406 2.406 0 0 1-.513-.476 2.212 2.212 0 0 1-.348-.63 2.284 2.284 0 0 1-.129-.783 2.149 2.149 0 0 1 .22-.961 2.446 2.446 0 0 1 .612-.784 2.973 2.973 0 0 1 .936-.532 3.524 3.524 0 0 1 1.193-.195 4.036 4.036 0 0 1 1.389.257 3.411 3.411 0 0 1 1.254.807l-1.053 1.321a3.833 3.833 0 0 0-.775-.428 2.22 2.22 0 0 0-.815-.147 1.168 1.168 0 0 0-.611.135.444.444 0 0 0-.22.403.473.473 0 0 0 .312.435c.207.102.496.223.861.361l.967.38a2.618 2.618 0 0 1 1.15.82 2.164 2.164 0 0 1 .404 1.357 1.893 1.893 0 0 1-.209.967zM7 25s-.9-1.756-1-2c-.09.244-1 2-1 2H3l2-4-2-4h2s.887 1.74 1 2c.09-.26 1-2 1-2h2l-2 4 2 4z"/>
</svg>
</symbol><symbol id="talend-file-xlsx-o"><svg xmlns="http://www.w3.org/2000/svg" viewBox="0 0 32 32">
	<path class="ti-file" d="M22 0H6v14h2V2h11v10h11v18H8v-2H6v4h26V10zm-1 10V2l8 8z"/>
	<path class="ti-file-xlsx-o-badge" d="M8 15H0v12h26V15zm4 10H8v-8h2v6h2zm6.317-1.531a2.315 2.315 0 0 1-.589.79 2.907 2.907 0 0 1-.944.54 3.768 3.768 0 0 1-1.282.201 4.624 4.624 0 0 1-1.512-.267 4.013 4.013 0 0 1-1.407-.837l1.164-1.4a3.836 3.836 0 0 0 .896.54 2.29 2.29 0 0 0 .907.208 1.22 1.22 0 0 0 .67-.143.46.46 0 0 0 .207-.403.383.383 0 0 0-.07-.238.73.73 0 0 0-.207-.178 2.449 2.449 0 0 0-.327-.16 22.53 22.53 0 0 0-.44-.172l-.96-.404a2.87 2.87 0 0 1-.594-.315 2.348 2.348 0 0 1-.498-.462 2.129 2.129 0 0 1-.34-.612 2.24 2.24 0 0 1-.124-.76 2.096 2.096 0 0 1 .214-.93 2.421 2.421 0 0 1 .593-.761 2.906 2.906 0 0 1 .91-.516A3.404 3.404 0 0 1 15.74 17a3.904 3.904 0 0 1 1.346.249 3.307 3.307 0 0 1 1.216.784l-1.02 1.282a3.69 3.69 0 0 0-.753-.415 2.126 2.126 0 0 0-.79-.144 1.137 1.137 0 0 0-.593.131.43.43 0 0 0-.213.392.457.457 0 0 0 .302.421c.202.1.48.216.837.35l.936.368a2.523 2.523 0 0 1 1.117.796 2.099 2.099 0 0 1 .391 1.318 2.272 2.272 0 0 1-.2.937zM5 25s-.9-1.756-1-2l-1 2H1l2-4-2-4h2s.887 1.74 1 2l1-2h2l-2 4 2 4zm18 0s-.9-1.756-1-2c-.09.244-1 2-1 2h-2l2-4-2-4h2s.887 1.74 1 2c.09-.26 1-2 1-2h2l-2 4 2 4z"/>
</svg>
</symbol><symbol id="talend-file-xml-o"><svg xmlns="http://www.w3.org/2000/svg" viewBox="0 0 32 32">
	<path class="ti-file" d="M22 0H6v14h2V2h11v10h11v18H8v-2H6v4h26V10zm-1 10V2l8 8z"/>
	<path class="ti-file-xml-o-badge" d="M8 15H0v12h26V15zM7 25l-1-2-1 2H3l2-4-2-4h2l1 2 1-2h2l-2 4 2 4zm11 0h-2v-4l-2 3-2-3v4h-2v-8h2l2 4 2-4h2zm6 0h-5v-8h2v6h3z"/>
</svg>
</symbol><symbol id="talend-files-o"><svg xmlns="http://www.w3.org/2000/svg" viewBox="0 0 32 32">
	<path class="ti-file" d="M19 27v3H2V8h8V6H0v26h21v-5h-2z"/>
	<path class="ti-file-top" d="M24 0H11v26h21V8zm0 3l5 5h-5zm6 21H13V2h9v8h8z"/>
</svg>
</symbol></svg>