<svg xmlns="http://www.w3.org/2000/svg" viewBox="0 0 16 16">
  <g>
    <circle class="ti-background" cx="8" cy="8" r="8" fill="#19426C"/>
    <path class="ti-foreground" fill="#FFF" fill-rule="nonzero" d="M13.6628492,5.43509014 L14.22,5.24 L13.7766667,6.51 L12.6366667,5.79666667 L13.1894934,5.60201001 C12.0256279,3.0636442 9.18255218,1.70058577 6.44306201,2.43780304 C4.0916631,3.07058204 2.45082595,5.08003376 2.20211829,7.39443603 C2.49943176,7.50972272 2.71,7.79860427 2.71,8.13666667 C2.71,8.46228028 2.51465413,8.74226842 2.23476342,8.86583004 C2.24083661,8.91595845 2.24917591,8.96706737 2.25821927,9.01820345 C2.70563709,11.5481479 4.7490744,13.4245789 7.20482813,13.739621 C7.32371048,13.4495523 7.608162,13.2466667 7.94,13.2466667 C8.27222703,13.2466667 8.5569564,13.4500283 8.6764977,13.7390612 L8.44612177,13.7641955 C11.1390045,13.5287838 13.2662379,11.4699374 13.6535422,8.86824454 C13.368627,8.74694842 13.17,8.46500345 13.17,8.13666667 C13.17,7.69667982 13.5266798,7.34 13.9666667,7.34 C14.4066535,7.34 14.7633333,7.69667982 14.7633333,8.13666667 C14.7633333,8.51280134 14.5026664,8.828054 14.1521242,8.91163313 C13.7548719,11.6805273 11.542996,13.8909431 8.71179712,14.238946 C8.62553325,14.5841468 8.31264548,14.84 7.94,14.84 C7.5670056,14.84 7.25388087,14.5836674 7.16717524,14.2375517 C4.48687785,13.9065047 2.25360501,11.8632564 1.7658594,9.10527674 L1.73588872,8.91349965 C1.38131325,8.83284531 1.11666667,8.51566175 1.11666667,8.13666667 C1.11666667,7.76952045 1.36502415,7.46038123 1.70290151,7.36808662 C1.96219948,4.84192971 3.74880441,2.64505959 6.31313078,1.95498022 C9.30490091,1.14987253 12.4103669,2.6500334 13.6628492,5.43509014 Z M7.67666667,4.26 C7.76918967,4.21466568 7.877477,4.21466568 7.97,4.26 L7.97,4.26 L8.37333333,4.43333333 C8.41687892,4.45049098 8.46319849,4.45952895 8.51,4.46 L8.51,4.46 L8.94,4.46 C9.06611055,4.46110781 9.18244609,4.5281272 9.24666667,4.63666667 L9.24666667,4.63666667 L9.45666667,5.00666667 C9.48329422,5.05392669 9.52105331,5.09397421 9.56666667,5.12333333 L9.56666667,5.12333333 L9.87,5.32666667 C9.96696014,5.393021 10.02544,5.50251527 10.0266667,5.62 L10.0266667,5.62 L10.0266667,6.03 C10.0268666,6.09955431 10.0464931,6.16766975 10.0833333,6.22666667 L10.0833333,6.22666667 L10.25,6.47 C10.3265152,6.58874121 10.3265152,6.74125879 10.25,6.86 L10.25,6.86 L10.0833333,7.10666667 C10.0465978,7.16448109 10.0269536,7.23150237 10.0266667,7.3 L10.0266667,7.3 L10.0266667,7.72333333 C10.0284504,7.80493883 10.0002961,7.88300718 9.94954176,7.9439549 L11.2812168,10.8971937 C11.3674061,11.0882434 11.1955672,11.2883459 11.0004839,11.2445177 L10.9677951,11.2349111 L9.97033333,10.8713333 L9.58268787,11.8580798 C9.50653319,12.051928 9.24614756,12.0695621 9.14004129,11.9027393 L9.12203697,11.8692964 L7.98766667,9.35031916 L6.90624293,11.8623017 C6.82396692,12.0531568 6.56386141,12.062748 6.46283669,11.893234 L6.44584104,11.8593517 L6.03533333,10.8726667 L5.03854832,11.2504597 C4.84288414,11.3245669 4.65389604,11.1414179 4.70901012,10.949546 L4.72049671,10.9175292 L5.95866667,8.04931916 L5.87666667,7.99333333 C5.79690169,7.94351131 5.74284984,7.86302351 5.72573504,7.77264608 L5.72,7.70333333 L5.72,7.27666667 C5.71947598,7.21585527 5.70341166,7.1561878 5.67333333,7.10333333 L5.67333333,7.10333333 L5.47333333,6.77 C5.4035964,6.65652458 5.4035964,6.51347542 5.47333333,6.4 L5.47333333,6.4 L5.64666667,6.14 C5.68441214,6.08246251 5.70520462,6.01546453 5.70666667,5.94666667 L5.70666667,5.94666667 L5.70666667,5.61333333 C5.70613637,5.49540606 5.76502834,5.38514025 5.86333333,5.32 L5.86333333,5.32 L6.16666667,5.11666667 C6.21149166,5.08636958 6.24905644,5.04652815 6.27666667,5 L6.27666667,5 L6.48666667,4.62666667 C6.54930571,4.51816441 6.66471834,4.45094607 6.79,4.45 L6.79,4.45 L7.21,4.45 C7.26443284,4.45075409 7.31822201,4.43816513 7.36666667,4.41333333 L7.36666667,4.41333333 Z M6.34666667,8.41331916 L5.41366667,10.5736667 L6.08478501,10.3195403 C6.20046321,10.2757275 6.32887779,10.3233147 6.38939751,10.4275182 L6.40415896,10.457315 L6.68066667,11.1223333 L7.58366667,9.02631916 L7.37333333,8.90666667 C7.33809702,8.88661445 7.29983271,8.87279068 7.26022012,8.86564759 L7.2,8.86 L6.80333333,8.86 C6.67689259,8.86343256 6.55940246,8.79500424 6.5,8.68333333 L6.5,8.68333333 L6.34666667,8.41331916 Z M9.53447477,8.24022569 C9.50314725,8.2661683 9.476743,8.29770077 9.45666667,8.33333333 L9.45666667,8.33333333 L9.24666667,8.68333333 C9.18343003,8.79286293 9.06647351,8.86024006 8.94,8.86 L8.94,8.86 L8.60666667,8.86 C8.54585527,8.86052402 8.4861878,8.87658834 8.43333333,8.90666667 L8.43333333,8.90666667 L8.35566667,8.95031916 L9.334,11.1226667 L9.59397879,10.4619202 C9.63943757,10.346207 9.7618697,10.283064 9.88011962,10.3090869 L9.91220493,10.3184223 L10.5813333,10.562 Z M7.87331058,5.23670075 C7.06644186,5.23487915 6.41035149,5.88651642 6.40666634,6.69337886 C6.40301212,7.5002413 7.05314805,8.15781941 7.86,8.16333333 C8.24982987,8.16599738 8.6246086,8.01300208 8.90120345,7.73828457 C9.1777983,7.46356706 9.33333333,7.08983897 9.33333333,6.7 C9.33333333,5.89312921 8.6801793,5.23853001 7.87331058,5.23670075 Z"/>
  </g>
</svg>
