<svg xmlns="http://www.w3.org/2000/svg" viewBox="0 0 16 16">
  <g fill="none" fill-rule="evenodd" transform="translate(2.56 -.656)">
    <g fill-rule="nonzero" transform="translate(7 13)">
      <polygon fill="#000" points=".357 3.655 3.688 3.655 3.688 .323 .357 .323"/>
      <polygon fill="#8C8C8C" points=".69 3.321 3.355 3.321 3.355 .657 .69 .657"/>
    </g>
    <g transform="translate(7 9)">
      <polygon fill="#000" fill-rule="nonzero" points=".352 3.923 3.683 3.923 3.683 .593 .352 .593"/>
      <polygon fill="#515151" points=".685 3.591 3.35 3.591 3.35 .925 .685 .925"/>
    </g>
    <g fill-rule="nonzero" transform="translate(7 4)">
      <polygon fill="#000" points=".35 3.734 3.681 3.734 3.681 .403 .35 .403"/>
      <polygon fill="#BCBCBC" points=".684 3.401 3.349 3.401 3.349 .736 .684 .736"/>
    </g>
    <g fill-rule="nonzero" transform="translate(7)">
      <polygon fill="#000" points=".353 3.998 3.684 3.998 3.684 .667 .353 .667"/>
      <polygon fill="#515151" points=".686 3.665 3.351 3.665 3.351 .999 .686 .999"/>
    </g>
    <g fill-rule="nonzero" transform="translate(0 10)">
      <polygon fill="#000" points=".001 3.647 3.33 3.647 3.33 .319 .001 .319"/>
      <polygon fill="#8C8C8C" points=".334 3.314 2.997 3.314 2.997 .652 .334 .652"/>
    </g>
    <g fill-rule="nonzero" transform="translate(0 7)">
      <polygon fill="#000" points=".001 3.66 3.33 3.66 3.33 .331 .001 .331"/>
      <polygon fill="#BCBCBC" points=".334 3.327 2.997 3.327 2.997 .664 .334 .664"/>
    </g>
    <g fill="#FFF" fill-rule="nonzero" transform="translate(0 10)">
      <polygon points=".732 .675 1.102 .675 1.102 .315 .732 .315"/>
      <polygon points="1.473 .674 1.843 .674 1.843 .315 1.473 .315"/>
      <polygon points="2.213 .674 2.583 .674 2.583 .315 2.213 .315"/>
      <polygon points="2.959 .674 3.329 .674 3.329 .315 2.959 .315"/>
      <polygon points="0 .676 .37 .676 .37 .315 0 .315"/>
    </g>
    <g fill-rule="nonzero" transform="translate(0 3)">
      <polygon fill="#000" points=".003 3.998 3.332 3.998 3.332 .669 .003 .669"/>
      <polygon fill="#515151" points=".336 3.664 2.999 3.664 2.999 1.002 .336 1.002"/>
    </g>
    <path fill="#000" fill-rule="nonzero" d="M4.92657445,10.2869982 C4.8206438,10.2869982 4.71471316,10.2450257 4.63409927,10.1597482 C4.47153904,9.98985939 4.47153904,9.7147062 4.63409927,9.54481743 L5.51219103,8.621422 L4.63409927,7.6986928 C4.47153904,7.52880404 4.47153904,7.25298462 4.63409927,7.08309585 C4.79532704,6.91387331 5.05715562,6.91387331 5.21904962,7.08309585 L6.38961656,8.31362353 C6.55151056,8.48417853 6.55151056,8.75933171 6.38961656,8.92922048 L5.21904962,10.1597482 C5.13776951,10.2450257 5.03250509,10.2869982 4.92657445,10.2869982 Z"/>
  </g>
</svg>
