<svg xmlns="http://www.w3.org/2000/svg" focusable="false" class="sr-only"><symbol id="talend-between"><svg xmlns="http://www.w3.org/2000/svg" viewBox="0 0 16 16">
  <g>
    <path d="M8,7 C7.44771525,7 7,6.55228475 7,6 C7,5.44771525 7.44771525,5 8,5 C8.55228475,5 9,5.44771525 9,6 C9,6.55228475 8.55228475,7 8,7 Z M8,11 C7.44771525,11 7,10.5522847 7,10 C7,9.44771525 7.44771525,9 8,9 C8.55228475,9 9,9.44771525 9,10 C9,10.5522847 8.55228475,11 8,11 Z"/>
  </g>
</svg>
</symbol><symbol id="talend-contains"><svg xmlns="http://www.w3.org/2000/svg" viewBox="0 0 16 16">
  <g>
    <path d="M3.77595763,8.35353197 C5.40508245,6.56160325 6.58189592,6.56160325 7.62179532,8.27733329 C9.00613834,10.5613609 10.8596279,10.5613609 12.8668667,8.35353197 C13.0443778,8.15828165 13.0443778,7.84171835 12.8668667,7.64646803 C12.6893557,7.45121772 12.4015534,7.45121772 12.2240424,7.64646803 C10.5949175,9.43839675 9.41810408,9.43839675 8.37820468,7.72266671 C6.99386166,5.43863913 5.14037209,5.43863913 3.13313328,7.64646803 C2.95562224,7.84171835 2.95562224,8.15828165 3.13313328,8.35353197 C3.31064432,8.54878228 3.59844659,8.54878228 3.77595763,8.35353197 Z"/>
  </g>
</svg>
</symbol><symbol id="talend-ends-with"><svg xmlns="http://www.w3.org/2000/svg" viewBox="0 0 16 16">
  <g>
    <path d="M12.5931056,4.22746913 L7.21714336,8.00005314 L12.5931056,11.7726371 C12.82287,11.9338744 12.8849569,12.2606459 12.7317807,12.5025017 C12.5786045,12.7443576 12.2681698,12.8097119 12.0384054,12.6484747 L6.03840545,8.43797189 C5.74153891,8.22964567 5.74153891,7.77046061 6.03840545,7.56213438 L12.0384054,3.35163161 C12.2681698,3.19039438 12.5786045,3.25574868 12.7317807,3.49760453 C12.8849569,3.73946038 12.82287,4.0662319 12.5931056,4.22746913 Z M3,3.5 C3,3.22385763 3.23563829,3 3.52631285,3 C3.8169874,3 4.05262569,3.22385763 4.05262569,3.5 L4.05262569,12.5 C4.05262569,12.7761424 3.8169874,13 3.52631285,13 C3.23563829,13 3,12.7761424 3,12.5 L3,3.5 Z" transform="matrix(-1 0 0 1 16 0)"/>
  </g>
</svg>
</symbol><symbol id="talend-equal"><svg xmlns="http://www.w3.org/2000/svg" viewBox="0 0 16 16">
  <g>
    <path d="M4.44444444,7 C4.19898456,7 4,6.77614237 4,6.5 C4,6.22385763 4.19898456,6 4.44444444,6 L11.5555556,6 C11.8010154,6 12,6.22385763 12,6.5 C12,6.77614237 11.8010154,7 11.5555556,7 L4.44444444,7 Z M4.44444444,10 C4.19898456,10 4,9.77614237 4,9.5 C4,9.22385763 4.19898456,9 4.44444444,9 L11.5555556,9 C11.8010154,9 12,9.22385763 12,9.5 C12,9.77614237 11.8010154,10 11.5555556,10 L4.44444444,10 Z"/>
  </g>
</svg>
</symbol><symbol id="talend-greater-than-equal"><svg xmlns="http://www.w3.org/2000/svg" viewBox="0 0 16 16">
  <g>
    <path d="M11.7774032,2.91607828 L6.40144096,6.50005314 L11.7774032,10.084028 C12.0071676,10.2372042 12.0692545,10.5476389 11.9160783,10.7774032 C11.7629021,11.0071676 11.4524674,11.0692545 11.222703,10.9160783 L5.22270304,6.91607828 C4.9258365,6.71816726 4.9258365,6.28193901 5.22270304,6.08402799 L11.222703,2.08402799 C11.4524674,1.93085176 11.7629021,1.99293869 11.9160783,2.22270304 C12.0692545,2.45246738 12.0071676,2.76290205 11.7774032,2.91607828 Z M4.22270304,9.91607828 C3.99293869,9.76290205 3.93085176,9.45246738 4.08402799,9.22270304 C4.23720422,8.99293869 4.54763889,8.93085176 4.77740323,9.08402799 L10.7774032,13.084028 C11.0071676,13.2372042 11.0692545,13.5476389 10.9160783,13.7774032 C10.7629021,14.0071676 10.4524674,14.0692545 10.222703,13.9160783 L4.22270304,9.91607828 Z" transform="matrix(-1 0 0 1 16 0)"/>
  </g>
</svg>
</symbol><symbol id="talend-greater-than"><svg xmlns="http://www.w3.org/2000/svg" viewBox="0 0 16 16">
  <g>
    <path d="M12.1414928,4.41607815 C12.3967862,4.26290192 12.4657716,3.95246725 12.295576,3.7227029 C12.1253804,3.49293856 11.7804534,3.43085162 11.52516,3.58402785 L4.85850134,7.58402785 C4.52865003,7.78193888 4.52865003,8.21816712 4.85850134,8.41607815 L11.52516,12.4160781 C11.7804534,12.5692544 12.1253804,12.5071674 12.295576,12.2774031 C12.4657716,12.0476388 12.3967862,11.7372041 12.1414928,11.5840279 L6.16820855,8.000053 L12.1414928,4.41607815 Z" transform="matrix(-1 0 0 1 17 0)"/>
  </g>
</svg>
</symbol><symbol id="talend-less-than-equal"><svg xmlns="http://www.w3.org/2000/svg" viewBox="0 0 16 16">
  <g>
    <path d="M11.7773767,2.91607828 L6.40141439,6.50005314 L11.7773767,10.084028 C12.007141,10.2372042 12.0692279,10.5476389 11.9160517,10.7774032 C11.7628755,11.0071676 11.4524408,11.0692545 11.2226765,10.9160783 L5.22267647,6.91607828 C4.92580993,6.71816726 4.92580993,6.28193901 5.22267647,6.08402799 L11.2226765,2.08402799 C11.4524408,1.93085176 11.7628755,1.99293869 11.9160517,2.22270304 C12.0692279,2.45246738 12.007141,2.76290205 11.7773767,2.91607828 Z M4.22270304,9.91607828 C3.99293869,9.76290205 3.93085176,9.45246738 4.08402799,9.22270304 C4.23720422,8.99293869 4.54763889,8.93085176 4.77740323,9.08402799 L10.7774032,13.084028 C11.0071676,13.2372042 11.0692545,13.5476389 10.9160783,13.7774032 C10.7629021,14.0071676 10.4524674,14.0692545 10.222703,13.9160783 L4.22270304,9.91607828 Z"/>
  </g>
</svg>
</symbol><symbol id="talend-less-than"><svg xmlns="http://www.w3.org/2000/svg" viewBox="0 0 16 16">
  <g>
    <path d="M11.1414928,4.41607815 C11.3967862,4.26290192 11.4657716,3.95246725 11.295576,3.7227029 C11.1253804,3.49293856 10.7804534,3.43085162 10.52516,3.58402785 L3.85850134,7.58402785 C3.52865003,7.78193888 3.52865003,8.21816712 3.85850134,8.41607815 L10.52516,12.4160781 C10.7804534,12.5692544 11.1253804,12.5071674 11.295576,12.2774031 C11.4657716,12.0476388 11.3967862,11.7372041 11.1414928,11.5840279 L5.16820855,8.000053 L11.1414928,4.41607815 Z"/>
  </g>
</svg>
</symbol><symbol id="talend-not-contains"><svg xmlns="http://www.w3.org/2000/svg" viewBox="0 0 16 16">
  <g>
    <path fill="#111" d="M7.98870764,7.15561561 L10.0931333,4.20941974 C10.2536378,3.98471345 10.5659128,3.93266761 10.7906191,4.0931721 C11.0153254,4.2536766 11.0673712,4.56595164 10.9068667,4.79065793 L8.58596848,8.03991549 C9.57540146,9.43059231 10.7024315,9.32013856 12.2240424,7.64646803 C12.4015534,7.45121772 12.6893557,7.45121772 12.8668667,7.64646803 C13.0443778,7.84171835 13.0443778,8.15828165 12.8668667,8.35353197 C11.0423701,10.3603566 9.34490202,10.5430611 8.01132141,8.84442139 L5.90686674,11.7906579 C5.74636224,12.0153642 5.4340872,12.0674101 5.2093809,11.9069056 C4.98467461,11.7464011 4.93262877,11.434126 5.09313326,11.2094197 L7.41405921,7.96012342 C6.42461956,6.56940563 5.29758268,6.67984583 3.77595763,8.35353197 C3.59844659,8.54878228 3.31064432,8.54878228 3.13313328,8.35353197 C2.95562224,8.15828165 2.95562224,7.84171835 3.13313328,7.64646803 C4.9576431,5.63962884 6.65512263,5.45693623 7.98870764,7.15561561 Z"/>
  </g>
</svg>
</symbol><symbol id="talend-not-equal"><svg xmlns="http://www.w3.org/2000/svg" viewBox="0 0 16 16">
  <g>
    <path d="M8.81412523,6.00003099 L10.0931333,4.20941974 C10.2536378,3.98471345 10.5659128,3.93266761 10.7906191,4.0931721 C11.0153254,4.2536766 11.0673712,4.56595164 10.9068667,4.79065793 L10.0430288,6.00003099 L11.5555556,6.00003099 C11.8010154,6.00003099 12,6.22388862 12,6.50003099 C12,6.77617337 11.8010154,7.00003099 11.5555556,7.00003099 L9.32874312,7.00003099 L7.90017169,9.00003099 L11.5555556,9.00003099 C11.8010154,9.00003099 12,9.22388862 12,9.50003099 C12,9.77617337 11.8010154,10.000031 11.5555556,10.000031 L7.18588598,10.000031 L5.90686674,11.7906579 C5.74636224,12.0153642 5.4340872,12.0674101 5.2093809,11.9069056 C4.98467461,11.7464011 4.93262877,11.434126 5.09313326,11.2094197 L5.95698237,10.000031 L4.44444444,10.000031 C4.19898456,10.000031 4,9.77617337 4,9.50003099 C4,9.22388862 4.19898456,9.00003099 4.44444444,9.00003099 L6.67126808,9.00003099 L8.09983951,7.00003099 L4.44444444,7.00003099 C4.19898456,7.00003099 4,6.77617337 4,6.50003099 C4,6.22388862 4.19898456,6.00003099 4.44444444,6.00003099 L8.81412523,6.00003099 Z"/>
  </g>
</svg>
</symbol><symbol id="talend-regex"><svg xmlns="http://www.w3.org/2000/svg" viewBox="0 0 16 16">
  <g>
    <path d="M5.50005314,4.40149735 L3.91607828,6.77745963 C3.76290205,7.00722397 3.45246738,7.0693109 3.22270304,6.91613468 C2.99293869,6.76295845 2.93085176,6.45252377 3.08402799,6.22275943 L5.08402799,3.22275943 C5.28193901,2.92589289 5.71816726,2.92589289 5.91607828,3.22275943 L7.91607828,6.22275943 C8.06925451,6.45252377 8.00716758,6.76295845 7.77740323,6.91613468 C7.54763889,7.0693109 7.23720422,7.00722397 7.08402799,6.77745963 L5.50005314,4.40149735 Z M7.94728854,12.7486389 C7.82379842,12.9731701 7.52347287,13.0641794 7.27649264,12.9519137 C7.0295124,12.8396481 6.92940389,12.5666204 7.052894,12.3420892 L12.0527115,3.25136111 C12.1762016,3.0268299 12.4765271,2.93582065 12.7235074,3.04808625 C12.9704876,3.16035186 13.0705961,3.43337962 12.947106,3.65791083 L7.94728854,12.7486389 Z"/>
  </g>
</svg>
</symbol><symbol id="talend-starts-with"><svg xmlns="http://www.w3.org/2000/svg" viewBox="0 0 16 16">
  <g>
    <path d="M6.03845858,4.22746913 C5.80869424,4.0662319 5.74660731,3.73946038 5.89978354,3.49760453 C6.05295976,3.25574868 6.36339444,3.19039438 6.59315878,3.35163161 L12.5931588,7.56213438 C12.8900253,7.77046061 12.8900253,8.22964567 12.5931588,8.43797189 L6.59315878,12.6484747 C6.36339444,12.8097119 6.05295976,12.7443576 5.89978354,12.5025017 C5.74660731,12.2606459 5.80869424,11.9338744 6.03845858,11.7726371 L11.4144209,8.00005314 L6.03845858,4.22746913 Z M3,3.5 C3,3.22385763 3.23563829,3 3.52631285,3 C3.8169874,3 4.05262569,3.22385763 4.05262569,3.5 L4.05262569,12.5 C4.05262569,12.7761424 3.8169874,13 3.52631285,13 C3.23563829,13 3,12.7761424 3,12.5 L3,3.5 Z"/>
  </g>
</svg>
</symbol></svg>