<svg xmlns="http://www.w3.org/2000/svg" focusable="false" class="sr-only"><symbol id="talend-aggregate"><svg xmlns="http://www.w3.org/2000/svg" viewBox="0 0 16 16">
	<g fill="none" fill-rule="evenodd">
		<path d="M2.209 15.998h4.766v-4.767H2.209zm8.957-2.829h4.767V8.403h-4.767zM0 10.409h4.766V5.643H0z" class="aggregate-blocks-light-color" fill="#BCBCBC" fill-rule="nonzero"/>
		<path d="M9.981 4.766h4.766V0H9.981zm-8.793.012h4.766V.012H1.188z" class="aggregate-blocks-dark-color" fill="#515151" fill-rule="nonzero"/>
		<g class="aggregate-borders" fill="#000">
			<path d="M2.209 15.998h4.766v-4.767H2.209v4.767zm.477-.477h3.812V11.71H2.686v3.812zm8.48-2.352h4.767V8.403h-4.767v4.766zm.477-.476h3.813V8.881h-3.813v3.812z"/>
			<path d="M12.194 12.15h2.729V9.42h-2.729v2.73zm.5-.5h1.729V9.92h-1.729v1.73zM1.027 9.387h2.729V6.66H1.027v2.73zm.5-.5h1.729V7.16H1.527v1.73zm8.454-4.122h4.766V0H9.981v4.766zm.477-.477h3.812V.477h-3.812V4.29zm-9.27.49h4.766V.011H1.188v4.766zm.477-.478h3.812V.49H1.665v3.812z"/>
		</g>
		<path d="M7.358 9.657a.403.403 0 0 1-.293-.127.451.451 0 0 1 0-.616l.879-.923-.88-.924a.451.451 0 0 1 0-.616.4.4 0 0 1 .587 0l1.17 1.231a.452.452 0 0 1 0 .617L7.652 9.53a.403.403 0 0 1-.293.127" class="aggregate-arrow" fill="#000"/>
	</g>
</svg>
</symbol><symbol id="talend-azure-blob"><svg xmlns="http://www.w3.org/2000/svg" viewBox="0 0 16 16">
	<g>
		<path fill="#0078D7" d="M12.0103896,1.05974026 L3.98961039,1.05974026 L2.27373675e-13,8 L3.98961039,14.9402597 L12.0103896,14.9402597 L16,8 L12.0103896,1.05974026 Z M12.0519481,11.1168831 C12.0519481,11.6987013 11.5532468,12.1974026 10.9714286,12.1974026 L5.07012987,12.1974026 C4.48831169,12.1974026 3.98961039,11.6987013 3.98961039,11.1168831 L3.98961039,4.92467532 C3.98961039,4.34285714 4.48831169,3.84415584 5.07012987,3.84415584 L9.43376623,3.84415584 C9.84935065,3.84415584 10.2649351,3.84415584 10.2649351,3.84415584 L10.3896104,3.84415584 L12.0519481,5.50649351 L12.0519481,6.37922078 L12.0519481,11.1168831 Z M10.0987013,4.42597403 C9.93246753,4.42597403 9.68311688,4.42597403 9.43376623,4.42597403 L5.07012987,4.42597403 C4.77922078,4.42597403 4.57142857,4.63376623 4.57142857,4.92467532 L4.57142857,11.1168831 C4.57142857,11.4077922 4.77922078,11.6155844 5.07012987,11.6155844 L10.9714286,11.6155844 C11.2207792,11.6155844 11.4701299,11.4077922 11.4701299,11.1168831 L11.4701299,5.7974026 L10.1402597,5.7974026 L10.1402597,4.42597403 L10.0987013,4.42597403 Z M7.13350649,7.34794805 L6.5787013,7.34794805 L6.5787013,5.5812987 L6.03345455,5.74046753 L6.03345455,5.32031169 L7.08238961,4.95750649 L7.13309091,4.95750649 L7.13309091,7.34794805 L7.13350649,7.34794805 Z M9.80862338,6.37090909 C9.80862338,6.54379221 9.78825974,6.6934026 9.74794805,6.82015584 C9.70763636,6.94607792 9.6507013,7.05122078 9.57714286,7.13433766 C9.504,7.21745455 9.41631169,7.27937662 9.31449351,7.31968831 C9.21267532,7.36 9.10046753,7.38036364 8.97787013,7.38036364 C8.85402597,7.38036364 8.74098701,7.36 8.63875325,7.31968831 C8.53651948,7.27937662 8.44883117,7.21745455 8.37568831,7.13433766 C8.30254545,7.05122078 8.24477922,6.94607792 8.20405195,6.82015584 C8.16290909,6.6934026 8.14296104,6.54379221 8.14296104,6.37090909 L8.14296104,5.93412987 C8.14296104,5.76249351 8.16332468,5.61288312 8.20363636,5.48612987 C8.24394805,5.35937662 8.30088312,5.25423377 8.37444156,5.17111688 C8.44758442,5.088 8.53527273,5.02607792 8.63709091,4.98576623 C8.73807792,4.94503896 8.8507013,4.92467532 8.97454545,4.92467532 C9.09714286,4.92467532 9.20935065,4.94503896 9.31158442,4.98535065 C9.41381818,5.02566234 9.50192208,5.08758442 9.57548052,5.1707013 C9.64862338,5.25381818 9.70555844,5.35896104 9.7467013,5.48571429 C9.78784416,5.61246753 9.80862338,5.76207792 9.80862338,5.93371429 L9.80862338,6.37090909 Z M9.25506494,5.8638961 C9.25506494,5.76872727 9.24841558,5.68893506 9.23553247,5.62327273 C9.22223377,5.55885714 9.20394805,5.50566234 9.17984416,5.46493506 C9.15574026,5.42462338 9.12623377,5.39553247 9.09174026,5.37807792 C9.05724675,5.36062338 9.0185974,5.3518961 8.97454545,5.3518961 C8.93090909,5.3518961 8.89142857,5.36062338 8.85693506,5.37807792 C8.82244156,5.39553247 8.79335065,5.42462338 8.77007792,5.46493506 C8.74638961,5.50524675 8.72851948,5.55844156 8.71605195,5.62327273 C8.70358442,5.68893506 8.69735065,5.76872727 8.69735065,5.8638961 L8.69735065,6.43864935 C8.69735065,6.5358961 8.70316883,6.61776623 8.71605195,6.68342857 C8.72851948,6.74909091 8.74722078,6.80228571 8.77132468,6.84176623 C8.79542857,6.88207792 8.82493506,6.91075325 8.85984416,6.92820779 C8.89475325,6.94566234 8.93423377,6.95438961 8.97787013,6.95438961 C9.02067532,6.95438961 9.05890909,6.94566234 9.0934026,6.92820779 C9.1278961,6.91075325 9.1574026,6.88207792 9.18150649,6.84176623 C9.20561039,6.80228571 9.22348052,6.74909091 9.23636364,6.68342857 C9.24883117,6.61776623 9.25548052,6.53631169 9.25548052,6.43864935 L9.25548052,5.8638961 L9.25506494,5.8638961 Z M7.56696104,9.7334026 C7.56696104,9.90628571 7.5465974,10.0558961 7.50628571,10.1826494 C7.46597403,10.3085714 7.40903896,10.4137143 7.33548052,10.4968312 C7.26233766,10.5799481 7.17464935,10.6418701 7.07283117,10.6821818 C6.97101299,10.7224935 6.85880519,10.7428571 6.73620779,10.7428571 C6.61236364,10.7428571 6.49932468,10.7224935 6.39709091,10.6821818 C6.29485714,10.6418701 6.20716883,10.5799481 6.13402597,10.4968312 C6.06088312,10.4137143 6.00311688,10.3085714 5.96238961,10.1826494 C5.92124675,10.0558961 5.9012987,9.90628571 5.9012987,9.7334026 L5.9012987,9.29662338 C5.9012987,9.12498701 5.92166234,8.97537662 5.96197403,8.84862338 C6.00228571,8.72187013 6.05922078,8.61672727 6.13277922,8.53361039 C6.20592208,8.45049351 6.29361039,8.38857143 6.39542857,8.34825974 C6.49724675,8.30794805 6.60987013,8.28758442 6.73371429,8.28758442 C6.85631169,8.28758442 6.96851948,8.30794805 7.07075325,8.34825974 C7.17298701,8.38857143 7.26109091,8.45049351 7.33464935,8.53361039 C7.40779221,8.61672727 7.46472727,8.72187013 7.50587013,8.84862338 C7.54701299,8.97537662 7.56779221,9.12498701 7.56779221,9.29662338 L7.56779221,9.7334026 L7.56696104,9.7334026 Z M7.01381818,9.22597403 C7.01381818,9.13080519 7.00716883,9.05101299 6.99428571,8.98535065 C6.98098701,8.92093506 6.9627013,8.86774026 6.9385974,8.82701299 C6.91449351,8.7867013 6.88498701,8.75761039 6.85049351,8.74015584 C6.816,8.7227013 6.77735065,8.71397403 6.7332987,8.71397403 C6.68924675,8.71397403 6.65018182,8.7227013 6.61568831,8.74015584 C6.58119481,8.75761039 6.5521039,8.7867013 6.52883117,8.82701299 C6.50514286,8.86732468 6.48727273,8.92051948 6.47480519,8.98535065 C6.46233766,9.05101299 6.4561039,9.13080519 6.4561039,9.22597403 L6.4561039,9.80072727 C6.4561039,9.89797403 6.46192208,9.97984416 6.47480519,10.0455065 C6.48727273,10.1111688 6.50597403,10.1643636 6.53007792,10.2038442 C6.55418182,10.2441558 6.58368831,10.2728312 6.6185974,10.2902857 C6.65350649,10.3077403 6.69298701,10.3164675 6.73662338,10.3164675 C6.77942857,10.3164675 6.81766234,10.3077403 6.85215584,10.2902857 C6.88664935,10.2728312 6.91615584,10.2441558 6.94025974,10.2038442 C6.96436364,10.1643636 6.98223377,10.1111688 6.99511688,10.0455065 C7.00758442,9.97984416 7.01423377,9.89838961 7.01423377,9.80072727 L7.01423377,9.22597403 L7.01381818,9.22597403 Z M9.37516883,10.710026 L8.82036364,10.710026 L8.82036364,8.94337662 L8.27511688,9.10254545 L8.27511688,8.68238961 L9.32405195,8.31958442 L9.37475325,8.31958442 L9.37475325,10.710026 L9.37516883,10.710026 Z"/>
	</g>
</svg>
</symbol><symbol id="talend-azure-datalake"><svg xmlns="http://www.w3.org/2000/svg" viewBox="0 0 16 16">
	<g fill="none">
		<path fill="#3E3E3E" d="M0.0315789474,2.176 L0.0315789474,13.792 C0.0315789474,15.008 2.71957895,15.968 6.07957895,15.968 L6.07957895,2.176 L0.0315789474,2.176 Z" transform="translate(2)"/>
		<path fill="#A0A1A2" d="M5.98357895,16 L6.07957895,16 C9.40757895,16 12.1275789,15.008 12.1275789,13.824 L12.1275789,2.176 L5.98357895,2.176 L5.98357895,16 Z" transform="translate(2)"/>
		<path fill="#FFF" d="M12.1275789,2.176 C12.1275789,3.392 9.43957895,4.352 6.07957895,4.352 C2.71957895,4.352 0.0315789474,3.392 0.0315789474,2.176 C0.0315789474,0.992 2.75157895,0 6.07957895,0 C9.40757895,0 12.1275789,0.992 12.1275789,2.176 Z" transform="translate(2)"/>
		<path fill="#7FBA00" d="M10.8795789,2.048 C10.8795789,2.848 8.73557895,3.488 6.07957895,3.488 C3.42357895,3.488 1.27957895,2.848 1.27957895,2.048 C1.27957895,1.248 3.42357895,0.608 6.07957895,0.608 C8.73557895,0.608 10.8795789,1.248 10.8795789,2.048 Z" transform="translate(2)"/>
		<path fill="#B8D432" d="M9.88757895,2.944 C10.5275789,2.688 10.8795789,2.4 10.8795789,2.048 C10.8795789,1.248 8.73557895,0.608 6.07957895,0.608 C3.42357895,0.608 1.27957895,1.248 1.27957895,2.048 C1.27957895,2.368 1.66357895,2.688 2.27157895,2.944 C3.13557895,2.592 4.51157895,2.368 6.07957895,2.368 C7.61557895,2.368 8.99157895,2.592 9.88757895,2.944 Z" transform="translate(2)"/>
		<path fill="#3999C6" d="M5.98357895,16 L5.98357895,10.24 C5.08757895,10.24 4.31957895,9.76 3.87157895,9.056 C3.42357895,9.76 2.68757895,10.24 1.79157895,10.24 C1.08757895,10.24 0.479578947,9.952 0.0315789474,9.472 L0.0315789474,13.824 C0.0315789474,15.008 2.68757895,15.968 5.98357895,16 Z" transform="translate(2)"/>
		<path fill="#59B4D9" d="M10.2746266,10.24 C9.36440434,10.24 8.55170593,9.76 8.09659482,9.056 C7.67399165,9.76 6.89380117,10.208 5.98357895,10.24 L5.98357895,16 L5.98357895,16 C9.36440434,16 12.1275789,15.008 12.1275789,13.824 L12.1275789,9.44 C11.6724678,9.92 11.0223091,10.24 10.2746266,10.24 Z" transform="translate(2)"/>
	</g>
</svg>
</symbol><symbol id="talend-azure-event-hubs"><svg xmlns="http://www.w3.org/2000/svg" viewBox="0 0 16 16">
	<g fill="none" fill-rule="evenodd">
		<path fill="#0072C6" d="M15.7241379,7.54951657e-15 C15.8896552,7.54951657e-15 16,0.106668089 16,0.266670222 L16,1.86669156 L16,3.46671289 C16,3.62671502 15.8896552,3.73338311 15.7241379,3.73338311 L14.1241379,3.73338311 C13.9034483,3.73338311 13.7931034,3.62671502 13.7931034,3.46671289 L13.7931034,2.13336178 L2.20689655,2.13336178 L2.20689655,3.46671289 C2.20689655,3.62671502 2.09655172,3.73338311 1.93103448,3.73338311 L0.275862069,3.73338311 C0.110344828,3.73338311 1.59872116e-14,3.62671502 1.59872116e-14,3.46671289 L1.59872116e-14,0.266670222 C1.59872116e-14,0.106668089 0.110344828,7.54951657e-15 0.275862069,7.54951657e-15 L0.827586207,7.54951657e-15 L1.87586207,7.54951657e-15 L14.0689655,7.54951657e-15 L15.7241379,7.54951657e-15 Z M15.7241379,12.3199509 C15.8896552,12.3199509 16,12.4276857 16,12.5866212 L16,15.7333298 C16,15.8943986 15.8896552,16 15.7241379,16 L15.6689655,16 L14.1241379,16 L1.93103448,16 L0.827586207,16 L0.275862069,16 C0.110344828,16 0,15.8943986 0,15.7333298 L0,12.5866212 C0,12.373285 0.110344828,12.2666169 0.275862069,12.2666169 L1.87586207,12.2666169 C2.09655172,12.2666169 2.20689655,12.373285 2.20689655,12.5332871 L2.20689655,13.8666382 L13.8482759,13.8666382 L13.8482759,12.5866212 C13.8482759,12.4276857 13.9586207,12.3199509 14.1241379,12.3199509 L15.7241379,12.3199509 Z"/>
		<path fill="#B8D432" d="M5.66666667,9.06666667 C5.66666667,9.22666667 5.56,9.33333333 5.4,9.33333333 L3.26666667,9.33333333 C3.10666667,9.33333333 3,9.22666667 3,9.06666667 L3,7.46666667 C3,7.30666667 3.10666667,7.2 3.26666667,7.2 L5.34666667,7.2 C5.56,7.2 5.66666667,7.30666667 5.66666667,7.46666667 L5.66666667,9.06666667 Z M5.66666667,5.86666667 C5.66666667,6.02666667 5.56,6.13333333 5.4,6.13333333 L3.26666667,6.13333333 C3.10666667,6.13333333 3,6.02666667 3,5.86666667 L3,4.26666667 C3,4.10666667 3.10666667,4 3.26666667,4 L5.34666667,4 C5.56,4 5.66666667,4.10666667 5.66666667,4.26666667 L5.66666667,5.86666667 Z M5.66666667,12.2666667 C5.66666667,12.4266667 5.56,12.5333333 5.4,12.5333333 L3.26666667,12.5333333 C3.10666667,12.5333333 3,12.4266667 3,12.2666667 L3,10.6666667 C3,10.5066667 3.10666667,10.4 3.26666667,10.4 L5.34666667,10.4 C5.56,10.4 5.66666667,10.5066667 5.66666667,10.6666667 L5.66666667,12.2666667 Z M9.4,7.46666667 C9.4,7.62666667 9.29333333,7.73333333 9.13333333,7.73333333 L7.05333333,7.73333333 C6.89333333,7.73333333 6.78666667,7.62666667 6.78666667,7.46666667 L6.78666667,5.92 C6.78666667,5.76 6.89333333,5.65333333 7.05333333,5.65333333 L9.13333333,5.65333333 C9.29333333,5.65333333 9.4,5.76 9.4,5.92 L9.4,7.46666667 Z M13.1333333,9.06666667 C13.1333333,9.22666667 13.0266667,9.33333333 12.8666667,9.33333333 L10.7866667,9.33333333 C10.6266667,9.33333333 10.52,9.22666667 10.52,9.06666667 L10.52,7.52 C10.52,7.36 10.6266667,7.25333333 10.7866667,7.25333333 L12.8666667,7.25333333 C13.0266667,7.25333333 13.1333333,7.36 13.1333333,7.52 L13.1333333,9.06666667 Z M9.4,10.6666667 C9.4,10.8266667 9.29333333,10.9333333 9.13333333,10.9333333 L7.05333333,10.9333333 C6.89333333,10.9333333 6.78666667,10.8266667 6.78666667,10.6666667 L6.78666667,9.12 C6.78666667,8.96 6.89333333,8.85333333 7.05333333,8.85333333 L9.13333333,8.85333333 C9.29333333,8.85333333 9.4,8.96 9.4,9.12 L9.4,10.6666667 Z"/>
	</g>
</svg>
</symbol><symbol id="talend-bigquery"><svg xmlns="http://www.w3.org/2000/svg" viewBox="0 0 16 16">
	<g fill="none">
		<path fill="#4285F4" d="M15.5059004,7.39019157 L12.2813793,1.78222222 C12.0346434,1.34466746 11.5747353,1.07040177 11.0724904,1.06130268 L4.62222222,1.06130268 C4.11990668,1.07015415 3.6598849,1.34448763 3.41333333,1.78222222 L0.187586207,7.37547893 C-0.0619579096,7.80971587 -0.0619579096,8.34384735 0.187586207,8.77808429 L3.41210728,14.417931 C3.65613167,14.8617061 4.11492962,15.1450813 4.62099617,15.1645977 L11.0712644,15.1645977 C11.5773041,15.1472276 12.0369259,14.8650282 12.2813793,14.4216092 L15.5059004,8.81363985 C15.7571787,8.37242531 15.7571787,7.83140611 15.5059004,7.39019157 Z"/>
		<path fill="#000" d="M12.2813793,14.417931 L14.4306513,10.6796935 L9.88444444,6.13471264 L7.8467433,5.58911877 L6.01624521,6.27203065 L5.30881226,8.11111111 L5.87770115,10.1622989 L10.8763218,15.1609195 L11.0712644,15.1609195 C11.5773041,15.1435494 12.0369259,14.86135 12.2813793,14.417931 Z" opacity=".07"/>
		<path fill="#FFF" d="M7.8467433,5.26666667 C6.27663677,5.26666681 5.00375079,6.53937004 5.0035252,8.10947655 C5.00329961,9.67958306 6.27581982,10.952652 7.84592628,10.9531033 C9.41603274,10.9535547 10.6892846,9.68121749 10.6899617,8.11111111 C10.6902869,7.3568303 10.390878,6.63333156 9.8576359,6.09985948 C9.32439376,5.5663874 8.60102417,5.2666666 7.8467433,5.26666667 M7.8467433,10.2689655 C6.97397266,10.2689655 6.18714064,9.74322117 5.85314578,8.93688624 C5.51915091,8.13055131 5.70376778,7.20241966 6.32090981,6.58527763 C6.93805185,5.96813559 7.8661835,5.78351873 8.67251843,6.11751359 C9.47885335,6.45150845 10.0045977,7.23834047 10.0045977,8.11111111 C10.0045977,9.30286119 9.03849338,10.2689655 7.8467433,10.2689655"/>
		<path fill="#FFF" d="M6.49808429 8.00076628L6.49808429 8.88475096C6.62878141 9.10953192 6.81332198 9.29828575 7.03509579 9.43402299L7.03509579 8.00076628 6.49808429 8.00076628zM7.5610728 7.25287356L7.5610728 9.63632184C7.73850263 9.66989276 7.92065446 9.66989276 8.09808429 9.63632184L8.09808429 7.25287356 7.5610728 7.25287356zM8.67678161 8.36858238L8.67678161 9.41808429C8.90131398 9.27622706 9.08610355 9.07962446 9.2137931 8.8467433L9.2137931 8.36858238 8.67678161 8.36858238zM9.89302682 9.86314176L9.59877395 10.1586207C9.54751677 10.2106451 9.54751677 10.2941825 9.59877395 10.3462069L10.7157088 11.4631418C10.7678774 11.5152095 10.8523525 11.5152095 10.9045211 11.4631418L11.1987739 11.1688889C11.2500311 11.1168645 11.2500311 11.0333271 11.1987739 10.9813027L10.080613 9.86314176C10.0285887 9.81188459 9.94505119 9.81188459 9.89302682 9.86314176"/>
	</g>
</svg>
</symbol><symbol id="talend-concatenate"><svg xmlns="http://www.w3.org/2000/svg" viewBox="0 0 16 16">
  <g class="ti-foreground">
    <path d="M1.00713015,14.9333333 L6,14.933 L6,12.8 L7,12.8 L7,16 L0,16 L0,1.6 C0,0.768324141 0.599129725,0.0848547433 1.36520519,0.00732434993 L1.51069523,0 L7,0 L7,3.2 L6,3.2 L6,2.066 L1.51069523,2.06666667 C1.26348517,2.06666667 1.05788108,2.2553335 1.01524326,2.50413266 L1.00713015,2.6 L1.007,7.481 L3.03973109,7.48195392 L2.45504705,6.89674831 C2.31946056,6.76579449 2.26508337,6.57187163 2.31281541,6.38951414 C2.36054745,6.20715665 2.5029605,6.0647436 2.68531799,6.01701156 C2.86767548,5.96927952 3.06159834,6.02365671 3.19255216,6.1592432 L4.66808394,7.63425342 C4.7660235,7.73208407 4.82105453,7.86483629 4.82105453,8.00326676 C4.82105453,8.14169722 4.7660235,8.27444944 4.66808394,8.3722801 L3.19255216,9.84729031 C2.98887774,10.0509032 2.65872148,10.0509032 2.45504705,9.84729031 C2.25143413,9.64361588 2.25143413,9.31345963 2.45504705,9.1097852 L3.03973109,8.52510117 L1.007,8.525 L1.00713015,14.9333333 Z M14.4893048,0 L14.6347948,0.00732434993 C15.355807,0.0802941319 15.9289365,0.690012652 15.9938686,1.45486532 L16,1.6 L16,16 L9,16 L9,12.8 L10,12.8 L10,14.933 L14.9928698,14.9333333 L14.992,8.525 L12.9513234,8.52510117 L13.5360075,9.1097852 C13.7396204,9.31345963 13.7396204,9.64361588 13.5360075,9.84729031 C13.3323331,10.0509032 13.0021768,10.0509032 12.7985024,9.84729031 L12.7985024,9.84729031 L11.3229706,8.3722801 C11.225031,8.27444944 11.17,8.14169722 11.17,8.00326676 C11.17,7.86483629 11.225031,7.73208407 11.3229706,7.63425342 L11.3229706,7.63425342 L12.7985024,6.1592432 C12.9294562,6.02365671 13.1233791,5.96927952 13.3057365,6.01701156 C13.488094,6.0647436 13.6305071,6.20715665 13.6782391,6.38951414 C13.7259712,6.57187163 13.671594,6.76579449 13.5360075,6.89674831 L13.5360075,6.89674831 L12.9513234,7.48195392 L14.992,7.481 L14.9928698,2.6 L14.9847567,2.50413266 C14.9474486,2.2864334 14.7853695,2.11477294 14.5798212,2.07525938 L14.4893048,2.06666667 L10,2.066 L10,3.2 L9,3.2 L9,0 L14.4893048,0 Z M7,10 L7,12 L6,12 L6,10 L7,10 Z M10,10 L10,12 L9,12 L9,10 L10,10 Z M7,7 L7,9 L6,9 L6,7 L7,7 Z M10,7 L10,9 L9,9 L9,7 L10,7 Z M7,4 L7,6 L6,6 L6,4 L7,4 Z M10,4 L10,6 L9,6 L9,4 L10,4 Z"/>
  </g>
</svg>
</symbol><symbol id="talend-db-input"><svg xmlns="http://www.w3.org/2000/svg" viewBox="0 0 50 50">
	<path d="M17.5 2C7.84 2 0 5.13 0 9v5c0 3.87 7.84 7 17.5 7S35 17.87 35 14V9c0-3.87-7.84-7-17.5-7zM50 31L40 21v5H30v10h10v5l10-10z"/>
	<path d="M28 26v-2h6.8a3 3 0 0 0 .2-1v-4.79C31.64 21.37 24.54 23 17.5 23S3.36 21.37 0 18.21V23c0 3.87 7.84 7 17.5 7A37.13 37.13 0 0 0 28 28.59zm4.4 12c-3.76 2-9.34 3-14.9 3-7 0-14.14-1.63-17.5-4.79V41c0 3.87 7.84 7 17.5 7S35 44.87 35 41v-3z"/>
	<path d="M28 36v-5.32A40.47 40.47 0 0 1 17.5 32c-7 0-14.14-1.63-17.5-4.79V32c0 3.87 7.84 7 17.5 7A37.13 37.13 0 0 0 28 37.59z"/>
</svg>
</symbol><symbol id="talend-delete-field"><svg xmlns="http://www.w3.org/2000/svg" viewBox="0 0 16 16">
  <g class="ti-foreground">
    <path id="delete-field-a" d="M14.25,12.5 C14.3880712,12.5 14.5,12.6119288 14.5,12.75 C14.5,12.8880712 14.3880712,13 14.25,13 L6.25,13 C6.11192881,13 6,12.8880712 6,12.75 C6,12.6119288 6.11192881,12.5 6.25,12.5 L14.25,12.5 Z M12.75,10.5 C12.8880712,10.5 13,10.6119288 13,10.75 C13,10.8880712 12.8880712,11 12.75,11 L6.25,11 C6.11192881,11 6,10.8880712 6,10.75 C6,10.6119288 6.11192881,10.5 6.25,10.5 L12.75,10.5 Z M0.871320344,6.58578644 L1.57842712,7.29289322 L2.28553391,6.58578644 C2.48079605,6.39052429 2.79737854,6.39052429 2.99264069,6.58578644 C3.18790283,6.78104858 3.18790283,7.09763107 2.99264069,7.29289322 L2.28553391,8 L2.99264069,8.70710678 C3.18790283,8.90236893 3.18790283,9.21895142 2.99264069,9.41421356 C2.79737854,9.60947571 2.48079605,9.60947571 2.28553391,9.41421356 L1.57842712,8.70710678 L0.871320344,9.41421356 C0.676058198,9.60947571 0.359475708,9.60947571 0.164213562,9.41421356 C-0.0310485835,9.21895142 -0.0310485835,8.90236893 0.164213562,8.70710678 L0.871320344,8 L0.164213562,7.29289322 C-0.0310485835,7.09763107 -0.0310485835,6.78104858 0.164213562,6.58578644 C0.359475708,6.39052429 0.676058198,6.39052429 0.871320344,6.58578644 Z M15.5,7 C15.7761424,7 16,7.22385763 16,7.5 L16,8.5 C16,8.77614237 15.7761424,9 15.5,9 L6.5,9 C6.22385763,9 6,8.77614237 6,8.5 L6,7.5 C6,7.22385763 6.22385763,7 6.5,7 L15.5,7 Z M14.25,5 C14.3880712,5 14.5,5.11192881 14.5,5.25 C14.5,5.38807119 14.3880712,5.5 14.25,5.5 L6.25,5.5 C6.11192881,5.5 6,5.38807119 6,5.25 C6,5.11192881 6.11192881,5 6.25,5 L14.25,5 Z M12.75,3 C12.8880712,3 13,3.11192881 13,3.25 C13,3.38807119 12.8880712,3.5 12.75,3.5 L6.25,3.5 C6.11192881,3.5 6,3.38807119 6,3.25 C6,3.11192881 6.11192881,3 6.25,3 L12.75,3 Z"/>
  </g>
</svg>
</symbol><symbol id="talend-field-remover"><svg xmlns="http://www.w3.org/2000/svg" viewBox="0 0 16 16"><path d="M0 3.25A.25.25 0 0 1 .25 3h6.5a.25.25 0 0 1 0 .5H.25A.25.25 0 0 1 0 3.25ZM0 8a1 1 0 0 1 1-1h8a1 1 0 0 1 0 2H1a1 1 0 0 1-1-1Zm.25-3a.25.25 0 0 0 0 .5h8a.25.25 0 0 0 0-.5h-8ZM0 10.75a.25.25 0 0 1 .25-.25h6.5a.25.25 0 1 1 0 .5H.25a.25.25 0 0 1-.25-.25Zm.25 1.75a.25.25 0 1 0 0 .5h8a.25.25 0 1 0 0-.5h-8ZM12.4 6.75h3.2c.051 0 .092.042.092.094v3.562a.093.093 0 0 1-.092.094h-3.2a.093.093 0 0 1-.092-.094V6.844c0-.052.04-.094.092-.094Zm2.37-1.156v.218h1.128c.056 0 .102.047.102.105v.427a.093.093 0 0 1-.092.093h-3.816A.093.093 0 0 1 12 6.345v-.438c0-.052.041-.093.092-.093h1.139v-.22c0-.051.041-.093.092-.093h1.354c.051 0 .092.042.092.094Z"/></svg></symbol><symbol id="talend-field-selector"><svg xmlns="http://www.w3.org/2000/svg" viewBox="0 0 32 32">
	<rect width="20" height="4" rx="1" transform="translate(12 14)"/>
	<rect width="14" height="1" rx=".5" transform="translate(12 6)"/>
	<rect width="17" height="1" rx=".5" transform="translate(12 10)"/>
	<rect width="14" height="1" rx=".5" transform="translate(12 21)"/>
	<rect width="17" height="1" rx=".5" transform="translate(12 25)"/>
	<path d="M4.707 19.535a1 1 0 0 1 0-1.414L5.828 17H1a1 1 0 0 1 0-2h4.828l-1.121-1.122a1 1 0 1 1 1.414-1.414l2.829 2.828a1 1 0 0 1 0 1.415l-2.829 2.828a1 1 0 0 1-1.414 0z"/>
</svg>
</symbol><symbol id="talend-filter-column"><svg xmlns="http://www.w3.org/2000/svg" viewBox="0 0 16 16">
	<path d="M15.98 1.404V14.08c0 .762-.526 1.38-1.176 1.38-.649 0-1.175-.618-1.175-1.38V1.404c0-.763.526-1.38 1.175-1.38.65 0 1.176.617 1.176 1.38M8.947.678a1.385 1.385 0 0 0-.089.213l.09-.094V.678zm1.5-.547v1.26l-.407.433-1.262 1.343v10.889c0 .763.526 1.381 1.176 1.381.65 0 1.175-.618 1.175-1.381V1.381c0-.556-.28-1.031-.682-1.25"/>
	<path d="M8.947 0H0v.795l3.131 3.337v4.131l.801.961L4.996 10.5h.819V4.131l.468-.498L8.947.797zM5.815 12H4.293l-.36-.434v2.49c0 .763.525 1.381 1.174 1.381.65 0 1.176-.618 1.176-1.38V12h-.468z"/>
</svg>
</symbol><symbol id="talend-filter-row"><svg xmlns="http://www.w3.org/2000/svg" viewBox="0 0 16 16">
	<path d="M5.34 1.328l-.21-.226v-1.1H2.393c-.762 0-1.381.527-1.381 1.176 0 .65.619 1.175 1.38 1.175h3.912L5.34 1.328zm2.912 4.101L7.229 4.34H2.393c-.761 0-1.38.527-1.38 1.176 0 .649.618 1.175 1.38 1.175h5.86V5.429zM7.067 0v.793L9.458 3.34l.731.78v3.571h.001v.553l.374.449 1.484 1.782h.817V4.118L15.988.794V0zm3.225 10.975l-1.86-2.23-.041-.051H2.393c-.762 0-1.38.526-1.38 1.175s.618 1.176 1.38 1.176h7.777c.058 0 .113-.01.168-.015l-.046-.055zm1.866 2.087c.763 0 1.38.526 1.38 1.175 0 .65-.617 1.176-1.38 1.176H2.38c-.763 0-1.381-.526-1.381-1.176 0-.65.618-1.175 1.38-1.175"/>
</svg>
</symbol><symbol id="talend-ftp"><svg xmlns="http://www.w3.org/2000/svg" viewBox="0 0 16 16">
  <g>
    <path fill-rule="evenodd" d="M15.9999,3.9992 L13.9999,11.9992 L8.4999,11.9992 L8.4999,13.4992 L9.2499,13.4992 L9.2499,14.2492 L15.9999,14.2492 L15.9999,15.2492 L9.2499,15.2492 L9.2499,15.9992 L6.7499,15.9992 L6.7499,15.2492 L-0.0001,15.2492 L-0.0001,14.2492 L6.7499,14.2492 L6.7499,13.4992 L7.4999,13.4992 L7.4999,11.9992 L1.9999,11.9992 L-0.0001,3.9992 L15.9999,3.9992 Z M5.0026,0.0005 L7.0026,2.0005 L15.0026,2.0005 L15.0026,3.0005 L1.0026,3.0005 L1.0026,0.0005 L5.0026,0.0005 Z"/>
  </g>
</svg>
</symbol><symbol id="talend-generator"><svg xmlns="http://www.w3.org/2000/svg" viewBox="0 0 16 16">
  <g>
    <path d="M14.65 8H13.6V6.333A.342.342 0 0013.25 6h-.35V3.943c.407-.137.7-.507.7-.943 0-.552-.47-1-1.05-1-.457 0-.846.278-.99.667h-1.289l-.964 1.84L6.947 0 5.548 2.667H4.441A1.048 1.048 0 003.45 2c-.58 0-1.05.448-1.05 1 0 .436.292.806.699.943V6H2.75c-.193 0-.35.15-.35.333V8H1.35c-.193 0-.35.15-.35.334v7.333c0 .184.157.333.35.333h13.3c.193 0 .35-.149.35-.333V8.334A.342.342 0 0014.65 8zM4.15 6H3.8V3.943c.299-.1.535-.325.64-.61h1.543l.963-1.84L9.307 6l1.397-2.667h.856c.106.285.341.51.64.61V6h-.35c-.193 0-.35.15-.35.333V8h-7V6.333A.342.342 0 004.15 6zm4.2 7.667v-1.333A.342.342 0 008 12c-.193 0-.35.15-.35.334v1.333H4.166c.178-1.866 1.83-3.333 3.834-3.333 2.005 0 3.656 1.467 3.834 3.333H8.35z"/>
  </g>
</svg>
</symbol><symbol id="talend-hash-knife"><svg xmlns="http://www.w3.org/2000/svg" viewBox="0 0 16 16">
  <g>
    <rect width="1.867" height="1.867" x="-.059" y="14.118" rx=".5"/>
    <rect width="1.882" height="1.882" x="2.765" y="14.118" rx=".5"/>
    <rect width="1.882" height="1.882" x="6.529" y="14.118" rx=".5"/>
    <path  d="M1.74278902,12.2726428 L2.68396549,12.2726428 C2.9438642,12.2726428 3.15455373,12.4833324 3.15455373,12.743231 L3.15455373,13.6844075 C3.15455373,13.9443062 2.9438642,14.1549957 2.68396549,14.1549957 L1.74278902,14.1549957 C1.48289032,14.1549957 1.27220079,13.9443062 1.27220079,13.6844075 L1.27220079,12.743231 C1.27220079,12.4833324 1.48289032,12.2726428 1.74278902,12.2726428 Z" transform="rotate(-45 2.213 13.214)"/>
    <path  d="M9.7124183,10.2558357 L11.5947712,10.2558357 L11.5947712,14.0205416 C11.5947712,14.5403389 11.1733922,14.961718 10.6535948,14.961718 C10.1337974,14.961718 9.7124183,14.5403389 9.7124183,14.0205416 L9.7124183,10.2558357 L9.7124183,10.2558357 Z M11.6022409,0 L11.6022409,9.33706816 L6,9.33706816 L6,0 L11.6022409,0 Z M9.73482726,0.933706818 C9.21915522,0.933706818 8.80112045,1.35174159 8.80112045,1.86741363 C8.80112045,2.38308567 9.21915522,2.80112045 9.73482726,2.80112045 C10.2504993,2.80112045 10.6685341,2.38308567 10.6685341,1.86741363 C10.6685341,1.35174159 10.2504993,0.933706818 9.73482726,0.933706818 Z" transform="rotate(-45 8.801 7.48)"/>
  </g>
</svg>
</symbol><symbol id="talend-map"><svg xmlns="http://www.w3.org/2000/svg" fill="none" viewBox="0 0 16 16"><path fill="currentColor" d="M0 14a2 2 0 1 1 4 0 2 2 0 0 1-4 0Zm0-6a2 2 0 0 1 3.732-1H12c.086 0 .17.01.25.031a2 2 0 1 1 0 1.938c-.08.02-.164.031-.25.031H8.11c.04.069.078.14.114.211l1.341 2.683A2 2 0 0 0 11.355 13h.913A2 2 0 0 1 16 14a2 2 0 0 1-3.732 1h-.914a4 4 0 0 1-3.578-2.211l-1.341-2.683A2 2 0 0 0 4.645 9h-.913A2 2 0 0 1 0 8Zm0-6a2 2 0 0 1 3.75-.969C3.83 1.011 3.914 1 4 1h8c.086 0 .17.01.25.031a2 2 0 1 1 0 1.938c-.08.02-.164.031-.25.031H4a.984.984 0 0 1-.25-.031A2 2 0 0 1 0 2Z"/></svg>
</symbol><symbol id="talend-normalize"><svg xmlns="http://www.w3.org/2000/svg" viewBox="0 0 16 16">
	<g fill="none" fill-rule="evenodd">
		<g class="ti-normalize-border" fill="#000" fill-rule="nonzero">
			<path d="M9.917 15.999h3.331v-3.332H9.917zm-.005-3.732h3.331v-3.33H9.912zM9.91 7.078h3.331V3.747H9.91zm.003-3.736h3.331V.011H9.913zm-7.352 9.649H5.89V9.663H2.561z"/>
			<path d="M2.561 10.004H5.89V6.675H2.561zm.002-3.662h3.329V3.013H2.563z"/>
		</g>
		<path d="M10.245 11.935h2.665V9.269h-2.665zm.001-8.926h2.665V.343h-2.665zm-7.35 2.999h2.663V3.346H2.896z" class="ti-normalize-blocks-a" fill="#515151" fill-rule="nonzero"/>
		<path d="M10.244 6.745h2.665V4.08h-2.665zm-7.35 2.926h2.663V7.008H2.894z" class="ti-normalize-blocks-b" fill="#BCBCBC" fill-rule="nonzero"/>
		<path d="M3.292 10.019h.37v-.36h-.37zm.741-.001h.37v-.359h-.37zm.74 0h.37v-.359h-.37zm.746 0h.37v-.359h-.37zm-2.959.002h.37v-.361h-.37z" class="ti-normalize-separator" fill="#FFF" fill-rule="nonzero"/>
		<path d="M10.25 15.665h2.665v-2.664H10.25zm-7.356-3.007h2.663V9.996H2.894z" class="ti-normalize-blocks-c" fill="#8C8C8C" fill-rule="nonzero"/>
		<path d="M7.487 9.631a.4.4 0 0 1-.293-.127.449.449 0 0 1 0-.615l.878-.924-.878-.922a.45.45 0 0 1 0-.616.4.4 0 0 1 .585 0l1.17 1.23a.45.45 0 0 1 0 .616l-1.17 1.23a.401.401 0 0 1-.292.128z" class="ti-normalize-arrow" fill="#000" fill-rule="nonzero"/>
	</g>
</svg>
</symbol><symbol id="talend-parser"><svg xmlns="http://www.w3.org/2000/svg" viewBox="0 0 16 16">
  <g>
    <path fill-rule="evenodd" d="M3 0a3 3 0 00-3 3v10a3 3 0 003 3h10a3 3 0 003-3V3a3 3 0 00-3-3H3zm4.3 13H6.154L8.537 3h1.15L7.3 13zM3.616 8.357l2.622 1.164v1.942L2 9.186V7.503l4.238-2.277v1.936L3.616 8.357zm6.17-1.189l2.608 1.17-2.608 1.196v1.935L14 9.192V7.51L9.786 5.233v1.935z"/>
  </g>
</svg>
</symbol><symbol id="talend-semantic-filter"><svg xmlns="http://www.w3.org/2000/svg" viewBox="0 0 16 16">
<g>
  <path class="ti-foreground" d="M10.6803,2.0898 L1.2403,2.0898 C0.9303,2.0898 0.6803,1.7998 0.6803,1.4408 C0.6803,1.0398 0.9603,0.7708 1.2403,0.7708 L10.6803,0.7708 L10.6803,2.0898 Z M8.9703,8.2708 C8.9603,8.3098 8.9503,8.3398 8.9403,8.3608 C8.9303,8.3898 8.9203,8.3998 8.9003,8.4098 C8.8803,8.4198 8.8503,8.4308 8.8293,8.4308 L6.4703,8.4308 L6.4093,8.4198 C6.3803,8.4098 6.3503,8.3998 6.3203,8.3698 C6.2803,8.3298 6.2703,8.2598 6.2703,8.1698 L6.2703,7.9198 C6.2803,7.8898 6.2893,7.8508 6.3003,7.8198 C6.3103,7.7898 6.3293,7.7598 6.3503,7.7198 C6.3693,7.6908 6.3903,7.6498 6.4203,7.6008 L8.1103,4.9798 L6.4703,4.9798 L6.4303,4.9698 C6.4003,4.9598 6.3803,4.9408 6.3603,4.9098 C6.3293,4.8608 6.3203,4.7798 6.3203,4.6808 C6.3203,4.6298 6.3203,4.5798 6.3293,4.5398 C6.3293,4.5098 6.3403,4.4698 6.3603,4.4498 C6.3693,4.4308 6.3903,4.4098 6.4003,4.3998 C6.4203,4.3898 6.4403,4.3798 6.4703,4.3798 L8.6703,4.3798 L8.7103,4.3898 L8.7503,4.3998 C8.7803,4.4098 8.8003,4.4198 8.8103,4.4408 C8.8293,4.4598 8.8403,4.4898 8.8503,4.5208 C8.8603,4.5498 8.8693,4.5898 8.8693,4.6398 L8.8693,4.8298 L8.8603,4.8798 C8.8603,4.9198 8.8503,4.9498 8.8403,4.9798 C8.8203,5.0208 8.8103,5.0498 8.7893,5.0898 C8.7703,5.1198 8.7403,5.1698 8.7203,5.2098 L7.0303,7.8398 L8.8603,7.8398 L8.8903,7.8508 C8.9093,7.8608 8.9303,7.8798 8.9403,7.8998 C8.9503,7.9198 8.9603,7.9498 8.9703,7.9898 C8.9803,8.0298 8.9803,8.0798 8.9803,8.1298 C8.9803,8.1808 8.9803,8.2298 8.9703,8.2708 L8.9703,8.2708 Z M5.7003,8.4098 C5.6803,8.4308 5.6403,8.4408 5.5903,8.4498 L5.1703,8.4498 C5.1103,8.4408 5.0703,8.4408 5.0503,8.4308 C5.0203,8.4198 5.0003,8.3998 4.9903,8.3898 C4.9803,8.3698 4.9603,8.3508 4.9503,8.3198 L4.4803,6.9798 L2.1903,6.9798 L1.7203,8.2998 L1.7103,8.3398 L1.6903,8.3698 C1.6703,8.3898 1.6503,8.3998 1.6303,8.4198 C1.6003,8.4308 1.5603,8.4408 1.5103,8.4498 L1.3203,8.4498 C1.2403,8.4498 1.1703,8.4498 1.1193,8.4408 C1.0603,8.4408 1.0303,8.4198 1.0003,8.3998 C0.9803,8.3798 0.9703,8.3508 0.9803,8.3198 C0.9803,8.2798 0.9903,8.2298 1.0103,8.1598 L2.8693,3.0498 L2.8903,3.0098 L2.9203,2.9698 C2.9303,2.9498 2.9603,2.9408 3.0003,2.9308 C3.0303,2.9098 3.0793,2.9098 3.1303,2.8998 L3.5703,2.8998 C3.6303,2.9098 3.6803,2.9098 3.7203,2.9308 C3.7503,2.9408 3.7803,2.9498 3.8003,2.9798 C3.8203,2.9998 3.8403,3.0208 3.8503,3.0498 L5.7003,8.1698 L5.7203,8.2298 C5.7303,8.2598 5.7303,8.2898 5.7303,8.3198 C5.7403,8.3608 5.7303,8.3898 5.7003,8.4098 L5.7003,8.4098 Z M12.0203,0.7398 L12.0203,-0.0002 L1.1803,-0.0002 C0.5603,-0.0002 0.0003,0.5698 0.0003,1.2708 L0.0003,14.0598 C0.0003,15.1298 0.7703,15.9598 1.7703,15.9598 L9.5903,15.9598 C8.2803,15.1498 7.4093,13.7098 7.4093,12.0598 C7.4093,9.5298 9.4703,7.4698 12.0203,7.4698 L12.0203,2.0898 L11.4603,2.0898 L11.4603,0.7398 L12.0203,0.7398 Z M12.1101,8.1296 C14.2501,8.1696 16.0001,9.9196 16.0001,12.0596 C16.0001,14.2006 14.2501,15.9596 12.1101,15.9996 L12.1101,15.9996 L12.0201,15.9996 C11.8401,15.9996 11.6601,15.9906 11.4901,15.9596 C9.5401,15.7006 8.0401,14.0496 8.0401,12.0596 C8.0401,11.9906 8.0401,11.9196 8.0501,11.8506 C8.1201,10.5206 8.8501,9.3706 9.9401,8.7096 C10.5401,8.3396 11.2601,8.1296 12.0201,8.1296 L12.0201,8.1296 Z M14.2101,9.3996 L9.8401,9.3996 L9.8401,9.8096 L10.4401,10.4696 L11.0101,11.1006 L11.3701,11.4996 L11.3701,13.5896 L11.5501,13.8206 L11.9601,14.3306 L12.2801,14.7296 L12.6801,14.7296 L12.6801,11.4996 L14.2101,9.8096 L14.2101,9.3996 Z M3.3168,3.6615 L4.2878,6.3945 L2.3658,6.3945 L3.3168,3.6615 Z"/>
</g>
</svg>
</symbol><symbol id="talend-shape-tools"><svg xmlns="http://www.w3.org/2000/svg" viewBox="0 0 16 16">
  <g>
    <path class="ti-foreground" fill-rule="evenodd" d="M8.116 5.886L14.002 0 16 1.998l-5.886 5.886-1.57.57-.535.536-.999-.999.535-.535.57-1.57zM4.828 9.674L6.261 8.24l1.498 1.498-1.433 1.433a11.3 11.3 0 00-1.318 1.584l-1.377 2a4.668 4.668 0 01-.544.655l-.073.072a1.766 1.766 0 11-2.497-2.497l.073-.073c.2-.2.42-.383.654-.544l2-1.377a11.3 11.3 0 001.584-1.318zM9 2.7l-.106.204A13.999 13.999 0 017.23 5.413l.193.172-.37 1.026-.472-.418-.388.388.307.346-.711.726-.376-.423c-.77.64-1.61 1.199-2.51 1.664L2.7 9 0 6.3l.106-.204a14 14 0 015.99-5.99L6.3 0 9 2.7zM2.883 7.768l-1.651-1.65a13 13 0 014.885-4.886l1.651 1.65a13 13 0 01-4.885 4.886zm12.47 4.866a1.926 1.926 0 11-2.72 2.72l-4.436-4.992.72-.717 4.474 5.035a.913.913 0 101.289-1.289L9.598 8.875l1.081-.396 4.674 4.155z"/>
  </g>
</svg>
</symbol><symbol id="talend-transformer-window"><svg xmlns="http://www.w3.org/2000/svg" viewBox="0 0 32 32">
	<path d="M0 2h5v28H0zm27 0h5v28h-5zM6 22h5l2-3H6zm13 0h7v-3h-5zM9 30h10l.1 2 3.9-3.9-4-4.1v2H9zM16 .5A7.5 7.5 0 1 0 23.5 8 7.51 7.51 0 0 0 16 .5zm1.91 10.588l-2.5-2.5A.833.833 0 0 1 15.168 8V3.833h1.666v3.822l2.256 2.256z"/>
</svg>
</symbol><symbol id="talend-type-converter"><svg xmlns="http://www.w3.org/2000/svg" viewBox="0 0 16 16">
	<g fill="none" fill-rule="evenodd">
		<path d="M3.64 5.957c.31.303.693.523 1.134.523.507 0 .842-.22.842-.613 0-.457-.269-.743-1.397-.743v-.85c.931 0 1.226-.277 1.226-.694 0-.359-.229-.572-.638-.572-.367 0-.645.172-.972.458l-.604-.736c.473-.408.996-.66 1.634-.66 1.07 0 1.79.513 1.79 1.42 0 .54-.312.915-.867 1.153v.032c.596.171 1.03.595 1.03 1.266 0 .964-.883 1.511-1.929 1.511-.842 0-1.43-.293-1.806-.735l.556-.76z" class="type-converter-light-color" fill="#515151"/>
		<path d="M12.786 14.29c.31.302.694.521 1.135.521.507 0 .842-.219.842-.612 0-.457-.27-.743-1.397-.743v-.85c.93 0 1.226-.277 1.226-.694 0-.359-.23-.572-.638-.572-.368 0-.645.172-.972.457l-.605-.736c.474-.408.997-.66 1.635-.66 1.069 0 1.789.514 1.789 1.42 0 .54-.311.916-.866 1.154v.032c.596.171 1.029.595 1.029 1.266 0 .964-.883 1.511-1.928 1.511-.842 0-1.43-.294-1.806-.735l.556-.76zM.822 1.07a.384.384 0 0 0-.21.06 1.135 1.135 0 0 1-.017-.078.501.501 0 0 1 .037-.288.627.627 0 0 1 .12-.178A1.19 1.19 0 0 1 .934.43 9.04 9.04 0 0 1 1.16.28L.955.003C.827.066.705.134.59.208a1.482 1.482 0 0 0-.305.254A1.079 1.079 0 0 0 0 1.238c0 .08.014.161.042.245a.672.672 0 0 0 .367.402c.096.044.21.067.343.067a.477.477 0 0 0 .196-.04.468.468 0 0 0 .243-.259.47.47 0 0 0 .033-.177.423.423 0 0 0-.101-.293C1.055 1.108.955 1.07.822 1.07m1.98.114c-.067-.075-.167-.113-.301-.113a.384.384 0 0 0-.21.059l-.017-.077A.501.501 0 0 1 2.31.765a.669.669 0 0 1 .12-.18c.052-.053.112-.105.183-.155.069-.05.145-.1.227-.15L2.635.003a3.994 3.994 0 0 0-.366.205 1.548 1.548 0 0 0-.305.254 1.11 1.11 0 0 0-.208.332 1.184 1.184 0 0 0-.077.445c0 .079.014.16.042.245a.675.675 0 0 0 .368.402c.095.044.21.067.342.067a.473.473 0 0 0 .196-.04.468.468 0 0 0 .243-.26.472.472 0 0 0 .034-.176.423.423 0 0 0-.102-.293M8.194.237a.704.704 0 0 0-.232-.17A.817.817 0 0 0 7.617 0a.449.449 0 0 0-.34.146.485.485 0 0 0-.129.33.42.42 0 0 0 .102.29c.067.076.166.116.297.116.046 0 .09-.008.13-.022a.279.279 0 0 0 .08-.038c.007.027.013.054.017.077a.501.501 0 0 1-.037.288.63.63 0 0 1-.12.177 1.241 1.241 0 0 1-.182.155c-.07.051-.146.102-.227.153l.21.276a3.87 3.87 0 0 0 .365-.204c.116-.074.216-.158.303-.254.086-.096.155-.207.206-.334.051-.127.077-.274.077-.442a.77.77 0 0 0-.042-.246.672.672 0 0 0-.133-.23m1.812.23a.672.672 0 0 0-.365-.401A.816.816 0 0 0 9.296 0a.464.464 0 0 0-.194.04.48.48 0 0 0-.275.436.42.42 0 0 0 .102.29c.067.077.166.116.297.116a.417.417 0 0 0 .21-.06.907.907 0 0 1 .025.15.52.52 0 0 1-.044.216.671.671 0 0 1-.12.177 1.305 1.305 0 0 1-.183.155c-.07.05-.146.1-.227.152l.21.276c.128-.062.25-.13.365-.204.116-.074.216-.158.303-.254a1.11 1.11 0 0 0 .283-.776.77.77 0 0 0-.042-.245M11.261 12.9l-1.382-1.383a.407.407 0 0 0-.576.576l.642.642C7.815 12.671 6.1 10.931 6.1 8.788a.444.444 0 1 0-.887 0c0 2.638 2.12 4.782 4.747 4.837l-.658.656a.407.407 0 0 0 .576.576l1.382-1.382a.406.406 0 0 0 0-.575" class="type-converter-dark-color" fill="#000"/>
	</g>
</svg>
</symbol><symbol id="talend-window"><svg xmlns="http://www.w3.org/2000/svg" viewBox="0 0 50 50">
	<path d="M0 21h8v8H0zm50 4l-8-8v4h-8v8h8v4l8-8zm-20-7v3H12v-3h-2v14h2v-3h18v3h2V18h-2zm-20-6h2v4h-2zm20 0h2v4h-2zm0 22h2v4h-2zm-20 0h2v4h-2z"/>
</svg>
</symbol></svg>