<svg width="24" height="24" viewBox="0 0 24 24" fill="none" xmlns="http://www.w3.org/2000/svg">
<path d="M3.676 0.016C3.07247 0.064174 2.48776 0.248794 1.96599 0.555929C1.44423 0.863064 0.999032 1.28469 0.664 1.789C0.312 2.33 0.125 2.84 0.02 3.563C-8.73115e-10 3.699 -0.008 20.015 0.012 20.276C0.0493042 20.8521 0.211892 21.4131 0.488415 21.9198C0.764937 22.4266 1.14873 22.8669 1.613 23.21C2.22673 23.667 2.95947 23.9368 3.723 23.987C3.848 23.995 6.293 23.999 12.117 23.995L20.34 23.991L20.516 23.968C21.25 23.858 21.848 23.616 22.406 23.194C22.719 22.96 22.969 22.71 23.203 22.394C23.664 21.78 23.926 21.077 23.988 20.292C24.004 20.077 24.004 3.917 23.988 3.702C23.9316 2.92285 23.6476 2.17743 23.1711 1.55838C22.6946 0.93932 22.0468 0.473918 21.308 0.22C21.0247 0.127054 20.7335 0.0601111 20.438 0.02C20.316 0.005 3.887 -0.003 3.675 0.017L3.676 0.016ZM6.223 7.027C6.512 7.094 6.758 7.285 6.895 7.555C6.949 7.665 9.961 15.707 9.98 15.793C10.004 15.918 10 16.109 9.973 16.227C9.92219 16.4467 9.79821 16.6425 9.6214 16.7825C9.44459 16.9224 9.22547 16.998 9 16.997C8.8086 16.9987 8.62087 16.9444 8.45991 16.8408C8.29895 16.7373 8.17176 16.5889 8.094 16.414C7.99242 16.1659 7.89573 15.9159 7.804 15.664L7.555 15H4.446L4.196 15.664C4.10324 15.9148 4.00823 16.1649 3.911 16.414C3.83188 16.5886 3.70379 16.7366 3.54227 16.8399C3.38075 16.9432 3.19273 16.9974 3.001 16.996C2.77534 16.9978 2.55586 16.9224 2.3789 16.7823C2.20194 16.6423 2.07814 16.446 2.028 16.226C1.99938 16.0832 1.99802 15.9363 2.024 15.793C2.04 15.707 5.052 7.664 5.106 7.555C5.216 7.335 5.403 7.165 5.626 7.07C5.692 7.047 5.81 7.016 5.903 7.004C5.962 6.992 6.138 7.008 6.223 7.027ZM11.75 7.031C12.094 7.117 12.371 7.395 12.473 7.754L12.5 7.844V9.426L12.504 11.004H13.102C13.801 11.004 13.926 11.012 14.238 11.09C14.633 11.191 15.074 11.41 15.391 11.672C15.7494 11.9624 16.0356 12.3318 16.2273 12.7513C16.419 13.1708 16.511 13.629 16.496 14.09C16.4811 14.7126 16.2693 15.3144 15.891 15.809C15.777 15.961 15.5 16.246 15.351 16.359C14.9358 16.6845 14.4429 16.8961 13.921 16.973C13.754 16.996 13.746 16.996 12.551 16.996H11.351L11.258 16.973C11.0828 16.9263 10.9231 16.8342 10.7949 16.7061C10.6668 16.5779 10.5747 16.4182 10.528 16.243C10.508 16.168 10.508 16.012 10.508 12C10.508 7.988 10.508 7.832 10.528 7.758C10.641 7.352 10.957 7.07 11.363 7.008C11.461 6.992 11.641 7.004 11.75 7.031ZM21.305 11.047C21.465 11.102 21.585 11.176 21.703 11.297C21.8185 11.4066 21.9044 11.5434 21.953 11.695C21.988 11.805 21.988 11.812 21.988 12C21.988 12.188 21.988 12.195 21.953 12.305C21.843 12.625 21.605 12.859 21.273 12.965C21.195 12.988 21.164 12.988 20.527 12.996C19.902 13.004 19.852 13.004 19.766 13.027C19.27 13.157 18.949 13.617 19.008 14.113C19.0277 14.2838 19.0913 14.4467 19.1926 14.5856C19.2939 14.7246 19.4294 14.835 19.586 14.906C19.773 14.992 19.758 14.992 20.504 15C20.871 15.004 21.184 15.012 21.199 15.016C21.406 15.078 21.496 15.121 21.605 15.203C21.757 15.3185 21.8728 15.4751 21.9387 15.6542C22.0046 15.8334 22.0178 16.0277 21.9768 16.2142C21.9358 16.4006 21.8423 16.5715 21.7073 16.7065C21.5723 16.8415 21.4015 16.935 21.215 16.976C21.133 16.996 21.063 16.996 20.457 16.996C19.747 16.996 19.676 16.992 19.402 16.938C18.7997 16.8163 18.2494 16.5121 17.8259 16.0668C17.4024 15.6215 17.1263 15.0567 17.035 14.449C17.0048 14.2015 16.9981 13.9517 17.015 13.703C17.0796 13.0679 17.3446 12.4699 17.7715 11.9953C18.1985 11.5207 18.7653 11.1942 19.39 11.063C19.637 11.008 19.723 11.008 20.48 11.008H21.195L21.305 11.047Z" fill="#202020"/>
<path d="M5.598 11.922C5.383 12.504 5.203 12.98 5.203 12.988C5.203 12.992 5.563 12.996 6 12.996C6.438 12.996 6.797 12.992 6.797 12.988C6.797 12.973 6.007 10.863 6 10.863C5.996 10.863 5.816 11.34 5.598 11.922ZM12.504 15L13.672 14.992L13.777 14.961C14.113 14.855 14.367 14.601 14.461 14.273C14.4969 14.1196 14.5036 13.9609 14.481 13.805C14.4417 13.6197 14.3519 13.4489 14.2214 13.3116C14.091 13.1742 13.925 13.0757 13.742 13.027C13.652 13.004 13.617 13.004 13.074 13L12.504 12.992V15Z" fill="#202020"/>
</svg>
