<svg width="24" height="24" viewBox="0 0 24 24" fill="none" xmlns="http://www.w3.org/2000/svg">
<path d="M11.848 2.836C11.4065 2.87146 10.989 3.0514 10.66 3.348C10.594 3.406 9.395 4.602 7.996 6C5.796 8.207 5.446 8.563 5.383 8.652C5.27746 8.80292 5.20177 8.97264 5.16 9.152C5.129 9.262 5.129 9.297 5.129 9.48C5.129 9.637 5.133 9.71 5.149 9.785C5.20651 10.0794 5.35042 10.35 5.56236 10.5623C5.7743 10.7746 6.04468 10.919 6.339 10.977C6.429 10.997 6.57 10.997 7.719 11L9 11.004L9.004 15.617C9.008 20.645 9.004 20.257 9.07 20.52C9.148 20.832 9.34 21.16 9.574 21.398C9.864 21.691 10.211 21.875 10.625 21.965L10.754 21.988H13.262L13.382 21.965C13.7822 21.8853 14.1486 21.6858 14.4326 21.3928C14.7166 21.0999 14.9047 20.7274 14.972 20.325C14.992 20.242 14.992 19.758 14.996 15.617L15 11.004L16.281 11C17.691 10.996 17.633 10.996 17.863 10.922C18.301 10.773 18.653 10.418 18.801 9.969C18.859 9.793 18.875 9.699 18.875 9.48C18.883 9.36813 18.8711 9.25574 18.84 9.148C18.796 8.96387 18.7162 8.79023 18.605 8.637C18.559 8.57 17.961 7.961 15.973 5.973C15.0873 5.07867 14.1953 4.19064 13.297 3.309C12.8949 2.96638 12.3748 2.79639 11.848 2.836Z" fill="currentColor"/>
</svg>
