<svg width="24" height="24" viewBox="0 0 24 24" fill="none" xmlns="http://www.w3.org/2000/svg">
<path d="M10.746 2.016C10.299 2.07638 9.88518 2.28499 9.5708 2.60844C9.25642 2.93189 9.05965 3.35146 9.012 3.8C9.004 3.879 9 5.324 9 8.453V12.996L7.719 13C6.594 13.004 6.429 13.008 6.344 13.023C6.04858 13.0799 5.7769 13.2238 5.56381 13.4362C5.35072 13.6486 5.20592 13.9198 5.148 14.215C5.133 14.289 5.128 14.363 5.128 14.52C5.128 14.703 5.128 14.734 5.16 14.848C5.21 15.051 5.27 15.176 5.383 15.344C5.445 15.438 5.797 15.793 7.996 18C8.88001 18.888 9.76802 19.772 10.66 20.652C11.0199 20.9774 11.4858 21.1609 11.971 21.1682C12.4561 21.1756 12.9274 21.0063 13.297 20.692C13.355 20.645 14.559 19.445 15.973 18.027C18.297 15.703 18.555 15.441 18.621 15.34C18.738 15.16 18.805 15.012 18.851 14.805C18.883 14.675 18.883 14.355 18.851 14.219C18.797 13.9331 18.66 13.6694 18.457 13.461C18.2942 13.2856 18.0899 13.1539 17.863 13.078C17.633 13 17.691 13.004 16.281 13L15 12.996L14.996 8.383C14.992 4.243 14.992 3.758 14.973 3.672C14.9243 3.38279 14.8123 3.10792 14.645 2.867C14.355 2.441 13.925 2.16 13.391 2.039C13.273 2.012 13.273 2.012 12.047 2.008C11.375 2.008 10.788 2.012 10.746 2.016Z" fill="currentColor"/>
</svg>
