<svg width="24" height="24" viewBox="0 0 24 24" fill="none" xmlns="http://www.w3.org/2000/svg">
<path d="M11.691 0.00800344C10.4521 0.0617462 9.24988 0.444278 8.20773 1.11631C7.16559 1.78835 6.3211 2.72566 5.761 3.832C5.36091 4.60991 5.11313 5.4571 5.031 6.328C5.011 6.496 5.011 6.648 5.011 7.453C5.008 8.391 5.008 8.441 4.961 8.836C4.871 9.617 4.648 10.309 4.309 10.844C4.254 10.93 3.047 12.621 2.551 13.304C2.496 13.379 2.391 13.559 2.336 13.672C2.02358 14.2972 1.94212 15.0126 2.106 15.692C2.2727 16.3726 2.66677 16.9759 3.223 17.402C3.633 17.711 4.074 17.891 4.613 17.972C4.746 17.992 5.093 17.992 12 17.992C18.93 17.992 19.254 17.992 19.39 17.972C20.1456 17.8713 20.8332 17.4826 21.309 16.887C22.043 15.969 22.187 14.711 21.672 13.68C21.6032 13.5526 21.5301 13.4275 21.453 13.305C21.145 12.891 19.743 10.93 19.691 10.844C19.402 10.387 19.191 9.809 19.086 9.168C19 8.668 18.984 8.328 18.988 7.316C18.992 6.465 18.988 6.426 18.926 5.98C18.7516 4.82024 18.2911 3.72217 17.586 2.785C16.9031 1.87764 16.0092 1.1505 14.9818 0.666598C13.9544 0.182697 12.8245 -0.0433645 11.69 0.00800344H11.691ZM13.074 2.113C13.9166 2.30098 14.6966 2.70266 15.339 3.27939C15.9814 3.85612 16.4646 4.58848 16.742 5.406C16.809 5.609 16.859 5.805 16.906 6.027C17 6.488 17.031 7.16 16.969 7.402C16.914 7.622 16.769 7.789 16.543 7.902C16.383 7.984 16.309 7.996 15.993 7.996C15.727 7.996 15.719 7.996 15.629 7.965C15.5721 7.9457 15.5171 7.92091 15.465 7.891C15.2967 7.77703 15.1647 7.61698 15.085 7.43C15.027 7.285 15.012 7.188 15 6.953C14.9931 6.83585 14.9841 6.71883 14.973 6.602C14.9001 6.06037 14.6807 5.54892 14.3384 5.1228C13.9962 4.69669 13.5441 4.37209 13.031 4.184C12.874 4.12979 12.7244 4.05586 12.586 3.964C12.191 3.704 11.98 3.332 12.004 2.945C12.0098 2.80092 12.0487 2.6601 12.1177 2.5335C12.1867 2.40689 12.284 2.2979 12.402 2.215C12.59 2.09 12.801 2.055 13.074 2.113ZM8.8 20.02C8.64883 20.0487 8.50778 20.1164 8.39079 20.2164C8.27381 20.3164 8.18495 20.4452 8.133 20.59C8.09709 20.7226 8.09434 20.8621 8.125 20.996C8.415 22.059 9.055 22.906 9.973 23.446C10.7358 23.8951 11.6261 24.0781 12.5041 23.9662C13.3822 23.8544 14.1982 23.454 14.824 22.828C15.3256 22.3295 15.6856 21.7065 15.867 21.023C15.9023 20.908 15.9092 20.7862 15.887 20.668C15.828 20.375 15.594 20.137 15.27 20.035L15.184 20.008H12.03C9.44 20.008 8.862 20.008 8.8 20.02Z" fill="#202020"/>
</svg>
