<svg width="24" height="24" viewBox="0 0 24 24" fill="none" xmlns="http://www.w3.org/2000/svg">
<path d="M11.566 0.00800216C9.79 0.0900022 8.246 0.473002 6.734 1.21C5.00461 2.05069 3.5034 3.29593 2.35762 4.84018C1.21183 6.38443 0.45525 8.18217 0.152 10.081C0.043 10.766 0.008 11.266 0.008 12C-0.00160423 14.309 0.659119 16.5712 1.91 18.512C2.99648 20.1914 4.48385 21.5739 6.238 22.535C8.67623 23.8589 11.4958 24.3031 14.223 23.793C15.7191 23.5168 17.1483 22.956 18.433 22.141C19.5441 21.4331 20.5324 20.5489 21.359 19.523C22.831 17.6908 23.7305 15.4655 23.945 13.125C23.985 12.707 23.992 12.508 23.992 12C23.992 11.23 23.949 10.672 23.824 9.95C23.298 6.87656 21.5939 4.12951 19.074 2.293C17.6821 1.28186 16.0886 0.582648 14.402 0.243002C13.863 0.133002 13.406 0.0700022 12.832 0.0270022C12.4103 0.00686807 11.9881 0.000198009 11.566 0.00700216V0.00800216ZM12.828 2.031C13.718 2.113 14.426 2.258 15.218 2.523C16.8032 3.0613 18.2282 3.98818 19.363 5.219C20.6421 6.60556 21.4999 8.32773 21.836 10.184C21.949 10.793 21.996 11.34 21.996 11.996C22.0029 14.1387 21.3194 16.2266 20.0467 17.9503C18.774 19.6741 16.9798 20.9419 14.93 21.566C14.262 21.77 13.605 21.895 12.832 21.969C12.555 21.992 11.766 22.004 11.449 21.984C9.81562 21.8996 8.22847 21.4125 6.829 20.566C5.70928 19.8907 4.7323 19.003 3.953 17.953C3.05963 16.7457 2.45202 15.3513 2.176 13.875C2.109 13.535 2.059 13.152 2.023 12.75C2 12.465 2.003 11.469 2.031 11.18C2.18 9.527 2.661 8.07 3.504 6.707C4.10381 5.74653 4.86185 4.8945 5.746 4.187C7.38271 2.87726 9.39035 2.11626 11.484 2.012C11.9321 2.00527 12.3803 2.01194 12.828 2.032V2.031Z" fill="#202020"/>
<path d="M17.797 5.023C17.6711 5.04945 17.5516 5.10005 17.445 5.172C17.367 5.227 16.27 6.316 11.277 11.312C5.988 16.602 5.199 17.395 5.152 17.472C4.953 17.797 4.953 18.207 5.152 18.527C5.445 18.992 6.055 19.137 6.527 18.847C6.605 18.801 7.398 18.012 12.687 12.723C19.223 6.191 18.847 6.57 18.926 6.371C18.9935 6.20345 19.0141 6.02072 18.9858 5.84233C18.9575 5.66394 18.8812 5.4966 18.7652 5.35818C18.6492 5.21976 18.4977 5.11546 18.327 5.05643C18.1563 4.99739 17.9728 4.98584 17.796 5.023H17.797Z" fill="#202020"/>
</svg>
