<svg width="24" height="24" viewBox="0 0 24 24" fill="none" xmlns="http://www.w3.org/2000/svg">
<g clip-path="url(#clip0_2435_14046)">
<path d="M6.688 0.012C6.15003 0.0548397 5.62627 0.20599 5.14819 0.456371C4.67012 0.706751 4.24759 1.05119 3.906 1.469C3.38041 2.10728 3.0678 2.89406 3.012 3.719C3.004 3.844 3 5.816 3.004 10.445L3.008 16.992L3.137 16.902C3.73789 16.4828 4.42326 16.2002 5.145 16.074C5.594 15.996 4.957 16.004 12.328 16C16.992 15.996 19.074 16 19.218 16.008C19.8031 16.038 20.3743 16.1968 20.891 16.473L20.996 16.531V9.234C21 3.988 20.996 1.902 20.988 1.809C20.9489 1.36009 20.7544 0.938895 20.438 0.618C20.112 0.274887 19.6739 0.059902 19.203 0.012C19.066 -0.004 6.867 -0.004 6.688 0.012ZM12.16 3.012C12.46 3.066 12.71 3.238 12.867 3.504C12.898 3.554 13.41 4.906 14.426 7.617C14.9426 8.98797 15.4556 10.3603 15.965 11.734C15.988 11.804 15.992 11.848 15.992 12.004C15.988 12.184 15.988 12.199 15.953 12.304C15.863 12.574 15.668 12.793 15.418 12.906C15.262 12.976 15.203 12.988 14.996 12.988C14.816 12.988 14.801 12.988 14.696 12.953C14.6256 12.9272 14.5574 12.8958 14.492 12.859C14.3488 12.7684 14.2276 12.6472 14.137 12.504C14.0298 12.2633 13.932 12.0184 13.844 11.77C13.711 11.418 13.594 11.098 13.578 11.066L13.558 11.004H10.441L10.421 11.066C10.406 11.098 10.289 11.418 10.156 11.77C10.012 12.156 9.895 12.45 9.863 12.504C9.77 12.668 9.593 12.828 9.418 12.906C9.262 12.976 9.203 12.988 8.996 12.988C8.816 12.988 8.801 12.988 8.696 12.953C8.54461 12.9028 8.40744 12.8171 8.296 12.703C8.18055 12.5934 8.09456 12.4566 8.046 12.305C8.012 12.199 8.012 12.184 8.012 12.004C8.012 11.848 8.012 11.804 8.035 11.734C8.047 11.691 8.742 9.836 9.575 7.617C10.758 4.461 11.098 3.559 11.141 3.492C11.2132 3.37002 11.3102 3.26459 11.4258 3.18258C11.5414 3.10058 11.673 3.04382 11.812 3.016C11.906 3 12.066 2.996 12.16 3.012Z" fill="currentColor"/>
<path d="M11.594 7.934L11.195 9H12.805L12.406 7.934C12.2751 7.57667 12.1397 7.22098 12 6.867C11.996 6.867 11.812 7.347 11.594 7.934ZM5.727 18.012C5.167 18.0658 4.63289 18.2739 4.184 18.613C3.99961 18.7607 3.82953 18.9254 3.676 19.105C3.336 19.52 3.117 20.023 3.031 20.559C2.99849 20.839 2.99715 21.1217 3.027 21.402C3.105 21.949 3.332 22.472 3.676 22.891C3.789 23.031 4.046 23.285 4.184 23.387C4.58662 23.6894 5.05684 23.8891 5.554 23.969L5.704 23.992L12.383 23.996C17.191 24 19.098 23.996 19.191 23.988C19.6635 23.9444 20.1046 23.7325 20.434 23.391C20.75 23.063 20.937 22.664 20.988 22.203C21.004 22.059 21.004 19.949 20.988 19.797C20.9597 19.5275 20.8774 19.2665 20.7459 19.0296C20.6145 18.7927 20.4366 18.5847 20.223 18.418C19.965 18.218 19.707 18.105 19.336 18.028C19.258 18.008 18.641 18.008 12.539 18.004C8.848 18.004 5.785 18.008 5.727 18.012Z" fill="currentColor"/>
</g>
<defs>
<clipPath id="clip0_2435_14046">
<rect width="24" height="24" fill="white"/>
</clipPath>
</defs>
</svg>
