<svg width="24" height="24" viewBox="0 0 24 24" fill="none" xmlns="http://www.w3.org/2000/svg">
<g clip-path="url(#clip0_2064_19773)">
<path d="M7.79 4.00399C6.54701 4.0354 5.32831 4.35514 4.23 4.93799C2.77201 5.71676 1.59112 6.92813 0.849755 8.40549C0.10839 9.88285 -0.157031 11.5536 0.09 13.188C0.326319 14.7877 1.04365 16.2777 2.14675 17.4601C3.24985 18.6425 4.68652 19.4614 6.266 19.808C6.621 19.887 6.969 19.938 7.437 19.98C7.551 19.992 8.648 19.996 11.742 20C15.945 20.004 16.352 20.004 16.766 19.96C17.5889 19.8816 18.3949 19.6776 19.156 19.355C20.7825 18.6584 22.1318 17.4416 22.9921 15.8955C23.8525 14.3494 24.1754 12.5614 23.91 10.812C23.6251 8.87653 22.6381 7.11354 21.137 5.85899C19.8979 4.82309 18.3739 4.18713 16.766 4.03499C16.6032 4.02237 16.4402 4.01337 16.277 4.00799C16.023 3.99999 8.188 3.99599 7.79 4.00399ZM16.61 6.02699C17.8618 6.1527 19.0422 6.66934 19.9838 7.50363C20.9254 8.33791 21.5804 9.44749 21.856 10.675C21.965 11.168 22.004 11.57 21.992 12.121C21.988 12.473 21.972 12.652 21.926 12.949C21.7893 13.8139 21.4645 14.6383 20.9745 15.364C20.4845 16.0897 19.8412 16.699 19.09 17.149C18.8097 17.3127 18.5187 17.4574 18.219 17.582C17.625 17.812 17.008 17.949 16.367 17.988C16.215 17.996 14.891 18 11.855 17.996C7.199 17.992 7.535 17.996 7.109 17.934C6.32121 17.8169 5.56463 17.5441 4.88337 17.1315C4.20211 16.7189 3.60981 16.1748 3.141 15.531C2.52389 14.6787 2.14115 13.6795 2.031 12.633C2.00433 12.2806 1.99932 11.927 2.016 11.574C2.08424 10.5442 2.41894 9.54981 2.98729 8.68835C3.55564 7.82689 4.33812 7.12792 5.258 6.65999C6.0076 6.27464 6.83032 6.05243 7.672 6.00799C7.703 6.00399 9.692 6.00399 12.09 6.00399C16.047 6.00799 16.46 6.00799 16.61 6.02699Z" fill="#202020"/>
<path d="M7.637 8.01599C6.941 8.08599 6.301 8.31599 5.742 8.69599C5.3035 8.99675 4.92919 9.3817 4.64086 9.82846C4.35253 10.2752 4.15592 10.7749 4.06249 11.2983C3.96906 11.8218 3.98067 12.3586 4.09664 12.8775C4.21261 13.3964 4.43062 13.8871 4.738 14.321C5.016 14.707 5.387 15.071 5.785 15.332C6.305 15.676 6.852 15.879 7.5 15.969C7.684 15.996 8.29 16 8.46 15.977C9.184 15.875 9.781 15.645 10.328 15.257C11.085 14.7135 11.6294 13.9238 11.868 13.023C11.9573 12.6896 11.9987 12.3451 11.991 12C11.991 11.625 11.96 11.348 11.874 11.008C11.7331 10.4538 11.4746 9.93634 11.116 9.49084C10.7575 9.04533 10.3073 8.68217 9.796 8.42599C9.39366 8.22469 8.96084 8.09122 8.515 8.03099C8.22223 8.00838 7.92837 8.00337 7.635 8.01599H7.637Z" fill="#202020"/>
</g>
<defs>
<clipPath id="clip0_2064_19773">
<rect width="24" height="24" fill="white"/>
</clipPath>
</defs>
</svg>
