<svg width="24" height="24" viewBox="0 0 24 24" fill="none" xmlns="http://www.w3.org/2000/svg">
<path d="M4.895 0.00802832C4.46842 0.0407619 4.05361 0.163461 3.67787 0.368051C3.30213 0.572641 2.97397 0.854483 2.715 1.19503C2.645 1.28503 0.665 4.44103 0.609 4.54703C0.602 4.56303 0.559 4.61303 0.519 4.66003C0.397986 4.79195 0.296917 4.94086 0.219 5.10203C0.098 5.34003 0.039 5.55103 0.012 5.80503C0.004 5.89803 -2.32831e-10 7.93003 0.004 13.137L0.008 20.336L0.031 20.516C0.125 21.168 0.324 21.688 0.676 22.219C0.914 22.579 1.246 22.929 1.602 23.195C2.215 23.66 2.942 23.93 3.727 23.988C3.847 23.996 6.344 24 12.117 23.996C19.855 23.992 20.347 23.992 20.48 23.973C20.797 23.926 20.988 23.883 21.242 23.801C21.6962 23.6506 22.1206 23.4218 22.496 23.125C22.66 22.992 22.996 22.656 23.125 22.492C23.59 21.906 23.859 21.27 23.973 20.477C23.993 20.347 23.993 19.902 23.996 13.141C24 8.14503 23.996 5.90603 23.988 5.81603C23.9495 5.38554 23.7711 4.97951 23.48 4.66003C23.0172 4.02201 22.5472 3.3893 22.07 2.76203C20.867 1.16003 20.777 1.03903 20.633 0.895028C20.4886 0.744331 20.3276 0.610478 20.153 0.496028C19.7861 0.256989 19.3727 0.0985009 18.94 0.0310283L18.792 0.00802832L11.866 0.00402832C8.054 0.00402832 4.918 0.00402832 4.895 0.00802832ZM18.703 2.02003C18.875 2.05903 19.047 2.14803 19.183 2.27003C19.223 2.30003 19.488 2.64803 19.859 3.14503C20.199 3.59803 20.48 3.97303 20.489 3.98003C20.496 3.99203 18.777 3.99603 11.902 3.99603H3.305L3.805 3.19603C4.348 2.32803 4.379 2.28603 4.555 2.16803C4.652 2.10203 4.781 2.04703 4.895 2.02303C4.965 2.00803 5.785 2.00803 11.797 2.00303C17.836 2.00303 18.629 2.00803 18.703 2.02003ZM21.996 13.086C21.996 19.34 21.992 20.187 21.98 20.289C21.93 20.613 21.816 20.899 21.621 21.168C21.4902 21.337 21.3391 21.4891 21.171 21.621C20.891 21.821 20.574 21.945 20.25 21.984C20.168 21.992 18.047 21.996 11.93 21.992L3.723 21.988L3.605 21.965C3.3347 21.903 3.0781 21.7918 2.848 21.637C2.66551 21.4976 2.50241 21.3345 2.363 21.152C2.2087 20.9217 2.09756 20.6652 2.035 20.395L2.012 20.277L2.004 6.00003H21.996V13.086Z" fill="currentColor"/>
<path d="M6.816 9.02003C6.66755 9.04843 6.52749 9.11014 6.40635 9.20052C6.28521 9.29089 6.18616 9.40758 6.11665 9.54178C6.04714 9.67599 6.00898 9.82422 6.00506 9.9753C6.00114 10.1264 6.03155 10.2764 6.094 10.414C6.199 10.641 6.364 10.804 6.578 10.902C6.67855 10.9506 6.78687 10.9811 6.898 10.992C7.039 11.008 16.957 11.008 17.098 10.992C17.2107 10.9826 17.3206 10.9521 17.422 10.902C17.6376 10.804 17.8098 10.6304 17.906 10.414C17.9601 10.3014 17.9908 10.1789 17.996 10.054C18.027 9.55403 17.668 9.10503 17.176 9.01603C17.082 9.00403 16.484 9.00003 11.988 9.00003C7.633 9.00403 6.895 9.00403 6.816 9.02003ZM6.879 13.008C6.70947 13.0287 6.54813 13.0927 6.4106 13.194C6.27308 13.2952 6.16402 13.4303 6.094 13.586C6.03834 13.7085 6.00795 13.841 6.00464 13.9755C6.00134 14.11 6.02518 14.2438 6.07474 14.3689C6.12431 14.494 6.19859 14.6078 6.29313 14.7035C6.38767 14.7992 6.50054 14.8749 6.625 14.926C6.825 15.004 6.387 15 12 15C16.484 15 17.082 14.996 17.176 14.98C17.4129 14.9389 17.627 14.8135 17.7787 14.6269C17.9304 14.4403 18.0094 14.2052 18.0013 13.9649C17.9931 13.7245 17.8983 13.4953 17.7343 13.3194C17.5703 13.1435 17.3482 13.0329 17.109 13.008C16.989 12.992 6.992 12.992 6.879 13.008ZM6.844 17.012C6.73863 17.0332 6.63621 17.0672 6.539 17.113C6.41869 17.1755 6.31234 17.2618 6.22639 17.3667C6.14044 17.4716 6.07669 17.5928 6.039 17.723C6.01168 17.8127 6.00117 17.9066 6.008 18C6.008 18.152 6.012 18.18 6.039 18.273C6.141 18.613 6.399 18.867 6.734 18.965L6.828 18.988H17.176L17.266 18.965C17.602 18.867 17.859 18.613 17.961 18.273C17.9884 18.1848 17.9989 18.0922 17.992 18C17.9988 17.9066 17.9883 17.8127 17.961 17.723C17.9121 17.5605 17.8236 17.4125 17.7036 17.2925C17.5835 17.1724 17.4356 17.084 17.273 17.035L17.188 17.008H12.03C9.194 17.008 6.859 17.008 6.844 17.012Z" fill="currentColor"/>
</svg>
