<svg width="24" height="24" viewBox="0 0 24 24" fill="none" xmlns="http://www.w3.org/2000/svg">
<g clip-path="url(#clip0_2064_20151)">
<path d="M10.664 1.01999C10.4975 1.03978 10.3329 1.07356 10.172 1.12099C9.465 1.32099 8.855 1.78099 8.449 2.42599C8.293 2.67599 8.133 3.07399 8.07 3.36699C8.008 3.67599 8.012 3.45699 8.012 7.52299C8.012 11.77 8 11.371 8.098 11.746C8.188 12.106 8.328 12.414 8.539 12.711C8.96881 13.328 9.61426 13.7615 10.348 13.926C10.676 14 10.578 13.996 12.641 14.004L14.527 14.008L14.625 14.043C14.68 14.063 14.758 14.093 14.801 14.117C14.844 14.137 15.687 14.762 16.676 15.504C18.039 16.527 18.5 16.864 18.57 16.898C18.6979 16.9588 18.8372 16.9919 18.9788 16.9949C19.1205 16.998 19.2611 16.971 19.3915 16.9157C19.5219 16.8604 19.6391 16.7781 19.7354 16.6742C19.8316 16.5703 19.9048 16.4472 19.95 16.313L19.988 16.199L19.992 15.527C20 14.883 20 14.852 20.023 14.757C20.074 14.578 20.156 14.437 20.285 14.305C20.375 14.211 20.465 14.148 20.582 14.09C20.722 14.023 20.824 14.004 21.094 13.992C21.6482 13.9772 22.1871 13.8067 22.649 13.5C22.836 13.375 22.965 13.273 23.117 13.117C23.6295 12.6104 23.9392 11.934 23.988 11.215C24.004 10.996 24.004 3.99999 23.988 3.78499C23.9566 3.32789 23.8201 2.88422 23.589 2.48856C23.358 2.0929 23.0387 1.75595 22.656 1.50399C22.2948 1.26313 21.8858 1.10314 21.457 1.03499C21.355 1.01499 20.977 1.01499 16.051 1.01199C13.137 1.01199 10.711 1.01599 10.664 1.01999ZM11.73 6.01999C12.047 6.06299 12.324 6.20699 12.559 6.43799C12.848 6.72999 12.996 7.08599 12.996 7.49999C12.996 7.91399 12.848 8.26999 12.559 8.55899C12.4134 8.70766 12.2377 8.82355 12.0437 8.89891C11.8497 8.97426 11.6418 9.00736 11.434 8.99599C11.0724 8.98477 10.7281 8.83849 10.469 8.58599C10.2164 8.34739 10.0545 8.02851 10.0109 7.68381C9.96735 7.3391 10.0448 6.98996 10.23 6.69599C10.309 6.56599 10.527 6.34399 10.652 6.26199C10.855 6.12499 11.086 6.03899 11.328 6.00799C11.414 5.99599 11.618 5.99999 11.73 6.01999ZM16.23 6.01999C16.547 6.06299 16.824 6.20699 17.059 6.43799C17.348 6.72999 17.496 7.08599 17.496 7.49999C17.496 7.91399 17.348 8.26999 17.059 8.55899C16.9134 8.70766 16.7377 8.82355 16.5437 8.89891C16.3497 8.97426 16.1418 9.00736 15.934 8.99599C15.5724 8.98477 15.2281 8.83849 14.969 8.58599C14.7164 8.34739 14.5545 8.02851 14.5109 7.68381C14.4674 7.3391 14.5448 6.98996 14.73 6.69599C14.809 6.56599 15.027 6.34399 15.152 6.26199C15.355 6.12499 15.586 6.03899 15.828 6.00799C15.914 5.99599 16.118 5.99999 16.23 6.01999ZM20.73 6.01999C21.047 6.06299 21.324 6.20699 21.559 6.43799C21.848 6.72999 21.996 7.08599 21.996 7.49999C21.996 7.91399 21.848 8.26999 21.559 8.55899C21.4134 8.70766 21.2377 8.82355 21.0437 8.89891C20.8497 8.97426 20.6418 9.00736 20.434 8.99599C20.0724 8.98477 19.7281 8.83849 19.469 8.58599C19.2164 8.34739 19.0545 8.02851 19.0109 7.68381C18.9674 7.3391 19.0448 6.98996 19.23 6.69599C19.309 6.56599 19.527 6.34399 19.652 6.26199C19.855 6.12499 20.086 6.03899 20.328 6.00799C20.414 5.99599 20.618 5.99999 20.73 6.01999Z" fill="#202020"/>
<path d="M2.793 7.00799C2.26987 7.04491 1.76557 7.21837 1.33041 7.51105C0.895252 7.80373 0.544448 8.2054 0.313 8.67599C0.143879 9.01105 0.0416418 9.37584 0.012 9.74999C-0.004 9.93399 -0.004 17.066 0.012 17.25C0.047 17.64 0.137 17.969 0.312 18.324C0.500936 18.7074 0.769476 19.0462 1.0997 19.3176C1.42993 19.589 1.81424 19.7869 2.227 19.898C2.437 19.953 2.621 19.98 2.918 19.996C3.082 20.008 3.223 20.023 3.266 20.036C3.617 20.129 3.902 20.434 3.976 20.793C3.992 20.867 3.996 20.973 3.996 21.433C3.996 21.734 4.004 22.035 4.008 22.102C4.055 22.535 4.352 22.867 4.789 22.977C4.906 23.004 5.121 23.004 5.246 22.969C5.446 22.918 5.426 22.929 7.316 21.512C8.296 20.777 9.133 20.156 9.176 20.129C9.219 20.105 9.301 20.066 9.363 20.047L9.477 20.007L11.363 20.004C13.063 19.996 13.262 19.996 13.383 19.977C13.8969 19.9064 14.3846 19.7072 14.801 19.398C14.973 19.27 15.27 18.973 15.395 18.801C15.5784 18.5585 15.7243 18.2898 15.828 18.004C15.8783 17.8433 15.9213 17.6805 15.957 17.516L15.961 17.473L13.992 15.996L12.273 15.992C10.578 15.988 10.551 15.988 10.375 15.965C10.035 15.915 9.765 15.855 9.492 15.765C8.72624 15.5242 8.03057 15.1007 7.465 14.531C6.61208 13.6832 6.0958 12.5547 6.012 11.355C5.99951 10.6027 5.99551 9.85035 6 9.09799V6.99599H4.46C3.617 6.99999 2.867 7.00399 2.793 7.00799Z" fill="#202020"/>
</g>
<defs>
<clipPath id="clip0_2064_20151">
<rect width="24" height="24" fill="white"/>
</clipPath>
</defs>
</svg>
