<svg width="24" height="24" viewBox="0 0 24 24" fill="none" xmlns="http://www.w3.org/2000/svg">
<g clip-path="url(#clip0_2064_20151)">
<path d="M10.664 1.02002C10.4975 1.03981 10.3329 1.0736 10.172 1.12102C9.465 1.32102 8.855 1.78102 8.449 2.42602C8.293 2.67602 8.133 3.07402 8.07 3.36702C8.008 3.67602 8.012 3.45702 8.012 7.52302C8.012 11.77 8 11.371 8.098 11.746C8.188 12.106 8.328 12.414 8.539 12.711C8.96881 13.328 9.61426 13.7615 10.348 13.926C10.676 14 10.578 13.996 12.641 14.004L14.527 14.008L14.625 14.043C14.68 14.063 14.758 14.093 14.801 14.117C14.844 14.137 15.687 14.762 16.676 15.504C18.039 16.527 18.5 16.864 18.57 16.898C18.6979 16.9589 18.8372 16.9919 18.9788 16.9949C19.1205 16.998 19.2611 16.971 19.3915 16.9157C19.5219 16.8604 19.6391 16.7781 19.7354 16.6743C19.8316 16.5704 19.9048 16.4472 19.95 16.313L19.988 16.199L19.992 15.527C20 14.883 20 14.852 20.023 14.757C20.074 14.578 20.156 14.437 20.285 14.305C20.375 14.211 20.465 14.148 20.582 14.09C20.722 14.023 20.824 14.004 21.094 13.992C21.6482 13.9772 22.1871 13.8067 22.649 13.5C22.836 13.375 22.965 13.273 23.117 13.117C23.6295 12.6104 23.9392 11.934 23.988 11.215C24.004 10.996 24.004 4.00002 23.988 3.78502C23.9566 3.32792 23.8201 2.88425 23.589 2.48859C23.358 2.09293 23.0387 1.75599 22.656 1.50402C22.2948 1.26316 21.8858 1.10318 21.457 1.03502C21.355 1.01502 20.977 1.01502 16.051 1.01202C13.137 1.01202 10.711 1.01602 10.664 1.02002ZM11.73 6.02002C12.047 6.06302 12.324 6.20702 12.559 6.43802C12.848 6.73002 12.996 7.08602 12.996 7.50002C12.996 7.91402 12.848 8.27002 12.559 8.55902C12.4134 8.70769 12.2377 8.82358 12.0437 8.89894C11.8497 8.9743 11.6418 9.00739 11.434 8.99602C11.0724 8.9848 10.7281 8.83852 10.469 8.58602C10.2164 8.34742 10.0545 8.02854 10.0109 7.68384C9.96735 7.33913 10.0448 6.98999 10.23 6.69602C10.309 6.56602 10.527 6.34402 10.652 6.26202C10.855 6.12502 11.086 6.03902 11.328 6.00802C11.414 5.99602 11.618 6.00002 11.73 6.02002ZM16.23 6.02002C16.547 6.06302 16.824 6.20702 17.059 6.43802C17.348 6.73002 17.496 7.08602 17.496 7.50002C17.496 7.91402 17.348 8.27002 17.059 8.55902C16.9134 8.70769 16.7377 8.82358 16.5437 8.89894C16.3497 8.9743 16.1418 9.00739 15.934 8.99602C15.5724 8.9848 15.2281 8.83852 14.969 8.58602C14.7164 8.34742 14.5545 8.02854 14.5109 7.68384C14.4674 7.33913 14.5448 6.98999 14.73 6.69602C14.809 6.56602 15.027 6.34402 15.152 6.26202C15.355 6.12502 15.586 6.03902 15.828 6.00802C15.914 5.99602 16.118 6.00002 16.23 6.02002ZM20.73 6.02002C21.047 6.06302 21.324 6.20702 21.559 6.43802C21.848 6.73002 21.996 7.08602 21.996 7.50002C21.996 7.91402 21.848 8.27002 21.559 8.55902C21.4134 8.70769 21.2377 8.82358 21.0437 8.89894C20.8497 8.9743 20.6418 9.00739 20.434 8.99602C20.0724 8.9848 19.7281 8.83852 19.469 8.58602C19.2164 8.34742 19.0545 8.02854 19.0109 7.68384C18.9674 7.33913 19.0448 6.98999 19.23 6.69602C19.309 6.56602 19.527 6.34402 19.652 6.26202C19.855 6.12502 20.086 6.03902 20.328 6.00802C20.414 5.99602 20.618 6.00002 20.73 6.02002Z" fill="currentColor"/>
<path d="M2.793 7.00802C2.26987 7.04494 1.76557 7.2184 1.33041 7.51108C0.895252 7.80376 0.544448 8.20543 0.313 8.67602C0.143879 9.01108 0.0416418 9.37587 0.012 9.75002C-0.004 9.93402 -0.004 17.066 0.012 17.25C0.047 17.64 0.137 17.969 0.312 18.324C0.500936 18.7075 0.769476 19.0462 1.0997 19.3176C1.42993 19.589 1.81424 19.7869 2.227 19.898C2.437 19.953 2.621 19.98 2.918 19.996C3.082 20.008 3.223 20.023 3.266 20.036C3.617 20.129 3.902 20.434 3.976 20.793C3.992 20.867 3.996 20.973 3.996 21.433C3.996 21.734 4.004 22.035 4.008 22.102C4.055 22.535 4.352 22.867 4.789 22.977C4.906 23.004 5.121 23.004 5.246 22.969C5.446 22.918 5.426 22.929 7.316 21.512C8.296 20.777 9.133 20.156 9.176 20.129C9.219 20.105 9.301 20.066 9.363 20.047L9.477 20.007L11.363 20.004C13.063 19.996 13.262 19.996 13.383 19.977C13.8969 19.9064 14.3846 19.7073 14.801 19.398C14.973 19.27 15.27 18.973 15.395 18.801C15.5784 18.5585 15.7243 18.2898 15.828 18.004C15.8783 17.8434 15.9213 17.6805 15.957 17.516L15.961 17.473L13.992 15.996L12.273 15.992C10.578 15.988 10.551 15.988 10.375 15.965C10.035 15.915 9.765 15.855 9.492 15.765C8.72624 15.5242 8.03057 15.1007 7.465 14.531C6.61208 13.6832 6.0958 12.5547 6.012 11.355C5.99951 10.6028 5.99551 9.85038 6 9.09802V6.99602H4.46C3.617 7.00002 2.867 7.00402 2.793 7.00802Z" fill="currentColor"/>
</g>
<defs>
<clipPath id="clip0_2064_20151">
<rect width="24" height="24" fill="white"/>
</clipPath>
</defs>
</svg>
