<svg width="24" height="24" viewBox="0 0 24 24" fill="none" xmlns="http://www.w3.org/2000/svg">
<g clip-path="url(#clip0_2064_20433)">
<path d="M5.844 0.0119978C5.454 0.0819978 5.152 0.347998 5.039 0.726998C5.012 0.812998 5.012 0.831998 5.008 1.41L5.004 2.004H4.398C3.754 2.004 3.628 2.012 3.348 2.054C2.41639 2.2081 1.56931 2.68673 0.956599 3.40522C0.343889 4.1237 0.00504159 5.03574 0 5.98C0 6.758 0.434 7.457 1.121 7.793C1.359 7.91 1.598 7.973 1.887 7.993C2.016 8 5.059 8.003 12.129 8C21.734 7.996 22.195 7.996 22.309 7.977C22.729 7.91064 23.1165 7.71078 23.414 7.407C23.578 7.242 23.684 7.097 23.785 6.895C23.996 6.469 24.047 6.051 23.957 5.43C23.8333 4.57035 23.4333 3.77426 22.8175 3.16185C22.2016 2.54944 21.4033 2.15393 20.543 2.035C20.398 2.015 20.32 2.012 19.691 2.008L18.996 2L18.992 1.41C18.988 0.831998 18.988 0.812998 18.961 0.726998C18.9135 0.564336 18.826 0.41616 18.7065 0.295985C18.587 0.175811 18.4394 0.0874618 18.277 0.0389978C18.1874 0.0116765 18.0935 0.00116642 18 0.0079978C17.9079 0.00110346 17.8152 0.01162 17.727 0.0389978C17.5959 0.0749109 17.4739 0.137985 17.3688 0.224125C17.2637 0.310265 17.1779 0.417544 17.117 0.538998C17.012 0.741998 17.012 0.733998 17.007 1.41L17.004 2.004H6.996L6.992 1.41C6.988 0.831998 6.988 0.812998 6.961 0.726998C6.90323 0.523884 6.78239 0.344388 6.61595 0.214431C6.4495 0.0844746 6.24606 0.0107828 6.035 0.0039978C5.961 0.0039978 5.875 0.0039978 5.844 0.0119978ZM1.84 10.008C1.37288 10.0454 0.933811 10.246 0.599627 10.5745C0.265443 10.903 0.0574333 11.3386 0.012 11.805C0.004 11.898 0 13.12 0.004 16.137L0.008 20.336L0.031 20.516C0.101 20.988 0.211 21.348 0.411 21.754C0.80931 22.5729 1.47642 23.2305 2.301 23.617C2.738 23.828 3.215 23.949 3.727 23.988C3.847 23.996 6.313 24 12.117 23.996L20.34 23.992L20.516 23.969C21.2439 23.8714 21.9313 23.5768 22.504 23.117C22.648 23 22.93 22.73 23.047 22.586C23.5463 21.9986 23.8664 21.2801 23.969 20.516L23.992 20.336L23.996 16.141C24 13.176 23.996 11.906 23.988 11.813C23.9438 11.3414 23.7333 10.901 23.3942 10.5703C23.0551 10.2396 22.6095 10.0403 22.137 10.008C21.961 9.992 2.027 9.996 1.84 10.008Z" fill="#202020"/>
</g>
<defs>
<clipPath id="clip0_2064_20433">
<rect width="24" height="24" fill="white"/>
</clipPath>
</defs>
</svg>
