<svg width="24" height="24" viewBox="0 0 24 24" fill="none" xmlns="http://www.w3.org/2000/svg">
<path d="M9.82 0.00800849C8.93 0.0980085 8.219 0.738008 8.04 1.60901C8.00392 1.82982 7.99719 2.05443 8.02 2.27701C8.133 3.07001 8.719 3.73001 9.488 3.93001C9.75 4.00001 9.652 3.99601 12.055 3.99201L14.258 3.98801L14.383 3.96501C14.7738 3.88624 15.1325 3.69361 15.414 3.41139C15.6955 3.12917 15.8872 2.76997 15.965 2.37901C16 2.19901 16.004 1.82901 15.969 1.64501C15.8909 1.21962 15.6775 0.830851 15.3605 0.536594C15.0435 0.242337 14.64 0.0583397 14.21 0.0120085C14.113 8.49273e-06 9.926 -0.00399151 9.82 0.00800849Z" fill="#202020"/>
<path d="M5.824 2.17601C5.26194 2.34969 4.74491 2.64473 4.30945 3.04027C3.874 3.43581 3.53075 3.92219 3.304 4.46501C3.16735 4.80456 3.07428 5.16006 3.027 5.52301C3.007 5.65601 3.007 6.21501 3.004 12.883C3 18.02 3.004 20.153 3.012 20.277C3.0493 20.8531 3.21189 21.4141 3.48841 21.9209C3.76494 22.4276 4.14873 22.8679 4.613 23.211C5.22673 23.668 5.95947 23.9378 6.723 23.988C6.848 23.996 8.438 24 12.117 23.996L17.34 23.992L17.516 23.969C18.2031 23.8818 18.8551 23.6148 19.406 23.195C19.719 22.961 19.969 22.711 20.203 22.395C20.6652 21.7804 20.938 21.0444 20.988 20.277C20.996 20.152 21 17.992 20.996 12.883C20.992 6.21501 20.992 5.65601 20.973 5.52301C20.9151 5.04886 20.7736 4.58874 20.555 4.16401C20.299 3.66626 19.9409 3.22809 19.5041 2.87812C19.0673 2.52816 18.5616 2.27426 18.02 2.13301C18.008 2.13301 18 2.16001 17.996 2.23401C17.9528 2.93613 17.7259 3.61457 17.338 4.20144C16.9502 4.7883 16.415 5.263 15.786 5.57801C15.324 5.80801 14.844 5.94501 14.316 5.98801C14.117 6.00401 9.883 6.00401 9.684 5.98801C8.78944 5.91603 7.9448 5.54635 7.285 4.93801C6.5456 4.25551 6.09099 3.31914 6.012 2.31601C6.008 2.23401 6 2.16001 6 2.14801C6 2.12501 5.977 2.12801 5.824 2.17601ZM11.242 9.02701C11.602 9.12501 11.867 9.38701 11.969 9.74201C11.989 9.82001 11.992 9.86701 11.992 10C11.992 10.176 11.98 10.25 11.922 10.387C11.848 10.562 11.859 10.551 10.222 12.191C9.68224 12.7373 9.13552 13.2767 8.582 13.809C8.48112 13.8831 8.36711 13.9374 8.246 13.969C8.08388 14.0041 7.91612 14.0041 7.754 13.969C7.62424 13.9329 7.50221 13.8732 7.394 13.793C7.352 13.762 6.844 13.258 6.262 12.676C5.375 11.786 5.199 11.606 5.152 11.531C5.05255 11.3705 5.00119 11.1848 5.004 10.996C5.00421 10.8317 5.04499 10.6701 5.12274 10.5254C5.20048 10.3807 5.31277 10.2574 5.44963 10.1666C5.58648 10.0758 5.74366 10.0201 5.9072 10.0047C6.07073 9.98922 6.23555 10.0144 6.387 10.078C6.559 10.148 6.605 10.188 7.32 10.902L8.004 11.582L9.191 10.398C9.844 9.74601 10.402 9.19901 10.43 9.18001C10.5528 9.09752 10.6908 9.0404 10.836 9.01201C10.918 8.99601 11.164 9.00801 11.242 9.02701ZM18.207 11.023C18.3962 11.0629 18.5697 11.1569 18.7064 11.2936C18.8431 11.4303 18.9371 11.6038 18.977 11.793C19 11.906 19 12.093 18.977 12.207C18.9371 12.3962 18.8431 12.5697 18.7064 12.7064C18.5697 12.8431 18.3962 12.9371 18.207 12.977C18.129 12.992 17.887 12.997 15.992 12.997H13.867L13.754 12.969C13.62 12.9351 13.4945 12.8738 13.3855 12.789C13.2764 12.7042 13.1861 12.5976 13.1203 12.4761C13.0545 12.3546 13.0147 12.2207 13.0033 12.083C12.9918 11.9453 13.0091 11.8067 13.054 11.676C13.164 11.348 13.445 11.098 13.793 11.02C13.843 11.008 14.355 11.008 15.988 11.004C17.891 11.004 18.128 11.008 18.207 11.024V11.023ZM11.242 15.027C11.602 15.125 11.867 15.387 11.969 15.742C11.989 15.82 11.992 15.867 11.992 16C11.992 16.176 11.98 16.25 11.922 16.387C11.848 16.562 11.859 16.551 10.222 18.191C9.68224 18.7373 9.13552 19.2767 8.582 19.809C8.48112 19.8831 8.36711 19.9374 8.246 19.969C8.08388 20.0041 7.91612 20.0041 7.754 19.969C7.62424 19.9329 7.50221 19.8732 7.394 19.793C7.352 19.762 6.844 19.258 6.262 18.676C5.375 17.786 5.199 17.606 5.152 17.531C5.05255 17.3705 5.00119 17.1848 5.004 16.996C5.00421 16.8317 5.04499 16.6701 5.12274 16.5254C5.20048 16.3807 5.31277 16.2574 5.44963 16.1666C5.58648 16.0758 5.74366 16.0201 5.9072 16.0047C6.07073 15.9892 6.23555 16.0144 6.387 16.078C6.559 16.148 6.605 16.188 7.32 16.902L8.004 17.582L9.191 16.398C9.844 15.746 10.402 15.199 10.43 15.18C10.5528 15.0975 10.6908 15.0404 10.836 15.012C10.918 14.996 11.164 15.008 11.242 15.027ZM18.207 17.023C18.3962 17.0629 18.5697 17.1569 18.7064 17.2936C18.8431 17.4303 18.9371 17.6038 18.977 17.793C19 17.906 19 18.093 18.977 18.207C18.9371 18.3962 18.8431 18.5697 18.7064 18.7064C18.5697 18.8431 18.3962 18.9371 18.207 18.977C18.129 18.992 17.887 18.997 15.992 18.997H13.867L13.754 18.969C13.62 18.9351 13.4945 18.8738 13.3855 18.789C13.2764 18.7042 13.1861 18.5976 13.1203 18.4761C13.0545 18.3546 13.0147 18.2207 13.0033 18.083C12.9918 17.9453 13.0091 17.8067 13.054 17.676C13.164 17.348 13.445 17.098 13.793 17.02C13.843 17.008 14.355 17.008 15.988 17.004C17.891 17.004 18.128 17.007 18.207 17.023Z" fill="#202020"/>
</svg>
