<svg width="24" height="24" viewBox="0 0 24 24" fill="none" xmlns="http://www.w3.org/2000/svg">
<path d="M3.676 0.0160055C3.07247 0.0641795 2.48776 0.248799 1.96599 0.555935C1.44423 0.86307 0.999032 1.2847 0.664 1.78901C0.312 2.33001 0.125 2.84001 0.02 3.56301C-8.73115e-10 3.69901 -0.008 20.015 0.012 20.276C0.0493042 20.8521 0.211892 21.4131 0.488415 21.9198C0.764937 22.4266 1.14873 22.8669 1.613 23.21C2.22673 23.667 2.95947 23.9368 3.723 23.987C3.848 23.995 6.293 23.999 12.117 23.995L20.34 23.991L20.516 23.968C21.25 23.858 21.848 23.616 22.406 23.194C22.719 22.96 22.969 22.71 23.203 22.394C23.664 21.78 23.926 21.077 23.988 20.292C24.004 20.077 24.004 3.91701 23.988 3.70201C23.9316 2.92285 23.6476 2.17744 23.1711 1.55838C22.6946 0.939326 22.0468 0.473923 21.308 0.220005C21.0247 0.12706 20.7335 0.0601166 20.438 0.0200055C20.316 0.0050055 3.887 -0.0029945 3.675 0.0170055L3.676 0.0160055ZM19.258 3.01601C20.066 3.12501 20.738 3.71501 20.938 4.49601C21.004 4.76201 21 4.64501 21 7.54601C21 9.22601 20.996 10.293 20.988 10.41C20.9248 11.4956 20.609 12.5514 20.0658 13.4934C19.5226 14.4354 18.7669 15.2376 17.859 15.836C17.0031 16.4098 16.0284 16.7825 15.008 16.926C14.531 16.996 14.551 16.996 12.707 17L11.004 17.004L11 18.289C10.996 19.566 10.996 19.579 10.973 19.691C10.903 19.996 10.777 20.219 10.566 20.434C10.4448 20.5574 10.3021 20.6577 10.145 20.73C9.645 20.969 9.085 20.922 8.633 20.605C8.559 20.555 7.906 19.91 5.93 17.93C3.07 15.074 3.207 15.215 3.055 14.918C2.83378 14.5009 2.77125 14.0177 2.879 13.558C2.94728 13.2522 3.08788 12.9673 3.289 12.727C3.329 12.68 4.535 11.469 5.969 10.035C8.742 7.26501 8.625 7.37501 8.844 7.27001C9.238 7.07001 9.734 7.07001 10.144 7.26601C10.359 7.37101 10.598 7.56601 10.727 7.75001C10.84 7.91001 10.93 8.11301 10.977 8.33201C10.997 8.41001 10.997 8.55901 11 9.71101L11.004 11.004L12.57 11C14.285 10.996 14.191 11 14.371 10.926C14.661 10.809 14.863 10.582 14.961 10.27L14.996 10.164L15 7.45701C15.008 4.48001 15.004 4.71101 15.078 4.44501C15.1871 4.07253 15.4014 3.73947 15.6951 3.48581C15.9889 3.23214 16.3496 3.06867 16.734 3.01501C16.91 2.99201 19.074 2.99301 19.258 3.01601Z" fill="#202020"/>
</svg>
