<svg width="24" height="24" viewBox="0 0 24 24" fill="none" xmlns="http://www.w3.org/2000/svg">
<path d="M3.676 0.0160055C3.07247 0.0641795 2.48776 0.248799 1.96599 0.555935C1.44423 0.86307 0.999032 1.2847 0.664 1.78901C0.312 2.33001 0.125 2.84001 0.02 3.56301C-8.73115e-10 3.69901 -0.008 20.015 0.012 20.276C0.0493042 20.8521 0.211892 21.4131 0.488415 21.9198C0.764937 22.4266 1.14873 22.8669 1.613 23.21C2.22673 23.667 2.95947 23.9368 3.723 23.987C3.848 23.995 6.293 23.999 12.117 23.995L20.34 23.991L20.516 23.968C21.25 23.858 21.848 23.616 22.406 23.194C22.719 22.96 22.969 22.71 23.203 22.394C23.664 21.78 23.926 21.077 23.988 20.292C24.004 20.077 24.004 3.91701 23.988 3.70201C23.9316 2.92285 23.6476 2.17744 23.1711 1.55838C22.6946 0.939326 22.0468 0.473923 21.308 0.220005C21.0247 0.12706 20.7335 0.0601166 20.438 0.0200055C20.316 0.0050055 3.887 -0.0029945 3.675 0.0170055L3.676 0.0160055ZM12.16 3.01201C12.46 3.06601 12.71 3.23801 12.867 3.50401C12.898 3.55401 13.84 6.05101 15.797 11.266C17.379 15.496 18.68 18.965 18.687 18.976C18.691 18.992 18.75 18.996 19.422 19C20.132 19.004 20.152 19.004 20.246 19.027C20.609 19.129 20.871 19.395 20.973 19.757C21.003 19.875 21.003 20.133 20.969 20.254C20.879 20.562 20.66 20.812 20.383 20.926C20.195 21 20.383 20.992 18 20.992H15.84L15.746 20.969C15.5748 20.9226 15.4187 20.8322 15.2932 20.7068C15.1678 20.5813 15.0774 20.4252 15.031 20.254C14.9965 20.0906 14.9951 19.9219 15.027 19.758C15.129 19.395 15.395 19.128 15.757 19.031C15.84 19.008 15.887 19.004 16.199 19C16.391 18.996 16.547 18.988 16.547 18.984C16.547 18.977 16.289 18.285 15.828 17.066L15.808 17.004H8.192L8.172 17.066C7.712 18.286 7.454 18.976 7.454 18.984C7.454 18.988 7.61 18.996 7.802 19C8.114 19.004 8.162 19.008 8.247 19.031C8.607 19.129 8.872 19.395 8.974 19.758C9.004 19.875 9.004 20.133 8.97 20.254C8.88 20.562 8.661 20.812 8.384 20.926C8.196 21 8.384 20.992 6.001 20.992H3.84L3.746 20.969C3.57477 20.9226 3.41867 20.8322 3.29323 20.7068C3.16779 20.5813 3.07738 20.4252 3.031 20.254C2.99649 20.0906 2.99513 19.9219 3.027 19.758C3.07368 19.5829 3.16576 19.4231 3.29394 19.2949C3.42211 19.1668 3.58185 19.0747 3.757 19.028C3.847 19.004 3.867 19.004 4.578 19C5.25 18.996 5.308 18.992 5.316 18.977C5.32 18.965 6.617 15.497 8.203 11.266C10.477 5.20301 11.098 3.56201 11.141 3.49201C11.2132 3.37002 11.3102 3.2646 11.4258 3.18259C11.5414 3.10058 11.673 3.04382 11.812 3.01601C11.906 3.00001 12.066 2.99601 12.16 3.01201Z" fill="#202020"/>
<path d="M10.469 10.934L8.945 15H15.055L13.531 10.934C13.0243 9.57697 12.514 8.2213 12 6.86701C11.996 6.86701 11.309 8.69501 10.469 10.934Z" fill="#202020"/>
</svg>
