<svg width="24" height="24" viewBox="0 0 24 24" fill="none" xmlns="http://www.w3.org/2000/svg">
<g clip-path="url(#clip0_2064_22134)">
<path d="M19.781 0.0120253C19.4792 0.050405 19.1891 0.152678 18.93 0.312025C18.754 0.422025 18.531 0.625025 18.406 0.789025C18.1884 1.0846 18.0525 1.43226 18.012 1.79703C17.996 1.95703 17.996 22.043 18.012 22.203C18.055 22.574 18.192 22.922 18.406 23.207C18.476 23.301 18.656 23.484 18.746 23.555C19.051 23.797 19.406 23.945 19.796 23.988C19.949 24.004 22.051 24.004 22.203 23.988C22.59 23.945 22.933 23.805 23.234 23.57C23.4446 23.404 23.6198 23.1976 23.7493 22.9628C23.8788 22.728 23.96 22.4697 23.988 22.203C24.004 22.043 24.004 1.95703 23.988 1.79703C23.9613 1.54934 23.8901 1.3085 23.778 1.08603C23.6888 0.913525 23.5742 0.755423 23.438 0.617025C23.1118 0.274281 22.6737 0.0596595 22.203 0.0120253C21.3957 -0.00360154 20.5883 -0.00360154 19.781 0.0120253ZM10.84 4.00803C10.3749 4.04561 9.93764 4.24461 9.60382 4.57058C9.26999 4.89656 9.06064 5.32899 9.012 5.79303C8.996 5.94503 8.996 22.051 9.012 22.203C9.055 22.574 9.192 22.922 9.406 23.207C9.476 23.301 9.656 23.484 9.746 23.555C10.051 23.797 10.406 23.945 10.796 23.988C10.949 24.004 13.051 24.004 13.203 23.988C13.59 23.945 13.933 23.805 14.234 23.57C14.4446 23.404 14.6198 23.1976 14.7493 22.9628C14.8788 22.728 14.96 22.4697 14.988 22.203C15.004 22.051 15.004 5.96103 14.988 5.80103C14.9426 5.33087 14.7313 4.89223 14.392 4.56368C14.0526 4.23514 13.6074 4.03815 13.136 4.00803C12.3707 3.99632 11.6053 3.99632 10.84 4.00803ZM1.781 12.012C1.47924 12.0504 1.18912 12.1527 0.93 12.312C0.754 12.422 0.531 12.625 0.406 12.789C0.18844 13.0846 0.0525507 13.4323 0.012 13.797C-0.004 13.953 -0.004 22.047 0.012 22.203C0.055 22.574 0.192 22.922 0.406 23.207C0.476 23.301 0.656 23.484 0.746 23.555C1.051 23.797 1.406 23.945 1.796 23.988C1.949 24.004 4.051 24.004 4.203 23.988C4.59 23.945 4.933 23.805 5.234 23.57C5.44458 23.404 5.61979 23.1976 5.74929 22.9628C5.87879 22.728 5.95995 22.4697 5.988 22.203C6.004 22.047 6.004 13.953 5.988 13.797C5.94136 13.3291 5.72973 12.8931 5.391 12.567C5.06935 12.2527 4.65046 12.057 4.203 12.012C3.39574 11.9964 2.58826 11.9964 1.781 12.012Z" fill="#202020"/>
</g>
<defs>
<clipPath id="clip0_2064_22134">
<rect width="24" height="24" fill="white"/>
</clipPath>
</defs>
</svg>
