<svg width="24" height="24" viewBox="0 0 24 24" fill="none" xmlns="http://www.w3.org/2000/svg">
<path d="M19.805 5.02002C19.6965 5.04393 19.5922 5.0844 19.496 5.14002C19.406 5.19102 19.043 5.55002 14.199 10.39L9 15.59L6.793 13.387C4.493 11.09 4.551 11.148 4.387 11.078C4.26453 11.0236 4.13074 10.9996 3.997 11.008C3.793 11.012 3.727 11.023 3.559 11.109C3.43226 11.1709 3.32015 11.2591 3.23012 11.3677C3.14009 11.4763 3.07421 11.6028 3.03684 11.7388C2.99948 11.8749 2.9915 12.0173 3.01342 12.1566C3.03534 12.296 3.08667 12.429 3.164 12.547C3.214 12.625 3.644 13.059 5.77 15.184C6.63633 16.0594 7.50969 16.9277 8.39 17.789C8.49821 17.8692 8.62024 17.9289 8.75 17.965C8.879 18.004 9.117 18.004 9.254 17.969C9.371 17.934 9.512 17.863 9.609 17.789C9.652 17.758 12.179 15.234 15.23 12.184C21.227 6.18802 20.848 6.57402 20.93 6.36402C21.0042 6.16919 21.0166 5.95625 20.9656 5.7541C20.9146 5.55195 20.8027 5.37038 20.645 5.23402C20.5273 5.14668 20.3968 5.0782 20.258 5.03102C20.1083 5.00602 19.9558 5.00232 19.805 5.02002Z" fill="currentColor"/>
</svg>
