<svg width="24" height="24" viewBox="0 0 24 24" fill="none" xmlns="http://www.w3.org/2000/svg">
<path d="M11.566 0.00797164C9.79 0.0899716 8.246 0.472972 6.734 1.20997C5.00461 2.05066 3.5034 3.2959 2.35762 4.84015C1.21183 6.3844 0.45525 8.18214 0.152 10.081C0.043 10.766 0.008 11.266 0.008 12C-0.00160423 14.309 0.659119 16.5711 1.91 18.512C2.99648 20.1913 4.48385 21.5739 6.238 22.535C8.67623 23.8588 11.4958 24.303 14.223 23.793C15.7191 23.5167 17.1483 22.9559 18.433 22.141C19.5441 21.4331 20.5324 20.5488 21.359 19.523C22.831 17.6908 23.7305 15.4654 23.945 13.125C23.985 12.707 23.992 12.508 23.992 12C23.992 11.23 23.949 10.672 23.824 9.94997C23.298 6.87653 21.5939 4.12948 19.074 2.29297C17.6821 1.28183 16.0886 0.582617 14.402 0.242972C13.863 0.132972 13.406 0.0699717 12.832 0.0269716C12.4103 0.00683756 11.9881 0.000167492 11.566 0.00697164V0.00797164ZM12.828 2.03097C13.718 2.11297 14.426 2.25797 15.218 2.52297C16.8032 3.06126 18.2282 3.98815 19.363 5.21897C20.6421 6.60553 21.4999 8.3277 21.836 10.184C21.949 10.793 21.996 11.34 21.996 11.996C22.0029 14.1386 21.3194 16.2265 20.0467 17.9503C18.774 19.674 16.9798 20.9419 14.93 21.566C14.262 21.77 13.605 21.895 12.832 21.969C12.555 21.992 11.766 22.004 11.449 21.984C9.81562 21.8996 8.22847 21.4125 6.829 20.566C5.70928 19.8906 4.7323 19.003 3.953 17.953C3.05963 16.7457 2.45202 15.3513 2.176 13.875C2.109 13.535 2.059 13.152 2.023 12.75C2 12.465 2.003 11.469 2.031 11.18C2.18 9.52697 2.661 8.06997 3.504 6.70697C4.10381 5.7465 4.86185 4.89447 5.746 4.18697C7.38271 2.87723 9.39035 2.11623 11.484 2.01197C11.9321 2.00524 12.3803 2.01191 12.828 2.03197V2.03097Z" fill="currentColor"/>
<path d="M17.879 7.00797C17.719 7.02797 17.559 7.09397 17.422 7.18797C16.1701 8.42267 14.9241 9.66335 13.684 10.91C11.664 12.926 10.008 14.578 10.004 14.578C9.996 14.578 9.23 13.82 8.304 12.891C6.859 11.449 6.602 11.199 6.527 11.152C6.3019 11.0133 6.03116 10.9692 5.77367 11.0291C5.51618 11.089 5.29276 11.2482 5.152 11.472C5.0701 11.6057 5.02042 11.7566 5.00689 11.9128C4.99335 12.069 5.01633 12.2262 5.074 12.372C5.148 12.566 5.086 12.5 7.309 14.719C8.687 16.094 9.402 16.805 9.449 16.832C9.773 17.043 10.179 17.051 10.519 16.855C10.605 16.805 10.918 16.496 14.66 12.754C16.0365 11.3818 17.4088 10.0055 18.777 8.62497C18.8616 8.51163 18.9265 8.38486 18.969 8.24997C18.9892 8.16556 18.9959 8.07849 18.989 7.99197C18.989 7.82397 18.989 7.80097 18.957 7.71097C18.9124 7.55834 18.829 7.41986 18.715 7.30897C18.6081 7.19795 18.4771 7.11305 18.3321 7.06085C18.1872 7.00865 18.0321 6.99055 17.879 7.00797Z" fill="currentColor"/>
</svg>
