<svg width="24" height="24" viewBox="0 0 24 24" fill="none" xmlns="http://www.w3.org/2000/svg">
<path d="M11.566 0.00797164C9.79 0.0899716 8.246 0.472972 6.734 1.20997C5.00461 2.05066 3.5034 3.2959 2.35762 4.84015C1.21183 6.3844 0.45525 8.18214 0.152 10.081C0.043 10.766 0.008 11.266 0.008 12C-0.00160423 14.309 0.659119 16.5711 1.91 18.512C2.99648 20.1913 4.48385 21.5739 6.238 22.535C8.67623 23.8588 11.4958 24.303 14.223 23.793C15.7191 23.5167 17.1483 22.9559 18.433 22.141C19.5441 21.4331 20.5324 20.5488 21.359 19.523C22.831 17.6908 23.7305 15.4654 23.945 13.125C23.985 12.707 23.992 12.508 23.992 12C23.992 11.23 23.949 10.672 23.824 9.94997C23.298 6.87653 21.5939 4.12948 19.074 2.29297C17.6821 1.28183 16.0886 0.582617 14.402 0.242972C13.863 0.132972 13.406 0.0699717 12.832 0.0269716C12.4103 0.00683756 11.9881 0.000167492 11.566 0.00697164V0.00797164ZM12.828 2.03097C13.718 2.11297 14.426 2.25797 15.218 2.52297C16.8032 3.06126 18.2282 3.98815 19.363 5.21897C20.6421 6.60553 21.4999 8.3277 21.836 10.184C21.949 10.793 21.996 11.34 21.996 11.996C22.0029 14.1386 21.3194 16.2265 20.0467 17.9503C18.774 19.674 16.9798 20.9419 14.93 21.566C14.262 21.77 13.605 21.895 12.832 21.969C12.555 21.992 11.766 22.004 11.449 21.984C9.81562 21.8996 8.22847 21.4125 6.829 20.566C5.70928 19.8906 4.7323 19.003 3.953 17.953C3.05963 16.7457 2.45202 15.3513 2.176 13.875C2.109 13.535 2.059 13.152 2.023 12.75C2 12.465 2.003 11.469 2.031 11.18C2.18 9.52697 2.661 8.06997 3.504 6.70697C4.10381 5.7465 4.86185 4.89447 5.746 4.18697C7.38271 2.87723 9.39035 2.11623 11.484 2.01197C11.9321 2.00524 12.3803 2.01191 12.828 2.03197V2.03097Z" fill="#202020"/>
<path d="M7.848 9.01197C7.528 9.06597 7.25 9.26997 7.109 9.55497C7.04936 9.67169 7.01384 9.79923 7.00456 9.92998C6.99529 10.0607 7.01244 10.192 7.055 10.316C7.133 10.555 6.98 10.391 9.258 12.672C9.9632 13.3835 10.6742 14.0892 11.391 14.789C11.4989 14.8691 11.6206 14.9287 11.75 14.965C11.879 15.004 12.117 15.004 12.254 14.969C12.371 14.934 12.512 14.863 12.609 14.789C12.652 14.758 13.613 13.805 14.742 12.672C16.625 10.785 16.805 10.602 16.855 10.516C16.9722 10.3229 17.0205 10.0957 16.9919 9.87166C16.9633 9.64758 16.8595 9.43984 16.6976 9.28239C16.5356 9.12494 16.325 9.02709 16.1002 9.00486C15.8754 8.98262 15.6497 9.03731 15.46 9.15997C15.414 9.18697 14.844 9.74897 13.695 10.894L12 12.59L10.297 10.89C8.984 9.57797 8.578 9.17997 8.527 9.14797C8.32199 9.02768 8.0835 8.97978 7.848 9.01197Z" fill="#202020"/>
</svg>
