<svg width="24" height="24" viewBox="0 0 24 24" fill="none" xmlns="http://www.w3.org/2000/svg">
<path d="M14.82 3.01606C14.6901 3.04387 14.5659 3.09394 14.453 3.16406C14.375 3.21406 13.719 3.86706 10.316 7.27006C8.94171 8.63744 7.57336 10.0108 6.211 11.3901C6.13079 11.4983 6.07113 11.6203 6.035 11.7501C5.996 11.8791 5.996 12.1211 6.035 12.2501C6.07113 12.3798 6.13079 12.5018 6.211 12.6101C7.57336 13.9893 8.94171 15.3627 10.316 16.7301C13.719 20.1331 14.375 20.7851 14.453 20.8361C14.813 21.0661 15.27 21.0461 15.613 20.7891C15.7321 20.6969 15.8274 20.5775 15.891 20.4411C15.9695 20.3052 16.0034 20.1482 15.988 19.9921C15.988 19.8241 15.988 19.8011 15.957 19.7111C15.9284 19.6149 15.8848 19.5238 15.828 19.4411C15.808 19.4111 14.133 17.7271 12.102 15.6951L8.41 12.0001L12.113 8.29306C14.957 5.44506 15.824 4.57406 15.855 4.52006C15.9521 4.36304 15.9998 4.1805 15.992 3.99606C15.988 3.79306 15.977 3.72606 15.891 3.55506C15.7963 3.35844 15.6376 3.19979 15.441 3.10506C15.2479 3.01387 15.032 2.98253 14.821 3.01506L14.82 3.01606Z" fill="currentColor"/>
</svg>
