<svg width="24" height="24" viewBox="0 0 24 24" fill="none" xmlns="http://www.w3.org/2000/svg">
<path d="M11.45 0.0119829C8.93596 0.12122 6.52035 1.02025 4.54662 2.58125C2.57289 4.14224 1.14151 6.28574 0.456 8.70698C0.220559 9.5422 0.0740787 10.4 0.019 11.266C0.00339297 11.7539 0.00339297 12.2421 0.019 12.73C0.116 14.09 0.374 15.246 0.839 16.422C1.4755 18.0398 2.45754 19.499 3.71652 20.6979C4.9755 21.8968 6.48105 22.8063 8.128 23.363C9.882 23.957 11.78 24.141 13.64 23.887C15.4662 23.6397 17.2106 22.9737 18.737 21.941C20.3068 20.8755 21.6027 19.4543 22.519 17.793C22.659 17.539 22.905 17.035 23.022 16.758C23.464 15.727 23.761 14.648 23.897 13.551C23.972 12.984 23.991 12.625 23.991 12.004C23.991 11.473 23.983 11.266 23.941 10.816C23.7517 8.84694 23.0765 6.9557 21.976 5.31198C20.6849 3.39045 18.8679 1.88133 16.742 0.964983C15.6299 0.494871 14.4546 0.19095 13.254 0.0629829C12.746 0.0119829 11.923 -0.0120171 11.45 0.0119829ZM10.723 7.02698C10.8735 7.06069 11.014 7.12916 11.1333 7.22693C11.2526 7.32469 11.3474 7.44903 11.41 7.58998C11.52 7.81998 11.527 8.11298 11.434 8.36298C11.359 8.55898 11.422 8.48798 9.605 10.309L7.918 12L9.605 13.691C11.422 15.511 11.359 15.441 11.434 15.637C11.527 15.887 11.52 16.176 11.41 16.41C11.3317 16.5855 11.2039 16.7344 11.0423 16.8385C10.8807 16.9426 10.6922 16.9973 10.5 16.996C10.2636 16.9996 10.0341 16.9164 9.855 16.762C8.45722 15.3811 7.06919 13.9904 5.691 12.59C5.58965 12.4466 5.52666 12.2796 5.508 12.105C5.488 11.835 5.547 11.621 5.691 11.406C5.742 11.34 9.742 7.32798 9.855 7.23798C10.015 7.10498 10.175 7.03498 10.402 7.00398C10.461 6.99198 10.638 7.00798 10.723 7.02698ZM16.723 7.02698C16.8735 7.06069 17.014 7.12916 17.1333 7.22693C17.2526 7.32469 17.3474 7.44903 17.41 7.58998C17.52 7.81998 17.527 8.11298 17.434 8.36298C17.359 8.55898 17.422 8.48798 15.605 10.309L13.918 12L15.605 13.691C17.422 15.511 17.359 15.441 17.434 15.637C17.527 15.887 17.52 16.176 17.41 16.41C17.3317 16.5855 17.2039 16.7344 17.0423 16.8385C16.8807 16.9426 16.6922 16.9973 16.5 16.996C16.2636 16.9996 16.0341 16.9164 15.855 16.762C14.4572 15.3811 13.0692 13.9904 11.691 12.59C11.5449 12.3876 11.4797 12.138 11.508 11.89C11.531 11.71 11.59 11.559 11.691 11.406C11.742 11.34 15.742 7.32798 15.855 7.23798C16.015 7.10498 16.175 7.03498 16.402 7.00398C16.461 6.99198 16.638 7.00798 16.723 7.02698Z" fill="#202020"/>
</svg>
