<svg width="24" height="24" viewBox="0 0 24 24" fill="none" xmlns="http://www.w3.org/2000/svg">
<path d="M7.848 3.01206C7.528 3.06606 7.25 3.27006 7.109 3.55506C7.03393 3.70523 6.99788 3.87189 7.00417 4.03966C7.01046 4.20744 7.05889 4.37093 7.145 4.51506C7.195 4.60506 7.48 4.89106 10.895 8.30506L14.585 12.0001L10.895 15.6951C7.48 19.1051 7.195 19.3951 7.145 19.4801C7.03001 19.6725 6.98277 19.8978 7.01083 20.1202C7.03889 20.3426 7.14063 20.5491 7.29981 20.7069C7.45899 20.8647 7.66644 20.9647 7.88905 20.9908C8.11167 21.0169 8.33661 20.9677 8.528 20.8511C8.582 20.8161 9.48 19.9261 12.684 16.7231C14.934 14.4771 16.793 12.6091 16.816 12.5741C16.9342 12.406 16.9976 12.2055 16.9976 12.0001C16.9976 11.7946 16.9342 11.5941 16.816 11.4261C15.4458 10.0359 14.0685 8.65291 12.684 7.27706C9.48 4.07406 8.582 3.18006 8.527 3.14806C8.32188 3.02806 8.08349 2.98018 7.848 3.01206Z" fill="#202020"/>
</svg>
