<svg width="24" height="24" viewBox="0 0 24 24" fill="none" xmlns="http://www.w3.org/2000/svg">
<path d="M14.82 3.016C14.6901 3.04381 14.5659 3.09388 14.453 3.164C14.375 3.214 13.719 3.86699 10.316 7.26999C8.94171 8.63738 7.57336 10.0107 6.211 11.39C6.13079 11.4982 6.07113 11.6202 6.035 11.75C5.996 11.879 5.996 12.121 6.035 12.25C6.07113 12.3798 6.13079 12.5018 6.211 12.61C7.57336 13.9893 8.94171 15.3626 10.316 16.73C13.719 20.133 14.375 20.785 14.453 20.836C14.813 21.066 15.27 21.046 15.613 20.789C15.7321 20.6968 15.8274 20.5775 15.891 20.441C15.9695 20.3052 16.0034 20.1481 15.988 19.992C15.988 19.824 15.988 19.801 15.957 19.711C15.9284 19.6148 15.8848 19.5237 15.828 19.441C15.808 19.411 14.133 17.727 12.102 15.695L8.41 12L12.113 8.29299C14.957 5.44499 15.824 4.57399 15.855 4.51999C15.9521 4.36298 15.9998 4.18044 15.992 3.996C15.988 3.793 15.977 3.726 15.891 3.555C15.7963 3.35838 15.6376 3.19973 15.441 3.105C15.2479 3.01381 15.032 2.98247 14.821 3.015L14.82 3.016Z" fill="#202020"/>
</svg>
