<svg width="24" height="24" viewBox="0 0 24 24" fill="none" xmlns="http://www.w3.org/2000/svg">
<path d="M3.875 3.00796C3.805 3.01596 3.66 3.05796 3.594 3.08596C3.41337 3.1741 3.25944 3.3087 3.148 3.47596C3.04765 3.64211 2.9973 3.83365 3.00297 4.02767C3.00865 4.22169 3.07011 4.40996 3.18 4.56996C3.2 4.59796 4.871 6.28096 6.902 8.31196L10.59 12L6.902 15.688C5.65469 16.9287 4.41401 18.176 3.18 19.43C3.07031 19.5899 3.00897 19.7779 3.00329 19.9718C2.99762 20.1656 3.04785 20.3569 3.148 20.523C3.207 20.617 3.348 20.766 3.445 20.828C3.61524 20.9418 3.81634 21.0007 4.02112 20.9966C4.2259 20.9925 4.42447 20.9256 4.59 20.805C5.97496 19.4373 7.35398 18.0636 8.727 16.684C13.113 12.293 12.855 12.559 12.93 12.364C13.016 12.1293 13.016 11.8717 12.93 11.637C12.855 11.441 13.113 11.707 8.727 7.31696C7.35219 5.9371 5.97319 4.56142 4.59 3.18996C4.38233 3.043 4.12774 2.97883 3.875 3.00796Z" fill="currentColor"/>
<path d="M10.848 3.01196C10.528 3.06596 10.25 3.26996 10.109 3.55496C10.0339 3.70513 9.99788 3.87179 10.0042 4.03957C10.0105 4.20734 10.0589 4.37083 10.145 4.51496C10.195 4.60496 10.48 4.89096 13.895 8.30496L17.585 12L13.895 15.695C10.48 19.105 10.195 19.395 10.145 19.48C10.03 19.6724 9.98277 19.8977 10.0108 20.1201C10.0389 20.3425 10.1406 20.549 10.2998 20.7068C10.459 20.8646 10.6664 20.9646 10.8891 20.9907C11.1117 21.0168 11.3366 20.9676 11.528 20.851C11.582 20.816 12.48 19.926 15.684 16.723C17.934 14.477 19.793 12.609 19.816 12.574C19.9342 12.4059 19.9976 12.2054 19.9976 12C19.9976 11.7945 19.9342 11.594 19.816 11.426C18.4458 10.0358 17.0685 8.65281 15.684 7.27696C12.48 4.07396 11.582 3.17996 11.527 3.14796C11.3219 3.02796 11.0835 2.98008 10.848 3.01196Z" fill="currentColor"/>
</svg>
