<svg width="24" height="24" viewBox="0 0 24 24" fill="none" xmlns="http://www.w3.org/2000/svg">
<path d="M11.566 0.00797164C9.79 0.0899716 8.246 0.472972 6.734 1.20997C5.00461 2.05066 3.5034 3.2959 2.35762 4.84015C1.21183 6.3844 0.45525 8.18214 0.152 10.081C0.043 10.766 0.008 11.266 0.008 12C-0.00160423 14.309 0.659119 16.5711 1.91 18.512C2.99648 20.1913 4.48385 21.5739 6.238 22.535C8.67623 23.8588 11.4958 24.303 14.223 23.793C15.7191 23.5167 17.1483 22.9559 18.433 22.141C19.5441 21.4331 20.5324 20.5488 21.359 19.523C22.831 17.6908 23.7305 15.4654 23.945 13.125C23.985 12.707 23.992 12.508 23.992 12C23.992 11.23 23.949 10.672 23.824 9.94997C23.298 6.87653 21.5939 4.12948 19.074 2.29297C17.6821 1.28183 16.0886 0.582617 14.402 0.242972C13.863 0.132972 13.406 0.0699717 12.832 0.0269716C12.4103 0.00683756 11.9881 0.000167492 11.566 0.00697164V0.00797164ZM12.828 2.03097C13.718 2.11297 14.426 2.25797 15.218 2.52297C16.8032 3.06126 18.2282 3.98815 19.363 5.21897C20.6421 6.60553 21.4999 8.3277 21.836 10.184C21.949 10.793 21.996 11.34 21.996 11.996C22.0029 14.1386 21.3194 16.2265 20.0467 17.9503C18.774 19.674 16.9798 20.9419 14.93 21.566C14.262 21.77 13.605 21.895 12.832 21.969C12.555 21.992 11.766 22.004 11.449 21.984C9.81562 21.8996 8.22847 21.4125 6.829 20.566C5.70928 19.8906 4.7323 19.003 3.953 17.953C3.05963 16.7457 2.45202 15.3513 2.176 13.875C2.109 13.535 2.059 13.152 2.023 12.75C2 12.465 2.003 11.469 2.031 11.18C2.18 9.52697 2.661 8.06997 3.504 6.70697C4.10381 5.7465 4.86185 4.89447 5.746 4.18697C7.38271 2.87723 9.39035 2.11623 11.484 2.01197C11.9321 2.00524 12.3803 2.01191 12.828 2.03197V2.03097Z" fill="currentColor"/>
<path d="M10.379 7.00797C10.2208 7.02821 10.0696 7.0858 9.938 7.17597C9.863 7.22297 5.738 11.348 5.684 11.426C5.621 11.516 5.574 11.617 5.539 11.719C5.516 11.797 5.516 11.829 5.516 12C5.516 12.168 5.516 12.203 5.539 12.281C5.574 12.383 5.621 12.484 5.684 12.574C5.738 12.656 9.864 16.777 9.941 16.828C10.027 16.883 10.156 16.941 10.261 16.968C10.391 17.004 10.609 17.004 10.742 16.968C10.928 16.9206 11.0964 16.8206 11.227 16.68C11.3447 16.5577 11.4281 16.4067 11.469 16.242C11.5002 16.0795 11.5002 15.9125 11.469 15.75C11.4322 15.6328 11.3797 15.5211 11.313 15.418C11.289 15.383 10.516 14.602 9.593 13.68L7.919 12L9.595 10.32C10.517 9.39797 11.29 8.61697 11.314 8.58197C11.368 8.50397 11.442 8.34797 11.47 8.24997C11.4902 8.16556 11.4969 8.07849 11.49 7.99197C11.49 7.82397 11.49 7.80097 11.458 7.71097C11.4134 7.55834 11.33 7.41986 11.216 7.30897C11.1091 7.19795 10.9781 7.11305 10.8331 7.06085C10.6882 7.00865 10.5331 6.99055 10.38 7.00797H10.379Z" fill="currentColor"/>
<path d="M16.379 7.00797C16.2204 7.02806 16.0689 7.08565 15.937 7.17597C15.863 7.22297 11.738 11.348 11.684 11.426C11.5658 11.5941 11.5024 11.7945 11.5024 12C11.5024 12.2054 11.5658 12.4059 11.684 12.574C11.738 12.656 15.864 16.777 15.941 16.828C16.027 16.883 16.156 16.941 16.261 16.968C16.391 17.004 16.609 17.004 16.742 16.968C16.928 16.9206 17.0964 16.8206 17.227 16.68C17.3447 16.5577 17.4281 16.4067 17.469 16.242C17.5002 16.0795 17.5002 15.9125 17.469 15.75C17.4319 15.6327 17.3791 15.5211 17.312 15.418C17.289 15.383 16.516 14.602 15.594 13.68L13.918 12L15.594 10.32C16.516 9.39797 17.289 8.61697 17.313 8.58197C17.367 8.50397 17.441 8.34797 17.469 8.24997C17.4892 8.16556 17.4959 8.07849 17.489 7.99197C17.489 7.82397 17.489 7.80097 17.457 7.71097C17.4124 7.55834 17.329 7.41986 17.215 7.30897C17.1081 7.19795 16.9771 7.11305 16.8321 7.06085C16.6872 7.00865 16.5321 6.99055 16.379 7.00797Z" fill="currentColor"/>
</svg>
