<svg width="24" height="24" viewBox="0 0 24 24" fill="none" xmlns="http://www.w3.org/2000/svg">
<path d="M3.793 6.52302C3.5637 6.57572 3.35874 6.70391 3.211 6.88702C2.953 7.23002 2.934 7.68702 3.164 8.04702C3.214 8.12502 3.867 8.78102 7.27 12.184C8.63738 13.5583 10.0107 14.9267 11.39 16.289C11.4982 16.3692 11.6202 16.4289 11.75 16.465C11.879 16.504 12.117 16.504 12.254 16.469C12.371 16.434 12.512 16.363 12.609 16.289C13.9886 14.9267 15.3623 13.5583 16.73 12.184C21.102 7.81302 20.848 8.07402 20.93 7.86402C21.0042 7.66918 21.0166 7.45624 20.9656 7.2541C20.9146 7.05195 20.8027 6.87038 20.645 6.73402C20.5273 6.64668 20.3968 6.57819 20.258 6.53102C20.1189 6.50465 19.9766 6.49959 19.836 6.51602C19.7166 6.53874 19.6017 6.58097 19.496 6.64102C19.406 6.69102 19.136 6.95702 15.699 10.395L12 14.09L8.293 10.387C5.445 7.54302 4.574 6.67602 4.52 6.64502C4.43318 6.59696 4.34128 6.55873 4.246 6.53102C4.09652 6.50293 3.94338 6.50023 3.793 6.52302Z" fill="#202020"/>
</svg>
