<svg width="24" height="24" viewBox="0 0 24 24" fill="none" xmlns="http://www.w3.org/2000/svg">
<g clip-path="url(#clip0_2064_28079)">
<path d="M8.645 0.00796351C8.16886 0.0291582 7.69491 0.0853094 7.227 0.175964C5.34034 0.550039 3.62411 1.52123 2.332 2.94596C1.12716 4.27181 0.347584 5.92849 0.094 7.70196C-0.241351 10.0028 0.325464 12.3442 1.676 14.237C2.63501 15.5782 3.94442 16.6299 5.461 17.277C7.51384 18.1467 9.81477 18.2314 11.926 17.515C12.9658 17.1569 13.9319 16.6127 14.777 15.909C15.2647 15.4936 15.7108 15.0318 16.109 14.53C17.3981 12.8647 18.065 10.8014 17.9944 8.69667C17.9237 6.59192 17.1199 4.578 15.722 3.00296C15.48 2.73296 15.062 2.32696 14.777 2.08896C13.3811 0.924693 11.6649 0.211278 9.855 0.0429635C9.473 0.00296351 8.965 -0.00703649 8.645 0.00796351ZM9.699 2.02996C10.082 2.07296 10.391 2.12796 10.734 2.21396C12.524 2.66695 14.0612 3.81172 15.008 5.39696C15.492 6.19796 15.816 7.12396 15.938 8.04996C15.984 8.41996 15.992 8.51496 15.992 8.99896C15.992 9.48296 15.984 9.57696 15.937 9.94896C15.7289 11.495 15.0086 12.9266 13.891 14.015C12.9244 14.9613 11.7023 15.6047 10.375 15.866C9.898 15.96 9.602 15.987 9.012 15.987C8.516 15.987 8.437 15.983 8.055 15.937C6.085 15.683 4.297 14.565 3.168 12.882C2.58231 11.9987 2.20419 10.9942 2.062 9.94396C2.016 9.57696 2.012 9.47896 2.012 8.99896C2.012 8.51896 2.016 8.42096 2.062 8.05396C2.262 6.51396 2.992 5.06496 4.125 3.96796C5.304 2.82532 6.84746 2.13395 8.485 2.01496C8.88967 2.00041 9.29481 2.00542 9.699 2.02996Z" fill="#202020"/>
<path d="M5.8 5.01996C5.57414 5.06689 5.37146 5.19047 5.22629 5.36974C5.08112 5.54901 5.0024 5.77296 5.00346 6.00364C5.00451 6.23432 5.08529 6.45754 5.2321 6.63547C5.37891 6.8134 5.58272 6.93511 5.809 6.97996C5.937 7.00396 12.059 7.00396 12.191 6.97996C12.3862 6.94285 12.5651 6.84606 12.703 6.70296C12.831 6.57523 12.9218 6.41509 12.9658 6.2397C13.0098 6.0643 13.0052 5.88024 12.9526 5.70723C12.9 5.53423 12.8014 5.37878 12.6672 5.25754C12.533 5.1363 12.3684 5.05383 12.191 5.01896C12.066 4.99596 5.918 4.99596 5.801 5.01896L5.8 5.01996ZM5.8 8.01996C5.57414 8.06689 5.37146 8.19047 5.22629 8.36974C5.08112 8.54901 5.0024 8.77296 5.00346 9.00364C5.00451 9.23432 5.08529 9.45754 5.2321 9.63547C5.37891 9.8134 5.58272 9.93511 5.809 9.97996C5.883 9.99196 6.234 9.99596 8.004 9.99596C10.332 9.99596 10.195 9.99996 10.379 9.92196C10.672 9.80096 10.887 9.55096 10.969 9.23796C11.0041 9.07989 11.0041 8.91604 10.969 8.75796C10.9306 8.60642 10.8572 8.46598 10.7548 8.34789C10.6523 8.22981 10.5236 8.13736 10.379 8.07796C10.195 7.99996 10.332 8.00396 7.996 8.00396C6.312 8.00796 5.862 8.00796 5.8 8.01996ZM5.8 11.02C5.57414 11.0669 5.37146 11.1905 5.22629 11.3697C5.08112 11.549 5.0024 11.773 5.00346 12.0036C5.00451 12.2343 5.08529 12.4575 5.2321 12.6355C5.37891 12.8134 5.58272 12.9351 5.809 12.98C5.937 13.004 9.062 13.004 9.191 12.98C9.38622 12.9428 9.56512 12.8461 9.703 12.703C9.831 12.5752 9.92184 12.4151 9.96582 12.2397C10.0098 12.0643 10.0052 11.8802 9.95263 11.7072C9.90003 11.5342 9.80137 11.3788 9.6672 11.2575C9.53304 11.1363 9.36843 11.0538 9.191 11.019C9.066 10.996 5.918 10.996 5.801 11.019L5.8 11.02ZM18.152 15.605C17.7709 15.6344 17.4064 15.7729 17.102 16.004C16.996 16.082 16.199 16.867 16.074 17.016C15.828 17.305 15.68 17.636 15.621 18.016C15.6015 18.2068 15.6015 18.3991 15.621 18.59C15.6559 18.8234 15.73 19.0492 15.84 19.258C15.98 19.512 15.922 19.453 17.86 21.387C19.254 22.781 19.691 23.215 19.766 23.266C20.305 23.645 20.961 23.746 21.578 23.543C21.727 23.493 21.968 23.371 22.102 23.277C22.262 23.164 23.164 22.262 23.277 22.102C23.371 21.969 23.492 21.727 23.543 21.578C23.6268 21.3275 23.6602 21.0629 23.6413 20.7995C23.6224 20.536 23.5516 20.2789 23.433 20.043C23.285 19.75 23.375 19.848 21.387 17.859C19.875 16.348 19.559 16.035 19.465 15.969C19.3012 15.8603 19.1254 15.7711 18.941 15.703C18.6868 15.6196 18.4189 15.5863 18.152 15.605Z" fill="#202020"/>
</g>
<defs>
<clipPath id="clip0_2064_28079">
<rect width="24" height="24" fill="white"/>
</clipPath>
</defs>
</svg>
