<svg width="24" height="24" viewBox="0 0 24 24" fill="none" xmlns="http://www.w3.org/2000/svg">
<path d="M9.82 0.00797798C8.93 0.097978 8.219 0.737978 8.04 1.60898C8.00392 1.82979 7.99719 2.0544 8.02 2.27698C8.133 3.06998 8.719 3.72998 9.488 3.92998C9.75 3.99998 9.652 3.99598 12.055 3.99198L14.258 3.98798L14.383 3.96498C14.7738 3.88621 15.1325 3.69358 15.414 3.41136C15.6955 3.12914 15.8872 2.76994 15.965 2.37898C16 2.19898 16.004 1.82898 15.969 1.64498C15.8909 1.21959 15.6775 0.830821 15.3605 0.536563C15.0435 0.242306 14.64 0.0583092 14.21 0.011978C14.113 -2.20248e-05 9.926 -0.00402203 9.82 0.00797798Z" fill="currentColor"/>
<path d="M5.824 2.17598C5.26194 2.34966 4.74491 2.6447 4.30945 3.04024C3.874 3.43578 3.53075 3.92216 3.304 4.46498C3.16735 4.80453 3.07428 5.16003 3.027 5.52298C3.007 5.65598 3.007 6.21498 3.004 12.883C3 18.02 3.004 20.153 3.012 20.277C3.0493 20.8531 3.21189 21.4141 3.48841 21.9208C3.76494 22.4276 4.14873 22.8679 4.613 23.211C5.22673 23.668 5.95947 23.9378 6.723 23.988C6.848 23.996 8.438 24 12.117 23.996L17.34 23.992L17.516 23.969C18.2031 23.8818 18.8551 23.6148 19.406 23.195C19.719 22.961 19.969 22.711 20.203 22.395C20.6652 21.7804 20.938 21.0443 20.988 20.277C20.996 20.152 21 17.992 20.996 12.883C20.992 6.21498 20.992 5.65598 20.973 5.52298C20.9151 5.04883 20.7736 4.58871 20.555 4.16398C20.299 3.66623 19.9409 3.22806 19.5041 2.87809C19.0673 2.52813 18.5616 2.27423 18.02 2.13298C18.008 2.13298 18 2.15998 17.996 2.23398C17.9528 2.9361 17.7259 3.61454 17.338 4.20141C16.9502 4.78827 16.415 5.26297 15.786 5.57798C15.324 5.80798 14.844 5.94498 14.316 5.98798C14.117 6.00398 9.883 6.00398 9.684 5.98798C8.78944 5.916 7.9448 5.54632 7.285 4.93798C6.5456 4.25548 6.09099 3.31911 6.012 2.31598C6.008 2.23398 6 2.15998 6 2.14798C6 2.12498 5.977 2.12798 5.824 2.17598ZM12.355 9.03598C12.657 9.09891 12.937 9.24028 13.167 9.44585C13.397 9.65141 13.5687 9.91393 13.665 10.207C13.727 10.402 13.75 10.567 13.742 10.805C13.738 11.015 13.722 11.105 13.668 11.277C13.5343 11.6982 13.2461 12.0532 12.8614 12.2707C12.4766 12.4881 12.0238 12.5518 11.594 12.449C11.2997 12.3807 11.0284 12.2366 10.807 12.031C10.5856 11.8254 10.4219 11.5654 10.332 11.277C10.273 11.09 10.262 11.004 10.262 10.747C10.262 10.484 10.273 10.407 10.336 10.203C10.496 9.71498 10.875 9.31298 11.352 9.12498C11.472 9.07798 11.652 9.02698 11.773 9.01198C11.903 8.99198 12.223 9.00798 12.355 9.03498V9.03598ZM12.415 14.02C13.0289 14.0838 13.6196 14.2891 14.1406 14.6199C14.6617 14.9506 15.099 15.3977 15.418 15.926C15.676 16.348 15.902 16.949 15.902 17.199C15.8984 17.3136 15.87 17.426 15.8187 17.5286C15.7674 17.6311 15.6945 17.7213 15.605 17.793C15.52 17.859 15.355 17.941 15.242 17.973C15.16 17.993 15.027 17.993 12 17.993C9.02 17.993 8.836 17.993 8.766 17.973C8.60159 17.9338 8.45132 17.8497 8.332 17.73C8.24079 17.6456 8.17275 17.5392 8.13441 17.4211C8.09606 17.3029 8.08869 17.1768 8.113 17.055C8.176 16.738 8.371 16.27 8.582 15.925C8.90052 15.3998 9.33575 14.955 9.85394 14.6251C10.3721 14.2953 10.9593 14.0892 11.57 14.023C11.77 14 12.215 14 12.414 14.02H12.415Z" fill="currentColor"/>
</svg>
