<svg width="24" height="24" viewBox="0 0 24 24" fill="none" xmlns="http://www.w3.org/2000/svg">
<path d="M8.879 1.00799C8.73 1.02299 8.559 1.08999 8.426 1.17999C8.21888 1.3312 8.07526 1.55392 8.023 1.80499C7.996 1.93399 8.003 2.14799 8.039 2.27299C8.133 2.60199 8.387 2.85499 8.727 2.96099L8.832 2.99199H15.172L15.277 2.96099C15.613 2.85499 15.867 2.60099 15.961 2.27299C15.9969 2.11961 16.0036 1.96087 15.981 1.80499C15.9395 1.59588 15.832 1.40561 15.6743 1.26215C15.5166 1.11868 15.3171 1.0296 15.105 1.00799C14.985 0.99199 9 0.99599 8.879 1.00799ZM11.648 4.00799C10.0052 4.06607 8.40571 4.54986 7.00613 5.41198C5.60655 6.2741 4.45491 7.48497 3.664 8.92599C3.05484 10.0437 2.67636 11.2723 2.551 12.539C2.51614 12.8581 2.50045 13.179 2.504 13.5C2.504 13.914 2.516 14.113 2.551 14.46C2.68913 15.8572 3.13653 17.2061 3.86074 18.4089C4.58494 19.6117 5.5678 20.6382 6.738 21.414C8.60146 22.6526 10.843 23.1921 13.066 22.937C15.3848 22.6826 17.5277 21.5795 19.082 19.84C20.4238 18.3445 21.253 16.4596 21.449 14.46C21.5114 13.8215 21.5114 13.1785 21.449 12.54C21.2323 10.3498 20.2594 8.30356 18.6976 6.7529C17.1358 5.20224 15.0827 4.24404 12.891 4.04299C12.68 4.02299 12.039 3.99299 11.941 3.99999L11.648 4.00799ZM12.273 8.03899C12.598 8.13699 12.843 8.37099 12.953 8.69499L12.993 8.80499V11.09L12.996 13.375L14.746 14.254C15.707 14.734 16.52 15.144 16.555 15.168C16.754 15.301 16.906 15.516 16.969 15.754C17.004 15.887 17.004 16.114 16.969 16.246C16.9231 16.4196 16.832 16.578 16.705 16.705C16.578 16.8319 16.4196 16.923 16.246 16.969C16.0853 17.0035 15.9192 17.0048 15.758 16.973C15.684 16.949 15.223 16.727 13.57 15.903C12.129 15.18 11.453 14.84 11.398 14.797C11.1972 14.6436 11.0609 14.4207 11.016 14.172C11.008 14.113 11.004 13.445 11.008 11.449L11.012 8.80499L11.047 8.69499C11.0956 8.54342 11.1815 8.40654 11.297 8.29699C11.445 8.14799 11.613 8.05899 11.812 8.01599C11.902 7.99599 12.184 8.00799 12.273 8.03899Z" fill="#202020"/>
</svg>
