<svg width="24" height="24" viewBox="0 0 24 24" fill="none" xmlns="http://www.w3.org/2000/svg">
<path d="M12.43 2.01602C9.97765 2.15393 7.66275 3.19315 5.93 4.93402C5.457 5.40602 5.055 5.89402 4.695 6.43002L4.566 6.62102L3.633 5.69102C2.793 4.85102 2.691 4.75802 2.613 4.71502C2.43371 4.61139 2.22556 4.56892 2.02 4.59402C1.598 4.64402 1.273 4.92202 1.156 5.31602L1.133 5.40602V10.844L1.164 10.945C1.227 11.129 1.304 11.25 1.43 11.375C1.566 11.5 1.707 11.578 1.887 11.629L1.988 11.652H4.652C7.195 11.652 7.324 11.652 7.41 11.632C7.58785 11.5957 7.75101 11.5077 7.879 11.379C8.012 11.254 8.117 11.074 8.164 10.891C8.195 10.781 8.195 10.516 8.164 10.406C8.13014 10.2922 8.07886 10.1842 8.012 10.086C7.98 10.046 7.527 9.58202 6.996 9.05102C6.469 8.52302 6.036 8.08202 6.036 8.07402C6.036 8.05102 6.254 7.68802 6.383 7.50002C7.03191 6.54641 7.87911 5.7442 8.86667 5.14825C9.85424 4.55229 10.9589 4.17665 12.105 4.04702C13.1391 3.93469 14.1852 4.0209 15.187 4.30102C17.1961 4.87486 18.9018 6.21031 19.941 8.02302C21.121 10.059 21.324 12.566 20.5 14.789C19.9623 16.2258 19.0256 17.4793 17.8 18.402C16.2 19.6011 14.2088 20.1573 12.219 19.961C10.759 19.8197 9.36643 19.2778 8.195 18.395C8.105 18.328 8 18.246 7.953 18.211C7.84672 18.1297 7.72638 18.0687 7.598 18.031C7.43811 17.9984 7.27341 17.997 7.113 18.027C6.96739 18.0626 6.83153 18.1301 6.71529 18.2247C6.59905 18.3193 6.50535 18.4387 6.441 18.574C6.37681 18.7024 6.34489 18.8445 6.348 18.988C6.348 19.227 6.414 19.43 6.555 19.609C6.629 19.711 6.707 19.777 7.012 20.008C8.2967 20.9705 9.79482 21.6086 11.379 21.868C12.195 22 13.102 22.031 13.941 21.953C16.0919 21.7519 18.1195 20.8581 19.719 19.406C19.918 19.223 20.297 18.84 20.469 18.648C21.4961 17.4943 22.2419 16.1182 22.6479 14.6279C23.0539 13.1375 23.109 11.5733 22.809 10.058C22.3918 7.94526 21.303 6.02389 19.705 4.58027C18.1069 3.13665 16.0851 2.24809 13.941 2.04702C13.4385 2.00378 12.9338 1.99342 12.43 2.01602Z" fill="currentColor"/>
<path d="M12.793 8.02302C12.6116 8.0629 12.4447 8.15177 12.3103 8.27995C12.176 8.40814 12.0794 8.57073 12.031 8.75002L12.008 8.84002L12.004 10.453C12 12.227 11.996 12.172 12.07 12.363C12.148 12.563 12.145 12.559 13.27 13.683C13.6367 14.0584 14.0101 14.4271 14.39 14.789C14.4982 14.8692 14.6202 14.9289 14.75 14.965C14.879 15.004 15.117 15.004 15.254 14.969C15.3917 14.9316 15.5198 14.8651 15.6297 14.774C15.7395 14.6829 15.8286 14.5694 15.891 14.441C15.9695 14.3052 16.0034 14.1481 15.988 13.992C15.988 13.824 15.988 13.801 15.957 13.711C15.9247 13.608 15.8776 13.5103 15.817 13.421C15.785 13.387 15.367 12.957 14.883 12.473L14.003 11.593V10.293C14.003 9.48002 14 8.95702 13.993 8.89502C13.969 8.65617 13.8575 8.43464 13.68 8.27302C13.5593 8.15543 13.4095 8.07193 13.246 8.03102C13.0965 8.00293 12.9434 8.00022 12.793 8.02302Z" fill="currentColor"/>
</svg>
