<svg width="24" height="24" viewBox="0 0 24 24" fill="none" xmlns="http://www.w3.org/2000/svg">
<path d="M3.875 3.00797C3.805 3.01597 3.66 3.05797 3.594 3.08597C3.41337 3.17411 3.25944 3.30871 3.148 3.47597C3.04765 3.64211 2.9973 3.83366 3.00297 4.02768C3.00865 4.2217 3.07011 4.40997 3.18 4.56997C3.2 4.59797 4.871 6.28097 6.902 8.31197L10.59 12L6.902 15.688C5.65469 16.9287 4.41401 18.176 3.18 19.43C3.07031 19.5899 3.00897 19.7779 3.00329 19.9718C2.99762 20.1656 3.04785 20.3569 3.148 20.523C3.207 20.617 3.348 20.766 3.445 20.828C3.785 21.055 4.223 21.055 4.57 20.82C4.602 20.8 6.281 19.129 8.312 17.098L12 13.41L15.688 17.098C16.9299 18.3441 18.1772 19.5848 19.43 20.82C19.6256 20.9567 19.8639 21.0185 20.1013 20.9941C20.3387 20.9697 20.5593 20.8607 20.723 20.687C20.8815 20.5207 20.9777 20.3048 20.9954 20.0757C21.0131 19.8467 20.9511 19.6186 20.82 19.43C20.8 19.398 19.129 17.719 17.098 15.688L13.414 12L17.098 8.31197C18.3441 7.0701 19.5848 5.82275 20.82 4.56997C20.9297 4.41008 20.991 4.22199 20.9967 4.02817C21.0024 3.83436 20.9521 3.643 20.852 3.47697C20.7714 3.35645 20.6694 3.25172 20.551 3.16797C20.3839 3.05902 20.1882 3.00202 19.9887 3.00416C19.7892 3.00629 19.5948 3.06747 19.43 3.17997C19.402 3.19997 17.719 4.87097 15.688 6.90197L12 10.586L8.312 6.90197C7.07129 5.65466 5.82394 4.41398 4.57 3.17997C4.36661 3.04079 4.11982 2.97971 3.875 3.00797Z" fill="#202020"/>
</svg>
