<svg width="24" height="24" viewBox="0 0 24 24" fill="none" xmlns="http://www.w3.org/2000/svg">
<path d="M3.754 1.008C3.05549 1.04982 2.38027 1.27465 1.79612 1.65993C1.21198 2.04521 0.739458 2.57737 0.426 3.203C0.219 3.613 0.09 4.047 0.027 4.527C0.007 4.68 0.007 4.809 0.007 6.004C0.007 7.301 0.007 7.32 0.031 7.508C0.125 8.164 0.336 8.73 0.699 9.262C1.15997 9.93265 1.81386 10.4474 2.574 10.738C2.969 10.887 3.344 10.965 3.785 10.992C4.062 11.008 19.93 11.008 20.211 10.992C21.1854 10.9442 22.1084 10.5403 22.8047 9.85697C23.5009 9.1736 23.922 8.25836 23.988 7.285C24.0036 6.42707 24.0036 5.56893 23.988 4.711C23.9382 4.00277 23.7011 3.3205 23.301 2.734C22.8088 2.01701 22.0955 1.48074 21.27 1.207C20.9879 1.11405 20.6971 1.05005 20.402 1.016C20.316 1.008 18.426 1.004 12.102 1C7.594 1 3.84 1.004 3.754 1.008ZM4.25 4.03C4.445 4.081 4.64 4.206 4.777 4.366C4.852 4.46 4.934 4.62 4.973 4.749L5 4.844V7.152L4.973 7.246C4.938 7.375 4.855 7.536 4.777 7.629C4.648 7.789 4.449 7.918 4.25 7.969C4.08788 8.00415 3.92012 8.00415 3.758 7.969C3.56857 7.92107 3.39718 7.81906 3.26472 7.67541C3.13226 7.53177 3.04445 7.35268 3.012 7.16C2.99638 6.38675 2.99638 5.61325 3.012 4.84C3.082 4.414 3.426 4.074 3.863 4.008C3.957 3.992 4.145 4.003 4.25 4.03ZM8.246 4.03C8.296 4.042 8.395 4.081 8.461 4.116C8.571 4.167 8.598 4.186 8.703 4.292C8.867 4.46 8.953 4.624 8.988 4.839C9.004 4.944 9.004 7.054 8.988 7.159C8.95525 7.35094 8.86783 7.52935 8.73622 7.67285C8.60461 7.81634 8.4344 7.91882 8.246 7.968C8.113 8.003 7.886 8.003 7.754 7.968C7.58015 7.92165 7.42151 7.83048 7.29393 7.70361C7.16635 7.57673 7.07431 7.41859 7.027 7.245L7.004 7.151V4.844L7.027 4.75C7.09453 4.49355 7.26059 4.27413 7.48906 4.13948C7.71753 4.00483 7.98993 3.96584 8.247 4.031L8.246 4.03ZM12.246 4.03C12.4206 4.07401 12.5799 4.16447 12.7072 4.29176C12.8345 4.41905 12.925 4.57844 12.969 4.753L12.996 4.866V7.132L12.969 7.245C12.9156 7.46091 12.7909 7.65245 12.615 7.78858C12.4391 7.92471 12.2224 7.99745 12 7.995C11.8111 7.99764 11.6254 7.94562 11.4654 7.8452C11.3054 7.74478 11.1778 7.60025 11.098 7.429C11.004 7.229 11.012 7.319 11.012 5.999C11.012 4.679 11.004 4.769 11.098 4.569C11.1969 4.35977 11.3656 4.19153 11.5751 4.09317C11.7846 3.99481 12.0218 3.97247 12.246 4.03ZM19.18 4.007C19.4908 4.03564 19.7906 4.13632 20.0556 4.30105C20.3207 4.46579 20.5437 4.69003 20.707 4.956C21.039 5.491 21.09 6.186 20.844 6.776C20.664 7.198 20.328 7.566 19.922 7.772C19.6469 7.91559 19.3422 7.9931 19.0319 7.99839C18.7217 8.00368 18.4145 7.9366 18.1347 7.80247C17.8548 7.66834 17.6101 7.47086 17.42 7.22568C17.2298 6.9805 17.0993 6.69437 17.039 6.39C17.012 6.276 17.012 6.233 17.012 5.999C17.012 5.765 17.012 5.722 17.039 5.604C17.1078 5.25724 17.2678 4.93512 17.5027 4.67091C17.7376 4.40669 18.0387 4.20995 18.375 4.101C18.648 4.011 18.902 3.979 19.18 4.007ZM3.754 13.008C3.05549 13.0498 2.38027 13.2747 1.79612 13.6599C1.21198 14.0452 0.739458 14.5774 0.426 15.203C0.219 15.613 0.09 16.047 0.027 16.527C0.007 16.68 0.007 16.809 0.007 18.004C0.007 19.301 0.007 19.32 0.031 19.508C0.125 20.164 0.336 20.73 0.699 21.262C1.15997 21.9327 1.81386 22.4474 2.574 22.738C2.969 22.887 3.344 22.965 3.785 22.992C4.062 23.008 19.93 23.008 20.211 22.992C21.1854 22.9442 22.1084 22.5403 22.8047 21.857C23.5009 21.1736 23.922 20.2584 23.988 19.285C24.0036 18.4271 24.0036 17.5689 23.988 16.711C23.9382 16.0028 23.7011 15.3205 23.301 14.734C22.8088 14.017 22.0955 13.4807 21.27 13.207C20.9879 13.114 20.6971 13.0501 20.402 13.016C20.316 13.008 18.426 13.004 12.102 13C7.594 13 3.84 13.004 3.754 13.008ZM4.25 16.031C4.445 16.082 4.64 16.207 4.777 16.367C4.852 16.461 4.934 16.621 4.973 16.75L5 16.844V19.152L4.973 19.246C4.938 19.375 4.855 19.536 4.777 19.629C4.648 19.789 4.449 19.918 4.25 19.969C4.08788 20.0041 3.92012 20.0041 3.758 19.969C3.56857 19.9211 3.39718 19.8191 3.26472 19.6754C3.13226 19.5318 3.04445 19.3527 3.012 19.16C2.99638 18.3867 2.99638 17.6133 3.012 16.84C3.082 16.414 3.426 16.074 3.863 16.008C3.957 15.992 4.145 16.004 4.25 16.031ZM8.246 16.031C8.296 16.043 8.395 16.082 8.461 16.117C8.571 16.168 8.598 16.187 8.703 16.293C8.867 16.461 8.953 16.625 8.988 16.84C9.004 16.945 9.004 19.055 8.988 19.16C8.95525 19.3519 8.86783 19.5304 8.73622 19.6738C8.60461 19.8173 8.4344 19.9198 8.246 19.969C8.113 20.004 7.886 20.004 7.754 19.969C7.58015 19.9226 7.42151 19.8315 7.29393 19.7046C7.16635 19.5777 7.07431 19.4196 7.027 19.246L7.004 19.152V16.844L7.027 16.75C7.09453 16.4935 7.26059 16.2741 7.48906 16.1395C7.71753 16.0048 7.98893 15.9658 8.246 16.031ZM12.246 16.031C12.4206 16.075 12.5799 16.1655 12.7072 16.2928C12.8345 16.4201 12.925 16.5794 12.969 16.754L12.996 16.867V19.133L12.969 19.246C12.9156 19.4619 12.7909 19.6534 12.615 19.7896C12.4391 19.9257 12.2224 19.9984 12 19.996C11.8111 19.9986 11.6254 19.9466 11.4654 19.8462C11.3054 19.7458 11.1778 19.6012 11.098 19.43C11.004 19.23 11.012 19.32 11.012 18C11.012 16.68 11.004 16.77 11.098 16.57C11.1969 16.3608 11.3656 16.1925 11.5751 16.0942C11.7846 15.9958 12.0218 15.9735 12.246 16.031Z" fill="#202020"/>
</svg>
