<svg width="24" height="24" viewBox="0 0 24 24" fill="none" xmlns="http://www.w3.org/2000/svg">
<path d="M6.89 4.008C6.69794 4.02897 6.51618 4.10552 6.36698 4.22826C6.21777 4.35099 6.10762 4.51459 6.05 4.699C5.96 4.969 5.996 5.269 6.148 5.523C6.184 5.582 6.762 6.168 8.77 8.176C9.64636 9.06133 10.5304 9.93903 11.422 10.809C11.5878 10.9353 11.7917 11.0012 12 10.996C12.204 11.0001 12.4039 10.9384 12.57 10.82C12.61 10.79 13.719 9.691 15.223 8.184C17.5 5.906 17.816 5.586 17.855 5.512C17.9431 5.36841 17.9927 5.20455 17.999 5.03622C18.0053 4.86789 17.9681 4.70077 17.891 4.551C17.7789 4.32766 17.5868 4.15464 17.3531 4.06628C17.1193 3.97792 16.8608 3.98068 16.629 4.074C16.426 4.156 16.555 4.031 14.195 6.391L12 8.582L9.812 6.398C7.45 4.04 7.566 4.148 7.367 4.07C7.21553 4.01176 7.05134 3.9905 6.89 4.008ZM11.879 13.008C11.719 13.028 11.559 13.094 11.422 13.188C11.382 13.218 10.187 14.402 8.77 15.824C6.762 17.832 6.184 18.418 6.148 18.473C6.0734 18.596 6.02614 18.7336 6.0094 18.8764C5.99266 19.0193 6.00685 19.1641 6.051 19.301C6.09053 19.4272 6.15486 19.5442 6.24022 19.6451C6.32558 19.7461 6.43024 19.829 6.54807 19.889C6.6659 19.949 6.79452 19.9849 6.92639 19.9945C7.05826 20.0041 7.19072 19.9873 7.316 19.945C7.555 19.867 7.375 20.035 9.805 17.605L12 15.415L14.195 17.605C16.555 19.969 16.425 19.844 16.629 19.925C16.758 19.977 16.859 19.996 17 19.996C17.2123 19.9987 17.4196 19.9324 17.591 19.807C17.7623 19.6817 17.8883 19.5041 17.95 19.301C18.04 19.031 18.004 18.731 17.852 18.473C17.82 18.418 17.238 17.832 15.222 15.816C14.3442 14.9311 13.4601 14.0525 12.57 13.18C12.3671 13.0431 12.1224 12.9822 11.879 13.008Z" fill="#202020"/>
</svg>
