<svg width="24" height="24" viewBox="0 0 24 24" fill="none" xmlns="http://www.w3.org/2000/svg">
<path d="M3.75 0.00802832C2.88973 0.0625587 2.07022 0.394082 1.414 0.953028C1.2111 1.13137 1.02314 1.32602 0.852 1.53503C0.358558 2.16189 0.0657932 2.92307 0.012 3.71903C0.004 3.84403 -2.32831e-10 5.69903 0.004 10.117C0.008 16.859 0.004 16.355 0.066 16.707C0.194011 17.4192 0.512683 18.0834 0.988117 18.6289C1.46355 19.1745 2.07797 19.5809 2.766 19.805C3.145 19.925 3.476 19.98 3.934 20C4.09 20.004 4.168 20.012 4.25 20.031C4.40126 20.0703 4.5412 20.1445 4.65859 20.2477C4.77599 20.3508 4.86757 20.4801 4.926 20.625C5 20.809 4.996 20.746 5.004 21.996C5.012 23.254 5.008 23.172 5.086 23.356C5.207 23.645 5.492 23.871 5.812 23.937C5.96447 23.9602 6.11997 23.9537 6.27 23.918C6.465 23.863 6.422 23.895 8.883 21.977C10.98 20.347 11.223 20.16 11.328 20.109C11.3888 20.0788 11.4516 20.0528 11.516 20.031C11.582 20.011 11.809 20.008 15.934 20.004C19.941 19.996 20.293 19.996 20.438 19.977C21.2017 19.8904 21.925 19.5879 22.523 19.105C22.672 18.985 22.988 18.668 23.113 18.508C23.602 17.898 23.891 17.195 23.98 16.41C23.992 16.297 23.996 15.133 23.996 9.98403C23.996 3.98803 23.992 3.68803 23.973 3.53103C23.8789 2.74885 23.5569 2.0116 23.047 1.41103C22.8869 1.231 22.7144 1.06226 22.531 0.906028C21.9535 0.433029 21.2559 0.130061 20.516 0.0310283L20.34 0.00802832L12.07 0.00402832C7.523 0.00402832 3.781 0.00402832 3.75 0.00802832ZM6.398 8.03903C6.91602 8.14455 7.37119 8.45087 7.664 8.89103C7.89636 9.241 8.01305 9.65507 7.99762 10.0749C7.98219 10.4947 7.83543 10.8991 7.578 11.231C7.47196 11.3585 7.35447 11.476 7.227 11.582C6.98 11.782 6.648 11.922 6.305 11.98C6.188 12 5.809 11.996 5.695 11.98C5.37817 11.9298 5.07789 11.8047 4.8191 11.6151C4.56031 11.4255 4.35047 11.177 4.207 10.89C4.05195 10.5744 3.98228 10.2237 4.00491 9.87283C4.02754 9.52194 4.14169 9.18309 4.336 8.89003C4.47982 8.6715 4.66593 8.48398 4.88335 8.33852C5.10078 8.19305 5.34513 8.09258 5.602 8.04303C5.782 8.00303 5.773 8.00803 6.035 8.00803C6.235 8.01203 6.297 8.01603 6.398 8.03903ZM12.398 8.03903C12.916 8.14455 13.3712 8.45087 13.664 8.89103C13.8964 9.241 14.0131 9.65507 13.9976 10.0749C13.9822 10.4947 13.8354 10.8991 13.578 11.231C13.472 11.3585 13.3545 11.476 13.227 11.582C12.98 11.782 12.648 11.922 12.305 11.98C12.188 12 11.809 11.996 11.695 11.98C11.3782 11.9298 11.0779 11.8047 10.8191 11.6151C10.5603 11.4255 10.3505 11.177 10.207 10.89C10.052 10.5744 9.98228 10.2237 10.0049 9.87283C10.0275 9.52194 10.1417 9.18309 10.336 8.89003C10.4798 8.6715 10.6659 8.48398 10.8834 8.33852C11.1008 8.19305 11.3451 8.09258 11.602 8.04303C11.782 8.00303 11.773 8.00803 12.035 8.00803C12.235 8.01203 12.297 8.01603 12.398 8.03903ZM18.398 8.03903C18.916 8.14455 19.3712 8.45087 19.664 8.89103C19.8964 9.241 20.0131 9.65507 19.9976 10.0749C19.9822 10.4947 19.8354 10.8991 19.578 11.231C19.472 11.3585 19.3545 11.476 19.227 11.582C18.98 11.782 18.648 11.922 18.305 11.98C18.188 12 17.809 11.996 17.695 11.98C17.3782 11.9298 17.0779 11.8047 16.8191 11.6151C16.5603 11.4255 16.3505 11.177 16.207 10.89C16.052 10.5744 15.9823 10.2237 16.0049 9.87283C16.0275 9.52194 16.1417 9.18309 16.336 8.89003C16.4798 8.6715 16.6659 8.48398 16.8834 8.33852C17.1008 8.19305 17.3451 8.09258 17.602 8.04303C17.782 8.00303 17.773 8.00803 18.035 8.00803C18.235 8.01203 18.297 8.01603 18.398 8.03903Z" fill="#202020"/>
</svg>
