<svg width="24" height="24" viewBox="0 0 24 24" fill="none" xmlns="http://www.w3.org/2000/svg">
<path d="M11.793 1.00804C11.2698 1.04467 10.7654 1.218 10.3302 1.51071C9.89494 1.80343 9.5442 2.20526 9.313 2.67604C9.207 2.89104 9.153 3.03904 9.102 3.23804C9.012 3.58604 9 3.73004 9 4.50404C9 4.99204 8.996 5.14804 8.984 5.25804C8.92888 5.67122 8.7466 6.05701 8.46243 6.36197C8.17825 6.66693 7.80626 6.87594 7.398 6.96004C7.289 6.98704 7.246 6.98704 6.512 6.99504C6.07 6.99904 5.684 7.01104 5.613 7.01904C4.83633 7.09279 4.09878 7.39442 3.493 7.88604C3.352 7.99604 2.996 8.35104 2.879 8.49604C2.38763 9.11502 2.08768 9.864 2.016 10.651C2 10.839 2 19.159 2.016 19.347C2.086 20.124 2.371 20.839 2.856 21.467C2.98 21.627 3.336 21.991 3.492 22.112C3.797 22.354 4.062 22.515 4.398 22.663C4.762 22.823 5.133 22.921 5.602 22.983C5.746 22.999 19.875 23.011 20.125 22.991C20.5958 22.9655 21.0413 22.7701 21.379 22.441C21.645 22.183 21.82 21.894 21.922 21.55C21.992 21.292 22 21.218 21.992 20.429C21.988 19.639 21.988 19.651 21.891 19.354C21.7788 19.0282 21.5846 18.7367 21.3272 18.5076C21.0697 18.2786 20.7577 18.1196 20.421 18.046C20.223 18.003 20.098 17.999 19.469 17.999C19.109 17.999 18.793 17.991 18.719 17.987C18.1455 17.9301 17.5998 17.712 17.145 17.358C16.9696 17.2097 16.8061 17.0479 16.656 16.874C16.3159 16.4434 16.0974 15.9297 16.023 15.386C15.9956 15.1288 15.9956 14.8693 16.023 14.612C16.0938 14.0778 16.3058 13.5721 16.637 13.147C16.817 12.917 17.148 12.62 17.422 12.448C17.684 12.284 18.074 12.124 18.372 12.065C18.648 12.007 18.664 12.007 19.465 11.999C20.289 11.991 20.285 11.991 20.539 11.925C20.8508 11.8361 21.1365 11.6731 21.3719 11.4501C21.6073 11.2271 21.7853 10.9506 21.891 10.644C21.988 10.347 21.988 10.358 21.992 9.56204C22 8.79204 21.992 8.72204 21.93 8.48304C21.8394 8.14675 21.6627 7.83987 21.4174 7.59263C21.1721 7.34539 20.8666 7.16631 20.531 7.07304C20.258 6.99904 20.363 7.00304 18.465 6.99504L16.73 6.98704L16.61 6.96404C15.887 6.80404 15.324 6.30404 15.102 5.62404C15.008 5.34804 15 5.24204 15 4.50004C15 3.88304 14.992 3.71004 14.957 3.50404C14.8652 2.96688 14.6297 2.46458 14.2755 2.05048C13.9212 1.63637 13.4615 1.32591 12.945 1.15204C12.5732 1.03311 12.1826 0.984278 11.793 1.00804Z" fill="#202020"/>
</svg>
