<svg width="24" height="24" viewBox="0 0 24 24" fill="none" xmlns="http://www.w3.org/2000/svg">
<path d="M11.762 0.00804228C11.734 0.00804228 11.656 0.0160423 11.586 0.0230423C11.04 0.0795864 10.5116 0.248208 10.0337 0.518356C9.55589 0.788504 9.13895 1.15436 8.809 1.59304C8.391 2.14804 8.149 2.73404 8.035 3.45704C8.015 3.60204 8.012 3.69104 8.004 4.38304C7.996 5.12104 7.996 5.15304 7.973 5.24304C7.875 5.59804 7.613 5.86304 7.266 5.96504C7.18 5.99204 7.156 5.99204 6.398 6.00004C5.968 6.00404 5.602 6.01204 5.578 6.01604C5.555 6.02004 5.484 6.02704 5.422 6.03604C3.906 6.19804 2.5 7.10804 1.71 8.43304C1.28426 9.14078 1.04257 9.94389 1.007 10.769C0.991 11.077 0.991 18.921 1.007 19.229C1.03691 19.924 1.21416 20.6047 1.527 21.226C1.91709 22.0123 2.50783 22.6817 3.23951 23.1665C3.97118 23.6513 4.81787 23.9343 5.694 23.987C5.843 23.995 7.948 23.999 13.097 23.995C19.811 23.991 20.3 23.991 20.409 23.972C20.867 23.9064 21.3038 23.7367 21.686 23.476C22.02 23.2491 22.3046 22.9569 22.5228 22.6172C22.7411 22.2775 22.8884 21.8971 22.956 21.499C22.996 21.261 23.006 21.003 22.999 20.354C23.0026 20.1078 22.9949 19.8616 22.976 19.616C22.893 18.9791 22.6065 18.3859 22.159 17.925C21.773 17.515 21.2762 17.2259 20.729 17.093C20.409 17.011 20.401 17.011 19.558 17.003C18.745 16.995 18.714 16.991 18.491 16.933C18.1736 16.8479 17.8818 16.6866 17.6408 16.4632C17.3998 16.2398 17.2169 15.9611 17.108 15.651C17.026 15.409 17.011 15.3 17.011 14.999C17.011 14.769 17.011 14.722 17.034 14.609C17.124 14.199 17.308 13.862 17.601 13.573C17.847 13.331 18.159 13.151 18.487 13.065C18.714 13.007 18.745 13.003 19.557 12.995C20.401 12.987 20.409 12.983 20.726 12.905C21.2661 12.7713 21.7582 12.4894 22.1469 12.0912C22.5355 11.693 22.8054 11.1942 22.926 10.651C22.987 10.374 22.996 10.288 22.999 9.64404C23.007 8.82404 22.991 8.57704 22.897 8.22604C22.7544 7.69964 22.4717 7.22178 22.079 6.84334C21.6863 6.4649 21.1983 6.20007 20.667 6.07704C20.343 6.00304 20.448 6.00704 18.557 5.99904C16.933 5.99104 16.815 5.99104 16.753 5.97204C16.5788 5.92408 16.4201 5.83152 16.2926 5.7035C16.1652 5.57548 16.0732 5.41643 16.026 5.24204C16.003 5.15204 16.003 5.12404 15.996 4.38604C15.987 3.57304 15.983 3.53404 15.917 3.20604C15.7889 2.57775 15.5122 1.98928 15.1099 1.48994C14.7077 0.990598 14.1916 0.594918 13.605 0.336042C13.231 0.173985 12.835 0.0684954 12.43 0.0230423C12.2076 0.00859401 11.9848 0.0035895 11.762 0.00804228ZM12.398 2.03904C12.797 2.12504 13.133 2.30904 13.414 2.58604C13.66 2.83204 13.848 3.15604 13.934 3.48804C13.992 3.71504 13.996 3.74604 14.004 4.55804C14.012 5.40204 14.012 5.41004 14.094 5.73004C14.2303 6.26842 14.513 6.75852 14.9109 7.14598C15.3088 7.53343 15.8062 7.80309 16.348 7.92504C16.672 7.99604 16.594 7.99604 18.477 8.00404L20.199 8.00804L20.309 8.04704C20.4362 8.08838 20.5537 8.15506 20.6544 8.24305C20.7551 8.33105 20.837 8.43854 20.895 8.55904C20.996 8.76904 20.996 8.75004 20.996 9.50404C20.996 10.114 20.992 10.172 20.973 10.242C20.9264 10.4167 20.8347 10.5761 20.7071 10.7043C20.5795 10.8324 20.4205 10.9247 20.246 10.972C20.152 10.996 20.125 10.996 19.383 11.004C18.57 11.012 18.527 11.016 18.199 11.082C17.4339 11.2386 16.7315 11.6162 16.179 12.168C15.733 12.6107 15.398 13.1525 15.2012 13.7493C15.0045 14.3461 14.9517 14.9809 15.047 15.602C15.1776 16.4539 15.5796 17.2409 16.1932 17.8461C16.8069 18.4513 17.5994 18.8423 18.453 18.961C18.602 18.984 18.676 18.988 19.383 18.996C20.125 19.004 20.153 19.004 20.246 19.027C20.606 19.129 20.867 19.391 20.973 19.757C20.993 19.828 20.996 19.887 20.996 20.497C20.996 21.238 20.996 21.227 20.906 21.422C20.8487 21.5459 20.7664 21.6567 20.6644 21.7473C20.5624 21.838 20.4428 21.9067 20.313 21.949L20.199 21.989L13.004 21.992C6.621 21.996 5.789 21.996 5.648 21.977C4.90876 21.8882 4.22848 21.5292 3.738 20.969C3.3579 20.5321 3.11144 19.9951 3.028 19.422C3.008 19.289 3.008 19.117 3.008 15C3.008 10.883 3.008 10.71 3.028 10.574C3.113 10.035 3.328 9.54304 3.664 9.11704C3.762 8.99704 3.98 8.77304 4.105 8.67204C4.445 8.39804 4.883 8.18404 5.305 8.08204C5.585 8.01604 5.598 8.01604 6.445 8.00404C7.085 7.99604 7.262 7.99204 7.379 7.97704C7.89458 7.90947 8.38401 7.71004 8.8 7.39804C8.972 7.27004 9.269 6.97704 9.394 6.80104C9.63715 6.48193 9.81241 6.11643 9.909 5.72704C9.983 5.41004 9.987 5.40204 9.995 4.55904C10.003 3.74604 10.007 3.71504 10.065 3.48904C10.1679 3.10164 10.3844 2.75391 10.6867 2.49067C10.989 2.22743 11.3631 2.06073 11.761 2.01204C11.781 2.00804 11.905 2.00804 12.042 2.00804C12.237 2.01204 12.309 2.02004 12.398 2.03904Z" fill="#202020"/>
</svg>
