<svg width="24" height="24" viewBox="0 0 24 24" fill="none" xmlns="http://www.w3.org/2000/svg">
<g clip-path="url(#clip0_2064_32133)">
<path d="M8.54 0.0119412C6.89188 0.0923394 5.29796 0.626297 3.934 1.55494C3.11596 2.11175 2.39501 2.79925 1.8 3.58994C1.05106 4.58868 0.517758 5.73212 0.233898 6.94777C-0.0499619 8.16343 -0.078191 9.4248 0.151 10.6519C0.45114 12.2742 1.19184 13.7826 2.292 15.0119C2.472 15.2109 2.831 15.5699 3.022 15.7379C4.52013 17.062 6.41539 17.8514 8.41052 17.9823C10.4056 18.1131 12.3878 17.578 14.046 16.4609C15.5478 15.4415 16.7075 13.9932 17.374 12.3049C18.038 10.6129 18.174 8.73494 17.764 6.95294C17.4265 5.49445 16.7297 4.14348 15.737 3.02294C15.5102 2.77628 15.2744 2.53812 15.03 2.30894C14.1105 1.48028 13.0295 0.85076 11.855 0.459941C10.7872 0.10689 9.66329 -0.0456748 8.54 0.00994116V0.0119412ZM8.965 5.10194V6.19894H10.957L10.953 6.22694C10.824 6.78094 10.566 7.71894 10.52 7.80894C10.4744 7.8901 10.4063 7.95641 10.324 7.99994L10.262 8.03094L8.965 8.03894V9.83594C8.965 11.4059 8.969 11.6409 8.985 11.7539C9.031 12.0629 9.102 12.1289 9.387 12.1139C9.629 12.1019 9.777 12.0509 10.16 11.8359L10.414 11.6989C10.418 11.7029 10.988 13.3789 10.996 13.4019C11 13.4179 10.699 13.5619 10.352 13.7109C9.882 13.9139 9.277 14.0269 8.84 13.9919C8.293 13.9489 7.883 13.7769 7.563 13.4609C7.258 13.1519 7.086 12.7659 7.016 12.2109C7.004 12.1129 7.004 11.3589 7.004 8.37494V4.65994L7.964 4.33594C8.492 4.15594 8.934 4.00794 8.945 4.00794C8.965 4.00794 8.965 4.06594 8.965 5.10194Z" fill="#202020"/>
<path d="M20.531 8.25794C20.4176 8.29626 20.3146 8.36023 20.2299 8.44487C20.1453 8.52951 20.0813 8.63254 20.043 8.74594C20.016 8.83594 20.012 8.86294 19.996 9.26994C19.988 9.49994 19.973 9.79294 19.965 9.91394C19.7931 11.9764 19.0415 13.9483 17.797 15.6019C16.1017 17.8616 13.6027 19.3832 10.817 19.8519C10.305 19.9369 9.895 19.9719 9.262 19.9959C8.863 20.0119 8.836 20.0159 8.75 20.0429C8.56467 20.1031 8.40939 20.2319 8.316 20.4029C8.2548 20.5033 8.22877 20.6212 8.242 20.7379C8.23778 20.8161 8.25693 20.8937 8.297 20.9609C8.344 21.0589 8.363 21.0819 8.59 21.3089C8.723 21.4449 8.906 21.6209 9 21.7069C10.1873 22.7686 11.6348 23.4966 13.195 23.8169C14.8264 24.1514 16.5187 24.0262 18.0832 23.4551C19.6476 22.8841 21.0226 21.8897 22.055 20.5829C23.1373 19.2239 23.7984 17.578 23.957 15.8479C24.0851 14.5172 23.9138 13.1747 23.4556 11.9188C22.9974 10.6629 22.2639 9.52552 21.309 8.58994C21.082 8.36294 21.059 8.34394 20.961 8.29694C20.859 8.24694 20.855 8.24694 20.727 8.24194C20.6612 8.235 20.5948 8.24043 20.531 8.25794Z" fill="#202020"/>
</g>
<defs>
<clipPath id="clip0_2064_32133">
<rect width="24" height="24" fill="white"/>
</clipPath>
</defs>
</svg>
