<svg width="24" height="24" viewBox="0 0 24 24" fill="none" xmlns="http://www.w3.org/2000/svg">
<path d="M11.566 0.00797164C9.79 0.0899716 8.246 0.472972 6.734 1.20997C5.00461 2.05066 3.5034 3.2959 2.35762 4.84015C1.21183 6.3844 0.45525 8.18214 0.152 10.081C0.043 10.766 0.008 11.266 0.008 12C-0.00160423 14.309 0.659119 16.5711 1.91 18.512C2.99648 20.1913 4.48385 21.5739 6.238 22.535C8.67623 23.8588 11.4958 24.303 14.223 23.793C15.7191 23.5167 17.1483 22.9559 18.433 22.141C19.5441 21.4331 20.5324 20.5488 21.359 19.523C22.831 17.6908 23.7305 15.4654 23.945 13.125C23.985 12.707 23.992 12.508 23.992 12C23.992 11.23 23.949 10.672 23.824 9.94997C23.298 6.87653 21.5939 4.12948 19.074 2.29297C17.6821 1.28183 16.0886 0.582617 14.402 0.242972C13.863 0.132972 13.406 0.0699717 12.832 0.0269716C12.4103 0.00683756 11.9881 0.000167492 11.566 0.00697164V0.00797164ZM12.828 2.03097C13.718 2.11297 14.426 2.25797 15.218 2.52297C16.8032 3.06126 18.2282 3.98815 19.363 5.21897C20.6421 6.60553 21.4999 8.3277 21.836 10.184C21.949 10.793 21.996 11.34 21.996 11.996C22.0029 14.1386 21.3194 16.2265 20.0467 17.9503C18.774 19.674 16.9798 20.9419 14.93 21.566C14.262 21.77 13.605 21.895 12.832 21.969C12.555 21.992 11.766 22.004 11.449 21.984C9.81562 21.8996 8.22847 21.4125 6.829 20.566C5.70928 19.8906 4.7323 19.003 3.953 17.953C3.05963 16.7457 2.45202 15.3513 2.176 13.875C2.109 13.535 2.059 13.152 2.023 12.75C2 12.465 2.003 11.469 2.031 11.18C2.18 9.52697 2.661 8.06997 3.504 6.70697C4.10381 5.7465 4.86185 4.89447 5.746 4.18697C7.38271 2.87723 9.39035 2.11623 11.484 2.01197C11.9321 2.00524 12.3803 2.01191 12.828 2.03197V2.03097Z" fill="currentColor"/>
<path d="M6.918 6.05897C6.71332 6.08898 6.5226 6.18051 6.37114 6.32143C6.21969 6.46234 6.11466 6.64598 6.07 6.84797C6.047 6.96097 6.05 7.18397 6.082 7.29297C6.109 7.39797 6.168 7.52697 6.222 7.61297C6.242 7.64497 7.234 8.64497 8.426 9.83597L10.59 12L8.426 14.164C7.68513 14.8985 6.95077 15.6395 6.223 16.387C6.16123 16.4851 6.11375 16.5915 6.082 16.703C6.05079 16.8493 6.04672 17.0002 6.07 17.148C6.145 17.492 6.402 17.785 6.73 17.895C7.027 17.996 7.352 17.949 7.617 17.773C7.648 17.753 8.645 16.766 9.836 15.574L12 13.41L14.164 15.574C14.8985 16.3148 15.6395 17.0492 16.387 17.777C16.473 17.832 16.602 17.891 16.707 17.918C16.84 17.957 17.055 17.957 17.187 17.922C17.555 17.824 17.824 17.555 17.922 17.187C17.9577 17.0275 17.9564 16.8619 17.918 16.703C17.8866 16.5915 17.8394 16.4851 17.778 16.387C17.758 16.355 16.766 15.355 15.574 14.164L13.414 12L15.574 9.83597C16.3149 9.10148 17.0492 8.36045 17.777 7.61297C17.832 7.52697 17.891 7.39797 17.918 7.29297C17.957 7.15997 17.957 6.94497 17.922 6.81297C17.8757 6.62965 17.779 6.46293 17.643 6.33164C17.5069 6.20035 17.3369 6.10971 17.152 6.06997C17.0042 6.0466 16.8533 6.05067 16.707 6.08197C16.5943 6.11338 16.4866 6.16051 16.387 6.22197C16.355 6.24197 15.355 7.23397 14.164 8.42597L12 10.586L9.836 8.42597C9.10151 7.6851 8.36048 6.95074 7.613 6.22297C7.40761 6.08879 7.16171 6.03076 6.918 6.05897Z" fill="currentColor"/>
</svg>
