<svg width="24" height="24" viewBox="0 0 24 24" fill="none" xmlns="http://www.w3.org/2000/svg">
<path d="M11.844 0.0120283C11.449 0.0820283 11.148 0.355028 11.035 0.734028L11.012 0.824028V5.17203L11.035 5.26603C11.133 5.60203 11.387 5.85903 11.727 5.96103C11.8152 5.98841 11.9079 5.99892 12 5.99203C12.0935 5.99886 12.1874 5.98835 12.277 5.96103C12.613 5.85903 12.867 5.60103 12.965 5.26603L12.992 5.17203V0.824028L12.965 0.734028C12.9077 0.529292 12.7867 0.348141 12.6194 0.216872C12.4522 0.0856022 12.2475 0.0110469 12.035 0.00402832C11.961 0.00402832 11.875 0.00402832 11.844 0.0120283ZM8.879 2.52303C8.769 2.53503 8.598 2.59003 8.293 2.71103C7.02835 3.21783 5.88015 3.97688 4.91841 4.94189C3.95666 5.9069 3.20152 7.05766 2.699 8.32403C2.519 8.78103 2.484 8.93003 2.508 9.14403C2.539 9.39103 2.641 9.59003 2.82 9.76603C2.91859 9.85804 3.03511 9.92871 3.16227 9.97362C3.28943 10.0185 3.42449 10.0367 3.559 10.027C3.76719 10.0161 3.96663 9.93979 4.129 9.80903C4.293 9.67903 4.375 9.55103 4.484 9.25403C4.88319 8.16163 5.51564 7.16935 6.33735 6.34626C7.15906 5.52317 8.15027 4.88905 9.242 4.48803C9.43 4.41803 9.527 4.36803 9.632 4.28503C9.782 4.16803 9.914 3.95703 9.969 3.76203C10.0002 3.59951 10.0002 3.43254 9.969 3.27003C9.92988 3.10851 9.84882 2.96018 9.734 2.84003C9.5709 2.6579 9.34534 2.54368 9.102 2.52003C9.06281 2.51469 9.02346 2.51069 8.984 2.50803C8.977 2.51203 8.93 2.51603 8.879 2.52303ZM14.883 2.52003C14.645 2.54719 14.4253 2.66111 14.266 2.84003C14.1526 2.9612 14.0717 3.10914 14.031 3.27003C13.9998 3.43254 13.9998 3.59951 14.031 3.76203C14.086 3.95303 14.211 4.15603 14.351 4.27003C14.469 4.36303 14.539 4.40203 14.793 4.50003C15.125 4.62503 15.25 4.68003 15.547 4.82803C16.3243 5.2106 17.0331 5.71875 17.645 6.33203C18.4804 7.16173 19.1217 8.1661 19.523 9.27303C19.625 9.54703 19.707 9.67603 19.863 9.80103C19.9967 9.91248 20.1572 9.98699 20.3286 10.0172C20.5 10.0473 20.6763 10.0321 20.84 9.97303C21.27 9.81303 21.543 9.37903 21.492 8.92603C21.477 8.80903 21.43 8.65603 21.312 8.34803C20.8686 7.23453 20.2341 6.20707 19.437 5.31203C19.1805 5.04028 18.915 4.77713 18.641 4.52303C17.691 3.69103 16.641 3.05503 15.496 2.62903C15.211 2.52303 15.07 2.50103 14.883 2.52003ZM0.844 11.012C0.738625 11.0332 0.636212 11.0672 0.539 11.113C0.418691 11.1755 0.312336 11.2618 0.226387 11.3667C0.140438 11.4716 0.0766866 11.5928 0.039 11.723C0.0116787 11.8127 0.00116861 11.9066 0.008 12C0.008 12.152 0.012 12.18 0.039 12.273C0.141 12.613 0.399 12.867 0.734 12.965L0.828 12.988H5.176L5.266 12.965C5.602 12.867 5.859 12.613 5.961 12.273C5.98838 12.1848 5.99889 12.0922 5.992 12C5.99883 11.9066 5.98832 11.8127 5.961 11.723C5.91205 11.5605 5.8236 11.4125 5.70355 11.2925C5.5835 11.1724 5.43557 11.084 5.273 11.035L5.188 11.008H3.03C1.843 11.008 0.859 11.008 0.844 11.012ZM18.844 11.012C18.7386 11.0332 18.6362 11.0672 18.539 11.113C18.4187 11.1755 18.3123 11.2618 18.2264 11.3667C18.1404 11.4716 18.0767 11.5928 18.039 11.723C18.0117 11.8127 18.0012 11.9066 18.008 12C18.008 12.152 18.012 12.18 18.039 12.273C18.141 12.613 18.399 12.867 18.734 12.965L18.828 12.988H23.176L23.266 12.965C23.602 12.867 23.859 12.613 23.961 12.273C23.9884 12.1848 23.9989 12.0922 23.992 12C23.9988 11.9066 23.9883 11.8127 23.961 11.723C23.9121 11.5605 23.8236 11.4125 23.7036 11.2925C23.5835 11.1724 23.4356 11.084 23.273 11.035L23.188 11.008H21.03C19.843 11.008 18.859 11.008 18.844 11.012ZM3.316 14.02C3.13631 14.0583 2.9704 14.1447 2.836 14.27C2.69204 14.4012 2.59029 14.5721 2.54364 14.7612C2.49699 14.9503 2.50756 15.149 2.574 15.332C2.711 15.75 3.004 16.398 3.254 16.852C4.37479 18.8645 6.15412 20.4298 8.293 21.285C8.738 21.469 8.891 21.504 9.102 21.48C9.34201 21.4578 9.565 21.3465 9.727 21.168C9.84466 21.0458 9.92812 20.8947 9.969 20.73C10.0002 20.5675 10.0002 20.4005 9.969 20.238C9.9103 20.0347 9.79352 19.8529 9.633 19.715C9.51515 19.6262 9.38335 19.5576 9.243 19.512C8.15504 19.1095 7.16689 18.4767 6.3462 17.6569C5.52551 16.837 4.89164 15.8496 4.488 14.762C4.46093 14.6838 4.42989 14.6071 4.395 14.532C4.33217 14.4203 4.25143 14.3196 4.156 14.234C4.03862 14.1468 3.9084 14.0783 3.77 14.031C3.61995 14.0059 3.46709 14.0022 3.316 14.02ZM20.281 14.023C20.0514 14.0724 19.8467 14.2013 19.703 14.387C19.617 14.5 19.582 14.567 19.503 14.785C18.8254 16.5992 17.5164 18.1082 15.816 19.035C15.4862 19.2135 15.1444 19.3689 14.793 19.5C14.539 19.598 14.469 19.633 14.352 19.73C14.211 19.844 14.086 20.047 14.032 20.238C14.0008 20.4005 14.0008 20.5675 14.032 20.73C14.082 20.914 14.148 21.031 14.27 21.164C14.469 21.375 14.715 21.484 15 21.484C15.16 21.484 15.242 21.464 15.5 21.367C16.8667 20.854 18.1051 20.0489 19.1286 19.008C20.1521 17.967 20.9361 16.7152 21.426 15.34C21.4748 15.2046 21.4938 15.0602 21.4817 14.9168C21.4696 14.7733 21.4267 14.6342 21.3559 14.5089C21.285 14.3835 21.188 14.275 21.0713 14.1906C20.9547 14.1063 20.8212 14.0481 20.68 14.02C20.5477 13.9995 20.413 14.0005 20.281 14.023ZM11.844 18.012C11.449 18.082 11.148 18.355 11.035 18.734L11.012 18.824V23.172L11.035 23.266C11.133 23.602 11.387 23.859 11.727 23.961C11.8152 23.9884 11.9079 23.9989 12 23.992C12.0935 23.9989 12.1874 23.9883 12.277 23.961C12.613 23.859 12.867 23.601 12.965 23.266L12.992 23.172V18.824L12.965 18.734C12.9077 18.5293 12.7867 18.3481 12.6194 18.2169C12.4522 18.0856 12.2475 18.011 12.035 18.004C11.961 18.004 11.875 18.004 11.844 18.012Z" fill="#202020"/>
</svg>
