<svg width="24" height="24" viewBox="0 0 24 24" fill="none" xmlns="http://www.w3.org/2000/svg">
<g clip-path="url(#clip0_2064_32511)">
<path d="M19.676 0.910034C18.9703 0.999816 18.3196 1.3376 17.84 1.86303C17.781 1.92603 16.25 3.57803 14.434 5.54303C12.617 7.50303 11.105 9.13703 11.074 9.16803L11.02 9.22303L10.297 8.64803C10.0513 8.45701 9.80796 8.26299 9.567 8.06603C9.562 8.06603 9.594 7.97603 9.637 7.87103C9.812 7.43403 9.922 6.98403 9.977 6.50803C9.997 6.32003 9.997 5.67603 9.977 5.48803C9.90124 4.7532 9.66368 4.04427 9.2814 3.41214C8.89912 2.78002 8.3816 2.2404 7.766 1.83203C7.13531 1.41549 6.41868 1.1468 5.6696 1.04602C4.92052 0.945242 4.15835 1.01498 3.44 1.25003C2.74382 1.47787 2.1062 1.85589 1.57224 2.35736C1.03828 2.85883 0.621031 3.4715 0.35 4.15203C0.00222616 5.03093 -0.0898292 5.99027 0.0844666 6.91926C0.258762 7.84824 0.692298 8.70898 1.335 9.40203C1.82932 9.93439 2.43385 10.3525 3.1064 10.6271C3.77896 10.9017 4.50334 11.0262 5.229 10.992C5.82076 10.9661 6.40318 10.8351 6.949 10.605C7.026 10.575 7.093 10.547 7.097 10.547C7.108 10.547 8.444 11.988 8.444 12C8.444 12.012 7.108 13.453 7.097 13.453C7.093 13.453 7.022 13.426 6.94 13.391C6.00778 13.003 4.98095 12.902 3.991 13.101C3.24483 13.2552 2.54361 13.5774 1.94061 14.0432C1.33762 14.509 0.848698 15.106 0.511 15.789C-0.341 17.523 -0.11 19.629 1.093 21.121C1.62961 21.7924 2.33025 22.314 3.12726 22.6356C3.92427 22.9573 4.79073 23.0679 5.643 22.957C6.41686 22.8585 7.15673 22.5795 7.80292 22.1425C8.4491 21.7054 8.9835 21.1226 9.363 20.441C9.69509 19.8444 9.90357 19.187 9.976 18.508C9.996 18.32 9.996 17.676 9.976 17.488C9.92475 17.0204 9.81038 16.5619 9.636 16.125C9.60612 16.0611 9.58364 15.994 9.569 15.925C9.573 15.922 12.549 13.562 16.179 10.687C19.819 7.80103 22.823 5.40703 22.886 5.34703C23.183 5.06203 23.378 4.70303 23.464 4.28503C23.499 4.10503 23.503 3.74603 23.468 3.56603C23.4106 3.24623 23.2768 2.94502 23.078 2.68803C22.6994 2.28508 22.3068 1.89551 21.901 1.52003C21.4954 1.20862 21.0194 1.00186 20.515 0.918034C20.2358 0.889975 19.9547 0.887297 19.675 0.910034H19.676ZM5.426 3.02703C6.20264 3.13903 6.90485 3.54987 7.383 4.17203C7.637 4.50403 7.836 4.93403 7.926 5.33203C8.023 5.76603 8.023 6.23403 7.926 6.66803C7.84 7.05803 7.648 7.46803 7.402 7.80103C6.98407 8.36097 6.38274 8.75632 5.703 8.91803C5.453 8.97703 5.305 8.99203 5.003 8.99203C4.625 8.99203 4.379 8.95703 4.051 8.84803C3.62459 8.70623 3.23585 8.46964 2.914 8.15603C2.44731 7.70941 2.13994 7.12207 2.039 6.48403C2.00562 6.22107 1.99792 5.95549 2.016 5.69103C2.09 4.98103 2.398 4.34803 2.914 3.84403C3.39988 3.37119 4.03221 3.07777 4.707 3.01203C4.859 2.99603 5.27 3.00403 5.426 3.02703ZM5.426 15.027C6.20264 15.139 6.90485 15.5499 7.383 16.172C7.637 16.504 7.836 16.934 7.926 17.332C8.023 17.766 8.023 18.234 7.926 18.668C7.84 19.058 7.648 19.468 7.402 19.801C6.98407 20.361 6.38274 20.7563 5.703 20.918C5.453 20.977 5.305 20.992 5.003 20.992C4.625 20.992 4.379 20.957 4.051 20.848C3.62459 20.7062 3.23585 20.4696 2.914 20.156C2.44731 19.7094 2.13994 19.1221 2.039 18.484C2.00562 18.2211 1.99792 17.9555 2.016 17.691C2.09 16.981 2.398 16.348 2.914 15.844C3.39988 15.3712 4.03221 15.0778 4.707 15.012C4.859 14.996 5.27 15.004 5.426 15.027Z" fill="#202020"/>
<path d="M13.977 14.5C13.361 14.9874 12.749 15.4797 12.141 15.977C12.141 15.98 17.511 21.789 17.844 22.141C18.2931 22.631 18.892 22.9581 19.547 23.071C19.703 23.101 19.742 23.101 20.047 23.101C20.41 23.101 20.512 23.094 20.793 23.02C21.1962 22.9184 21.5741 22.7345 21.903 22.48C22.035 22.375 22.973 21.445 23.078 21.309C23.278 21.055 23.406 20.762 23.468 20.429C23.504 20.254 23.5 19.891 23.465 19.715C23.3864 19.3085 23.1846 18.936 22.887 18.648C22.801 18.57 15.836 13.031 15.817 13.031C15.817 13.031 14.988 13.691 13.977 14.5Z" fill="#202020"/>
</g>
<defs>
<clipPath id="clip0_2064_32511">
<rect width="24" height="24" fill="white"/>
</clipPath>
</defs>
</svg>
