<svg width="24" height="24" viewBox="0 0 24 24" fill="none" xmlns="http://www.w3.org/2000/svg">
<path d="M3.676 0.0159445C3.07247 0.0641184 2.48776 0.248738 1.96599 0.555874C1.44423 0.863009 0.999032 1.28464 0.664 1.78894C0.312 2.32994 0.125 2.83994 0.02 3.56294C-8.73115e-10 3.69894 -0.008 20.0149 0.012 20.2759C0.0493042 20.852 0.211892 21.413 0.488415 21.9198C0.764937 22.4265 1.14873 22.8668 1.613 23.2099C2.22673 23.6669 2.95947 23.9368 3.723 23.9869C3.848 23.9949 6.293 23.9989 12.117 23.9949L20.34 23.9909L20.516 23.9679C21.25 23.8579 21.848 23.6159 22.406 23.1939C22.719 22.9599 22.969 22.7099 23.203 22.3939C23.664 21.7799 23.926 21.0769 23.988 20.2919C24.004 20.0769 24.004 3.91694 23.988 3.70194C23.9316 2.92279 23.6476 2.17738 23.1711 1.55832C22.6946 0.939265 22.0468 0.473862 21.308 0.219944C21.0247 0.126999 20.7335 0.0600555 20.438 0.0199445C20.316 0.00494446 3.887 -0.00305554 3.675 0.0169445L3.676 0.0159445ZM10.266 3.03594C10.617 3.14094 10.875 3.40194 10.969 3.75394C11.004 3.88694 11.004 4.11394 10.969 4.24594C10.9231 4.41956 10.832 4.57792 10.705 4.70491C10.578 4.8319 10.4196 4.923 10.246 4.96894C10.16 4.99194 10.113 4.99594 9.641 5.00394C9.176 5.01194 9.113 5.01594 9.008 5.03894C8.60585 5.11941 8.2386 5.32278 7.957 5.62094C7.695 5.89494 7.527 6.21494 7.441 6.59794C7.414 6.70294 7.414 6.74594 7.406 7.66794C7.398 8.66395 7.395 8.72694 7.34 9.04694C7.24861 9.54549 7.06732 10.0233 6.805 10.4569C6.582 10.8089 6.457 10.9569 5.891 11.5269L5.42 11.9999L5.89 12.4729C6.468 13.0549 6.604 13.2149 6.823 13.5739C7.12 14.0659 7.3 14.5939 7.378 15.2139C7.394 15.3399 7.398 15.5539 7.405 16.3279C7.413 17.2539 7.413 17.2969 7.44 17.4019C7.499 17.6679 7.62 17.9449 7.765 18.1519C7.862 18.2889 8.093 18.5229 8.225 18.6169C8.479 18.7969 8.741 18.9099 9.042 18.9689C9.112 18.9799 9.261 18.9889 9.644 18.9959C10.112 19.0039 10.159 19.0079 10.245 19.0309C10.601 19.1249 10.874 19.4019 10.968 19.7539C11.003 19.8869 11.003 20.1139 10.968 20.2419C10.9237 20.4142 10.8351 20.5719 10.7111 20.6994C10.5871 20.8269 10.432 20.9198 10.261 20.9689C10.167 20.9919 10.155 20.9919 9.621 20.9919C9.034 20.9919 8.937 20.9879 8.616 20.9219C8.04804 20.8084 7.51154 20.5728 7.04362 20.2314C6.57571 19.8901 6.18754 19.4511 5.906 18.9449C5.71085 18.5944 5.56833 18.217 5.483 17.8249C5.409 17.4689 5.409 17.4649 5.401 16.3979C5.397 15.8589 5.39 15.3979 5.386 15.3779L5.358 15.2499C5.29535 14.9497 5.16732 14.667 4.983 14.4219C4.68402 14.1064 4.38066 13.795 4.073 13.4879C3.76746 13.1881 3.46806 12.882 3.175 12.5699C3.11123 12.4662 3.06115 12.3546 3.026 12.2379C2.99481 12.0795 2.99481 11.9164 3.026 11.7579C3.06194 11.6429 3.11198 11.5327 3.175 11.4299C3.195 11.3979 3.601 10.9839 4.073 10.5119C4.542 10.0389 4.953 9.61694 4.983 9.57794C5.167 9.33595 5.303 9.02794 5.358 8.74594C5.37 8.69594 5.382 8.63594 5.386 8.61294C5.39 8.58994 5.397 8.13295 5.401 7.59294C5.409 6.53094 5.409 6.53094 5.483 6.17594C5.66352 5.33498 6.10875 4.57398 6.7534 4.00456C7.39804 3.43514 8.20818 3.08726 9.065 3.01194C9.128 3.00794 9.405 3.00394 9.679 3.00394C10.159 3.00794 10.179 3.00794 10.265 3.03494L10.266 3.03594ZM14.914 3.01194C15.5437 3.06161 16.1526 3.25968 16.691 3.58994C17.158 3.878 17.5614 4.2583 17.8764 4.70759C18.1914 5.15687 18.4114 5.6657 18.523 6.20294C18.59 6.53094 18.59 6.54694 18.598 7.59794C18.605 8.44094 18.609 8.59794 18.625 8.68394C18.695 9.03494 18.816 9.31294 19.015 9.57794C19.047 9.61794 19.457 10.0389 19.93 10.5119C20.398 10.9839 20.805 11.3979 20.824 11.4299C21.059 11.7769 21.054 12.2229 20.82 12.5739C20.8 12.6019 20.398 13.0159 19.93 13.4879C19.457 13.9609 19.047 14.3829 19.016 14.4219C18.816 14.6869 18.696 14.9649 18.625 15.3159C18.609 15.4019 18.605 15.5589 18.598 16.3979C18.59 17.3129 18.586 17.3949 18.566 17.5429C18.453 18.2579 18.211 18.8519 17.805 19.3949C17.2077 20.1916 16.3362 20.7385 15.359 20.9299C15.055 20.9879 14.957 20.9919 14.379 20.9919C13.848 20.9919 13.832 20.9919 13.742 20.9689C13.5704 20.9204 13.4146 20.8277 13.29 20.7002C13.1654 20.5726 13.0765 20.4146 13.032 20.2419C12.9969 20.0798 12.9969 19.9121 13.032 19.7499C13.122 19.4019 13.402 19.1249 13.754 19.0309C13.84 19.0079 13.887 19.0039 14.355 18.9959C14.738 18.9879 14.891 18.9799 14.961 18.9689C15.3515 18.8933 15.7112 18.7045 15.9954 18.4261C16.2795 18.1477 16.4755 17.7919 16.559 17.4029C16.582 17.2969 16.586 17.2499 16.594 16.3279C16.602 15.3399 16.609 15.2539 16.66 14.9569C16.742 14.4799 16.926 13.9879 17.176 13.5739C17.395 13.2139 17.531 13.0539 18.109 12.4729L18.579 11.9999L18.109 11.5269C17.531 10.9449 17.395 10.7849 17.176 10.4219C16.926 10.0119 16.738 9.51194 16.66 9.04694C16.605 8.72994 16.602 8.66395 16.594 7.66794C16.586 6.74994 16.582 6.70294 16.559 6.59794C16.5229 6.42823 16.4651 6.26388 16.387 6.10894C16.2675 5.86922 16.1011 5.65588 15.8978 5.48155C15.6944 5.30721 15.4582 5.17541 15.203 5.09394C14.965 5.01994 14.922 5.01194 14.363 5.00394C13.887 4.99594 13.84 4.99194 13.753 4.96894C13.5796 4.92285 13.4214 4.83168 13.2946 4.7047C13.1678 4.57772 13.0769 4.41944 13.031 4.24594C12.9959 4.08382 12.9959 3.91606 13.031 3.75394C13.133 3.36694 13.449 3.07794 13.836 3.01194C13.918 2.99594 14.738 2.99594 14.914 3.01194Z" fill="#202020"/>
</svg>
