<svg width="24" height="24" viewBox="0 0 24 24" fill="none" xmlns="http://www.w3.org/2000/svg">
<g clip-path="url(#clip0_2064_33921)">
<path d="M6.152 0.012C5.953 0.039 5.703 0.141 5.535 0.266C5.215 0.512 5.023 0.867 5.008 1.266C4.9928 1.39521 5.01721 1.52598 5.078 1.641C5.148 1.785 5.312 1.918 5.484 1.977C5.547 1.997 5.774 1.997 11.949 2C19.039 2.004 18.461 2.012 18.633 1.926C18.797 1.844 18.933 1.676 18.98 1.492C19.016 1.352 18.992 1.105 18.93 0.914C18.8501 0.675769 18.7047 0.464841 18.5105 0.305333C18.3164 0.145824 18.0812 0.0441724 17.832 0.012C17.715 -0.004 6.266 -0.004 6.152 0.012ZM4.25 4.004C3.988 4.024 3.734 4.117 3.54 4.266C3.437 4.34 3.29 4.496 3.227 4.594C3.094 4.793 3.02 5.016 3.004 5.254C2.99307 5.38174 3.01727 5.51003 3.074 5.625C3.12024 5.71811 3.18734 5.7993 3.27007 5.86226C3.3528 5.92522 3.44893 5.96825 3.551 5.988C3.605 5.996 6.023 6 12.047 5.996L20.469 5.992L20.547 5.965C20.6437 5.93223 20.7315 5.8774 20.8033 5.80485C20.8752 5.7323 20.9292 5.64402 20.961 5.547C21.051 5.301 20.973 4.902 20.781 4.605C20.5863 4.31099 20.2852 4.10383 19.941 4.027L19.836 4H12.066C7.79 4 4.273 4 4.25 4.004ZM3.629 8.016C3.266 8.046 2.832 8.156 2.48 8.296C1.86335 8.54877 1.31978 8.95186 0.898834 9.46852C0.477885 9.98519 0.192949 10.599 0.07 11.254C0.004 11.614 0.008 11.281 0.004 15.883C-2.32831e-10 20.262 -1.62981e-09 20.285 0.047 20.605C0.183124 21.5031 0.621624 22.3279 1.29002 22.943C1.95842 23.5581 2.8167 23.9268 3.723 23.988C3.848 23.996 6.293 24 12.117 23.996L20.34 23.992L20.516 23.969C21.25 23.859 21.848 23.617 22.406 23.195C23.2428 22.5662 23.7985 21.6333 23.953 20.598C24 20.273 24 20.25 23.996 15.883C23.992 11.281 23.996 11.613 23.93 11.253C23.7745 10.424 23.3603 9.66569 22.747 9.08681C22.1336 8.50793 21.3526 8.1383 20.516 8.031C20.395 8.011 19.852 8.011 12.066 8.008C7.434 8.008 3.691 8.012 3.629 8.016ZM11.246 13.027C11.296 13.043 11.395 13.082 11.461 13.117C11.571 13.168 11.598 13.187 11.703 13.293C11.8152 13.3977 11.8986 13.5297 11.945 13.676C12.039 13.953 12.008 14.266 11.863 14.508C11.7939 14.6231 11.7028 14.7234 11.5948 14.8032C11.4869 14.883 11.3643 14.9407 11.234 14.973C11.168 14.993 10.883 14.993 7.5 14.993C4.117 14.993 3.832 14.993 3.77 14.973C3.59042 14.9309 3.42597 14.84 3.29484 14.7103C3.16371 14.5806 3.07102 14.4171 3.027 14.238C3.00227 14.1109 2.99721 13.9807 3.012 13.852C3.078 13.414 3.426 13.07 3.863 13.008C3.898 13.004 5.543 13 7.543 13H11.153L11.246 13.027ZM17.707 13.059C17.82 13.102 17.918 13.199 17.969 13.32L17.996 13.387L18 14.497C18.008 15.539 18.008 15.605 18.027 15.66C18.082 15.812 18.207 15.93 18.347 15.973C18.422 15.996 18.457 15.996 19.48 15.996C20.66 15.996 20.633 15.996 20.762 16.078C20.8241 16.113 20.8755 16.1642 20.9105 16.2263C20.9456 16.2883 20.9631 16.3588 20.961 16.43C20.957 16.672 20.801 17.145 20.609 17.477C20.3871 17.8683 20.0805 18.2051 19.7116 18.4625C19.3427 18.72 18.9208 18.8917 18.477 18.965C18.173 18.9996 17.8662 19.0009 17.562 18.969C17.2318 18.9201 16.9123 18.8156 16.617 18.66C15.9219 18.2996 15.3959 17.681 15.152 16.937C15.0479 16.6359 14.9991 16.3185 15.008 16C15.008 15.68 15.02 15.55 15.094 15.262C15.2241 14.7553 15.4837 14.2912 15.8473 13.9152C16.2109 13.5391 16.666 13.2641 17.168 13.117C17.457 13.035 17.594 13.02 17.707 13.059ZM9.207 17.023C9.39618 17.0629 9.5697 17.1569 9.70641 17.2936C9.84312 17.4303 9.93713 17.6038 9.977 17.793C10 17.906 10 18.093 9.977 18.207C9.93713 18.3962 9.84312 18.5697 9.70641 18.7064C9.5697 18.8431 9.39618 18.9371 9.207 18.977C9.121 18.997 8.855 18.997 6.457 18.992L3.805 18.988L3.687 18.949C3.493 18.8846 3.32338 18.7624 3.20098 18.5987C3.07859 18.435 3.00929 18.2377 3.00243 18.0334C2.99556 17.8292 3.05146 17.6277 3.16259 17.4561C3.27373 17.2846 3.43476 17.1512 3.624 17.074C3.813 17 3.633 17.008 6.488 17.004C8.844 17.004 9.128 17.007 9.207 17.023Z" fill="#202020"/>
</g>
<defs>
<clipPath id="clip0_2064_33921">
<rect width="24" height="24" fill="white"/>
</clipPath>
</defs>
</svg>
