<svg width="24" height="24" viewBox="0 0 24 24" fill="none" xmlns="http://www.w3.org/2000/svg">
<path d="M3.781 1.004C3.15781 1.038 2.55126 1.21753 2.00997 1.52821C1.46868 1.83888 1.0077 2.27206 0.664 2.793C0.320366 3.30841 0.102208 3.89713 0.027 4.512C0.007 4.664 0.007 4.996 0.007 11.98C0.007 17.918 0.007 19.316 0.02 19.418C0.09 19.957 0.215 20.378 0.441 20.824C0.812 21.559 1.441 22.184 2.176 22.559C2.617 22.785 3.055 22.914 3.57 22.977C3.734 22.997 4.105 22.997 12 22.997C19.863 22.997 20.266 22.997 20.434 22.977C21.3148 22.8828 22.1386 22.4962 22.774 21.879C23.464 21.211 23.864 20.391 23.98 19.41C24 19.219 24 4.738 23.98 4.559C23.9067 3.92987 23.6875 3.32653 23.34 2.797C23.0018 2.282 22.5489 1.85236 22.0167 1.54179C21.4846 1.23122 20.8878 1.04817 20.273 1.007C20.16 1 17.433 0.998003 11.973 1C7.496 1 3.813 1 3.781 1.004ZM6.996 11.004H2.004V8.004H6.996V11.004ZM15 11.004H9V8.004H15V11.004ZM21.996 11.004H17.004V8.004H21.996V11.004ZM6.996 15.996H2.004V12.996H6.996V15.996ZM15 15.996H9V12.996H15V15.996ZM21.996 15.996H17.004V12.996H21.996V15.996ZM6.996 21H5.434C3.734 21 3.734 21 3.492 20.934C3.12535 20.8415 2.79397 20.6433 2.539 20.364C2.28453 20.0956 2.11119 19.7607 2.039 19.398C2.012 19.289 2.012 19.254 2.008 18.641L2.004 18H6.996V21ZM15 21H9V18H15V21ZM21.996 18.59C21.996 19.223 21.992 19.3 21.934 19.52C21.8429 19.8574 21.6651 20.165 21.4183 20.4124C21.1715 20.6598 20.8642 20.8382 20.527 20.93C20.262 21 20.285 21 18.57 21H17.004V18H21.996V18.59Z" fill="#202020"/>
</svg>
