<svg width="24" height="24" viewBox="0 0 24 24" fill="none" xmlns="http://www.w3.org/2000/svg">
<path d="M20.727 0.0120283C20.231 0.0585723 19.7544 0.227639 19.34 0.504028C18.82 0.848028 18.45 1.30903 18.21 1.89103L18.168 1.99603L16.878 2.00403C15.746 2.00803 15.574 2.01203 15.434 2.03103C15.188 2.06203 15.024 2.09403 14.797 2.14803C13.9196 2.36449 13.1182 2.81721 12.48 3.45703C11.7534 4.177 11.2654 5.10272 11.082 6.10903C11.008 6.52303 11.012 6.37903 11.008 8.79703L11.004 11.004L5.832 10.996L5.785 10.886C5.62648 10.4887 5.38484 10.1299 5.07629 9.83356C4.76775 9.53725 4.39942 9.31034 3.996 9.16803C3.32786 8.93663 2.59984 8.94618 1.938 9.19503C1.49804 9.36462 1.1024 9.63202 0.781 9.97703C0.371 10.441 0.125 10.953 0.031 11.559C-0.00409055 11.852 -0.00409055 12.1481 0.031 12.441C0.0923472 12.8525 0.238737 13.2466 0.460839 13.5984C0.682941 13.9501 0.975884 14.2518 1.321 14.484C1.69194 14.7356 2.1146 14.9007 2.55783 14.9673C3.00107 15.0338 3.45358 15.0001 3.88204 14.8685C4.3105 14.737 4.70398 14.5109 5.0335 14.2071C5.36301 13.9033 5.62016 13.5294 5.786 13.113L5.831 13H8.417L11.003 12.996L11.007 15.203C11.011 17.621 11.007 17.477 11.081 17.887C11.2978 19.0956 11.953 20.1817 12.921 20.937C13.159 21.125 13.495 21.336 13.757 21.469C14.171 21.676 14.706 21.852 15.147 21.926C15.53 21.988 15.487 21.988 16.874 21.996L18.167 22L18.214 22.113C18.444 22.691 18.824 23.153 19.347 23.503C19.7241 23.7501 20.1517 23.9097 20.5985 23.9701C21.0452 24.0305 21.4998 23.9901 21.929 23.852C22.929 23.532 23.694 22.692 23.925 21.668C23.975 21.43 23.991 21.281 23.991 21C23.991 20.719 23.976 20.57 23.925 20.332C23.698 19.332 22.964 18.508 21.995 18.168C21.3269 17.9366 20.5988 17.9462 19.937 18.195C19.497 18.3646 19.1014 18.632 18.78 18.977C18.5368 19.2451 18.3437 19.5547 18.21 19.891L18.167 19.996H16.967C15.69 19.996 15.694 19.996 15.405 19.938C14.808 19.8176 14.2618 19.5183 13.839 19.08C13.4162 18.6416 13.1368 18.085 13.038 17.484C12.999 17.25 12.995 17.059 12.995 15.027V12.997H18.163L18.175 13.023C18.183 13.035 18.214 13.113 18.245 13.188C18.526 13.859 19.085 14.43 19.757 14.73C20.44 15.04 21.217 15.082 21.929 14.852C22.929 14.532 23.694 13.692 23.925 12.668C23.975 12.43 23.991 12.281 23.991 12C23.991 11.719 23.976 11.57 23.925 11.332C23.698 10.332 22.964 9.50803 21.995 9.16803C21.3269 8.93663 20.5988 8.94618 19.937 9.19503C19.497 9.36462 19.1014 9.63202 18.78 9.97703C18.522 10.266 18.354 10.543 18.21 10.891L18.167 10.996L12.995 11.004V8.97303C12.995 6.94103 12.999 6.75003 13.038 6.51603C13.1334 5.93854 13.3951 5.40142 13.7912 4.9705C14.1874 4.53959 14.7006 4.23359 15.268 4.09003C15.624 4.00003 15.733 3.99603 17.054 3.99603H18.164L18.174 4.02303C18.183 4.03503 18.214 4.11303 18.245 4.18803C18.526 4.85903 19.085 5.43003 19.757 5.73003C20.44 6.04003 21.217 6.08203 21.929 5.85203C22.929 5.53203 23.694 4.69203 23.925 3.66803C23.975 3.43003 23.991 3.28103 23.991 3.00003C23.991 2.71903 23.976 2.57003 23.925 2.33203C23.698 1.33203 22.964 0.508028 21.995 0.168028C21.6936 0.0630675 21.3771 0.00768194 21.058 0.00402832C20.933 0.00402832 20.785 0.00402832 20.727 0.0120283Z" fill="#202020"/>
</svg>
