<svg width="24" height="24" viewBox="0 0 24 24" fill="none" xmlns="http://www.w3.org/2000/svg">
<path d="M11.45 0.00808133C10.467 0.0343115 9.48745 0.135943 8.52 0.312081C6.023 0.782081 4.137 1.71608 3.37 2.86408C3.18578 3.13741 3.06453 3.44821 3.015 3.77408C2.909 4.56408 3.351 5.36408 4.269 6.04808C6.237 7.51308 10.058 8.25808 13.827 7.91508C16.28 7.69208 18.437 7.01308 19.729 6.04808C20.386 5.56008 20.799 5.01308 20.94 4.45008C21.054 4.00508 20.999 3.57108 20.784 3.13408C20.229 2.01308 18.604 1.05208 16.319 0.494081C14.8828 0.156078 13.4113 -0.00842998 11.936 0.00408133C11.722 0.00408133 11.503 0.00408132 11.448 0.00908132L11.45 0.00808133ZM4.172 8.55508C3.972 8.57508 3.746 8.64808 3.559 8.76208C3.42994 8.84901 3.31408 8.95409 3.215 9.07408C3.145 9.16808 3.066 9.33208 3.031 9.45708L3.008 9.55508V10.8791C3.008 12.3361 3.004 12.2581 3.078 12.5191C3.453 13.8201 5.289 14.9691 7.934 15.5661C8.887 15.7811 9.812 15.9061 10.98 15.9761C11.32 15.9961 12.68 15.9961 13.02 15.9761C14.16 15.9061 15.074 15.7891 15.992 15.5861C17.051 15.3481 17.949 15.0431 18.738 14.6451C19.602 14.2111 20.234 13.7151 20.605 13.1721C20.793 12.8981 20.906 12.6321 20.969 12.3361L20.996 12.2031V9.55508L20.969 9.45708C20.9186 9.27371 20.8231 9.10592 20.691 8.96908C20.5023 8.77471 20.2603 8.64058 19.9955 8.58363C19.7307 8.52668 19.4549 8.54945 19.203 8.64908C19.156 8.66408 19.031 8.71908 18.922 8.76608C17.406 9.40208 15.453 9.82408 13.426 9.95308C12.52 10.0121 11.469 10.0121 10.582 9.95308C8.5 9.82008 6.602 9.40608 5.012 8.73408C4.90143 8.68745 4.78937 8.64443 4.676 8.60508C4.51261 8.55703 4.34165 8.54007 4.172 8.55508ZM4.129 16.5591C3.547 16.6411 3.105 17.0311 3.019 17.5391C2.992 17.6841 2.992 20.0391 3.016 20.2271C3.066 20.5821 3.215 20.9341 3.453 21.2541C4.141 22.1721 5.535 22.9411 7.403 23.4371C9.433 23.9771 11.898 24.1371 14.215 23.8751C15.328 23.7501 16.398 23.5271 17.32 23.2231C19.527 22.5001 20.855 21.3981 20.988 20.1881C20.996 20.1181 21 19.6281 21 18.8591C21 17.5231 21 17.5391 20.93 17.3391C20.8391 17.1145 20.6822 16.9227 20.48 16.7891C20.3844 16.7218 20.2792 16.6692 20.168 16.6331C20.0149 16.5748 19.8516 16.5482 19.688 16.5551C19.465 16.5551 19.363 16.5781 19.098 16.6911C17.965 17.1711 16.828 17.4961 15.492 17.7191C13.889 17.9796 12.2618 18.0594 10.641 17.9571C8.586 17.8321 6.641 17.4181 5.105 16.7731C5 16.7301 4.871 16.6801 4.82 16.6561C4.60166 16.5655 4.36383 16.5321 4.129 16.5591Z" fill="#202020"/>
</svg>
