<svg width="24" height="24" viewBox="0 0 24 24" fill="none" xmlns="http://www.w3.org/2000/svg">
<path d="M12.79 0.011946C12.348 0.061946 11.953 0.241946 11.629 0.542946C11.3274 0.830755 11.1214 1.20426 11.039 1.61295C11 1.79695 10.996 2.08595 11.023 2.27695C11.0789 2.69028 11.2632 3.07562 11.5499 3.37851C11.8367 3.6814 12.2113 3.88654 12.621 3.96495C12.738 3.98795 12.793 3.98795 13.004 3.98795C13.274 3.98795 13.41 3.96795 13.621 3.90195C13.77 3.85195 14.035 3.71895 14.161 3.62895C14.5276 3.3675 14.7952 2.98994 14.9204 2.55744C15.0456 2.12493 15.0212 1.66282 14.851 1.24595C14.7232 0.928506 14.5156 0.649471 14.2482 0.435895C13.9808 0.222319 13.6628 0.0814498 13.325 0.026946C13.1476 0.00446068 12.9684 -0.000563389 12.79 0.011946ZM8.41 1.00395C8.02 1.03895 7.703 1.17995 7.445 1.43395C7.30247 1.57368 7.18987 1.74096 7.11406 1.9256C7.03824 2.11024 7.0008 2.30837 7.004 2.50795C7.00386 2.86265 7.1306 3.2057 7.36131 3.47511C7.59203 3.74452 7.9115 3.92252 8.262 3.97695C8.406 4.00395 8.672 3.99695 8.812 3.96495C9.09507 3.90397 9.35467 3.76299 9.55995 3.55877C9.76523 3.35456 9.90755 3.09569 9.97 2.81295C9.997 2.67195 10.005 2.40595 9.981 2.26195C9.93678 1.98923 9.81815 1.73402 9.63818 1.52441C9.45821 1.31479 9.22388 1.15892 8.961 1.07395C8.7827 1.02081 8.59692 0.997169 8.411 1.00395H8.41ZM7.79 5.02295C7.562 5.06995 7.34 5.21495 7.195 5.40595C7.12182 5.51373 7.06644 5.63258 7.031 5.75795C6.99593 5.91602 6.99593 6.07987 7.031 6.23795C7.06312 6.35693 7.11337 6.47026 7.18 6.57395C7.285 6.71895 7.457 6.85495 7.617 6.92195C7.785 6.99195 7.828 6.99595 8.445 6.99595H9L8.996 8.59395C8.992 10.3519 8.996 10.2499 8.918 10.6439C8.81525 11.1413 8.61912 11.6147 8.34 12.0389C8.281 12.1329 7.574 13.0589 6.773 14.0979C3.359 18.5389 2.813 19.2539 2.746 19.3519C2.51003 19.7083 2.3516 20.1104 2.281 20.5319C2.246 20.7299 2.246 21.2029 2.277 21.4099C2.414 22.2699 2.879 23.0199 3.562 23.4839C3.722 23.5899 3.77 23.6169 3.93 23.6989C4.246 23.8549 4.605 23.9529 4.98 23.9889C5.086 23.9959 7.016 23.9999 12.094 23.9959C18.598 23.9919 19.07 23.9919 19.18 23.9729C19.863 23.8589 20.398 23.5929 20.86 23.1329C21.7 22.2929 21.977 21.0229 21.559 19.9379C21.4754 19.7337 21.3733 19.5376 21.254 19.3519C21.199 19.2769 20.598 18.4839 19.918 17.5979C19.234 16.7069 18.02 15.1329 17.223 14.0939C16.6947 13.4108 16.1724 12.7231 15.656 12.0309C15.287 11.466 15.0656 10.8176 15.012 10.1449C15.004 10.0549 15 9.39495 15 8.49595V6.99595H15.559C16.172 6.99595 16.215 6.99195 16.379 6.92195C16.672 6.80095 16.887 6.55095 16.969 6.23795C17.0041 6.07987 17.0041 5.91602 16.969 5.75795C16.9306 5.6064 16.8572 5.46596 16.7548 5.34787C16.6523 5.22979 16.5236 5.13734 16.379 5.07795C16.191 4.99595 16.543 5.00395 11.992 5.00395C8.379 5.00795 7.859 5.00795 7.789 5.02395L7.79 5.02295ZM12.996 8.43295C12.996 9.85894 13.004 10.1949 13.039 10.4999C13.133 11.3479 13.406 12.1679 13.836 12.8949C14 13.1679 14.176 13.4059 15.152 14.6799L16.16 15.9879L14.078 15.9919C12.6927 15.9959 11.3073 15.9959 9.922 15.9919L7.84 15.9879L8.848 14.6799C9.22816 14.1889 9.60318 13.6938 9.973 13.1949C10.5146 12.389 10.8548 11.4647 10.965 10.4999C10.996 10.1999 11.004 9.85195 11.004 8.42995V6.99595H12.996V8.43295ZM15.219 18.0119C15.664 18.0619 16.055 18.2419 16.371 18.5469C16.566 18.7299 16.68 18.8829 16.793 19.1089C17.109 19.7419 17.059 20.5189 16.664 21.1089C16.5185 21.3283 16.3312 21.5168 16.1127 21.6637C15.8943 21.8106 15.649 21.913 15.391 21.9649C15.277 21.9879 15.231 21.9879 15 21.9879C14.766 21.9879 14.723 21.9879 14.61 21.9609C14.3517 21.9106 14.106 21.8094 13.8873 21.6631C13.6686 21.5168 13.4812 21.3284 13.336 21.1089C13.1223 20.7867 13.006 20.4096 13.0013 20.0229C12.9965 19.6363 13.1033 19.2564 13.309 18.9289C13.4465 18.7212 13.6179 18.538 13.816 18.3869C14.215 18.0939 14.723 17.9569 15.219 18.0119Z" fill="#202020"/>
</svg>
