<svg width="24" height="24" viewBox="0 0 24 24" fill="none" xmlns="http://www.w3.org/2000/svg">
<g clip-path="url(#clip0_2064_34394)">
<path d="M8.45 0.00794274C7.46699 0.0341729 6.48745 0.135805 5.52 0.311943C3.023 0.781943 1.137 1.71594 0.37 2.86394C0.185782 3.13727 0.0645324 3.44808 0.015 3.77394C-0.091 4.56394 0.351 5.36394 1.269 6.04794C2.561 7.01294 4.718 7.69194 7.179 7.91494C7.589 7.95494 8.003 7.97794 8.339 7.98494C8.479 7.98894 8.671 7.99694 8.761 7.99694L8.925 8.00494L9.026 7.81394C9.64752 6.63076 10.5243 5.60056 11.593 4.79794C12.96 3.77094 14.538 3.17694 16.28 3.02794C16.53 3.00794 17.21 3.00094 17.534 3.01694L17.729 3.02394L17.679 2.93794C17.292 2.30594 16.519 1.70394 15.468 1.22394C14.32 0.694943 12.852 0.312943 11.273 0.128943C10.3358 0.0248754 9.39265 -0.0155506 8.45 0.00794274ZM16.582 5.01194C15.918 5.05894 15.332 5.17194 14.75 5.37194C13.3656 5.83738 12.1628 6.72673 11.312 7.91394C10.708 8.75331 10.2984 9.71661 10.113 10.7339C10.039 11.1639 10.003 11.5389 10.003 11.9999C9.99814 13.6807 10.6001 15.3067 11.6981 16.5791C12.7962 17.8515 14.3167 18.6848 15.98 18.9259C16.375 18.9799 16.508 18.9879 17 18.9879C17.488 18.9879 17.645 18.9799 18.023 18.9259C18.7525 18.819 19.4605 18.5976 20.121 18.2699C21.3704 17.6527 22.405 16.6735 23.09 15.4599C23.6829 14.4084 23.9956 13.2221 23.9982 12.0149C24.0009 10.8077 23.6933 9.62009 23.105 8.56594C22.6275 7.71418 21.9763 6.97225 21.1937 6.38826C20.4111 5.80427 19.5145 5.39124 18.562 5.17594C18.2534 5.10532 17.9403 5.05554 17.625 5.02694C17.2775 5.01215 16.9297 5.00715 16.582 5.01194ZM18.192 8.42994C18.238 8.44094 18.312 8.45994 18.359 8.47694C18.555 8.55094 18.512 8.51194 19.973 9.97294C20.4481 10.4418 20.9182 10.9158 21.383 11.3949C21.5173 11.5719 21.5886 11.7886 21.5857 12.0107C21.5828 12.2328 21.5059 12.4476 21.367 12.6209C21.328 12.6709 20.691 13.3089 19.957 14.0469C18.512 15.4839 18.555 15.4489 18.359 15.5199C18.2242 15.5715 18.0799 15.5933 17.936 15.5839C17.792 15.5745 17.6518 15.5341 17.5249 15.4654C17.398 15.3967 17.2875 15.3014 17.2008 15.1861C17.1142 15.0707 17.0535 14.9379 17.023 14.7969C17.008 14.7229 17.003 14.6089 17.003 14.1049V13.4999L12.828 13.4919L12.723 13.4609C12.5677 13.4148 12.4256 13.3322 12.3087 13.22C12.1918 13.1078 12.1035 12.9692 12.051 12.8159C12.004 12.6719 11.996 12.5939 12.004 11.9409C12.008 11.2769 12.008 11.2889 12.074 11.1169C12.172 10.8829 12.383 10.6719 12.617 10.5739C12.805 10.4999 12.613 10.5039 14.914 10.5039L17.004 10.4999V9.89494C17.004 9.22994 17.008 9.19094 17.078 9.02694C17.254 8.59694 17.731 8.34394 18.192 8.42994ZM1.172 8.55494C0.972 8.57494 0.746 8.64794 0.559 8.76194C0.429935 8.84887 0.314077 8.95395 0.215 9.07394C0.145 9.16794 0.066 9.33194 0.031 9.45694L0.008 9.55494V10.8789C0.008 12.3359 0.004 12.2579 0.078 12.5189C0.383 13.5859 1.672 14.5589 3.628 15.2029C5.074 15.6829 6.773 15.9569 8.551 15.9929L8.934 15.9999L8.894 15.9299C8.7954 15.7209 8.70435 15.5085 8.621 15.2929C8.3513 14.6114 8.16756 13.8989 8.074 13.1719C8.02 12.7339 8.012 12.5819 8.012 11.9999C8.012 11.5589 8.016 11.3979 8.032 11.2269C8.07 10.8199 8.117 10.4969 8.192 10.1449L8.222 9.98794L8.035 9.97994C5.82 9.88694 3.711 9.45294 2.012 8.73394C1.90143 8.68731 1.78937 8.64429 1.676 8.60494C1.51261 8.55689 1.34165 8.53993 1.172 8.55494ZM1.129 16.5589C0.547 16.6409 0.105 17.0309 0.019 17.5389C-0.008 17.6839 -0.008 20.0389 0.016 20.2269C0.066 20.5819 0.215 20.9339 0.453 21.2539C1.141 22.1719 2.535 22.9409 4.403 23.4369C6.273 23.9339 8.5 24.1089 10.672 23.9299C13.129 23.7269 15.297 23.0659 16.641 22.1129C17.09 21.7929 17.465 21.4099 17.691 21.0389L17.731 20.9769L17.535 20.9839C17.211 20.9999 16.531 20.9919 16.281 20.9729C14.3311 20.8227 12.4842 20.0377 11.023 18.7379C10.7907 18.5269 10.5669 18.3067 10.352 18.0779L10.25 17.9649L10.043 17.9769C9.438 18.0119 8.359 18.0039 7.641 17.9569C5.586 17.8319 3.641 17.4179 2.105 16.7729C2 16.7299 1.871 16.6799 1.82 16.6559C1.60166 16.5654 1.36383 16.532 1.129 16.5589Z" fill="#202020"/>
</g>
<defs>
<clipPath id="clip0_2064_34394">
<rect width="24" height="24" fill="white"/>
</clipPath>
</defs>
</svg>
