<svg width="24" height="24" viewBox="0 0 24 24" fill="none" xmlns="http://www.w3.org/2000/svg">
<path d="M9.39 0.0119062C9.16839 0.047241 8.96438 0.153986 8.809 0.315906C8.769 0.358906 8.434 0.847906 7.992 1.51191C7.426 2.35891 7.227 2.64791 7.172 2.70691C7.04586 2.82996 6.89129 2.91996 6.722 2.96891L6.641 2.99191L4.734 2.99991L2.832 3.00391L2.727 3.03891C2.387 3.14491 2.133 3.39891 2.035 3.73391C2.012 3.81291 2.012 3.85191 2.012 4.00791C2.012 4.17591 2.012 4.19891 2.043 4.28891C2.08779 4.43878 2.16806 4.57565 2.277 4.68791C2.41 4.82391 2.574 4.92191 2.766 4.97291L2.867 4.99591H21.137L21.234 4.97291C21.4175 4.92639 21.584 4.82858 21.714 4.69091C21.8283 4.58013 21.9121 4.44164 21.957 4.28891C21.988 4.19891 21.988 4.17591 21.988 4.00791C22.0034 3.8505 21.9695 3.6922 21.891 3.55491C21.831 3.43035 21.7452 3.31995 21.6394 3.231C21.5335 3.14205 21.41 3.07657 21.277 3.03891L21.172 3.00391L19.266 2.99991L17.363 2.99191L17.277 2.96891C17.1736 2.93674 17.075 2.89065 16.984 2.83191C16.816 2.72191 16.801 2.69891 16.008 1.51191C15.7441 1.1073 15.4714 0.708538 15.19 0.315906C15.0662 0.183143 14.908 0.0872665 14.733 0.0389063L14.632 0.00390625H12.042C10.616 0.00390625 9.425 0.00790625 9.39 0.0119062ZM5.227 7.00791C4.78626 7.04497 4.36996 7.22602 4.04232 7.52313C3.71467 7.82023 3.49388 8.21689 3.414 8.65191C3.38918 8.83851 3.38382 9.02719 3.398 9.21491C3.426 9.42191 5.438 20.8129 5.473 20.9529C5.621 21.5509 5.903 22.1049 6.309 22.5859C6.414 22.7149 6.695 22.9919 6.82 23.0939C7.41333 23.5762 8.13093 23.8809 8.89 23.9729C9.043 23.9929 9.21 23.9929 11.996 23.9929C15.106 23.9929 14.992 23.9959 15.324 23.9409C15.8589 23.8475 16.3693 23.6467 16.8246 23.3508C17.2798 23.0548 17.6705 22.6698 17.973 22.2189C18.243 21.8119 18.441 21.3479 18.543 20.8829C18.582 20.7109 20.586 9.35891 20.602 9.21091C20.629 8.98391 20.602 8.66091 20.532 8.42991C20.324 7.72991 19.73 7.18791 19.02 7.04291C18.9307 7.02638 18.8406 7.0147 18.75 7.00791C18.57 6.99591 5.406 6.99591 5.227 7.00791ZM16.16 12.0119C16.547 12.0739 16.867 12.3669 16.969 12.7539C17.004 12.8869 17.004 13.1139 16.969 13.2459C16.9231 13.4206 16.8315 13.58 16.7038 13.7077C16.5761 13.8354 16.4167 13.927 16.242 13.9729L16.145 13.9959H7.859L7.758 13.9729C7.58362 13.9263 7.42461 13.8346 7.29698 13.7069C7.16935 13.5793 7.07761 13.4203 7.031 13.2459C6.99588 13.0838 6.99588 12.916 7.031 12.7539C7.07902 12.5703 7.17779 12.404 7.316 12.2739C7.457 12.1409 7.648 12.0429 7.828 12.0119C7.922 11.9959 16.063 11.9959 16.16 12.0119ZM14.309 17.0469C14.4366 17.0883 14.5544 17.1554 14.6552 17.2439C14.7559 17.3325 14.8375 17.4407 14.895 17.5619C14.9643 17.6973 15.0005 17.8473 15.0005 17.9994C15.0005 18.1515 14.9643 18.3015 14.895 18.4369C14.8377 18.5583 14.7561 18.6667 14.6553 18.7555C14.5545 18.8442 14.4367 18.9114 14.309 18.9529L14.199 18.9879H9.805L9.688 18.9489C9.494 18.8846 9.32438 18.7623 9.20198 18.5986C9.07959 18.4349 9.01029 18.2376 9.00343 18.0333C8.99656 17.8291 9.05246 17.6276 9.16359 17.456C9.27473 17.2845 9.43576 17.1511 9.625 17.0739C9.813 16.9999 9.668 17.0039 12.031 17.0079H14.2L14.309 17.0469Z" fill="#202020"/>
</svg>
