<svg width="24" height="24" viewBox="0 0 24 24" fill="none" xmlns="http://www.w3.org/2000/svg">
<path d="M4.746 0.00797798C3.781 0.077978 2.902 0.467978 2.215 1.13298C1.531 1.79298 1.125 2.64098 1.015 3.62098C0.996 3.82098 0.996 20.18 1.015 20.379C1.109 21.199 1.395 21.895 1.902 22.527C2.027 22.684 2.328 22.984 2.492 23.113C3.098 23.598 3.812 23.891 4.59 23.98C4.797 24 19.203 24 19.414 23.98C20.3051 23.8864 21.1388 23.4958 21.781 22.871C22.3794 22.2923 22.7824 21.5415 22.934 20.723C23 20.367 22.996 20.613 23 16.668C23.004 14.172 23 12.984 22.992 12.844C22.9776 12.5182 22.909 12.1972 22.789 11.894C22.6354 11.5149 22.4084 11.17 22.121 10.879C21.6423 10.4046 21.0198 10.1021 20.351 10.019C20.27 10.008 19.648 9.99998 17.953 9.99598C15.664 9.98798 15.664 9.98798 15.52 9.96498C15.0444 9.88539 14.595 9.69227 14.21 9.40198C13.8235 9.11945 13.5138 8.74475 13.309 8.31198C13.1699 8.03578 13.0747 7.73954 13.027 7.43398L13.004 7.26998L12.996 4.96898C12.988 2.47698 12.992 2.64498 12.926 2.33898C12.7832 1.7159 12.4468 1.15405 11.965 0.733978C11.4837 0.321079 10.8856 0.0686776 10.254 0.011978C10.133 -2.20248e-05 4.894 -0.00402203 4.746 0.00797798Z" fill="currentColor"/>
<path d="M15.91 0.417978C15.8142 0.431605 15.72 0.455062 15.629 0.487978C15.5038 0.538956 15.3899 0.614254 15.2939 0.709517C15.198 0.804779 15.1219 0.918117 15.07 1.04298C14.996 1.23398 15 1.10498 15 3.71898C15 5.23398 15.004 6.13698 15.012 6.20298C15.09 6.89498 15.504 7.49298 16.117 7.79298C16.363 7.91398 16.59 7.97298 16.883 7.99298C17 7.99998 17.832 8.00298 19.395 7.99998C21.575 7.99598 21.738 7.99598 21.809 7.97698C22.035 7.92683 22.2356 7.79777 22.375 7.61298C22.5247 7.42401 22.5973 7.18531 22.578 6.94498C22.5759 6.73363 22.4982 6.53002 22.359 6.37098C22.246 6.22698 16.645 0.640978 16.562 0.585978C16.4667 0.522001 16.3612 0.474663 16.25 0.445978C16.1386 0.420083 16.0241 0.410649 15.91 0.417978Z" fill="currentColor"/>
</svg>
