<svg width="24" height="24" viewBox="0 0 24 24" fill="none" xmlns="http://www.w3.org/2000/svg">
<path d="M10.781 0.0119643C10.4792 0.050344 10.1891 0.152617 9.93 0.311964C9.754 0.421964 9.531 0.624964 9.406 0.788964C9.18844 1.08454 9.05255 1.4322 9.012 1.79696C9.004 1.87496 9 3.46896 9 6.95296V12H7.766C6.973 12 6.496 12.004 6.434 12.012C5.793 12.094 5.293 12.559 5.148 13.207C5.12086 13.3827 5.11716 13.5613 5.137 13.738C5.176 13.968 5.273 14.199 5.41 14.378C5.504 14.508 10.691 19.691 10.812 19.778C11.004 19.922 11.262 20.043 11.488 20.102C11.863 20.199 12.266 20.187 12.625 20.07C12.8553 19.9936 13.0698 19.8761 13.258 19.723C13.402 19.605 18.555 14.441 18.613 14.355C18.7849 14.1073 18.8776 13.8134 18.879 13.512C18.879 12.872 18.465 12.277 17.875 12.082C17.633 12.004 17.73 12.008 16.297 12.004L15 12V6.95296C15 3.46096 14.996 1.87496 14.988 1.79696C14.9612 1.54928 14.8901 1.30844 14.778 1.08596C14.6888 0.913464 14.5742 0.755362 14.438 0.616964C14.1118 0.27422 13.6737 0.0595984 13.203 0.0119643C12.3957 -0.00366257 11.5883 -0.00366257 10.781 0.0119643ZM4.887 22.008C4.68323 22.0309 4.49143 22.1159 4.3376 22.2515C4.18377 22.3871 4.07534 22.5667 4.027 22.766C3.9984 22.9128 3.99704 23.0636 4.023 23.211C4.109 23.617 4.449 23.93 4.859 23.988C4.926 23.996 6.965 24 12.059 23.996C18.953 23.992 19.168 23.992 19.242 23.973C19.703 23.84 19.996 23.461 19.996 22.996C19.996 22.536 19.696 22.152 19.238 22.027L19.145 22H12.055C8.152 22 4.93 22.004 4.887 22.008Z" fill="#202020"/>
</svg>
