<svg width="24" height="24" viewBox="0 0 24 24" fill="none" xmlns="http://www.w3.org/2000/svg">
<path d="M7.723 0.0120427C7.26132 0.055602 6.81593 0.205138 6.42151 0.449007C6.02709 0.692876 5.69428 1.0245 5.449 1.41804C5.28635 1.68921 5.16406 1.98262 5.086 2.28904C5.0272 2.52124 5.00227 2.76071 5.012 3.00004C5.012 3.23004 5.016 3.32804 5.032 3.43404C5.09207 3.8481 5.23848 4.24491 5.46174 4.59876C5.685 4.9526 5.98013 5.25558 6.328 5.48804C6.715 5.75004 7.105 5.89804 7.594 5.97304C7.777 6.00004 8.223 6.00004 8.406 5.97304C8.71627 5.9288 9.01803 5.83777 9.301 5.70304C9.609 5.55104 9.836 5.39504 10.082 5.15604C10.445 4.80504 10.703 4.39504 10.855 3.91804C11.0167 3.40873 11.0409 2.8657 10.925 2.34404C10.7938 1.7536 10.4867 1.21682 10.0441 0.804578C9.60147 0.392336 9.04426 0.124015 8.446 0.0350427C8.20648 0.00615367 7.96387 -0.00154285 7.723 0.0120427ZM15.723 0.0120427C15.1547 0.0679299 14.6133 0.281645 14.16 0.629043C14.02 0.739043 13.8 0.953043 13.68 1.09804C13.39 1.44904 13.172 1.89804 13.074 2.34404C12.98 2.77004 12.98 3.23404 13.074 3.65604C13.1938 4.20805 13.4722 4.71305 13.875 5.10904C13.9559 5.19266 14.0406 5.27241 14.129 5.34804C14.6287 5.74339 15.241 5.96995 15.8777 5.99511C16.5144 6.02027 17.1426 5.84272 17.672 5.48804C18.109 5.20024 18.4598 4.79936 18.687 4.32804C18.895 3.91004 18.997 3.47304 18.997 3.00004C18.999 2.50603 18.8781 2.01927 18.6452 1.58358C18.4123 1.14788 18.0748 0.77691 17.663 0.504043C17.2874 0.25325 16.8602 0.0902209 16.413 0.0270427C16.1834 0.00458801 15.9534 -0.000426363 15.723 0.0120427ZM7.723 9.01204C7.26132 9.0556 6.81593 9.20514 6.42151 9.44901C6.02709 9.69288 5.69428 10.0245 5.449 10.418C5.28635 10.6892 5.16406 10.9826 5.086 11.289C5.0272 11.5212 5.00227 11.7607 5.012 12C5.012 12.23 5.016 12.328 5.032 12.434C5.09207 12.8481 5.23848 13.2449 5.46174 13.5988C5.685 13.9526 5.98013 14.2556 6.328 14.488C6.715 14.75 7.105 14.898 7.594 14.973C7.777 15 8.223 15 8.406 14.973C8.71627 14.9288 9.01803 14.8378 9.301 14.703C9.609 14.551 9.836 14.395 10.082 14.156C10.445 13.805 10.703 13.395 10.855 12.918C11.0167 12.4087 11.0409 11.8657 10.925 11.344C10.7938 10.7535 10.4864 10.2166 10.0437 9.80432C9.60087 9.39207 9.04344 9.12383 8.445 9.03504C8.20548 9.00615 7.96387 8.99846 7.723 9.01204ZM15.723 9.01204C15.1547 9.06793 14.6133 9.28164 14.16 9.62904C14.02 9.73904 13.8 9.95304 13.68 10.098C13.39 10.449 13.172 10.898 13.074 11.344C12.98 11.77 12.98 12.234 13.074 12.656C13.1938 13.208 13.4722 13.7131 13.875 14.109C13.9559 14.1927 14.0406 14.2724 14.129 14.348C14.6287 14.7434 15.241 14.9699 15.8777 14.9951C16.5144 15.0203 17.1426 14.8427 17.672 14.488C18.109 14.2002 18.4598 13.7994 18.687 13.328C18.895 12.91 18.997 12.473 18.997 12C18.9991 11.5061 18.8783 11.0194 18.6457 10.5837C18.413 10.148 18.0756 9.77703 17.664 9.50404C17.2884 9.25325 16.8612 9.09022 16.414 9.02704C16.1844 9.00459 15.9534 8.99957 15.723 9.01204ZM7.723 18.012C7.26132 18.0556 6.81593 18.2051 6.42151 18.449C6.02709 18.6929 5.69428 19.0245 5.449 19.418C5.28635 19.6892 5.16406 19.9826 5.086 20.289C5.0272 20.5212 5.00227 20.7607 5.012 21C5.012 21.23 5.016 21.328 5.032 21.434C5.09207 21.8481 5.23848 22.2449 5.46174 22.5988C5.685 22.9526 5.98013 23.2556 6.328 23.488C6.715 23.75 7.105 23.898 7.594 23.973C7.777 24 8.223 24 8.406 23.973C8.71627 23.9288 9.01803 23.8378 9.301 23.703C9.609 23.551 9.836 23.395 10.082 23.156C10.445 22.805 10.703 22.395 10.855 21.918C11.0167 21.4087 11.0409 20.8657 10.925 20.344C10.7938 19.7535 10.4864 19.2166 10.0437 18.8043C9.60087 18.3921 9.04344 18.1238 8.445 18.035C8.20548 18.0062 7.96387 17.9985 7.723 18.012ZM15.723 18.012C15.1547 18.0679 14.6133 18.2816 14.16 18.629C14.02 18.739 13.8 18.953 13.68 19.098C13.39 19.449 13.172 19.898 13.074 20.344C12.98 20.77 12.98 21.234 13.074 21.656C13.1938 22.208 13.4722 22.7131 13.875 23.109C13.9559 23.1927 14.0406 23.2724 14.129 23.348C14.6283 23.7443 15.2407 23.9714 15.8776 23.9965C16.5146 24.0217 17.143 23.8436 17.672 23.488C18.109 23.2002 18.4598 22.7994 18.687 22.328C18.895 21.91 18.997 21.473 18.997 21C18.9991 20.5061 18.8783 20.0194 18.6457 19.5837C18.413 19.148 18.0756 18.777 17.664 18.504C17.2884 18.2533 16.8612 18.0902 16.414 18.027C16.1844 18.0046 15.9534 17.9996 15.723 18.012Z" fill="#202020"/>
</svg>
