<svg width="24" height="24" viewBox="0 0 24 24" fill="none" xmlns="http://www.w3.org/2000/svg">
<path d="M11.797 0.5231C11.6761 0.549283 11.5609 0.597047 11.457 0.6641C11.391 0.7071 11.141 0.9491 10.309 1.7771C9.93258 2.14973 9.56121 2.52743 9.195 2.9101C9.07828 3.07031 9.01154 3.26145 9.00318 3.45949C8.99482 3.65753 9.0452 3.85362 9.148 4.0231C9.207 4.1171 9.348 4.2661 9.445 4.3281C9.785 4.5551 10.223 4.5511 10.57 4.3201C10.602 4.3001 10.934 3.9771 11.312 3.5981L12 2.9101L12.688 3.5981C13.066 3.9771 13.402 4.3011 13.43 4.3201C13.6256 4.45684 13.8639 4.51865 14.1013 4.49423C14.3387 4.46981 14.5593 4.3608 14.723 4.1871C15.055 3.8361 15.09 3.3091 14.809 2.9101C14.777 2.8751 14.273 2.3601 13.684 1.7731C12.539 0.6331 12.55 0.6411 12.364 0.5701C12.183 0.502243 11.9867 0.485972 11.797 0.5231ZM7.79 8.0231C7.562 8.0701 7.34 8.2151 7.195 8.4061C7.12181 8.51388 7.06644 8.63273 7.031 8.7581C6.99593 8.91618 6.99593 9.08002 7.031 9.2381C7.06312 9.35709 7.11337 9.47042 7.18 9.5741C7.285 9.7191 7.457 9.8551 7.617 9.9221C7.809 10.0001 7.457 9.9961 12 9.9961C16.543 9.9961 16.191 10.0001 16.379 9.9221C16.672 9.8011 16.887 9.5511 16.969 9.2381C17.0041 9.08002 17.0041 8.91618 16.969 8.7581C16.9306 8.60655 16.8572 8.46611 16.7548 8.34803C16.6523 8.22994 16.5236 8.1375 16.379 8.0781C16.191 7.9961 16.543 8.0041 11.992 8.0041C8.379 8.0081 7.859 8.0081 7.789 8.0241L7.79 8.0231ZM7.79 11.0231C7.562 11.0701 7.34 11.2151 7.195 11.4061C7.12181 11.5139 7.06644 11.6327 7.031 11.7581C6.99593 11.9162 6.99593 12.08 7.031 12.2381C7.06312 12.3571 7.11337 12.4704 7.18 12.5741C7.285 12.7191 7.457 12.8551 7.617 12.9221C7.809 13.0001 7.457 12.9961 12 12.9961C16.543 12.9961 16.191 13.0001 16.379 12.9221C16.672 12.8011 16.887 12.5511 16.969 12.2381C17.0041 12.08 17.0041 11.9162 16.969 11.7581C16.9306 11.6066 16.8572 11.4661 16.7548 11.348C16.6523 11.2299 16.5236 11.1375 16.379 11.0781C16.191 10.9961 16.543 11.0041 11.992 11.0041C8.379 11.0081 7.859 11.0081 7.789 11.0241L7.79 11.0231ZM7.79 14.0231C7.562 14.0701 7.34 14.2151 7.195 14.4061C7.12181 14.5139 7.06644 14.6327 7.031 14.7581C6.99593 14.9162 6.99593 15.08 7.031 15.2381C7.06312 15.3571 7.11337 15.4704 7.18 15.5741C7.285 15.7191 7.457 15.8551 7.617 15.9221C7.809 16.0001 7.457 15.9961 12 15.9961C16.543 15.9961 16.191 16.0001 16.379 15.9221C16.672 15.8011 16.887 15.5511 16.969 15.2381C17.0041 15.08 17.0041 14.9162 16.969 14.7581C16.9306 14.6066 16.8572 14.4661 16.7548 14.348C16.6523 14.2299 16.5236 14.1375 16.379 14.0781C16.191 13.9961 16.543 14.0041 11.992 14.0041C8.379 14.0081 7.859 14.0081 7.789 14.0241L7.79 14.0231ZM9.875 19.5081C9.805 19.5161 9.66 19.5581 9.594 19.5861C9.41337 19.6742 9.25944 19.8088 9.148 19.9761C9.04508 20.145 8.9946 20.3406 9.00297 20.5382C9.01133 20.7358 9.07817 20.9265 9.195 21.0861C9.223 21.1251 9.723 21.6361 10.309 22.2231C11.141 23.0511 11.391 23.2931 11.457 23.3361C11.6159 23.4392 11.8008 23.4951 11.9903 23.4973C12.1797 23.4994 12.3658 23.4477 12.527 23.3481C12.602 23.3011 12.785 23.1251 13.684 22.2271C14.274 21.6371 14.777 21.1251 14.809 21.0861C14.9279 20.9214 14.9938 20.7243 14.9979 20.5212C15.002 20.3181 14.9441 20.1185 14.832 19.9491C14.7482 19.8311 14.6434 19.7294 14.523 19.6491C14.3569 19.5495 14.1658 19.4994 13.9721 19.5047C13.7785 19.51 13.5904 19.5705 13.43 19.6791C13.402 19.6991 13.066 20.0231 12.688 20.4021L12 21.0861L11.312 20.4021C10.934 20.0231 10.602 19.6991 10.57 19.6801C10.3666 19.5409 10.1198 19.4798 9.875 19.5081Z" fill="#202020"/>
</svg>
