<svg width="24" height="24" viewBox="0 0 24 24" fill="none" xmlns="http://www.w3.org/2000/svg">
<path d="M18.285 3.34012C18.0495 3.36781 17.8208 3.43652 17.609 3.54312C17.324 3.68312 17.324 3.68312 16.109 4.89512L15 6.00412L14.703 5.71112C14.379 5.39112 14.289 5.31612 14.066 5.20312C13.8344 5.08287 13.5811 5.00989 13.3211 4.98843C13.061 4.96698 12.7992 4.99746 12.551 5.07812C12.375 5.13312 12.285 5.17612 11.766 5.46512C11.226 5.76212 11.102 5.84012 10.961 5.96912C10.6224 6.27076 10.3965 6.67869 10.3205 7.1258C10.2445 7.5729 10.323 8.03255 10.543 8.42912C10.683 8.68412 10.637 8.63312 12.949 10.9491C13.7076 11.7142 14.472 12.4735 15.242 13.2271C15.442 13.3981 15.668 13.5271 15.902 13.6051C16.3157 13.7441 16.7636 13.7437 17.1771 13.6041C17.5907 13.4646 17.9471 13.1934 18.192 12.8321C18.305 12.6641 18.812 11.7381 18.867 11.6051C18.977 11.3321 19.012 11.1411 19.012 10.8441C19.012 10.5241 18.957 10.2701 18.824 9.99612C18.695 9.72312 18.629 9.64112 18.277 9.28612L17.997 9.00012L19.105 7.89012C20.316 6.67612 20.316 6.67612 20.457 6.39012C20.6012 6.10205 20.6737 5.78342 20.6683 5.46132C20.6629 5.13922 20.5798 4.82319 20.426 4.54012C20.3112 4.34024 20.1677 4.1583 20 4.00012C19.777 3.78112 19.656 3.68412 19.46 3.57412C19.2601 3.46655 19.0439 3.39257 18.82 3.35512C18.6426 3.33274 18.4634 3.32772 18.285 3.34012ZM9.816 11.4341C9.75638 11.4459 9.69785 11.4626 9.641 11.4841C9.437 11.5631 9.605 11.4021 6.731 14.2771C4.664 16.3441 4.039 16.9731 3.992 17.0391C3.906 17.1721 2.316 20.3521 2.277 20.4801C2.247 20.5741 2.247 20.5981 2.247 20.7661C2.247 20.9611 2.254 21.0121 2.317 21.1561C2.437 21.4301 2.668 21.6361 2.965 21.7301C3.043 21.7541 3.078 21.7541 3.235 21.7541C3.402 21.7541 3.425 21.7541 3.52 21.7231C3.637 21.6831 6.844 20.0861 6.969 20.0031C7.012 19.9731 7.98 19.0161 9.715 17.2771C12.613 14.3791 12.438 14.5591 12.52 14.3551C12.633 14.0621 12.59 13.7031 12.406 13.4301C12.359 13.3551 10.676 11.6681 10.59 11.6051C10.36 11.4451 10.09 11.3831 9.816 11.4341Z" fill="#202020"/>
</svg>
