<svg width="24" height="24" viewBox="0 0 24 24" fill="none" xmlns="http://www.w3.org/2000/svg">
<path d="M4.848 6.01206C4.707 6.03506 4.551 6.09806 4.43 6.18006C4.355 6.22706 0.254 10.3241 0.195 10.4101C0.0782803 10.5703 0.0115417 10.7614 0.00317885 10.9595C-0.00518403 11.1575 0.0452023 11.3536 0.148 11.5231C0.207 11.6171 0.348 11.7661 0.445 11.8281C0.615237 11.9419 0.81634 12.0008 1.02112 11.9967C1.2259 11.9926 1.42447 11.9257 1.59 11.8051C1.676 11.7461 5.773 7.64506 5.82 7.57006C5.902 7.44506 5.965 7.29006 5.988 7.14806C6.02129 6.9039 5.96594 6.6559 5.832 6.44906C5.74815 6.33105 5.64343 6.22938 5.523 6.14906C5.32015 6.0279 5.08203 5.97957 4.848 6.01206ZM10.848 6.01206C10.6988 6.03957 10.5567 6.09669 10.43 6.18006C10.355 6.22706 0.258 16.3241 0.195 16.4101C0.0782803 16.5703 0.0115417 16.7614 0.00317885 16.9595C-0.00518403 17.1575 0.0452023 17.3536 0.148 17.5231C0.207 17.6171 0.348 17.7661 0.445 17.8281C0.785 18.0551 1.223 18.0551 1.57 17.8201C1.645 17.7731 11.742 7.67606 11.809 7.58606C11.9279 7.42131 11.9938 7.22426 11.9979 7.02115C12.002 6.81803 11.9441 6.61848 11.832 6.44906C11.7482 6.33105 11.6434 6.22938 11.523 6.14906C11.3202 6.0279 11.082 5.97957 10.848 6.01206ZM16.848 6.01206C16.6988 6.03957 16.5567 6.09669 16.43 6.18006C16.355 6.22706 6.258 16.3241 6.195 16.4101C6.07828 16.5703 6.01154 16.7614 6.00318 16.9595C5.99482 17.1575 6.0452 17.3536 6.148 17.5231C6.207 17.6171 6.348 17.7661 6.445 17.8281C6.785 18.0551 7.223 18.0551 7.57 17.8201C7.645 17.7731 17.742 7.67606 17.809 7.58606C17.9279 7.42131 17.9938 7.22426 17.9979 7.02115C18.002 6.81803 17.9441 6.61848 17.832 6.44906C17.7482 6.33105 17.6434 6.22938 17.523 6.14906C17.3202 6.0279 17.082 5.97957 16.848 6.01206ZM22.848 6.01206C22.6988 6.03957 22.5567 6.09669 22.43 6.18006C22.355 6.22706 12.258 16.3241 12.195 16.4101C12.0783 16.5703 12.0115 16.7614 12.0032 16.9595C11.9948 17.1575 12.0452 17.3536 12.148 17.5231C12.207 17.6171 12.348 17.7661 12.445 17.8281C12.785 18.0551 13.223 18.0551 13.57 17.8201C13.645 17.7731 23.742 7.67606 23.809 7.58606C23.9279 7.42131 23.9938 7.22426 23.9979 7.02115C24.002 6.81803 23.9441 6.61848 23.832 6.44906C23.7482 6.33105 23.6434 6.22938 23.523 6.14906C23.3202 6.0279 23.082 5.97957 22.848 6.01206ZM22.848 12.0121C22.707 12.0351 22.551 12.0981 22.43 12.1801C22.355 12.2271 18.254 16.3241 18.195 16.4101C18.0783 16.5703 18.0115 16.7614 18.0032 16.9595C17.9948 17.1575 18.0452 17.3536 18.148 17.5231C18.207 17.6171 18.348 17.7661 18.445 17.8281C18.6152 17.9419 18.8163 18.0008 19.0211 17.9967C19.2259 17.9926 19.4245 17.9257 19.59 17.8051C19.676 17.7461 23.773 13.6451 23.82 13.5701C23.902 13.4451 23.965 13.2901 23.988 13.1481C24.0213 12.9039 23.9659 12.6559 23.832 12.4491C23.7482 12.3311 23.6434 12.2294 23.523 12.1491C23.3202 12.0279 23.082 11.9796 22.848 12.0121Z" fill="currentColor"/>
</svg>
