<svg width="24" height="24" viewBox="0 0 24 24" fill="none" xmlns="http://www.w3.org/2000/svg">
<path d="M4.895 0.00790625C4.46842 0.0406398 4.05361 0.163339 3.67787 0.367929C3.30213 0.572519 2.97397 0.854361 2.715 1.19491C2.645 1.28491 0.665 4.44091 0.609 4.54691C0.602 4.56291 0.559 4.61291 0.519 4.65991C0.397986 4.79183 0.296917 4.94074 0.219 5.10191C0.098 5.33991 0.039 5.55091 0.012 5.80491C0.004 5.89791 -2.32831e-10 7.92991 0.004 13.1369L0.008 20.3359L0.031 20.5159C0.125 21.1679 0.324 21.6879 0.676 22.2189C0.914 22.5789 1.246 22.9289 1.602 23.1949C2.215 23.6599 2.942 23.9299 3.727 23.9879C3.847 23.9959 6.344 23.9999 12.117 23.9959C19.855 23.9919 20.347 23.9919 20.48 23.9729C20.797 23.9259 20.988 23.8829 21.242 23.8009C21.6962 23.6504 22.1206 23.4217 22.496 23.1249C22.66 22.9919 22.996 22.6559 23.125 22.4919C23.59 21.9059 23.859 21.2699 23.973 20.4769C23.993 20.3469 23.993 19.9019 23.996 13.1409C24 8.14491 23.996 5.90591 23.988 5.81591C23.9495 5.38542 23.7711 4.97939 23.48 4.65991C23.0172 4.02189 22.5472 3.38918 22.07 2.76191C20.867 1.15991 20.777 1.03891 20.633 0.894906C20.4886 0.744209 20.3276 0.610356 20.153 0.495906C19.7861 0.256867 19.3727 0.0983788 18.94 0.0309062L18.792 0.00790625L11.866 0.00390625C8.054 0.00390625 4.918 0.00390625 4.895 0.00790625ZM18.703 2.01991C18.875 2.05891 19.047 2.14791 19.183 2.26991C19.223 2.29991 19.488 2.64791 19.859 3.14491C20.199 3.59791 20.48 3.97291 20.489 3.97991C20.496 3.99191 18.777 3.99591 11.902 3.99591H3.305L3.805 3.19591C4.348 2.32791 4.379 2.28591 4.555 2.16791C4.652 2.10191 4.781 2.04691 4.895 2.02291C4.965 2.00791 5.785 2.00791 11.797 2.00291C17.836 2.00291 18.629 2.00791 18.703 2.01991ZM21.996 13.0859C21.996 19.3399 21.992 20.1869 21.98 20.2889C21.93 20.6129 21.816 20.8989 21.621 21.1679C21.4902 21.3368 21.3391 21.489 21.171 21.6209C20.891 21.8209 20.574 21.9449 20.25 21.9839C20.168 21.9919 18.047 21.9959 11.93 21.9919L3.723 21.9879L3.605 21.9649C3.3347 21.9029 3.0781 21.7917 2.848 21.6369C2.66551 21.4975 2.50241 21.3344 2.363 21.1519C2.2087 20.9215 2.09756 20.665 2.035 20.3949L2.012 20.2769L2.004 5.99991H21.996V13.0859Z" fill="#202020"/>
<path d="M6.816 9.01991C6.66755 9.04831 6.52749 9.11002 6.40635 9.2004C6.28521 9.29077 6.18616 9.40746 6.11665 9.54166C6.04714 9.67587 6.00898 9.82409 6.00506 9.97518C6.00114 10.1263 6.03155 10.2763 6.094 10.4139C6.199 10.6409 6.364 10.8039 6.578 10.9019C6.67855 10.9505 6.78687 10.9809 6.898 10.9919C7.039 11.0079 16.957 11.0079 17.098 10.9919C17.2107 10.9825 17.3206 10.952 17.422 10.9019C17.6376 10.8039 17.8098 10.6303 17.906 10.4139C17.9601 10.3013 17.9908 10.1788 17.996 10.0539C18.027 9.55391 17.668 9.10491 17.176 9.01591C17.082 9.00391 16.484 8.99991 11.988 8.99991C7.633 9.00391 6.895 9.00391 6.816 9.01991ZM6.879 13.0079C6.70947 13.0285 6.54813 13.0926 6.4106 13.1938C6.27308 13.2951 6.16402 13.4301 6.094 13.5859C6.03834 13.7084 6.00795 13.8409 6.00464 13.9754C6.00134 14.1099 6.02518 14.2437 6.07474 14.3687C6.12431 14.4938 6.19859 14.6076 6.29313 14.7034C6.38767 14.7991 6.50054 14.8748 6.625 14.9259C6.825 15.0039 6.387 14.9999 12 14.9999C16.484 14.9999 17.082 14.9959 17.176 14.9799C17.4129 14.9388 17.627 14.8134 17.7787 14.6268C17.9304 14.4402 18.0094 14.2051 18.0013 13.9647C17.9931 13.7244 17.8983 13.4951 17.7343 13.3193C17.5703 13.1434 17.3482 13.0328 17.109 13.0079C16.989 12.9919 6.992 12.9919 6.879 13.0079ZM6.844 17.0119C6.73863 17.0331 6.63621 17.067 6.539 17.1129C6.41869 17.1754 6.31234 17.2617 6.22639 17.3666C6.14044 17.4714 6.07669 17.5927 6.039 17.7229C6.01168 17.8125 6.00117 17.9065 6.008 17.9999C6.008 18.1519 6.012 18.1799 6.039 18.2729C6.141 18.6129 6.399 18.8669 6.734 18.9649L6.828 18.9879H17.176L17.266 18.9649C17.602 18.8669 17.859 18.6129 17.961 18.2729C17.9884 18.1847 17.9989 18.092 17.992 17.9999C17.9988 17.9065 17.9883 17.8125 17.961 17.7229C17.9121 17.5603 17.8236 17.4124 17.7036 17.2924C17.5835 17.1723 17.4356 17.0839 17.273 17.0349L17.188 17.0079H12.03C9.194 17.0079 6.859 17.0079 6.844 17.0119Z" fill="#202020"/>
</svg>
