<svg width="24" height="24" viewBox="0 0 24 24" fill="none" xmlns="http://www.w3.org/2000/svg">
<path d="M3.676 0.0160665C3.07247 0.0642405 2.48776 0.24886 1.96599 0.555996C1.44423 0.863131 0.999032 1.28476 0.664 1.78907C0.312 2.33007 0.125 2.84007 0.02 3.56307C-8.73115e-10 3.69907 -0.008 20.0151 0.012 20.2761C0.0493042 20.8522 0.211892 21.4132 0.488415 21.9199C0.764937 22.4267 1.14873 22.867 1.613 23.2101C2.22673 23.667 2.95947 23.9369 3.723 23.9871C3.848 23.9951 6.293 23.9991 12.117 23.9951L20.34 23.9911L20.516 23.9681C21.25 23.8581 21.848 23.6161 22.406 23.1941C22.719 22.9601 22.969 22.7101 23.203 22.3941C23.664 21.7801 23.926 21.0771 23.988 20.2921C24.004 20.0771 24.004 3.91707 23.988 3.70207C23.9316 2.92291 23.6476 2.1775 23.1711 1.55844C22.6946 0.939387 22.0468 0.473984 21.308 0.220067C21.0247 0.127121 20.7335 0.0601776 20.438 0.0200665C20.316 0.00506653 3.887 -0.00293347 3.675 0.0170665L3.676 0.0160665ZM7.286 6.07407C7.386 6.10207 7.496 6.14807 7.59 6.20707C7.652 6.25007 8.102 6.69107 9.836 8.42207L12 10.5861L14.164 8.42607C14.8983 7.68734 15.638 6.95398 16.383 6.22607C16.5042 6.14263 16.6424 6.08715 16.7877 6.06363C16.933 6.04012 17.0816 6.04914 17.223 6.09007C17.563 6.18807 17.828 6.45707 17.922 6.80007C17.961 6.94507 17.957 7.17607 17.914 7.31607C17.879 7.42607 17.832 7.53107 17.774 7.61707C17.754 7.64507 16.766 8.64507 15.574 9.83607L13.414 12.0001L15.574 14.1641C16.3139 14.8972 17.0472 15.6369 17.774 16.3831C17.832 16.4691 17.879 16.5741 17.914 16.6831C17.941 16.7731 17.945 16.8091 17.945 16.9451C17.9525 17.1024 17.9176 17.2588 17.844 17.3981C17.7782 17.525 17.687 17.637 17.576 17.7271C17.465 17.8173 17.3367 17.8836 17.199 17.9221C17.0289 17.9584 16.8528 17.9557 16.684 17.9141C16.5776 17.8818 16.4763 17.8346 16.383 17.7741C16.355 17.7541 15.355 16.7661 14.164 15.5741L12 13.4101L9.836 15.5741C9.10151 16.3149 8.36048 17.0493 7.613 17.7771C7.50819 17.8416 7.39518 17.8917 7.277 17.9261C7.12085 17.9565 6.96003 17.9538 6.805 17.9181C6.63115 17.8717 6.47251 17.7805 6.34493 17.6537C6.21735 17.5268 6.12531 17.3687 6.078 17.1951C6.04552 17.0368 6.04416 16.8738 6.074 16.7151C6.10994 16.6 6.15998 16.4898 6.223 16.3871C6.243 16.3551 7.234 15.3551 8.426 14.1641L10.59 12.0001L8.426 9.83607C7.68727 9.10177 6.95392 8.36208 6.226 7.61707C6.14257 7.49585 6.08709 7.35762 6.06357 7.21236C6.04005 7.06709 6.04908 6.91842 6.09 6.77707C6.2 6.39807 6.516 6.12107 6.906 6.05907C6.992 6.04307 7.199 6.05507 7.286 6.07407Z" fill="#202020"/>
</svg>
