<svg width="24" height="24" viewBox="0 0 24 24" fill="none" xmlns="http://www.w3.org/2000/svg">
<path d="M3.75 0.00810963C2.89921 0.0627962 2.08797 0.387151 1.434 0.93411C1.274 1.06611 0.977 1.37111 0.852 1.53511C0.358558 2.16197 0.0657932 2.92316 0.012 3.71911C0.004 3.84811 -2.32831e-10 6.26611 0.004 12.1171L0.008 20.3361L0.031 20.5161C0.101 20.9881 0.211 21.3481 0.411 21.7541C0.80931 22.573 1.47642 23.2306 2.301 23.6171C2.738 23.8281 3.215 23.9491 3.727 23.9881C3.847 23.9961 6.313 24.0001 12.117 23.9961L20.34 23.9921L20.516 23.9691C21.2439 23.8715 21.9313 23.5769 22.504 23.1171C22.648 23.0001 22.93 22.7301 23.047 22.5861C23.5472 21.9992 23.8673 21.2805 23.969 20.5161C23.992 20.3401 23.992 20.3131 23.996 18.6451C24 17.4411 23.996 16.9251 23.988 16.8591C23.959 16.6572 23.869 16.4691 23.7302 16.3197C23.5913 16.1703 23.4102 16.0668 23.211 16.0231C23.0686 15.9996 22.9234 15.9996 22.781 16.0231C22.402 16.1131 22.129 16.3911 22.023 16.7811C22.003 16.8511 22.003 17.0041 21.996 18.5661L21.988 20.2771L21.961 20.3951C21.867 20.8251 21.676 21.1651 21.371 21.4531C21.0751 21.7359 20.6982 21.9191 20.293 21.9771C20.188 21.9921 19.219 21.9971 12 21.9971C3.078 21.9971 3.746 22.0001 3.48 21.9301C3.14086 21.8426 2.83272 21.6626 2.59 21.4101C2.33751 21.1674 2.15748 20.8592 2.07 20.5201C2 20.2541 2.004 20.9221 2.004 12.0001C2.004 4.78111 2.008 3.81211 2.024 3.70711C2.082 3.29711 2.262 2.93411 2.547 2.62911C2.83074 2.32773 3.19996 2.12044 3.605 2.03511L3.723 2.01211L7.43 2.00411C11.512 1.99611 11.188 2.00411 11.371 1.92611C11.883 1.71911 12.133 1.13311 11.926 0.62511C11.8156 0.369654 11.6095 0.167571 11.352 0.0621096C11.168 -0.00389037 11.402 0.000109632 7.437 0.00410963C5.437 0.00410963 3.781 0.00410963 3.75 0.00810963Z" fill="currentColor"/>
<path d="M16.383 1.12911C16.02 1.15211 15.656 1.32911 15.403 1.59811C15.2192 1.79555 15.0909 2.03808 15.031 2.30111C15.008 2.40611 15.008 2.43711 15 3.78511L14.996 5.16011L14.965 5.16411C14.879 5.17611 14.477 5.25811 14.297 5.30111C11.262 6.00011 8.817 7.93711 7.109 10.9811C6.87898 11.4087 6.66287 11.8436 6.461 12.2851C5.75752 13.9023 5.29817 15.615 5.098 17.3671C5.078 17.5271 5.074 17.6171 5.078 17.7151C5.113 18.3481 5.605 18.8711 6.266 18.9801C6.406 19.0001 6.691 18.9961 6.809 18.9651C7.035 18.9101 7.25 18.8131 7.422 18.6841C7.555 18.5861 7.746 18.3791 7.844 18.2381C7.937 18.0981 8.047 17.8711 8.098 17.7181C8.118 17.6561 8.152 17.5121 8.18 17.3951C8.578 15.6801 9.613 14.1601 11.184 12.9881C12.3138 12.147 13.6067 11.551 14.98 11.2381C14.996 11.2381 15 11.3281 15.004 12.4141C15.008 13.5541 15.008 13.5901 15.031 13.6911C15.105 14.0041 15.234 14.2381 15.449 14.4451C15.664 14.6561 15.914 14.7851 16.211 14.8481C16.355 14.8781 16.621 14.8871 16.758 14.8591C16.8952 14.8315 17.0287 14.7882 17.156 14.7301C17.379 14.6171 17.258 14.7381 20.031 11.9651C20.9269 11.0757 21.8176 10.181 22.703 9.28111C22.926 9.01611 23.07 8.70711 23.141 8.34811C23.1748 8.10585 23.1734 7.85998 23.137 7.61811C23.0745 7.31274 22.9436 7.02553 22.754 6.77811C22.652 6.64511 17.512 1.50411 17.383 1.41011C17.0953 1.19719 16.7395 1.09721 16.383 1.12911Z" fill="currentColor"/>
</svg>
