<svg width="24" height="24" viewBox="0 0 24 24" fill="none" xmlns="http://www.w3.org/2000/svg">
<path d="M20.86 1.00803C20.59 1.03503 20.316 1.14103 20.098 1.30503C20.031 1.35503 17.051 4.32803 10.91 10.473C3.148 18.234 1.812 19.578 1.758 19.656C1.64711 19.8264 1.5691 20.016 1.528 20.215C1.504 20.335 1.5 20.625 1.523 20.754C1.58297 21.1021 1.76414 21.4177 2.03446 21.645C2.30478 21.8723 2.64681 21.9967 3 21.996C3.305 21.996 3.574 21.914 3.84 21.742C3.95 21.668 4.484 21.137 13.05 12.57C18.523 7.09803 22.168 3.44103 22.207 3.39003C22.3417 3.19991 22.4338 2.98298 22.477 2.75403C22.5 2.62503 22.497 2.33603 22.473 2.21403C22.4006 1.84905 22.1956 1.52382 21.8976 1.3011C21.5995 1.07838 21.2295 0.973976 20.859 1.00803H20.86ZM11.613 2.50803C9.629 2.58203 7.523 3.22703 5.563 4.36303C4.023 5.25803 2.645 6.41803 1.648 7.66403C0.7 8.84803 0.152 10.008 0.02 11.102C0.00437364 11.3661 0.00437364 11.6309 0.02 11.895C0.062 12.246 0.137 12.57 0.258 12.918C0.609 13.949 1.305 15.028 2.281 16.066L2.379 16.164L4.227 14.316L6.078 12.469L6.058 12.324C6.02411 12.0925 6.00607 11.859 6.004 11.625C5.98615 10.9377 6.09078 10.2527 6.313 9.60203C6.59649 8.73828 7.07639 7.95202 7.715 7.30503C8.3679 6.63503 9.16895 6.12765 10.0537 5.8237C10.9385 5.51975 11.8822 5.42772 12.809 5.55503L12.969 5.57803L14.223 4.32003C14.6458 3.90445 15.0625 3.48273 15.473 3.05503C15.2616 2.98616 15.0478 2.92479 14.832 2.87103C14.0195 2.66081 13.1867 2.5391 12.348 2.50803C12.1031 2.49629 11.8579 2.49629 11.613 2.50803ZM17.922 10.527L17.942 10.668C17.977 10.895 17.988 11.074 17.996 11.371C18.0221 12.4618 17.7477 13.5387 17.203 14.484C16.761 15.2558 16.1527 15.9196 15.4222 16.4271C14.6918 16.9345 13.8575 17.2731 12.98 17.418C12.613 17.48 12.48 17.488 12.008 17.488C11.563 17.488 11.488 17.484 11.164 17.441L11.024 17.421L9.766 18.68C8.629 19.82 8.512 19.938 8.536 19.95C8.551 19.953 8.66 19.988 8.786 20.023C9.536 20.238 10.309 20.387 11.046 20.453C11.6816 20.5117 12.3214 20.5117 12.957 20.453C15.332 20.243 17.847 19.223 19.988 17.609C21.199 16.691 22.281 15.562 22.965 14.489C23.551 13.574 23.879 12.739 23.98 11.895C23.996 11.735 23.996 11.265 23.98 11.102C23.863 10.122 23.414 9.09403 22.637 8.03203C22.383 7.68403 21.997 7.22203 21.734 6.95303L21.617 6.83203L17.922 10.527Z" fill="currentColor"/>
</svg>
