<svg width="24" height="24" viewBox="0 0 24 24" fill="none" xmlns="http://www.w3.org/2000/svg">
<g clip-path="url(#clip0_2064_39009)">
<path d="M7.324 4.00811C6.76493 4.04639 6.23505 4.27184 5.81978 4.6481C5.40451 5.02437 5.12806 5.52952 5.035 6.08211L5.023 6.17611L4.895 6.21911C4.395 6.38711 3.898 6.67911 3.477 7.05911C3.30462 7.22219 3.14514 7.39838 3 7.58611C2.67713 8.07104 2.35944 8.5594 2.047 9.05111C1.582 9.77311 1.133 10.4771 1.043 10.6091C0.198122 11.8488 -0.152846 13.3595 0.0590021 14.8446C0.27085 16.3298 1.03021 17.6821 2.188 18.6361C2.91267 19.23 3.7661 19.6464 4.68022 19.8519C5.59433 20.0575 6.54384 20.0466 7.453 19.8201C8.39151 19.5868 9.25965 19.1299 9.98333 18.4884C10.707 17.8469 11.2648 17.0399 11.609 16.1361L11.656 16.0001H11.996L12.336 15.9961L12.371 16.0821C12.7414 17.0785 13.3677 17.9598 14.187 18.6371C14.9119 19.231 15.7655 19.6472 16.6798 19.8526C17.5941 20.058 18.5438 20.0469 19.453 19.8201C20.3476 19.5987 21.179 19.1737 21.8823 18.5782C22.5857 17.9828 23.142 17.2329 23.508 16.3871C24.0865 15.0424 24.1558 13.5332 23.703 12.1411C23.543 11.6411 23.34 11.2071 23.047 10.7501C22.699 10.2001 21.125 7.75811 21.059 7.66011C20.5538 6.96556 19.8407 6.44969 19.023 6.18711C18.98 6.17611 18.973 6.16811 18.973 6.14511C18.973 6.08511 18.91 5.82811 18.859 5.68411C18.7111 5.24791 18.4446 4.86155 18.0894 4.56834C17.7342 4.27513 17.3043 4.08667 16.848 4.02411C16.6179 4.00063 16.3861 4.00063 16.156 4.02411C15.6492 4.09421 15.1762 4.31839 14.8011 4.6663C14.426 5.01421 14.167 5.46903 14.059 5.96911L14.05 6.00011H9.949L9.941 5.96911C9.86064 5.60277 9.69942 5.25902 9.46913 4.96298C9.23885 4.66695 8.94532 4.42613 8.61 4.25811C8.21151 4.06203 7.76694 3.97573 7.324 4.00811ZM6.457 10.0281C7.347 10.1281 8.145 10.5041 8.789 11.1281C9.352 11.6761 9.75 12.3871 9.91 13.1481C9.969 13.4181 9.984 13.5861 9.992 13.8981C10.004 14.4021 9.949 14.7971 9.809 15.2301C9.53 16.0938 8.96674 16.8375 8.211 17.3401C7.67911 17.6888 7.0729 17.908 6.441 17.9801C6.14866 17.9996 5.85534 17.9996 5.563 17.9801C4.71625 17.8862 3.9213 17.5255 3.293 16.9501C2.59775 16.3152 2.15052 15.454 2.031 14.5201C1.99969 14.1742 1.99969 13.8261 2.031 13.4801C2.16569 12.4378 2.70595 11.4907 3.53456 10.8443C4.36316 10.1978 5.41327 9.90519 6.457 10.0281ZM18.457 10.0281C19.347 10.1281 20.145 10.5041 20.789 11.1281C21.352 11.6761 21.75 12.3871 21.91 13.1481C21.969 13.4181 21.984 13.5861 21.992 13.8981C22.004 14.4021 21.949 14.7971 21.809 15.2301C21.53 16.0938 20.9667 16.8375 20.211 17.3401C19.6791 17.6888 19.0729 17.908 18.441 17.9801C18.1487 17.9996 17.8553 17.9996 17.563 17.9801C16.7163 17.8862 15.9213 17.5255 15.293 16.9501C14.5978 16.3152 14.1505 15.454 14.031 14.5201C13.9997 14.1742 13.9997 13.8261 14.031 13.4801C14.1657 12.4378 14.7059 11.4907 15.5346 10.8443C16.3632 10.1978 17.4133 9.90519 18.457 10.0281Z" fill="currentColor"/>
</g>
<defs>
<clipPath id="clip0_2064_39009">
<rect width="24" height="24" fill="white"/>
</clipPath>
</defs>
</svg>
