<svg width="24" height="24" viewBox="0 0 24 24" fill="none" xmlns="http://www.w3.org/2000/svg">
<g clip-path="url(#clip0_2064_39197)">
<path d="M10.887 1.00809C10.6832 1.03102 10.4914 1.11604 10.3376 1.25163C10.1838 1.38722 10.0753 1.56682 10.027 1.76609C9.9984 1.91293 9.99704 2.06377 10.023 2.21109C10.109 2.61309 10.441 2.92109 10.852 2.98809C10.902 2.99609 12.91 3.00009 17 3.00009C22.379 3.00009 23.082 2.99609 23.176 2.98009C23.4129 2.93901 23.627 2.8136 23.7787 2.62701C23.9304 2.44041 24.0094 2.20525 24.0013 1.96492C23.9931 1.72459 23.8983 1.49533 23.7343 1.31946C23.5703 1.1436 23.3482 1.033 23.109 1.00809C22.992 0.992094 11.008 0.992094 10.887 1.00809ZM10.79 5.02309C10.563 5.07009 10.34 5.21509 10.195 5.40609C10.1218 5.51388 10.0664 5.63273 10.031 5.75809C9.99593 5.91617 9.99593 6.08002 10.031 6.23809C10.0631 6.35708 10.1134 6.47041 10.18 6.57409C10.285 6.71909 10.457 6.85509 10.617 6.92209C10.812 7.00409 10.398 6.99609 15.539 6.99209L20.188 6.98809L20.273 6.96509C20.609 6.85909 20.859 6.60909 20.961 6.27309C20.9884 6.18485 20.9989 6.09223 20.992 6.00009C20.9988 5.90664 20.9883 5.81273 20.961 5.72309C20.9121 5.56052 20.8236 5.4126 20.7036 5.29254C20.5835 5.17249 20.4356 5.08404 20.273 5.03509L20.188 5.00809H15.528C11.426 5.00809 10.859 5.00809 10.789 5.02309H10.79ZM4.816 8.43009C4.65147 8.46235 4.49753 8.53498 4.36802 8.64145C4.2385 8.74792 4.13747 8.88491 4.074 9.04009C4.004 9.21009 4.004 9.21509 4 9.88309L3.992 10.5001H2.461C0.766 10.5001 0.816 10.4961 0.625 10.5741C0.375 10.6801 0.16 10.8981 0.066 11.1481C0.008 11.3051 0 11.3781 0 12.0001C0 12.6331 0.008 12.7031 0.07 12.8671C0.121 12.9921 0.18 13.0821 0.281 13.1871C0.377307 13.2904 0.494599 13.3719 0.625 13.4261C0.816 13.5041 0.765 13.5001 2.461 13.5001H3.992L4 14.1171C4.004 14.7851 4.004 14.7891 4.074 14.9611C4.14613 15.1378 4.26732 15.2902 4.42325 15.4002C4.57919 15.5102 4.76335 15.5733 4.954 15.5821C5.1466 15.5948 5.33851 15.5484 5.504 15.4491C5.586 15.4021 5.714 15.2771 6.969 14.0231C7.45137 13.5471 7.92807 13.0654 8.399 12.5781C8.51902 12.4085 8.58348 12.2059 8.58348 11.9981C8.58348 11.7903 8.51902 11.5877 8.399 11.4181C8.367 11.3831 7.723 10.7301 6.965 9.97309C5.925 8.93709 5.566 8.58609 5.515 8.55509C5.4293 8.50548 5.33754 8.46716 5.242 8.44109C5.10137 8.4159 4.95774 8.41219 4.816 8.43009ZM11.781 9.01209C11.5454 9.03888 11.3164 9.10763 11.105 9.21509C10.7938 9.36961 10.5287 9.60317 10.3361 9.8924C10.1436 10.1816 10.0304 10.5164 10.008 10.8631C9.99237 11.621 9.99237 12.3792 10.008 13.1371C10.058 13.8521 10.468 14.4651 11.105 14.7811C11.335 14.8981 11.539 14.9571 11.805 14.9881C11.965 15.0041 22.047 15.0041 22.203 14.9881C22.59 14.9451 22.933 14.8051 23.234 14.5701C23.4446 14.4041 23.6198 14.1977 23.7493 13.9629C23.8788 13.7281 23.96 13.4697 23.988 13.2031C24.004 13.0511 24.004 10.9491 23.988 10.7971C23.9613 10.5494 23.8901 10.3086 23.778 10.0861C23.6888 9.91359 23.5742 9.75549 23.438 9.61709C23.1118 9.27435 22.6737 9.05973 22.203 9.01209C22.066 8.99609 11.91 8.99609 11.781 9.01209ZM10.79 17.0231C10.563 17.0701 10.34 17.2151 10.195 17.4061C10.1218 17.5139 10.0664 17.6327 10.031 17.7581C9.99593 17.9162 9.99593 18.08 10.031 18.2381C10.0631 18.3571 10.1134 18.4704 10.18 18.5741C10.285 18.7191 10.457 18.8551 10.617 18.9221C10.809 19.0001 10.457 18.9961 15 18.9961C19.543 18.9961 19.191 19.0001 19.379 18.9221C19.672 18.8011 19.887 18.5511 19.969 18.2381C20.0041 18.08 20.0041 17.9162 19.969 17.7581C19.9306 17.6065 19.8572 17.4661 19.7548 17.348C19.6523 17.2299 19.5236 17.1375 19.379 17.0781C19.191 16.9961 19.543 17.0041 14.992 17.0041C11.379 17.0081 10.859 17.0081 10.789 17.0241L10.79 17.0231ZM10.824 21.0161C10.6295 21.0521 10.4498 21.1446 10.3076 21.2821C10.1653 21.4196 10.0667 21.5959 10.024 21.7891C9.99771 21.9364 9.99873 22.0872 10.027 22.2341C10.117 22.5981 10.387 22.8711 10.766 22.9731L10.859 22.9961L16.918 23.0001C20.961 23.0041 23.012 23.0001 23.086 22.9921C23.2622 22.9791 23.4316 22.9185 23.576 22.8167C23.7205 22.7148 23.8345 22.5757 23.906 22.4141C23.9601 22.3015 23.9908 22.179 23.996 22.0541C24.027 21.5541 23.668 21.1051 23.176 21.0161C23.082 21.0041 22.379 21.0001 16.988 21.0001C11.996 21.0041 10.891 21.0041 10.824 21.0161Z" fill="#202020"/>
</g>
<defs>
<clipPath id="clip0_2064_39197">
<rect width="24" height="24" fill="white"/>
</clipPath>
</defs>
</svg>
