<svg width="24" height="24" viewBox="0 0 24 24" fill="none" xmlns="http://www.w3.org/2000/svg">
<g clip-path="url(#clip0_2064_39479)">
<path d="M3.422 0.012C3.1438 0.0441018 2.87538 0.133983 2.63395 0.275881C2.39251 0.41778 2.18339 0.608563 2.02 0.836C1.93 0.965 1.793 1.23 1.746 1.379C1.58361 1.87531 1.62313 2.4156 1.856 2.883C1.891 2.953 3.286 5.148 5.109 8.008C6.863 10.762 8.329 13.058 8.359 13.113C8.461 13.285 8.547 13.52 8.598 13.77C8.618 13.848 8.621 14.313 8.625 18.32C8.633 22.598 8.633 22.79 8.652 22.863C8.688 22.984 8.782 23.164 8.855 23.253C8.98 23.403 9.18 23.531 9.375 23.586C9.492 23.617 9.77 23.617 9.895 23.582C10.004 23.547 10.121 23.492 10.215 23.422C10.277 23.375 13.715 20.008 13.852 19.855C14.062 19.625 14.222 19.344 14.301 19.043C14.375 18.766 14.371 18.953 14.379 16.266L14.387 13.82L14.41 13.707C14.45 13.543 14.5 13.395 14.574 13.247C14.617 13.152 15.563 11.66 17.855 8.067C19.68 5.207 21.105 2.961 21.141 2.887C21.215 2.742 21.281 2.559 21.316 2.379C21.356 2.215 21.359 1.824 21.324 1.656C21.144 0.754 20.457 0.109 19.566 0.012C19.43 -0.004 3.559 -0.004 3.422 0.012ZM15.21 3.023C15.417 3.066 15.64 3.203 15.772 3.367C15.8497 3.4603 15.9081 3.56803 15.944 3.684C15.984 3.789 15.987 3.82 15.991 3.957C16.0016 4.04613 15.9948 4.13646 15.971 4.223C15.9302 4.40439 15.8394 4.57075 15.709 4.70328C15.5786 4.83582 15.4137 4.92924 15.233 4.973L15.136 4.996H7.859L7.758 4.973C7.58362 4.92639 7.42461 4.83465 7.29698 4.70702C7.16935 4.57939 7.07761 4.42038 7.031 4.246C6.99588 4.08388 6.99588 3.91612 7.031 3.754C7.07902 3.5704 7.17779 3.40405 7.316 3.274C7.457 3.141 7.648 3.043 7.828 3.012C7.868 3.008 9.41 3.004 11.496 3C15.016 3 15.102 3 15.211 3.023H15.21ZM13.26 8.031C13.437 8.082 13.644 8.211 13.749 8.336C13.917 8.536 13.995 8.742 13.995 9C13.9977 9.22589 13.9227 9.44584 13.7825 9.62298C13.6423 9.80013 13.4455 9.92371 13.225 9.973C13.12 9.996 13.108 9.996 11.46 9.993L9.804 9.988L9.687 9.949C9.493 9.88464 9.32338 9.76239 9.20098 9.59869C9.07859 9.43499 9.00929 9.23772 9.00243 9.03344C8.99556 8.82916 9.05146 8.62769 9.16259 8.45614C9.27373 8.2846 9.43476 8.15123 9.624 8.074C9.808 8 9.714 8.004 11.526 8.008C13.081 8.008 13.193 8.012 13.26 8.031Z" fill="currentColor"/>
</g>
<defs>
<clipPath id="clip0_2064_39479">
<rect width="24" height="24" fill="white"/>
</clipPath>
</defs>
</svg>
