<svg width="24" height="24" viewBox="0 0 24 24" fill="none" xmlns="http://www.w3.org/2000/svg">
<path d="M1.887 1.00808C1.469 1.05808 1.133 1.35208 1.027 1.76608L1.004 1.86708V22.1301L1.027 22.2351C1.07218 22.4231 1.17091 22.594 1.31124 22.7271C1.45157 22.8602 1.62748 22.9497 1.81765 22.9848C2.00782 23.02 2.20411 22.9992 2.38272 22.9251C2.56133 22.8509 2.71462 22.7266 2.824 22.5671C2.879 22.4891 2.945 22.3331 2.973 22.2351C2.993 22.1571 2.996 21.8651 2.996 12.0011C2.996 2.13809 2.992 1.84508 2.973 1.76308C2.92319 1.56423 2.81369 1.38539 2.65924 1.2506C2.50478 1.11581 2.31277 1.03153 2.109 1.00908C2 0.996085 2 0.996085 1.887 1.00808ZM6.879 1.00808C6.70928 1.02814 6.54769 1.09196 6.41007 1.19329C6.27245 1.29461 6.16354 1.42997 6.094 1.58608C6.07 1.63608 6.039 1.71908 6.027 1.76208C6.007 1.84408 6.007 2.13708 6.007 12.0001C6.007 21.8631 6.007 22.1561 6.027 22.2341C6.055 22.3321 6.125 22.4881 6.176 22.5661C6.484 23.0161 7.109 23.1331 7.559 22.8281C7.766 22.6881 7.918 22.4651 7.977 22.2111C7.997 22.1211 8 21.8131 8 11.9921V1.86708L7.973 1.76608C7.91524 1.52762 7.77191 1.31867 7.57022 1.17893C7.36854 1.03919 7.12256 0.978393 6.879 1.00808ZM14.133 1.00408C13.734 1.03108 13.406 1.14408 13.086 1.36708C12.957 1.45708 12.715 1.70308 12.617 1.84008C12.4529 2.0822 12.3374 2.35391 12.277 2.64008C12.254 2.75408 12.254 2.80508 12.254 3.01608C12.254 3.29308 12.27 3.40208 12.348 3.63308C12.395 3.77708 12.516 4.01208 12.602 4.13708C12.637 4.18408 13.324 5.02308 14.132 6.00008C14.938 6.97709 15.632 7.82009 15.668 7.87909C15.805 8.08209 15.906 8.32408 15.961 8.58208C15.988 8.69908 15.988 8.71909 15.996 9.82409C16.004 11.0661 16.004 11.0161 16.082 11.1991C16.1795 11.4308 16.363 11.6158 16.594 11.7151C16.7244 11.7763 16.8683 11.8032 17.012 11.7931C17.215 11.7931 17.285 11.7811 17.445 11.7031C17.559 11.6451 17.675 11.5551 17.75 11.4651C18.1155 10.9538 18.4749 10.4381 18.828 9.91809C18.965 9.70708 18.996 9.57409 18.996 9.20308C18.996 8.78908 19.023 8.58608 19.109 8.33208C19.164 8.16808 19.285 7.93708 19.379 7.80908C19.426 7.75008 20.109 6.91809 20.902 5.96108C21.412 5.34864 21.916 4.73128 22.414 4.10908C22.93 3.35508 22.848 2.32908 22.219 1.63708C21.879 1.27008 21.418 1.04708 20.902 1.00708C20.773 0.997085 14.273 0.992085 14.132 1.00408H14.133ZM11.844 9.01208C11.454 9.08208 11.156 9.34809 11.035 9.72709L11.012 9.81209L11.008 15.9611C11.004 21.5591 11.004 22.1171 11.023 22.1991C11.098 22.5701 11.383 22.8711 11.762 22.9691C11.891 23.0041 12.109 23.0041 12.242 22.9691C12.355 22.9371 12.512 22.8671 12.594 22.8051C12.789 22.6561 12.934 22.4341 12.977 22.1991C12.997 22.1171 12.997 21.5591 12.992 15.9611V9.81209L12.965 9.72709C12.9059 9.52396 12.7842 9.3447 12.6172 9.21486C12.4502 9.08502 12.2464 9.01126 12.035 9.00408C11.961 9.00408 11.875 9.00408 11.844 9.01208ZM16.79 14.0231C16.559 14.0741 16.34 14.2151 16.195 14.4061C16.1197 14.5161 16.063 14.6377 16.027 14.7661L16.004 14.8631V22.1291L16.027 22.2341C16.0722 22.4221 16.1709 22.593 16.3112 22.7261C16.4516 22.8592 16.6275 22.9487 16.8177 22.9838C17.0078 23.019 17.2041 22.9982 17.3827 22.9241C17.5613 22.8499 17.7146 22.7256 17.824 22.5661C17.879 22.4881 17.945 22.3321 17.973 22.2341C17.993 22.1561 17.996 22.0241 17.996 18.4921V14.8281L17.961 14.7231C17.9125 14.5607 17.8242 14.413 17.704 14.2936C17.5838 14.1741 17.4357 14.0866 17.273 14.0391C17.1142 14.0026 16.9499 13.9972 16.789 14.0231H16.79ZM21.844 14.0121C21.7386 14.0333 21.6362 14.0672 21.539 14.1131C21.4183 14.1751 21.3116 14.2612 21.2256 14.3661C21.1396 14.4711 21.0761 14.5926 21.039 14.7231L21.008 14.8281V18.4921C21.008 22.0231 21.008 22.1561 21.028 22.2341C21.055 22.3321 21.125 22.4881 21.176 22.5661C21.484 23.0161 22.109 23.1331 22.559 22.8281C22.766 22.6881 22.918 22.4651 22.977 22.2111C22.997 22.1211 23 21.9841 23 18.4921V14.8631L22.973 14.7661C22.9378 14.6374 22.881 14.5157 22.805 14.4061C22.6569 14.2102 22.4432 14.0742 22.203 14.0231C22.084 14.0039 21.964 14.0002 21.844 14.0121Z" fill="currentColor"/>
</svg>
