<svg width="24" height="24" viewBox="0 0 24 24" fill="none" xmlns="http://www.w3.org/2000/svg">
<path d="M1.887 1.00808C1.68323 1.03101 1.49143 1.11603 1.3376 1.25162C1.18377 1.38721 1.07534 1.56681 1.027 1.76608C0.998395 1.91292 0.99704 2.06376 1.023 2.21108C1.109 2.61708 1.449 2.93008 1.859 2.98808C1.926 2.99608 2.992 3.00008 5.563 2.99608L9.172 2.99208L9.277 2.96108C9.613 2.85508 9.867 2.60108 9.961 2.27308C9.99686 2.11971 10.0036 1.96096 9.981 1.80508C9.9395 1.59598 9.83201 1.40571 9.67433 1.26224C9.51664 1.11878 9.31708 1.02969 9.105 1.00808C8.985 0.992085 2.004 0.996085 1.887 1.00808ZM14.133 1.00408C13.734 1.03108 13.406 1.14408 13.086 1.36708C12.957 1.45708 12.715 1.70308 12.617 1.84008C12.4529 2.0822 12.3374 2.35391 12.277 2.64008C12.254 2.75408 12.254 2.80508 12.254 3.01608C12.254 3.29308 12.27 3.40208 12.348 3.63308C12.395 3.77708 12.516 4.01208 12.602 4.13708C12.637 4.18408 13.324 5.02308 14.132 6.00008C14.938 6.97709 15.632 7.82009 15.668 7.87909C15.805 8.08209 15.906 8.32408 15.961 8.58208C15.988 8.69908 15.988 8.71909 15.996 9.82409C16.004 11.0661 16.004 11.0161 16.082 11.1991C16.1795 11.4308 16.363 11.6158 16.594 11.7151C16.7244 11.7763 16.8683 11.8032 17.012 11.7931C17.215 11.7931 17.285 11.7811 17.445 11.7031C17.559 11.6451 17.675 11.5551 17.75 11.4651C18.1155 10.9538 18.4749 10.4381 18.828 9.91809C18.965 9.70708 18.996 9.57409 18.996 9.20308C18.996 8.78908 19.023 8.58608 19.109 8.33208C19.164 8.16808 19.285 7.93708 19.379 7.80908C19.426 7.75008 20.109 6.91809 20.902 5.96108C21.412 5.34864 21.916 4.73128 22.414 4.10908C22.93 3.35508 22.848 2.32908 22.219 1.63708C21.879 1.27008 21.418 1.04708 20.902 1.00708C20.773 0.997085 14.273 0.992085 14.132 1.00408H14.133ZM1.79 5.02308C1.562 5.07008 1.34 5.21509 1.195 5.40609C1.12182 5.51387 1.06644 5.63272 1.031 5.75808C0.995927 5.91616 0.995927 6.08001 1.031 6.23808C1.06312 6.35707 1.11337 6.4704 1.18 6.57408C1.285 6.71908 1.457 6.85508 1.617 6.92208C1.809 7.00008 1.507 6.99608 5.497 6.99608C9.445 6.99608 9.18 7.00008 9.371 6.92608C9.49691 6.87744 9.61035 6.80125 9.703 6.70308C9.831 6.57535 9.92184 6.41522 9.96582 6.23982C10.0098 6.06442 10.0052 5.88036 9.95263 5.70735C9.90003 5.53435 9.80137 5.3789 9.6672 5.25766C9.53304 5.13642 9.36843 5.05396 9.191 5.01908C9.055 4.99608 1.907 4.99608 1.79 5.02308ZM1.824 9.01608C1.62946 9.0521 1.44985 9.14462 1.30757 9.28209C1.1653 9.41956 1.06667 9.5959 1.024 9.78908C0.99771 9.93635 0.998726 10.0872 1.027 10.2341C1.121 10.6051 1.407 10.8871 1.789 10.9771C1.879 10.9971 2.059 10.9971 7.008 10.9971H12.137L12.234 10.9731C12.488 10.9031 12.695 10.7581 12.832 10.5511C12.9512 10.377 13.0076 10.1675 12.992 9.95708C12.9904 9.81081 12.9526 9.66722 12.882 9.53908C12.8198 9.41949 12.7341 9.3136 12.6302 9.22772C12.5263 9.14183 12.4062 9.07768 12.277 9.03908L12.172 9.00408H7.039C2.816 9.00408 1.891 9.00408 1.824 9.01608ZM1.887 13.0081C1.68323 13.031 1.49143 13.116 1.3376 13.2516C1.18377 13.3872 1.07534 13.5668 1.027 13.7661C0.998395 13.9129 0.99704 14.0638 1.023 14.2111C1.109 14.6171 1.449 14.9301 1.859 14.9881C1.926 14.9961 4.801 15.0001 12.059 14.9961C21.879 14.9921 22.168 14.9921 22.242 14.9731C22.703 14.8401 22.996 14.4611 22.996 13.9961C22.996 13.5361 22.696 13.1521 22.238 13.0271L22.145 13.0001H12.055C6.504 13.0001 1.93 13.0041 1.887 13.0081ZM1.79 17.0231C1.562 17.0701 1.34 17.2151 1.195 17.4061C1.12182 17.5139 1.06644 17.6327 1.031 17.7581C0.995927 17.9162 0.995927 18.08 1.031 18.2381C1.06312 18.3571 1.11337 18.4704 1.18 18.5741C1.324 18.7741 1.559 18.9301 1.797 18.9771C1.879 18.9971 2.817 18.9971 12 18.9971C21.184 18.9971 22.121 18.9971 22.203 18.9771C22.3531 18.9468 22.494 18.882 22.6147 18.7877C22.7353 18.6935 22.8323 18.5724 22.898 18.4341C22.9658 18.2997 22.9995 18.1506 22.996 18.0001C22.9995 17.8496 22.9658 17.7005 22.898 17.5661C22.8323 17.4278 22.7353 17.3067 22.6147 17.2125C22.494 17.1182 22.3531 17.0534 22.203 17.0231C22.121 17.0031 21.183 17.0031 11.993 17.0031C3.051 17.0081 1.86 17.0081 1.79 17.0231ZM1.824 21.0161C1.62946 21.0521 1.44985 21.1446 1.30757 21.2821C1.1653 21.4196 1.06667 21.5959 1.024 21.7891C0.99771 21.9363 0.998726 22.0872 1.027 22.2341C1.121 22.6051 1.407 22.8871 1.789 22.9771C1.879 22.9971 2.188 22.9971 12.008 22.9971H22.133L22.234 22.9731C22.4525 22.9214 22.647 22.7969 22.7855 22.6201C22.9239 22.4433 22.9982 22.2246 22.996 22.0001C22.9983 21.8687 22.9731 21.7382 22.922 21.6171C22.8607 21.4737 22.7676 21.3461 22.6498 21.2439C22.532 21.1417 22.3926 21.0676 22.242 21.0271C22.168 21.0071 21.882 21.0041 12.035 21.0041C3.668 21.0041 1.891 21.0041 1.825 21.0161H1.824Z" fill="#202020"/>
</svg>
