<svg width="24" height="24" viewBox="0 0 24 24" fill="none" xmlns="http://www.w3.org/2000/svg">
<path d="M12.828 0.832045C12.5729 0.852505 12.3246 0.924274 12.098 1.04304C11.801 1.19504 12.16 0.843045 7.07 5.93304C4.5 8.50004 2.36 10.646 2.312 10.7C1.98217 11.0695 1.8099 11.5533 1.832 12.048C1.844 12.442 1.953 12.794 2.176 13.118C2.523 13.642 3.046 13.942 3.68 13.993C3.781 14.001 4.762 14.005 6.418 14.005H9L9.004 17.712C9.008 21.747 9.004 21.442 9.07 21.704C9.277 22.504 10.008 23.103 10.871 23.169C11.231 23.196 11.582 23.122 11.906 22.958C12.199 22.806 11.84 23.153 16.949 18.048C19.527 15.474 21.668 13.325 21.707 13.278C21.93 13.013 22.082 12.692 22.145 12.356C22.18 12.181 22.175 11.817 22.141 11.642C22.008 10.993 21.598 10.454 21.031 10.188C20.8097 10.0854 20.5714 10.0243 20.328 10.008C20.23 10.001 19.273 9.99804 17.59 9.99804H15L14.996 6.29004C14.992 2.98104 14.992 2.57504 14.973 2.49004C14.9193 2.18237 14.7962 1.89098 14.613 1.63804C14.4815 1.47711 14.3322 1.33153 14.168 1.20404C13.9337 1.04456 13.6715 0.93058 13.395 0.868045C13.2502 0.842808 13.1039 0.827108 12.957 0.821045C12.941 0.825045 12.887 0.828045 12.828 0.832045Z" fill="#202020"/>
</svg>
