<svg width="24" height="24" viewBox="0 0 24 24" fill="none" xmlns="http://www.w3.org/2000/svg">
<path d="M3.84 4.004C3.27265 4.02588 2.71669 4.16982 2.21 4.426C1.813 4.625 1.504 4.848 1.176 5.172C0.516 5.832 0.14 6.613 0.02 7.582C0 7.762 0 16.234 0.02 16.418C0.11 17.121 0.32 17.695 0.691 18.246C0.989085 18.6843 1.37111 19.0592 1.81499 19.3489C2.25887 19.6387 2.75578 19.8375 3.277 19.934C3.629 20 3.43 19.996 6.934 20C9.27 20.004 10.187 20 10.27 19.992C10.4447 19.975 10.6117 19.9118 10.754 19.809C10.789 19.781 12.133 18.449 13.734 16.844C15.992 14.586 16.668 13.902 16.73 13.816C16.965 13.496 17.145 13.136 17.238 12.786C17.477 11.875 17.297 10.946 16.73 10.184C16.668 10.098 15.992 9.414 13.734 7.156C12.7452 6.16075 11.7506 5.1714 10.75 4.188C10.6473 4.11696 10.5339 4.06294 10.414 4.028L10.32 4H7.113C5.352 4 3.875 4 3.84 4.004Z" fill="#202020"/>
<path d="M15.71 4.008C15.29 4.055 14.957 4.355 14.852 4.789C14.8246 4.93371 14.8246 5.08229 14.852 5.227C14.879 5.324 14.945 5.477 15 5.562C15.02 5.594 15.719 6.301 16.555 7.137C18.195 8.781 18.242 8.836 18.512 9.238C18.957 9.91 19.23 10.672 19.32 11.508C19.348 11.754 19.348 12.246 19.32 12.492C19.2204 13.514 18.8072 14.4801 18.137 15.258C18.078 15.324 17.359 16.055 16.535 16.878C16.0174 17.3925 15.5057 17.9129 15 18.439C14.9359 18.5436 14.8861 18.6562 14.852 18.774C14.8246 18.9187 14.8246 19.0673 14.852 19.212C14.91 19.454 15.043 19.662 15.227 19.798C15.3741 19.9125 15.552 19.9804 15.738 19.993C15.82 20.001 16.594 20.005 18.078 20.001C20.051 19.997 20.308 19.993 20.445 19.978C21.391 19.856 22.18 19.474 22.828 18.821C22.928 18.7217 23.0231 18.6175 23.113 18.509C23.602 17.899 23.891 17.196 23.98 16.411C24 16.204 24 7.798 23.98 7.587C23.8967 6.81936 23.5959 6.09147 23.113 5.489C22.941 5.28703 22.7545 5.09787 22.555 4.923C21.938 4.415 21.242 4.123 20.402 4.021C20.27 4.001 15.859 3.993 15.711 4.009L15.71 4.008Z" fill="#202020"/>
</svg>
