<svg width="24" height="24" viewBox="0 0 24 24" fill="none" xmlns="http://www.w3.org/2000/svg">
<path d="M1.855 4.00809C1.297 4.06209 0.938 4.48009 0.938 5.08209C0.938 5.34809 0.988 5.55509 1.113 5.80509C1.203 5.98509 1.297 6.11709 1.43 6.26209C1.48 6.30909 2.305 7.08209 3.266 7.97709C5.754 10.2931 6.031 10.5551 6.129 10.6601C6.367 10.9141 6.535 11.2541 6.613 11.6291C6.633 11.7391 6.641 11.7971 6.641 12.0001C6.641 12.2031 6.633 12.2621 6.613 12.3711C6.56165 12.6361 6.45833 12.8883 6.309 13.1131C6.16 13.3281 6.391 13.1131 3.266 16.0231C2.305 16.9181 1.48 17.6911 1.43 17.7381C1.30311 17.8731 1.19634 18.0256 1.113 18.1911C0.988 18.4451 0.938 18.6521 0.938 18.9141C0.938 19.4691 1.227 19.8551 1.73 19.9731L1.836 19.9961L9 20.0001C14.031 20.0041 16.215 20.0001 16.336 19.9921C16.691 19.9651 16.984 19.8721 17.27 19.6951C17.41 19.6051 17.496 19.5351 17.758 19.2931C21.895 15.4331 22.5 14.8671 22.618 14.7461C23.2335 14.0994 23.6129 13.2641 23.695 12.3751C23.7106 12.1253 23.7106 11.8748 23.695 11.6251C23.6234 10.844 23.3217 10.1017 22.828 9.49209C22.645 9.25809 22.949 9.54709 17.758 4.70709C17.496 4.46509 17.41 4.39509 17.27 4.30509C16.9938 4.13286 16.6797 4.03089 16.355 4.00809C16.175 3.99209 2.008 3.99209 1.855 4.00809ZM17.047 6.77809L20.285 9.79709C21.082 10.5391 21.235 10.6871 21.344 10.8401C21.704 11.3521 21.804 11.9801 21.625 12.5861C21.575 12.7541 21.449 13.0121 21.344 13.1601C21.234 13.3121 21.082 13.4651 20.285 14.2031L16.215 18.0001H10.145C6.805 18.0001 4.078 17.9961 4.085 17.9921L7.453 14.8481C8.10578 14.2047 8.51806 13.3568 8.621 12.4461C8.648 12.2151 8.648 11.7861 8.621 11.5551C8.52324 10.6969 8.15194 9.89296 7.562 9.26209C7.488 9.18409 7.422 9.11309 7.406 9.10509C7.395 9.09409 6.645 8.39809 5.742 7.55509C4.836 6.71109 4.09 6.01509 4.086 6.00809C4.078 6.00409 6.805 6.00009 10.145 6.00009H16.215L17.047 6.77809Z" fill="#202020"/>
</svg>
