<svg width="24" height="24" viewBox="0 0 24 24" fill="none" xmlns="http://www.w3.org/2000/svg">
<path d="M2.48 4.00811C2.125 4.03511 1.75 4.17611 1.473 4.37811C1.3062 4.50899 1.15638 4.66015 1.027 4.82811C0.937 4.95711 0.801 5.22311 0.754 5.35911C0.703557 5.52063 0.669387 5.68679 0.652 5.85511C0.625 6.19911 0.699 6.57511 0.855 6.89111C0.918 7.01111 1.051 7.20711 1.137 7.30511C1.18 7.35211 1.907 8.12111 2.754 9.01511C3.605 9.91511 4.32 10.6751 4.352 10.7111C4.508 10.8911 4.641 11.1331 4.722 11.3751C4.793 11.5851 4.82 11.7541 4.82 12.0001C4.82 12.2461 4.793 12.4141 4.723 12.6251C4.64201 12.8677 4.51616 13.093 4.352 13.2891C4.32 13.3241 3.605 14.0861 2.754 14.9801C1.906 15.8791 1.18 16.6481 1.137 16.6911C0.964291 16.8895 0.832527 17.1201 0.749291 17.3697C0.666055 17.6192 0.63299 17.8827 0.652 18.1451C0.68 18.4251 0.742 18.6411 0.867 18.8951C1.187 19.5391 1.781 19.9381 2.5 19.9921C2.7 20.0081 18.945 20.0081 19.21 19.9921C20.2 19.9441 21.1359 19.5258 21.832 18.8201C22.532 18.1211 22.937 17.2071 22.992 16.2031C23.008 15.9331 23.008 8.06611 22.992 7.79711C22.9442 6.80775 22.5291 5.87178 21.828 5.17211C21.1303 4.47279 20.1976 4.05791 19.211 4.00811C18.973 3.99211 2.655 3.99611 2.48 4.00811ZM19.258 6.01611C20.066 6.12511 20.738 6.71511 20.938 7.49611C21.004 7.76611 21 7.51611 21 12.0001C21 16.4841 21.004 16.2341 20.937 16.5041C20.8466 16.8482 20.6662 17.1621 20.4143 17.4134C20.1625 17.6647 19.8483 17.8444 19.504 17.9341C19.23 18.0041 19.852 18.0001 10.894 18.0001C6.367 18.0001 2.66 17.9961 2.66 17.9921C2.66 17.9921 3.324 17.2851 4.14 16.4261L5.727 14.7501C6.31324 14.1298 6.68663 13.3389 6.793 12.4921C6.82422 12.1649 6.82422 11.8354 6.793 11.5081C6.69433 10.7258 6.36818 9.98973 5.855 9.39111C5.809 9.34011 5.075 8.55911 4.219 7.66111C3.367 6.75811 2.664 6.01611 2.664 6.00811C2.66 6.00411 6.364 6.00011 10.891 6.00011C18.141 6.00011 19.141 6.00411 19.258 6.01611Z" fill="#202020"/>
</svg>
