<svg width="24" height="24" viewBox="0 0 24 24" fill="none" xmlns="http://www.w3.org/2000/svg">
<path d="M4.836 4.004C4.03276 4.03804 3.25831 4.31286 2.61328 4.79275C1.96826 5.27264 1.48246 5.93543 1.219 6.695C1.129 6.965 1.07 7.215 1.023 7.559C1.003 7.691 1.003 8.027 1 11.829C0.996 14.621 1 16.027 1.008 16.184C1.016 16.309 1.031 16.484 1.043 16.574C1.16972 17.4504 1.58367 18.26 2.21997 18.8758C2.85626 19.4917 3.67893 19.879 4.559 19.977C4.695 19.997 5.089 19.997 9.937 20C13.344 20.004 15.227 20 15.332 19.992C15.707 19.965 16.027 19.859 16.324 19.66C16.469 19.562 16.48 19.55 17.062 19.008C17.336 18.754 17.875 18.25 18.258 17.895C21.633 14.746 22.262 14.156 22.368 14.051C22.7933 13.5954 23.0671 13.0194 23.152 12.402C23.184 12.192 23.184 11.805 23.152 11.594C23.077 11.0533 22.8573 10.543 22.516 10.117C22.4335 10.0228 22.3474 9.93169 22.258 9.844C22.168 9.754 21.308 8.949 20.344 8.051C19.379 7.152 18.137 5.992 17.578 5.473C17.2195 5.13881 16.8601 4.80548 16.5 4.473C16.3146 4.32008 16.1046 4.1997 15.879 4.117C15.7084 4.05942 15.5314 4.02249 15.352 4.007C15.246 4 13.484 3.998 10.055 4C7.227 4 4.88 4 4.836 4.004Z" fill="#202020"/>
</svg>
