<svg width="24" height="24" viewBox="0 0 24 24" fill="none" xmlns="http://www.w3.org/2000/svg">
<path d="M0.96 2.01603C0.594 2.07803 0.281 2.36303 0.172 2.73803C0.148 2.81603 0.148 2.85503 0.148 3.01203C0.148 3.18403 0.148 3.19903 0.184 3.30503C0.207 3.36703 0.246 3.45703 0.277 3.50803C0.309 3.55503 1.031 4.43403 1.898 5.47703C2.762 6.50703 3.484 7.37903 3.512 7.41003C3.57 7.49203 3.641 7.63703 3.668 7.75003C3.711 7.89503 3.707 8.12503 3.664 8.26603C3.633 8.37103 3.582 8.47603 3.527 8.55903C3.512 8.58603 2.781 9.46903 1.902 10.523C0.184 12.582 0.242 12.508 0.176 12.72C0.141 12.837 0.129 13.06 0.156 13.189C0.203 13.403 0.301 13.579 0.465 13.731C0.543 13.81 0.585 13.841 0.684 13.888C0.75 13.919 0.836 13.954 0.875 13.966C0.938 13.986 1.316 13.986 5.891 13.997C11.543 14.009 12.187 14.005 12.387 13.977C13.0688 13.888 13.6993 13.5674 14.173 13.0689C14.6467 12.5705 14.9347 11.9245 14.989 11.239C14.996 11.126 15 10.122 14.996 7.90303L14.992 4.72803L14.969 4.56803C14.8683 3.92735 14.5672 3.33503 14.109 2.87603C13.641 2.41103 13.105 2.14603 12.418 2.03203C12.308 2.01203 11.914 2.00903 6.664 2.00903C3.324 2.00903 1 2.01303 0.961 2.01703L0.96 2.01603Z" fill="currentColor"/>
<path d="M17.004 10.46C17.004 11.043 16.988 11.426 16.957 11.656C16.8674 12.3295 16.6419 12.9776 16.2941 13.5613C15.9463 14.1449 15.4836 14.6517 14.934 15.051C14.3273 15.4862 13.6322 15.7822 12.898 15.918C12.492 15.992 12.648 15.988 10.223 15.992L8.003 15.996L8.008 17.656C8.012 19.48 8.008 19.375 8.082 19.691C8.148 19.977 8.309 20.355 8.457 20.59C8.691 20.96 9.035 21.305 9.41 21.543C9.543 21.629 9.855 21.777 10.016 21.832C10.172 21.887 10.375 21.937 10.559 21.969C10.676 21.989 10.895 21.989 14.684 21.992C19.105 21.996 18.766 22.004 18.961 21.926C19.156 21.848 19.105 21.895 21.129 19.867C22.172 18.824 23.059 17.93 23.098 17.875C23.462 17.4139 23.6856 16.8578 23.742 16.273C23.762 16.09 23.75 15.734 23.727 15.563C23.6487 15.0506 23.4416 14.5665 23.125 14.156C23.027 14.031 19.27 10.262 19.165 10.187C19.062 10.1159 18.9482 10.0619 18.828 10.027C18.734 10.004 18.718 10.004 17.868 10L17.004 9.99603V10.46Z" fill="currentColor"/>
</svg>
