<svg width="24" height="24" viewBox="0 0 24 24" fill="none" xmlns="http://www.w3.org/2000/svg">
<path d="M3.84 4.00402C2.83427 4.0459 1.88142 4.4659 1.172 5.18002C0.516 5.83602 0.14 6.61702 0.02 7.58202C0 7.76202 0 16.234 0.02 16.418C0.137 17.359 0.5 18.133 1.129 18.781C1.77831 19.4521 2.64176 19.8752 3.57 19.977C3.734 19.997 3.93 19.997 6.945 19.997H10.145L10.242 19.973C10.372 19.938 10.559 19.843 10.648 19.766C10.707 19.719 15.621 14.27 15.891 13.957C16.2283 13.565 16.4585 13.0924 16.5591 12.5851C16.6596 12.0778 16.6272 11.5531 16.465 11.062C16.348 10.703 16.165 10.372 15.93 10.09C15.0483 9.10329 14.164 8.11895 13.277 7.13702C11.551 5.21502 10.695 4.27002 10.637 4.22302C10.5214 4.13402 10.3901 4.06753 10.25 4.02702L10.156 4.00002H7.031C5.313 4.00002 3.875 4.00002 3.84 4.00402ZM11.98 8.68402C12.8024 9.59274 13.6204 10.5054 14.434 11.422C14.672 11.75 14.672 12.25 14.434 12.578C14.41 12.609 13.309 13.844 11.98 15.316L9.57 18H6.723C3.672 18 3.77 18 3.523 17.941C3.29832 17.8847 3.08468 17.7911 2.891 17.664C2.45144 17.3667 2.14454 16.9103 2.035 16.391L2.012 16.27V7.72702L2.035 7.60902C2.175 6.98002 2.562 6.47702 3.125 6.20302C3.3284 6.10527 3.54617 6.04079 3.77 6.01202C4.74998 6.00466 5.72999 6.00199 6.71 6.00402L9.57 6.00002L11.98 8.68402Z" fill="#202020"/>
<path d="M15.281 4.00802C15.1158 4.02586 14.9576 4.08493 14.8212 4.17981C14.6847 4.27469 14.5743 4.40233 14.5 4.55102C14.34 4.87502 14.36 5.25002 14.55 5.53902C14.582 5.58602 15.227 6.31302 15.996 7.16802C17.476 8.81202 17.484 8.82002 17.633 9.01602C18.0374 9.56078 18.3267 10.1822 18.4831 10.8424C18.6396 11.5026 18.66 12.1877 18.543 12.856C18.406 13.676 18.043 14.473 17.523 15.121C17.469 15.191 16.805 15.934 16.051 16.773C14.421 18.582 14.586 18.395 14.523 18.503C14.4529 18.6224 14.4093 18.7554 14.3951 18.8931C14.381 19.0308 14.3966 19.1699 14.441 19.301C14.547 19.633 14.801 19.871 15.148 19.973L15.242 19.996H17.75C20.098 19.996 20.27 19.996 20.434 19.976C21.199 19.8898 21.9238 19.5881 22.524 19.106C22.672 18.984 22.988 18.668 23.114 18.508C23.602 17.898 23.891 17.195 23.98 16.41C24 16.203 24 7.79702 23.98 7.58602C23.8859 6.69309 23.4938 5.85787 22.867 5.21502C22.211 4.53902 21.395 4.14102 20.402 4.02002C20.273 4.00002 15.433 3.99202 15.281 4.00802ZM20.223 6.01202C20.371 6.02702 20.484 6.05502 20.625 6.10202C20.9613 6.21291 21.2624 6.41068 21.4977 6.67532C21.733 6.93995 21.8942 7.26205 21.965 7.60902L21.992 7.72702V16.27L21.965 16.39C21.8855 16.7761 21.6947 17.1304 21.4163 17.4094C21.1378 17.6883 20.7839 17.8797 20.398 17.96L20.258 17.992L17.633 18L17.68 17.95C18.1265 17.461 18.5679 16.9673 19.004 16.469C19.8361 15.473 20.3708 14.2628 20.547 12.977C20.5962 12.6538 20.6169 12.3269 20.609 12C20.6169 11.6732 20.5962 11.3463 20.547 11.023C20.3724 9.76301 19.8545 8.57533 19.05 7.59002C18.6155 7.08796 18.1742 6.59191 17.726 6.10202L17.633 6.00002H18.875C19.648 6.00002 20.156 6.00402 20.223 6.01202Z" fill="#202020"/>
</svg>
