<svg width="24" height="24" viewBox="0 0 24 24" fill="none" xmlns="http://www.w3.org/2000/svg">
<path d="M3.785 0.00790625C3.742 0.0119063 3.637 0.0199063 3.547 0.0309063C2.79589 0.114413 2.08446 0.411479 1.497 0.886906C1.328 1.01991 1.016 1.32791 0.887 1.49191C0.412392 2.0837 0.114315 2.79735 0.027 3.55091C0.007 3.71091 0.007 4.10891 0.007 11.9919C0.007 20.9059 0.004 20.3589 0.067 20.7069C0.209851 21.5239 0.607489 22.2747 1.203 22.8519C1.859 23.4959 2.645 23.8629 3.593 23.9799C3.699 23.9919 5.234 23.9919 12 23.9919C19.887 23.9919 20.29 23.9919 20.45 23.9719C21.2029 23.884 21.916 23.5863 22.508 23.1129C22.672 22.9839 22.98 22.6719 23.113 22.5029C23.543 21.9689 23.832 21.3239 23.941 20.6639C23.996 20.3279 23.996 20.5199 23.996 15.9959C23.996 11.9409 23.992 11.7149 23.973 11.5549C23.824 10.3549 23.215 9.35191 22.23 8.68391C21.7254 8.34009 21.1479 8.11794 20.543 8.03491C20.391 8.01191 20.34 8.01191 18.656 8.00391C16.754 7.99591 16.824 7.99591 16.438 7.92191C15.7789 7.79004 15.1635 7.49439 14.6487 7.06221C14.1338 6.63003 13.7361 6.07522 13.492 5.44891C13.355 5.09391 13.332 4.99991 13.168 3.99991C13.028 3.17191 12.988 2.97991 12.898 2.70991C12.7099 2.16261 12.4054 1.66256 12.0056 1.24412C11.6058 0.825679 11.1202 0.498783 10.582 0.285906C10.1961 0.129917 9.78747 0.0377135 9.372 0.0129063C9.21 -9.37479e-05 4 -0.00409375 3.784 0.00790625H3.785ZM12.789 9.01591C13.645 9.11691 14.363 9.62491 14.742 10.3979C15.172 11.2699 15.059 12.2929 14.453 13.0629C14.367 13.1719 14.172 13.3669 14.063 13.4529C13.6287 13.7986 13.0919 13.9904 12.5368 13.9982C11.9818 14.006 11.4398 13.8293 10.996 13.4959C10.9598 13.4679 10.9221 13.4418 10.883 13.4179L10.023 13.8399C9.555 14.0739 8.906 14.3949 8.582 14.5549L7.996 14.8439L8 14.9729C8.004 15.0429 8.012 15.1019 8.016 15.1049C8.023 15.1169 8.539 15.3789 9.512 15.8669C9.922 16.0739 10.402 16.3169 10.578 16.4099C10.781 16.5119 10.902 16.5659 10.914 16.5619C10.9487 16.5382 10.9827 16.5135 11.016 16.4879C11.2971 16.2806 11.6186 16.1346 11.9596 16.0593C12.3007 15.984 12.6538 15.9812 12.996 16.0509C13.726 16.1949 14.356 16.6639 14.707 17.3209C15.176 18.2029 15.074 19.2809 14.453 20.0619C14.1415 20.452 13.7199 20.7394 13.243 20.8869C12.445 21.1369 11.539 20.9569 10.906 20.4259C10.5474 20.1292 10.2796 19.7376 10.133 19.2959C10.0413 19.022 9.99635 18.7347 10 18.4459L10.004 18.3559L9.328 18.0159C8.957 17.8319 8.313 17.5039 7.891 17.2929L7.129 16.9059L7.019 16.9879C6.684 17.2379 6.339 17.3869 5.914 17.4649C5.774 17.4919 5.383 17.5039 5.23 17.4849C4.76142 17.4325 4.31658 17.2511 3.945 16.9609C3.77983 16.8217 3.62938 16.6658 3.496 16.4959C3.25833 16.1772 3.10058 15.8062 3.036 15.4139C2.996 15.1949 2.996 14.8039 3.036 14.5819C3.12597 14.0452 3.38914 13.5527 3.78531 13.1797C4.18148 12.8066 4.68888 12.5735 5.23 12.5159C5.422 12.4919 5.773 12.5079 5.969 12.5429C6.336 12.6129 6.691 12.7699 6.992 12.9879C7.039 13.0229 7.082 13.0549 7.09 13.0549C7.098 13.0549 7.75 12.7299 8.547 12.3399L9.992 11.6249V11.5589C9.996 11.5189 10 11.4139 10.008 11.3199C10.0382 10.8958 10.176 10.4864 10.4084 10.1304C10.6407 9.7743 10.96 9.48333 11.336 9.28491C11.773 9.05491 12.289 8.95791 12.789 9.01591Z" fill="#202020"/>
<path d="M14.777 2.01191C14.777 2.01991 14.789 2.05491 14.801 2.09391C14.851 2.22991 14.93 2.51991 14.969 2.69891C14.992 2.80491 15.07 3.23891 15.141 3.66391C15.211 4.08991 15.281 4.48391 15.301 4.54291C15.4037 4.90654 15.607 5.23374 15.8877 5.48676C16.1683 5.73978 16.5147 5.90831 16.887 5.97291C16.977 5.99291 17.152 5.99291 18.711 5.99991C20.555 6.00791 20.5 6.00791 20.926 6.06991C21.215 6.11291 21.652 6.21891 21.91 6.30891L21.996 6.33891V6.06191C21.996 5.74591 21.984 5.58991 21.946 5.33591C21.7997 4.4631 21.3678 3.66356 20.7181 3.06269C20.0684 2.46183 19.2376 2.09365 18.356 2.01591C18.184 1.99991 14.777 1.99591 14.777 2.01191Z" fill="#202020"/>
</svg>
