<svg width="24" height="24" viewBox="0 0 24 24" fill="none" xmlns="http://www.w3.org/2000/svg">
<path d="M3.785 0.00790625C3.742 0.0119063 3.637 0.0199063 3.547 0.0309063C2.79589 0.114413 2.08446 0.411479 1.497 0.886906C1.328 1.01991 1.016 1.32791 0.887 1.49191C0.412392 2.0837 0.114315 2.79735 0.027 3.55091C0.007 3.71091 0.007 4.10891 0.007 11.9919C0.007 20.9059 0.004 20.3589 0.067 20.7069C0.209851 21.5239 0.607489 22.2747 1.203 22.8519C1.859 23.4959 2.645 23.8629 3.593 23.9799C3.699 23.9919 5.234 23.9919 12 23.9919C19.887 23.9919 20.29 23.9919 20.45 23.9719C21.2029 23.884 21.916 23.5863 22.508 23.1129C22.672 22.9839 22.98 22.6719 23.113 22.5029C23.543 21.9689 23.832 21.3239 23.941 20.6639C23.996 20.3279 23.996 20.5199 23.996 15.9959C23.996 11.9409 23.992 11.7149 23.973 11.5549C23.824 10.3549 23.215 9.35191 22.23 8.68391C21.7254 8.34009 21.1479 8.11794 20.543 8.03491C20.391 8.01191 20.34 8.01191 18.656 8.00391C16.754 7.99591 16.824 7.99591 16.438 7.92191C15.7789 7.79004 15.1635 7.49439 14.6487 7.06221C14.1338 6.63003 13.7361 6.07522 13.492 5.44891C13.355 5.09391 13.332 4.99991 13.168 3.99991C13.028 3.17191 12.988 2.97991 12.898 2.70991C12.7099 2.16261 12.4054 1.66256 12.0056 1.24412C11.6058 0.825679 11.1202 0.498783 10.582 0.285906C10.1961 0.129917 9.78747 0.0377135 9.372 0.0129063C9.21 -9.37479e-05 4 -0.00409375 3.784 0.00790625H3.785ZM12.207 11.0229C12.3962 11.0628 12.5697 11.1568 12.7064 11.2935C12.8431 11.4302 12.9371 11.6037 12.977 11.7929C12.992 11.8709 12.997 12.1989 12.997 14.9999C12.997 17.7999 12.992 18.1289 12.977 18.2069C12.9371 18.3961 12.8431 18.5696 12.7064 18.7063C12.5697 18.843 12.3962 18.937 12.207 18.9769C12.094 18.9999 11.907 18.9999 11.793 18.9769C11.6038 18.937 11.4303 18.843 11.2936 18.7063C11.1569 18.5696 11.0629 18.3961 11.023 18.2069C11.008 18.1289 11.003 17.7969 11.003 14.9919C11.003 11.9099 11.003 11.8629 11.027 11.7699C11.117 11.3979 11.418 11.1019 11.785 11.0229C11.895 10.9999 12.098 10.9999 12.207 11.0229Z" fill="#202020"/>
<path d="M14.777 2.01191C14.777 2.01991 14.789 2.05491 14.801 2.09391C14.851 2.22991 14.93 2.51991 14.969 2.69891C14.992 2.80491 15.07 3.23891 15.141 3.66391C15.211 4.08991 15.281 4.48391 15.301 4.54291C15.4037 4.90654 15.607 5.23374 15.8877 5.48676C16.1683 5.73978 16.5147 5.90831 16.887 5.97291C16.977 5.99291 17.152 5.99291 18.711 5.99991C20.555 6.00791 20.5 6.00791 20.926 6.06991C21.215 6.11291 21.652 6.21891 21.91 6.30891L21.996 6.33891V6.06191C21.996 5.74591 21.984 5.58991 21.946 5.33591C21.7997 4.4631 21.3678 3.66356 20.7181 3.06269C20.0684 2.46183 19.2376 2.09365 18.356 2.01591C18.184 1.99991 14.777 1.99591 14.777 2.01191Z" fill="#202020"/>
</svg>
