<svg width="24" height="24" viewBox="0 0 24 24" fill="none" xmlns="http://www.w3.org/2000/svg">
<g clip-path="url(#clip0_2064_42687)">
<path d="M3.688 0.0119062C2.84 0.0819063 2.062 0.401906 1.414 0.952906C1.23207 1.11203 1.06227 1.28451 0.906 1.46891C0.384787 2.10513 0.0725855 2.88668 0.012 3.70691C0.004 3.80491 0 5.21091 0 7.68691V11.5199L0.145 11.3979C1.0211 10.6638 2.08931 10.1964 3.223 10.0509C3.605 9.99991 3.3 9.99991 12 9.99991C20.844 9.99991 20.414 9.99991 20.824 10.0549C21.9595 10.2111 23.0263 10.6897 23.898 11.4339L24 11.5239L23.996 10.5899C23.992 9.71891 23.992 9.65191 23.969 9.48391C23.8666 8.71855 23.5466 7.99869 23.047 7.40991C22.8868 7.23022 22.7144 7.06182 22.531 6.90591C21.9537 6.43273 21.2559 6.12973 20.516 6.03091C20.34 6.00791 20.296 6.00791 18.582 5.99991C17.613 5.99591 16.809 5.98791 16.793 5.98391C16.777 5.97991 16.723 5.97291 16.672 5.96391C16.1456 5.88594 15.6459 5.68142 15.2159 5.36791C14.7858 5.0544 14.4383 4.64125 14.203 4.16391C14.066 3.88291 13.996 3.66391 13.91 3.25391C13.8404 2.89025 13.7209 2.53793 13.555 2.20691C13.1594 1.41293 12.5086 0.774812 11.707 0.394906C11.3261 0.208674 10.9174 0.0857303 10.497 0.0309062L10.32 0.00790625L7.062 0.00390625C5.27 0.00390625 3.75 0.00790625 3.688 0.0119062ZM3.688 12.0119C2.88206 12.0753 2.11397 12.3803 1.484 12.8869C1.316 13.0199 1.02 13.3169 0.887 13.4799C0.377245 14.1154 0.0721562 14.8905 0.012 15.7029C-0.004 15.9179 -0.004 20.0819 0.012 20.2969C0.066 21.0119 0.289 21.6519 0.68 22.2339C1.01824 22.736 1.46608 23.1548 1.98974 23.4586C2.5134 23.7625 3.09921 23.9434 3.703 23.9879C3.922 24.0039 20.078 24.0039 20.297 23.9879C20.9057 23.9439 21.4963 23.7609 22.0231 23.4528C22.55 23.1447 22.9991 22.7199 23.336 22.2109C23.688 21.6799 23.879 21.1519 23.98 20.4379C23.996 20.3009 24.008 15.9729 23.988 15.7179C23.9474 15.1076 23.7666 14.5149 23.4596 13.9859C23.1526 13.4569 22.7277 13.0059 22.218 12.6679C21.6456 12.2859 20.9835 12.0598 20.297 12.0119C20.109 11.9959 3.872 11.9959 3.688 12.0119ZM15.207 17.0229C15.3962 17.0628 15.5697 17.1568 15.7064 17.2935C15.8431 17.4302 15.9371 17.6037 15.977 17.7929C16 17.9059 16 18.0929 15.977 18.2069C15.9371 18.3961 15.8431 18.5696 15.7064 18.7063C15.5697 18.843 15.3962 18.937 15.207 18.9769C15.129 18.9919 14.801 18.9969 12 18.9969C9.2 18.9969 8.871 18.9919 8.793 18.9769C8.60382 18.937 8.4303 18.843 8.29359 18.7063C8.15688 18.5696 8.06287 18.3961 8.023 18.2069C7.99699 18.0623 7.99835 17.914 8.027 17.7699C8.102 17.4599 8.324 17.1949 8.617 17.0779C8.797 16.9999 8.559 17.0079 11.992 17.0039C14.801 17.0039 15.129 17.0069 15.207 17.0229Z" fill="#202020"/>
</g>
<defs>
<clipPath id="clip0_2064_42687">
<rect width="24" height="24" fill="white"/>
</clipPath>
</defs>
</svg>
