<svg width="24" height="24" viewBox="0 0 24 24" fill="none" xmlns="http://www.w3.org/2000/svg">
<path d="M6.781 0.00788866L6.594 0.0278887C5.94155 0.118935 5.33702 0.421655 4.87328 0.889553C4.40954 1.35745 4.11222 1.96465 4.027 2.61789C4.012 2.73789 4.007 3.10489 4.007 5.54689V8.33589L4.199 8.14789C4.83454 7.51958 5.66297 7.12333 6.551 7.02289C6.711 7.00289 6.992 6.99989 11.996 6.99989C17.598 6.99989 17.324 6.99989 17.672 7.05489C18.4768 7.1924 19.2198 7.57437 19.8 8.14889L19.991 8.33589L19.987 7.48789C19.983 6.68389 19.983 6.63289 19.96 6.50789C19.9224 6.29853 19.8648 6.09326 19.788 5.89489C19.6007 5.42833 19.3001 5.01578 18.9134 4.69453C18.5267 4.37328 18.066 4.15344 17.573 4.05489C17.315 4.00389 17.28 4.00389 15.874 3.99589C14.651 3.98789 14.503 3.98789 14.409 3.96889C13.9867 3.89062 13.5965 3.69067 13.2863 3.39363C12.9761 3.09659 12.7595 2.71539 12.663 2.29689C12.5255 1.73377 12.2285 1.22226 11.8076 0.82371C11.3867 0.425156 10.8598 0.156475 10.29 0.0498887C10.203 0.0388887 10.07 0.0198887 9.996 0.00988866C9.875 -0.000111341 6.934 -0.00411134 6.781 0.00788866Z" fill="#202020"/>
<path d="M6.68 8.01589C6.14094 8.07542 5.62793 8.27924 5.195 8.60589C4.97556 8.78051 4.77663 8.97945 4.602 9.19889C4.285 9.62889 4.094 10.0979 4.027 10.6209C4 10.8239 4 13.1709 4.027 13.3789C4.109 14.0309 4.395 14.6169 4.852 15.0859C5.316 15.5659 5.867 15.8479 6.559 15.9689C6.664 15.9889 6.852 15.9889 8.839 15.9919L11.004 15.9959V17.9999H10.461C9.906 17.9999 9.77 18.0079 9.582 18.0469C9.1569 18.1382 8.77321 18.3658 8.48915 18.695C8.20509 19.0241 8.03616 19.437 8.008 19.8709L8 20.0039H6.441C5.071 20.0039 4.875 20.0079 4.797 20.0239C4.55695 20.0747 4.34324 20.2104 4.195 20.4059C4.12181 20.5137 4.06644 20.6325 4.031 20.7579C3.99593 20.916 3.99593 21.0798 4.031 21.2379C4.06312 21.3569 4.11337 21.4702 4.18 21.5739C4.285 21.7189 4.457 21.8549 4.617 21.9219C4.801 21.9999 4.727 21.9959 6.441 21.9959H8L8.008 22.1289C8.012 22.2029 8.028 22.3159 8.039 22.3829C8.11965 22.7894 8.32397 23.161 8.624 23.4469C8.92402 23.7328 9.30508 23.9189 9.715 23.9799C9.863 23.9999 14.168 23.9999 14.297 23.9799C14.7478 23.9094 15.1612 23.6876 15.4692 23.3511C15.7772 23.0145 15.9616 22.5831 15.992 22.1279L16 21.9959H17.559C19.273 21.9959 19.199 21.9999 19.379 21.9219C19.5621 21.8473 19.7187 21.7196 19.8286 21.5553C19.9386 21.391 19.9969 21.1976 19.996 20.9999C19.9969 20.8022 19.9386 20.6088 19.8286 20.4445C19.7187 20.2802 19.5621 20.1525 19.379 20.0779C19.199 19.9999 19.273 20.0039 17.559 20.0039H16L15.992 19.8709C15.9566 19.3474 15.7183 18.8585 15.328 18.5079C15.0701 18.2797 14.7583 18.1211 14.422 18.0469C14.227 18.0069 14.098 17.9999 13.543 17.9999H12.996V15.9959L15.16 15.9919C17.57 15.9879 17.375 15.9959 17.73 15.9059C18.4669 15.7247 19.1062 15.2676 19.516 14.6289C19.758 14.2539 19.914 13.8319 19.976 13.3789C20 13.1719 20 10.8289 19.976 10.6209C19.8953 9.97628 19.6043 9.37628 19.148 8.91389C18.684 8.43389 18.137 8.14789 17.445 8.03089C17.332 8.01089 16.996 8.00789 12.047 8.00789C9.121 8.00789 6.73 8.01189 6.68 8.01589ZM13.707 11.0229C13.8962 11.0628 14.0697 11.1568 14.2064 11.2935C14.3431 11.4302 14.4371 11.6037 14.477 11.7929C14.5 11.9059 14.5 12.0929 14.477 12.2069C14.4439 12.3655 14.3725 12.5136 14.2689 12.6383C14.1654 12.7629 14.0329 12.8603 13.883 12.9219C13.703 12.9999 13.781 12.9959 12 12.9959C10.219 12.9959 10.297 12.9999 10.117 12.9219C9.96712 12.8603 9.83462 12.7629 9.73107 12.6383C9.62752 12.5136 9.55608 12.3655 9.523 12.2069C9.49699 12.0623 9.49835 11.914 9.527 11.7699C9.602 11.4599 9.824 11.1949 10.117 11.0779C10.293 11.0039 10.211 11.0079 11.992 11.0039C13.434 11.0039 13.629 11.0079 13.707 11.0239V11.0229Z" fill="#202020"/>
</svg>
