<svg width="24" height="24" viewBox="0 0 24 24" fill="none" xmlns="http://www.w3.org/2000/svg">
<path d="M0.902 0.0119062C0.679973 0.0341247 0.471755 0.129963 0.31048 0.284171C0.149205 0.438379 0.0441384 0.642097 0.012 0.862906C0.004 0.929906 -2.32831e-10 1.72691 0.004 3.59791L0.008 6.23791L0.031 6.33191C0.0744834 6.4932 0.157683 6.64104 0.273 6.76191C0.406 6.89491 0.57 6.99191 0.758 7.04291C0.883 7.07791 1.118 7.08191 1.238 7.05091C1.352 7.01991 1.5 6.94891 1.594 6.87891C1.81714 6.67123 2.03585 6.45884 2.25 6.24191L2.832 5.65991L4.57 7.39791C5.695 8.52291 6.336 9.15591 6.383 9.18391C6.54781 9.30143 6.74669 9.36151 6.949 9.35491C7.04272 9.36219 7.13699 9.35201 7.227 9.32491C7.352 9.28491 7.477 9.21891 7.574 9.14091C8.12481 8.60941 8.66393 8.06595 9.191 7.51091C9.24854 7.42157 9.29331 7.32464 9.324 7.22291C9.3515 7.13434 9.36202 7.04138 9.355 6.94891C9.36215 6.85551 9.35198 6.7616 9.325 6.67191C9.28513 6.54577 9.2228 6.42787 9.141 6.32391C9.109 6.28491 8.312 5.47991 7.371 4.53891L5.661 2.82891L6.258 2.22991C6.633 1.85491 6.871 1.60991 6.902 1.55891C6.96801 1.45985 7.01576 1.34978 7.043 1.23391C7.07697 1.06159 7.0715 0.883813 7.027 0.713906C6.97599 0.546251 6.88223 0.394753 6.75494 0.274303C6.62765 0.153852 6.47121 0.0685938 6.301 0.0269063C6.219 0.00690625 6.101 0.00690625 3.605 0.00390625C2.165 0.00390625 0.95 0.00790625 0.902 0.0119062ZM17.832 0.0119062C17.6639 0.0268727 17.5023 0.0846294 17.3628 0.179678C17.2233 0.274726 17.1105 0.403902 17.035 0.554906C16.971 0.684996 16.9375 0.827941 16.937 0.972906C16.9251 1.12295 16.9523 1.27353 17.016 1.40991C17.082 1.56291 17.141 1.62491 17.742 2.22991L18.34 2.82791L16.629 4.53891C16.0344 5.1293 15.4444 5.72431 14.859 6.32391C14.7168 6.50119 14.6393 6.72165 14.6393 6.94891C14.6393 7.17616 14.7168 7.39662 14.859 7.57391C14.957 7.69491 16.418 9.14391 16.489 9.19091C16.589 9.25391 16.664 9.28891 16.777 9.32391C16.8656 9.35141 16.9585 9.36193 17.051 9.35491C17.1431 9.36239 17.2357 9.35221 17.324 9.32491C17.437 9.28891 17.516 9.25391 17.614 9.19091C17.656 9.16391 18.32 8.50791 19.426 7.40191L21.172 5.65991L21.75 6.24191C22.07 6.55891 22.367 6.84791 22.406 6.87891C22.5 6.94891 22.648 7.01891 22.766 7.05091C22.883 7.08191 23.117 7.07791 23.246 7.04291C23.606 6.94491 23.875 6.67991 23.969 6.32791L23.996 6.22691V0.835906L23.961 0.729906C23.9111 0.560859 23.8183 0.407614 23.6916 0.285111C23.5649 0.162608 23.4086 0.0750268 23.238 0.0309062L23.141 0.00790625L20.531 0.00390625C19.098 0.00390625 17.883 0.00790625 17.832 0.0119062ZM6.793 14.6479C6.64534 14.672 6.50512 14.7295 6.383 14.8159C6.336 14.8439 5.695 15.4759 4.57 16.6019L2.832 18.3399L2.25 17.7579C2.03585 17.541 1.81714 17.3286 1.594 17.1209C1.48568 17.0443 1.36537 16.9861 1.238 16.9489C1.07916 16.9185 0.915737 16.9212 0.758 16.9569C0.57 17.0069 0.41 17.1019 0.281 17.2339C0.158998 17.3542 0.0724972 17.5057 0.031 17.6719L0.008 17.7699V23.1599L0.039 23.2659C0.152 23.6289 0.41 23.8749 0.769 23.9689L0.875 23.9919H3.535C6.085 23.9919 6.195 23.9919 6.285 23.9719C6.45874 23.9341 6.61919 23.8504 6.74967 23.7296C6.88015 23.6088 6.97591 23.4552 7.027 23.2849C7.07 23.1449 7.078 22.9149 7.043 22.7649C7.01669 22.6492 6.96923 22.5394 6.903 22.4409C6.871 22.3909 6.633 22.1449 6.258 21.7659L5.66 21.1679L7.371 19.4569C8.312 18.5199 9.109 17.7149 9.141 17.6759C9.219 17.5779 9.285 17.4529 9.324 17.3239C9.35138 17.2357 9.36189 17.143 9.355 17.0509C9.36228 16.9572 9.35211 16.8629 9.325 16.7729C9.28502 16.6471 9.22269 16.5296 9.141 16.4259C8.60951 15.8751 8.06604 15.336 7.511 14.8089C7.289 14.6639 7.031 14.6089 6.793 14.6489V14.6479ZM16.871 14.6519C16.7339 14.6775 16.6036 14.7309 16.488 14.8089C16.414 14.8589 14.961 16.2969 14.855 16.4289C14.714 16.6063 14.6375 16.8265 14.6383 17.0531C14.639 17.2797 14.7168 17.4994 14.859 17.6759C14.891 17.7149 15.688 18.5199 16.629 19.4569L18.339 21.1679L17.742 21.7659C17.367 22.1449 17.129 22.3909 17.098 22.4409C17.0313 22.5396 16.9835 22.6498 16.957 22.7659C16.9224 22.9384 16.9292 23.1166 16.977 23.2859C17.09 23.6449 17.352 23.8859 17.715 23.9729C17.801 23.9929 17.93 23.9929 20.469 23.9929H23.129L23.234 23.9689C23.586 23.8789 23.852 23.6249 23.961 23.2659L23.996 23.1599V17.7699L23.969 17.6719C23.9229 17.4993 23.8316 17.342 23.7045 17.2163C23.5774 17.0907 23.4192 17.0011 23.246 16.9569C23.0883 16.9212 22.9248 16.9185 22.766 16.9489C22.6488 16.9824 22.5369 17.0326 22.434 17.0979C22.402 17.1179 22.105 17.4059 21.774 17.7379L21.172 18.3399L19.461 16.6289C18.8706 16.0343 18.2756 15.4443 17.676 14.8589C17.5715 14.7782 17.4537 14.7163 17.328 14.6759C17.1786 14.639 17.0235 14.6308 16.871 14.6519Z" fill="#202020"/>
</svg>
