<svg width="24" height="24" viewBox="0 0 24 24" fill="none" xmlns="http://www.w3.org/2000/svg">
<path d="M3.676 0.0119931C3.13458 0.0570424 2.60791 0.211425 2.12785 0.465808C1.64779 0.72019 1.22431 1.06929 0.883 1.49199C0.398 2.08999 0.117 2.78199 0.02 3.57799C-0.00167292 3.88778 0.00200599 4.19881 0.031 4.50799C0.13158 5.28635 0.458357 6.01809 0.970829 6.6125C1.4833 7.20692 2.15894 7.63789 2.914 7.85199L3 7.87499L2.996 16.129L2.879 16.16C2.445 16.281 1.973 16.52 1.602 16.8C1.32034 17.0151 1.06582 17.2636 0.844 17.54C0.458453 18.0376 0.195005 18.6188 0.0748226 19.2367C-0.04536 19.8546 -0.0189263 20.4921 0.152 21.098C0.301599 21.621 0.556266 22.1079 0.90044 22.5292C1.24461 22.9504 1.67106 23.297 2.15373 23.5478C2.6364 23.7987 3.16514 23.9485 3.70765 23.988C4.25016 24.0276 4.79504 23.9561 5.309 23.778C5.899 23.578 6.414 23.25 6.863 22.793C7.324 22.316 7.656 21.758 7.836 21.133L7.871 21.003L16.125 21L16.148 21.086C16.3906 21.944 16.9129 22.6964 17.632 23.2236C18.3511 23.7509 19.2257 24.0227 20.117 23.996C21.0752 23.9708 21.9921 23.6004 22.699 22.953C23.055 22.633 23.383 22.195 23.598 21.753C23.86 21.2107 23.997 20.6165 23.9989 20.0142C24.0008 19.412 23.8676 18.8169 23.609 18.273C23.3646 17.7592 23.013 17.3037 22.5778 16.9371C22.1426 16.5706 21.6339 16.3015 21.086 16.148L21 16.125V7.87499L21.086 7.85199C22.0445 7.58345 22.868 6.96642 23.395 6.12199C23.5291 5.89212 23.6464 5.65282 23.746 5.40599C23.9835 4.76385 24.0547 4.07206 23.953 3.39499C23.8441 2.67487 23.5402 1.99827 23.0744 1.43845C22.6085 0.878624 21.9984 0.456919 21.31 0.218993C20.5286 -0.0480492 19.6842 -0.0700299 18.89 0.155993C18.2356 0.343735 17.64 0.695683 17.16 1.1784C16.6799 1.66112 16.3312 2.25857 16.147 2.91399L16.125 2.99999H7.875L7.852 2.91399C7.64012 2.16078 7.21166 1.4864 6.61984 0.974575C6.02802 0.462752 5.29889 0.136035 4.523 0.0349931C4.24164 0.0061145 3.95851 -0.00157383 3.676 0.0119931ZM16.168 5.14799C16.246 5.40999 16.375 5.72299 16.52 5.96799C16.7793 6.42868 17.1277 6.83314 17.5449 7.1578C17.9621 7.48246 18.4397 7.72083 18.95 7.85899L18.992 7.87099V16.129L18.949 16.141C18.7678 16.1908 18.5904 16.2533 18.418 16.328C17.8812 16.5586 17.4016 16.9041 17.0128 17.3402C16.6241 17.7763 16.3357 18.2924 16.168 18.852L16.128 18.988L12 18.992C8.703 18.996 7.875 18.992 7.871 18.98C7.79685 18.7108 7.69636 18.4495 7.571 18.2C7.14565 17.3528 6.43232 16.6848 5.559 16.316C5.38145 16.2468 5.20132 16.1844 5.019 16.129C5.008 16.125 5.004 15.297 5.008 12L5.012 7.87099L5.148 7.83199C5.618 7.69499 6.109 7.43799 6.512 7.11699C6.676 6.98399 6.984 6.67599 7.117 6.50699C7.437 6.10899 7.687 5.63299 7.828 5.15999C7.848 5.08999 7.868 5.02699 7.871 5.01999C7.875 5.00799 8.707 5.00399 12 5.00799H16.129L16.168 5.14799ZM4.23 18.012C4.51754 18.0453 4.7945 18.1403 5.04198 18.2904C5.28946 18.4406 5.50163 18.6424 5.664 18.882C5.84854 19.1577 5.96178 19.4749 5.99358 19.8051C6.02538 20.1353 5.97474 20.4683 5.8462 20.7741C5.71766 21.08 5.51524 21.3491 5.25708 21.5575C4.99891 21.7659 4.69308 21.9069 4.367 21.968C4.11663 22.0002 3.86311 21.9992 3.613 21.965C3.30684 21.9027 3.0193 21.7702 2.773 21.578C2.39223 21.2864 2.13118 20.8657 2.039 20.395C2.012 20.281 2.012 20.238 2.012 19.996C2.012 19.762 2.016 19.715 2.035 19.606C2.10143 19.2818 2.24665 18.9789 2.45785 18.7241C2.66905 18.4693 2.93973 18.2704 3.246 18.145C3.555 18.023 3.918 17.973 4.23 18.012Z" fill="#202020"/>
</svg>
