<svg width="24" height="24" viewBox="0 0 24 24" fill="none" xmlns="http://www.w3.org/2000/svg">
<path d="M5.727 3.01201C5.23259 3.057 4.75708 3.22399 4.34309 3.498C3.92911 3.77202 3.5896 4.14448 3.355 4.58201C3.01633 5.21735 2.91687 5.95312 3.07469 6.65559C3.2325 7.35805 3.63712 7.98057 4.215 8.41001C5.02 9.01201 6.085 9.16001 7.047 8.81201L7.148 8.77301L7.168 8.71101C7.355 8.03501 7.648 7.44501 8.058 6.91801C8.281 6.63301 8.578 6.32801 8.852 6.11301L9.004 5.99301L8.996 5.85201C8.96655 5.22429 8.74008 4.62181 8.34874 4.13012C7.95741 3.63844 7.4211 3.28255 6.816 3.11301C6.46153 3.01497 6.09245 2.98077 5.726 3.01201H5.727ZM17.727 3.01201C17.3917 3.04416 17.064 3.13132 16.757 3.27001C16.3139 3.4699 15.9265 3.77514 15.6284 4.15913C15.3303 4.54312 15.1307 4.99418 15.047 5.47301C15.0223 5.62528 15.0066 5.77888 15 5.93301V5.99301L15.113 6.08601C15.6995 6.55006 16.1725 7.14172 16.496 7.81601C16.645 8.11701 16.742 8.37501 16.836 8.71101L16.852 8.77301L16.953 8.81301C17.3739 8.96758 17.8239 9.02669 18.2704 8.98604C18.717 8.9454 19.1489 8.80603 19.535 8.57801C19.9181 8.35105 20.2456 8.0414 20.4937 7.67168C20.7418 7.30196 20.9042 6.88151 20.969 6.44101C21.0041 6.14805 21.0041 5.85196 20.969 5.55901C20.8904 5.02938 20.6714 4.53045 20.3349 4.11404C19.9983 3.69763 19.5564 3.37892 19.055 3.19101C18.6307 3.0353 18.1775 2.97388 17.727 3.01101V3.01201ZM11.785 7.00801C11.2885 7.04351 10.8087 7.20205 10.3889 7.46933C9.969 7.73662 9.62228 8.10423 9.38 8.53901C9.17269 8.91755 9.04811 9.33579 9.01449 9.76607C8.98088 10.1963 9.039 10.6289 9.185 11.035C9.235 11.18 9.38 11.477 9.455 11.59C9.7 11.977 10.04 12.316 10.411 12.547C10.759 12.762 11.141 12.902 11.567 12.969C11.759 13 12.243 13 12.435 12.969C13.0993 12.8743 13.7118 12.5574 14.173 12.07C14.6454 11.5727 14.9335 10.9289 14.9895 10.2453C15.0455 9.56173 14.8661 8.87956 14.481 8.31201C14.1846 7.87842 13.7799 7.52993 13.3071 7.30117C12.8343 7.07241 12.3099 6.97134 11.786 7.00801H11.785ZM5.637 11.012C5.277 11.035 5.055 11.066 4.754 11.125C3.18495 11.4514 1.80715 12.3816 0.918 13.715C0.59 14.211 0.266 14.915 0.207 15.262C0.16 15.527 0.207 15.832 0.324 16.066C0.43 16.281 0.637 16.508 0.848 16.648C1.047 16.781 1.203 16.852 1.43 16.914C1.672 16.98 1.68 16.98 3.418 16.98H5.016L5.059 16.906C5.4471 16.2671 5.92008 15.6838 6.465 15.172C7.078 14.605 7.711 14.172 8.441 13.812C8.51009 13.7845 8.57585 13.7493 8.637 13.707C8.61382 13.6795 8.58766 13.6547 8.559 13.633C7.87572 12.9844 7.3897 12.1559 7.157 11.243L7.121 11.113L6.93 11.082C6.73873 11.0491 6.54576 11.0271 6.352 11.016C6.11382 11.005 5.87529 11.0036 5.637 11.012ZM17.555 11.016C17.375 11.031 17.215 11.046 17.031 11.078L16.879 11.102L16.848 11.238C16.828 11.313 16.781 11.465 16.746 11.582C16.4998 12.3277 16.0796 13.004 15.52 13.555C15.4587 13.6135 15.4 13.6745 15.344 13.738C15.344 13.742 15.461 13.801 15.605 13.871C16.215 14.18 16.781 14.566 17.305 15.027C17.469 15.172 17.813 15.52 17.973 15.695C18.301 16.062 18.653 16.539 18.859 16.895L18.91 16.98H20.504C21.492 16.98 22.137 16.977 22.204 16.969C22.996 16.879 23.614 16.355 23.727 15.684C23.75 15.543 23.742 15.336 23.707 15.184C23.633 14.844 23.324 14.191 23.023 13.734C22.6329 13.1493 22.1471 12.6344 21.586 12.211C20.4269 11.3465 18.998 10.9229 17.555 11.016ZM11.629 15.012C10.4784 15.0759 9.37011 15.4673 8.43451 16.14C7.49891 16.8127 6.77499 17.7387 6.348 18.809C6.211 19.149 6.18 19.301 6.191 19.547C6.207 19.871 6.332 20.164 6.578 20.418C6.828 20.688 7.168 20.868 7.578 20.949C7.676 20.969 7.902 20.969 11.973 20.969H16.262L16.382 20.945C16.965 20.816 17.434 20.461 17.632 20.004C17.7043 19.8461 17.7392 19.6736 17.734 19.5C17.738 19.242 17.707 19.117 17.551 18.738C17.0647 17.5623 16.2199 16.5699 15.137 15.902C14.8535 15.7338 14.5596 15.5838 14.257 15.453C13.6933 15.2227 13.0984 15.0777 12.492 15.023C12.2047 15.0056 11.9167 15.002 11.629 15.012Z" fill="#202020"/>
</svg>
