<svg width="24" height="24" viewBox="0 0 24 24" fill="none" xmlns="http://www.w3.org/2000/svg">
<path d="M9.172 0.0120092C8.54411 0.0590109 7.933 0.236851 7.37794 0.534102C6.82287 0.831353 6.33613 1.24144 5.949 1.73801C5.36569 2.4827 5.03595 3.39448 5.008 4.34001C5 4.54701 5.004 4.60501 5.02 4.68801C5.05767 4.88192 5.15192 5.06033 5.29087 5.20074C5.42982 5.34114 5.60724 5.43725 5.80075 5.47693C5.99425 5.51662 6.19518 5.4981 6.37818 5.42373C6.56118 5.34935 6.71805 5.22244 6.829 5.05901C6.949 4.87501 6.98 4.75801 6.996 4.47701C7.012 4.21501 7.036 4.05101 7.086 3.85901C7.168 3.53901 7.296 3.27301 7.508 2.99201C7.91235 2.46076 8.51064 2.11128 9.172 2.02001C9.344 2.00001 9.652 2.00001 9.828 2.02001C10.4184 2.09982 10.9612 2.38713 11.3591 2.83052C11.7571 3.27391 11.9842 3.84444 12 4.44001C12.012 4.69001 12.035 4.79201 12.105 4.93701C12.2012 5.13466 12.3611 5.2942 12.559 5.39001C12.727 5.47601 12.793 5.48701 12.996 5.48701C13.122 5.49489 13.2483 5.47567 13.3663 5.43064C13.4843 5.38562 13.5912 5.31585 13.68 5.22601C13.8555 5.06466 13.9664 4.84503 13.992 4.60801C14.012 4.43701 13.988 4.05001 13.934 3.72901C13.7293 2.56027 13.0722 1.51935 12.105 0.832009C11.2514 0.228003 10.215 -0.0617504 9.172 0.0120092Z" fill="#202020"/>
<path d="M9.371 4.00801C9.17956 4.02534 8.99303 4.07825 8.821 4.16401C8.62229 4.26632 8.44851 4.41109 8.31199 4.58805C8.17547 4.76501 8.07954 4.96984 8.031 5.18801C8.011 5.26201 8.011 5.62501 8.004 10.656L8 16.046L7.973 16.145C7.93066 16.2993 7.85247 16.4414 7.7448 16.5598C7.63713 16.6782 7.50303 16.7694 7.35342 16.8261C7.20381 16.8829 7.04291 16.9035 6.88384 16.8862C6.72476 16.869 6.572 16.8144 6.438 16.727C6.34057 16.6517 6.25378 16.5636 6.18 16.465C6.16 16.434 5.738 15.707 5.238 14.84C4.742 13.977 4.305 13.234 4.273 13.188C4.05953 12.8894 3.74409 12.6793 3.38626 12.5973C3.02843 12.5154 2.65299 12.5674 2.33086 12.7434C2.00873 12.9194 1.76222 13.2073 1.63788 13.5527C1.51354 13.8981 1.51998 14.2771 1.656 14.618C1.691 14.699 5.726 21.789 5.918 22.094C6.168 22.504 6.523 22.898 6.91 23.187C7.42159 23.5722 8.01721 23.8306 8.648 23.941C8.977 23.996 8.844 23.992 12.398 23.992C15.578 23.992 15.762 23.992 15.898 23.972C16.4714 23.8927 17.0098 23.65 17.449 23.273C17.906 22.887 18.246 22.34 18.395 21.753C18.441 21.59 19.34 16.656 19.367 16.441C19.4418 15.7889 19.3574 15.1284 19.121 14.516C18.9718 14.1556 18.7776 13.8156 18.543 13.504C18.0512 12.8792 17.3851 12.4142 16.629 12.168C16.562 12.145 15.589 11.898 14.473 11.618C13.7579 11.4425 13.0442 11.2612 12.332 11.074C12.0056 10.9569 11.7149 10.7577 11.4878 10.4957C11.2606 10.2337 11.1047 9.91769 11.035 9.57801L11.012 9.44901L11.004 7.38701C10.996 5.10901 11 5.26601 10.922 5.02701C10.8157 4.70766 10.605 4.43339 10.3238 4.24836C10.0426 4.06333 9.70736 3.97832 9.372 4.00701L9.371 4.00801Z" fill="#202020"/>
</svg>
