<svg width="24" height="24" viewBox="0 0 24 24" fill="none" xmlns="http://www.w3.org/2000/svg">
<g clip-path="url(#clip0_2064_44477)">
<path d="M9.785 0.012C9.49517 0.0445812 9.21586 0.139693 8.96638 0.290764C8.7169 0.441835 8.50318 0.645265 8.34 0.887C8.2 1.102 8.098 1.347 8.035 1.617L8.012 1.738V3.988C8.012 6.098 8.012 6.246 8.032 6.348C8.09 6.66 8.207 6.934 8.391 7.188C8.418 7.227 8.511 7.328 8.598 7.414C8.824 7.644 9.078 7.801 9.375 7.898C9.648 7.988 9.816 8.004 10.504 8.004H11.004V11.004L8.797 11.008C6.766 11.008 6.578 11.012 6.434 11.031C6.187 11.062 6.024 11.094 5.797 11.148C4.91958 11.3645 4.11824 11.8172 3.48 12.457C2.7534 13.177 2.26541 14.1027 2.082 15.109C2.012 15.5 2.012 15.484 2.004 16.879L2 18.168L1.887 18.215C1.46772 18.3863 1.09044 18.6463 0.781 18.977C0.371 19.441 0.125 19.953 0.031 20.559C-0.00409055 20.852 -0.00409055 21.148 0.031 21.441C0.0923472 21.8525 0.238737 22.2466 0.460839 22.5984C0.682941 22.9501 0.975884 23.2517 1.321 23.484C1.69945 23.7393 2.13103 23.9051 2.58306 23.9689C3.03509 24.0326 3.49571 23.9927 3.93 23.852C4.93 23.532 5.695 22.692 5.926 21.668C5.976 21.43 5.992 21.281 5.992 21C5.992 20.719 5.977 20.57 5.926 20.332C5.82029 19.8728 5.60822 19.4447 5.30687 19.0824C5.00552 18.7201 4.6233 18.4336 4.191 18.246C4.113 18.215 4.039 18.18 4.023 18.176L3.996 18.164V17.054C3.996 15.949 4.004 15.734 4.039 15.516C4.14928 14.8506 4.47997 14.2416 4.97797 13.7868C5.47597 13.3319 6.11238 13.0577 6.785 13.008C6.883 13 7.719 12.996 8.973 12.996H11.003L11 15.582V18.168L10.887 18.215C10.4677 18.3863 10.0904 18.6463 9.781 18.977C9.371 19.441 9.125 19.953 9.031 20.559C9.011 20.695 9.008 20.773 9.008 21C9.008 21.227 9.012 21.305 9.031 21.441C9.09235 21.8525 9.23874 22.2466 9.46084 22.5984C9.68294 22.9501 9.97588 23.2517 10.321 23.484C10.6994 23.7393 11.131 23.9051 11.5831 23.9689C12.0351 24.0326 12.4957 23.9927 12.93 23.852C13.93 23.532 14.695 22.692 14.926 21.668C14.976 21.43 14.992 21.281 14.992 21C14.992 20.719 14.977 20.57 14.926 20.332C14.8203 19.8728 14.6082 19.4447 14.3069 19.0824C14.0055 18.7201 13.6233 18.4336 13.191 18.246C13.113 18.215 13.039 18.18 13.023 18.176L12.996 18.164V12.996H15.027C17.059 12.996 17.247 13 17.484 13.039C18.0575 13.1342 18.5913 13.3932 19.021 13.7848C19.4507 14.1763 19.758 14.6838 19.906 15.246C20 15.621 20.008 15.754 20 17.078V18.168L19.887 18.215C19.4677 18.3863 19.0904 18.6463 18.781 18.977C18.371 19.441 18.125 19.953 18.031 20.559C17.9959 20.852 17.9959 21.148 18.031 21.441C18.0923 21.8525 18.2387 22.2466 18.4608 22.5984C18.6829 22.9501 18.9759 23.2517 19.321 23.484C19.6994 23.7393 20.131 23.9051 20.5831 23.9689C21.0351 24.0326 21.4957 23.9927 21.93 23.852C22.93 23.532 23.695 22.692 23.926 21.668C23.976 21.43 23.992 21.281 23.992 21C23.992 20.64 23.957 20.39 23.855 20.074C23.7189 19.6542 23.4919 19.2695 23.1901 18.9475C22.8883 18.6255 22.5191 18.374 22.109 18.211L22.004 18.168L21.996 16.875C21.988 15.488 21.988 15.527 21.926 15.141C21.7497 14.1328 21.2683 13.2029 20.5467 12.4771C19.8251 11.7512 18.8982 11.2642 17.891 11.082C17.477 11.008 17.621 11.012 15.203 11.008L12.996 11.004V8.004H13.496C14.039 8.004 14.223 7.996 14.402 7.957C14.766 7.883 15.109 7.703 15.379 7.441C15.645 7.184 15.82 6.895 15.922 6.551C16 6.266 15.996 6.383 15.992 3.93L15.988 1.727L15.965 1.609C15.835 1.059 15.551 0.633 15.102 0.332C14.8313 0.153897 14.5214 0.0440925 14.199 0.012C14.063 -0.004 9.918 -0.004 9.785 0.012Z" fill="#202020"/>
</g>
<defs>
<clipPath id="clip0_2064_44477">
<rect width="24" height="24" fill="white"/>
</clipPath>
</defs>
</svg>
