<svg width="24" height="24" viewBox="0 0 24 24" fill="none" xmlns="http://www.w3.org/2000/svg">
<path d="M3.75 0.00810963C2.89921 0.0627962 2.08797 0.387151 1.434 0.93411C1.274 1.06611 0.977 1.37111 0.852 1.53511C0.358558 2.16197 0.0657932 2.92316 0.012 3.71911C0.004 3.84811 -2.32831e-10 6.26611 0.004 12.1171L0.008 20.3361L0.031 20.5161C0.101 20.9881 0.211 21.3481 0.411 21.7541C0.80931 22.573 1.47642 23.2306 2.301 23.6171C2.738 23.8281 3.215 23.9491 3.727 23.9881C3.847 23.9961 6.313 24.0001 12.117 23.9961L20.34 23.9921L20.516 23.9691C21.2439 23.8715 21.9313 23.5769 22.504 23.1171C22.648 23.0001 22.93 22.7301 23.047 22.5861C23.5472 21.9992 23.8673 21.2805 23.969 20.5161C23.992 20.3401 23.992 20.3131 23.996 18.6451C24 17.4411 23.996 16.9251 23.988 16.8591C23.959 16.6572 23.869 16.4691 23.7302 16.3197C23.5913 16.1703 23.4102 16.0668 23.211 16.0231C23.0686 15.9996 22.9234 15.9996 22.781 16.0231C22.402 16.1131 22.129 16.3911 22.023 16.7811C22.003 16.8511 22.003 17.0041 21.996 18.5661L21.988 20.2771L21.961 20.3951C21.867 20.8251 21.676 21.1651 21.371 21.4531C21.0751 21.7359 20.6982 21.9191 20.293 21.9771C20.188 21.9921 19.219 21.9971 12 21.9971C3.078 21.9971 3.746 22.0001 3.48 21.9301C3.14086 21.8426 2.83272 21.6626 2.59 21.4101C2.33751 21.1674 2.15748 20.8592 2.07 20.5201C2 20.2541 2.004 20.9221 2.004 12.0001C2.004 4.78111 2.008 3.81211 2.024 3.70711C2.082 3.29711 2.262 2.93411 2.547 2.62911C2.83074 2.32773 3.19996 2.12044 3.605 2.03511L3.723 2.01211L7.43 2.00411C11.512 1.99611 11.188 2.00411 11.371 1.92611C11.883 1.71911 12.133 1.13311 11.926 0.62511C11.8156 0.369654 11.6095 0.167571 11.352 0.0621096C11.168 -0.00389037 11.402 0.000109632 7.437 0.00410963C5.437 0.00410963 3.781 0.00410963 3.75 0.00810963Z" fill="#202020"/>
<path d="M21.406 1.09011C20.4919 1.19554 19.5871 1.36936 18.699 1.61011C16.445 2.23011 14.48 3.21911 12.91 4.52311C12.3515 4.98751 11.8376 5.50309 11.375 6.06311C10.4954 7.13948 9.84046 8.38128 9.449 9.71511C9.25445 10.3941 9.12388 11.0898 9.059 11.7931C9.05436 11.8533 9.04769 11.9134 9.039 11.9731L9.035 12.0001H7.785C6.98 12.0001 6.496 12.0041 6.434 12.0121C5.793 12.0941 5.293 12.5591 5.148 13.2071C5.12086 13.3828 5.11716 13.5614 5.137 13.7381C5.176 13.9681 5.273 14.1991 5.41 14.3781C5.504 14.5081 10.691 19.6911 10.812 19.7781C11.004 19.9221 11.262 20.0431 11.488 20.1021C11.863 20.1991 12.266 20.1871 12.625 20.0701C12.8553 19.9938 13.0698 19.8762 13.258 19.7231C13.402 19.6051 18.555 14.4411 18.613 14.3551C18.7849 14.1075 18.8776 13.8135 18.879 13.5121C18.879 12.8721 18.465 12.2771 17.875 12.0821C17.633 12.0041 17.727 12.0081 16.325 12.0041L15.054 12.0001L15.062 11.9601L15.081 11.8241C15.131 11.4301 15.245 10.8911 15.374 10.4491C16.026 8.18411 17.421 6.23011 19.19 5.10911C19.8714 4.67381 20.6222 4.35826 21.41 4.17611C21.675 4.11311 21.808 4.07011 21.956 4.00011C22.186 3.89511 22.366 3.76211 22.542 3.58211C22.847 3.26611 22.995 2.91011 22.995 2.50011C22.9988 2.20989 22.9144 1.92535 22.753 1.68411C22.653 1.53149 22.5233 1.40059 22.3716 1.29922C22.2199 1.19785 22.0493 1.12809 21.87 1.09411C21.7155 1.07702 21.5607 1.07568 21.406 1.09011Z" fill="#202020"/>
</svg>
