<svg width="24" height="24" viewBox="0 0 24 24" fill="none" xmlns="http://www.w3.org/2000/svg">
<path d="M11.45 0.012044C8.93596 0.121281 6.52035 1.02031 4.54662 2.58131C2.57289 4.1423 1.14151 6.28581 0.456 8.70704C0.220559 9.54226 0.0740787 10.4 0.019 11.266C0.00339297 11.7539 0.00339297 12.2422 0.019 12.73C0.116 14.09 0.374 15.246 0.839 16.422C1.4755 18.0398 2.45754 19.4991 3.71652 20.698C4.9755 21.8968 6.48105 22.8064 8.128 23.363C9.882 23.957 11.78 24.141 13.64 23.887C15.4662 23.6397 17.2106 22.9737 18.737 21.941C20.3068 20.8756 21.6027 19.4543 22.519 17.793C22.659 17.539 22.905 17.035 23.022 16.758C23.464 15.727 23.761 14.648 23.897 13.551C23.972 12.984 23.991 12.625 23.991 12.004C23.991 11.473 23.983 11.266 23.941 10.816C23.7517 8.847 23.0765 6.95576 21.976 5.31204C20.6849 3.39051 18.8679 1.88139 16.742 0.965044C15.6299 0.494932 14.4546 0.191011 13.254 0.063044C12.746 0.012044 11.923 -0.011956 11.45 0.012044ZM12.21 6.02304C12.418 6.06604 12.64 6.20304 12.773 6.36704C12.8507 6.46034 12.9091 6.56807 12.945 6.68404C12.985 6.78904 12.988 6.82004 12.992 6.95704C13.0035 7.12114 12.9725 7.28544 12.902 7.43404C12.8212 7.60424 12.6933 7.74767 12.5334 7.84729C12.3735 7.94691 12.1884 7.99854 12 7.99604C11.8111 7.99868 11.6254 7.94666 11.4654 7.84625C11.3054 7.74583 11.1778 7.60129 11.098 7.43004C11.0376 7.31149 11.0067 7.1801 11.008 7.04704C10.9956 6.91159 11.0145 6.7751 11.063 6.64804C11.23 6.19104 11.723 5.92204 12.211 6.02304H12.21ZM12.246 10.031C12.606 10.121 12.891 10.411 12.973 10.773L12.996 10.879L12.992 14.039V17.195L12.949 17.312C12.8822 17.5106 12.7549 17.6832 12.5849 17.8056C12.4149 17.928 12.2109 17.994 12.0014 17.9945C11.792 17.9949 11.5877 17.9297 11.4172 17.808C11.2467 17.6863 11.1186 17.5143 11.051 17.316L11.011 17.196V14.008C11.011 10.426 11 10.778 11.098 10.57C11.1969 10.3608 11.3656 10.1926 11.5751 10.0942C11.7846 9.99585 12.0218 9.97352 12.246 10.031Z" fill="#202020"/>
</svg>
