<svg width="24" height="24" viewBox="0 0 24 24" fill="none" xmlns="http://www.w3.org/2000/svg">
<path d="M11.566 0.00797164C9.79 0.0899716 8.246 0.472972 6.734 1.20997C5.00461 2.05066 3.5034 3.2959 2.35762 4.84015C1.21183 6.3844 0.45525 8.18214 0.152 10.081C0.043 10.766 0.008 11.266 0.008 12C-0.00160423 14.309 0.659119 16.5711 1.91 18.512C2.99648 20.1913 4.48385 21.5739 6.238 22.535C8.67623 23.8588 11.4958 24.303 14.223 23.793C15.7191 23.5167 17.1483 22.9559 18.433 22.141C19.5441 21.4331 20.5324 20.5488 21.359 19.523C22.831 17.6908 23.7305 15.4654 23.945 13.125C23.985 12.707 23.992 12.508 23.992 12C23.992 11.23 23.949 10.672 23.824 9.94997C23.298 6.87653 21.5939 4.12948 19.074 2.29297C17.6821 1.28183 16.0886 0.582617 14.402 0.242972C13.863 0.132972 13.406 0.0699717 12.832 0.0269716C12.4103 0.00683756 11.9881 0.000167492 11.566 0.00697164V0.00797164ZM12.828 2.03097C13.718 2.11297 14.426 2.25797 15.218 2.52297C16.8032 3.06126 18.2282 3.98815 19.363 5.21897C20.6421 6.60553 21.4999 8.3277 21.836 10.184C21.949 10.793 21.996 11.34 21.996 11.996C22.0029 14.1386 21.3194 16.2265 20.0467 17.9503C18.774 19.674 16.9798 20.9419 14.93 21.566C14.262 21.77 13.605 21.895 12.832 21.969C12.555 21.992 11.766 22.004 11.449 21.984C9.81562 21.8996 8.22847 21.4125 6.829 20.566C5.70928 19.8906 4.7323 19.003 3.953 17.953C3.05963 16.7457 2.45202 15.3513 2.176 13.875C2.109 13.535 2.059 13.152 2.023 12.75C2 12.465 2.003 11.469 2.031 11.18C2.18 9.52697 2.661 8.06997 3.504 6.70697C4.10381 5.7465 4.86185 4.89447 5.746 4.18697C7.38271 2.87723 9.39035 2.11623 11.484 2.01197C11.9321 2.00524 12.3803 2.01191 12.828 2.03197V2.03097Z" fill="#202020"/>
<path d="M11.852 6.01197C11.535 6.06197 11.262 6.25797 11.117 6.53897C11.0372 6.67889 11.0007 6.83931 11.012 6.99997C11.012 7.19497 11.023 7.26197 11.094 7.41397C11.1563 7.55083 11.2488 7.67184 11.3645 7.76794C11.4801 7.86405 11.616 7.93277 11.762 7.96897C11.891 8.00397 12.109 8.00397 12.242 7.96897C12.355 7.93697 12.512 7.86697 12.594 7.80497C12.77 7.67197 12.887 7.50797 12.957 7.28897C12.984 7.19897 12.988 7.17597 12.988 7.00797C12.992 6.85197 12.988 6.81197 12.965 6.73397C12.9081 6.5305 12.7883 6.35026 12.6227 6.21912C12.457 6.08797 12.2541 6.01265 12.043 6.00397C11.973 6.00397 11.887 6.00397 11.852 6.01197ZM11.879 10.008C11.73 10.023 11.559 10.09 11.426 10.18C11.2724 10.293 11.1522 10.4453 11.078 10.621C11 10.809 11.004 10.562 11.008 14.039L11.012 17.184L11.035 17.274C11.145 17.617 11.41 17.875 11.75 17.969C11.879 18.004 12.121 18.004 12.254 17.969C12.449 17.914 12.644 17.789 12.77 17.641C12.848 17.543 12.93 17.391 12.965 17.266L12.992 17.172V10.809L12.957 10.711C12.9091 10.5574 12.8263 10.4171 12.715 10.301C12.5519 10.1353 12.3362 10.0317 12.105 10.008C11.996 9.99597 11.996 9.99597 11.879 10.008Z" fill="#202020"/>
</svg>
