<svg width="24" height="24" viewBox="0 0 24 24" fill="none" xmlns="http://www.w3.org/2000/svg">
<path d="M10.777 0.889917C10.297 0.944917 9.852 1.15592 9.516 1.48792C9.25013 1.74848 9.05771 2.07457 8.95816 2.43328C8.85861 2.79198 8.85545 3.1706 8.949 3.53092C9.031 3.85492 9.191 4.14792 9.438 4.43392L9.496 4.49992L4.504 9.49592L4.387 9.39492C4.00127 9.06303 3.50886 8.88126 3 8.88292C2.434 8.88292 1.906 9.09792 1.504 9.49592C1.12883 9.87183 0.907935 10.3746 0.884802 10.9051C0.861668 11.4357 1.03797 11.9558 1.379 12.3629C1.516 12.5269 8.617 19.6169 8.719 19.6909C9.14604 20.0099 9.67633 20.1588 10.207 20.1089C10.5039 20.0793 10.7913 19.9875 11.0504 19.8395C11.3096 19.6915 11.5346 19.4906 11.711 19.2499C11.9664 18.8976 12.108 18.4757 12.1169 18.0407C12.1259 17.6057 12.0017 17.1784 11.761 16.8159C11.727 16.7699 11.656 16.6799 11.605 16.6129L11.504 16.4959L16.5 11.5039L16.566 11.5629C16.879 11.8359 17.191 11.9959 17.582 12.0779C17.777 12.1179 18.086 12.1279 18.282 12.1019C18.797 12.0269 19.242 11.7889 19.574 11.4179C20.258 10.6559 20.304 9.55492 19.691 8.71792C19.613 8.61792 12.527 1.51592 12.359 1.37492C12.075 1.13869 11.7346 0.980197 11.371 0.914917C11.1744 0.885838 10.9753 0.876793 10.777 0.889917Z" fill="currentColor"/>
<path d="M16.379 13.9219C16.2206 13.9427 16.0692 14.0002 15.937 14.0899C15.863 14.1369 14.152 15.8479 14.097 15.9259C13.9807 16.0922 13.9178 16.2899 13.9165 16.4928C13.9153 16.6957 13.9758 16.8942 14.09 17.0619C14.133 17.1249 19.543 22.5429 19.66 22.6409C19.977 22.9019 20.363 23.0629 20.793 23.1089C20.945 23.1249 21.074 23.1249 21.246 23.1019C21.715 23.0509 22.129 22.8549 22.461 22.5319C22.84 22.1679 23.051 21.7299 23.109 21.2069C23.1612 20.6591 23.0004 20.1123 22.66 19.6799C22.574 19.5739 17.14 14.1449 17.074 14.0979C16.9349 14.0008 16.7736 13.9402 16.605 13.9219C16.496 13.9099 16.496 13.9099 16.379 13.9219ZM0.879 22.0079C0.709467 22.0285 0.548128 22.0926 0.410603 22.1938C0.273078 22.2951 0.164025 22.4302 0.094 22.5859C0.0383437 22.7084 0.00795329 22.8409 0.00464485 22.9754C0.00133641 23.1099 0.0251779 23.2437 0.0747445 23.3688C0.124311 23.4938 0.198585 23.6076 0.293129 23.7034C0.387672 23.7991 0.500545 23.8748 0.625 23.9259C0.828 24.0079 0.273 23.9999 7.051 23.9959C12.977 23.9919 13.168 23.9919 13.242 23.9729C13.703 23.8399 13.996 23.4609 13.996 22.9959C13.996 22.5359 13.696 22.1519 13.238 22.0269L13.145 21.9999H7.05C3.698 21.9999 0.921 22.0039 0.879 22.0079Z" fill="currentColor"/>
</svg>
