<svg width="24" height="24" viewBox="0 0 24 24" fill="none" xmlns="http://www.w3.org/2000/svg">
<path d="M13.707 2.02693C13.4768 2.06783 13.2572 2.15471 13.0614 2.28237C12.8655 2.41002 12.6974 2.57584 12.567 2.76993C12.523 2.83993 9.582 7.97993 9.465 8.19093C9.22877 8.64528 9.07794 9.13912 9.02 9.64793C9 9.83593 9 18.3709 9.02 18.5389C9.145 19.4339 9.605 20.1869 10.344 20.6759C10.637 20.8749 11.016 21.0359 11.355 21.1089C11.582 21.1559 16.371 22.0229 16.508 22.0389C16.695 22.0619 17.168 22.0659 17.352 22.0469C18.1443 21.9615 18.8941 21.6451 19.508 21.1369C19.664 21.0069 19.93 20.7419 20.055 20.5819C20.418 20.1289 20.68 19.6089 20.82 19.0659C20.836 18.9999 21.148 17.2419 21.516 15.1599C21.883 13.0779 22.188 11.3629 22.191 11.3549L22.207 11.1989C22.2307 10.8784 22.1685 10.5574 22.027 10.2689C21.699 9.58893 20.992 9.09793 20.211 9.01193C20.137 9.00393 19.375 8.99993 17.832 8.99993C15.375 8.99993 15.472 9.00393 15.242 8.93393C15.0864 8.88823 14.9389 8.81838 14.805 8.72693C14.6495 8.61262 14.5123 8.47539 14.398 8.31993C14.2202 8.06295 14.1259 7.75741 14.128 7.44493C14.128 7.19093 14.176 6.97693 14.285 6.76193C14.312 6.70693 14.609 6.18393 14.945 5.59793C15.285 4.99993 15.578 4.47693 15.605 4.40993C16 3.48793 15.512 2.40993 14.562 2.08993C14.2857 2.00293 13.993 1.98136 13.707 2.02693ZM3.785 9.01193C3.49517 9.04451 3.21586 9.13962 2.96638 9.29069C2.7169 9.44176 2.50318 9.64519 2.34 9.88693C2.2 10.1019 2.098 10.3469 2.035 10.6169L2.012 10.7379V19.2579L2.035 19.3829C2.16 19.9379 2.453 20.3749 2.915 20.6759C3.145 20.8279 3.422 20.9339 3.715 20.9799C3.859 20.9999 5.172 20.9999 5.297 20.9799C5.70505 20.916 6.08371 20.7286 6.38196 20.4429C6.6802 20.1571 6.88369 19.7869 6.965 19.3819L6.992 19.2579V10.7379L6.965 10.6179C6.88031 10.1969 6.66327 9.81402 6.34557 9.5251C6.02786 9.23618 5.62613 9.05637 5.199 9.01193C4.7278 8.9963 4.2562 8.9963 3.785 9.01193Z" fill="#202020"/>
</svg>
