<svg width="24" height="24" viewBox="0 0 24 24" fill="none" xmlns="http://www.w3.org/2000/svg">
<path d="M0.875 0.00806686C0.805 0.0160669 0.66 0.0580669 0.594 0.0860669C0.48 0.136067 0.375 0.215067 0.28 0.313067C0.140475 0.452501 0.0493453 0.633008 0.02 0.828067C5.82077e-10 0.922067 1.16415e-10 1.90607 0.004 10.1521C0.008 18.7151 0.008 19.3871 0.027 19.5351C0.109 20.1951 0.277 20.7501 0.562 21.3011C1.03834 22.2123 1.78145 22.9564 2.692 23.4341C3.234 23.7191 3.801 23.8871 4.469 23.9731C4.613 23.9931 5.352 23.9931 13.848 23.9961C22.128 24.0001 23.078 24.0001 23.176 23.9801C23.582 23.9101 23.91 23.5821 23.984 23.1721C24.0138 23.014 24.0018 22.851 23.949 22.6991C23.8981 22.5348 23.8055 22.3865 23.6802 22.2687C23.5549 22.1509 23.4011 22.0676 23.234 22.0271L23.141 22.0001L4.648 21.9881L4.512 21.9651C3.852 21.8351 3.359 21.5821 2.906 21.1481C2.446 20.6991 2.168 20.1721 2.036 19.4881L2.012 19.3521L2 0.860067L1.973 0.766067C1.93216 0.598798 1.84841 0.445073 1.73 0.320067C1.62105 0.205853 1.48723 0.118292 1.33895 0.0641814C1.19067 0.0100713 1.03191 -0.00913065 0.875 0.00806686Z" fill="#202020"/>
<path d="M9.89 7.00807C9.71 7.03107 9.535 7.09807 9.398 7.20307C9.355 7.23807 8.168 8.41807 6.762 9.82807C4.746 11.8441 4.192 12.4061 4.156 12.4651C4.0779 12.5889 4.02798 12.7284 4.00978 12.8737C3.99157 13.019 4.00553 13.1665 4.05066 13.3058C4.09578 13.4451 4.17098 13.5728 4.27092 13.6798C4.37086 13.7868 4.49311 13.8705 4.629 13.9251C4.871 14.0231 5.164 14.0201 5.399 13.9181C5.574 13.8401 5.512 13.8981 7.801 11.6131C8.52989 10.8773 9.26425 10.1469 10.004 9.42207C10.008 9.42207 11.219 10.6251 12.691 12.1021C14.559 13.9691 15.395 14.7931 15.445 14.8281C15.6152 14.942 15.8163 15.0008 16.0211 14.9967C16.2259 14.9926 16.4245 14.9257 16.59 14.8051C16.625 14.7771 17.813 13.5981 19.227 12.1841C21.992 9.41807 21.855 9.55907 21.93 9.36407C21.9859 9.21928 22.0076 9.06352 21.9934 8.90896C21.9792 8.7544 21.9294 8.60522 21.848 8.47307C21.7769 8.35976 21.6838 8.26185 21.5743 8.18512C21.4647 8.10839 21.3408 8.0544 21.2101 8.02634C21.0793 7.99828 20.9442 7.99672 20.8128 8.02175C20.6814 8.04678 20.5563 8.09789 20.445 8.17207C20.367 8.22707 19.937 8.64807 18.175 10.4101L16.004 12.5861L13.312 9.89807C10.41 6.99607 10.566 7.14807 10.367 7.07007C10.2155 7.01183 10.0513 6.99057 9.89 7.00807Z" fill="#202020"/>
</svg>
