<svg width="24" height="24" viewBox="0 0 24 24" fill="none" xmlns="http://www.w3.org/2000/svg">
<path d="M3.75 0.00805335C2.89921 0.0627399 2.08797 0.387095 1.434 0.934053C1.274 1.06605 0.977 1.37105 0.852 1.53505C0.358558 2.16191 0.0657932 2.9231 0.012 3.71905C0.004 3.84805 -2.32831e-10 6.26605 0.004 12.1171L0.008 20.3361L0.031 20.5161C0.101 20.9881 0.211 21.3481 0.411 21.7541C0.80931 22.573 1.47642 23.2306 2.301 23.6171C2.738 23.8281 3.215 23.9491 3.727 23.9881C3.847 23.9961 6.313 24.0001 12.117 23.9961L20.34 23.9921L20.516 23.9691C21.2439 23.8714 21.9313 23.5768 22.504 23.1171C22.648 23.0001 22.93 22.7301 23.047 22.5861C23.5472 21.9992 23.8673 21.2804 23.969 20.5161C23.992 20.3401 23.992 20.3131 23.996 18.6451C24 17.4411 23.996 16.9251 23.988 16.8591C23.959 16.6572 23.869 16.469 23.7302 16.3196C23.5913 16.1702 23.4102 16.0668 23.211 16.0231C23.0686 15.9996 22.9234 15.9996 22.781 16.0231C22.402 16.1131 22.129 16.3911 22.023 16.7811C22.003 16.8511 22.003 17.0041 21.996 18.5661L21.988 20.2771L21.961 20.3951C21.867 20.8251 21.676 21.1651 21.371 21.4531C21.0751 21.7358 20.6982 21.919 20.293 21.9771C20.188 21.9921 19.219 21.9971 12 21.9971C3.078 21.9971 3.746 22.0001 3.48 21.9301C3.14086 21.8426 2.83272 21.6625 2.59 21.4101C2.33751 21.1673 2.15748 20.8592 2.07 20.5201C2 20.2541 2.004 20.9221 2.004 12.0001C2.004 3.07405 2 3.74205 2.07 3.48005C2.16 3.13705 2.324 2.85505 2.59 2.59005C2.83356 2.33778 3.14124 2.15663 3.48 2.06605C3.73 2.00405 3.691 2.00405 5.414 2.00405C6.422 2.00405 7.039 2.00005 7.109 1.99205C7.33536 1.96582 7.54592 1.86291 7.70569 1.70043C7.86546 1.53795 7.96481 1.3257 7.98724 1.09893C8.00967 0.872167 7.95383 0.644556 7.82899 0.453926C7.70415 0.263296 7.51783 0.121129 7.301 0.0510534C7.25104 0.0340331 7.1999 0.0206646 7.148 0.0110534C7.078 5.33527e-05 3.898 -0.00394665 3.75 0.00805335Z" fill="#202020"/>
<path d="M11.715 3.01205C11.281 3.05905 10.875 3.31205 10.637 3.68705C10.4986 3.90107 10.4166 4.14667 10.3988 4.40092C10.381 4.65518 10.4278 4.9098 10.535 5.14105C10.648 5.37105 10.66 5.38705 11.68 6.41105L12.633 7.36305L9.219 10.7811C5.555 14.4451 5.739 14.2581 5.589 14.5231C5.484 14.7191 5.41 14.9381 5.363 15.1881C5.343 15.3011 5.343 15.6721 5.363 15.7851C5.441 16.2191 5.602 16.5431 5.906 16.8711C6.148 17.1331 7.422 18.3911 7.523 18.4731C7.82103 18.7076 8.17992 18.852 8.55733 18.8892C8.93474 18.9264 9.31491 18.8549 9.653 18.6831C9.953 18.5351 9.687 18.7891 13.449 15.0311L16.875 11.6051L17.699 12.4301C18.227 12.9531 18.555 13.2731 18.613 13.3161C18.879 13.5121 19.164 13.6061 19.496 13.6061C19.8115 13.6083 20.1196 13.5104 20.3758 13.3264C20.6321 13.1423 20.8233 12.8817 20.922 12.5821C21 12.3481 20.996 12.6451 20.996 8.54305C20.996 4.95305 20.992 4.79305 20.973 4.67605C20.9261 4.4018 20.8232 4.14016 20.6705 3.90753C20.5179 3.67489 20.3189 3.47626 20.086 3.32405C19.8536 3.17375 19.5929 3.07267 19.32 3.02705C19.234 3.00705 18.848 3.00705 15.516 3.00405C13.476 3.00405 11.766 3.00805 11.715 3.01205Z" fill="#202020"/>
</svg>
