<svg width="24" height="24" viewBox="0 0 24 24" fill="none" xmlns="http://www.w3.org/2000/svg">
<path d="M11.625 0.0119685C10.7357 0.0680939 9.87012 0.321579 9.09105 0.754012C8.31198 1.18645 7.639 1.78697 7.121 2.51197C6.5642 3.28427 6.20226 4.17968 6.066 5.12197C6.004 5.52297 6.008 5.42597 6.004 7.78897L6 9.99197L5.898 9.99997C5.70322 10.011 5.50903 10.0307 5.316 10.059C4.496 10.199 3.758 10.582 3.176 11.168C2.5422 11.794 2.13839 12.6157 2.03 13.5C2.01 13.648 2.01 13.828 2.01 16.996C2.01 20.536 2.007 20.383 2.061 20.707C2.198 21.477 2.565 22.203 3.116 22.773C3.77041 23.4546 4.64518 23.8822 5.585 23.98C5.792 24 18.206 24 18.417 23.98C19.306 23.886 20.1379 23.497 20.78 22.875C21.4801 22.2012 21.9082 21.2937 21.983 20.325C21.991 20.223 21.995 19.105 21.991 16.898C21.987 13.289 21.995 13.586 21.917 13.199C21.7507 12.3692 21.3244 11.6141 20.6999 11.043C20.0754 10.4719 19.2852 10.1146 18.444 10.023C18.308 10.003 17.924 10.003 13.151 9.99997L8.003 9.99597V7.87097C8.003 6.07797 8.007 5.72297 8.023 5.58597C8.11702 4.65391 8.53745 3.78508 9.21 3.13297C9.85376 2.50513 10.6906 2.11296 11.585 2.01997C11.795 1.99997 12.206 1.99997 12.413 2.01997C13.2579 2.11017 14.0524 2.46619 14.6821 3.03675C15.3118 3.60732 15.7442 4.36299 15.917 5.19497C15.964 5.42497 15.983 5.59397 15.995 5.88297C16.007 6.17597 16.026 6.27297 16.093 6.41797C16.151 6.54297 16.213 6.62797 16.315 6.72297C16.425 6.82397 16.554 6.90297 16.698 6.95297C16.804 6.98797 16.819 6.98797 16.991 6.98797C17.206 6.98797 17.292 6.96797 17.46 6.88297C17.6503 6.78674 17.803 6.62979 17.894 6.43697C17.991 6.24197 18.011 6.06197 17.987 5.67197C17.9479 4.91631 17.7649 4.17506 17.448 3.48797C16.8481 2.19724 15.8119 1.15964 14.522 0.557969C13.911 0.272958 13.256 0.0937457 12.585 0.0279685C12.2652 0.0051268 11.9444 -0.000214505 11.624 0.0119685H11.625ZM15.246 16.027C15.4245 16.0728 15.5869 16.1672 15.7152 16.2995C15.8435 16.4319 15.9327 16.5971 15.973 16.777C15.9968 16.8635 16.0036 16.9538 15.993 17.043C15.9963 17.135 15.9814 17.2268 15.949 17.313C15.8942 17.4789 15.7968 17.6275 15.6666 17.744C15.5364 17.8605 15.3779 17.9408 15.207 17.977C15.102 18 15 18 12 18C8.984 18 8.898 18 8.79 17.977C8.62028 17.9405 8.46299 17.8604 8.33359 17.7447C8.20419 17.629 8.10714 17.4816 8.052 17.317C8.012 17.199 8.012 17.195 8.012 17.007C8.012 16.793 8.023 16.73 8.098 16.57C8.246 16.266 8.535 16.05 8.863 16.008C8.903 16.004 10.336 16 12.047 16H15.16L15.246 16.027Z" fill="#202020"/>
</svg>
