<svg width="24" height="24" viewBox="0 0 24 24" fill="none" xmlns="http://www.w3.org/2000/svg">
<g clip-path="url(#clip0_2435_42001)">
<path d="M11.613 0.0121416C10.2679 0.101263 8.99147 0.638931 7.988 1.53914C6.81478 2.59621 6.10492 4.07269 6.012 5.64914C6.004 5.76514 6 6.67814 6 7.91714V9.99114L5.898 10.0001C5.70322 10.0112 5.50903 10.0309 5.316 10.0591C4.496 10.1991 3.758 10.5821 3.176 11.1681C2.5422 11.7942 2.13839 12.6159 2.03 13.5001C2.01 13.6481 2.01 13.8281 2.01 16.9961C2.01 20.5361 2.007 20.3831 2.061 20.7071C2.198 21.4771 2.565 22.2031 3.116 22.7731C3.77041 23.4547 4.64518 23.8824 5.585 23.9801C5.792 24.0001 18.206 24.0001 18.417 23.9801C19.306 23.8862 20.1379 23.4972 20.78 22.8751C21.4801 22.2014 21.9082 21.2939 21.983 20.3251C21.991 20.2231 21.995 19.1051 21.991 16.8981C21.991 13.8631 21.987 13.6131 21.968 13.4881C21.8964 12.9476 21.7168 12.4269 21.44 11.9571C21.1697 11.5033 20.8126 11.1073 20.3891 10.7915C19.9656 10.4758 19.4841 10.2467 18.972 10.1171C18.6858 10.0518 18.3943 10.0127 18.101 10.0001L18 9.99214L17.996 7.79714C17.992 5.46514 17.996 5.55114 17.934 5.13314C17.7654 3.96351 17.2527 2.87047 16.461 1.99314C15.8553 1.31777 15.1044 0.788529 14.2647 0.445232C13.425 0.101934 12.5183 -0.0464841 11.613 0.0111416V0.0121416ZM12.418 2.02014C12.7934 2.06107 13.1614 2.15291 13.512 2.29314C14.3089 2.62312 14.9795 3.19913 15.426 3.93714C15.676 4.35214 15.852 4.81314 15.937 5.29314C15.997 5.61314 15.997 5.60214 15.997 7.87114V9.99614H8.003V7.87114C8.003 6.09014 8.007 5.72314 8.023 5.58614C8.08404 4.9797 8.28423 4.39554 8.608 3.87914C8.92818 3.37009 9.35797 2.93894 9.866 2.61714C10.3827 2.29187 10.9662 2.08777 11.573 2.02014C11.769 2.00014 12.213 2.00014 12.417 2.02014H12.418ZM12.207 14.0231C12.3962 14.063 12.5697 14.157 12.7064 14.2937C12.8431 14.4304 12.9371 14.604 12.977 14.7931C12.992 14.8711 12.997 15.1131 12.997 17.0081V19.1331L12.969 19.2461C12.9156 19.462 12.7909 19.6536 12.615 19.7897C12.4391 19.9259 12.2224 19.9986 12 19.9961C11.8111 19.9988 11.6254 19.9468 11.4654 19.8463C11.3054 19.7459 11.1778 19.6014 11.098 19.4301C11 19.2231 11.012 19.4531 11.008 17.0271C11.004 14.9021 11.004 14.8671 11.028 14.7701C11.118 14.3981 11.418 14.1021 11.785 14.0231C11.895 14.0001 12.098 14.0001 12.207 14.0231Z" fill="currentColor"/>
</g>
<defs>
<clipPath id="clip0_2435_42001">
<rect width="24" height="24" fill="white"/>
</clipPath>
</defs>
</svg>
