<svg width="24" height="24" viewBox="0 0 24 24" fill="none" xmlns="http://www.w3.org/2000/svg">
<g clip-path="url(#clip0_2064_47878)">
<path d="M1.781 0.012C1.47924 0.0503797 1.18912 0.152653 0.93 0.312C0.754 0.422 0.53 0.625 0.406 0.79C0.18844 1.08558 0.0525507 1.43323 0.012 1.798C-0.004 1.95 -0.004 9.056 0.012 9.204C0.0481761 9.54105 0.168884 9.86351 0.362929 10.1415C0.556973 10.4194 0.818069 10.6439 1.122 10.794C1.352 10.907 1.594 10.974 1.863 10.994C2.082 11.009 8.922 11.009 9.141 10.994C9.48909 10.9704 9.82477 10.8553 10.1141 10.6604C10.4035 10.4655 10.6363 10.1977 10.789 9.884C10.9068 9.6532 10.9759 9.40063 10.992 9.142C11.008 8.922 11.008 2.083 10.992 1.864C10.961 1.36004 10.7372 0.887362 10.367 0.544C10.043 0.244 9.645 0.064 9.207 0.013C9.074 -0.004 1.91 0 1.781 0.012ZM5.761 2.032C5.934 2.078 6.141 2.207 6.25 2.336C6.36 2.465 6.43 2.594 6.473 2.758C6.496 2.852 6.496 2.878 6.5 3.676L6.504 4.5L7.34 4.504C8.266 4.508 8.227 4.504 8.41 4.586C8.55553 4.65127 8.68332 4.75043 8.78268 4.87519C8.88204 4.99996 8.95008 5.1467 8.98112 5.30315C9.01215 5.45959 9.00528 5.6212 8.96107 5.77445C8.91686 5.92769 8.8366 6.06812 8.727 6.184C8.594 6.324 8.437 6.418 8.247 6.473C8.152 6.496 8.137 6.496 7.328 6.5L6.504 6.504L6.5 7.328C6.496 8.137 6.496 8.152 6.473 8.242C6.305 8.836 5.707 9.145 5.133 8.93C5.0062 8.8787 4.89102 8.80242 4.7943 8.7057C4.69758 8.60898 4.6213 8.4938 4.57 8.367C4.504 8.191 4.508 8.238 4.504 7.34L4.5 6.504L3.676 6.5C2.879 6.496 2.852 6.496 2.762 6.473C2.61806 6.43722 2.48384 6.36996 2.36903 6.27606C2.25421 6.18217 2.16164 6.06397 2.098 5.93C2.03759 5.81145 2.00671 5.68005 2.008 5.547C1.99532 5.41162 2.01379 5.27514 2.062 5.148C2.176 4.836 2.465 4.59 2.793 4.523C2.891 4.503 2.961 4.5 3.699 4.5H4.5V3.7C4.5 2.793 4.5 2.777 4.594 2.582C4.65818 2.44001 4.75492 2.31513 4.87636 2.21749C4.9978 2.11985 5.14054 2.05219 5.293 2.02C5.387 2 5.664 2.008 5.762 2.031L5.761 2.032ZM14.781 0.012C14.5454 0.0387823 14.3164 0.107533 14.105 0.215C13.7938 0.369513 13.5287 0.603081 13.3361 0.89231C13.1436 1.18154 13.0304 1.51628 13.008 1.863C12.992 2.074 12.992 8.938 13.008 9.141C13.055 9.766 13.371 10.312 13.887 10.656C14.187 10.859 14.504 10.965 14.879 10.992C14.996 11 16.184 11.004 18.621 11C21.977 10.996 22.195 10.996 22.309 10.977C22.7287 10.9098 23.1159 10.71 23.414 10.407C23.7377 10.0822 23.9403 9.65614 23.988 9.2C24.004 9.04 24.004 1.945 23.988 1.797C23.9613 1.54932 23.8901 1.30847 23.778 1.086C23.6888 0.9135 23.5742 0.755397 23.438 0.617C23.1118 0.274255 22.6737 0.0596342 22.203 0.012C22.066 -0.004 14.91 -0.004 14.781 0.012ZM16.227 2.027C16.344 2.055 16.469 2.109 16.57 2.18C16.621 2.21 16.965 2.547 17.574 3.156L18.504 4.082L19.449 3.137C20.5 2.09 20.457 2.125 20.695 2.047C20.801 2.012 20.816 2.012 20.996 2.007C21.203 2.007 21.262 2.02 21.418 2.094C21.668 2.207 21.863 2.426 21.953 2.695C21.988 2.805 21.988 2.813 21.988 3C21.988 3.188 21.988 3.195 21.953 3.305C21.871 3.543 21.91 3.5 20.863 4.551L19.918 5.496L20.844 6.426C21.454 7.036 21.789 7.379 21.82 7.43C22.047 7.766 22.059 8.195 21.852 8.523C21.543 9.016 20.891 9.148 20.422 8.816C20.0853 8.49825 19.7545 8.17419 19.43 7.844L18.5 6.914L17.586 7.828C17.082 8.332 16.641 8.77 16.602 8.797C16.4989 8.87271 16.3841 8.93083 16.262 8.969C16.0918 9.0042 15.9162 9.0042 15.746 8.969C15.5748 8.92262 15.4187 8.83221 15.2932 8.70677C15.1678 8.58133 15.0774 8.42523 15.031 8.254C15.0105 8.16964 15.0027 8.08267 15.008 7.996C15.008 7.824 15.02 7.75 15.078 7.609C15.148 7.441 15.188 7.399 16.16 6.426L17.086 5.5L16.148 4.562C15.637 4.047 15.195 3.602 15.176 3.57C15.1122 3.46622 15.0621 3.35463 15.027 3.238C14.9958 3.07952 14.9958 2.91648 15.027 2.758C15.059 2.641 15.152 2.457 15.227 2.368C15.367 2.195 15.578 2.066 15.789 2.02C15.902 1.996 16.113 2 16.227 2.027ZM1.84 13.008C1.37493 13.0456 0.937645 13.2446 0.603819 13.5706C0.269993 13.8965 0.0606414 14.329 0.012 14.793C-0.004 14.945 -0.004 22.051 0.012 22.203C0.055 22.574 0.192 22.922 0.406 23.207C0.476 23.301 0.656 23.484 0.746 23.555C1.051 23.797 1.406 23.945 1.796 23.988C1.946 24.004 9.039 24.004 9.199 23.988C9.71329 23.9352 10.1875 23.6863 10.523 23.293C10.805 22.957 10.957 22.578 10.993 22.137C11.008 21.918 11.008 15.078 10.993 14.859C10.9609 14.3785 10.7554 13.926 10.4148 13.5855C10.0742 13.2451 9.62153 13.0399 9.141 13.008C6.70736 12.9924 4.27364 12.9924 1.84 13.008ZM8.246 17.528C8.296 17.543 8.395 17.582 8.461 17.618C8.571 17.668 8.598 17.688 8.703 17.793C8.81525 17.8977 8.8986 18.0297 8.945 18.176C8.98982 18.3074 9.00685 18.4467 8.99503 18.5851C8.98321 18.7234 8.94279 18.8578 8.87633 18.9798C8.80987 19.1017 8.71882 19.2085 8.60894 19.2934C8.49906 19.3783 8.37275 19.4395 8.238 19.473C8.18 19.493 7.965 19.493 5.539 19.496C2.965 19.5 2.902 19.5 2.793 19.476C2.62255 19.4401 2.46443 19.3604 2.33428 19.2446C2.20414 19.1289 2.10649 18.9811 2.051 18.816C2.011 18.699 2.011 18.696 2.011 18.508C2.011 18.293 2.023 18.23 2.098 18.07C2.246 17.766 2.535 17.55 2.863 17.508C2.903 17.504 4.109 17.5 5.543 17.5H8.153L8.246 17.528ZM14.832 13.008C14.3568 13.049 13.9118 13.2585 13.5774 13.5986C13.243 13.9387 13.041 14.3871 13.008 14.863C12.992 15.063 12.992 21.93 13.008 22.137C13.058 22.852 13.468 23.465 14.105 23.781C14.335 23.898 14.539 23.957 14.805 23.988C14.961 24.004 22.047 24.004 22.203 23.988C22.5678 23.9475 22.9154 23.8116 23.211 23.594C23.313 23.512 23.488 23.34 23.574 23.23C23.804 22.934 23.945 22.586 23.988 22.203C24.004 22.055 24.004 14.961 23.988 14.801C23.9426 14.3308 23.7313 13.8922 23.392 13.5637C23.0526 13.2351 22.6074 13.0381 22.136 13.008C21.957 12.992 15.016 12.996 14.832 13.008ZM21.246 16.028C21.4245 16.0739 21.5869 16.1682 21.7152 16.3005C21.8435 16.4329 21.9327 16.5981 21.973 16.778C21.9967 16.8642 22.0035 16.9542 21.993 17.043C21.9963 17.135 21.9814 17.2268 21.949 17.313C21.8942 17.4789 21.7968 17.6275 21.6666 17.744C21.5364 17.8605 21.3779 17.9409 21.207 17.977C21.097 18 21.02 18 18.461 17.997C16.035 17.992 15.821 17.992 15.761 17.973C15.5187 17.9134 15.3073 17.7654 15.1686 17.558C15.0298 17.3506 14.9736 17.0987 15.011 16.852C15.078 16.414 15.426 16.07 15.863 16.008C15.898 16.004 17.102 16 18.547 16L21.16 16.004L21.246 16.028ZM21.246 19.028C21.4245 19.0739 21.5869 19.1682 21.7152 19.3005C21.8435 19.4329 21.9327 19.5981 21.973 19.778C21.9967 19.8642 22.0035 19.9542 21.993 20.043C21.9963 20.135 21.9814 20.2268 21.949 20.313C21.8942 20.4789 21.7968 20.6275 21.6666 20.744C21.5364 20.8605 21.3779 20.9409 21.207 20.977C21.097 21 21.02 21 18.461 20.997C16.035 20.992 15.821 20.992 15.761 20.973C15.5187 20.9134 15.3073 20.7654 15.1686 20.558C15.0298 20.3506 14.9736 20.0987 15.011 19.852C15.078 19.414 15.426 19.07 15.863 19.008C15.898 19.004 17.102 19 18.547 19L21.16 19.004L21.246 19.028Z" fill="#202020"/>
</g>
<defs>
<clipPath id="clip0_2064_47878">
<rect width="24" height="24" fill="white"/>
</clipPath>
</defs>
</svg>
