<svg width="24" height="24" viewBox="0 0 24 24" fill="none" xmlns="http://www.w3.org/2000/svg">
<path d="M2.8 11.02C2.57414 11.0669 2.37146 11.1905 2.22629 11.3697C2.08112 11.549 2.0024 11.773 2.00346 12.0036C2.00451 12.2343 2.08529 12.4575 2.2321 12.6355C2.37891 12.8134 2.58272 12.9351 2.809 12.98C2.941 13.004 21.059 13.004 21.191 12.98C21.3862 12.9428 21.5651 12.8461 21.703 12.703C21.831 12.5752 21.9218 12.4151 21.9658 12.2397C22.0098 12.0643 22.0052 11.8802 21.9526 11.7072C21.9 11.5342 21.8014 11.3788 21.6672 11.2575C21.533 11.1363 21.3684 11.0538 21.191 11.019C21.066 10.996 2.921 10.996 2.801 11.019L2.8 11.02Z" fill="#202020"/>
</svg>
