<svg width="24" height="24" viewBox="0 0 24 24" fill="none" xmlns="http://www.w3.org/2000/svg">
<path d="M11.45 0.012044C8.93596 0.121281 6.52035 1.02031 4.54662 2.58131C2.57289 4.1423 1.14151 6.28581 0.456 8.70704C0.220559 9.54226 0.0740787 10.4 0.019 11.266C0.00339297 11.7539 0.00339297 12.2422 0.019 12.73C0.116 14.09 0.374 15.246 0.839 16.422C1.4755 18.0398 2.45754 19.4991 3.71652 20.698C4.9755 21.8968 6.48105 22.8064 8.128 23.363C9.882 23.957 11.78 24.141 13.64 23.887C15.4662 23.6397 17.2106 22.9737 18.737 21.941C20.3068 20.8756 21.6027 19.4543 22.519 17.793C22.659 17.539 22.905 17.035 23.022 16.758C23.464 15.727 23.761 14.648 23.897 13.551C23.972 12.984 23.991 12.625 23.991 12.004C23.991 11.473 23.983 11.266 23.941 10.816C23.7517 8.847 23.0765 6.95576 21.976 5.31204C20.6849 3.39051 18.8679 1.88139 16.742 0.965044C15.6299 0.494932 14.4546 0.191011 13.254 0.063044C12.746 0.012044 11.923 -0.011956 11.45 0.012044ZM17.309 11.047C17.4366 11.0885 17.5544 11.1555 17.6552 11.2441C17.7559 11.3326 17.8375 11.4408 17.895 11.562C17.9645 11.6976 18.0007 11.8477 18.0007 12C18.0007 12.1524 17.9645 12.3025 17.895 12.438C17.8375 12.5593 17.7559 12.6675 17.6552 12.756C17.5544 12.8446 17.4366 12.9116 17.309 12.953L17.199 12.988H6.805L6.688 12.949C6.55908 12.9069 6.44018 12.8388 6.33869 12.7488C6.2372 12.6588 6.15527 12.549 6.098 12.426C6.02192 12.2637 5.99044 12.084 6.00678 11.9054C6.02313 11.7269 6.08671 11.5559 6.191 11.41C6.332 11.219 6.555 11.074 6.793 11.02C6.848 11.008 7.801 11.008 12.031 11.008H17.2L17.309 11.047Z" fill="#202020"/>
</svg>
