<svg width="24" height="24" viewBox="0 0 24 24" fill="none" xmlns="http://www.w3.org/2000/svg">
<path d="M11.566 0.00797164C9.70062 0.0711043 7.87593 0.570086 6.238 1.46497C4.63258 2.34078 3.24925 3.57288 2.19423 5.06665C1.13921 6.56042 0.440586 8.27611 0.152 10.082C0.043 10.766 0.008 11.266 0.008 12C-0.00160423 14.309 0.659119 16.5711 1.91 18.512C2.99544 20.1922 4.48306 21.575 6.238 22.535C8.34114 23.6788 10.7375 24.1697 13.121 23.945C14.3646 23.8328 15.5828 23.5257 16.731 23.035C17.147 22.8514 17.5548 22.6495 17.953 22.43C19.3848 21.6135 20.6323 20.5097 21.617 19.188C23.169 17.1139 24.0028 14.5904 23.992 12C23.992 11.492 23.984 11.29 23.945 10.875C23.7955 9.24945 23.3157 7.67156 22.535 6.23797C21.8083 4.90922 20.8369 3.72984 19.672 2.76197C17.7348 1.15631 15.3422 0.199629 12.832 0.0269716C12.4103 0.00683756 11.9881 0.000167492 11.566 0.00697164V0.00797164ZM9.656 2.35497C9.73 2.37497 9.793 2.39497 9.793 2.39497C9.74549 2.44283 9.69322 2.48572 9.637 2.52297C8.78869 3.18323 8.03293 3.95446 7.39 4.81597C6.07221 6.57212 5.26519 8.65818 5.058 10.844C5.054 10.898 5.046 10.954 5.042 10.973L5.034 11.003H2.051V10.977C2.20338 9.46146 2.70039 8.00088 3.504 6.70697C4.80828 4.62061 6.83356 3.08609 9.195 2.39497C9.335 2.35497 9.469 2.31997 9.488 2.31997C9.508 2.31997 9.582 2.33597 9.656 2.35497ZM14.773 2.38297C15.211 2.51197 15.727 2.69897 16.145 2.89097C17.7279 3.60901 19.0958 4.72812 20.1131 6.13747C21.1304 7.54681 21.7619 9.19748 21.945 10.926L21.953 11.004H18.965L18.957 10.973C18.9493 10.9301 18.9453 10.8866 18.945 10.843C18.937 10.793 18.922 10.629 18.902 10.477C18.7624 9.38268 18.4734 8.31271 18.043 7.29697C17.2441 5.42974 15.9865 3.79451 14.387 2.54297C14.3241 2.49887 14.2652 2.44935 14.211 2.39497C14.363 2.34397 14.465 2.32497 14.52 2.32497C14.555 2.32797 14.668 2.35497 14.773 2.38297ZM11.003 7.50297V11.003H7.056V10.965C7.056 10.918 7.095 10.602 7.126 10.41C7.48901 8.16577 8.60483 6.11188 10.29 4.58597C10.552 4.35197 10.97 4.00797 10.997 4.00797C11.001 4.00797 11.005 5.58197 11.005 7.50397L11.003 7.50297ZM13.137 4.10197C13.445 4.34397 13.777 4.63697 14.082 4.94197C15.6428 6.50731 16.6414 8.54535 16.922 10.738C16.934 10.844 16.945 10.945 16.945 10.965V11.004H12.996V7.50397C12.996 5.58197 13 4.00797 13.004 4.00797C13.012 4.00797 13.07 4.05097 13.137 4.10197ZM5.043 13.027C5.047 13.047 5.055 13.102 5.059 13.152C5.062 13.207 5.082 13.372 5.098 13.523C5.302 15.1146 5.82303 16.6492 6.63031 18.036C7.43758 19.4228 8.51471 20.6336 9.798 21.597C9.797 21.609 9.528 21.68 9.488 21.68C9.418 21.68 8.859 21.508 8.496 21.371C6.91219 20.7843 5.5044 19.803 4.406 18.52C3.0876 16.9858 2.26879 15.0859 2.059 13.074L2.047 12.996H5.035L5.043 13.027ZM11.003 16.492C11.003 18.418 11 19.992 10.996 19.992C10.984 19.992 10.652 19.727 10.536 19.629C9.96503 19.1433 9.44986 18.5956 9 17.996C7.91254 16.5504 7.24006 14.8355 7.055 13.036V12.996H11.004L11.003 16.492ZM16.945 13.035C16.945 13.145 16.859 13.723 16.793 14.039C16.3164 16.3176 15.0612 18.3592 13.243 19.813C13.066 19.953 13.016 19.993 13.003 19.993C13 19.993 12.996 18.418 12.996 16.493V12.996H16.946L16.945 13.035ZM21.945 13.075C21.7583 14.8178 21.1169 16.481 20.085 17.898C18.7775 19.6933 16.908 21.0008 14.773 21.613C14.516 21.688 14.516 21.688 14.352 21.645C14.3025 21.6348 14.254 21.6204 14.207 21.602C14.2568 21.5561 14.3089 21.5127 14.363 21.472C16.8668 19.5259 18.4989 16.6683 18.903 13.523C18.922 13.371 18.938 13.207 18.945 13.153C18.945 13.102 18.953 13.047 18.957 13.027L18.965 12.997H21.953L21.945 13.075Z" fill="#202020"/>
</svg>
