<svg width="24" height="24" viewBox="0 0 24 24" fill="none" xmlns="http://www.w3.org/2000/svg">
<g clip-path="url(#clip0_2064_49479)">
<path d="M1.781 0.0122319C1.47924 0.0506115 1.18912 0.152885 0.93 0.312232C0.754 0.422232 0.53 0.625232 0.406 0.790232C0.18844 1.08581 0.0525507 1.43347 0.012 1.79823C-0.004 1.95023 -0.004 9.05623 0.012 9.20423C0.039 9.45823 0.102 9.66923 0.219 9.89623C0.489 10.4422 0.996 10.8332 1.598 10.9582C1.801 11.0012 2.016 11.0082 3.128 11.0012C4.285 10.9972 4.297 10.9972 4.531 10.9272C4.883 10.8252 5.161 10.6652 5.414 10.4072C5.73775 10.0824 5.94034 9.65637 5.988 9.20023C6.004 9.04023 6.004 1.94623 5.988 1.79823C5.94136 1.33035 5.72973 0.89434 5.391 0.568232C5.06963 0.253204 4.65071 0.0567906 4.203 0.0112319C3.39574 -0.004395 2.58826 -0.004395 1.781 0.0112319V0.0122319ZM19.781 0.0122319C19.4792 0.0506115 19.1891 0.152885 18.93 0.312232C18.754 0.422232 18.531 0.625232 18.406 0.789232C18.1884 1.08481 18.0525 1.43247 18.012 1.79723C17.9964 2.59916 17.9964 3.40131 18.012 4.20323C18.055 4.57423 18.192 4.92223 18.406 5.20723C18.476 5.30123 18.656 5.48423 18.746 5.55523C19.051 5.79723 19.406 5.94523 19.796 5.98823C19.949 6.00423 22.051 6.00423 22.203 5.98823C22.59 5.94523 22.933 5.80523 23.234 5.57023C23.4446 5.40426 23.6198 5.19779 23.7493 4.96301C23.8788 4.72823 23.96 4.46989 23.988 4.20323C24.004 4.05123 24.004 1.94923 23.988 1.79723C23.9613 1.54955 23.8901 1.3087 23.778 1.08623C23.6888 0.913732 23.5742 0.755629 23.438 0.617232C23.1118 0.274487 22.6737 0.059866 22.203 0.0122319C21.3957 -0.00339499 20.5883 -0.00339499 19.781 0.0122319ZM9.875 6.00823C9.805 6.01623 9.66 6.05823 9.594 6.08623C9.41337 6.17437 9.25944 6.30897 9.148 6.47623C9.04765 6.64238 8.9973 6.83392 9.00297 7.02794C9.00865 7.22196 9.07011 7.41023 9.18 7.57023C9.2 7.59823 10.2 8.60523 11.402 9.81223L13.59 12.0002L11.402 14.1882C10.6548 14.9291 9.9141 15.6764 9.18 16.4302C9.07031 16.5901 9.00897 16.7782 9.00329 16.972C8.99762 17.1658 9.04785 17.3572 9.148 17.5232C9.207 17.6172 9.348 17.7662 9.445 17.8282C9.61524 17.9421 9.81634 18.001 10.0211 17.9969C10.2259 17.9928 10.4245 17.9259 10.59 17.8052C10.625 17.7772 11.813 16.5982 13.227 15.1842C15.992 12.4182 15.855 12.5592 15.93 12.3642C15.9858 12.2194 16.0075 12.0637 15.9933 11.9091C15.9791 11.7546 15.9293 11.6054 15.848 11.4732C15.801 11.3952 15.441 11.0312 13.227 8.81623C12.3521 7.93709 11.4731 7.06208 10.59 6.19123C10.3823 6.04427 10.1277 5.9791 9.875 6.00823ZM19.781 9.01223C19.4792 9.05061 19.1891 9.15288 18.93 9.31223C18.754 9.42223 18.531 9.62523 18.406 9.78923C18.1884 10.0848 18.0525 10.4325 18.012 10.7972C17.9964 11.5992 17.9964 12.4013 18.012 13.2032C18.055 13.5742 18.192 13.9222 18.406 14.2072C18.476 14.3012 18.656 14.4842 18.746 14.5552C19.051 14.7972 19.406 14.9452 19.796 14.9882C19.949 15.0042 22.051 15.0042 22.203 14.9882C22.59 14.9452 22.933 14.8052 23.234 14.5702C23.4446 14.4043 23.6198 14.1978 23.7493 13.963C23.8788 13.7282 23.96 13.4699 23.988 13.2032C24.004 13.0512 24.004 10.9492 23.988 10.7972C23.9613 10.5495 23.8901 10.3087 23.778 10.0862C23.6888 9.91373 23.5742 9.75563 23.438 9.61723C23.1118 9.27449 22.6737 9.05987 22.203 9.01223C21.3957 8.9966 20.5883 8.9966 19.781 9.01223ZM1.84 13.0082C1.37493 13.0458 0.937645 13.2448 0.603819 13.5708C0.269993 13.8968 0.0606414 14.3292 0.012 14.7932C-0.004 14.9452 -0.004 22.0512 0.012 22.2032C0.055 22.5742 0.192 22.9222 0.406 23.2072C0.476 23.3012 0.656 23.4842 0.746 23.5552C1.051 23.7972 1.406 23.9452 1.796 23.9882C1.949 24.0042 4.051 24.0042 4.203 23.9882C4.59 23.9452 4.933 23.8052 5.234 23.5702C5.44458 23.4043 5.61979 23.1978 5.74929 22.963C5.87879 22.7282 5.95995 22.4699 5.988 22.2032C6.004 22.0552 6.004 14.9612 5.988 14.8012C5.94263 14.3311 5.73134 13.8924 5.39198 13.5639C5.05263 13.2353 4.60738 13.0384 4.136 13.0082C3.37071 12.9965 2.60529 12.9965 1.84 13.0082ZM19.781 18.0122C19.4792 18.0506 19.1891 18.1529 18.93 18.3122C18.754 18.4222 18.531 18.6252 18.406 18.7892C18.1884 19.0848 18.0525 19.4325 18.012 19.7972C17.9964 20.5992 17.9964 21.4013 18.012 22.2032C18.055 22.5742 18.192 22.9222 18.406 23.2072C18.476 23.3012 18.656 23.4842 18.746 23.5552C19.051 23.7972 19.406 23.9452 19.796 23.9882C19.949 24.0042 22.051 24.0042 22.203 23.9882C22.59 23.9452 22.933 23.8052 23.234 23.5702C23.4446 23.4043 23.6198 23.1978 23.7493 22.963C23.8788 22.7282 23.96 22.4699 23.988 22.2032C24.004 22.0512 24.004 19.9492 23.988 19.7972C23.9613 19.5495 23.8901 19.3087 23.778 19.0862C23.6888 18.9137 23.5742 18.7556 23.438 18.6172C23.1118 18.2745 22.6737 18.0599 22.203 18.0122C21.3957 17.9966 20.5883 17.9966 19.781 18.0122Z" fill="#202020"/>
</g>
<defs>
<clipPath id="clip0_2064_49479">
<rect width="24" height="24" fill="white"/>
</clipPath>
</defs>
</svg>
