<svg width="24" height="24" viewBox="0 0 24 24" fill="none" xmlns="http://www.w3.org/2000/svg">
<path d="M7.887 1.00802C7.469 1.05802 7.133 1.35202 7.027 1.76602L7.004 1.86702V3.49702C7.004 5.30102 6.996 5.18702 7.078 5.38302C7.13331 5.51736 7.21768 5.63778 7.32505 5.73564C7.43242 5.8335 7.56013 5.90637 7.699 5.94902C7.83451 5.99209 7.97765 6.00571 8.11885 5.98896C8.26004 5.97222 8.39603 5.9255 8.5177 5.85192C8.63937 5.77835 8.74392 5.67963 8.82434 5.56237C8.90476 5.44512 8.95919 5.31203 8.984 5.17202C9 5.07802 9 4.85902 8.996 3.44902C8.992 1.63702 9 1.78902 8.906 1.58602C8.8357 1.42811 8.725 1.29153 8.58508 1.19005C8.44515 1.08858 8.28094 1.02579 8.109 1.00802C8 0.996023 8 0.996023 7.887 1.00802ZM15.879 1.00802C15.7093 1.02808 15.5477 1.0919 15.4101 1.19322C15.2725 1.29455 15.1635 1.42991 15.094 1.58602C15 1.78902 15.008 1.63602 15.004 3.44902C15 4.86002 15 5.08002 15.02 5.17202C15.0459 5.32202 15.106 5.46405 15.1955 5.58717C15.285 5.71029 15.4017 5.8112 15.5363 5.88212C15.671 5.95304 15.8202 5.99208 15.9724 5.99622C16.1246 6.00037 16.2756 5.96951 16.414 5.90602C16.5534 5.84471 16.6766 5.75166 16.7736 5.63429C16.8707 5.51691 16.939 5.37848 16.973 5.23002L17 5.12502V1.86702L16.973 1.76602C16.9152 1.52756 16.7719 1.31861 16.5702 1.17887C16.3685 1.03913 16.1226 0.978332 15.879 1.00802Z" fill="#202020"/>
<path d="M11.879 4.00802C11.668 4.03502 11.473 4.12802 11.309 4.28102C11.184 4.39773 11.0934 4.54645 11.047 4.71102C11.0162 4.80969 11.0017 4.9127 11.004 5.01602C10.988 5.35902 10.964 5.52702 10.898 5.77302C10.7651 6.27048 10.5063 6.72533 10.1467 7.09379C9.78701 7.46225 9.33853 7.7319 8.84443 7.87677C8.35033 8.02165 7.82726 8.03687 7.32557 7.92097C6.82388 7.80506 6.36048 7.56195 5.98 7.21502C5.68384 6.94869 5.44468 6.62514 5.27694 6.26388C5.1092 5.90262 5.01635 5.51113 5.004 5.11302C5.00354 5.01608 4.99451 4.91937 4.977 4.82402C4.895 4.53102 4.621 4.33602 4.347 4.38302C4.187 4.41002 3.828 4.62102 3.492 4.88702C3.26237 5.08386 3.04932 5.29926 2.855 5.53102C2.402 6.11302 2.148 6.71902 2.031 7.48802C2.011 7.61302 2.011 7.96102 2.008 13.395C2.004 17.617 2.008 19.211 2.016 19.328C2.078 20.105 2.363 20.836 2.856 21.468C2.98 21.628 3.336 21.992 3.492 22.113C4.132 22.617 4.816 22.898 5.625 22.984C5.746 22.996 6.925 22.996 12 22.996C18.691 22.996 18.324 23 18.688 22.938C19.253 22.8392 19.7902 22.6202 20.2632 22.2959C20.7363 21.9716 21.1342 21.5494 21.43 21.058C21.7427 20.5305 21.9321 19.9391 21.984 19.328C21.992 19.211 21.996 17.613 21.992 13.395C21.988 7.11702 21.992 7.60902 21.93 7.26502C21.8125 6.6272 21.5402 6.02798 21.137 5.52002C20.944 5.29276 20.7333 5.0811 20.507 4.88702C20.168 4.61702 19.812 4.41002 19.652 4.38302C19.382 4.33602 19.113 4.52302 19.027 4.81602C19.0093 4.91039 18.9992 5.00603 18.997 5.10202C18.969 5.65202 18.84 6.09802 18.57 6.54302C18.1829 7.1887 17.5669 7.66493 16.8446 7.87693C16.1223 8.08892 15.3466 8.02112 14.672 7.68702C14.2234 7.46566 13.8372 7.13561 13.5487 6.72692C13.2602 6.31823 13.0784 5.84388 13.02 5.34702C13.012 5.28902 13.004 5.14802 12.996 5.02702C12.9974 4.92041 12.9843 4.8141 12.957 4.71102C12.9114 4.55881 12.8282 4.42055 12.715 4.30902C12.6081 4.198 12.4771 4.1131 12.3321 4.0609C12.1872 4.0087 12.0321 3.99061 11.879 4.00802ZM18.211 12.023C18.418 12.066 18.641 12.203 18.773 12.367C18.8507 12.4603 18.9091 12.5681 18.945 12.684C18.985 12.789 18.988 12.82 18.992 12.957C19.0026 13.0461 18.9958 13.1365 18.972 13.223C18.9312 13.4044 18.8404 13.5708 18.71 13.7033C18.5796 13.8358 18.4147 13.9293 18.234 13.973L18.137 13.996H12.007C6.078 13.996 5.875 13.996 5.785 13.976C5.6364 13.9435 5.49721 13.8774 5.37813 13.7828C5.25904 13.6881 5.16321 13.5675 5.098 13.43C5.03759 13.3115 5.00671 13.1801 5.008 13.047C4.99532 12.9116 5.01379 12.7752 5.062 12.648C5.176 12.34 5.461 12.09 5.789 12.023C5.883 12.003 6.141 12 11.996 12C17.984 12 18.102 12 18.211 12.023ZM13.25 16.027C13.605 16.129 13.875 16.398 13.969 16.75C14.004 16.887 14.004 17.113 13.969 17.242C13.9211 17.4315 13.8191 17.6028 13.6754 17.7353C13.5318 17.8678 13.3527 17.9556 13.16 17.988C13.11 17.996 11.93 18 9.492 18C5.988 18 5.898 18 5.789 17.977C5.61928 17.9405 5.46199 17.8605 5.33259 17.7448C5.20319 17.629 5.10614 17.4816 5.051 17.317C5.011 17.199 5.011 17.195 5.011 17.007C5.011 16.793 5.023 16.73 5.098 16.57C5.246 16.266 5.535 16.05 5.863 16.008C5.903 16.004 7.559 16 9.547 16H13.157L13.25 16.027Z" fill="#202020"/>
</svg>
