<svg width="24" height="24" viewBox="0 0 24 24" fill="none" xmlns="http://www.w3.org/2000/svg">
<path d="M3.781 1.00412C3.18024 1.0379 2.59477 1.20645 2.06801 1.49727C1.54124 1.78809 1.08668 2.19373 0.738 2.68412C0.317736 3.27415 0.0666946 3.9678 0.012 4.69012C0.004 4.80412 -2.32831e-10 5.52212 0.004 7.01012L0.008 9.16712L0.039 9.27212C0.0766681 9.40622 0.142546 9.53073 0.232225 9.63731C0.321904 9.74389 0.433315 9.83008 0.559 9.89012C0.73 9.97612 0.793 9.98712 1.008 9.98712C1.176 9.98712 1.199 9.98712 1.289 9.95612C1.45294 9.90617 1.60111 9.81452 1.719 9.69012C1.844 9.55812 1.922 9.41712 1.973 9.23712C1.996 9.14412 1.996 9.14012 2 8.06912L2.004 6.99512H21.996L21.992 19.2801L21.965 19.3971C21.777 20.2061 21.195 20.7881 20.398 20.9601C20.258 20.9911 20.254 20.9911 19.547 20.9991C18.773 21.0071 18.781 21.0071 18.605 21.0811C18.488 21.1311 18.379 21.2101 18.277 21.3111C17.747 21.8711 18.016 22.7761 18.77 22.9711C18.871 22.9951 18.887 22.9951 19.566 22.9951C20.301 22.9951 20.43 22.9871 20.73 22.9331C21.5785 22.7731 22.3529 22.3438 22.9383 21.7091C23.5237 21.0743 23.889 20.2678 23.98 19.4091C24 19.2061 24 4.72612 23.98 4.55812C23.9248 4.08411 23.786 3.62365 23.57 3.19812C23.3668 2.79013 23.0933 2.42115 22.762 2.10812C22.089 1.45786 21.2069 1.06768 20.273 1.00712C20.16 1.00012 17.441 0.996124 11.973 1.00012C7.496 1.00012 3.813 1.00012 3.781 1.00412ZM4.161 3.01212C4.547 3.07412 4.867 3.36712 4.969 3.75412C5.004 3.88712 5.004 4.11412 4.969 4.24612C4.895 4.52712 4.703 4.76612 4.449 4.89112C4.31348 4.96725 4.15925 5.00364 4.004 4.99612C3.85501 5.00177 3.70704 4.96942 3.574 4.90212C3.35424 4.80076 3.17879 4.62298 3.08033 4.4019C2.98187 4.18082 2.96711 3.93149 3.03878 3.70033C3.11045 3.46917 3.26368 3.27193 3.46994 3.14533C3.6762 3.01873 3.92244 2.97139 4.161 3.01212ZM7.161 3.01212C7.547 3.07412 7.867 3.36712 7.969 3.75412C8.004 3.88712 8.004 4.11412 7.969 4.24612C7.895 4.52712 7.703 4.76612 7.449 4.89112C7.31348 4.96725 7.15925 5.00364 7.004 4.99612C6.85501 5.00177 6.70704 4.96942 6.574 4.90212C6.35424 4.80076 6.17879 4.62298 6.08033 4.4019C5.98187 4.18082 5.96711 3.93149 6.03878 3.70033C6.11045 3.46917 6.26368 3.27193 6.46994 3.14533C6.6762 3.01873 6.92244 2.97139 7.161 3.01212ZM10.161 3.01212C10.547 3.07412 10.867 3.36712 10.969 3.75412C11.004 3.88712 11.004 4.11412 10.969 4.24612C10.895 4.52712 10.703 4.76612 10.449 4.89112C10.3135 4.96725 10.1593 5.00364 10.004 4.99612C9.85501 5.00177 9.70704 4.96942 9.574 4.90212C9.35424 4.80076 9.17879 4.62298 9.08033 4.4019C8.98188 4.18082 8.96711 3.93149 9.03878 3.70033C9.11045 3.46917 9.26368 3.27193 9.46994 3.14533C9.6762 3.01873 9.92144 2.97139 10.16 3.01212H10.161Z" fill="#202020"/>
<path d="M6.68 10.0161C6.4492 10.0496 6.22937 10.1364 6.03789 10.2696C5.84642 10.4027 5.68855 10.5786 5.57679 10.7833C5.46503 10.988 5.40244 11.2159 5.39398 11.4489C5.38551 11.682 5.43139 11.9139 5.528 12.1261C5.578 12.2381 5.656 12.3591 5.754 12.4731C5.797 12.5271 6.211 12.9451 6.672 13.4061L7.512 14.2421L5.113 16.6451C4.28769 17.4665 3.46767 18.2932 2.653 19.1251C2.4814 19.3465 2.35624 19.6002 2.285 19.8711C2.203 20.1841 2.207 20.5631 2.293 20.8831C2.352 21.1131 2.469 21.3551 2.613 21.5551C2.691 21.6601 4.219 23.1991 4.367 23.3201C4.719 23.6101 5.18 23.7771 5.633 23.7771C6.078 23.7771 6.547 23.6131 6.887 23.3401C6.918 23.3131 8.027 22.2101 9.347 20.8901L11.754 18.4841L12.629 19.3591C13.113 19.8391 13.531 20.2541 13.566 20.2811C13.871 20.5231 14.27 20.6451 14.636 20.6011C15.352 20.5201 15.891 20.0081 15.984 19.3161C15.992 19.2501 15.996 18.1561 15.992 15.4841V11.7461L15.965 11.6211C15.781 10.7731 15.133 10.1521 14.293 10.0231C14.188 10.0121 13.711 10.0081 10.441 10.0081C8.387 10.0121 6.695 10.0121 6.68 10.0161Z" fill="#202020"/>
</svg>
