<svg width="24" height="24" viewBox="0 0 24 24" fill="none" xmlns="http://www.w3.org/2000/svg">
<path d="M3.781 1.0041C3.15781 1.0381 2.55126 1.21764 2.00997 1.52831C1.46868 1.83898 1.0077 2.27216 0.664 2.7931C0.320366 3.30851 0.102208 3.89723 0.027 4.5121C0.007 4.6641 0.007 4.9961 0.007 11.9801C0.007 17.9181 0.007 19.3161 0.02 19.4181C0.09 19.9571 0.215 20.3781 0.441 20.8241C0.812 21.5591 1.441 22.1841 2.176 22.5591C2.617 22.7851 3.055 22.9141 3.57 22.9771C3.734 22.9971 4.105 22.9971 12 22.9971C19.863 22.9971 20.266 22.9971 20.434 22.9771C21.3148 22.8829 22.1386 22.4963 22.774 21.8791C23.464 21.2111 23.864 20.3911 23.98 19.4101C24 19.2191 24 4.7381 23.98 4.5591C23.8757 3.62683 23.4474 2.76075 22.77 2.11183C22.0926 1.4629 21.2089 1.0723 20.273 1.0081C20.16 1.0001 17.433 0.996104 11.973 1.0001C7.496 1.0001 3.813 1.0001 3.781 1.0041ZM4.161 3.0121C4.547 3.0741 4.867 3.3671 4.969 3.7541C5.004 3.8871 5.004 4.1141 4.969 4.2461C4.895 4.5271 4.703 4.7661 4.449 4.8911C4.31348 4.96723 4.15925 5.00362 4.004 4.9961C3.85501 5.00175 3.70704 4.9694 3.574 4.9021C3.35424 4.80074 3.17879 4.62296 3.08033 4.40188C2.98187 4.1808 2.96711 3.93147 3.03878 3.70031C3.11045 3.46915 3.26368 3.27191 3.46994 3.14531C3.6762 3.01871 3.92244 2.97137 4.161 3.0121ZM7.161 3.0121C7.547 3.0741 7.867 3.3671 7.969 3.7541C8.004 3.8871 8.004 4.1141 7.969 4.2461C7.895 4.5271 7.703 4.7661 7.449 4.8911C7.31348 4.96723 7.15925 5.00362 7.004 4.9961C6.85501 5.00175 6.70704 4.9694 6.574 4.9021C6.35424 4.80074 6.17879 4.62296 6.08033 4.40188C5.98187 4.1808 5.96711 3.93147 6.03878 3.70031C6.11045 3.46915 6.26368 3.27191 6.46994 3.14531C6.6762 3.01871 6.92244 2.97137 7.161 3.0121ZM10.161 3.0121C10.547 3.0741 10.867 3.3671 10.969 3.7541C11.004 3.8871 11.004 4.1141 10.969 4.2461C10.895 4.5271 10.703 4.7661 10.449 4.8911C10.3135 4.96723 10.1593 5.00362 10.004 4.9961C9.85501 5.00175 9.70704 4.9694 9.574 4.9021C9.35424 4.80074 9.17879 4.62296 9.08033 4.40188C8.98188 4.1808 8.96711 3.93147 9.03878 3.70031C9.11045 3.46915 9.26368 3.27191 9.46994 3.14531C9.6762 3.01871 9.92144 2.97137 10.16 3.0121H10.161ZM21.996 13.0861C21.996 19.7261 22 19.2621 21.934 19.5201C21.8429 19.8575 21.6651 20.1651 21.4183 20.4125C21.1715 20.6599 20.8642 20.8383 20.527 20.9301C20.247 21.0041 20.922 21.0001 12.004 21.0001C4.855 21.0001 3.852 20.9961 3.734 20.9801C3.27502 20.9229 2.8514 20.7042 2.539 20.3631C2.28564 20.0938 2.11127 19.7599 2.035 19.3981L2.012 19.2811L2.004 6.9961H21.996V13.0861Z" fill="#202020"/>
<path d="M5.781 9.0121C5.54536 9.03889 5.31641 9.10764 5.105 9.2151C4.7938 9.36962 4.52866 9.60318 4.33613 9.89241C4.1436 10.1816 4.03045 10.5164 4.008 10.8631C3.992 11.0631 3.992 16.9531 4.008 17.1411C4.047 17.6171 4.234 18.0431 4.558 18.3791C4.816 18.6451 5.105 18.8201 5.449 18.9181C5.734 19.0001 5.617 18.9961 8.07 18.9921L10.273 18.9881L10.391 18.9651C10.926 18.8401 11.355 18.5551 11.645 18.1331C11.816 17.8831 11.91 17.6481 11.973 17.3241C11.993 17.2421 11.993 16.8831 11.996 14.0861C12 11.8361 11.996 10.9021 11.988 10.8091C11.9489 10.3602 11.7544 9.939 11.438 9.6181C11.112 9.27499 10.6739 9.06001 10.203 9.0121C8.72904 8.99648 7.25496 8.99648 5.781 9.0121ZM14.844 9.0121C14.68 9.0391 14.5 9.1221 14.371 9.2221C14.2137 9.35465 14.0983 9.53012 14.039 9.7271C14.004 9.8521 13.996 10.0671 14.023 10.1951C14.098 10.5751 14.383 10.8671 14.766 10.9731L14.867 10.9961H19.133L19.234 10.9731C19.4139 10.9298 19.5783 10.8375 19.7087 10.7063C19.8392 10.5751 19.9307 10.4102 19.973 10.2301C20 10.1101 20.003 9.9101 19.977 9.7901C19.9443 9.63805 19.8764 9.49582 19.7786 9.37491C19.6808 9.254 19.5559 9.1578 19.414 9.0941C19.207 8.9961 19.43 9.0041 17.035 9.0041C15.859 9.0041 14.875 9.0081 14.844 9.0121ZM14.879 13.0081C14.73 13.0231 14.559 13.0901 14.426 13.1801C14.2189 13.3313 14.0753 13.554 14.023 13.8051C13.996 13.9341 14.003 14.1481 14.039 14.2731C14.133 14.6021 14.387 14.8551 14.727 14.9611L14.832 14.9921H16.992C19.426 14.9921 19.207 15.0041 19.414 14.9061C19.5894 14.828 19.7381 14.7002 19.8415 14.5384C19.945 14.3767 19.9987 14.1881 19.996 13.9961C19.996 13.5361 19.696 13.1521 19.238 13.0271L19.145 13.0041L17.05 13.0001C15.897 13.0001 14.921 13.0041 14.879 13.0081ZM14.8 17.0201C14.477 17.0861 14.191 17.3241 14.074 17.6291C14.0194 17.7676 13.9963 17.9165 14.0065 18.0651C14.0167 18.2136 14.0598 18.358 14.1328 18.4878C14.2058 18.6176 14.3067 18.7295 14.4284 18.8153C14.55 18.9012 14.6893 18.9588 14.836 18.9841C14.902 18.9921 15.23 18.9961 16.055 18.9921L17.188 18.9881L17.273 18.9651C17.609 18.8591 17.859 18.6091 17.961 18.2731C17.9884 18.1849 17.9989 18.0922 17.992 18.0001C17.9988 17.9066 17.9883 17.8127 17.961 17.7231C17.9121 17.5605 17.8236 17.4126 17.7036 17.2926C17.5835 17.1725 17.4356 17.084 17.273 17.0351L17.188 17.0081H16.03C15.116 17.0081 14.858 17.0081 14.8 17.0201Z" fill="#202020"/>
</svg>
