<svg width="24" height="24" viewBox="0 0 24 24" fill="none" xmlns="http://www.w3.org/2000/svg">
<g clip-path="url(#clip0_2064_50803)">
<path d="M3.754 1.008C3.05549 1.04982 2.38027 1.27465 1.79612 1.65993C1.21198 2.04521 0.739458 2.57737 0.426 3.203C0.219 3.613 0.09 4.047 0.027 4.527C0.007 4.687 0.007 5.031 0.007 12.004V19.316L0.031 19.508C0.125 20.164 0.336 20.73 0.699 21.262C1.15997 21.9327 1.81386 22.4474 2.574 22.738C2.969 22.887 3.344 22.965 3.785 22.992C4.062 23.008 19.93 23.008 20.211 22.992C21.1854 22.9442 22.1084 22.5403 22.8047 21.857C23.5009 21.1736 23.922 20.2584 23.988 19.285C24.004 19.075 24.004 4.925 23.988 4.711C23.9382 4.00277 23.7011 3.3205 23.301 2.734C22.8088 2.01701 22.0955 1.48074 21.27 1.207C20.9879 1.11405 20.6971 1.05005 20.402 1.016C20.316 1.008 18.426 1.004 12.102 1C7.594 1 3.84 1.004 3.754 1.008ZM20.355 13.028C21.085 13.172 21.668 13.68 21.898 14.371C21.926 14.457 21.957 14.59 21.973 14.671C21.996 14.816 21.996 14.828 21.993 17.051L21.988 19.281L21.965 19.398C21.797 20.118 21.32 20.656 20.645 20.895C20.585 20.915 20.473 20.945 20.391 20.961L20.246 20.992H12.02C4.078 20.992 3.785 20.992 3.668 20.972C3.25624 20.9034 2.87715 20.7051 2.586 20.406C2.43208 20.2583 2.30636 20.0838 2.215 19.891C2.13434 19.7325 2.07387 19.5645 2.035 19.391L2.012 19.27V14.734L2.035 14.609C2.125 14.199 2.309 13.863 2.602 13.574C2.92859 13.2564 3.35207 13.0571 3.805 13.008C3.855 13.004 7.57 13 12.059 13L20.223 13.004L20.355 13.028Z" fill="#202020"/>
</g>
<defs>
<clipPath id="clip0_2064_50803">
<rect width="24" height="24" fill="white"/>
</clipPath>
</defs>
</svg>
