<svg width="24" height="24" viewBox="0 0 24 24" fill="none" xmlns="http://www.w3.org/2000/svg">
<path d="M11.8 2.01999C11.477 2.08599 11.191 2.32399 11.074 2.62899C11 2.81999 11.004 2.51199 11.004 6.94899V11.004H6.949C3.5 11.004 2.883 11.008 2.809 11.02C2.66635 11.048 2.53154 11.1068 2.41403 11.1924C2.29652 11.278 2.19915 11.3883 2.12875 11.5155C2.05834 11.6427 2.0166 11.7837 2.00645 11.9287C1.9963 12.0737 2.01799 12.2192 2.07 12.355C2.188 12.672 2.477 12.915 2.809 12.98C2.883 12.992 3.504 12.996 6.949 12.996H11.004V17.051C11.004 21.453 11 21.176 11.07 21.355C11.187 21.672 11.477 21.915 11.809 21.98C12.055 22.027 12.336 21.973 12.539 21.84C12.637 21.777 12.777 21.637 12.839 21.54C12.902 21.445 12.957 21.305 12.98 21.191C12.992 21.117 12.996 20.5 12.996 17.051V12.996H17.051C21.488 12.996 21.18 13 21.371 12.926C21.4969 12.8773 21.6103 12.8012 21.703 12.703C21.831 12.5753 21.9218 12.4151 21.9658 12.2397C22.0098 12.0643 22.0052 11.8803 21.9526 11.7073C21.9 11.5343 21.8014 11.3788 21.6672 11.2576C21.533 11.1363 21.3684 11.0539 21.191 11.019C21.117 11.008 20.5 11.004 17.051 11.004H12.996V6.94899C12.996 3.49999 12.992 2.88299 12.98 2.80899C12.9418 2.61383 12.8464 2.43447 12.7059 2.29377C12.5654 2.15307 12.3861 2.05741 12.191 2.01899C12.0617 1.99953 11.9303 1.99953 11.801 2.01899L11.8 2.01999Z" fill="#202020"/>
</svg>
