<svg width="24" height="24" viewBox="0 0 24 24" fill="none" xmlns="http://www.w3.org/2000/svg">
<path d="M11.45 0.0117998C8.93596 0.121037 6.52035 1.02007 4.54662 2.58106C2.57289 4.14206 1.14151 6.28556 0.456 8.7068C0.220559 9.54202 0.0740787 10.3998 0.019 11.2658C0.00339297 11.7537 0.00339297 12.2419 0.019 12.7298C0.116 14.0898 0.374 15.2458 0.839 16.4218C1.4755 18.0396 2.45754 19.4989 3.71652 20.6977C4.9755 21.8966 6.48105 22.8061 8.128 23.3628C9.882 23.9568 11.78 24.1408 13.64 23.8868C15.4662 23.6395 17.2106 22.9735 18.737 21.9408C20.3068 20.8753 21.6027 19.4541 22.519 17.7928C22.659 17.5388 22.905 17.0348 23.022 16.7578C23.464 15.7268 23.761 14.6478 23.897 13.5508C23.972 12.9838 23.991 12.6248 23.991 12.0038C23.991 11.4728 23.983 11.2658 23.941 10.8158C23.7517 8.84676 23.0765 6.95552 21.976 5.3118C20.6849 3.39027 18.8679 1.88114 16.742 0.9648C15.6299 0.494688 14.4546 0.190767 13.254 0.0627998C12.746 0.0117998 11.923 -0.0122002 11.45 0.0117998ZM12.246 4.0318C12.586 4.1168 12.856 4.3748 12.965 4.7268L12.992 4.8088L12.996 7.9018L13.004 10.9958L16.098 11.0038C19.57 11.0118 19.223 10.9998 19.43 11.0978C19.6015 11.1773 19.7462 11.3048 19.8467 11.4649C19.9472 11.625 19.999 11.8108 19.996 11.9998C19.996 12.4528 19.719 12.8238 19.273 12.9648L19.191 12.9878L16.098 12.9958L13.004 12.9998L12.996 16.0938L12.992 19.1868L12.965 19.2728C12.9056 19.4824 12.779 19.6667 12.6046 19.7973C12.4303 19.928 12.2179 19.9977 12 19.9958C11.8111 19.9984 11.6254 19.9464 11.4654 19.846C11.3054 19.7456 11.1778 19.601 11.098 19.4298C11 19.2228 11.012 19.5698 11.004 16.0938L11 12.9998L7.906 12.9958L4.813 12.9878L4.727 12.9648C4.168 12.7888 3.871 12.2228 4.055 11.6748C4.09773 11.549 4.16535 11.4331 4.25382 11.3339C4.3423 11.2348 4.44983 11.1545 4.57 11.0978C4.777 10.9998 4.43 11.0118 7.906 11.0038L11 10.9958L11.004 7.9018C11.012 4.4298 11 4.7768 11.098 4.5698C11.1969 4.36057 11.3656 4.19233 11.5751 4.09397C11.7846 3.99561 12.0218 3.97427 12.246 4.0318Z" fill="currentColor"/>
</svg>
