<svg width="24" height="24" viewBox="0 0 24 24" fill="none" xmlns="http://www.w3.org/2000/svg">
<path d="M11.8 2.01997C11.477 2.08597 11.191 2.32397 11.074 2.62897C11 2.82397 11.004 2.50397 11.008 7.04297L11.012 11.183L11.035 11.273C11.141 11.609 11.391 11.859 11.727 11.961C11.8152 11.9883 11.9079 11.9989 12 11.992C12.0935 11.9988 12.1874 11.9883 12.277 11.961C12.609 11.859 12.859 11.609 12.965 11.273L12.992 11.183V7.04297C12.996 3.50797 12.992 2.88697 12.98 2.81297C12.9425 2.6172 12.8473 2.43712 12.7068 2.29582C12.5662 2.15452 12.3866 2.05846 12.191 2.01997C12.0617 2.00051 11.9293 2.00051 11.8 2.01997Z" fill="currentColor"/>
<path d="M5.434 4.65597C5.328 4.67997 5.184 4.73797 5.098 4.79597C4.961 4.88597 4.628 5.22597 4.313 5.60597C3.09425 7.07294 2.32018 8.85771 2.082 10.75C2.023 11.219 2.012 11.406 2.012 11.992C2.012 12.555 2.016 12.68 2.062 13.105C2.2914 15.1583 3.14992 17.0905 4.52 18.637C4.715 18.855 5.176 19.317 5.395 19.504C6.93614 20.8606 8.85743 21.71 10.898 21.937C11.293 21.98 11.48 21.988 12.02 21.988C12.582 21.988 12.797 21.977 13.254 21.918C15.1025 21.684 16.8491 20.9387 18.297 19.766C18.676 19.461 19.168 18.988 19.48 18.636C20.0822 17.9536 20.5895 17.1931 20.988 16.375C21.537 15.2504 21.8695 14.0325 21.968 12.785C21.996 12.485 22 11.582 21.977 11.289C21.8893 10.1031 21.5931 8.94196 21.102 7.85897C20.6235 6.80628 19.965 5.84519 19.156 5.01897C18.934 4.79697 18.867 4.75397 18.668 4.68697C18.5077 4.63615 18.3373 4.62584 18.172 4.65697C17.77 4.73797 17.465 5.04697 17.382 5.44897C17.359 5.57897 17.367 5.78097 17.402 5.90197C17.43 5.99597 17.492 6.12897 17.547 6.20697C17.567 6.23797 17.657 6.33597 17.747 6.42997C18.6733 7.38413 19.3464 8.55463 19.7053 9.83509C20.0642 11.1155 20.0974 12.4654 19.802 13.762C19.5625 14.8195 19.1112 15.8176 18.4753 16.6959C17.8394 17.5741 17.032 18.3144 16.102 18.872C14.3313 19.9251 12.2233 20.2563 10.215 19.797C9.09664 19.5403 8.04642 19.0466 7.13534 18.3491C6.22426 17.6516 5.47356 16.7666 4.934 15.754C3.97089 13.9314 3.7443 11.8087 4.301 9.82397C4.671 8.52697 5.309 7.42197 6.266 6.41797C6.434 6.24597 6.469 6.19897 6.531 6.07397C6.5926 5.953 6.6261 5.81968 6.629 5.68397C6.64221 5.44596 6.56937 5.21115 6.42378 5.02241C6.27818 4.83368 6.06956 4.70361 5.836 4.65597C5.70271 4.63646 5.56729 4.63646 5.434 4.65597Z" fill="currentColor"/>
</svg>
