<svg width="24" height="24" viewBox="0 0 24 24" fill="none" xmlns="http://www.w3.org/2000/svg">
<path d="M3.75 0.00790625C2.89015 0.0642679 2.07119 0.395567 1.414 0.952906C1.2111 1.13125 1.02314 1.3259 0.852 1.53491C0.358558 2.16176 0.0657932 2.92295 0.012 3.71891C0.004 3.84791 -2.32831e-10 6.26591 0.004 12.1169L0.008 20.3359L0.031 20.5159C0.101 20.9879 0.211 21.3479 0.411 21.7539C0.741689 22.4325 1.25812 23.0035 1.90032 23.4003C2.54251 23.7972 3.28412 24.0037 4.039 23.9959C4.23272 23.9886 4.4201 23.9249 4.5781 23.8126C4.7361 23.7002 4.85785 23.5442 4.92838 23.3636C4.99891 23.183 5.01515 22.9858 4.97511 22.7961C4.93508 22.6064 4.8405 22.4326 4.703 22.2959C4.5 22.0939 4.246 21.9959 3.914 21.9959C3.652 21.9959 3.277 21.8909 3.024 21.7459C2.8639 21.6554 2.71772 21.5422 2.59 21.4099C2.33751 21.1672 2.15748 20.859 2.07 20.5199C2 20.2539 2.004 20.9219 2.004 11.9999C2.004 4.78091 2.008 3.81191 2.024 3.70691C2.07 3.39091 2.187 3.09691 2.379 2.82791C2.461 2.71091 2.711 2.46091 2.832 2.37791C3.109 2.17991 3.43 2.05491 3.75 2.01591C3.832 2.00791 5.203 2.00391 9.07 2.00791L14.281 2.01191L14.391 2.03491C15.117 2.19891 15.671 2.68691 15.898 3.36691C15.988 3.63691 15.988 3.64091 15.996 4.42991C16.004 5.10191 16.004 5.14491 16.027 5.23391C16.121 5.58191 16.363 5.83991 16.699 5.94891C16.859 6.00391 17.004 6.01191 17.176 5.97991C17.3695 5.94785 17.5484 5.85668 17.688 5.71891C17.844 5.57237 17.948 5.3789 17.984 5.16791C18 5.06991 18 4.96791 17.996 4.35891C17.992 3.72991 17.988 3.64491 17.965 3.48391C17.865 2.71864 17.5462 1.99849 17.047 1.40991C16.8868 1.23022 16.7144 1.06182 16.531 0.905906C15.9535 0.432907 15.2558 0.129939 14.516 0.0309062L14.34 0.00790625L9.07 0.00390625C6.172 0.00390625 3.781 0.00390625 3.75 0.00790625Z" fill="#202020"/>
<path d="M5.8 5.01991C5.57414 5.06684 5.37146 5.19041 5.22629 5.36968C5.08112 5.54896 5.0024 5.77291 5.00346 6.00358C5.00451 6.23426 5.08529 6.45748 5.2321 6.63541C5.37891 6.81335 5.58272 6.93505 5.809 6.97991C5.937 7.00391 12.059 7.00391 12.191 6.97991C12.3862 6.94279 12.5651 6.84601 12.703 6.70291C12.831 6.57517 12.9218 6.41504 12.9658 6.23964C13.0098 6.06424 13.0052 5.88018 12.9526 5.70718C12.9 5.53417 12.8014 5.37872 12.6672 5.25748C12.533 5.13625 12.3684 5.05378 12.191 5.01891C12.066 4.99591 5.918 4.99591 5.801 5.01891L5.8 5.01991ZM19.484 8.26991C18.9602 8.33134 18.4625 8.53234 18.043 8.85191C17.926 8.94191 17.758 9.09791 17.012 9.84391C16.523 10.3279 16.125 10.7339 16.125 10.7419C16.125 10.7729 16.223 11.0509 16.289 11.2069C17.094 13.0899 19.215 15.1449 21.035 15.8009C21.129 15.8359 21.219 15.8669 21.235 15.8709C21.262 15.8789 21.352 15.7929 22.16 14.9809C22.836 14.3049 23.082 14.0509 23.145 13.9609C23.5627 13.4125 23.7766 12.7358 23.75 12.0469C23.7304 11.3914 23.4941 10.7608 23.078 10.2539C22.968 10.1139 21.875 9.02391 21.73 8.90991C21.2897 8.55417 20.7573 8.33084 20.195 8.26591C19.9587 8.24579 19.7211 8.24713 19.485 8.26991H19.484ZM5.844 9.01191C5.68 9.03891 5.5 9.12191 5.371 9.22191C5.21367 9.35446 5.09832 9.52992 5.039 9.72691C5.004 9.85191 4.996 10.0669 5.023 10.1949C5.098 10.5749 5.383 10.8669 5.766 10.9729L5.867 10.9959H10.133L10.234 10.9729C10.4139 10.9296 10.5783 10.8373 10.7087 10.7061C10.8392 10.5749 10.9307 10.41 10.973 10.2299C11 10.1099 11.003 9.90991 10.977 9.78991C10.9444 9.63785 10.8764 9.49562 10.7786 9.37471C10.6808 9.2538 10.5559 9.15761 10.414 9.09391C10.207 8.99591 10.43 9.00391 8.035 9.00391C6.859 9.00391 5.875 9.00791 5.844 9.01191ZM11.965 14.8899C9.934 16.9219 9.34 17.5229 9.285 17.6019C9.137 17.8089 9.031 18.0319 8.973 18.2579C8.83702 19.0109 8.70668 19.7649 8.582 20.5199C8.27 22.3869 8.222 22.6879 8.222 22.7929C8.222 23.3359 8.668 23.7769 9.211 23.7769C9.297 23.7769 9.758 23.7029 11.465 23.4179C12.645 23.2229 13.656 23.0509 13.711 23.0389C13.981 22.9729 14.266 22.8289 14.477 22.6559C14.567 22.5779 19.719 17.4299 19.711 17.4219C19.6374 17.3815 19.5631 17.3425 19.488 17.3049C17.543 16.3049 15.618 14.3629 14.656 12.4379C14.6315 12.3841 14.6042 12.3317 14.574 12.2809L11.964 14.8909L11.965 14.8899ZM5.879 13.0079C5.73 13.0229 5.559 13.0899 5.426 13.1799C5.21888 13.3311 5.07526 13.5538 5.023 13.8049C4.996 13.9339 5.003 14.1479 5.039 14.2729C5.133 14.6019 5.387 14.8549 5.727 14.9609L5.832 14.9919L6.949 14.9959C7.914 14.9999 8.079 14.9999 8.172 14.9799C8.322 14.954 8.46403 14.8939 8.58715 14.8044C8.71026 14.7149 8.81117 14.5983 8.8821 14.4636C8.95302 14.3289 8.99206 14.1797 8.9962 14.0275C9.00035 13.8753 8.96949 13.7243 8.906 13.5859C8.8357 13.428 8.725 13.2914 8.58508 13.1899C8.44515 13.0885 8.28094 13.0257 8.109 13.0079C7.36575 12.9923 6.62225 12.9923 5.879 13.0079Z" fill="#202020"/>
</svg>
