<svg width="24" height="24" viewBox="0 0 24 24" fill="none" xmlns="http://www.w3.org/2000/svg">
<g clip-path="url(#clip0_2435_48257)">
<path d="M1.781 0.012C1.47924 0.0503797 1.18912 0.152653 0.93 0.312C0.754 0.422 0.53 0.625 0.406 0.79C0.18844 1.08558 0.0525507 1.43323 0.012 1.798C-0.004 1.958 -0.004 22.044 0.012 22.204C0.055 22.575 0.192 22.923 0.406 23.208C0.476 23.302 0.656 23.485 0.746 23.556C1.05153 23.8018 1.42258 23.9524 1.813 23.989C1.903 23.997 2.426 24.001 3.593 23.997C5.059 23.993 5.253 23.989 5.336 23.974C5.73518 23.9033 6.10391 23.7143 6.39438 23.4315C6.68484 23.1487 6.88364 22.7851 6.965 22.388L6.992 22.271L7.004 13.997H18L18.004 14.872C18.008 15.732 18.008 15.747 18.031 15.837C18.0706 15.9865 18.1442 16.1249 18.2461 16.2413C18.3479 16.3577 18.4753 16.449 18.6183 16.5081C18.7613 16.5671 18.916 16.5923 19.0703 16.5817C19.2246 16.5711 19.3744 16.525 19.508 16.447C19.594 16.396 19.746 16.247 21.492 14.497C23.598 12.396 23.453 12.552 23.532 12.306C23.5615 12.2246 23.5757 12.1385 23.574 12.052C23.5911 11.8598 23.5474 11.667 23.449 11.501C23.402 11.415 23.262 11.271 21.527 9.536C20.8854 8.88992 20.2397 8.24791 19.59 7.61C19.4899 7.53849 19.3792 7.48315 19.262 7.446C19.1191 7.41684 18.9722 7.41312 18.828 7.435C18.438 7.509 18.141 7.778 18.031 8.161C18.008 8.255 18.008 8.267 18.004 9.13L18 10.005L7.004 10L6.992 1.727L6.965 1.609C6.835 1.059 6.551 0.637 6.105 0.336C5.83456 0.155227 5.52372 0.0439413 5.2 0.012C5.064 -0.004 1.914 -0.004 1.781 0.012Z" fill="currentColor"/>
<path d="M10.781 0.012C10.3273 0.0648903 9.90511 0.270332 9.58352 0.594648C9.26193 0.918964 9.06006 1.34291 9.011 1.797C9.005 1.87 9 2.875 9 4.957V8.004L11 7.996V5L11.004 2.004H14.004V8.004H15.996L15.988 1.727L15.965 1.609C15.84 1.074 15.559 0.645 15.133 0.355C14.8924 0.187091 14.6174 0.0750303 14.328 0.027C14.246 0.012 14.023 0.007 12.551 0.004C11.625 0.004 10.828 0.008 10.781 0.012ZM9 19.043C9 21.121 9.004 22.129 9.012 22.203C9.05362 22.648 9.24795 23.0649 9.562 23.383C9.863 23.695 10.242 23.895 10.676 23.973C10.793 23.993 10.898 23.993 12.492 23.993C13.836 23.993 14.207 23.993 14.285 23.98C14.585 23.934 14.863 23.824 15.105 23.66C15.551 23.363 15.84 22.937 15.965 22.387L15.988 22.27L15.996 15.996H14.004V21.996H11.004L11 19V16H10L9 15.996V19.043Z" fill="currentColor"/>
</g>
<defs>
<clipPath id="clip0_2435_48257">
<rect width="24" height="24" fill="white"/>
</clipPath>
</defs>
</svg>
