<svg width="24" height="24" viewBox="0 0 24 24" fill="none" xmlns="http://www.w3.org/2000/svg">
<path d="M11.566 0.00797164C9.79 0.0899716 8.246 0.472972 6.734 1.20997C5.00461 2.05066 3.5034 3.2959 2.35762 4.84015C1.21183 6.3844 0.45525 8.18214 0.152 10.081C0.043 10.766 0.008 11.266 0.008 12C-0.00160423 14.309 0.659119 16.5711 1.91 18.512C2.99648 20.1913 4.48385 21.5739 6.238 22.535C8.67623 23.8588 11.4958 24.303 14.223 23.793C15.7191 23.5167 17.1483 22.9559 18.433 22.141C19.5441 21.4331 20.5324 20.5488 21.359 19.523C22.831 17.6908 23.7305 15.4654 23.945 13.125C23.985 12.707 23.992 12.508 23.992 12C23.992 11.23 23.949 10.672 23.824 9.94997C23.298 6.87653 21.5939 4.12948 19.074 2.29297C17.6821 1.28183 16.0886 0.582617 14.402 0.242972C13.863 0.132972 13.406 0.0699717 12.832 0.0269716C12.4103 0.00683756 11.9881 0.000167492 11.566 0.00697164V0.00797164ZM12.828 2.03097C13.718 2.11297 14.426 2.25797 15.218 2.52297C16.8032 3.06126 18.2282 3.98815 19.363 5.21897C20.6421 6.60553 21.4999 8.3277 21.836 10.184C21.949 10.793 21.996 11.34 21.996 11.996C22.0029 14.1386 21.3194 16.2265 20.0467 17.9503C18.774 19.674 16.9798 20.9419 14.93 21.566C14.262 21.77 13.605 21.895 12.832 21.969C12.555 21.992 11.766 22.004 11.449 21.984C9.81562 21.8996 8.22847 21.4125 6.829 20.566C5.70928 19.8906 4.7323 19.003 3.953 17.953C3.05963 16.7457 2.45202 15.3513 2.176 13.875C2.109 13.535 2.059 13.152 2.023 12.75C2 12.465 2.003 11.469 2.031 11.18C2.18 9.52697 2.661 8.06997 3.504 6.70697C4.10381 5.7465 4.86185 4.89447 5.746 4.18697C7.38271 2.87723 9.39035 2.11623 11.484 2.01197C11.9321 2.00524 12.3803 2.01191 12.828 2.03197V2.03097Z" fill="#202020"/>
<path d="M11.727 4.00797C10.832 4.05799 9.96707 4.34816 9.223 4.84797C8.88828 5.06658 8.58339 5.32777 8.316 5.62497C7.77278 6.21687 7.38035 6.93107 7.172 7.70697C7.14045 7.80265 7.12688 7.90335 7.132 8.00397C7.132 8.14097 7.137 8.17597 7.164 8.26597C7.254 8.56197 7.438 8.77697 7.714 8.90597C7.94915 9.0154 8.2179 9.02797 8.46224 8.94098C8.70659 8.85398 8.90692 8.67439 9.02 8.44097C9.043 8.40197 9.078 8.29697 9.105 8.20697C9.26173 7.64538 9.57722 7.14097 10.0136 6.75427C10.4499 6.36757 10.9886 6.11504 11.565 6.02697C11.742 6.00397 12.066 5.99197 12.258 6.01197C12.9343 6.0707 13.5708 6.3567 14.0638 6.82337C14.5568 7.29005 14.8773 7.9099 14.973 8.58197C15 8.74597 15.003 9.20697 14.98 9.37497C14.8939 10.0337 14.5934 10.6459 14.125 11.117C13.906 11.336 13.711 11.48 13.355 11.684C12.121 12.387 11.348 13.277 11.094 14.285C11.016 14.59 11.012 14.656 11.012 15.191C11.012 15.738 11.012 15.738 11.105 15.934C11.1694 16.0678 11.2629 16.1855 11.3787 16.2785C11.4945 16.3716 11.6297 16.4375 11.7742 16.4715C11.9188 16.5056 12.0692 16.5068 12.2143 16.4753C12.3594 16.4437 12.4957 16.38 12.613 16.289C12.723 16.203 12.82 16.082 12.891 15.941C12.984 15.754 12.988 15.742 12.996 15.27C13.004 14.906 13.008 14.844 13.027 14.77C13.0666 14.6337 13.1274 14.5045 13.207 14.387C13.441 14.031 13.817 13.719 14.387 13.395C15.141 12.965 15.711 12.445 16.157 11.777C16.6677 11.0155 16.9568 10.1271 16.992 9.21097C17.0408 8.11396 16.725 7.03166 16.094 6.13297C15.655 5.50722 15.0784 4.99033 14.4086 4.62198C13.7388 4.25363 12.9936 4.04358 12.23 4.00797C12.0625 3.99629 11.8945 3.99629 11.727 4.00797ZM11.852 18.012C11.535 18.062 11.262 18.258 11.117 18.539C11.0372 18.6789 11.0007 18.8393 11.012 19C11.012 19.195 11.023 19.262 11.094 19.414C11.1563 19.5508 11.2488 19.6718 11.3645 19.7679C11.4801 19.864 11.616 19.9328 11.762 19.969C11.891 20.004 12.109 20.004 12.242 19.969C12.355 19.937 12.512 19.867 12.594 19.805C12.77 19.672 12.887 19.508 12.957 19.289C12.984 19.199 12.988 19.176 12.988 19.008C12.992 18.852 12.988 18.813 12.965 18.734C12.9081 18.5305 12.7883 18.3503 12.6227 18.2191C12.457 18.088 12.2541 18.0127 12.043 18.004C11.973 18.004 11.887 18.004 11.852 18.012Z" fill="#202020"/>
</svg>
