<svg width="24" height="24" viewBox="0 0 24 24" fill="none" xmlns="http://www.w3.org/2000/svg">
<path d="M4.746 0.00822212C3.781 0.0782221 2.902 0.468222 2.215 1.13322C1.531 1.79322 1.125 2.64122 1.015 3.62122C0.996 3.82122 0.996 20.1802 1.015 20.3792C1.109 21.1992 1.395 21.8952 1.902 22.5272C2.027 22.6842 2.328 22.9842 2.492 23.1132C3.098 23.5982 3.812 23.8912 4.59 23.9802C4.797 24.0002 19.203 24.0002 19.414 23.9802C20.3051 23.8867 21.1388 23.496 21.781 22.8712C22.3794 22.2926 22.7824 21.5417 22.934 20.7232C23 20.3672 22.996 20.6132 23 16.6682C23.004 14.1722 23 12.9842 22.992 12.8442C22.9776 12.5185 22.909 12.1974 22.789 11.8942C22.6354 11.5152 22.4084 11.1702 22.121 10.8792C21.6423 10.4048 21.0198 10.1024 20.351 10.0192C20.27 10.0082 19.648 10.0002 17.953 9.99622C15.664 9.98822 15.664 9.98822 15.52 9.96522C15.0444 9.88564 14.595 9.69251 14.21 9.40222C13.8235 9.1197 13.5138 8.745 13.309 8.31222C13.1699 8.03602 13.0747 7.73979 13.027 7.43422L13.004 7.27022L12.996 4.96922C12.988 2.47722 12.992 2.64522 12.926 2.33922C12.7832 1.71615 12.4468 1.15429 11.965 0.734222C11.4837 0.321323 10.8856 0.0689217 10.254 0.0122221C10.133 0.000222116 4.894 -0.00377788 4.746 0.00822212ZM10.25 11.5302C10.594 11.6202 10.875 11.9012 10.969 12.2532C11.004 12.3862 11.004 12.6132 10.969 12.7412C10.9376 12.8539 10.8905 12.9617 10.829 13.0612C10.809 13.0932 10.031 13.8782 9.102 14.8082L7.414 16.5002L9.102 18.1912C10.032 19.1212 10.809 19.9062 10.828 19.9382C10.883 20.0202 10.941 20.1522 10.968 20.2542C11.004 20.3872 11.004 20.6142 10.968 20.7462C10.9221 20.9197 10.8312 21.078 10.7044 21.205C10.5776 21.332 10.4194 21.4231 10.246 21.4692C10.117 21.5042 9.886 21.5042 9.758 21.4692C9.63594 21.4368 9.52075 21.3826 9.418 21.3092C9.378 21.2812 8.41 20.3242 7.27 19.1792C4.965 16.8752 5.129 17.0512 5.047 16.8052C5.012 16.6952 5.012 16.6882 5.012 16.5002C5.012 16.3122 5.012 16.3052 5.047 16.1952C5.129 15.9492 4.965 16.1252 7.27 13.8202C8.41 12.6762 9.379 11.7192 9.418 11.6872C9.547 11.5942 9.699 11.5352 9.863 11.5072C9.961 11.4922 10.141 11.5042 10.25 11.5312V11.5302ZM14.246 11.5302C14.359 11.5582 14.488 11.6202 14.582 11.6862C14.622 11.7182 15.59 12.6752 16.73 13.8192C19.035 16.1242 18.871 15.9492 18.953 16.1942C18.988 16.3042 18.988 16.3112 18.988 16.4992C18.988 16.6872 18.988 16.6942 18.953 16.8042C18.871 17.0502 19.035 16.8742 16.73 19.1792C16.0216 19.8965 15.3055 20.6062 14.582 21.3082C14.4811 21.3823 14.3671 21.4366 14.246 21.4682C14.0839 21.5033 13.9161 21.5033 13.754 21.4682C13.5804 21.4223 13.422 21.3312 13.295 21.2042C13.168 21.0772 13.0769 20.9188 13.031 20.7452C12.9959 20.5831 12.9959 20.4153 13.031 20.2532C13.0623 20.1414 13.1095 20.0347 13.171 19.9362C13.191 19.9062 13.969 19.1202 14.898 18.1902L16.59 16.5002L14.898 14.8092C13.968 13.8792 13.191 13.0942 13.172 13.0632C13.1105 12.9637 13.0634 12.8559 13.032 12.7432C12.9967 12.5808 12.9967 12.4127 13.032 12.2502C13.132 11.8632 13.461 11.5702 13.859 11.5082C13.957 11.4922 14.137 11.5042 14.246 11.5312V11.5302Z" fill="#202020"/>
<path d="M15.91 0.418222C15.8142 0.431849 15.72 0.455306 15.629 0.488222C15.5038 0.5392 15.3899 0.614498 15.2939 0.709761C15.198 0.805023 15.1219 0.918362 15.07 1.04322C14.996 1.23422 15 1.10522 15 3.71922C15 5.23422 15.004 6.13722 15.012 6.20322C15.09 6.89522 15.504 7.49322 16.117 7.79322C16.363 7.91422 16.59 7.97322 16.883 7.99322C17 8.00022 17.832 8.00322 19.395 8.00022C21.575 7.99622 21.738 7.99622 21.809 7.97722C22.035 7.92707 22.2356 7.79801 22.375 7.61322C22.5247 7.42425 22.5973 7.18555 22.578 6.94522C22.5759 6.73388 22.4982 6.53027 22.359 6.37122C22.246 6.22722 16.645 0.641222 16.562 0.586222C16.4667 0.522246 16.3612 0.474907 16.25 0.446222C16.1386 0.420327 16.0241 0.410894 15.91 0.418222Z" fill="#202020"/>
</svg>
