<svg width="24" height="24" viewBox="0 0 24 24" fill="none" xmlns="http://www.w3.org/2000/svg">
<path d="M14.328 3.12918C14.0466 3.16453 13.7806 3.27757 13.5598 3.4556C13.339 3.63364 13.1722 3.86965 13.078 4.13718C13.063 4.18018 13.043 4.26218 13.028 4.32418C13.004 4.43418 13.004 4.47318 13 5.73818L12.996 7.03918L12.836 7.05518C10.496 7.26518 8.434 8.14818 6.723 9.66818C6.52 9.84418 6.098 10.2622 5.903 10.4772C4.93 11.5352 4.09 12.8472 3.453 14.3122C2.76 15.9034 2.30577 17.5882 2.105 19.3122C2.07 19.5902 2.07 19.6802 2.085 19.8092C2.105 19.9612 2.141 20.0702 2.207 20.2072C2.398 20.6022 2.762 20.8792 3.219 20.9732C3.359 21.0002 3.649 21.0002 3.781 20.9732C3.961 20.9332 4.121 20.8712 4.27 20.7852C4.621 20.5782 4.914 20.2192 5.066 19.8052C5.09 19.7422 5.145 19.5392 5.191 19.3552C5.34 18.7462 5.516 18.2732 5.789 17.7462C6.289 16.7772 7.039 15.8862 7.969 15.1522C9.36116 14.0614 11.0127 13.3509 12.762 13.0902L12.992 13.0592L12.996 14.3132C13.004 15.5352 13.004 15.5702 13.027 15.6762C13.0867 15.9696 13.2329 16.2385 13.4467 16.4481C13.6606 16.6577 13.9324 16.7985 14.227 16.8522C14.336 16.8752 14.375 16.8752 14.555 16.8722C14.711 16.8672 14.781 16.8592 14.848 16.8442C15.047 16.7892 15.164 16.7342 15.324 16.6332C15.43 16.5632 15.621 16.3752 18.031 13.9652C18.9256 13.0771 19.8149 12.1837 20.699 11.2852C21.035 10.8872 21.199 10.3832 21.164 9.85918C21.1391 9.51011 21.0232 9.17364 20.828 8.88318C20.742 8.75018 20.684 8.69118 18.082 6.09318C15.984 3.99318 15.41 3.42618 15.34 3.37918C15.1719 3.26594 14.9834 3.18646 14.785 3.14518C14.634 3.12055 14.4804 3.11517 14.328 3.12918Z" fill="currentColor"/>
</svg>
