<svg width="24" height="24" viewBox="0 0 24 24" fill="none" xmlns="http://www.w3.org/2000/svg">
<path d="M13.063 0.206822C10.405 0.261822 7.484 1.26982 4.886 3.03082C4.358 3.39082 3.756 3.84782 3.601 4.00782C3.433 4.17982 3.331 4.36282 3.265 4.60182C3.22965 4.78987 3.2256 4.98246 3.253 5.17182C3.30772 5.47075 3.45211 5.74594 3.667 5.96083C3.88188 6.17571 4.15707 6.32011 4.456 6.37482C4.624 6.40582 4.8 6.41482 4.952 6.39782C5.315 6.35882 5.589 6.26182 5.952 6.03082C7.382 5.13282 9.085 4.77282 10.929 4.98082C12.557 5.16956 14.1148 5.75127 15.468 6.67582L15.542 6.72982L14.628 7.64482C13.648 8.62882 13.644 8.62882 13.534 8.86282C13.433 9.07382 13.394 9.25282 13.394 9.49582C13.3937 9.81399 13.4946 10.124 13.6821 10.3811C13.8696 10.6381 14.134 10.8289 14.437 10.9258C14.659 10.9958 14.39 10.9918 18.511 10.9878L22.284 10.9838L22.397 10.9608C23.03 10.8118 23.527 10.4298 23.796 9.87082C23.9012 9.65403 23.9659 9.41986 23.987 9.17982C23.995 9.09382 23.999 7.90182 23.995 5.36682V1.67982L23.968 1.57382C23.9071 1.28753 23.7615 1.0262 23.55 0.823822C23.3639 0.640966 23.1337 0.50933 22.8818 0.441696C22.6298 0.374062 22.3646 0.372727 22.112 0.437822C21.9281 0.48745 21.7555 0.572358 21.604 0.687822C21.565 0.717822 21.147 1.12482 20.674 1.59782L19.819 2.45282L19.679 2.34782C18.063 1.13282 16.285 0.437822 14.332 0.253822C13.9097 0.216479 13.4869 0.200792 13.063 0.206822ZM1.766 13.0158C1.43402 13.0568 1.11742 13.1796 0.844609 13.3732C0.571803 13.5667 0.351336 13.825 0.203 14.1248C0.0982957 14.3418 0.0335928 14.5759 0.012 14.8158C0.004 14.9058 -2.32831e-10 16.0978 0.004 18.6328L0.008 22.3158L0.031 22.4218C0.101 22.7268 0.231 22.9608 0.437 23.1638C0.647948 23.3759 0.917491 23.5201 1.211 23.5778C1.351 23.6088 1.633 23.6178 1.758 23.5898C1.98 23.5468 2.203 23.4528 2.371 23.3278C2.434 23.2808 2.758 22.9678 3.324 22.4018L4.18 21.5468L4.36 21.6838C5.957 22.8748 7.742 23.5698 9.668 23.7458C10.3581 23.8044 11.0519 23.8044 11.742 23.7458C14.539 23.4918 17.492 22.2658 20.027 20.3048C20.395 20.0198 20.52 19.8868 20.633 19.6558C20.7271 19.4727 20.7728 19.2686 20.766 19.0628C20.766 18.6798 20.613 18.3198 20.336 18.0428C19.902 17.6048 19.234 17.4768 18.574 17.7028C18.422 17.7528 18.246 17.8398 18.07 17.9528C16.43 18.9878 14.422 19.3198 12.309 18.9028C11.5536 18.7505 10.8172 18.5157 10.113 18.2028C9.613 17.9838 8.949 17.6128 8.551 17.3358L8.457 17.2698L9.371 16.3548C10.328 15.3948 10.348 15.3748 10.453 15.1678C10.566 14.9378 10.613 14.7298 10.602 14.4528C10.5979 14.2536 10.5532 14.0573 10.4707 13.8759C10.3882 13.6945 10.2695 13.5318 10.122 13.3978C9.94108 13.2285 9.72021 13.1077 9.48 13.0468L9.36 13.0118H5.577C3.499 13.0118 1.784 13.0118 1.765 13.0158H1.766Z" fill="#202020"/>
</svg>
