<svg width="24" height="24" viewBox="0 0 24 24" fill="none" xmlns="http://www.w3.org/2000/svg">
<g clip-path="url(#clip0_2064_54297)">
<path d="M7.824 0.0162377C7.484 0.0822377 7.207 0.305238 7.078 0.617238C7.008 0.789238 7.004 0.809238 7 1.43424L6.992 2.00424H6.391C5.75 2.00424 5.621 2.01224 5.336 2.05924C4.51644 2.19438 3.75975 2.58267 3.17205 3.16965C2.58436 3.75663 2.19514 4.51285 2.059 5.33224C2.012 5.62224 2.004 5.74624 2.004 6.39124V6.99624H1.496C0.863 6.99624 0.773 7.00424 0.578 7.09824C0.362405 7.19622 0.190208 7.36984 0.094 7.58624C0.0376196 7.70863 0.00665983 7.84118 0.00299466 7.97588C-0.000670497 8.11058 0.0230352 8.24462 0.0726768 8.3699C0.122318 8.49517 0.196864 8.60907 0.2918 8.70469C0.386737 8.80032 0.50009 8.87569 0.625 8.92624C0.793 8.99224 0.863 9.00024 1.465 9.00024H2.004V11.0042L1.41 11.0082C0.734 11.0122 0.746 11.0082 0.54 11.1182C0.419608 11.1794 0.313087 11.2646 0.227068 11.3687C0.141049 11.4728 0.077372 11.5935 0.04 11.7232C0.0123412 11.8128 0.00149198 11.9067 0.008 12.0002C0.008 12.1522 0.012 12.1802 0.039 12.2732C0.141 12.6092 0.391 12.8592 0.727 12.9612C0.813 12.9882 0.832 12.9882 1.41 12.9922L2.004 12.9962V15.0002H1.464C0.864 15.0002 0.793 15.0042 0.625 15.0742C0.500545 15.1254 0.387672 15.201 0.293129 15.2968C0.198585 15.3925 0.124311 15.5063 0.0747445 15.6314C0.0251779 15.7565 0.00133641 15.8903 0.00464485 16.0248C0.00795329 16.1593 0.0383437 16.2917 0.094 16.4142C0.199 16.6412 0.364 16.8042 0.578 16.9022C0.773 16.9922 0.868 17.0042 1.504 17.0042H2.004V17.6092C2.004 18.2502 2.012 18.3792 2.059 18.6642C2.19494 19.4841 2.58401 20.2409 3.17167 20.8286C3.75932 21.4162 4.51612 21.8053 5.336 21.9412C5.609 21.9882 5.758 21.9962 6.391 21.9962H6.992L7 22.5662C7.004 23.1912 7.008 23.2112 7.078 23.3832C7.13331 23.5176 7.21768 23.638 7.32505 23.7359C7.43242 23.8337 7.56013 23.9066 7.699 23.9492C7.83451 23.9923 7.97765 24.0059 8.11885 23.9892C8.26004 23.9724 8.39603 23.9257 8.5177 23.8521C8.63937 23.7786 8.74392 23.6798 8.82434 23.5626C8.90476 23.4453 8.95919 23.3122 8.984 23.1722C8.996 23.0902 9 22.9612 9 22.5352V21.9962H11.004L11.008 22.5902C11.012 23.1682 11.012 23.1882 11.039 23.2732C11.141 23.6092 11.391 23.8592 11.727 23.9612C11.8152 23.9886 11.9079 23.9991 12 23.9922C12.0935 23.9991 12.1874 23.9886 12.277 23.9612C12.609 23.8592 12.859 23.6092 12.961 23.2732C12.988 23.1882 12.988 23.1682 12.992 22.5902L12.996 21.9962H15V22.5362C15 22.9612 15.004 23.0902 15.02 23.1722C15.0463 23.322 15.1066 23.4638 15.1962 23.5867C15.2858 23.7096 15.4024 23.8103 15.5369 23.8812C15.6715 23.9521 15.8205 23.9912 15.9726 23.9955C16.1246 23.9998 16.2756 23.9693 16.414 23.9062C16.5521 23.844 16.6741 23.7511 16.771 23.6347C16.8678 23.5183 16.9369 23.3813 16.973 23.2342C16.996 23.1442 16.996 23.1052 17 22.5662L17.008 21.9962H17.609C17.949 21.9962 18.277 21.9882 18.355 21.9842C19.068 21.9178 19.7509 21.6646 20.335 21.2502C21.1913 20.6339 21.7698 19.7046 21.945 18.6642C21.988 18.3982 21.996 18.2342 21.996 17.6022V17.0042H22.496C23.133 17.0042 23.234 16.9922 23.426 16.9022C23.6397 16.8029 23.8102 16.6296 23.906 16.4142C23.9601 16.3016 23.9908 16.1791 23.996 16.0542C24.027 15.5542 23.668 15.1052 23.176 15.0162C23.094 15.0042 22.961 15.0002 22.536 15.0002H21.996V12.9962L22.59 12.9922C23.168 12.9882 23.188 12.9882 23.273 12.9612C23.609 12.8592 23.859 12.6092 23.961 12.2732C23.9884 12.185 23.9989 12.0924 23.992 12.0002C23.9988 11.9068 23.9883 11.8129 23.961 11.7232C23.9125 11.5609 23.8242 11.4132 23.704 11.2937C23.5838 11.1742 23.4357 11.0868 23.273 11.0392C23.188 11.0122 23.168 11.0122 22.59 11.0082L21.996 11.0042V9.00024H22.536C22.961 9.00024 23.094 8.99624 23.176 8.98024C23.4129 8.93915 23.627 8.81374 23.7787 8.62715C23.9304 8.44056 24.0094 8.20539 24.0013 7.96506C23.9931 7.72473 23.8983 7.49547 23.7343 7.3196C23.5703 7.14374 23.3482 7.03314 23.109 7.00824C22.9075 6.99769 22.7057 6.99369 22.504 6.99624H21.996V6.39124C21.996 5.75024 21.988 5.62124 21.946 5.33624C21.7997 4.46344 21.3678 3.66389 20.7181 3.06302C20.0684 2.46216 19.2376 2.09398 18.356 2.01624C18.1071 2.00582 17.8581 2.00182 17.609 2.00424H17.008L17 1.43424C16.996 0.809238 16.992 0.789238 16.922 0.617238C16.8614 0.473793 16.7686 0.346276 16.6506 0.244629C16.5327 0.142983 16.3928 0.069954 16.242 0.0312377C16.1095 -0.00109261 15.9717 -0.00599014 15.8372 0.0168458C15.7027 0.0396817 15.5743 0.0897691 15.4599 0.164032C15.3454 0.238296 15.2474 0.335167 15.1717 0.448699C15.0961 0.56223 15.0445 0.690026 15.02 0.824238C15.004 0.906238 15 1.03924 15 1.46424V2.00424H12.996L12.992 1.41024C12.988 0.832238 12.988 0.813238 12.961 0.727238C12.9135 0.564576 12.826 0.4164 12.7065 0.296225C12.587 0.17605 12.4394 0.0877017 12.277 0.0392377C12.1874 0.0119163 12.0935 0.00140627 12 0.00823765C11.9079 0.00134331 11.8152 0.0118598 11.727 0.0392377C11.5959 0.0751508 11.4739 0.138225 11.3688 0.224365C11.2637 0.310505 11.1779 0.417784 11.117 0.539238C11.012 0.742238 11.012 0.734238 11.007 1.41024L11.004 2.00424H9V1.46424C9 1.03924 8.996 0.906238 8.984 0.824238C8.93601 0.563943 8.78727 0.333089 8.57008 0.181807C8.35289 0.0305248 8.08479 -0.0289716 7.824 0.0162377ZM16.25 4.00824C17.0764 4.05878 17.8667 4.3645 18.512 4.88324C18.676 5.01624 18.988 5.32424 19.117 5.48824C19.551 6.03124 19.84 6.68024 19.945 7.33624C20 7.68724 20 7.48824 20 12.0002C20 16.5122 20 16.3132 19.945 16.6642C19.8321 17.3399 19.5469 17.975 19.117 18.5082C18.9334 18.7287 18.7309 18.9328 18.512 19.1182C17.9767 19.5472 17.3405 19.8319 16.664 19.9452C16.312 20.0002 16.512 19.9962 12 19.9962C7.488 19.9962 7.687 20.0002 7.336 19.9462C6.66053 19.8322 6.02561 19.5468 5.492 19.1172C5.2705 18.9329 5.06632 18.7287 4.882 18.5072C4.36644 17.8648 4.06127 17.0792 4.008 16.2572C3.992 16.0072 3.992 7.99224 4.008 7.74224C4.06215 6.91907 4.36756 6.13234 4.883 5.48824C5.016 5.32424 5.324 5.01624 5.493 4.88324C6.12849 4.37213 6.9054 4.06814 7.719 4.01224C7.941 3.99624 16.016 3.99224 16.25 4.00824Z" fill="#202020"/>
<path d="M7.777 6.01224C7.47314 6.04686 7.18118 6.15034 6.92333 6.31478C6.66548 6.47923 6.44854 6.70032 6.289 6.96124C6.13746 7.21231 6.0429 7.4936 6.012 7.78524C5.996 7.93424 5.996 16.0662 6.012 16.2112C6.066 16.6802 6.262 17.0902 6.586 17.4142C6.883 17.7112 7.254 17.8982 7.699 17.9802C7.829 18.0002 16.172 18.0002 16.301 17.9802C16.7228 17.9141 17.1127 17.7157 17.4146 17.4138C17.7165 17.1119 17.9148 16.722 17.981 16.3002C18 16.1722 18 7.82824 17.981 7.70024C17.859 7.02024 17.473 6.49624 16.883 6.20324C16.673 6.10162 16.447 6.037 16.215 6.01224C13.4024 5.99661 10.5896 5.99661 7.777 6.01224ZM12.668 8.23824C12.7679 8.27317 12.8541 8.33902 12.914 8.42624C13.004 8.55924 12.996 8.45324 12.996 10.0592V11.4962H13.91C14.473 11.4962 14.844 11.5002 14.883 11.5082C14.9564 11.523 15.0257 11.5538 15.0859 11.5984C15.146 11.6431 15.1955 11.7005 15.2309 11.7665C15.2663 11.8325 15.2866 11.9056 15.2904 11.9804C15.2942 12.0552 15.2814 12.1299 15.253 12.1992C15.219 12.2732 15.145 12.3482 13.508 13.9892C11.641 15.8592 11.75 15.7542 11.582 15.7892C11.4747 15.8035 11.3656 15.7842 11.2698 15.7338C11.174 15.6835 11.0961 15.6047 11.047 15.5082L11.012 15.4262L11.004 12.5042H10.09C9.527 12.5042 9.156 12.5002 9.117 12.4922C9.02072 12.4723 8.93215 12.4252 8.86165 12.3567C8.79116 12.2881 8.74167 12.2009 8.719 12.1052C8.69616 12.0032 8.70704 11.8965 8.75 11.8012C8.781 11.7272 8.855 11.6522 10.492 10.0112C11.68 8.82524 12.22 8.29024 12.258 8.27024C12.3199 8.23551 12.3887 8.21467 12.4595 8.20914C12.5303 8.20362 12.6014 8.21354 12.668 8.23824Z" fill="#202020"/>
</g>
<defs>
<clipPath id="clip0_2064_54297">
<rect width="24" height="24" fill="white"/>
</clipPath>
</defs>
</svg>
