<svg width="24" height="24" viewBox="0 0 24 24" fill="none" xmlns="http://www.w3.org/2000/svg">
<path d="M19.871 0.422195C19.682 0.448166 19.5042 0.527265 19.3583 0.650295C19.2124 0.773326 19.1045 0.935234 19.047 1.1172C19.004 1.2542 18.997 1.3982 18.997 2.2152V3.0002L17.305 3.0042C15.485 3.0082 15.555 3.0042 15.172 3.0702C14.1027 3.25025 13.1208 3.77277 12.3742 4.5591C11.6275 5.34543 11.1565 6.35302 11.032 7.43019C11.012 7.56319 11.012 7.7582 11.008 9.2902L11.004 11.0042L5.832 10.9962L5.785 10.8862C5.62648 10.4889 5.38484 10.13 5.07629 9.83372C4.76775 9.53742 4.39942 9.31051 3.996 9.1682C3.32786 8.9368 2.59984 8.94635 1.938 9.1952C1.49804 9.36478 1.1024 9.63219 0.781 9.9772C0.371 10.4412 0.125 10.9532 0.031 11.5592C-0.00409055 11.8521 -0.00409055 12.1482 0.031 12.4412C0.0923472 12.8526 0.238737 13.2468 0.460839 13.5986C0.682941 13.9503 0.975884 14.2519 1.321 14.4842C1.69194 14.7358 2.1146 14.9009 2.55783 14.9675C3.00107 15.034 3.45358 15.0002 3.88204 14.8687C4.3105 14.7371 4.70398 14.5111 5.0335 14.2073C5.36301 13.9035 5.62016 13.5296 5.786 13.1132L5.831 13.0002H8.417L11.003 12.9962L11.007 14.7112C11.011 16.5622 11.007 16.4652 11.073 16.8552C11.132 17.1992 11.253 17.6132 11.39 17.9372C11.7201 18.7191 12.2435 19.4043 12.911 19.9285C13.5784 20.4527 14.3682 20.7988 15.206 20.9342C15.561 20.9922 15.522 20.9922 17.311 20.9962L18.995 21.0002V21.7852C18.995 22.5982 19.003 22.7462 19.042 22.8832C19.147 23.2192 19.425 23.4732 19.788 23.5632C19.901 23.5902 20.112 23.5902 20.226 23.5632C20.339 23.5352 20.506 23.4532 20.596 23.3872C20.71 23.3012 23.366 20.6292 23.417 20.5512C23.627 20.2272 23.636 19.8212 23.44 19.4812C23.39 19.3982 23.26 19.2662 21.995 18.0002C20.456 16.4602 20.55 16.5432 20.308 16.4652C20.2267 16.4354 20.1406 16.4208 20.054 16.4222C19.8137 16.4029 19.575 16.4755 19.386 16.6252C19.207 16.761 19.08 16.9541 19.026 17.1722C19.003 17.2662 19.003 17.2892 18.999 18.1322L18.995 18.9962L15.651 18.9882L15.487 18.9572C14.8718 18.8502 14.3055 18.5537 13.867 18.1092C13.6399 17.8798 13.4521 17.6146 13.311 17.3242C13.163 17.0242 13.085 16.7742 13.026 16.4342C13.003 16.2742 13.003 16.2662 12.999 14.6332L12.995 12.9962H18.995L18.999 13.8672C19.003 14.8172 19.003 14.7812 19.073 14.9612C19.1451 15.1379 19.2663 15.2903 19.4223 15.4003C19.5782 15.5103 19.7623 15.5734 19.953 15.5822C20.1456 15.595 20.3375 15.5485 20.503 15.4492C20.585 15.4022 20.713 15.2772 21.968 14.0232C22.4504 13.5472 22.9271 13.0655 23.398 12.5782C23.518 12.4086 23.5825 12.206 23.5825 11.9982C23.5825 11.7904 23.518 11.5878 23.398 11.4182C23.366 11.3832 22.722 10.7302 21.964 9.9732C20.924 8.93719 20.565 8.5862 20.514 8.5552C20.3754 8.47311 20.2189 8.42609 20.058 8.4182C19.8495 8.4059 19.6424 8.45917 19.4658 8.57054C19.2891 8.68191 19.1518 8.8458 19.073 9.0392C19.003 9.21519 19.003 9.1842 18.999 10.1332L18.995 11.0032H12.995L13 9.3682C13.004 7.7352 13.004 7.72819 13.027 7.56819C13.117 6.97417 13.3817 6.42035 13.7873 5.97714C14.193 5.53393 14.7213 5.22137 15.305 5.0792C15.613 5.00919 15.504 5.0132 17.328 5.00919L18.996 5.0052L19 5.8682C19.004 6.7082 19.004 6.7352 19.027 6.8292C19.09 7.0592 19.207 7.23919 19.387 7.37619C19.5768 7.52425 19.8149 7.59659 20.055 7.5792C20.1416 7.58061 20.2277 7.56603 20.309 7.53619C20.551 7.45819 20.457 7.54019 21.996 6.00119C23.262 4.7352 23.391 4.6032 23.441 4.5172C23.605 4.2392 23.629 3.8872 23.504 3.6032C23.426 3.4312 23.437 3.4462 22.027 2.0332C21.277 1.2832 20.633 0.642195 20.597 0.614195C20.488 0.536776 20.3666 0.478601 20.238 0.442195C20.1175 0.416318 19.9936 0.409569 19.871 0.422195Z" fill="#202020"/>
</svg>
