<svg width="24" height="24" viewBox="0 0 24 24" fill="none" xmlns="http://www.w3.org/2000/svg">
<path d="M11.422 2.01614C9.99731 2.1006 8.60705 2.48808 7.34405 3.15269C6.08106 3.81729 4.9744 4.74374 4.098 5.87014C3.949 6.06114 3.727 6.37414 3.637 6.51914L3.57 6.62014L2.656 5.71014C2.33818 5.38623 2.01412 5.0685 1.684 4.75714C1.58178 4.69245 1.47105 4.6423 1.355 4.60814C1.20792 4.58083 1.05708 4.58083 0.91 4.60814C0.465 4.71814 0.172 5.05014 0.129 5.49114C0.113 5.64714 0.113 10.6081 0.129 10.7571C0.176 11.1871 0.48 11.5301 0.91 11.6321C0.996 11.6521 1.125 11.6521 3.668 11.6521H6.336L6.434 11.6281C6.809 11.5261 7.062 11.2651 7.168 10.8741C7.18 10.8191 7.188 10.7531 7.188 10.6511C7.19375 10.5202 7.16982 10.3896 7.118 10.2691C7.043 10.0971 7.028 10.0811 6.004 9.05814L5.024 8.07814L5.125 7.90514C6.1771 6.14305 7.86446 4.85113 9.84 4.29514C11.4031 3.85823 13.0619 3.90495 14.598 4.42914C15.8785 4.87059 17.0264 5.62901 17.9348 6.63373C18.8432 7.63844 19.4824 8.85676 19.793 10.1751C19.933 10.7921 19.996 11.3471 19.996 11.9991C19.9974 13.1252 19.7607 14.2389 19.3016 15.2671C18.8425 16.2953 18.1712 17.2149 17.3318 17.9655C16.4924 18.7161 15.5038 19.2809 14.4309 19.6227C13.358 19.9646 12.2249 20.0758 11.106 19.9491C9.62541 19.7835 8.22074 19.2068 7.051 18.2841C6.92387 18.1745 6.7764 18.0909 6.617 18.0381C6.53128 18.0118 6.44148 18.0013 6.352 18.0071C6.26535 18.0027 6.17851 18.0105 6.094 18.0301C5.41 18.2141 5.125 19.0101 5.535 19.5851C5.629 19.7141 5.797 19.8551 6.235 20.1671C6.891 20.6361 7.684 21.0571 8.461 21.3511C9.33966 21.6854 10.2617 21.8918 11.199 21.9641C11.492 21.9911 12.188 22.0031 12.512 21.9841C14.7857 21.8703 16.9522 20.9826 18.652 19.4681C18.992 19.1631 19.465 18.6671 19.766 18.2961C20.8411 16.9755 21.5581 15.4002 21.848 13.7221C21.9604 13.0997 22.0087 12.4674 21.992 11.8351C21.9913 11.5207 21.973 11.2065 21.937 10.8941C21.6489 8.29475 20.3532 5.91191 18.328 4.25714C16.6843 2.91586 14.6573 2.13085 12.539 2.01514C12.1668 2.00342 11.7942 2.00442 11.422 2.01614Z" fill="#202020"/>
</svg>
