<svg width="24" height="24" viewBox="0 0 24 24" fill="none" xmlns="http://www.w3.org/2000/svg">
<path d="M9.82 0.00822212C8.93 0.0982221 8.219 0.738222 8.04 1.60922C8.00392 1.83003 7.99719 2.05465 8.02 2.27722C8.133 3.07022 8.719 3.73022 9.488 3.93022C9.75 4.00022 9.652 3.99622 12.055 3.99222L14.258 3.98822L14.383 3.96522C14.7738 3.88645 15.1325 3.69383 15.414 3.41161C15.6955 3.12938 15.8872 2.77018 15.965 2.37922C16 2.19922 16.004 1.82922 15.969 1.64522C15.8909 1.21984 15.6775 0.831065 15.3605 0.536807C15.0435 0.24255 14.64 0.0585533 14.21 0.0122221C14.113 0.000222116 9.926 -0.00377788 9.82 0.00822212Z" fill="#202020"/>
<path d="M5.824 2.17622C5.26194 2.3499 4.74491 2.64495 4.30945 3.04049C3.874 3.43602 3.53075 3.9224 3.304 4.46522C3.16735 4.80477 3.07428 5.16027 3.027 5.52322C3.007 5.65622 3.007 6.21522 3.004 12.8832C3 18.0202 3.004 20.1532 3.012 20.2772C3.0493 20.8533 3.21189 21.4143 3.48841 21.9211C3.76494 22.4278 4.14873 22.8681 4.613 23.2112C5.22673 23.6682 5.95947 23.938 6.723 23.9882C6.848 23.9962 8.438 24.0002 12.117 23.9962L17.34 23.9922L17.516 23.9692C18.2031 23.882 18.8551 23.615 19.406 23.1952C19.719 22.9612 19.969 22.7112 20.203 22.3952C20.6652 21.7807 20.938 21.0446 20.988 20.2772C20.996 20.1522 21 17.9922 20.996 12.8832C20.992 6.21522 20.992 5.65622 20.973 5.52322C20.9151 5.04908 20.7736 4.58896 20.555 4.16422C20.299 3.66647 19.9409 3.2283 19.5041 2.87834C19.0673 2.52837 18.5616 2.27447 18.02 2.13322C18.008 2.13322 18 2.16022 17.996 2.23422C17.9528 2.93634 17.7259 3.61479 17.338 4.20165C16.9502 4.78852 16.415 5.26321 15.786 5.57822C15.324 5.80822 14.844 5.94522 14.316 5.98822C14.117 6.00422 9.883 6.00422 9.684 5.98822C8.78944 5.91625 7.9448 5.54657 7.285 4.93822C6.5456 4.25573 6.09099 3.31935 6.012 2.31622C6.008 2.23422 6 2.16022 6 2.14822C6 2.12522 5.977 2.12822 5.824 2.17622ZM12.355 9.03622C12.657 9.09916 12.937 9.24052 13.167 9.44609C13.397 9.65166 13.5687 9.91418 13.665 10.2072C13.727 10.4022 13.75 10.5672 13.742 10.8052C13.738 11.0152 13.722 11.1052 13.668 11.2772C13.5343 11.6985 13.2461 12.0535 12.8614 12.2709C12.4766 12.4883 12.0238 12.552 11.594 12.4492C11.2997 12.3809 11.0284 12.2368 10.807 12.0312C10.5856 11.8256 10.4219 11.5657 10.332 11.2772C10.273 11.0902 10.262 11.0042 10.262 10.7472C10.262 10.4842 10.273 10.4072 10.336 10.2032C10.496 9.71522 10.875 9.31322 11.352 9.12522C11.472 9.07822 11.652 9.02722 11.773 9.01222C11.903 8.99222 12.223 9.00822 12.355 9.03522V9.03622ZM12.415 14.0202C13.0289 14.084 13.6196 14.2894 14.1406 14.6201C14.6617 14.9508 15.099 15.3979 15.418 15.9262C15.676 16.3482 15.902 16.9492 15.902 17.1992C15.8984 17.3138 15.87 17.4263 15.8187 17.5288C15.7674 17.6314 15.6945 17.7216 15.605 17.7932C15.52 17.8592 15.355 17.9412 15.242 17.9732C15.16 17.9932 15.027 17.9932 12 17.9932C9.02 17.9932 8.836 17.9932 8.766 17.9732C8.60159 17.934 8.45132 17.8499 8.332 17.7302C8.24079 17.6459 8.17275 17.5395 8.13441 17.4213C8.09606 17.3031 8.08869 17.1771 8.113 17.0552C8.176 16.7382 8.371 16.2702 8.582 15.9252C8.90052 15.4 9.33575 14.9552 9.85394 14.6254C10.3721 14.2955 10.9593 14.0895 11.57 14.0232C11.77 14.0002 12.215 14.0002 12.414 14.0202H12.415Z" fill="#202020"/>
</svg>
