<svg width="24" height="24" viewBox="0 0 24 24" fill="none" xmlns="http://www.w3.org/2000/svg">
<path d="M10.777 0.890161C10.297 0.945161 9.852 1.15616 9.516 1.48816C9.25013 1.74873 9.05771 2.07482 8.95816 2.43352C8.85861 2.79223 8.85545 3.17085 8.949 3.53116C9.031 3.85516 9.191 4.14816 9.438 4.43416L9.496 4.50016L4.504 9.49616L4.387 9.39516C4.00127 9.06327 3.50886 8.8815 3 8.88316C2.434 8.88316 1.906 9.09816 1.504 9.49616C1.12883 9.87207 0.907935 10.3748 0.884802 10.9054C0.861668 11.436 1.03797 11.956 1.379 12.3632C1.516 12.5272 8.617 19.6172 8.719 19.6912C9.14604 20.0101 9.67633 20.1591 10.207 20.1092C10.5039 20.0796 10.7913 19.9878 11.0504 19.8398C11.3096 19.6918 11.5346 19.4909 11.711 19.2502C11.9664 18.8979 12.108 18.476 12.1169 18.041C12.1259 17.606 12.0017 17.1786 11.761 16.8162C11.727 16.7702 11.656 16.6802 11.605 16.6132L11.504 16.4962L16.5 11.5042L16.566 11.5632C16.879 11.8362 17.191 11.9962 17.582 12.0782C17.777 12.1182 18.086 12.1282 18.282 12.1022C18.797 12.0272 19.242 11.7892 19.574 11.4182C20.258 10.6562 20.304 9.55516 19.691 8.71816C19.613 8.61816 12.527 1.51616 12.359 1.37516C12.075 1.13894 11.7346 0.980441 11.371 0.915161C11.1744 0.886082 10.9753 0.877037 10.777 0.890161Z" fill="#202020"/>
<path d="M16.379 13.9222C16.2206 13.9429 16.0692 14.0004 15.937 14.0902C15.863 14.1372 14.152 15.8482 14.097 15.9262C13.9807 16.0924 13.9178 16.2902 13.9165 16.4931C13.9153 16.696 13.9758 16.8945 14.09 17.0622C14.133 17.1252 19.543 22.5432 19.66 22.6412C19.977 22.9022 20.363 23.0632 20.793 23.1092C20.945 23.1252 21.074 23.1252 21.246 23.1022C21.715 23.0512 22.129 22.8552 22.461 22.5322C22.84 22.1682 23.051 21.7302 23.109 21.2072C23.1612 20.6594 23.0004 20.1125 22.66 19.6802C22.574 19.5742 17.14 14.1452 17.074 14.0982C16.9349 14.001 16.7736 13.9405 16.605 13.9222C16.496 13.9102 16.496 13.9102 16.379 13.9222ZM0.879 22.0082C0.709467 22.0288 0.548128 22.0928 0.410603 22.1941C0.273078 22.2953 0.164025 22.4304 0.094 22.5862C0.0383437 22.7087 0.00795329 22.8411 0.00464485 22.9756C0.00133641 23.1101 0.0251779 23.2439 0.0747445 23.369C0.124311 23.4941 0.198585 23.6079 0.293129 23.7036C0.387672 23.7994 0.500545 23.875 0.625 23.9262C0.828 24.0082 0.273 24.0002 7.051 23.9962C12.977 23.9922 13.168 23.9922 13.242 23.9732C13.703 23.8402 13.996 23.4612 13.996 22.9962C13.996 22.5362 13.696 22.1522 13.238 22.0272L13.145 22.0002H7.05C3.698 22.0002 0.921 22.0042 0.879 22.0082Z" fill="#202020"/>
</svg>
