<svg width="24" height="24" viewBox="0 0 24 24" fill="none" xmlns="http://www.w3.org/2000/svg">
<g clip-path="url(#clip0_2064_56276)">
<path d="M8.645 0.00808558C8.16886 0.0292803 7.69491 0.0854315 7.227 0.176086C5.34034 0.550161 3.62411 1.52135 2.332 2.94609C1.12716 4.27193 0.347584 5.92861 0.094 7.70209C-0.241351 10.0029 0.325464 12.3444 1.676 14.2371C2.63501 15.5783 3.94442 16.63 5.461 17.2771C7.51384 18.1468 9.81477 18.2315 11.926 17.5151C12.9658 17.157 13.9319 16.6128 14.777 15.9091C15.2647 15.4937 15.7108 15.0319 16.109 14.5301C17.3981 12.8648 18.065 10.8015 17.9944 8.69679C17.9237 6.59205 17.1199 4.57812 15.722 3.00309C15.48 2.73309 15.062 2.32709 14.777 2.08909C13.3811 0.924815 11.6649 0.2114 9.855 0.0430856C9.473 0.00308558 8.965 -0.00691442 8.645 0.00808558ZM9.699 2.03009C10.082 2.07309 10.391 2.12809 10.734 2.21409C12.524 2.66707 14.0612 3.81184 15.008 5.39709C15.492 6.19809 15.816 7.12409 15.938 8.05009C15.984 8.42009 15.992 8.51509 15.992 8.99909C15.992 9.48309 15.984 9.57709 15.937 9.94909C15.7289 11.4951 15.0086 12.9267 13.891 14.0151C12.9244 14.9614 11.7023 15.6048 10.375 15.8661C9.898 15.9601 9.602 15.9871 9.012 15.9871C8.516 15.9871 8.437 15.9831 8.055 15.9371C6.085 15.6831 4.297 14.5651 3.168 12.8821C2.58231 11.9988 2.20419 10.9943 2.062 9.94409C2.016 9.57709 2.012 9.47908 2.012 8.99909C2.012 8.51909 2.016 8.42109 2.062 8.05409C2.262 6.51409 2.992 5.06509 4.125 3.96809C5.304 2.82544 6.84746 2.13407 8.485 2.01509C8.88967 2.00053 9.29481 2.00554 9.699 2.03009ZM18.152 15.6051C17.7709 15.6345 17.4064 15.773 17.102 16.0041C16.996 16.0821 16.199 16.8671 16.074 17.0161C15.828 17.3051 15.68 17.6361 15.621 18.0161C15.6015 18.2069 15.6015 18.3993 15.621 18.5901C15.6559 18.8235 15.73 19.0493 15.84 19.2581C15.98 19.5121 15.922 19.4531 17.86 21.3871C19.254 22.7811 19.691 23.2151 19.766 23.2661C20.305 23.6451 20.961 23.7461 21.578 23.5431C21.727 23.4931 21.968 23.3711 22.102 23.2771C22.262 23.1641 23.164 22.2621 23.277 22.1021C23.371 21.9691 23.492 21.7271 23.543 21.5781C23.6268 21.3276 23.6602 21.063 23.6413 20.7996C23.6224 20.5362 23.5516 20.2791 23.433 20.0431C23.285 19.7501 23.375 19.8481 21.387 17.8591C19.875 16.3481 19.559 16.0351 19.465 15.9691C19.3012 15.8604 19.1254 15.7712 18.941 15.7031C18.6868 15.6197 18.4189 15.5864 18.152 15.6051Z" fill="#202020"/>
</g>
<defs>
<clipPath id="clip0_2064_56276">
<rect width="24" height="24" fill="white"/>
</clipPath>
</defs>
</svg>
