<svg width="24" height="24" viewBox="0 0 24 24" fill="none" xmlns="http://www.w3.org/2000/svg">
<g clip-path="url(#clip0_2064_57783)">
<path d="M18.715 0.00789731C18.0166 0.0494608 17.3342 0.233934 16.71 0.549897C16.0605 0.886104 15.4915 1.35893 15.042 1.9359C14.9014 2.12224 14.7721 2.31693 14.655 2.5189C14.3214 3.10896 14.1089 3.75967 14.03 4.4329C13.999 4.6829 13.999 5.3189 14.03 5.5649C14.054 5.7649 14.097 6.0029 14.14 6.1749C14.1515 6.21407 14.1592 6.25426 14.163 6.2949C14.155 6.3079 8.948 8.9049 8.94 8.9049C8.936 8.9049 8.886 8.8509 8.827 8.7799C8.58211 8.49384 8.3087 8.23349 8.011 8.0029C7.3659 7.51925 6.61373 7.1982 5.81822 7.06695C5.0227 6.9357 4.20728 6.99811 3.441 7.2489C2.74482 7.47673 2.1072 7.85476 1.57324 8.35623C1.03928 8.8577 0.622031 9.47036 0.351 10.1509C0.00309722 11.0297 -0.0891205 11.989 0.0849975 12.918C0.259115 13.847 0.692466 14.7077 1.335 15.4009C1.82932 15.9332 2.43385 16.3513 3.1064 16.6259C3.77896 16.9006 4.50334 17.0251 5.229 16.9909C5.91765 16.9617 6.59272 16.7898 7.2114 16.4859C7.83009 16.1821 8.37889 15.753 8.823 15.2259C8.85783 15.1769 8.89846 15.1322 8.944 15.0929C8.952 15.0929 14.155 17.6899 14.164 17.6979C14.1605 17.7403 14.1524 17.7822 14.14 17.8229C14.038 18.2369 14.01 18.5069 14.01 18.9949C14.01 19.4169 14.022 19.5689 14.081 19.8969C14.207 20.5951 14.4806 21.2585 14.8834 21.8425C15.2863 22.4266 15.8091 22.918 16.417 23.2839C16.9903 23.627 17.6262 23.8524 18.2876 23.9468C18.949 24.0412 19.6226 24.0028 20.269 23.8339C21.4752 23.5206 22.5205 22.7672 23.199 21.7219C23.5876 21.116 23.8422 20.4341 23.9457 19.7218C24.0492 19.0095 23.9992 18.2833 23.799 17.5919C23.5234 16.6467 22.9743 15.8042 22.2209 15.1703C21.4675 14.5365 20.5434 14.1397 19.565 14.0299C19.1883 13.9987 18.8097 13.9987 18.433 14.0299C17.4468 14.1396 16.5162 14.5423 15.761 15.1859C15.546 15.3659 15.249 15.6709 15.085 15.8819L15.061 15.9129L12.444 14.6039C11.007 13.8899 9.831 13.2959 9.831 13.2959L9.866 13.1469C9.91282 12.9354 9.94953 12.7219 9.976 12.5069C9.983 12.4289 9.991 12.2289 9.991 11.9989C9.991 11.7689 9.983 11.5689 9.976 11.4869C9.94276 11.2227 9.89434 10.9606 9.831 10.7019C9.831 10.7019 11.007 10.1079 12.444 9.3899L15.061 8.0849L15.085 8.1159C15.436 8.5659 15.952 9.0149 16.468 9.3109C17.0697 9.66518 17.7392 9.88902 18.433 9.9679C18.651 9.9909 19.147 10.0029 19.366 9.9829C20.586 9.89977 21.7317 9.36666 22.581 8.4869C23.4619 7.58909 23.9675 6.38936 23.995 5.1319C24.0243 4.1137 23.7424 3.11078 23.187 2.2569C22.7805 1.63774 22.2416 1.1166 21.6092 0.731118C20.9767 0.345639 20.2666 0.105447 19.53 0.0278973C19.2585 0.0078568 18.9872 0.00118207 18.715 0.00789731ZM5.425 9.0279C6.20185 9.13939 6.90443 9.54989 7.383 10.1719C7.637 10.5039 7.836 10.9339 7.926 11.3319C8.023 11.7659 8.023 12.2339 7.926 12.6679C7.84 13.0579 7.648 13.4679 7.402 13.8009C6.98407 14.3608 6.38274 14.7562 5.703 14.9179C5.453 14.9769 5.305 14.9919 5.003 14.9919C4.625 14.9919 4.379 14.9569 4.051 14.8479C3.62459 14.7061 3.23585 14.4695 2.914 14.1559C2.44731 13.7093 2.13994 13.1219 2.039 12.4839C2.00562 12.2209 1.99792 11.9554 2.016 11.6909C2.09 10.9809 2.398 10.3479 2.914 9.8439C3.39988 9.37105 4.03221 9.07763 4.707 9.0119C4.859 8.9959 5.27 9.0039 5.426 9.0269L5.425 9.0279Z" fill="#202020"/>
</g>
<defs>
<clipPath id="clip0_2064_57783">
<rect width="24" height="24" fill="white"/>
</clipPath>
</defs>
</svg>
