<svg width="24" height="24" viewBox="0 0 24 24" fill="none" xmlns="http://www.w3.org/2000/svg">
<g clip-path="url(#clip0_2435_51381)">
<path d="M18.723 0.00799775C17.9157 0.0536719 17.1315 0.293865 16.4371 0.708102C15.7427 1.12234 15.1587 1.69834 14.735 2.387C14.5903 2.63312 14.4624 2.88869 14.352 3.152C14.102 3.793 13.992 4.414 14.008 5.113C14.016 5.512 14.055 5.82 14.141 6.176C14.1525 6.21517 14.1602 6.25536 14.164 6.296C14.156 6.309 8.949 8.906 8.941 8.906C8.937 8.906 8.887 8.852 8.828 8.781C8.58311 8.49494 8.3097 8.23459 8.012 8.004C7.3669 7.52035 6.61473 7.1993 5.81922 7.06805C5.02371 6.9368 4.20827 6.99921 3.442 7.25C2.74582 7.47783 2.1082 7.85586 1.57424 8.35733C1.04028 8.8588 0.623031 9.47147 0.352 10.152C0.00409718 11.0308 -0.0881205 11.9901 0.0859975 12.9191C0.260115 13.8481 0.693466 14.7088 1.336 15.402C1.83032 15.9344 2.43485 16.3524 3.1074 16.627C3.77996 16.9017 4.50434 17.0262 5.23 16.992C5.91865 16.9628 6.59372 16.7909 7.2124 16.487C7.83109 16.1832 8.37989 15.7541 8.824 15.227C8.85883 15.178 8.89946 15.1333 8.945 15.094C8.953 15.094 14.156 17.691 14.165 17.699C14.1615 17.7414 14.1534 17.7833 14.141 17.824C14.039 18.238 14.011 18.516 14.011 19C14.011 19.508 14.043 19.777 14.152 20.215C14.246 20.59 14.344 20.859 14.52 21.215C14.91 22.012 15.488 22.668 16.23 23.165C17.2724 23.8554 18.5352 24.1311 19.7705 23.9379C21.0058 23.7447 22.1242 23.0967 22.906 22.121C23.5153 21.3593 23.8886 20.4361 23.98 19.465C24 19.246 23.996 18.695 23.973 18.473C23.8833 17.6072 23.5681 16.78 23.059 16.074C22.901 15.8512 22.7215 15.6446 22.523 15.457C22.1459 15.0715 21.7046 14.7545 21.219 14.52C20.641 14.2314 20.0115 14.0601 19.367 14.016C19.056 13.9995 18.7443 14.0045 18.434 14.031C17.1562 14.1767 15.9836 14.8092 15.16 15.797C15.11 15.859 15.066 15.91 15.062 15.91C15.062 15.918 9.832 13.3 9.832 13.297L9.867 13.148C9.91382 12.9365 9.95053 12.723 9.977 12.508C9.997 12.34 9.997 11.66 9.977 11.488C9.94376 11.2238 9.89534 10.9617 9.832 10.703C9.832 10.703 11.008 10.109 12.445 9.391L15.059 8.086L15.089 8.125C15.23 8.289 15.348 8.418 15.477 8.547C16.3843 9.45105 17.6064 9.96888 18.887 9.992C19.472 10.0127 20.0558 9.92521 20.609 9.734C21.2795 9.50666 21.8941 9.13941 22.412 8.6566C22.9299 8.1738 23.3392 7.58644 23.613 6.93347C23.8867 6.28049 24.0185 5.5768 23.9997 4.86902C23.981 4.16124 23.812 3.46553 23.504 2.828C23.0757 1.93755 22.3927 1.19424 21.5416 0.692235C20.6905 0.190226 19.7095 -0.0479064 18.723 0.00799775ZM19.488 2.039C20.012 2.129 20.492 2.344 20.895 2.668C21.445 3.113 21.832 3.77 21.957 4.488C21.992 4.695 22.007 5.086 21.984 5.305C21.9268 5.87654 21.7075 6.41986 21.352 6.871C21.2026 7.04807 21.0376 7.21139 20.859 7.359C20.4345 7.69394 19.9272 7.90752 19.391 7.977C19.1311 8.0044 18.8689 8.0044 18.609 7.977C18.2727 7.93328 17.9465 7.83143 17.645 7.676C17.3467 7.52942 17.0769 7.33101 16.848 7.09C16.3947 6.62864 16.105 6.03156 16.023 5.39C15.9986 5.14465 15.9976 4.89754 16.02 4.652C16.078 4.172 16.242 3.727 16.492 3.348C16.6067 3.17213 16.7405 3.00947 16.891 2.863C17.383 2.375 17.973 2.102 18.715 2.012C18.738 2.008 18.887 2.008 19.051 2.008C19.285 2.012 19.371 2.02 19.488 2.039ZM5.426 9.027C6.20264 9.13899 6.90485 9.54984 7.383 10.172C7.637 10.504 7.836 10.934 7.926 11.332C8.023 11.766 8.023 12.234 7.926 12.668C7.84 13.058 7.648 13.468 7.402 13.801C6.98407 14.3609 6.38274 14.7563 5.703 14.918C5.453 14.977 5.305 14.992 5.003 14.992C4.625 14.992 4.379 14.957 4.051 14.848C3.62459 14.7062 3.23585 14.4696 2.914 14.156C2.44731 13.7094 2.13994 13.122 2.039 12.484C2.00562 12.221 1.99792 11.9555 2.016 11.691C2.09 10.981 2.398 10.348 2.914 9.844C3.39988 9.37115 4.03221 9.07773 4.707 9.012C4.859 8.996 5.27 9.004 5.426 9.027ZM19.226 16.007C19.625 16.039 19.984 16.137 20.352 16.32C20.8021 16.5463 21.1877 16.8827 21.473 17.2979C21.7583 17.7131 21.9341 18.1937 21.984 18.695C22.004 18.875 21.992 19.301 21.969 19.453C21.906 19.809 21.816 20.093 21.66 20.391C21.445 20.8036 21.1367 21.1603 20.7597 21.4329C20.3826 21.7054 19.9472 21.8863 19.488 21.961C19.301 21.992 18.898 22.004 18.695 21.984C18.1888 21.9335 17.7039 21.7546 17.2863 21.464C16.8687 21.1735 16.5323 20.7811 16.309 20.324C16.1559 20.0182 16.0578 19.6878 16.019 19.348C15.9969 19.1021 15.9982 18.8546 16.023 18.609C16.1219 17.8474 16.5095 17.1529 17.1058 16.6689C17.702 16.1849 18.4614 15.9483 19.227 16.008L19.226 16.007Z" fill="currentColor"/>
</g>
<defs>
<clipPath id="clip0_2435_51381">
<rect width="24" height="24" fill="white"/>
</clipPath>
</defs>
</svg>
