<svg width="24" height="24" viewBox="0 0 24 24" fill="none" xmlns="http://www.w3.org/2000/svg">
<g clip-path="url(#clip0_2435_51096)">
<path d="M18.723 0.00799775C17.9157 0.0536719 17.1315 0.293865 16.4371 0.708102C15.7427 1.12234 15.1587 1.69834 14.735 2.387C14.5903 2.63312 14.4624 2.88869 14.352 3.152C14.102 3.793 13.992 4.414 14.008 5.113C14.016 5.512 14.055 5.82 14.141 6.176C14.1525 6.21517 14.1602 6.25536 14.164 6.296C14.156 6.309 8.954 8.906 8.945 8.906C8.90213 8.86935 8.86415 8.82734 8.832 8.781C8.56797 8.47187 8.26936 8.19405 7.942 7.953C7.532 7.653 6.996 7.383 6.512 7.23C5.76909 6.99817 4.98261 6.94136 4.21409 7.06401C3.44558 7.18666 2.71585 7.48545 2.082 7.937C1.00925 8.7062 0.285611 9.8697 0.07 11.172C0.02 11.488 0.008 11.645 0.008 12C0.008 12.355 0.02 12.52 0.07 12.828C0.196968 13.5985 0.503698 14.3282 0.965325 14.958C1.42695 15.5878 2.03048 16.1 2.727 16.453C3.711 16.953 4.828 17.113 5.918 16.914C6.75816 16.7571 7.54454 16.3889 8.203 15.844C8.383 15.695 8.691 15.391 8.832 15.219C8.86415 15.1727 8.90213 15.1306 8.945 15.094C8.953 15.094 14.156 17.691 14.165 17.699C14.1615 17.7414 14.1534 17.7833 14.141 17.824C14.039 18.238 14.011 18.516 14.011 19C14.011 19.508 14.043 19.777 14.152 20.215C14.246 20.59 14.344 20.859 14.52 21.215C14.91 22.012 15.488 22.668 16.23 23.165C17.2724 23.8554 18.5352 24.1311 19.7705 23.9379C21.0058 23.7447 22.1242 23.0967 22.906 22.121C23.5153 21.3593 23.8886 20.4361 23.98 19.465C24 19.246 23.996 18.695 23.973 18.473C23.8833 17.6072 23.5681 16.78 23.059 16.074C22.901 15.8512 22.7215 15.6446 22.523 15.457C22.1459 15.0715 21.7046 14.7545 21.219 14.52C20.641 14.2314 20.0115 14.0601 19.367 14.016C19.056 13.9995 18.7443 14.0045 18.434 14.031C17.1562 14.1767 15.9836 14.8092 15.16 15.797C15.11 15.859 15.066 15.91 15.062 15.91C15.062 15.918 9.832 13.3 9.832 13.297L9.867 13.145C9.907 12.985 9.953 12.715 9.977 12.508C9.997 12.336 9.997 11.664 9.977 11.488C9.94602 11.2234 9.89758 10.9612 9.832 10.703C9.832 10.703 11.008 10.109 12.445 9.391L15.059 8.086L15.089 8.125C15.23 8.289 15.348 8.418 15.477 8.547C16.3843 9.45105 17.6064 9.96888 18.887 9.992C19.472 10.0127 20.0558 9.92521 20.609 9.734C21.2795 9.50666 21.8941 9.13941 22.412 8.6566C22.9299 8.1738 23.3392 7.58644 23.613 6.93347C23.8867 6.28049 24.0185 5.5768 23.9997 4.86902C23.981 4.16124 23.812 3.46553 23.504 2.828C23.0757 1.93755 22.3927 1.19424 21.5416 0.692235C20.6905 0.190226 19.7095 -0.0479064 18.723 0.00799775ZM19.488 2.039C20.012 2.129 20.492 2.344 20.895 2.668C21.445 3.113 21.832 3.77 21.957 4.488C21.992 4.695 22.007 5.086 21.984 5.305C21.9268 5.87654 21.7075 6.41986 21.352 6.871C21.2026 7.04807 21.0376 7.21139 20.859 7.359C20.4345 7.69394 19.9272 7.90752 19.391 7.977C19.1311 8.0044 18.8689 8.0044 18.609 7.977C18.2727 7.93328 17.9465 7.83143 17.645 7.676C17.3467 7.52942 17.0769 7.33101 16.848 7.09C16.3947 6.62864 16.105 6.03156 16.023 5.39C15.9986 5.14465 15.9976 4.89754 16.02 4.652C16.078 4.172 16.242 3.727 16.492 3.348C16.6067 3.17213 16.7405 3.00947 16.891 2.863C17.383 2.375 17.973 2.102 18.715 2.012C18.738 2.008 18.887 2.008 19.051 2.008C19.285 2.012 19.371 2.02 19.488 2.039ZM19.227 16.008C19.9297 16.0593 20.5918 16.357 21.0964 16.8488C21.601 17.3406 21.9157 17.9948 21.985 18.696C22.004 18.875 21.992 19.301 21.969 19.453C21.906 19.809 21.816 20.093 21.66 20.391C21.445 20.8036 21.1367 21.1603 20.7597 21.4329C20.3826 21.7054 19.9472 21.8863 19.488 21.961C19.301 21.992 18.898 22.004 18.695 21.984C18.1888 21.9335 17.7039 21.7546 17.2863 21.464C16.8687 21.1735 16.5323 20.7811 16.309 20.324C16.1559 20.0182 16.0578 19.6878 16.019 19.348C15.9969 19.1021 15.9982 18.8546 16.023 18.609C16.1219 17.8474 16.5095 17.1529 17.1058 16.6689C17.702 16.1849 18.4614 15.9483 19.227 16.008Z" fill="currentColor"/>
</g>
<defs>
<clipPath id="clip0_2435_51096">
<rect width="24" height="24" fill="white"/>
</clipPath>
</defs>
</svg>
