<svg width="24" height="24" viewBox="0 0 24 24" fill="none" xmlns="http://www.w3.org/2000/svg">
<path d="M11.762 0.102144C11.605 0.122144 11.02 0.297144 7.453 1.36314L3.336 2.60214C3.211 2.64514 3.023 2.74214 2.883 2.83214C2.68419 2.97621 2.50763 3.14872 2.359 3.34414C2.17284 3.61532 2.05515 3.92756 2.016 4.25414C1.996 4.43414 2.004 12.9641 2.023 13.1601C2.109 13.9501 2.23 14.5201 2.457 15.1561C2.96139 16.589 3.86404 17.8483 5.059 18.7861C5.129 18.8441 6.473 19.8521 8.047 21.0311C9.988 22.4881 10.941 23.1951 11.023 23.2421C11.243 23.3631 11.465 23.4421 11.734 23.4801C11.891 23.5041 12.195 23.4961 12.355 23.4691C12.5865 23.4255 12.8088 23.3423 13.012 23.2231C13.122 23.1561 18.727 18.9651 19.016 18.7301C20.2533 17.7317 21.1668 16.3887 21.641 14.8711C21.8287 14.2539 21.9438 13.617 21.984 12.9731C21.992 12.8481 21.996 11.2621 21.996 8.55514C21.996 4.80914 21.992 4.32014 21.98 4.20714C21.9223 3.79714 21.7368 3.41575 21.45 3.11714C21.2518 2.90553 21.0103 2.73908 20.742 2.62914C20.699 2.61314 18.824 2.04714 16.57 1.37114C13.367 0.411144 12.441 0.137144 12.328 0.117144C12.2157 0.0981949 12.1018 0.0904901 11.988 0.0941436C11.883 0.0981436 11.781 0.0981436 11.762 0.102144Z" fill="currentColor"/>
</svg>
