<svg width="24" height="24" viewBox="0 0 24 24" fill="none" xmlns="http://www.w3.org/2000/svg">
<path d="M11.738 0.105238L11.555 0.141238C11.434 0.168238 3.406 2.57424 3.289 2.61724C2.66 2.85524 2.199 3.39524 2.035 4.09024L2.012 4.20024L2.008 8.46024C2.004 11.4222 2.008 12.7902 2.016 12.9502C2.07876 14.0721 2.3773 15.1681 2.89215 16.1668C3.407 17.1654 4.12659 18.0444 5.004 18.7462C5.133 18.8482 10.809 23.1022 10.906 23.1722C11.106 23.3052 11.375 23.4142 11.656 23.4692C11.82 23.5002 12.196 23.5002 12.375 23.4652C12.633 23.4102 12.887 23.3092 13.102 23.1682C13.215 23.0942 18.801 18.9062 19.004 18.7422C19.402 18.4222 19.816 18.0162 20.144 17.6252C21.0929 16.4872 21.7071 15.1079 21.918 13.6412C21.996 13.1052 21.992 13.4842 21.992 8.63724V4.24724L21.965 4.11724C21.8977 3.76364 21.7362 3.43476 21.4975 3.16531C21.2588 2.89585 20.9519 2.69579 20.609 2.58624C20.293 2.48424 12.496 0.152238 12.391 0.129238C12.175 0.095716 11.9559 0.0876609 11.738 0.105238ZM15.902 3.25824C18.032 3.89524 19.828 4.43424 19.891 4.45324L20.004 4.48824V12.0002H16.957C14.883 12.0002 13.871 12.0042 13.797 12.0122C13.5502 12.0372 13.3104 12.1084 13.09 12.2222C12.7927 12.3734 12.5382 12.5969 12.3499 12.8721C12.1615 13.1473 12.0453 13.4654 12.012 13.7972C12.004 13.8752 12 15.1022 12 17.6992C12 19.7852 11.996 21.4922 11.996 21.4922C11.98 21.4922 6.262 17.1952 6.148 17.0982C5.01835 16.1495 4.2764 14.8189 4.063 13.3592C4.023 13.0892 4.008 12.8592 4 12.4382L3.992 12.0002H7.043C10.125 12.0002 10.199 12.0002 10.406 11.9572C10.609 11.9182 10.895 11.8012 11.074 11.6872C11.246 11.5782 11.469 11.3712 11.59 11.2072C11.809 10.9182 11.95 10.5742 11.988 10.2032C11.996 10.1252 12 8.84324 12 6.09024C12 2.89024 12.004 2.09024 12.016 2.09024C12.023 2.09424 13.773 2.61724 15.902 3.25824Z" fill="#202020"/>
</svg>
