<svg width="24" height="24" viewBox="0 0 24 24" fill="none" xmlns="http://www.w3.org/2000/svg">
<path d="M11.828 0.0939827C11.762 0.101983 11.648 0.116983 11.582 0.132983C11.445 0.163983 3.418 2.56998 3.289 2.61698C3.1472 2.67411 3.01124 2.74477 2.883 2.82798C2.59938 3.0213 2.36952 3.2835 2.215 3.58998C2.125 3.77298 2.078 3.90998 2.035 4.09798L2.012 4.22298V8.62498C2.012 13.485 2.004 13.098 2.082 13.641C2.26998 14.9294 2.76753 16.153 3.532 17.207C3.949 17.777 4.453 18.309 4.992 18.738C5.246 18.941 10.882 23.164 10.965 23.211C11.188 23.34 11.371 23.411 11.637 23.469C11.793 23.5 12.195 23.5 12.371 23.465C12.609 23.415 12.812 23.34 13.02 23.219C13.121 23.156 18.734 18.961 19.016 18.73C19.8874 18.0277 20.6018 17.1504 21.1131 16.1548C21.6243 15.1592 21.921 14.0674 21.984 12.95C21.992 12.79 21.996 11.45 21.992 8.47698V4.23398L21.965 4.10898C21.8954 3.75725 21.7329 3.43055 21.4945 3.16276C21.256 2.89496 20.9503 2.69582 20.609 2.58598C20.258 2.47298 12.492 0.147983 12.391 0.128983C12.2056 0.0936068 12.0164 0.0818466 11.828 0.0939827ZM15.902 3.25798C18.032 3.89498 19.828 4.43398 19.891 4.45298L20.004 4.48798L20 8.67598C20 11.867 19.992 12.895 19.984 12.996C19.9533 13.3294 19.8957 13.6598 19.812 13.984C19.5031 15.1904 18.8277 16.2713 17.879 17.078C17.746 17.188 12.023 21.492 12.008 21.492C12.004 21.492 12 17.125 12 11.789C12 4.03098 12.004 2.08598 12.016 2.08898C12.023 2.09398 13.773 2.61698 15.902 3.25798Z" fill="currentColor"/>
</svg>
