<svg width="24" height="24" viewBox="0 0 24 24" fill="none" xmlns="http://www.w3.org/2000/svg">
<path d="M11.762 0.102144C11.605 0.122144 11.02 0.297144 7.453 1.36314L3.336 2.60214C3.211 2.64514 3.023 2.74214 2.883 2.83214C2.68419 2.97621 2.50763 3.14872 2.359 3.34414C2.17284 3.61532 2.05515 3.92756 2.016 4.25414C1.996 4.43414 2.004 12.9641 2.023 13.1601C2.109 13.9501 2.23 14.5201 2.457 15.1561C2.96139 16.589 3.86404 17.8483 5.059 18.7861C5.129 18.8441 6.473 19.8521 8.047 21.0311C9.988 22.4881 10.941 23.1951 11.023 23.2421C11.243 23.3631 11.465 23.4421 11.734 23.4801C11.891 23.5041 12.195 23.4961 12.355 23.4691C12.5865 23.4255 12.8088 23.3423 13.012 23.2231C13.122 23.1561 18.727 18.9651 19.016 18.7301C20.2533 17.7317 21.1668 16.3887 21.641 14.8711C21.8287 14.2539 21.9438 13.617 21.984 12.9731C21.992 12.8481 21.996 11.2621 21.996 8.55514C21.996 4.80914 21.992 4.32014 21.98 4.20714C21.9223 3.79714 21.7368 3.41575 21.45 3.11714C21.2518 2.90553 21.0103 2.73908 20.742 2.62914C20.699 2.61314 18.824 2.04714 16.57 1.37114C13.367 0.411144 12.441 0.137144 12.328 0.117144C12.2157 0.0981949 12.1018 0.0904901 11.988 0.0941436C11.883 0.0981436 11.781 0.0981436 11.762 0.102144ZM16.722 7.02714C16.8727 7.06071 17.0134 7.12912 17.1329 7.22689C17.2524 7.32466 17.3473 7.44907 17.41 7.59014C17.52 7.82014 17.527 8.11314 17.434 8.36314C17.355 8.56314 17.539 8.37514 14.234 11.6801C13.1952 12.7233 12.1521 13.7623 11.105 14.7971C10.75 15.0671 10.262 15.0671 9.902 14.8011C9.859 14.7701 9.125 14.0391 8.266 13.1801C6.586 11.5001 6.641 11.5591 6.57 11.3631C6.52417 11.2463 6.50175 11.1216 6.504 10.9961C6.50421 10.8319 6.54499 10.6702 6.62274 10.5255C6.70048 10.3808 6.81277 10.2576 6.94963 10.1667C7.08648 10.0759 7.24367 10.0203 7.4072 10.0048C7.57073 9.98936 7.73555 10.0145 7.887 10.0781C8.07 10.1521 8.074 10.1561 9.32 11.4021L10.5 12.5781L13.168 9.91414C14.0695 9.00833 14.9759 8.10732 15.887 7.21114C16.031 7.09814 16.195 7.03514 16.402 7.00414C16.461 6.99214 16.637 7.00814 16.722 7.02714Z" fill="currentColor"/>
</svg>
