<svg width="24" height="24" viewBox="0 0 24 24" fill="none" xmlns="http://www.w3.org/2000/svg">
<path d="M11.45 0.0117998C8.93596 0.121037 6.52035 1.02007 4.54662 2.58106C2.57289 4.14206 1.14151 6.28556 0.456 8.7068C0.220559 9.54202 0.0740787 10.3998 0.019 11.2658C0.00339297 11.7537 0.00339297 12.2419 0.019 12.7298C0.116 14.0898 0.374 15.2458 0.839 16.4218C1.4755 18.0396 2.45754 19.4989 3.71652 20.6977C4.9755 21.8966 6.48105 22.8061 8.128 23.3628C9.882 23.9568 11.78 24.1408 13.64 23.8868C15.4662 23.6395 17.2106 22.9735 18.737 21.9408C20.3068 20.8753 21.6027 19.4541 22.519 17.7928C22.659 17.5388 22.905 17.0348 23.022 16.7578C23.464 15.7268 23.761 14.6478 23.897 13.5508C23.972 12.9838 23.991 12.6248 23.991 12.0038C23.991 11.4728 23.983 11.2658 23.941 10.8158C23.7517 8.84676 23.0765 6.95552 21.976 5.3118C20.6849 3.39027 18.8679 1.88114 16.742 0.9648C15.6299 0.494688 14.4546 0.190767 13.254 0.0627998C12.746 0.0117998 11.923 -0.0122002 11.45 0.0117998ZM5.238 7.0318C5.34 7.0548 10.406 9.0778 10.488 9.1248C10.727 9.2618 10.898 9.4878 10.968 9.7538C11.004 9.8868 11.004 10.1138 10.968 10.2458C10.9221 10.4193 10.8312 10.5776 10.7044 10.7046C10.5776 10.8315 10.4194 10.9227 10.246 10.9688C10.125 11.0038 9.898 11.0078 9.781 10.9768C9.63395 10.9273 9.48823 10.874 9.344 10.8168C9.2247 10.7659 9.10325 10.7202 8.98 10.6798C8.977 10.6798 8.98 10.7268 8.988 10.7808C9.023 11.0548 8.988 11.3548 8.895 11.6368C8.77633 11.994 8.55877 12.3101 8.26758 12.5485C7.9764 12.787 7.62354 12.9379 7.25 12.9838C7.086 13.0038 6.754 12.9918 6.605 12.9608C6.21815 12.8862 5.8637 12.6942 5.59 12.4108C5.30784 12.1358 5.11602 11.7814 5.04 11.3948C5.00634 11.1815 4.99829 10.965 5.016 10.7498C5.059 10.4178 5.184 10.0978 5.383 9.8198C5.457 9.7188 5.645 9.5198 5.743 9.4408C5.77 9.4178 5.793 9.3978 5.789 9.3948C5.58557 9.31024 5.38123 9.2279 5.176 9.1478C4.94277 9.0563 4.71202 8.9586 4.484 8.8548C4.2596 8.71653 4.0973 8.4969 4.031 8.2418C3.99585 8.07968 3.99585 7.91192 4.031 7.7498C4.133 7.3628 4.461 7.0698 4.859 7.0078C4.98606 6.99411 5.11452 7.00189 5.239 7.0308L5.238 7.0318ZM19.25 7.0318C19.594 7.1218 19.875 7.4018 19.969 7.7538C20.004 7.8868 20.004 8.1138 19.969 8.2418C19.899 8.5118 19.727 8.7378 19.489 8.8748C19.461 8.8908 19.16 9.0118 18.829 9.1478C18.492 9.2808 18.215 9.3908 18.211 9.3948C18.207 9.3978 18.231 9.4178 18.258 9.4408C18.618 9.7378 18.863 10.1368 18.965 10.6048C18.988 10.7148 18.988 10.7618 18.988 10.9958C18.988 11.2338 18.988 11.2808 18.965 11.3908C18.902 11.6608 18.805 11.8978 18.656 12.1248C18.536 12.3048 18.301 12.5388 18.117 12.6598C17.8957 12.805 17.6496 12.9084 17.391 12.9648C17.227 12.9958 16.887 13.0038 16.715 12.9798C16.2016 12.9051 15.7372 12.6342 15.4196 12.2241C15.102 11.8139 14.9558 11.2965 15.012 10.7808C15.02 10.7268 15.023 10.6798 15.02 10.6798C14.897 10.7206 14.7756 10.766 14.656 10.8158C14.461 10.8908 14.266 10.9648 14.223 10.9758C14.0676 11.0069 13.9074 11.0045 13.753 10.9688C13.5796 10.9227 13.4214 10.8315 13.2946 10.7046C13.1678 10.5776 13.0769 10.4193 13.031 10.2458C12.9959 10.0837 12.9959 9.91592 13.031 9.7538C13.0633 9.62706 13.1203 9.50793 13.1987 9.40326C13.2771 9.29858 13.3754 9.21041 13.488 9.1438C13.57 9.0938 18.586 7.0778 18.727 7.0388C18.887 6.9918 19.082 6.9898 19.25 7.0318ZM12.508 14.0198C13.297 14.0898 14.028 14.2968 14.715 14.6478C15.7018 15.1512 16.5313 15.916 17.113 16.8588C17.246 17.0788 17.496 17.5658 17.535 17.6948C17.5927 17.8737 17.5985 18.0652 17.5516 18.2472C17.5047 18.4292 17.407 18.5942 17.27 18.7228C17.179 18.8126 17.0708 18.883 16.9519 18.9299C16.8329 18.9768 16.7058 18.9992 16.578 18.9958C16.3832 18.9985 16.1922 18.9413 16.031 18.8318C15.8564 18.7105 15.7209 18.5409 15.641 18.3438C15.4533 17.9272 15.1925 17.5475 14.871 17.2228C14.5482 16.8812 14.1655 16.6016 13.742 16.3978C13.0959 16.0873 12.3784 15.9554 11.6641 16.0159C10.9498 16.0764 10.2647 16.3271 9.68 16.7418C9.473 16.8908 9.39 16.9648 9.172 17.1838C8.8363 17.513 8.5635 17.9007 8.367 18.3278C8.30601 18.4752 8.21704 18.6093 8.105 18.7228C7.92242 18.9006 7.67682 18.9988 7.422 18.9958C7.148 18.9958 6.922 18.9058 6.73 18.7228C6.61786 18.6173 6.53169 18.4873 6.47825 18.343C6.42481 18.1986 6.40555 18.0439 6.422 17.8908C6.442 17.7338 6.477 17.6368 6.622 17.3478C6.90847 16.7588 7.29256 16.2226 7.758 15.7618C8.75332 14.7582 10.0728 14.1409 11.481 14.0198C11.711 13.9998 12.266 13.9998 12.508 14.0198Z" fill="currentColor"/>
</svg>
