<svg width="24" height="24" viewBox="0 0 24 24" fill="none" xmlns="http://www.w3.org/2000/svg">
<path d="M4.816 2.01581C4.633 2.05481 4.453 2.14781 4.316 2.27681C4.176 2.40981 4.086 2.56681 4.027 2.75681L4.004 2.85181L3.996 15.9958L3.133 15.9998C2.352 16.0038 2.258 16.0038 2.187 16.0228C2.01607 16.0633 1.85888 16.1482 1.73138 16.2691C1.60387 16.3899 1.51059 16.5423 1.461 16.7108C1.421 16.8318 1.406 17.0428 1.43 17.1758C1.45 17.2888 1.508 17.4408 1.574 17.5428C1.621 17.6128 2.008 18.0028 3.473 19.4728C4.10542 20.1137 4.74479 20.7478 5.391 21.3748C5.49891 21.4549 5.62059 21.5146 5.75 21.5508C5.879 21.5898 6.121 21.5898 6.25 21.5508C6.37976 21.5147 6.50179 21.455 6.61 21.3748C6.652 21.3438 7.516 20.4878 8.527 19.4728C10.523 17.4728 10.449 17.5548 10.523 17.3478C10.5718 17.2222 10.5906 17.087 10.578 16.9528C10.5783 16.8709 10.5665 16.7893 10.543 16.7108C10.4938 16.5443 10.402 16.3936 10.2766 16.2736C10.1511 16.1536 9.99649 16.0686 9.828 16.0268C9.734 16.0038 9.711 16.0038 8.868 15.9998L8.004 15.9958L8 2.85181L7.973 2.75781C7.92339 2.57759 7.82595 2.41415 7.691 2.28481C7.58011 2.17083 7.44163 2.08746 7.289 2.04281L7.191 2.00781H6.031C5.391 2.00781 4.848 2.01181 4.816 2.01581ZM10.887 4.00781C10.6832 4.03074 10.4914 4.11576 10.3376 4.25135C10.1838 4.38693 10.0753 4.56653 10.027 4.76581C9.9984 4.91265 9.99704 5.06349 10.023 5.21081C10.109 5.61681 10.449 5.92981 10.859 5.98781C10.926 5.99581 12.406 5.99981 16.063 5.99581L21.172 5.99181L21.277 5.96081C21.613 5.85481 21.867 5.60081 21.961 5.27281C21.9969 5.11943 22.0036 4.96069 21.981 4.80481C21.9395 4.59571 21.832 4.40543 21.6743 4.26197C21.5166 4.11851 21.3171 4.02942 21.105 4.00781C20.985 3.99181 11.004 3.99181 10.887 4.00781ZM10.79 8.02281C10.563 8.06981 10.34 8.21481 10.195 8.40581C10.1218 8.51359 10.0664 8.63245 10.031 8.75781C9.99593 8.91589 9.99593 9.07973 10.031 9.23781C10.0631 9.3568 10.1134 9.47013 10.18 9.57381C10.285 9.71881 10.457 9.85481 10.617 9.92181C10.809 9.99981 10.559 9.99581 14.039 9.99181L17.188 9.98781L17.273 9.96481C17.609 9.85881 17.859 9.60881 17.961 9.27281C17.9884 9.18457 17.9989 9.09195 17.992 8.99981C17.9988 8.90636 17.9883 8.81244 17.961 8.72281C17.9121 8.56024 17.8236 8.41232 17.7035 8.29226C17.5835 8.17221 17.4356 8.08376 17.273 8.03481L17.188 8.00781H14.028C11.258 8.00781 10.859 8.00781 10.789 8.02281H10.79ZM10.824 12.0158C10.6295 12.0518 10.4498 12.1443 10.3076 12.2818C10.1653 12.4193 10.0667 12.5956 10.024 12.7888C9.99771 12.9361 9.99873 13.0869 10.027 13.2338C10.117 13.5978 10.391 13.8708 10.766 13.9728C10.859 13.9958 10.863 13.9958 12.418 13.9998C13.988 14.0038 14.113 14.0038 14.27 13.9598C14.4094 13.9207 14.5386 13.8515 14.6484 13.7572C14.7583 13.6629 14.8462 13.5457 14.906 13.4138C14.9601 13.3012 14.9908 13.1787 14.996 13.0538C15.027 12.5538 14.668 12.1048 14.176 12.0158C14.086 12.0038 13.856 11.9998 12.488 11.9998C11.227 12.0038 10.887 12.0038 10.824 12.0158Z" fill="#202020"/>
</svg>
