<svg width="24" height="24" viewBox="0 0 24 24" fill="none" xmlns="http://www.w3.org/2000/svg">
<path d="M17.879 1.00789C17.7204 1.02798 17.5689 1.08557 17.437 1.17589C17.363 1.22289 13.238 5.34789 13.184 5.42589C13.043 5.63289 12.98 5.87489 13.008 6.10889C13.0343 6.3241 13.129 6.5252 13.278 6.68268C13.427 6.84016 13.6226 6.94573 13.836 6.98389C13.93 7.00389 14.16 6.99189 14.258 6.96389C14.348 6.94089 14.508 6.86689 14.582 6.81189C14.617 6.78889 15.172 6.23789 15.824 5.58989L17.004 4.40989L17.012 10.1879L17.043 10.2889C17.0948 10.4542 17.188 10.6035 17.3139 10.7226C17.4398 10.8416 17.594 10.9264 17.762 10.9689C17.891 11.0039 18.109 11.0039 18.242 10.9689C18.4282 10.921 18.5966 10.8203 18.727 10.6789C18.8445 10.5569 18.928 10.4062 18.969 10.2419C18.989 10.1679 18.992 9.94189 18.992 5.98789V1.80789L18.957 1.71089C18.9124 1.55827 18.829 1.41978 18.715 1.30889C18.6081 1.19787 18.4771 1.11297 18.3321 1.06077C18.1872 1.00857 18.0321 0.990475 17.879 1.00789ZM5.8 1.43389C5.758 1.44489 5.684 1.46389 5.633 1.48389C5.433 1.56289 5.493 1.50789 3.48 3.52389C1.531 5.47589 1.57 5.42989 1.492 5.60389C1.422 5.76889 1.398 6.01389 1.438 6.19789C1.477 6.39789 1.586 6.58789 1.734 6.72889C1.82203 6.81334 1.92561 6.8799 2.039 6.92489C2.207 6.99489 2.23 6.99489 3.152 6.99489H3.996V14.4999C3.996 19.5499 4 22.0349 4.008 22.1049C4.033 22.3316 4.13448 22.5429 4.29573 22.7042C4.45697 22.8654 4.66834 22.9669 4.895 22.9919C5.035 23.0079 6.965 23.0079 7.109 22.9919C7.33528 22.9669 7.54621 22.8653 7.70682 22.704C7.86743 22.5427 7.96805 22.3313 7.992 22.1049C8 22.0349 8.004 19.5509 8.004 14.4999V6.99589H8.852C9.632 6.99589 9.707 6.99189 9.805 6.97289C9.96397 6.93869 10.1119 6.86536 10.2353 6.75954C10.3588 6.65372 10.4539 6.51876 10.512 6.36689C10.6084 6.12178 10.607 5.84898 10.508 5.60489C10.43 5.42989 10.473 5.47689 8.52 3.52289C6.5 1.50289 6.559 1.55489 6.363 1.48389C6.18344 1.41758 5.98845 1.40032 5.8 1.43389ZM17.27 13.0079C16.5859 13.0563 15.9305 13.3019 15.383 13.7149C15.006 14.0016 14.6911 14.3619 14.4574 14.7739C14.2236 15.1859 14.076 15.6411 14.0234 16.1118C13.9707 16.5826 14.0142 17.0591 14.1511 17.5126C14.2881 17.966 14.5156 18.387 14.82 18.7499C14.9862 18.937 15.1667 19.1109 15.36 19.2699C15.8788 19.6655 16.4962 19.9111 17.145 19.9799C17.301 19.9999 17.703 19.9999 17.855 19.9799C18.219 19.9369 18.543 19.8549 18.852 19.7269C18.922 19.6989 18.98 19.6799 18.984 19.6799C19.004 19.7029 18.91 20.0309 18.844 20.1719C18.6818 20.4934 18.4095 20.7459 18.0768 20.8835C17.744 21.0212 17.3729 21.0348 17.031 20.9219C16.738 20.8279 16.52 20.6719 16.297 20.3979C16.1977 20.271 16.0708 20.1685 15.926 20.0979C15.8066 20.0397 15.6758 20.0089 15.543 20.0079C15.3985 19.997 15.2534 20.0198 15.1192 20.0747C14.9851 20.1295 14.8655 20.2149 14.77 20.3239C14.7065 20.3882 14.6535 20.4621 14.613 20.5429C14.5364 20.6828 14.4984 20.8405 14.503 20.9999C14.503 21.3479 14.645 21.5939 15.066 22.0079C15.363 22.2969 15.625 22.4799 16.008 22.6599C16.7036 22.9906 17.4888 23.0827 18.242 22.9219C18.768 22.803 19.2607 22.5679 19.684 22.2339C20.3181 21.7257 20.7569 21.0138 20.926 20.2189C20.996 19.8669 20.996 19.9449 20.996 17.9999C20.996 16.0549 20.996 16.1289 20.926 15.7809C20.7793 15.0906 20.4281 14.4606 19.918 13.9729C19.7692 13.8273 19.6057 13.6976 19.43 13.5859C18.9176 13.2398 18.3205 13.0399 17.703 13.0079C17.5589 12.9962 17.4141 12.9962 17.27 13.0079ZM17.723 15.0159C17.945 15.0509 18.141 15.1249 18.324 15.2499C18.477 15.3519 18.59 15.4569 18.695 15.5939C18.801 15.7339 18.867 15.8589 18.918 16.0199C18.973 16.1879 18.996 16.3199 18.996 16.4999C18.996 17.0199 18.75 17.4729 18.309 17.7619C17.929 18.0119 17.426 18.0659 16.992 17.9099C16.6229 17.7743 16.3205 17.5013 16.148 17.1479C16.0491 16.9464 15.9997 16.7243 16.004 16.4999C16.004 16.3159 16.024 16.1869 16.074 16.0349C16.254 15.4919 16.727 15.0939 17.293 15.0119C17.403 14.9959 17.598 14.9999 17.723 15.0159Z" fill="#202020"/>
</svg>
