<svg width="24" height="24" viewBox="0 0 24 24" fill="none" xmlns="http://www.w3.org/2000/svg">
<path d="M4.918 1.00398C4.70607 1.02297 4.50552 1.10826 4.34485 1.24775C4.18418 1.38724 4.07156 1.57382 4.023 1.78098C4.003 1.85498 4.003 2.24998 4 9.42998L3.996 17.004H3.152C2.23 17.004 2.207 17.004 2.039 17.074C1.92561 17.119 1.82203 17.1855 1.734 17.27C1.586 17.41 1.477 17.602 1.438 17.8C1.398 17.984 1.422 18.227 1.492 18.39C1.57 18.566 1.532 18.523 3.48 20.477C5.484 22.484 5.434 22.437 5.629 22.512C5.867 22.605 6.133 22.605 6.371 22.512C6.566 22.437 6.516 22.484 8.516 20.48C9.75 19.246 10.395 18.59 10.422 18.547C10.5001 18.4268 10.5514 18.2912 10.5725 18.1494C10.5936 18.0076 10.5841 17.8629 10.5444 17.7251C10.5048 17.5874 10.436 17.4597 10.3428 17.3508C10.2496 17.2419 10.134 17.1544 10.004 17.094C9.82 17.008 9.879 17.012 8.891 17.008L8.004 17.004V9.49998C8.004 4.44998 8 1.96498 7.992 1.88998C7.96663 1.66463 7.86543 1.45459 7.70498 1.29433C7.54453 1.13406 7.33438 1.03309 7.109 1.00798C6.37874 0.994918 5.64831 0.993584 4.918 1.00398ZM17.879 1.00798C17.7204 1.02807 17.5689 1.08566 17.437 1.17598C17.363 1.22298 13.238 5.34798 13.184 5.42598C13.043 5.63298 12.98 5.87498 13.008 6.10898C13.0343 6.32419 13.129 6.52529 13.278 6.68277C13.427 6.84025 13.6226 6.94582 13.836 6.98398C13.93 7.00398 14.16 6.99198 14.258 6.96398C14.348 6.94098 14.508 6.86698 14.582 6.81198C14.617 6.78898 15.172 6.23798 15.824 5.58998L17.004 4.40998L17.012 10.188L17.043 10.289C17.0948 10.4543 17.188 10.6036 17.3139 10.7227C17.4398 10.8417 17.594 10.9265 17.762 10.969C17.891 11.004 18.109 11.004 18.242 10.969C18.4282 10.9211 18.5966 10.8204 18.727 10.679C18.8445 10.557 18.928 10.4063 18.969 10.242C18.989 10.168 18.992 9.94198 18.992 5.98798V1.80798L18.957 1.71098C18.9124 1.55836 18.829 1.41987 18.715 1.30898C18.6081 1.19796 18.4771 1.11306 18.3321 1.06086C18.1872 1.00866 18.0321 0.990565 17.879 1.00798ZM17.27 13.008C16.5859 13.0564 15.9305 13.302 15.383 13.715C15.006 14.0017 14.6911 14.362 14.4574 14.774C14.2236 15.186 14.076 15.6412 14.0234 16.1119C13.9707 16.5827 14.0142 17.0592 14.1511 17.5127C14.2881 17.9661 14.5156 18.3871 14.82 18.75C14.9862 18.9371 15.1667 19.111 15.36 19.27C15.8788 19.6656 16.4962 19.9112 17.145 19.98C17.301 20 17.703 20 17.855 19.98C18.219 19.937 18.543 19.855 18.852 19.727C18.922 19.699 18.98 19.68 18.984 19.68C19.004 19.703 18.91 20.031 18.844 20.172C18.6818 20.4934 18.4095 20.746 18.0768 20.8836C17.744 21.0213 17.3729 21.0349 17.031 20.922C16.738 20.828 16.52 20.672 16.297 20.398C16.1977 20.2711 16.0708 20.1685 15.926 20.098C15.8066 20.0398 15.6758 20.009 15.543 20.008C15.3985 19.9971 15.2534 20.0199 15.1192 20.0748C14.9851 20.1296 14.8655 20.2149 14.77 20.324C14.7065 20.3883 14.6535 20.4622 14.613 20.543C14.5364 20.6828 14.4984 20.8406 14.503 21C14.503 21.348 14.645 21.594 15.066 22.008C15.363 22.297 15.625 22.48 16.008 22.66C16.7036 22.9907 17.4888 23.0828 18.242 22.922C18.768 22.8031 19.2607 22.568 19.684 22.234C20.3181 21.7258 20.7569 21.0139 20.926 20.219C20.996 19.867 20.996 19.945 20.996 18C20.996 16.055 20.996 16.129 20.926 15.781C20.7793 15.0907 20.4281 14.4607 19.918 13.973C19.7692 13.8274 19.6057 13.6977 19.43 13.586C18.9176 13.2399 18.3205 13.04 17.703 13.008C17.5589 12.9963 17.4141 12.9963 17.27 13.008ZM17.723 15.016C17.945 15.051 18.141 15.125 18.324 15.25C18.477 15.352 18.59 15.457 18.695 15.594C18.801 15.734 18.867 15.859 18.918 16.02C18.973 16.188 18.996 16.32 18.996 16.5C18.996 17.02 18.75 17.473 18.309 17.762C17.929 18.012 17.426 18.066 16.992 17.91C16.6229 17.7744 16.3205 17.5014 16.148 17.148C16.0491 16.9465 15.9997 16.7244 16.004 16.5C16.004 16.316 16.024 16.187 16.074 16.035C16.254 15.492 16.727 15.094 17.293 15.012C17.403 14.996 17.598 15 17.723 15.016Z" fill="currentColor"/>
</svg>
