<svg width="24" height="24" viewBox="0 0 24 24" fill="none" xmlns="http://www.w3.org/2000/svg">
<path d="M3.676 0.0158224C3.07247 0.0639964 2.48776 0.248616 1.96599 0.555752C1.44423 0.862887 0.999032 1.28452 0.664 1.78882C0.312 2.32982 0.125 2.83982 0.02 3.56282C-8.73115e-10 3.69882 -0.008 20.0148 0.012 20.2758C0.0493042 20.8519 0.211892 21.4129 0.488415 21.9197C0.764937 22.4264 1.14873 22.8667 1.613 23.2098C2.22673 23.6668 2.95947 23.9366 3.723 23.9868C3.848 23.9948 6.293 23.9988 12.117 23.9948L20.34 23.9908L20.516 23.9678C21.25 23.8578 21.848 23.6158 22.406 23.1938C22.719 22.9598 22.969 22.7098 23.203 22.3938C23.664 21.7798 23.926 21.0768 23.988 20.2918C24.004 20.0768 24.004 3.91682 23.988 3.70182C23.9316 2.92267 23.6476 2.17725 23.1711 1.5582C22.6946 0.939143 22.0468 0.47374 21.308 0.219822C21.0247 0.126877 20.7335 0.0599335 20.438 0.0198224C20.316 0.00482239 3.887 -0.00317761 3.675 0.0168224L3.676 0.0158224ZM10.266 3.03582C10.617 3.14082 10.875 3.40182 10.969 3.75382C11.004 3.88682 11.004 4.11382 10.969 4.24582C10.9231 4.41944 10.832 4.5778 10.705 4.70479C10.578 4.83178 10.4196 4.92288 10.246 4.96882C10.16 4.99182 10.113 4.99582 9.641 5.00382C9.176 5.01182 9.113 5.01582 9.008 5.03882C8.60585 5.11929 8.2386 5.32266 7.957 5.62082C7.695 5.89482 7.527 6.21482 7.441 6.59782C7.414 6.70282 7.414 6.74582 7.406 7.66782C7.398 8.66382 7.395 8.72682 7.34 9.04682C7.24861 9.54537 7.06732 10.0231 6.805 10.4568C6.582 10.8088 6.457 10.9568 5.891 11.5268L5.42 11.9998L5.89 12.4728C6.468 13.0548 6.604 13.2148 6.823 13.5738C7.12 14.0658 7.3 14.5938 7.378 15.2138C7.394 15.3398 7.398 15.5538 7.405 16.3278C7.413 17.2538 7.413 17.2968 7.44 17.4018C7.499 17.6678 7.62 17.9448 7.765 18.1518C7.862 18.2888 8.093 18.5228 8.225 18.6168C8.479 18.7968 8.741 18.9098 9.042 18.9688C9.112 18.9798 9.261 18.9888 9.644 18.9958C10.112 19.0038 10.159 19.0078 10.245 19.0308C10.601 19.1248 10.874 19.4018 10.968 19.7538C11.003 19.8868 11.003 20.1138 10.968 20.2418C10.9237 20.4141 10.8351 20.5718 10.7111 20.6993C10.5871 20.8268 10.432 20.9197 10.261 20.9688C10.167 20.9918 10.155 20.9918 9.621 20.9918C9.034 20.9918 8.937 20.9878 8.616 20.9218C8.04804 20.8083 7.51154 20.5726 7.04362 20.2313C6.57571 19.8899 6.18754 19.451 5.906 18.9448C5.71085 18.5942 5.56833 18.2169 5.483 17.8248C5.409 17.4688 5.409 17.4648 5.401 16.3978C5.397 15.8588 5.39 15.3978 5.386 15.3778L5.358 15.2498C5.29535 14.9496 5.16732 14.6669 4.983 14.4218C4.68402 14.1063 4.38066 13.7949 4.073 13.4878C3.76746 13.188 3.46806 12.8819 3.175 12.5698C3.11123 12.466 3.06115 12.3544 3.026 12.2378C2.99481 12.0793 2.99481 11.9163 3.026 11.7578C3.06194 11.6428 3.11198 11.5326 3.175 11.4298C3.195 11.3978 3.601 10.9838 4.073 10.5118C4.542 10.0388 4.953 9.61682 4.983 9.57782C5.167 9.33582 5.303 9.02782 5.358 8.74582C5.37 8.69582 5.382 8.63582 5.386 8.61282C5.39 8.58982 5.397 8.13282 5.401 7.59282C5.409 6.53082 5.409 6.53082 5.483 6.17582C5.66352 5.33486 6.10875 4.57386 6.7534 4.00444C7.39804 3.43502 8.20818 3.08714 9.065 3.01182C9.128 3.00782 9.405 3.00382 9.679 3.00382C10.159 3.00782 10.179 3.00782 10.265 3.03482L10.266 3.03582ZM14.914 3.01182C15.5437 3.06149 16.1526 3.25956 16.691 3.58982C17.158 3.87787 17.5614 4.25818 17.8764 4.70746C18.1914 5.15675 18.4114 5.66558 18.523 6.20282C18.59 6.53082 18.59 6.54682 18.598 7.59782C18.605 8.44082 18.609 8.59782 18.625 8.68382C18.695 9.03482 18.816 9.31282 19.015 9.57782C19.047 9.61782 19.457 10.0388 19.93 10.5118C20.398 10.9838 20.805 11.3978 20.824 11.4298C21.059 11.7768 21.054 12.2228 20.82 12.5738C20.8 12.6018 20.398 13.0158 19.93 13.4878C19.457 13.9608 19.047 14.3828 19.016 14.4218C18.816 14.6868 18.696 14.9648 18.625 15.3158C18.609 15.4018 18.605 15.5588 18.598 16.3978C18.59 17.3128 18.586 17.3948 18.566 17.5428C18.453 18.2578 18.211 18.8518 17.805 19.3948C17.2077 20.1915 16.3362 20.7384 15.359 20.9298C15.055 20.9878 14.957 20.9918 14.379 20.9918C13.848 20.9918 13.832 20.9918 13.742 20.9688C13.5704 20.9203 13.4146 20.8276 13.29 20.7C13.1654 20.5725 13.0765 20.4145 13.032 20.2418C12.9969 20.0797 12.9969 19.9119 13.032 19.7498C13.122 19.4018 13.402 19.1248 13.754 19.0308C13.84 19.0078 13.887 19.0038 14.355 18.9958C14.738 18.9878 14.891 18.9798 14.961 18.9688C15.3515 18.8932 15.7112 18.7044 15.9954 18.426C16.2795 18.1476 16.4755 17.7918 16.559 17.4028C16.582 17.2968 16.586 17.2498 16.594 16.3278C16.602 15.3398 16.609 15.2538 16.66 14.9568C16.742 14.4798 16.926 13.9878 17.176 13.5738C17.395 13.2138 17.531 13.0538 18.109 12.4728L18.579 11.9998L18.109 11.5268C17.531 10.9448 17.395 10.7848 17.176 10.4218C16.926 10.0118 16.738 9.51182 16.66 9.04682C16.605 8.72982 16.602 8.66382 16.594 7.66782C16.586 6.74982 16.582 6.70282 16.559 6.59782C16.5229 6.42811 16.4651 6.26376 16.387 6.10882C16.2675 5.8691 16.1011 5.65576 15.8978 5.48142C15.6944 5.30709 15.4582 5.17529 15.203 5.09382C14.965 5.01982 14.922 5.01182 14.363 5.00382C13.887 4.99582 13.84 4.99182 13.753 4.96882C13.5796 4.92273 13.4214 4.83156 13.2946 4.70458C13.1678 4.57759 13.0769 4.41932 13.031 4.24582C12.9959 4.0837 12.9959 3.91594 13.031 3.75382C13.133 3.36682 13.449 3.07782 13.836 3.01182C13.918 2.99582 14.738 2.99582 14.914 3.01182Z" fill="currentColor"/>
</svg>
