<svg width="24" height="24" viewBox="0 0 24 24" fill="none" xmlns="http://www.w3.org/2000/svg">
<path d="M3.676 0.0158224C3.07247 0.0639964 2.48776 0.248616 1.96599 0.555752C1.44423 0.862887 0.999032 1.28452 0.664 1.78882C0.312 2.32982 0.125 2.83982 0.02 3.56282C-8.73115e-10 3.69882 -0.008 20.0148 0.012 20.2758C0.0493042 20.8519 0.211892 21.4129 0.488415 21.9197C0.764937 22.4264 1.14873 22.8667 1.613 23.2098C2.22673 23.6668 2.95947 23.9366 3.723 23.9868C3.848 23.9948 6.293 23.9988 12.117 23.9948L20.34 23.9908L20.516 23.9678C21.25 23.8578 21.848 23.6158 22.406 23.1938C22.719 22.9598 22.969 22.7098 23.203 22.3938C23.664 21.7798 23.926 21.0768 23.988 20.2918C24.004 20.0768 24.004 3.91682 23.988 3.70182C23.9316 2.92267 23.6476 2.17725 23.1711 1.5582C22.6946 0.939143 22.0468 0.47374 21.308 0.219822C21.0247 0.126877 20.7335 0.0599335 20.438 0.0198224C20.316 0.00482239 3.887 -0.00317761 3.675 0.0168224L3.676 0.0158224ZM12.16 3.01182C12.46 3.06582 12.71 3.23782 12.867 3.50382C12.898 3.55382 13.84 6.05082 15.797 11.2658C17.379 15.4958 18.68 18.9648 18.687 18.9758C18.691 18.9918 18.75 18.9958 19.422 18.9998C20.132 19.0038 20.152 19.0038 20.246 19.0268C20.609 19.1288 20.871 19.3948 20.973 19.7568C21.003 19.8748 21.003 20.1328 20.969 20.2538C20.879 20.5618 20.66 20.8118 20.383 20.9258C20.195 20.9998 20.383 20.9918 18 20.9918H15.84L15.746 20.9688C15.5748 20.9224 15.4187 20.832 15.2932 20.7066C15.1678 20.5811 15.0774 20.4251 15.031 20.2538C14.9965 20.0904 14.9951 19.9218 15.027 19.7578C15.129 19.3948 15.395 19.1278 15.757 19.0308C15.84 19.0078 15.887 19.0038 16.199 18.9998C16.391 18.9958 16.547 18.9878 16.547 18.9838C16.547 18.9768 16.289 18.2848 15.828 17.0658L15.808 17.0038H8.192L8.172 17.0658C7.712 18.2858 7.454 18.9758 7.454 18.9838C7.454 18.9878 7.61 18.9958 7.802 18.9998C8.114 19.0038 8.162 19.0078 8.247 19.0308C8.607 19.1288 8.872 19.3948 8.974 19.7578C9.004 19.8748 9.004 20.1328 8.97 20.2538C8.88 20.5618 8.661 20.8118 8.384 20.9258C8.196 20.9998 8.384 20.9918 6.001 20.9918H3.84L3.746 20.9688C3.57477 20.9224 3.41867 20.832 3.29323 20.7066C3.16779 20.5811 3.07738 20.4251 3.031 20.2538C2.99649 20.0904 2.99513 19.9218 3.027 19.7578C3.07368 19.5827 3.16576 19.4229 3.29394 19.2948C3.42211 19.1666 3.58185 19.0745 3.757 19.0278C3.847 19.0038 3.867 19.0038 4.578 18.9998C5.25 18.9958 5.308 18.9918 5.316 18.9768C5.32 18.9648 6.617 15.4968 8.203 11.2658C10.477 5.20282 11.098 3.56182 11.141 3.49182C11.2132 3.36984 11.3102 3.26442 11.4258 3.18241C11.5414 3.1004 11.673 3.04364 11.812 3.01582C11.906 2.99982 12.066 2.99582 12.16 3.01182Z" fill="currentColor"/>
<path d="M10.469 10.9338L8.945 14.9998H15.055L13.531 10.9338C13.0243 9.57679 12.514 8.22111 12 6.86682C11.996 6.86682 11.309 8.69482 10.469 10.9338Z" fill="currentColor"/>
</svg>
