<svg width="24" height="24" viewBox="0 0 24 24" fill="none" xmlns="http://www.w3.org/2000/svg">
<path d="M3.676 0.0158224C3.07247 0.0639964 2.48776 0.248616 1.96599 0.555752C1.44423 0.862887 0.999032 1.28452 0.664 1.78882C0.312 2.32982 0.125 2.83982 0.02 3.56282C-8.73115e-10 3.69882 -0.008 20.0148 0.012 20.2758C0.0493042 20.8519 0.211892 21.4129 0.488415 21.9197C0.764937 22.4264 1.14873 22.8667 1.613 23.2098C2.22673 23.6668 2.95947 23.9366 3.723 23.9868C3.848 23.9948 6.293 23.9988 12.117 23.9948L20.34 23.9908L20.516 23.9678C21.25 23.8578 21.848 23.6158 22.406 23.1938C22.719 22.9598 22.969 22.7098 23.203 22.3938C23.664 21.7798 23.926 21.0768 23.988 20.2918C24.004 20.0768 24.004 3.91682 23.988 3.70182C23.9316 2.92267 23.6476 2.17725 23.1711 1.5582C22.6946 0.939143 22.0468 0.47374 21.308 0.219822C21.0247 0.126877 20.7335 0.0599335 20.438 0.0198224C20.316 0.00482239 3.887 -0.00317761 3.675 0.0168224L3.676 0.0158224ZM7.286 6.07382C7.386 6.10182 7.496 6.14782 7.59 6.20682C7.652 6.24982 8.102 6.69082 9.836 8.42182L12 10.5858L14.164 8.42582C14.8983 7.68709 15.638 6.95374 16.383 6.22582C16.5042 6.14239 16.6424 6.08691 16.7877 6.06339C16.933 6.03987 17.0816 6.0489 17.223 6.08982C17.563 6.18782 17.828 6.45682 17.922 6.79982C17.961 6.94482 17.957 7.17582 17.914 7.31582C17.879 7.42582 17.832 7.53082 17.774 7.61682C17.754 7.64482 16.766 8.64482 15.574 9.83582L13.414 11.9998L15.574 14.1638C16.3139 14.897 17.0472 15.6367 17.774 16.3828C17.832 16.4688 17.879 16.5738 17.914 16.6828C17.941 16.7728 17.945 16.8088 17.945 16.9448C17.9525 17.1021 17.9176 17.2586 17.844 17.3978C17.7782 17.5247 17.687 17.6368 17.576 17.7269C17.465 17.8171 17.3367 17.8834 17.199 17.9218C17.0289 17.9582 16.8528 17.9554 16.684 17.9138C16.5776 17.8815 16.4763 17.8344 16.383 17.7738C16.355 17.7538 15.355 16.7658 14.164 15.5738L12 13.4098L9.836 15.5738C9.10151 16.3147 8.36048 17.0491 7.613 17.7768C7.50819 17.8413 7.39518 17.8915 7.277 17.9258C7.12085 17.9563 6.96003 17.9536 6.805 17.9178C6.63115 17.8715 6.47251 17.7803 6.34493 17.6534C6.21735 17.5266 6.12531 17.3684 6.078 17.1948C6.04552 17.0366 6.04416 16.8736 6.074 16.7148C6.10994 16.5998 6.15998 16.4896 6.223 16.3868C6.243 16.3548 7.234 15.3548 8.426 14.1638L10.59 11.9998L8.426 9.83582C7.68727 9.10153 6.95392 8.36184 6.226 7.61682C6.14257 7.49561 6.08709 7.35738 6.06357 7.21211C6.04005 7.06685 6.04908 6.91817 6.09 6.77682C6.2 6.39782 6.516 6.12082 6.906 6.05882C6.992 6.04282 7.199 6.05482 7.286 6.07382Z" fill="currentColor"/>
</svg>
