<svg width="24" height="24" viewBox="0 0 24 24" fill="none" xmlns="http://www.w3.org/2000/svg">
<path d="M14.625 2.01581C13.6928 2.10196 12.8205 2.513 12.1606 3.17709C11.5007 3.84117 11.0952 4.71606 11.015 5.64881C11 5.83581 11 18.1638 11.015 18.3518C11.0914 19.2338 11.4591 20.0654 12.0602 20.7153C12.6613 21.3653 13.4616 21.7968 14.335 21.9418C14.66 21.9958 14.668 21.9998 17.609 21.9918C20.605 21.9878 20.41 21.9918 20.742 21.9298C21.3874 21.8083 21.993 21.5298 22.5054 21.1189C23.0177 20.708 23.4211 20.1774 23.68 19.5738C23.8328 19.2028 23.9337 18.8124 23.98 18.4138C24 18.2068 24 5.79281 23.98 5.58181C23.8862 4.68665 23.4933 3.84928 22.8647 3.20508C22.2361 2.56089 21.4086 2.14752 20.516 2.03181C20.395 2.01181 20.148 2.01181 17.563 2.00781C15.996 2.00781 14.688 2.01181 14.625 2.01581ZM8.086 5.10981C7.793 5.15981 7.32 5.35181 6.988 5.54281C6.50049 5.82745 6.07867 6.21193 5.75019 6.67104C5.42172 7.13015 5.19401 7.65352 5.082 8.20681C5.004 8.58181 5.012 8.29681 5.012 11.9998C5.012 15.7028 5.004 15.4178 5.082 15.7898C5.1935 16.3437 5.42098 16.8677 5.74948 17.3274C6.07799 17.787 6.50008 18.172 6.988 18.4568C7.273 18.6208 7.625 18.7698 7.945 18.8588C8.258 18.9408 8.515 18.8828 8.723 18.6758C8.86385 18.5368 8.95549 18.3556 8.984 18.1598C9.043 17.8158 8.914 17.4768 8.602 17.1678C8.437 17.0038 8.352 16.9408 7.969 16.7108C7.69922 16.5497 7.47148 16.327 7.30443 16.0609C7.13738 15.7947 7.03579 15.4928 7.008 15.1798C6.992 15.0038 6.992 8.99581 7.008 8.81981C7.04665 8.37495 7.23529 7.95641 7.543 7.63281C7.68 7.47981 7.832 7.36681 8.074 7.22681C8.66 6.88281 8.969 6.49181 8.996 6.05081C9.023 5.64081 8.77 5.24181 8.41 5.13281C8.30455 5.10405 8.19454 5.09691 8.086 5.10981ZM1.977 7.61281C1.859 7.63681 1.727 7.70681 1.594 7.80481C1.039 8.22681 0.594 8.79281 0.324 9.42481C0.16756 9.79386 0.0651725 10.1835 0.02 10.5818C0 10.7768 0 13.2218 0.02 13.4178C0.14 14.4408 0.605 15.3438 1.355 15.9998C1.641 16.2458 1.809 16.3518 1.985 16.3868C2.094 16.4098 2.152 16.4098 2.265 16.3908C2.602 16.3238 2.883 16.0268 2.973 15.6368C3.00617 15.4633 3.00208 15.2847 2.961 15.1128C2.902 14.8868 2.75 14.6208 2.527 14.3548C2.28274 14.0812 2.11327 13.7491 2.035 13.3908L2.012 13.2698V10.7268L2.035 10.6088C2.11327 10.2505 2.28274 9.91843 2.527 9.64481C2.75 9.37881 2.902 9.11281 2.961 8.88681C3.004 8.72981 3.008 8.49681 2.969 8.33581C2.883 7.99581 2.629 7.71081 2.332 7.62481C2.21588 7.59549 2.09483 7.5914 1.977 7.61281Z" fill="currentColor"/>
</svg>
