<svg width="24" height="24" viewBox="0 0 24 24" fill="none" xmlns="http://www.w3.org/2000/svg">
<path d="M11.773 1.19092C11.093 1.29292 10.59 1.69492 10.359 2.32092C10.339 2.37492 10.012 3.43692 9.629 4.67992C8.945 6.88992 8.926 6.94492 8.848 7.10492C8.75 7.30492 8.656 7.43392 8.492 7.58992C8.254 7.81992 8 7.95292 7.648 8.04292L7.543 8.06592L5.003 8.07392C2.211 8.08192 2.422 8.07392 2.16 8.15192C1.92568 8.22213 1.70868 8.34068 1.523 8.49992C1.20363 8.78762 0.996394 9.17906 0.938 9.60492C0.918 9.74992 0.93 10.0779 0.961 10.2069C1.043 10.5619 1.211 10.8549 1.473 11.0939C1.531 11.1479 2.445 11.8519 3.503 12.6639C4.566 13.4729 5.469 14.1679 5.516 14.2069C5.738 14.3949 5.937 14.6869 6.027 14.9729C6.137 15.3009 6.145 15.6829 6.055 15.9999C6.039 16.0499 5.633 17.1449 5.156 18.4259C4.85446 19.2288 4.55779 20.0335 4.266 20.8399C4.20658 21.0716 4.19064 21.3124 4.219 21.5499C4.27153 21.8727 4.41196 22.1747 4.62488 22.4229C4.8378 22.6712 5.11498 22.8559 5.426 22.9569C5.617 23.0199 5.75 23.0429 5.961 23.0429C6.285 23.0429 6.578 22.9609 6.848 22.7929C6.895 22.7659 7.848 22.0929 8.968 21.2969C10.094 20.5039 11.043 19.8359 11.078 19.8089C11.238 19.7109 11.445 19.6249 11.668 19.5789C11.836 19.5429 12.164 19.5429 12.336 19.5789C12.559 19.6289 12.77 19.7109 12.937 19.8199C13.004 19.8629 14.781 21.1209 16.66 22.4529C17.11 22.7699 17.164 22.8089 17.305 22.8749C17.551 22.9919 17.77 23.0429 18.043 23.0429C18.328 23.0429 18.57 22.9839 18.832 22.8519C19.301 22.6089 19.66 22.1519 19.762 21.6519C19.816 21.3869 19.805 21.0819 19.727 20.8119C19.4378 20.016 19.1435 19.222 18.844 18.4299C18.5439 17.6319 18.2483 16.8322 17.957 16.0309C17.9043 15.8684 17.882 15.6975 17.891 15.5269C17.891 15.3469 17.895 15.2769 17.911 15.1989C17.988 14.8389 18.148 14.5389 18.387 14.2969C18.461 14.2229 19.02 13.7889 20.469 12.6839C21.555 11.8519 22.492 11.1329 22.543 11.0779C22.746 10.8909 22.903 10.6449 22.988 10.3869C23.058 10.1869 23.07 10.1049 23.07 9.84392C23.07 9.63692 23.066 9.58592 23.043 9.48392C22.895 8.82392 22.445 8.32392 21.84 8.15192C21.578 8.07392 21.79 8.08192 18.996 8.07392L16.461 8.06592L16.336 8.03592C16.0228 7.96778 15.7356 7.81167 15.508 7.58592C15.3603 7.44967 15.2395 7.28684 15.152 7.10592C15.074 6.94592 15.055 6.89092 14.375 4.67992C13.988 3.43792 13.66 2.37492 13.641 2.31992C13.5447 2.04618 13.3799 1.80166 13.1623 1.60963C12.9447 1.41761 12.6816 1.28448 12.398 1.22292C12.2816 1.1962 12.1624 1.18411 12.043 1.18692C11.914 1.18692 11.793 1.18692 11.773 1.19092Z" fill="currentColor"/>
</svg>
