<svg width="24" height="24" viewBox="0 0 24 24" fill="none" xmlns="http://www.w3.org/2000/svg">
<g clip-path="url(#clip0_2435_57440)">
<path d="M7.79 4.00387C6.54701 4.03528 5.32831 4.35502 4.23 4.93787C2.77201 5.71664 1.59112 6.92801 0.849755 8.40537C0.10839 9.88273 -0.157031 11.5535 0.09 13.1879C0.326319 14.7876 1.04365 16.2776 2.14675 17.46C3.24985 18.6424 4.68652 19.4612 6.266 19.8079C6.621 19.8869 6.969 19.9379 7.437 19.9799C7.551 19.9919 8.648 19.9959 11.742 19.9999C15.945 20.0039 16.352 20.0039 16.766 19.9599C17.5889 19.8815 18.3949 19.6775 19.156 19.3549C20.7825 18.6583 22.1318 17.4415 22.9921 15.8954C23.8525 14.3492 24.1754 12.5613 23.91 10.8119C23.6251 8.87641 22.6381 7.11342 21.137 5.85887C19.8979 4.82297 18.3739 4.18701 16.766 4.03487C16.6032 4.02225 16.4402 4.01325 16.277 4.00787C16.023 3.99987 8.188 3.99587 7.79 4.00387ZM16.61 6.02687C17.8618 6.15258 19.0422 6.66922 19.9838 7.5035C20.9254 8.33779 21.5804 9.44737 21.856 10.6749C21.965 11.1679 22.004 11.5699 21.992 12.1209C21.988 12.4729 21.972 12.6519 21.926 12.9489C21.7893 13.8138 21.4645 14.6382 20.9745 15.3639C20.4845 16.0896 19.8412 16.6989 19.09 17.1489C18.8097 17.3126 18.5187 17.4572 18.219 17.5819C17.625 17.8119 17.008 17.9489 16.367 17.9879C16.215 17.9959 14.891 17.9999 11.855 17.9959C7.199 17.9919 7.535 17.9959 7.109 17.9339C6.32121 17.8167 5.56463 17.5439 4.88337 17.1314C4.20211 16.7188 3.60981 16.1747 3.141 15.5309C2.52389 14.6786 2.14115 13.6793 2.031 12.6329C2.00433 12.2805 1.99932 11.9268 2.016 11.5739C2.08424 10.5441 2.41894 9.54969 2.98729 8.68823C3.55564 7.82677 4.33812 7.1278 5.258 6.65987C6.0076 6.27451 6.83032 6.0523 7.672 6.00787C7.703 6.00387 9.692 6.00387 12.09 6.00387C16.047 6.00787 16.46 6.00787 16.61 6.02687Z" fill="currentColor"/>
<path d="M7.637 8.01587C6.941 8.08587 6.301 8.31587 5.742 8.69587C5.3035 8.99662 4.92919 9.38158 4.64086 9.82834C4.35253 10.2751 4.15592 10.7747 4.06249 11.2982C3.96906 11.8217 3.98067 12.3585 4.09664 12.8774C4.21261 13.3963 4.43062 13.887 4.738 14.3209C5.016 14.7069 5.387 15.0709 5.785 15.3319C6.305 15.6759 6.852 15.8789 7.5 15.9689C7.684 15.9959 8.29 15.9999 8.46 15.9769C9.184 15.8749 9.781 15.6449 10.328 15.2569C11.085 14.7134 11.6294 13.9237 11.868 13.0229C11.9573 12.6894 11.9987 12.345 11.991 11.9999C11.991 11.6249 11.96 11.3479 11.874 11.0079C11.7331 10.4536 11.4746 9.93622 11.116 9.49072C10.7575 9.04521 10.3073 8.68205 9.796 8.42587C9.39366 8.22456 8.96084 8.0911 8.515 8.03087C8.22223 8.00826 7.92837 8.00325 7.635 8.01587H7.637Z" fill="currentColor"/>
</g>
<defs>
<clipPath id="clip0_2435_57440">
<rect width="24" height="24" fill="white"/>
</clipPath>
</defs>
</svg>
