<svg width="24" height="24" viewBox="0 0 24 24" fill="none" xmlns="http://www.w3.org/2000/svg">
<path d="M14.668 1.00809C14.273 1.03909 13.868 1.20309 13.566 1.45309C13.52 1.49309 10.816 4.18709 7.559 7.44909C3.391 11.6171 1.605 13.4101 1.539 13.4961C1.047 14.1171 0.769 14.7961 0.676 15.5901C0.66 15.7581 0.66 16.2461 0.68 16.4101C0.742 16.9531 0.895 17.4531 1.14 17.9061C1.23 18.0741 1.41 18.3441 1.543 18.5081C1.691 18.6991 5.324 22.3281 5.5 22.4651C6.10067 22.9439 6.82595 23.2406 7.59 23.3201C7.758 23.3401 8.242 23.3401 8.414 23.3201C9.208 23.2383 9.95912 22.9199 10.57 22.4061C10.648 22.3401 13.2 19.7961 16.637 16.3561C22.497 10.4921 22.567 10.4221 22.657 10.2891C22.812 10.0551 22.918 9.79309 22.973 9.51209L22.996 9.37909L23 6.21509C23.004 4.05509 23 2.99609 22.992 2.87909C22.9765 2.61271 22.9075 2.35219 22.789 2.11309C22.636 1.80008 22.403 1.53305 22.1136 1.33901C21.8242 1.14497 21.4887 1.03081 21.141 1.00809C20.953 0.992094 14.848 0.992094 14.668 1.00809ZM18.184 4.00809C18.539 4.04309 18.875 4.16409 19.16 4.36809C19.3 4.46809 19.531 4.69509 19.633 4.84009C19.727 4.97309 19.848 5.21509 19.898 5.36009C19.9815 5.61057 20.0149 5.87506 19.9962 6.13844C19.9775 6.40182 19.9071 6.65893 19.789 6.89509C19.6946 7.08708 19.5677 7.26131 19.414 7.41009C19.1511 7.68142 18.8141 7.86924 18.445 7.95009C17.9929 8.05535 17.5181 7.99688 17.105 7.78509C16.9114 7.69342 16.7367 7.56621 16.59 7.41009C16.4339 7.2634 16.3067 7.08871 16.215 6.89509C16.0952 6.65937 16.0235 6.40216 16.0041 6.13845C15.9847 5.87474 16.018 5.60982 16.102 5.35909C16.148 5.21909 16.273 4.97309 16.367 4.83909C16.469 4.69509 16.695 4.46909 16.84 4.36709C17.232 4.0933 17.7077 3.96689 18.184 4.00809ZM13.25 10.0301C13.594 10.1201 13.875 10.4011 13.969 10.7531C14.004 10.8861 14.004 11.1131 13.969 11.2411C13.9376 11.3538 13.8905 11.4615 13.829 11.5611C13.785 11.6281 7.699 17.7181 7.602 17.7961C7.49894 17.8718 7.38405 17.9299 7.262 17.9681C7.0918 18.0033 6.9162 18.0033 6.746 17.9681C6.57477 17.9217 6.41867 17.8313 6.29323 17.7059C6.16779 17.5804 6.07738 17.4243 6.031 17.2531C6.01046 17.1687 6.0027 17.0818 6.008 16.9951C6.008 16.8231 6.02 16.7491 6.078 16.6081C6.152 16.4331 6.055 16.5341 9.278 13.3081C10.3193 12.2624 11.366 11.222 12.418 10.1871C12.547 10.0931 12.699 10.0341 12.863 10.0071C12.961 9.99109 13.141 10.0031 13.25 10.0301Z" fill="currentColor"/>
</svg>
