<svg width="24" height="24" viewBox="0 0 24 24" fill="none" xmlns="http://www.w3.org/2000/svg">
<g clip-path="url(#clip0_2064_61264)">
<path d="M9.89 1.00786C9.71 1.03086 9.535 1.09786 9.398 1.20286C8.48142 2.10525 7.57007 3.01293 6.664 3.92586L4.004 6.58586L2.809 5.39486C1.727 4.31586 1.602 4.19486 1.519 4.14486C1.32719 4.03052 1.10264 3.98359 0.88109 4.01156C0.659536 4.03952 0.453695 4.14077 0.296308 4.29919C0.138921 4.45761 0.0390273 4.66411 0.0125161 4.88584C-0.0139951 5.10757 0.0343987 5.3318 0.15 5.52286C0.208 5.62086 3.33 8.74986 3.446 8.82786C3.61624 8.94175 3.81734 9.00062 4.02212 8.9965C4.2269 8.99239 4.42547 8.9255 4.591 8.80486C4.626 8.77687 6.044 7.37086 7.731 5.67986C10.153 3.25786 10.813 2.59386 10.845 2.53486C10.9239 2.40939 10.9739 2.26794 10.9914 2.12074C11.0089 1.97355 10.9934 1.82432 10.946 1.68386C10.891 1.52059 10.7949 1.37417 10.6671 1.25861C10.5393 1.14306 10.384 1.06223 10.216 1.02386C10.1093 1.00317 10.0002 0.997781 9.892 1.00786H9.89ZM12.844 5.01186C12.7386 5.03308 12.6362 5.067 12.539 5.11286C12.4187 5.17538 12.3123 5.26168 12.2264 5.36654C12.1404 5.4714 12.0767 5.59263 12.039 5.72286C12.0117 5.8125 12.0012 5.90641 12.008 5.99986C12.008 6.15186 12.012 6.17986 12.039 6.27286C12.141 6.61286 12.399 6.86686 12.734 6.96486L12.828 6.98786H23.176L23.266 6.96486C23.602 6.86686 23.859 6.61286 23.961 6.27286C23.9884 6.18462 23.9989 6.092 23.992 5.99986C23.9988 5.90641 23.9883 5.8125 23.961 5.72286C23.9121 5.56029 23.8236 5.41237 23.7036 5.29232C23.5835 5.17226 23.4356 5.08381 23.273 5.03486L23.188 5.00786H18.03C15.194 5.00786 12.859 5.00786 12.844 5.01186ZM9.797 8.01987C9.6615 8.05236 9.53307 8.10929 9.418 8.18786C9.383 8.21086 8.152 9.43786 6.676 10.9099L3.996 13.5859L2.793 12.3859C1.543 11.1359 1.547 11.1449 1.387 11.0779C1.26453 11.0235 1.13074 10.9995 0.997 11.0079C0.793 11.0119 0.727 11.0229 0.559 11.1089C0.43226 11.1708 0.32015 11.259 0.230121 11.3676C0.140093 11.4762 0.0742076 11.6027 0.0368448 11.7387C-0.000518096 11.8747 -0.008503 12.0171 0.0134207 12.1565C0.0353445 12.2958 0.0866747 12.4289 0.164 12.5469C0.214 12.6209 0.492 12.9069 1.754 14.1719C2.598 15.0159 3.328 15.7379 3.375 15.7769C3.473 15.8549 3.629 15.9339 3.75 15.9689C3.855 15.9999 4.137 15.9999 4.242 15.9689C4.344 15.9409 4.442 15.9019 4.52 15.8549C4.574 15.8249 5.313 15.0939 7.68 12.7269C9.379 11.0269 10.793 9.60886 10.816 9.57386C10.957 9.36687 11.02 9.12486 10.992 8.89086C10.9681 8.65334 10.8569 8.43313 10.68 8.27286C10.5593 8.15528 10.4095 8.07178 10.246 8.03086C10.0975 8.00361 9.94565 7.9999 9.796 8.01987H9.797ZM12.816 12.0199C12.6676 12.0483 12.5275 12.11 12.4063 12.2004C12.2852 12.2907 12.1862 12.4074 12.1166 12.5416C12.0471 12.6758 12.009 12.8241 12.0051 12.9751C12.0011 13.1262 12.0315 13.2762 12.094 13.4139C12.199 13.6409 12.364 13.8039 12.578 13.9019C12.6785 13.9504 12.7869 13.9809 12.898 13.9919C13.039 14.0079 22.957 14.0079 23.098 13.9919C23.2107 13.9825 23.3206 13.952 23.422 13.9019C23.6376 13.8039 23.8098 13.6303 23.906 13.4139C23.9601 13.3012 23.9908 13.1787 23.996 13.0539C24.027 12.5539 23.668 12.1049 23.176 12.0159C23.082 12.0039 22.484 11.9999 17.988 11.9999C13.633 12.0039 12.895 12.0039 12.816 12.0199ZM9.879 15.0079C9.734 15.0279 9.594 15.0779 9.477 15.1479C9.418 15.1799 8.812 15.7809 6.711 17.8829C5.81177 18.7843 4.90943 19.6827 4.004 20.5779C3.996 20.5779 3.464 20.0549 2.824 19.4099C2.184 18.7699 1.625 18.2229 1.59 18.1909C1.42416 18.0707 1.22542 18.0043 1.02065 18.0007C0.81587 17.9972 0.614933 18.0565 0.445 18.1709C0.327926 18.2536 0.227222 18.3574 0.148 18.4769C0.0452902 18.6456 -0.00506546 18.8411 0.00330043 19.0385C0.0116663 19.2359 0.078378 19.4264 0.195 19.5859C0.27 19.6909 3.363 22.7769 3.449 22.8319C3.773 23.0429 4.179 23.0509 4.519 22.8549C4.605 22.8049 4.848 22.5619 7.707 19.7029C10.563 16.8479 10.805 16.6049 10.855 16.5159C10.9328 16.3867 10.9802 16.2416 10.9938 16.0914C11.0074 15.9413 10.9867 15.79 10.9334 15.649C10.8801 15.5079 10.7955 15.3809 10.6859 15.2773C10.5764 15.1737 10.4448 15.0963 10.301 15.0509C10.1651 15.0063 10.0211 14.9916 9.879 15.0079ZM12.879 19.0079C12.7095 19.0285 12.5481 19.0925 12.4106 19.1938C12.2731 19.295 12.164 19.4301 12.094 19.5859C12.0383 19.7084 12.008 19.8408 12.0046 19.9753C12.0013 20.1098 12.0252 20.2436 12.0747 20.3687C12.1243 20.4938 12.1986 20.6076 12.2931 20.7033C12.3877 20.7991 12.5005 20.8747 12.625 20.9259C12.825 21.0039 12.387 20.9999 18 20.9999C22.484 20.9999 23.082 20.9959 23.176 20.9799C23.4129 20.9388 23.627 20.8134 23.7787 20.6268C23.9304 20.4402 24.0094 20.205 24.0013 19.9647C23.9931 19.7244 23.8983 19.4951 23.7343 19.3192C23.5703 19.1434 23.3482 19.0328 23.109 19.0079C22.989 18.9919 12.992 18.9919 12.879 19.0079Z" fill="#202020"/>
</g>
<defs>
<clipPath id="clip0_2064_61264">
<rect width="24" height="24" fill="white"/>
</clipPath>
</defs>
</svg>
