<svg width="24" height="24" viewBox="0 0 24 24" fill="none" xmlns="http://www.w3.org/2000/svg">
<path d="M5.879 1.008C5.609 1.039 5.348 1.199 5.188 1.422C5.156 1.461 4.218 3.328 3.098 5.57C1.57 8.621 1.055 9.672 1.039 9.73C0.985365 9.92251 0.99094 10.1267 1.055 10.316C1.148 10.594 1.359 10.816 1.629 10.926C1.875 11.023 2.172 11.02 2.406 10.914C2.566 10.84 2.715 10.719 2.809 10.59C2.832 10.55 3.027 10.176 3.234 9.758L3.617 9H8.387L8.766 9.758C8.973 10.176 9.168 10.551 9.196 10.59C9.33415 10.7788 9.53424 10.9131 9.76131 10.9693C9.98839 11.0256 10.228 11.0003 10.4383 10.8979C10.6487 10.7955 10.8163 10.6224 10.9121 10.409C11.0078 10.1955 11.0254 9.95518 10.962 9.73C10.945 9.672 10.43 8.625 8.902 5.57C8.21595 4.19102 7.52461 2.81468 6.828 1.441C6.75416 1.34277 6.66737 1.25497 6.57 1.18C6.36687 1.04362 6.12236 0.982754 5.879 1.008ZM6.695 5.618L7.383 6.996H4.617L5.305 5.617C5.684 4.863 5.996 4.242 6 4.242C6.004 4.242 6.316 4.864 6.695 5.618ZM9.879 1.008C9.70947 1.02862 9.54813 1.09266 9.4106 1.19392C9.27308 1.29518 9.16402 1.43023 9.094 1.586C9.03834 1.7085 9.00795 1.84095 9.00464 1.97546C9.00134 2.10996 9.02518 2.24376 9.07474 2.36884C9.12431 2.49392 9.19859 2.60773 9.29313 2.70346C9.38767 2.79919 9.50054 2.87488 9.625 2.926C9.828 3.008 9.273 3 16.051 2.996C21.977 2.992 22.168 2.992 22.242 2.973C22.703 2.84 22.996 2.461 22.996 1.996C22.996 1.536 22.696 1.152 22.238 1.027L22.145 1H16.05C12.698 1 9.921 1.004 9.879 1.008ZM12.844 5.012C12.7386 5.03322 12.6362 5.06713 12.539 5.113C12.4187 5.17552 12.3123 5.26182 12.2264 5.36668C12.1404 5.47154 12.0767 5.59276 12.039 5.723C12.0117 5.81263 12.0012 5.90655 12.008 6C12.008 6.152 12.012 6.18 12.039 6.273C12.141 6.609 12.391 6.859 12.727 6.965L12.817 6.988L17.461 6.992C22.598 6.996 22.191 7.004 22.379 6.922C22.672 6.801 22.887 6.551 22.969 6.238C23.0041 6.07992 23.0041 5.91608 22.969 5.758C22.9306 5.60645 22.8572 5.46601 22.7548 5.34793C22.6523 5.22984 22.5236 5.1374 22.379 5.078C22.191 4.996 22.598 5.004 17.492 5.004C14.953 5.008 12.859 5.008 12.844 5.012ZM15.816 9.02C15.6676 9.0484 15.5275 9.11011 15.4063 9.20049C15.2852 9.29086 15.1862 9.40755 15.1166 9.54176C15.0471 9.67596 15.009 9.82419 15.0051 9.97527C15.0011 10.1264 15.0315 10.2764 15.094 10.414C15.25 10.75 15.539 10.954 15.91 10.992C16 11 16.957 11.004 19.09 11L22.145 10.996L22.238 10.973C22.4552 10.9194 22.648 10.7943 22.7855 10.6178C22.923 10.4413 22.9971 10.2237 22.996 10C22.9983 9.86857 22.9731 9.73811 22.922 9.617C22.8607 9.47363 22.7676 9.34605 22.6498 9.24386C22.532 9.14166 22.3926 9.06752 22.242 9.027C22.168 9.007 22.047 9.004 19.039 9.004C16.359 9.004 15.895 9.004 15.816 9.02ZM1.887 13.008C1.68323 13.0309 1.49143 13.1159 1.3376 13.2515C1.18377 13.3871 1.07534 13.5667 1.027 13.766C0.998395 13.9128 0.99704 14.0637 1.023 14.211C1.109 14.617 1.449 14.93 1.859 14.988C1.926 14.996 4.801 15 12.059 14.996C21.879 14.992 22.168 14.992 22.242 14.973C22.703 14.84 22.996 14.461 22.996 13.996C22.996 13.536 22.696 13.152 22.238 13.027L22.145 13H12.055C6.504 13 1.93 13.004 1.887 13.008ZM1.79 17.023C1.562 17.07 1.34 17.215 1.195 17.406C1.12182 17.5138 1.06644 17.6326 1.031 17.758C0.995927 17.9161 0.995927 18.0799 1.031 18.238C1.06312 18.357 1.11337 18.4703 1.18 18.574C1.324 18.774 1.559 18.93 1.797 18.977C1.879 18.997 2.817 18.997 12 18.997C21.184 18.997 22.121 18.997 22.203 18.977C22.3531 18.9467 22.494 18.8819 22.6147 18.7876C22.7353 18.6934 22.8323 18.5723 22.898 18.434C22.9658 18.2996 22.9995 18.1505 22.996 18C22.9995 17.8495 22.9658 17.7004 22.898 17.566C22.8323 17.4277 22.7353 17.3066 22.6147 17.2124C22.494 17.1181 22.3531 17.0533 22.203 17.023C22.121 17.003 21.183 17.003 11.993 17.003C3.051 17.008 1.86 17.008 1.79 17.023ZM1.824 21.016C1.62946 21.052 1.44985 21.1445 1.30757 21.282C1.1653 21.4195 1.06667 21.5958 1.024 21.789C0.99771 21.9363 0.998726 22.0871 1.027 22.234C1.121 22.605 1.407 22.887 1.789 22.977C1.879 22.997 2.188 22.997 12.008 22.997H22.133L22.234 22.973C22.4525 22.9213 22.647 22.7968 22.7855 22.62C22.9239 22.4432 22.9982 22.2246 22.996 22C22.9983 21.8686 22.9731 21.7381 22.922 21.617C22.8607 21.4736 22.7676 21.3461 22.6498 21.2439C22.532 21.1417 22.3926 21.0675 22.242 21.027C22.168 21.007 21.882 21.004 12.035 21.004C3.668 21.004 1.891 21.004 1.825 21.016H1.824Z" fill="currentColor"/>
</svg>
