<svg width="24" height="24" viewBox="0 0 24 24" fill="none" xmlns="http://www.w3.org/2000/svg">
<path d="M2.832 1.00782C2.35677 1.04886 1.91184 1.25833 1.5774 1.59844C1.24297 1.93856 1.04103 2.38696 1.008 2.86282C0.992367 3.62207 0.992367 4.38156 1.008 5.14082C1.047 5.61682 1.234 6.04282 1.558 6.37882C1.816 6.64482 2.105 6.81982 2.449 6.91782C2.719 6.99582 2.73 6.99982 4.063 6.99182L5.258 6.98782L5.387 6.96482C5.77638 6.88537 6.13372 6.69295 6.41437 6.41159C6.69503 6.13022 6.88654 5.7724 6.965 5.38282C6.992 5.25282 6.992 5.25282 6.992 4.05482C6.996 2.74582 6.996 2.73482 6.93 2.48482C6.8329 2.12768 6.63932 1.80418 6.37048 1.54982C6.10165 1.29545 5.76796 1.12003 5.406 1.04282C5.31833 1.02657 5.22988 1.01489 5.141 1.00782C4.37139 0.99414 3.60161 0.99414 2.832 1.00782ZM10.84 1.00782C10.355 1.04282 9.875 1.27782 9.54 1.63682C9.29587 1.90018 9.12578 2.22345 9.047 2.57382C9 2.78482 8.997 2.89082 9.004 4.08182C9.008 5.31581 9.008 5.27682 9.07 5.51982C9.148 5.83182 9.34 6.15982 9.574 6.39782C9.864 6.69082 10.211 6.87482 10.625 6.96482L10.754 6.98782H13.262L13.382 6.96482C13.7822 6.88514 14.1486 6.68557 14.4326 6.39263C14.7166 6.09969 14.9047 5.72725 14.972 5.32482C14.988 5.24582 14.992 5.06182 14.996 4.08982C15 2.90582 14.996 2.78082 14.953 2.57782C14.8951 2.31721 14.7864 2.0706 14.633 1.85214C14.4796 1.63369 14.2845 1.44768 14.059 1.30482C13.7813 1.13039 13.4643 1.02828 13.137 1.00782C12.3714 0.996096 11.6056 0.996096 10.84 1.00782ZM18.84 1.00782C18.504 1.03482 18.18 1.14782 17.883 1.34382C17.6843 1.48758 17.5077 1.65975 17.359 1.85482C17.176 2.12882 17.07 2.40182 17.023 2.71882C16.996 2.90582 16.996 5.09782 17.023 5.28082C17.047 5.43382 17.086 5.59382 17.133 5.71482C17.387 6.35882 17.91 6.80082 18.598 6.95682L18.734 6.98782L19.941 6.99182C21.254 6.99582 21.266 6.99582 21.516 6.92982C21.9185 6.82125 22.2771 6.58974 22.5417 6.26759C22.8063 5.94545 22.9637 5.54874 22.992 5.13282C23.0076 4.3749 23.0076 3.61673 22.992 2.85882C22.9589 2.37883 22.7532 1.92703 22.413 1.58682C22.0728 1.24661 21.621 1.04095 21.141 1.00782C20.3741 0.994142 19.6069 0.994142 18.84 1.00782ZM2.781 9.01182C2.54536 9.0386 2.31641 9.10735 2.105 9.21482C1.7938 9.36933 1.52866 9.6029 1.33613 9.89213C1.1436 10.1814 1.03045 10.5161 1.008 10.8628C0.992368 11.6207 0.992368 12.3789 1.008 13.1368C1.058 13.8518 1.468 14.4648 2.105 14.7808C2.344 14.9018 2.547 14.9608 2.82 14.9878C2.906 14.9958 3.3 14.9998 4.098 14.9958C5.09 14.9918 5.258 14.9878 5.336 14.9728C5.664 14.9058 5.883 14.8158 6.133 14.6448C6.56397 14.3484 6.86243 13.8957 6.965 13.3828L6.992 13.2578V10.7378L6.965 10.6178C6.88031 10.1968 6.66327 9.81391 6.34557 9.52499C6.02786 9.23607 5.62613 9.05626 5.199 9.01182C4.39308 8.99619 3.58692 8.99619 2.781 9.01182ZM10.781 9.01182C10.4792 9.05019 10.1891 9.15247 9.93 9.31182C9.754 9.42181 9.531 9.62481 9.406 9.78881C9.18844 10.0844 9.05255 10.432 9.012 10.7968C8.99638 11.5987 8.99638 12.4009 9.012 13.2028C9.055 13.5738 9.192 13.9218 9.406 14.2068C9.476 14.3008 9.656 14.4838 9.746 14.5548C10.051 14.7968 10.406 14.9448 10.796 14.9878C10.949 15.0038 13.051 15.0038 13.203 14.9878C13.59 14.9448 13.933 14.8048 14.234 14.5698C14.4446 14.4038 14.6198 14.1974 14.7493 13.9626C14.8788 13.7278 14.96 13.4695 14.988 13.2028C15.004 13.0508 15.004 10.9488 14.988 10.7968C14.9612 10.5491 14.8901 10.3083 14.778 10.0858C14.6888 9.91332 14.5742 9.75521 14.438 9.61681C14.1118 9.27407 13.6737 9.05945 13.203 9.01182C12.3957 8.99619 11.5883 8.99619 10.781 9.01182ZM18.785 9.01182C18.4952 9.0444 18.2159 9.13951 17.9664 9.29058C17.7169 9.44165 17.5032 9.64508 17.34 9.88682C17.2 10.1018 17.098 10.3468 17.035 10.6168L17.012 10.7378V13.2578L17.035 13.3828C17.098 13.6558 17.199 13.8978 17.34 14.1128C17.61 14.5158 18.031 14.8128 18.504 14.9328C18.723 14.9928 18.699 14.9928 19.91 14.9958C21.094 14.9998 21.219 14.9958 21.422 14.9528C21.7163 14.8877 21.9922 14.7574 22.2295 14.5715C22.4667 14.3856 22.6593 14.1489 22.793 13.8788C22.906 13.6448 22.973 13.4058 22.993 13.1368C23.0086 12.3789 23.0086 11.6207 22.993 10.8628C22.9617 10.3587 22.7376 9.88601 22.367 9.54282C22.043 9.24282 21.645 9.06281 21.207 9.01182C20.3997 8.99814 19.5923 8.99814 18.785 9.01182ZM2.707 17.0228C2.25731 17.0904 1.844 17.309 1.53504 17.6427C1.22608 17.9764 1.03986 18.4053 1.007 18.8588C0.991366 19.6194 0.991366 20.3802 1.007 21.1408C1.055 21.7658 1.371 22.3128 1.887 22.6558C2.18 22.8558 2.5 22.9648 2.859 22.9918C3.059 23.0078 4.945 23.0078 5.141 22.9918C5.617 22.9528 6.043 22.7658 6.379 22.4418C6.645 22.1838 6.82 21.8948 6.922 21.5508C6.996 21.2808 7 21.2698 6.992 19.9378C6.992 18.7458 6.992 18.7418 6.965 18.6178C6.925 18.4378 6.879 18.2968 6.797 18.1328C6.66346 17.8528 6.4665 17.6078 6.22175 17.4172C5.97699 17.2266 5.69118 17.0957 5.387 17.0348L5.257 17.0078H4.04C3.028 17.0078 2.801 17.0078 2.707 17.0228ZM10.746 17.0158C9.902 17.1248 9.207 17.7728 9.043 18.5978C9.003 18.7928 9 18.9138 9 20.0078C9 21.2728 9.004 21.3198 9.102 21.6208C9.19912 21.9159 9.36364 22.1843 9.58252 22.4047C9.8014 22.6252 10.0686 22.7916 10.363 22.8908C10.688 22.9998 10.789 23.0078 12.129 22.9998C13.063 22.9958 13.203 22.9918 13.309 22.9768C13.625 22.9218 13.918 22.8008 14.179 22.6128C14.312 22.5198 14.531 22.2968 14.629 22.1598C14.773 21.9568 14.899 21.6678 14.953 21.4218C14.996 21.2188 15 21.0938 14.996 19.9098C14.992 18.6718 14.996 18.7228 14.926 18.4648C14.869 18.2502 14.7738 18.0477 14.645 17.8668C14.355 17.4408 13.925 17.1598 13.391 17.0388C13.273 17.0118 13.273 17.0118 12.047 17.0078C11.375 17.0078 10.788 17.0118 10.746 17.0158ZM18.715 17.0198C18.2865 17.0819 17.8897 17.2815 17.5845 17.5887C17.2794 17.8959 17.0823 18.2939 17.023 18.7228C17.003 18.8318 17.003 19.0028 17.008 20.0508C17.012 21.1408 17.012 21.2608 17.031 21.3548C17.094 21.6648 17.211 21.9338 17.391 22.1868C17.418 22.2268 17.511 22.3278 17.598 22.4138C17.711 22.5268 17.781 22.5898 17.883 22.6558C18.183 22.8558 18.5 22.9648 18.859 22.9918C19.6196 23.0075 20.3804 23.0075 21.141 22.9918C21.4891 22.9682 21.8248 22.8531 22.1141 22.6582C22.4035 22.4633 22.6363 22.1955 22.789 21.8818C22.9067 21.6513 22.9758 21.3991 22.992 21.1408C23.0076 20.3829 23.0076 19.6247 22.992 18.8668C22.9696 18.5147 22.8536 18.175 22.656 17.8828C22.5122 17.6841 22.3401 17.5075 22.145 17.3588C21.8864 17.1816 21.591 17.0654 21.281 17.0188C21.109 16.9958 18.871 16.9958 18.715 17.0188V17.0198Z" fill="currentColor"/>
</svg>
