<svg width="24" height="24" viewBox="0 0 24 24" fill="none" xmlns="http://www.w3.org/2000/svg">
<path d="M8.305 3.12918C8.055 3.16418 7.825 3.25818 7.605 3.41418C7.562 3.44918 6.406 4.59418 4.91 6.09418C2.102 8.90218 2.223 8.77418 2.074 9.03918C1.8922 9.37529 1.81002 9.75629 1.83712 10.1375C1.86422 10.5186 1.99947 10.8842 2.227 11.1912C2.301 11.2892 2.871 11.8672 4.949 13.9412C7.234 16.2232 7.589 16.5742 7.676 16.6332C7.941 16.8052 8.176 16.8752 8.492 16.8752C8.91 16.8752 9.27 16.7272 9.562 16.4302C9.793 16.2002 9.922 15.9532 9.977 15.6332C9.992 15.5352 9.997 15.3672 9.997 14.2932V13.0662H10.035C10.102 13.0662 10.48 13.1252 10.746 13.1802C12.93 13.6132 14.973 14.7902 16.296 16.3752C17.0377 17.2521 17.5613 18.2921 17.824 19.4102C17.941 19.9262 18.09 20.2102 18.387 20.5082C18.723 20.8442 19.067 20.9922 19.5 20.9922C19.8113 21.0009 20.1166 20.9053 20.3672 20.7204C20.6178 20.5356 20.7994 20.2722 20.883 19.9722C20.937 19.7662 20.937 19.6092 20.875 19.1412C20.523 16.3632 19.492 13.6452 18.015 11.6012C17.609 11.0392 17.235 10.6012 16.754 10.1172C16.2532 9.61073 15.702 9.15672 15.109 8.76218C13.637 7.78518 12.023 7.23018 10.156 7.05118L10.004 7.03518L9.996 5.71118C9.988 4.26118 9.992 4.35518 9.918 4.12918C9.754 3.63318 9.316 3.25818 8.773 3.14518C8.61826 3.12055 8.46106 3.11517 8.305 3.12918Z" fill="#202020"/>
</svg>
