<svg width="24" height="24" viewBox="0 0 24 24" fill="none" xmlns="http://www.w3.org/2000/svg">
<path d="M11.73 0.00778364C11.2781 0.033975 10.8316 0.119371 10.402 0.261784C9.7726 0.472822 9.19168 0.807447 8.69335 1.24602C8.19501 1.6846 7.78929 2.21829 7.5 2.81578C7.04 3.77678 6.89 4.86278 7.086 5.91778C7.28175 6.97143 7.81138 7.9341 8.59656 8.66346C9.38175 9.39282 10.3808 9.85014 11.446 9.96778C11.648 9.99578 12.313 9.99978 12.512 9.97678C13.602 9.84678 14.52 9.44478 15.32 8.74178C15.676 8.42978 16.023 8.01178 16.277 7.59378C16.6768 6.92834 16.9177 6.1796 16.9808 5.40586C17.0439 4.63212 16.9276 3.85424 16.641 3.13278C16.1953 2.02394 15.3664 1.11196 14.305 0.562784C14.035 0.421784 13.867 0.351784 13.582 0.257784C13.2421 0.14429 12.8912 0.0671916 12.535 0.0277836C12.2672 0.00794578 11.9985 0.00127108 11.73 0.00778364ZM11.578 12.0078C9.168 12.0978 6.878 12.8868 4.945 14.2928C3.10015 15.6361 1.67483 17.4758 0.835 19.5978C0.66 20.0428 0.578 20.3048 0.531 20.5698C0.516 20.6638 0.511 20.7538 0.511 20.9918C0.511 21.2768 0.511 21.3088 0.543 21.4608C0.727 22.3978 1.403 23.2028 2.379 23.6478C2.801 23.8398 3.246 23.9528 3.734 23.9878C3.859 23.9958 6.274 23.9998 12.117 23.9958C19.73 23.9918 20.336 23.9918 20.469 23.9728C20.7768 23.9327 21.0793 23.8589 21.371 23.7528C22.559 23.3088 23.363 22.3548 23.484 21.2578C23.504 21.0778 23.492 20.7068 23.461 20.5428C23.411 20.2698 23.328 20.0118 23.145 19.5508C22.3162 17.4787 20.9266 15.6783 19.1321 14.3515C17.3376 13.0247 15.2091 12.2239 12.985 12.0388C12.5169 12.0033 12.0472 11.993 11.578 12.0078Z" fill="#202020"/>
</svg>
