<svg width="24" height="24" viewBox="0 0 24 24" fill="none" xmlns="http://www.w3.org/2000/svg">
<path d="M3.621 2.01581C2.71371 2.10213 1.86327 2.49629 1.211 3.13281C0.53 3.79681 0.137 4.60881 0.02 5.58181C0 5.77281 0 12.2268 0.02 12.4138C0.137 13.3868 0.531 14.2068 1.21 14.8668C1.87295 15.5159 2.74301 15.9113 3.668 15.9838C3.793 15.9918 5.301 15.9958 9.113 15.9918C14.843 15.9878 14.403 15.9918 14.743 15.9298C15.5891 15.7702 16.3611 15.3418 16.9443 14.7084C17.5275 14.0749 17.8907 13.2702 17.98 12.4138C18 12.2268 18 5.77381 17.98 5.58181C17.863 4.60881 17.469 3.79281 16.79 3.13181C16.6138 2.95772 16.4212 2.801 16.215 2.66381C15.699 2.32381 15.184 2.13281 14.52 2.03081C14.395 2.01081 14.074 2.01081 9.059 2.00781C6.079 2.00781 3.684 2.01181 3.621 2.01581ZM3.246 4.02981C3.606 4.11981 3.886 4.40981 3.973 4.77581C3.9968 4.86235 4.0036 4.95269 3.993 5.04181C3.99631 5.13384 3.98136 5.2256 3.949 5.31181C3.90471 5.44735 3.83178 5.57178 3.73515 5.67664C3.63853 5.7815 3.52048 5.86435 3.389 5.91955C3.25753 5.97476 3.11572 6.00104 2.9732 5.99659C2.83068 5.99215 2.69078 5.9571 2.563 5.89381C2.44267 5.83735 2.33516 5.75685 2.24711 5.65727C2.15906 5.5577 2.09232 5.44115 2.051 5.31481C2.011 5.19781 2.011 5.19481 2.011 5.00681C2.011 4.79181 2.023 4.72881 2.098 4.56881C2.19693 4.35958 2.36563 4.19134 2.57512 4.09298C2.78462 3.99462 3.02183 3.97228 3.246 4.02981ZM6.246 4.02981C6.606 4.11981 6.886 4.40981 6.973 4.77581C6.9968 4.86235 7.0036 4.95269 6.993 5.04181C6.99631 5.13384 6.98136 5.2256 6.949 5.31181C6.90471 5.44735 6.83178 5.57178 6.73515 5.67664C6.63853 5.7815 6.52048 5.86435 6.389 5.91955C6.25753 5.97476 6.11572 6.00104 5.9732 5.99659C5.83068 5.99215 5.69078 5.9571 5.563 5.89381C5.44267 5.83735 5.33516 5.75685 5.24711 5.65727C5.15906 5.5577 5.09232 5.44115 5.051 5.31481C5.011 5.19781 5.011 5.19481 5.011 5.00681C5.011 4.79181 5.023 4.72881 5.098 4.56881C5.19693 4.35958 5.36563 4.19134 5.57512 4.09298C5.78462 3.99462 6.02183 3.97228 6.246 4.02981ZM9.246 4.02981C9.606 4.11981 9.886 4.40981 9.973 4.77581C9.9968 4.86235 10.0036 4.95269 9.993 5.04181C9.99631 5.13384 9.98136 5.2256 9.949 5.31181C9.90471 5.44735 9.83178 5.57178 9.73515 5.67664C9.63853 5.7815 9.52048 5.86435 9.389 5.91955C9.25753 5.97476 9.11572 6.00104 8.9732 5.99659C8.83068 5.99215 8.69078 5.9571 8.563 5.89381C8.44266 5.83735 8.33516 5.75685 8.24711 5.65727C8.15906 5.5577 8.09232 5.44115 8.051 5.31481C8.011 5.19781 8.011 5.19481 8.011 5.00681C8.011 4.79181 8.023 4.72881 8.098 4.56881C8.19693 4.35958 8.36563 4.19134 8.57512 4.09298C8.78462 3.99462 9.02183 3.97228 9.246 4.02981Z" fill="#202020"/>
<path d="M20.004 10.0428C20.004 12.0738 20 12.3478 19.964 12.6718C19.7928 14.219 19.0251 15.6386 17.824 16.6288C17.0003 17.3097 16.0093 17.7575 14.954 17.9258C14.484 17.9958 14.848 17.9918 10.219 17.9958L5.996 17.9998L6.004 18.1598C6.039 18.8668 6.23 19.5038 6.582 20.0778C6.9086 20.6173 7.35871 21.0714 7.89525 21.4028C8.43179 21.7342 9.0394 21.9333 9.668 21.9838C9.793 21.9918 11.301 21.9958 15.113 21.9918C20.843 21.9878 20.403 21.9918 20.743 21.9298C21.5891 21.7702 22.3611 21.3418 22.9443 20.7084C23.5275 20.0749 23.8907 19.2702 23.98 18.4138C24 18.2268 24 11.7738 23.98 11.5818C23.863 10.6088 23.469 9.79281 22.79 9.13181C22.0924 8.44694 21.1648 8.04626 20.188 8.00781L20.003 7.99981L20.004 10.0428Z" fill="#202020"/>
</svg>
