<svg width="24" height="24" viewBox="0 0 24 24" fill="none" xmlns="http://www.w3.org/2000/svg">
<path d="M11.45 0.0117998C8.93596 0.121037 6.52035 1.02007 4.54662 2.58106C2.57289 4.14206 1.14151 6.28556 0.456 8.7068C0.220559 9.54202 0.0740787 10.3998 0.019 11.2658C0.00339297 11.7537 0.00339297 12.2419 0.019 12.7298C0.116 14.0898 0.374 15.2458 0.839 16.4218C1.4755 18.0396 2.45754 19.4989 3.71652 20.6977C4.9755 21.8966 6.48105 22.8061 8.128 23.3628C9.882 23.9568 11.78 24.1408 13.64 23.8868C15.4662 23.6395 17.2106 22.9735 18.737 21.9408C20.3068 20.8753 21.6027 19.4541 22.519 17.7928C22.659 17.5388 22.905 17.0348 23.022 16.7578C23.464 15.7268 23.761 14.6478 23.897 13.5508C23.972 12.9838 23.991 12.6248 23.991 12.0038C23.991 11.4728 23.983 11.2658 23.941 10.8158C23.7517 8.84676 23.0765 6.95552 21.976 5.3118C20.6849 3.39027 18.8679 1.88114 16.742 0.9648C15.6299 0.494688 14.4546 0.190767 13.254 0.0627998C12.746 0.0117998 11.923 -0.0122002 11.45 0.0117998ZM15.398 2.6218C15.535 2.6448 15.656 2.6878 15.878 2.7818C16.418 3.0078 16.957 3.2928 17.414 3.5898C17.629 3.7298 18.426 4.3318 18.609 4.4918C18.816 4.6718 19.329 5.1878 19.504 5.3908C20.6705 6.71016 21.4659 8.31547 21.809 10.0428C21.887 10.4378 21.957 10.9568 21.945 11.0778C21.9422 11.1193 21.9289 11.1595 21.9063 11.1944C21.8837 11.2294 21.8527 11.2581 21.816 11.2778C21.766 11.3078 21.746 11.3118 21.676 11.3118C21.6318 11.3156 21.5873 11.3091 21.546 11.2928C21.512 11.2768 21.102 10.8748 20.273 10.0468C19.8531 9.62299 19.4274 9.20495 18.996 8.7928C18.8597 8.70051 18.7042 8.64037 18.5412 8.6169C18.3782 8.59343 18.2121 8.60725 18.0553 8.65732C17.8984 8.70738 17.755 8.79239 17.6358 8.90593C17.5165 9.01947 17.4247 9.15859 17.367 9.3128C17.277 9.5658 17.277 9.8158 17.367 10.0698C17.441 10.2698 17.488 10.3278 17.907 10.7498C18.273 11.1168 18.289 11.1328 18.379 11.1718C18.453 11.2068 18.489 11.2188 18.598 11.2268C18.668 11.2338 18.75 11.2468 18.781 11.2568C18.9017 11.299 19.0041 11.3815 19.071 11.4904C19.1379 11.5994 19.1651 11.7281 19.148 11.8548C19.121 12.0308 19.133 12.0148 18.383 12.7698C18.008 13.1478 17.664 13.4798 17.621 13.5158C17.4018 13.688 17.1297 13.7788 16.851 13.7728C16.676 13.7728 16.578 13.7618 16.43 13.7068C16.156 13.6088 16.152 13.6088 15.277 12.7378C14.9938 12.4599 14.7164 12.1762 14.445 11.8868C14.326 11.7335 14.2507 11.5508 14.2273 11.3582C14.2039 11.1655 14.2332 10.9701 14.312 10.7928C14.363 10.6798 14.422 10.5928 14.527 10.4728C14.757 10.2228 14.852 9.9928 14.852 9.6908C14.852 9.5078 14.82 9.3788 14.742 9.2148C14.664 9.0548 14.586 8.9608 14.203 8.5818C13.766 8.1518 13.762 8.1478 13.398 8.1598C13.203 8.1598 13.199 8.1598 13.121 8.1998C13.0184 8.25159 12.9392 8.34028 12.8993 8.44806C12.8595 8.55583 12.8618 8.67471 12.906 8.7808C12.9346 8.83398 12.9688 8.88393 13.008 8.9298C13.102 9.0428 13.128 9.1168 13.128 9.2378C13.1304 9.33321 13.1016 9.4268 13.046 9.50439C12.9905 9.58198 12.9111 9.63935 12.82 9.6678C12.727 9.6988 12.43 9.7028 12.324 9.6718C12.18 9.6368 12.164 9.6248 11.621 9.0818C11.066 8.5348 11.004 8.4798 10.773 8.3628C10.4587 8.20012 10.1044 8.13099 9.75205 8.16361C9.39968 8.19622 9.06407 8.32921 8.785 8.5468C8.735 8.5858 8.496 8.8088 8.262 9.0388C8.027 9.2728 7.809 9.4798 7.782 9.4998C7.695 9.5588 7.57 9.6168 7.457 9.6518C7.355 9.6838 7.352 9.6838 7.027 9.6838H6.7L6.606 9.6518C6.49215 9.61506 6.38912 9.55083 6.306 9.4648C6.22275 9.38422 6.15949 9.28528 6.12129 9.17589C6.0831 9.0665 6.07101 8.94969 6.086 8.8348C6.10442 8.66194 6.18217 8.5008 6.306 8.3788C6.454 8.2298 6.595 8.1718 6.836 8.1558C6.939 8.1478 7.016 8.1328 7.079 8.1128C7.279 8.0508 7.439 7.9138 7.532 7.7268C7.599 7.5938 7.61 7.5388 7.614 7.2888C7.622 6.9688 7.603 6.8828 7.494 6.7618C7.415 6.6758 7.321 6.6318 7.165 6.6168C6.955 6.5898 6.837 6.5158 6.759 6.3548C6.724 6.2808 6.724 6.2648 6.724 6.1648C6.724 5.9568 6.657 6.0348 7.72 4.9728C8.321 4.3708 8.68 4.0198 8.755 3.9608C8.99819 3.76922 9.28331 3.63797 9.587 3.5778L9.724 3.5468L11.504 3.5388C13.263 3.5308 13.286 3.5308 13.392 3.5078C13.743 3.4258 13.982 3.3008 14.255 3.0508C14.47 2.8548 14.642 2.7418 14.849 2.6608C14.997 2.6008 15.216 2.5858 15.399 2.6208L15.398 2.6218ZM10.039 11.2378C10.41 11.2728 10.758 11.4058 11.059 11.6278C11.23 11.7538 11.82 12.3438 11.929 12.4958C12.059 12.6838 12.152 12.9018 12.203 13.1358C12.223 13.2338 12.227 13.3128 12.234 13.7958C12.242 14.3278 12.242 14.3518 12.27 14.4298C12.315 14.58 12.3984 14.7158 12.512 14.8238C12.5747 14.8902 12.6502 14.9433 12.734 14.9798C12.855 15.0398 12.926 15.0588 13.137 15.0738C13.262 15.0858 13.355 15.1018 13.407 15.1168C13.785 15.2418 14.027 15.5778 14.031 15.9768C14.0368 16.1532 13.9863 16.3269 13.887 16.4728C13.867 16.5028 13.574 16.8048 13.238 17.1448C12.902 17.4848 12.605 17.7848 12.578 17.8158C12.4249 18.0091 12.3182 18.2348 12.266 18.4758C12.2477 18.595 12.237 18.7152 12.234 18.8358C12.219 19.2258 12.188 19.3978 12.082 19.6478C11.98 19.8978 11.863 20.0578 11.566 20.3588C11.176 20.7578 11.02 20.8868 10.754 21.0188C10.469 21.1598 10.214 21.2228 9.832 21.2298C9.262 21.2458 8.895 21.1518 8.488 20.8828C8.29429 20.7403 8.12218 20.5705 7.977 20.3788C7.82706 20.1583 7.71956 19.9117 7.66 19.6518C7.621 19.4608 7.617 19.3628 7.617 18.3748C7.617 17.7648 7.613 17.3348 7.605 17.2618C7.58263 17.0319 7.52178 16.8075 7.425 16.5978C7.297 16.3238 7.199 16.1988 6.813 15.8198C6.551 15.5618 6.477 15.4918 6.371 15.4218C6.15006 15.2759 5.90385 15.1725 5.645 15.1168C5.535 15.0938 5.477 15.0898 4.992 15.0818C4.457 15.0738 4.395 15.0658 4.215 15.0228C3.95389 14.9522 3.71419 14.8184 3.5171 14.6332C3.32001 14.448 3.1716 14.217 3.085 13.9608C3.02 13.7728 3.008 13.6678 3.008 13.4338C3.008 13.2498 3.012 13.2068 3.039 13.0938C3.089 12.8638 3.184 12.6638 3.32 12.4728C3.387 12.3828 3.883 11.8748 4.043 11.7338C4.355 11.4568 4.753 11.2848 5.168 11.2378C5.316 11.2268 9.878 11.2228 10.039 11.2378Z" fill="#202020"/>
</svg>
