<svg xmlns="http://www.w3.org/2000/svg" focusable="false" class="sr-only"><symbol id="talend-flow-o"><svg xmlns="http://www.w3.org/2000/svg" viewBox="0 0 16 16">
  <g>
    <path d="M6.00020867,2.00020867 L9.00020867,8.00020867 L6.00020867,14.0002087 L1.00020867,14.0002087 C0.733342866,14.0057128 0.475778391,13.9021244 0.287035642,13.7133817 C0.129750017,13.5560961 0.0315993703,13.3510176 0.00643680819,13.1325909 L0.000208665916,13.0002087 L0.000208665916,3.00020867 C-0.00529548925,2.73334287 0.0982928921,2.47577839 0.287035642,2.28703564 C0.444321266,2.12975002 0.649399755,2.03159937 0.867826434,2.00643681 L1.00020867,2.00020867 L6.00020867,2.00020867 Z M7.00020867,2.00020867 L15.0002087,2.00020867 C15.2670745,1.99470451 15.5246389,2.09829289 15.7133817,2.28703564 C15.8706673,2.44432127 15.968818,2.64939976 15.9939805,2.86782643 L16.0002087,3.00020867 L16.0002087,13.0002087 C16.0057128,13.2670745 15.9021244,13.5246389 15.7133817,13.7133817 C15.5560961,13.8706673 15.3510176,13.968818 15.1325909,13.9939805 L15.0002087,14.0002087 L7.00020867,14.0002087 L10.0002087,8.00020867 L7.00020867,2.00020867 Z M1.00020713,2.99999691 L0.999996472,13.0002102 L5.38217468,13.0002102 L7.88217468,8.00020867 L5.38216159,3.00018249 L1.00020713,2.99999691 Z M15.0004209,3.00020712 L8.61822121,3.00020712 L11.1182427,8.00020712 L8.61822121,13.0002516 L15.0002102,13.0004208 L15.0004209,3.00020712 Z"/>
  </g>
</svg>
</symbol><symbol id="talend-flow-source-o"><svg xmlns="http://www.w3.org/2000/svg" viewBox="0 0 16 16">
  <g>
    <path d="M11.6360569,2.00020866 L16,8 L11.6360569,13.9997913 L1.00019562,13.9997913 C0.733333302,14.0052953 0.475772187,13.9017105 0.287031898,13.7129743 C0.129748325,13.5556942 0.0315989582,13.3506228 0.00643672425,13.1322037 L0.000208663195,12.9998261 L0.000208663195,3.00017388 C-0.00529542019,2.73331736 0.0982916103,2.47576185 0.287031898,2.28702566 C0.444315472,2.1297455 0.649391286,2.03159827 0.867815116,2.00643658 L1.00019562,2.00020866 L11.6360569,2.00020866 Z M14.7634577,7.99999645 L11.1268564,3.0001985 L1.00020739,2.99999645 L0.999996461,12.9997928 L11.1268638,12.9997928 L14.7634577,7.99999645 Z"/>
  </g>
</svg>
</symbol><symbol id="talend-flow-source-target"><svg xmlns="http://www.w3.org/2000/svg" viewBox="0 0 16 16">
  <g>
    <path d="M10.9998565,9.33321741 C11.0036406,9.51112176 10.9324245,9.68282544 10.8026656,9.80864956 C10.6988584,9.90930886 10.5647701,9.97363689 10.4213515,9.99346305 L10.3123655,9.99986089 L6,9.999 L5.99992931,12.9998609 L12.4998206,12.9998609 L14.7499527,10 L12.4998104,7.00012547 L10.999,7 L10.9998565,9.33321741 Z M10.0000707,3.00013911 L2.17790116,3.00013911 L4.75599887,6 L2.17790116,8.99990304 L9.99986781,9.0000544 L10.0000707,3.00013911 Z M0,9.99986089 L3.43745517,6 L0,2.00013911 L10.3123655,2.00013911 C10.4958334,1.9964698 10.6729066,2.06552632 10.8026656,2.19135044 C10.9064727,2.29200974 10.9728125,2.42203195 10.9932586,2.56110149 L10.9998565,2.66678259 L10.999,6 L12.9997891,6.00013911 L16,10 L12.9997891,13.9998609 L5.68763449,13.9998609 C5.50416664,14.0035302 5.32709338,13.9344737 5.19733443,13.8086496 C5.09352727,13.7079903 5.02718755,13.577968 5.00674138,13.4388985 L5.00014346,13.3332174 L5,9.999 L0,9.99986089 Z"/>
  </g>
</svg>
</symbol><symbol id="talend-flow-step-o"><svg xmlns="http://www.w3.org/2000/svg" viewBox="0 0 16 16">
  <g>
    <path d="M11.636,2 L16,8 L11.636,14 L0,14 L5,8 L0,2 L11.636,2 Z M2.13504161,3 L6.30170828,8 L2.13504161,13 L11.1268004,13 L14.763467,8 L11.1268004,3 L2.13504161,3 Z"/>
  </g>
</svg>
</symbol><symbol id="talend-flow-target-o"><svg xmlns="http://www.w3.org/2000/svg" viewBox="0 0 16 16">
  <g>
    <path d="M0,2.00020866 L14.9998044,2.00020866 C15.2666667,1.99470469 15.5242278,2.09828947 15.7129681,2.28702566 C15.8702517,2.44430581 15.968401,2.64937717 15.9935633,2.86779625 L15.9997913,3.00017388 L15.9997913,12.9998261 C16.0052954,13.2666826 15.9017084,13.5242382 15.7129681,13.7129743 C15.5556845,13.8702545 15.3506087,13.9684017 15.1321849,13.9935634 L14.9998044,13.9997913 L0,13.9997913 L4.99993479,8 L0,2.00020866 L14.9998044,2.00020866 L0,2.00020866 Z M6.30165467,8 L2.13504614,12.9998216 L14.9997926,13.0000037 L15.0000035,3.00020722 L2.13504614,3.00020722 L6.30165467,8 Z"/>
  </g>
</svg>
</symbol><symbol id="talend-flow-under-plan"><svg xmlns="http://www.w3.org/2000/svg" viewBox="0 0 16 16">
	<path d="M16 10l-2 4H7a.98.98 0 0 1-1-1h6l2-4-1.5-3H14zm-5-6H9.5L11 7l-2 4H3a.98.98 0 0 0 1 1h7l2-4zm-1 2L8 2H1a.98.98 0 0 0-1 1v6a.98.98 0 0 0 1 1h7z"/>
</svg>
</symbol><symbol id="talend-flow-unfinished"><svg xmlns="http://www.w3.org/2000/svg" viewBox="0 0 16 16">
  <g>
    <path d="M6.00020867,2.00020867 L9.00020867,8.00020867 L6.00020867,14.0002087 L1.00020867,14.0002087 C0.733342866,14.0057128 0.475778391,13.9021244 0.287035642,13.7133817 C0.129750017,13.5560961 0.0315993703,13.3510176 0.00643680819,13.1325909 L0.000208665916,13.0002087 L0.000208665916,3.00020867 C-0.00529548925,2.73334287 0.0982928921,2.47577839 0.287035642,2.28703564 C0.444321266,2.12975002 0.649399755,2.03159937 0.867826434,2.00643681 L1.00020867,2.00020867 L6.00020867,2.00020867 Z M2.93659942,10.2017291 C2.69068081,10.2017291 2.48703251,10.2862624 2.32564841,10.4553314 C2.16426432,10.6244005 2.08357349,10.839576 2.08357349,11.1008646 C2.08357349,11.3621531 2.16426432,11.5773286 2.32564841,11.7463977 C2.48703251,11.9154667 2.69068081,12 2.93659942,12 C3.18251804,12 3.38808755,11.9154667 3.55331412,11.7463977 C3.71854069,11.5773286 3.80115274,11.3621531 3.80115274,11.1008646 C3.80115274,10.839576 3.71854069,10.6244005 3.55331412,10.4553314 C3.38808755,10.2862624 3.18251804,10.2017291 2.93659942,10.2017291 Z M3.01729107,4 C2.59461844,4 2.21421879,4.09413931 1.87608069,4.28242075 C1.53794259,4.47070219 1.24591862,4.71085349 1,5.00288184 L1,5.00288184 L1.73775216,5.68299712 C1.90682121,5.49855816 2.08741499,5.35254617 2.2795389,5.24495677 C2.47166282,5.13736738 2.68683839,5.08357349 2.92507205,5.08357349 C3.2171004,5.08357349 3.44572444,5.16810674 3.61095101,5.33717579 C3.77617758,5.50624484 3.85878963,5.72910524 3.85878963,6.00576369 C3.85878963,6.18251769 3.816523,6.34774179 3.73198847,6.50144092 C3.64745395,6.65514006 3.54178738,6.8107581 3.41498559,6.96829971 C3.2881838,7.12584133 3.15369908,7.287223 3.01152738,7.45244957 C2.86935568,7.61767614 2.74255579,7.7963487 2.63112392,7.98847262 C2.51969205,8.18059654 2.43515879,8.39192968 2.37752161,8.62247839 C2.31988444,8.85302709 2.31027839,9.10662686 2.34870317,9.3832853 L2.34870317,9.3832853 L3.5129683,9.3832853 C3.48222847,9.13736669 3.50336179,8.91450628 3.57636888,8.71469741 C3.64937597,8.51488853 3.74543648,8.32660991 3.86455331,8.14985591 C3.98367014,7.9731019 4.11815487,7.80403539 4.26801153,7.6426513 L4.26801153,7.6426513 L4.41466557,7.47870621 C4.51029997,7.36770203 4.60166463,7.25328269 4.68876081,7.13544669 C4.81940507,6.95869268 4.92891406,6.77233527 5.01729107,6.57636888 C5.10566807,6.38040248 5.14985591,6.15946329 5.14985591,5.91354467 C5.14985591,5.59846144 5.09798323,5.32180715 4.99423631,5.08357349 C4.89048939,4.84533983 4.7425562,4.64553395 4.55043228,4.48414986 C4.35830836,4.32276576 4.13160553,4.20172951 3.870317,4.12103746 C3.60902847,4.04034542 3.32468934,4 3.01729107,4 Z M8.00020867,2.00020867 L15.0002087,2.00020867 C15.2670745,1.99470451 15.5246389,2.09829289 15.7133817,2.28703564 C15.8706673,2.44432127 15.968818,2.64939976 15.9939805,2.86782643 L16.0002087,3.00020867 L16.0002087,13.0002087 C16.0057128,13.2670745 15.9021244,13.5246389 15.7133817,13.7133817 C15.5560961,13.8706673 15.3510176,13.968818 15.1325909,13.9939805 L15.0002087,14.0002087 L12,14.0002087 L8.00020867,14.0002087 L11.0002087,8.00020867 L8.00020867,2.00020867 Z"/>
  </g>
</svg>
</symbol><symbol id="talend-flow"><svg xmlns="http://www.w3.org/2000/svg" viewBox="0 0 16 16">
  <g>
    <path d="M6.00020867,2.00020867 L9.00020867,8.00020867 L6.00020867,14.0002087 L1.00020867,14.0002087 C0.733342866,14.0057128 0.475778391,13.9021244 0.287035642,13.7133817 C0.129750017,13.5560961 0.0315993703,13.3510176 0.00643680819,13.1325909 L0.000208665916,13.0002087 L0.000208665916,3.00020867 C-0.00529548925,2.73334287 0.0982928921,2.47577839 0.287035642,2.28703564 C0.444321266,2.12975002 0.649399755,2.03159937 0.867826434,2.00643681 L1.00020867,2.00020867 L6.00020867,2.00020867 Z M8.00020867,2.00020867 L15.0002087,2.00020867 C15.2670745,1.99470451 15.5246389,2.09829289 15.7133817,2.28703564 C15.8706673,2.44432127 15.968818,2.64939976 15.9939805,2.86782643 L16.0002087,3.00020867 L16.0002087,13.0002087 C16.0057128,13.2670745 15.9021244,13.5246389 15.7133817,13.7133817 C15.5560961,13.8706673 15.3510176,13.968818 15.1325909,13.9939805 L15.0002087,14.0002087 L8.00020867,14.0002087 L11.0002087,8.00020867 L8.00020867,2.00020867 Z"/>
  </g>
</svg>
</symbol></svg>