<?xml version="1.0" encoding="utf-8"?>
<!-- Generator: Adobe Illustrator 15.1.0, SVG Export Plug-In  -->
<!DOCTYPE svg PUBLIC "-//W3C//DTD SVG 1.1//EN" "http://www.w3.org/Graphics/SVG/1.1/DTD/svg11.dtd" [
	<!ENTITY ns_flows "http://ns.adobe.com/Flows/1.0/">
]>
<svg version="1.1"
	 xmlns="http://www.w3.org/2000/svg" xmlns:xlink="http://www.w3.org/1999/xlink" xmlns:a="http://ns.adobe.com/AdobeSVGViewerExtensions/3.0/"
	 x="0px" y="0px" width="800px" height="800px" viewBox="0.001 0 800 800" enable-background="new 0.001 0 800 800"
	 xml:space="preserve">
<defs>
</defs>
<polygon display="none" points="120.997,502.247 297.853,679.004 650.001,326.856 473.243,150 "/>
<path display="none" d="M785.353,120.704L679.298,14.649c-19.531-19.531-51.172-19.531-70.703,0l-70.801,70.703L714.649,262.11
	l70.703-70.703C804.884,171.875,804.884,140.235,785.353,120.704z"/>
<polygon display="none" points="0.001,800 229.786,746.973 52.931,570.215 "/>
<path display="none" d="M784.962,164.531l-72.588-72.638c-19.952-19.952-52.536-19.852-72.287,0.25L291.884,453.982L160.142,322.24
	c-19.952-19.952-52.637-19.952-72.588,0l-72.588,72.588c-19.952,19.952-19.952,52.637,0,72.588l131.742,131.742l108.882,108.882
	c19.952,19.952,52.637,19.952,72.588,0L437.06,599.159L785.263,237.37C805.015,217.268,804.914,184.483,784.962,164.531z"/>
<path display="none" fill-rule="evenodd" clip-rule="evenodd" d="M701.444,800.635H100.291c-27.543,0-39.135-19.728-25.76-43.749
	l201.808-362.601c5.331-9.57,14.283-17.97,24.335-25.194v-80.956c-27.543,0-50.095-19.729-50.095-43.751
	c0-24.118,22.552-43.748,50.095-43.748h200.384c27.546,0,50.101,19.63,50.101,43.748c0,24.021-22.555,43.751-50.101,43.751v80.956
	c10.055,7.224,19.01,15.624,24.341,25.194l201.806,362.601C740.584,780.908,728.989,800.635,701.444,800.635z M567.863,600.636
	H233.871l-55.646,100.002H623.51L567.863,600.636z M601.253,200.636c-27.687,0-50.095-22.367-50.095-50.001
	c0-27.64,22.408-50.001,50.095-50.001c27.688,0,50.096,22.361,50.096,50.001C651.349,178.27,628.94,200.636,601.253,200.636z
	 M425.915,150.635c-41.483,0-75.143-33.594-75.143-74.999c0-41.507,33.66-75.001,75.143-75.001
	c41.485,0,75.143,33.495,75.143,75.001C501.058,117.041,467.4,150.635,425.915,150.635z M200.483,150.635
	c-27.689,0-50.098-22.364-50.098-50.001c0-27.64,22.408-49.999,50.098-49.999c27.687,0,50.095,22.358,50.095,49.999
	C250.579,128.271,228.17,150.635,200.483,150.635z"/>
<path display="none" d="M579.562,400l201.938-201.937c24.668-24.731,24.668-65.081,0-89.75l-89.874-89.75
	c-24.669-24.669-65.081-24.669-89.75,0L399.938,220.5L198.001,18.563c-24.669-24.669-65.081-24.669-89.75,0l-89.75,89.75
	c-24.669,24.669-24.669,65.019,0,89.75L220.439,400L18.502,601.999c-24.669,24.669-24.669,65.081,0,89.75l89.75,89.688
	c24.669,24.669,65.081,24.669,89.75,0l201.937-201.875l201.937,201.875c24.669,24.669,65.081,24.669,89.874,0l89.75-89.688
	c24.668-24.669,24.668-65.081,0-89.75L579.562,400z"/>
<path display="none" d="M575.001,700h-50V300h-100v400h-50V300h-100v400h-50V300h-100v475c0,13.77,11.255,25,25,25h500
	c13.77,0,25-11.23,25-25V300h-100V700z"/>
<path display="none" d="M725.001,100h-200V25c0-13.721-11.23-25-25-25h-200c-13.745,0-25,11.279-25,25v75h-200
	c-27.49,0-50,22.51-50,50v50c0,27.49,22.51,50,50,50h650c27.49,0,50-22.51,50-50v-50C775.001,122.51,752.491,100,725.001,100z
	 M325.001,100V50h150v50H325.001z"/>
<polygon display="none" points="387.794,31.238 500.001,318.787 800.001,318.787 542.97,489.368 650.001,768.762 387.794,602.063 
	148.146,768.762 232.716,489.368 0.001,318.787 300.001,318.787 "/>
<polygon display="none" points="0.001,275 100.001,725 700.001,725 800.001,275 "/>
<polygon display="none" points="750.001,175 300.001,175 200.001,75 50.001,75 50.001,225 750.001,225 "/>
<polygon display="none" points="600.001,275 500.001,275 500.001,25 300.001,25 300.001,275 200.001,275 400.001,475 "/>
<path display="none" d="M693.36,225h-43.359l74.316,200H550.001c0,82.861-67.09,150-150,150c-82.813,0-150-67.139-150-150H75.685
	l74.316-200h-43.359L0.001,475v300h800V475L693.36,225z"/>
<path display="none" d="M497.12,461.036l52.295,16.895c13.086,4.248,23.828-3.564,23.828-17.285l0.098-54.956
	c0-13.745,10.693-28.491,23.73-32.764l52.246-17.041c13.086-4.272,17.188-16.87,9.131-28.003l-32.227-44.482
	c-8.057-11.133-8.057-29.395,0-40.527l32.227-44.482c8.057-11.133,3.955-23.73-9.131-28.003l-52.246-17.041
	c-13.037-4.272-23.73-19.019-23.73-32.764l-0.098-54.956c0-13.721-10.742-21.484-23.828-17.285L497.12,65.235
	c-13.086,4.224-30.42-1.416-38.525-12.5l-32.3-44.385c-8.105-11.133-21.338-11.133-29.443,0l-32.373,44.385
	c-8.105,11.084-25.415,16.724-38.501,12.5L273.683,48.34c-13.086-4.199-23.804,3.564-23.804,17.285l-0.098,54.956
	c0,13.745-10.718,28.491-23.779,32.764l-52.246,17.041c-13.062,4.272-17.163,16.87-9.082,28.003L196.9,242.92
	c8.081,11.108,8.081,29.321,0,40.479l-32.227,44.482c-8.081,11.133-3.979,23.73,9.082,28.003l52.246,17.041
	c13.062,4.272,23.779,19.019,23.779,32.764l0.098,54.956c0,13.721,10.718,21.533,23.804,17.285l52.295-16.895
	c13.086-4.199,30.396,1.416,38.501,12.5l32.373,44.385c8.105,11.133,21.338,11.133,29.443,0l32.3-44.385
	C466.7,462.452,484.034,456.836,497.12,461.036z"/>
<path display="none" d="M313.185,562.11l-15.088-20.703l-24.414,7.91c-9.814,3.125-19.922,4.785-29.98,4.785
	c-42.578,0-77.148-28.271-87.988-67.529L0.001,650h150v150l195.166-209.863C332.862,583.448,321.925,574.122,313.185,562.11z"/>
<path display="none" d="M624.61,466.26c-2.832,49.609-41.699,87.842-91.309,87.842c-10.059,0-20.166-1.66-29.98-4.785l-24.414-7.91
	l-15.088,20.752c-5.322,7.275-11.621,13.33-18.408,18.701L650.001,800V650h150L624.61,466.26z"/>
<rect x="500.001" y="700" display="none" width="300" height="50"/>
<rect x="500.001" y="600" display="none" width="300" height="50"/>
<rect x="500.001" y="500" display="none" width="300" height="50"/>
<path display="none" d="M700.001,250c0-67.09-44.531-123.34-105.371-142.48l5.371-7.52V50h-600v50l250,350v300h100V450
	l79.59-111.426C456.935,375.635,500.489,400,550.001,400C632.716,400,700.001,332.715,700.001,250z M460.987,294.629
	l102.344-143.262c48.828,6.543,86.67,48.047,86.67,98.633c0,55.176-44.824,100-100,100C510.938,350,477.442,327.344,460.987,294.629
	z"/>
<polygon display="none" points="742.858,400 392.3,0 57.144,400 233.501,400 233.001,800 564.001,799.889 564.001,400 "/>
<path display="none" d="M401.668,426.667c28.438,0,51.667-23.958,51.667-53.333v-320c0-29.271-23.229-53.333-51.667-53.333
	c-28.437,0-51.666,24.063-51.666,53.333v320C350.002,402.709,373.231,426.667,401.668,426.667z"/>
<path display="none" d="M560.002,89.793v124.896c64.375,48.75,106.667,125.208,106.667,211.979
	c0,147.084-119.584,266.667-266.667,266.667c-146.979,0-266.667-119.583-266.667-266.667c0-89.896,45-169.166,113.333-217.5V86.564
	c-129.583,58.542-220,188.646-220,340.104c0,206.251,167.188,373.334,373.333,373.334c206.25,0,373.333-167.083,373.333-373.334
	C773.335,277.814,686.044,149.689,560.002,89.793z"/>
<rect x="3.263" y="396.677" display="none" width="50.412" height="50.413"/>
<path display="none" d="M787.313,183.753L429.109,4.652c-12.406-6.203-32.689-6.203-45.096,0L3.263,195.027v151.237h50.412V222.178
	L154.5,276.48v170.609h0.099c0,18.092,0.098,34.142,0.098,47.188c-0.098,0.394-0.098,0.837-0.197,1.23
	c0.099,0,0.099-0.049,0.197-0.049c0,12.947,0,22.794,0,27.225C154.697,650.289,305.934,800,406.759,800
	c100.824,0,252.062-149.711,252.062-277.316c0-35.348,1.182-179.668,0.591-246.646l128.295-69.046
	C799.915,200.394,799.719,189.957,787.313,183.753z M204.913,295.655c53.563-12.012,124.062-19.373,201.649-19.373
	c77.588,0,148.086,7.36,201.649,19.373v50.609c-53.465-12.086-123.864-19.569-201.649-19.569
	c-77.785,0-148.086,7.483-201.649,19.569V295.655z M608.703,463.212c-0.197,26.683-0.295,48.442-0.295,59.471
	c0,104.418-133.317,226.904-201.649,226.904c-68.333,0-201.649-122.486-201.649-226.904v-38.351
	c44.209-18.708,80.147-59.815,98.954-112.788c43.914,48.837,136.566,82.609,244.086,82.609c20.973,0,41.059-1.772,60.554-4.259
	C608.703,454.203,608.703,459.274,608.703,463.212z"/>
<path display="none" d="M330.943,497.477c-13.883,0-25.207,11.322-25.207,25.206c0,13.981,11.323,25.206,25.207,25.206
	c13.981,0,25.206-11.225,25.206-25.206C356.149,508.799,344.925,497.477,330.943,497.477z"/>
<path display="none" d="M482.18,497.477c-13.883,0-25.206,11.322-25.206,25.206c0,13.981,11.323,25.206,25.206,25.206
	c13.981,0,25.206-11.225,25.206-25.206C507.386,508.799,496.161,497.477,482.18,497.477z"/>
<path display="none" d="M792.617,685.164L653.057,545.603c35.372-55.162,56.15-120.589,56.15-190.987
	C709.207,158.756,550.451,0,354.616,0C158.756,0,0.001,158.756,0.001,354.616c0,195.835,158.755,354.591,354.615,354.591
	c70.398,0,135.825-20.778,190.987-56.15l139.511,139.561c9.845,9.845,25.973,9.845,35.817,0l71.686-71.636
	C802.462,711.086,802.462,694.958,792.617,685.164z M354.616,607.888c-139.659,0-253.297-113.638-253.297-253.272
	c0-139.659,113.638-253.297,253.297-253.297c139.635,0,253.272,113.638,253.272,253.297
	C607.889,494.25,494.251,607.888,354.616,607.888z"/>
<path display="none" d="M550.099,0H100.001v400h50V50h350v250h250v450h-350v50h400V249.854L550.099,0z M550.001,250V70.557
	L729.396,250H550.001z"/>
<polygon display="none" points="500.001,575 250.001,400 250.001,500 0.001,500 0.001,650 250.001,650 250.001,750 "/>
<path display="none" d="M403.469,224.5c-116.064,0-220.337,49.609-293.311,128.516L0.002,224.5v350h300l-90.674-105.762
	C267.604,382.02,366.066,324.5,478.493,324.5c153.613,0,282.031,106.738,315.82,250h5.664
	C775.368,377.235,607.399,224.5,403.469,224.5z"/>
<path display="none" d="M689.845,353.516C616.896,274.61,512.599,225,396.534,225C192.604,225,24.659,377.735,0.001,575h5.664
	c33.838-143.262,162.256-250,315.869-250c112.402,0,210.889,57.52,269.141,144.238L500.001,575h300V225L689.845,353.516z"/>
<path display="none" d="M585.353,0H200.001v150h-150v650h550V650h150V164.649L585.353,0z M600.001,85.352L664.649,150h-64.648
	V85.352z M550.001,750h-450V200h100v450h350V750z M700.001,600h-450V50h300v150h150V600z"/>
<path display="none" d="M700.001,250h-50v50c0,77.1-72.852,150-150,150H270.704l-70.703,70.703V550c0,50,50,100,100,100h250l150,150
	V650c50,0,100-50,100-100V350C800.001,300,750.001,250,700.001,250z"/>
<path display="none" d="M250.001,400h250c50,0,100-50,100-100V100c0-50-50-100-100-100h-400c-50,0-100,50-100,100v200
	c0,50,50,100,100,100v150L250.001,400z"/>
<polygon points="240.001,600 240.001,200 560.001,400 "/>
<polygon display="none" points="200.001,240 600.001,240 400.001,560 "/>
<polygon display="none" points="800.001,355.556 444.445,355.556 444.445,0 355.556,0 355.556,355.556 0,355.556 0,444.445 
	355.556,444.445 355.556,800 444.445,800 444.445,444.445 800.001,444.445 "/>
<path display="none" d="M700.001,400c0-19.141-2.002-37.793-5.42-56.006l105.42-93.506L667.188,100.879l-76.27,67.725
	c-26.758-22.119-57.568-39.307-90.918-51.123V0h-200v117.48c-33.35,11.816-64.16,29.004-90.918,51.123l-76.27-67.725L0.001,250.489
	l105.42,93.506c-3.418,18.213-5.42,36.865-5.42,56.006c0,19.189,2.002,37.891,5.42,56.055L0.001,549.61l132.813,149.512
	l76.27-67.676c26.758,22.07,57.568,39.355,90.918,51.172V800h200V682.618c33.35-11.816,64.16-29.102,90.918-51.172l76.27,67.676
	L800.001,549.61l-105.42-93.555C697.999,437.891,700.001,419.19,700.001,400z M400.001,550c-82.715,0-150-67.285-150-150
	s67.285-150,150-150s150,67.285,150,150S482.716,550,400.001,550z"/>
</svg>
