<svg id="datastore" xmlns="http://www.w3.org/2000/svg" viewBox="0 0 695.28 794.6"><defs><style>.cls-1{fill:#231f20;}</style></defs><title>datastore</title><path class="cls-1" d="M397.2,204c192,0,347.64-44.52,347.64-99.33S589.21,5.4,397.2,5.4,49.56,49.92,49.56,104.72,205.19,204,397.2,204Z" transform="translate(-49.56 -5.4)"/><path class="cls-1" d="M49.56,184.26V303.37c0,54.8,155.63,99.33,347.64,99.33s347.64-44.52,347.64-99.33V184.26C645.56,251,428.43,253.71,397.2,253.71S148.84,251,49.56,184.26Z" transform="translate(-49.56 -5.4)"/><path class="cls-1" d="M49.56,382.91V502c0,54.8,155.63,99.33,347.64,99.33S744.84,556.83,744.84,502V382.91c-99.28,66.73-316.41,69.45-347.64,69.45S148.84,449.65,49.56,382.91Z" transform="translate(-49.56 -5.4)"/><path class="cls-1" d="M49.56,581.56V700.67c0,54.8,155.63,99.33,347.64,99.33s347.64-44.52,347.64-99.33V581.56C645.56,648.3,428.43,651,397.2,651S148.84,648.3,49.56,581.56Z" transform="translate(-49.56 -5.4)"/></svg>