<?xml version="1.0" encoding="utf-8"?>
<!-- Generator: Adobe Illustrator 15.1.0, SVG Export Plug-In  -->
<!DOCTYPE svg PUBLIC "-//W3C//DTD SVG 1.1//EN" "http://www.w3.org/Graphics/SVG/1.1/DTD/svg11.dtd" [
	<!ENTITY ns_flows "http://ns.adobe.com/Flows/1.0/">
]>
<svg version="1.1"
	 xmlns="http://www.w3.org/2000/svg" xmlns:xlink="http://www.w3.org/1999/xlink" xmlns:a="http://ns.adobe.com/AdobeSVGViewerExtensions/3.0/"
	 x="0px" y="0px" width="800px" height="800px" viewBox="0.5 10 800 800" enable-background="new 0.5 10 800 800"
	 xml:space="preserve">
<defs>
</defs>
<polygon display="none" points="121.496,512.247 298.352,689.004 650.5,336.856 473.742,160 "/>
<path display="none" d="M785.852,130.704L679.797,24.649c-19.531-19.531-51.172-19.531-70.703,0l-70.801,70.703L715.148,272.11
	l70.703-70.703C805.383,181.875,805.383,150.235,785.852,130.704z"/>
<polygon display="none" points="0.5,810 230.285,756.973 53.43,580.215 "/>
<path display="none" d="M785.461,174.531l-72.588-72.638c-19.952-19.952-52.536-19.852-72.287,0.25L292.383,463.982L160.641,332.24
	c-19.952-19.952-52.637-19.952-72.588,0l-72.588,72.588c-19.952,19.952-19.952,52.637,0,72.588l131.742,131.742l108.882,108.882
	c19.952,19.952,52.637,19.952,72.588,0l108.882-108.882L785.762,247.37C805.514,227.268,805.413,194.483,785.461,174.531z"/>
<path display="none" fill-rule="evenodd" clip-rule="evenodd" d="M701.943,810.635H100.79c-27.543,0-39.135-19.728-25.76-43.749
	l201.808-362.601c5.331-9.57,14.283-17.97,24.335-25.194v-80.956c-27.543,0-50.095-19.729-50.095-43.751
	c0-24.118,22.552-43.748,50.095-43.748h200.384c27.546,0,50.101,19.63,50.101,43.748c0,24.021-22.555,43.751-50.101,43.751v80.956
	c10.055,7.224,19.01,15.624,24.341,25.194l201.806,362.601C741.083,790.908,729.488,810.635,701.943,810.635z M568.362,610.636
	H234.37l-55.646,100.002h445.285L568.362,610.636z M601.752,210.636c-27.687,0-50.095-22.367-50.095-50.001
	c0-27.64,22.408-50.001,50.095-50.001c27.688,0,50.096,22.361,50.096,50.001C651.848,188.27,629.439,210.636,601.752,210.636z
	 M426.414,160.635c-41.483,0-75.143-33.594-75.143-74.999c0-41.507,33.66-75.001,75.143-75.001
	c41.485,0,75.143,33.495,75.143,75.001C501.557,127.041,467.899,160.635,426.414,160.635z M200.982,160.635
	c-27.689,0-50.098-22.364-50.098-50.001c0-27.64,22.408-49.999,50.098-49.999c27.687,0,50.095,22.358,50.095,49.999
	C251.078,138.271,228.669,160.635,200.982,160.635z"/>
<path display="none" d="M580.061,410l201.938-201.937c24.668-24.731,24.668-65.081,0-89.75l-89.874-89.75
	c-24.669-24.669-65.081-24.669-89.75,0L400.438,230.5L198.5,28.563c-24.669-24.669-65.081-24.669-89.75,0l-89.75,89.75
	c-24.669,24.669-24.669,65.019,0,89.75L220.938,410L19.001,611.999c-24.669,24.669-24.669,65.081,0,89.75l89.75,89.688
	c24.669,24.669,65.081,24.669,89.75,0l201.937-201.875l201.937,201.875c24.669,24.669,65.081,24.669,89.874,0l89.75-89.688
	c24.668-24.669,24.668-65.081,0-89.75L580.061,410z"/>
<path d="M575.5,710h-50V310h-100v400h-50V310h-100v400h-50V310h-100v475c0,13.77,11.255,25,25,25h500c13.77,0,25-11.23,25-25V310
	h-100V710z"/>
<path d="M725.5,110h-200V35c0-13.721-11.23-25-25-25h-200c-13.745,0-25,11.279-25,25v75h-200c-27.49,0-50,22.51-50,50v50
	c0,27.49,22.51,50,50,50h650c27.49,0,50-22.51,50-50v-50C775.5,132.51,752.99,110,725.5,110z"/>
<polygon display="none" points="388.293,41.238 500.5,328.787 800.5,328.787 543.469,499.368 650.5,778.762 388.293,612.063 
	148.645,778.762 233.215,499.368 0.5,328.787 300.5,328.787 "/>
<polygon display="none" points="0.5,285 100.5,735 700.5,735 800.5,285 "/>
<polygon display="none" points="750.5,185 300.5,185 200.5,85 50.5,85 50.5,235 750.5,235 "/>
<polygon display="none" points="600.5,310 500.5,310 500.5,10 300.5,10 300.5,310 200.5,310 400.5,510 "/>
<path display="none" d="M693.859,260H650.5l74.316,200H550.5c0,82.861-67.09,150-150,150c-82.813,0-150-67.139-150-150H76.184
	L150.5,260h-43.359L0.5,510v300h800V510L693.859,260z"/>
<path display="none" d="M485.601,415.483l45.823,14.804c11.467,3.722,20.88-3.124,20.88-15.146l0.085-48.156
	c0-12.044,9.371-24.965,20.794-28.709l45.781-14.932c11.466-3.744,15.061-14.783,8.001-24.538l-28.238-38.977
	c-7.061-9.755-7.061-25.757,0-35.512l28.238-38.978c7.06-9.755,3.465-20.793-8.001-24.538l-45.781-14.932
	c-11.423-3.744-20.794-16.666-20.794-28.709l-0.085-48.155c0-12.023-9.413-18.826-20.88-15.146l-45.823,14.804
	c-11.466,3.701-26.656-1.241-33.758-10.953L423.54,18.817c-7.103-9.755-18.697-9.755-25.8,0l-28.367,38.892
	c-7.103,9.712-22.27,14.654-33.736,10.953l-45.823-14.804c-11.467-3.68-20.858,3.123-20.858,15.146l-0.085,48.155
	c0,12.044-9.392,24.966-20.836,28.709l-45.781,14.932c-11.445,3.744-15.04,14.783-7.958,24.538l28.238,39.021
	c7.081,9.734,7.081,25.693,0,35.47l-28.238,38.977c-7.082,9.755-3.487,20.794,7.958,24.538l45.781,14.932
	c11.445,3.744,20.836,16.665,20.836,28.709l0.085,48.156c0,12.021,9.392,18.867,20.858,15.146l45.823-14.804
	c11.466-3.68,26.634,1.24,33.736,10.953l28.367,38.892c7.103,9.755,18.697,9.755,25.8,0l28.303-38.892
	C458.944,416.723,474.135,411.803,485.601,415.483z"/>
<path display="none" d="M324.427,504.048l-13.221-18.141l-21.393,6.932c-8.6,2.738-17.457,4.192-26.271,4.192
	c-37.309,0-67.601-24.772-77.099-59.172L0,631.063h131.438V762.5l221.015-233.894C341.67,522.747,332.086,514.574,324.427,504.048z"
	/>
<path display="none" d="M597.313,420.061c-2.481,43.47-36.538,76.971-80.008,76.971c-8.814,0-17.671-1.454-26.271-4.192
	l-21.393-6.932l-13.221,18.185c-4.664,6.374-10.183,11.681-16.13,16.386L669.563,762.5V631.063H801L597.313,420.061z"/>
<path display="none" d="M800.5,238.572c0-76.674-50.893-140.959-120.424-162.834l6.138-8.594V10H0.5v57.143l285.714,400V810H400.5
	V467.143L491.46,339.8C522.71,382.154,572.486,410,629.071,410C723.603,410,800.5,333.103,800.5,238.572z M527.342,289.576
	l116.964-163.728c55.804,7.478,99.052,54.911,99.052,112.723c0,63.058-51.228,114.286-114.286,114.286
	C584.429,352.857,546.147,326.965,527.342,289.576z"/>
<polygon display="none" points="743.357,410 392.799,10 57.643,410 234,410 233.5,810 564.5,809.889 564.5,410 "/>
<path display="none" d="M402.167,486.667c28.438,0,51.667-23.958,51.667-53.333v-370c0-29.271-23.229-53.333-51.667-53.333
	c-28.437,0-51.666,24.063-51.666,53.333v370C350.501,462.709,373.73,486.667,402.167,486.667z"/>
<path display="none" d="M560.501,99.793v124.896c64.375,48.75,106.667,125.208,106.667,211.979
	c0,147.084-119.584,266.667-266.667,266.667c-146.979,0-266.667-119.583-266.667-266.667c0-89.896,45-169.166,113.333-217.5V96.564
	c-129.583,58.542-220,188.646-220,340.104c0,206.251,167.188,373.334,373.333,373.334c206.25,0,373.333-167.083,373.333-373.334
	C773.834,287.814,686.543,159.689,560.501,99.793z"/>
<rect x="23.762" y="356.677" display="none" width="50.412" height="50.413"/>
<path display="none" d="M767.812,183.753L429.608,4.652c-12.406-6.203-32.689-6.203-45.096,0L23.762,195.027v121.237h50.412v-94.086
	l80.825,54.302v160.609l0.099,10c0,18.092,0.098,34.142,0.098,47.188c-0.098,0.394-0.098,0.837-0.197,1.23
	c0.099,0,0.099-0.049,0.197-0.049c0,12.947,0,22.794,0,27.225C155.196,650.289,306.433,800,407.258,800
	c100.824,0,252.062-149.711,252.062-277.316c0-55.348,1.006-179.666,0.591-226.646l108.295-89.046
	C780.414,200.394,780.218,189.957,767.812,183.753z M205.412,275.655c53.563-12.012,124.062-19.373,201.649-19.373
	c77.588,0,148.086,7.36,201.649,19.373v50.609c-53.465-12.086-123.864-19.569-201.649-19.569
	c-77.785,0-148.086,7.483-201.649,19.569V275.655z M609.202,463.212c-0.197,26.683-0.295,48.442-0.295,59.471
	c0,104.418-133.317,226.904-201.649,226.904c-68.333,0-201.649-122.486-201.649-226.904v-38.351
	c44.209-18.708,80.147-49.815,98.954-102.788c43.914,48.837,136.566,72.609,244.086,72.609c20.973,0,41.059-1.772,60.554-4.259
	C609.202,454.203,609.202,459.274,609.202,463.212z"/>
<path display="none" d="M331.442,502.683c-16.523,0-30,13.476-30,30c0,16.641,13.477,30,30,30c16.641,0,30-13.359,30-30
	C361.442,516.159,348.083,502.683,331.442,502.683z"/>
<path display="none" d="M482.679,502.683c-16.523,0-30,13.476-30,30c0,16.641,13.477,30,30,30c16.641,0,30-13.359,30-30
	C512.679,516.159,499.319,502.683,482.679,502.683z"/>
<path display="none" d="M755.513,670.587l-162.64-162.64c31.082-48.472,49.343-105.967,49.343-167.829
	c0-172.113-139.507-311.618-311.598-311.618C158.505,28.5,19,168.006,19,340.119c0,172.091,139.505,311.598,311.618,311.598
	c61.862,0,119.357-18.261,167.829-49.343l162.597,162.64c8.651,8.649,22.822,8.649,31.475,0l62.994-62.95
	C764.162,693.367,764.162,679.196,755.513,670.587z M330.618,562.681c-122.726,0-222.585-99.857-222.585-222.563
	c0-122.726,99.859-222.585,222.585-222.585c122.705,0,222.563,99.859,222.563,222.585
	C553.181,462.824,453.323,562.681,330.618,562.681z"/>
<path display="none" d="M550.598,10H150.5v400h50V60h300v250h250v450h-350v50h400V259.854L550.598,10z M550.5,260V80.557
	L729.895,260H550.5z"/>
<polygon display="none" points="500.5,585 250.5,410 250.5,510 0.5,510 0.5,660 250.5,660 250.5,760 "/>
<path display="none" d="M403.968,234.5c-116.064,0-220.337,49.609-293.311,128.516L0.501,234.5v360h310L209.827,478.739
	C268.104,392.02,366.565,334.5,478.992,334.5c153.613,0,282.031,106.738,315.82,250h5.664
	C775.867,387.235,607.898,234.5,403.968,234.5z"/>
<path display="none" d="M690.344,363.516C617.395,284.61,513.098,235,397.033,235C193.103,235,25.158,387.735,0.5,585h5.664
	C40.002,441.739,168.42,335,322.033,335c112.402,0,210.889,57.52,269.141,144.238L490.5,595h310V235L690.344,363.516z"/>
<path display="none" d="M585.852,10H220.5v150h-170v650h550V660h150V174.649L585.852,10z M600.5,95.352L665.148,160H600.5V95.352z
	 M550.5,760h-450V210h120v450h330V760z M700.5,610h-430V60h280v150h150V610z"/>
<path display="none" d="M700.5,260h-50v50c0,77.1-72.852,150-150,150H271.203L189.5,530.704V560c0,50,61,100,111,100h250l170,150
	V660c50,0,80-50,80-100V360C800.5,310,750.5,260,700.5,260z"/>
<path display="none" d="M250.5,410h250c50,0,100-50,100-100V110c0-50-50-100-100-100h-400c-50,0-100,50-100,100v200
	c0,50,29,100,79,100v150L250.5,410z"/>
<polygon display="none" points="240.5,610 240.5,210 560.5,410 "/>
<polygon display="none" points="200.5,250 600.5,250 400.5,570 "/>
<polygon display="none" points="600.5,387.778 422.722,387.778 422.722,210 378.277,210 378.277,387.778 200.5,387.778 
	200.5,432.222 378.277,432.222 378.277,610 422.722,610 422.722,432.222 600.5,432.222 "/>
<path display="none" d="M700.5,410c0-19.141-2.002-37.793-5.42-56.006l105.42-93.506L667.688,110.879l-76.27,67.725
	c-26.758-22.119-57.568-39.307-90.918-51.123V10h-200v117.48c-33.35,11.816-64.16,29.004-90.918,51.123l-76.27-67.725L0.5,260.489
	l105.42,93.506c-3.418,18.213-5.42,36.865-5.42,56.006c0,19.189,2.002,37.891,5.42,56.055L0.5,559.61l132.813,149.512l76.27-67.676
	c26.758,22.07,57.568,39.355,90.918,51.172V810h200V692.618c33.35-11.816,64.16-29.102,90.918-51.172l76.27,67.676L800.5,559.61
	l-105.42-93.555C698.498,447.891,700.5,429.19,700.5,410z M400.5,560c-82.715,0-150-67.285-150-150s67.285-150,150-150
	s150,67.285,150,150S483.215,560,400.5,560z"/>
<path display="none" d="M400.5,110c-165.655,0-300,134.283-300,300c0,165.718,134.345,300,300,300c165.677,0,300-134.282,300-300
	C700.5,244.284,566.177,110,400.5,110z M400.5,664.3c-140.233,0-254.299-114.046-254.299-254.3
	c0-140.171,114.065-254.299,254.299-254.299c140.254,0,254.3,114.128,254.3,254.299C654.8,550.254,540.754,664.3,400.5,664.3z"/>
<polygon display="none" points="440.229,280.529 355.297,280.529 355.297,365.461 270.365,365.461 270.365,450.393 355.297,450.393 
	355.297,535.325 440.229,535.325 440.229,450.393 525.161,450.393 525.161,365.461 440.229,365.461 "/>
</svg>
