<?xml version="1.0" encoding="utf-8"?>
<!-- Generator: Adobe Illustrator 15.1.0, SVG Export Plug-In  -->
<!DOCTYPE svg PUBLIC "-//W3C//DTD SVG 1.1//EN" "http://www.w3.org/Graphics/SVG/1.1/DTD/svg11.dtd" [
	<!ENTITY ns_flows "http://ns.adobe.com/Flows/1.0/">
]>
<svg version="1.1"
	 xmlns="http://www.w3.org/2000/svg" xmlns:xlink="http://www.w3.org/1999/xlink" xmlns:a="http://ns.adobe.com/AdobeSVGViewerExtensions/3.0/"
	 x="0px" y="0px" width="800px" height="800px" viewBox="0.001 10 800 800" enable-background="new 0.001 10 800 800"
	 xml:space="preserve">
<defs>
</defs>
<polygon display="none" points="120.997,512.247 297.853,689.004 650.001,336.856 473.243,160 "/>
<path display="none" d="M785.353,130.704L679.298,24.649c-19.531-19.531-51.172-19.531-70.703,0l-70.801,70.703L714.649,272.11
	l70.703-70.703C804.884,181.875,804.884,150.235,785.353,130.704z"/>
<polygon display="none" points="0.001,810 229.786,756.973 52.931,580.215 "/>
<path display="none" d="M784.962,174.531l-72.588-72.638c-19.952-19.952-52.536-19.852-72.287,0.25L291.884,463.982L160.142,332.24
	c-19.952-19.952-52.637-19.952-72.588,0l-72.588,72.588c-19.952,19.952-19.952,52.637,0,72.588l131.742,131.742l108.882,108.882
	c19.952,19.952,52.637,19.952,72.588,0L437.06,609.159L785.263,247.37C805.015,227.268,804.914,194.483,784.962,174.531z"/>
<path display="none" fill-rule="evenodd" clip-rule="evenodd" d="M701.444,810.635H100.291c-27.543,0-39.135-19.728-25.76-43.749
	l201.808-362.601c5.331-9.57,14.283-17.97,24.335-25.194v-80.956c-27.543,0-50.095-19.729-50.095-43.751
	c0-24.118,22.552-43.748,50.095-43.748h200.384c27.546,0,50.101,19.63,50.101,43.748c0,24.021-22.555,43.751-50.101,43.751v80.956
	c10.055,7.224,19.01,15.624,24.341,25.194l201.806,362.601C740.584,790.908,728.989,810.635,701.444,810.635z M567.863,610.636
	H233.871l-55.646,100.002H623.51L567.863,610.636z M601.253,210.636c-27.687,0-50.095-22.367-50.095-50.001
	c0-27.64,22.408-50.001,50.095-50.001c27.688,0,50.096,22.361,50.096,50.001C651.349,188.27,628.94,210.636,601.253,210.636z
	 M425.915,160.635c-41.483,0-75.143-33.594-75.143-74.999c0-41.507,33.66-75.001,75.143-75.001
	c41.485,0,75.143,33.495,75.143,75.001C501.058,127.041,467.4,160.635,425.915,160.635z M200.483,160.635
	c-27.689,0-50.098-22.364-50.098-50.001c0-27.64,22.408-49.999,50.098-49.999c27.687,0,50.095,22.358,50.095,49.999
	C250.579,138.271,228.17,160.635,200.483,160.635z"/>
<path display="none" d="M579.562,410l201.938-201.937c24.668-24.731,24.668-65.081,0-89.75l-89.874-89.75
	c-24.669-24.669-65.081-24.669-89.75,0L399.938,230.5L198.001,28.563c-24.669-24.669-65.081-24.669-89.75,0l-89.75,89.75
	c-24.669,24.669-24.669,65.019,0,89.75L220.439,410L18.502,611.999c-24.669,24.669-24.669,65.081,0,89.75l89.75,89.688
	c24.669,24.669,65.081,24.669,89.75,0l201.937-201.875l201.937,201.875c24.669,24.669,65.081,24.669,89.874,0l89.75-89.688
	c24.668-24.669,24.668-65.081,0-89.75L579.562,410z"/>
<path display="none" d="M575.001,710h-50V310h-100v400h-50V310h-100v400h-50V310h-100v475c0,13.77,11.255,25,25,25h500
	c13.77,0,25-11.23,25-25V310h-100V710z"/>
<path display="none" d="M725.001,110h-200V35c0-13.721-11.23-25-25-25h-200c-13.745,0-25,11.279-25,25v75h-200
	c-27.49,0-50,22.51-50,50v50c0,27.49,22.51,50,50,50h650c27.49,0,50-22.51,50-50v-50C775.001,132.51,752.491,110,725.001,110z
	 M325.001,110V60h150v50H325.001z"/>
<polygon display="none" points="387.794,41.238 500.001,328.787 800.001,328.787 542.97,499.368 650.001,778.762 387.794,612.063 
	148.146,778.762 232.716,499.368 0.001,328.787 300.001,328.787 "/>
<polygon display="none" points="0.001,285 100.001,735 700.001,735 800.001,285 "/>
<polygon display="none" points="750.001,185 300.001,185 200.001,85 50.001,85 50.001,235 750.001,235 "/>
<polygon display="none" points="600.001,285 500.001,285 500.001,35 300.001,35 300.001,285 200.001,285 400.001,485 "/>
<path display="none" d="M693.36,235h-43.359l74.316,200H550.001c0,82.861-67.09,150-150,150c-82.813,0-150-67.139-150-150H75.685
	l74.316-200h-43.359L0.001,485v300h800V485L693.36,235z"/>
<path display="none" d="M497.12,471.036l52.295,16.895c13.086,4.248,23.828-3.564,23.828-17.285l0.098-54.956
	c0-13.745,10.693-28.491,23.73-32.764l52.246-17.041c13.086-4.272,17.188-16.87,9.131-28.003l-32.227-44.482
	c-8.057-11.133-8.057-29.395,0-40.527l32.227-44.482c8.057-11.133,3.955-23.73-9.131-28.003l-52.246-17.041
	c-13.037-4.272-23.73-19.019-23.73-32.764l-0.098-54.956c0-13.721-10.742-21.484-23.828-17.285L497.12,75.235
	c-13.086,4.224-30.42-1.416-38.525-12.5l-32.3-44.385c-8.105-11.133-21.338-11.133-29.443,0l-32.373,44.385
	c-8.105,11.084-25.415,16.724-38.501,12.5L273.683,58.34c-13.086-4.199-23.804,3.564-23.804,17.285l-0.098,54.956
	c0,13.745-10.718,28.491-23.779,32.764l-52.246,17.041c-13.062,4.272-17.163,16.87-9.082,28.003L196.9,252.92
	c8.081,11.108,8.081,29.321,0,40.479l-32.227,44.482c-8.081,11.133-3.979,23.73,9.082,28.003l52.246,17.041
	c13.062,4.272,23.779,19.019,23.779,32.764l0.098,54.956c0,13.721,10.718,21.533,23.804,17.285l52.295-16.895
	c13.086-4.199,30.396,1.416,38.501,12.5l32.373,44.385c8.105,11.133,21.338,11.133,29.443,0l32.3-44.385
	C466.7,472.452,484.034,466.836,497.12,471.036z"/>
<path display="none" d="M313.185,572.11l-15.088-20.703l-24.414,7.91c-9.814,3.125-19.922,4.785-29.98,4.785
	c-42.578,0-77.148-28.271-87.988-67.529L0.001,660h150v150l195.166-209.863C332.862,593.448,321.925,584.122,313.185,572.11z"/>
<path display="none" d="M624.61,476.26c-2.832,49.609-41.699,87.842-91.309,87.842c-10.059,0-20.166-1.66-29.98-4.785l-24.414-7.91
	l-15.088,20.752c-5.322,7.275-11.621,13.33-18.408,18.701L650.001,810V660h150L624.61,476.26z"/>
<path d="M800.001,238.572c0-76.674-50.893-140.959-120.424-162.834l6.138-8.594V10H0.001v57.143l285.714,400V810h114.286V467.143
	l90.96-127.343C522.211,382.154,571.987,410,628.572,410C723.104,410,800.001,333.103,800.001,238.572z M526.843,289.576
	l116.964-163.728c55.804,7.478,99.052,54.911,99.052,112.723c0,63.058-51.228,114.286-114.286,114.286
	C583.93,352.857,545.648,326.965,526.843,289.576z"/>
<polygon display="none" points="742.858,410 392.3,10 57.144,410 233.501,410 233.001,810 564.001,809.889 564.001,410 "/>
<path display="none" d="M401.668,486.667c28.438,0,51.667-23.958,51.667-53.333v-370c0-29.271-23.229-53.333-51.667-53.333
	c-28.437,0-51.666,24.063-51.666,53.333v370C350.002,462.709,373.231,486.667,401.668,486.667z"/>
<path display="none" d="M560.002,99.793v124.896c64.375,48.75,106.667,125.208,106.667,211.979
	c0,147.084-119.584,266.667-266.667,266.667c-146.979,0-266.667-119.583-266.667-266.667c0-89.896,45-169.166,113.333-217.5V96.564
	c-129.583,58.542-220,188.646-220,340.104c0,206.251,167.188,373.334,373.333,373.334c206.25,0,373.333-167.083,373.333-373.334
	C773.335,287.814,686.044,159.689,560.002,99.793z"/>
<rect x="23.263" y="356.677" display="none" width="50.412" height="50.413"/>
<path display="none" d="M767.313,183.753L429.109,4.652c-12.406-6.203-32.689-6.203-45.096,0L23.263,195.027v121.237h50.412v-94.086
	L154.5,276.48v160.609l0.099,10c0,18.092,0.098,34.142,0.098,47.188c-0.098,0.394-0.098,0.837-0.197,1.23
	c0.099,0,0.099-0.049,0.197-0.049c0,12.947,0,22.794,0,27.225C154.697,650.289,305.934,800,406.759,800
	c100.824,0,252.062-149.711,252.062-277.316c0-55.348,1.006-179.666,0.591-226.646l108.295-89.046
	C779.915,200.394,779.719,189.957,767.313,183.753z M204.913,275.655c53.563-12.012,124.062-19.373,201.649-19.373
	c77.588,0,148.086,7.36,201.649,19.373v50.609c-53.465-12.086-123.864-19.569-201.649-19.569
	c-77.785,0-148.086,7.483-201.649,19.569V275.655z M608.703,463.212c-0.197,26.683-0.295,48.442-0.295,59.471
	c0,104.418-133.317,226.904-201.649,226.904c-68.333,0-201.649-122.486-201.649-226.904v-38.351
	c44.209-18.708,80.147-49.815,98.954-102.788c43.914,48.837,136.566,72.609,244.086,72.609c20.973,0,41.059-1.772,60.554-4.259
	C608.703,454.203,608.703,459.274,608.703,463.212z"/>
<path display="none" d="M330.943,502.683c-16.523,0-30,13.476-30,30c0,16.641,13.477,30,30,30c16.641,0,30-13.359,30-30
	C360.943,516.159,347.584,502.683,330.943,502.683z"/>
<path display="none" d="M482.18,502.683c-16.523,0-30,13.476-30,30c0,16.641,13.477,30,30,30c16.641,0,30-13.359,30-30
	C512.18,516.159,498.82,502.683,482.18,502.683z"/>
<path display="none" d="M755.014,670.587l-162.64-162.64c31.082-48.472,49.343-105.967,49.343-167.829
	C641.717,168.006,502.21,28.5,330.119,28.5c-172.113,0-311.618,139.505-311.618,311.618c0,172.091,139.505,311.598,311.618,311.598
	c61.862,0,119.357-18.261,167.829-49.343l162.597,162.64c8.651,8.649,22.822,8.649,31.475,0l62.994-62.95
	C763.663,693.367,763.663,679.196,755.014,670.587z M330.119,562.681c-122.726,0-222.585-99.857-222.585-222.563
	c0-122.726,99.859-222.585,222.585-222.585c122.705,0,222.563,99.859,222.563,222.585
	C552.682,462.824,452.824,562.681,330.119,562.681z"/>
<path display="none" d="M550.099,10H150.001v400h50V60h300v250h250v450h-350v50h400V259.854L550.099,10z M550.001,260V80.557
	L729.396,260H550.001z"/>
<polygon display="none" points="500.001,585 250.001,410 250.001,510 0.001,510 0.001,660 250.001,660 250.001,760 "/>
<path display="none" d="M403.469,234.5c-116.064,0-220.337,49.609-293.311,128.516L0.002,234.5v360h310L209.328,478.739
	C267.604,392.02,366.066,334.5,478.493,334.5c153.613,0,282.031,106.738,315.82,250h5.664
	C775.368,387.235,607.399,234.5,403.469,234.5z"/>
<path display="none" d="M689.845,363.516C616.896,284.61,512.599,235,396.534,235C192.604,235,24.659,387.735,0.001,585h5.664
	c33.838-143.262,162.256-250,315.869-250c112.402,0,210.889,57.52,269.141,144.238L490.001,595h310V235L689.845,363.516z"/>
<path display="none" d="M585.353,10H220.001v150h-170v650h550V660h150V174.649L585.353,10z M600.001,95.352L664.649,160h-64.648
	V95.352z M550.001,760h-450V210h120v450h330V760z M700.001,610h-430V60h280v150h150V610z"/>
<path display="none" d="M700.001,260h-50v50c0,77.1-72.852,150-150,150H270.704l-81.703,70.703V560c0,50,61,100,111,100h250l170,150
	V660c50,0,80-50,80-100V360C800.001,310,750.001,260,700.001,260z"/>
<path display="none" d="M250.001,410h250c50,0,100-50,100-100V110c0-50-50-100-100-100h-400c-50,0-100,50-100,100v200
	c0,50,29,100,79,100v150L250.001,410z"/>
<polygon display="none" points="240.001,610 240.001,210 560.001,410 "/>
<polygon display="none" points="200.001,250 600.001,250 400.001,570 "/>
<polygon display="none" points="600.001,387.778 422.223,387.778 422.223,210 377.778,210 377.778,387.778 200.001,387.778 
	200.001,432.222 377.778,432.222 377.778,610 422.223,610 422.223,432.222 600.001,432.222 "/>
<path display="none" d="M700.001,410c0-19.141-2.002-37.793-5.42-56.006l105.42-93.506L667.188,110.879l-76.27,67.725
	c-26.758-22.119-57.568-39.307-90.918-51.123V10h-200v117.48c-33.35,11.816-64.16,29.004-90.918,51.123l-76.27-67.725L0.001,260.489
	l105.42,93.506c-3.418,18.213-5.42,36.865-5.42,56.006c0,19.189,2.002,37.891,5.42,56.055L0.001,559.61l132.813,149.512
	l76.27-67.676c26.758,22.07,57.568,39.355,90.918,51.172V810h200V692.618c33.35-11.816,64.16-29.102,90.918-51.172l76.27,67.676
	L800.001,559.61l-105.42-93.555C697.999,447.891,700.001,429.19,700.001,410z M400.001,560c-82.715,0-150-67.285-150-150
	s67.285-150,150-150s150,67.285,150,150S482.716,560,400.001,560z"/>
<path display="none" d="M400.001,210c-110.437,0-200,89.522-200,200c0,110.479,89.563,200,200,200c110.451,0,200-89.521,200-200
	C600.001,299.522,510.452,210,400.001,210z M400.001,579.534c-93.489,0-169.533-76.03-169.533-169.533
	c0-93.447,76.044-169.533,169.533-169.533c93.503,0,169.533,76.085,169.533,169.533
	C569.534,503.503,493.504,579.534,400.001,579.534z"/>
<polygon display="none" points="426.487,323.686 369.866,323.686 369.866,380.308 313.244,380.308 313.244,436.929 369.866,436.929 
	369.866,493.55 426.487,493.55 426.487,436.929 483.108,436.929 483.108,380.308 426.487,380.308 "/>
</svg>
