<?xml version="1.0" encoding="utf-8"?>
<!-- Generator: Adobe Illustrator 19.2.1, SVG Export Plug-In . SVG Version: 6.00 Build 0)  -->
<svg version="1.1" xmlns="http://www.w3.org/2000/svg" xmlns:xlink="http://www.w3.org/1999/xlink" x="0px" y="0px"
	 viewBox="0 0 800 800" enable-background="new 0 0 800 800" xml:space="preserve">
<g id="edit" display="none">
	<polygon display="inline" points="120.996,502.246 297.852,679.004 610,366.855 433.242,190 	"/>
	<path display="inline" d="M775.352,140.703L669.297,34.648C646,14,638.125-4.883,618.594,14.648L507.793,125.352l176.855,176.758
		l110.703-110.703C814.883,171.875,775.352,140.703,775.352,140.703z"/>
	<polygon display="inline" points="0,800 229.785,746.973 52.93,570.215 	"/>
</g>
<g id="check" display="none">
	<path display="inline" d="M784.961,164.531l-72.588-72.638c-19.952-19.952-52.536-19.852-72.287,0.25L291.883,453.981
		L160.141,322.24c-19.952-19.952-52.637-19.952-72.588,0l-72.588,72.588c-19.952,19.952-19.952,52.637,0,72.588l131.742,131.742
		L255.588,708.04c19.952,19.952,52.637,19.952,72.588,0l108.882-108.882L785.262,237.37
		C805.014,217.268,804.913,184.482,784.961,164.531z"/>
</g>
<g id="dataprep-new" display="none">
	<path display="inline" fill-rule="evenodd" clip-rule="evenodd" d="M721.443,800.635H80.29c-27.543,0-35.23-11.863-35.76-43.749
		c0-113.886,221.808-362.601,221.808-362.601c15.331-9.57,24.283-17.97,34.335-25.194V268.135
		c-27.543,0-50.095-19.729-50.095-43.751c0-24.118,22.552-43.748,50.095-43.748h200.384c27.546,0,50.101,19.63,50.101,43.748
		c0,24.021-22.555,43.751-50.101,43.751V369.09c10.055,7.224,19.01,15.624,34.341,25.194c0,0,221.806,253.715,221.806,362.601
		C760,782,748.988,800.635,721.443,800.635z M567.862,600.636H233.87c0,0-87.422,84.64-65.646,100.002c25.776,0,437.776,0,465.285,0
		C649,682,567.862,600.636,567.862,600.636z M621.252,170.636c-27.687,0-50.095-22.367-50.095-50.001
		c0-27.64,22.408-50.001,50.095-50.001c27.687,0,50.096,22.361,50.096,50.001C671.348,148.269,648.939,170.636,621.252,170.636z
		 M355.914,150.635c-41.483,0-75.143-33.594-75.143-74.999c0-41.507,33.66-75.001,75.143-75.001
		c41.485,0,75.142,33.495,75.142,75.001C431.057,117.04,397.399,150.635,355.914,150.635z M190.482,190.635
		c-27.689,0-50.098-22.364-50.098-50.001c0-27.64,22.408-49.999,50.098-49.999c27.687,0,50.095,22.358,50.095,49.999
		C240.578,168.271,218.169,190.635,190.482,190.635z"/>
</g>
<g id="dataprep-old" display="none">
	<g display="inline">
		<path d="M375.004,149.999c41.406,0,75.001-33.594,75.001-75c0-41.504-33.595-75-75.001-75c-41.406,0-75,33.496-75,75
			C300.004,116.406,333.598,149.999,375.004,149.999z"/>
		<path d="M200.004,199.999c27.637,0,50-22.363,50-50s-22.363-50-50-50s-50,22.363-50,50S172.368,199.999,200.004,199.999z"/>
		<path d="M600.004,159.999c27.637,0,50-22.363,50-50s-22.363-50-50-50c-27.637,0-50,22.363-50,50S572.367,159.999,600.004,159.999z
			"/>
		<path d="M725.688,756.25L524.32,393.652c-5.37-9.57-14.258-17.969-24.315-25.195V287.5c27.49,0,49.999-19.727,49.999-43.75
			c0-24.121-22.509-43.75-49.999-43.75h-200c-27.49,0-50,19.629-50,43.75c0,24.023,22.51,43.75,50,43.75v80.957
			c-10.034,7.227-18.97,15.625-24.292,25.195L74.296,756.25C60.942,780.273,72.514,800,100.004,800h600
			C727.494,800,739.066,780.273,725.688,756.25z M177.788,700l55.542-100.001h333.375L622.221,700H177.788z"/>
	</g>
</g>
<g id="cancel" display="none">
	<path display="inline" d="M579.56,399.999l201.938-201.936c24.668-24.731,24.668-65.081,0-89.75l-89.874-89.749
		c-24.669-24.669-65.081-24.669-89.75,0L399.938,220.5L198,18.563c-24.669-24.669-65.081-24.669-89.75,0l-89.749,89.749
		c-24.669,24.669-24.669,65.019,0,89.75l201.937,201.936L18.501,601.998c-24.669,24.669-24.669,65.081,0,89.75l89.749,89.688
		c24.669,24.669,65.081,24.669,89.75,0L399.938,579.56l201.937,201.875c24.669,24.669,65.081,24.669,89.874,0l89.75-89.688
		c24.668-24.669,24.668-65.081,0-89.75L579.56,399.999z"/>
</g>
<g id="delete" display="none">
	<g display="inline">
		<path d="M575,700h-50V300H425v400h-50V300H275v400h-50V300H125v475c0,13.769,11.255,25,25,25h500c13.769,0,25-11.231,25-25V300
			H575V700z"/>
		<path d="M725,100H525V25c0-13.721-11.231-25-25-25H300c-13.745,0-25,11.279-25,25v75H75c-27.49,0-50,22.51-50,50v50
			c0,27.49,22.51,50,50,50h650c27.49,0,50-22.51,50-50v-50C775,122.51,752.49,100,725,100z"/>
	</g>
</g>
<g id="favorite" display="none">
	<polygon display="inline" points="387.793,31.237 500,318.786 800,318.786 542.969,489.367 650,768.762 387.793,602.063 
		148.145,768.762 232.715,489.367 0,318.786 300,318.786 	"/>
</g>
<g id="folder" display="none">
	<g display="inline">
		<polygon points="0,275 100,725 700,725 800,275 		"/>
		<polygon points="750,175 300,175 200,75 50,75 50,225 750,225 		"/>
	</g>
</g>
<g id="add_x5F_dataset" display="none">
	<g display="inline">
		<polygon points="600,300 500,300 500,0 300,0 300,300 200,300 400,500 		"/>
		<path d="M693.359,250H650l74.316,200H550c0,82.861-67.09,150-150,150c-82.813,0-150-67.139-150-150H75.684L150,250h-43.359L0,500
			v300h800V500L693.359,250z"/>
	</g>
</g>
<g id="badge" display="none">
	<g display="inline">
		<path d="M485.101,405.482l45.823,14.804c11.467,3.722,20.88-3.124,20.88-15.146l0.085-48.156c0-12.044,9.371-24.965,20.794-28.709
			l45.781-14.932c11.466-3.744,15.061-14.783,8.001-24.538l-28.238-38.977c-7.061-9.755-7.061-25.757,0-35.512l28.238-38.978
			c7.06-9.755,3.465-20.794-8.001-24.538l-45.781-14.932c-11.423-3.744-20.794-16.666-20.794-28.709l-0.085-48.155
			c0-12.023-9.413-18.826-20.88-15.146l-45.823,14.804c-11.466,3.701-26.656-1.241-33.758-10.953L423.04,8.816
			c-7.103-9.755-18.697-9.755-25.8,0l-28.367,38.892c-7.103,9.712-22.27,14.654-33.736,10.953l-45.823-14.804
			c-11.467-3.68-20.858,3.123-20.858,15.146l-0.086,48.155c0,12.044-9.392,24.966-20.836,28.709L201.753,150.8
			c-11.445,3.744-15.04,14.783-7.958,24.538l28.238,39.02c7.081,9.734,7.081,25.693,0,35.47l-28.238,38.977
			c-7.081,9.755-3.487,20.794,7.958,24.538l45.781,14.932c11.445,3.744,20.836,16.665,20.836,28.709l0.086,48.156
			c0,12.022,9.392,18.867,20.858,15.146l45.823-14.804c11.466-3.68,26.634,1.24,33.736,10.953l28.367,38.892
			c7.103,9.755,18.697,9.755,25.8,0l28.303-38.892C458.444,406.723,473.635,401.803,485.101,405.482z"/>
		<path d="M323.927,494.048l-13.221-18.141l-21.392,6.932c-8.6,2.738-17.457,4.192-26.271,4.192
			c-37.309,0-67.601-24.773-77.099-59.172L-0.5,621.063h131.438V752.5l221.015-233.894
			C341.17,512.746,331.586,504.573,323.927,494.048z"/>
		<path d="M596.813,410.06c-2.482,43.47-36.538,76.971-80.008,76.971c-8.814,0-17.671-1.454-26.271-4.192l-21.393-6.932
			l-13.221,18.185c-4.664,6.374-10.183,11.681-16.13,16.386L669.063,752.5V621.063H800.5L596.813,410.06z"/>
	</g>
</g>
<g id="filter" display="none">
	<g display="inline">
		<path d="M800,228.571c0-76.674-50.893-140.96-120.424-162.835l6.138-8.594V0H0v57.143l285.714,400V800H400V457.143l90.96-127.343
			C522.21,372.154,571.986,400,628.571,400C723.102,400,800,323.103,800,228.571z M526.842,279.576l116.964-163.728
			c55.804,7.478,99.052,54.911,99.052,112.723c0,63.058-51.227,114.286-114.286,114.286
			C583.929,342.857,545.647,316.964,526.842,279.576z"/>
	</g>
</g>
<g id="arrow_x5F_up" display="none">
	<polygon display="inline" points="742.857,400 392.299,0 57.143,400 233.5,400 233,800 564,799.889 564,400 	"/>
</g>
<g id="close_x5F_filter" display="none">
	<g display="inline">
		<path d="M401.667,476.667c28.438,0,51.667-23.958,51.667-53.333v-370c0-29.271-23.23-53.333-51.667-53.333
			c-28.437,0-51.666,24.063-51.666,53.333v370C350.001,452.709,373.23,476.667,401.667,476.667z"/>
		<path d="M560.001,89.793v124.896c64.375,48.75,106.667,125.208,106.667,211.978c0,147.084-119.584,266.667-266.667,266.667
			c-146.98,0-266.667-119.583-266.667-266.667c0-89.895,45-169.166,113.333-217.499V86.563c-129.583,58.541-220,188.646-220,340.103
			c0,206.251,167.188,373.334,373.333,373.334c206.25,0,373.333-167.083,373.333-373.334
			C773.334,277.814,686.043,149.689,560.001,89.793z"/>
	</g>
</g>
<g id="onboarding" display="none">
	<g display="inline">
		<rect x="23.262" y="346.676" width="50.412" height="50.413"/>
		<path d="M767.311,173.753L429.108-5.349c-12.406-6.203-32.69-6.203-45.096,0L23.262,185.027v121.237h50.412v-94.086l80.825,54.302
			v160.609l0.099,10c0,18.092,0.098,34.142,0.098,47.188c-0.098,0.393-0.098,0.837-0.197,1.23c0.099,0,0.099-0.049,0.197-0.049
			c0,12.947,0,22.794,0,27.225c0,127.605,151.237,277.316,252.062,277.316c100.824,0,252.061-149.711,252.061-277.316
			c0-55.348,1.006-179.666,0.591-226.647l108.295-89.046C779.914,190.393,779.718,179.956,767.311,173.753z M204.912,265.655
			c53.563-12.012,124.061-19.373,201.649-19.373c77.588,0,148.086,7.36,201.65,19.373v50.609
			c-53.465-12.086-123.864-19.569-201.65-19.569c-77.785,0-148.086,7.483-201.649,19.569V265.655z M608.702,453.212
			c-0.197,26.683-0.295,48.442-0.295,59.471c0,104.418-133.317,226.904-201.649,226.904c-68.332,0-201.649-122.486-201.649-226.904
			v-38.351c44.209-18.708,80.147-49.815,98.954-102.788c43.914,48.837,136.566,72.609,244.086,72.609
			c20.973,0,41.059-1.772,60.554-4.259C608.702,444.202,608.702,449.273,608.702,453.212z"/>
		<path d="M330.942,492.683c-16.523,0-30,13.476-30,30c0,16.641,13.477,30,30,30c16.641,0,30-13.359,30-30
			C360.942,506.158,347.583,492.683,330.942,492.683z"/>
		<path d="M482.179,492.683c-16.523,0-30,13.476-30,30c0,16.641,13.477,30,30,30c16.641,0,30-13.359,30-30
			C512.179,506.158,498.819,492.683,482.179,492.683z"/>
	</g>
</g>
<g id="search" display="none">
	<path display="inline" d="M755.013,660.587l-162.64-162.64c31.082-48.472,49.343-105.967,49.343-167.829
		c0-172.113-139.507-311.618-311.598-311.618C158.005,18.5,18.5,158.005,18.5,330.118c0,172.091,139.505,311.598,311.618,311.598
		c61.862,0,119.357-18.261,167.829-49.343l162.597,162.64c8.651,8.649,22.822,8.649,31.475,0l62.994-62.95
		C763.662,683.366,763.662,669.195,755.013,660.587z M330.118,552.681c-122.726,0-222.585-99.858-222.585-222.563
		c0-122.726,99.859-222.585,222.585-222.585c122.705,0,222.562,99.859,222.562,222.585
		C552.681,452.823,452.823,552.681,330.118,552.681z"/>
</g>
<g id="move_x5F_dataset" display="none">
	<g display="inline">
		<path d="M550.098,0H150v400h50V50h300v250h250v450H400v50h400V249.854L550.098,0z M550,250V70.557L729.394,250H550z"/>
		<polygon points="500,575 250,400 250,500 0,500 0,650 250,650 250,750 		"/>
	</g>
</g>
<g id="undo" display="none">
	<path display="inline" d="M403.468,224.5c-116.065,0-220.337,49.609-293.311,128.516L0.001,224.5v360h310L209.327,468.738
		C267.603,382.02,366.065,324.5,478.492,324.5c153.613,0,282.031,106.738,315.82,250h5.664
		C775.367,377.234,607.398,224.5,403.468,224.5z"/>
</g>
<g id="redo" display="none">
	<path display="inline" d="M689.844,353.516C616.894,274.609,512.598,225,396.533,225C192.602,225,24.658,377.734,0,575h5.664
		C39.502,431.738,167.92,325,321.533,325c112.402,0,210.889,57.52,269.141,144.238L490,585h310V225L689.844,353.516z"/>
</g>
<g id="copy_x5F_dataset" display="none">
	<g display="inline">
		<path d="M585.352,0H220v150H50v650h550V650h150V164.648L585.352,0z M600,85.352L664.648,150H600V85.352z M550,750H100V200h120v450
			h330V750z M700,600H270V50h280v150h150V600z"/>
	</g>
</g>
<g id="feedback" display="none">
	<g display="inline">
		<path d="M700,250h-50v50c0,77.1-72.852,150-150,150H270.703L189,520.703V550c0,50,61,100,111,100h250l170,150V650
			c50,0,80-50,80-100V350C800,300,750,250,700,250z"/>
		<path d="M250,400h250c50,0,100-50,100-100V100C600,50,550,0,500,0H100C50,0,0,50,0,100v200c0,50,29,100,79,100v150L250,400z"/>
	</g>
</g>
<g id="triangle_x5F_right" display="none">
	<polygon display="inline" points="240,600 240,200 560,400 	"/>
</g>
<g id="triangle_x5F_down" display="none">
	<polygon display="inline" points="200,240 600,240 400,560 	"/>
</g>
<g id="add" display="none">
	<polygon display="inline" points="600,377.777 422.222,377.777 422.222,200 377.777,200 377.777,377.777 200,377.777 200,422.222 
		377.777,422.222 377.777,600 422.222,600 422.222,422.222 600,422.222 	"/>
</g>
<g id="parameters" display="none">
	<path display="inline" d="M700,400c0-19.141-2.002-37.793-5.42-56.006L800,250.488L667.188,100.879l-76.269,67.725
		C564.16,146.484,533.35,129.297,500,117.48V0H300v117.48c-33.35,11.816-64.16,29.004-90.918,51.123l-76.27-67.725L0,250.488
		l105.42,93.506C102.002,362.207,100,380.859,100,400c0,19.19,2.002,37.891,5.42,56.055L0,549.609l132.813,149.512l76.27-67.676
		c26.758,22.07,57.568,39.355,90.918,51.172V800h200V682.617c33.35-11.816,64.16-29.102,90.918-51.172l76.269,67.676L800,549.609
		l-105.42-93.555C697.998,437.891,700,419.19,700,400z M400,550c-82.715,0-150-67.285-150-150s67.285-150,150-150
		s150,67.285,150,150S482.715,550,400,550z"/>
</g>
<g id="add_x5F_lookup" display="none">
	<path display="inline" d="M400,100c-165.655,0-300,134.283-300,300c0,165.718,134.345,300,300,300c165.677,0,300-134.282,300-300
		C700,234.283,565.677,100,400,100z M400,654.3c-140.233,0-254.299-114.046-254.299-254.3
		c0-140.171,114.065-254.299,254.299-254.299c140.254,0,254.3,114.128,254.3,254.299C654.3,540.254,540.254,654.3,400,654.3z"/>
	<polygon display="inline" points="439.729,270.528 354.797,270.528 354.797,355.461 269.865,355.461 269.865,440.393 
		354.797,440.393 354.797,525.324 439.729,525.324 439.729,440.393 524.661,440.393 524.661,355.461 439.729,355.461 	"/>
</g>
<g id="user">
	<path d="M400,0C179.1,0,0,179.056,0,400c0,102.441,38.82,195.556,102.15,266.356C175.39,748.196,281.54,800,400,800
		c119.92,0,227.245-53.05,300.585-136.644C762.305,592.946,800,500.95,800,400C800,179.056,620.9,0,400,0z M679.49,609.741
		c-25.83-21.191-532.714-20.48-557.91,1.465C76.855,552.441,50,479.396,50,400C50,207.006,207.03,50,400,50s350,157.006,350,350
		C750,478.711,723.535,551.196,679.49,609.741z"/>
	<path d="M337,627l395.49-16.951c-20.397-16.734-9.419-29.246-49.404-45.944c-47.661-19.817-58.879-26.739-58.879-26.739
		l-0.466-45.71c0,0,17.776-13.709,23.367-56.758c11.146,3.277,22.865-16.619,23.521-27.07c0.58-10.08-1.54-38.114-15.154-35.319
		c2.74-21.073,4.746-40.026,3.779-50.05C655.748,285.694,619.58,247,563.939,247c-55.487,0-91.733,38.694-95.279,75.459
		c-0.924,10.024,1.042,28.977,3.818,50.05c-13.65-2.795-15.769,25.238-15.115,35.319c0.616,10.451,12.299,30.347,23.481,27.07
		c5.512,43.049,23.367,56.758,23.367,56.758l-0.462,45.71c0,0-11.261,6.922-58.843,26.739
		c-40.984,17.085-82.091,29.771-101.987,47.101L337,627z"/>
	<path d="M480.571,614.049c-20.397-16.734-60.419-29.246-100.404-45.944c-47.661-19.817-58.879-26.739-58.879-26.739l-0.466-45.71
		c0,0,17.776-13.709,23.367-56.758c11.146,3.277,22.865-16.619,23.521-27.07c0.58-10.08-1.54-38.114-15.154-35.319
		c2.74-21.073,4.746-40.026,3.779-50.05C352.829,289.694,316.662,251,261.02,251c-55.487,0-91.733,38.694-95.279,75.459
		c-0.924,10.024,1.042,28.977,3.818,50.05c-13.65-2.795-15.769,25.238-15.115,35.319c0.616,10.451,12.299,30.347,23.481,27.07
		c5.512,43.049,23.367,56.758,23.367,56.758l-0.462,45.71c0,0-11.261,6.922-58.843,26.739C101.003,585.19,89.897,597.876,70,615.206
		"/>
</g>
</svg>
