<svg id="streams" xmlns="http://www.w3.org/2000/svg" viewBox="0 0 672 663">
    <defs>
        <style>
            .cls-1{fill:#231f20}
        </style>
    </defs>
    <title>
        streams
    </title>
    <path class="cls-1" d="M727 211s-88-80-168-80-196 179-315 179-185-80-185-80v-76s68 100 187 100c90 0 214-179 314-179s167 69 167 69zM731 419s-88-80-168-80-196 179-315 179-185-80-185-80v-76s68 100 187 100c90 0 214-179 314-179s167 69 167 69zM731 639s-88-80-168-80-196 179-315 179-185-80-185-80v-76s68 100 187 100c90 0 214-179 314-179s167 69 167 69z" transform="translate(-59 -75)"/>
</svg>
