<svg id="streams" xmlns="http://www.w3.org/2000/svg" viewBox="0 0 672 663"><defs><style>.cls-1{fill:#231f20;}</style></defs><title>streams</title><path class="cls-1" d="M727,211s-88-80-168-80S363,310,244,310,59,230,59,230V154s68,100,187,100c90,0,214-179,314-179s167,69,167,69Z" transform="translate(-59 -75)"/><path class="cls-1" d="M731,419s-88-80-168-80S367,518,248,518,63,438,63,438V362s68,100,187,100c90,0,214-179,314-179s167,69,167,69Z" transform="translate(-59 -75)"/><path class="cls-1" d="M731,639s-88-80-168-80S367,738,248,738,63,658,63,658V582s68,100,187,100c90,0,214-179,314-179s167,69,167,69Z" transform="translate(-59 -75)"/></svg>