<svg xmlns="http://www.w3.org/2000/svg" focusable="false" class="sr-only">
<symbol id="talend-calendar-move"><svg xmlns="http://www.w3.org/2000/svg" viewBox="0 0 16 16">
	<g>
		<path d="M0.9299,5.021 L14.9299,5.021 L14.9299,14.351 C14.9299,14.741 14.5699,15.05 14.1399,15.05 L1.7199,15.05 C1.2799,15.05 0.9299,14.741 0.9299,14.351 L0.9299,11.531 L1.9299,11.531 L1.9299,14.05 L13.9299,14.05 L13.9299,6.021 L1.9299,6.021 L1.9299,8.531 L0.9299,8.531 L0.9299,5.021 Z M14.927,3.2768 L14.927,4.1968 L0.927,4.1968 L0.927,3.2768 C0.927,2.9648 1.202,2.7108 1.542,2.7108 L3.966,2.7108 L3.966,0.9998 L5.159,0.9998 L5.159,2.7108 L10.695,2.7108 L10.695,0.9998 L11.889,0.9998 L11.889,2.7108 L14.312,2.7108 C14.652,2.7108 14.927,2.9648 14.927,3.2768 Z M1.9299,10.9008 L0.9299,10.9108 L0.2799,10.9108 C0.1299,10.9108 -0.0001,10.7998 -0.0001,10.6608 L-0.0001,9.3898 C-0.0001,9.2508 0.1299,9.1398 0.2799,9.1398 L0.9299,9.1508 L1.9299,9.1608 L3.4999,9.1708 L4.4499,9.1808 L4.4499,7.9798 C4.4499,7.7608 4.7099,7.6398 4.8999,7.7708 L7.9499,9.8308 C8.0999,9.9308 8.0999,10.1398 7.9499,10.2408 L4.8999,12.2908 C4.7099,12.4208 4.4499,12.2998 4.4499,12.0898 L4.4499,10.8898 L3.4999,10.8898 L1.9299,10.9008 Z"/>
	</g>
</svg>
</symbol>
<symbol id="talend-column-chooser"><svg xmlns="http://www.w3.org/2000/svg" viewBox="0 0 16 16">
	<path d="M1,1 L15,1 C15.5522847,1 16,1.44771525 16,2 L16,14 C16,14.5522847 15.5522847,15 15,15 L1,15 C0.44771525,15 6.76353751e-17,14.5522847 0,14 L0,2 C-6.76353751e-17,1.44771525 0.44771525,1 1,1 Z M1,4 L1,14 L5,14 L5,4 L1,4 Z M6,4 L6,14 L10,14 L10,4 L6,4 Z M11,4 L11,14 L15,14 L15,4 L11,4 Z"/>
</svg>
</symbol>
<symbol id="talend-datagrid"><svg xmlns="http://www.w3.org/2000/svg" viewBox="0 0 16 16">
	<path d="M15.12 1.25H.88a.88.88 0 0 0-.88.88v11.74a.88.88 0 0 0 .88.88h14.24a.88.88 0 0 0 .88-.88V2.13a.88.88 0 0 0-.88-.88zm-10 11.89a.44.44 0 0 1-.44.44H1.76a.44.44 0 0 1-.44-.44v-1.62a.44.44 0 0 1 .44-.44H4.7a.44.44 0 0 1 .44.44zm0-3.67a.44.44 0 0 1-.44.44H1.76a.44.44 0 0 1-.44-.44V7.85a.44.44 0 0 1 .44-.44H4.7a.44.44 0 0 1 .44.44zm0-3.67a.44.44 0 0 1-.44.44H1.76a.44.44 0 0 1-.44-.44V4.18a.44.44 0 0 1 .44-.44H4.7a.44.44 0 0 1 .44.44zM10 13.14a.44.44 0 0 1-.44.44H6.61a.44.44 0 0 1-.44-.44v-1.62a.44.44 0 0 1 .44-.44h2.93a.44.44 0 0 1 .44.44zm0-3.67a.44.44 0 0 1-.44.44H6.61a.44.44 0 0 1-.44-.44V7.85a.44.44 0 0 1 .44-.44h2.93a.44.44 0 0 1 .44.44zm0-3.67a.44.44 0 0 1-.44.44H6.61a.44.44 0 0 1-.44-.44V4.18a.44.44 0 0 1 .44-.44h2.93a.44.44 0 0 1 .44.44zm4.85 7.34a.44.44 0 0 1-.44.44h-2.96a.44.44 0 0 1-.44-.44v-1.62a.44.44 0 0 1 .44-.44h2.94a.44.44 0 0 1 .44.44zm0-3.67a.44.44 0 0 1-.44.44h-2.96a.44.44 0 0 1-.45-.44V7.85a.44.44 0 0 1 .44-.44h2.94a.44.44 0 0 1 .44.44zm0-3.67a.44.44 0 0 1-.44.44h-2.96A.44.44 0 0 1 11 5.8V4.18a.44.44 0 0 1 .44-.44h2.94a.44.44 0 0 1 .44.44z"/>
</svg>
</symbol>
<symbol id="talend-drag-and-drop"><svg xmlns="http://www.w3.org/2000/svg" viewBox="0 0 16 16">
	<path d="M4.0567 13.2928L2.9997 14.3488 1.9427 13.2928C1.7227 13.0718 1.3377 13.0718 1.1177 13.2928 1.0077 13.4028.9467 13.5498.9467 13.7058.9467 13.8618 1.0077 14.0078 1.1177 14.1178L2.9997 15.9998 4.8817 14.1178C4.9907 14.0098 5.0537 13.8588 5.0537 13.7058 5.0537 13.5498 4.9927 13.4028 4.8827 13.2928 4.6617 13.0718 4.2767 13.0718 4.0567 13.2928M.149 10.85L5.851 10.85 5.851 9.7.149 9.7zM.149 8.592L5.851 8.592 5.851 7.442.149 7.442zM.149 6.3L5.851 6.3 5.851 5.15.149 5.15zM1.943 2.7074L3 1.6514 4.057 2.7074C4.167 2.8174 4.313 2.8784 4.469 2.8784 4.626 2.8784 4.772 2.8174 4.882 2.7074 4.992 2.5974 5.053 2.4504 5.053 2.2944 5.053 2.1404 4.991 1.9894 4.882 1.8824L3-.0006 1.118 1.8824C1.007 1.9924.947 2.1384.947 2.2934.946 2.4504 1.007 2.5974 1.118 2.7074 1.338 2.9274 1.723 2.9274 1.943 2.7074" transform="translate(5)"/>
</svg>
</symbol>
<symbol id="talend-drag"><svg xmlns="http://www.w3.org/2000/svg" viewBox="0 0 16 16">
	<path d="M3.2 0h3.2v3.2H3.2zm6.4 0h3.2v3.2H9.6zM3.2 6.4h3.2v3.2H3.2zm6.4 0h3.2v3.2H9.6zm-6.4 6.4h3.2V16H3.2zm6.4 0h3.2V16H9.6z"/>
</svg>
</symbol>
<symbol id="talend-empty-calendar"><svg xmlns="http://www.w3.org/2000/svg" viewBox="0 0 16 16">
	<g>
		<path d="M16,2.84777813 C16,2.45698078 15.6855622,2.14056098 15.2972127,2.14056098 L12.5274037,2.14056098 L12.5274037,0 L11.1631694,0 L11.1631694,2.14056098 L4.83557783,2.14056098 L4.83557783,0 L3.4725963,0 L3.4725963,2.14056098 L0.702787347,2.14056098 C0.314437833,2.14056098 0,2.45698078 0,2.84777813 L0,4 L16,4 L16,2.84777813 Z M16,5 L16,15.2406551 C16,15.6595659 15.5966176,16 15.0980269,16 L0.901973066,16 C0.403382399,16 0,15.6595659 0,15.2406551 L0,5 L16,5 Z M1.25274037,14.8946945 L14.7472596,14.8946945 L14.7472596,6.10530547 L1.25274037,6.10530547 L1.25274037,14.8946945 Z"/>
	</g>
</svg>
</symbol>
<symbol id="talend-empty-cell"><svg xmlns="http://www.w3.org/2000/svg" viewBox="0 0 26 16">
	<path d="M5.6797,0 L7.5597,0 L-0.0003,7.56 L-0.0003,5.68 L5.6797,0 Z M2,0 L3.56,0 L3.90798505e-14,3.56 L3.90798505e-14,2 C3.90798505e-14,0.9 0.9,0 2,0 Z M9.6797,0 L11.6897,0 L-0.0003,11.69 L-0.0003,9.68 L9.6797,0 Z M13.8101,0 L15.7001,0 L0.4501,15.25 C0.1701,14.91 0.0001,14.47 0.0001,14 L0.0001,13.81 L13.8101,0 Z M17.8198,0 L19.9398,0 L3.9398,16 L1.9998,16 C1.9398,16 1.8798,16 1.8298,15.99 L17.8198,0 Z M23.9199,0 C23.9599,0 24.0099,0 24.0499,0.01 L8.0599,16 L6.0599,16 L22.0599,0 L23.9199,0 Z M25.46,0.73 C25.74,1.08 25.92,1.52 25.92,2 L25.92,2.15 L12.07,16 L10.18,16 L25.46,0.73 Z M16.3198,16 L14.1998,16 L25.9198,4.28 L25.9198,6.4 L16.3198,16 Z M20.73,16 L18.44,16 L25.92,8.52 L25.92,10.81 L20.73,16 Z M23.9199,16 L22.8599,16 L25.9199,12.93 L25.9199,14 C25.9199,15.1 25.0199,16 23.9199,16 Z"/>
</svg>
</symbol>
<symbol id="talend-empty-char"><svg xmlns="http://www.w3.org/2000/svg" viewBox="0 0 3 16">
	<path d="M0.98944591,0.0001 L0,1.2501 L0,1.0001 C0,0.4501 0.356200528,0.0001 0.791556728,0.0001 L0.98944591,0.0001 Z M3,1.0001 L3,1.5901 L0,5.3701 L0,3.2501 L2.50923483,0.0801 L2.5171504,0.0801 C2.80211082,0.2301 3,0.5901 3,1.0001 Z M3,3.4698 L3,5.5898 L0,9.3898 L0,7.2598 L3,3.4698 Z M3,7.7198 L3,9.8398 L0,13.6298 L0,11.5098 L3,7.7198 Z M3,11.84 L3,13.96 L1.38522427,16 L0.791556728,16 C0.498680739,16 0.237467018,15.79 0.110817942,15.49 L3,11.84 Z"/>
</svg>
</symbol>
<symbol id="talend-empty-space"><svg xmlns="http://www.w3.org/2000/svg" viewBox="0 0 16 16">
	<path d="M4.7201,0.0002 L6.7201,0.0002 L0.0001,6.7202 L0.0001,4.7202 L4.7201,0.0002 Z M1.9999,0.0002 L2.5999,0.0002 L-9.99999999e-05,2.6002 L-9.99999999e-05,2.0002 C-9.99999999e-05,0.9002 0.8999,0.0002 1.9999,0.0002 Z M8.85,0.0002 L10.73,0.0002 L2.57571742e-14,10.7302 L2.57571742e-14,8.8402 L8.85,0.0002 Z M13.9999,0.0002 C14.2899,0.0002 14.5599,0.0602 14.8099,0.1702 L0.1699,14.8102 C0.0599,14.5602 -9.99999999e-05,14.2902 -9.99999999e-05,14.0002 L-9.99999999e-05,12.8602 L12.8499,0.0002 L13.9999,0.0002 Z M15.85,1.2502 C15.95,1.4802 16,1.7402 16,2.0002 L16,3.1002 L3.1,16.0002 L2,16.0002 C1.74,16.0002 1.48,15.9502 1.25,15.8502 L15.85,1.2502 Z M7.1,16.0002 L5.22,16.0002 L16,5.2202 L16,7.1102 L7.1,16.0002 Z M11.35,16.0002 L9.23,16.0002 L16,9.2302 L16,11.3502 L11.35,16.0002 Z M13.9999,16.0002 L13.4699,16.0002 L15.9999,13.4702 L15.9999,14.0002 C15.9999,15.1002 15.0999,16.0002 13.9999,16.0002 Z"/>
</svg>
</symbol>
<symbol id="talend-raw-data"><svg xmlns="http://www.w3.org/2000/svg" viewBox="0 0 16 16">
	<path d="M4.778 2.242c-.2 0-.358.04-.474.117a.85.85 0 0 0-.275.29 1.033 1.033 0 0 0-.125.392 3.564 3.564 0 0 0-.025.416v2.532c0 .41-.064.74-.191.99-.128.25-.278.444-.45.583a1.573 1.573 0 0 1-.541.29 2.5 2.5 0 0 1-.466.1v.05c.122.012.277.048.466.109.188.06.369.16.541.3.172.139.322.322.45.549.127.227.191.52.191.874v2.664c0 .122.008.256.025.4.017.144.059.274.125.39a.85.85 0 0 0 .275.292c.116.079.274.117.474.117h.899v1.864H3.563a1.79 1.79 0 0 1-.641-.14 2.259 2.259 0 0 1-1.19-1.116 2.147 2.147 0 0 1-.217-.991v-3.23a1.2 1.2 0 0 0-.167-.65 1.418 1.418 0 0 0-.399-.424 1.661 1.661 0 0 0-.5-.232A1.672 1.672 0 0 0 0 8.702v-1.45c.122 0 .272-.023.449-.073a1.486 1.486 0 0 0 .899-.717 1.4 1.4 0 0 0 .167-.707v-3.13c0-.377.072-.708.217-.99.144-.284.318-.517.524-.7.205-.183.427-.322.666-.416.238-.095.452-.142.641-.142h2.114v1.865h-.899zm6.427 11.455c.2 0 .358-.04.475-.117a.859.859 0 0 0 .275-.291c.066-.117.107-.247.124-.391a3.43 3.43 0 0 0 .025-.4V9.834c0-.354.064-.647.192-.874a1.87 1.87 0 0 1 .45-.55c.17-.138.352-.238.54-.3.189-.06.344-.096.466-.107v-.05a2.558 2.558 0 0 1-.465-.1 1.555 1.555 0 0 1-.541-.291 1.748 1.748 0 0 1-.45-.583c-.128-.25-.192-.58-.192-.99V3.457c0-.133-.008-.271-.025-.416a1.032 1.032 0 0 0-.124-.391.859.859 0 0 0-.275-.291c-.117-.078-.275-.117-.475-.117h-.9V.377h2.115c.189 0 .403.047.64.142.24.094.462.233.668.416.205.183.379.416.524.699.144.283.217.614.217.99v3.13a1.403 1.403 0 0 0 .566 1.174c.155.118.32.2.499.25.177.05.333.075.466.075v1.449c-.133 0-.29.025-.466.076a1.656 1.656 0 0 0-.5.232 1.397 1.397 0 0 0-.4.425 1.2 1.2 0 0 0-.165.649v3.23c0 .378-.073.707-.217.99a2.373 2.373 0 0 1-.524.7 2.276 2.276 0 0 1-.667.417 1.79 1.79 0 0 1-.641.14h-2.114v-1.864h.899z"/>
</svg>
</symbol>
<symbol id="talend-rest"><svg xmlns="http://www.w3.org/2000/svg" viewBox="0 0 16 16">
	<g>
		<path fill="#266092" d="M1.08766994,9.67919121 C0.628193761,6.68547287 2.00158911,3.70672854 4.57831176,2.10837084 C6.88958838,0.687637036 9.79047964,0.628801826 12.1576424,1.9546486 C14.9069757,3.53046227 16.398275,6.63572761 15.9074067,9.76261365 C15.401451,12.7316609 13.164363,15.1098475 10.2280801,15.8001493 C7.29179724,16.4904511 4.22687677,15.3587336 2.44712378,12.9270422 C1.74036472,11.9685298 1.27417491,10.8547626 1.08766994,9.67919121 Z M4.91817522,9.49641172 C4.95429347,9.87322431 5.1863971,10.2032421 5.5291331,10.3651056 C5.87186911,10.526969 6.27463804,10.4967816 6.58932703,10.2856442 C6.9122912,10.353132 7.51878787,10.4646744 7.34979499,10.9830183 C7.6472243,11.4870932 7.72395051,12.0910975 7.56197494,12.6533416 C7.85583478,13.2344867 7.50094973,14.2814851 8.20790328,14.5504991 C9.0228245,14.5570604 9.26880302,13.6834681 9.68940753,13.1688736 C9.50445421,12.529614 10.6310734,12.3121533 10.1184617,11.5941579 C9.94383569,10.8752252 10.7550015,10.4431158 11.0422894,9.87228135 C11.2197319,9.5292183 11.3023507,9.29301095 10.8751742,9.52546897 C10.2236128,9.55358889 9.8011306,8.89370805 9.56454056,8.36505352 C10.0170659,7.50083458 10.2940265,9.07742488 10.6629943,9.28363764 C11.3990522,9.19552855 11.742671,8.50940245 12.0224481,8.00418118 C12.4759123,7.95356532 12.7200132,8.46441058 13.1396788,8.43722798 C13.4757869,8.73811115 13.250463,9.98569836 13.7940568,9.757927 C13.7320927,9.15522333 14.2409491,8.27694443 14.8080141,8.36880284 C14.7760932,9.03430767 15.2614783,8.6968686 15.1272229,8.22257925 C15.0230475,6.17554525 13.9251502,4.3079755 12.1858079,3.21910776 C11.6694408,3.20785979 11.3821529,2.94446986 11.1793614,3.11600138 C11.1202139,3.51624161 11.019757,3.76557158 10.5174726,3.66715186 C9.98045082,3.47593639 9.54764128,4.37014991 9.12797562,4.02333754 C9.29978505,3.85930466 9.50257651,3.17973987 8.88856905,3.2416037 C8.16283851,3.24347836 7.19676255,3.14318397 6.78085229,3.8789886 C6.67476232,4.30359943 7.40988135,4.55386674 7.54695335,4.71040097 C7.91685999,4.00177893 8.95147195,4.88849381 7.97506864,4.93254835 C7.26800843,4.93195237 6.57584377,5.13539239 5.98189151,5.51838006 C6.50952484,5.83707252 5.98470806,6.03953596 5.66643814,6.05359592 C5.58288055,6.28605394 5.5725532,6.86626167 5.84857491,6.77065393 C6.421273,6.89813091 6.94045668,5.53618935 7.50094973,6.27761796 C7.65398217,6.59349842 8.15438887,6.74628333 7.84269089,6.23543808 C7.60610086,5.99548141 7.46433461,5.53712668 7.8962053,5.94299089 C8.02201111,6.12951971 8.69610493,7.10528101 8.56560487,6.42946554 C8.66136751,5.94392822 8.92048992,6.9496841 9.28758001,6.80814716 C10.0799688,7.14746089 9.19651163,7.84577229 8.65291786,7.56363574 C8.21729177,7.61612626 8.00792837,8.11197422 7.59859006,7.60394096 C7.34697844,7.45115605 7.59107927,6.95062143 7.05405745,7.15777153 C6.29452834,7.2027634 5.53969348,7.30118313 5.18386958,8.08666629 C4.79143056,8.46159858 5.02708174,9.02399703 4.91817522,9.49547439 L4.91817522,9.49641172 Z M5.76877271,5.03378007 C6.04103902,5.59430385 7.16296397,4.88755648 6.51046369,4.33078202 C6.06826565,3.77681955 5.5763086,4.24642225 6.04291672,4.73008491 C6.04103902,4.89880445 5.88519003,4.95504429 5.76971156,5.03378007 L5.76877271,5.03378007 Z"/>
		<path fill="#F68500" d="M0 0H12V5H0z"/>
		<path fill="#FFF" d="M1.67617295,2.38461538 L2.02575897,2.38461538 C2.20361941,2.38461538 2.33931263,2.34837314 2.43284269,2.27588757 C2.52637275,2.203402 2.57313707,2.09615456 2.57313707,1.95414201 C2.57313707,1.81212947 2.52637275,1.71301803 2.43284269,1.65680473 C2.33931263,1.60059143 2.20361941,1.57248521 2.02575897,1.57248521 L1.67617295,1.57248521 L1.67617295,2.38461538 Z M2.62373505,3.94674556 L2.04875805,2.90384615 L1.67617295,2.90384615 L1.67617295,3.94674556 L1,3.94674556 L1,1.05325444 L2.08095676,1.05325444 C2.24041785,1.05325444 2.38991037,1.06804719 2.52943882,1.09763314 C2.66896727,1.12721908 2.79086118,1.1767748 2.8951242,1.24630178 C2.99938721,1.31582875 3.08218307,1.40828345 3.14351426,1.52366864 C3.20484545,1.63905383 3.23551058,1.78254352 3.23551058,1.95414201 C3.23551058,2.16716083 3.18721299,2.34245493 3.09061638,2.48002959 C2.99401976,2.61760424 2.86445957,2.72041386 2.70193192,2.78846154 L3.38270469,3.94674556 L2.62373505,3.94674556 Z M3.83348666,1.05325444 L5.71021159,1.05325444 L5.71021159,1.6035503 L4.50965961,1.6035503 L4.50965961,2.18491124 L5.53081877,2.18491124 L5.53081877,2.73076923 L4.50965961,2.73076923 L4.50965961,3.3964497 L5.75620975,3.3964497 L5.75620975,3.94674556 L3.83348666,3.94674556 L3.83348666,1.05325444 Z M6.5473781,3.13461538 C6.65470768,3.22337322 6.77353507,3.29585771 6.90386385,3.35207101 C7.03419262,3.4082843 7.16221955,3.43639053 7.28794848,3.43639053 C7.42901021,3.43639053 7.53403829,3.41124286 7.60303588,3.36094675 C7.67203346,3.31065064 7.70653174,3.24260398 7.70653174,3.15680473 C7.70653174,3.11242581 7.69656557,3.07396466 7.67663293,3.04142012 C7.6567003,3.00887558 7.62756842,2.98002971 7.58923643,2.95488166 C7.55090444,2.9297336 7.50490674,2.9060652 7.45124195,2.88387574 L7.27414903,2.81065089 L6.88316467,2.65088757 C6.80650069,2.62130163 6.73213774,2.58284047 6.6600736,2.53550296 C6.58800945,2.48816544 6.52361267,2.43269263 6.46688132,2.36908284 C6.41014998,2.30547305 6.36491891,2.2315093 6.33118675,2.14718935 C6.2974546,2.0628694 6.28058878,1.96745615 6.28058878,1.86094675 C6.28058878,1.74260296 6.30665414,1.63091768 6.35878565,1.52588757 C6.41091716,1.42085746 6.48451348,1.3291424 6.57957682,1.25073964 C6.67464016,1.17233689 6.78733452,1.11094697 6.91766329,1.06656805 C7.04799207,1.02218913 7.19135156,1 7.34774609,1 C7.52253997,1 7.69503135,1.03254405 7.86522539,1.09763314 C8.03541943,1.16272222 8.18491196,1.25739583 8.31370745,1.3816568 L7.96872125,1.7943787 C7.87059135,1.72041383 7.77246293,1.66346174 7.67433303,1.62352071 C7.57620313,1.58357968 7.4673419,1.56360947 7.34774609,1.56360947 C7.23121684,1.56360947 7.13845481,1.58653823 7.06945722,1.63239645 C7.00045964,1.67825467 6.96596136,1.74260314 6.96596136,1.82544379 C6.96596136,1.86982271 6.97746079,1.90754422 7.00045998,1.93860947 C7.02345918,1.96967471 7.05565757,1.99778094 7.09705612,2.02292899 C7.13845467,2.04807705 7.18675225,2.07174545 7.24195032,2.09393491 C7.29714839,2.11612437 7.3569454,2.14053241 7.42134315,2.16715976 L7.80772769,2.31804734 C7.99172125,2.38905361 8.13661401,2.48668577 8.2424103,2.61094675 C8.3482066,2.73520772 8.40110396,2.89940726 8.40110396,3.1035503 C8.40110396,3.22485268 8.37580522,3.3394965 8.32520699,3.44748521 C8.27460876,3.55547391 8.20101244,3.65014752 8.10441582,3.73150888 C8.0078192,3.81287023 7.88899181,3.87795834 7.74793008,3.92677515 C7.60686835,3.97559196 7.44740966,4 7.26954922,4 C7.07328942,4 6.8777992,3.96523703 6.68307268,3.89571006 C6.48834616,3.82618308 6.31432153,3.72189419 6.16099356,3.58284024 L6.5473781,3.13461538 Z M9.49586017,1.6035503 L8.6724931,1.6035503 L8.6724931,1.05325444 L11,1.05325444 L11,1.6035503 L10.1766329,1.6035503 L10.1766329,3.94674556 L9.49586017,3.94674556 L9.49586017,1.6035503 Z"/>
	</g>
</svg>
</symbol>
</svg>