<svg xmlns="http://www.w3.org/2000/svg" focusable="false" class="sr-only"><symbol id="arrow-bottom:XS"><svg width="8" height="8" viewBox="0 0 8 8" fill="none" xmlns="http://www.w3.org/2000/svg">
<path d="M3.438 1.004C3.32366 1.01637 3.21791 1.07049 3.141 1.156C3.07503 1.22432 3.02904 1.30939 3.008 1.402C3.004 1.43 3.004 1.496 3 2.715V4H2.59C2.324 4 2.164 4 2.145 4.004C2.04089 4.01754 1.94358 4.06312 1.86653 4.13443C1.78949 4.20574 1.73653 4.29925 1.715 4.402C1.70775 4.46038 1.70641 4.51935 1.711 4.578C1.7252 4.656 1.75738 4.72961 1.805 4.793C1.82 4.816 2.137 5.133 2.758 5.758C3.781 6.778 3.711 6.711 3.797 6.75C3.86387 6.77874 3.93609 6.79289 4.00886 6.79151C4.08163 6.79013 4.15327 6.77325 4.219 6.742C4.293 6.703 4.242 6.754 5.239 5.758C5.863 5.133 6.179 4.816 6.199 4.793C6.23007 4.7488 6.25372 4.69982 6.269 4.648C6.3038 4.54238 6.30133 4.42802 6.262 4.324C6.23567 4.25538 6.19477 4.19329 6.14211 4.14201C6.08945 4.09073 6.0263 4.05149 5.957 4.027C5.879 4 5.91 4.004 5.434 4H5V2.715C5 1.496 4.996 1.43 4.992 1.402C4.97264 1.30492 4.92374 1.21621 4.852 1.148C4.78514 1.07896 4.69909 1.03158 4.605 1.012C4.57 1.004 4.566 1.004 4.015 1C3.703 1 3.453 1.004 3.438 1.004Z" fill="currentColor"/>
</svg>
</symbol><symbol id="arrow-left:XS"><svg width="8" height="8" viewBox="0 0 8 8" fill="none" xmlns="http://www.w3.org/2000/svg">
<path d="M3.414 1.71001C3.33974 1.72606 3.26939 1.75665 3.207 1.80001C3.184 1.82001 2.867 2.13701 2.242 2.75801C1.512 3.49201 1.309 3.69501 1.293 3.71801C1.23706 3.80122 1.2084 3.89977 1.211 4.00001C1.211 4.10501 1.231 4.18401 1.289 4.27301C1.309 4.30101 1.429 4.42601 2.242 5.23801C2.852 5.85201 3.184 6.18001 3.207 6.19501C3.29649 6.26123 3.40571 6.29529 3.51698 6.29166C3.62825 6.28803 3.73502 6.24692 3.82 6.17501C3.89437 6.11596 3.9491 6.03577 3.977 5.94501C4 5.87101 3.997 5.90201 4 5.43401V5.00001H5.285C6.504 4.99601 6.57 4.99601 6.598 4.99201C6.69508 4.97265 6.7838 4.92375 6.852 4.85201C6.92768 4.78029 6.97699 4.68518 6.992 4.58201C7 4.54301 7 3.45701 6.992 3.41801C6.97699 3.31483 6.92768 3.21972 6.852 3.14801C6.78514 3.07897 6.69909 3.03159 6.605 3.01201L6.57 3.00001H4V2.59001C4 2.32801 4 2.16401 3.996 2.14501C3.98246 2.0409 3.93688 1.94358 3.86557 1.86654C3.79426 1.78949 3.70075 1.73654 3.598 1.71501C3.53694 1.7077 3.47532 1.70536 3.414 1.71001Z" fill="currentColor"/>
</svg>
</symbol><symbol id="arrow-right:XS"><svg width="8" height="8" viewBox="0 0 8 8" fill="none" xmlns="http://www.w3.org/2000/svg">
<path d="M4.445 1.71C4.3333 1.7224 4.22903 1.77206 4.14902 1.85098C4.06901 1.92991 4.01792 2.03348 4.004 2.145C4 2.165 4 2.328 4 2.59V3H2.715C1.496 3 1.43 3.004 1.402 3.008C1.30525 3.02826 1.21679 3.07702 1.148 3.148C1.07376 3.22079 1.02471 3.31538 1.008 3.418C0.999999 3.457 0.999999 4.543 1.008 4.582C1.028 4.692 1.074 4.777 1.148 4.852C1.218 4.926 1.297 4.965 1.402 4.992C1.43 4.996 1.496 4.996 2.715 5H4V5.41C4 5.672 4 5.836 4.004 5.855C4.01631 5.9557 4.05927 6.05019 4.12706 6.12567C4.19485 6.20115 4.28419 6.25398 4.383 6.277C4.45305 6.29574 4.52647 6.2981 4.59757 6.28388C4.66868 6.26966 4.73555 6.23924 4.793 6.195C4.816 6.18 5.137 5.863 5.758 5.238C6.57 4.426 6.691 4.301 6.711 4.273C6.76539 4.19262 6.79271 4.09698 6.789 4C6.7922 3.90183 6.76496 3.80508 6.711 3.723C6.691 3.695 6.571 3.574 5.758 2.762C5.43962 2.43838 5.11794 2.11803 4.793 1.801C4.72955 1.75691 4.65774 1.72628 4.582 1.711C4.53642 1.70707 4.49058 1.70607 4.445 1.71Z" fill="currentColor"/>
</svg>
</symbol><symbol id="arrow-top:XS"><svg width="8" height="8" viewBox="0 0 8 8" fill="none" xmlns="http://www.w3.org/2000/svg">
<path d="M3.938 1.21C3.8896 1.2178 3.84228 1.23122 3.797 1.25C3.711 1.29 3.777 1.227 2.757 2.242C2.137 2.867 1.82 3.184 1.805 3.207C1.75738 3.27038 1.72519 3.344 1.711 3.422C1.70646 3.48065 1.7078 3.53961 1.715 3.598C1.73707 3.70049 1.79019 3.79369 1.86714 3.86491C1.94408 3.93613 2.0411 3.9819 2.145 3.996C2.165 4 2.328 4 2.59 4H3V5.285C3.004 6.504 3.004 6.57 3.008 6.598C3.02826 6.69474 3.07702 6.78321 3.148 6.852C3.223 6.926 3.308 6.972 3.418 6.992C3.457 7 4.543 7 4.582 6.992C4.68461 6.97528 4.77921 6.92623 4.852 6.852C4.92298 6.78321 4.97174 6.69474 4.992 6.598C4.996 6.57 5 6.504 5 5.285V4H5.41C5.672 4 5.836 4 5.855 3.996C5.9557 3.98368 6.05018 3.94072 6.12566 3.87293C6.20114 3.80515 6.25397 3.7158 6.277 3.617C6.30003 3.52981 6.2976 3.43785 6.27 3.352C6.25472 3.30017 6.23107 3.25119 6.2 3.207C6.18 3.184 5.863 2.863 5.238 2.242C4.242 1.246 4.293 1.297 4.218 1.258C4.1791 1.24076 4.13899 1.22639 4.098 1.215C4.04497 1.20787 3.99132 1.20553 3.938 1.21Z" fill="currentColor"/>
</svg>
</symbol><symbol id="check:XS"><svg width="8" height="8" viewBox="0 0 8 8" fill="none" xmlns="http://www.w3.org/2000/svg">
<g clip-path="url(#clip0_2538_14621)">
<path d="M6.91 1.004C6.762 1.016 6.61 1.07 6.48 1.148C6.379 1.207 6.484 1.105 4.68 2.91L3 4.586L2.32 3.91C1.617 3.203 1.621 3.21 1.535 3.152C1.47329 3.11713 1.4095 3.08607 1.344 3.059C1.21337 3.01364 1.07498 2.99494 0.936997 3.004C0.741248 3.01467 0.553325 3.0844 0.397997 3.204C0.343997 3.242 0.245997 3.34 0.202997 3.394C0.120428 3.50253 0.0611922 3.62695 0.0290113 3.75946C-0.00316956 3.89197 -0.00760061 4.0297 0.0159965 4.164C0.0389965 4.32 0.105997 4.473 0.202997 4.605C0.226997 4.633 0.468997 4.879 1.293 5.703C2.433 6.843 2.379 6.793 2.48 6.852C2.65672 6.95979 2.86254 7.01008 3.06906 6.99593C3.27558 6.98178 3.47262 6.90389 3.633 6.773C3.653 6.758 4.59 5.824 5.719 4.695C7.863 2.547 7.789 2.625 7.848 2.531C7.875 2.488 7.922 2.395 7.941 2.34C7.977 2.242 8 2.11 8 2C8 1.89 7.977 1.758 7.941 1.656C7.9147 1.59144 7.88361 1.52894 7.848 1.469C7.78899 1.37792 7.7165 1.29632 7.633 1.227C7.54571 1.15619 7.44785 1.0995 7.343 1.059C7.20391 1.01139 7.05657 0.992677 6.91 1.004Z" fill="currentColor"/>
</g>
<defs>
<clipPath id="clip0_2538_14621">
<rect width="8" height="8" fill="white"/>
</clipPath>
</defs>
</svg>
</symbol><symbol id="chevron-double-left:XS"><svg width="8" height="8" viewBox="0 0 8 8" fill="none" xmlns="http://www.w3.org/2000/svg">
<g clip-path="url(#clip0_2538_16145)">
<path d="M2.91 1.00394C2.762 1.01594 2.61 1.06994 2.48 1.14794C2.379 1.20694 2.434 1.15594 1.293 2.29694C0.926227 2.65951 0.562877 3.02553 0.202999 3.39494C0.12059 3.50355 0.0614535 3.62798 0.0292792 3.76046C-0.00289508 3.89294 -0.00741593 4.03064 0.0159988 4.16494C0.0389988 4.31994 0.105999 4.47294 0.202999 4.60494C0.226999 4.63294 0.468999 4.87894 1.293 5.70294C2.433 6.84294 2.379 6.79294 2.48 6.85194C2.71 6.99594 2.984 7.03494 3.254 6.96494C3.32033 6.94965 3.38449 6.92613 3.445 6.89494C3.57384 6.83194 3.68738 6.74159 3.77771 6.63019C3.86804 6.51879 3.93298 6.38902 3.968 6.24994C4.01098 6.08469 4.01098 5.91119 3.968 5.74594C3.93261 5.6196 3.87468 5.50069 3.797 5.39494C3.56457 5.15343 3.32888 4.91508 3.09 4.67994L2.414 3.99994L3.09 3.31994C3.793 2.61694 3.79 2.62094 3.848 2.53094C3.875 2.48794 3.922 2.39494 3.941 2.33994C3.977 2.24194 4 2.10994 4 1.99994C4 1.88994 3.977 1.75794 3.941 1.65594C3.9147 1.59138 3.88361 1.52887 3.848 1.46894C3.789 1.37786 3.7165 1.29626 3.633 1.22694C3.54571 1.15613 3.44785 1.09944 3.343 1.05894C3.20391 1.01133 3.05657 0.992616 2.91 1.00394Z" fill="currentColor"/>
<path d="M6.91 1.00394C6.762 1.01594 6.61 1.06994 6.48 1.14794C6.379 1.20694 6.434 1.15594 5.293 2.29694C4.92623 2.65951 4.56288 3.02553 4.203 3.39494C4.10184 3.52786 4.03595 3.68421 4.01147 3.84944C3.98699 4.01467 4.00472 4.18341 4.063 4.33994C4.08529 4.40749 4.11657 4.47174 4.156 4.53094C4.211 4.62094 4.188 4.59794 5.293 5.70294C6.433 6.84294 6.379 6.79294 6.48 6.85194C6.71 6.99594 6.984 7.03494 7.254 6.96494C7.32033 6.94965 7.38449 6.92613 7.445 6.89494C7.57384 6.83194 7.68738 6.74159 7.77771 6.63019C7.86804 6.51879 7.93298 6.38902 7.968 6.24994C8.01099 6.08469 8.01099 5.91119 7.968 5.74594C7.93261 5.6196 7.87468 5.50069 7.797 5.39494C7.56457 5.15343 7.32888 4.91508 7.09 4.67994L6.414 3.99994L7.09 3.31994C7.793 2.61694 7.79 2.62094 7.848 2.53094C7.875 2.48794 7.922 2.39494 7.941 2.33994C7.977 2.24194 8 2.10994 8 1.99994C8 1.88994 7.977 1.75794 7.941 1.65594C7.9147 1.59138 7.88361 1.52887 7.848 1.46894C7.789 1.37786 7.7165 1.29626 7.633 1.22694C7.54571 1.15613 7.44785 1.09944 7.343 1.05894C7.20391 1.01133 7.05657 0.992616 6.91 1.00394Z" fill="currentColor"/>
</g>
<defs>
<clipPath id="clip0_2538_16145">
<rect width="8" height="8" fill="white"/>
</clipPath>
</defs>
</svg>
</symbol><symbol id="chevron-double-right:XS"><svg width="8" height="8" viewBox="0 0 8 8" fill="none" xmlns="http://www.w3.org/2000/svg">
<g clip-path="url(#clip0_2538_16911)">
<path d="M0.909997 1.00394C0.771929 1.01787 0.63811 1.0596 0.516604 1.12663C0.395097 1.19365 0.288418 1.28458 0.202997 1.39394C0.120428 1.50246 0.0611922 1.62689 0.0290113 1.7594C-0.00316956 1.89191 -0.00760061 2.02964 0.0159965 2.16394C0.0389965 2.31994 0.105997 2.47294 0.202997 2.60494C0.226997 2.63294 0.390997 2.80094 0.909997 3.31994L1.59 3.99994L0.909997 4.67994C0.206997 5.38294 0.209997 5.37894 0.155997 5.46894C0.0646381 5.61218 0.012005 5.77668 0.00324118 5.94634C-0.00552268 6.11601 0.0298825 6.28505 0.105997 6.43694C0.155997 6.54694 0.202997 6.61294 0.292997 6.70294C0.385225 6.79976 0.497047 6.87578 0.620997 6.92594C0.787879 6.99364 0.969912 7.01516 1.14798 6.98824C1.32605 6.96132 1.49359 6.88695 1.633 6.77294C1.653 6.75794 2.141 6.27294 2.719 5.69494C3.813 4.59794 3.789 4.62094 3.848 4.53094C3.875 4.48794 3.922 4.39494 3.941 4.33994C3.98849 4.20325 4.00721 4.05822 3.996 3.91394C3.97737 3.72576 3.90827 3.5461 3.796 3.39394C3.44148 3.02621 3.08245 2.66285 2.719 2.30394C2.141 1.72694 1.652 1.24194 1.633 1.22294C1.54461 1.15478 1.44696 1.09956 1.343 1.05894C1.20391 1.01133 1.05657 0.992616 0.909997 1.00394Z" fill="currentColor"/>
<path d="M4.91 1.00394C4.77193 1.01787 4.63811 1.0596 4.5166 1.12663C4.3951 1.19365 4.28842 1.28458 4.203 1.39394C4.10183 1.52686 4.03595 1.68321 4.01147 1.84844C3.98699 2.01367 4.00472 2.18241 4.063 2.33894C4.08521 2.40684 4.11649 2.47142 4.156 2.53094C4.211 2.62094 4.207 2.61694 4.91 3.32094L5.59 3.99994L4.91 4.67994C4.39 5.19994 4.227 5.36694 4.203 5.39494C4.10183 5.52786 4.03595 5.68421 4.01147 5.84944C3.98699 6.01467 4.00472 6.18341 4.063 6.33994C4.1413 6.55247 4.28844 6.73269 4.481 6.85194C4.65762 6.95951 4.86324 7.00967 5.06955 6.99552C5.27586 6.98137 5.47271 6.90361 5.633 6.77294C5.653 6.75794 6.141 6.27294 6.719 5.69494C7.812 4.59794 7.789 4.62094 7.848 4.53094C7.875 4.48794 7.922 4.39494 7.941 4.33994C7.977 4.24194 8 4.10994 8 3.99994C8 3.88994 7.977 3.75794 7.941 3.65594C7.9147 3.59138 7.88361 3.52887 7.848 3.46894C7.789 3.37894 7.813 3.40194 6.718 2.30494C6.141 1.72694 5.652 1.24194 5.633 1.22294C5.54461 1.15478 5.44696 1.09956 5.343 1.05894C5.20391 1.01133 5.05657 0.992616 4.91 1.00394Z" fill="currentColor"/>
</g>
<defs>
<clipPath id="clip0_2538_16911">
<rect width="8" height="8" fill="white"/>
</clipPath>
</defs>
</svg>
</symbol><symbol id="chevron-down:XS"><svg width="8" height="8" viewBox="0 0 8 8" fill="none" xmlns="http://www.w3.org/2000/svg">
<path d="M1.91 2.00401C1.77193 2.01793 1.63812 2.05966 1.51661 2.12669C1.3951 2.19371 1.28842 2.28465 1.203 2.39401C1.10184 2.52692 1.03595 2.68327 1.01147 2.8485C0.986996 3.01373 1.00472 3.18247 1.063 3.33901C1.08521 3.4069 1.11649 3.47149 1.156 3.53101C1.211 3.62101 1.188 3.59801 2.293 4.70301C3.433 5.84301 3.379 5.79301 3.48 5.85201C3.65673 5.9598 3.86255 6.01009 4.06907 5.99594C4.27559 5.98179 4.47263 5.90389 4.633 5.77301C4.653 5.75801 5.141 5.27301 5.719 4.69501C6.812 3.59801 6.789 3.62101 6.848 3.53101C6.875 3.48801 6.922 3.39501 6.941 3.34001C6.98849 3.20331 7.00722 3.05828 6.996 2.91401C6.97939 2.68414 6.88114 2.46779 6.719 2.30401C6.64014 2.22201 6.54737 2.15463 6.445 2.10501C6.32607 2.04423 6.19544 2.00978 6.062 2.00401C5.85761 1.98871 5.65368 2.03917 5.48 2.14801C5.383 2.20701 5.402 2.18401 4.68 2.91001L4 3.58601L3.32 2.91001C2.617 2.20301 2.621 2.21001 2.535 2.15201C2.47329 2.11713 2.40951 2.08608 2.344 2.05901C2.2046 2.01126 2.05691 1.99254 1.91 2.00401Z" fill="currentColor"/>
</svg>
</symbol><symbol id="chevron-left:XS"><svg width="8" height="8" viewBox="0 0 8 8" fill="none" xmlns="http://www.w3.org/2000/svg">
<path d="M4.41 1.00394C4.262 1.01594 4.11 1.06994 3.98 1.14794C3.879 1.20694 3.934 1.15594 2.793 2.29694C2.42623 2.65951 2.06288 3.02553 1.703 3.39494C1.62059 3.50355 1.56145 3.62798 1.52928 3.76046C1.4971 3.89294 1.49258 4.03064 1.516 4.16494C1.539 4.31994 1.606 4.47294 1.703 4.60494C1.727 4.63294 1.969 4.87894 2.793 5.70294C3.933 6.84294 3.879 6.79294 3.98 6.85194C4.21 6.99594 4.484 7.03494 4.754 6.96494C4.82033 6.94965 4.88449 6.92613 4.945 6.89494C5.07384 6.83194 5.18738 6.74159 5.27771 6.63019C5.36804 6.51879 5.43298 6.38902 5.468 6.24994C5.51098 6.08469 5.51098 5.91119 5.468 5.74594C5.43261 5.6196 5.37468 5.50069 5.297 5.39494C5.06457 5.15343 4.82888 4.91508 4.59 4.67994L3.914 3.99994L4.59 3.31994C5.293 2.61694 5.29 2.62094 5.348 2.53094C5.375 2.48794 5.422 2.39494 5.441 2.33994C5.477 2.24194 5.5 2.10994 5.5 1.99994C5.5 1.88994 5.477 1.75794 5.441 1.65594C5.4147 1.59138 5.38361 1.52887 5.348 1.46894C5.289 1.37786 5.2165 1.29626 5.133 1.22694C5.04571 1.15613 4.94785 1.09944 4.843 1.05894C4.70391 1.01133 4.55657 0.992616 4.41 1.00394Z" fill="currentColor"/>
</svg>
</symbol><symbol id="chevron-right:XS"><svg width="8" height="8" viewBox="0 0 8 8" fill="none" xmlns="http://www.w3.org/2000/svg">
<path d="M3.41 1.00394C3.27193 1.01787 3.13812 1.0596 3.01661 1.12663C2.8951 1.19365 2.78842 1.28458 2.703 1.39394C2.60184 1.52686 2.53595 1.68321 2.51147 1.84844C2.487 2.01367 2.50472 2.18241 2.563 2.33894C2.58521 2.40684 2.61649 2.47142 2.656 2.53094C2.711 2.62094 2.707 2.61694 3.41 3.32094L4.09 3.99994L3.41 4.67994C2.89 5.19994 2.727 5.36694 2.703 5.39494C2.60184 5.52786 2.53595 5.68421 2.51147 5.84944C2.487 6.01467 2.50472 6.18341 2.563 6.33994C2.64131 6.55247 2.78845 6.73269 2.981 6.85194C3.15762 6.95951 3.36325 7.00967 3.56956 6.99552C3.77587 6.98137 3.97272 6.90361 4.133 6.77294C4.153 6.75794 4.641 6.27294 5.219 5.69494C6.312 4.59794 6.289 4.62094 6.348 4.53094C6.375 4.48794 6.422 4.39494 6.441 4.33994C6.477 4.24194 6.5 4.10994 6.5 3.99994C6.5 3.88994 6.477 3.75794 6.441 3.65594C6.4147 3.59138 6.38361 3.52887 6.348 3.46894C6.289 3.37894 6.313 3.40194 5.218 2.30494C4.641 1.72694 4.152 1.24194 4.133 1.22294C4.04461 1.15478 3.94697 1.09956 3.843 1.05894C3.70392 1.01133 3.55657 0.992616 3.41 1.00394Z" fill="currentColor"/>
</svg>
</symbol><symbol id="chevron-up:XS"><svg width="8" height="8" viewBox="0 0 8 8" fill="none" xmlns="http://www.w3.org/2000/svg">
<path d="M3.91 2.00394C3.762 2.01594 3.61 2.06994 3.48 2.14794C3.379 2.20694 3.434 2.15594 2.293 3.29694C1.92623 3.65951 1.56288 4.02553 1.203 4.39494C1.09096 4.54233 1.02241 4.71813 1.00509 4.90245C0.987772 5.08677 1.02238 5.27227 1.105 5.43794C1.156 5.54694 1.203 5.61294 1.293 5.70294C1.38523 5.79976 1.49705 5.87579 1.621 5.92594C1.76888 5.98598 1.92896 6.00986 2.08793 5.9956C2.24689 5.98134 2.40016 5.92935 2.535 5.84394C2.621 5.78894 2.617 5.79294 3.32 5.08994L4 4.40994L4.68 5.08994C5.402 5.81294 5.383 5.79294 5.48 5.85194C5.71 5.99594 5.984 6.03494 6.254 5.96494C6.32033 5.94965 6.38449 5.92613 6.445 5.89494C6.57384 5.83194 6.68738 5.74159 6.77771 5.63019C6.86804 5.51879 6.93298 5.38902 6.968 5.24994C7.01098 5.08469 7.01098 4.91119 6.968 4.74594C6.93261 4.6196 6.87468 4.50069 6.797 4.39494C6.44215 4.0272 6.08279 3.66384 5.719 3.30494C5.141 2.72694 4.652 2.24194 4.633 2.22294C4.54461 2.15478 4.44696 2.09956 4.343 2.05894C4.20391 2.01133 4.05657 1.99262 3.91 2.00394Z" fill="currentColor"/>
</svg>
</symbol><symbol id="copy:XS"><svg width="8" height="8" viewBox="0 0 8 8" fill="none" xmlns="http://www.w3.org/2000/svg">
<g clip-path="url(#clip0_2538_24829)">
<path d="M0.909999 0.004C0.743685 0.0187451 0.583765 0.075147 0.444999 0.168C0.324907 0.247445 0.223591 0.352131 0.148116 0.474756C0.0726412 0.597382 0.0248239 0.734995 0.0079989 0.878C-1.09896e-06 0.939 -1.09896e-06 5.063 0.0079989 5.119C0.0389989 5.349 0.132999 5.548 0.292999 5.708C0.460999 5.876 0.675999 5.974 0.917999 5.998C0.944999 6 1.316 6 1.98 6H3V6.547C3.004 7.094 3.004 7.094 3.012 7.148C3.04459 7.37178 3.15252 7.57776 3.31796 7.73193C3.48341 7.8861 3.69648 7.97925 3.922 7.996C3.957 8 4.414 8 5.535 8L7.102 7.996L7.148 7.988C7.36187 7.95508 7.55945 7.85415 7.71147 7.70015C7.86349 7.54615 7.96185 7.34728 7.992 7.133C7.996 7.09 8 6.993 8 5C8 3.008 7.996 2.91 7.992 2.863C7.96152 2.64926 7.86295 2.45104 7.71092 2.29774C7.55888 2.14445 7.36148 2.04424 7.148 2.012L7.098 2H5V1.453C4.996 0.914 4.996 0.903 4.988 0.852C4.97014 0.721543 4.92602 0.596061 4.8583 0.483137C4.79059 0.370213 4.70067 0.272193 4.594 0.195C4.4623 0.0988591 4.30927 0.036067 4.148 0.012L4.098 0H2.52C1.652 0 0.929999 0.004 0.909999 0.004ZM6 6H5V4H6V6Z" fill="currentColor"/>
</g>
<defs>
<clipPath id="clip0_2538_24829">
<rect width="8" height="8" fill="white"/>
</clipPath>
</defs>
</svg>
</symbol><symbol id="cross:XS"><svg width="8" height="8" viewBox="0 0 8 8" fill="none" xmlns="http://www.w3.org/2000/svg">
<g clip-path="url(#clip0_2538_25212)">
<path d="M0.909997 0.00406805C0.77193 0.0179911 0.638111 0.0597233 0.516605 0.12675C0.395098 0.193776 0.288419 0.284709 0.202997 0.394068C0.120429 0.502589 0.0611931 0.627012 0.0290122 0.759522C-0.00316865 0.892031 -0.00759971 1.02976 0.0159974 1.16407C0.0389974 1.32007 0.105997 1.47307 0.202997 1.60507C0.226997 1.63307 0.492997 1.90207 1.41 2.82007L2.59 4.00007L1.41 5.18007C1.00418 5.58159 0.601832 5.98661 0.202997 6.39507C0.0909634 6.54246 0.0224096 6.71825 0.00509067 6.90258C-0.0122282 7.0869 0.0223789 7.27239 0.104997 7.43807C0.155997 7.54707 0.202997 7.61307 0.292997 7.70307C0.385226 7.79988 0.497048 7.87591 0.620997 7.92607C0.768881 7.98611 0.928957 8.00999 1.08793 7.99573C1.24689 7.98147 1.40016 7.92947 1.535 7.84407C1.625 7.78907 1.59 7.82007 2.82 6.59007L4 5.41007L5.18 6.59007C6.445 7.85507 6.379 7.79307 6.48 7.85207C6.71 7.99607 6.984 8.03507 7.254 7.96507C7.32033 7.94977 7.38449 7.92626 7.445 7.89507C7.57384 7.83206 7.68738 7.74171 7.77771 7.63031C7.86804 7.51891 7.93298 7.38915 7.968 7.25007C8.01098 7.08482 8.01098 6.91132 7.968 6.74607C7.93261 6.61972 7.87468 6.50081 7.797 6.39507C7.39816 5.98661 6.99581 5.58159 6.59 5.18007L5.414 4.00007L6.59 2.82007C7.82 1.59007 7.79 1.62107 7.848 1.53107C7.875 1.48807 7.922 1.39507 7.941 1.34007C7.98849 1.20338 8.00722 1.05834 7.996 0.914068C7.97939 0.684202 7.88114 0.467848 7.719 0.304068C7.64014 0.222071 7.54737 0.154696 7.445 0.105068C7.32607 0.0442895 7.19544 0.00984164 7.062 0.00406805C6.8576 -0.0112251 6.65368 0.0392313 6.48 0.148068C6.38 0.207068 6.445 0.145068 5.18 1.41007L4 2.58607L2.82 1.41007C1.59 0.180068 1.625 0.210068 1.535 0.152068C1.47327 0.117537 1.40948 0.0868126 1.344 0.060068C1.20467 0.0119816 1.05697 -0.00707618 0.909997 0.00406805Z" fill="currentColor"/>
</g>
<defs>
<clipPath id="clip0_2538_25212">
<rect width="8" height="8" fill="white"/>
</clipPath>
</defs>
</svg>
</symbol><symbol id="download:XS"><svg width="8" height="8" viewBox="0 0 8 8" fill="none" xmlns="http://www.w3.org/2000/svg">
<path d="M3.438 0.004C3.32366 0.0163679 3.21791 0.0704914 3.141 0.156C3.07504 0.224317 3.02904 0.309394 3.008 0.402C3.004 0.43 3.004 0.496 3 1.715V3H2.59C2.324 3 2.164 3 2.145 3.004C2.0409 3.01754 1.94358 3.06312 1.86654 3.13443C1.78949 3.20574 1.73653 3.29925 1.715 3.402C1.70776 3.46038 1.70642 3.51935 1.711 3.578C1.7252 3.656 1.75738 3.72961 1.805 3.793C1.82 3.816 2.137 4.133 2.758 4.758C3.781 5.778 3.711 5.711 3.797 5.75C3.86387 5.77874 3.9361 5.79289 4.00887 5.79151C4.08163 5.79013 4.15327 5.77325 4.219 5.742C4.293 5.703 4.242 5.754 5.239 4.758C5.863 4.133 6.179 3.816 6.199 3.793C6.23008 3.7488 6.25372 3.69982 6.269 3.648C6.30381 3.54238 6.30134 3.42802 6.262 3.324C6.23568 3.25538 6.19477 3.19329 6.14212 3.14201C6.08946 3.09073 6.0263 3.05149 5.957 3.027C5.879 3 5.91 3.004 5.434 3H5V1.715C5 0.496 4.996 0.43 4.992 0.402C4.97264 0.304923 4.92374 0.216205 4.852 0.148C4.78514 0.0789611 4.69909 0.0315832 4.605 0.012C4.57 0.004 4.566 0.004 4.015 0C3.703 0 3.453 0.004 3.438 0.004ZM1.91 6.004C1.74369 6.01875 1.58377 6.07515 1.445 6.168C1.32849 6.24483 1.22964 6.34554 1.15499 6.46346C1.08034 6.58138 1.0316 6.71382 1.012 6.852C0.990761 6.9878 0.997914 7.12652 1.03301 7.25941C1.0681 7.3923 1.13037 7.51647 1.21589 7.62407C1.30141 7.73167 1.40831 7.82037 1.52985 7.88456C1.65139 7.94875 1.78492 7.98704 1.922 7.997C1.957 8 2.55 8 4.035 8L6.102 7.996L6.148 7.988C6.36188 7.95508 6.55946 7.85415 6.71147 7.70015C6.86349 7.54615 6.96186 7.34728 6.992 7.133C6.99984 7.04317 6.99984 6.95283 6.992 6.863C6.97293 6.73093 6.92795 6.60393 6.85965 6.48929C6.79135 6.37465 6.70107 6.27464 6.594 6.195C6.46231 6.09886 6.30927 6.03607 6.148 6.012L6.098 6H4.02C2.875 6 1.93 6.004 1.91 6.004Z" fill="currentColor"/>
</svg>
</symbol><symbol id="magnifying-glass:XS"><svg width="8" height="8" viewBox="0 0 8 8" fill="none" xmlns="http://www.w3.org/2000/svg">
<g clip-path="url(#clip0_2538_41218)">
<path d="M3.336 0.00380047C2.638 0.0357384 1.96566 0.276458 1.406 0.6948C1.18068 0.859938 0.977374 1.05317 0.801 1.2698C0.351454 1.81284 0.0765304 2.47906 0.0122874 3.1811C-0.0519557 3.88313 0.0974819 4.58819 0.441 5.2038C0.684 5.6408 1.016 6.0158 1.411 6.3088C1.668 6.4998 1.961 6.6598 2.258 6.7728C2.7114 6.94341 3.19508 7.01877 3.67889 6.99416C4.1627 6.96956 4.63625 6.84553 5.07 6.6298C5.1063 6.60949 5.14447 6.59275 5.184 6.5798C5.184 6.5798 5.195 6.5948 5.211 6.6098C5.227 6.6338 5.414 6.8298 5.793 7.2038C6.391 7.8018 6.383 7.7938 6.48 7.8528C6.71 7.9968 6.984 8.0358 7.254 7.9658C7.32033 7.95051 7.38449 7.92699 7.445 7.8958C7.57384 7.8328 7.68738 7.74244 7.77771 7.63104C7.86804 7.51964 7.93298 7.38988 7.968 7.2508C8.01099 7.08555 8.01099 6.91205 7.968 6.7468C7.93261 6.62045 7.87468 6.50154 7.797 6.3958C7.773 6.3678 7.637 6.2238 7.219 5.8058C6.73 5.3168 6.625 5.2158 6.582 5.1888L6.574 5.1808L6.629 5.0708C6.85913 4.60766 6.98468 4.09961 6.99678 3.58259C7.00887 3.06556 6.90722 2.5522 6.699 2.0788C6.5531 1.75274 6.35966 1.45012 6.125 1.1808C6.02531 1.07685 5.92362 0.974831 5.82 0.8748C5.55875 0.647519 5.2669 0.458006 4.953 0.3118C4.44551 0.0841349 3.89161 -0.0220278 3.336 0.00380047ZM3.676 2.0078C4.04904 2.05155 4.39185 2.23438 4.636 2.5198C4.76921 2.67435 4.86949 2.85446 4.9307 3.0491C4.99191 3.24374 5.01277 3.44882 4.992 3.6518C4.97329 3.84822 4.91575 4.03897 4.82272 4.21298C4.7297 4.38698 4.60304 4.54078 4.4501 4.66544C4.29715 4.7901 4.12097 4.88314 3.93178 4.93917C3.74259 4.99519 3.54416 5.01308 3.348 4.9918C3.05765 4.96375 2.78192 4.8511 2.555 4.6678C2.36063 4.51024 2.20877 4.30657 2.11323 4.07532C2.01769 3.84407 1.98152 3.5926 2.008 3.3438C2.03013 3.13127 2.09732 2.9259 2.2051 2.74139C2.31287 2.55688 2.45875 2.39748 2.633 2.2738C2.84 2.1248 3.093 2.0308 3.343 2.0078C3.367 2.0038 3.395 2.0038 3.406 2.0038C3.441 1.9998 3.625 2.0038 3.676 2.0078Z" fill="currentColor"/>
</g>
<defs>
<clipPath id="clip0_2538_41218">
<rect width="8" height="8" fill="white"/>
</clipPath>
</defs>
</svg>
</symbol><symbol id="minus:XS"><svg width="8" height="8" viewBox="0 0 8 8" fill="none" xmlns="http://www.w3.org/2000/svg">
<path d="M0.910003 3.004C0.743689 3.01875 0.583769 3.07515 0.445003 3.168C0.328491 3.24483 0.229635 3.34554 0.154987 3.46346C0.080338 3.58138 0.0316003 3.71382 0.0120029 3.852C-0.00923849 3.9878 -0.0020863 4.12652 0.0330076 4.25941C0.0681015 4.3923 0.130374 4.51647 0.215892 4.62407C0.30141 4.73167 0.408315 4.82037 0.529852 4.88456C0.651389 4.94875 0.784918 4.98704 0.922003 4.997C0.957003 5 1.824 5 4.035 5L7.102 4.996L7.148 4.988C7.36188 4.95508 7.55946 4.85415 7.71147 4.70015C7.86349 4.54615 7.96186 4.34728 7.992 4.133C7.99984 4.04317 7.99984 3.95283 7.992 3.863C7.97293 3.73093 7.92795 3.60393 7.85965 3.48929C7.79135 3.37466 7.70107 3.27464 7.594 3.195C7.46231 3.09886 7.30927 3.03607 7.148 3.012L7.098 3H4.02C2.316 3 0.930003 3.004 0.910003 3.004Z" fill="currentColor"/>
</svg>
</symbol><symbol id="pencil:XS"><svg width="8" height="8" viewBox="0 0 8 8" fill="none" xmlns="http://www.w3.org/2000/svg">
<g clip-path="url(#clip0_2538_45410)">
<path d="M5.434 0.417895C5.23823 0.429938 5.05038 0.499513 4.894 0.617895C4.867 0.640895 4.762 0.741895 4.43 1.06989C4.043 1.45689 4.004 1.49589 4.008 1.50389C4.25842 1.91898 4.55024 2.30763 4.879 2.66389C4.965 2.75789 5.242 3.03489 5.336 3.12089C5.68848 3.44666 6.07312 3.7358 6.484 3.98389L6.504 3.99589L6.93 3.56989C7.246 3.24989 7.36 3.13289 7.383 3.10489C7.653 2.73789 7.653 2.26189 7.383 1.89489C7.18013 1.68217 6.97445 1.47215 6.766 1.26489C6.55822 1.05598 6.34821 0.8493 6.136 0.644895C6.03176 0.557708 5.91102 0.49241 5.781 0.452895C5.6683 0.420869 5.55082 0.40902 5.434 0.417895ZM1.973 3.53089C0.573998 4.92589 0.639998 4.85989 0.581998 4.95689C0.520418 5.05798 0.476775 5.16894 0.452998 5.28489L0.276998 6.32489C0.0939978 7.42389 0.101998 7.3819 0.112998 7.4679C0.147998 7.68589 0.323998 7.8539 0.542998 7.8859C0.620998 7.8969 0.597998 7.9009 1.676 7.7219L2.715 7.5459C2.82989 7.52278 2.93966 7.47908 3.039 7.41689C3.141 7.35389 3.07 7.4249 4.469 6.0269L5.773 4.7219L5.695 4.6709C4.77226 4.0507 3.97692 3.25943 3.352 2.33989C3.312 2.28089 3.282 2.22989 3.277 2.22989C3.277 2.22689 2.687 2.81289 1.973 3.53089Z" fill="currentColor"/>
</g>
<defs>
<clipPath id="clip0_2538_45410">
<rect width="8" height="8" fill="white"/>
</clipPath>
</defs>
</svg>
</symbol><symbol id="plus:XS"><svg width="8" height="8" viewBox="0 0 8 8" fill="none" xmlns="http://www.w3.org/2000/svg">
<g clip-path="url(#clip0_2538_45790)">
<path d="M3.91 0.00389272C3.68668 0.0234126 3.47649 0.117776 3.3135 0.271691C3.15051 0.425605 3.04427 0.63005 3.012 0.851893L3.004 0.901893L3 1.95289V2.99989H1.98C1.316 2.99989 0.945002 2.99989 0.918002 3.00389C0.693191 3.02151 0.481052 3.11505 0.316416 3.26914C0.151781 3.42324 0.044434 3.62874 0.0120016 3.85189C0.000353308 3.95022 0.000353308 4.04957 0.0120016 4.14789C0.0422171 4.35988 0.140894 4.55618 0.293002 4.70689C0.461002 4.87489 0.676002 4.97289 0.918002 4.99689C0.945002 4.99989 1.316 4.99989 1.98 4.99989H3V6.04689L3.004 7.09389L3.012 7.14789C3.04778 7.38454 3.16732 7.60048 3.34889 7.75641C3.53045 7.91235 3.76196 7.99792 4.00129 7.99756C4.24063 7.99719 4.47188 7.91092 4.65297 7.75443C4.83405 7.59795 4.95294 7.38165 4.988 7.14489L5 7.09389V4.99989H6.047L7.097 4.99589L7.148 4.98789C7.36187 4.95498 7.55945 4.85404 7.71147 4.70004C7.86349 4.54604 7.96186 4.34717 7.992 4.13289C7.99984 4.04306 7.99984 3.95272 7.992 3.86289C7.97293 3.73082 7.92795 3.60382 7.85965 3.48918C7.79135 3.37455 7.70107 3.27454 7.594 3.19489C7.46231 3.09875 7.30927 3.03596 7.148 3.01189L7.098 2.99989H5V0.901893L4.988 0.851893C4.95004 0.599874 4.81737 0.371826 4.61706 0.214252C4.41675 0.056678 4.16387 -0.0185555 3.91 0.00389272Z" fill="currentColor"/>
</g>
<defs>
<clipPath id="clip0_2538_45790">
<rect width="8" height="8" fill="white"/>
</clipPath>
</defs>
</svg>
</symbol><symbol id="star:XS"><svg width="8" height="8" viewBox="0 0 8 8" fill="none" xmlns="http://www.w3.org/2000/svg">
<path d="M3.91 0.953209C3.82565 0.966689 3.74643 1.00243 3.68051 1.05675C3.61459 1.11107 3.56436 1.182 3.535 1.26221C3.527 1.28221 3.441 1.55921 3.344 1.88221L3.152 2.48821C3.12481 2.55636 3.08321 2.61783 3.03005 2.6684C2.97689 2.71897 2.91342 2.75746 2.844 2.78121C2.774 2.80521 2.824 2.80121 2.09 2.80521L1.414 2.80921L1.375 2.81621C1.27763 2.83737 1.18869 2.88681 1.11931 2.95833C1.04993 3.02984 1.0032 3.12025 0.985 3.21821C0.976214 3.28199 0.977226 3.34674 0.988 3.41021C1.00686 3.50632 1.05591 3.59391 1.128 3.66021C1.148 3.68021 1.391 3.86721 1.68 4.09021C2.2 4.48421 2.234 4.51221 2.273 4.56621C2.3161 4.62374 2.34643 4.6898 2.36195 4.75999C2.37747 4.83018 2.37783 4.90287 2.363 4.97321C2.355 5.00021 2.289 5.18821 2.133 5.60521C1.883 6.28121 1.891 6.25821 1.879 6.30521C1.8667 6.3627 1.864 6.42183 1.871 6.48021C1.88839 6.58411 1.93752 6.68007 2.01165 6.75492C2.08578 6.82977 2.18127 6.87982 2.285 6.89821C2.325 6.90621 2.43 6.90621 2.473 6.89521C2.52344 6.88167 2.57187 6.86149 2.617 6.83521C2.633 6.82821 2.887 6.65221 3.176 6.44521L3.726 6.05521C3.734 6.05121 3.762 6.03521 3.781 6.02721C3.84409 5.9949 3.9135 5.97681 3.98434 5.97422C4.05517 5.97163 4.12572 5.9846 4.191 6.01221C4.246 6.03521 4.191 5.99621 5.027 6.58621C5.207 6.71521 5.367 6.82821 5.383 6.83621C5.42818 6.86215 5.4766 6.88199 5.527 6.89521C5.59047 6.90598 5.65522 6.90699 5.719 6.89821C5.78823 6.88473 5.85404 6.85741 5.91246 6.81789C5.97088 6.77837 6.02072 6.72746 6.059 6.66821C6.09877 6.60468 6.12335 6.53282 6.13081 6.45824C6.13826 6.38366 6.12841 6.30836 6.102 6.23821C6.098 6.21821 5.992 5.93821 5.867 5.60521C5.707 5.17521 5.645 5.00021 5.637 4.96921C5.62589 4.90444 5.62454 4.83837 5.633 4.77321C5.65616 4.66026 5.71676 4.55843 5.805 4.48421C5.816 4.47321 6.055 4.29321 6.335 4.07821C6.625 3.85521 6.855 3.68021 6.871 3.66021C6.94229 3.59327 6.99118 3.50597 7.011 3.41021C7.03774 3.28033 7.01221 3.14514 6.93996 3.03395C6.86771 2.92277 6.75454 2.84453 6.625 2.81621L6.59 2.81021L5.914 2.80621C5.16 2.80221 5.223 2.80621 5.141 2.77421C5.07456 2.75054 5.01399 2.71283 4.96343 2.66365C4.91287 2.61447 4.8735 2.55497 4.848 2.48921C4.844 2.47821 4.758 2.20421 4.66 1.88421C4.559 1.56021 4.473 1.27821 4.465 1.26321C4.43404 1.18269 4.38278 1.11155 4.31619 1.0567C4.2496 1.00185 4.16996 0.965167 4.085 0.950209C4.02668 0.945736 3.96806 0.946076 3.91 0.953209Z" fill="currentColor"/>
</svg>
</symbol><symbol id="trash:XS"><svg width="8" height="8" viewBox="0 0 8 8" fill="none" xmlns="http://www.w3.org/2000/svg">
<g clip-path="url(#clip0_2538_58261)">
<path d="M3.246 0.00390662C3.17553 0.0141602 3.10796 0.0389163 3.04754 0.076611C2.98713 0.114306 2.93519 0.16412 2.895 0.222907C2.883 0.242907 2.816 0.366907 2.75 0.502907C2.68 0.640907 2.617 0.765907 2.605 0.780907C2.58693 0.8043 2.56756 0.826668 2.547 0.847907C2.47975 0.918786 2.39258 0.967601 2.297 0.987907C2.266 0.995907 2.257 0.995907 1.597 0.999907C0.980001 1.00391 0.930001 1.00391 0.902001 1.00791C0.805256 1.02817 0.716791 1.07693 0.648001 1.14791C0.600897 1.19338 0.56377 1.24816 0.538979 1.30876C0.514189 1.36936 0.502277 1.43446 0.504001 1.49991C0.504001 1.63991 0.551001 1.75391 0.648001 1.85191C0.723001 1.92591 0.808001 1.97191 0.918001 1.99191C0.957001 1.99991 7.043 1.99991 7.082 1.99191C7.18462 1.97519 7.27921 1.92614 7.352 1.85191C7.39911 1.80643 7.43623 1.75165 7.46102 1.69105C7.48581 1.63045 7.49773 1.56536 7.496 1.49991C7.49773 1.43446 7.48581 1.36936 7.46102 1.30876C7.43623 1.24816 7.39911 1.19338 7.352 1.14791C7.28452 1.07968 7.19874 1.03244 7.105 1.01191C7.07 1.00391 7.062 1.00391 6.402 0.999907C5.742 0.995907 5.734 0.995907 5.703 0.987907C5.64042 0.973849 5.58083 0.948793 5.527 0.913907C5.47734 0.875573 5.43296 0.830854 5.395 0.780907C5.387 0.765907 5.316 0.636907 5.246 0.491907C5.106 0.210907 5.098 0.199907 5.036 0.136907C4.95666 0.0641428 4.85677 0.0176882 4.75 0.00390662C4.24868 -1.22935e-07 3.74733 -1.22935e-07 3.246 0.00390662ZM1.531 3.00391C1.41945 3.01557 1.31502 3.06425 1.23437 3.14219C1.15371 3.22012 1.10148 3.32282 1.086 3.43391C1.074 3.50791 1.066 3.44491 1.356 5.37891C1.536 6.55891 1.633 7.20691 1.641 7.23391C1.687 7.42991 1.797 7.60891 1.941 7.74191C2.109 7.89091 2.312 7.97691 2.535 7.99591C2.613 8.00391 5.469 7.99991 5.515 7.99191C5.71256 7.96632 5.89789 7.88201 6.047 7.74991C6.22194 7.59763 6.338 7.38887 6.375 7.15991C6.379 7.13691 6.504 6.31591 6.648 5.33991C6.938 3.41391 6.926 3.50391 6.914 3.42191C6.8955 3.31784 6.84682 3.22152 6.774 3.14491C6.7041 3.07896 6.61775 3.03303 6.524 3.01191L6.487 2.99991H4.016C2.656 2.99991 1.539 2.99991 1.531 3.00391Z" fill="currentColor"/>
</g>
<defs>
<clipPath id="clip0_2538_58261">
<rect width="8" height="8" fill="white"/>
</clipPath>
</defs>
</svg>
</symbol><symbol id="upload:XS"><svg width="8" height="8" viewBox="0 0 8 8" fill="none" xmlns="http://www.w3.org/2000/svg">
<path d="M3.938 0.210077C3.88961 0.217879 3.84229 0.231303 3.797 0.250077C3.711 0.290077 3.777 0.227077 2.757 1.24208C2.137 1.86708 1.82 2.18408 1.805 2.20708C1.75738 2.27046 1.7252 2.34408 1.711 2.42208C1.70646 2.48073 1.7078 2.53969 1.715 2.59808C1.73708 2.70057 1.7902 2.79377 1.86714 2.86499C1.94409 2.93621 2.04111 2.98198 2.145 2.99608C2.165 3.00008 2.328 3.00008 2.59 3.00008H3V3.78508C3.004 4.52008 3.004 4.57008 3.008 4.59808C3.02826 4.69482 3.07702 4.78329 3.148 4.85208C3.223 4.92608 3.308 4.97208 3.418 4.99208C3.457 5.00008 4.543 5.00008 4.582 4.99208C4.68462 4.97536 4.77921 4.92631 4.852 4.85208C4.92298 4.78329 4.97174 4.69482 4.992 4.59808C4.996 4.57008 4.996 4.52008 5 3.78508V3.00008H5.41C5.672 3.00008 5.836 3.00008 5.855 2.99608C5.9557 2.98376 6.05019 2.9408 6.12567 2.87301C6.20115 2.80523 6.25398 2.71588 6.277 2.61708C6.30003 2.52989 6.2976 2.43793 6.27 2.35208C6.25472 2.30025 6.23108 2.25128 6.2 2.20708C6.18 2.18408 5.863 1.86308 5.238 1.24208C4.242 0.246077 4.293 0.297077 4.218 0.258077C4.1791 0.240842 4.139 0.22647 4.098 0.215077C4.04497 0.207947 3.99132 0.206606 3.938 0.211077V0.210077ZM1.91 6.00408C1.74369 6.01882 1.58377 6.07522 1.445 6.16808C1.32849 6.24491 1.22964 6.34562 1.15499 6.46354C1.08034 6.58146 1.0316 6.7139 1.012 6.85208C0.990761 6.98787 0.997914 7.1266 1.03301 7.25949C1.0681 7.39238 1.13037 7.51655 1.21589 7.62415C1.30141 7.73175 1.40831 7.82045 1.52985 7.88464C1.65139 7.94883 1.78492 7.98711 1.922 7.99708C1.957 8.00008 2.55 8.00008 4.035 8.00008L6.102 7.99608L6.148 7.98808C6.36188 7.95516 6.55946 7.85423 6.71147 7.70023C6.86349 7.54623 6.96186 7.34736 6.992 7.13308C6.99984 7.04325 6.99984 6.95291 6.992 6.86308C6.97293 6.73101 6.92795 6.604 6.85965 6.48937C6.79135 6.37473 6.70107 6.27472 6.594 6.19508C6.46231 6.09894 6.30927 6.03614 6.148 6.01208L6.098 6.00008H4.02C2.875 6.00008 1.93 6.00408 1.91 6.00408Z" fill="currentColor"/>
</svg>
</symbol><symbol id="user:XS"><svg width="8" height="8" viewBox="0 0 8 8" fill="none" xmlns="http://www.w3.org/2000/svg">
<g clip-path="url(#clip0_2538_59879)">
<path d="M3.91 0.00412826C3.648 0.0201283 3.434 0.0741283 3.215 0.187128C3.00967 0.288826 2.82658 0.430301 2.67637 0.603341C2.52616 0.776381 2.41183 0.977536 2.34 1.19513C2.25001 1.46802 2.22821 1.7588 2.27649 2.04206C2.32478 2.32533 2.44168 2.59246 2.617 2.82013C3.02 3.34013 3.668 3.58613 4.32 3.46913C4.58574 3.42083 4.83662 3.31144 5.05284 3.14958C5.26907 2.98772 5.44472 2.77783 5.56593 2.53647C5.68715 2.2951 5.75061 2.02887 5.75132 1.75878C5.75203 1.48868 5.68995 1.22212 5.57 0.980128C5.531 0.894128 5.512 0.862128 5.46 0.780128C5.32041 0.570132 5.13722 0.392664 4.9229 0.259795C4.70859 0.126926 4.46817 0.0417733 4.218 0.0101283C4.1156 0.000873095 4.01265 -0.00179813 3.91 0.00412826ZM3.82 4.00413C3.60636 4.01426 3.39376 4.04034 3.184 4.08213C2.50046 4.22675 1.86641 4.54702 1.34437 5.01137C0.822329 5.47572 0.430323 6.06811 0.207001 6.73013C0.163332 6.84823 0.130529 6.97007 0.109001 7.09413C0.101189 7.16291 0.101189 7.23235 0.109001 7.30113C0.128773 7.42236 0.176469 7.53732 0.248321 7.63694C0.320173 7.73656 0.41421 7.81811 0.523001 7.87513C0.621001 7.93413 0.738001 7.96913 0.867001 7.99213C0.910001 7.99613 1.047 7.99613 4 7.99613C6.902 7.99613 7.09 7.99613 7.133 7.99213C7.24938 7.97571 7.36184 7.93845 7.465 7.88213C7.57635 7.82464 7.67302 7.74236 7.74756 7.64163C7.82211 7.5409 7.87255 7.42441 7.895 7.30113C7.90281 7.23369 7.90281 7.16557 7.895 7.09813C7.80466 6.69266 7.64896 6.30459 7.434 5.94913C7.16231 5.49511 6.80363 5.09922 6.37857 4.78415C5.9535 4.46908 5.47041 4.24105 4.957 4.11313C4.58485 4.02445 4.20225 3.98744 3.82 4.00313V4.00413Z" fill="currentColor"/>
</g>
<defs>
<clipPath id="clip0_2538_59879">
<rect width="8" height="8" fill="white"/>
</clipPath>
</defs>
</svg>
</symbol><symbol id="wheel:XS"><svg width="8" height="8" viewBox="0 0 8 8" fill="none" xmlns="http://www.w3.org/2000/svg">
<g clip-path="url(#clip0_2538_60737)">
<path d="M3.438 0.004C3.34835 0.0158749 3.26328 0.050661 3.191 0.105C3.11556 0.166573 3.05877 0.24795 3.027 0.34C3.00691 0.402978 2.99778 0.468934 3 0.535C3 0.59 2.992 0.652 2.992 0.675C2.95718 0.926032 2.82722 1.15408 2.629 1.312C2.54498 1.38073 2.44998 1.43482 2.348 1.472C2.20958 1.52464 2.06106 1.54532 1.91353 1.53251C1.766 1.5197 1.62327 1.47371 1.496 1.398C1.461 1.378 1.418 1.359 1.402 1.352C1.30986 1.31546 1.20888 1.30736 1.1121 1.32874C1.01531 1.35013 0.927155 1.40003 0.858998 1.472C0.841463 1.48837 0.826013 1.50685 0.812998 1.527C0.792998 1.551 0.292998 2.422 0.269998 2.465C0.25213 2.50537 0.237745 2.54718 0.226998 2.59C0.218306 2.65479 0.219317 2.72051 0.229998 2.785C0.249998 2.883 0.292998 2.961 0.359998 3.027C0.396104 3.06744 0.439534 3.10069 0.487998 3.125C0.679998 3.238 0.807997 3.375 0.897997 3.555C0.928155 3.61734 0.95162 3.68271 0.967997 3.75C0.990632 3.83136 1.00141 3.91556 0.999997 4C1.00198 4.08309 0.99153 4.166 0.968997 4.246C0.95336 4.31512 0.929874 4.38222 0.898997 4.446C0.809387 4.62653 0.666191 4.77496 0.488997 4.871C0.440418 4.89772 0.39651 4.93217 0.358998 4.973C0.293043 5.03916 0.248157 5.12336 0.229998 5.215C0.219295 5.2768 0.218282 5.33989 0.226998 5.402C0.233998 5.442 0.253998 5.504 0.269998 5.535C0.292998 5.578 0.792997 6.445 0.811997 6.473C0.887543 6.57834 1.00077 6.65052 1.12815 6.67454C1.25553 6.69856 1.38727 6.67259 1.496 6.602C1.63848 6.51642 1.80028 6.46824 1.96637 6.46194C2.13246 6.45565 2.29745 6.49144 2.446 6.566C2.546 6.617 2.629 6.68 2.711 6.758C2.821 6.871 2.895 6.992 2.949 7.141C2.98 7.242 2.996 7.324 3 7.465C2.99778 7.53107 3.00691 7.59702 3.027 7.66C3.05051 7.73317 3.09213 7.79922 3.148 7.852C3.223 7.926 3.308 7.972 3.418 7.992C3.457 8 4.543 8 4.582 7.992C4.68461 7.97529 4.77921 7.92624 4.852 7.852C4.9075 7.79911 4.94878 7.73307 4.972 7.66C4.99282 7.59545 5.00229 7.52778 5 7.46C5.004 7.406 5.008 7.344 5.012 7.32C5.03287 7.16886 5.08852 7.02463 5.17459 6.89865C5.26066 6.77267 5.37479 6.66839 5.508 6.594C5.65905 6.50786 5.83012 6.46302 6.004 6.464C6.18 6.464 6.332 6.504 6.5 6.598C6.60802 6.67199 6.74088 6.70037 6.8697 6.67696C6.99852 6.65356 7.11291 6.58026 7.188 6.473C7.207 6.445 7.707 5.578 7.73 5.535C7.76247 5.46664 7.77856 5.39166 7.777 5.316C7.78048 5.22469 7.75726 5.13434 7.7102 5.05602C7.66313 4.9777 7.59426 4.91479 7.512 4.875C7.42886 4.82666 7.35252 4.76748 7.285 4.699C7.1933 4.60756 7.12112 4.49846 7.07282 4.37831C7.02452 4.25816 7.00111 4.12946 7.004 4C7.004 3.898 7.008 3.84 7.031 3.75C7.07332 3.57799 7.16265 3.42115 7.289 3.297C7.35464 3.22921 7.42976 3.17127 7.512 3.125C7.59476 3.08467 7.66399 3.02111 7.71123 2.94209C7.75847 2.86306 7.78167 2.77199 7.778 2.68C7.77881 2.60559 7.76238 2.532 7.73 2.465C7.71 2.43 7.215 1.563 7.191 1.535C7.14465 1.46591 7.08174 1.40952 7.008 1.371C6.93787 1.33513 6.8597 1.31791 6.781 1.321C6.67813 1.31828 6.57702 1.34802 6.492 1.406C6.34209 1.4914 6.17253 1.5363 6 1.5363C5.82747 1.5363 5.65791 1.4914 5.508 1.406C5.37479 1.33161 5.26066 1.22733 5.17459 1.10135C5.08852 0.97537 5.03287 0.831138 5.012 0.68C5.008 0.656 5.004 0.594 5 0.535C5.00221 0.468934 4.99308 0.402978 4.973 0.34C4.94949 0.266826 4.90787 0.20078 4.852 0.148C4.78514 0.0789611 4.69909 0.0315832 4.605 0.012C4.57 0.004 4.566 0.004 4.015 0C3.703 0 3.453 0.004 3.438 0.004ZM4.156 3.012C4.36528 3.04252 4.55862 3.14131 4.706 3.293C4.80495 3.39211 4.88201 3.51089 4.93218 3.64165C4.98235 3.77241 5.00452 3.91224 4.99727 4.05211C4.99001 4.19198 4.95348 4.32877 4.89005 4.45363C4.82661 4.5785 4.73768 4.68866 4.629 4.777C4.32 5.023 3.899 5.07 3.551 4.895C3.35834 4.79673 3.2026 4.63882 3.10702 4.44482C3.01143 4.25081 2.98111 4.03111 3.02058 3.81847C3.06005 3.60583 3.16719 3.41164 3.32603 3.26486C3.48488 3.11809 3.68691 3.02658 3.902 3.004C3.957 2.996 4.098 3.004 4.156 3.012Z" fill="currentColor"/>
</g>
<defs>
<clipPath id="clip0_2538_60737">
<rect width="8" height="8" fill="white"/>
</clipPath>
</defs>
</svg>
</symbol></svg>