<svg xmlns="http://www.w3.org/2000/svg" viewBox="0 0 32 32">
  <defs>
    <linearGradient id="design-tokens-a" x1="0%" x2="100%" y1="0%" y2="100%">
      <stop offset="0%" stop-color="#E96065"/>
      <stop offset="100%" stop-color="#2C1F56"/>
    </linearGradient>
  </defs>
  <path fill="url(#design-tokens-a)" d="M159.677419,20 C160.08526,20 160.415881,20.3306205 160.415881,20.7384615 C160.415881,21.1123158 160.138068,21.4212834 159.777624,21.4701818 L159.677419,21.4769231 L134.707692,21.4769231 C134.070441,21.4769231 133.546305,21.9612304 133.483277,22.5818533 L133.476923,22.7076923 L133.476923,49.2923077 C133.476923,49.9295593 133.96123,50.4536949 134.581853,50.5167226 L134.707692,50.5230769 L161.292308,50.5230769 C161.929559,50.5230769 162.453695,50.0387696 162.516723,49.4181467 L162.523077,49.2923077 L162.523077,27.0974814 C162.523077,26.6896403 162.853697,26.3590198 163.261538,26.3590198 C163.635393,26.3590198 163.94436,26.6368329 163.993259,26.9972765 L164,27.0974814 L164,49.2923077 C164,50.732339 162.87586,51.9098134 161.457253,51.9950584 L161.292308,52 L134.707692,52 C133.267661,52 132.090187,50.8758601 132.004942,49.4572528 L132,49.2923077 L132,22.7076923 C132,21.267661 133.12414,20.0901866 134.542747,20.0049416 L134.707692,20 L159.677419,20 Z M154.5,37.25 C157.399495,37.25 159.75,39.6005051 159.75,42.5 C159.75,45.3994949 157.399495,47.75 154.5,47.75 C151.600505,47.75 149.25,45.3994949 149.25,42.5 C149.25,39.6005051 151.600505,37.25 154.5,37.25 Z M142.113241,37.5674203 L142.17082,37.6645898 L146.67082,46.6645898 C146.904575,47.1320984 146.600474,47.6770022 146.102152,47.743289 L146,47.75 L137,47.75 C136.47731,47.75 136.125931,47.2343155 136.289498,46.7589587 L136.32918,46.6645898 L140.82918,37.6645898 C141.088298,37.1463525 141.797822,37.1139627 142.113241,37.5674203 Z M154.5,38.75 C152.428932,38.75 150.75,40.4289322 150.75,42.5 C150.75,44.5710678 152.428932,46.25 154.5,46.25 C156.571068,46.25 158.25,44.5710678 158.25,42.5 C158.25,40.4289322 156.571068,38.75 154.5,38.75 Z M141.5,39.676 L138.213,46.25 L144.786,46.25 L141.5,39.676 Z M154.338265,24.330571 L154.440839,24.3932373 L159.196122,27.8481523 C159.42978,28.017915 159.54265,28.3042544 159.49433,28.5828221 L159.468575,28.6866778 L157.652219,34.2768477 C157.562969,34.5515295 157.325523,34.7473595 157.045658,34.7874862 L156.938926,34.795085 L151.061074,34.795085 C150.772256,34.795085 150.512636,34.6297751 150.38799,34.3760071 L150.347781,34.2768477 L148.531425,28.6866778 C148.442176,28.411996 148.519167,28.1139989 148.721997,27.917035 L148.803878,27.8481523 L153.559161,24.3932373 C153.789168,24.2261271 154.090441,24.2052384 154.338265,24.330571 Z M144,25.25 C144.918173,25.25 145.671192,25.9571103 145.744199,26.8564728 L145.75,27 L145.75,33 C145.75,33.9181734 145.04289,34.6711923 144.143527,34.7441988 L144,34.75 L138,34.75 C137.081827,34.75 136.328808,34.0428897 136.255801,33.1435272 L136.25,33 L136.25,27 C136.25,26.0818266 136.95711,25.3288077 137.856473,25.2558012 L138,25.25 L144,25.25 Z M154,25.926 L150.126,28.74 L151.606,33.295 L156.393,33.295 L157.873,28.74 L154,25.926 Z M144,26.75 L138,26.75 C137.881653,26.75 137.782513,26.8322334 137.756603,26.9426773 L137.75,27 L137.75,33 C137.75,33.1183467 137.832233,33.2174868 137.942677,33.2433973 L138,33.25 L144,33.25 C144.118347,33.25 144.217487,33.1677666 144.243397,33.0573227 L144.25,33 L144.25,27 C144.25,26.8619288 144.138071,26.75 144,26.75 Z" transform="translate(-132 -20)"/>
</svg>
