<svg xmlns="http://www.w3.org/2000/svg" fill="none" viewBox="0 0 32 32">
  <g clip-path="url(#documentation__clip0)">
    <path fill="url(#documentation__paint0_linear)" fill-rule="evenodd" d="M13.968 14.553a.683.683 0 01-.596-.348.648.648 0 01-.053-.503L17.383.472a.67.67 0 01.493-.454.688.688 0 01.648.19.65.65 0 01.156.643l-4.063 13.23a.675.675 0 01-.649.472zm-3.188-1.517a.69.69 0 00.95-.008.65.65 0 00.008-.927l-4.94-4.824 4.94-4.825a.651.651 0 00.185-.643.67.67 0 00-.484-.473.688.688 0 00-.659.18L5.362 6.81a.65.65 0 000 .935l5.418 5.292zm9.482 0a.689.689 0 00.957 0l5.418-5.292a.65.65 0 000-.935L21.22 1.517a.689.689 0 00-.949.008.65.65 0 00-.008.927l4.94 4.825-4.94 4.824a.65.65 0 000 .935zM5.164 18.522a.67.67 0 01-.677.662.67.67 0 01-.677-.662.67.67 0 01.677-.662.67.67 0 01.677.662zm-.677 3.308a.67.67 0 00.677-.662.67.67 0 00-.677-.662.67.67 0 00-.677.662.67.67 0 00.677.662zm.677 1.984a.67.67 0 01-.677.662.67.67 0 01-.677-.662.67.67 0 01.677-.662.67.67 0 01.677.662zm-.677 3.308a.67.67 0 00.677-.662.67.67 0 00-.677-.662.67.67 0 00-.677.662.67.67 0 00.677.662zm2.709-7.939h4.063a.67.67 0 00.678-.661.67.67 0 00-.678-.662H7.196a.67.67 0 00-.677.662.67.67 0 00.677.662zm0 2.646a.67.67 0 01-.677-.661.67.67 0 01.677-.662h12.19a.67.67 0 01.678.662.67.67 0 01-.678.662H7.196zm10.159 1.985a.67.67 0 00-.678-.662H7.196a.67.67 0 00-.677.662.67.67 0 00.677.662h9.481a.67.67 0 00.678-.662zM6.518 26.46a.67.67 0 01.678-.662h4.063a.67.67 0 01.678.662.67.67 0 01-.678.662H7.196a.67.67 0 01-.677-.662zm15.577-5.954a.67.67 0 00-.677.662.67.67 0 00.677.662h1.355a.67.67 0 00.677-.662.67.67 0 00-.677-.662h-1.355zM3.302 6.692a3.29 3.29 0 00-3.29 3.29v17.274a4.75 4.75 0 004.75 4.75h22.476a4.75 4.75 0 004.75-4.75V9.982a3.29 3.29 0 00-3.29-3.29.75.75 0 000 1.5c.989 0 1.79.801 1.79 1.79v17.274a3.25 3.25 0 01-3.25 3.25H4.762a3.25 3.25 0 01-3.25-3.25V9.982c0-.989.801-1.79 1.79-1.79a.75.75 0 100-1.5z" clip-rule="evenodd"/>
  </g>
  <defs>
    <linearGradient id="documentation__paint0_linear" x1=".012" x2="32.072" y1="0" y2="31.922" gradientUnits="userSpaceOnUse">
      <stop stop-color="#FF6D70"/>
      <stop offset="1" stop-color="#2C1F56"/>
    </linearGradient>
    <clipPath id="documentation__clip0">
      <path fill="#fff" d="M0 0h32v32H0z"/>
    </clipPath>
  </defs>
</svg>
