<svg xmlns="http://www.w3.org/2000/svg" viewBox="0 0 32 32">
  <defs>
    <linearGradient id="documentation-a" x1="0%" x2="100%" y1=".58%" y2="99.42%">
      <stop offset="0%" stop-color="#E96065"/>
      <stop offset="100%" stop-color="#2C1F56"/>
    </linearGradient>
  </defs>
  <path fill="url(#documentation-a)" d="M135.333327,26.5116753 C135.701516,26.5116753 136,26.8084162 136,27.1744648 C136,27.5405133 135.701516,27.8372542 135.333327,27.8372542 C134.965138,27.8372542 134.666662,28.1339951 134.666662,28.5000437 L134.666662,28.5000437 L134.666662,47.0581483 C134.666662,47.4241968 134.368185,47.7209377 134,47.7209377 C133.631807,47.7209377 133.333331,48.0176787 133.333331,48.3837272 L133.333331,48.3837272 L133.333331,49.7093061 C133.333331,50.0753546 133.631807,50.3720955 134,50.3720955 L134,50.3720955 L161.999944,50.3720955 C162.368133,50.3720955 162.666609,50.0753546 162.666609,49.7093061 L162.666609,49.7093061 L162.666609,48.3837272 C162.666609,48.0176787 162.368133,47.7209377 161.999944,47.7209377 L161.999944,47.7209377 L150.666632,47.7209377 L150.666632,48.3837272 C150.666632,48.7497757 150.368155,49.0465166 149.999966,49.0465166 L149.999966,49.0465166 L145.999974,49.0465166 C145.631785,49.0465166 145.333308,48.7497757 145.333308,48.3837272 L145.333308,48.3837272 L145.333308,47.7209377 L136.666658,47.7209377 C136.298469,47.7209377 136,47.4241968 136,47.0581483 C136,46.6920998 136.298469,46.3953588 136.666658,46.3953588 L136.666658,46.3953588 L145.999974,46.3953588 C146.368163,46.3953588 146.666639,46.6920998 146.666639,47.0581483 L146.666639,47.0581483 L146.666639,47.7209377 L149.333301,47.7209377 L149.333301,47.0581483 C149.333301,46.6920998 149.631777,46.3953588 149.999966,46.3953588 L149.999966,46.3953588 L161.999944,46.3953588 C163.104511,46.3953588 163.99994,47.2855816 163.99994,48.3837272 L163.99994,48.3837272 L163.99994,49.7093061 C163.99994,50.8074516 163.104511,51.6976744 161.999944,51.6976744 L161.999944,51.6976744 L134,51.6976744 C132.895429,51.6976744 132,50.8074516 132,49.7093061 L132,49.7093061 L132,48.3837272 C132.003501,47.5441151 132.537098,46.7971779 133.333331,46.5173121 L133.333331,46.5173121 L133.333331,28.5000437 C133.333331,27.4018981 134.22876,26.5116753 135.333327,26.5116753 Z M160.666613,26.5116753 C161.77118,26.5116753 162.666609,27.4018981 162.666609,28.5000437 L162.666609,28.5000437 L162.666609,44.4069905 C162.666609,44.773039 162.368133,45.0697799 161.999947,45.0697799 C161.631754,45.0697799 161.333278,44.773039 161.333278,44.4069905 L161.333278,44.4069905 L161.333278,28.5000437 C161.333278,28.1339951 161.034802,27.8372542 160.666613,27.8372542 C160.298424,27.8372542 159.999947,27.5405133 159.999947,27.1744648 C159.999947,26.8084162 160.298424,26.5116753 160.666613,26.5116753 Z M136.666658,43.744201 C137.034847,43.744201 137.333323,44.040942 137.333323,44.4069905 C137.333323,44.773039 137.034847,45.0697799 136.666658,45.0697799 C136.298469,45.0697799 135.999992,44.773039 135.999992,44.4069905 C135.999992,44.040942 136.298469,43.744201 136.666658,43.744201 Z M143.333312,43.744201 C143.701501,43.744201 143.999977,44.040942 143.999977,44.4069905 C143.999977,44.773039 143.701501,45.0697799 143.333312,45.0697799 L143.333312,45.0697799 L139.33332,45.0697799 C138.96513,45.0697799 138.666654,44.773039 138.666654,44.4069905 C138.666654,44.040942 138.96513,43.744201 139.33332,43.744201 L139.33332,43.744201 Z M136.666658,41.0930432 C137.034847,41.0930432 137.333323,41.3897842 137.333323,41.7558327 C137.333323,42.1218812 137.034847,42.4186221 136.666658,42.4186221 C136.298469,42.4186221 135.999992,42.1218812 135.999992,41.7558327 C135.999992,41.3897842 136.298469,41.0930432 136.666658,41.0930432 Z M148.666635,41.0930432 C149.034824,41.0930432 149.333301,41.3897842 149.333301,41.7558327 C149.333301,42.1218812 149.034824,42.4186221 148.666635,42.4186221 L148.666635,42.4186221 L139.33332,42.4186221 C138.96513,42.4186221 138.666654,42.1218812 138.666654,41.7558327 C138.666654,41.3897842 138.96513,41.0930432 139.33332,41.0930432 L139.33332,41.0930432 Z M136.666658,38.4418854 C137.034847,38.4418854 137.333323,38.7386264 137.333323,39.1046749 C137.333323,39.4707234 137.034847,39.7674643 136.666658,39.7674643 C136.298469,39.7674643 135.999992,39.4707234 135.999992,39.1046749 C135.999992,38.7386264 136.298469,38.4418854 136.666658,38.4418854 Z M151.333297,38.4418854 C151.701486,38.4418854 151.999962,38.7386264 151.999962,39.1046749 C151.999962,39.4707234 151.701486,39.7674643 151.333297,39.7674643 L151.333297,39.7674643 L139.33332,39.7674643 C138.96513,39.7674643 138.666654,39.4707234 138.666654,39.1046749 C138.666654,38.7386264 138.96513,38.4418854 139.33332,38.4418854 L139.33332,38.4418854 Z M155.333293,38.4418854 C155.701479,38.4418854 155.999955,38.7386264 155.999955,39.1046749 C155.999955,39.4707234 155.701479,39.7674643 155.333293,39.7674643 L155.333293,39.7674643 L153.999959,39.7674643 C153.631769,39.7674643 153.333293,39.4707234 153.333293,39.1046749 C153.333293,38.7386264 153.631769,38.4418854 153.999959,38.4418854 L153.999959,38.4418854 Z M136.666658,35.7907276 C137.034847,35.7907276 137.333323,36.0874686 137.333323,36.4535171 C137.333323,36.8195656 137.034847,37.1163065 136.666658,37.1163065 C136.298469,37.1163065 135.999992,36.8195656 135.999992,36.4535171 C135.999992,36.0874686 136.298469,35.7907276 136.666658,35.7907276 Z M143.333312,35.7907276 C143.701501,35.7907276 143.999977,36.0874686 143.999977,36.4535171 C143.999977,36.8195656 143.701501,37.1163065 143.333312,37.1163065 L143.333312,37.1163065 L139.33332,37.1163065 C138.96513,37.1163065 138.666654,36.8195656 138.666654,36.4535171 C138.666654,36.0874686 138.96513,35.7907276 139.33332,35.7907276 L139.33332,35.7907276 Z M149.846333,19.9015751 C150.078115,19.8470063 150.321573,19.9195179 150.484998,20.0917957 C150.648424,20.2640735 150.706988,20.5099442 150.638632,20.7367908 L150.638632,20.7367908 L146.638639,33.9925798 C146.554114,34.2730613 146.294485,34.4651502 145.999974,34.4651502 C145.935165,34.4651502 145.870691,34.4559077 145.808641,34.4373116 C145.639249,34.3868721 145.496953,34.2715938 145.41306,34.1168407 C145.329167,33.9620876 145.310551,33.7805386 145.361308,33.6121387 L145.361308,33.6121387 L149.361301,20.3563497 C149.429657,20.1295031 149.61455,19.956144 149.846333,19.9015751 Z M152.203416,21.4116307 C152.460572,21.1559704 152.876375,21.1523782 153.13796,21.403557 L153.13796,21.403557 L158.471284,26.7058726 C158.731538,26.9646918 158.731538,27.3842377 158.471284,27.6430569 L158.471284,27.6430569 L153.13796,32.9453725 C152.877627,33.2041135 152.455628,33.2041135 152.195295,32.9453725 C151.935041,32.6865533 151.935041,32.2670074 152.195295,32.0081882 L152.195295,32.0081882 L157.057286,27.1744648 L152.195295,22.3407413 C151.942648,22.0806767 151.946261,21.667291 152.203416,21.4116307 Z M142.86198,21.403557 C143.029362,21.2312605 143.277231,21.1621607 143.510317,21.2228162 C143.743402,21.2834717 143.925432,21.464443 143.986442,21.6961737 C144.047452,21.9279044 143.977949,22.1743318 143.804644,22.3407413 L143.804644,22.3407413 L138.942654,27.1744648 L143.804644,32.0081882 C144.057292,32.2682528 144.053679,32.6816385 143.796524,32.9372988 C143.539368,33.1929591 143.123565,33.1965513 142.86198,32.9453725 L142.86198,32.9453725 L137.528656,27.6430569 C137.268402,27.3842377 137.268402,26.9646918 137.528656,26.7058726 L137.528656,26.7058726 Z" transform="translate(-132 -19)"/>
</svg>
