<svg xmlns="http://www.w3.org/2000/svg" fill="none" viewBox="0 0 32 32">
  <g clip-path="url(#themes__clip0)">
    <path fill="url(#themes__paint0_linear)" fill-rule="evenodd" d="M2 1.5h8a.5.5 0 01.5.5v28a.5.5 0 01-.5.5H2a.5.5 0 01-.5-.5V2a.5.5 0 01.5-.5zM0 2a2 2 0 012-2h8a2 2 0 012 2v10.445l8.613-8.57a2.75 2.75 0 013.884.005l4.954 4.954a2.75 2.75 0 010 3.889l-7.067 7.067h6.948a2.75 2.75 0 012.75 2.75v6.996a2.75 2.75 0 01-2.755 2.75L9.999 32.25V32H2a2 2 0 01-2-2V2zm20.884 19.29l-1.724 1.723A1 1 0 0120 24v4a1 1 0 01-1 1h-4a1 1 0 01-.987-.84l-1.983 1.983-.033-.033a1.989 1.989 0 01-.144.643l17.477.033a1.25 1.25 0 001.252-1.25V22.54c0-.69-.56-1.25-1.25-1.25h-8.448zM12 28.052l2-2V26h.052L28.39 11.662a1.25 1.25 0 000-1.768l-4.953-4.953a1.25 1.25 0 00-1.766-.002l-9.642 9.593-.029-.03v13.55zm3-.879V28h4v-4h-.827L15 27.173zM6 27a1 1 0 100-2 1 1 0 000 2zm0 1a2 2 0 100-4 2 2 0 000 4zM4 12h4v4H4v-4zm-1 0a1 1 0 011-1h4a1 1 0 011 1v4a1 1 0 01-1 1H4a1 1 0 01-1-1v-4zm22.031-.868l-2.828-2.829-2.829 2.829 2.829 2.828 2.828-2.828zM22.91 7.596a1 1 0 00-1.414 0l-2.829 2.829a1 1 0 000 1.414l2.829 2.828a1 1 0 001.414 0l2.828-2.828a1 1 0 000-1.414L22.91 7.596zm-6.667 6.818l2.828 2.829-2.828 2.828-2.829-2.828 2.829-2.829zm-.707-.707a1 1 0 011.414 0l2.828 2.828a1 1 0 010 1.415l-2.828 2.828a1 1 0 01-1.414 0l-2.829-2.828a1 1 0 010-1.415l2.829-2.828zM8 4H4v4h4V4zM4 3a1 1 0 00-1 1v4a1 1 0 001 1h4a1 1 0 001-1V4a1 1 0 00-1-1H4zm23 25h-4v-4h4v4zm-4 1a1 1 0 01-1-1v-4a1 1 0 011-1h4a1 1 0 011 1v4a1 1 0 01-1 1h-4z" clip-rule="evenodd"/>
  </g>
  <defs>
    <linearGradient id="themes__paint0_linear" x1="0" x2="32.34" y1="0" y2="32.026" gradientUnits="userSpaceOnUse">
      <stop stop-color="#FF6D70"/>
      <stop offset="1" stop-color="#2C1F56"/>
    </linearGradient>
    <clipPath id="themes__clip0">
      <path fill="#fff" d="M0 0h32v32H0z"/>
    </clipPath>
  </defs>
</svg>
