<svg xmlns="http://www.w3.org/2000/svg" viewBox="0 0 32 32">
  <defs>
    <linearGradient id="themes-a" x1="0%" x2="100%" y1=".58%" y2="99.42%">
      <stop offset="0%" stop-color="#E96065"/>
      <stop offset="100%" stop-color="#2C1F56"/>
    </linearGradient>
  </defs>
  <path fill="url(#themes-a)" d="M144.666667,19.8837209 C145.771236,19.8837209 146.666667,20.7739454 146.666667,21.872093 L146.666667,21.872093 L146.666667,49.7093023 C146.664457,49.9356054 146.622959,50.1598297 146.544,50.372093 L146.544,50.372093 L166,50.372093 C166.36819,50.372093 166.666667,50.0753515 166.666667,49.7093023 L166.666667,49.7093023 L166.666667,43.0813953 C166.666667,42.7153462 166.36819,42.4186047 166,42.4186047 L166,42.4186047 L148.666667,42.4186047 C148.298477,42.4186047 148,42.1218631 148,41.755814 C148,41.3897648 148.298477,41.0930233 148.666667,41.0930233 L148.666667,41.0930233 L152.2,41.0930233 L162.478667,30.8734535 C162.728699,30.6238842 162.728699,30.2203019 162.478667,29.9707326 L162.478667,29.9707326 L157.853333,25.3729535 C157.599739,25.1319058 157.200261,25.1319058 156.946667,25.3729535 L156.946667,25.3729535 L149.138,33.1395349 C148.876769,33.3983317 148.453977,33.3975898 148.193667,33.1378779 C147.933356,32.878166 147.934103,32.4578317 148.195333,32.1990349 L148.195333,32.1990349 L156.004,24.4357674 C156.785039,23.6937734 158.014961,23.6937734 158.796,24.4357674 L158.796,24.4357674 L163.421333,29.0368605 C164.191507,29.8042209 164.191507,31.0465931 163.421333,31.8139535 L163.421333,31.8139535 L154.084667,41.0930233 L166,41.0930233 C167.104569,41.0930233 168,41.9832478 168,43.0813953 L168,43.0813953 L168,49.7093023 C168,50.8074499 167.104569,51.6976744 166,51.6976744 L166,51.6976744 L138,51.6976744 C136.895431,51.6976744 136,50.8074499 136,49.7093023 L136,49.7093023 L136,21.872093 C136,20.7739454 136.895431,19.8837209 138,19.8837209 L138,19.8837209 Z M144.666667,21.2093023 L138,21.2093023 C137.63181,21.2093023 137.333333,21.5060438 137.333333,21.872093 L137.333333,21.872093 L137.333333,49.7093023 C137.333333,50.0753515 137.63181,50.372093 138,50.372093 L138,50.372093 L144.666667,50.372093 C145.034856,50.372093 145.333333,50.0753515 145.333333,49.7093023 L145.333333,49.7093023 L145.333333,21.872093 C145.333333,21.5060438 145.034856,21.2093023 144.666667,21.2093023 L144.666667,21.2093023 Z M141.333333,43.744186 C142.806093,43.744186 144,44.9311521 144,46.3953488 C144,47.8595456 142.806093,49.0465116 141.333333,49.0465116 C139.860574,49.0465116 138.666667,47.8595456 138.666667,46.3953488 C138.666667,44.9311521 139.860574,43.744186 141.333333,43.744186 Z M163.333333,43.744186 C163.701523,43.744186 164,44.0409275 164,44.4069767 L164,44.4069767 L164,48.3837209 C164,48.7497701 163.701523,49.0465116 163.333333,49.0465116 L163.333333,49.0465116 L158,49.0465116 C157.63181,49.0465116 157.333333,48.7497701 157.333333,48.3837209 L157.333333,48.3837209 L157.333333,44.4069767 C157.333333,44.0409275 157.63181,43.744186 158,43.744186 L158,43.744186 Z M155.333333,43.744186 C155.701523,43.744186 156,44.0409275 156,44.4069767 L156,44.4069767 L156,48.3837209 C156,48.7497701 155.701523,49.0465116 155.333333,49.0465116 L155.333333,49.0465116 L150,49.0465116 C149.63181,49.0465116 149.333333,48.7497701 149.333333,48.3837209 L149.333333,48.3837209 L149.333333,44.4069767 C149.333333,44.0409275 149.63181,43.744186 150,43.744186 L150,43.744186 Z M141.333333,45.0697674 C140.596954,45.0697674 140,45.6632504 140,46.3953488 C140,47.1274472 140.596954,47.7209302 141.333333,47.7209302 C142.069713,47.7209302 142.666667,47.1274472 142.666667,46.3953488 C142.666667,45.6632504 142.069713,45.0697674 141.333333,45.0697674 Z M162.666667,45.0697674 L158.666667,45.0697674 L158.666667,47.7209302 L162.666667,47.7209302 L162.666667,45.0697674 Z M154.666667,45.0697674 L150.666667,45.0697674 L150.666667,47.7209302 L154.666667,47.7209302 L154.666667,45.0697674 Z M151.528667,32.6709419 C151.789,32.4122003 152.211,32.4122003 152.471333,32.6709419 L152.471333,32.6709419 L155.138,35.3221047 C155.398255,35.5809243 155.398255,36.000471 155.138,36.2592907 L155.138,36.2592907 L151.804667,39.5732442 C151.544333,39.8319857 151.122333,39.8319857 150.862,39.5732442 L150.862,39.5732442 L148.195333,36.9220814 C147.935079,36.6632617 147.935079,36.243715 148.195333,35.9848953 L148.195333,35.9848953 Z M143.333333,31.8139535 C143.701523,31.8139535 144,32.110695 144,32.4767442 L144,32.4767442 L144,37.7790698 C144,38.145119 143.701523,38.4418605 143.333333,38.4418605 L143.333333,38.4418605 L139.333333,38.4418605 C138.965144,38.4418605 138.666667,38.145119 138.666667,37.7790698 L138.666667,37.7790698 L138.666667,32.4767442 C138.666667,32.110695 138.965144,31.8139535 139.333333,31.8139535 L139.333333,31.8139535 Z M152,34.0767209 L149.609333,36.4534884 L151.333333,38.1674651 L153.724,35.7906977 L152,34.0767209 Z M142.666667,33.1395349 L140,33.1395349 L140,37.1162791 L142.666667,37.1162791 L142.666667,33.1395349 Z M156.862,27.3686163 C157.122333,27.1098748 157.544333,27.1098748 157.804667,27.3686163 L157.804667,27.3686163 L160.471333,30.0197791 C160.731588,30.2785987 160.731588,30.6981454 160.471333,30.9569651 L160.471333,30.9569651 L157.138,34.2709186 C157.013005,34.3952246 156.843463,34.4651163 156.666667,34.4651163 C156.48987,34.4651163 156.320328,34.3952246 156.195333,34.2709186 L156.195333,34.2709186 L153.528667,31.6197558 C153.268412,31.3609361 153.268412,30.9413894 153.528667,30.6825698 L153.528667,30.6825698 Z M157.333333,28.7743953 L154.942667,31.1511628 L156.666667,32.8651395 L159.057333,30.4883721 L157.333333,28.7743953 Z M143.333333,23.8604651 C143.701523,23.8604651 144,24.1572066 144,24.5232558 L144,24.5232558 L144,29.8255814 C144,30.1916306 143.701523,30.4883721 143.333333,30.4883721 L143.333333,30.4883721 L139.333333,30.4883721 C138.965144,30.4883721 138.666667,30.1916306 138.666667,29.8255814 L138.666667,29.8255814 L138.666667,24.5232558 C138.666667,24.1572066 138.965144,23.8604651 139.333333,23.8604651 L139.333333,23.8604651 Z M142.666667,25.1860465 L140,25.1860465 L140,29.1627907 L142.666667,29.1627907 L142.666667,25.1860465 Z" transform="translate(-136 -19)"/>
</svg>
