<svg xmlns="http://www.w3.org/2000/svg" viewBox="0 0 32 32">
	<path class="ti-file" d="M22 0H6v14h2V2h11v10h11v18H8v-2H6v4h26V10zm-1 10V2l8 8z"/>
	<path class="ti-file-csv-o-badge" d="M8 15H0v12h26V15zm.12 9.682a3.403 3.403 0 0 1-1.395.293 4.348 4.348 0 0 1-1.48-.25 3.415 3.415 0 0 1-1.224-.76 3.602 3.602 0 0 1-.832-1.272 4.79 4.79 0 0 1-.306-1.78 4.669 4.669 0 0 1 .318-1.78 3.875 3.875 0 0 1 .857-1.31A3.71 3.71 0 0 1 5.3 17.01a3.931 3.931 0 0 1 1.473-.281 3.012 3.012 0 0 1 1.377.311 4.036 4.036 0 0 1 1.046.74l-1.15 1.297a2.759 2.759 0 0 0-.574-.397 1.494 1.494 0 0 0-.673-.14 1.53 1.53 0 0 0-.68.158 1.668 1.668 0 0 0-.562.453 2.237 2.237 0 0 0-.38.722 3.088 3.088 0 0 0-.14.967 2.737 2.737 0 0 0 .47 1.724 1.502 1.502 0 0 0 1.242.6 1.687 1.687 0 0 0 .802-.178 2.168 2.168 0 0 0 .594-.458l1.149 1.273a3.384 3.384 0 0 1-1.174.88zm7.328-1.286a2.336 2.336 0 0 1-.605.814 3 3 0 0 1-.973.557 3.877 3.877 0 0 1-1.321.208 4.783 4.783 0 0 1-1.56-.276 4.133 4.133 0 0 1-1.45-.862l1.2-1.443a4.004 4.004 0 0 0 .923.556 2.363 2.363 0 0 0 .936.214 1.255 1.255 0 0 0 .691-.146.476.476 0 0 0 .214-.416.4.4 0 0 0-.073-.246.755.755 0 0 0-.214-.183 2.468 2.468 0 0 0-.337-.165c-.13-.053-.281-.112-.452-.178l-.991-.416a2.93 2.93 0 0 1-.613-.324 2.383 2.383 0 0 1-.513-.477 2.215 2.215 0 0 1-.349-.63 2.284 2.284 0 0 1-.128-.783 2.148 2.148 0 0 1 .22-.96 2.45 2.45 0 0 1 .612-.784 2.962 2.962 0 0 1 .936-.532 3.52 3.52 0 0 1 1.193-.195 4.044 4.044 0 0 1 1.389.256 3.411 3.411 0 0 1 1.254.808l-1.053 1.321a3.865 3.865 0 0 0-.777-.428 2.21 2.21 0 0 0-.813-.147 1.174 1.174 0 0 0-.612.135.443.443 0 0 0-.22.403.473.473 0 0 0 .311.435q.312.154.863.361l.967.38a2.618 2.618 0 0 1 1.15.82 2.163 2.163 0 0 1 .403 1.357 2.34 2.34 0 0 1-.208.966zM21 25h-3l-2-8h2l.984 3.35q.172.637.294 1.254c.081.412.179.834.293 1.266h.05c.113-.432.214-.854.299-1.266q.129-.618.288-1.254L21 17h2z"/>
</svg>
