<svg xmlns="http://www.w3.org/2000/svg" viewBox="0 0 32 32">
	<path class="ti-file" d="M22 0H6v14h2V2h11v10h11v18H8v-2H6v4h26V10zm-1 10V2l8 8z"/>
	<path class="ti-file-json-o-badge" d="M15.734 19.514A3.224 3.224 0 0 1 16 20.968a3.436 3.436 0 0 1-.266 1.487.767.767 0 0 1-1.468 0A3.425 3.425 0 0 1 14 20.968a3.213 3.213 0 0 1 .266-1.454.781.781 0 0 1 1.468 0zM26 15v12H0V15zM5.027 17h-2.03l-.008 5.325a2.084 2.084 0 0 1-.058.542.908.908 0 0 1-.163.34.537.537 0 0 1-.262.174 1.235 1.235 0 0 1-.356.048.946.946 0 0 1-.501-.16c-.171-.105-.163-.27-.295-.498L0 23.695a2.396 2.396 0 0 0 .91.987A3.361 3.361 0 0 0 2.461 25a2.949 2.949 0 0 0 1.137-.201 2.216 2.216 0 0 0 .8-.547 2.274 2.274 0 0 0 .472-.801 2.97 2.97 0 0 0 .157-.977zm6.198 5.532a2.304 2.304 0 0 0-.345-1.318 2.264 2.264 0 0 0-.982-.795l-.825-.369a7.78 7.78 0 0 1-.737-.35.46.46 0 0 1-.267-.42.448.448 0 0 1 .188-.393.914.914 0 0 1 .522-.13 1.68 1.68 0 0 1 .696.143 3.158 3.158 0 0 1 .664.415l.898-1.282a2.91 2.91 0 0 0-1.072-.784A3.08 3.08 0 0 0 8.78 17a2.678 2.678 0 0 0-1.018.19 2.479 2.479 0 0 0-.8.516 2.373 2.373 0 0 0-.522.76 2.3 2.3 0 0 0-.188.932 2.487 2.487 0 0 0 .11.759 2.226 2.226 0 0 0 .298.612 2.15 2.15 0 0 0 .438.462 2.393 2.393 0 0 0 .522.315l.847.404c.146.063.275.12.387.171a2.12 2.12 0 0 1 .288.16.675.675 0 0 1 .182.18.42.42 0 0 1 .063.237.482.482 0 0 1-.183.403.972.972 0 0 1-.59.143 1.814 1.814 0 0 1-.8-.208 3.372 3.372 0 0 1-.79-.54L6 23.896a3.478 3.478 0 0 0 1.238.837A3.647 3.647 0 0 0 8.571 25a2.956 2.956 0 0 0 1.128-.201 2.514 2.514 0 0 0 .831-.54 2.285 2.285 0 0 0 .517-.79 2.537 2.537 0 0 0 .178-.937zM18 20.964a5.963 5.963 0 0 0-.219-1.685 3.82 3.82 0 0 0-.61-1.246 2.546 2.546 0 0 0-.949-.772 2.997 2.997 0 0 0-2.449 0 2.6 2.6 0 0 0-.943.766 3.724 3.724 0 0 0-.611 1.247 5.993 5.993 0 0 0-.219 1.69 6.127 6.127 0 0 0 .219 1.704 3.847 3.847 0 0 0 .61 1.27 2.656 2.656 0 0 0 .944.79 2.883 2.883 0 0 0 2.449 0 2.639 2.639 0 0 0 .948-.79 3.885 3.885 0 0 0 .611-1.27A6.163 6.163 0 0 0 18 20.964zM25 17h-2v4l-2-4h-2v8h2v-3l2 3h2z"/>
</svg>
