<svg xmlns="http://www.w3.org/2000/svg" viewBox="0 0 32 32">
	<path class="ti-file" d="M22 0H6v14h2V2h11v10h11v18H8v-2H6v4h26V10zm-1 10V2l8 8z"/>
	<path class="ti-file-xls-o-badge" d="M8 15H0v12h26V15zm7 10h-5v-8h2v6h3zm6.788-1.568a2.215 2.215 0 0 1-.605.813 2.98 2.98 0 0 1-.973.557 3.87 3.87 0 0 1-1.32.208 4.793 4.793 0 0 1-1.56-.276 4.12 4.12 0 0 1-1.45-.862l1.2-1.443a3.983 3.983 0 0 0 .923.556 2.36 2.36 0 0 0 .936.214 1.255 1.255 0 0 0 .691-.146.475.475 0 0 0 .213-.416.399.399 0 0 0-.072-.245.76.76 0 0 0-.215-.184 2.452 2.452 0 0 0-.336-.165c-.13-.053-.281-.112-.453-.178l-.99-.416a2.938 2.938 0 0 1-.614-.324 2.406 2.406 0 0 1-.513-.476 2.212 2.212 0 0 1-.348-.63 2.284 2.284 0 0 1-.129-.783 2.149 2.149 0 0 1 .22-.961 2.446 2.446 0 0 1 .612-.784 2.973 2.973 0 0 1 .936-.532 3.524 3.524 0 0 1 1.193-.195 4.036 4.036 0 0 1 1.389.257 3.411 3.411 0 0 1 1.254.807l-1.053 1.321a3.833 3.833 0 0 0-.775-.428 2.22 2.22 0 0 0-.815-.147 1.168 1.168 0 0 0-.611.135.444.444 0 0 0-.22.403.473.473 0 0 0 .312.435c.207.102.496.223.861.361l.967.38a2.618 2.618 0 0 1 1.15.82 2.164 2.164 0 0 1 .404 1.357 1.893 1.893 0 0 1-.209.967zM7 25s-.9-1.756-1-2c-.09.244-1 2-1 2H3l2-4-2-4h2s.887 1.74 1 2c.09-.26 1-2 1-2h2l-2 4 2 4z"/>
</svg>
