<svg xmlns="http://www.w3.org/2000/svg" viewBox="0 0 32 32">
	<path class="ti-file" d="M17 19a6.055 6.055 0 0 0-.108-1.12L19 16.01l-2.656-2.992-1.526 1.354A5.985 5.985 0 0 0 13 13.35V11H9v2.35a5.985 5.985 0 0 0-1.818 1.022l-1.526-1.354L3 16.01l2.108 1.87a5.848 5.848 0 0 0 0 2.241L3 21.992l2.656 2.99 1.526-1.353A6.008 6.008 0 0 0 9 24.652V27h4v-2.348a6.009 6.009 0 0 0 1.818-1.023l1.526 1.353L19 21.992l-2.108-1.87A6.05 6.05 0 0 0 17 19zm-6 3a3 3 0 1 1 3-3 3.003 3.003 0 0 1-3 3z"/>
	<path class="ti-file-cog-o-badge" d="M22 0H6v11h2V2h11v10h11v18H8v-3H6v5h26V10zm-1 10V2l8 8z"/>
</svg>
