<svg xmlns="http://www.w3.org/2000/svg" viewBox="0 0 16 16">
  <g>
    <path class="ti-background" fill="#000" d="M2.5065,-0.0002 L2.5065,6.9998 L3.5065,6.9998 L3.5065,0.9998 L9.0075,0.9998 L9.0075,5.9988 L14.5075,5.9988 L14.5075,14.9988 L3.5065,14.9988 L3.5065,13.9988 L2.5065,13.9988 L2.5065,15.9998 L15.5075,15.9998 L15.5075,4.9988 L10.5065,-0.0002 L2.5065,-0.0002 Z M10.1205,1.0638 L14.1205,5.0638 L10.1205,5.0638 L10.1205,1.0638 Z"/>
    <g class="ti-foreground" transform="translate(0 7)">
      <path fill="#FF6E70" d="M6.0576,3.4996 C6.0576,5.1726 4.7016,6.5286 3.0286,6.5286 C1.3556,6.5286 -0.0004,5.1726 -0.0004,3.4996 C-0.0004,1.8266 1.3556,0.4716 3.0286,0.4716 C4.7016,0.4716 6.0576,1.8266 6.0576,3.4996 Z"/>
      <path fill="#FFF" d="M3.8774,4.8258 C3.8674,4.7968 3.8534,4.7688 3.8344,4.7438 C3.8154,4.7188 3.8014,4.7088 3.7914,4.7138 C3.7274,4.7458 3.6574,4.7728 3.5814,4.7948 C3.5054,4.8168 3.4404,4.8278 3.3844,4.8278 C3.3214,4.8278 3.2734,4.8128 3.2414,4.7858 C3.2084,4.7588 3.1854,4.7068 3.1704,4.6318 C3.1564,4.5558 3.1484,4.4468 3.1484,4.3038 L3.1484,2.8488 L3.6924,2.8488 C3.7114,2.8488 3.7284,2.8318 3.7444,2.7958 C3.7604,2.7618 3.7684,2.7178 3.7684,2.6648 C3.7684,2.6418 3.7634,2.6228 3.7524,2.6058 C3.7414,2.5898 3.7264,2.5808 3.7084,2.5788 L3.1484,2.5788 L3.1484,1.8728 C3.1484,1.8438 3.1294,1.8228 3.0954,1.8078 C3.0314,1.7888 2.9944,1.8578 2.9944,1.8578 C2.8244,2.2508 2.4904,2.5548 2.0774,2.6838 C2.0774,2.6838 1.9934,2.7038 2.0144,2.7928 C2.0174,2.7998 2.0194,2.8068 2.0234,2.8148 C2.0354,2.8398 2.0494,2.8518 2.0664,2.8538 L2.3364,2.8538 L2.3364,4.5288 C2.3364,4.7668 2.4094,4.9328 2.5534,5.0268 C2.6974,5.1218 2.8914,5.1688 3.1334,5.1688 C3.2104,5.1688 3.2974,5.1548 3.3984,5.1268 C3.4984,5.0968 3.5924,5.0598 3.6814,5.0158 C3.7704,4.9718 3.8354,4.9268 3.8774,4.8808 C3.8874,4.8738 3.8874,4.8558 3.8774,4.8258 Z"/>
    </g>
  </g>
</svg>
