<svg xmlns="http://www.w3.org/2000/svg" viewBox="0 0 32 32">
	<path class="ti-file" d="M22 0H6v10h2V2h11v10h11v18H8v-3H6v5h26V10zm-1 10V2l8 8z"/>
	<path class="ti-file-hdfs-o-badge" d="M7.829 12.838a.127.127 0 0 0 .148-.068 2.58 2.58 0 0 1 1.491-1.505.136.136 0 0 0 .086-.169.129.129 0 0 0-.142-.094.124.124 0 0 0-.032.006 4.69 4.69 0 0 0-.595.184.13.13 0 0 0-.146-.114l-.01.002a1.137 1.137 0 0 0-.546.244 1.193 1.193 0 0 0-.269.552.136.136 0 0 0 .089.166.123.123 0 0 0 .049.005 4.723 4.723 0 0 0-.213.624.136.136 0 0 0 .09.167zm11.573 4.914a3.716 3.716 0 0 1-1.672 3.03 3.71 3.71 0 0 1-2.387.296l-.125.428a1.616 1.616 0 0 1-1.403 1.09 1.168 1.168 0 0 1-.69-.177 2.808 2.808 0 0 1-.513-.44l-.344-.348-.007.052c.128.277.2.52.307.789a2.382 2.382 0 0 1 .213.92c.008.302.018.605.025.907a.969.969 0 0 1 .12.605.771.771 0 0 1-.314.651 1.248 1.248 0 0 1-.67.125 25.99 25.99 0 0 1-.99-.02 2.742 2.742 0 0 1-.432-.052.628.628 0 0 1-.207-.099c-.137.118-.3.253-.45.381-.088.075-.166.143-.232.197a1.505 1.505 0 0 1-.126.092c-.073.12-.122.226-.188.33a.876.876 0 0 1-.32.301 1.056 1.056 0 0 1-1.146.04 2.94 2.94 0 0 1-.795-.96 3.677 3.677 0 0 1-.413-.835 1.063 1.063 0 0 1-.044-.5.578.578 0 0 1 .3-.4l.07-.04a5.895 5.895 0 0 1-1.01-.039l.007.053a1.634 1.634 0 0 1 .019.414.936.936 0 0 1-.163.381 2.859 2.859 0 0 0-.307.578 2.022 2.022 0 0 1-.063.75.626.626 0 0 1-.375.427 1.323 1.323 0 0 1-.577.066 5.318 5.318 0 0 1-1.077-.224 3.356 3.356 0 0 1-.933-.342.715.715 0 0 1-.307-.38.859.859 0 0 1 .062-.592 3.072 3.072 0 0 0 .107-.31 1.3 1.3 0 0 1-.708-.157 2.876 2.876 0 0 1-.764-.565 2.271 2.271 0 0 1-.595-1.21.639.639 0 0 1 .018-.394 1.13 1.13 0 0 1 .238-.283l.596-.618.225-.638a5.245 5.245 0 0 1-.069-.5 6.248 6.248 0 0 1 .038-1.55.888.888 0 0 1-.426 0 .793.793 0 0 1-.501-.441 2.83 2.83 0 0 1-.163-.546l-.007-.013a.858.858 0 0 1-.225-.69 1.426 1.426 0 0 1 .357-.69 2.873 2.873 0 0 1 .589-.5 1.546 1.546 0 0 1 .52-.243.123.123 0 0 1 .065.006.137.137 0 0 1 .079.172 2.858 2.858 0 0 0-.295 1.203 2.15 2.15 0 0 1-.025.289.844.844 0 0 1-.2.388l.006.006c.021-.007.044-.01.082-.026a2.097 2.097 0 0 0 .701-.618 4.584 4.584 0 0 1 .99-1.347 6.331 6.331 0 0 1 3.683-1.598c.207-.224.417-.439.645-.65a1.33 1.33 0 0 1 .865-.401A4.017 4.017 0 0 1 9.8 11.718a4.995 4.995 0 0 1 2.324-.546 3.509 3.509 0 0 1 2.085.967 13.307 13.307 0 0 0 1.335 1.13 2.487 2.487 0 0 1 .657.552 3.614 3.614 0 0 1 .533.894 1.457 1.457 0 0 0 .407-.217c.178-.16.306-.462.526-.696a.473.473 0 0 1 .332-.145.852.852 0 0 1 .351.072.967.967 0 0 1 .507.421 7.853 7.853 0 0 1 .545 3.602zm-2.626-2.73a1.172 1.172 0 0 1 .38.203c.239.198.902-.676.937-.983l-.052-.078a.086.086 0 0 0-.07.026 7.743 7.743 0 0 1-.634.6 3.243 3.243 0 0 1-.561.232zM.86 17.32a4.539 4.539 0 0 1 .063-.592 1.856 1.856 0 0 0-.301.355.784.784 0 0 0-.132.368.443.443 0 0 0 .132.335.132.132 0 0 1 .019-.02.574.574 0 0 0 .219-.446zm1.672 6.632a9.27 9.27 0 0 1-.914-1.972l-.006.02a.137.137 0 0 1-.026.046l-.582.618a1.003 1.003 0 0 0-.113.131c-.005.011-.013.03 0 .132a1.576 1.576 0 0 0 .426.808 2.543 2.543 0 0 0 .595.447.832.832 0 0 0 .332.106.207.207 0 0 0 .2-.092.752.752 0 0 0 .088-.244zm9.728.434l-.025-.973a1.77 1.77 0 0 0-.169-.723c-.015-.038-.019-.068-.031-.105-.081.253-.162.498-.244.77a5.624 5.624 0 0 1-.47.985 4.425 4.425 0 0 1-.508.723.879.879 0 0 0 .2.04c.068.006.27.01.47.013s.4-.002.483 0a.661.661 0 0 0 .307-.033c.035-.026.07-.092.088-.29.016-.2.015-.169-.082-.348a.14.14 0 0 1-.019-.059zm2.724-3.397c-.062.07-1.182-.624-1.27-.58.006.014-.455 1.484.239 1.515.759.035 1.031-.935 1.031-.935zm3.453-6.456a.844.844 0 0 0-.094-.112 1.614 1.614 0 0 1-.959 1.091.748.748 0 0 1-.426.033 2.133 2.133 0 0 1-.244-.072c-.004.034-.023.047-.013.105a3.427 3.427 0 0 1 .013 1.282 3.229 3.229 0 0 1-.363 1.157.125.125 0 0 1-.135.047.136.136 0 0 1-.09-.165 7.802 7.802 0 0 0 .168-1.065 3.073 3.073 0 0 0-.037-.526.525.525 0 0 0-.176.099.732.732 0 0 0-.156.177c-.163.348-.168.702-.382 1.091a.126.126 0 0 1-.171.062.138.138 0 0 1-.061-.18 1.802 1.802 0 0 0 .1-.546 2.517 2.517 0 0 1 .113-.637c.006-.017.018-.03.025-.046a.634.634 0 0 0-.244.243 3.881 3.881 0 0 1-.345.611.125.125 0 0 1-.17.035.139.139 0 0 1-.043-.186 7.308 7.308 0 0 0 .27-.736.779.779 0 0 1 .618-.46.77.77 0 0 1 .202-.03 1.54 1.54 0 0 1 .33.02l-.012-.059c-.046-.005-.274-.01-.26-.01a2.98 2.98 0 0 0-.503.046c-.055.007-.145-.022-.132-.078.085-.345-.053-.552-.112-.573a.137.137 0 0 1 .025-.257 2.84 2.84 0 0 1 .908-.23 5.418 5.418 0 0 0-.281-.493 1.309 1.309 0 0 0-.508-.44 48.9 48.9 0 0 1-1.36-1.111 2.94 2.94 0 0 0-1.847-.861v.002a4.764 4.764 0 0 0-2.136.558 2.644 2.644 0 0 0-1.115.927c.333-.012.666-.019 1.008-.052a.13.13 0 0 1 .124.091.137.137 0 0 1-.08.171 16.88 16.88 0 0 1-1.36.277 3.237 3.237 0 0 0-.538.105 1.12 1.12 0 0 0-.42.309c-.681.695-1.254 1.492-1.891 2.215a4.655 4.655 0 0 0-.74 1.269.94.94 0 0 0-.125.473.994.994 0 0 0 .213.44 5.433 5.433 0 0 1 .508.802c.304-.454.642-.859 1.002-1.314a.124.124 0 0 1 .157-.026.139.139 0 0 1 .05.183c-.335.562-.635 1.09-.909 1.657a1.632 1.632 0 0 0-.225.828c.294.353.467.526.72.598a1.046 1.046 0 0 0 .833-.065 6.29 6.29 0 0 1 2.193-.967 4.207 4.207 0 0 0 .119-2.517 5.394 5.394 0 0 1 .075-2.183.13.13 0 0 1 .14-.12.134.134 0 0 1 .117.147 15.51 15.51 0 0 0 .225 2.07 5.194 5.194 0 0 1-.181 3.07.129.129 0 0 1-.12.086 5.577 5.577 0 0 0-2.361.972 1.56 1.56 0 0 1-1.178.125 2.54 2.54 0 0 1-1.196-.946.14.14 0 0 1-.031-.106 2.876 2.876 0 0 1 .194-.841 3.76 3.76 0 0 0-.64-1.098 1.48 1.48 0 0 1-.337-.756 1.695 1.695 0 0 1 .225-.815 6.087 6.087 0 0 1 .77-1.334c.252-.311.486-.602.721-.888a4.806 4.806 0 0 0-2.593 1.25 5.023 5.023 0 0 0-1.329 2.175 4.325 4.325 0 0 0-.143 1.94 8.066 8.066 0 0 0 1.309 3.352.14.14 0 0 1 .018.098 6.535 6.535 0 0 1-.338 1.486.188.188 0 0 0 .006.184.452.452 0 0 0 .176.158 3.196 3.196 0 0 0 .607.203 5.281 5.281 0 0 0 .77.171 1.27 1.27 0 0 0 .383 0c.094-.02.121-.048.131-.085a1.632 1.632 0 0 0 .038-.605.14.14 0 0 1 .019-.066 6.488 6.488 0 0 1 .382-.69.823.823 0 0 0 .138-.572c0-.376-.01-1.044.006-1.308a.134.134 0 0 1 .115-.147.13.13 0 0 1 .142.12c.043.194.093.465.138.724a5.488 5.488 0 0 0 2.042-.033l.025-.099c.056-.206.156-.396.2-.558a.129.129 0 0 1 .132-.093.133.133 0 0 1 .119.145c-.014.18-.024.362-.038.546a2.339 2.339 0 0 0 .006.493l.038.308a.138.138 0 0 1-.062.142.125.125 0 0 1-.176-.05 2.197 2.197 0 0 0-.119-.17 8.171 8.171 0 0 1-.745.486.122.122 0 0 0-.07.118.717.717 0 0 0 .045.263 2.983 2.983 0 0 0 .263.546 3.148 3.148 0 0 0 .513.703.448.448 0 0 0 .595.079 1.823 1.823 0 0 0 .395-.493.132.132 0 0 1 .038-.04c.024-.015.114-.085.225-.177s.248-.209.382-.322.272-.225.382-.316a2.533 2.533 0 0 1 .245-.19.438.438 0 0 0 .068-.066c.036-.042.078-.103.126-.17a7.979 7.979 0 0 0 .614-1.033 2.839 2.839 0 0 0 .163-.355 10.655 10.655 0 0 0 .494-1.86 2.755 2.755 0 0 1-.99-.835.14.14 0 0 1-.005-.18.125.125 0 0 1 .181-.017 4.166 4.166 0 0 0 1.353.716.128.128 0 0 1 .05.033c.186.172.375.343.57.526a3.086 3.086 0 0 0 .439.361.54.54 0 0 1-.07-.065.735.735 0 0 1-.1-.388 2.733 2.733 0 0 1 .132-.77 1.578 1.578 0 0 0-.006-.742.141.141 0 0 1 .006-.072c-.01.007-.037.02-.044.026a.339.339 0 0 0-.068.118 8.303 8.303 0 0 0-.195.493.128.128 0 0 1-.122.076.133.133 0 0 1-.122-.142c.022-.146.054-.321.075-.46a.737.737 0 0 1 .12-.374.544.544 0 0 1 .356-.165c.1-.018.296-.064.414-.085a.127.127 0 0 1 .124.064.139.139 0 0 1-.043.185c-.106.061-.257.126-.357.178a.125.125 0 0 1 .05.02 2.597 2.597 0 0 0 .577.328 4.032 4.032 0 0 0 3.382.138 3.37 3.37 0 0 0 1.378-2.544 8.039 8.039 0 0 0-.42-3.188zM14.24 15.82a1.849 1.849 0 0 0-.476.086.759.759 0 0 0-.032-.119.74.74 0 0 0-.232-.276 1.48 1.48 0 0 0 .22-.15.14.14 0 0 0 .012-.191.126.126 0 0 0-.1-.046.124.124 0 0 0-.056.012 1.885 1.885 0 0 1-.439.125 1.253 1.253 0 0 0-.488.184 2.273 2.273 0 0 0-.414.454 4.669 4.669 0 0 1-.376.454.14.14 0 0 0 .001.19.124.124 0 0 0 .13.033 1.59 1.59 0 0 0 .352-.23.85.85 0 0 0 .025.125.748.748 0 0 0 .232.276 1.485 1.485 0 0 0-.163.302.137.137 0 0 0 .08.171.125.125 0 0 0 .139-.04 3.426 3.426 0 0 1 1.622-1.09.136.136 0 0 0 .107-.157.13.13 0 0 0-.144-.113zm-1.742-1.617a.136.136 0 0 0 .087-.168.129.129 0 0 0-.143-.095.123.123 0 0 0-.031.006 1.59 1.59 0 0 0-.959.546 1.14 1.14 0 0 0-.119.887.129.129 0 0 0 .153.105.132.132 0 0 0 .098-.098 1.504 1.504 0 0 1 .914-1.183zm-2.806-.21l-.006.006c-.374.044-.748.088-1.121.125a1.348 1.348 0 0 0-.364.06.852.852 0 0 0-.3.23 2.948 2.948 0 0 0-.508 1.025 10.805 10.805 0 0 0-.3 1.078.137.137 0 0 0 .081.17.127.127 0 0 0 .163-.085c.085-.205.227-.579.388-.94a4.848 4.848 0 0 1 .307-.585 2.634 2.634 0 0 0 .044.559.129.129 0 0 0 .155.1.132.132 0 0 0 .096-.1 1.913 1.913 0 0 1 .488-1.065 7.626 7.626 0 0 0 .927-.316.137.137 0 0 0 .082-.17.129.129 0 0 0-.132-.093z"/>
</svg>
