<?xml version="1.0" standalone="no"?>
<!DOCTYPE svg PUBLIC "-//W3C//DTD SVG 20010904//EN"
 "http://www.w3.org/TR/2001/REC-SVG-20010904/DTD/svg10.dtd">
<svg version="1.0" xmlns="http://www.w3.org/2000/svg"
 width="700.000000pt" height="700.000000pt" viewBox="0 0 700.000000 700.000000"
 preserveAspectRatio="xMidYMid meet">
<g transform="translate(0.000000,700.000000) scale(0.100000,-0.100000)"
fill="#000000" stroke="none">
<path d="M3215 6989 c-1004 -86 -1899 -579 -2513 -1387 -373 -489 -613 -1100
-684 -1737 -17 -154 -17 -585 0 -730 69 -587 254 -1097 567 -1570 277 -418
670 -796 1095 -1054 431 -262 872 -414 1405 -487 184 -25 646 -25 830 0 805
110 1466 427 2024 971 595 580 943 1295 1043 2140 16 139 16 595 0 730 -108
889 -477 1619 -1122 2217 -507 471 -1171 785 -1865 882 -249 35 -546 45 -780
25z m356 -1534 c16 -9 34 -27 39 -41 6 -15 10 -196 10 -430 l0 -404 328 0 329
0 24 -26 c21 -23 24 -34 23 -97 -1 -73 -20 -135 -51 -169 -15 -17 -41 -18
-335 -18 l-319 0 4 -997 c3 -895 5 -1005 20 -1068 22 -90 61 -152 112 -179 95
-50 295 -24 513 65 l96 39 24 -23 c29 -26 72 -112 72 -144 0 -85 -402 -285
-680 -337 -172 -33 -445 -15 -620 39 -300 94 -436 256 -469 558 -7 62 -11 440
-11 1067 l0 970 -151 0 c-84 0 -159 5 -170 10 -25 14 -49 62 -49 98 0 50 31
76 132 112 235 82 437 208 622 388 147 144 242 274 334 457 70 140 103 165
173 130z"/>
</g>
</svg>
