<svg xmlns="http://www.w3.org/2000/svg" viewBox="0 0 16 16">
	<path d="M15.12 1.25H.88a.88.88 0 0 0-.88.88v11.74a.88.88 0 0 0 .88.88h14.24a.88.88 0 0 0 .88-.88V2.13a.88.88 0 0 0-.88-.88zm-10 11.89a.44.44 0 0 1-.44.44H1.76a.44.44 0 0 1-.44-.44v-1.62a.44.44 0 0 1 .44-.44H4.7a.44.44 0 0 1 .44.44zm0-3.67a.44.44 0 0 1-.44.44H1.76a.44.44 0 0 1-.44-.44V7.85a.44.44 0 0 1 .44-.44H4.7a.44.44 0 0 1 .44.44zm0-3.67a.44.44 0 0 1-.44.44H1.76a.44.44 0 0 1-.44-.44V4.18a.44.44 0 0 1 .44-.44H4.7a.44.44 0 0 1 .44.44zM10 13.14a.44.44 0 0 1-.44.44H6.61a.44.44 0 0 1-.44-.44v-1.62a.44.44 0 0 1 .44-.44h2.93a.44.44 0 0 1 .44.44zm0-3.67a.44.44 0 0 1-.44.44H6.61a.44.44 0 0 1-.44-.44V7.85a.44.44 0 0 1 .44-.44h2.93a.44.44 0 0 1 .44.44zm0-3.67a.44.44 0 0 1-.44.44H6.61a.44.44 0 0 1-.44-.44V4.18a.44.44 0 0 1 .44-.44h2.93a.44.44 0 0 1 .44.44zm4.85 7.34a.44.44 0 0 1-.44.44h-2.96a.44.44 0 0 1-.44-.44v-1.62a.44.44 0 0 1 .44-.44h2.94a.44.44 0 0 1 .44.44zm0-3.67a.44.44 0 0 1-.44.44h-2.96a.44.44 0 0 1-.45-.44V7.85a.44.44 0 0 1 .44-.44h2.94a.44.44 0 0 1 .44.44zm0-3.67a.44.44 0 0 1-.44.44h-2.96A.44.44 0 0 1 11 5.8V4.18a.44.44 0 0 1 .44-.44h2.94a.44.44 0 0 1 .44.44z"/>
</svg>
