<svg xmlns="http://www.w3.org/2000/svg" viewBox="0 0 16 16">
	<path d="M4.0567 13.2928L2.9997 14.3488 1.9427 13.2928C1.7227 13.0718 1.3377 13.0718 1.1177 13.2928 1.0077 13.4028.9467 13.5498.9467 13.7058.9467 13.8618 1.0077 14.0078 1.1177 14.1178L2.9997 15.9998 4.8817 14.1178C4.9907 14.0098 5.0537 13.8588 5.0537 13.7058 5.0537 13.5498 4.9927 13.4028 4.8827 13.2928 4.6617 13.0718 4.2767 13.0718 4.0567 13.2928M.149 10.85L5.851 10.85 5.851 9.7.149 9.7zM.149 8.592L5.851 8.592 5.851 7.442.149 7.442zM.149 6.3L5.851 6.3 5.851 5.15.149 5.15zM1.943 2.7074L3 1.6514 4.057 2.7074C4.167 2.8174 4.313 2.8784 4.469 2.8784 4.626 2.8784 4.772 2.8174 4.882 2.7074 4.992 2.5974 5.053 2.4504 5.053 2.2944 5.053 2.1404 4.991 1.9894 4.882 1.8824L3-.0006 1.118 1.8824C1.007 1.9924.947 2.1384.947 2.2934.946 2.4504 1.007 2.5974 1.118 2.7074 1.338 2.9274 1.723 2.9274 1.943 2.7074" transform="translate(5)"/>
</svg>
