<svg xmlns="http://www.w3.org/2000/svg" viewBox="0 0 16 16">
	<g>
		<path fill="#020202" d="M16,2.84777813 C16,2.45698078 15.6855622,2.14056098 15.2972127,2.14056098 L12.5274037,2.14056098 L12.5274037,0 L11.1631694,0 L11.1631694,2.14056098 L4.83557783,2.14056098 L4.83557783,0 L3.4725963,0 L3.4725963,2.14056098 L0.702787347,2.14056098 C0.314437833,2.14056098 0,2.45698078 0,2.84777813 L0,4 L16,4 L16,2.84777813 Z M16,5 L16,15.2406551 C16,15.6595659 15.5966176,16 15.0980269,16 L0.901973066,16 C0.403382399,16 0,15.6595659 0,15.2406551 L0,5 L16,5 Z M1.25274037,14.8946945 L14.7472596,14.8946945 L14.7472596,6.10530547 L1.25274037,6.10530547 L1.25274037,14.8946945 Z"/>
	</g>
</svg>
