<svg xmlns="http://www.w3.org/2000/svg" viewBox="0 0 3 16">
	<path d="M0.98944591,0.0001 L0,1.2501 L0,1.0001 C0,0.4501 0.356200528,0.0001 0.791556728,0.0001 L0.98944591,0.0001 Z M3,1.0001 L3,1.5901 L0,5.3701 L0,3.2501 L2.50923483,0.0801 L2.5171504,0.0801 C2.80211082,0.2301 3,0.5901 3,1.0001 Z M3,3.4698 L3,5.5898 L0,9.3898 L0,7.2598 L3,3.4698 Z M3,7.7198 L3,9.8398 L0,13.6298 L0,11.5098 L3,7.7198 Z M3,11.84 L3,13.96 L1.38522427,16 L0.791556728,16 C0.498680739,16 0.237467018,15.79 0.110817942,15.49 L3,11.84 Z"/>
</svg>
