<svg xmlns="http://www.w3.org/2000/svg" viewBox="0 0 16 16">
	<path d="M4.778 2.242c-.2 0-.358.04-.474.117a.85.85 0 0 0-.275.29 1.033 1.033 0 0 0-.125.392 3.564 3.564 0 0 0-.025.416v2.532c0 .41-.064.74-.191.99-.128.25-.278.444-.45.583a1.573 1.573 0 0 1-.541.29 2.5 2.5 0 0 1-.466.1v.05c.122.012.277.048.466.109.188.06.369.16.541.3.172.139.322.322.45.549.127.227.191.52.191.874v2.664c0 .122.008.256.025.4.017.144.059.274.125.39a.85.85 0 0 0 .275.292c.116.079.274.117.474.117h.899v1.864H3.563a1.79 1.79 0 0 1-.641-.14 2.259 2.259 0 0 1-1.19-1.116 2.147 2.147 0 0 1-.217-.991v-3.23a1.2 1.2 0 0 0-.167-.65 1.418 1.418 0 0 0-.399-.424 1.661 1.661 0 0 0-.5-.232A1.672 1.672 0 0 0 0 8.702v-1.45c.122 0 .272-.023.449-.073a1.486 1.486 0 0 0 .899-.717 1.4 1.4 0 0 0 .167-.707v-3.13c0-.377.072-.708.217-.99.144-.284.318-.517.524-.7.205-.183.427-.322.666-.416.238-.095.452-.142.641-.142h2.114v1.865h-.899zm6.427 11.455c.2 0 .358-.04.475-.117a.859.859 0 0 0 .275-.291c.066-.117.107-.247.124-.391a3.43 3.43 0 0 0 .025-.4V9.834c0-.354.064-.647.192-.874a1.87 1.87 0 0 1 .45-.55c.17-.138.352-.238.54-.3.189-.06.344-.096.466-.107v-.05a2.558 2.558 0 0 1-.465-.1 1.555 1.555 0 0 1-.541-.291 1.748 1.748 0 0 1-.45-.583c-.128-.25-.192-.58-.192-.99V3.457c0-.133-.008-.271-.025-.416a1.032 1.032 0 0 0-.124-.391.859.859 0 0 0-.275-.291c-.117-.078-.275-.117-.475-.117h-.9V.377h2.115c.189 0 .403.047.64.142.24.094.462.233.668.416.205.183.379.416.524.699.144.283.217.614.217.99v3.13a1.403 1.403 0 0 0 .566 1.174c.155.118.32.2.499.25.177.05.333.075.466.075v1.449c-.133 0-.29.025-.466.076a1.656 1.656 0 0 0-.5.232 1.397 1.397 0 0 0-.4.425 1.2 1.2 0 0 0-.165.649v3.23c0 .378-.073.707-.217.99a2.373 2.373 0 0 1-.524.7 2.276 2.276 0 0 1-.667.417 1.79 1.79 0 0 1-.641.14h-2.114v-1.864h.899z"/>
</svg>
