<svg xmlns="http://www.w3.org/2000/svg" viewBox="0 0 16 16">
	<path fill-rule="evenodd" d="M8 10.907a2.927 2.927 0 0 1-2.93-2.923A2.927 2.927 0 0 1 8 5.06a2.927 2.927 0 0 1 2.932 2.923A2.927 2.927 0 0 1 8 10.907zm8-1.997V6.97l-2.32-.449-.024.002A5.79 5.79 0 0 0 13 4.97l1.32-1.962-1.361-1.373-1.955 1.337-.011.01a5.832 5.832 0 0 0-1.583-.654L8.969 0H7.043L6.6 2.324a5.83 5.83 0 0 0-1.557.639l-.047-.042-1.955-1.338L1.68 2.956l1.326 1.971.014.011a5.759 5.759 0 0 0-.673 1.584L2.32 6.52 0 6.97v1.94l2.318.447c.142.585.375 1.13.679 1.633L1.68 12.944l1.362 1.373 1.955-1.336c.485.29 1.012.512 1.574.654l.002.025.444 2.34h1.926l.444-2.34-.001-.012a5.796 5.796 0 0 0 1.62-.67l.018.015 1.955 1.338 1.362-1.373-1.327-1.971-.006-.005a5.76 5.76 0 0 0 .674-1.625L16 8.91z"/>
</svg>
