<svg width="8" height="8" viewBox="0 0 8 8" fill="none" xmlns="http://www.w3.org/2000/svg">
<path d="M3.438 1.004C3.32366 1.01637 3.21791 1.07049 3.141 1.156C3.07503 1.22432 3.02904 1.30939 3.008 1.402C3.004 1.43 3.004 1.496 3 2.715V4H2.59C2.324 4 2.164 4 2.145 4.004C2.04089 4.01754 1.94358 4.06312 1.86653 4.13443C1.78949 4.20574 1.73653 4.29925 1.715 4.402C1.70775 4.46038 1.70641 4.51935 1.711 4.578C1.7252 4.656 1.75738 4.72961 1.805 4.793C1.82 4.816 2.137 5.133 2.758 5.758C3.781 6.778 3.711 6.711 3.797 6.75C3.86387 6.77874 3.93609 6.79289 4.00886 6.79151C4.08163 6.79013 4.15327 6.77325 4.219 6.742C4.293 6.703 4.242 6.754 5.239 5.758C5.863 5.133 6.179 4.816 6.199 4.793C6.23007 4.7488 6.25372 4.69982 6.269 4.648C6.3038 4.54238 6.30133 4.42802 6.262 4.324C6.23567 4.25538 6.19477 4.19329 6.14211 4.14201C6.08945 4.09073 6.0263 4.05149 5.957 4.027C5.879 4 5.91 4.004 5.434 4H5V2.715C5 1.496 4.996 1.43 4.992 1.402C4.97264 1.30492 4.92374 1.21621 4.852 1.148C4.78514 1.07896 4.69909 1.03158 4.605 1.012C4.57 1.004 4.566 1.004 4.015 1C3.703 1 3.453 1.004 3.438 1.004Z" fill="currentColor"/>
</svg>
