<svg width="8" height="8" viewBox="0 0 8 8" fill="none" xmlns="http://www.w3.org/2000/svg">
<path d="M3.414 1.71001C3.33974 1.72606 3.26939 1.75665 3.207 1.80001C3.184 1.82001 2.867 2.13701 2.242 2.75801C1.512 3.49201 1.309 3.69501 1.293 3.71801C1.23706 3.80122 1.2084 3.89977 1.211 4.00001C1.211 4.10501 1.231 4.18401 1.289 4.27301C1.309 4.30101 1.429 4.42601 2.242 5.23801C2.852 5.85201 3.184 6.18001 3.207 6.19501C3.29649 6.26123 3.40571 6.29529 3.51698 6.29166C3.62825 6.28803 3.73502 6.24692 3.82 6.17501C3.89437 6.11596 3.9491 6.03577 3.977 5.94501C4 5.87101 3.997 5.90201 4 5.43401V5.00001H5.285C6.504 4.99601 6.57 4.99601 6.598 4.99201C6.69508 4.97265 6.7838 4.92375 6.852 4.85201C6.92768 4.78029 6.97699 4.68518 6.992 4.58201C7 4.54301 7 3.45701 6.992 3.41801C6.97699 3.31483 6.92768 3.21972 6.852 3.14801C6.78514 3.07897 6.69909 3.03159 6.605 3.01201L6.57 3.00001H4V2.59001C4 2.32801 4 2.16401 3.996 2.14501C3.98246 2.0409 3.93688 1.94358 3.86557 1.86654C3.79426 1.78949 3.70075 1.73654 3.598 1.71501C3.53694 1.7077 3.47532 1.70536 3.414 1.71001Z" fill="currentColor"/>
</svg>
