<svg width="8" height="8" viewBox="0 0 8 8" fill="none" xmlns="http://www.w3.org/2000/svg">
<g clip-path="url(#clip0_2538_14621)">
<path d="M6.91 1.004C6.762 1.016 6.61 1.07 6.48 1.148C6.379 1.207 6.484 1.105 4.68 2.91L3 4.586L2.32 3.91C1.617 3.203 1.621 3.21 1.535 3.152C1.47329 3.11713 1.4095 3.08607 1.344 3.059C1.21337 3.01364 1.07498 2.99494 0.936997 3.004C0.741248 3.01467 0.553325 3.0844 0.397997 3.204C0.343997 3.242 0.245997 3.34 0.202997 3.394C0.120428 3.50253 0.0611922 3.62695 0.0290113 3.75946C-0.00316956 3.89197 -0.00760061 4.0297 0.0159965 4.164C0.0389965 4.32 0.105997 4.473 0.202997 4.605C0.226997 4.633 0.468997 4.879 1.293 5.703C2.433 6.843 2.379 6.793 2.48 6.852C2.65672 6.95979 2.86254 7.01008 3.06906 6.99593C3.27558 6.98178 3.47262 6.90389 3.633 6.773C3.653 6.758 4.59 5.824 5.719 4.695C7.863 2.547 7.789 2.625 7.848 2.531C7.875 2.488 7.922 2.395 7.941 2.34C7.977 2.242 8 2.11 8 2C8 1.89 7.977 1.758 7.941 1.656C7.9147 1.59144 7.88361 1.52894 7.848 1.469C7.78899 1.37792 7.7165 1.29632 7.633 1.227C7.54571 1.15619 7.44785 1.0995 7.343 1.059C7.20391 1.01139 7.05657 0.992677 6.91 1.004Z" fill="currentColor"/>
</g>
<defs>
<clipPath id="clip0_2538_14621">
<rect width="8" height="8" fill="white"/>
</clipPath>
</defs>
</svg>
