<svg width="8" height="8" viewBox="0 0 8 8" fill="none" xmlns="http://www.w3.org/2000/svg">
<g clip-path="url(#clip0_2538_16911)">
<path d="M0.909997 1.00394C0.771929 1.01787 0.63811 1.0596 0.516604 1.12663C0.395097 1.19365 0.288418 1.28458 0.202997 1.39394C0.120428 1.50246 0.0611922 1.62689 0.0290113 1.7594C-0.00316956 1.89191 -0.00760061 2.02964 0.0159965 2.16394C0.0389965 2.31994 0.105997 2.47294 0.202997 2.60494C0.226997 2.63294 0.390997 2.80094 0.909997 3.31994L1.59 3.99994L0.909997 4.67994C0.206997 5.38294 0.209997 5.37894 0.155997 5.46894C0.0646381 5.61218 0.012005 5.77668 0.00324118 5.94634C-0.00552268 6.11601 0.0298825 6.28505 0.105997 6.43694C0.155997 6.54694 0.202997 6.61294 0.292997 6.70294C0.385225 6.79976 0.497047 6.87578 0.620997 6.92594C0.787879 6.99364 0.969912 7.01516 1.14798 6.98824C1.32605 6.96132 1.49359 6.88695 1.633 6.77294C1.653 6.75794 2.141 6.27294 2.719 5.69494C3.813 4.59794 3.789 4.62094 3.848 4.53094C3.875 4.48794 3.922 4.39494 3.941 4.33994C3.98849 4.20325 4.00721 4.05822 3.996 3.91394C3.97737 3.72576 3.90827 3.5461 3.796 3.39394C3.44148 3.02621 3.08245 2.66285 2.719 2.30394C2.141 1.72694 1.652 1.24194 1.633 1.22294C1.54461 1.15478 1.44696 1.09956 1.343 1.05894C1.20391 1.01133 1.05657 0.992616 0.909997 1.00394Z" fill="currentColor"/>
<path d="M4.91 1.00394C4.77193 1.01787 4.63811 1.0596 4.5166 1.12663C4.3951 1.19365 4.28842 1.28458 4.203 1.39394C4.10183 1.52686 4.03595 1.68321 4.01147 1.84844C3.98699 2.01367 4.00472 2.18241 4.063 2.33894C4.08521 2.40684 4.11649 2.47142 4.156 2.53094C4.211 2.62094 4.207 2.61694 4.91 3.32094L5.59 3.99994L4.91 4.67994C4.39 5.19994 4.227 5.36694 4.203 5.39494C4.10183 5.52786 4.03595 5.68421 4.01147 5.84944C3.98699 6.01467 4.00472 6.18341 4.063 6.33994C4.1413 6.55247 4.28844 6.73269 4.481 6.85194C4.65762 6.95951 4.86324 7.00967 5.06955 6.99552C5.27586 6.98137 5.47271 6.90361 5.633 6.77294C5.653 6.75794 6.141 6.27294 6.719 5.69494C7.812 4.59794 7.789 4.62094 7.848 4.53094C7.875 4.48794 7.922 4.39494 7.941 4.33994C7.977 4.24194 8 4.10994 8 3.99994C8 3.88994 7.977 3.75794 7.941 3.65594C7.9147 3.59138 7.88361 3.52887 7.848 3.46894C7.789 3.37894 7.813 3.40194 6.718 2.30494C6.141 1.72694 5.652 1.24194 5.633 1.22294C5.54461 1.15478 5.44696 1.09956 5.343 1.05894C5.20391 1.01133 5.05657 0.992616 4.91 1.00394Z" fill="currentColor"/>
</g>
<defs>
<clipPath id="clip0_2538_16911">
<rect width="8" height="8" fill="white"/>
</clipPath>
</defs>
</svg>
