<svg width="8" height="8" viewBox="0 0 8 8" fill="none" xmlns="http://www.w3.org/2000/svg">
<g clip-path="url(#clip0_2538_16145)">
<path d="M2.91 1.004C2.762 1.016 2.61 1.07 2.48 1.148C2.379 1.207 2.434 1.156 1.293 2.297C0.926227 2.65957 0.562877 3.02559 0.202999 3.395C0.12059 3.50361 0.0614535 3.62804 0.0292792 3.76052C-0.00289508 3.893 -0.00741593 4.0307 0.0159988 4.165C0.0389988 4.32 0.105999 4.473 0.202999 4.605C0.226999 4.633 0.468999 4.879 1.293 5.703C2.433 6.843 2.379 6.793 2.48 6.852C2.71 6.996 2.984 7.035 3.254 6.965C3.32033 6.94971 3.38449 6.92619 3.445 6.895C3.57384 6.832 3.68738 6.74165 3.77771 6.63025C3.86804 6.51885 3.93298 6.38908 3.968 6.25C4.01098 6.08475 4.01098 5.91125 3.968 5.746C3.93261 5.61966 3.87468 5.50075 3.797 5.395C3.56457 5.15349 3.32888 4.91514 3.09 4.68L2.414 4L3.09 3.32C3.793 2.617 3.79 2.621 3.848 2.531C3.875 2.488 3.922 2.395 3.941 2.34C3.977 2.242 4 2.11 4 2C4 1.89 3.977 1.758 3.941 1.656C3.9147 1.59144 3.88361 1.52894 3.848 1.469C3.789 1.37792 3.7165 1.29632 3.633 1.227C3.54571 1.15619 3.44785 1.0995 3.343 1.059C3.20391 1.01139 3.05657 0.992677 2.91 1.004Z" fill="currentColor"/>
<path d="M6.91 1.004C6.762 1.016 6.61 1.07 6.48 1.148C6.379 1.207 6.434 1.156 5.293 2.297C4.92623 2.65957 4.56288 3.02559 4.203 3.395C4.10184 3.52792 4.03595 3.68427 4.01147 3.8495C3.98699 4.01473 4.00472 4.18347 4.063 4.34C4.08529 4.40755 4.11657 4.4718 4.156 4.531C4.211 4.621 4.188 4.598 5.293 5.703C6.433 6.843 6.379 6.793 6.48 6.852C6.71 6.996 6.984 7.035 7.254 6.965C7.32033 6.94971 7.38449 6.92619 7.445 6.895C7.57384 6.832 7.68738 6.74165 7.77771 6.63025C7.86804 6.51885 7.93298 6.38908 7.968 6.25C8.01099 6.08475 8.01099 5.91125 7.968 5.746C7.93261 5.61966 7.87468 5.50075 7.797 5.395C7.56457 5.15349 7.32888 4.91514 7.09 4.68L6.414 4L7.09 3.32C7.793 2.617 7.79 2.621 7.848 2.531C7.875 2.488 7.922 2.395 7.941 2.34C7.977 2.242 8 2.11 8 2C8 1.89 7.977 1.758 7.941 1.656C7.9147 1.59144 7.88361 1.52894 7.848 1.469C7.789 1.37792 7.7165 1.29632 7.633 1.227C7.54571 1.15619 7.44785 1.0995 7.343 1.059C7.20391 1.01139 7.05657 0.992677 6.91 1.004Z" fill="currentColor"/>
</g>
<defs>
<clipPath id="clip0_2538_16145">
<rect width="8" height="8" fill="white"/>
</clipPath>
</defs>
</svg>
