<svg width="8" height="8" viewBox="0 0 8 8" fill="none" xmlns="http://www.w3.org/2000/svg">
<path d="M4.41 1.00394C4.262 1.01594 4.11 1.06994 3.98 1.14794C3.879 1.20694 3.934 1.15594 2.793 2.29694C2.42623 2.65951 2.06288 3.02553 1.703 3.39494C1.62059 3.50355 1.56145 3.62798 1.52928 3.76046C1.4971 3.89294 1.49258 4.03064 1.516 4.16494C1.539 4.31994 1.606 4.47294 1.703 4.60494C1.727 4.63294 1.969 4.87894 2.793 5.70294C3.933 6.84294 3.879 6.79294 3.98 6.85194C4.21 6.99594 4.484 7.03494 4.754 6.96494C4.82033 6.94965 4.88449 6.92613 4.945 6.89494C5.07384 6.83194 5.18738 6.74159 5.27771 6.63019C5.36804 6.51879 5.43298 6.38902 5.468 6.24994C5.51098 6.08469 5.51098 5.91119 5.468 5.74594C5.43261 5.6196 5.37468 5.50069 5.297 5.39494C5.06457 5.15343 4.82888 4.91508 4.59 4.67994L3.914 3.99994L4.59 3.31994C5.293 2.61694 5.29 2.62094 5.348 2.53094C5.375 2.48794 5.422 2.39494 5.441 2.33994C5.477 2.24194 5.5 2.10994 5.5 1.99994C5.5 1.88994 5.477 1.75794 5.441 1.65594C5.4147 1.59138 5.38361 1.52887 5.348 1.46894C5.289 1.37786 5.2165 1.29626 5.133 1.22694C5.04571 1.15613 4.94785 1.09944 4.843 1.05894C4.70391 1.01133 4.55657 0.992616 4.41 1.00394Z" fill="currentColor"/>
</svg>
