<svg width="8" height="8" viewBox="0 0 8 8" fill="none" xmlns="http://www.w3.org/2000/svg">
<g clip-path="url(#clip0_2538_16145)">
<path d="M2.91 1.00394C2.762 1.01594 2.61 1.06994 2.48 1.14794C2.379 1.20694 2.434 1.15594 1.293 2.29694C0.926227 2.65951 0.562877 3.02553 0.202999 3.39494C0.12059 3.50355 0.0614535 3.62798 0.0292792 3.76046C-0.00289508 3.89294 -0.00741593 4.03064 0.0159988 4.16494C0.0389988 4.31994 0.105999 4.47294 0.202999 4.60494C0.226999 4.63294 0.468999 4.87894 1.293 5.70294C2.433 6.84294 2.379 6.79294 2.48 6.85194C2.71 6.99594 2.984 7.03494 3.254 6.96494C3.32033 6.94965 3.38449 6.92613 3.445 6.89494C3.57384 6.83194 3.68738 6.74159 3.77771 6.63019C3.86804 6.51879 3.93298 6.38902 3.968 6.24994C4.01098 6.08469 4.01098 5.91119 3.968 5.74594C3.93261 5.6196 3.87468 5.50069 3.797 5.39494C3.56457 5.15343 3.32888 4.91508 3.09 4.67994L2.414 3.99994L3.09 3.31994C3.793 2.61694 3.79 2.62094 3.848 2.53094C3.875 2.48794 3.922 2.39494 3.941 2.33994C3.977 2.24194 4 2.10994 4 1.99994C4 1.88994 3.977 1.75794 3.941 1.65594C3.9147 1.59138 3.88361 1.52887 3.848 1.46894C3.789 1.37786 3.7165 1.29626 3.633 1.22694C3.54571 1.15613 3.44785 1.09944 3.343 1.05894C3.20391 1.01133 3.05657 0.992616 2.91 1.00394Z" fill="currentColor"/>
<path d="M6.91 1.00394C6.762 1.01594 6.61 1.06994 6.48 1.14794C6.379 1.20694 6.434 1.15594 5.293 2.29694C4.92623 2.65951 4.56288 3.02553 4.203 3.39494C4.10184 3.52786 4.03595 3.68421 4.01147 3.84944C3.98699 4.01467 4.00472 4.18341 4.063 4.33994C4.08529 4.40749 4.11657 4.47174 4.156 4.53094C4.211 4.62094 4.188 4.59794 5.293 5.70294C6.433 6.84294 6.379 6.79294 6.48 6.85194C6.71 6.99594 6.984 7.03494 7.254 6.96494C7.32033 6.94965 7.38449 6.92613 7.445 6.89494C7.57384 6.83194 7.68738 6.74159 7.77771 6.63019C7.86804 6.51879 7.93298 6.38902 7.968 6.24994C8.01099 6.08469 8.01099 5.91119 7.968 5.74594C7.93261 5.6196 7.87468 5.50069 7.797 5.39494C7.56457 5.15343 7.32888 4.91508 7.09 4.67994L6.414 3.99994L7.09 3.31994C7.793 2.61694 7.79 2.62094 7.848 2.53094C7.875 2.48794 7.922 2.39494 7.941 2.33994C7.977 2.24194 8 2.10994 8 1.99994C8 1.88994 7.977 1.75794 7.941 1.65594C7.9147 1.59138 7.88361 1.52887 7.848 1.46894C7.789 1.37786 7.7165 1.29626 7.633 1.22694C7.54571 1.15613 7.44785 1.09944 7.343 1.05894C7.20391 1.01133 7.05657 0.992616 6.91 1.00394Z" fill="currentColor"/>
</g>
<defs>
<clipPath id="clip0_2538_16145">
<rect width="8" height="8" fill="white"/>
</clipPath>
</defs>
</svg>
