<svg width="8" height="8" viewBox="0 0 8 8" fill="none" xmlns="http://www.w3.org/2000/svg">
<g clip-path="url(#clip0_2538_25212)">
<path d="M0.909997 0.00406805C0.77193 0.0179911 0.638111 0.0597233 0.516605 0.12675C0.395098 0.193776 0.288419 0.284709 0.202997 0.394068C0.120429 0.502589 0.0611931 0.627012 0.0290122 0.759522C-0.00316865 0.892031 -0.00759971 1.02976 0.0159974 1.16407C0.0389974 1.32007 0.105997 1.47307 0.202997 1.60507C0.226997 1.63307 0.492997 1.90207 1.41 2.82007L2.59 4.00007L1.41 5.18007C1.00418 5.58159 0.601832 5.98661 0.202997 6.39507C0.0909634 6.54246 0.0224096 6.71825 0.00509067 6.90258C-0.0122282 7.0869 0.0223789 7.27239 0.104997 7.43807C0.155997 7.54707 0.202997 7.61307 0.292997 7.70307C0.385226 7.79988 0.497048 7.87591 0.620997 7.92607C0.768881 7.98611 0.928957 8.00999 1.08793 7.99573C1.24689 7.98147 1.40016 7.92947 1.535 7.84407C1.625 7.78907 1.59 7.82007 2.82 6.59007L4 5.41007L5.18 6.59007C6.445 7.85507 6.379 7.79307 6.48 7.85207C6.71 7.99607 6.984 8.03507 7.254 7.96507C7.32033 7.94977 7.38449 7.92626 7.445 7.89507C7.57384 7.83206 7.68738 7.74171 7.77771 7.63031C7.86804 7.51891 7.93298 7.38915 7.968 7.25007C8.01098 7.08482 8.01098 6.91132 7.968 6.74607C7.93261 6.61972 7.87468 6.50081 7.797 6.39507C7.39816 5.98661 6.99581 5.58159 6.59 5.18007L5.414 4.00007L6.59 2.82007C7.82 1.59007 7.79 1.62107 7.848 1.53107C7.875 1.48807 7.922 1.39507 7.941 1.34007C7.98849 1.20338 8.00722 1.05834 7.996 0.914068C7.97939 0.684202 7.88114 0.467848 7.719 0.304068C7.64014 0.222071 7.54737 0.154696 7.445 0.105068C7.32607 0.0442895 7.19544 0.00984164 7.062 0.00406805C6.8576 -0.0112251 6.65368 0.0392313 6.48 0.148068C6.38 0.207068 6.445 0.145068 5.18 1.41007L4 2.58607L2.82 1.41007C1.59 0.180068 1.625 0.210068 1.535 0.152068C1.47327 0.117537 1.40948 0.0868126 1.344 0.060068C1.20467 0.0119816 1.05697 -0.00707618 0.909997 0.00406805Z" fill="currentColor"/>
</g>
<defs>
<clipPath id="clip0_2538_25212">
<rect width="8" height="8" fill="white"/>
</clipPath>
</defs>
</svg>
