<svg width="8" height="8" viewBox="0 0 8 8" fill="none" xmlns="http://www.w3.org/2000/svg">
<path d="M5.434 0.417895C5.23823 0.429938 5.05038 0.499513 4.894 0.617895C4.867 0.640895 4.762 0.741895 4.43 1.06989C4.043 1.45689 4.004 1.49589 4.008 1.50389C4.25842 1.91898 4.55024 2.30763 4.879 2.66389C4.965 2.75789 5.242 3.03489 5.336 3.12089C5.68848 3.44666 6.07312 3.7358 6.484 3.98389L6.504 3.99589L6.93 3.56989C7.246 3.24989 7.36 3.13289 7.383 3.10489C7.653 2.73789 7.653 2.26189 7.383 1.89489C7.18013 1.68217 6.97445 1.47215 6.766 1.26489C6.55822 1.05598 6.34821 0.8493 6.136 0.644895C6.03176 0.557708 5.91102 0.49241 5.781 0.452895C5.6683 0.420869 5.55082 0.40902 5.434 0.417895ZM1.973 3.53089C0.573998 4.92589 0.639998 4.85989 0.581998 4.95689C0.520418 5.05798 0.476775 5.16894 0.452998 5.28489L0.276998 6.32489C0.0939978 7.42389 0.101998 7.3819 0.112998 7.4679C0.147998 7.68589 0.323998 7.8539 0.542998 7.8859C0.620998 7.8969 0.597998 7.9009 1.676 7.7219L2.715 7.5459C2.82989 7.52278 2.93966 7.47908 3.039 7.41689C3.141 7.35389 3.07 7.4249 4.469 6.0269L5.773 4.7219L5.695 4.6709C4.77226 4.0507 3.97692 3.25943 3.352 2.33989C3.312 2.28089 3.282 2.22989 3.277 2.22989C3.277 2.22689 2.687 2.81289 1.973 3.53089Z" fill="currentColor"/>
</svg>
