<svg width="8" height="8" viewBox="0 0 8 8" fill="none" xmlns="http://www.w3.org/2000/svg">
<g clip-path="url(#clip0_2538_58261)">
<path d="M3.246 0.00390662C3.17553 0.0141602 3.10796 0.0389163 3.04754 0.076611C2.98713 0.114306 2.93519 0.16412 2.895 0.222907C2.883 0.242907 2.816 0.366907 2.75 0.502907C2.68 0.640907 2.617 0.765907 2.605 0.780907C2.58693 0.8043 2.56756 0.826668 2.547 0.847907C2.47975 0.918786 2.39258 0.967601 2.297 0.987907C2.266 0.995907 2.257 0.995907 1.597 0.999907C0.980001 1.00391 0.930001 1.00391 0.902001 1.00791C0.805256 1.02817 0.716791 1.07693 0.648001 1.14791C0.600897 1.19338 0.56377 1.24816 0.538979 1.30876C0.514189 1.36936 0.502277 1.43446 0.504001 1.49991C0.504001 1.63991 0.551001 1.75391 0.648001 1.85191C0.723001 1.92591 0.808001 1.97191 0.918001 1.99191C0.957001 1.99991 7.043 1.99991 7.082 1.99191C7.18462 1.97519 7.27921 1.92614 7.352 1.85191C7.39911 1.80643 7.43623 1.75165 7.46102 1.69105C7.48581 1.63045 7.49773 1.56536 7.496 1.49991C7.49773 1.43446 7.48581 1.36936 7.46102 1.30876C7.43623 1.24816 7.39911 1.19338 7.352 1.14791C7.28452 1.07968 7.19874 1.03244 7.105 1.01191C7.07 1.00391 7.062 1.00391 6.402 0.999907C5.742 0.995907 5.734 0.995907 5.703 0.987907C5.64042 0.973849 5.58083 0.948793 5.527 0.913907C5.47734 0.875573 5.43296 0.830854 5.395 0.780907C5.387 0.765907 5.316 0.636907 5.246 0.491907C5.106 0.210907 5.098 0.199907 5.036 0.136907C4.95666 0.0641428 4.85677 0.0176882 4.75 0.00390662C4.24868 -1.22935e-07 3.74733 -1.22935e-07 3.246 0.00390662ZM1.531 3.00391C1.41945 3.01557 1.31502 3.06425 1.23437 3.14219C1.15371 3.22012 1.10148 3.32282 1.086 3.43391C1.074 3.50791 1.066 3.44491 1.356 5.37891C1.536 6.55891 1.633 7.20691 1.641 7.23391C1.687 7.42991 1.797 7.60891 1.941 7.74191C2.109 7.89091 2.312 7.97691 2.535 7.99591C2.613 8.00391 5.469 7.99991 5.515 7.99191C5.71256 7.96632 5.89789 7.88201 6.047 7.74991C6.22194 7.59763 6.338 7.38887 6.375 7.15991C6.379 7.13691 6.504 6.31591 6.648 5.33991C6.938 3.41391 6.926 3.50391 6.914 3.42191C6.8955 3.31784 6.84682 3.22152 6.774 3.14491C6.7041 3.07896 6.61775 3.03303 6.524 3.01191L6.487 2.99991H4.016C2.656 2.99991 1.539 2.99991 1.531 3.00391Z" fill="currentColor"/>
</g>
<defs>
<clipPath id="clip0_2538_58261">
<rect width="8" height="8" fill="white"/>
</clipPath>
</defs>
</svg>
