<svg width="8" height="8" viewBox="0 0 8 8" fill="none" xmlns="http://www.w3.org/2000/svg">
<path d="M3.938 0.210077C3.88961 0.217879 3.84229 0.231303 3.797 0.250077C3.711 0.290077 3.777 0.227077 2.757 1.24208C2.137 1.86708 1.82 2.18408 1.805 2.20708C1.75738 2.27046 1.7252 2.34408 1.711 2.42208C1.70646 2.48073 1.7078 2.53969 1.715 2.59808C1.73708 2.70057 1.7902 2.79377 1.86714 2.86499C1.94409 2.93621 2.04111 2.98198 2.145 2.99608C2.165 3.00008 2.328 3.00008 2.59 3.00008H3V3.78508C3.004 4.52008 3.004 4.57008 3.008 4.59808C3.02826 4.69482 3.07702 4.78329 3.148 4.85208C3.223 4.92608 3.308 4.97208 3.418 4.99208C3.457 5.00008 4.543 5.00008 4.582 4.99208C4.68462 4.97536 4.77921 4.92631 4.852 4.85208C4.92298 4.78329 4.97174 4.69482 4.992 4.59808C4.996 4.57008 4.996 4.52008 5 3.78508V3.00008H5.41C5.672 3.00008 5.836 3.00008 5.855 2.99608C5.9557 2.98376 6.05019 2.9408 6.12567 2.87301C6.20115 2.80523 6.25398 2.71588 6.277 2.61708C6.30003 2.52989 6.2976 2.43793 6.27 2.35208C6.25472 2.30025 6.23108 2.25128 6.2 2.20708C6.18 2.18408 5.863 1.86308 5.238 1.24208C4.242 0.246077 4.293 0.297077 4.218 0.258077C4.1791 0.240842 4.139 0.22647 4.098 0.215077C4.04497 0.207947 3.99132 0.206606 3.938 0.211077V0.210077ZM1.91 6.00408C1.74369 6.01882 1.58377 6.07522 1.445 6.16808C1.32849 6.24491 1.22964 6.34562 1.15499 6.46354C1.08034 6.58146 1.0316 6.7139 1.012 6.85208C0.990761 6.98787 0.997914 7.1266 1.03301 7.25949C1.0681 7.39238 1.13037 7.51655 1.21589 7.62415C1.30141 7.73175 1.40831 7.82045 1.52985 7.88464C1.65139 7.94883 1.78492 7.98711 1.922 7.99708C1.957 8.00008 2.55 8.00008 4.035 8.00008L6.102 7.99608L6.148 7.98808C6.36188 7.95516 6.55946 7.85423 6.71147 7.70023C6.86349 7.54623 6.96186 7.34736 6.992 7.13308C6.99984 7.04325 6.99984 6.95291 6.992 6.86308C6.97293 6.73101 6.92795 6.604 6.85965 6.48937C6.79135 6.37473 6.70107 6.27472 6.594 6.19508C6.46231 6.09894 6.30927 6.03614 6.148 6.01208L6.098 6.00008H4.02C2.875 6.00008 1.93 6.00408 1.91 6.00408Z" fill="currentColor"/>
</svg>
