<svg width="8" height="8" viewBox="0 0 8 8" fill="none" xmlns="http://www.w3.org/2000/svg">
<path d="M3.438 0.004C3.34835 0.0158749 3.26328 0.050661 3.191 0.105C3.11556 0.166573 3.05877 0.24795 3.027 0.34C3.00691 0.402978 2.99778 0.468934 3 0.535C3 0.59 2.992 0.652 2.992 0.675C2.95718 0.926032 2.82722 1.15408 2.629 1.312C2.54498 1.38073 2.44998 1.43482 2.348 1.472C2.20958 1.52464 2.06106 1.54532 1.91353 1.53251C1.766 1.5197 1.62327 1.47371 1.496 1.398C1.461 1.378 1.418 1.359 1.402 1.352C1.30986 1.31546 1.20888 1.30736 1.1121 1.32874C1.01531 1.35013 0.927155 1.40003 0.858998 1.472C0.841463 1.48837 0.826013 1.50685 0.812998 1.527C0.792998 1.551 0.292998 2.422 0.269998 2.465C0.25213 2.50537 0.237745 2.54718 0.226998 2.59C0.218306 2.65479 0.219317 2.72051 0.229998 2.785C0.249998 2.883 0.292998 2.961 0.359998 3.027C0.396104 3.06744 0.439534 3.10069 0.487998 3.125C0.679998 3.238 0.807997 3.375 0.897997 3.555C0.928155 3.61734 0.95162 3.68271 0.967997 3.75C0.990632 3.83136 1.00141 3.91556 0.999997 4C1.00198 4.08309 0.99153 4.166 0.968997 4.246C0.95336 4.31512 0.929874 4.38222 0.898997 4.446C0.809387 4.62653 0.666191 4.77496 0.488997 4.871C0.440418 4.89772 0.39651 4.93217 0.358998 4.973C0.293043 5.03916 0.248157 5.12336 0.229998 5.215C0.219295 5.2768 0.218282 5.33989 0.226998 5.402C0.233998 5.442 0.253998 5.504 0.269998 5.535C0.292998 5.578 0.792997 6.445 0.811997 6.473C0.887543 6.57834 1.00077 6.65052 1.12815 6.67454C1.25553 6.69856 1.38727 6.67259 1.496 6.602C1.63848 6.51642 1.80028 6.46824 1.96637 6.46194C2.13246 6.45565 2.29745 6.49144 2.446 6.566C2.546 6.617 2.629 6.68 2.711 6.758C2.821 6.871 2.895 6.992 2.949 7.141C2.98 7.242 2.996 7.324 3 7.465C2.99778 7.53107 3.00691 7.59702 3.027 7.66C3.05051 7.73317 3.09213 7.79922 3.148 7.852C3.223 7.926 3.308 7.972 3.418 7.992C3.457 8 4.543 8 4.582 7.992C4.68461 7.97529 4.77921 7.92624 4.852 7.852C4.9075 7.79911 4.94878 7.73307 4.972 7.66C4.99282 7.59545 5.00229 7.52778 5 7.46C5.004 7.406 5.008 7.344 5.012 7.32C5.03287 7.16886 5.08852 7.02463 5.17459 6.89865C5.26066 6.77267 5.37479 6.66839 5.508 6.594C5.65905 6.50786 5.83012 6.46302 6.004 6.464C6.18 6.464 6.332 6.504 6.5 6.598C6.60802 6.67199 6.74088 6.70037 6.8697 6.67696C6.99852 6.65356 7.11291 6.58026 7.188 6.473C7.207 6.445 7.707 5.578 7.73 5.535C7.76247 5.46664 7.77856 5.39166 7.777 5.316C7.78048 5.22469 7.75726 5.13434 7.7102 5.05602C7.66313 4.9777 7.59426 4.91479 7.512 4.875C7.42886 4.82666 7.35252 4.76748 7.285 4.699C7.1933 4.60756 7.12112 4.49846 7.07282 4.37831C7.02452 4.25816 7.00111 4.12946 7.004 4C7.004 3.898 7.008 3.84 7.031 3.75C7.07332 3.57799 7.16265 3.42115 7.289 3.297C7.35464 3.22921 7.42976 3.17127 7.512 3.125C7.59476 3.08467 7.66399 3.02111 7.71123 2.94209C7.75847 2.86306 7.78167 2.77199 7.778 2.68C7.77881 2.60559 7.76238 2.532 7.73 2.465C7.71 2.43 7.215 1.563 7.191 1.535C7.14465 1.46591 7.08174 1.40952 7.008 1.371C6.93787 1.33513 6.8597 1.31791 6.781 1.321C6.67813 1.31828 6.57702 1.34802 6.492 1.406C6.34209 1.4914 6.17253 1.5363 6 1.5363C5.82747 1.5363 5.65791 1.4914 5.508 1.406C5.37479 1.33161 5.26066 1.22733 5.17459 1.10135C5.08852 0.97537 5.03287 0.831138 5.012 0.68C5.008 0.656 5.004 0.594 5 0.535C5.00221 0.468934 4.99308 0.402978 4.973 0.34C4.94949 0.266826 4.90787 0.20078 4.852 0.148C4.78514 0.0789611 4.69909 0.0315832 4.605 0.012C4.57 0.004 4.566 0.004 4.015 0C3.703 0 3.453 0.004 3.438 0.004ZM4.156 3.012C4.36528 3.04252 4.55862 3.14131 4.706 3.293C4.80495 3.39211 4.88201 3.51089 4.93218 3.64165C4.98235 3.77241 5.00452 3.91224 4.99727 4.05211C4.99001 4.19198 4.95348 4.32877 4.89005 4.45363C4.82661 4.5785 4.73768 4.68866 4.629 4.777C4.32 5.023 3.899 5.07 3.551 4.895C3.35834 4.79673 3.2026 4.63882 3.10702 4.44482C3.01143 4.25081 2.98111 4.03111 3.02058 3.81847C3.06005 3.60583 3.16719 3.41164 3.32603 3.26486C3.48488 3.11809 3.68691 3.02658 3.902 3.004C3.957 2.996 4.098 3.004 4.156 3.012Z" fill="currentColor"/>
</svg>
