<svg xmlns="http://www.w3.org/2000/svg" viewBox="0 0 16 16">
	<g fill="none" fill-rule="evenodd">
		<path fill="#0072C6" d="M15.7241379,7.54951657e-15 C15.8896552,7.54951657e-15 16,0.106668089 16,0.266670222 L16,1.86669156 L16,3.46671289 C16,3.62671502 15.8896552,3.73338311 15.7241379,3.73338311 L14.1241379,3.73338311 C13.9034483,3.73338311 13.7931034,3.62671502 13.7931034,3.46671289 L13.7931034,2.13336178 L2.20689655,2.13336178 L2.20689655,3.46671289 C2.20689655,3.62671502 2.09655172,3.73338311 1.93103448,3.73338311 L0.275862069,3.73338311 C0.110344828,3.73338311 1.59872116e-14,3.62671502 1.59872116e-14,3.46671289 L1.59872116e-14,0.266670222 C1.59872116e-14,0.106668089 0.110344828,7.54951657e-15 0.275862069,7.54951657e-15 L0.827586207,7.54951657e-15 L1.87586207,7.54951657e-15 L14.0689655,7.54951657e-15 L15.7241379,7.54951657e-15 Z M15.7241379,12.3199509 C15.8896552,12.3199509 16,12.4276857 16,12.5866212 L16,15.7333298 C16,15.8943986 15.8896552,16 15.7241379,16 L15.6689655,16 L14.1241379,16 L1.93103448,16 L0.827586207,16 L0.275862069,16 C0.110344828,16 0,15.8943986 0,15.7333298 L0,12.5866212 C0,12.373285 0.110344828,12.2666169 0.275862069,12.2666169 L1.87586207,12.2666169 C2.09655172,12.2666169 2.20689655,12.373285 2.20689655,12.5332871 L2.20689655,13.8666382 L13.8482759,13.8666382 L13.8482759,12.5866212 C13.8482759,12.4276857 13.9586207,12.3199509 14.1241379,12.3199509 L15.7241379,12.3199509 Z"/>
		<path fill="#B8D432" d="M5.66666667,9.06666667 C5.66666667,9.22666667 5.56,9.33333333 5.4,9.33333333 L3.26666667,9.33333333 C3.10666667,9.33333333 3,9.22666667 3,9.06666667 L3,7.46666667 C3,7.30666667 3.10666667,7.2 3.26666667,7.2 L5.34666667,7.2 C5.56,7.2 5.66666667,7.30666667 5.66666667,7.46666667 L5.66666667,9.06666667 Z M5.66666667,5.86666667 C5.66666667,6.02666667 5.56,6.13333333 5.4,6.13333333 L3.26666667,6.13333333 C3.10666667,6.13333333 3,6.02666667 3,5.86666667 L3,4.26666667 C3,4.10666667 3.10666667,4 3.26666667,4 L5.34666667,4 C5.56,4 5.66666667,4.10666667 5.66666667,4.26666667 L5.66666667,5.86666667 Z M5.66666667,12.2666667 C5.66666667,12.4266667 5.56,12.5333333 5.4,12.5333333 L3.26666667,12.5333333 C3.10666667,12.5333333 3,12.4266667 3,12.2666667 L3,10.6666667 C3,10.5066667 3.10666667,10.4 3.26666667,10.4 L5.34666667,10.4 C5.56,10.4 5.66666667,10.5066667 5.66666667,10.6666667 L5.66666667,12.2666667 Z M9.4,7.46666667 C9.4,7.62666667 9.29333333,7.73333333 9.13333333,7.73333333 L7.05333333,7.73333333 C6.89333333,7.73333333 6.78666667,7.62666667 6.78666667,7.46666667 L6.78666667,5.92 C6.78666667,5.76 6.89333333,5.65333333 7.05333333,5.65333333 L9.13333333,5.65333333 C9.29333333,5.65333333 9.4,5.76 9.4,5.92 L9.4,7.46666667 Z M13.1333333,9.06666667 C13.1333333,9.22666667 13.0266667,9.33333333 12.8666667,9.33333333 L10.7866667,9.33333333 C10.6266667,9.33333333 10.52,9.22666667 10.52,9.06666667 L10.52,7.52 C10.52,7.36 10.6266667,7.25333333 10.7866667,7.25333333 L12.8666667,7.25333333 C13.0266667,7.25333333 13.1333333,7.36 13.1333333,7.52 L13.1333333,9.06666667 Z M9.4,10.6666667 C9.4,10.8266667 9.29333333,10.9333333 9.13333333,10.9333333 L7.05333333,10.9333333 C6.89333333,10.9333333 6.78666667,10.8266667 6.78666667,10.6666667 L6.78666667,9.12 C6.78666667,8.96 6.89333333,8.85333333 7.05333333,8.85333333 L9.13333333,8.85333333 C9.29333333,8.85333333 9.4,8.96 9.4,9.12 L9.4,10.6666667 Z"/>
	</g>
</svg>
