<svg xmlns="http://www.w3.org/2000/svg" viewBox="0 0 16 16">
  <g>
    <path fill="#0078D7" d="M12.0103896,1.05974026 L3.98961039,1.05974026 L2.27373675e-13,8 L3.98961039,14.9402597 L12.0103896,14.9402597 L16,8 L12.0103896,1.05974026 Z M12.0519481,11.1168831 C12.0519481,11.6987013 11.5532468,12.1974026 10.9714286,12.1974026 L5.07012987,12.1974026 C4.48831169,12.1974026 3.98961039,11.6987013 3.98961039,11.1168831 L3.98961039,4.92467532 C3.98961039,4.34285714 4.48831169,3.84415584 5.07012987,3.84415584 L9.43376623,3.84415584 C9.84935065,3.84415584 10.2649351,3.84415584 10.2649351,3.84415584 L10.3896104,3.84415584 L12.0519481,5.50649351 L12.0519481,6.37922078 L12.0519481,11.1168831 Z M10.0987013,4.42597403 C9.93246753,4.42597403 9.68311688,4.42597403 9.43376623,4.42597403 L5.07012987,4.42597403 C4.77922078,4.42597403 4.57142857,4.63376623 4.57142857,4.92467532 L4.57142857,11.1168831 C4.57142857,11.4077922 4.77922078,11.6155844 5.07012987,11.6155844 L10.9714286,11.6155844 C11.2207792,11.6155844 11.4701299,11.4077922 11.4701299,11.1168831 L11.4701299,5.7974026 L10.1402597,5.7974026 L10.1402597,4.42597403 L10.0987013,4.42597403 Z M7.13350649,7.34794805 L6.5787013,7.34794805 L6.5787013,5.5812987 L6.03345455,5.74046753 L6.03345455,5.32031169 L7.08238961,4.95750649 L7.13309091,4.95750649 L7.13309091,7.34794805 L7.13350649,7.34794805 Z M9.80862338,6.37090909 C9.80862338,6.54379221 9.78825974,6.6934026 9.74794805,6.82015584 C9.70763636,6.94607792 9.6507013,7.05122078 9.57714286,7.13433766 C9.504,7.21745455 9.41631169,7.27937662 9.31449351,7.31968831 C9.21267532,7.36 9.10046753,7.38036364 8.97787013,7.38036364 C8.85402597,7.38036364 8.74098701,7.36 8.63875325,7.31968831 C8.53651948,7.27937662 8.44883117,7.21745455 8.37568831,7.13433766 C8.30254545,7.05122078 8.24477922,6.94607792 8.20405195,6.82015584 C8.16290909,6.6934026 8.14296104,6.54379221 8.14296104,6.37090909 L8.14296104,5.93412987 C8.14296104,5.76249351 8.16332468,5.61288312 8.20363636,5.48612987 C8.24394805,5.35937662 8.30088312,5.25423377 8.37444156,5.17111688 C8.44758442,5.088 8.53527273,5.02607792 8.63709091,4.98576623 C8.73807792,4.94503896 8.8507013,4.92467532 8.97454545,4.92467532 C9.09714286,4.92467532 9.20935065,4.94503896 9.31158442,4.98535065 C9.41381818,5.02566234 9.50192208,5.08758442 9.57548052,5.1707013 C9.64862338,5.25381818 9.70555844,5.35896104 9.7467013,5.48571429 C9.78784416,5.61246753 9.80862338,5.76207792 9.80862338,5.93371429 L9.80862338,6.37090909 Z M9.25506494,5.8638961 C9.25506494,5.76872727 9.24841558,5.68893506 9.23553247,5.62327273 C9.22223377,5.55885714 9.20394805,5.50566234 9.17984416,5.46493506 C9.15574026,5.42462338 9.12623377,5.39553247 9.09174026,5.37807792 C9.05724675,5.36062338 9.0185974,5.3518961 8.97454545,5.3518961 C8.93090909,5.3518961 8.89142857,5.36062338 8.85693506,5.37807792 C8.82244156,5.39553247 8.79335065,5.42462338 8.77007792,5.46493506 C8.74638961,5.50524675 8.72851948,5.55844156 8.71605195,5.62327273 C8.70358442,5.68893506 8.69735065,5.76872727 8.69735065,5.8638961 L8.69735065,6.43864935 C8.69735065,6.5358961 8.70316883,6.61776623 8.71605195,6.68342857 C8.72851948,6.74909091 8.74722078,6.80228571 8.77132468,6.84176623 C8.79542857,6.88207792 8.82493506,6.91075325 8.85984416,6.92820779 C8.89475325,6.94566234 8.93423377,6.95438961 8.97787013,6.95438961 C9.02067532,6.95438961 9.05890909,6.94566234 9.0934026,6.92820779 C9.1278961,6.91075325 9.1574026,6.88207792 9.18150649,6.84176623 C9.20561039,6.80228571 9.22348052,6.74909091 9.23636364,6.68342857 C9.24883117,6.61776623 9.25548052,6.53631169 9.25548052,6.43864935 L9.25548052,5.8638961 L9.25506494,5.8638961 Z M7.56696104,9.7334026 C7.56696104,9.90628571 7.5465974,10.0558961 7.50628571,10.1826494 C7.46597403,10.3085714 7.40903896,10.4137143 7.33548052,10.4968312 C7.26233766,10.5799481 7.17464935,10.6418701 7.07283117,10.6821818 C6.97101299,10.7224935 6.85880519,10.7428571 6.73620779,10.7428571 C6.61236364,10.7428571 6.49932468,10.7224935 6.39709091,10.6821818 C6.29485714,10.6418701 6.20716883,10.5799481 6.13402597,10.4968312 C6.06088312,10.4137143 6.00311688,10.3085714 5.96238961,10.1826494 C5.92124675,10.0558961 5.9012987,9.90628571 5.9012987,9.7334026 L5.9012987,9.29662338 C5.9012987,9.12498701 5.92166234,8.97537662 5.96197403,8.84862338 C6.00228571,8.72187013 6.05922078,8.61672727 6.13277922,8.53361039 C6.20592208,8.45049351 6.29361039,8.38857143 6.39542857,8.34825974 C6.49724675,8.30794805 6.60987013,8.28758442 6.73371429,8.28758442 C6.85631169,8.28758442 6.96851948,8.30794805 7.07075325,8.34825974 C7.17298701,8.38857143 7.26109091,8.45049351 7.33464935,8.53361039 C7.40779221,8.61672727 7.46472727,8.72187013 7.50587013,8.84862338 C7.54701299,8.97537662 7.56779221,9.12498701 7.56779221,9.29662338 L7.56779221,9.7334026 L7.56696104,9.7334026 Z M7.01381818,9.22597403 C7.01381818,9.13080519 7.00716883,9.05101299 6.99428571,8.98535065 C6.98098701,8.92093506 6.9627013,8.86774026 6.9385974,8.82701299 C6.91449351,8.7867013 6.88498701,8.75761039 6.85049351,8.74015584 C6.816,8.7227013 6.77735065,8.71397403 6.7332987,8.71397403 C6.68924675,8.71397403 6.65018182,8.7227013 6.61568831,8.74015584 C6.58119481,8.75761039 6.5521039,8.7867013 6.52883117,8.82701299 C6.50514286,8.86732468 6.48727273,8.92051948 6.47480519,8.98535065 C6.46233766,9.05101299 6.4561039,9.13080519 6.4561039,9.22597403 L6.4561039,9.80072727 C6.4561039,9.89797403 6.46192208,9.97984416 6.47480519,10.0455065 C6.48727273,10.1111688 6.50597403,10.1643636 6.53007792,10.2038442 C6.55418182,10.2441558 6.58368831,10.2728312 6.6185974,10.2902857 C6.65350649,10.3077403 6.69298701,10.3164675 6.73662338,10.3164675 C6.77942857,10.3164675 6.81766234,10.3077403 6.85215584,10.2902857 C6.88664935,10.2728312 6.91615584,10.2441558 6.94025974,10.2038442 C6.96436364,10.1643636 6.98223377,10.1111688 6.99511688,10.0455065 C7.00758442,9.97984416 7.01423377,9.89838961 7.01423377,9.80072727 L7.01423377,9.22597403 L7.01381818,9.22597403 Z M9.37516883,10.710026 L8.82036364,10.710026 L8.82036364,8.94337662 L8.27511688,9.10254545 L8.27511688,8.68238961 L9.32405195,8.31958442 L9.37475325,8.31958442 L9.37475325,10.710026 L9.37516883,10.710026 Z"/>
  </g>
</svg>
