<svg xmlns="http://www.w3.org/2000/svg" viewBox="0 0 16 16">
	<g fill="none">
		<path fill="#3E3E3E" d="M0.0315789474,2.176 L0.0315789474,13.792 C0.0315789474,15.008 2.71957895,15.968 6.07957895,15.968 L6.07957895,2.176 L0.0315789474,2.176 Z" transform="translate(2)"/>
		<path fill="#A0A1A2" d="M5.98357895,16 L6.07957895,16 C9.40757895,16 12.1275789,15.008 12.1275789,13.824 L12.1275789,2.176 L5.98357895,2.176 L5.98357895,16 Z" transform="translate(2)"/>
		<path fill="#FFF" d="M12.1275789,2.176 C12.1275789,3.392 9.43957895,4.352 6.07957895,4.352 C2.71957895,4.352 0.0315789474,3.392 0.0315789474,2.176 C0.0315789474,0.992 2.75157895,0 6.07957895,0 C9.40757895,0 12.1275789,0.992 12.1275789,2.176 Z" transform="translate(2)"/>
		<path fill="#7FBA00" d="M10.8795789,2.048 C10.8795789,2.848 8.73557895,3.488 6.07957895,3.488 C3.42357895,3.488 1.27957895,2.848 1.27957895,2.048 C1.27957895,1.248 3.42357895,0.608 6.07957895,0.608 C8.73557895,0.608 10.8795789,1.248 10.8795789,2.048 Z" transform="translate(2)"/>
		<path fill="#B8D432" d="M9.88757895,2.944 C10.5275789,2.688 10.8795789,2.4 10.8795789,2.048 C10.8795789,1.248 8.73557895,0.608 6.07957895,0.608 C3.42357895,0.608 1.27957895,1.248 1.27957895,2.048 C1.27957895,2.368 1.66357895,2.688 2.27157895,2.944 C3.13557895,2.592 4.51157895,2.368 6.07957895,2.368 C7.61557895,2.368 8.99157895,2.592 9.88757895,2.944 Z" transform="translate(2)"/>
		<path fill="#3999C6" d="M5.98357895,16 L5.98357895,10.24 C5.08757895,10.24 4.31957895,9.76 3.87157895,9.056 C3.42357895,9.76 2.68757895,10.24 1.79157895,10.24 C1.08757895,10.24 0.479578947,9.952 0.0315789474,9.472 L0.0315789474,13.824 C0.0315789474,15.008 2.68757895,15.968 5.98357895,16 Z" transform="translate(2)"/>
		<path fill="#59B4D9" d="M10.2746266,10.24 C9.36440434,10.24 8.55170593,9.76 8.09659482,9.056 C7.67399165,9.76 6.89380117,10.208 5.98357895,10.24 L5.98357895,16 L5.98357895,16 C9.36440434,16 12.1275789,15.008 12.1275789,13.824 L12.1275789,9.44 C11.6724678,9.92 11.0223091,10.24 10.2746266,10.24 Z" transform="translate(2)"/>
	</g>
</svg>
