<svg xmlns="http://www.w3.org/2000/svg" viewBox="0 0 16 16">
  <g class="ti-foreground">
    <path d="M1.00713015,14.9333333 L6,14.933 L6,12.8 L7,12.8 L7,16 L0,16 L0,1.6 C0,0.768324141 0.599129725,0.0848547433 1.36520519,0.00732434993 L1.51069523,0 L7,0 L7,3.2 L6,3.2 L6,2.066 L1.51069523,2.06666667 C1.26348517,2.06666667 1.05788108,2.2553335 1.01524326,2.50413266 L1.00713015,2.6 L1.007,7.481 L3.03973109,7.48195392 L2.45504705,6.89674831 C2.31946056,6.76579449 2.26508337,6.57187163 2.31281541,6.38951414 C2.36054745,6.20715665 2.5029605,6.0647436 2.68531799,6.01701156 C2.86767548,5.96927952 3.06159834,6.02365671 3.19255216,6.1592432 L4.66808394,7.63425342 C4.7660235,7.73208407 4.82105453,7.86483629 4.82105453,8.00326676 C4.82105453,8.14169722 4.7660235,8.27444944 4.66808394,8.3722801 L3.19255216,9.84729031 C2.98887774,10.0509032 2.65872148,10.0509032 2.45504705,9.84729031 C2.25143413,9.64361588 2.25143413,9.31345963 2.45504705,9.1097852 L3.03973109,8.52510117 L1.007,8.525 L1.00713015,14.9333333 Z M14.4893048,0 L14.6347948,0.00732434993 C15.355807,0.0802941319 15.9289365,0.690012652 15.9938686,1.45486532 L16,1.6 L16,16 L9,16 L9,12.8 L10,12.8 L10,14.933 L14.9928698,14.9333333 L14.992,8.525 L12.9513234,8.52510117 L13.5360075,9.1097852 C13.7396204,9.31345963 13.7396204,9.64361588 13.5360075,9.84729031 C13.3323331,10.0509032 13.0021768,10.0509032 12.7985024,9.84729031 L12.7985024,9.84729031 L11.3229706,8.3722801 C11.225031,8.27444944 11.17,8.14169722 11.17,8.00326676 C11.17,7.86483629 11.225031,7.73208407 11.3229706,7.63425342 L11.3229706,7.63425342 L12.7985024,6.1592432 C12.9294562,6.02365671 13.1233791,5.96927952 13.3057365,6.01701156 C13.488094,6.0647436 13.6305071,6.20715665 13.6782391,6.38951414 C13.7259712,6.57187163 13.671594,6.76579449 13.5360075,6.89674831 L13.5360075,6.89674831 L12.9513234,7.48195392 L14.992,7.481 L14.9928698,2.6 L14.9847567,2.50413266 C14.9474486,2.2864334 14.7853695,2.11477294 14.5798212,2.07525938 L14.4893048,2.06666667 L10,2.066 L10,3.2 L9,3.2 L9,0 L14.4893048,0 Z M7,10 L7,12 L6,12 L6,10 L7,10 Z M10,10 L10,12 L9,12 L9,10 L10,10 Z M7,7 L7,9 L6,9 L6,7 L7,7 Z M10,7 L10,9 L9,9 L9,7 L10,7 Z M7,4 L7,6 L6,6 L6,4 L7,4 Z M10,4 L10,6 L9,6 L9,4 L10,4 Z"/>
  </g>
</svg>
