<svg xmlns="http://www.w3.org/2000/svg" viewBox="0 0 16 16">
  <g class="ti-foreground">
    <path id="delete-field-a" d="M14.25,12.5 C14.3880712,12.5 14.5,12.6119288 14.5,12.75 C14.5,12.8880712 14.3880712,13 14.25,13 L6.25,13 C6.11192881,13 6,12.8880712 6,12.75 C6,12.6119288 6.11192881,12.5 6.25,12.5 L14.25,12.5 Z M12.75,10.5 C12.8880712,10.5 13,10.6119288 13,10.75 C13,10.8880712 12.8880712,11 12.75,11 L6.25,11 C6.11192881,11 6,10.8880712 6,10.75 C6,10.6119288 6.11192881,10.5 6.25,10.5 L12.75,10.5 Z M0.871320344,6.58578644 L1.57842712,7.29289322 L2.28553391,6.58578644 C2.48079605,6.39052429 2.79737854,6.39052429 2.99264069,6.58578644 C3.18790283,6.78104858 3.18790283,7.09763107 2.99264069,7.29289322 L2.28553391,8 L2.99264069,8.70710678 C3.18790283,8.90236893 3.18790283,9.21895142 2.99264069,9.41421356 C2.79737854,9.60947571 2.48079605,9.60947571 2.28553391,9.41421356 L1.57842712,8.70710678 L0.871320344,9.41421356 C0.676058198,9.60947571 0.359475708,9.60947571 0.164213562,9.41421356 C-0.0310485835,9.21895142 -0.0310485835,8.90236893 0.164213562,8.70710678 L0.871320344,8 L0.164213562,7.29289322 C-0.0310485835,7.09763107 -0.0310485835,6.78104858 0.164213562,6.58578644 C0.359475708,6.39052429 0.676058198,6.39052429 0.871320344,6.58578644 Z M15.5,7 C15.7761424,7 16,7.22385763 16,7.5 L16,8.5 C16,8.77614237 15.7761424,9 15.5,9 L6.5,9 C6.22385763,9 6,8.77614237 6,8.5 L6,7.5 C6,7.22385763 6.22385763,7 6.5,7 L15.5,7 Z M14.25,5 C14.3880712,5 14.5,5.11192881 14.5,5.25 C14.5,5.38807119 14.3880712,5.5 14.25,5.5 L6.25,5.5 C6.11192881,5.5 6,5.38807119 6,5.25 C6,5.11192881 6.11192881,5 6.25,5 L14.25,5 Z M12.75,3 C12.8880712,3 13,3.11192881 13,3.25 C13,3.38807119 12.8880712,3.5 12.75,3.5 L6.25,3.5 C6.11192881,3.5 6,3.38807119 6,3.25 C6,3.11192881 6.11192881,3 6.25,3 L12.75,3 Z"/>
  </g>
</svg>
