<svg xmlns="http://www.w3.org/2000/svg" viewBox="0 0 16 16">
	<path d="M15.98 1.404V14.08c0 .762-.526 1.38-1.176 1.38-.649 0-1.175-.618-1.175-1.38V1.404c0-.763.526-1.38 1.175-1.38.65 0 1.176.617 1.176 1.38M8.947.678a1.385 1.385 0 0 0-.089.213l.09-.094V.678zm1.5-.547v1.26l-.407.433-1.262 1.343v10.889c0 .763.526 1.381 1.176 1.381.65 0 1.175-.618 1.175-1.381V1.381c0-.556-.28-1.031-.682-1.25"/>
	<path d="M8.947 0H0v.795l3.131 3.337v4.131l.801.961L4.996 10.5h.819V4.131l.468-.498L8.947.797zM5.815 12H4.293l-.36-.434v2.49c0 .763.525 1.381 1.174 1.381.65 0 1.176-.618 1.176-1.38V12h-.468z"/>
</svg>
