<svg xmlns="http://www.w3.org/2000/svg" viewBox="0 0 16 16">
  <g>
    <path d="M14.65 8H13.6V6.333A.342.342 0 0013.25 6h-.35V3.943c.407-.137.7-.507.7-.943 0-.552-.47-1-1.05-1-.457 0-.846.278-.99.667h-1.289l-.964 1.84L6.947 0 5.548 2.667H4.441A1.048 1.048 0 003.45 2c-.58 0-1.05.448-1.05 1 0 .436.292.806.699.943V6H2.75c-.193 0-.35.15-.35.333V8H1.35c-.193 0-.35.15-.35.334v7.333c0 .184.157.333.35.333h13.3c.193 0 .35-.149.35-.333V8.334A.342.342 0 0014.65 8zM4.15 6H3.8V3.943c.299-.1.535-.325.64-.61h1.543l.963-1.84L9.307 6l1.397-2.667h.856c.106.285.341.51.64.61V6h-.35c-.193 0-.35.15-.35.333V8h-7V6.333A.342.342 0 004.15 6zm4.2 7.667v-1.333A.342.342 0 008 12c-.193 0-.35.15-.35.334v1.333H4.166c.178-1.866 1.83-3.333 3.834-3.333 2.005 0 3.656 1.467 3.834 3.333H8.35z"/>
  </g>
</svg>
