<svg xmlns="http://www.w3.org/2000/svg" viewBox="0 0 16 16">
  <g>
    <rect width="1.867" height="1.867" x="-.059" y="14.118" rx=".5"/>
    <rect width="1.882" height="1.882" x="2.765" y="14.118" rx=".5"/>
    <rect width="1.882" height="1.882" x="6.529" y="14.118" rx=".5"/>
    <path  d="M1.74278902,12.2726428 L2.68396549,12.2726428 C2.9438642,12.2726428 3.15455373,12.4833324 3.15455373,12.743231 L3.15455373,13.6844075 C3.15455373,13.9443062 2.9438642,14.1549957 2.68396549,14.1549957 L1.74278902,14.1549957 C1.48289032,14.1549957 1.27220079,13.9443062 1.27220079,13.6844075 L1.27220079,12.743231 C1.27220079,12.4833324 1.48289032,12.2726428 1.74278902,12.2726428 Z" transform="rotate(-45 2.213 13.214)"/>
    <path  d="M9.7124183,10.2558357 L11.5947712,10.2558357 L11.5947712,14.0205416 C11.5947712,14.5403389 11.1733922,14.961718 10.6535948,14.961718 C10.1337974,14.961718 9.7124183,14.5403389 9.7124183,14.0205416 L9.7124183,10.2558357 L9.7124183,10.2558357 Z M11.6022409,0 L11.6022409,9.33706816 L6,9.33706816 L6,0 L11.6022409,0 Z M9.73482726,0.933706818 C9.21915522,0.933706818 8.80112045,1.35174159 8.80112045,1.86741363 C8.80112045,2.38308567 9.21915522,2.80112045 9.73482726,2.80112045 C10.2504993,2.80112045 10.6685341,2.38308567 10.6685341,1.86741363 C10.6685341,1.35174159 10.2504993,0.933706818 9.73482726,0.933706818 Z" transform="rotate(-45 8.801 7.48)"/>
  </g>
</svg>
