<svg xmlns="http://www.w3.org/2000/svg" viewBox="0 0 16 16">
  <g>
    <path class="ti-foreground" d="M10.68 2.09H1.24c-.31 0-.56-.29-.56-.65 0-.4.28-.67.56-.67h9.44v1.32zM8.97 8.27a.519.519 0 01-.03.09c-.01.03-.02.04-.04.05a.187.187 0 01-.07.02H6.47l-.06-.01c-.03-.01-.06-.02-.09-.05-.04-.04-.05-.11-.05-.2v-.25l.03-.1c.01-.03.03-.06.05-.1.02-.03.04-.07.07-.12l1.69-2.62H6.47l-.04-.01a.13.13 0 01-.07-.06c-.03-.05-.04-.13-.04-.23 0-.05 0-.1.01-.14 0-.03.01-.07.03-.09a.213.213 0 01.04-.05c.02-.01.04-.02.07-.02h2.2l.04.01.04.01c.03.01.05.02.06.04a.364.364 0 01.059.199v.19l-.009.05c0 .04-.01.07-.02.1-.02.042-.03.07-.05.11-.02.03-.05.08-.07.12L7.03 7.84h1.83l.03.012c.02.01.04.029.05.049.01.02.02.05.03.09.01.04.01.09.01.14 0 .05 0 .1-.01.14zm-3.27.14c-.02.02-.06.03-.11.04h-.42c-.06-.01-.1-.01-.12-.02a.165.165 0 01-.06-.04c-.01-.02-.03-.04-.04-.07l-.47-1.34H2.19L1.72 8.3l-.01.04-.02.03c-.02.02-.04.03-.06.05a.742.742 0 01-.12.03h-.19c-.08 0-.15 0-.2-.01-.06 0-.09-.02-.12-.04-.02-.02-.03-.05-.02-.08 0-.04.01-.09.03-.16l1.86-5.11.02-.04.03-.04c.01-.02.04-.03.08-.04.03-.02.08-.02.13-.03h.44c.06.01.11.01.15.03.03.01.06.02.08.05.02.02.04.04.05.07L5.7 8.17l.02.06c.01.03.01.06.01.09.01.04 0 .07-.03.09zM12.02.74V0H1.18C.56 0 0 .57 0 1.27v12.79c0 1.07.77 1.9 1.77 1.9h7.82a4.575 4.575 0 01-2.18-3.9c0-2.53 2.06-4.59 4.61-4.59V2.09h-.56V.74h.56zm.09 7.39c2.14.04 3.89 1.79 3.89 3.93s-1.75 3.9-3.89 3.94h-.09c-.18 0-.36-.01-.53-.04-1.95-.26-3.45-1.91-3.45-3.9 0-.07 0-.14.01-.21.07-1.33.8-2.48 1.89-3.14.6-.37 1.32-.58 2.08-.58zm2.1 1.27H9.84v.41l.6.66.57.63.36.4v2.09l.18.23.41.51.32.4h.4V11.5l1.53-1.69V9.4zM3.317 3.66l.97 2.733H2.367l.95-2.732z"/>
  </g>
</svg>
