<svg xmlns="http://www.w3.org/2000/svg" viewBox="0 0 16 16">
  <g>
    <path class="ti-foreground" fill-rule="evenodd" d="M8.116 5.886L14.002 0 16 1.998l-5.886 5.886-1.57.57-.535.536-.999-.999.535-.535.57-1.57zM4.828 9.674L6.261 8.24l1.498 1.498-1.433 1.433a11.3 11.3 0 00-1.318 1.584l-1.377 2a4.668 4.668 0 01-.544.655l-.073.072a1.766 1.766 0 11-2.497-2.497l.073-.073c.2-.2.42-.383.654-.544l2-1.377a11.3 11.3 0 001.584-1.318zM9 2.7l-.106.204A13.999 13.999 0 017.23 5.413l.193.172-.37 1.026-.472-.418-.388.388.307.346-.711.726-.376-.423c-.77.64-1.61 1.199-2.51 1.664L2.7 9 0 6.3l.106-.204a14 14 0 015.99-5.99L6.3 0 9 2.7zM2.883 7.768l-1.651-1.65a13 13 0 014.885-4.886l1.651 1.65a13 13 0 01-4.885 4.886zm12.47 4.866a1.926 1.926 0 11-2.72 2.72l-4.436-4.992.72-.717 4.474 5.035a.913.913 0 101.289-1.289L9.598 8.875l1.081-.396 4.674 4.155z"/>
  </g>
</svg>
