<svg xmlns="http://www.w3.org/2000/svg" viewBox="0 0 16 16">
	<g fill="none" fill-rule="evenodd">
		<path d="M3.64 5.957c.31.303.693.523 1.134.523.507 0 .842-.22.842-.613 0-.457-.269-.743-1.397-.743v-.85c.931 0 1.226-.277 1.226-.694 0-.359-.229-.572-.638-.572-.367 0-.645.172-.972.458l-.604-.736c.473-.408.996-.66 1.634-.66 1.07 0 1.79.513 1.79 1.42 0 .54-.312.915-.867 1.153v.032c.596.171 1.03.595 1.03 1.266 0 .964-.883 1.511-1.929 1.511-.842 0-1.43-.293-1.806-.735l.556-.76z" class="type-converter-light-color" fill="#515151"/>
		<path d="M12.786 14.29c.31.302.694.521 1.135.521.507 0 .842-.219.842-.612 0-.457-.27-.743-1.397-.743v-.85c.93 0 1.226-.277 1.226-.694 0-.359-.23-.572-.638-.572-.368 0-.645.172-.972.457l-.605-.736c.474-.408.997-.66 1.635-.66 1.069 0 1.789.514 1.789 1.42 0 .54-.311.916-.866 1.154v.032c.596.171 1.029.595 1.029 1.266 0 .964-.883 1.511-1.928 1.511-.842 0-1.43-.294-1.806-.735l.556-.76zM.822 1.07a.384.384 0 0 0-.21.06 1.135 1.135 0 0 1-.017-.078.501.501 0 0 1 .037-.288.627.627 0 0 1 .12-.178A1.19 1.19 0 0 1 .934.43 9.04 9.04 0 0 1 1.16.28L.955.003C.827.066.705.134.59.208a1.482 1.482 0 0 0-.305.254A1.079 1.079 0 0 0 0 1.238c0 .08.014.161.042.245a.672.672 0 0 0 .367.402c.096.044.21.067.343.067a.477.477 0 0 0 .196-.04.468.468 0 0 0 .243-.259.47.47 0 0 0 .033-.177.423.423 0 0 0-.101-.293C1.055 1.108.955 1.07.822 1.07m1.98.114c-.067-.075-.167-.113-.301-.113a.384.384 0 0 0-.21.059l-.017-.077A.501.501 0 0 1 2.31.765a.669.669 0 0 1 .12-.18c.052-.053.112-.105.183-.155.069-.05.145-.1.227-.15L2.635.003a3.994 3.994 0 0 0-.366.205 1.548 1.548 0 0 0-.305.254 1.11 1.11 0 0 0-.208.332 1.184 1.184 0 0 0-.077.445c0 .079.014.16.042.245a.675.675 0 0 0 .368.402c.095.044.21.067.342.067a.473.473 0 0 0 .196-.04.468.468 0 0 0 .243-.26.472.472 0 0 0 .034-.176.423.423 0 0 0-.102-.293M8.194.237a.704.704 0 0 0-.232-.17A.817.817 0 0 0 7.617 0a.449.449 0 0 0-.34.146.485.485 0 0 0-.129.33.42.42 0 0 0 .102.29c.067.076.166.116.297.116.046 0 .09-.008.13-.022a.279.279 0 0 0 .08-.038c.007.027.013.054.017.077a.501.501 0 0 1-.037.288.63.63 0 0 1-.12.177 1.241 1.241 0 0 1-.182.155c-.07.051-.146.102-.227.153l.21.276a3.87 3.87 0 0 0 .365-.204c.116-.074.216-.158.303-.254.086-.096.155-.207.206-.334.051-.127.077-.274.077-.442a.77.77 0 0 0-.042-.246.672.672 0 0 0-.133-.23m1.812.23a.672.672 0 0 0-.365-.401A.816.816 0 0 0 9.296 0a.464.464 0 0 0-.194.04.48.48 0 0 0-.275.436.42.42 0 0 0 .102.29c.067.077.166.116.297.116a.417.417 0 0 0 .21-.06.907.907 0 0 1 .025.15.52.52 0 0 1-.044.216.671.671 0 0 1-.12.177 1.305 1.305 0 0 1-.183.155c-.07.05-.146.1-.227.152l.21.276c.128-.062.25-.13.365-.204.116-.074.216-.158.303-.254a1.11 1.11 0 0 0 .283-.776.77.77 0 0 0-.042-.245M11.261 12.9l-1.382-1.383a.407.407 0 0 0-.576.576l.642.642C7.815 12.671 6.1 10.931 6.1 8.788a.444.444 0 1 0-.887 0c0 2.638 2.12 4.782 4.747 4.837l-.658.656a.407.407 0 0 0 .576.576l1.382-1.382a.406.406 0 0 0 0-.575" class="type-converter-dark-color" fill="#000"/>
	</g>
</svg>
