<svg xmlns="http://www.w3.org/2000/svg" fill="none" viewBox="0 0 32 32">
  <path fill="url(#tokens__paint0_linear)" fill-rule="evenodd" d="M27 1.5H5A3.5 3.5 0 001.5 5v22A3.5 3.5 0 005 30.5h22a3.5 3.5 0 003.5-3.5V5A3.5 3.5 0 0027 1.5zM5 0a5 5 0 00-5 5v22a5 5 0 005 5h22a5 5 0 005-5V5a5 5 0 00-5-5H5zm4.5 5.75a3.75 3.75 0 100 7.5 3.75 3.75 0 000-7.5zM4.25 9.5a5.25 5.25 0 1110.5 0 5.25 5.25 0 01-10.5 0zM19 4.25A1.75 1.75 0 0017.25 6v6c0 .966.784 1.75 1.75 1.75h6A1.75 1.75 0 0026.75 12V6A1.75 1.75 0 0025 4.25h-6zM18.75 6a.25.25 0 01.25-.25h6a.25.25 0 01.25.25v6a.25.25 0 01-.25.25h-6a.25.25 0 01-.25-.25V6zm-7.685 11.453l3.382 6.764a1.75 1.75 0 01-1.565 2.533H6.118a1.75 1.75 0 01-1.565-2.533l3.382-6.764c.645-1.29 2.485-1.29 3.13 0zm-1.341.671a.25.25 0 00-.448 0l-3.382 6.764a.25.25 0 00.224.362h6.764a.25.25 0 00.224-.362l-3.382-6.764zm13.305-1.304a1.75 1.75 0 00-2.058 0l-3.58 2.601a1.75 1.75 0 00-.635 1.957l1.367 4.208a1.75 1.75 0 001.665 1.21h4.424a1.75 1.75 0 001.665-1.21l1.367-4.208a1.75 1.75 0 00-.636-1.957l-3.58-2.6zm-1.176 1.214a.25.25 0 01.294 0l3.58 2.6a.25.25 0 01.09.28l-1.367 4.208a.25.25 0 01-.238.173h-4.424a.25.25 0 01-.238-.173l-1.367-4.208a.25.25 0 01.09-.28l3.58-2.6z" clip-rule="evenodd"/>
  <defs>
    <linearGradient id="tokens__paint0_linear" x1="0" x2="32.054" y1="0" y2="31.945" gradientUnits="userSpaceOnUse">
      <stop stop-color="#FF6D70"/>
      <stop offset="1" stop-color="#2C1F56"/>
    </linearGradient>
  </defs>
</svg>
