<svg xmlns="http://www.w3.org/2000/svg" viewBox="0 0 16 16">
<g>
  <path d="M8.67,7.25 C8.35,7.25 8.03,7.409 7.7,7.739 L7.7,9.8 C7.85,9.93 8.01,10.029 8.16,10.08 C8.31,10.14 8.45,10.159 8.58,10.159 C8.88,10.159 9.12,10.04 9.32,9.779 C9.52,9.529 9.62,9.149 9.62,8.649 C9.62,8.21 9.54,7.859 9.39,7.62 C9.24,7.37 9,7.25 8.67,7.25 L8.67,7.25 Z M14.31,10.87 C14.06,10.97 13.81,11.02 13.56,11.02 C13.26,11.02 12.98,10.97 12.72,10.859 C12.46,10.76 12.24,10.609 12.04,10.42 C11.85,10.22 11.7,9.979 11.6,9.689 C11.49,9.399 11.44,9.08 11.44,8.71 C11.44,8.35 11.49,8.02 11.61,7.729 C11.73,7.449 11.9,7.21 12.1,7.01 C12.3,6.81 12.54,6.659 12.8,6.56 C13.07,6.449 13.35,6.399 13.64,6.399 C13.93,6.399 14.18,6.449 14.39,6.55 C14.6,6.649 14.78,6.77 14.93,6.909 L14.44,7.56 C14.32,7.46 14.2,7.38 14.08,7.33 C13.96,7.27 13.83,7.239 13.69,7.239 C13.34,7.239 13.05,7.37 12.82,7.64 C12.6,7.909 12.49,8.26 12.49,8.71 C12.49,9.149 12.6,9.51 12.82,9.77 C13.04,10.04 13.32,10.17 13.67,10.17 C13.85,10.17 14.01,10.14 14.17,10.06 C14.32,9.989 14.45,9.899 14.57,9.8 L15,10.449 C14.79,10.64 14.56,10.779 14.31,10.87 L14.31,10.87 Z M10.53,9.64 C10.42,9.939 10.28,10.189 10.11,10.39 C9.94,10.59 9.73,10.75 9.51,10.85 C9.28,10.96 9.04,11.02 8.8,11.02 C8.6,11.02 8.39,10.97 8.19,10.87 C7.98,10.779 7.78,10.64 7.6,10.46 L7.57,10.46 L7.48,10.909 L6.67,10.909 L6.67,4.58 L7.7,4.58 L7.7,6.21 L7.67,6.949 C7.86,6.779 8.06,6.649 8.28,6.55 C8.49,6.449 8.72,6.399 8.94,6.399 C9.22,6.399 9.46,6.449 9.68,6.56 C9.89,6.659 10.08,6.81 10.23,7 C10.37,7.199 10.49,7.43 10.57,7.71 C10.64,7.979 10.68,8.29 10.68,8.63 C10.68,9.01 10.63,9.34 10.53,9.64 L10.53,9.64 Z M4.94,10.909 L4.48,9.319 L2.51,9.319 L2.05,10.909 L0.99,10.909 L2.9,5.05 L4.12,5.05 L6.03,10.909 L4.94,10.909 Z M0,14 L16,14 L16,2 L0,2 L0,14 Z M9.39,7.62 C9.24,7.37 9,7.25 8.67,7.25 C8.35,7.25 8.03,7.409 7.7,7.739 L7.7,9.8 C7.85,9.93 8.01,10.029 8.16,10.08 C8.31,10.14 8.45,10.159 8.58,10.159 C8.88,10.159 9.12,10.04 9.32,9.779 C9.52,9.529 9.62,9.149 9.62,8.649 C9.62,8.21 9.54,7.859 9.39,7.62 L9.39,7.62 Z M8.67,7.25 C9,7.25 9.24,7.37 9.39,7.62 C9.54,7.859 9.62,8.21 9.62,8.649 C9.62,9.149 9.52,9.529 9.32,9.779 C9.12,10.04 8.88,10.159 8.58,10.159 C8.45,10.159 8.31,10.14 8.16,10.08 C8.01,10.029 7.85,9.93 7.7,9.8 L7.7,9.8 L7.7,7.739 C8.03,7.409 8.35,7.25 8.67,7.25 Z M3.5101,5.8501 C3.5901,6.1701 3.6801,6.5001 3.7701,6.8301 C3.8501,7.1591 3.9401,7.4791 4.0401,7.7901 L4.2401,8.5101 L2.7501,8.5101 L2.9501,7.7901 C3.0501,7.4791 3.1401,7.1591 3.2201,6.8301 C3.3101,6.5101 3.3901,6.1801 3.4701,5.8501 L3.5101,5.8501 Z"/>
</g>
</svg>
