<svg xmlns="http://www.w3.org/2000/svg" viewBox="0 0 16 16">
  <g>
    <path class="ti-foreground" d="M3.59 8.29l-.11-.45a29.92 29.92 0 01-.24-1.02c-.08-.367-.16-.713-.24-1.04h-.04l-.23 1.05c-.073.36-.15.697-.23 1.01l-.11.45h1.2zm.31 1.33H2.08L1.76 11H0l1.98-6.5h2.08L6.04 11H4.22L3.9 9.62zM7.5 4.5h2.52c.347 0 .677.037.99.11.32.067.597.187.83.36.24.167.43.39.57.67.14.273.21.613.21 1.02 0 .4-.073.743-.22 1.03-.14.287-.33.523-.57.71-.24.18-.517.317-.83.41a3.66 3.66 0 01-.98.13h-.8V11H7.5V4.5zm2.44 3.08c.34 0 .59-.08.75-.24.167-.16.25-.387.25-.68 0-.293-.087-.5-.26-.62-.173-.12-.42-.18-.74-.18h-.72v1.72h.72zm4.34-3.08H16V11h-1.72V4.5z"/>
  </g>
</svg>
