<svg xmlns="http://www.w3.org/2000/svg" viewBox="0 0 16 16">
	<path d="M16 3.5a3.5 3.5 0 1 1-7 0 3.5 3.5 0 0 1 7 0" class="ti-badge" fill="#E96065"/>
	<path d="M12.53 10.162V8h-.004a4.505 4.505 0 0 1-4.5-4.5c0-1.02.354-1.95.928-2.707 0-.03-.006-.053-.006-.086 0-.612-.6-.704-.938-.707h-.02c-.337.003-.939.095-.939.707 0 .667-.153 1.001-.583 1.167-3.08.957-2.998 3.332-2.998 3.332v4.956c0 2.04-2.124 2.582-2.124 2.582v1.208l6.644.041h.02l6.644-.04v-1.209s-2.124-.542-2.124-2.582m-5.915 4.183a1.407 1.407 0 1 0 2.769 0H6.615z" class="ti-bell"/>
</svg>
