<svg xmlns="http://www.w3.org/2000/svg" viewBox="0 0 16 16">
  <g>
    <path d="M11,3 C13.7614237,3 16,5.23857625 16,8 C16,10.7614237 13.7614237,13 11,13 L5,13 C2.23857625,13 0,10.7614237 0,8 C0,5.23857625 2.23857625,3 5,3 L11,3 Z M11,4 L5,4 C2.790861,4 1,5.790861 1,8 C1,10.1421954 2.68396847,11.8910789 4.80035966,11.9951047 L5,12 L11,12 C13.209139,12 15,10.209139 15,8 C15,5.85780461 13.3160315,4.10892112 11.1996403,4.00489531 L11,4 Z M5,5 C6.65685425,5 8,6.34314575 8,8 C8,9.65685425 6.65685425,11 5,11 C3.34314575,11 2,9.65685425 2,8 C2,6.34314575 3.34314575,5 5,5 Z"/>
  </g>
</svg>
