<svg xmlns="http://www.w3.org/2000/svg" viewBox="0 0 16 16">
  <g>
    <path d="M3.27782338,9.12479687 C3.34882338,9.08879687 3.41982338,9.08879687 3.49082338,9.12479687 L3.49082338,9.12479687 L7.89182338,11.9467969 C7.99882338,12.0177969 8.01582338,12.1417969 7.90982338,12.2487969 C6.93382338,13.5967969 6.40182338,15.5847969 6.31282338,15.9577969 C6.29482338,15.9927969 6.25982338,16.0107969 6.24182338,15.9927969 L6.24182338,15.9927969 L5.51382338,15.5317969 C5.49582338,15.5137969 5.49582338,15.4957969 5.49582338,15.4787969 L5.49582338,15.4787969 L5.56682338,15.0697969 C5.58482338,14.9637969 5.60282338,14.8747969 5.61982338,14.7857969 L5.61982338,14.7857969 L5.63782338,14.6977969 C5.63782338,14.6797969 5.65582338,14.6257969 5.63782338,14.6257969 C5.61982338,14.6257969 5.60282338,14.6617969 5.60282338,14.6797969 C5.60282338,14.7147969 5.56682338,14.7507969 5.56682338,14.7507969 L5.56682338,14.7507969 L5.46082338,14.9107969 L5.24782338,15.2477969 C5.22982338,15.2657969 5.19482338,15.2827969 5.17682338,15.2657969 L5.17682338,15.2657969 L4.32482338,14.7327969 C4.30682338,14.7147969 4.28982338,14.6797969 4.30682338,14.6617969 C4.57382338,14.2707969 4.78482338,14.1127969 5.08682338,13.8467969 C5.12182338,13.8297969 5.08682338,13.7757969 5.05182338,13.7757969 C4.16382338,13.9357969 3.93382338,14.1827969 3.77482338,14.3427969 C3.75682338,14.3597969 3.73882338,14.3597969 3.72082338,14.3427969 L3.72082338,14.3427969 L3.38482338,14.1287969 C3.36582338,14.1117969 3.36582338,14.0937969 3.36582338,14.0767969 L3.36582338,14.0767969 L3.63282338,13.2067969 C3.65082338,13.1537969 3.59682338,13.1177969 3.56182338,13.1537969 L3.56182338,13.1537969 L2.90482338,13.7567969 C2.88682338,13.7747969 2.86982338,13.7747969 2.85182338,13.7567969 L2.85182338,13.7567969 L2.44382338,13.4907969 L2.44382338,13.4907969 L2.42582338,13.4547969 C2.44382338,12.9757969 2.76282338,12.1417969 3.01182338,11.8047969 C3.01182338,11.7867969 2.99382338,11.7687969 2.97582338,11.7867969 C2.33682338,12.3547969 2.12382338,12.9937969 2.07082338,13.1887969 C2.05382338,13.2067969 2.01782338,13.2247969 1.99982338,13.2067969 L1.99982338,13.2067969 L1.57382338,12.9397969 C1.55582338,12.9227969 1.55582338,12.9047969 1.55582338,12.8867969 L1.55582338,12.8867969 L1.92882338,11.8747969 C1.94682338,11.8217969 1.89282338,11.7867969 1.85782338,11.8217969 L1.85782338,11.8217969 L1.23682338,12.4967969 C1.14782338,12.5847969 1.02382338,12.6037969 0.916823376,12.5317969 L0.916823376,12.5317969 L0.0298233765,11.9637969 C-0.00617662351,11.9467969 -0.00617662351,11.9107969 0.0118233765,11.8937969 C1.39682338,10.3137969 2.86982338,9.37379687 3.27782338,9.12479687 Z M15.074,13.5199 C15.162,13.8129 15.426,14.3709 15.954,14.6649 C16.013,14.6939 16.013,14.7519 15.954,14.7819 C15.426,15.0749 15.162,15.6329 15.074,15.9259 C15.045,15.9849 14.986,15.9849 14.956,15.9259 C14.868,15.6029 14.634,15.0749 14.076,14.7819 C14.017,14.7519 14.017,14.6939 14.076,14.6649 C14.604,14.3709 14.868,13.8129 14.956,13.5199 C14.986,13.4609 15.045,13.4609 15.074,13.5199 Z M10.96075,12.04425 C11.04875,12.33825 11.28375,12.86625 11.78275,13.13025 C11.81175,13.13025 11.81175,13.18925 11.78275,13.21825 C11.28375,13.51125 11.04875,14.01025 10.96075,14.30325 C10.93175,14.36225 10.87275,14.36225 10.84375,14.30325 C10.75575,14.01025 10.55075,13.48225 10.02175,13.21825 C9.99275,13.21825 9.99275,13.15925 10.02175,13.13025 C10.52075,12.83625 10.75575,12.33825 10.84375,12.04425 C10.87275,11.98525 10.93175,11.98525 10.96075,12.04425 Z M11.1402234,0.409996867 C11.4062234,-0.0150031334 11.9742234,-0.140003133 12.3822234,0.179996867 C12.7372234,0.463996867 12.7902234,0.977996867 12.5782234,1.35099687 L12.5782234,1.35099687 L7.20022338,9.40799687 C7.12922338,9.49699687 7.16422338,9.62099687 7.25322338,9.67499687 L7.25322338,9.67499687 L9.09922338,10.8639969 C9.18722338,10.9169969 9.20522338,11.0409969 9.15222338,11.1299969 L9.15222338,11.1299969 L8.76222338,11.7339969 C8.70822338,11.8219969 8.58422338,11.8399969 8.49522338,11.7869969 L8.49522338,11.7869969 L3.33022338,8.48599687 C3.24222338,8.43199687 3.22422338,8.30799687 3.27822338,8.21899687 L3.27822338,8.21899687 L3.66822338,7.61599687 C3.72122338,7.52699687 3.84622338,7.50999687 3.93422338,7.56299687 L3.93422338,7.56299687 L5.78022338,8.75199687 C5.86922338,8.80499687 5.99322338,8.76999687 6.04622338,8.68099687 L6.04622338,8.68099687 Z M12.3935,6.066 C12.5115,6.477 12.8635,7.211 13.5965,7.621 C13.6555,7.65 13.6555,7.738 13.5965,7.768 C12.8635,8.149 12.5405,8.912 12.3935,9.323 C12.3935,9.411 12.2765,9.411 12.2475,9.323 C12.1295,8.912 11.8065,8.179 11.0435,7.768 C10.9855,7.738 10.9855,7.65 11.0435,7.621 C11.7775,7.24 12.1005,6.477 12.2475,6.066 C12.2475,5.978 12.3645,5.978 12.3935,6.066 Z"/>
  </g>
</svg>
