<svg xmlns="http://www.w3.org/2000/svg" viewBox="0 0 16 16">
	<path d="M1,0 L15,0 C15.5522847,-1.01453063e-16 16,0.44771525 16,1 L16,15 C16,15.5522847 15.5522847,16 15,16 L1,16 C0.44771525,16 6.76353751e-17,15.5522847 0,15 L0,1 C-6.76353751e-17,0.44771525 0.44771525,1.01453063e-16 1,0 Z M12.7178672,2.75868966 L12.7178672,7.35817801 L12.357014,7.35817801 L10.5188555,7.35817801 L4.53055265,7.35817801 L7.48383397,3.95092243 L6.45045133,2.75868966 L6.44912222,2.75868966 L1.72413793,8.21075862 L6.44978678,13.6628276 L7.48383397,12.4705948 L4.53055265,9.06257252 L10.5188555,9.06257252 L10.5188555,9.06333923 L12.7178672,9.06333923 L14.1951724,9.06333923 L14.1951724,7.35817801 L14.1951724,2.75868966 L12.7178672,2.75868966 Z"/>
</svg>
