<svg xmlns="http://www.w3.org/2000/svg" viewBox="0 0 16 16">
	<path d="M9.9772,9.6485 L7.3222,3.2685 L4.6562,9.6485 L9.9772,9.6485 Z M0.0002,15.5985 L0.0002,15.1695 C0.5962,15.1015 1.0422,14.8775 1.3402,14.4975 C1.6382,14.1155 2.1492,13.0725 2.8722,11.3695 L7.6982,0.0005 L8.1592,0.0005 L13.9322,13.1325 C14.3172,14.0025 14.6232,14.5415 14.8542,14.7485 C15.0842,14.9535 15.4712,15.0935 16.0142,15.1695 L16.0142,15.5985 L10.1222,15.5985 L10.1222,15.1695 C10.7992,15.1085 11.2352,15.0365 11.4312,14.9495 C11.6272,14.8635 11.7262,14.6515 11.7262,14.3135 C11.7262,14.2015 11.6872,14.0025 11.6122,13.7175 C11.5372,13.4315 11.4312,13.1305 11.2952,12.8165 L10.3682,10.5875 L4.2632,10.5875 C3.6612,12.1035 3.3022,13.0285 3.1852,13.3625 C3.0682,13.6965 3.0102,13.9605 3.0102,14.1555 C3.0102,14.5455 3.1682,14.8165 3.4842,14.9655 C3.6802,15.0565 4.0482,15.1245 4.5902,15.1695 L4.5902,15.5985 L0.0002,15.5985 Z"/>
</svg>
