<svg xmlns="http://www.w3.org/2000/svg" viewBox="0 0 16 16">
  <g>
    <path d="M2.13363271,8.37520861 C1.82507032,8.06664622 1.82507032,7.56636773 2.13363271,7.25780534 C2.44219511,6.94924295 2.94247359,6.94924295 3.25103598,7.25780534 L6.60297507,10.609064 L12.7489638,4.46429717 C13.0575262,4.15573478 13.5578046,4.15573478 13.866367,4.46429717 C14.1749294,4.77285956 14.1749294,5.27313805 13.866367,5.58170044 L7.16194742,12.28612 L7.16194742,12.28612 C6.87909856,12.5689689 6.43515493,12.5925396 6.12545694,12.3568323 L6.04454415,12.28612 L6.04454415,12.28612 L2.13363271,8.37520861 Z M8,16 C12.418278,16 16,12.418278 16,8 C16,3.581722 12.418278,0 8,0 C3.581722,0 0,3.581722 0,8 C0,12.418278 3.581722,16 8,16 Z"/>
  </g>
</svg>
