<svg xmlns="http://www.w3.org/2000/svg" viewBox="0 0 16 16">
	<g>
		<path d="M7.97622857,0.0709466667 C12.3808,0.0709466667 15.9522286,3.61261333 15.9522286,7.98048 C15.9522286,12.3483467 12.3808,15.8900133 7.97622857,15.8900133 C3.57165714,15.8900133 0.000228571429,12.3483467 0.000228571429,7.98048 C0.000228571429,3.61261333 3.57165714,0.0709466667 7.97622857,0.0709466667 Z M6.88582857,11.8691733 L13.3178286,5.49077333 C13.4801143,5.32984 13.4801143,5.07030667 13.3178286,4.91050667 L12.4412571,4.04124 C12.2801143,3.88030667 12.0172571,3.88030667 11.8572571,4.04124 L6.59668571,9.25684 L4.09611429,6.75670667 C3.93382857,6.59690667 3.67211429,6.59690667 3.51097143,6.75670667 L2.6344,7.62710667 C2.47325714,7.78690667 2.47325714,8.04644 2.6344,8.20737333 L5.42182857,10.9919733 C5.42411429,10.99424 5.42297143,10.9965067 5.42525714,10.9987733 L6.0344,11.60284 L6.17154286,11.7399733 L6.17268571,11.7399733 L6.30182857,11.8691733 C6.46411429,12.0289733 6.72468571,12.0289733 6.88582857,11.8691733 Z"/>
	</g>
</svg>
