<svg xmlns="http://www.w3.org/2000/svg" viewBox="0 0 16 16">
  <g>
    <path d="M16,0 L16,4.00074715 L14.726,2.72062761 L11.714,5.73015379 C11.708,5.71819936 11.701,5.70923355 11.695,5.69727912 C12.083,6.50021792 12.306,7.3958035 12.306,8.34618019 C12.306,9.09532408 12.163,9.80860469 11.916,10.471079 L11.916,10.471079 L14.726,13.2704066 L16,12.0002491 L16,16 L11.985,16 L13.27,14.7198805 L10.835,12.3050869 C9.707,13.6280431 8.033,14.475811 6.153,14.475811 C2.755,14.475811 0,11.7312745 0,8.34618019 C0,4.96208206 2.755,2.21654941 6.153,2.21654941 C7.856,2.21654941 9.397,2.90592118 10.51,4.01967499 L10.51,4.01967499 L13.27,1.27115373 L11.985,0 L16,0 Z M6.125,3.23865264 C3.297,3.23865264 0.996,5.53091339 0.996,8.34916879 C0.996,11.166428 3.297,13.4586887 6.125,13.4586887 C8.954,13.4586887 11.255,11.166428 11.255,8.34916879 C11.255,5.53091339 8.954,3.23865264 6.125,3.23865264 Z M6.0054,9.53225827 C6.5014,9.53225827 6.8594,9.92376564 6.8594,10.418878 C6.8594,10.911998 6.5014,11.3035054 6.0054,11.3035054 C5.5094,11.3035054 5.1514,10.911998 5.1514,10.418878 C5.1514,9.92376564 5.5094,9.53225827 6.0054,9.53225827 Z M6.0396,5.39373638 C7.0316,5.39373638 7.8186,5.81911463 7.8186,6.89202416 C7.8186,7.91313119 6.5696,8.18708673 6.6556,9.12351659 L6.6556,9.12351659 L5.3726,9.12351659 C5.2026,8.01673619 6.4166,7.53955544 6.4166,6.99463296 C6.4166,6.68780275 6.1946,6.56925472 5.9366,6.56925472 C5.6466,6.56925472 5.4586,6.72167362 5.2356,6.92689123 L5.2356,6.92689123 L4.4326,6.19468277 C4.8346,5.71650582 5.3906,5.39373638 6.0396,5.39373638 Z"/>
  </g>
</svg>
