<svg xmlns="http://www.w3.org/2000/svg" viewBox="0 0 16 16">
	<path d="M10.906 10.593v1.69a.34.34 0 0 1-.582.241l-1.368-1.367v3.008a.34.34 0 0 1-.34.341H7.373a.34.34 0 0 1-.34-.34V11.17l-1.358 1.358a.341.341 0 0 1-.582-.242l.003-1.694a.342.342 0 0 1 .1-.24L7.76 7.788a.34.34 0 0 1 .482 0l2.564 2.564a.338.338 0 0 1 .1.24zm1.76-5.765a3.185 3.185 0 0 0-.46.037 4.281 4.281 0 0 0-7.96-1.107 1.874 1.874 0 0 0-.37-.042 1.963 1.963 0 0 0-1.937 1.989 2.018 2.018 0 0 0 .151.768 2.624 2.624 0 0 0 .462 5.193l1.68.001.003-1.592a1.036 1.036 0 0 1 .302-.727l2.736-2.564a1.03 1.03 0 0 1 1.457 0l2.735 2.563a1.023 1.023 0 0 1 .302.729v1.599l.9.001A3.38 3.38 0 0 0 16 8.252a3.38 3.38 0 0 0-3.333-3.424z"/>
</svg>
