<svg xmlns="http://www.w3.org/2000/svg" viewBox="0 0 16 16">
	<g>
		<path d="M13.1319087,15 L2.4767839,15 C2.21327311,15 2,14.7906862 2,14.5309468 L2,4.91297847 C2,4.7655074 2.07014316,4.62755059 2.18862822,4.53811652 C2.30806117,4.4505853 2.46351357,4.42013966 2.60569565,4.46105099 C3.64552056,4.75028458 5.3990995,4.98243259 5.86071731,4.56761073 C6.01427395,4.42775107 5.86356095,3.98724069 5.73085768,3.59905877 C5.51758457,2.97111742 5.25028226,2.18999643 5.86071731,1.64007204 C6.8048063,0.786642654 8.80293841,0.786642654 9.7470274,1.64007204 C10.3584103,2.18999643 10.0920559,2.97111742 9.87688703,3.59905877 C9.74513164,3.98724069 9.59347076,4.42775107 9.7470274,4.56761073 C10.2095931,4.98433545 11.963172,4.751236 13.0029969,4.46105099 C13.2466022,4.39064544 13.5015821,4.5266994 13.5840477,4.76360455 C13.7461353,5.23931769 14.5034918,7.65784332 13.4541881,8.60356105 C12.875981,9.12494266 12.0816571,8.90421176 11.3811734,8.7101208 C10.9205035,8.58167825 10.3972734,8.43325575 10.210541,8.60451248 C9.94797807,8.84141763 9.79252566,9.25814234 9.79252566,9.72148694 C9.79252566,10.1848315 9.94797807,10.6025077 10.210541,10.8394128 C10.3972734,11.0068639 10.9205035,10.8631985 11.3821213,10.7347559 C12.0816571,10.5387621 12.875981,10.3170798 13.4541881,10.8394128 C14.5034918,11.786082 13.7461353,14.205559 13.5840477,14.6803208 C13.5176961,14.8725089 13.3366509,15 13.1319087,15 Z"/>
	</g>
</svg>
