<svg xmlns="http://www.w3.org/2000/svg" viewBox="0 0 16 16">
	<g>
		<path d="M2.95261991,14.0618937 L12.780245,14.0618937 C13.0399643,13.1437673 13.201104,11.8840789 12.8105772,11.5310997 C12.6247926,11.3626973 12.1015626,11.5082655 11.6408927,11.6367081 C10.9394611,11.8317505 10.1451372,12.0524814 9.5669301,11.5310997 C9.10436441,11.1134236 8.83895787,10.4540852 8.83895787,9.72148694 C8.83895787,8.9888887 9.10436441,8.33050171 9.5669301,7.91282557 C10.1451372,7.38954111 10.9394611,7.61122343 11.6408927,7.80721725 C12.1015626,7.9356598 12.6247926,8.07837374 12.8105772,7.91282557 C13.1878336,7.57221495 13.050391,6.3867378 12.8067857,5.47907712 C11.8626967,5.69695374 9.94039502,6.01568154 9.10341653,5.25739479 C8.49298149,4.7074704 8.75933591,3.92730084 8.97450478,3.29935949 C9.10720805,2.91022613 9.25792106,2.46971576 9.10341653,2.33175895 C8.5214179,1.80371736 7.08822257,1.80466878 6.50432818,2.33080752 C6.35077154,2.46971576 6.50148454,2.91022613 6.63418781,3.29840806 C6.8484088,3.92730084 7.11476323,4.7074704 6.50432818,5.25739479 C5.71095219,5.97572164 3.93841564,5.7245451 2.95261991,5.51332846 L2.95261991,14.0618937 Z M13.1319087,15 L2.4767839,15 C2.21327311,15 2,14.7906862 2,14.5309468 L2,4.91297847 C2,4.7655074 2.07014316,4.62755059 2.18862822,4.53811652 C2.30806117,4.4505853 2.46351357,4.42013966 2.60569565,4.46105099 C3.64552056,4.75028458 5.3990995,4.98243259 5.86071731,4.56761073 C6.01427395,4.42775107 5.86356095,3.98724069 5.73085768,3.59905877 C5.51758457,2.97111742 5.25028226,2.18999643 5.86071731,1.64007204 C6.8048063,0.786642654 8.80293841,0.786642654 9.7470274,1.64007204 C10.3584103,2.18999643 10.0920559,2.97111742 9.87688703,3.59905877 C9.74513164,3.98724069 9.59347076,4.42775107 9.7470274,4.56761073 C10.2095931,4.98433545 11.963172,4.751236 13.0029969,4.46105099 C13.2466022,4.39064544 13.5015821,4.5266994 13.5840477,4.76360455 C13.7461353,5.23931769 14.5034918,7.65784332 13.4541881,8.60356105 C12.875981,9.12494266 12.0816571,8.90421176 11.3811734,8.7101208 C10.9205035,8.58167825 10.3972734,8.43325575 10.210541,8.60451248 C9.94797807,8.84141763 9.79252566,9.25814234 9.79252566,9.72148694 C9.79252566,10.1848315 9.94797807,10.6025077 10.210541,10.8394128 C10.3972734,11.0068639 10.9205035,10.8631985 11.3821213,10.7347559 C12.0816571,10.5387621 12.875981,10.3170798 13.4541881,10.8394128 C14.5034918,11.786082 13.7461353,14.205559 13.5840477,14.6803208 C13.5176961,14.8725089 13.3366509,15 13.1319087,15 Z"/>
	</g>
</svg>
