<svg xmlns="http://www.w3.org/2000/svg" viewBox="0 0 16 16">
  <g>
    <path  d="M16,9 L16,16 L9,16 L9,9 L16,9 Z M2.843125,9.352125 L4.226125,10.734125 C4.384125,10.893125 4.384125,11.150125 4.226125,11.310125 C4.067125,11.469125 3.809125,11.469125 3.650125,11.310125 L3.008125,10.668125 C3.072125,12.797125 4.812125,14.512125 6.955125,14.512125 C7.200125,14.512125 7.399125,14.710125 7.399125,14.956125 C7.399125,15.201125 7.200125,15.399125 6.955125,15.399125 C4.317125,15.399125 2.173125,13.278125 2.118125,10.652125 L1.462125,11.310125 C1.303125,11.469125 1.045125,11.469125 0.886125,11.310125 C0.806125,11.230125 0.767125,11.126125 0.767125,11.022125 C0.767125,10.917125 0.806125,10.813125 0.886125,10.734125 L2.268125,9.352125 C2.427125,9.193125 2.685125,9.193125 2.843125,9.352125 Z M15,10 L10,10 L10,15 L15,15 L15,10 Z M9.444,1 C12.082,1 14.226,3.121 14.281,5.747 L14.937,5.089 C15.096,4.93 15.354,4.93 15.513,5.089 C15.593,5.169 15.632,5.273 15.632,5.377 C15.632,5.482 15.593,5.586 15.513,5.665 L14.131,7.047 C13.972,7.206 13.714,7.206 13.556,7.047 L12.173,5.665 C12.015,5.506 12.015,5.249 12.173,5.089 C12.332,4.93 12.59,4.93 12.749,5.089 L13.391,5.731 C13.327,3.602 11.587,1.887 9.444,1.887 C9.199,1.887 9,1.689 9,1.443 C9,1.198 9.199,1 9.444,1 Z M7,0 L7,7 L4.26325641e-14,7 L4.26325641e-14,0 L7,0 Z"/>
  </g>
</svg>
