<svg xmlns="http://www.w3.org/2000/svg" viewBox="0 0 16 16">
	<path d="M5.799 5.047h9.255V3.169H5.799zm.537.908A5.237 5.237 0 0 1 8.76 7.73h6.83V5.852H6.336v.103zm2.99 7.14h6.196v-1.878H9.805a5.184 5.184 0 0 1-.479 1.878m.473-2.682h5.858V8.536H9.262c.29.573.477 1.206.537 1.877M6.738 2.365h9.254V.488H6.738zM4.57 14.122a3.236 3.236 0 1 1 0-6.472 3.236 3.236 0 0 1 0 6.472m-.01-7.787a4.56 4.56 0 1 0 0 9.12 4.56 4.56 0 0 0 0-9.12"/>
	<path d="M5.166 12.285a.742.742 0 0 1-.347.078c-.102-.003-.133-.049-.149-.116a.782.782 0 0 1-.022-.18c-.002-.504-.002-1.007 0-1.51v-.154h.108l.502.001h.004c.15 0 .21-.093.232-.173.03-.103.063-.205.096-.308l.11-.405h-.492l-.562.001.001-.532v-.524l-1.032.318V12.2c0 .086.003.175.017.261.06.37.268.624.604.737.14.047.284.07.438.07a2.02 2.02 0 0 0 .834-.192l.213-.088-.308-.826-.247.124z"/>
</svg>
