<svg xmlns="http://www.w3.org/2000/svg" viewBox="0 0 16 16">
	<path d="M16 7h-2.09A5.995 5.995 0 0 0 9 2.09V0H7v2.09A5.995 5.995 0 0 0 2.09 7H0v2h2.09A5.995 5.995 0 0 0 7 13.91V16h2v-2.09A5.995 5.995 0 0 0 13.91 9H16zm-7 5.38V11H7v1.374c-.13-.029-.261-.053-.386-.094l-.017-.006a4.463 4.463 0 0 1-.6-.249l-.033-.015a4.513 4.513 0 0 1-1.974-1.974l-.015-.033a4.463 4.463 0 0 1-.249-.6l-.006-.017c-.04-.125-.065-.256-.094-.386H5V7H3.62A4.495 4.495 0 0 1 7 3.62V5h2V3.626c.13.029.261.053.386.094l.017.006a4.463 4.463 0 0 1 .6.249l.033.015a4.513 4.513 0 0 1 1.974 1.974l.015.033a4.463 4.463 0 0 1 .249.6l.006.017c.04.125.065.256.094.386H11v2h1.38A4.495 4.495 0 0 1 9 12.38z"/>
</svg>
