<svg xmlns="http://www.w3.org/2000/svg" viewBox="0 0 16 16">
  <g>
    <path d="M2.85714286,2 C1.27885714,2 0,3.27885714 0,4.85714286 C0,6.43542857 1.27885714,7.71428571 2.85714286,7.71428571 C3.26,7.71428571 3.64285714,7.62914286 3.99028571,7.47828571 C4.10342857,7.60914286 4.21885714,7.74057143 4.34114286,7.87314286 C4.804,7.39657143 5.29885714,6.92742857 5.808,6.47942857 L5.39257143,6.14857143 C5.59142857,5.75885714 5.71428571,5.324 5.71428571,4.85714286 C5.71428571,3.27885714 4.43542857,2 2.85714286,2 Z M7.176,6.08057143 C10.6314286,3.32685714 14.0702857,1.896 14.8571429,2.884 L14.8571429,2.884 L5.39257143,10.4228571 C5.48342857,10.6 5.556,10.7857143 5.60742857,10.9822857 C5.67028571,11.2171429 5.71428571,11.4594286 5.71428571,11.7142857 C5.71428571,13.2925714 4.43542857,14.5714286 2.85714286,14.5714286 C1.27885714,14.5714286 0,13.2925714 0,11.7142857 C0,10.136 1.27885714,8.85714286 2.85714286,8.85714286 C3.04228571,8.85714286 3.22342857,8.87771429 3.39885714,8.91257143 C3.60514286,8.952 3.80285714,9.012 3.99085714,9.09371429 C4.82742857,8.12685714 5.91428571,7.08571429 7.176,6.08057143 Z M2.85714286,9.42857143 C1.59657143,9.42857143 0.571428571,10.4537143 0.571428571,11.7142857 C0.571428571,12.9748571 1.59657143,14 2.85714286,14 C4.11771429,14 5.14285714,12.9748571 5.14285714,11.7142857 C5.14285714,10.4537143 4.11771429,9.42857143 2.85714286,9.42857143 Z M8.53428571,8.65142857 L14.8565714,13.6874286 C14.0697143,14.6748571 10.6314286,13.244 7.17542857,10.4908571 C7.01542857,10.3628571 6.86114286,10.2348571 6.70685714,10.1062857 L6.70685714,10.1062857 L8.53428571,8.65142857 Z M11.1428574,7.71428571 C11.3006529,7.71428571 11.4285714,7.84220423 11.4285714,7.99999971 L11.4285714,8.00000029 C11.4285714,8.15779577 11.3006529,8.28571429 11.1428574,8.28571429 L10.5714283,8.28571429 C10.4136328,8.28571429 10.2857143,8.15779577 10.2857143,8.00000029 L10.2857143,7.99999971 C10.2857143,7.84220423 10.4136328,7.71428571 10.5714283,7.71428571 L11.1428574,7.71428571 Z M13.4285717,7.71428571 C13.5863672,7.71428571 13.7142857,7.84220423 13.7142857,7.99999971 L13.7142857,8.00000029 C13.7142857,8.15779577 13.5863672,8.28571429 13.4285717,8.28571429 L12.8571426,8.28571429 C12.6993471,8.28571429 12.5714286,8.15779577 12.5714286,8.00000029 L12.5714286,7.99999971 C12.5714286,7.84220423 12.6993471,7.71428571 12.8571426,7.71428571 L13.4285717,7.71428571 Z M15.714286,7.71428571 C15.8720815,7.71428571 16,7.84220423 16,7.99999971 L16,8.00000029 C16,8.15779577 15.8720815,8.28571429 15.714286,8.28571429 L15.1428569,8.28571429 C14.9850614,8.28571429 14.8571429,8.15779577 14.8571429,8.00000029 L14.8571429,7.99999971 C14.8571429,7.84220423 14.9850614,7.71428571 15.1428569,7.71428571 L15.714286,7.71428571 Z M2.85714286,2.57142857 C4.11771429,2.57142857 5.14285714,3.59657143 5.14285714,4.85714286 C5.14285714,6.11771429 4.11771429,7.14285714 2.85714286,7.14285714 C1.59657143,7.14285714 0.571428571,6.11771429 0.571428571,4.85714286 C0.571428571,3.59657143 1.59657143,2.57142857 2.85714286,2.57142857 Z"/>
  </g>
</svg>
