<svg xmlns="http://www.w3.org/2000/svg" viewBox="0 0 16 16">
  <g>
    <path d="M14.7807438,4 C15.451213,4 16,4.43169306 16,4.95889344 L16,4.95889344 L16,16 L0,16 L0,4.95889344 C0,4.43169306 0.54878698,4 1.21925622,4 L1.21925622,4 Z M7,11.5 L3,11.5 L2.91012437,11.5080557 C2.67687516,11.5503916 2.5,11.7545401 2.5,12 C2.5,12.2761424 2.72385763,12.5 3,12.5 L3,12.5 L7,12.5 L7.08987563,12.4919443 C7.32312484,12.4496084 7.5,12.2454599 7.5,12 C7.5,11.7238576 7.27614237,11.5 7,11.5 L7,11.5 Z M11,9.5 L3,9.5 L2.91012437,9.50805567 C2.67687516,9.55039163 2.5,9.75454011 2.5,10 C2.5,10.2761424 2.72385763,10.5 3,10.5 L3,10.5 L11,10.5 L11.0898756,10.4919443 C11.3231248,10.4496084 11.5,10.2454599 11.5,10 C11.5,9.72385763 11.2761424,9.5 11,9.5 L11,9.5 Z M13.3333333,7.5 L2.66666667,7.5 L2.57679103,7.50805567 C2.34354183,7.55039163 2.16666667,7.75454011 2.16666667,8 C2.16666667,8.27614237 2.39052429,8.5 2.66666667,8.5 L2.66666667,8.5 L13.3333333,8.5 L13.423209,8.49194433 C13.6564582,8.44960837 13.8333333,8.24545989 13.8333333,8 C13.8333333,7.72385763 13.6094757,7.5 13.3333333,7.5 L13.3333333,7.5 Z M13.9331508,2 C14.5198114,2 15,2.73639981 15,3 L15,3 L1,3 C1,2.73639981 1.48018861,2 2.06684919,2 L2.06684919,2 Z M13.0855578,0 C13.5884098,0 14,0.736399811 14,1 L14,1 L2,1 C2,0.736399811 2.41159023,0 2.91444216,0 L2.91444216,0 Z"/>
  </g>
</svg>
