<svg xmlns="http://www.w3.org/2000/svg" viewBox="0 0 16 16">
  <g>
    <path class="ti-foreground" d="M12.5298,9.6104 C12.2898,9.6104 12.0998,9.6504 11.9698,9.7194 C11.8408,9.7994 11.7398,9.9104 11.6798,10.0704 C11.6098,10.2294 11.5698,10.5004 11.5698,10.8804 C11.5698,10.9504 11.5698,11.0204 11.5798,11.1004 C11.5798,11.2104 11.5908,11.3304 11.5908,11.4504 C11.5908,11.9794 11.5298,12.3804 11.4198,12.6394 C11.3008,12.9104 11.1098,13.1104 10.8498,13.2504 C10.5798,13.3894 10.1308,13.4504 9.4898,13.4504 L8.8808,13.4504 L8.8808,11.8704 C9.1998,11.8704 9.4098,11.8504 9.5098,11.7904 C9.6198,11.7294 9.6998,11.6394 9.7398,11.5104 C9.7898,11.3704 9.8098,11.0894 9.8098,10.6504 C9.8098,10.1604 9.8498,9.7994 9.9198,9.5804 C9.9998,9.3604 10.0908,9.1904 10.1898,9.0804 C10.3008,8.9694 10.4598,8.8704 10.6798,8.7704 C10.4698,8.6804 10.3198,8.5894 10.2298,8.5004 C10.1098,8.3804 10.0098,8.2294 9.9498,8.0304 C9.8598,7.7804 9.8098,7.4404 9.8098,7.0004 C9.8098,6.5594 9.7898,6.2994 9.7698,6.2004 C9.7298,6.0204 9.6598,5.8894 9.5598,5.7994 C9.4498,5.7104 9.3008,5.6704 9.0998,5.6704 L8.8808,5.6704 L8.8808,4.0704 L9.5398,4.0704 C9.9098,4.0704 10.2398,4.1004 10.5298,4.1704 C10.7498,4.2194 10.9198,4.2994 11.0508,4.4104 C11.2098,4.5404 11.3498,4.7404 11.4398,5.0004 C11.5398,5.2504 11.5908,5.6704 11.5908,6.2504 C11.5908,6.3204 11.5908,6.4004 11.5798,6.4694 L11.5798,6.6394 C11.5798,7.0204 11.6198,7.2994 11.6798,7.4604 C11.7498,7.6204 11.8408,7.7404 11.9698,7.8094 C12.0908,7.8894 12.2798,7.9304 12.5298,7.9304 L12.5298,9.6104 Z M7.1098,5.6704 L6.8898,5.6704 C6.6898,5.6704 6.5298,5.7104 6.4298,5.7994 C6.3298,5.8894 6.2598,6.0204 6.2198,6.2004 C6.1898,6.2994 6.1798,6.5594 6.1798,7.0004 C6.1698,7.4404 6.1308,7.7804 6.0398,8.0304 C5.9698,8.2294 5.8808,8.3804 5.7598,8.5004 C5.6698,8.5894 5.5198,8.6804 5.3098,8.7704 C5.5298,8.8704 5.6898,8.9694 5.7898,9.0804 C5.8998,9.1904 5.9898,9.3604 6.0598,9.5804 C6.1398,9.7994 6.1798,10.1604 6.1798,10.6504 C6.1798,11.0894 6.1998,11.3704 6.2398,11.5104 C6.2898,11.6394 6.3698,11.7294 6.4698,11.7904 C6.5798,11.8504 6.7898,11.8704 7.1098,11.8704 L7.1098,13.4504 L6.4898,13.4504 C5.8598,13.4504 5.4098,13.3894 5.1398,13.2504 C4.8698,13.1104 4.6798,12.9104 4.5698,12.6394 C4.4598,12.3804 4.3998,11.9794 4.3998,11.4504 C4.3998,11.3304 4.3998,11.2104 4.4098,11.1004 L4.4098,10.8804 C4.4098,10.5004 4.3808,10.2294 4.3098,10.0704 C4.2398,9.9104 4.1398,9.7994 4.0198,9.7194 C3.8898,9.6504 3.6998,9.6104 3.4598,9.6104 L3.4598,7.9304 C3.7098,7.9304 3.8898,7.8894 4.0198,7.8094 C4.1498,7.7404 4.2398,7.6204 4.3098,7.4604 C4.3698,7.2994 4.3998,7.0204 4.3998,6.6394 L4.3998,6.2504 C4.3998,5.6704 4.4498,5.2504 4.5398,5.0004 C4.6398,4.7404 4.7698,4.5404 4.9398,4.4104 C5.0698,4.2994 5.2398,4.2194 5.4598,4.1704 C5.7498,4.1004 6.0798,4.0704 6.4498,4.0704 L7.1098,4.0704 L7.1098,5.6704 Z M7.9998,0.0004 C4.1398,0.0004 0.9998,1.0894 0.9998,2.4404 L0.9998,13.5704 C0.9998,14.2404 1.7898,14.8504 3.0508,15.2904 C4.3198,15.7294 6.0698,16.0004 7.9998,16.0004 C8.2898,16.0004 8.5698,15.9904 8.8498,15.9794 C8.9898,15.9794 9.1308,15.9694 9.2698,15.9604 C12.5298,15.7504 14.9998,14.7604 14.9998,13.5704 L14.9998,2.4404 C14.9998,1.0894 11.8598,0.0004 7.9998,0.0004 L7.9998,0.0004 Z"/>
  </g>
</svg>
