<svg xmlns="http://www.w3.org/2000/svg" viewBox="0 0 16 16">
	<path d="M10.484 11.356a.531.531 0 0 0-.485-.944l-1.835.942a.53.53 0 1 0 .486.944l1.834-.942zm.391.834l-2.028 1.041a.587.587 0 0 0 .536 1.044l2.028-1.042a.587.587 0 1 0-.536-1.043zM5.051 5.981a.53.53 0 0 0 .715.23l1.835-.943a.532.532 0 0 0-.485-.944l-1.835.942a.532.532 0 0 0-.23.715zm-.16-1.548l2.027-1.042a.586.586 0 1 0-.536-1.044L4.354 3.39a.586.586 0 1 0 .536 1.044zm9.25 7.613c-.772-1.05-1.517-1.83-2.258-2.425-1.02-.82-2.024-1.27-3.012-1.596.59-1.354.82-2.558.82-3.589C9.687 1.647 8.067.22 7.993.16a.658.658 0 0 0-.857.997v.001c.088.083 1.241 1.176 1.24 3.28 0 .904-.21 2.015-.837 3.351l-.004.006-.005.012c-.553 1.281-1.082 2.621-1.08 4.427 0 .95.142 2.02.48 3.28a.657.657 0 1 0 1.27-.34c-.313-1.17-.434-2.123-.434-2.94.002-1.164.243-2.07.594-2.989.934.3 1.792.677 2.7 1.403.637.511 1.303 1.202 2.021 2.178a.657.657 0 1 0 1.06-.779zM4.597 6.241C2.956 4.927 2.825 3.344 2.815 3.223a.659.659 0 0 0-1.315.044c.002.095.101 2.253 2.274 4.001.656.526 1.496 1.006 2.557 1.377l.482-1.227c-.954-.326-1.672-.74-2.215-1.177z"/>
</svg>
