<svg xmlns="http://www.w3.org/2000/svg" viewBox="0 0 16 16">
    <g>
        <path class="ti-foreground" d="M12.54 9.85c-.24 0-.43.04-.56.11a.678.678 0 00-.29.35c-.07.16-.11.43-.11.81 0 .07 0 .14.01.22 0 .11.01.23.01.35 0 .53-.06.93-.17 1.19-.12.27-.31.47-.57.61-.27.14-.72.2-1.36.2h-.61v-1.58c.32 0 .53-.02.63-.08.11-.06.19-.15.23-.28.05-.14.07-.42.07-.86 0-.49.04-.85.11-1.07.08-.22.17-.39.27-.5.11-.11.27-.21.49-.31-.21-.09-.36-.18-.45-.27-.12-.12-.22-.27-.28-.47-.09-.25-.14-.59-.14-1.03 0-.44-.02-.7-.04-.8a.736.736 0 00-.21-.4c-.11-.09-.26-.13-.46-.13h-.22v-1.6h.66c.37 0 .7.03.99.1.22.05.39.13.52.24.16.13.3.33.39.59.1.25.15.67.15 1.25 0 .07 0 .15-.01.22v.17c0 .38.04.66.1.82.07.16.16.28.29.35.12.08.31.12.56.12v1.68zM7.12 5.91H6.9c-.2 0-.36.04-.46.13a.736.736 0 00-.21.4c-.03.1-.04.36-.04.8-.01.44-.05.78-.14 1.03-.07.2-.16.35-.28.47-.09.09-.24.18-.45.27.22.1.38.2.48.31.11.11.2.28.27.5.08.22.12.58.12 1.07 0 .44.02.72.06.86a.54.54 0 00.23.28c.11.06.32.08.64.08v1.58H6.5c-.63 0-1.08-.06-1.35-.2s-.46-.34-.57-.61c-.11-.26-.17-.66-.17-1.19 0-.12 0-.24.01-.35v-.22c0-.38-.03-.65-.1-.81a.787.787 0 00-.29-.35c-.13-.07-.32-.11-.56-.11V8.17c.25 0 .43-.04.56-.12.13-.07.22-.19.29-.35.06-.16.09-.44.09-.82v-.39c0-.58.05-1 .14-1.25.1-.26.23-.46.4-.59.13-.11.3-.19.52-.24.29-.07.62-.1.99-.1h.66v1.6zM8 0C4.1 0 1 1.3 1 3v10.5h.11C1.65 14.95 4.49 16 8 16c3.5 0 6.34-1.05 6.88-2.5H15V3c0-1.7-3.1-3-7-3z"/>
    </g>
</svg>
