<svg xmlns="http://www.w3.org/2000/svg" viewBox="0 0 16 16">
  <g>
    <path fill="#111" d="M7.98870764,7.15561561 L10.0931333,4.20941974 C10.2536378,3.98471345 10.5659128,3.93266761 10.7906191,4.0931721 C11.0153254,4.2536766 11.0673712,4.56595164 10.9068667,4.79065793 L8.58596848,8.03991549 C9.57540146,9.43059231 10.7024315,9.32013856 12.2240424,7.64646803 C12.4015534,7.45121772 12.6893557,7.45121772 12.8668667,7.64646803 C13.0443778,7.84171835 13.0443778,8.15828165 12.8668667,8.35353197 C11.0423701,10.3603566 9.34490202,10.5430611 8.01132141,8.84442139 L5.90686674,11.7906579 C5.74636224,12.0153642 5.4340872,12.0674101 5.2093809,11.9069056 C4.98467461,11.7464011 4.93262877,11.434126 5.09313326,11.2094197 L7.41405921,7.96012342 C6.42461956,6.56940563 5.29758268,6.67984583 3.77595763,8.35353197 C3.59844659,8.54878228 3.31064432,8.54878228 3.13313328,8.35353197 C2.95562224,8.15828165 2.95562224,7.84171835 3.13313328,7.64646803 C4.9576431,5.63962884 6.65512263,5.45693623 7.98870764,7.15561561 Z"/>
  </g>
</svg>
