<svg xmlns="http://www.w3.org/2000/svg" viewBox="0 0 16 16">
  <g>
    <path d="M14,0 C15.1045695,-2.02906125e-16 16,0.8954305 16,2 L16,14 C16,15.1045695 15.1045695,16 14,16 L2,16 C0.8954305,16 1.3527075e-16,15.1045695 0,14 L0,2 C-1.3527075e-16,0.8954305 0.8954305,2.02906125e-16 2,0 L14,0 Z M4.81801948,3.75735931 C4.52512627,3.4644661 4.05025253,3.4644661 3.75735931,3.75735931 C3.4644661,4.05025253 3.4644661,4.52512627 3.75735931,4.81801948 L3.75735931,4.81801948 L6.93863272,7.99929289 L3.75735931,11.1819805 C3.46446607,11.4748738 3.4644661,11.9497475 3.75735931,12.2426407 C4.05025253,12.5355339 4.52512624,12.5355339 4.81801948,12.2426407 L4.81801948,12.2426407 L7.99929289,9.05995306 L11.1819805,12.2426407 C11.4748738,12.5355339 11.9497475,12.5355339 12.2426407,12.2426407 C12.5355339,11.9497475 12.5355339,11.4748738 12.2426407,11.1819805 L12.2426407,11.1819805 L9.05995306,7.99929289 L12.2426407,4.81801948 C12.5355339,4.52512627 12.5355339,4.05025253 12.2426407,3.75735931 C11.9497475,3.4644661 11.4748737,3.4644661 11.1819805,3.75735931 L11.1819805,3.75735931 L7.99929289,6.93863272 Z"/>
  </g>
</svg>
