<svg xmlns="http://www.w3.org/2000/svg" viewBox="0 0 16 16">
  <g>
    <path d="M5,0.9998 L1,0.9998 L1,14.9998 L5,14.9998 L5,15.9998 L1,15.9998 C0.487,15.9998 0.064,15.6138 0.007,15.1168 L0,14.9998 L0,0.9998 C0,0.4478 0.448,-0.0002 1,-0.0002 L5,-0.0002 L5,0.9998 Z M15.998,8.0598 C15.987,8.2558 15.917,8.4488 15.79,8.6128 L15.707,8.7068 L13.207,11.2068 C12.816,11.5978 12.184,11.5978 11.793,11.2068 C11.432,10.8468 11.405,10.2788 11.709,9.8878 L11.793,9.7928 L12.585,8.9998 L5,8.9998 C4.448,8.9998 4,8.5528 4,7.9998 C4,7.4478 4.448,6.9998 5,6.9998 L12.584,6.9998 L11.793,6.2068 C11.402,5.8158 11.402,5.1838 11.793,4.7928 C12.184,4.4018 12.816,4.4018 13.207,4.7928 L15.707,7.2928 C15.857,7.4428 15.95,7.6298 15.984,7.8238 L15.998,7.9408 L15.998,8.0598 Z"/>
  </g>
</svg>
