<svg xmlns="http://www.w3.org/2000/svg" viewBox="0 0 16 16">
  <g>
    <path d="M13.7352941,1.0299667 C13.5941176,0.905660377 13.4,0.887902331 13.2235294,0.905660377 L11.9529412,1.22530522 C10.6647059,1.54495006 9.28823529,1.47391787 8.01764706,1.01220866 L8,1.01220866 C6.62352941,0.497225305 5.14117647,0.390677026 3.72941176,0.674805771 L3.23529412,0.781354051 L3.23529412,0.621531632 C3.23529412,0.284128746 2.97058824,0 2.61764706,0 C2.26470588,0 2,0.266370699 2,0.621531632 L2,1.52719201 L2,8.4173141 L2,15.3784684 C2,15.7158713 2.26470588,16 2.61764706,16 C2.97058824,16 3.23529412,15.7336293 3.23529412,15.3784684 L3.23529412,8.89678135 L3.94117647,8.75471698 C5.15882353,8.50610433 6.41176471,8.61265261 7.55882353,9.05660377 L7.61176471,9.07436182 C8.49411765,9.39400666 9.41176471,9.57158713 10.3470588,9.57158713 C10.9823529,9.57158713 11.6352941,9.50055494 12.2705882,9.32297447 L13.5411765,9.00332963 C13.8058824,8.93229745 14,8.68368479 14,8.4173141 L14,1.52719201 C13.9823529,1.3318535 13.8764706,1.15427303 13.7352941,1.0299667 Z"/>
  </g>
</svg>
