<svg xmlns="http://www.w3.org/2000/svg" fill="none" viewBox="0 0 16 16">
  <circle class="ti-background" cx="8" cy="8" r="7.5" stroke="#202020"/>
  <g class="ti-foreground" >
    <g fill="#202020" clip-path="url(#group-circle__clip0)">
      <path d="M14.47 9.41a2.726 2.726 0 01-.23.25 4.906 4.906 0 01-.51.39c-.257.16-.537.282-.83.36.388.37.724.79 1 1.25.08.121.15.248.21.38.383-.743.627-1.55.72-2.38l-.36-.25zm-3.34-.17c.182.08.359.17.53.27h.45a1.6 1.6 0 00.23 0h.15l.28-.08.23-.1.15-.08c.093-.05.18-.111.26-.18l.12-.11a.928.928 0 00.14-.14.648.648 0 00.13-.16 2 2 0 00.38-.74c.06-.201.091-.41.09-.62a2.25 2.25 0 00-.57-1.53 2.24 2.24 0 00-3.1-.27 3.49 3.49 0 01.53 3.74zm-8.96.81a4.904 4.904 0 01-.51-.39 2.729 2.729 0 01-.23-.25L1 9.62c.093.832.34 1.64.73 2.38.082-.12.172-.233.27-.34a6.233 6.233 0 011-1.25 3.14 3.14 0 01-.83-.36zM1.71 7.9a2 2 0 00.38.74.65.65 0 00.13.16.93.93 0 00.14.14l.12.11c.08.069.167.13.26.18l.15.08.23.1.28.08h.15a1.6 1.6 0 00.23 0h.47c.17-.09.32-.18.5-.26a3.33 3.33 0 01-.33-1.47A3.51 3.51 0 015.3 5.5a2.27 2.27 0 00-3.68 1.77c-.001.21.03.419.09.62v.01zm9.6 2.56a6.022 6.022 0 00-.72-.36l-.07.07a2.95 2.95 0 01-.41.38l-.22.16a3.33 3.33 0 01-1.35.52c-.19.02-.38.02-.57 0a3.64 3.64 0 01-.57 0 3.1 3.1 0 01-1.31-.51 1.818 1.818 0 01-.29-.2 2.599 2.599 0 01-.38-.36l-.06-.06a5.508 5.508 0 00-.73.36 5.33 5.33 0 00-1.81 1.73 3.882 3.882 0 00-.42.87l.09.12c.037.056.077.11.12.16v.05c.455.525.988.977 1.58 1.34A6.88 6.88 0 008 15.83a6.93 6.93 0 003.76-1.1 6.84 6.84 0 001.63-1.45v-.06a.757.757 0 00.08-.11l.05-.11a4.843 4.843 0 00-.43-.85 5.43 5.43 0 00-1.78-1.69z"/>
      <path d="M5.71 8.85a2.47 2.47 0 00.69.88l.2.14a2.5 2.5 0 001.07.38h.56a2.54 2.54 0 001.09-.38l.18-.14a1.54 1.54 0 00.19-.17c.212-.202.388-.439.52-.7l.06-.15a2.46 2.46 0 00.18-.94A2.4 2.4 0 0010 6.31a2.49 2.49 0 00-4.32 2.4.999.999 0 00.03.14z"/>
    </g>
    <defs>
      <clipPath id="group-circle__clip0">
        <path fill="#fff" d="M0 0h13.9v10.83H0z" transform="translate(1 5)"/>
      </clipPath>
    </defs>
  </g>
</svg>
