<svg xmlns="http://www.w3.org/2000/svg" viewBox="0 0 16 16">
  <g>
    <path d="M14.1705717,-1.42108547e-14 C15.1812559,-1.42108547e-14 16,0.820923539 16,1.83206107 C16,2.67100488 15.4341768,3.37079214 14.6654171,3.58803654 L14.6654171,3.58803654 L14.6654171,10.9693405 C15.4341768,11.1865849 16,11.8863722 16,12.725316 C16,13.7364535 15.1812559,14.557377 14.1705717,14.557377 C13.3348329,14.557377 12.6390503,13.993743 12.419119,13.2278814 L12.419119,13.2278814 L6.43798813,13.2278814 C6.21805686,14.7886372 4.8684786,16 3.23898782,16 C1.44954702,16 -1.77635684e-15,14.549368 -1.77635684e-15,12.7673633 C-1.77635684e-15,11.1645601 1.14964074,9.84407458 2.66916589,9.58278063 L2.66916589,9.58278063 L2.66916589,3.58603429 C1.90540456,3.36478538 1.34457982,2.6680015 1.34457982,1.83206107 C1.34457982,0.820923539 2.16332396,-1.42108547e-14 3.17400812,-1.42108547e-14 C3.9657607,-1.42108547e-14 4.6345517,0.508572144 4.88947204,1.21436616 L4.88947204,1.21436616 L12.4551078,1.21436616 C12.7090284,0.508572144 13.3778194,-1.42108547e-14 14.1705717,-1.42108547e-14 Z M3.23898782,10.5248404 C3.0390503,10.5248404 2.84910965,10.5548742 2.66916589,10.6049305 C1.70946579,10.8452009 0.999687598,11.726192 0.999687598,12.7673633 C0.999687598,13.9977475 2.00937207,14.9988737 3.23898782,14.9988737 C4.31865042,14.9988737 5.21836926,14.2390189 5.42830366,13.2278814 C5.45829428,13.0777124 5.47828803,12.9265424 5.47828803,12.7673633 C5.47828803,12.5771493 5.45829428,12.3969466 5.4083099,12.2267551 C5.20837238,11.385809 4.52858482,10.735077 3.66885348,10.5748968 C3.52889722,10.5338506 3.38894096,10.5248404 3.23898782,10.5248404 Z M3.1651109,13.4976849 C3.472015,13.4976849 3.69294595,13.7409586 3.69294595,14.0493055 C3.69294595,14.3556501 3.472015,14.5989238 3.1651109,14.5989238 C2.85820681,14.5989238 2.63627616,14.3556501 2.63627616,14.0493055 C2.63627616,13.7409586 2.85820681,13.4976849 3.1651109,13.4976849 Z M3.18610434,10.9243899 C3.79991253,10.9243899 4.2857607,11.1896884 4.2857607,11.8574396 C4.2857607,12.4911525 3.51400187,12.6603429 3.56698532,13.2429984 L3.56698532,13.2429984 L2.77323336,13.2429984 C2.66826617,12.5552246 3.41903155,12.2588913 3.41903155,11.9195094 C3.41903155,11.7302966 3.28207435,11.6552121 3.12312402,11.6552121 C2.94318026,11.6552121 2.82721649,11.7503191 2.68925961,11.8784633 L2.68925961,11.8784633 L2.19141518,11.4229508 C2.44033739,11.1256163 2.78422993,10.9243899 3.18610434,10.9243899 Z M12.3821306,2.21549243 L4.96244923,2.21549243 C4.8204936,2.88024027 4.31665105,3.40483043 3.66885348,3.58803654 L3.66885348,3.58803654 L3.66885348,9.56375923 C5.078413,9.74296083 6.19806311,10.8341885 6.42799125,12.2267551 L6.42799125,12.2267551 L12.4181193,12.2267551 C12.5900656,11.6200726 13.0619182,11.1465399 13.6657295,10.9713428 L13.6657295,10.9713428 L13.6657295,3.58603429 C13.0219306,3.40082593 12.5220868,2.87723689 12.3821306,2.21549243 L12.3821306,2.21549243 Z"/>
  </g>
</svg>
