<svg xmlns="http://www.w3.org/2000/svg" viewBox="0 0 16 16">
	<circle cx="8" cy="8" r="3"/>
	<path d="M8 0C3.6 0 0 3.6 0 8s3.6 8 8 8 8-3.6 8-8-3.6-8-8-8zm3.5 4c-.6 0-1.1.2-1.5.5 1.2.7 2 2 2 3.5 0 .6-.2 1.2-.4 1.7.9.4 1.7 1 2.5 1.7-.2.3-.3.6-.6.9-.7-.7-1.6-1.3-2.6-1.7-.6.8-1.7 1.4-2.9 1.4s-2.3-.5-3-1.4c-1 .4-1.8 1-2.6 1.7-.2-.3-.4-.5-.5-.8.8-.7 1.6-1.3 2.5-1.7C4.2 9.2 4 8.6 4 8c0-1.5.8-2.8 2-3.5-.4-.3-.9-.5-1.5-.5C3.1 4 2 5.1 2 6.5c0 .8.4 1.5 1 2-.6.3-1.2.7-1.8 1.2C1.1 9.1 1 8.6 1 8c0-3.9 3.1-7 7-7s7 3.1 7 7c0 .6-.1 1.1-.2 1.7L13 8.5c.6-.5 1-1.2 1-2C14 5.1 12.9 4 11.5 4z"/>
</svg>
