<svg xmlns="http://www.w3.org/2000/svg" viewBox="0 0 16 16">
  <g>
    <path d="M13.64,2.3438 C16.786,5.4638 16.786,10.5398 13.64,13.6598 C12.066,15.2198 9.998,15.9998 7.931,15.9998 C5.865,15.9998 3.797,15.2198 2.224,13.6598 C1.918,13.3578 1.918,12.8678 2.224,12.5648 C2.529,12.2628 3.023,12.2628 3.328,12.5648 C5.866,15.0798 9.996,15.0808 12.535,12.5648 C15.073,10.0488 15.073,5.9548 12.535,3.4388 C11.305,2.2198 9.67,1.5488 7.931,1.5488 C6.546,1.5488 5.231,1.9808 4.13,2.7708 L5.056,3.6878 C5.187,3.8188 5.239,4.0088 5.191,4.1868 C5.142,4.3648 5.001,4.5038 4.823,4.5518 L0.656,5.6578 C0.612,5.6708 0.566,5.6758 0.521,5.6758 C0.385,5.6758 0.251,5.6228 0.153,5.5248 C0.022,5.3938 -0.03,5.2038 0.018,5.0258 L1.134,0.8958 C1.183,0.7178 1.324,0.5778 1.503,0.5308 C1.681,0.4818 1.875,0.5338 2.006,0.6648 L3.015,1.6648 C4.419,0.5898 6.127,-0.0002 7.931,-0.0002 C10.087,-0.0002 12.115,0.8328 13.64,2.3438 Z M8.0658,4.4736 C8.2888,4.4736 8.4688,4.6526 8.4688,4.8736 L8.4688,8.0296 C8.4688,8.1356 8.5108,8.2376 8.5868,8.3116 L10.8388,10.5456 C10.9968,10.7026 10.9968,10.9546 10.8388,11.1116 L10.4598,11.4886 C10.3008,11.6446 10.0458,11.6446 9.8878,11.4886 L7.2428,8.8666 C7.1668,8.7916 7.1248,8.6896 7.1248,8.5836 L7.1248,4.8736 C7.1248,4.6526 7.3048,4.4736 7.5278,4.4736 L8.0658,4.4736 Z"/>
  </g>
</svg>
