<svg xmlns="http://www.w3.org/2000/svg" viewBox="0 0 16 16">
  <g>
    <path d="M11,0.9998 L15,0.9998 L15,14.9998 L11,14.9998 L11,15.9998 L15,15.9998 C15.513,15.9998 15.936,15.6138 15.993,15.1168 L16,14.9998 L16,0.9998 C16,0.4478 15.552,-0.0002 15,-0.0002 L11,-0.0002 L11,0.9998 Z M0,7.9998 C0,8.5528 0.448,8.9998 1,8.9998 L8.584,8.9998 L7.793,9.7928 C7.402,10.1838 7.402,10.8158 7.793,11.2068 C8.184,11.5978 8.816,11.5978 9.207,11.2068 L11.707,8.7068 C11.857,8.5568 11.95,8.3708 11.984,8.1768 L11.998,8.0598 L11.998,7.9408 C11.987,7.7438 11.917,7.5508 11.79,7.3878 L11.707,7.2928 L9.207,4.7928 C8.816,4.4018 8.184,4.4018 7.793,4.7928 C7.432,5.1528 7.405,5.7208 7.709,6.1128 L7.793,6.2068 L8.585,6.9998 L1,6.9998 C0.448,6.9998 0,7.4478 0,7.9998 L0,7.9998 Z"/>
  </g>
</svg>
