<svg xmlns="http://www.w3.org/2000/svg" viewBox="0 0 16 16">
  <g>
    <path d="M8,0 C12.418278,0 16,3.581722 16,8 C16,12.418278 12.418278,16 8,16 C3.581722,16 0,12.418278 0,8 C0,3.581722 3.581722,0 8,0 Z M7.88888889,6.11262338 C7.39796911,6.11262338 7,6.51059249 7,7.00151227 L7,11.4459567 C7,11.9368765 7.39796911,12.3348456 7.88888889,12.3348456 C8.37980867,12.3348456 8.77777778,11.9368765 8.77777778,11.4459567 L8.77777778,7.00151227 C8.77777778,6.51059249 8.37980867,6.11262338 7.88888889,6.11262338 Z M7.88888889,3.44293218 C7.39796911,3.44293218 7,3.84090129 7,4.33182107 C7,4.82274084 7.39796911,5.22070996 7.88888889,5.22070996 C8.37980867,5.22070996 8.77777778,4.82274084 8.77777778,4.33182107 C8.77777778,3.84090129 8.37980867,3.44293218 7.88888889,3.44293218 Z"/>
  </g>
</svg>
