<svg xmlns="http://www.w3.org/2000/svg" viewBox="0 0 16 16">
  <g>
    <path d="M1.80579001,5.03119269 L4.28636863,1.93046942 C4.24559061,1.79411723 4.22368553,1.64961672 4.22368553,1.5 C4.22368553,0.671572875 4.89525841,0 5.72368553,0 C6.55211266,0 7.22368553,0.671572875 7.22368553,1.5 C7.22368553,1.86853369 7.09078127,2.20602592 6.87028738,2.46716206 L9.57253308,8.54721487 C9.69234177,8.51639259 9.81794207,8.5 9.94737106,8.5 C9.99931086,8.5 10.0506341,8.50263989 10.1012139,8.5077928 L13.2449669,3.82182881 C13.0900848,3.58578472 13,3.30341258 13,3 C13,2.17157288 13.6715729,1.5 14.5,1.5 C15.3284271,1.5 16,2.17157288 16,3 C16,3.82842712 15.3284271,4.5 14.5,4.5 C14.3367636,4.5 14.1796172,4.47392534 14.0324988,4.42571387 L10.9848873,8.91668718 C11.2699026,9.18972698 11.4473711,9.5741385 11.4473711,10 C11.4473711,10.8284271 10.7757982,11.5 9.94737106,11.5 C9.11894394,11.5 8.44737106,10.8284271 8.44737106,10 C8.44737106,9.67113059 8.55320659,9.36698039 8.73267605,9.11975101 L6.00138447,2.97434495 C5.91139126,2.99119055 5.81856717,3 5.72368553,3 C5.42181446,3 5.14077058,2.9108282 4.90545802,2.75738874 L2.66617051,5.55649813 C2.87493517,5.81421164 3,6.14250059 3,6.5 C3,7.32842712 2.32842712,8 1.5,8 C0.671572875,8 0,7.32842712 0,6.5 C0,5.67157288 0.671572875,5 1.5,5 C1.6047868,5 1.70706403,5.01074478 1.80579001,5.03119269 Z M1,14 L15,14 C15.5522847,14 16,14.4477153 16,15 C16,15.5522847 15.5522847,16 15,16 L1,16 C0.44771525,16 6.76353751e-17,15.5522847 0,15 C-6.76353751e-17,14.4477153 0.44771525,14 1,14 Z"/>
  </g>
</svg>
