<svg xmlns="http://www.w3.org/2000/svg" viewBox="0 0 16 16">
  <g>
    <path d="M1,13 C1.55228475,13 2,13.4477153 2,14 C2,14.5522847 1.55228475,15 1,15 C0.44771525,15 6.76353751e-17,14.5522847 0,14 C-6.76353751e-17,13.4477153 0.44771525,13 1,13 Z M15.5,13 C15.7761424,13 16,13.2238576 16,13.5 L16,14.5 C16,14.7761424 15.7761424,15 15.5,15 L4.5,15 C4.22385763,15 4,14.7761424 4,14.5 L4,13.5 C4,13.2238576 4.22385763,13 4.5,13 L15.5,13 Z M15.5,9 C15.7761424,9 16,9.22385763 16,9.5 L16,10.5 C16,10.7761424 15.7761424,11 15.5,11 L4.5,11 C4.22385763,11 4,10.7761424 4,10.5 L4,9.5 C4,9.22385763 4.22385763,9 4.5,9 L15.5,9 Z M1,9 C1.55228475,9 2,9.44771525 2,10 C2,10.5522847 1.55228475,11 1,11 C0.44771525,11 6.76353751e-17,10.5522847 0,10 C-6.76353751e-17,9.44771525 0.44771525,9 1,9 Z M15.5,5 C15.7761424,5 16,5.22385763 16,5.5 L16,6.5 C16,6.77614237 15.7761424,7 15.5,7 L4.5,7 C4.22385763,7 4,6.77614237 4,6.5 L4,5.5 C4,5.22385763 4.22385763,5 4.5,5 L15.5,5 Z M1,5 C1.55228475,5 2,5.44771525 2,6 C2,6.55228475 1.55228475,7 1,7 C0.44771525,7 6.76353751e-17,6.55228475 0,6 C-6.76353751e-17,5.44771525 0.44771525,5 1,5 Z M15.5,1 C15.7761424,1 16,1.22385763 16,1.5 L16,2.5 C16,2.77614237 15.7761424,3 15.5,3 L4.5,3 C4.22385763,3 4,2.77614237 4,2.5 L4,1.5 C4,1.22385763 4.22385763,1 4.5,1 L15.5,1 Z M1,1 C1.55228475,1 2,1.44771525 2,2 C2,2.55228475 1.55228475,3 1,3 C0.44771525,3 6.76353751e-17,2.55228475 0,2 C-6.76353751e-17,1.44771525 0.44771525,1 1,1 Z"/>
  </g>
</svg>
