<svg xmlns="http://www.w3.org/2000/svg" viewBox="0 0 16 16">
	<path d="M2.75,6.39488462e-14 L2.75,5.341 L1.176,5.341 L1.176,7.473 L-1.27009514e-13,7.473 L1.999,16 L14,16 L16,7.473 L15,7.473 L15,5.341 L13.249,5.341 L13.249,4.275 L9.25,6.39488462e-14 L2.75,6.39488462e-14 Z M3.75,5.341 L3.75,1.077 L8.25,1.077 L8.25,5.341 L12.249,5.341 L12.249,7.473 L4.46,7.473 L3.75,7.473 L3.75,5.341 Z M9.25,1.61 L11.75,4.275 L9.25,4.275 L9.25,1.61 Z M1.28,8.538 L4.46,8.538 L12.96,8.538 L14.719,8.538 L13.22,14.935 L2.781,14.935 L1.28,8.538 Z"/>
</svg>
