<svg xmlns="http://www.w3.org/2000/svg" viewBox="0 0 16 16">
  <g>
    <path fill-rule="evenodd" d="M9.16626644,5.66163076 L11.5004002,5.66163076 L11.5004002,4.51344097 L9.16626644,4.51344097 L9.16626644,5.66163076 Z M11.5004002,10.0819284 C11.5004002,10.1906879 11.449171,10.2994474 11.3595197,10.3662569 C10.4021727,11.0933919 9.21109205,11.4616206 7.99919954,11.4056871 C6.78730703,11.4616206 5.59782733,11.0933919 4.63887936,10.3662569 C4.55082905,10.2994474 4.49959977,10.1906879 4.49959977,10.0819284 L4.49959977,9.10775384 C5.47935963,9.90635946 6.72807318,10.3165382 7.99919954,10.2559436 C9.2703259,10.3165382 10.5190395,9.90635946 11.5004002,9.10775384 L11.5004002,10.0819284 Z M4.49959977,5.66163076 L6.83373356,5.66163076 L6.83373356,4.51344097 L4.49959977,4.51344097 L4.49959977,5.66163076 Z M14.5837621,0.00768942024 C12.4161235,0.45515716 10.2132647,0.708411471 7.99919954,0.765898646 C5.78513436,0.708411471 3.58227559,0.45515716 1.41463694,0.00768942024 C1.20011435,-0.0373680952 1,0.121110063 1,0.338629103 L1,8.38217247 C1,13.1691451 7.92395655,16 7.99919954,16 C8.07444254,16 15,13.1691451 15,8.38217247 L15,0.338629103 C15,0.121110063 14.7998856,-0.0373680952 14.5837621,0.00768942024 L14.5837621,0.00768942024 Z"/>
  </g>
</svg>
