<svg xmlns="http://www.w3.org/2000/svg" viewBox="0 0 16 16">
  <g>
    <path d="M2.05232558,0 C0.922470698,0 0,0.923508837 0,2.05232558 L0,13.9534884 C0,15.082307 0.922470698,16 2.05232558,16 L13.9476744,16 C15.0775293,16 16,15.082307 16,13.9534884 L16,2.05232558 C16,0.923508837 15.0775293,0 13.9476744,0 L2.05232558,0 Z M2.05232558,0.744186047 L7.62790698,0.744186047 L7.62790698,7.62790698 L0.744186047,7.62790698 L0.744186047,2.05232558 C0.744186047,1.32369116 1.32109023,0.744186047 2.05232558,0.744186047 Z M8.37209302,0.744186047 L13.9476744,0.744186047 C14.6789098,0.744186047 15.255814,1.32369116 15.255814,2.05232558 L15.255814,7.62790698 L8.37209302,7.62790698 L8.37209302,0.744186047 Z M13.0581395,2.50580465 L11.8081395,3.75580465 L10.5581395,2.50580465 C10.3738381,2.36623256 10.2406586,2.38637395 10.0634623,2.47520744 C9.87272744,2.64596837 9.93853023,2.86570233 10.0348837,3.03487442 L11.2848837,4.28487442 L10.0348837,5.53487442 C9.8728614,5.66548093 9.8586586,5.94004465 10.005814,6.0872 C10.1529693,6.23435535 10.427533,6.22015256 10.5581395,6.05813023 L11.8081395,4.80813023 L13.0581395,6.05813023 C13.1941395,6.20087442 13.4470288,6.20258791 13.5872093,6.06393488 C13.7273916,5.92529488 13.7284484,5.67243349 13.5872093,5.53486512 L12.3372093,4.28486512 L13.5872093,3.03486512 C13.7491256,2.79259349 13.7199572,2.63113302 13.5331442,2.46005581 C13.3515665,2.35908465 13.2197972,2.41074233 13.0581395,2.50580465 Z M2.00581395,3.9127907 C1.81096,3.92188837 1.64202977,4.10747349 1.65116279,4.30232558 C1.66029767,4.49717767 1.84584744,4.66614884 2.04069767,4.65697674 L6.31976744,4.65697674 C6.51618977,4.65950698 6.69767442,4.48132279 6.69767442,4.28488372 C6.69767442,4.08844465 6.51618977,3.91026419 6.31976744,3.9127907 C4.88276651,3.9127907 3.44025302,3.9127907 2.00581395,3.9127907 Z M0.744186047,8.37209302 L7.62790698,8.37209302 L7.62790698,15.255814 L2.05232558,15.255814 C1.32109023,15.255814 0.744186047,14.6821209 0.744186047,13.9534884 L0.744186047,8.37209302 Z M4.13953488,9.30232558 C3.95669581,9.3224186 3.80418047,9.49633488 3.80813953,9.68022326 L3.80813953,11.3546419 C3.23978977,11.3546419 2.66445209,11.3546419 2.09883721,11.3546419 C1.90398326,11.3637581 1.73505302,11.5493395 1.74418605,11.744186 C1.75332093,11.9390326 1.9388707,12.108 2.13372093,12.0988279 L3.80813953,12.0988279 L3.80813953,13.7732465 C3.8056093,13.9696744 3.98379349,14.1511628 4.18023256,14.1511628 C4.37667163,14.1511628 4.55485209,13.9696744 4.55232558,13.7732465 L4.55232558,12.0988279 L6.22674419,12.0988279 C6.42316651,12.1014326 6.60465116,11.9231814 6.60465116,11.7267349 C6.60465116,11.530307 6.42316651,11.3521302 6.22674419,11.3546419 L4.55232558,11.3546419 L4.55232558,9.68022326 C4.55688372,9.46915349 4.34939349,9.2792 4.13953488,9.30232558 L4.13953488,9.30232558 Z M9.72674419,10.6104558 C11.0995386,10.6104 12.4794009,10.6104558 13.8546512,10.6104558 C14.0510735,10.6078512 14.2315609,10.7861209 14.2315609,10.9825488 C14.2315609,11.1789953 14.0510735,11.3571721 13.8546512,11.3546419 L9.76162791,11.3546419 C9.56677767,11.3637581 9.38115163,11.1948465 9.3720186,11 C9.36288372,10.8051535 9.53189023,10.6195535 9.72674419,10.6104558 Z M9.72674419,12.0988279 C11.0995386,12.0987721 12.4794009,12.0988279 13.8546512,12.0988279 C14.0510735,12.0962233 14.2315609,12.274493 14.2315609,12.4709209 C14.2315609,12.6673674 14.0510735,12.8455442 13.8546512,12.843014 L9.76162791,12.843014 C9.56677767,12.8521302 9.38115163,12.6832186 9.3720186,12.4883721 C9.36288372,12.2935256 9.53189023,12.1079256 9.72674419,12.0988279 Z"/>
  </g>
</svg>
