<svg xmlns="http://www.w3.org/2000/svg" viewBox="0 0 16 16">
  <g>
    <path d="M3,12 C3.55228475,12 4,12.4477153 4,13 L4,15 C4,15.5522847 3.55228475,16 3,16 L1,16 C0.44771525,16 6.76353751e-17,15.5522847 0,15 L0,13 C-6.76353751e-17,12.4477153 0.44771525,12 1,12 L3,12 Z M7,1.5 C7.24545989,1.5 7.44960837,1.67687516 7.49194433,1.91012437 L7.5,2 L7.5,7.5 L11,7.5 C11.2761424,7.5 11.5,7.72385763 11.5,8 C11.5,8.24545989 11.3231248,8.44960837 11.0898756,8.49194433 L11,8.5 L7.5,8.5 L7.5,14 C7.5,14.2454599 7.32312484,14.4496084 7.08987563,14.4919443 L7,14.5 L5,14.5 C4.72385763,14.5 4.5,14.2761424 4.5,14 C4.5,13.7545401 4.67687516,13.5503916 4.91012437,13.5080557 L5,13.5 L6.5,13.5 L6.5,2.5 L5,2.5 C4.75454011,2.5 4.55039163,2.32312484 4.50805567,2.08987563 L4.5,2 C4.5,1.75454011 4.67687516,1.55039163 4.91012437,1.50805567 L5,1.5 L7,1.5 Z M15,6 C15.5522847,6 16,6.44771525 16,7 L16,9 C16,9.55228475 15.5522847,10 15,10 L13,10 C12.4477153,10 12,9.55228475 12,9 L12,7 C12,6.44771525 12.4477153,6 13,6 L15,6 Z M3,0 C3.55228475,-1.01453063e-16 4,0.44771525 4,1 L4,3 C4,3.55228475 3.55228475,4 3,4 L1,4 C0.44771525,4 6.76353751e-17,3.55228475 0,3 L0,1 C-6.76353751e-17,0.44771525 0.44771525,1.01453063e-16 1,0 L3,0 Z"/>
  </g>
</svg>
