<svg xmlns="http://www.w3.org/2000/svg" viewBox="0 0 16 16">
	<path d="M4,8.4004 L4,7.6004 C4,7.2694 4.269,7.0004 4.6,7.0004 L11.4,7.0004 C11.731,7.0004 12,7.2694 12,7.6004 L12,8.4004 C12,8.7324 11.731,9.0004 11.4,9.0004 L4.6,9.0004 C4.269,9.0004 4,8.7324 4,8.4004 M8,14.625 C4.347,14.625 1.375,11.653 1.375,8 C1.375,4.348 4.347,1.376 8,1.376 C11.653,1.376 14.625,4.348 14.625,8 C14.625,11.653 11.653,14.625 8,14.625 M8,0 C3.582,0 0,3.583 0,8 C0,12.419 3.582,16 8,16 C12.418,16 16,12.419 16,8 C16,3.583 12.418,0 8,0"/>
</svg>
