<svg xmlns="http://www.w3.org/2000/svg" viewBox="0 0 16 16">
	<path d="M7.657 0A.28.28 0 0 0 7.5.032a12.154 12.154 0 0 0-2.312 3.875h5.625A11.609 11.609 0 0 0 8.5.032 2.507 2.507 0 0 0 8 0h-.343zM6.75.094a7.812 7.812 0 0 0-5.719 3.813h3.625A11.75 11.75 0 0 1 6.75.094zm2.532 0a13.071 13.071 0 0 1 2.094 3.813h3.5A7.97 7.97 0 0 0 9.282.094zM.75 4.438A8.12 8.12 0 0 0 0 7.844v.187h4.063a11.557 11.557 0 0 1 .406-3.593zm4.25 0a10.706 10.706 0 0 0-.437 3.593h6.906A11.581 11.581 0 0 0 11 4.438zm6.532 0a11.557 11.557 0 0 1 .406 3.594H16v-.063a7.843 7.843 0 0 0-.844-3.531zM.032 8.562a8.304 8.304 0 0 0 1.187 3.594h3.688a12.656 12.656 0 0 1-.813-3.594zm4.562 0a12.754 12.754 0 0 0 .844 3.594h5.125a14.01 14.01 0 0 0 .875-3.594zm7.313 0a13.762 13.762 0 0 1-.782 3.594h3.688a7.877 7.877 0 0 0 1.156-3.594zM1.563 12.687a7.932 7.932 0 0 0 5.312 3.22 17.32 17.32 0 0 1-1.781-3.22H1.563zm4.094 0A19.967 19.967 0 0 0 7.563 16h.875a19.108 19.108 0 0 0 1.907-3.313H5.657zm5.25 0a15.674 15.674 0 0 1-1.782 3.22 7.999 7.999 0 0 0 5.344-3.22z"/>
</svg>
