<svg xmlns="http://www.w3.org/2000/svg" viewBox="0 0 16 16">
  <g>
    <path d="M3.18,7 L3.18,-3.90798505e-14 L2.05,-3.90798505e-14 C2.01,0.266666667 1.92666667,0.49 1.8,0.67 C1.67333333,0.85 1.51833333,0.995 1.335,1.105 C1.15166667,1.215 0.945,1.29166667 0.715,1.335 C0.485,1.37833333 0.246666667,1.39666667 -2.55351296e-15,1.39 L-2.55351296e-15,2.46 L1.76,2.46 L1.76,7 L3.18,7 Z M9.79733333,12 L9.79733333,10.8039216 L6.708,10.8039216 C6.86977778,10.5686275 7.05644444,10.3627451 7.268,10.1862745 C7.47955556,10.0098039 7.69733333,9.84477124 7.92133333,9.69117647 C8.14533333,9.5375817 8.36777778,9.38235294 8.58866667,9.2254902 C8.80955556,9.06862745 9.00711111,8.89379085 9.18133333,8.70098039 C9.35555556,8.50816993 9.49555556,8.2875817 9.60133333,8.03921569 C9.70711111,7.79084967 9.76,7.49346405 9.76,7.14705882 C9.76,6.81372549 9.69933333,6.5130719 9.578,6.24509804 C9.45666667,5.97712418 9.29333333,5.75163399 9.088,5.56862745 C8.88266667,5.38562092 8.64466667,5.24509804 8.374,5.14705882 C8.10333333,5.04901961 7.81866667,5 7.52,5 C7.128,5 6.78111111,5.07026144 6.47933333,5.21078431 C6.17755556,5.35130719 5.92711111,5.54738562 5.728,5.79901961 C5.52888889,6.05065359 5.37955556,6.34477124 5.28,6.68137255 C5.18044444,7.01797386 5.13688889,7.38235294 5.14933333,7.7745098 L6.41866667,7.7745098 C6.41866667,7.59150327 6.43577778,7.40686275 6.47,7.22058824 C6.50422222,7.03431373 6.56177778,6.86437908 6.64266667,6.71078431 C6.72355556,6.55718954 6.83088889,6.43300654 6.96466667,6.33823529 C7.09844444,6.24346405 7.26177778,6.19607843 7.45466667,6.19607843 C7.74088889,6.19607843 7.97577778,6.28921569 8.15933333,6.4754902 C8.34288889,6.66176471 8.43466667,6.92156863 8.43466667,7.25490196 C8.43466667,7.46405229 8.38955556,7.6503268 8.29933333,7.81372549 C8.20911111,7.97712418 8.09711111,8.12418301 7.96333333,8.25490196 C7.82955556,8.38562092 7.68177778,8.50490196 7.52,8.6127451 C7.35822222,8.72058824 7.20577778,8.82679739 7.06266667,8.93137255 C6.78266667,9.13398693 6.51666667,9.33333333 6.26466667,9.52941176 C6.01266667,9.7254902 5.79333333,9.93954248 5.60666667,10.1715686 C5.42,10.4035948 5.27222222,10.6666667 5.16333333,10.9607843 C5.05444444,11.254902 5,11.6013072 5,12 L9.79733333,12 Z M13.4073901,16 C13.7221405,16 14.0245478,15.9518569 14.314612,15.8555708 C14.6046761,15.7592847 14.8607966,15.6180651 15.0829734,15.431912 C15.3051502,15.2457588 15.4825831,15.0146722 15.615272,14.738652 C15.7479609,14.4626318 15.8143054,14.1480972 15.8143054,13.7950481 C15.8143054,13.4099037 15.7124743,13.0793214 15.5088123,12.8033012 C15.3051502,12.5272811 15.0243434,12.347547 14.6663919,12.264099 L14.6663919,12.2448418 C14.9687992,12.1549748 15.1956047,11.9848693 15.3468084,11.7345254 C15.498012,11.4841816 15.5736138,11.1953232 15.5736138,10.8679505 C15.5736138,10.566254 15.5088123,10.2998624 15.3792091,10.0687758 C15.249606,9.83768913 15.0814305,9.64190738 14.8746827,9.48143054 C14.6679348,9.32095369 14.4349577,9.20059606 14.1757515,9.12035763 C13.9165452,9.04011921 13.6573389,9 13.3981327,9 C13.0648675,9 12.7624602,9.0561669 12.4909108,9.16850069 C12.2193613,9.28083448 11.9863843,9.43970656 11.7919796,9.64511692 C11.5975749,9.85052728 11.4463712,10.0960569 11.3383686,10.3817056 C11.230366,10.6673544 11.1701931,10.9834938 11.15785,11.3301238 L12.4075945,11.3301238 C12.4014229,10.9834938 12.4831963,10.6962403 12.6529147,10.4683631 C12.8226331,10.240486 13.0741249,10.1265475 13.4073901,10.1265475 C13.6480816,10.1265475 13.861001,10.2035763 14.0461483,10.3576341 C14.2312957,10.5116919 14.3238693,10.7331499 14.3238693,11.0220083 C14.3238693,11.2145805 14.2791254,11.3686382 14.1896375,11.4841816 C14.1001497,11.5997249 13.9859755,11.6879872 13.847115,11.7489684 C13.7082545,11.8099496 13.5585937,11.8468592 13.3981327,11.8596974 C13.2376717,11.8725355 13.086468,11.8725355 12.9445217,11.8596974 L12.9445217,12.8225585 C13.1049827,12.8225585 13.2731582,12.8273728 13.4490482,12.8370014 C13.6249382,12.84663 13.7869421,12.8819349 13.9350599,12.9429161 C14.0831778,13.0038973 14.2050665,13.1017882 14.3007259,13.2365887 C14.3963854,13.3713893 14.4442151,13.567171 14.4442151,13.823934 C14.4442151,14.1513067 14.3423841,14.4096745 14.138722,14.5990371 C13.9350599,14.7883998 13.685111,14.8830812 13.3888753,14.8830812 C13.1975564,14.8830812 13.0324667,14.8477762 12.8936062,14.7771664 C12.7547457,14.7065566 12.6390286,14.6118753 12.546455,14.4931224 C12.4538813,14.3743696 12.3829081,14.2331499 12.3335355,14.0694635 C12.2841629,13.9057772 12.2563908,13.7340669 12.2502192,13.5543329 L11.0004747,13.5543329 C10.9943032,13.9458964 11.0483045,14.2925264 11.1624787,14.5942228 C11.2766528,14.8959193 11.4386568,15.1510775 11.6484904,15.3596974 C11.858324,15.5683173 12.1129016,15.7271894 12.4122231,15.8363136 C12.7115447,15.9454379 13.043267,16 13.4073901,16 Z"/>
  </g>
</svg>
