<svg xmlns="http://www.w3.org/2000/svg" viewBox="0 0 16 16">
	<path d="M3.508 7.998l5.23 5.151c.1.099.1.258 0 .356l-1.444 1.421a.258.258 0 0 1-.36 0L1.538 9.613c-.007-.006-.015-.003-.02-.009L.073 8.182a.25.25 0 0 1 0-.355l.001-.001c.002-.002.001-.006.004-.008l1.443-1.422c.003-.002.006-.001.008-.003l5.4-5.319a.258.258 0 0 1 .36 0l1.444 1.421a.25.25 0 0 1 0 .356L3.508 7.998zm12.417 5.151c.1.098.1.257 0 .355l-1.443 1.422a.258.258 0 0 1-.36 0L8.727 9.612c-.006-.005-.016-.003-.022-.008L7.263 8.182a.249.249 0 0 1 0-.356c.002-.002.002-.006.004-.009l1.443-1.42c.002-.003.006-.002.008-.005l5.4-5.319a.258.258 0 0 1 .36 0l1.443 1.422c.1.098.1.257 0 .355l-5.225 5.148 5.23 5.151z"/>
</svg>
