<svg xmlns="http://www.w3.org/2000/svg" viewBox="0 0 16 16">
	<path d="M13.62 13.107a112.69 112.69 0 0 1-2.32-1.85s-.564-.47-1.505.439l3.638 2.853s.626-1.035.187-1.442M7.192 3.825S7.13 1.41 7.13.752C7.13.094 5.876 0 5.876 0l.062 4.42c.69.282 1.254-.596 1.254-.596m.314 7.84L6.44 9.752s-.816-1.442-1.6-3.167c-.533-1.317.69-1.975.69-1.975S5.437 2.57 5.375 0c-2.51.439-2.98 1.505-3.105 1.818-.878 3.293.627 7.495 1.16 8.404 3.137 5.237 6.084 5.864 6.554 5.77 1.474-.031 3.01-1.066 3.01-1.066L9.45 12.072c-1.474.565-1.944-.407-1.944-.407"/>
</svg>
