<svg xmlns="http://www.w3.org/2000/svg" viewBox="0 0 16 16">
	<g>
		<path class="ti-slice-left" d="M5.29,3.9606 C5.8,3.6096 6.38,3.3596 7,3.2306 C7.01,3.2306 7.24,3.1896 7.5,3.1696 L7.5,-0.0004 C6.58,0.0506 5.7,0.2706 4.89,0.6096 C4.41,0.8106 3.95,1.0606 3.53,1.3506 C2.89,1.7796 2.32,2.3006 1.83,2.8906 C0.85,4.0796 0.21,5.5506 0.04,7.1596 C0.02,7.4306 0,7.7006 0,7.9806 C0,8.2606 0.02,8.5296 0.04,8.8006 C0.21,10.4096 0.85,11.8806 1.83,13.0696 C2.32,13.6596 2.89,14.1806 3.53,14.6096 C3.95,14.8996 4.41,15.1496 4.89,15.3506 C5.7,15.7006 6.58,15.9096 7.5,15.9606 L7.5,12.8106 C7.34,12.7906 7.18,12.7706 7.02,12.7396 C7.01,12.7396 7.01,12.7306 7,12.7306 C6.38,12.6006 5.8,12.3506 5.29,12.0106 C4,11.1306 3.15,9.6596 3.15,7.9806 C3.15,6.3106 4,4.8296 5.29,3.9606"/>
		<path class="ti-slice-bottom-right" d="M15.9602,7.1602 C15.7902,5.5502 15.1502,4.0792 14.1702,2.8902 C14.1102,2.8202 14.0502,2.7492 13.9902,2.6902 L11.7602,4.9302 C12.4402,5.7602 12.8502,6.8202 12.8502,7.9802 C12.8502,9.6602 12.0002,11.1302 10.7102,12.0102 C10.1992,12.3502 9.6202,12.6002 9.0002,12.7302 C8.9902,12.7302 8.7602,12.7702 8.5002,12.8102 L8.5002,15.9602 C9.4202,15.9102 10.3002,15.7002 11.1102,15.3502 C11.5902,15.1502 12.0502,14.9002 12.4702,14.6102 C13.1102,14.1802 13.6802,13.6602 14.1702,13.0702 C15.1502,11.8802 15.7902,10.4102 15.9602,8.8002 C15.9802,8.5302 16.0002,8.2602 16.0002,7.9802 C16.0002,7.7102 15.9802,7.4302 15.9602,7.1602"/>
		<path class="ti-slice-top-right" d="M12.4702,1.3502 C12.0502,1.0602 11.5902,0.8102 11.1102,0.6102 C10.3002,0.2702 9.4202,0.0502 8.5002,-0.0008 L8.5002,3.1502 C8.6602,3.1702 8.8202,3.1902 8.9802,3.2202 C8.9902,3.2302 8.9902,3.2302 9.0002,3.2302 C9.6202,3.3602 10.1992,3.6102 10.7102,3.9602 C10.8302,4.0392 10.9402,4.1202 11.0502,4.2202 L13.2902,1.9902 C13.0302,1.7492 12.7602,1.5392 12.4702,1.3502"/>
		<path class="ti-slice-right" fill="none" d="M15.96,7.1596 C15.79,5.5506 15.15,4.0796 14.17,2.8906 C13.68,2.3006 13.11,1.7796 12.47,1.3506 C12.05,1.0606 11.59,0.8106 11.11,0.6096 C10.3,0.2706 9.42,0.0506 8.5,-0.0004 L8.5,3.1496 C8.66,3.1696 8.82,3.1896 8.98,3.2206 C8.99,3.2306 8.99,3.2306 9,3.2306 C9.62,3.3596 10.2,3.6096 10.71,3.9606 C12,4.8296 12.85,6.3106 12.85,7.9806 C12.85,9.6596 12,11.1306 10.71,12.0106 C10.2,12.3506 9.62,12.6006 9,12.7306 C8.99,12.7306 8.76,12.7706 8.5,12.8106 L8.5,15.9606 C9.42,15.9096 10.3,15.7006 11.11,15.3506 C11.59,15.1496 12.05,14.8996 12.47,14.6096 C13.11,14.1806 13.68,13.6596 14.17,13.0696 C15.15,11.8806 15.79,10.4096 15.96,8.8006 C15.98,8.5296 16,8.2606 16,7.9806 C16,7.7106 15.98,7.4306 15.96,7.1596"/>
	</g>
</svg>
