<svg xmlns="http://www.w3.org/2000/svg" viewBox="0 0 50 50">
	<path d="M40 50h-7.34v-1.18H40zm-12.82 0h-7.31v-1.18h7.31zm-12.79 0H10a10 10 0 0 1-3.09-.49l.36-1.12a8.78 8.78 0 0 0 2.72.43h4.35zm31.1-1.67l-.65-1a9 9 0 0 0 3.79-5.51l1.15.25a10.16 10.16 0 0 1-4.29 6.26zM2.23 46.25A10 10 0 0 1 0 40v-.91h1.18V40a8.86 8.86 0 0 0 2 5.55zM50 36.5h-1.18v-7.3H50zM1.18 33.58H0v-7.31h1.18zM50 23.72h-1.18v-7.31H50zM1.18 20.79H0v-7.31h1.18zM50 10.93h-1.18V10a8.86 8.86 0 0 0-2-5.56l.91-.74A10 10 0 0 1 50 10zM1.38 8.14L.23 7.89a10.16 10.16 0 0 1 4.3-6.23l.65 1a9 9 0 0 0-3.8 5.48zm41.3-6.54A8.78 8.78 0 0 0 40 1.18h-4.4V0H40a10 10 0 0 1 3 .48zm-12.56-.42h-7.31V0h7.31zm-12.79 0H10V0h7.3zM8.42 22.94h1.35a3.08 3.08 0 0 1 .67.07 1.4 1.4 0 0 1 .51.22 1 1 0 0 1 .33.4 1.63 1.63 0 0 1 0 1.22 1.13 1.13 0 0 1-.33.42 1.47 1.47 0 0 1-.51.25 2.45 2.45 0 0 1-.66.08H9v1.75h-.58zm1.29 2.21a1.38 1.38 0 0 0 .86-.22.82.82 0 0 0 .28-.69.73.73 0 0 0-.28-.66 1.58 1.58 0 0 0-.85-.19H9v1.76zm2.53-2.59h.55v4.17a.29.29 0 0 0 0 .19.14.14 0 0 0 .21.08h.12l.07.42h-.32a.52.52 0 0 1-.45-.19.94.94 0 0 1-.13-.55zm1.56 3.95a.91.91 0 0 1 .48-.82 4 4 0 0 1 1.53-.4 1.51 1.51 0 0 0 0-.3.72.72 0 0 0-.11-.26.59.59 0 0 0-.21-.19.68.68 0 0 0-.33-.07 1.32 1.32 0 0 0-.54.11 2.65 2.65 0 0 0-.44.24l-.22-.38a3.58 3.58 0 0 1 .56-.29 1.87 1.87 0 0 1 .73-.14 1 1 0 0 1 .87.37 1.62 1.62 0 0 1 .27 1v2h-.46v-.39a2.71 2.71 0 0 1-.51.33 1.26 1.26 0 0 1-.58.14 1 1 0 0 1-.69-.24.87.87 0 0 1-.35-.71zm.55 0a.47.47 0 0 0 .16.4.67.67 0 0 0 .41.12 1 1 0 0 0 .45-.11 2.18 2.18 0 0 0 .45-.33v-.91a5.76 5.76 0 0 0-.69.13 1.82 1.82 0 0 0-.45.18.65.65 0 0 0-.25.23.57.57 0 0 0-.09.25zm2.81-.78a2 2 0 0 1 .13-.73 1.64 1.64 0 0 1 .34-.54 1.43 1.43 0 0 1 .5-.34 1.61 1.61 0 0 1 .6-.11 1.22 1.22 0 0 1 .56.12 1.77 1.77 0 0 1 .4.27l-.28.36a1.55 1.55 0 0 0-.31-.21.77.77 0 0 0-.35-.08.92.92 0 0 0-.73.35 1.28 1.28 0 0 0-.21.4 1.62 1.62 0 0 0-.08.51 1.65 1.65 0 0 0 .07.51 1.24 1.24 0 0 0 .21.39.91.91 0 0 0 .32.26 1 1 0 0 0 .84 0 1.54 1.54 0 0 0 .34-.23l.25.36a1.8 1.8 0 0 1-.49.31 1.46 1.46 0 0 1-.57.11 1.6 1.6 0 0 1-.61-.11 1.36 1.36 0 0 1-.49-.33 1.56 1.56 0 0 1-.32-.54 2.08 2.08 0 0 1-.12-.73zm2.93 0a2 2 0 0 1 .12-.72 1.69 1.69 0 0 1 .33-.54 1.43 1.43 0 0 1 .47-.34 1.32 1.32 0 0 1 .55-.12 1.37 1.37 0 0 1 .56.11 1.08 1.08 0 0 1 .41.31 1.42 1.42 0 0 1 .25.48 2.14 2.14 0 0 1 .09.63 1.89 1.89 0 0 1 0 .3h-2.23a1.3 1.3 0 0 0 .33.84 1 1 0 0 0 .76.31 1.29 1.29 0 0 0 .43-.07 1.92 1.92 0 0 0 .38-.19l.2.36a2.78 2.78 0 0 1-.48.24 1.66 1.66 0 0 1-.6.1 1.6 1.6 0 0 1-.62-.12 1.46 1.46 0 0 1-.5-.34 1.56 1.56 0 0 1-.33-.54 2 2 0 0 1-.12-.7zm2.29-.25a1.21 1.21 0 0 0-.21-.77.72.72 0 0 0-.6-.27.81.81 0 0 0-.33.07.92.92 0 0 0-.29.2 1.08 1.08 0 0 0-.21.32 1.49 1.49 0 0 0-.11.44zm1.29-2.92h.55v1.98a3.07 3.07 0 0 1 .49-.38 1.12 1.12 0 0 1 .6-.16.88.88 0 0 1 .76.32 1.6 1.6 0 0 1 .24 1v2.07h-.55v-2a1.17 1.17 0 0 0-.15-.67.54.54 0 0 0-.47-.21.8.8 0 0 0-.45.13 2.93 2.93 0 0 0-.44.38v2.37h-.55zm3.42 3.17a2 2 0 0 1 .12-.73 1.66 1.66 0 0 1 .33-.54 1.4 1.4 0 0 1 .48-.34 1.5 1.5 0 0 1 1.15 0 1.4 1.4 0 0 1 .48.34A1.66 1.66 0 0 1 30 25a2 2 0 0 1 .12.73 2 2 0 0 1-.12.72 1.62 1.62 0 0 1-.33.54 1.42 1.42 0 0 1-.48.33 1.5 1.5 0 0 1-1.15 0 1.42 1.42 0 0 1-.48-.33 1.62 1.62 0 0 1-.33-.54 2 2 0 0 1-.14-.72zm.57 0a1.81 1.81 0 0 0 .07.51 1.21 1.21 0 0 0 .19.39.88.88 0 0 0 .3.26.86.86 0 0 0 .77 0 .88.88 0 0 0 .3-.26 1.22 1.22 0 0 0 .19-.39 1.81 1.81 0 0 0 .07-.51 1.85 1.85 0 0 0-.07-.51 1.25 1.25 0 0 0-.19-.4.87.87 0 0 0-.3-.26.86.86 0 0 0-.77 0 .87.87 0 0 0-.3.26 1.25 1.25 0 0 0-.19.4 1.84 1.84 0 0 0-.06.51zM31 22.56h.55v4.17a.29.29 0 0 0 0 .19.14.14 0 0 0 .11.05h.12l.07.42h-.32a.52.52 0 0 1-.45-.19.94.94 0 0 1-.08-.5zm1.47 3.17a2.06 2.06 0 0 1 .12-.72 1.7 1.7 0 0 1 .31-.54 1.39 1.39 0 0 1 .45-.34 1.24 1.24 0 0 1 .54-.12 1.12 1.12 0 0 1 .49.1 2.2 2.2 0 0 1 .42.28v-1.83h.56v4.79h-.46v-.38a2.07 2.07 0 0 1-.45.33 1.11 1.11 0 0 1-.54.14 1.21 1.21 0 0 1-1-.44 1.94 1.94 0 0 1-.44-1.27zm.57 0a1.57 1.57 0 0 0 .24.92.77.77 0 0 0 .67.33.88.88 0 0 0 .43-.11 1.55 1.55 0 0 0 .4-.34v-1.72a1.39 1.39 0 0 0-.4-.27 1 1 0 0 0-.39-.08.77.77 0 0 0-.37.09.93.93 0 0 0-.3.26 1.28 1.28 0 0 0-.2.39 1.65 1.65 0 0 0-.12.52zm3.15 0a2 2 0 0 1 .12-.72 1.69 1.69 0 0 1 .33-.54 1.43 1.43 0 0 1 .47-.34 1.32 1.32 0 0 1 .55-.12 1.37 1.37 0 0 1 .56.11 1.08 1.08 0 0 1 .41.31 1.42 1.42 0 0 1 .25.48 2.14 2.14 0 0 1 .09.63 1.89 1.89 0 0 1 0 .3h-2.23a1.3 1.3 0 0 0 .33.84 1 1 0 0 0 .76.31 1.29 1.29 0 0 0 .43-.07 1.92 1.92 0 0 0 .38-.19l.2.36a2.78 2.78 0 0 1-.48.24 1.66 1.66 0 0 1-.6.1 1.6 1.6 0 0 1-.62-.12 1.46 1.46 0 0 1-.5-.34 1.56 1.56 0 0 1-.33-.54 2 2 0 0 1-.12-.7zm2.29-.25a1.21 1.21 0 0 0-.21-.77.72.72 0 0 0-.6-.27.81.81 0 0 0-.33.07.92.92 0 0 0-.29.2 1.08 1.08 0 0 0-.21.32 1.49 1.49 0 0 0-.11.44zm1.3-1.4h.46v.59a1.51 1.51 0 0 1 .41-.49.84.84 0 0 1 .52-.18.87.87 0 0 1 .35.07l-.11.48h-.32a.73.73 0 0 0-.43.17 1.34 1.34 0 0 0-.39.59v2.1h-.55z"/>
</svg>
