<svg xmlns="http://www.w3.org/2000/svg" viewBox="0 0 16 16">
	<path d="M6.9999,6.9998 L6.9999,4.5999 C6.9999,4.2689 7.2689,3.9999 7.5999,3.9999 L8.3999,3.9999 C8.7319,3.9999 8.9999,4.2689 8.9999,4.5999 L8.9999,6.9998 L11.4,6.9998 C11.731,6.9998 12,7.2688 12,7.5998 L12,8.3998 C12,8.7318 11.731,8.9998 11.4,8.9998 L8.9999,8.9998 L8.9999,11.3999 C8.9999,11.7309 8.7319,11.9999 8.3999,11.9999 L7.5999,11.9999 C7.2689,11.9999 6.9999,11.7309 6.9999,11.3999 L6.9999,8.9998 L4.6,8.9998 C4.269,8.9998 4,8.7318 4,8.3998 L4,7.5998 C4,7.2688 4.269,6.9998 4.6,6.9998 L6.9999,6.9998 Z M8,14.6244 C4.347,14.6244 1.375,11.6524 1.375,7.9994 C1.375,4.3474 4.347,1.3754 8,1.3754 C11.653,1.3754 14.625,4.3474 14.625,7.9994 C14.625,11.6524 11.653,14.6244 8,14.6244 M8,-0.0006 C3.582,-0.0006 0,3.5824 0,7.9994 C0,12.4184 3.582,15.9994 8,15.9994 C12.418,15.9994 16,12.4184 16,7.9994 C16,3.5824 12.418,-0.0006 8,-0.0006"/>
</svg>
