<svg xmlns="http://www.w3.org/2000/svg" viewBox="0 0 16 16">
  <g fill="none">
    <circle class="ti-background" stroke="currentColor"  cx="8" cy="8" r="7"/>
    <path class="ti-foreground" fill="currentColor" d="M8.3999,3.9999 C8.7319,3.9999 8.9999,4.2689 8.9999,4.5999 L8.999,6.9989 L11.4,6.9998 C11.731,6.9998 12,7.2688 12,7.5998 L12,8.3998 C12,8.7318 11.731,8.9998 11.4,8.9998 L8.999,8.9989 L8.9999,11.3999 C8.9999,11.7309 8.7319,11.9999 8.3999,11.9999 L7.5999,11.9999 C7.2689,11.9999 6.9999,11.7309 6.9999,11.3999 L6.999,8.9989 L4.6,8.9998 C4.269,8.9998 4,8.7318 4,8.3998 L4,7.5998 C4,7.2688 4.269,6.9998 4.6,6.9998 L6.999,6.9989 L6.9999,4.5999 C6.9999,4.2689 7.2689,3.9999 7.5999,3.9999 L8.3999,3.9999 Z"/>
  </g>
</svg>
