<svg xmlns="http://www.w3.org/2000/svg" viewBox="0 0 16 16">
	<path fill-rule="evenodd" d="M6.289,6.4709 L8.458,6.4709 L8.458,0.9999 L6.289,0.9999 L6.289,6.4709 Z M6.289,15.0459 L8.458,15.0459 L8.458,9.5749 L6.289,9.5749 L6.289,15.0459 Z M5.289,16.0459 L9.458,16.0459 L9.458,9.5749 L12.19,9.5749 L12.19,10.4449 C12.19,10.8629 12.695,11.0719 12.991,10.7769 L15.863,8.3549 C16.046,8.1719 16.046,7.8749 15.863,7.6909 L12.991,5.2699 C12.695,4.9739 12.19,5.1829 12.19,5.6019 L12.19,6.4709 L9.458,6.4709 L9.458,-0.0001 L5.289,-0.0001 L5.289,6.4709 L3.123,6.4709 L3.123,0.0229 L0,0.0229 L0,16.0229 L3.123,16.0229 L3.123,9.5749 L5.289,9.5749 L5.289,16.0459 Z"/>
</svg>
