<svg xmlns="http://www.w3.org/2000/svg" fill="none" viewBox="0 0 16 16">
  <circle class="ti-background" cx="8" cy="8" r="7.5" stroke="#202020"/>
  <path class="ti-foreground" fill="#000" d="M7.985 13a.758.758 0 00.746-.77.758.758 0 00-.746-.769.758.758 0 00-.746.77c0 .425.334.769.746.769zm.746-3.23c0-.4.24-.739.627-.954 1.194-.646 1.821-1.97 1.582-3.354-.268-1.2-1.194-2.154-2.358-2.4a2.891 2.891 0 00-2.478.646A3.023 3.023 0 005 6.078c0 .43.328.769.746.769a.75.75 0 00.747-.77c0-.461.208-.892.537-1.2.358-.307.806-.4 1.254-.307.567.123 1.044.615 1.164 1.2.149.8-.299 1.415-.776 1.692-.866.462-1.433 1.354-1.433 2.308v.154c0 .43.328.769.746.769a.75.75 0 00.746-.77V9.77z"/>
</svg>
