<svg xmlns="http://www.w3.org/2000/svg" viewBox="0 0 16 16">
	<g>
		<path d="M8,14.6897 C8.566,14.4417 8.991,14.1387 9.274,13.7777 C9.557,13.4187 9.699,12.9727 9.699,12.4417 C9.664,12.4537 9.604,12.4597 9.522,12.4597 C9.097,12.4597 8.737,12.3297 8.442,12.0707 C8.147,11.8107 8,11.4567 8,11.0077 C8,10.5127 8.141,10.1177 8.424,9.8227 C8.708,9.5277 9.074,9.3797 9.522,9.3797 C10.147,9.3797 10.617,9.6067 10.929,10.0617 C11.242,10.5157 11.398,11.1497 11.398,11.9637 C11.398,12.8487 11.174,13.6307 10.725,14.3097 C10.277,14.9877 9.581,15.5507 8.637,15.9997 L8,14.6897 Z M12.602,14.6897 C13.168,14.4417 13.593,14.1387 13.876,13.7777 C14.159,13.4187 14.301,12.9727 14.301,12.4417 C14.265,12.4537 14.207,12.4597 14.124,12.4597 C13.699,12.4597 13.339,12.3297 13.044,12.0707 C12.749,11.8107 12.602,11.4567 12.602,11.0077 C12.602,10.5127 12.743,10.1177 13.026,9.8227 C13.31,9.5277 13.675,9.3797 14.124,9.3797 C14.749,9.3797 15.219,9.6067 15.531,10.0617 C15.844,10.5157 16,11.1497 16,11.9637 C16,12.8487 15.776,13.6307 15.327,14.3097 C14.879,14.9877 14.183,15.5507 13.239,15.9997 L12.602,14.6897 Z M8,1.3099 C7.434,1.5579 7.009,1.8619 6.726,2.2219 C6.443,2.5819 6.301,3.0269 6.301,3.5579 C6.336,3.5459 6.396,3.5399 6.478,3.5399 C6.903,3.5399 7.263,3.6699 7.558,3.9299 C7.853,4.1889 8,4.5429 8,4.9919 C8,5.4869 7.859,5.8829 7.576,6.1769 C7.292,6.4729 6.926,6.6199 6.478,6.6199 C5.853,6.6199 5.384,6.3929 5.071,5.9389 C4.758,5.4839 4.602,4.8499 4.602,4.0359 C4.602,3.1509 4.826,2.3699 5.275,1.6899 C5.723,1.0129 6.419,0.4489 7.363,-0.0001 L8,1.3099 Z M3.398,1.3099 C2.832,1.5579 2.407,1.8619 2.124,2.2219 C1.841,2.5819 1.699,3.0269 1.699,3.5579 C1.735,3.5459 1.793,3.5399 1.876,3.5399 C2.301,3.5399 2.661,3.6699 2.956,3.9299 C3.251,4.1889 3.398,4.5429 3.398,4.9919 C3.398,5.4869 3.257,5.8829 2.974,6.1769 C2.691,6.4729 2.325,6.6199 1.876,6.6199 C1.251,6.6199 0.781,6.3929 0.469,5.9389 C0.156,5.4839 0,4.8499 0,4.0359 C0,3.1509 0.224,2.3699 0.673,1.6899 C1.121,1.0129 1.817,0.4489 2.761,-0.0001 L3.398,1.3099 Z"/>
	</g>
</svg>
