<svg xmlns="http://www.w3.org/2000/svg" viewBox="0 0 16 16">
	<g>
		<path d="M2,8 L2,7.2 L1.6,7.2 C1.1645,7.1855 0.8145,6.8355 0.8,6.4 L0,6.4 L0,5.6 L0.8,5.6 L0.8,4.4 L0.8,3.6 L0.8,2.4 L0,2.4 L0,1.6 L0.8,1.6 C0.8145,1.1645 1.1645,0.815 1.6,0.8 L2,0.8 L2,0 L2.8,0 L2.8,0.8 L3.6,0.8 L4.4,0.8 L5.2,0.8 L5.2,0 L6,0 L6,0.8 L6.4,0.8 C6.8355,0.815 7.1855,1.1645 7.2,1.6 L8,1.6 L8.8,1.6 C8.8145,1.1645 9.1645,0.815 9.6,0.8 L10,0.8 L10,0 L10.8,0 L10.8,0.8 L11.6,0.8 L12.4,0.8 L13.2,0.8 L13.2,0 L14,0 L14,0.8 L14.4,0.8 C14.8355,0.815 15.1855,1.1645 15.2,1.6 L16,1.6 L16,2.4 L15.2,2.4 L15.2,3.6 L15.2,4.4 L15.2,5.6 L16,5.6 L16,6.4 L15.2,6.4 C15.1855,6.8355 14.8355,7.1855 14.4,7.2 L14,7.2 L14,8 L14,8.8 L14.4,8.8 C14.8355,8.815 15.1855,9.1645 15.2,9.6 L16,9.6 L16,10.4 L15.2,10.4 L15.2,11.6 L15.2,12.4 L15.2,13.6 L16,13.6 L16,14.4 L15.2,14.4 C15.1855,14.8355 14.8355,15.1855 14.4,15.2 L14,15.2 L14,16 L13.2,16 L13.2,15.2 L12.4,15.2 L11.6,15.2 L10.8,15.2 L10.8,16 L10,16 L10,15.2 L9.6,15.2 C9.1645,15.1855 8.8145,14.8355 8.8,14.4 L8,14.4 L7.2,14.4 C7.1855,14.8355 6.8355,15.1855 6.4,15.2 L6,15.2 L6,16 L5.2,16 L5.2,15.2 L4.4,15.2 L3.6,15.2 L2.8,15.2 L2.8,16 L2,16 L2,15.2 L1.6,15.2 C1.1645,15.1855 0.8145,14.8355 0.8,14.4 L0,14.4 L0,13.6 L0.8,13.6 L0.8,12.4 L0.8,11.6 L0.8,10.4 L0,10.4 L0,9.6 L0.8,9.6 C0.8145,9.1645 1.1645,8.815 1.6,8.8 L2,8.8 L2,8 Z M2.8,8 L2.8,8.8 L3.6,8.8 L4.4,8.8 L5.2,8.8 L5.2,8 L5.2,7.2 L4.4,7.2 L3.6,7.2 L2.8,7.2 L2.8,8 Z M6,8 L6,8.8 L6.4,8.8 C6.8355,8.815 7.1855,9.1645 7.2,9.6 L8,9.6 L8.8,9.6 C8.8145,9.1645 9.1645,8.815 9.6,8.8 L10,8.8 L10,8 L10,7.2 L9.6,7.2 C9.1645,7.1855 8.8145,6.8355 8.8,6.4 L8,6.4 L7.2,6.4 C7.1855,6.8355 6.8355,7.1855 6.4,7.2 L6,7.2 L6,8 Z M8,5.6 L8.8,5.6 L8.8,4.4 L8.8,3.6 L8.8,2.4 L8,2.4 L7.2,2.4 L7.2,3.6 L7.2,4.4 L7.2,5.6 L8,5.6 Z M8,13.6 L8.8,13.6 L8.8,12.4 L8.8,11.6 L8.8,10.4 L8,10.4 L7.2,10.4 L7.2,11.6 L7.2,12.4 L7.2,13.6 L8,13.6 Z M13.2,8 L13.2,7.2 L12.4,7.2 L11.6,7.2 L10.8,7.2 L10.8,8 L10.8,8.8 L11.6,8.8 L12.4,8.8 L13.2,8.8 L13.2,8 Z M5.5,11.6 L4,11.6 L5.8,9.6 L3.7,9.6 L2.2,12 L3.7,12 L2.5,14.5 L5.5,11.6 Z M13.5,3.6 L12,3.6 L13.8,1.6 L11.7,1.6 L10.2,4 L11.7,4 L10.5,6.5 L13.5,3.6 Z"/>
	</g>
</svg>
