<svg xmlns="http://www.w3.org/2000/svg"  viewBox="0 0 16 16">
  <g>
    <path class="ti-foreground" d="M13.64,2.3438 C12.115,0.8328 10.087,-0.0002 7.931,-0.0002 C6.127,-0.0002 4.419,0.5898 3.015,1.6648 L2.006,0.6648 C1.875,0.5338 1.681,0.4818 1.503,0.5308 C1.324,0.5778 1.183,0.7178 1.134,0.8958 L0.018,5.0258 C-0.03,5.2038 0.022,5.3938 0.153,5.5248 C0.251,5.6228 0.385,5.6758 0.521,5.6758 C0.566,5.6758 0.612,5.6708 0.656,5.6578 L4.823,4.5518 C5.001,4.5038 5.142,4.3648 5.191,4.1868 C5.239,4.0088 5.187,3.8188 5.056,3.6878 L4.13,2.7708 C5.231,1.9808 6.546,1.5488 7.931,1.5488 C9.67,1.5488 11.305,2.2198 12.535,3.4388 C15.073,5.9548 15.073,10.0488 12.535,12.5648 C9.996,15.0808 5.866,15.0798 3.328,12.5648 C3.023,12.2628 2.529,12.2628 2.224,12.5648 C1.918,12.8678 1.918,13.3578 2.224,13.6598 C3.797,15.2198 5.865,15.9998 7.931,15.9998 C9.998,15.9998 12.066,15.2198 13.64,13.6598 C16.786,10.5398 16.786,5.4638 13.64,2.3438"/>
  </g>
</svg>
