<svg xmlns="http://www.w3.org/2000/svg" viewBox="0 0 16 16">
<g>
  <path d="M9,14 L9,16 L0,16 L0,14 L9,14 Z M9.31528064,6.93964158 L15.2724168,10.307047 C15.6153741,10.4988452 15.8558172,10.8184763 15.9543618,11.2020483 C16.0529064,11.5815958 15.9898243,11.9891395 15.784868,12.324768 C15.5246967,12.7482847 15.0792733,13 14.5826047,13 C14.3713305,13 14.1625814,12.9514147 13.9724943,12.8603746 L13.8336802,12.7842301 L13.7942479,12.756259 L8.15971535,8.82297047 L9.31528064,6.93964158 Z M4.97906889,0.0242694831 L5.04742879,0.0587322591 L11.3030618,4.00223928 C11.4651575,4.10361613 11.5306958,4.30594579 11.4653141,4.48075472 L11.4291777,4.55361333 L10.6053583,5.89607904 C10.5501676,5.9879666 10.4634599,6.05190742 10.3609697,6.07587916 C10.3333743,6.07987849 10.3018333,6.08387786 10.2702923,6.08387786 C10.2229928,6.08387786 10.1739397,6.07499041 10.1278093,6.05722997 L10.0613903,6.02393636 L9.25895913,5.51860363 L6.87952581,9.39660921 L7.6844831,9.90352705 C7.84659989,10.0049039 7.90911992,10.2072336 7.8456266,10.3820425 L7.81062306,10.4549011 L6.98680374,11.7973656 C6.93161301,11.8892532 6.84095967,11.953194 6.74241508,11.9771658 C6.71087407,11.9851401 6.6832787,11.9891395 6.65173769,11.9891395 C6.60180777,11.9891395 6.55363148,11.9802628 6.50837788,11.9625024 L6.44283565,11.929198 L0.187226763,7.98569157 C0.100494986,7.92977381 0.0334913628,7.84186129 0.00984164571,7.73797568 C-0.0078956421,7.66006146 -0.00124640229,7.57991134 0.0264703863,7.50593057 L0.061086766,7.43431756 L0.88490609,6.09185221 C0.984942338,5.92754958 1.18455694,5.86111904 1.35700208,5.92737455 L1.42887418,5.9639949 L2.23130531,6.46932762 L4.61073863,2.59134606 L3.80578133,2.08442822 C3.64711698,1.98303001 3.58202606,1.78069772 3.64480658,1.60590478 L3.67964137,1.53305417 L4.50348478,0.186589494 C4.56259707,0.0986769298 4.64932885,0.0347605583 4.75179501,0.0107888175 C4.82866269,-0.00718998809 4.90774977,-0.002699849 4.97906889,0.0242694831 Z"/>
</g>
</svg>
