<svg xmlns="http://www.w3.org/2000/svg" viewBox="0 0 16 16">
	<path d="M5.627 8.312s-2.401 2.51-2.924 3.053c-.523.541-1.733 1.702-.67 2.766.952.952 2.119-.236 2.772-.912.654-.677 4.713-4.899 4.713-4.899l-3.891-.008z"/>
	<path d="M5.67 13.363l-.175.183c-.667.7-1.583 1.656-2.562 1.656-.459 0-.91-.2-1.382-.616-.463-.408-.699-.832-.717-1.295-.039-.99.935-1.987 1.518-2.584l.14-.144 7.813-8.1 3.178 2.798-7.813 8.102zM16 5.207L10.087 0 8.901 1.227l.791.696C8.25 3.418 2.614 9.261 1.88 10.025l-.136.14c-.67.686-1.795 1.833-1.74 3.157.025.675.356 1.3.983 1.852.623.547 1.278.826 1.947.826 1.347 0 2.405-1.109 3.178-1.918l7.984-8.28.72.634L16 5.207z"/>
</svg>
