<svg xmlns="http://www.w3.org/2000/svg" viewBox="0 0 16 16">
	<path d="M13.827 13.486l-.345.345a.365.365 0 0 1-.517 0l-2.4-2.398a.37.37 0 0 1-.107-.26V7.78c0-.202.164-.366.366-.366h.488c.202 0 .366.164.366.366v2.887c0 .097.038.19.107.258l2.042 2.044a.365.365 0 0 1 0 .517m-2.759-7.291a4.877 4.877 0 1 0 0 9.754 4.877 4.877 0 0 0 0-9.754"/>
	<path d="M5.455 12.813c.116.374.269.732.453 1.07H.561A.56.56 0 0 1 0 13.322V3.94h12.761v1.506a5.863 5.863 0 0 0-1.105-.221v-.18H9.423v.388a5.98 5.98 0 0 0-.569.198v-.585H6.622V7.24a5.87 5.87 0 0 0-.569.784v-.182H3.821v2.214h1.464a6.056 6.056 0 0 0-.07.543H3.821v2.214h1.634zM1.02 7.26h2.232V5.047H1.02V7.26zm0 2.795h2.232V7.842H1.02v2.214zm0 2.757h2.232v-2.214H1.02v2.214zM3.821 7.26h2.232V5.046H3.821V7.26zm8.94-5.003a.56.56 0 0 0-.561-.56H9.992V0H8.904v1.696H3.858V0H2.77v1.696H.56a.56.56 0 0 0-.56.561v.913h12.76v-.913z"/>
</svg>
