<svg xmlns="http://www.w3.org/2000/svg" viewBox="0 0 16 16">
  <g>
    <path d="M14,0 L14,0.733333333 L13.4404145,0.733333333 L13.4404145,2.1 L14,2.1 L14,16 L3.77202073,16 C2.77720207,16 2,15.1666667 2,14.1 L2,14.1 L2,1.26666667 C2,0.566666667 2.55958549,0 3.18134715,0 L3.18134715,0 L14,0 Z M6.52088928,6.00073242 L6.3497467,6.00073242 C6.29798889,6.00170898 6.25306702,6.00366211 6.21498108,6.0065918 C6.15785217,6.01098633 6.11097717,6.01904297 6.07435608,6.03076172 C6.03773499,6.04248047 6.00990295,6.05859375 5.99085999,6.07910156 L5.96504211,6.11425781 L5.96504211,6.11425781 L5.94471741,6.15820312 L4.03749084,11.4404297 C4.01405334,11.5048828 4.00160217,11.5568848 4.00013733,11.5964355 C3.99867249,11.6359863 4.00892639,11.6660156 4.03089905,11.6865234 C4.0528717,11.7070312 4.09095764,11.7209473 4.14515686,11.7282715 C4.19935608,11.7355957 4.26893616,11.7392578 4.35389709,11.7392578 C4.43592834,11.7392578 4.50257874,11.7363281 4.55384827,11.7304688 C4.6051178,11.7246094 4.64466858,11.7150879 4.67250061,11.7019043 C4.70033264,11.6887207 4.72157288,11.6726074 4.73622131,11.6535645 L4.7559967,11.6222534 L4.7559967,11.6222534 L4.77137756,11.5854492 L5.23719788,10.21875 L7.60145569,10.21875 L8.08924866,11.6030273 C8.10096741,11.6293945 8.11341858,11.6513672 8.12660217,11.6689453 C8.13978577,11.6865234 8.16029358,11.7004395 8.18812561,11.7106934 C8.21595764,11.7209473 8.25697327,11.7282715 8.31117249,11.732666 C8.3653717,11.7370605 8.43788147,11.7392578 8.52870178,11.7392578 C8.61952209,11.7392578 8.69203186,11.7363281 8.74623108,11.7304688 C8.8004303,11.7246094 8.83924866,11.7114258 8.86268616,11.690918 C8.88612366,11.6704102 8.89710999,11.6403809 8.89564514,11.6008301 C8.89466858,11.5744629 8.8888092,11.5425618 8.87806702,11.505127 L8.85829163,11.4448242 L6.95106506,6.16259766 C6.93934631,6.13037109 6.92323303,6.10327148 6.90272522,6.08129883 C6.88221741,6.05932617 6.85292053,6.04248047 6.81483459,6.03076172 C6.77674866,6.01904297 6.72694397,6.01098633 6.66542053,6.0065918 C6.62440491,6.00366211 6.57622782,6.00170898 6.52088928,6.00073242 Z M11.9212799,7.53369141 L9.65370178,7.53369141 C9.62733459,7.53369141 9.60462952,7.53881836 9.58558655,7.54907227 C9.56654358,7.55932617 9.5504303,7.5769043 9.5372467,7.60180664 C9.52406311,7.62670898 9.51454163,7.65893555 9.50868225,7.69848633 C9.50282288,7.73803711 9.49989319,7.78417969 9.49989319,7.83691406 C9.49989319,7.9453125 9.5138092,8.02368164 9.54164124,8.07202148 C9.56019592,8.10424805 9.58298238,8.12573242 9.61000061,8.13647461 L9.65370178,8.14453125 L11.3455963,8.14453125 L9.60096741,10.8603516 C9.57167053,10.9072266 9.54676819,10.9489746 9.52626038,10.9855957 C9.50575256,11.0222168 9.48963928,11.0566406 9.47792053,11.0888672 C9.46620178,11.1210938 9.45741272,11.1533203 9.45155334,11.1855469 L9.44496155,11.2371826 L9.44496155,11.2371826 L9.44276428,11.2954102 L9.44276428,11.4448242 C9.44276428,11.5415039 9.46253967,11.6103516 9.50209045,11.6513672 C9.52845764,11.6787109 9.55970764,11.6969401 9.59584045,11.7060547 L9.65370178,11.7128906 L12.0882721,11.7128906 C12.1117096,11.7128906 12.1336823,11.7077637 12.1541901,11.6975098 C12.1746979,11.6872559 12.1908112,11.6696777 12.2025299,11.6447754 C12.2142487,11.619873 12.2245026,11.5876465 12.2332916,11.5480957 C12.2420807,11.5085449 12.2464752,11.4609375 12.2464752,11.4052734 C12.2464752,11.3496094 12.2420807,11.302002 12.2332916,11.2624512 C12.2245026,11.2229004 12.2135162,11.1914062 12.2003326,11.1679688 C12.187149,11.1445312 12.1710358,11.1276855 12.1519928,11.1174316 L12.1217804,11.105896 L12.1217804,11.105896 L12.0882721,11.1020508 L10.2337799,11.1020508 L11.9696198,8.38623047 C11.9989166,8.33935547 12.023819,8.296875 12.0443268,8.25878906 C12.0648346,8.22070312 12.0809479,8.18481445 12.0926666,8.15112305 C12.1043854,8.11743164 12.1131744,8.08300781 12.1190338,8.04785156 L12.1256256,7.99291992 L12.1256256,7.99291992 L12.1278229,7.93359375 L12.1278229,7.79296875 C12.1278229,7.74316406 12.1226959,7.70214844 12.112442,7.66992188 C12.1021881,7.63769531 12.0882721,7.61132812 12.070694,7.59082031 C12.0531158,7.5703125 12.0318756,7.55566406 12.0069733,7.546875 L11.9668732,7.5369873 L11.9668732,7.5369873 L11.9212799,7.53369141 Z M6.41053772,6.78222656 L7.40370178,9.61669922 L5.42616272,9.61669922 L6.40614319,6.78222656 L6.41053772,6.78222656 Z M12.6632124,0.766666667 L3.24352332,0.766666667 C2.96373057,0.766666667 2.68393782,1.03333333 2.68393782,1.43333333 C2.68393782,1.8 2.93264249,2.1 3.24352332,2.1 L3.24352332,2.1 L12.6632124,2.1 L12.6632124,0.766666667 Z"/>
  </g>
</svg>
