<svg xmlns="http://www.w3.org/2000/svg" viewBox="0 0 16 16">
	<path d="M8.2837,8.5297 L1.7597,9.1797 L0.0367,14.8637 C-0.1003,15.3287 0.1547,15.8207 0.6057,15.9617 C0.8107,16.0267 1.0317,16.0087 1.2237,15.9127 L15.5417,8.7567 C15.9467,8.5527 16.1147,8.0497 15.9177,7.6327 C15.8377,7.4637 15.7057,7.3267 15.5417,7.2447 L1.2237,0.0877 C0.7997,-0.1233 0.2887,0.0607 0.0847,0.4987 C-0.0083,0.6977 -0.0253,0.9257 0.0367,1.1367 L1.7577,6.8137 L8.2827,7.4657 C8.5657,7.4937 8.7717,7.7547 8.7437,8.0467 C8.7197,8.2987 8.5267,8.4977 8.2827,8.5227 L8.2837,8.5297 Z"/>
</svg>
