<svg xmlns="http://www.w3.org/2000/svg" viewBox="0 0 16 16">
	<g>
		<path d="M12.14486,0.974993515 C13.6271542,0.974993515 14.8363941,2.18423347 14.8363941,3.67627955 C14.8363941,5.15857369 13.6271542,6.36781365 12.14486,6.36781365 C11.4134649,6.36781365 10.7503333,6.08500753 10.2724885,5.61691465 C9.84340334,5.20733337 9.55084529,4.65147307 9.4728298,4.03710115 C9.45332593,3.92007793 9.443574,3.80305471 9.443574,3.67627955 C9.443574,2.18423347 10.652814,0.974993515 12.14486,0.974993515 M12.1429096,9.63568712 C11.308144,9.63568712 10.5543194,9.96432734 9.98675679,10.4899566 L6.34050823,8.52299132 C6.3463594,8.44302545 6.36391288,8.36793555 6.36391288,8.28699449 C6.36391288,8.1046333 6.34050823,7.92812328 6.31125243,7.75453883 L6.31320282,7.75258844 L9.38506239,6.09475947 C10.0579459,6.85541041 11.0428914,7.34300717 12.14486,7.34300717 C14.1635106,7.34300717 15.8115877,5.69493013 15.8115877,3.67627955 C15.8115877,1.64787704 14.1635106,-0.0002 12.14486,-0.0002 C10.1164575,-0.0002 8.46838048,1.64787704 8.46838048,3.67627955 C8.46838048,3.90057406 8.48788435,4.12486857 8.53664403,4.33941114 L5.41895036,6.02552073 C4.84358619,5.45698291 4.05465464,5.10396286 3.18283163,5.10396286 C1.42455773,5.10396286 -0.0002,6.52872058 -0.0002,8.28699449 C-0.0002,10.0442932 1.42455773,11.4690509 3.18283163,11.4690509 C4.15412437,11.4690509 5.01326986,11.0243627 5.59643558,10.3378265 L9.02424079,12.1867934 C8.98328266,12.3906088 8.95987802,12.6012506 8.95987802,12.8177436 C8.95987802,14.5750423 10.3846357,15.9998 12.1429096,15.9998 C13.9002084,15.9998 15.3249661,14.5750423 15.3249661,12.8177436 C15.3249661,11.0604448 13.9002084,9.63568712 12.1429096,9.63568712"/>
	</g>
</svg>
