<svg xmlns="http://www.w3.org/2000/svg" viewBox="0 0 16 16">
<g>
  <path class="ti-foreground" d="M12.4545,6.2798 L7.2785,11.4128 C7.1485,11.5428 6.9425,11.5428 6.8125,11.4128 L6.7045,11.3038 L6.5965,11.1958 L6.0985,10.7088 L3.8565,8.4678 C3.7265,8.3378 3.7265,8.1318 3.8565,8.0018 L4.5605,7.2988 C4.6905,7.1678 4.9075,7.1678 5.0375,7.2988 L7.0515,9.3118 L11.2855,5.1108 C11.4145,4.9798 11.6205,4.9798 11.7505,5.1108 L12.4545,5.8138 C12.5845,5.9328 12.5845,6.1498 12.4545,6.2798 M14.4505,2.9718 C13.3505,2.7928 12.3095,2.4528 11.3505,2.0028 C10.2805,1.5028 9.2995,0.8728 8.4195,0.1518 C8.1805,-0.0472 7.8205,-0.0472 7.5795,0.1518 C6.7095,0.8728 5.7205,1.5028 4.6605,2.0028 C3.6895,2.4528 2.6495,2.7928 1.5595,2.9718 C1.2495,3.0028 0.9995,3.2528 0.9995,3.5618 C0.9995,6.6228 1.4305,8.9718 2.4905,10.9428 C3.5395,12.9228 5.2005,14.4718 7.6495,15.9018 C7.8605,16.0328 8.1495,16.0328 8.3605,15.9018 C10.7995,14.4718 12.4705,12.9228 13.5195,10.9428 C14.5705,8.9718 14.9995,6.6228 14.9995,3.5618 C14.9995,3.2528 14.7605,3.0028 14.4505,2.9718Z"/>
</g>
</svg>
