<svg xmlns="http://www.w3.org/2000/svg" viewBox="0 0 16 16">
  <g>
    <path class="ti-foreground" d="M1.554,2.973 C2.651,2.787 3.692,2.447 4.656,2.003 C5.719,1.497 6.704,0.869 7.579,0.147 C7.823,-0.049 8.178,-0.049 8.421,0.147 C9.296,0.869 10.282,1.497 11.345,2.003 C12.309,2.447 13.35,2.787 14.447,2.973 C14.757,3.004 15,3.251 15,3.561 C15,6.615 14.568,8.966 13.516,10.937 C12.464,12.917 10.803,14.465 8.355,15.899 C8.144,16.033 7.856,16.033 7.646,15.899 C5.198,14.465 3.537,12.917 2.485,10.937 C1.432,8.966 1,6.615 1,3.561 C1,3.251 1.244,3.004 1.554,2.973Z"/>
  </g>
</svg>
