<svg xmlns="http://www.w3.org/2000/svg" viewBox="0 0 16 16">
	<g>
		<path fill-rule="evenodd" d="M12.3665306,5.481 L7.11053055,10.694 C6.97853055,10.825 6.76553055,10.825 6.63353055,10.694 L6.52753055,10.588 L6.52653055,10.588 L6.41453055,10.476 L5.91653055,9.983 C5.91453055,9.981 5.91553055,9.979 5.91453055,9.977 L3.63653055,7.702 C3.50453055,7.57 3.50453055,7.358 3.63653055,7.227 L4.35253055,6.516 C4.48453055,6.385 4.69853055,6.385 4.83053055,6.516 L6.87453055,8.559 L11.1735306,4.296 C11.3045306,4.166 11.5185306,4.166 11.6505306,4.296 L12.3665306,5.007 C12.4995306,5.138 12.4995306,5.35 12.3665306,5.481 M15.0015306,3.04 L13.4915306,1.5 C13.4915306,1.5 12.4915306,2 11.1115306,2 C10.1815306,2 9.08153055,1.77 8.00153055,1 C6.92153055,1.77 5.82153055,2 4.89153055,2 C3.51253055,2 2.51253055,1.5 2.51253055,1.5 L1.00153055,3.04 C2.63153055,5.34 2.70153055,5.35 1.83153055,7.44 C-0.328469448,11.62 2.13153055,13.24 4.52153055,13.75 C7.62153055,14.38 7.98153055,15.91 8.00153055,15.99 C8.02153055,15.91 8.38153055,14.38 11.4815306,13.75 C13.8715306,13.24 16.3315306,11.62 14.1715306,7.44 C13.3015306,5.35 13.3715306,5.34 15.0015306,3.04z"/>
	</g>
</svg>
