<svg xmlns="http://www.w3.org/2000/svg" viewBox="0 0 16 16">
	<g>
		<path d="M13.8116,11.2202 C13.3516,12.1992 12.0216,12.6192 11.2816,12.7702 C10.3216,12.9702 9.5816,13.2492 9.0016,13.5602 C9.0016,13.5602 8.3916,13.9492 8.0016,14.3202 L8.0016,8.4992 L2.4316,8.4992 C2.5216,8.3002 2.6116,8.1002 2.7216,7.8902 L2.7516,7.8202 C3.6816,5.6102 3.6216,5.0602 2.3016,3.1502 L2.7616,2.6692 C3.2716,2.8292 4.0116,2.9992 4.8916,2.9992 C5.6316,2.9992 6.3316,2.8902 7.0016,2.6502 C7.5116,2.4902 8.0016,2.1592 8.0016,2.1592 L8.0016,8.4992 L13.5716,8.4992 C14.0516,9.6302 14.1316,10.5402 13.8116,11.2202 M14.1716,7.4402 C13.3016,5.3502 13.3716,5.3392 15.0016,3.0402 L13.4916,1.4992 C13.4916,1.4992 12.4916,1.9992 11.1116,1.9992 C10.1816,1.9992 9.0816,1.7702 8.0016,0.9992 C6.9216,1.7702 5.8216,1.9992 4.8916,1.9992 C3.5116,1.9992 2.5116,1.4992 2.5116,1.4992 L1.0016,3.0402 C2.6316,5.3502 2.7016,5.3602 1.8316,7.4402 C-0.3284,11.6302 2.1316,13.2402 4.5216,13.7492 C7.6216,14.3902 7.9816,15.9092 8.0016,15.9902 C8.0216,15.9092 8.3816,14.3802 11.4816,13.7492 C13.6616,13.2902 15.8916,11.9002 14.6416,8.4992 C14.5216,8.1692 14.3616,7.8102 14.1716,7.4402z"/>
	</g>
</svg>
