<svg xmlns="http://www.w3.org/2000/svg" viewBox="0 0 16 16">
	<g>
		<path fill-rule="evenodd" d="M15.0014,3.0402 L13.4914,1.5002 C13.4914,1.5002 12.4914,2.0002 11.1114,2.0002 C10.1814,2.0002 9.0814,1.7692 8.0014,1.0002 C6.9214,1.7692 5.8214,2.0002 4.8914,2.0002 C3.5114,2.0002 2.5114,1.5002 2.5114,1.5002 L1.0014,3.0402 C2.6314,5.3402 2.7014,5.3502 1.8314,7.4392 C-0.3286,11.6202 2.1314,13.2402 4.5214,13.7502 C7.6214,14.3802 7.9814,15.9102 8.0014,15.9902 C8.0214,15.9102 8.3814,14.3802 11.4814,13.7502 C13.8714,13.2402 16.3314,11.6202 14.1714,7.4392 C13.3014,5.3502 13.3714,5.3402 15.0014,3.0402z"/>
	</g>
</svg>
