<svg xmlns="http://www.w3.org/2000/svg" viewBox="0 0 16 16">
  <g>
    <path class="ti-foreground" d="M8,8.021 L8,14.952 C5.72,13.591 4.29,12.211 3.37,10.471 C2.97,9.721 2.67,8.911 2.46,8 L8,8 L8,1.101 C8.89,1.801 9.87,2.411 10.93,2.921 C11.93,3.381 12.96,3.711 14,3.911 C13.98,5.511 13.84,6.851 13.55,8.021 L8,8.021 Z M14.45,2.981 C13.35,2.792 12.31,2.452 11.35,2.011 C10.28,1.5 9.3,0.872 8.42,0.151 C8.3,0.051 8.15,0 8,0 C7.85,0 7.7,0.051 7.58,0.151 C6.71,0.872 5.72,1.5 4.66,2.011 C3.69,2.452 2.65,2.792 1.56,2.981 C1.25,3.011 1,3.261 1,3.571 C1,5.241 1.13,6.702 1.43,8 C1.66,9.081 2.01,10.051 2.49,10.941 C3.54,12.921 5.2,14.471 7.65,15.901 C7.75,15.971 7.88,16 8,16 C8.13,16 8.25,15.971 8.36,15.901 C10.8,14.471 12.47,12.921 13.521,10.941 C13.99,10.051 14.34,9.091 14.57,8.021 C14.87,6.721 15,5.25 15,3.571 C15,3.261 14.76,3.011 14.45,2.981 L14.45,2.981 Z"/>
  </g>
</svg>
