<svg xmlns="http://www.w3.org/2000/svg" viewBox="0 0 16 16">
	<path d="M11.216 10.645a.569.569 0 0 1 .044.8.568.568 0 0 1-.833.017 4.241 4.241 0 0 0-.635-.407 3.921 3.921 0 0 0-1.782-.452c-.723.002-1.56.213-2.5.917a.566.566 0 1 1-.681-.905c1.112-.84 2.216-1.146 3.18-1.146 1.92.01 3.156 1.139 3.207 1.176m.479-4.107a1.2 1.2 0 1 1-2.4 0 1.2 1.2 0 0 1 2.4 0m-7.343 0a1.2 1.2 0 1 1 2.4-.003 1.2 1.2 0 0 1-2.4.003m8.504 6.317A6.842 6.842 0 0 1 8 14.867a6.84 6.84 0 0 1-4.855-2.012A6.836 6.836 0 0 1 1.134 8a6.84 6.84 0 0 1 2.01-4.855A6.84 6.84 0 0 1 8 1.134c1.898 0 3.61.767 4.856 2.01A6.844 6.844 0 0 1 14.866 8a6.839 6.839 0 0 1-2.01 4.855M8 0a8 8 0 1 0 0 16A8 8 0 0 0 8 0"/>
</svg>
