<svg xmlns="http://www.w3.org/2000/svg" viewBox="0 0 16 16">
	<path d="M8.083 9.391c-.965 0-2.07.307-3.181 1.146a.566.566 0 1 0 .682.905c.94-.703 1.776-.914 2.499-.916a3.91 3.91 0 0 1 1.782.451c.219.114.392.228.508.311l.127.096a.57.57 0 0 0 .833-.015.57.57 0 0 0-.044-.802c-.051-.036-1.287-1.164-3.206-1.176"/>
	<path d="M12.856 12.855A6.842 6.842 0 0 1 8 14.866a6.84 6.84 0 0 1-4.855-2.01A6.837 6.837 0 0 1 1.134 8a6.84 6.84 0 0 1 2.01-4.855A6.84 6.84 0 0 1 8 1.133c1.898 0 3.61.768 4.856 2.012A6.844 6.844 0 0 1 14.866 8a6.84 6.84 0 0 1-2.01 4.855M8 0a8 8 0 0 0-8 8 8 8 0 0 0 8 8 8 8 0 0 0 8-8 8 8 0 0 0-8-8"/>
	<path d="M5.573 7.737a1.2 1.2 0 0 0 1.2-1.2c0 .013-1.967-.904-1.967-.904-.259.22-.433.537-.433.904a1.2 1.2 0 0 0 1.2 1.2m3.743-1.2a1.2 1.2 0 0 0 2.4 0c0-.363-.17-.68-.425-.898 0 0-1.984.898-1.975.898"/>
</svg>
