<svg xmlns="http://www.w3.org/2000/svg" viewBox="0 0 16 16">
	<path d="M15.229 6.045h-1.008c.149.554.236 1.133.236 1.734a6.653 6.653 0 0 1-1.955 4.722 6.653 6.653 0 0 1-4.722 1.955 6.647 6.647 0 0 1-4.721-1.955A6.65 6.65 0 0 1 1.103 7.78c0-1.844.746-3.51 1.956-4.72a6.648 6.648 0 0 1 5.308-1.927.99.99 0 0 1 .899-.593h1.344A7.739 7.739 0 0 0 7.78 0 7.779 7.779 0 0 0 0 7.78a7.78 7.78 0 0 0 7.78 7.78 7.78 7.78 0 0 0 7.78-7.78 7.82 7.82 0 0 0-.207-1.756c-.042.005-.081.021-.124.021"/>
	<path d="M10.674 7.935a.676.676 0 0 0 0-1.353h-.99a.677.677 0 1 0 0 1.353h.99zM4.862 6.582a.677.677 0 1 0 0 1.353h.99a.677.677 0 1 0 0-1.353h-.99zM8.52 9.91a1.2 1.2 0 0 0-1.588.597c-.151.332-.126.688.015.994 0 0 2.178.002 2.17-.002A1.2 1.2 0 0 0 8.52 9.91m.578-7.502v.001h1.149L8.565 4.415l-.127.63h2.735l.169-.87H10.01l1.121-1.328.561-.663.123-.63.003-.015H9.266zM12.971.486l-.18.927-.003.014h1.684l-2.153 2.741-.161.204-.141.673h3.212l.197-.941h-1.851l2.286-2.943.069-.337.07-.338z"/>
</svg>
