<svg xmlns="http://www.w3.org/2000/svg" viewBox="0 0 16 16">
	<path d="M10.517 9.957c-.941.704-1.776.915-2.5.917a3.905 3.905 0 0 1-1.781-.452 4.257 4.257 0 0 1-.508-.31c-.058-.043-.1-.076-.127-.097l-.028-.024-.003-.003a.569.569 0 0 0-.802.043.568.568 0 0 0 .044.801c.05.037 1.287 1.165 3.206 1.176h.01c.954 0 2.059-.306 3.17-1.145a.566.566 0 1 0-.681-.906m-.001-4.62a1.2 1.2 0 1 0-.001 2.399 1.2 1.2 0 0 0 0-2.4m-3.742 1.2a1.2 1.2 0 1 0-2.4 0 1.2 1.2 0 0 0 2.4 0m6.082 6.318A6.833 6.833 0 0 1 8 14.865a6.833 6.833 0 0 1-4.855-2.01A6.837 6.837 0 0 1 1.134 8a6.84 6.84 0 0 1 2.01-4.855A6.833 6.833 0 0 1 8 1.135c1.898 0 3.61.765 4.855 2.01A6.84 6.84 0 0 1 14.865 8c0 1.897-.766 3.61-2.01 4.854M8 0a8 8 0 0 0-8 8 8 8 0 1 0 16 0 8 8 0 0 0-8-8"/>
</svg>
