<svg xmlns="http://www.w3.org/2000/svg" viewBox="0 0 16 16">
	<path d="M7.988 11.938a2.96 2.96 0 0 1-1.925-.682c.063-.263.222-.453.413-.453h3.11c.17 0 .313.155.388.373a2.908 2.908 0 0 1-1.986.762m3.816-2.221a.216.216 0 0 0-.178-.095s-1.501.41-3.657.41-3.568-.42-3.568-.42a.212.212 0 0 0-.197.295c.614 1.479 2.114 2.59 3.82 2.59 1.67 0 3.162-1.108 3.797-2.58a.207.207 0 0 0-.017-.2M10.39 5.336a1.2 1.2 0 1 0 0 2.4 1.2 1.2 0 0 0 0-2.4m-3.743 1.2a1.2 1.2 0 1 0-2.402 0 1.2 1.2 0 0 0 2.402 0m6.207 6.319A6.838 6.838 0 0 1 8 14.867a6.838 6.838 0 0 1-4.855-2.012A6.837 6.837 0 0 1 1.134 8a6.84 6.84 0 0 1 2.01-4.855A6.837 6.837 0 0 1 8 1.134c1.898 0 3.61.767 4.855 2.01A6.84 6.84 0 0 1 14.865 8a6.837 6.837 0 0 1-2.01 4.855M8 0a8 8 0 0 0-8 8 8 8 0 1 0 16 0 8 8 0 0 0-8-8"/>
</svg>
