<svg xmlns="http://www.w3.org/2000/svg" viewBox="0 0 16 16">
	<path d="M12.856 12.855A6.842 6.842 0 0 1 8 14.866a6.84 6.84 0 0 1-4.855-2.01A6.837 6.837 0 0 1 1.134 8a6.84 6.84 0 0 1 2.011-4.855A6.84 6.84 0 0 1 8 1.135a6.84 6.84 0 0 1 4.856 2.01A6.844 6.844 0 0 1 14.866 8a6.84 6.84 0 0 1-2.01 4.855M8 0a8 8 0 0 0-8 8 8 8 0 0 0 8 8 8 8 0 0 0 8-8 8 8 0 0 0-8-8"/>
	<path d="M6.752 6.537a1.2 1.2 0 1 0-2.4-.001 1.2 1.2 0 0 0 2.4 0m3.743-1.2a1.2 1.2 0 1 0 0 2.4 1.2 1.2 0 0 0 0-2.4m-.06 4.516h-4.87a.696.696 0 0 0 0 1.391h4.87a.697.697 0 0 0 0-1.39"/>
</svg>
