<svg xmlns="http://www.w3.org/2000/svg" viewBox="0 0 14 16">
	<g>
		<path d="M12.9531192,12.091 C12.7685493,12.191 12.5876707,12.24 12.4114064,12.24 C12.1456257,12.24 11.9241417,12.168 11.7478774,12.023 C11.5697674,11.877 11.4820967,11.624 11.4820967,11.263 C11.4820967,10.88 11.5697674,10.602 11.7478774,10.428 C11.9241417,10.255 12.1308601,10.168 12.3671096,10.168 C12.6181248,10.168 12.844223,10.269 13.0472499,10.472 C13.2502769,10.673 13.3887043,11.039 13.4625323,11.57 C13.3074935,11.819 13.1376892,11.992 12.9531192,12.091 M13.3241048,9.192 C13.0029531,9.064 12.6734958,9 12.333887,9 C12.0164267,9 11.7165006,9.051 11.4322628,9.154 C11.1480251,9.257 10.9016242,9.407 10.6912145,9.606 C10.4808047,9.804 10.3128461,10.043 10.1873385,10.322 C10.0627538,10.602 10,10.916 10,11.263 C10,11.617 10.0526024,11.925 10.1605759,12.187 C10.2667036,12.448 10.4125138,12.665 10.5970838,12.835 C10.7807309,13.004 11.001292,13.132 11.2550757,13.217 C11.5097822,13.302 11.78756,13.344 12.0902547,13.344 C12.2009967,13.344 12.3191214,13.328 12.444629,13.297 C12.5692137,13.265 12.6956441,13.219 12.8202289,13.158 C12.9457364,13.099 13.0675526,13.025 13.1847545,12.936 C13.3028793,12.847 13.4071613,12.746 13.4957549,12.633 C13.4809893,13.029 13.433924,13.361 13.3564046,13.626 C13.279808,13.892 13.1764489,14.108 13.0472499,14.275 C12.9180509,14.441 12.7685493,14.56 12.5996678,14.63 C12.4298634,14.7 12.2452935,14.737 12.0459579,14.737 C11.8392396,14.737 11.6371355,14.689 11.4377999,14.593 C11.2384644,14.497 11.0806571,14.386 10.9625323,14.258 L10.0996678,15.194 C10.3202289,15.405 10.6026209,15.593 10.945921,15.756 C11.2882983,15.919 11.6925065,16 12.1566999,16 C12.5258398,16 12.881137,15.928 13.2235142,15.783 C13.5668143,15.638 13.869509,15.416 14.1315984,15.119 C14.3927649,14.82 14.6031746,14.443 14.7619048,13.983 C14.9206349,13.522 15,12.977 15,12.346 C15,11.751 14.9243263,11.243 14.772979,10.821 C14.6216316,10.401 14.4222961,10.055 14.1758952,9.786 C13.9285714,9.517 13.6443337,9.319 13.3241048,9.192 Z M5.61858193,12.239 C5.84258193,12.239 5.97058193,12.518 5.83558193,12.714 L3.66258193,15.882 C3.55458193,16.04 3.33658193,16.04 3.22758193,15.882 L1.05458193,12.714 C0.920581934,12.518 1.04858193,12.239 1.27258193,12.239 L2.53958193,12.239 L2.53958193,0.297 C2.53958193,0.133 2.66158193,0 2.81158193,0 L4.07958193,0 C4.22958193,0 4.35058193,0.133 4.35058193,0.297 L4.35058193,12.239 L5.61858193,12.239 Z M13.5273632,5.488 C13.5273632,5.59845695 13.6169062,5.688 13.7273632,5.688 L14.8,5.688 C14.9104569,5.688 15,5.77754305 15,5.888 L15,6.8 C15,6.91045695 14.9104569,7 14.8,7 L10.2,7 C10.0895431,7 10,6.91045695 10,6.8 L10,5.888 C10,5.77754305 10.0895431,5.688 10.2,5.688 L11.5084577,5.688 C11.6189147,5.688 11.7084577,5.59845695 11.7084577,5.488 L11.7084577,1.842 C11.7084577,1.73154305 11.6189147,1.642 11.5084577,1.642 L10.4348259,1.642 C10.3243689,1.642 10.2348259,1.55245695 10.2348259,1.442 L10.2348259,0.639 C10.6646766,0.566 11.0278607,0.478 11.3243781,0.375 C11.6218905,0.271 11.9104478,0.147 12.1910448,0 L13.3273632,1.66533454e-16 C13.4378201,1.46242841e-16 13.5273632,0.08954305 13.5273632,0.2 L13.5273632,5.488 Z" transform="translate(-1)"/>
	</g>
</svg>
