<svg xmlns="http://www.w3.org/2000/svg" viewBox="0 0 14 16">
	<g>
		<path d="M11.8973767,1.41124587 C11.9240591,1.29437707 11.9555062,1.19845645 11.9669416,1.19845645 C11.9783769,1.19845645 12.0107769,1.29437707 12.0384123,1.41124587 L12.479625,3.24366042 C12.5091662,3.36052922 12.5568134,3.55126792 12.5854017,3.66813671 L12.6406724,3.88864388 C12.6702136,4.00551268 12.6073194,4.10033076 12.5024956,4.10033076 L11.4456816,4.10033076 C11.3408579,4.10033076 11.2789166,4.00551268 11.3075049,3.88864388 L11.3627756,3.66813671 C11.3923168,3.55016538 11.439011,3.36052922 11.4666464,3.24366042 L11.8973767,1.41124587 Z M10.8920217,5.54796031 C10.9215629,5.43109151 11.0311514,5.33627343 11.1359751,5.33627343 L12.8102962,5.33627343 C12.9141671,5.33627343 13.0247085,5.43109151 13.0532968,5.54796031 L13.3620503,6.78831312 C13.3906386,6.90407938 13.5002271,7 13.6050508,7 L14.8619829,7 C14.9668066,7 15.0249361,6.90628445 14.9896773,6.79272326 L12.9894496,0.207276736 C12.9541907,0.0937155458 12.8407904,-5.68434189e-14 12.7359667,-5.68434189e-14 L11.2636695,-5.68434189e-14 C11.1597987,-5.68434189e-14 11.0454455,0.0937155458 11.0101866,0.207276736 L9.00995893,6.79272326 C8.97565298,6.90628445 9.03282957,7 9.13765331,7 L10.3383617,7 C10.4431854,7 10.551821,6.90407938 10.5813622,6.78831312 L10.8920217,5.54796031 Z M14.8342438,10.112529 L11.3514906,14.5179814 C11.2840643,14.6022332 11.3140315,14.6712587 11.4170439,14.6712587 L14.8127049,14.6712587 C14.9147807,14.6712587 15,14.762616 15,14.8742749 L15,15.7969838 C15,15.9086427 14.9147807,16 14.8127049,16 L9.18635867,16 C9.08334634,16 9,15.9086427 9,15.7969838 L9,15.2447796 C9,15.1321056 9.05431559,14.9717227 9.12080537,14.887471 L12.6007492,10.4820186 C12.6681754,10.3967517 12.6382082,10.3277262 12.5351959,10.3277262 L9.53379117,10.3277262 C9.43077884,10.3277262 9.34649602,10.2363689 9.34649602,10.12471 L9.34649602,9.20301624 C9.34649602,9.09135731 9.43077884,9 9.53379117,9 L14.7686905,9 C14.8726393,9 14.9559856,9.09135731 14.9559856,9.20301624 L14.9559856,9.75420534 C14.9559856,9.86687935 14.90167,10.0272622 14.8342438,10.112529 Z M5.61858193,3.7615 L4.35058193,3.7615 L4.35058193,15.7035 C4.35058193,15.8675 4.22958193,16.0005 4.07958193,16.0005 L2.81158193,16.0005 C2.66158193,16.0005 2.53958193,15.8675 2.53958193,15.7035 L2.53958193,3.7615 L1.27258193,3.7615 C1.04858193,3.7615 0.920581934,3.4825 1.05458193,3.2865 L3.22758193,0.1185 C3.33658193,-0.0395 3.55458193,-0.0395 3.66258193,0.1185 L5.83558193,3.2865 C5.97058193,3.4825 5.84258193,3.7615 5.61858193,3.7615 Z" transform="translate(-1)"/>
	</g>
</svg>
