<svg xmlns="http://www.w3.org/2000/svg" viewBox="0 0 16 16">
	<path d="M10.895 4.661c-1.225 0-2.428-.583-3.581-1.736-.904-.904-1.78-1.319-2.603-1.23-1.282.136-2.154 1.435-2.163 1.448a.84.84 0 1 1-1.413-.912C1.187 2.151 2.44.244 4.533.021c1.354-.144 2.689.432 3.97 1.714.902.901 1.781 1.315 2.614 1.232 1.311-.132 2.216-1.446 2.225-1.458a.84.84 0 1 1 1.402.93c-.054.08-1.342 1.99-3.459 2.202-.131.014-.261.02-.39.02m0 5.66c-1.225 0-2.428-.583-3.581-1.735-.901-.901-1.771-1.316-2.594-1.232-1.289.13-2.165 1.44-2.174 1.453a.842.842 0 0 1-1.163.244.84.84 0 0 1-.248-1.16c.052-.081 1.305-1.987 3.398-2.21 1.351-.143 2.689.433 3.97 1.715.902.9 1.781 1.315 2.614 1.23 1.311-.131 2.216-1.444 2.225-1.457a.84.84 0 1 1 1.402.929c-.054.082-1.342 1.99-3.459 2.203-.131.014-.261.02-.39.02m0 5.679c-1.225 0-2.428-.583-3.581-1.735-.904-.905-1.78-1.32-2.603-1.231-1.282.136-2.154 1.436-2.163 1.449a.841.841 0 0 1-1.413-.913c.052-.081 1.305-1.987 3.398-2.21 1.354-.143 2.689.433 3.97 1.715.902.9 1.781 1.314 2.614 1.23 1.311-.13 2.216-1.444 2.225-1.457a.84.84 0 1 1 1.402.929c-.054.082-1.342 1.99-3.459 2.204a3.946 3.946 0 0 1-.39.019"/>
</svg>
