<svg xmlns="http://www.w3.org/2000/svg" viewBox="0 0 16 16">
	<path d="M12.422,3.5783 C11.99,3.1463 11.99,2.4463 12.422,2.0143 C12.854,1.5823 13.554,1.5823 13.986,2.0143 C14.418,2.4463 14.418,3.1463 13.986,3.5783 C13.554,4.0103 12.854,4.0103 12.422,3.5783 M16,6.1413 L15.999,1.5363 C16,0.6873 15.312,0.0013 14.464,0.0013 L9.858,0.0003 C9.434,0.0003 9.051,0.1723 8.773,0.4503 L0.432,8.7913 C-0.144,9.3663 -0.144,10.3013 0.432,10.8763 L5.123,15.5683 C5.699,16.1443 6.633,16.1443 7.209,15.5683 L15.549,7.2273 C15.827,6.9493 16,6.5653 16,6.1413"/>
</svg>
