<svg xmlns="http://www.w3.org/2000/svg" viewBox="0 0 16 16">
  <g>
    <path d="M11.5,13 C11.7761424,13 12,13.2238576 12,13.5 L12,14.5 C12,14.7761424 11.7761424,15 11.5,15 L0.5,15 C0.223857625,15 3.38176876e-17,14.7761424 0,14.5 L0,13.5 C-3.38176876e-17,13.2238576 0.223857625,13 0.5,13 L11.5,13 Z M13.5,9 C13.7761424,9 14,9.22385763 14,9.5 L14,10.5 C14,10.7761424 13.7761424,11 13.5,11 L0.5,11 C0.223857625,11 3.38176876e-17,10.7761424 0,10.5 L0,9.5 C-3.38176876e-17,9.22385763 0.223857625,9 0.5,9 L13.5,9 Z M8.5,5 C8.77614237,5 9,5.22385763 9,5.5 L9,6.5 C9,6.77614237 8.77614237,7 8.5,7 L0.5,7 C0.223857625,7 3.38176876e-17,6.77614237 0,6.5 L0,5.5 C-3.38176876e-17,5.22385763 0.223857625,5 0.5,5 L8.5,5 Z M15.5,1 C15.7761424,1 16,1.22385763 16,1.5 L16,2.5 C16,2.77614237 15.7761424,3 15.5,3 L0.5,3 C0.223857625,3 3.38176876e-17,2.77614237 0,2.5 L0,1.5 C-3.38176876e-17,1.22385763 0.223857625,1 0.5,1 L15.5,1 Z"/>
  </g>
</svg>
