<svg xmlns="http://www.w3.org/2000/svg" viewBox="0 0 16 16">
	<g>
		<path d="M10.5,12.5 C10.127,12.5 9.766,12.449 9.424,12.354 C10.398,11.361 11,10 11,8.5 C11,6.999 10.398,5.639 9.424,4.646 C9.766,4.551 10.127,4.5 10.5,4.5 C12.709,4.5 14.5,6.291 14.5,8.5 C14.5,10.709 12.709,12.5 10.5,12.5 M6.575,12.354 C6.233,12.449 5.872,12.5 5.5,12.5 C3.291,12.5 1.5,10.709 1.5,8.5 C1.5,6.291 3.291,4.5 5.5,4.5 C5.872,4.5 6.233,4.551 6.575,4.646 C5.601,5.639 5,6.999 5,8.5 C5,10 5.601,11.361 6.575,12.354 M10.5,3 C9.6,3 8.75,3.216 8,3.6 C7.25,3.216 6.4,3 5.5,3 C2.462,3 0,5.462 0,8.5 C0,11.537 2.462,14 5.5,14 C6.4,14 7.25,13.783 8,13.4 C8.75,13.783 9.6,14 10.5,14 C13.537,14 16,11.537 16,8.5 C16,5.462 13.537,3 10.5,3"/>
	</g>
</svg>
