<svg xmlns="http://www.w3.org/2000/svg" viewBox="0 0 16 16">
  <g>
    <path class="ti-foreground" d="M3.40277228,14 C4.02376238,14 4.33425743,13.7480479 4.33425743,13.2441437 C4.33425743,13.0275898 4.28145215,12.8526809 4.17584158,12.719417 C4.07023102,12.586153 3.93716172,12.5091098 3.77663366,12.4882874 C3.58231023,12.4591359 3.4450165,12.4289433 3.36475248,12.3977095 C3.28448845,12.3664758 3.21584158,12.2998438 3.15881188,12.1978136 C3.10178218,12.0957834 3.06376238,11.9469027 3.04475248,11.7511713 C3.02574257,11.5554399 3.01623762,11.2514315 3.01623762,10.8391463 C3.01623762,10.2894326 2.98244224,9.83862572 2.91485149,9.48672566 C2.84726073,9.13482561 2.7289769,8.84539302 2.56,8.6184279 C2.3910231,8.39146278 2.15656766,8.18636127 1.85663366,8.00312337 C2.17346535,7.80739198 2.41531353,7.58875586 2.58217822,7.34721499 C2.7490429,7.10567413 2.8609901,6.81311817 2.9180198,6.46954711 C2.9750495,6.12597605 3.00778878,5.68558043 3.01623762,5.14836023 C3.02468647,4.59864654 3.04369637,4.22800625 3.07326733,4.03643935 C3.10283828,3.84487246 3.16620462,3.71577303 3.26336634,3.64914107 C3.36052805,3.58250911 3.53161716,3.53253514 3.77663366,3.49921916 C3.94138614,3.47839667 4.07551155,3.40343571 4.1790099,3.27433628 C4.28250825,3.14523686 4.33425743,2.96824571 4.33425743,2.74336283 C4.33425743,2.24778761 4.02376238,2 3.40277228,2 C2.80712871,2 2.33082508,2.17178553 1.97386139,2.51535659 C1.61689769,2.85892764 1.43207921,3.31806351 1.41940594,3.89276419 C1.40250825,4.82144716 1.38983498,5.40760021 1.38138614,5.65122332 C1.37293729,5.89484643 1.34231023,6.11972931 1.28950495,6.32587194 C1.23669967,6.53201458 1.14587459,6.70067673 1.0170297,6.83185841 C0.888184818,6.96304008 0.671683168,7.12233212 0.367524752,7.30973451 C0.122508251,7.46382093 0,7.69495055 0,8.00312337 C0,8.21551275 0.0422442244,8.37064029 0.126732673,8.46850599 C0.211221122,8.56637168 0.35379538,8.67673087 0.554455446,8.79958355 C0.755115512,8.92243623 0.917755776,9.05465903 1.04237624,9.19625195 C1.1669967,9.33784487 1.2609901,9.548152 1.32435644,9.82717335 C1.34970297,9.93961478 1.36871287,10.1874024 1.38138614,10.5705362 C1.39405941,10.95367 1.40673267,11.4617387 1.41940594,12.0947423 C1.42363036,12.4695471 1.50811881,12.8016658 1.67287129,13.0910984 C1.83762376,13.380531 2.0710231,13.6043727 2.37306931,13.7626236 C2.67511551,13.9208745 3.01834983,14 3.40277228,14 Z M10.24,11.6063366 C10.4638944,11.6063366 10.6518812,11.5408581 10.8039604,11.409901 C10.9560396,11.2789439 11.0320792,11.1226403 11.0320792,10.9409901 C11.0320792,10.7635644 10.909571,10.499538 10.6645545,10.1489109 L10.6645545,10.1489109 L9.09940594,7.90574257 L10.4871287,6.03643564 C10.6138614,5.87168317 10.7078548,5.72910891 10.7691089,5.60871287 C10.830363,5.48831683 10.8609901,5.36264026 10.8609901,5.23168317 C10.8609901,5.050033 10.7860066,4.89478548 10.6360396,4.76594059 C10.4860726,4.63709571 10.2970297,4.57267327 10.0689109,4.57267327 C9.87036304,4.57267327 9.70455446,4.62759076 9.57148515,4.73742574 C9.43841584,4.84726073 9.28105611,5.02891089 9.09940594,5.28237624 L9.09940594,5.28237624 L8.00950495,6.81584158 L6.88792079,5.28237624 C6.71049505,5.03735974 6.55524752,4.85782178 6.42217822,4.74376238 C6.28910891,4.62970297 6.12118812,4.57267327 5.91841584,4.57267327 C5.68607261,4.57267327 5.49808581,4.63815182 5.35445545,4.76910891 C5.21082508,4.90006601 5.1390099,5.05425743 5.1390099,5.23168317 C5.1390099,5.45980198 5.25940594,5.72805281 5.50019802,6.03643564 L5.50019802,6.03643564 L6.88792079,7.90574257 L5.32277228,10.1489109 C5.08620462,10.4868647 4.96792079,10.7466667 4.96792079,10.9283168 C4.96792079,11.1057426 5.0450165,11.2631023 5.19920792,11.400396 C5.35339934,11.5376898 5.54033003,11.6063366 5.76,11.6063366 C5.95854785,11.6063366 6.12224422,11.5514191 6.25108911,11.4415842 C6.37993399,11.3317492 6.53729373,11.1479868 6.72316832,10.890297 L6.72316832,10.890297 L8.00950495,9.04633663 L9.26415842,10.890297 C9.44158416,11.139538 9.59894389,11.3211881 9.73623762,11.4352475 C9.87353135,11.5493069 10.0414521,11.6063366 10.24,11.6063366 Z M12.5845545,14 C13.1844224,14 13.6649505,13.8261322 14.0261386,13.4783967 C14.3873267,13.1306611 14.5742574,12.669443 14.5869307,12.0947423 C14.599604,11.4867257 14.6112211,10.9807392 14.6217822,10.5767829 C14.6323432,10.1728267 14.6640264,9.86985945 14.7168317,9.66788131 C14.769637,9.46590318 14.8625743,9.29724102 14.9956436,9.16189485 C15.1287129,9.02654867 15.3431023,8.86933889 15.6388119,8.69026549 C15.879604,8.54450807 16,8.3154607 16,8.00312337 C16,7.782405 15.9545875,7.61790734 15.8637624,7.5096304 C15.7729373,7.40135346 15.6345875,7.2920354 15.4487129,7.18167621 C15.2628383,7.07131702 15.1044224,6.94429984 14.9734653,6.80062467 C14.8425083,6.65694951 14.7432343,6.4476835 14.6756436,6.17282665 C14.6418482,6.03539823 14.6122772,5.27537741 14.5869307,3.89276419 C14.5827063,3.52212389 14.4950495,3.19208745 14.3239604,2.90265487 C14.1528713,2.61322228 13.9184158,2.39042166 13.6205941,2.23425299 C13.3227723,2.07808433 12.9774257,2 12.5845545,2 C11.9720132,2 11.6657426,2.24778761 11.6657426,2.74336283 C11.6657426,2.96824571 11.719604,3.14523686 11.8273267,3.27433628 C11.9350495,3.40343571 12.0670627,3.47839667 12.2233663,3.49921916 C12.4092409,3.52004164 12.5475908,3.548152 12.6384158,3.58355023 C12.7292409,3.61894846 12.8,3.6845393 12.8506931,3.78032275 C12.9013861,3.87610619 12.9351815,4.02915148 12.9520792,4.23945862 C12.9689769,4.44976575 12.9774257,4.75273295 12.9774257,5.14836023 C12.9774257,5.556481 12.9964356,5.91150442 13.0344554,6.2134305 C13.0724752,6.51535659 13.1379538,6.77667881 13.2308911,6.99739719 C13.3238284,7.21811556 13.4421122,7.40551796 13.5857426,7.55960437 C13.7293729,7.71369079 13.9152475,7.86153045 14.1433663,8.00312337 C13.8223102,8.20301926 13.5794059,8.41957314 13.4146535,8.65278501 C13.249901,8.88599688 13.1379538,9.16501822 13.0788119,9.48984904 C13.01967,9.81467985 12.9858746,10.2644456 12.9774257,10.8391463 C12.9774257,11.2264446 12.970033,11.5210828 12.9552475,11.7230609 C12.940462,11.925039 12.9087789,12.0780843 12.860198,12.1821968 C12.8116172,12.2863092 12.7408581,12.3571057 12.6479208,12.3945862 C12.5549835,12.4320666 12.4134653,12.4633004 12.2233663,12.4882874 C12.1177558,12.5007808 12.0237624,12.5382613 11.9413861,12.6007288 C11.8590099,12.6631963 11.7924752,12.7516918 11.7417822,12.8662155 C11.6910891,12.9807392 11.6657426,13.1067153 11.6657426,13.2441437 C11.6657426,13.489849 11.7449505,13.6772514 11.9033663,13.8063509 C12.0617822,13.9354503 12.2888449,14 12.5845545,14 Z"/>
  </g>
</svg>
