<svg xmlns="http://www.w3.org/2000/svg" viewBox="0 0 16 16">
  <g>
    <path class="ti-foreground" d="M8.60404977,0.142927692 C8.86551057,0.273658088 9.07751713,0.48566465 9.20824752,0.747125442 L15.8570723,14.044775 C16.1907615,14.7121534 15.920253,15.5236791 15.2528746,15.8573683 C15.0652771,15.951167 14.8584172,16 14.6486768,16 L1.35102724,16 C0.604875499,16 0,15.3951245 0,14.6489728 C0,14.4392324 0.0488330036,14.2323725 0.142631741,14.044775 L6.79145652,0.747125442 C7.12514573,0.0797470358 7.93667137,-0.190761511 8.60404977,0.142927692 Z M7.99985202,11.6349342 C7.50241753,11.6349342 7.0991672,12.0381846 7.0991672,12.5356191 C7.0991672,13.0330536 7.50241753,13.4363039 7.99985202,13.4363039 C8.49728652,13.4363039 8.90053685,13.0330536 8.90053685,12.5356191 C8.90053685,12.0381846 8.49728652,11.6349342 7.99985202,11.6349342 Z M7.99985202,4.2042844 C7.62677615,4.2042844 7.3243384,4.50672215 7.3243384,4.87979802 L7.3243384,4.87979802 L7.3243384,9.83356457 C7.3243384,10.2066404 7.62677615,10.5090782 7.99985202,10.5090782 C8.3729279,10.5090782 8.67536564,10.2066404 8.67536564,9.83356457 L8.67536564,9.83356457 L8.67536564,4.87979802 C8.67536564,4.50672215 8.3729279,4.2042844 7.99985202,4.2042844 Z"/>
  </g>
</svg>
