<svg xmlns="http://www.w3.org/2000/svg" viewBox="0 0 16 16">
	<path d="M.1 9.26a8.07 8.07 0 0 1 3.718-8.077 7.965 7.965 0 0 1 8.073-.164 8.15 8.15 0 0 1 3.994 8.33 7.995 7.995 0 0 1-14.337 3.376A7.94 7.94 0 0 1 .1 9.26zm4.08-.195a1.146 1.146 0 0 0 1.78.842c.344.072.99.191.81.744a2.273 2.273 0 0 1 .226 1.782c.313.62-.065 1.737.688 2.024.868.007 1.13-.925 1.578-1.474-.197-.682 1.003-.914.457-1.68-.186-.767.678-1.228.984-1.837.189-.366.277-.618-.178-.37-.694.03-1.144-.674-1.396-1.238.482-.922.777.76 1.17.98.784-.094 1.15-.826 1.448-1.365.483-.054.743.491 1.19.462.358.321.118 1.652.697 1.409-.066-.643.476-1.58 1.08-1.482-.034.71.483.35.34-.156a6.702 6.702 0 0 0-3.133-5.338c-.55-.012-.856-.293-1.072-.11-.063.427-.17.693-.705.588-.572-.204-1.033.75-1.48.38.183-.175.399-.9-.255-.834-.773.002-1.802-.105-2.245.68-.113.453.67.72.816.887.394-.756 1.496.19.456.237a3.907 3.907 0 0 0-2.123.625c.562.34.003.556-.336.571-.089.248-.1.867.194.765.61.136 1.163-1.317 1.76-.526.163.337.696.5.364-.045-.252-.256-.403-.745.057-.312.134.199.852 1.24.713.519.102-.518.378.555.769.404.844.362-.097 1.107-.676.806-.464.056-.687.585-1.123.043-.268-.163-.008-.697-.58-.476-.809.048-1.613.153-1.992.991-.418.4-.167 1-.283 1.503zm.906-4.761c.29.598 1.485-.156.79-.75-.471-.591-.995-.09-.498.426-.002.18-.168.24-.291.324z"/>
</svg>
