<svg xmlns="http://www.w3.org/2000/svg" viewBox="0 0 16 16">
  <g>
    <path d="M11.8378378,0 C10.7413016,0 9.64740757,0.433684324 8.81081081,1.27027027 C7.56464865,2.51641081 7.23611676,4.33808649 7.82432432,5.88513514 L0.695646269,13.1307777 C0.310539217,13.5222034 0.313097183,14.150935 0.70137643,14.5392143 L1.46078573,15.2986236 C1.84906498,15.6869028 2.47779658,15.6894608 2.86922232,15.3043537 L10.1148649,8.17567568 L10.1148649,8.17567568 C11.6619029,8.76387027 13.4835914,8.43532324 14.7297297,7.18918919 C15.5663157,6.35258378 16,5.25869838 16,4.16216216 C15.9981838,3.76144432 15.9517319,3.24856432 15.7837838,2.81081081 L13.1891892,5.40540541 L11.027027,4.97297297 L10.5945946,2.81081081 L13.1891892,0.216216216 C12.7514331,0.0482702703 12.2385531,0.0018227027 11.8378378,0 Z"/>
  </g>
</svg>
