<svg xmlns="http://www.w3.org/2000/svg" viewBox="0 0 155 48">
    <defs>
        <radialGradient id="coral_ds-logo-a" cx="2.906%" cy="4.695%" r="133.775%" fx="2.906%" fy="4.695%">
            <stop offset="0%" stop-color="#B8464B"/>
            <stop offset="28.858%" stop-color="#E96065"/>
            <stop offset="60.182%" stop-color="#A9424C"/>
            <stop offset="100%" stop-color="#2C1F56"/>
        </radialGradient>
    </defs>
    <g fill="none" fill-rule="evenodd">
        <path fill="currentColor" fill-rule="nonzero" d="M90.352,33.032 C90.5653333,33.032 90.7653333,33.0506667 90.952,33.088 C91.1386667,33.1253333 91.3066667,33.1706667 91.456,33.224 L91.456,33.224 L94.16,33.224 L94.16,34.232 L92.56,34.232 L92.66528,34.34656 C92.80096,34.5069867 92.9178667,34.6981333 93.016,34.92 C93.1386667,35.1973333 93.2,35.5013333 93.2,35.832 C93.2,36.248 93.1253333,36.624 92.976,36.96 C92.8266667,37.296 92.624,37.5786667 92.368,37.808 C92.112,38.0373333 91.8106667,38.216 91.464,38.344 C91.1173333,38.472 90.7466667,38.536 90.352,38.536 C90.16,38.536 89.9626667,38.512 89.76,38.464 C89.5573333,38.416 89.3653333,38.3493333 89.184,38.264 C89.0453333,38.3813333 88.928,38.512 88.832,38.656 C88.736,38.8 88.688,38.9786667 88.688,39.192 C88.688,39.4373333 88.784,39.64 88.976,39.8 C89.168,39.96 89.5306667,40.04 90.064,40.04 L90.064,40.04 L91.568,40.04 L91.8332,40.0444 C92.6084,40.0708 93.2,40.216 93.608,40.48 C94.0613333,40.7733333 94.288,41.2453333 94.288,41.896 C94.288,42.2586667 94.1973333,42.6026667 94.016,42.928 C93.8346667,43.2533333 93.5733333,43.5386667 93.232,43.784 C92.8906667,44.0293333 92.4773333,44.224 91.992,44.368 C91.5066667,44.512 90.96,44.584 90.352,44.584 C89.872,44.584 89.4346667,44.5386667 89.04,44.448 C88.6453333,44.3573333 88.3066667,44.2213333 88.024,44.04 C87.7413333,43.8586667 87.5226667,43.64 87.368,43.384 C87.2133333,43.128 87.136,42.8293333 87.136,42.488 C87.136,42.1573333 87.2373333,41.8426667 87.44,41.544 C87.6426667,41.2453333 87.92,40.9733333 88.272,40.728 L88.272,40.728 L88.272,40.664 L88.16032,40.58816 C88.0161067,40.4797867 87.8906667,40.3424 87.784,40.176 C87.6506667,39.968 87.584,39.7093333 87.584,39.4 C87.584,39.0693333 87.6746667,38.7813333 87.856,38.536 C88.0373333,38.2906667 88.2293333,38.0986667 88.432,37.96 L88.432,37.96 L88.432,37.896 L88.28128,37.75936 C88.08416,37.5656533 87.9024,37.3258667 87.736,37.04 C87.528,36.6826667 87.424,36.2693333 87.424,35.8 C87.424,35.3733333 87.5013333,34.9893333 87.656,34.648 C87.8106667,34.3066667 88.0213333,34.016 88.288,33.776 C88.5546667,33.536 88.8666667,33.352 89.224,33.224 C89.5813333,33.096 89.9573333,33.032 90.352,33.032 Z M116.56,33.224 L118.144,37.528 L118.264,37.8755556 C118.345778,38.1114074 118.431111,38.3555556 118.52,38.608 C118.653333,38.9866667 118.778667,39.3573333 118.896,39.72 L118.896,39.72 L118.96,39.72 L119.075556,39.3626667 C119.151407,39.1208889 119.224889,38.872 119.296,38.616 C119.402667,38.232 119.509333,37.8693333 119.616,37.528 L119.616,37.528 L121.008,33.224 L122.288,33.224 L119.36,41.64 L119.216,42.0151111 C119.116444,42.2592593 119.009778,42.4915556 118.896,42.712 C118.725333,43.0426667 118.522667,43.328 118.288,43.568 C118.053333,43.808 117.786667,43.9973333 117.488,44.136 C117.189333,44.2746667 116.842667,44.344 116.448,44.344 C116.266667,44.344 116.101333,44.3306667 115.952,44.304 C115.802667,44.2773333 115.664,44.2373333 115.536,44.184 L115.536,44.184 L115.792,43.144 L116.08,43.216 L116.184889,43.2382222 C116.25363,43.2500741 116.32,43.256 116.384,43.256 C116.832,43.256 117.197333,43.0986667 117.48,42.784 C117.762667,42.4693333 117.984,42.072 118.144,41.592 L118.144,41.592 L118.32,41.016 L115.2,33.224 L116.56,33.224 Z M89.088,41 C88.8106667,41.2026667 88.608,41.416 88.48,41.64 C88.352,41.864 88.288,42.088 88.288,42.312 C88.288,42.728 88.488,43.0586667 88.888,43.304 C89.288,43.5493333 89.84,43.672 90.544,43.672 C90.9173333,43.672 91.256,43.6266667 91.56,43.536 C91.864,43.4453333 92.1226667,43.328 92.336,43.184 C92.5493333,43.04 92.7146667,42.872 92.832,42.68 C92.9493333,42.488 93.008,42.2906667 93.008,42.088 C93.008,41.7253333 92.8746667,41.4746667 92.608,41.336 C92.3413333,41.1973333 91.952,41.128 91.44,41.128 L91.44,41.128 L90.096,41.128 L89.9422222,41.1253333 C89.8367407,41.1217778 89.7253333,41.1146667 89.608,41.104 C89.432,41.088 89.2586667,41.0533333 89.088,41 Z M125.984,33.032 C126.474667,33.032 126.925333,33.1173333 127.336,33.288 C127.746667,33.4586667 128.101333,33.6666667 128.4,33.912 L128.4,33.912 L127.776,34.744 L127.574,34.599 C127.37,34.461 127.16,34.344 126.944,34.248 C126.656,34.12 126.341333,34.056 126,34.056 C125.509333,34.056 125.149333,34.168 124.92,34.392 C124.690667,34.616 124.576,34.8773333 124.576,35.176 C124.576,35.3573333 124.624,35.5146667 124.72,35.648 C124.816,35.7813333 124.944,35.8986667 125.104,36 C125.264,36.1013333 125.448,36.192 125.656,36.272 C125.864,36.352 126.08,36.4346667 126.304,36.52 C126.581333,36.6266667 126.861333,36.7386667 127.144,36.856 C127.426667,36.9733333 127.68,37.12 127.904,37.296 C128.128,37.472 128.312,37.688 128.456,37.944 C128.6,38.2 128.672,38.5093333 128.672,38.872 C128.672,39.192 128.610667,39.4906667 128.488,39.768 C128.365333,40.0453333 128.184,40.2906667 127.944,40.504 C127.704,40.7173333 127.405333,40.8853333 127.048,41.008 C126.690667,41.1306667 126.282667,41.192 125.824,41.192 C125.269333,41.192 124.741333,41.0906667 124.24,40.888 C123.738667,40.6853333 123.301333,40.4293333 122.928,40.12 L122.928,40.12 L123.584,39.24 L123.78976,39.4 C124.065387,39.6048 124.346133,39.7754667 124.632,39.912 C124.989333,40.0826667 125.402667,40.168 125.872,40.168 C126.384,40.168 126.768,40.0506667 127.024,39.816 C127.28,39.5813333 127.408,39.2933333 127.408,38.952 C127.408,38.7493333 127.354667,38.5733333 127.248,38.424 C127.141333,38.2746667 127.005333,38.144 126.84,38.032 C126.674667,37.92 126.485333,37.8213333 126.272,37.736 L126.272,37.736 L125.632,37.48 C125.354667,37.384 125.077333,37.2746667 124.8,37.152 C124.522667,37.0293333 124.274667,36.88 124.056,36.704 C123.837333,36.528 123.658667,36.3226667 123.52,36.088 C123.381333,35.8533333 123.312,35.5706667 123.312,35.24 C123.312,34.9306667 123.373333,34.64 123.496,34.368 C123.618667,34.096 123.794667,33.8613333 124.024,33.664 C124.253333,33.4666667 124.533333,33.312 124.864,33.2 C125.194667,33.088 125.568,33.032 125.984,33.032 Z M138.656,33.032 C139.146667,33.032 139.586667,33.1173333 139.976,33.288 C140.365333,33.4586667 140.690667,33.704 140.952,34.024 C141.213333,34.344 141.413333,34.728 141.552,35.176 C141.690667,35.624 141.76,36.1253333 141.76,36.68 C141.76,36.968 141.744,37.208 141.712,37.4 L141.712,37.4 L136.464,37.4 L136.48616,37.64752 C136.57112,38.37424 136.8224,38.9584 137.24,39.4 C137.704,39.8906667 138.309333,40.136 139.056,40.136 C139.429333,40.136 139.773333,40.08 140.088,39.968 C140.402667,39.856 140.704,39.7093333 140.992,39.528 L140.992,39.528 L141.456,40.392 L141.193,40.547 C140.923,40.697 140.632,40.832 140.32,40.952 C139.904,41.112 139.429333,41.192 138.896,41.192 C138.373333,41.192 137.885333,41.0986667 137.432,40.912 C136.978667,40.7253333 136.584,40.4586667 136.248,40.112 C135.912,39.7653333 135.648,39.3413333 135.456,38.84 C135.264,38.3386667 135.168,37.768 135.168,37.128 C135.168,36.488 135.266667,35.9146667 135.464,35.408 C135.661333,34.9013333 135.922667,34.472 136.248,34.12 C136.573333,33.768 136.944,33.4986667 137.36,33.312 C137.776,33.1253333 138.208,33.032 138.656,33.032 Z M132.048,31.048 L132.048,33.224 L134.144,33.224 L134.144,34.296 L132.048,34.296 L132.048,38.616 L132.053388,38.8150204 C132.074939,39.1996735 132.161143,39.504 132.312,39.728 C132.488,39.9893333 132.8,40.12 133.248,40.12 C133.386667,40.12 133.536,40.0986667 133.696,40.056 C133.856,40.0133333 134,39.9653333 134.128,39.912 L134.128,39.912 L134.384,40.904 L134.164444,40.976 C134.013926,41.0222222 133.855111,41.0648889 133.688,41.104 C133.437333,41.1626667 133.189333,41.192 132.944,41.192 C132.528,41.192 132.178667,41.128 131.896,41 C131.613333,40.872 131.384,40.696 131.208,40.472 C131.032,40.248 130.906667,39.976 130.832,39.656 C130.757333,39.336 130.72,38.984 130.72,38.6 L130.72,38.6 L130.72,34.296 L129.568,34.296 L129.568,33.304 L130.784,33.224 L130.944,31.048 L132.048,31.048 Z M72.064,33.032 C72.5546667,33.032 72.9946667,33.1173333 73.384,33.288 C73.7733333,33.4586667 74.0986667,33.704 74.36,34.024 C74.6213333,34.344 74.8213333,34.728 74.96,35.176 C75.0986667,35.624 75.168,36.1253333 75.168,36.68 C75.168,36.968 75.152,37.208 75.12,37.4 L75.12,37.4 L69.872,37.4 L69.89416,37.64752 C69.97912,38.37424 70.2304,38.9584 70.648,39.4 C71.112,39.8906667 71.7173333,40.136 72.464,40.136 C72.8373333,40.136 73.1813333,40.08 73.496,39.968 C73.8106667,39.856 74.112,39.7093333 74.4,39.528 L74.4,39.528 L74.864,40.392 L74.601,40.547 C74.331,40.697 74.04,40.832 73.728,40.952 C73.312,41.112 72.8373333,41.192 72.304,41.192 C71.7813333,41.192 71.2933333,41.0986667 70.84,40.912 C70.3866667,40.7253333 69.992,40.4586667 69.656,40.112 C69.32,39.7653333 69.056,39.3413333 68.864,38.84 C68.672,38.3386667 68.576,37.768 68.576,37.128 C68.576,36.488 68.6746667,35.9146667 68.872,35.408 C69.0693333,34.9013333 69.3306667,34.472 69.656,34.12 C69.9813333,33.768 70.352,33.4986667 70.768,33.312 C71.184,33.1253333 71.616,33.032 72.064,33.032 Z M110.944,30.312 C111.573333,30.312 112.154667,30.432 112.688,30.672 C113.221333,30.912 113.674667,31.224 114.048,31.608 L114.048,31.608 L113.328,32.472 L113.13184,32.2944 C112.864747,32.0682667 112.575467,31.8848 112.264,31.744 C111.874667,31.568 111.434667,31.48 110.944,31.48 C110.357333,31.48 109.885333,31.616 109.528,31.888 C109.170667,32.16 108.992,32.536 108.992,33.016 C108.992,33.272 109.042667,33.488 109.144,33.664 C109.245333,33.84 109.381333,33.9946667 109.552,34.128 C109.722667,34.2613333 109.909333,34.3786667 110.112,34.48 C110.314667,34.5813333 110.522667,34.6746667 110.736,34.76 L110.736,34.76 L112.224,35.4 L112.517333,35.5342222 C112.709333,35.6278519 112.894222,35.7297778 113.072,35.84 C113.338667,36.0053333 113.568,36.1973333 113.76,36.416 C113.952,36.6346667 114.104,36.8906667 114.216,37.184 C114.328,37.4773333 114.384,37.816 114.384,38.2 C114.384,38.616 114.301333,39.0053333 114.136,39.368 C113.970667,39.7306667 113.733333,40.048 113.424,40.32 C113.114667,40.592 112.741333,40.8053333 112.304,40.96 C111.866667,41.1146667 111.370667,41.192 110.816,41.192 C110.08,41.192 109.397333,41.0533333 108.768,40.776 C108.138667,40.4986667 107.594667,40.12 107.136,39.64 L107.136,39.64 L107.936,38.712 L108.128222,38.9028889 C108.457852,39.2102963 108.833778,39.464 109.256,39.664 C109.762667,39.904 110.288,40.024 110.832,40.024 C111.525333,40.024 112.064,39.8666667 112.448,39.552 C112.832,39.2373333 113.024,38.824 113.024,38.312 C113.024,38.0453333 112.978667,37.8186667 112.888,37.632 C112.797333,37.4453333 112.674667,37.2853333 112.52,37.152 C112.365333,37.0186667 112.181333,36.8986667 111.968,36.792 C111.754667,36.6853333 111.525333,36.5733333 111.28,36.456 L111.28,36.456 L109.776,35.8 L109.528889,35.6862222 C109.362963,35.6056296 109.194667,35.5155556 109.024,35.416 C108.768,35.2666667 108.538667,35.0853333 108.336,34.872 C108.133333,34.6586667 107.968,34.4053333 107.84,34.112 C107.712,33.8186667 107.648,33.48 107.648,33.096 C107.648,32.7013333 107.730667,32.3333333 107.896,31.992 C108.061333,31.6506667 108.290667,31.3546667 108.584,31.104 C108.877333,30.8533333 109.224,30.6586667 109.624,30.52 C110.024,30.3813333 110.464,30.312 110.944,30.312 Z M79.28,33.032 C79.7706667,33.032 80.2213333,33.1173333 80.632,33.288 C81.0426667,33.4586667 81.3973333,33.6666667 81.696,33.912 L81.696,33.912 L81.072,34.744 L80.87,34.599 C80.666,34.461 80.456,34.344 80.24,34.248 C79.952,34.12 79.6373333,34.056 79.296,34.056 C78.8053333,34.056 78.4453333,34.168 78.216,34.392 C77.9866667,34.616 77.872,34.8773333 77.872,35.176 C77.872,35.3573333 77.92,35.5146667 78.016,35.648 C78.112,35.7813333 78.24,35.8986667 78.4,36 C78.56,36.1013333 78.744,36.192 78.952,36.272 C79.16,36.352 79.376,36.4346667 79.6,36.52 C79.8773333,36.6266667 80.1573333,36.7386667 80.44,36.856 C80.7226667,36.9733333 80.976,37.12 81.2,37.296 C81.424,37.472 81.608,37.688 81.752,37.944 C81.896,38.2 81.968,38.5093333 81.968,38.872 C81.968,39.192 81.9066667,39.4906667 81.784,39.768 C81.6613333,40.0453333 81.48,40.2906667 81.24,40.504 C81,40.7173333 80.7013333,40.8853333 80.344,41.008 C79.9866667,41.1306667 79.5786667,41.192 79.12,41.192 C78.5653333,41.192 78.0373333,41.0906667 77.536,40.888 C77.0346667,40.6853333 76.5973333,40.4293333 76.224,40.12 L76.224,40.12 L76.88,39.24 L77.08576,39.4 C77.3613867,39.6048 77.6421333,39.7754667 77.928,39.912 C78.2853333,40.0826667 78.6986667,40.168 79.168,40.168 C79.68,40.168 80.064,40.0506667 80.32,39.816 C80.576,39.5813333 80.704,39.2933333 80.704,38.952 C80.704,38.7493333 80.6506667,38.5733333 80.544,38.424 C80.4373333,38.2746667 80.3013333,38.144 80.136,38.032 C79.9706667,37.92 79.7813333,37.8213333 79.568,37.736 L79.568,37.736 L78.928,37.48 C78.6506667,37.384 78.3733333,37.2746667 78.096,37.152 C77.8186667,37.0293333 77.5706667,36.88 77.352,36.704 C77.1333333,36.528 76.9546667,36.3226667 76.816,36.088 C76.6773333,35.8533333 76.608,35.5706667 76.608,35.24 C76.608,34.9306667 76.6693333,34.64 76.792,34.368 C76.9146667,34.096 77.0906667,33.8613333 77.32,33.664 C77.5493333,33.4666667 77.8293333,33.312 78.16,33.2 C78.4906667,33.088 78.864,33.032 79.28,33.032 Z M62.064,30.504 L62.3634375,30.50925 C63.8378125,30.56175 64.97,31.008 65.76,31.848 C66.6026667,32.744 67.024,34.0293333 67.024,35.704 C67.024,36.536 66.9173333,37.28 66.704,37.936 C66.4906667,38.592 66.176,39.1466667 65.76,39.6 C65.344,40.0533333 64.832,40.4 64.224,40.64 C63.616,40.88 62.9173333,41 62.128,41 L62.128,41 L59.44,41 L59.44,30.504 L62.064,30.504 Z M99.648,33.032 C100.469333,33.032 101.069333,33.288 101.448,33.8 C101.826667,34.312 102.016,35.0693333 102.016,36.072 L102.016,36.072 L102.016,41 L100.704,41 L100.704,36.248 L100.699654,36.0102716 C100.676477,35.3966091 100.560593,34.9451852 100.352,34.656 C100.117333,34.3306667 99.744,34.168 99.232,34.168 C98.8266667,34.168 98.4693333,34.2693333 98.16,34.472 C97.8506667,34.6746667 97.4986667,34.9733333 97.104,35.368 L97.104,35.368 L97.104,41 L95.792,41 L95.792,33.224 L96.88,33.224 L96.992,34.344 L97.04,34.344 L97.26624,34.12736 C97.57088,33.84832 97.8874667,33.6085333 98.216,33.408 C98.6266667,33.1573333 99.104,33.032 99.648,33.032 Z M85.104,33.224 L85.104,41 L83.792,41 L83.792,33.224 L85.104,33.224 Z M152.048,33.032 C152.848,33.032 153.442667,33.288 153.832,33.8 C154.221333,34.312 154.416,35.0693333 154.416,36.072 L154.416,36.072 L154.416,41 L153.104,41 L153.104,36.248 L153.099654,36.0102716 C153.076477,35.3966091 152.960593,34.9451852 152.752,34.656 C152.517333,34.3306667 152.154667,34.168 151.664,34.168 C151.077333,34.168 150.426667,34.568 149.712,35.368 L149.712,35.368 L149.712,41 L148.4,41 L148.4,36.248 L148.395654,36.0102716 C148.372477,35.3966091 148.256593,34.9451852 148.048,34.656 C147.813333,34.3306667 147.445333,34.168 146.944,34.168 C146.357333,34.168 145.706667,34.568 144.992,35.368 L144.992,35.368 L144.992,41 L143.68,41 L143.68,33.224 L144.768,33.224 L144.88,34.344 L144.928,34.344 L145.13632,34.12736 C145.418773,33.84832 145.72,33.6085333 146.04,33.408 C146.44,33.1573333 146.874667,33.032 147.344,33.032 C147.941333,33.032 148.408,33.1626667 148.744,33.424 C149.08,33.6853333 149.328,34.0506667 149.488,34.52 C149.893333,34.072 150.301333,33.712 150.712,33.44 C151.122667,33.168 151.568,33.032 152.048,33.032 Z M61.968,31.592 L60.768,31.592 L60.768,39.912 L61.968,39.912 C63.1946667,39.912 64.1146667,39.544 64.728,38.808 C65.3413333,38.072 65.648,37.0373333 65.648,35.704 C65.648,34.3706667 65.3413333,33.352 64.728,32.648 C64.1146667,31.944 63.1946667,31.592 61.968,31.592 L61.968,31.592 Z M90.352,33.992 C89.8933333,33.992 89.504,34.1493333 89.184,34.464 C88.864,34.7786667 88.704,35.224 88.704,35.8 C88.704,36.088 88.7466667,36.3466667 88.832,36.576 C88.9173333,36.8053333 89.0373333,37 89.192,37.16 C89.3466667,37.32 89.5226667,37.4426667 89.72,37.528 C89.9173333,37.6133333 90.128,37.656 90.352,37.656 C90.576,37.656 90.7866667,37.6133333 90.984,37.528 C91.1813333,37.4426667 91.3573333,37.32 91.512,37.16 C91.6666667,37 91.7866667,36.8053333 91.872,36.576 C91.9573333,36.3466667 92,36.088 92,35.8 C92,35.224 91.84,34.7786667 91.52,34.464 C91.2,34.1493333 90.8106667,33.992 90.352,33.992 Z M72.096,34.072 C71.8186667,34.072 71.5546667,34.128 71.304,34.24 C71.0533333,34.352 70.8266667,34.512 70.624,34.72 C70.4213333,34.928 70.2533333,35.184 70.12,35.488 C69.9866667,35.792 69.8986667,36.1413333 69.856,36.536 L69.856,36.536 L74.016,36.536 C74.016,35.736 73.848,35.1253333 73.512,34.704 C73.176,34.2826667 72.704,34.072 72.096,34.072 Z M138.688,34.072 C138.410667,34.072 138.146667,34.128 137.896,34.24 C137.645333,34.352 137.418667,34.512 137.216,34.72 C137.013333,34.928 136.845333,35.184 136.712,35.488 C136.578667,35.792 136.490667,36.1413333 136.448,36.536 L136.448,36.536 L140.608,36.536 C140.608,35.736 140.44,35.1253333 140.104,34.704 C139.768,34.2826667 139.296,34.072 138.688,34.072 Z M84.464,29.928 C84.72,29.928 84.936,30.0053333 85.112,30.16 C85.288,30.3146667 85.376,30.52 85.376,30.776 C85.376,31.0213333 85.288,31.224 85.112,31.384 C84.936,31.544 84.72,31.624 84.464,31.624 C84.208,31.624 83.992,31.544 83.816,31.384 C83.64,31.224 83.552,31.0213333 83.552,30.776 C83.552,30.52 83.64,30.3146667 83.816,30.16 C83.992,30.0053333 84.208,29.928 84.464,29.928 Z M98.536,7.382 L98.536,17.336 L98.54025,17.467 C98.5544167,17.6736667 98.604,17.822 98.689,17.912 C98.791,18.02 98.896,18.074 99.004,18.074 L99.004,18.074 L99.157,18.074 L99.204,18.07 C99.2386667,18.0646667 99.28,18.054 99.328,18.038 L99.328,18.038 L99.652,20 L99.5366875,20.0433125 C99.4140625,20.0849375 99.2695,20.1215 99.103,20.153 C98.881,20.195 98.62,20.216 98.32,20.216 C97.864,20.216 97.48,20.144 97.168,20 C96.856,19.856 96.607,19.655 96.421,19.397 C96.235,19.139 96.1,18.827 96.016,18.461 C95.932,18.095 95.89,17.684 95.89,17.228 L95.89,17.228 L95.89,7.382 L98.536,7.382 Z M90.076,10.856 C91.228,10.856 92.107,11.183 92.713,11.837 C93.319,12.491 93.622,13.508 93.622,14.888 L93.622,14.888 L93.622,20 L91.462,20 L91.264,19.082 L91.21,19.082 L90.97708,19.27604 C90.66316,19.52468 90.3358,19.733 89.995,19.901 C89.569,20.111 89.104,20.216 88.6,20.216 C88.192,20.216 87.826,20.147 87.502,20.009 C87.178,19.871 86.902,19.679 86.674,19.433 C86.446,19.187 86.269,18.902 86.143,18.578 C86.017,18.254 85.954,17.9 85.954,17.516 C85.954,16.58 86.35,15.848 87.142,15.32 C87.934,14.792 89.212,14.438 90.976,14.258 C90.952,13.862 90.832,13.547 90.616,13.313 C90.4,13.079 90.052,12.962 89.572,12.962 C89.188,12.962 88.804,13.034 88.42,13.178 C88.036,13.322 87.628,13.52 87.196,13.772 L87.196,13.772 L86.26,12.026 L86.60884,11.82512 C87.07828,11.56784 87.565,11.3528 88.069,11.18 C88.699,10.964 89.368,10.856 90.076,10.856 Z M73.48,10.856 C74.044,10.856 74.587,10.961 75.109,11.171 C75.631,11.381 76.093,11.684 76.495,12.08 C76.897,12.476 77.218,12.965 77.458,13.547 C77.698,14.129 77.818,14.792 77.818,15.536 C77.818,16.28 77.698,16.943 77.458,17.525 C77.218,18.107 76.897,18.596 76.495,18.992 C76.093,19.388 75.631,19.691 75.109,19.901 C74.587,20.111 74.044,20.216 73.48,20.216 C72.916,20.216 72.37,20.111 71.842,19.901 C71.314,19.691 70.849,19.388 70.447,18.992 C70.045,18.596 69.724,18.107 69.484,17.525 C69.244,16.943 69.124,16.28 69.124,15.536 C69.124,14.792 69.244,14.129 69.484,13.547 C69.724,12.965 70.045,12.476 70.447,12.08 C70.849,11.684 71.314,11.381 71.842,11.171 C72.37,10.961 72.916,10.856 73.48,10.856 Z M64.426,8.048 C65.158,8.048 65.821,8.201 66.415,8.507 C67.009,8.813 67.504,9.17 67.9,9.578 L67.9,9.578 L66.442,11.216 L66.26164,11.0576 C66.02068,10.856 65.7778,10.6928 65.533,10.568 C65.227,10.412 64.87,10.334 64.462,10.334 C64.054,10.334 63.673,10.421 63.319,10.595 C62.965,10.769 62.656,11.018 62.392,11.342 C62.128,11.666 61.921,12.062 61.771,12.53 C61.621,12.998 61.546,13.526 61.546,14.114 C61.546,15.326 61.804,16.265 62.32,16.931 C62.836,17.597 63.526,17.93 64.39,17.93 C64.87,17.93 65.29,17.834 65.65,17.642 C66.01,17.45 66.334,17.198 66.622,16.886 L66.622,16.886 L68.08,18.488 L67.8922656,18.69725 C67.4466719,19.16975 66.94825,19.532 66.397,19.784 C65.767,20.072 65.086,20.216 64.354,20.216 C63.598,20.216 62.884,20.087 62.212,19.829 C61.54,19.571 60.952,19.19 60.448,18.686 C59.944,18.182 59.548,17.555 59.26,16.805 C58.972,16.055 58.828,15.188 58.828,14.204 C58.828,13.232 58.978,12.365 59.278,11.603 C59.578,10.841 59.983,10.196 60.493,9.668 C61.003,9.14 61.597,8.738 62.275,8.462 C62.953,8.186 63.67,8.048 64.426,8.048 Z M84.586,10.856 C84.838,10.856 85.045,10.871 85.207,10.901 C85.369,10.931 85.516,10.976 85.648,11.036 L85.648,11.036 L85.216,13.322 L85.052,13.278 C84.9453333,13.2513333 84.844,13.23 84.748,13.214 C84.604,13.19 84.436,13.178 84.244,13.178 C83.908,13.178 83.557,13.298 83.191,13.538 C82.825,13.778 82.522,14.204 82.282,14.816 L82.282,14.816 L82.282,20 L79.636,20 L79.636,11.072 L81.796,11.072 L81.976,12.638 L82.048,12.638 L82.1725938,12.4160938 C82.4705313,11.9160313 82.819,11.54 83.218,11.288 C83.674,11 84.13,10.856 84.586,10.856 Z M90.976,15.842 L90.7247438,15.8794876 C89.9115207,16.009405 89.3412727,16.1889091 89.014,16.418 C88.654,16.67 88.474,16.97 88.474,17.318 C88.474,17.606 88.567,17.819 88.753,17.957 C88.939,18.095 89.188,18.164 89.5,18.164 C89.812,18.164 90.076,18.098 90.292,17.966 C90.508,17.834 90.736,17.648 90.976,17.408 L90.976,17.408 L90.976,15.842 Z M73.48,12.998 C72.928,12.998 72.517,13.226 72.247,13.682 C71.977,14.138 71.842,14.756 71.842,15.536 C71.842,16.316 71.977,16.934 72.247,17.39 C72.517,17.846 72.928,18.074 73.48,18.074 C74.02,18.074 74.428,17.846 74.704,17.39 C74.98,16.934 75.118,16.316 75.118,15.536 C75.118,14.756 74.98,14.138 74.704,13.682 C74.428,13.226 74.02,12.998 73.48,12.998 Z"/>
        <circle cx="24" cy="24" r="23.75" fill="white"/>
        <path fill="url(#coral_ds-logo-a)" d="M24,0 C37.254834,0 48,10.6742857 48,23.8416845 C48,37.0090833 37.254834,47.683369 24,47.683369 C23.8513852,47.683369 23.7030859,47.6820271 23.5551137,47.6793549 C23.6052634,46.2728186 23.5872813,44.2837232 23.5787201,43.38178 L23.5787201,43.38178 L23.5759194,42.9026963 C23.738362,39.0931032 25.785233,37.8127772 28.3773139,36.1895232 C29.4882723,35.4948979 30.6356404,34.7776569 31.6504402,33.796412 C31.8408903,33.6113325 32.120497,33.5490239 32.37303,33.6348713 C33.4242395,33.9874917 34.4306372,34.1522633 35.4487046,34.1379554 C36.1512224,34.1296476 36.7151039,33.5568701 36.7058824,32.8622448 C36.7011002,32.5257785 36.5643309,32.2105432 36.3197334,31.9760783 C36.0770029,31.7420749 35.7553851,31.61515 35.4150957,31.6188424 C35.079941,31.6234578 34.7037089,31.5906881 34.2976022,31.522841 C34.0852131,31.4873021 33.9008313,31.358531 33.7962705,31.1720668 C33.6935769,30.985141 33.6805068,30.7635994 33.7621949,30.5660581 C33.9227704,30.181591 34.0730766,29.7195844 34.2373864,29.1121911 C34.3260764,28.7863403 34.2798642,28.4475662 34.1094861,28.1567928 C33.9386413,27.8650963 33.6637024,27.6569395 33.3355495,27.570169 C32.6573047,27.3910896 31.9571208,27.790326 31.7760066,28.4623357 C31.6868498,28.7914173 31.5981598,29.0734213 31.5043352,29.3245019 C30.809286,31.6848433 29.050424,32.7860899 27.0156895,34.0608774 C26.5941788,34.3244196 26.1581976,34.5971927 25.7236168,34.8893508 C25.4757517,35.0564301 25.1485324,35.0508915 24.9067356,34.8755044 C24.6649388,34.7001173 24.560378,34.3931898 24.646734,34.1098011 C25.5065598,31.2819145 26.666998,29.2243466 27.8946537,27.0453923 C29.4453277,24.2950452 31.0501492,21.4496199 31.9725248,17.1004807 C32.0416097,16.7700144 32.3394212,16.5369342 32.6797106,16.5443189 C33.8051395,16.5683192 34.8269413,16.422471 35.8048648,16.0984663 C36.4705063,15.8783093 36.8313344,15.163376 36.6091427,14.5038281 C36.3855506,13.8452033 35.6620273,13.4893521 34.9954522,13.7090475 C34.4717146,13.8821269 33.899431,13.9864361 33.296806,14.0168981 C33.0909519,14.0265905 32.8916329,13.949051 32.7492622,13.8018181 C32.6064247,13.6536621 32.5364063,13.45289 32.5560114,13.2498102 C32.6218287,12.5907238 32.672242,11.9094833 32.7072512,11.225012 C32.7245224,10.8885456 32.610159,10.5668487 32.381899,10.3162297 C32.1541059,10.0660723 31.8408903,9.9197625 31.5015345,9.90314688 C31.1612451,9.88514662 30.8349594,9.9996098 30.5828932,10.2248438 C30.3294266,10.4500778 30.1805208,10.759313 30.1627828,11.0957793 C30.049353,13.2738105 29.7949529,15.203992 29.3846451,16.9947869 C29.3248961,17.2583291 29.1157745,17.4604858 28.8492378,17.5204867 C28.5827011,17.5795645 28.3040279,17.4803323 28.1350502,17.2689446 L28.1350502,17.2689446 L27.5436282,16.5267802 C26.7108761,15.4906115 25.9915539,14.5961371 25.4981576,13.5867381 L25.4981576,13.5867381 L25.4888218,13.5687378 C25.4888218,13.5687378 25.4878882,13.565507 25.4869547,13.5636608 C25.2768995,13.1298085 24.8269146,12.8491891 24.3405202,12.8491891 C23.6412699,12.8491891 23.0708534,13.412274 23.0708534,14.1050532 C23.0708534,14.2993637 23.113798,14.4858279 23.200154,14.6584457 C23.2043551,14.6681382 23.209023,14.6782922 23.2132241,14.6893692 C23.8485243,15.9798493 24.7125513,17.0543262 25.5481041,18.0937257 C26.4139982,19.1691257 27.2299458,20.1849864 27.7303439,21.3365413 C27.7676871,21.4260811 27.787759,21.5193132 27.787759,21.6139299 C27.787759,21.7113159 27.7667535,21.8100866 27.7261428,21.9005494 C27.0894422,23.3013387 26.3663857,24.5816647 25.6685357,25.8199901 C24.4558172,27.9703286 23.2020212,30.1963605 22.2815127,33.1294794 C22.192356,33.4096373 21.9360887,33.6048708 21.6396775,33.6196403 C21.3413991,33.6344097 21.066927,33.4627149 20.9511633,33.191788 L20.9511633,33.191788 L20.2145698,31.466071 C19.892952,30.7105217 19.892952,30.7105217 19.886417,30.6915984 C18.7824603,27.7672488 20.2612487,25.5135242 22.026179,23.5150341 C22.4864332,22.991642 22.4327524,22.1940921 21.9029466,21.737624 C21.6462125,21.5160824 21.3189932,21.4071577 20.9787039,21.430235 C20.6402816,21.4523891 20.3289332,21.6042375 20.1053411,21.8594719 C19.616146,22.4151722 19.2520503,22.8605632 18.9276318,23.3036464 C18.7549198,23.5358036 18.4599089,23.641959 18.1789018,23.5718041 C17.8969611,23.5002646 17.6883063,23.2676459 17.6500295,22.9828726 C17.4049652,21.0942302 17.3428822,19.0712781 17.4614467,16.8000148 C17.4787179,16.4630869 17.3629541,16.1400054 17.1360946,15.8912326 C16.9087682,15.6406136 16.5955526,15.4938423 16.2552632,15.4772267 C15.5541457,15.4407646 14.9533879,15.9761569 14.9179119,16.6698591 C14.4987352,24.6961279 16.3075436,28.8652645 18.0570698,32.8963991 C18.683501,34.3410352 19.3309377,35.8350566 19.8504742,37.4901572 C19.9340295,37.7578534 19.848607,38.0490883 19.6324836,38.2309371 C19.4163602,38.4118627 19.11108,38.4478632 18.8566798,38.3227845 C18.4445049,38.1183201 18.0285956,37.9313943 17.6612325,37.7661612 C15.495797,36.7918395 13.7845476,36.023367 13.2584761,33.1507105 C13.1963931,32.8197827 13.0106109,32.5317785 12.7305374,32.3406989 C12.4504638,32.1486961 12.1115748,32.0762336 11.7768869,32.1362344 C11.4412654,32.1966968 11.1504557,32.3822379 10.9572049,32.659165 C10.8068988,32.8719373 10.7294118,33.1193254 10.7294118,33.3731752 C10.7294118,33.4488686 10.7368804,33.524562 10.7504173,33.6011785 C10.9716754,34.8035034 11.3628448,35.8129024 11.947265,36.6875303 C11.9505325,36.6902996 11.9523997,36.6949151 11.9570676,36.6995305 C12.5517571,37.6300054 14.4907997,39.1766429 16.5885507,40.053117 C18.7628552,40.9623608 20.9922407,42.2371483 21.0277167,44.7908771 C21.0277167,44.7908771 21.0267832,44.8139544 21.0258496,44.8361085 C21.0267832,44.840724 21.0277167,44.8476472 21.0277167,44.8499549 C21.0375193,45.230268 21.0440544,45.6055042 21.0440544,45.9793557 C21.0440544,46.6555192 21.0258496,47.3238365 20.9913072,48 L21.0130085,47.5005204 C9.16777668,46.0397049 0,36.0042568 0,23.8416845 C0,10.6742857 10.745166,0 24,0 Z"/>
    </g>
</svg>
