<svg xmlns="http://www.w3.org/2000/svg"  viewBox="0 0 85 85">
    <defs>
        <radialGradient id="coral_ds-logo-a" cx="2.906%" cy="4.695%" r="133.775%" fx="2.906%" fy="4.695%">
            <stop offset="0%" stop-color="#B8464B"/>
            <stop offset="28.858%" stop-color="#E96065"/>
            <stop offset="60.182%" stop-color="#A9424C"/>
            <stop offset="100%" stop-color="#2C1F56"/>
        </radialGradient>
    </defs>
    <path fill="url(#coral_ds-logo-a)" fill-rule="evenodd" d="M112.5,41 C135.972102,41 155,60.0278981 155,83.5 C155,102.858288 142.057423,119.193675 124.353384,124.325048 C126.080117,121.918778 128.261184,115.125066 128.879233,113.022682 C130.795241,106.039553 133.121823,106.724174 139.143564,102.753375 C139.41728,102.479527 139.827853,102.205679 139.827853,101.931831 C139.827853,101.657982 139.690995,101.521058 139.554137,101.384134 C137.911844,98.9195006 136.132694,96.3179429 133.121823,95.2225501 C132.026961,94.8117778 130.932099,94.8117778 129.700379,95.085626 C129.426664,95.2225501 129.152948,95.2225501 128.879233,95.4963983 C128.605517,95.7702465 128.46866,96.0440947 128.331802,96.454867 C126.689509,100.836438 126.552651,101.384134 125.731505,101.657982 C124.910358,101.931831 124.226069,100.973362 123.952354,100.151817 C123.268065,97.961032 123.131207,95.4963983 123.815496,93.1686887 C125.184074,87.691725 130.110953,83.8578504 134.627258,80.5716722 L139.41728,77.0116457 C140.331738,76.3581444 140.622702,75.0808463 140.05211,74.1324592 L139.964711,73.9993157 L139.964711,73.9993157 C138.18556,71.534682 136.132694,69.0700483 133.121823,67.8377315 C131.342672,67.153111 128.46866,66.8792629 127.100082,68.1115797 C125.868362,69.2069724 125.184074,72.4931507 125.047216,74.1362398 C124.7735,76.1901012 120.257195,77.422418 122.036345,70.5762134 C124.362927,62.0869196 124.7735,62.2238437 121.488914,61.5392232 C113.82488,60.0330582 114.509169,60.1699823 107.803139,62.3607678 C106.708277,62.7715401 105.3397,62.9084642 104.792269,64.0038569 C104.244838,65.2361737 105.065984,66.4684906 105.750273,67.5638833 C109.171717,73.040847 110.677152,79.4762794 112.182587,85.7747877 C113.688023,92.4840683 106.845135,90.4302069 106.57142,84.816319 C106.57142,83.7209263 106.57142,82.6255336 105.887131,81.9409131 C105.476558,81.5301408 104.792269,81.5301408 104.244838,81.5301408 C99.8653899,81.3932167 95.6227996,84.4055468 94.2542221,88.5132696 C94.1173644,89.0609659 93.9805066,89.6086623 94.1173644,90.1563587 C94.2542221,90.704055 94.8016531,90.9779032 95.2122264,91.2517514 C97.9493814,93.1686887 100.686536,95.2225501 103.423691,97.1394874 C104.655411,98.5087283 102.328829,101.24721 99.7285321,99.0564247 C97.5388081,97.2764115 96.7176616,93.4425369 93.9805066,93.1686887 C93.2962179,93.0317646 92.6119291,93.1686887 91.9276404,93.4425369 C88.9167699,94.6748537 87.5481924,97.961032 86.3164727,100.973362 C85.9058994,101.931831 85.6321839,102.890299 85.6321839,103.848768 C85.9058994,104.807237 86.8639037,105.902629 88.0956234,106.58725 C91.2433516,108.367263 111.087725,109.59958 116.835751,124.387382 C116.972609,124.798154 117.246324,125.345851 117.656897,125.619699 C117.682654,125.639025 117.715681,125.658352 117.755423,125.677479 C116.03517,125.890527 114.280369,126 112.5,126 C89.0278981,126 70,106.972102 70,83.5 C70,60.0278981 89.0278981,41 112.5,41 Z" transform="translate(-70 -41)"/>
</svg>
