<svg xmlns="http://www.w3.org/2000/svg" viewBox="0 0 156 48">
    <defs>
        <radialGradient id="coral_logo-full-a" cx="2.906%" cy="4.695%" r="133.775%" fx="2.906%" fy="4.695%">
            <stop offset="0%" stop-color="#B8464B"/>
            <stop offset="28.858%" stop-color="#E96065"/>
            <stop offset="60.182%" stop-color="#A9424C"/>
            <stop offset="100%" stop-color="#2C1F56"/>
        </radialGradient>
    </defs>
    <g fill="none" fill-rule="evenodd">
        <text fill="#323E48" font-family="SourceSansPro-Bold, Source Sans Pro" font-size="18" font-weight="bold">
            <tspan x="58" y="20">Coral </tspan>
        </text>
        <text fill="#323E48" font-family="SourceSansPro-Regular, Source Sans Pro" font-size="16">
            <tspan x="58" y="41">Design System</tspan>
        </text>
        <path fill="url(#coral_logo-full-a)" d="M24,0 C37.254834,0 48,10.6742857 48,23.8416845 C48,37.0090833 37.254834,47.683369 24,47.683369 C23.8513852,47.683369 23.7030859,47.6820271 23.5551137,47.6793549 C23.6052634,46.2728186 23.5872813,44.2837232 23.5787201,43.38178 L23.5787201,43.38178 L23.5759194,42.9026963 C23.738362,39.0931032 25.785233,37.8127772 28.3773139,36.1895232 C29.4882723,35.4948979 30.6356404,34.7776569 31.6504402,33.796412 C31.8408903,33.6113325 32.120497,33.5490239 32.37303,33.6348713 C33.4242395,33.9874917 34.4306372,34.1522633 35.4487046,34.1379554 C36.1512224,34.1296476 36.7151039,33.5568701 36.7058824,32.8622448 C36.7011002,32.5257785 36.5643309,32.2105432 36.3197334,31.9760783 C36.0770029,31.7420749 35.7553851,31.61515 35.4150957,31.6188424 C35.079941,31.6234578 34.7037089,31.5906881 34.2976022,31.522841 C34.0852131,31.4873021 33.9008313,31.358531 33.7962705,31.1720668 C33.6935769,30.985141 33.6805068,30.7635994 33.7621949,30.5660581 C33.9227704,30.181591 34.0730766,29.7195844 34.2373864,29.1121911 C34.3260764,28.7863403 34.2798642,28.4475662 34.1094861,28.1567928 C33.9386413,27.8650963 33.6637024,27.6569395 33.3355495,27.570169 C32.6573047,27.3910896 31.9571208,27.790326 31.7760066,28.4623357 C31.6868498,28.7914173 31.5981598,29.0734213 31.5043352,29.3245019 C30.809286,31.6848433 29.050424,32.7860899 27.0156895,34.0608774 C26.5941788,34.3244196 26.1581976,34.5971927 25.7236168,34.8893508 C25.4757517,35.0564301 25.1485324,35.0508915 24.9067356,34.8755044 C24.6649388,34.7001173 24.560378,34.3931898 24.646734,34.1098011 C25.5065598,31.2819145 26.666998,29.2243466 27.8946537,27.0453923 C29.4453277,24.2950452 31.0501492,21.4496199 31.9725248,17.1004807 C32.0416097,16.7700144 32.3394212,16.5369342 32.6797106,16.5443189 C33.8051395,16.5683192 34.8269413,16.422471 35.8048648,16.0984663 C36.4705063,15.8783093 36.8313344,15.163376 36.6091427,14.5038281 C36.3855506,13.8452033 35.6620273,13.4893521 34.9954522,13.7090475 C34.4717146,13.8821269 33.899431,13.9864361 33.296806,14.0168981 C33.0909519,14.0265905 32.8916329,13.949051 32.7492622,13.8018181 C32.6064247,13.6536621 32.5364063,13.45289 32.5560114,13.2498102 C32.6218287,12.5907238 32.672242,11.9094833 32.7072512,11.225012 C32.7245224,10.8885456 32.610159,10.5668487 32.381899,10.3162297 C32.1541059,10.0660723 31.8408903,9.9197625 31.5015345,9.90314688 C31.1612451,9.88514662 30.8349594,9.9996098 30.5828932,10.2248438 C30.3294266,10.4500778 30.1805208,10.759313 30.1627828,11.0957793 C30.049353,13.2738105 29.7949529,15.203992 29.3846451,16.9947869 C29.3248961,17.2583291 29.1157745,17.4604858 28.8492378,17.5204867 C28.5827011,17.5795645 28.3040279,17.4803323 28.1350502,17.2689446 L28.1350502,17.2689446 L27.5436282,16.5267802 C26.7108761,15.4906115 25.9915539,14.5961371 25.4981576,13.5867381 L25.4981576,13.5867381 L25.4888218,13.5687378 C25.4888218,13.5687378 25.4878882,13.565507 25.4869547,13.5636608 C25.2768995,13.1298085 24.8269146,12.8491891 24.3405202,12.8491891 C23.6412699,12.8491891 23.0708534,13.412274 23.0708534,14.1050532 C23.0708534,14.2993637 23.113798,14.4858279 23.200154,14.6584457 C23.2043551,14.6681382 23.209023,14.6782922 23.2132241,14.6893692 C23.8485243,15.9798493 24.7125513,17.0543262 25.5481041,18.0937257 C26.4139982,19.1691257 27.2299458,20.1849864 27.7303439,21.3365413 C27.7676871,21.4260811 27.787759,21.5193132 27.787759,21.6139299 C27.787759,21.7113159 27.7667535,21.8100866 27.7261428,21.9005494 C27.0894422,23.3013387 26.3663857,24.5816647 25.6685357,25.8199901 C24.4558172,27.9703286 23.2020212,30.1963605 22.2815127,33.1294794 C22.192356,33.4096373 21.9360887,33.6048708 21.6396775,33.6196403 C21.3413991,33.6344097 21.066927,33.4627149 20.9511633,33.191788 L20.9511633,33.191788 L20.2145698,31.466071 C19.892952,30.7105217 19.892952,30.7105217 19.886417,30.6915984 C18.7824603,27.7672488 20.2612487,25.5135242 22.026179,23.5150341 C22.4864332,22.991642 22.4327524,22.1940921 21.9029466,21.737624 C21.6462125,21.5160824 21.3189932,21.4071577 20.9787039,21.430235 C20.6402816,21.4523891 20.3289332,21.6042375 20.1053411,21.8594719 C19.616146,22.4151722 19.2520503,22.8605632 18.9276318,23.3036464 C18.7549198,23.5358036 18.4599089,23.641959 18.1789018,23.5718041 C17.8969611,23.5002646 17.6883063,23.2676459 17.6500295,22.9828726 C17.4049652,21.0942302 17.3428822,19.0712781 17.4614467,16.8000148 C17.4787179,16.4630869 17.3629541,16.1400054 17.1360946,15.8912326 C16.9087682,15.6406136 16.5955526,15.4938423 16.2552632,15.4772267 C15.5541457,15.4407646 14.9533879,15.9761569 14.9179119,16.6698591 C14.4987352,24.6961279 16.3075436,28.8652645 18.0570698,32.8963991 C18.683501,34.3410352 19.3309377,35.8350566 19.8504742,37.4901572 C19.9340295,37.7578534 19.848607,38.0490883 19.6324836,38.2309371 C19.4163602,38.4118627 19.11108,38.4478632 18.8566798,38.3227845 C18.4445049,38.1183201 18.0285956,37.9313943 17.6612325,37.7661612 C15.495797,36.7918395 13.7845476,36.023367 13.2584761,33.1507105 C13.1963931,32.8197827 13.0106109,32.5317785 12.7305374,32.3406989 C12.4504638,32.1486961 12.1115748,32.0762336 11.7768869,32.1362344 C11.4412654,32.1966968 11.1504557,32.3822379 10.9572049,32.659165 C10.8068988,32.8719373 10.7294118,33.1193254 10.7294118,33.3731752 C10.7294118,33.4488686 10.7368804,33.524562 10.7504173,33.6011785 C10.9716754,34.8035034 11.3628448,35.8129024 11.947265,36.6875303 C11.9505325,36.6902996 11.9523997,36.6949151 11.9570676,36.6995305 C12.5517571,37.6300054 14.4907997,39.1766429 16.5885507,40.053117 C18.7628552,40.9623608 20.9922407,42.2371483 21.0277167,44.7908771 C21.0277167,44.7908771 21.0267832,44.8139544 21.0258496,44.8361085 C21.0267832,44.840724 21.0277167,44.8476472 21.0277167,44.8499549 C21.0375193,45.230268 21.0440544,45.6055042 21.0440544,45.9793557 C21.0440544,46.6555192 21.0258496,47.3238365 20.9913072,48 L21.0130085,47.5005204 C9.16777668,46.0397049 0,36.0042568 0,23.8416845 C0,10.6742857 10.745166,0 24,0 Z"/>
    </g>
</svg>
