<svg xmlns="http://www.w3.org/2000/svg" viewBox="0 0 16 16">
  <g>
    <circle class="ti-background" cx="8" cy="8" r="8" fill="#19426C"/>
    <path class="ti-foreground" fill="#FFF" d="M8,4.31 C9.92747378,4.31 11.49,4.9323242 11.49,5.7 C11.49,5.73359854 11.487007,5.76691866 11.4811213,5.79992037 L11.48,10.41 C11.48,11.3206316 9.90981734,11.94 7.99,11.94 C6.14402179,11.94 4.62130049,11.3673591 4.50689882,10.5137616 L4.5,10.41 L4.5,5.7 C4.51,4.9323242 6.07252622,4.31 8,4.31 Z M7.99,10.33 C6.7275836,10.33 5.6125743,10.0568675 4.9994719,9.60938354 L5,10.41 C5,10.9174068 6.32484437,11.44 7.99,11.44 C9.58275756,11.44 10.8641528,10.9618618 10.9725676,10.4762254 L10.98,10.41 L10.9815592,9.60863045 C10.3686764,10.0565611 9.25312443,10.33 7.99,10.33 Z M7.99,8.67 C6.72541532,8.67 5.61253236,8.40126448 5.00018518,7.95756631 L5,8.79 C5,9.30003487 6.32916387,9.83 7.99,9.83 C9.57862586,9.83 10.8637936,9.34511697 10.9725442,8.85659412 L10.98,8.79 L10.9808557,7.95681155 C10.3687294,8.4009597 9.25530157,8.67 7.99,8.67 Z M4.99933284,6.41022132 L5,7.14 C5,7.64740681 6.32484437,8.17 7.99,8.17 C9.58275756,8.17 10.8641528,7.6918618 10.9725676,7.20622542 L10.98,7.14 L10.9811133,6.4231381 C10.3682692,6.82304354 9.26240979,7.09 8,7.09 C6.72404658,7.09 5.60802065,6.81728478 4.99933284,6.41022132 Z"/>
  </g>
</svg>
