<svg xmlns="http://www.w3.org/2000/svg" viewBox="0 0 16 16">
  <g>
    <circle class="ti-background" cx="8" cy="8" r="8" fill="#19426C"/>
    <path class="ti-foreground" fill="#FFF" d="M12.1,8.41 C12.1,7.42693315 11.3030669,6.63 10.32,6.63 C10.2236096,6.61966417 10.1263904,6.61966417 10.03,6.63 C9.86327386,5.70320356 9.12275076,4.98674467 8.19095388,4.85071593 C7.259157,4.71468718 6.34471892,5.18954591 5.92,6.03 L5.69,6 C5.13771525,6 4.69,6.44771525 4.69,7 C4.69051775,7.1372553 4.71768743,7.27310367 4.77,7.4 C4.08876418,7.51040542 3.59599927,8.11029313 3.62,8.8 C3.62,9.56215295 4.23784705,10.18 5,10.18 L10.47,10.18 C11.3902263,10.102178 12.0980965,9.33350916 12.1,8.41 L12.1,8.41 Z"/>
  </g>
</svg>
