<svg xmlns="http://www.w3.org/2000/svg" viewBox="0 0 16 16">
  <g>
    <circle class="ti-background" cx="8" cy="8" r="8" fill="#19426C"/>
    <path class="ti-foreground" fill="#FFF" d="M7.54772965,7.27418142 C7.62864791,7.35597924 7.64154011,7.47953507 7.58678575,7.57464143 L7.54581858,7.62772965 L6.783,8.38 L7.696,9.3 L8.4532233,8.5432233 C8.55085438,8.44559223 8.70914562,8.44559223 8.8067767,8.5432233 C8.88813592,8.62458253 8.90169579,8.74806688 8.84745631,8.84346781 L8.8067767,8.8967767 L8.048,9.654 L8.6,10.21 L8,10.83 C7.27806448,11.5519355 6.14175458,11.6069455 5.3566701,10.99503 L5.3467767,11.0067767 L4.2867767,12.0667767 C4.18914562,12.1644078 4.03085438,12.1644078 3.9332233,12.0667767 C3.85186408,11.9854175 3.83830421,11.8619331 3.89254369,11.7665322 L3.9332233,11.7132233 L4.9932233,10.6532233 L5.00496996,10.6433299 C4.39305447,9.85824542 4.44806448,8.72193552 5.17,8 L5.79,7.38 L6.432,8.026 L7.19418142,7.27227035 C7.2923388,7.17516843 7.45062773,7.17602405 7.54772965,7.27418142 Z M8,5.24 C8.79997234,4.69131283 9.87834649,4.79580156 10.5580966,5.48786598 C11.2378467,6.17993039 11.3229597,7.26000654 10.76,8.05 L10.76,8.05 L10.19,8.67 L7.38,5.86 Z M12.0667767,3.9332233 C12.1481359,4.01458253 12.1616958,4.13806688 12.1074563,4.23346781 L12.0667767,4.2867767 L10.9267767,5.4267767 C10.8291456,5.52440777 10.6708544,5.52440777 10.5732233,5.4267767 C10.4918641,5.34541747 10.4783042,5.22193312 10.5325437,5.12653219 L10.5732233,5.0732233 L11.7132233,3.9332233 C11.8108544,3.83559223 11.9691456,3.83559223 12.0667767,3.9332233 Z"/>
  </g>
</svg>
