<svg xmlns="http://www.w3.org/2000/svg" viewBox="0 0 16 16">
  <g>
    <circle class="ti-background" cx="8" cy="8" r="8" fill="#19426C"/>
    <path class="ti-foreground" fill="#FFF" d="M9.2,5.35 C9.61421356,5.35 9.95,5.68578644 9.95,6.1 C9.95,6.44517797 9.71681497,6.73589266 9.39937971,6.82320928 L9.39937971,6.82320928 L9.36,6.831 L9.36,7.627 L11.7194547,11.9502519 C11.8002586,12.098336 11.7139664,12.2753061 11.5605025,12.3128046 L11.5605025,12.3128046 L11.5,12.32 L4.5,12.32 C4.31099629,12.32 4.19034772,12.1183515 4.27970482,11.9518051 L4.27970482,11.9518051 L6.6,7.625 L6.6,6.829 L6.57062029,6.82320928 C6.28492855,6.74462432 6.06747951,6.50128693 6.02684662,6.20177056 L6.02684662,6.20177056 L6.02,6.1 C6.02,5.68578644 6.35578644,5.35 6.77,5.35 L6.77,5.35 Z M9.2,5.85 L6.77,5.85 C6.63192881,5.85 6.52,5.96192881 6.52,6.1 C6.52,6.23807119 6.63192881,6.35 6.77,6.35 L6.77,6.35 L6.85,6.35 C6.98807119,6.35 7.1,6.46192881 7.1,6.6 L7.1,6.6 L7.1,7.69 L7.07029518,7.8081949 L5.9096526,9.969 L10.0686526,9.969 L8.89054526,7.80974814 L8.86,7.69 L8.86,6.6 C8.86,6.46192881 8.97192881,6.35 9.11,6.35 L9.11,6.35 L9.2,6.35 C9.33807119,6.35 9.45,6.23807119 9.45,6.1 C9.45,5.96192881 9.33807119,5.85 9.2,5.85 L9.2,5.85 Z M10.28,4.42 C10.605848,4.42 10.87,4.684152 10.87,5.01 C10.87,5.335848 10.605848,5.6 10.28,5.6 C9.954152,5.6 9.69,5.335848 9.69,5.01 C9.69,4.684152 9.954152,4.42 10.28,4.42 Z M5.98,4.17 C6.25614237,4.17 6.48,4.39385763 6.48,4.67 C6.48,4.94614237 6.25614237,5.17 5.98,5.17 C5.70385763,5.17 5.48,4.94614237 5.48,4.67 C5.48,4.39385763 5.70385763,4.17 5.98,4.17 Z M8.09,2.86 C8.55391919,2.86 8.93,3.23608081 8.93,3.7 C8.93,4.16391919 8.55391919,4.54 8.09,4.54 C7.62608081,4.54 7.25,4.16391919 7.25,3.7 C7.25,3.23608081 7.62608081,2.86 8.09,2.86 Z"/>
  </g>
</svg>
