<svg xmlns="http://www.w3.org/2000/svg" viewBox="0 0 16 16">
  <g>
    <circle class="ti-background" cx="8" cy="8" r="8" fill="#19426C"/>
    <path class="ti-foreground" fill="#FFF" d="M6.27141068,9.37000199 C6.90701792,9.37179528 7.51553971,9.6154825 7.97550069,10.04735 L8.068,10.141 L8.14619697,10.2039577 L8.25733398,10.3107866 C8.62930129,10.7135897 9.13554744,10.9667128 9.60729805,11.0205156 C10.1673156,10.9950624 10.6821685,10.7058192 10.9952276,10.24078 C11.1494365,10.0117075 11.4601475,9.9510186 11.68922,10.1052276 C11.9182925,10.2594365 11.9789814,10.5701475 11.8247724,10.79922 C11.3348438,11.5269933 10.5291135,11.9796508 9.57902965,12.0173952 C8.86281776,11.9440018 8.19337334,11.6351625 7.67689861,11.1456862 L7.49076825,10.9591136 L7.45165149,10.9284791 L7.37108932,10.857498 C7.08792684,10.5479801 6.68809009,10.3711816 6.3013422,10.3690167 C5.71886357,10.405601 5.18780212,10.7149005 4.86857624,11.2034848 C4.71753477,11.4346581 4.40768849,11.4996177 4.17651522,11.3485762 C3.94534194,11.1975348 3.88038228,10.8876885 4.03142376,10.6565152 C4.52320416,9.90383131 5.34132585,9.42734286 6.27141068,9.37000199 Z M6.27141068,6.93000199 C6.90701792,6.93179528 7.51553971,7.1754825 7.97550069,7.60735003 L8.065,7.698 L8.0931341,7.71945881 C8.13909768,7.75586555 8.18039026,7.79380073 8.21316913,7.82887175 L8.25547183,7.8787811 C8.62872313,8.2785621 9.1348144,8.52869916 9.60729805,8.58051564 C10.1673156,8.55506242 10.6821685,8.26581921 10.9952276,7.80077996 C11.1494365,7.57170747 11.4601475,7.5110186 11.68922,7.66522757 C11.9182925,7.81943654 11.9789814,8.13014755 11.8247724,8.35922004 C11.3348438,9.08699332 10.5291135,9.53965078 9.58089181,9.57758254 C8.86616259,9.50704337 8.19703784,9.20202816 7.65545917,8.68907563 L7.47923192,8.50975152 L7.45883419,8.49345591 L7.37108932,8.41749801 C7.08792684,8.10798014 6.68809009,7.93118158 6.3013422,7.9290167 C5.71886357,7.96560097 5.18780212,8.2749005 4.86857624,8.76348478 C4.71753477,8.99465806 4.40768849,9.05961772 4.17651522,8.90857624 C3.94534194,8.75753477 3.88038228,8.44768849 4.03142376,8.21651522 C4.52320416,7.46383131 5.34132585,6.98734286 6.27141068,6.93000199 Z M6.26910966,4.49998576 C6.96637099,4.498756 7.6324704,4.78875953 8.04185903,5.24140104 C8.09652703,5.28280113 8.14825938,5.32787686 8.19388114,5.37315402 L8.25733398,5.44078658 C8.62930129,5.84358973 9.13554744,6.0967128 9.60729805,6.15051564 C10.1673156,6.12506242 10.6821685,5.83581921 10.9952276,5.37077996 C11.1494365,5.14170747 11.4601475,5.0810186 11.68922,5.23522757 C11.9182925,5.38943654 11.9789814,5.70014755 11.8247724,5.92922004 C11.3348438,6.65699332 10.5291135,7.10965078 9.57902965,7.14739524 C8.86281776,7.07400176 8.19337334,6.7651625 7.66674796,6.2645066 L7.48073473,6.07500593 L7.3733932,5.9799992 C7.08891085,5.67325388 6.68924956,5.49925105 6.30134435,5.49901337 C5.71886387,5.53560027 5.18780196,5.84490075 4.86857624,6.33348478 C4.71753477,6.56465806 4.40768849,6.62961772 4.17651522,6.47857624 C3.94534194,6.32753477 3.88038228,6.01768849 4.03142376,5.78651522 C4.52320341,5.03383246 5.34132389,4.55734366 6.26910966,4.49998576 Z"/>
  </g>
</svg>
