<svg xmlns="http://www.w3.org/2000/svg" viewBox="0 0 16 16">
  <g>
    <path d="M12.5931056,4.22746913 L7.21714336,8.00005314 L12.5931056,11.7726371 C12.82287,11.9338744 12.8849569,12.2606459 12.7317807,12.5025017 C12.5786045,12.7443576 12.2681698,12.8097119 12.0384054,12.6484747 L6.03840545,8.43797189 C5.74153891,8.22964567 5.74153891,7.77046061 6.03840545,7.56213438 L12.0384054,3.35163161 C12.2681698,3.19039438 12.5786045,3.25574868 12.7317807,3.49760453 C12.8849569,3.73946038 12.82287,4.0662319 12.5931056,4.22746913 Z M3,3.5 C3,3.22385763 3.23563829,3 3.52631285,3 C3.8169874,3 4.05262569,3.22385763 4.05262569,3.5 L4.05262569,12.5 C4.05262569,12.7761424 3.8169874,13 3.52631285,13 C3.23563829,13 3,12.7761424 3,12.5 L3,3.5 Z" transform="matrix(-1 0 0 1 16 0)"/>
  </g>
</svg>
