<svg xmlns="http://www.w3.org/2000/svg" viewBox="0 0 16 16">
  <g>
    <path d="M11.7774032,2.91607828 L6.40144096,6.50005314 L11.7774032,10.084028 C12.0071676,10.2372042 12.0692545,10.5476389 11.9160783,10.7774032 C11.7629021,11.0071676 11.4524674,11.0692545 11.222703,10.9160783 L5.22270304,6.91607828 C4.9258365,6.71816726 4.9258365,6.28193901 5.22270304,6.08402799 L11.222703,2.08402799 C11.4524674,1.93085176 11.7629021,1.99293869 11.9160783,2.22270304 C12.0692545,2.45246738 12.0071676,2.76290205 11.7774032,2.91607828 Z M4.22270304,9.91607828 C3.99293869,9.76290205 3.93085176,9.45246738 4.08402799,9.22270304 C4.23720422,8.99293869 4.54763889,8.93085176 4.77740323,9.08402799 L10.7774032,13.084028 C11.0071676,13.2372042 11.0692545,13.5476389 10.9160783,13.7774032 C10.7629021,14.0071676 10.4524674,14.0692545 10.222703,13.9160783 L4.22270304,9.91607828 Z" transform="matrix(-1 0 0 1 16 0)"/>
  </g>
</svg>
