<svg xmlns="http://www.w3.org/2000/svg" viewBox="0 0 16 16">
  <g>
    <path d="M11.7773767,2.91607828 L6.40141439,6.50005314 L11.7773767,10.084028 C12.007141,10.2372042 12.0692279,10.5476389 11.9160517,10.7774032 C11.7628755,11.0071676 11.4524408,11.0692545 11.2226765,10.9160783 L5.22267647,6.91607828 C4.92580993,6.71816726 4.92580993,6.28193901 5.22267647,6.08402799 L11.2226765,2.08402799 C11.4524408,1.93085176 11.7628755,1.99293869 11.9160517,2.22270304 C12.0692279,2.45246738 12.007141,2.76290205 11.7773767,2.91607828 Z M4.22270304,9.91607828 C3.99293869,9.76290205 3.93085176,9.45246738 4.08402799,9.22270304 C4.23720422,8.99293869 4.54763889,8.93085176 4.77740323,9.08402799 L10.7774032,13.084028 C11.0071676,13.2372042 11.0692545,13.5476389 10.9160783,13.7774032 C10.7629021,14.0071676 10.4524674,14.0692545 10.222703,13.9160783 L4.22270304,9.91607828 Z"/>
  </g>
</svg>
