<svg xmlns="http://www.w3.org/2000/svg" viewBox="0 0 16 16">
  <g>
    <path d="M8.81412523,6.00003099 L10.0931333,4.20941974 C10.2536378,3.98471345 10.5659128,3.93266761 10.7906191,4.0931721 C11.0153254,4.2536766 11.0673712,4.56595164 10.9068667,4.79065793 L10.0430288,6.00003099 L11.5555556,6.00003099 C11.8010154,6.00003099 12,6.22388862 12,6.50003099 C12,6.77617337 11.8010154,7.00003099 11.5555556,7.00003099 L9.32874312,7.00003099 L7.90017169,9.00003099 L11.5555556,9.00003099 C11.8010154,9.00003099 12,9.22388862 12,9.50003099 C12,9.77617337 11.8010154,10.000031 11.5555556,10.000031 L7.18588598,10.000031 L5.90686674,11.7906579 C5.74636224,12.0153642 5.4340872,12.0674101 5.2093809,11.9069056 C4.98467461,11.7464011 4.93262877,11.434126 5.09313326,11.2094197 L5.95698237,10.000031 L4.44444444,10.000031 C4.19898456,10.000031 4,9.77617337 4,9.50003099 C4,9.22388862 4.19898456,9.00003099 4.44444444,9.00003099 L6.67126808,9.00003099 L8.09983951,7.00003099 L4.44444444,7.00003099 C4.19898456,7.00003099 4,6.77617337 4,6.50003099 C4,6.22388862 4.19898456,6.00003099 4.44444444,6.00003099 L8.81412523,6.00003099 Z"/>
  </g>
</svg>
