<svg xmlns="http://www.w3.org/2000/svg" viewBox="0 0 16 16">
  <g>
    <path d="M5.50005314,4.40149735 L3.91607828,6.77745963 C3.76290205,7.00722397 3.45246738,7.0693109 3.22270304,6.91613468 C2.99293869,6.76295845 2.93085176,6.45252377 3.08402799,6.22275943 L5.08402799,3.22275943 C5.28193901,2.92589289 5.71816726,2.92589289 5.91607828,3.22275943 L7.91607828,6.22275943 C8.06925451,6.45252377 8.00716758,6.76295845 7.77740323,6.91613468 C7.54763889,7.0693109 7.23720422,7.00722397 7.08402799,6.77745963 L5.50005314,4.40149735 Z M7.94728854,12.7486389 C7.82379842,12.9731701 7.52347287,13.0641794 7.27649264,12.9519137 C7.0295124,12.8396481 6.92940389,12.5666204 7.052894,12.3420892 L12.0527115,3.25136111 C12.1762016,3.0268299 12.4765271,2.93582065 12.7235074,3.04808625 C12.9704876,3.16035186 13.0705961,3.43337962 12.947106,3.65791083 L7.94728854,12.7486389 Z"/>
  </g>
</svg>
