<svg xmlns="http://www.w3.org/2000/svg" viewBox="0 0 16 16">
  <g>
    <path d="M6.03845858,4.22746913 C5.80869424,4.0662319 5.74660731,3.73946038 5.89978354,3.49760453 C6.05295976,3.25574868 6.36339444,3.19039438 6.59315878,3.35163161 L12.5931588,7.56213438 C12.8900253,7.77046061 12.8900253,8.22964567 12.5931588,8.43797189 L6.59315878,12.6484747 C6.36339444,12.8097119 6.05295976,12.7443576 5.89978354,12.5025017 C5.74660731,12.2606459 5.80869424,11.9338744 6.03845858,11.7726371 L11.4144209,8.00005314 L6.03845858,4.22746913 Z M3,3.5 C3,3.22385763 3.23563829,3 3.52631285,3 C3.8169874,3 4.05262569,3.22385763 4.05262569,3.5 L4.05262569,12.5 C4.05262569,12.7761424 3.8169874,13 3.52631285,13 C3.23563829,13 3,12.7761424 3,12.5 L3,3.5 Z"/>
  </g>
</svg>
