<svg id="Calque_1" data-name="Calque 1" xmlns="http://www.w3.org/2000/svg" xmlns:xlink="http://www.w3.org/1999/xlink" viewBox="0 0 698.09 377.47"><defs><style>.cls-1{fill:url(#Dégradé_sans_nom_10);}.cls-2{fill:none;}.cls-3{fill:#fff;}.cls-4{fill:url(#Dégradé_sans_nom_48);}.cls-5{fill:url(#Dégradé_sans_nom_49);}.cls-6{fill:#fb5460;}.cls-7{fill:#0075c7;}.cls-8{fill:url(#Dégradé_sans_nom_48-2);}.cls-9{clip-path:url(#clip-path);}.cls-10,.cls-64{opacity:0.5;}.cls-11{fill:url(#Dégradé_sans_nom_23);}.cls-12{fill:url(#Dégradé_sans_nom_6);}.cls-13{fill:url(#Dégradé_sans_nom_6-2);}.cls-14{fill:url(#Dégradé_sans_nom_23-2);}.cls-15{clip-path:url(#clip-path-2);}.cls-16{fill:url(#Dégradé_sans_nom_48-3);}.cls-17{clip-path:url(#clip-path-3);}.cls-18{clip-path:url(#clip-path-4);}.cls-19{fill:#f2f6fb;}.cls-20{clip-path:url(#clip-path-5);}.cls-21{fill:#e1e5f0;}.cls-22{clip-path:url(#clip-path-6);}.cls-23{clip-path:url(#clip-path-7);}.cls-24{clip-path:url(#clip-path-8);}.cls-25{fill:url(#Dégradé_sans_nom_48-5);}.cls-26{clip-path:url(#clip-path-9);}.cls-27{clip-path:url(#clip-path-10);}.cls-28{clip-path:url(#clip-path-11);}.cls-29{clip-path:url(#clip-path-12);}.cls-30{clip-path:url(#clip-path-13);}.cls-31{fill:url(#Dégradé_sans_nom_48-7);}.cls-32{clip-path:url(#clip-path-14);}.cls-33{clip-path:url(#clip-path-15);}.cls-34{clip-path:url(#clip-path-16);}.cls-35{fill:url(#Dégradé_sans_nom_49-3);}.cls-36{clip-path:url(#clip-path-17);}.cls-37{fill:url(#Dégradé_sans_nom_48-8);}.cls-38{clip-path:url(#clip-path-18);}.cls-39{clip-path:url(#clip-path-19);}.cls-40{clip-path:url(#clip-path-20);}.cls-41{fill:url(#Dégradé_sans_nom_48-9);}.cls-42{clip-path:url(#clip-path-21);}.cls-43{clip-path:url(#clip-path-22);}.cls-44{fill:url(#Dégradé_sans_nom_48-10);}.cls-45{clip-path:url(#clip-path-23);}.cls-46{clip-path:url(#clip-path-24);}.cls-47{clip-path:url(#clip-path-25);}.cls-48{fill:url(#Dégradé_sans_nom_10-3);}.cls-49{fill:url(#Dégradé_sans_nom_17);}.cls-50{fill:url(#Dégradé_sans_nom_10-4);}.cls-51{fill:url(#Dégradé_sans_nom_17-2);}.cls-52{fill:url(#Dégradé_sans_nom_34);}.cls-53{fill:url(#Dégradé_sans_nom_34-2);}.cls-54{fill:url(#Dégradé_sans_nom_4);}.cls-55{fill:url(#Dégradé_sans_nom_4-2);}.cls-56{fill:#e96065;}.cls-57{fill:#fdd3b5;}.cls-58{fill:url(#Dégradé_sans_nom_17-3);}.cls-59{opacity:0.1;}.cls-60{fill:#d35962;}.cls-61{fill:url(#Dégradé_sans_nom_34-3);}.cls-62{fill:#1a2e35;}.cls-63{fill:url(#Dégradé_sans_nom_4-3);}.cls-64{fill:#2b454e;}.cls-65{fill:url(#Dégradé_sans_nom_4-4);}.cls-66{fill:url(#Dégradé_sans_nom_34-4);}.cls-67{fill:url(#Dégradé_sans_nom_4-5);}.cls-68{fill:url(#Dégradé_sans_nom_17-4);}.cls-69{fill:url(#Dégradé_sans_nom_34-5);}.cls-70{fill:#fafafa;opacity:0.4;}</style><linearGradient id="Dégradé_sans_nom_10" x1="176.29" y1="204.97" x2="643.52" y2="204.97" gradientUnits="userSpaceOnUse"><stop offset="0" stop-color="#f9ede0"/><stop offset="1" stop-color="#ffd2b0"/></linearGradient><linearGradient id="Dégradé_sans_nom_48" x1="438.64" y1="157" x2="551.96" y2="157" gradientTransform="translate(573.09 -356.73) rotate(81.02)" gradientUnits="userSpaceOnUse"><stop offset="0" stop-color="#f2f6fb"/><stop offset="1" stop-color="#d8deed"/></linearGradient><linearGradient id="Dégradé_sans_nom_49" x1="409" y1="231.47" x2="435" y2="231.47" gradientUnits="userSpaceOnUse"><stop offset="0" stop-color="#f2f6fb"/><stop offset="1" stop-color="#fff"/></linearGradient><linearGradient id="Dégradé_sans_nom_48-2" x1="618.73" y1="239.03" x2="696.78" y2="239.03" gradientTransform="translate(66.58 -135.52) rotate(12.39)" xlink:href="#Dégradé_sans_nom_48"/><clipPath id="clip-path"><path id="Background" class="cls-1" d="M489.09,42c37.61,5.24,54.83,52.09,82.24,93.7C599.09,177,637,212.8,642.67,251.5c6,38.71-20,80-62.56,99.82-42.87,19.79-102.26,17.46-145.49,16.58-43.58-1.16-71-.87-97-2.91S287,358.88,256.8,353.35c-29.87-5.53-65-12.22-75.91-30-11.25-17.75,1.41-46.27,3.51-73.91,2.11-27.36-6.67-54.13-6-87s10.19-72.17,37.95-82.07c27.77-10.18,73.8,9.61,125.82,1.17C393.86,73.12,451.49,36.74,489.09,42Z"/></clipPath><linearGradient id="Dégradé_sans_nom_23" x1="496.07" y1="292.6" x2="591.91" y2="292.6" gradientUnits="userSpaceOnUse"><stop offset="0" stop-color="#0075c7"/><stop offset="1" stop-color="#2f1c59"/></linearGradient><linearGradient id="Dégradé_sans_nom_6" x1="272.37" y1="334.16" x2="315.1" y2="334.16" gradientUnits="userSpaceOnUse"><stop offset="0" stop-color="#7ed3f0"/><stop offset="1" stop-color="#2f1c59"/></linearGradient><linearGradient id="Dégradé_sans_nom_6-2" x1="400.78" y1="286.39" x2="483.52" y2="286.39" xlink:href="#Dégradé_sans_nom_6"/><linearGradient id="Dégradé_sans_nom_23-2" x1="302" y1="318.98" x2="392.67" y2="318.98" xlink:href="#Dégradé_sans_nom_23"/><clipPath id="clip-path-2"><rect class="cls-2" x="388.05" y="43.47" width="43.4" height="43.4" rx="4.7" transform="translate(-5.15 65.24) rotate(-9.05)"/></clipPath><linearGradient id="Dégradé_sans_nom_48-3" x1="372.22" y1="58.87" x2="433.29" y2="58.87" gradientTransform="matrix(0.93, 0.36, -0.36, 0.93, 54.41, -133.35)" xlink:href="#Dégradé_sans_nom_48"/><clipPath id="clip-path-3"><path class="cls-3" d="M402,57.77l-.75,7.75,4.08-.65Zm16.12,7.8a3.13,3.13,0,1,0,3.59,2.6A3.14,3.14,0,0,0,418.08,65.57Zm-19.16-8.93a2.91,2.91,0,0,1,5.52-1l8.45,18A1.56,1.56,0,0,1,410.06,75l-3.38-7.19-5.77.92-.75,7.8A1.56,1.56,0,0,1,398.53,78h-.08a1.56,1.56,0,0,1-1.41-1.7Zm23.19,3.85a1.56,1.56,0,0,1,1.79,1.3l1.67,10.51a1.55,1.55,0,0,1-1.3,1.79,1.58,1.58,0,0,1-1.58-.72,6.2,6.2,0,0,1-3.13,1.47,6.26,6.26,0,1,1,1.34-12l-.09-.57A1.55,1.55,0,0,1,422.11,60.49Z"/></clipPath><clipPath id="clip-path-4"><path class="cls-2" d="M258.89,42.73,195.68,62.26c-2.49.76-5-.22-5.62-2.18l-10.18-33c-.61-2,.92-4.2,3.41-5L246.5,2.62c2.49-.77,5,.21,5.62,2.17l10.17,33C262.91,39.73,261.38,42,258.89,42.73Z"/></clipPath><clipPath id="clip-path-5"><path class="cls-2" d="M221.92,19.89a1.24,1.24,0,0,1,.73,2.38l-3,.93a1.24,1.24,0,0,1-1.55-.83,1.23,1.23,0,0,1,.82-1.55Zm20.89-6.45a1.24,1.24,0,1,1,.73,2.38L226.89,21a1.24,1.24,0,0,1-.73-2.38ZM207.44,24.36a1.24,1.24,0,0,1,1.55.83,1.23,1.23,0,0,1-.82,1.55l-14.79,4.57a1.24,1.24,0,1,1-.73-2.38Zm37.41-4.3a1.25,1.25,0,1,1,.74,2.38L232,26.62a1.24,1.24,0,1,1-.73-2.38Zm-17.79,5.49a1.25,1.25,0,1,1,.74,2.38l-8,2.46A1.25,1.25,0,0,1,219.1,28Zm-12.2,3.77a1.24,1.24,0,1,1,.73,2.38l-8,2.46a1.24,1.24,0,1,1-.73-2.38Zm-12.2,3.77a1.24,1.24,0,0,1,.73,2.38l-8,2.46a1.25,1.25,0,0,1-.74-2.38Zm16.11,2.28a1.24,1.24,0,0,1,.73,2.38l-3,.92a1.24,1.24,0,1,1-.73-2.38Zm28.13-8.69a1.24,1.24,0,0,1,1.56.82,1.25,1.25,0,0,1-.83,1.56L231,34.2a1.24,1.24,0,1,1-.73-2.38ZM231.15,38.79a1.25,1.25,0,1,1,.74,2.38l-8,2.46a1.24,1.24,0,0,1-.73-2.38ZM219,42.56a1.24,1.24,0,1,1,.73,2.38l-8,2.46A1.25,1.25,0,0,1,211,45Zm-12.21,3.77a1.25,1.25,0,1,1,.74,2.38l-8,2.46a1.24,1.24,0,0,1-.73-2.38Z"/></clipPath><clipPath id="clip-path-6"><path class="cls-7" d="M226,33.13a1.24,1.24,0,0,1,.73,2.38l-3,.93a1.24,1.24,0,1,1-.73-2.38ZM211.53,37.6a1.24,1.24,0,0,1,.73,2.38l-14.79,4.57a1.24,1.24,0,1,1-.73-2.38Z"/></clipPath><clipPath id="clip-path-7"><path class="cls-6" d="M214.68,22.13a1.24,1.24,0,0,1,.73,2.38l-3,.92a1.24,1.24,0,0,1-.73-2.38ZM248.94,33.3a1.25,1.25,0,1,1,.74,2.38l-13.55,4.18a1.25,1.25,0,0,1-.74-2.38Z"/></clipPath><clipPath id="clip-path-8"><rect class="cls-8" x="623" y="212.98" width="69.52" height="52.1" rx="2.68" transform="translate(-35.96 146.64) rotate(-12.39)"/></clipPath><linearGradient id="Dégradé_sans_nom_48-5" x1="617.42" y1="239.03" x2="698.09" y2="239.03" gradientTransform="translate(66.58 -135.52) rotate(12.39)" xlink:href="#Dégradé_sans_nom_48"/><clipPath id="clip-path-9"><path class="cls-3" d="M668.32,219.64a1.21,1.21,0,0,1,1.45.93l.05.22a1.21,1.21,0,0,1-.93,1.45l-28.39,6.23a1.22,1.22,0,0,1-1.45-.92l0-.23a1.23,1.23,0,0,1,.93-1.45Zm-6.74,5.81a1.23,1.23,0,0,1,1.45.93v.07a1.21,1.21,0,0,1-.93,1.45L649,230.77a1.21,1.21,0,0,1-1.45-.93v-.07a1.22,1.22,0,0,1,.92-1.45Z"/></clipPath><clipPath id="clip-path-10"><path class="cls-6" d="M637.79,238.88l1.7,2.13,2.69-.2c.23,0,.31.13.19.31l-1.49,2.27,1,2.53c.09.2,0,.32-.23.26l-2.61-.72L637,247.21c-.17.14-.32.08-.33-.14l-.13-2.72-2.3-1.44c-.18-.12-.17-.28,0-.36l2.53-1,.65-2.65C637.5,238.74,637.65,238.7,637.79,238.88Zm28.66-6.13,1.69,2.12,2.7-.19c.22,0,.3.12.18.31l-1.48,2.27,1,2.52c.08.21,0,.33-.24.27l-2.61-.72-2.06,1.75c-.17.14-.32.08-.33-.15l-.13-2.72-2.3-1.44c-.19-.11-.17-.27,0-.35l2.53-1,.64-2.64C666.16,232.61,666.31,232.57,666.45,232.75ZM657,234.83l1.69,2.13,2.7-.19c.22,0,.3.12.18.3l-1.48,2.27,1,2.53c.08.2,0,.32-.24.26l-2.61-.72-2.06,1.75c-.17.14-.32.08-.33-.14l-.13-2.72-2.3-1.44c-.19-.12-.17-.28,0-.36l2.53-.95.64-2.64C656.67,234.69,656.82,234.66,657,234.83ZM647.32,237l1.69,2.13,2.7-.2c.22,0,.3.13.18.31l-1.49,2.27,1,2.53c.08.2,0,.32-.24.26l-2.61-.72-2.07,1.75c-.17.14-.31.08-.32-.14l-.13-2.72-2.3-1.44c-.19-.12-.17-.28,0-.36l2.53-1L647,237C647,236.81,647.18,236.77,647.32,237Z"/></clipPath><clipPath id="clip-path-11"><path class="cls-3" d="M677.13,237.26,675,239c-.17.14-.32.08-.33-.14l-.12-2.72-2.34-1.44c-.19-.11-.17-.27,0-.35l2.59-1,.67-2.65c.05-.21.21-.25.35-.07l1.71,2.12,2.76-.2c.22,0,.3.12.18.3L679,235.18l1,2.52c.08.21,0,.33-.24.27Z"/></clipPath><clipPath id="clip-path-12"><path class="cls-3" d="M654.72,251.5l10.92-2.4a2.66,2.66,0,0,1,1.32,0,1.81,1.81,0,0,1,.9.58,2.53,2.53,0,0,1,.55,1.21l.07.35a2.6,2.6,0,0,1,0,1.33,1.85,1.85,0,0,1-.58.9,2.63,2.63,0,0,1-1.21.54l-10.92,2.4a2.57,2.57,0,0,1-1.32,0,1.91,1.91,0,0,1-.91-.58,2.68,2.68,0,0,1-.54-1.21l-.07-.36a2.56,2.56,0,0,1,0-1.32,1.84,1.84,0,0,1,.58-.91A2.63,2.63,0,0,1,654.72,251.5Z"/></clipPath><clipPath id="clip-path-13"><rect class="cls-4" x="483.62" y="100.78" width="23.35" height="112.44" rx="4.82" transform="translate(262.93 621.73) rotate(-81.02)"/></clipPath><linearGradient id="Dégradé_sans_nom_48-7" x1="436.57" y1="157" x2="554.03" y2="157" xlink:href="#Dégradé_sans_nom_48"/><clipPath id="clip-path-14"><path class="cls-2" d="M526.13,158.58l14.27,2.26a4.12,4.12,0,0,1,1.92.79,3.46,3.46,0,0,1,1.12,1.54,4.16,4.16,0,0,1,.16,2.07,4.21,4.21,0,0,1-.8,1.93,3.39,3.39,0,0,1-1.53,1.11,4.19,4.19,0,0,1-2.08.17l-14.27-2.26a4.27,4.27,0,0,1-1.92-.79,3.52,3.52,0,0,1-1.12-1.54,4.17,4.17,0,0,1-.16-2.07,4.21,4.21,0,0,1,.8-1.93,3.39,3.39,0,0,1,1.53-1.11A4.08,4.08,0,0,1,526.13,158.58Z"/></clipPath><clipPath id="clip-path-15"><rect class="cls-2" x="477.44" y="122.41" width="7.7" height="65.97" rx="0.96" transform="translate(252.7 606.55) rotate(-81.02)"/></clipPath><clipPath id="clip-path-16"><path class="cls-5" d="M422,218.47a1.7,1.7,0,0,1,1.7,1.69v3a1.69,1.69,0,0,1-1.62,1.69H422a1.69,1.69,0,0,1-1.69-1.69v-3a1.69,1.69,0,0,1,1.61-1.69Zm9.13,3.74.06.06a1.63,1.63,0,0,1,0,2.3l-2.3,2.3a1.64,1.64,0,0,1-2.24.06l-.06-.06a1.62,1.62,0,0,1,0-2.3l2.3-2.3A1.63,1.63,0,0,1,431.13,222.21Zm-16,.06,2.3,2.3a1.64,1.64,0,0,1,.06,2.24l-.06.06a1.63,1.63,0,0,1-2.3,0l-2.3-2.3a1.63,1.63,0,0,1-.06-2.23l.06-.07A1.64,1.64,0,0,1,415.11,222.27Zm-1.4,7.5a1.71,1.71,0,0,1,1.7,1.62v.08a1.7,1.7,0,0,1-1.7,1.69h-3a1.71,1.71,0,0,1-1.7-1.61v-.08a1.7,1.7,0,0,1,1.7-1.7Zm19.6,0a1.69,1.69,0,0,1,1.69,1.62v.08a1.69,1.69,0,0,1-1.69,1.69h-3a1.69,1.69,0,0,1-1.69-1.61v-.08a1.7,1.7,0,0,1,1.69-1.7Zm-16,6.23.07.06a1.64,1.64,0,0,1,0,2.3l-2.3,2.3a1.64,1.64,0,0,1-2.24.06l-.06-.06a1.63,1.63,0,0,1,0-2.3l2.3-2.3A1.63,1.63,0,0,1,417.34,236Zm11.56.06,2.3,2.3a1.63,1.63,0,0,1,.05,2.24l-.06.06a1.62,1.62,0,0,1-2.29,0l-2.3-2.3a1.63,1.63,0,0,1-.06-2.24l.06-.06A1.64,1.64,0,0,1,428.9,236.06Zm-6.9,2a1.7,1.7,0,0,1,1.7,1.7v3a1.69,1.69,0,0,1-1.62,1.69H422a1.7,1.7,0,0,1-1.69-1.7v-3a1.69,1.69,0,0,1,1.61-1.7Z"/></clipPath><linearGradient id="Dégradé_sans_nom_49-3" x1="407.12" y1="231.47" x2="436.89" y2="231.47" xlink:href="#Dégradé_sans_nom_49"/><clipPath id="clip-path-17"><path class="cls-2" d="M591.25,28a4.1,4.1,0,0,1,5.13-2.69l35.88,11.14,10.07,18.91-14.1,45.42a4.09,4.09,0,0,1-5.13,2.69L576.59,89a4.09,4.09,0,0,1-2.7-5.12Z"/></clipPath><linearGradient id="Dégradé_sans_nom_48-8" x1="570.12" y1="64.41" x2="649.36" y2="64.41" gradientTransform="translate(490.39 -536.99) rotate(72.75)" xlink:href="#Dégradé_sans_nom_48"/><clipPath id="clip-path-18"><path class="cls-3" d="M620.45,57.33A2.69,2.69,0,1,1,617,59.08,2.74,2.74,0,0,1,620.45,57.33ZM607.59,55.9l4.52,14.79,5.28-4.42a.36.36,0,0,1,.62.17l4.83,13.83c.1.3-.06.46-.36.37l-7.61-2.28-8.14-2.61L590,70.54c-.3-.1-.35-.34-.11-.54L607,55.72A.36.36,0,0,1,607.59,55.9Z"/></clipPath><clipPath id="clip-path-19"><path class="cls-2" d="M632.26,36.47l10.07,18.91-14.49-1.82a2.68,2.68,0,0,1-2.2-4.15Z"/></clipPath><clipPath id="clip-path-20"><rect class="cls-2" x="99.45" y="303.72" width="45.07" height="45.07" rx="4.88" transform="translate(-219.83 393.25) rotate(-80.59)"/></clipPath><linearGradient id="Dégradé_sans_nom_48-9" x1="84.77" y1="333.89" x2="133.91" y2="333.89" gradientTransform="translate(455.87 216.92) rotate(90)" xlink:href="#Dégradé_sans_nom_48"/><clipPath id="clip-path-21"><path class="cls-3" d="M115.71,317.86a1.35,1.35,0,0,1,1.79.49,1.25,1.25,0,0,1-.49,1.74l-8,4.39,6.7,5.13a1.26,1.26,0,0,1,.23,1.79,1.32,1.32,0,0,1-1.84.21l-8.24-6.32a1.26,1.26,0,0,1,.16-2.11ZM129,320.35a1.27,1.27,0,0,1,1.8-.07l7.8,7.25a1.28,1.28,0,0,1-.33,2.09L128.9,334a1.26,1.26,0,0,1-1.69-.61,1.29,1.29,0,0,1,.62-1.7l7.62-3.58-6.42-6A1.29,1.29,0,0,1,129,320.35Zm-4.81-2.9a1.27,1.27,0,1,1,2.36,1l-6.62,16.21a1.27,1.27,0,1,1-2.35-1Z"/></clipPath><clipPath id="clip-path-22"><rect class="cls-2" x="21.84" y="191.38" width="44.57" height="82.78" rx="3.27" transform="translate(-191.69 255.59) rotate(-84.79)"/></clipPath><linearGradient id="Dégradé_sans_nom_48-10" x1="-12.29" y1="227.33" x2="72.12" y2="227.33" gradientTransform="translate(271.46 202.86) rotate(90)" xlink:href="#Dégradé_sans_nom_48"/><clipPath id="clip-path-23"><path class="cls-3" d="M14,248.8l14-17.55a3.26,3.26,0,0,1,5.17.1l4.45,6.05a5.06,5.06,0,0,0,8.17,0l13.67-19a3.26,3.26,0,0,1,5.44.22l11,18.23a.9.9,0,0,0,1.23.3.89.89,0,0,0,.31-1.23l-11-18.23a5.05,5.05,0,0,0-8.43-.34l-13.66,19a3.26,3.26,0,0,1-5.27,0l-4.46-6.06a5,5,0,0,0-8-.15l-14,17.55A.9.9,0,1,0,14,248.8Z"/></clipPath><clipPath id="clip-path-24"><circle class="cls-6" cx="19.85" cy="240.07" r="2.69"/></clipPath><clipPath id="clip-path-25"><circle class="cls-6" cx="51.09" cy="228.32" r="2.69"/></clipPath><linearGradient id="Dégradé_sans_nom_10-3" x1="149.33" y1="117.66" x2="199.07" y2="117.66" gradientTransform="translate(-18.58 21.27) rotate(-7.3)" xlink:href="#Dégradé_sans_nom_10"/><linearGradient id="Dégradé_sans_nom_17" x1="114.1" y1="96.59" x2="192.17" y2="96.59" gradientTransform="translate(-18.58 21.27) rotate(-7.3)" gradientUnits="userSpaceOnUse"><stop offset="0" stop-color="#f9ede0"/><stop offset="1" stop-color="#fb5460"/></linearGradient><linearGradient id="Dégradé_sans_nom_10-4" x1="86.66" y1="152.33" x2="149.52" y2="152.33" xlink:href="#Dégradé_sans_nom_10"/><linearGradient id="Dégradé_sans_nom_17-2" x1="36.47" y1="152.1" x2="132.38" y2="152.1" gradientTransform="matrix(1, 0, 0, 1, 0, 0)" xlink:href="#Dégradé_sans_nom_17"/><linearGradient id="Dégradé_sans_nom_34" x1="180.43" y1="169.17" x2="262.96" y2="169.17" gradientTransform="translate(-18.58 21.27) rotate(-7.3)" gradientUnits="userSpaceOnUse"><stop offset="0" stop-color="#2f3e49"/><stop offset="1"/></linearGradient><linearGradient id="Dégradé_sans_nom_34-2" x1="134.25" y1="184.91" x2="261.75" y2="184.91" gradientTransform="matrix(1, 0, 0, 1, 0, 0)" xlink:href="#Dégradé_sans_nom_34"/><linearGradient id="Dégradé_sans_nom_4" x1="241.75" y1="167.14" x2="290.94" y2="167.14" gradientUnits="userSpaceOnUse"><stop offset="0" stop-color="#fb5460"/><stop offset="1" stop-color="#2f1c59"/></linearGradient><linearGradient id="Dégradé_sans_nom_4-2" x1="281.43" y1="153.34" x2="292.55" y2="153.34" xlink:href="#Dégradé_sans_nom_4"/><linearGradient id="Dégradé_sans_nom_17-3" x1="300.27" y1="185.71" x2="366.11" y2="185.71" gradientTransform="translate(46.1 -59.07) rotate(11.29)" xlink:href="#Dégradé_sans_nom_17"/><linearGradient id="Dégradé_sans_nom_34-3" x1="264.77" y1="124.6" x2="331.64" y2="124.6" gradientTransform="matrix(1, 0, 0, 1, 0, 0)" xlink:href="#Dégradé_sans_nom_34"/><linearGradient id="Dégradé_sans_nom_4-3" x1="299.78" y1="141.91" x2="332.92" y2="141.91" xlink:href="#Dégradé_sans_nom_4"/><linearGradient id="Dégradé_sans_nom_4-4" x1="311.51" y1="157.51" x2="325.31" y2="157.51" xlink:href="#Dégradé_sans_nom_4"/><linearGradient id="Dégradé_sans_nom_34-4" x1="318.3" y1="158.46" x2="323.02" y2="158.46" gradientTransform="matrix(1, 0, 0, 1, 0, 0)" xlink:href="#Dégradé_sans_nom_34"/><linearGradient id="Dégradé_sans_nom_4-5" x1="289.54" y1="117.31" x2="299.98" y2="117.31" xlink:href="#Dégradé_sans_nom_4"/><linearGradient id="Dégradé_sans_nom_17-4" x1="254.18" y1="208.24" x2="280.81" y2="208.24" gradientTransform="matrix(1, 0, 0, 1, 0, 0)" xlink:href="#Dégradé_sans_nom_17"/><linearGradient id="Dégradé_sans_nom_34-5" x1="272.54" y1="172.25" x2="321.23" y2="172.25" gradientTransform="matrix(1, 0, 0, 1, 0, 0)" xlink:href="#Dégradé_sans_nom_34"/></defs><path id="Background-2" data-name="Background" class="cls-1" d="M489.09,42c37.61,5.24,54.83,52.09,82.24,93.7C599.09,177,637,212.8,642.67,251.5c6,38.71-20,80-62.56,99.82-42.87,19.79-102.26,17.46-145.49,16.58-43.58-1.16-71-.87-97-2.91S287,358.88,256.8,353.35c-29.87-5.53-65-12.22-75.91-30-11.25-17.75,1.41-46.27,3.51-73.91,2.11-27.36-6.67-54.13-6-87s10.19-72.17,37.95-82.07c27.77-10.18,73.8,9.61,125.82,1.17C393.86,73.12,451.49,36.74,489.09,42Z"/><g class="cls-9"><g id="Coral"><g class="cls-10"><path class="cls-3" d="M431.39,333.7c-.61,2.74-2,5-1.81,8.18.2,3.37,2.15,7.3,2.75,10.83.88,5.24-1.41,9.07-5.07,10.77s-8.53,1.48-13.51.6c-3.46-.61-7.77-1-7,3.07a7.85,7.85,0,0,0,.57,1.74c.13.3.27.6.41.9,2,4.2.77,7.68-2.75,7.68H393.64c-2.25,0-5-1.45-7.15-3.79-5.65-6.07-9.5-14.06-9.06-20,.16-2.1.78-4,.69-6.19-.18-4.28-2.94-9.4-6.22-13.94-7.4-10.25-17.76-18.88-24.19-29.48-1.95-3.22-3.53-6.74-3.32-9.52a5.36,5.36,0,0,1,3.44-4.61c3-1.26,7.66-.55,11.38,3.08,4.32,4.22,5.16,9.9,7.75,15a30.35,30.35,0,0,0,9.28,10.66c2.19,1.53,4.76,2.68,6.28,1.91a3.57,3.57,0,0,0,1.51-2.74c.71-4-.06-8.89-2.19-13.87-1.94-4.54-4.92-9-7.36-13.54-5.64-10.42-8.35-21.19-7.55-30s5.1-15.53,12-18.77a9,9,0,0,1,9.63.84,20.74,20.74,0,0,1,4.78,5.42,52.92,52.92,0,0,1,8.75,31.52c-.46,9.44-3.25,17.48-4.93,26.2-.62,3.2-1.07,6.69.36,10.7,1.28,3.62,4,7.39,4.63,10.86.44,2.41-.19,4.33-.5,6.38-.65,4.46.27,9.9,2.63,15.38a12.75,12.75,0,0,0,2.13,3.57c2.77,3.06,6.33,2.7,8.8,1.88,2.77-.93,5.66-2.08,6.34-5.12.86-3.83-2-9.38-4.33-14-2.78-5.52-6.6-11.07-8.23-16.59-1.13-3.87,0-5.89,1.55-8.07,2.05-2.85,5.53-5.46,10.13-2.47a19,19,0,0,1,4.67,4.85C430.3,320,432.65,328,431.39,333.7Z"/></g><g class="cls-10"><path class="cls-3" d="M439.72,331.55c1,5.32-2,10.43-4,15.46s-2.59,11.69,1.72,15c1.11.84,2.47,1.37,3.41,2.41,1.61,1.83,1.41,4.74.16,6.84a2.39,2.39,0,0,1-.13.21,2.62,2.62,0,0,0,2.19,4h35.72a2.61,2.61,0,0,0,1.69-.62c5.32-4.54,10.32-9.84,10.91-16.64.49-5.65-2.32-11.18-6.27-15.25-2.52-2.6-5.68-5-6.35-8.58-.71-3.78,1.72-7.44,4.54-10.05,5.41-5,12.49-7.72,18.56-11.89s11.46-10.82,10.56-18.13c-.72-5.71-5.15-10.29-10-13.37-2.9-1.84-6.16-3.34-9.64-2.88a7,7,0,0,0-5.66,4.06c-1.92,4.73,2.85,9.42,3.5,14.45.63,4.86-2.77,9.43-6.83,12.19s-8.83,4.25-13.1,6.67-8.24,6.26-8.76,11.14A10.2,10.2,0,0,0,464.1,334c3,3.72,4.63,10.05,9.95,11.58,16.69,4.81-4.34,9.13-8,11.4s-8.46,3.28-12.63,1.54-6-6.74-6.58-10.81c-1.05-7,2.23-12.75,4.87-18.92,2.25-5.25,5.06-12.12,2.06-17.63a9.37,9.37,0,0,0-.67-1.05,10.62,10.62,0,0,0-8.4-4.57c-6.36,0-11.74,6.75-10.54,13C435.07,323.16,438.87,326.88,439.72,331.55Z"/></g><g class="cls-10"><path class="cls-3" d="M283.81,317.55c-1,5.32,2,10.43,4,15.46s2.59,11.69-1.72,15c-1.11.84-2.47,1.37-3.4,2.41-1.62,1.83-1.42,4.74-.17,6.84a2.39,2.39,0,0,0,.13.21,2.62,2.62,0,0,1-2.19,4H244.74a2.61,2.61,0,0,1-1.69-.62c-5.31-4.54-10.31-9.84-10.91-16.64-.49-5.65,2.33-11.18,6.28-15.25,2.51-2.6,5.67-5,6.34-8.58.72-3.78-1.72-7.44-4.54-10.05-5.41-5-12.49-7.72-18.56-11.89s-11.46-10.82-10.56-18.13c.72-5.71,5.15-10.29,10-13.37,2.89-1.84,6.15-3.34,9.63-2.88a7,7,0,0,1,5.66,4.06c1.92,4.73-2.85,9.42-3.5,14.45-.63,4.86,2.77,9.43,6.83,12.19s8.84,4.25,13.1,6.67,8.24,6.26,8.76,11.14a10.2,10.2,0,0,1-2.17,7.39c-3,3.72-4.63,10.05-10,11.58-16.69,4.81,4.35,9.13,8,11.4s8.46,3.28,12.63,1.54,6-6.74,6.58-10.81c1.05-7-2.23-12.75-4.87-18.92-2.25-5.25-5.06-12.12-2.05-17.63a9.31,9.31,0,0,1,.66-1.05,10.63,10.63,0,0,1,8.4-4.57c6.37,0,11.74,6.75,10.54,13C288.45,309.16,284.66,312.88,283.81,317.55Z"/></g><path class="cls-11" d="M584.74,321.73c-2.56,3.24-5.81,5.91-7.63,9.67-1.93,4-2,8.63-3.5,12.8-2.27,6.2-7.7,10.73-13.51,12.73s-11.94,1.75-17.79.71c-4.06-.72-9.33-1.23-11,3.63a7.24,7.24,0,0,0-.4,2.06c0,.35,0,.7,0,1.06-.14,5-4,9.08-8.53,9.08H507.72A7.44,7.44,0,0,1,501,369a25.56,25.56,0,0,1,1.34-23.66c1.57-2.49,3.57-4.68,4.9-7.32,2.55-5.06,2.32-11.12,1.05-16.48-2.88-12.12-10.62-22.32-12-34.85-.42-3.81-.16-8,1.91-11.26a13.69,13.69,0,0,1,7.42-5.45c4.63-1.49,10.23-.65,12.66,3.64,2.82,5,.21,11.71.23,17.73,0,4.81,1.89,6.46,5,9.61,1.82,1.81,4.39,6.16,6.84,5.26a9,9,0,0,0,3.73-3.25,32.24,32.24,0,0,0,6.18-16.39c.45-5.37-.48-10.66-.69-16a61.58,61.58,0,0,1,9.74-35.44,55.3,55.3,0,0,1,27.62-22.19c4.05-1.42,8.93-2.09,11.85,1,1.56,1.64,2.23,4,2.63,6.41,2.1,12.65-2.46,26.09-9.19,37.26s-15.54,20.67-23.37,31c-2.87,3.78-5.71,7.9-6.47,12.65-.71,4.27.34,8.73-1.08,12.83-1,2.85-3.06,5.12-4.79,7.55a36.9,36.9,0,0,0-6.6,18.18,9,9,0,0,0,.42,4.22c1.58,3.62,6.41,3.19,10.12,2.22,4.16-1.1,8.62-2.45,11.48-6.05,3.6-4.53,3.51-11.1,3.51-16.56,0-6.52-1.32-13.08.18-19.61,1-4.57,3.81-7,7.23-9.53,4.49-3.37,10.67-6.46,14.65-2.92a10.85,10.85,0,0,1,2.86,5.73A29.88,29.88,0,0,1,584.74,321.73Z"/><path class="cls-12" d="M314.55,346.1c-.29,1.33-1,2.43-.87,4s1,3.54,1.33,5.25a4.55,4.55,0,0,1-2.46,5.22c-1.77.82-4.13.71-6.55.29-1.67-.3-3.76-.5-3.4,1.49a4.09,4.09,0,0,0,.27.84l.2.44c1,2,.37,3.72-1.33,3.72h-5.49a5.14,5.14,0,0,1-3.46-1.84c-2.74-2.94-4.61-6.81-4.39-9.7a22.38,22.38,0,0,0,.33-3c-.09-2.08-1.43-4.56-3-6.76-3.59-5-8.61-9.15-11.73-14.29a8.76,8.76,0,0,1-1.61-4.61,2.6,2.6,0,0,1,1.67-2.24,5.32,5.32,0,0,1,5.52,1.49c2.09,2.05,2.5,4.8,3.75,7.27a14.7,14.7,0,0,0,4.5,5.17c1.06.75,2.31,1.3,3,.93a1.76,1.76,0,0,0,.74-1.33,12.24,12.24,0,0,0-1.06-6.72c-1-2.21-2.39-4.37-3.58-6.57-2.73-5.05-4-10.27-3.65-14.53s2.47-7.53,5.81-9.1a4.37,4.37,0,0,1,4.66.41,9.78,9.78,0,0,1,2.32,2.63,25.58,25.58,0,0,1,4.24,15.27c-.22,4.58-1.58,8.48-2.39,12.71a9.24,9.24,0,0,0,.18,5.18c.61,1.75,1.93,3.58,2.24,5.26a8.5,8.5,0,0,1-.24,3.1,14.21,14.21,0,0,0,1.27,7.45,6.14,6.14,0,0,0,1,1.73,3.84,3.84,0,0,0,4.27.92c1.34-.46,2.74-1,3.07-2.49.42-1.85-1-4.54-2.1-6.78-1.34-2.68-3.2-5.37-4-8.05a3.88,3.88,0,0,1,.75-3.9c1-1.39,2.68-2.65,4.91-1.2a9.21,9.21,0,0,1,2.26,2.35C314,339.46,315.17,343.35,314.55,346.1Z"/><path class="cls-13" d="M400.87,331.12c.69,6.38,5,11.21,8.74,16s7.12,11.12,5.46,17.26a21.45,21.45,0,0,1-2,4.61c-1.73,3.18.22,7.34,3.44,7.34h10.66a4.17,4.17,0,0,0,3.85-3.17c1.47-4.88.5-11-1.37-15.94-2.54-6.67-6.41-12.88-7-20.14-.84-10.14,4.94-19.45,11.51-26.16s14.29-12.06,19.59-20.15c4.5-6.84,7-15.21,11.15-22.31,3.83-6.49,9-11.78,12.72-18.35,8.26-14.63,7.86-35.22-.94-49.4-1.66-2.68-4.56-5.37-7-3.76a5.4,5.4,0,0,0-2,3.09c-1.69,6.08,2.26,12.08,4.14,18.08,2.77,8.83.93,19-3.36,26.95s-10.79,14-17.61,19c-7.93,5.78-17.2,11.37-20.06,21.75-.88,3.2-1.05,6.61-1.86,9.84a22.27,22.27,0,0,1-9,13.23c-3.12,2-6.67,3-9.85,4.92C404.53,317.05,400.09,323.93,400.87,331.12Z"/><path class="cls-14" d="M386.07,324.55c-1.11,6.14,2.33,12.05,4.63,17.85s3,13.51-2,17.28c-1.28,1-2.85,1.58-3.93,2.79-1.87,2.1-1.64,5.47-.2,7.89l.15.24a3,3,0,0,1-2.53,4.66H341a3,3,0,0,1-1.95-.71c-6.14-5.24-11.91-11.37-12.6-19.21-.56-6.53,2.69-12.92,7.25-17.62,2.9-3,6.55-5.8,7.33-9.9.82-4.36-2-8.59-5.25-11.6-6.25-5.76-14.42-8.92-21.43-13.73s-13.24-12.5-12.19-20.94c.82-6.59,5.94-11.88,11.55-15.44,3.34-2.12,7.11-3.85,11.13-3.32a8,8,0,0,1,6.53,4.69c2.22,5.46-3.29,10.87-4,16.68-.73,5.62,3.19,10.89,7.88,14.08s10.21,4.9,15.13,7.7,9.52,7.22,10.12,12.86a11.79,11.79,0,0,1-2.51,8.54c-3.45,4.3-11.56,7-11.49,13.37.06,5.28,5,10.54,9.23,13.16s9.76,3.78,14.59,1.78,6.88-7.78,7.59-12.48c1.21-8.05-2.58-14.72-5.63-21.85-2.59-6.06-5.84-14-2.37-20.36a10.78,10.78,0,0,1,.77-1.21,12.26,12.26,0,0,1,9.7-5.27c7.35,0,13.56,7.78,12.17,15C391.43,314.86,387.05,319.16,386.07,324.55Z"/></g></g><g id="Fonts"><g class="cls-15"><rect class="cls-16" x="386.1" y="41.51" width="47.32" height="47.32" transform="matrix(0.99, -0.16, 0.16, 0.99, -5.15, 65.24)"/></g><path class="cls-3" d="M402,57.77l-.75,7.75,4.08-.65Zm16.12,7.8a3.13,3.13,0,1,0,3.59,2.6A3.14,3.14,0,0,0,418.08,65.57Zm-19.16-8.93a2.91,2.91,0,0,1,5.52-1l8.45,18A1.56,1.56,0,0,1,410.06,75l-3.38-7.19-5.77.92-.75,7.8A1.56,1.56,0,0,1,398.53,78h-.08a1.56,1.56,0,0,1-1.41-1.7Zm23.19,3.85a1.56,1.56,0,0,1,1.79,1.3l1.67,10.51a1.55,1.55,0,0,1-1.3,1.79,1.58,1.58,0,0,1-1.58-.72,6.2,6.2,0,0,1-3.13,1.47,6.26,6.26,0,1,1,1.34-12l-.09-.57A1.55,1.55,0,0,1,422.11,60.49Z"/><g class="cls-17"><rect class="cls-3" x="393.36" y="50.91" width="32.76" height="27.3" transform="translate(-5.06 65.23) rotate(-9.05)"/></g></g><g id="Text"><g class="cls-18"><rect class="cls-19" x="182.21" y="10.5" width="77.77" height="43.88" transform="translate(0.27 66.69) rotate(-17.16)"/></g><g class="cls-20"><rect class="cls-21" x="192.58" y="19.58" width="57.16" height="25.44" transform="translate(0.32 66.71) rotate(-17.16)"/></g><path class="cls-7" d="M226,33.13a1.24,1.24,0,0,1,.73,2.38l-3,.93a1.24,1.24,0,1,1-.73-2.38ZM211.53,37.6a1.24,1.24,0,0,1,.73,2.38l-14.79,4.57a1.24,1.24,0,1,1-.73-2.38Z"/><g class="cls-22"><rect class="cls-7" x="194.09" y="36.51" width="35.29" height="4.65" transform="translate(-2.03 64.22) rotate(-17.16)"/></g><path class="cls-6" d="M214.68,22.13a1.24,1.24,0,0,1,.73,2.38l-3,.92a1.24,1.24,0,0,1-.73-2.38ZM248.94,33.3a1.25,1.25,0,1,1,.74,2.38l-13.55,4.18a1.25,1.25,0,0,1-.74-2.38Z"/><g class="cls-23"><rect class="cls-6" x="212.06" y="16.65" width="37.24" height="25.44" transform="translate(1.61 69.38) rotate(-17.16)"/></g></g><g id="Rating"><rect class="cls-8" x="623" y="212.98" width="69.52" height="52.1" rx="2.68" transform="translate(-35.96 146.64) rotate(-12.39)"/><g class="cls-24"><rect class="cls-25" x="622.33" y="212.31" width="70.86" height="53.44" transform="translate(-35.96 146.64) rotate(-12.39)"/></g><path class="cls-3" d="M668.32,219.64a1.21,1.21,0,0,1,1.45.93l.05.22a1.21,1.21,0,0,1-.93,1.45l-28.39,6.23a1.22,1.22,0,0,1-1.45-.92l0-.23a1.23,1.23,0,0,1,.93-1.45Zm-6.74,5.81a1.23,1.23,0,0,1,1.45.93v.07a1.21,1.21,0,0,1-.93,1.45L649,230.77a1.21,1.21,0,0,1-1.45-.93v-.07a1.22,1.22,0,0,1,.92-1.45Z"/><g class="cls-26"><rect class="cls-3" x="638.43" y="222.01" width="32.84" height="8.08" transform="translate(-33.24 145.72) rotate(-12.39)"/></g><path class="cls-6" d="M637.79,238.88l1.7,2.13,2.69-.2c.23,0,.31.13.19.31l-1.49,2.27,1,2.53c.09.2,0,.32-.23.26l-2.61-.72L637,247.21c-.17.14-.32.08-.33-.14l-.13-2.72-2.3-1.44c-.18-.12-.17-.28,0-.36l2.53-1,.65-2.65C637.5,238.74,637.65,238.7,637.79,238.88Zm28.66-6.13,1.69,2.12,2.7-.19c.22,0,.3.12.18.31l-1.48,2.27,1,2.52c.08.21,0,.33-.24.27l-2.61-.72-2.06,1.75c-.17.14-.32.08-.33-.15l-.13-2.72-2.3-1.44c-.19-.11-.17-.27,0-.35l2.53-1,.64-2.64C666.16,232.61,666.31,232.57,666.45,232.75ZM657,234.83l1.69,2.13,2.7-.19c.22,0,.3.12.18.3l-1.48,2.27,1,2.53c.08.2,0,.32-.24.26l-2.61-.72-2.06,1.75c-.17.14-.32.08-.33-.14l-.13-2.72-2.3-1.44c-.19-.12-.17-.28,0-.36l2.53-.95.64-2.64C656.67,234.69,656.82,234.66,657,234.83ZM647.32,237l1.69,2.13,2.7-.2c.22,0,.3.13.18.31l-1.49,2.27,1,2.53c.08.2,0,.32-.24.26l-2.61-.72-2.07,1.75c-.17.14-.31.08-.32-.14l-.13-2.72-2.3-1.44c-.19-.12-.17-.28,0-.36l2.53-1L647,237C647,236.81,647.18,236.77,647.32,237Z"/><g class="cls-27"><rect class="cls-6" x="633.21" y="234.86" width="39.16" height="9.65" transform="translate(-36.22 145.59) rotate(-12.39)"/></g><path class="cls-3" d="M677.13,237.26,675,239c-.17.14-.32.08-.33-.14l-.12-2.72-2.34-1.44c-.19-.11-.17-.27,0-.35l2.59-1,.67-2.65c.05-.21.21-.25.35-.07l1.71,2.12,2.76-.2c.22,0,.3.12.18.3L679,235.18l1,2.52c.08.21,0,.33-.24.27Z"/><g class="cls-28"><rect class="cls-3" x="671.52" y="229.81" width="10.02" height="9.5" transform="translate(-34.56 150.57) rotate(-12.39)"/></g><path class="cls-3" d="M654.72,251.5l10.92-2.4a2.66,2.66,0,0,1,1.32,0,1.81,1.81,0,0,1,.9.58,2.53,2.53,0,0,1,.55,1.21l.07.35a2.6,2.6,0,0,1,0,1.33,1.85,1.85,0,0,1-.58.9,2.63,2.63,0,0,1-1.21.54l-10.92,2.4a2.57,2.57,0,0,1-1.32,0,1.91,1.91,0,0,1-.91-.58,2.68,2.68,0,0,1-.54-1.21l-.07-.36a2.56,2.56,0,0,1,0-1.32,1.84,1.84,0,0,1,.58-.91A2.63,2.63,0,0,1,654.72,251.5Z"/><g class="cls-29"><rect class="cls-3" x="652.13" y="249.58" width="17.17" height="6.35" transform="translate(-38.84 147.6) rotate(-12.39)"/></g></g><g id="Form"><rect class="cls-4" x="483.62" y="100.78" width="23.35" height="112.44" rx="4.82" transform="translate(262.93 621.73) rotate(-81.02)"/><g class="cls-30"><rect class="cls-31" x="482.42" y="99.58" width="25.76" height="114.85" transform="translate(262.93 621.73) rotate(-81.02)"/></g><g class="cls-32"><rect class="cls-6" x="527.6" y="151.23" width="10.11" height="24.56" transform="translate(288.03 664.13) rotate(-81.02)"/></g><g class="cls-33"><rect class="cls-3" x="476.24" y="121.21" width="10.11" height="68.38" transform="translate(252.7 606.55) rotate(-81.02)"/></g></g><g id="Spinner"><path class="cls-5" d="M422,218.47a1.7,1.7,0,0,1,1.7,1.69v3a1.69,1.69,0,0,1-1.62,1.69H422a1.69,1.69,0,0,1-1.69-1.69v-3a1.69,1.69,0,0,1,1.61-1.69Zm9.13,3.74.06.06a1.63,1.63,0,0,1,0,2.3l-2.3,2.3a1.64,1.64,0,0,1-2.24.06l-.06-.06a1.62,1.62,0,0,1,0-2.3l2.3-2.3A1.63,1.63,0,0,1,431.13,222.21Zm-16,.06,2.3,2.3a1.64,1.64,0,0,1,.06,2.24l-.06.06a1.63,1.63,0,0,1-2.3,0l-2.3-2.3a1.63,1.63,0,0,1-.06-2.23l.06-.07A1.64,1.64,0,0,1,415.11,222.27Zm-1.4,7.5a1.71,1.71,0,0,1,1.7,1.62v.08a1.7,1.7,0,0,1-1.7,1.69h-3a1.71,1.71,0,0,1-1.7-1.61v-.08a1.7,1.7,0,0,1,1.7-1.7Zm19.6,0a1.69,1.69,0,0,1,1.69,1.62v.08a1.69,1.69,0,0,1-1.69,1.69h-3a1.69,1.69,0,0,1-1.69-1.61v-.08a1.7,1.7,0,0,1,1.69-1.7Zm-16,6.23.07.06a1.64,1.64,0,0,1,0,2.3l-2.3,2.3a1.64,1.64,0,0,1-2.24.06l-.06-.06a1.63,1.63,0,0,1,0-2.3l2.3-2.3A1.63,1.63,0,0,1,417.34,236Zm11.56.06,2.3,2.3a1.63,1.63,0,0,1,.05,2.24l-.06.06a1.62,1.62,0,0,1-2.29,0l-2.3-2.3a1.63,1.63,0,0,1-.06-2.24l.06-.06A1.64,1.64,0,0,1,428.9,236.06Zm-6.9,2a1.7,1.7,0,0,1,1.7,1.7v3a1.69,1.69,0,0,1-1.62,1.69H422a1.7,1.7,0,0,1-1.69-1.7v-3a1.69,1.69,0,0,1,1.61-1.7Z"/><g class="cls-34"><rect class="cls-35" x="407.12" y="216.58" width="29.77" height="29.77"/></g></g><g id="Image"><g class="cls-36"><rect class="cls-37" x="574.33" y="33.92" width="70.81" height="60.99" transform="matrix(0.3, -0.95, 0.95, 0.3, 367.37, 627.61)"/></g><path class="cls-3" d="M620.45,57.33A2.69,2.69,0,1,1,617,59.08,2.74,2.74,0,0,1,620.45,57.33ZM607.59,55.9l4.52,14.79,5.28-4.42a.36.36,0,0,1,.62.17l4.83,13.83c.1.3-.06.46-.36.37l-7.61-2.28-8.14-2.61L590,70.54c-.3-.1-.35-.34-.11-.54L607,55.72A.36.36,0,0,1,607.59,55.9Z"/><g class="cls-38"><rect class="cls-3" x="596.5" y="45.87" width="25.83" height="38.82" transform="translate(366.3 627.9) rotate(-72.75)"/></g><g class="cls-39"><rect class="cls-21" x="624.8" y="35.87" width="21.79" height="21.86" transform="translate(402.44 640.01) rotate(-72.75)"/></g></g><g id="Code"><g class="cls-40"><rect class="cls-41" x="97.41" y="301.69" width="49.13" height="49.13" transform="translate(-219.83 393.25) rotate(-80.59)"/></g><path class="cls-3" d="M115.71,317.86a1.35,1.35,0,0,1,1.79.49,1.25,1.25,0,0,1-.49,1.74l-8,4.39,6.7,5.13a1.26,1.26,0,0,1,.23,1.79,1.32,1.32,0,0,1-1.84.21l-8.24-6.32a1.26,1.26,0,0,1,.16-2.11ZM129,320.35a1.27,1.27,0,0,1,1.8-.07l7.8,7.25a1.28,1.28,0,0,1-.33,2.09L128.9,334a1.26,1.26,0,0,1-1.69-.61,1.29,1.29,0,0,1,.62-1.7l7.62-3.58-6.42-6A1.29,1.29,0,0,1,129,320.35Zm-4.81-2.9a1.27,1.27,0,1,1,2.36,1l-6.62,16.21a1.27,1.27,0,1,1-2.35-1Z"/><g class="cls-42"><rect class="cls-3" x="110.6" y="307.33" width="23.2" height="37.47" transform="translate(-219.46 393.31) rotate(-80.59)"/></g></g><g id="Charts"><g class="cls-43"><rect class="cls-44" x="21.03" y="190.56" width="46.21" height="84.41" transform="translate(-191.69 255.59) rotate(-84.79)"/></g><path class="cls-3" d="M14,248.8l14-17.55a3.26,3.26,0,0,1,5.17.1l4.45,6.05a5.06,5.06,0,0,0,8.17,0l13.67-19a3.26,3.26,0,0,1,5.44.22l11,18.23a.9.9,0,0,0,1.23.3.89.89,0,0,0,.31-1.23l-11-18.23a5.05,5.05,0,0,0-8.43-.34l-13.66,19a3.26,3.26,0,0,1-5.27,0l-4.46-6.06a5,5,0,0,0-8-.15l-14,17.55A.9.9,0,1,0,14,248.8Z"/><g class="cls-45"><rect class="cls-3" x="25.92" y="200.19" width="39.84" height="65.47" transform="translate(-190.29 257.43) rotate(-84.79)"/></g><circle class="cls-6" cx="19.85" cy="240.07" r="2.69"/><g class="cls-46"><rect class="cls-6" x="16.34" y="236.56" width="7.02" height="7.02" transform="translate(-221.02 238.05) rotate(-84.79)"/></g><circle class="cls-6" cx="51.09" cy="228.32" r="2.69"/><g class="cls-47"><rect class="cls-7" x="47.58" y="224.81" width="7.02" height="7.02" transform="translate(-180.92 258.48) rotate(-84.79)"/></g></g><g id="Character"><g id="Bottom"><path class="cls-48" d="M175,123.25c-3.46-5.84-8.91-10.22-14.58-13.91S148.64,102.6,143,98.81a2.88,2.88,0,0,1-1.3-1.42c-.47-1.62,1.44-2.72,2.77-2.67a13.21,13.21,0,0,0,2.66.12,12.19,12.19,0,0,0,2.36-.93,16.56,16.56,0,0,1,4.9-.72c1.74-.13,3.28-.78,5-.54,4.41.59,7.52,5,11.89,5.84,3.21.61,6.73-.79,9.71.56s4.22,4.84,4.68,8c.36,2.48.21,4.31,1,6.72s3.67,8.41,9.46,17.19c-.57.76-14.73,9.2-15.19,7.78C179.8,135.14,176.78,126.32,175,123.25Z"/><path class="cls-49" d="M152.31,104.48c2.06-1.14,7.3,0,13.9,4.14s11.59,7.33,15.87,5.56,4-3.4,4-3.4a49.37,49.37,0,0,0-.3-6.34c-.39-3-1.46-6.11-5.91-6.69-4.88-.65-6.05.59-9.59-1.18S160.69,89.2,154,82.85s-9.25-6.45-18.62-5.39S104.55,83.64,105,87.81C105.18,89.84,133.27,95.06,152.31,104.48Z"/><path class="cls-50" d="M128.22,159.18c-5.23-4.29-13.09-6.84-19.67-8.34s-13.3-2.28-19.85-3.91a2.81,2.81,0,0,1-1.71-.88c-1-1.36.43-3.05,1.7-3.47a13.89,13.89,0,0,0,2.54-.8,11.74,11.74,0,0,0,1.9-1.7,16.29,16.29,0,0,1,4.36-2.36c1.58-.73,2.81-1.87,4.54-2.25,4.34-1,8.76,2.09,13.14,1.37,3.23-.53,6-3.06,9.31-2.83s5.61,3.09,7.14,6c1.17,2.21,1.65,4,3.18,6s6.31,6.64,14.72,12.88c-.28.92-10.14,11.84-10.14,11.84A103.87,103.87,0,0,0,128.22,159.18Z"/><path class="cls-51" d="M101.54,149.46c2.11-5.11,6.33-8,16.55-6.64s13,0,14.29-1.3c-.53-1.07.75-8.16-3.33-9.87-3.64-1.52-4.93.36-11,1.66-9.42,2-11-1.36-30.81-.71s-25,6-28.53,8.31-24.24,25.73-22.13,30.61,11.17-2.33,27.4-10.18S89.74,149.25,101.54,149.46Z"/><path class="cls-52" d="M204.59,180.92c-7.68-2.5-10.09-4.86-11.51-8.24-3-7.2-9.48-25-16.06-44.47,2.2,2,14.45-2.2,14.6-4.86,12,19.52,17.2,24.78,19.61,36.81,8.67.94,25.93,2.41,31.2,3.33C256.91,166,261.72,174,267,181l-7.74,16.78C244.54,191.71,212.28,183.42,204.59,180.92Z"/><path class="cls-53" d="M181.61,183.78s22.87-2.36,35.69-3.93c11.92-11.09,27.3-8.51,33.64-4.46a82.35,82.35,0,0,1,10.81,8.24l-13,30.82c-24.58-1.88-61.6-3.92-74.15-7.55-12.38-3.06-40.33-41.57-40.33-41.57-.38-2.15,7.25-9.67,11.64-10C158.45,165.05,177.2,173.39,181.61,183.78Z"/></g><g id="Top"><path class="cls-54" d="M290.94,158.47a11.57,11.57,0,0,0-11.52-11.6,11.35,11.35,0,0,0-6,1.7h0l-27.75,16.74h0a7.51,7.51,0,0,0-3.42,4.38c-1.74,5.31.87,12.41,5.83,15.86,3.12,2.18,6.43,2.38,8.89.89h0l27.89-17.77A11.61,11.61,0,0,0,290.94,158.47Z"/><path class="cls-55" d="M291.25,150.31c-1.77-2.53-4.7-3.53-6.55-2.22l-1.86,1.32c-1.84,1.31-1.89,4.42-.12,7s4.71,3.53,6.55,2.22l1.86-1.32C293,156,293,152.85,291.25,150.31Z"/><path class="cls-56" d="M291.25,150.31c1.78,2.54,1.72,5.66-.12,7s-4.77.31-6.55-2.22-1.72-5.65.12-7S289.48,147.78,291.25,150.31Z"/><path class="cls-57" d="M402,203.64a4.75,4.75,0,0,0-.77-1.88c-1.45-2.48-3-5-5.21-6.77-3-2.38-12.52-4-16.36-4.05-3.61-.06-39.11,1.76-39.11,1.76s-7.06-7.06-16.24-17.4c-8.86-10-8.75-11.05-15.25-12.3l2.77,25.21s12.58,11,18.28,15.69c4.33,3.54,6.06,4.34,11.31,3.81,4.62-.46,32.15-6.36,33.44-4.93,3.75,2.65,8.35,3.4,11.68,4.67,3,1.15,4.72,1.52,4.27,0-.57-1.89-2.38-3.24-3.8-4.45a.75.75,0,0,1-.34-.5.54.54,0,0,1,.39-.49,1.29,1.29,0,0,1,.65,0,44.06,44.06,0,0,1,11.53,3.22,2.49,2.49,0,0,0,1.95.19A1.75,1.75,0,0,0,402,203.64Z"/><path class="cls-58" d="M367.82,191.37c-1.72,3.78-2.46,7.82-.75,11.89,0,0-18.62,3.48-24.59,4.66s-6.68.68-12.48-3.46-20.47-16.9-20.47-16.9L308,162.79a16.61,16.61,0,0,1,6.17,1.47c2.42,1.33,11.41,12.06,16.63,17.52s9.91,10.29,9.91,10.29Z"/><path class="cls-59" d="M339.32,190.63a8.52,8.52,0,0,0-6,4.85,17,17,0,0,1,7.4-3.41Z"/><path class="cls-6" d="M295,159.5c-1.5.22-17,2.79-17,2.79-4.54,1.34-13.49,17-16.33,21.22-4.12,4.07-7.29,3.85-7.29,3.85-.53,1-1.13,2.2-1.65,3.42-4.35,10.26-4.55,17.14-3.93,23.67,4.81,1.22,14.34,2.1,22.42,1.52,7.61-.55,19.1-4.59,24.36-8.51,3.41-2.55,4.89-3.78,7.7-6.06,11.8-2.45,14.57-12.89,12.56-21.69-2.15-9.48-4-13.31-8.21-20.46C306.53,157.47,303.06,158.27,295,159.5Z"/><path class="cls-60" d="M261.75,216.06c-6,.48-13-1.62-13-1.62s-2.56-9.46,2.69-21.75a47.73,47.73,0,0,1,2.64-5.31,6.74,6.74,0,0,0,2.93-.93l4.36-2.78C257.57,203.86,261.87,215.32,261.75,216.06Z"/><path class="cls-61" d="M331.23,135.41a16.41,16.41,0,0,1-1.1,3.07,9.06,9.06,0,0,1-3.15,3.43h0l-1.52.76-2.89,1.44-1,.49-1.77.88-3.22,1.6-9.35,4.66-4.77,2.37-2.67,1.33-5,2.5h0c.18-1.24-1.74-4.51-4.3-7.16-2.32-2.4-3.91-5.71-5.15-12.9-.77-4.42,6.65-11.94,6.83-16.4a2.71,2.71,0,0,0-.63-2l-2-1.07-22.71-12.26c-1.27-.63-2.3-3.35-2-5.28a7.57,7.57,0,0,1,3-4.45C274.45,91,285,90.27,293,92.3c6.34,1.61,2.25,14,4.39,20.84a7.38,7.38,0,0,0,1.16,2.33,2.23,2.23,0,0,0,1.46.74c4.47.73,15.79-4.68,17.74-1.73a27.7,27.7,0,0,0,6.16,7c2.06,1.56,4,2.26,5.65,4.5A10.85,10.85,0,0,1,331.23,135.41Z"/><path class="cls-57" d="M296.5,146.62l-2.13,13.93A22.44,22.44,0,0,0,298,170.83c1.82,2.71,6.11,6,8.16,3.56,1.25-1.59,2.91-10.3,2.91-10.3l.26-1.28Z"/><path class="cls-57" d="M324.6,129h0s-1.52,3-9.38,5.73c-6.68,2.32-9.86,3.45-14.93,11.16-2.07,2.74-2.11-.47-2.78-4.76a4.44,4.44,0,0,0-1.52-3.32c-1.24-1-5-1.34-6.26,2.72-1,3.09.81,6.43,1.72,7.45a4.21,4.21,0,0,0,3.24,1.48,2.72,2.72,0,0,0,2.21-1.26l.54-.42,1.23,4.38a24.69,24.69,0,0,0,2.87,6.77c1.45,1.36,5.47,3.49,6.27,3.49l1.26.39c3.84,1,9.31,1.12,11.46.38s6-2.75,6.4-15.64C327.36,131.94,324.92,129.57,324.6,129Z"/><path class="cls-62" d="M313.64,144.5a1.62,1.62,0,1,1-1.64-1.68A1.68,1.68,0,0,1,313.64,144.5Z"/><path class="cls-62" d="M325.7,143.58a1.62,1.62,0,1,1-1.64-1.68A1.66,1.66,0,0,1,325.7,143.58Z"/><path class="cls-63" d="M332.86,143.37v-.12c-.27-1.9-.59-4.26-.92-5.64a13.57,13.57,0,0,0-.71-2.2c-.86-1.92-2.26-2.88-5.29-3.22a33.52,33.52,0,0,0-4.84-.15c-1,0-2.06.05-3.24.11-10.91.55-17,1.82-17.7,7-.2,1.45-.29,3.91-.37,5.9v.07a5.62,5.62,0,0,0,.08,1.23,6.42,6.42,0,0,0,1.81,3.56,6.29,6.29,0,0,0,4.78,1.85l.76,0,3-.15a7.23,7.23,0,0,0,6.3-4.51c0-.09.08-.17.11-.26.3-.8.91-2.14,1.79-2.18a1.75,1.75,0,0,1,1.32.84,7.57,7.57,0,0,1,.68,1.14c1.29,2.66,2.75,4.33,5.62,4.18l.66,0h0a6.5,6.5,0,0,0,4.67-2.35A6.59,6.59,0,0,0,332.86,143.37Zm-2,1.75c0,.14-.06.28-.1.41a4.5,4.5,0,0,1-.73,1.47,4,4,0,0,1-.26.32,4.12,4.12,0,0,1-.95.81l-.28.16a.3.3,0,0,1-.11.06l-.33.15a2.84,2.84,0,0,1-.38.13l-.05,0-.36.08s0,0,0,0a1.65,1.65,0,0,1-.32.06h-.09l-.22,0-.67,0c-2.11.11-2.83-1.16-3.77-3.08a10.2,10.2,0,0,0-.66-1.16,5.7,5.7,0,0,0-.41-.53,5.76,5.76,0,0,0-.41-.44l-.24-.21a2.1,2.1,0,0,0-.3-.22,2.33,2.33,0,0,0-.34-.2,3.79,3.79,0,0,0-.42-.18,2.34,2.34,0,0,0-.38-.09.58.58,0,0,0-.14,0,2.73,2.73,0,0,0-.41,0h-.13c-1.83.1-2.91,1.79-3.53,3.45a5.26,5.26,0,0,1-4.68,3.5l-3.81.2a4.43,4.43,0,0,1-4.62-4.61c0-.48,0-1,.06-1.53.06-1.36.14-2.81.25-3.83,0-.15,0-.28.05-.41a5.05,5.05,0,0,1,.12-.56,2.92,2.92,0,0,1,.19-.52s0,0,0-.05a4.08,4.08,0,0,1,.43-.68c.06-.08.13-.15.19-.22l.22-.22.24-.21a4.07,4.07,0,0,1,.57-.39,3.37,3.37,0,0,1,.32-.19,8.5,8.5,0,0,1,1.13-.51l.44-.16.79-.24h0l.54-.14.68-.16.6-.12c.41-.08.84-.15,1.3-.22.7-.11,1.45-.21,2.27-.3,1.05-.11,2.2-.21,3.45-.29l1-.06h0l1.33-.08c2.05-.1,3.73-.14,5.12-.12q.63,0,1.17,0a18.3,18.3,0,0,1,2.11.19l.53.1.33.08.2,0,.41.14a2.57,2.57,0,0,1,.37.16l.26.14h0l.18.13a.76.76,0,0,1,.17.13l.18.18a2.11,2.11,0,0,1,.19.23,1.37,1.37,0,0,1,.13.2,1.91,1.91,0,0,1,.16.32l.09.22s0,0,0,.06a2.81,2.81,0,0,1,.1.31c.12.42.22.89.34,1.4,0,.12.06.26.09.4s.1.49.15.76.11.62.16.95c.17,1.13.35,2.39.49,3.45A4.57,4.57,0,0,1,330.89,145.12Z"/><path class="cls-64" d="M330.93,143.63a4.56,4.56,0,0,1-4.27,5.19l-.67,0c-2.12.1-2.83-1.17-3.77-3.09-.79-1.6-2-3.16-3.85-3.08s-2.9,1.79-3.52,3.45a5.3,5.3,0,0,1-4.68,3.5l-3.81.19a4.43,4.43,0,0,1-4.62-4.61c.07-1.88.16-4.39.35-5.76.46-3.22,4.17-4.76,15.87-5.33s11.31.8,12.08,3.95C330.35,139.38,330.68,141.81,330.93,143.63Z"/><path class="cls-65" d="M320.62,154.06c-3,.15-5-1.05-7.46-.14s-2.17,6.1,1,7.42c2.19.9,6,1.3,8.55-.66s3.43-7.06,1.76-7.62S322.71,154,320.62,154.06Z"/><path class="cls-66" d="M322.41,159.62c-.87,1.34-2.36,1.9-3.33,1.26s-1.05-2.24-.18-3.58,2.36-1.9,3.33-1.26S323.28,158.29,322.41,159.62Z"/><path class="cls-67" d="M300,116.21l-7.83,5.27a2.71,2.71,0,0,0-.63-2l-2-1.07,7.82-5.26a7.38,7.38,0,0,0,1.16,2.33A2.23,2.23,0,0,0,300,116.21Z"/><path class="cls-57" d="M271.61,224.74c4.09,10.48,11.15,27.3,13.23,29.46,4.35,1.64,6.53,5.36,9.32,7.67,2.45,2,4.26,2.92,2.55,3.76-1.91.93-4.61-.53-6.46-1.4-.18.31.26,1.65,1.17,2.74a19.28,19.28,0,0,0,2.42,2.36,71.14,71.14,0,0,0,5.85,4.37,2.59,2.59,0,0,1,1.3,1.53,1.72,1.72,0,0,1-1,1.66,5,5,0,0,1-2,.41,23.62,23.62,0,0,1-8.6-.55c-3.71-1.18-6.65-4.05-8.93-7.21-2.15-3-3.9-6.23-5.93-9.28-1.66-2.5-3.36-5-5-7.48-3.28-5-6.5-10-9.56-15.16-1.11-1.86-2.24-3.73-3.2-5.67s-1.8-3.38-1.86-4.86a70.71,70.71,0,0,1,.5-8.89c.34-3.91,2.63-23.91,3.88-32.24,2.57-17.05,6.54-21.52,17.28-23.32,5.36,6,.15,28,.15,28Z"/><path class="cls-68" d="M278,162.29c-7.07.41-12.42,2.27-15.49,9.14S258.61,185.51,257,199s-2.71,22.92-2.82,26,.22,3.71,2.82,8.51,13.47,20.68,13.47,20.68c2.44-3.84,6.35-7,10.33-7.66L272,223.05l7.2-41.47S282.73,170.72,278,162.29Z"/><path class="cls-59" d="M272,223.05c-1.52-1.36-7-1.49-9.07-.67a11,11,0,0,1,9.43-1.41Z"/><path class="cls-69" d="M290.65,189.67a22.88,22.88,0,0,1-6.89-1,15.61,15.61,0,0,1-9.74-8c-3.9-8.09.19-19.63,9.13-25.72.44-.29,1.08.66.65,1-8.49,5.79-12.41,16.67-8.75,24.27a14.5,14.5,0,0,0,9.05,7.45c6.36,2,14.38.83,21.44-3.16,14.38-8.1,14.54-25.21,14.54-25.94,0-.45,1.15-.45,1.15,0,0,.75-.17,18.51-15.13,26.95A31.92,31.92,0,0,1,290.65,189.67Z"/></g><g id="Bubbles"><ellipse class="cls-70" cx="350.42" cy="151.79" rx="2.31" ry="2.33"/><path class="cls-70" d="M362.24,144.64a3.63,3.63,0,1,1-3.63-3.66A3.65,3.65,0,0,1,362.24,144.64Z"/><path class="cls-70" d="M353.92,136a5.59,5.59,0,1,1-5.59-5.63A5.61,5.61,0,0,1,353.92,136Z"/><ellipse class="cls-70" cx="367.96" cy="121.49" rx="11.31" ry="11.39"/></g></g></svg>