<?xml version="1.0" encoding="utf-8"?>
<!-- Generator: Adobe Illustrator 24.2.0, SVG Export Plug-In . SVG Version: 6.00 Build 0)  -->
<svg version="1.1" id="Calque_1" xmlns="http://www.w3.org/2000/svg" xmlns:xlink="http://www.w3.org/1999/xlink" x="0px" y="0px"
     viewBox="0 0 698.1 377.5" style="enable-background:new 0 0 698.1 377.5;" xml:space="preserve">
<style type="text/css">
	.st0{clip-path:url(#Background_2_);}
	.st1{opacity:0.5;}
	.st2{fill:#FFFFFF;}
	.st3{fill:url(#SVGID_1_);}
	.st4{fill:url(#SVGID_2_);}
	.st5{fill:url(#SVGID_3_);}
	.st6{fill:url(#SVGID_4_);}
	.st7{clip-path:url(#SVGID_6_);fill:url(#SVGID_7_);}
	.st8{clip-path:url(#SVGID_9_);fill:#FFFFFF;}
	.st9{clip-path:url(#SVGID_11_);fill:#F2F6FB;}
	.st10{clip-path:url(#SVGID_13_);fill:#E1E5F0;}
	.st11{clip-path:url(#SVGID_15_);fill:#0075C7;}
	.st12{clip-path:url(#SVGID_17_);fill:#FB5460;}
	.st13{clip-path:url(#SVGID_20_);fill:url(#SVGID_21_);}
	.st14{clip-path:url(#SVGID_23_);fill:#FFFFFF;}
	.st15{clip-path:url(#SVGID_25_);fill:#FB5460;}
	.st16{clip-path:url(#SVGID_27_);fill:#FFFFFF;}
	.st17{clip-path:url(#SVGID_29_);fill:#FFFFFF;}
	.st18{clip-path:url(#SVGID_32_);fill:url(#SVGID_33_);}
	.st19{clip-path:url(#SVGID_35_);fill:#FB5460;}
	.st20{clip-path:url(#SVGID_37_);fill:#FFFFFF;}
	.st21{clip-path:url(#SVGID_40_);fill:url(#SVGID_41_);}
	.st22{clip-path:url(#SVGID_43_);fill:url(#SVGID_44_);}
	.st23{clip-path:url(#SVGID_46_);fill:#FFFFFF;}
	.st24{clip-path:url(#SVGID_48_);fill:#E1E5F0;}
	.st25{clip-path:url(#SVGID_50_);fill:url(#SVGID_51_);}
	.st26{clip-path:url(#SVGID_53_);fill:#FFFFFF;}
	.st27{clip-path:url(#SVGID_55_);fill:url(#SVGID_56_);}
	.st28{clip-path:url(#SVGID_58_);fill:#FFFFFF;}
	.st29{clip-path:url(#SVGID_60_);fill:#FB5460;}
	.st30{clip-path:url(#SVGID_62_);fill:#0075C7;}
	.st31{fill:url(#XMLID_6_);}
	.st32{fill:url(#SVGID_63_);}
	.st33{fill:url(#XMLID_16_);}
	.st34{fill:url(#SVGID_64_);}
	.st35{fill:url(#XMLID_17_);}
	.st36{fill:url(#SVGID_65_);}
	.st37{fill:url(#SVGID_66_);}
	.st38{fill:url(#SVGID_67_);}
	.st39{fill:#E96065;}
	.st40{fill:#FDD3B5;}
	.st41{fill:url(#SVGID_68_);}
	.st42{opacity:0.1;}
	.st43{fill:#FB5460;}
	.st44{fill:#D35962;}
	.st45{fill:url(#SVGID_69_);}
	.st46{fill:#1A2E35;}
	.st47{fill:url(#XMLID_18_);}
	.st48{opacity:0.5;fill:#2B454E;}
	.st49{fill:url(#SVGID_70_);}
	.st50{fill:url(#SVGID_71_);}
	.st51{fill:url(#SVGID_72_);}
	.st52{fill:url(#SVGID_73_);}
	.st53{fill:url(#SVGID_74_);}
	.st54{opacity:0.4;fill:#FAFAFA;}
</style>
    <g>
	<defs>
		<path id="Background" d="M489.1,42c37.6,5.2,54.8,52.1,82.2,93.7c27.8,41.3,65.7,77.1,71.3,115.8c6,38.7-20,80-62.6,99.8
			c-42.9,19.8-102.3,17.5-145.5,16.6c-43.6-1.2-71-0.9-97-2.9c-26-2-50.6-6.1-80.8-11.6c-29.9-5.5-65-12.2-75.9-30
			c-11.2-17.8,1.4-46.3,3.5-73.9c2.1-27.4-6.7-54.1-6-87c0.7-32.9,10.2-72.2,38-82.1c27.8-10.2,73.8,9.6,125.8,1.2
			C393.9,73.1,451.5,36.7,489.1,42z"/>
	</defs>
        <linearGradient id="Background_1_" gradientUnits="userSpaceOnUse" x1="176.2917" y1="204.9662" x2="643.5172" y2="204.9662">
		<stop  offset="0" style="stop-color:#F9EDE0"/>
            <stop  offset="0.9988" style="stop-color:#FFD2B0"/>
	</linearGradient>
        <use xlink:href="#Background"  style="overflow:visible;fill:url(#Background_1_);"/>
        <clipPath id="Background_2_">
		<use xlink:href="#Background"  style="overflow:visible;"/>
	</clipPath>
        <g id="Coral" class="st0">
		<g class="st1">
			<g>
				<path class="st2" d="M431.4,333.7c-0.6,2.7-2,5-1.8,8.2c0.2,3.4,2.1,7.3,2.7,10.8c0.9,5.2-1.4,9.1-5.1,10.8
					c-3.7,1.7-8.5,1.5-13.5,0.6c-3.5-0.6-7.8-1-7,3.1c0.1,0.6,0.3,1.2,0.6,1.7c0.1,0.3,0.3,0.6,0.4,0.9c2,4.2,0.8,7.7-2.8,7.7h-11.3
					c-2.3,0-5-1.4-7.2-3.8c-5.6-6.1-9.5-14.1-9.1-20c0.2-2.1,0.8-4,0.7-6.2c-0.2-4.3-2.9-9.4-6.2-13.9
					c-7.4-10.3-17.8-18.9-24.2-29.5c-2-3.2-3.5-6.7-3.3-9.5c0.2-2.3,1.6-3.8,3.4-4.6c3-1.3,7.7-0.5,11.4,3.1c4.3,4.2,5.2,9.9,7.7,15
					c2.1,4.1,5.5,8,9.3,10.7c2.2,1.5,4.8,2.7,6.3,1.9c0.9-0.5,1.3-1.6,1.5-2.7c0.7-4-0.1-8.9-2.2-13.9c-1.9-4.5-4.9-9-7.4-13.5
					c-5.6-10.4-8.3-21.2-7.5-30c0.8-8.8,5.1-15.5,12-18.8c2.5-1.2,6-1.8,9.6,0.8c1.9,1.4,3.5,3.4,4.8,5.4c7,10.7,9.2,22.1,8.8,31.5
					c-0.5,9.4-3.3,17.5-4.9,26.2c-0.6,3.2-1.1,6.7,0.4,10.7c1.3,3.6,4,7.4,4.6,10.9c0.4,2.4-0.2,4.3-0.5,6.4
					c-0.7,4.5,0.3,9.9,2.6,15.4c0.5,1.2,1.2,2.5,2.1,3.6c2.8,3.1,6.3,2.7,8.8,1.9c2.8-0.9,5.7-2.1,6.3-5.1c0.9-3.8-2-9.4-4.3-14
					c-2.8-5.5-6.6-11.1-8.2-16.6c-1.1-3.9,0-5.9,1.5-8.1c2-2.9,5.5-5.5,10.1-2.5c1.8,1.2,3.4,3,4.7,4.8
					C430.3,320,432.7,328,431.4,333.7z"/>
			</g>
		</g>
            <g class="st1">
			<path class="st2" d="M439.7,331.5c1,5.3-2,10.4-4,15.5c-2,5-2.6,11.7,1.7,15c1.1,0.8,2.5,1.4,3.4,2.4c1.6,1.8,1.4,4.7,0.2,6.8
				c0,0.1-0.1,0.1-0.1,0.2c-1.1,1.8,0.1,4,2.2,4h35.7c0.6,0,1.2-0.2,1.7-0.6c5.3-4.5,10.3-9.8,10.9-16.6c0.5-5.7-2.3-11.2-6.3-15.3
				c-2.5-2.6-5.7-5-6.3-8.6c-0.7-3.8,1.7-7.4,4.5-10c5.4-5,12.5-7.7,18.6-11.9c6.1-4.2,11.5-10.8,10.6-18.1
				c-0.7-5.7-5.1-10.3-10-13.4c-2.9-1.8-6.2-3.3-9.6-2.9c-2.5,0.3-4.7,1.8-5.7,4.1c-1.9,4.7,2.8,9.4,3.5,14.4
				c0.6,4.9-2.8,9.4-6.8,12.2c-4.1,2.8-8.8,4.2-13.1,6.7c-4.3,2.4-8.2,6.3-8.8,11.1c-0.3,2.6,0.5,5.3,2.2,7.4c3,3.7,4.6,10,9.9,11.6
				c16.7,4.8-4.3,9.1-8,11.4c-3.7,2.3-8.5,3.3-12.6,1.5c-4.1-1.7-6-6.7-6.6-10.8c-1-7,2.2-12.7,4.9-18.9c2.2-5.2,5.1-12.1,2.1-17.6
				c-0.2-0.4-0.4-0.7-0.7-1.1c-1.9-2.7-5-4.6-8.4-4.6c-6.4,0-11.7,6.7-10.5,13C435.1,323.2,438.9,326.9,439.7,331.5z"/>
		</g>
            <g class="st1">
			<path class="st2" d="M283.8,317.5c-1,5.3,2,10.4,4,15.5c2,5,2.6,11.7-1.7,15c-1.1,0.8-2.5,1.4-3.4,2.4c-1.6,1.8-1.4,4.7-0.2,6.8
				c0,0.1,0.1,0.1,0.1,0.2c1.1,1.8-0.1,4-2.2,4h-35.7c-0.6,0-1.2-0.2-1.7-0.6c-5.3-4.5-10.3-9.8-10.9-16.6
				c-0.5-5.7,2.3-11.2,6.3-15.3c2.5-2.6,5.7-5,6.3-8.6c0.7-3.8-1.7-7.4-4.5-10c-5.4-5-12.5-7.7-18.6-11.9
				c-6.1-4.2-11.5-10.8-10.6-18.1c0.7-5.7,5.1-10.3,10-13.4c2.9-1.8,6.2-3.3,9.6-2.9c2.5,0.3,4.7,1.8,5.7,4.1
				c1.9,4.7-2.8,9.4-3.5,14.4c-0.6,4.9,2.8,9.4,6.8,12.2c4.1,2.8,8.8,4.2,13.1,6.7c4.3,2.4,8.2,6.3,8.8,11.1
				c0.3,2.6-0.5,5.3-2.2,7.4c-3,3.7-4.6,10-9.9,11.6c-16.7,4.8,4.3,9.1,8,11.4c3.7,2.3,8.5,3.3,12.6,1.5c4.1-1.7,6-6.7,6.6-10.8
				c1-7-2.2-12.7-4.9-18.9c-2.2-5.2-5.1-12.1-2.1-17.6c0.2-0.4,0.4-0.7,0.7-1.1c1.9-2.7,5-4.6,8.4-4.6c6.4,0,11.7,6.7,10.5,13
				C288.5,309.2,284.7,312.9,283.8,317.5z"/>
		</g>
            <g>
			<linearGradient id="SVGID_1_" gradientUnits="userSpaceOnUse" x1="496.071" y1="292.5989" x2="591.9143" y2="292.5989">
				<stop  offset="0" style="stop-color:#0075C7"/>
                <stop  offset="0.9988" style="stop-color:#2F1C59"/>
			</linearGradient>
                <path class="st3" d="M584.7,321.7c-2.6,3.2-5.8,5.9-7.6,9.7c-1.9,4-2,8.6-3.5,12.8c-2.3,6.2-7.7,10.7-13.5,12.7
				c-5.8,2-11.9,1.8-17.8,0.7c-4.1-0.7-9.3-1.2-11,3.6c-0.2,0.7-0.4,1.4-0.4,2.1c0,0.4,0,0.7-0.1,1.1c-0.1,5-4,9.1-8.5,9.1h-14.6
				c-2.9,0-5.5-1.7-6.8-4.5c-3.3-7.2-3.1-16.6,1.3-23.7c1.6-2.5,3.6-4.7,4.9-7.3c2.5-5.1,2.3-11.1,1-16.5
				c-2.9-12.1-10.6-22.3-12-34.9c-0.4-3.8-0.2-8,1.9-11.3c1.7-2.7,4.5-4.5,7.4-5.5c4.6-1.5,10.2-0.6,12.7,3.6
				c2.8,5,0.2,11.7,0.2,17.7c0,4.8,1.9,6.5,5,9.6c1.8,1.8,4.4,6.2,6.8,5.3c1.5-0.6,2.7-1.9,3.7-3.2c3.5-4.7,5.7-10.5,6.2-16.4
				c0.4-5.4-0.5-10.7-0.7-16c-0.5-12.3,3-25,9.7-35.4c6.7-10.4,16.7-18.4,27.6-22.2c4.1-1.4,8.9-2.1,11.9,1c1.6,1.6,2.2,4,2.6,6.4
				c2.1,12.6-2.5,26.1-9.2,37.3c-6.7,11.2-15.5,20.7-23.4,31c-2.9,3.8-5.7,7.9-6.5,12.6c-0.7,4.3,0.3,8.7-1.1,12.8
				c-1,2.8-3.1,5.1-4.8,7.5c-3.7,5.3-6.1,11.7-6.6,18.2c-0.1,1.4-0.1,2.9,0.4,4.2c1.6,3.6,6.4,3.2,10.1,2.2c4.2-1.1,8.6-2.5,11.5-6
				c3.6-4.5,3.5-11.1,3.5-16.6c0-6.5-1.3-13.1,0.2-19.6c1-4.6,3.8-7,7.2-9.5c4.5-3.4,10.7-6.5,14.6-2.9c1.6,1.4,2.4,3.6,2.9,5.7
				C592.2,305.5,590.1,315,584.7,321.7z"/>
		</g>
            <g>
			<linearGradient id="SVGID_2_" gradientUnits="userSpaceOnUse" x1="272.3712" y1="334.1604" x2="315.1006" y2="334.1604">
				<stop  offset="0" style="stop-color:#7ED3F0"/>
                <stop  offset="1" style="stop-color:#2F1C59"/>
			</linearGradient>
                <path class="st4" d="M314.6,346.1c-0.3,1.3-1,2.4-0.9,4c0.1,1.6,1,3.5,1.3,5.2c0.4,2.5-0.7,4.4-2.5,5.2c-1.8,0.8-4.1,0.7-6.5,0.3
				c-1.7-0.3-3.8-0.5-3.4,1.5c0,0.3,0.1,0.6,0.3,0.8c0.1,0.1,0.1,0.3,0.2,0.4c1,2,0.4,3.7-1.3,3.7h-5.5c-1.1,0-2.4-0.7-3.5-1.8
				c-2.7-2.9-4.6-6.8-4.4-9.7c0.1-1,0.4-1.9,0.3-3c-0.1-2.1-1.4-4.6-3-6.8c-3.6-5-8.6-9.2-11.7-14.3c-0.9-1.6-1.7-3.3-1.6-4.6
				c0.1-1.1,0.8-1.8,1.7-2.2c1.4-0.6,3.7-0.3,5.5,1.5c2.1,2,2.5,4.8,3.8,7.3c1,2,2.7,3.9,4.5,5.2c1.1,0.7,2.3,1.3,3,0.9
				c0.5-0.2,0.6-0.8,0.7-1.3c0.3-1.9,0-4.3-1.1-6.7c-0.9-2.2-2.4-4.4-3.6-6.6c-2.7-5.1-4-10.3-3.7-14.5c0.4-4.3,2.5-7.5,5.8-9.1
				c1.2-0.6,2.9-0.9,4.7,0.4c0.9,0.7,1.7,1.7,2.3,2.6c3.4,5.2,4.5,10.7,4.2,15.3c-0.2,4.6-1.6,8.5-2.4,12.7
				c-0.3,1.5-0.5,3.2,0.2,5.2c0.6,1.8,1.9,3.6,2.2,5.3c0.2,1.2-0.1,2.1-0.2,3.1c-0.3,2.2,0.1,4.8,1.3,7.5c0.3,0.6,0.6,1.2,1,1.7
				c1.3,1.5,3.1,1.3,4.3,0.9c1.3-0.5,2.7-1,3.1-2.5c0.4-1.9-1-4.5-2.1-6.8c-1.3-2.7-3.2-5.4-4-8c-0.5-1.9,0-2.9,0.8-3.9
				c1-1.4,2.7-2.6,4.9-1.2c0.9,0.6,1.6,1.5,2.3,2.3C314,339.5,315.2,343.3,314.6,346.1z"/>
		</g>
            <g>
			<linearGradient id="SVGID_3_" gradientUnits="userSpaceOnUse" x1="400.7799" y1="286.3882" x2="483.5172" y2="286.3882">
				<stop  offset="0" style="stop-color:#7ED3F0"/>
                <stop  offset="1" style="stop-color:#2F1C59"/>
			</linearGradient>
                <path class="st5" d="M400.9,331.1c0.7,6.4,5,11.2,8.7,16c3.7,4.8,7.1,11.1,5.5,17.3c-0.4,1.6-1.2,3.1-2,4.6
				c-1.7,3.2,0.2,7.3,3.4,7.3h10.7c1.7,0,3.3-1.3,3.9-3.2c1.5-4.9,0.5-11-1.4-15.9c-2.5-6.7-6.4-12.9-7-20.1
				c-0.8-10.1,4.9-19.4,11.5-26.2c6.6-6.7,14.3-12.1,19.6-20.1c4.5-6.8,7-15.2,11.2-22.3c3.8-6.5,9-11.8,12.7-18.4
				c8.3-14.6,7.9-35.2-0.9-49.4c-1.7-2.7-4.6-5.4-7-3.8c-1,0.6-1.6,1.8-2,3.1c-1.7,6.1,2.3,12.1,4.1,18.1c2.8,8.8,0.9,19-3.4,27
				c-4.3,8-10.8,14-17.6,19c-7.9,5.8-17.2,11.4-20.1,21.8c-0.9,3.2-1.1,6.6-1.9,9.8c-1.4,5.6-4.7,10.4-9,13.2c-3.1,2-6.7,3-9.8,4.9
				C404.5,317.1,400.1,323.9,400.9,331.1z"/>
		</g>
            <g>
			<linearGradient id="SVGID_4_" gradientUnits="userSpaceOnUse" x1="302.0049" y1="318.9784" x2="392.6652" y2="318.9784">
				<stop  offset="0" style="stop-color:#0075C7"/>
                <stop  offset="0.9988" style="stop-color:#2F1C59"/>
			</linearGradient>
                <path class="st6" d="M386.1,324.6c-1.1,6.1,2.3,12.1,4.6,17.9c2.3,5.8,3,13.5-2,17.3c-1.3,1-2.9,1.6-3.9,2.8
				c-1.9,2.1-1.6,5.5-0.2,7.9c0,0.1,0.1,0.2,0.1,0.2c1.3,2-0.1,4.7-2.5,4.7H341c-0.7,0-1.4-0.3-2-0.7c-6.1-5.2-11.9-11.4-12.6-19.2
				c-0.6-6.5,2.7-12.9,7.2-17.6c2.9-3,6.5-5.8,7.3-9.9c0.8-4.4-2-8.6-5.2-11.6c-6.2-5.8-14.4-8.9-21.4-13.7
				c-7-4.8-13.2-12.5-12.2-20.9c0.8-6.6,5.9-11.9,11.5-15.4c3.3-2.1,7.1-3.9,11.1-3.3c2.8,0.4,5.4,2,6.5,4.7
				c2.2,5.5-3.3,10.9-4,16.7c-0.7,5.6,3.2,10.9,7.9,14.1c4.7,3.2,10.2,4.9,15.1,7.7c4.9,2.8,9.5,7.2,10.1,12.9
				c0.3,3-0.6,6.2-2.5,8.5c-3.5,4.3-11.6,7-11.5,13.4c0.1,5.3,5,10.5,9.2,13.2c4.3,2.7,9.8,3.8,14.6,1.8c4.7-2,6.9-7.8,7.6-12.5
				c1.2-8.1-2.6-14.7-5.6-21.9c-2.6-6.1-5.8-14-2.4-20.4c0.2-0.4,0.5-0.8,0.8-1.2c2.2-3.1,5.8-5.3,9.7-5.3c7.4,0,13.6,7.8,12.2,15
				C391.4,314.9,387.1,319.2,386.1,324.6z"/>
		</g>
	</g>
</g>
    <g id="Fonts">
	<g>
		<defs>
			<path id="SVGID_5_" d="M430,83.9l-33.6,5.3c-2.6,0.4-5-1.3-5.4-3.9l-5.3-33.6c-0.4-2.6,1.3-5,3.9-5.4l33.6-5.3
				c2.6-0.4,5,1.3,5.4,3.9l5.3,33.6C434.3,81.1,432.5,83.5,430,83.9z"/>
		</defs>
        <clipPath id="SVGID_6_">
			<use xlink:href="#SVGID_5_"  style="overflow:visible;"/>
		</clipPath>

        <linearGradient id="SVGID_7_" gradientUnits="userSpaceOnUse" x1="372.4106" y1="59.0405" x2="433.4832" y2="59.0405" gradientTransform="matrix(0.9788 0.205 -0.205 0.9788 27.4673 -75.2194)">
			<stop  offset="0" style="stop-color:#F2F6FB"/>
            <stop  offset="0.9991" style="stop-color:#D8DEED"/>
		</linearGradient>
        <polygon class="st7" points="382.7,45.5 429.4,38.1 436.8,84.8 390.1,92.3 		"/>
	</g>
        <g>
		<defs>
			<path id="SVGID_8_" d="M402,57.8l-0.7,7.7l4.1-0.6L402,57.8z M418.1,65.6c-1.7,0.3-2.9,1.9-2.6,3.6s1.9,2.9,3.6,2.6
				s2.9-1.9,2.6-3.6C421.4,66.5,419.8,65.3,418.1,65.6z M398.9,56.6c0.3-2.9,4.2-3.6,5.5-1l8.5,18c0.4,0.8,0,1.7-0.8,2.1
				c-0.8,0.4-1.7,0-2.1-0.8l-3.4-7.2l-5.8,0.9l-0.7,7.8c-0.1,0.8-0.8,1.5-1.6,1.4l-0.1,0c-0.9-0.1-1.5-0.8-1.4-1.7L398.9,56.6z
				 M422.1,60.5c0.9-0.1,1.7,0.4,1.8,1.3l1.7,10.5c0.1,0.9-0.4,1.7-1.3,1.8c-0.6,0.1-1.3-0.2-1.6-0.7c-0.9,0.8-1.9,1.3-3.1,1.5
				c-3.4,0.5-6.6-1.8-7.2-5.2c-0.5-3.4,1.8-6.6,5.2-7.2c1.2-0.2,2.3,0,3.3,0.4l-0.1-0.6C420.7,61.4,421.3,60.6,422.1,60.5z"/>
		</defs>
            <use xlink:href="#SVGID_8_"  style="overflow:visible;fill:#FFFFFF;"/>
            <clipPath id="SVGID_9_">
			<use xlink:href="#SVGID_8_"  style="overflow:visible;"/>
		</clipPath>

            <rect x="393.4" y="50.9" transform="matrix(0.9876 -0.1572 0.1572 0.9876 -5.0553 65.2258)" class="st8" width="32.8" height="27.3"/>
	</g>
</g>
    <g id="Text">
	<g>
		<defs>
			<path id="SVGID_10_" d="M258.9,42.7l-63.2,19.5c-2.5,0.8-5-0.2-5.6-2.2l-10.2-33c-0.6-2,0.9-4.2,3.4-5l63.2-19.5
				c2.5-0.8,5,0.2,5.6,2.2l10.2,33C262.9,39.7,261.4,42,258.9,42.7z"/>
		</defs>
        <clipPath id="SVGID_11_">
			<use xlink:href="#SVGID_10_"  style="overflow:visible;"/>
		</clipPath>

        <rect x="182.2" y="10.5" transform="matrix(0.9555 -0.2951 0.2951 0.9555 0.2744 66.6911)" class="st9" width="77.8" height="43.9"/>
	</g>
        <g>
		<defs>
			<path id="SVGID_12_" d="M221.9,19.9c0.7-0.2,1.4,0.2,1.6,0.8c0.2,0.7-0.2,1.4-0.8,1.6l-3,0.9c-0.7,0.2-1.4-0.2-1.6-0.8
				c-0.2-0.7,0.2-1.4,0.8-1.6L221.9,19.9z M242.8,13.4c0.7-0.2,1.4,0.2,1.6,0.8c0.2,0.7-0.2,1.4-0.8,1.6L226.9,21
				c-0.7,0.2-1.4-0.2-1.6-0.8c-0.2-0.7,0.2-1.4,0.8-1.6L242.8,13.4z M207.4,24.4c0.7-0.2,1.4,0.2,1.6,0.8c0.2,0.7-0.2,1.4-0.8,1.6
				l-14.8,4.6c-0.7,0.2-1.4-0.2-1.6-0.8s0.2-1.4,0.8-1.6L207.4,24.4z M244.9,20.1c0.7-0.2,1.4,0.2,1.6,0.8s-0.2,1.4-0.8,1.6
				L232,26.6c-0.7,0.2-1.4-0.2-1.6-0.8c-0.2-0.7,0.2-1.4,0.8-1.6L244.9,20.1z M227.1,25.6c0.7-0.2,1.4,0.2,1.6,0.8
				c0.2,0.7-0.2,1.4-0.8,1.6l-8,2.5c-0.7,0.2-1.4-0.2-1.6-0.8c-0.2-0.7,0.2-1.4,0.8-1.6L227.1,25.6z M214.9,29.3
				c0.7-0.2,1.4,0.2,1.6,0.8c0.2,0.7-0.2,1.4-0.8,1.6l-8,2.5c-0.7,0.2-1.4-0.2-1.6-0.8s0.2-1.4,0.8-1.6L214.9,29.3z M202.7,33.1
				c0.7-0.2,1.4,0.2,1.6,0.8s-0.2,1.4-0.8,1.6l-8,2.5c-0.7,0.2-1.4-0.2-1.6-0.8s0.2-1.4,0.8-1.6L202.7,33.1z M218.8,35.4
				c0.7-0.2,1.4,0.2,1.6,0.8c0.2,0.7-0.2,1.4-0.8,1.6l-3,0.9c-0.7,0.2-1.4-0.2-1.6-0.8c-0.2-0.7,0.2-1.4,0.8-1.6L218.8,35.4z
				 M246.9,26.7c0.7-0.2,1.4,0.2,1.6,0.8c0.2,0.7-0.2,1.4-0.8,1.6L231,34.2c-0.7,0.2-1.4-0.2-1.6-0.8s0.2-1.4,0.8-1.6L246.9,26.7z
				 M231.2,38.8c0.7-0.2,1.4,0.2,1.6,0.8s-0.2,1.4-0.8,1.6l-8,2.5c-0.7,0.2-1.4-0.2-1.6-0.8c-0.2-0.7,0.2-1.4,0.8-1.6L231.2,38.8z
				 M218.9,42.6c0.7-0.2,1.4,0.2,1.6,0.8s-0.2,1.4-0.8,1.6l-8,2.5c-0.7,0.2-1.4-0.2-1.6-0.8s0.2-1.4,0.8-1.6L218.9,42.6z
				 M206.7,46.3c0.7-0.2,1.4,0.2,1.6,0.8s-0.2,1.4-0.8,1.6l-8,2.5c-0.7,0.2-1.4-0.2-1.6-0.8s0.2-1.4,0.8-1.6L206.7,46.3z"/>
		</defs>
            <clipPath id="SVGID_13_">
			<use xlink:href="#SVGID_12_"  style="overflow:visible;"/>
		</clipPath>

            <rect x="192.6" y="19.6" transform="matrix(0.9555 -0.2951 0.2951 0.9555 0.3167 66.7066)" class="st10" width="57.2" height="25.4"/>
	</g>
        <g>
		<defs>
			<path id="SVGID_14_" d="M226,33.1c0.7-0.2,1.4,0.2,1.6,0.8c0.2,0.7-0.2,1.4-0.8,1.6l-3,0.9c-0.7,0.2-1.4-0.2-1.6-0.8
				s0.2-1.4,0.8-1.6L226,33.1z M211.5,37.6c0.7-0.2,1.4,0.2,1.6,0.8c0.2,0.7-0.2,1.4-0.8,1.6l-14.8,4.6c-0.7,0.2-1.4-0.2-1.6-0.8
				s0.2-1.4,0.8-1.6L211.5,37.6z"/>
		</defs>
            <use xlink:href="#SVGID_14_"  style="overflow:visible;fill:#0075C7;"/>
            <clipPath id="SVGID_15_">
			<use xlink:href="#SVGID_14_"  style="overflow:visible;"/>
		</clipPath>

            <rect x="194.1" y="36.5" transform="matrix(0.9555 -0.2951 0.2951 0.9555 -2.032 64.2165)" class="st11" width="35.3" height="4.7"/>
	</g>
        <g>
		<defs>
			<path id="SVGID_16_" d="M214.7,22.1c0.7-0.2,1.4,0.2,1.6,0.8c0.2,0.7-0.2,1.4-0.8,1.6l-3,0.9c-0.7,0.2-1.4-0.2-1.6-0.8
				c-0.2-0.7,0.2-1.4,0.8-1.6L214.7,22.1z M248.9,33.3c0.7-0.2,1.4,0.2,1.6,0.8s-0.2,1.4-0.8,1.6l-13.5,4.2
				c-0.7,0.2-1.4-0.2-1.6-0.8c-0.2-0.7,0.2-1.4,0.8-1.6L248.9,33.3z"/>
		</defs>
            <use xlink:href="#SVGID_16_"  style="overflow:visible;fill:#FB5460;"/>
            <clipPath id="SVGID_17_">
			<use xlink:href="#SVGID_16_"  style="overflow:visible;"/>
		</clipPath>

            <rect x="212.1" y="16.6" transform="matrix(0.9555 -0.2951 0.2951 0.9555 1.6079 69.3838)" class="st12" width="37.2" height="25.4"/>
	</g>
</g>
    <g id="Rating">
	<g>
		<defs>
			<path id="SVGID_18_" d="M620.8,220.5l62.7-13.8c1.4-0.3,2.9,0.6,3.2,2l10,45.7c0.3,1.4-0.6,2.9-2,3.2L632,271.4
				c-1.4,0.3-2.9-0.6-3.2-2l-10-45.7C618.5,222.2,619.4,220.8,620.8,220.5z"/>
		</defs>
        <linearGradient id="SVGID_19_" gradientUnits="userSpaceOnUse" x1="618.7321" y1="239.0316" x2="696.7845" y2="239.0316">
			<stop  offset="0" style="stop-color:#F2F6FB"/>
            <stop  offset="0.9991" style="stop-color:#D8DEED"/>
		</linearGradient>
        <use xlink:href="#SVGID_18_"  style="overflow:visible;fill:url(#SVGID_19_);"/>
        <clipPath id="SVGID_20_">
			<use xlink:href="#SVGID_18_"  style="overflow:visible;"/>
		</clipPath>
        <linearGradient id="SVGID_21_" gradientUnits="userSpaceOnUse" x1="617.4226" y1="239.0316" x2="698.0939" y2="239.0316">
			<stop  offset="0" style="stop-color:#F2F6FB"/>
            <stop  offset="0.9991" style="stop-color:#D8DEED"/>
		</linearGradient>
        <polygon class="st13" points="617.4,220.5 686.6,205.3 698.1,257.5 628.9,272.7 		"/>
	</g>
        <g>
		<defs>
			<path id="SVGID_22_" d="M668.3,219.6c0.7-0.1,1.3,0.3,1.5,0.9l0,0.2c0.1,0.7-0.3,1.3-0.9,1.5l-28.4,6.2c-0.7,0.1-1.3-0.3-1.5-0.9
				l0-0.2c-0.1-0.7,0.3-1.3,0.9-1.5L668.3,219.6z M661.6,225.5c0.7-0.1,1.3,0.3,1.5,0.9l0,0.1c0.1,0.7-0.3,1.3-0.9,1.5l-13.1,2.9
				c-0.7,0.1-1.3-0.3-1.5-0.9l0-0.1c-0.1-0.7,0.3-1.3,0.9-1.5L661.6,225.5z"/>
		</defs>
            <use xlink:href="#SVGID_22_"  style="overflow:visible;fill:#FFFFFF;"/>
            <clipPath id="SVGID_23_">
			<use xlink:href="#SVGID_22_"  style="overflow:visible;"/>
		</clipPath>

            <rect x="638.4" y="222" transform="matrix(0.9767 -0.2145 0.2145 0.9767 -33.2434 145.7169)" class="st14" width="32.8" height="8.1"/>
	</g>
        <g>
		<defs>
			<path id="SVGID_24_" d="M637.8,238.9l1.7,2.1l2.7-0.2c0.2,0,0.3,0.1,0.2,0.3l-1.5,2.3l1,2.5c0.1,0.2,0,0.3-0.2,0.3l-2.6-0.7
				l-2.1,1.8c-0.2,0.1-0.3,0.1-0.3-0.1l-0.1-2.7l-2.3-1.4c-0.2-0.1-0.2-0.3,0-0.4l2.5-1l0.6-2.6
				C637.5,238.7,637.7,238.7,637.8,238.9z M666.5,232.7l1.7,2.1l2.7-0.2c0.2,0,0.3,0.1,0.2,0.3l-1.5,2.3l1,2.5
				c0.1,0.2,0,0.3-0.2,0.3l-2.6-0.7l-2.1,1.8c-0.2,0.1-0.3,0.1-0.3-0.1l-0.1-2.7l-2.3-1.4c-0.2-0.1-0.2-0.3,0-0.4l2.5-1l0.6-2.6
				C666.2,232.6,666.3,232.6,666.5,232.7z M657,234.8l1.7,2.1l2.7-0.2c0.2,0,0.3,0.1,0.2,0.3l-1.5,2.3l1,2.5c0.1,0.2,0,0.3-0.2,0.3
				l-2.6-0.7l-2.1,1.8c-0.2,0.1-0.3,0.1-0.3-0.1l-0.1-2.7l-2.3-1.4c-0.2-0.1-0.2-0.3,0-0.4l2.5-1l0.6-2.6
				C656.7,234.7,656.8,234.7,657,234.8z M647.3,236.9l1.7,2.1l2.7-0.2c0.2,0,0.3,0.1,0.2,0.3l-1.5,2.3l1,2.5c0.1,0.2,0,0.3-0.2,0.3
				l-2.6-0.7l-2.1,1.8c-0.2,0.1-0.3,0.1-0.3-0.1l-0.1-2.7l-2.3-1.4c-0.2-0.1-0.2-0.3,0-0.4l2.5-1l0.6-2.6
				C647,236.8,647.2,236.8,647.3,236.9z"/>
		</defs>
            <use xlink:href="#SVGID_24_"  style="overflow:visible;fill:#FB5460;"/>
            <clipPath id="SVGID_25_">
			<use xlink:href="#SVGID_24_"  style="overflow:visible;"/>
		</clipPath>

            <rect x="633.2" y="234.9" transform="matrix(0.9767 -0.2145 0.2145 0.9767 -36.2172 145.5928)" class="st15" width="39.2" height="9.7"/>
	</g>
        <g>
		<defs>
			<path id="SVGID_26_" d="M677.1,237.3L675,239c-0.2,0.1-0.3,0.1-0.3-0.1l-0.1-2.7l-2.3-1.4c-0.2-0.1-0.2-0.3,0-0.4l2.6-1l0.7-2.6
				c0.1-0.2,0.2-0.2,0.4-0.1l1.7,2.1l2.8-0.2c0.2,0,0.3,0.1,0.2,0.3l-1.5,2.3l1,2.5c0.1,0.2,0,0.3-0.2,0.3L677.1,237.3z"/>
		</defs>
            <use xlink:href="#SVGID_26_"  style="overflow:visible;fill:#FFFFFF;"/>
            <clipPath id="SVGID_27_">
			<use xlink:href="#SVGID_26_"  style="overflow:visible;"/>
		</clipPath>

            <rect x="671.5" y="229.8" transform="matrix(0.9767 -0.2145 0.2145 0.9767 -34.5637 150.5658)" class="st16" width="10" height="9.5"/>
	</g>
        <g>
		<defs>
			<path id="SVGID_28_" d="M654.7,251.5l10.9-2.4c0.6-0.1,1-0.1,1.3,0c0.4,0.1,0.7,0.3,0.9,0.6s0.4,0.6,0.5,1.2l0.1,0.4
				c0.1,0.6,0.1,1,0,1.3c-0.1,0.4-0.3,0.7-0.6,0.9c-0.3,0.2-0.6,0.4-1.2,0.5l-10.9,2.4c-0.6,0.1-1,0.1-1.3,0s-0.7-0.3-0.9-0.6
				s-0.4-0.6-0.5-1.2l-0.1-0.4c-0.1-0.6-0.1-1,0-1.3c0.1-0.4,0.3-0.7,0.6-0.9C653.8,251.8,654.1,251.6,654.7,251.5z"/>
		</defs>
            <use xlink:href="#SVGID_28_"  style="overflow:visible;fill:#FFFFFF;"/>
            <clipPath id="SVGID_29_">
			<use xlink:href="#SVGID_28_"  style="overflow:visible;"/>
		</clipPath>

            <rect x="652.1" y="249.6" transform="matrix(0.9767 -0.2145 0.2145 0.9767 -38.835 147.5963)" class="st17" width="17.2" height="6.4"/>
	</g>
</g>
    <g id="Form">
	<g>
		<defs>
			<path id="SVGID_30_" d="M446.3,137.4l101.5,16c2.6,0.4,4.4,2.9,4,5.5l-2.1,13.6c-0.4,2.6-2.9,4.4-5.5,4l-101.5-16
				c-2.6-0.4-4.4-2.9-4-5.5l2.1-13.6C441.3,138.8,443.7,137,446.3,137.4z"/>
		</defs>
        <linearGradient id="SVGID_31_" gradientUnits="userSpaceOnUse" x1="438.6371" y1="157.0015" x2="551.9589" y2="157.0015">
			<stop  offset="0" style="stop-color:#F2F6FB"/>
            <stop  offset="0.9991" style="stop-color:#D8DEED"/>
		</linearGradient>
        <use xlink:href="#SVGID_30_"  style="overflow:visible;fill:url(#SVGID_31_);"/>
        <clipPath id="SVGID_32_">
			<use xlink:href="#SVGID_30_"  style="overflow:visible;"/>
		</clipPath>
        <linearGradient id="SVGID_33_" gradientUnits="userSpaceOnUse" x1="436.5684" y1="157.0015" x2="554.0276" y2="157.0015">
			<stop  offset="0" style="stop-color:#F2F6FB"/>
            <stop  offset="0.9991" style="stop-color:#D8DEED"/>
		</linearGradient>
        <polygon class="st18" points="440.6,135.3 554,153.2 550,178.7 436.6,160.8 		"/>
	</g>
        <g>
		<defs>
			<path id="SVGID_34_" d="M526.1,158.6l14.3,2.3c0.8,0.1,1.4,0.4,1.9,0.8c0.5,0.4,0.9,0.9,1.1,1.5c0.2,0.6,0.3,1.3,0.2,2.1
				c-0.1,0.8-0.4,1.4-0.8,1.9c-0.4,0.5-0.9,0.9-1.5,1.1c-0.6,0.2-1.3,0.3-2.1,0.2l-14.3-2.3c-0.8-0.1-1.4-0.4-1.9-0.8
				c-0.5-0.4-0.9-0.9-1.1-1.5c-0.2-0.6-0.3-1.3-0.2-2.1c0.1-0.8,0.4-1.4,0.8-1.9c0.4-0.5,0.9-0.9,1.5-1.1S525.4,158.5,526.1,158.6z"
            />
		</defs>
            <clipPath id="SVGID_35_">
			<use xlink:href="#SVGID_34_"  style="overflow:visible;"/>
		</clipPath>

            <rect x="527.6" y="151.2" transform="matrix(0.156 -0.9878 0.9878 0.156 288.0324 664.1338)" class="st19" width="10.1" height="24.6"/>
	</g>
        <g>
		<defs>
			<path id="SVGID_36_" d="M449.2,147.4c0.1-0.5,0.6-0.9,1.1-0.8l63.3,10c0.5,0.1,0.9,0.6,0.8,1.1l-0.9,5.7
				c-0.1,0.5-0.6,0.9-1.1,0.8l-63.3-10c-0.5-0.1-0.9-0.6-0.8-1.1L449.2,147.4z"/>
		</defs>
            <clipPath id="SVGID_37_">
			<use xlink:href="#SVGID_36_"  style="overflow:visible;"/>
		</clipPath>

            <rect x="476.2" y="121.2" transform="matrix(0.156 -0.9878 0.9878 0.156 252.6951 606.5455)" class="st20" width="10.1" height="68.4"/>
	</g>
</g>
    <g id="Spinner">
	<defs>
		<path id="SVGID_38_" d="M422,218.5c0.9,0,1.7,0.8,1.7,1.7v3c0,0.9-0.7,1.7-1.6,1.7l-0.1,0c-0.9,0-1.7-0.8-1.7-1.7v-3
			C420.3,219.3,421,218.5,422,218.5L422,218.5z M431.1,222.2L431.1,222.2c0.7,0.7,0.7,1.7,0.1,2.4l-2.3,2.3
			c-0.6,0.6-1.6,0.6-2.2,0.1l-0.1-0.1c-0.6-0.6-0.6-1.7,0-2.3l2.3-2.3C429.5,221.7,430.5,221.6,431.1,222.2z M415.1,222.3l2.3,2.3
			c0.6,0.6,0.6,1.6,0.1,2.2l-0.1,0.1c-0.6,0.6-1.7,0.6-2.3,0l-2.3-2.3c-0.6-0.6-0.6-1.6-0.1-2.2l0.1-0.1
			C413.4,221.6,414.5,221.6,415.1,222.3z M413.7,229.8c0.9,0,1.7,0.7,1.7,1.6l0,0.1c0,0.9-0.8,1.7-1.7,1.7h-3
			c-0.9,0-1.7-0.7-1.7-1.6l0-0.1c0-0.9,0.8-1.7,1.7-1.7H413.7z M433.3,229.8c0.9,0,1.7,0.7,1.7,1.6l0,0.1c0,0.9-0.8,1.7-1.7,1.7h-3
			c-0.9,0-1.7-0.7-1.7-1.6l0-0.1c0-0.9,0.8-1.7,1.7-1.7H433.3z M417.3,236L417.3,236c0.7,0.7,0.7,1.7,0.1,2.4l-2.3,2.3
			c-0.6,0.6-1.6,0.6-2.2,0.1l-0.1-0.1c-0.6-0.6-0.6-1.7,0-2.3l2.3-2.3C415.7,235.4,416.7,235.4,417.3,236z M428.9,236.1l2.3,2.3
			c0.6,0.6,0.6,1.6,0.1,2.2l-0.1,0.1c-0.6,0.6-1.7,0.6-2.3,0l-2.3-2.3c-0.6-0.6-0.6-1.6-0.1-2.2l0.1-0.1
			C427.2,235.4,428.3,235.4,428.9,236.1z M422,238.1c0.9,0,1.7,0.8,1.7,1.7v3c0,0.9-0.7,1.7-1.6,1.7l-0.1,0c-0.9,0-1.7-0.8-1.7-1.7
			v-3C420.3,238.8,421,238.1,422,238.1L422,238.1z"/>
	</defs>
        <linearGradient id="SVGID_39_" gradientUnits="userSpaceOnUse" x1="409.0023" y1="231.4662" x2="435.0023" y2="231.4662">
		<stop  offset="0" style="stop-color:#F2F6FB"/>
            <stop  offset="0.9991" style="stop-color:#FFFFFF"/>
	</linearGradient>
        <use xlink:href="#SVGID_38_"  style="overflow:visible;fill:url(#SVGID_39_);"/>
        <clipPath id="SVGID_40_">
		<use xlink:href="#SVGID_38_"  style="overflow:visible;"/>
	</clipPath>
        <linearGradient id="SVGID_41_" gradientUnits="userSpaceOnUse" x1="407.1182" y1="231.4662" x2="436.8863" y2="231.4662">
		<stop  offset="0" style="stop-color:#F2F6FB"/>
            <stop  offset="0.9991" style="stop-color:#FFFFFF"/>
	</linearGradient>
        <rect x="407.1" y="216.6" class="st21" width="29.8" height="29.8"/>
</g>
    <g id="Image">
	<g>
		<defs>
			<path id="SVGID_42_" d="M591.3,28c0.7-2.2,3-3.4,5.1-2.7l35.9,11.1l10.1,18.9l-14.1,45.4c-0.7,2.2-3,3.4-5.1,2.7L576.6,89
				c-2.2-0.7-3.4-3-2.7-5.1L591.3,28z"/>
		</defs>
        <clipPath id="SVGID_43_">
			<use xlink:href="#SVGID_42_"  style="overflow:visible;"/>
		</clipPath>
        <linearGradient id="SVGID_44_" gradientUnits="userSpaceOnUse" x1="570.1164" y1="64.4114" x2="649.3624" y2="64.4114">
			<stop  offset="0" style="stop-color:#F2F6FB"/>
            <stop  offset="0.9991" style="stop-color:#D8DEED"/>
		</linearGradient>
        <polygon class="st22" points="591.1,21.6 649.4,39.6 628.4,107.3 570.1,89.2 		"/>
	</g>
        <g>
		<defs>
			<path id="SVGID_45_" d="M620.4,57.3c1.5,0.5,2.3,2,1.9,3.4c-0.4,1.4-2,2.2-3.4,1.7s-2.3-2-1.9-3.4
				C617.4,57.7,619,56.9,620.4,57.3z M607.6,55.9l4.5,14.8l5.3-4.4c0.2-0.2,0.5-0.1,0.6,0.2l4.8,13.8c0.1,0.3-0.1,0.5-0.4,0.4
				l-7.6-2.3l-8.1-2.6l-16.8-5.2c-0.3-0.1-0.4-0.3-0.1-0.5L607,55.7C607.2,55.5,607.5,55.6,607.6,55.9z"/>
		</defs>
            <use xlink:href="#SVGID_45_"  style="overflow:visible;fill:#FFFFFF;"/>
            <clipPath id="SVGID_46_">
			<use xlink:href="#SVGID_45_"  style="overflow:visible;"/>
		</clipPath>

            <rect x="596.5" y="45.9" transform="matrix(0.2966 -0.955 0.955 0.2966 366.3041 627.9023)" class="st23" width="25.8" height="38.8"/>
	</g>
        <g>
		<defs>
			<path id="SVGID_47_" d="M632.3,36.5l10.1,18.9l-14.5-1.8c-2.2-0.3-3.2-2.1-2.2-4.2L632.3,36.5z"/>
		</defs>
            <clipPath id="SVGID_48_">
			<use xlink:href="#SVGID_47_"  style="overflow:visible;"/>
		</clipPath>

            <rect x="624.8" y="35.9" transform="matrix(0.2966 -0.955 0.955 0.2966 402.4377 640.0059)" class="st24" width="21.8" height="21.9"/>
	</g>
</g>
    <g id="Code_1_">
	<g>
		<defs>
			<path id="SVGID_49_" d="M135.7,351.4l-34.8-5.8c-2.6-0.4-4.5-3-4-5.6l5.8-34.8c0.4-2.6,3-4.5,5.6-4l34.8,5.8c2.6,0.4,4.5,3,4,5.6
				l-5.8,34.8C140.9,350,138.4,351.8,135.7,351.4z"/>
		</defs>
        <clipPath id="SVGID_50_">
			<use xlink:href="#SVGID_49_"  style="overflow:visible;"/>
		</clipPath>

        <linearGradient id="SVGID_51_" gradientUnits="userSpaceOnUse" x1="84.9206" y1="334.0356" x2="134.055" y2="334.0356" gradientTransform="matrix(0.9865 0.1635 -0.1635 0.9865 68.5837 -21.1874)">
			<stop  offset="0" style="stop-color:#F2F6FB"/>
            <stop  offset="0.9991" style="stop-color:#D8DEED"/>
		</linearGradient>
        <polygon class="st25" points="101.8,298 150.2,306 142.2,354.5 93.7,346.5 		"/>
	</g>
        <g>
		<defs>
			<path id="SVGID_52_" d="M115.7,317.9c0.6-0.3,1.4-0.1,1.8,0.5c0.4,0.6,0.1,1.4-0.5,1.7l-8,4.4l6.7,5.1c0.6,0.4,0.7,1.2,0.2,1.8
				c-0.4,0.6-1.3,0.6-1.8,0.2l-8.2-6.3c-0.7-0.6-0.7-1.7,0.2-2.1L115.7,317.9z M129,320.4c0.5-0.5,1.3-0.5,1.8-0.1l7.8,7.2
				c0.7,0.6,0.5,1.7-0.3,2.1l-9.3,4.4c-0.6,0.3-1.4,0-1.7-0.6s0-1.4,0.6-1.7l7.6-3.6l-6.4-6C128.5,321.7,128.5,320.9,129,320.4z
				 M124.2,317.4c0.3-0.7,1-1,1.7-0.7c0.7,0.3,1,1,0.7,1.7l-6.6,16.2c-0.3,0.7-1,1-1.7,0.7c-0.7-0.3-1-1-0.7-1.7L124.2,317.4z"/>
		</defs>
            <use xlink:href="#SVGID_52_"  style="overflow:visible;fill:#FFFFFF;"/>
            <clipPath id="SVGID_53_">
			<use xlink:href="#SVGID_52_"  style="overflow:visible;"/>
		</clipPath>

            <rect x="110.6" y="307.3" transform="matrix(0.1635 -0.9865 0.9865 0.1635 -219.4571 393.3058)" class="st26" width="23.2" height="37.5"/>
	</g>
</g>
    <g id="Charts">
	<g>
		<defs>
			<path id="SVGID_54_" d="M8.2,207.1l75.9,6.9c1.8,0.2,3.1,1.8,3,3.5l-3.5,37.9c-0.2,1.8-1.8,3.1-3.5,3l-75.9-6.9
				c-1.8-0.2-3.1-1.8-3-3.5l3.5-37.9C4.8,208.3,6.4,207,8.2,207.1z"/>
		</defs>
        <clipPath id="SVGID_55_">
			<use xlink:href="#SVGID_54_"  style="overflow:visible;"/>
		</clipPath>

        <linearGradient id="SVGID_56_" gradientUnits="userSpaceOnUse" x1="-12.215" y1="227.4129" x2="72.1962" y2="227.4129" gradientTransform="matrix(0.9959 9.074524e-02 -9.074524e-02 0.9959 34.8977 3.5736)">
			<stop  offset="0" style="stop-color:#F2F6FB"/>
            <stop  offset="0.9991" style="stop-color:#D8DEED"/>
		</linearGradient>
        <polygon class="st27" points="4.2,205.9 88.3,213.6 84.1,259.6 0,251.9 		"/>
	</g>
        <g>
		<defs>
			<path id="SVGID_57_" d="M14,248.8l14-17.6c1.3-1.7,3.9-1.6,5.2,0.1l4.5,6.1c2,2.8,6.2,2.7,8.2,0l13.7-19c1.4-1.9,4.2-1.8,5.4,0.2
				l11,18.2c0.3,0.4,0.8,0.6,1.2,0.3c0.4-0.3,0.6-0.8,0.3-1.2l-11-18.2c-1.9-3.1-6.3-3.3-8.4-0.3l-13.7,19c-1.3,1.8-4,1.8-5.3,0
				l-4.5-6.1c-2-2.7-6-2.7-8-0.2l-14,17.6c-0.3,0.4-0.2,1,0.1,1.3C13.1,249.3,13.7,249.2,14,248.8z"/>
		</defs>
            <use xlink:href="#SVGID_57_"  style="overflow:visible;fill:#FFFFFF;"/>
            <clipPath id="SVGID_58_">
			<use xlink:href="#SVGID_57_"  style="overflow:visible;"/>
		</clipPath>

            <rect x="25.9" y="200.2" transform="matrix(9.074524e-02 -0.9959 0.9959 9.074524e-02 -190.2887 257.4347)" class="st28" width="39.8" height="65.5"/>
	</g>
        <g>
		<defs>
			<circle id="SVGID_59_" cx="19.9" cy="240.1" r="2.7"/>
		</defs>
            <use xlink:href="#SVGID_59_"  style="overflow:visible;fill:#FB5460;"/>
            <clipPath id="SVGID_60_">
			<use xlink:href="#SVGID_59_"  style="overflow:visible;"/>
		</clipPath>

            <rect x="16.3" y="236.6" transform="matrix(9.074524e-02 -0.9959 0.9959 9.074524e-02 -221.0235 238.0546)" class="st29" width="7" height="7"/>
	</g>
        <g>
		<defs>
			<circle id="SVGID_61_" cx="51.1" cy="228.3" r="2.7"/>
		</defs>
            <use xlink:href="#SVGID_61_"  style="overflow:visible;fill:#FB5460;"/>
            <clipPath id="SVGID_62_">
			<use xlink:href="#SVGID_61_"  style="overflow:visible;"/>
		</clipPath>

            <rect x="47.6" y="224.8" transform="matrix(9.074524e-02 -0.9959 0.9959 9.074524e-02 -180.9249 258.483)" class="st30" width="7" height="7"/>
	</g>
</g>
    <g id="Character_1_">
	<g id="Bottom_1_">
		<g id="XMLID_14_">

				<linearGradient id="XMLID_6_" gradientUnits="userSpaceOnUse" x1="149.2302" y1="117.5366" x2="198.9687" y2="117.5366" gradientTransform="matrix(0.9919 -0.1271 0.1271 0.9919 -18.4701 21.379)">
				<stop  offset="0" style="stop-color:#F9EDE0"/>
                    <stop  offset="0.9988" style="stop-color:#FFD2B0"/>
			</linearGradient>
            <path id="XMLID_15_" class="st31" d="M175,123.2c-3.5-5.8-8.9-10.2-14.6-13.9c-5.7-3.7-11.7-6.7-17.3-10.5
				c-0.5-0.4-1.1-0.8-1.3-1.4c-0.5-1.6,1.4-2.7,2.8-2.7c0.9,0,1.8,0.3,2.7,0.1c0.8-0.1,1.6-0.6,2.4-0.9c1.6-0.6,3.3-0.6,4.9-0.7
				c1.7-0.1,3.3-0.8,5-0.5c4.4,0.6,7.5,5,11.9,5.8c3.2,0.6,6.7-0.8,9.7,0.6c2.9,1.3,4.2,4.8,4.7,8.1c0.4,2.5,0.2,4.3,1,6.7
				c0.8,2.4,3.7,8.4,9.5,17.2c-0.6,0.8-14.7,9.2-15.2,7.8C179.8,135.1,176.8,126.3,175,123.2z"/>
		</g>
        <g>

				<linearGradient id="SVGID_63_" gradientUnits="userSpaceOnUse" x1="114.0003" y1="96.4668" x2="192.0681" y2="96.4668" gradientTransform="matrix(0.9919 -0.1271 0.1271 0.9919 -18.4701 21.379)">
				<stop  offset="0" style="stop-color:#F9EDE0"/>
                    <stop  offset="1" style="stop-color:#FB5460"/>
			</linearGradient>
            <path class="st32" d="M152.3,104.5c2.1-1.1,7.3,0,13.9,4.1c6.6,4.2,11.6,7.3,15.9,5.6c4.3-1.8,4-3.4,4-3.4s0.1-3.3-0.3-6.3
				c-0.4-3-1.5-6.1-5.9-6.7c-4.9-0.6-6.1,0.6-9.6-1.2c-3.5-1.8-9.6-7.4-16.4-13.7c-6.7-6.4-9.2-6.4-18.6-5.4
				c-9.4,1.1-30.8,6.2-30.4,10.4C105.2,89.8,133.3,95.1,152.3,104.5z"/>
		</g>
        <g id="XMLID_12_">
			<linearGradient id="XMLID_16_" gradientUnits="userSpaceOnUse" x1="86.6627" y1="152.329" x2="149.5177" y2="152.329">
				<stop  offset="0" style="stop-color:#F9EDE0"/>
                <stop  offset="0.9988" style="stop-color:#FFD2B0"/>
			</linearGradient>
            <path id="XMLID_13_" class="st33" d="M128.2,159.2c-5.2-4.3-13.1-6.8-19.7-8.3c-6.6-1.5-13.3-2.3-19.9-3.9
				c-0.6-0.2-1.3-0.4-1.7-0.9c-1-1.4,0.4-3,1.7-3.5c0.8-0.3,1.8-0.4,2.5-0.8c0.7-0.4,1.3-1.1,1.9-1.7c1.3-1.1,2.9-1.7,4.4-2.4
				c1.6-0.7,2.8-1.9,4.5-2.3c4.3-1,8.8,2.1,13.1,1.4c3.2-0.5,6.1-3.1,9.3-2.8c3.2,0.2,5.6,3.1,7.1,6c1.2,2.2,1.7,4,3.2,6
				c1.5,2,6.3,6.6,14.7,12.9c-0.3,0.9-10.1,11.8-10.1,11.8C137,167.6,131,161.4,128.2,159.2z"/>
		</g>
        <g>
			<linearGradient id="SVGID_64_" gradientUnits="userSpaceOnUse" x1="36.4669" y1="152.0984" x2="132.3815" y2="152.0984">
				<stop  offset="0" style="stop-color:#F9EDE0"/>
                <stop  offset="1" style="stop-color:#FB5460"/>
			</linearGradient>
            <path class="st34" d="M101.5,149.5c2.1-5.1,6.3-7.9,16.5-6.6c10.2,1.3,13,0,14.3-1.3c-0.5-1.1,0.7-8.2-3.3-9.9
				c-3.6-1.5-4.9,0.4-11,1.7c-9.4,2-11-1.4-30.8-0.7c-20,0.7-24.9,6-28.5,8.3c-3.6,2.3-24.2,25.7-22.1,30.6
				c2.1,4.9,11.2-2.3,27.4-10.2C80.3,153.5,89.7,149.3,101.5,149.5z"/>
		</g>
        <g>

				<linearGradient id="XMLID_17_" gradientUnits="userSpaceOnUse" x1="180.329" y1="169.0393" x2="262.8563" y2="169.0393" gradientTransform="matrix(0.9919 -0.1271 0.1271 0.9919 -18.4701 21.379)">
				<stop  offset="0" style="stop-color:#2F3E49"/>
                    <stop  offset="0.9988" style="stop-color:#000000"/>
			</linearGradient>
            <path id="XMLID_11_" class="st35" d="M204.6,180.9c-7.7-2.5-10.1-4.9-11.5-8.2c-3-7.2-9.5-25-16.1-44.5c2.2,2,14.4-2.2,14.6-4.9
				c12,19.5,17.2,24.8,19.6,36.8c8.7,0.9,25.9,2.4,31.2,3.3C256.9,166,261.7,174,267,181l-7.7,16.8
				C244.5,191.7,212.3,183.4,204.6,180.9z"/>
		</g>
        <g>
			<linearGradient id="SVGID_65_" gradientUnits="userSpaceOnUse" x1="134.2535" y1="184.9079" x2="261.7466" y2="184.9079">
				<stop  offset="0" style="stop-color:#2F3E49"/>
                <stop  offset="0.9988" style="stop-color:#000000"/>
			</linearGradient>
            <path class="st36" d="M181.6,183.8c0,0,22.9-2.4,35.7-3.9c11.9-11.1,27.3-8.5,33.6-4.5c6.3,4.1,10.8,8.2,10.8,8.2l-13,30.8
				c-24.6-1.9-61.6-3.9-74.2-7.5c-12.4-3.1-40.3-41.6-40.3-41.6c-0.4-2.1,7.3-9.7,11.6-10C158.4,165,177.2,173.4,181.6,183.8z"/>
		</g>
	</g>
        <g id="Top_1_">
		<g>
			<linearGradient id="SVGID_66_" gradientUnits="userSpaceOnUse" x1="241.751" y1="167.1367" x2="290.9406" y2="167.1367">
				<stop  offset="0" style="stop-color:#FB5460"/>
                <stop  offset="1" style="stop-color:#2F1C59"/>
			</linearGradient>
            <path class="st37" d="M290.9,158.5c0-6.4-5.2-11.6-11.5-11.6c-2.2,0-4.2,0.6-6,1.7l0,0l-27.7,16.7l0,0c-1.5,0.8-2.8,2.3-3.4,4.4
				c-1.7,5.3,0.9,12.4,5.8,15.9c3.1,2.2,6.4,2.4,8.9,0.9l0,0l27.9-17.8C288.5,166.7,290.9,162.9,290.9,158.5z"/>
            <g>
				<linearGradient id="SVGID_67_" gradientUnits="userSpaceOnUse" x1="281.4258" y1="153.3415" x2="292.5491" y2="153.3415">
					<stop  offset="0" style="stop-color:#FB5460"/>
                    <stop  offset="1" style="stop-color:#2F1C59"/>
				</linearGradient>
                <path class="st38" d="M291.3,150.3c-1.8-2.5-4.7-3.5-6.5-2.2c-0.3,0.2-1.5,1.1-1.9,1.3c-1.8,1.3-1.9,4.4-0.1,7
					c1.8,2.5,4.7,3.5,6.5,2.2c0.3-0.2,1.5-1.1,1.9-1.3C293,156,293,152.9,291.3,150.3z"/>
                <path class="st39" d="M291.3,150.3c1.8,2.5,1.7,5.7-0.1,7c-1.8,1.3-4.8,0.3-6.5-2.2c-1.8-2.5-1.7-5.7,0.1-7
					C286.5,146.8,289.5,147.8,291.3,150.3z"/>
			</g>
		</g>
            <g>
			<g>
				<path class="st40" d="M402,203.6c-0.1-0.7-0.4-1.3-0.8-1.9c-1.4-2.5-3-5-5.2-6.8c-3-2.4-12.5-4-16.4-4
					c-3.6-0.1-39.1,1.8-39.1,1.8s-7.1-7.1-16.2-17.4c-8.9-10-8.8-11.1-15.3-12.3l2.8,25.2c0,0,12.6,11,18.3,15.7
					c4.3,3.5,6.1,4.3,11.3,3.8c4.6-0.5,32.1-6.4,33.4-4.9c3.7,2.6,8.4,3.4,11.7,4.7c3,1.1,4.7,1.5,4.3,0c-0.6-1.9-2.4-3.2-3.8-4.4
					c-0.2-0.1-0.3-0.3-0.3-0.5c0-0.2,0.2-0.4,0.4-0.5c0.2-0.1,0.4-0.1,0.6,0c4,0.4,7.8,1.7,11.5,3.2c0.6,0.2,1.3,0.5,2,0.2
					C401.8,205.1,402.1,204.3,402,203.6z"/>

                <linearGradient id="SVGID_68_" gradientUnits="userSpaceOnUse" x1="300.4531" y1="185.8763" x2="366.2939" y2="185.8763" gradientTransform="matrix(0.9807 0.1958 -0.1958 0.9807 45.9535 -59.272)">
					<stop  offset="0" style="stop-color:#F9EDE0"/>
                    <stop  offset="1" style="stop-color:#FB5460"/>
				</linearGradient>
                <path class="st41" d="M367.8,191.4c-1.7,3.8-2.5,7.8-0.8,11.9c0,0-18.6,3.5-24.6,4.7c-6,1.2-6.7,0.7-12.5-3.5
					c-5.8-4.1-20.5-16.9-20.5-16.9l-1.5-24.8c0,0,3.8,0.1,6.2,1.5c2.4,1.3,11.4,12.1,16.6,17.5s9.9,10.3,9.9,10.3L367.8,191.4z"/>
                <path class="st42" d="M339.3,190.6c-4.7,1.1-6,4.8-6,4.8s3.5-2.9,7.4-3.4C340.7,192.1,340.2,191.5,339.3,190.6z"/>
			</g>
                <g>
				<path class="st43" d="M295,159.5c-1.5,0.2-17,2.8-17,2.8c-4.5,1.3-13.5,17-16.3,21.2c-4.1,4.1-7.3,3.8-7.3,3.8
					c-0.5,1-1.1,2.2-1.7,3.4c-4.4,10.3-4.5,17.1-3.9,23.7c4.8,1.2,14.3,2.1,22.4,1.5c7.6-0.5,19.1-4.6,24.4-8.5
					c3.4-2.5,4.9-3.8,7.7-6.1c11.8-2.5,14.6-12.9,12.6-21.7c-2.2-9.5-4-13.3-8.2-20.5C306.5,157.5,303.1,158.3,295,159.5z"/>
                    <g>
					<path class="st44" d="M261.7,216.1c-6,0.5-13-1.6-13-1.6s-2.6-9.5,2.7-21.7c0.9-2.1,1.8-3.8,2.6-5.3c1.1-0.1,2-0.4,2.9-0.9
						l4.4-2.8C257.6,203.9,261.9,215.3,261.7,216.1z"/>
				</g>
			</g>
                <g id="XMLID_1_">
				<g id="XMLID_10_">
					<linearGradient id="SVGID_69_" gradientUnits="userSpaceOnUse" x1="264.7679" y1="124.5973" x2="331.6363" y2="124.5973">
						<stop  offset="0" style="stop-color:#2F3E49"/>
                        <stop  offset="0.9988" style="stop-color:#000000"/>
					</linearGradient>
                    <path class="st45" d="M331.2,135.4c-0.2,1-0.6,2-1.1,3.1c-0.4,0.9-1.8,2.7-3.1,3.4l0,0l-1.5,0.8l-2.9,1.4l-1,0.5l-1.8,0.9
						l-3.2,1.6l-9.3,4.7l-4.8,2.4l-2.7,1.3l-5,2.5v0c0.2-1.2-1.7-4.5-4.3-7.2c-2.3-2.4-3.9-5.7-5.2-12.9c-0.8-4.4,6.7-11.9,6.8-16.4
						c0-0.8-0.1-1.5-0.6-2l-2-1.1l-22.7-12.3c-1.3-0.6-2.3-3.3-2-5.3c0.3-1.8,1.6-3.3,3-4.5c6.6-5.5,17.1-6.1,25.1-4.1
						c6.3,1.6,2.2,14,4.4,20.8c0.3,0.9,0.6,1.7,1.2,2.3c0.3,0.4,0.8,0.6,1.5,0.7c4.5,0.7,15.8-4.7,17.7-1.7c1.7,2.6,3.7,5.1,6.2,7
						c2.1,1.6,4,2.3,5.7,4.5C331.7,128.9,332.1,132.1,331.2,135.4z"/>
                    <path class="st40" d="M296.5,146.6l-2.1,13.9c0,0,0.3,5.3,3.6,10.3c1.8,2.7,6.1,6,8.2,3.6c1.3-1.6,2.9-10.3,2.9-10.3l0.3-1.3
						L296.5,146.6z"/>
                    <path class="st40" d="M324.6,129L324.6,129c0,0-1.5,3-9.4,5.7c-6.7,2.3-9.9,3.5-14.9,11.2c-2.1,2.7-2.1-0.5-2.8-4.8
						c-0.1-1.4-0.5-2.4-1.5-3.3c-1.2-1-5-1.3-6.3,2.7c-0.9,3.1,0.8,6.4,1.7,7.5c1.2,1.3,2.6,1.5,3.2,1.5c1.5-0.1,2.2-1.2,2.2-1.3
						l0.5-0.4l1.2,4.4c0.5,2.4,1.7,4.6,2.9,6.8c1.4,1.4,5.5,3.5,6.3,3.5l1.3,0.4c3.8,1,9.3,1.1,11.5,0.4c2.2-0.7,6-2.7,6.4-15.6
						C327.4,131.9,324.9,129.6,324.6,129z"/>
				</g>
                    <g id="XMLID_7_">
					<path id="XMLID_9_" class="st46" d="M313.6,144.5c0,0.9-0.7,1.7-1.6,1.7c-0.9,0-1.6-0.7-1.6-1.7c0-0.9,0.7-1.7,1.6-1.7
						C312.9,142.8,313.6,143.6,313.6,144.5z"/>
                        <path id="XMLID_8_" class="st46" d="M325.7,143.6c0,0.9-0.7,1.7-1.6,1.7c-0.9,0-1.6-0.7-1.6-1.7c0-0.9,0.7-1.7,1.6-1.7
						C325,141.9,325.7,142.6,325.7,143.6z"/>
				</g>
                    <g id="XMLID_2_">
					<linearGradient id="XMLID_18_" gradientUnits="userSpaceOnUse" x1="299.7811" y1="141.9051" x2="332.9187" y2="141.9051">
						<stop  offset="0" style="stop-color:#FB5460"/>
                        <stop  offset="1" style="stop-color:#2F1C59"/>
					</linearGradient>
                        <path id="XMLID_4_" class="st47" d="M332.9,143.4v-0.1c-0.3-1.9-0.6-4.3-0.9-5.6c-0.2-0.8-0.4-1.6-0.7-2.2
						c-0.9-1.9-2.3-2.9-5.3-3.2c-1.3-0.2-2.9-0.2-4.8-0.1c-1,0-2.1,0-3.2,0.1c-10.9,0.5-17,1.8-17.7,7c-0.2,1.5-0.3,3.9-0.4,5.9v0.1
						c0,0.4,0,0.8,0.1,1.2c0.2,1.3,0.8,2.6,1.8,3.6c1.3,1.3,3,1.9,4.8,1.9l0.8,0l3-0.1c2.8-0.1,5.2-1.9,6.3-4.5
						c0-0.1,0.1-0.2,0.1-0.3c0.3-0.8,0.9-2.1,1.8-2.2c0.5,0,0.9,0.4,1.3,0.8c0.3,0.4,0.5,0.8,0.7,1.1c1.3,2.7,2.8,4.3,5.6,4.2l0.7,0
						h0c1.8-0.1,3.5-1,4.7-2.4C332.6,147,333.1,145.2,332.9,143.4z M330.9,145.1c0,0.1-0.1,0.3-0.1,0.4c-0.2,0.5-0.4,1-0.7,1.5
						c-0.1,0.1-0.2,0.2-0.3,0.3c-0.3,0.3-0.6,0.6-1,0.8c-0.1,0.1-0.2,0.1-0.3,0.2c0,0-0.1,0-0.1,0.1c-0.1,0-0.2,0.1-0.3,0.1
						c-0.1,0-0.2,0.1-0.4,0.1c0,0,0,0,0,0c-0.1,0-0.2,0.1-0.4,0.1c0,0,0,0,0,0c-0.1,0-0.2,0.1-0.3,0.1c0,0-0.1,0-0.1,0
						c-0.1,0-0.1,0-0.2,0l-0.7,0c-2.1,0.1-2.8-1.2-3.8-3.1c-0.2-0.4-0.4-0.8-0.7-1.2c-0.1-0.2-0.3-0.4-0.4-0.5
						c-0.1-0.2-0.3-0.3-0.4-0.4c-0.1-0.1-0.2-0.1-0.2-0.2c-0.1-0.1-0.2-0.2-0.3-0.2c-0.1-0.1-0.2-0.1-0.3-0.2
						c-0.1-0.1-0.3-0.1-0.4-0.2c-0.1,0-0.2-0.1-0.4-0.1c0,0-0.1,0-0.1,0c-0.1,0-0.3,0-0.4,0h-0.1c-1.8,0.1-2.9,1.8-3.5,3.5
						c-0.7,2-2.5,3.4-4.7,3.5l-3.8,0.2c-2.6,0.1-4.7-2-4.6-4.6c0-0.5,0-1,0.1-1.5c0.1-1.4,0.1-2.8,0.2-3.8c0-0.2,0-0.3,0-0.4
						c0-0.2,0.1-0.4,0.1-0.6s0.1-0.4,0.2-0.5c0,0,0,0,0,0c0.1-0.2,0.3-0.5,0.4-0.7c0.1-0.1,0.1-0.2,0.2-0.2c0.1-0.1,0.1-0.2,0.2-0.2
						s0.2-0.1,0.2-0.2c0.2-0.1,0.4-0.3,0.6-0.4c0.1-0.1,0.2-0.1,0.3-0.2c0.3-0.2,0.7-0.4,1.1-0.5c0.1,0,0.3-0.1,0.4-0.2
						c0.2-0.1,0.5-0.2,0.8-0.2c0,0,0,0,0,0c0.2,0,0.3-0.1,0.5-0.1c0.2-0.1,0.4-0.1,0.7-0.2c0.2,0,0.4-0.1,0.6-0.1
						c0.4-0.1,0.8-0.1,1.3-0.2c0.7-0.1,1.4-0.2,2.3-0.3c1-0.1,2.2-0.2,3.5-0.3c0.3,0,0.7,0,1-0.1h0c0.4,0,0.9-0.1,1.3-0.1
						c2-0.1,3.7-0.1,5.1-0.1c0.4,0,0.8,0,1.2,0c0.8,0,1.5,0.1,2.1,0.2c0.2,0,0.4,0.1,0.5,0.1c0.1,0,0.2,0,0.3,0.1c0.1,0,0.1,0,0.2,0
						c0.1,0,0.3,0.1,0.4,0.1c0.1,0,0.3,0.1,0.4,0.2c0.1,0,0.2,0.1,0.3,0.1c0,0,0,0,0,0c0.1,0,0.1,0.1,0.2,0.1c0.1,0,0.1,0.1,0.2,0.1
						c0.1,0.1,0.1,0.1,0.2,0.2c0.1,0.1,0.1,0.1,0.2,0.2c0,0.1,0.1,0.1,0.1,0.2c0.1,0.1,0.1,0.2,0.2,0.3c0,0.1,0.1,0.1,0.1,0.2
						c0,0,0,0,0,0.1c0,0.1,0.1,0.2,0.1,0.3c0.1,0.4,0.2,0.9,0.3,1.4c0,0.1,0.1,0.3,0.1,0.4c0,0.2,0.1,0.5,0.2,0.8
						c0,0.3,0.1,0.6,0.2,1c0.2,1.1,0.4,2.4,0.5,3.5C331,144.1,331,144.6,330.9,145.1z"/>
                        <path id="XMLID_3_" class="st48" d="M330.9,143.6c0.4,2.7-1.6,5.1-4.3,5.2l-0.7,0c-2.1,0.1-2.8-1.2-3.8-3.1
						c-0.8-1.6-2-3.2-3.8-3.1c-1.8,0.1-2.9,1.8-3.5,3.4c-0.7,2-2.5,3.4-4.7,3.5l-3.8,0.2c-2.6,0.1-4.7-2-4.6-4.6
						c0.1-1.9,0.2-4.4,0.4-5.8c0.5-3.2,4.2-4.8,15.9-5.3c11.7-0.6,11.3,0.8,12.1,4C330.3,139.4,330.7,141.8,330.9,143.6z"/>
				</g>
                    <g>
					<linearGradient id="SVGID_70_" gradientUnits="userSpaceOnUse" x1="311.5149" y1="157.5075" x2="325.3094" y2="157.5075">
						<stop  offset="0" style="stop-color:#FB5460"/>
                        <stop  offset="1" style="stop-color:#2F1C59"/>
					</linearGradient>
                        <path class="st49" d="M320.6,154.1c-3,0.2-5-1-7.5-0.1c-2.5,0.9-2.2,6.1,1,7.4c2.2,0.9,6,1.3,8.5-0.7c2.5-1.9,3.4-7.1,1.8-7.6
						C322.8,152.5,322.7,154,320.6,154.1z"/>
                        <g>
						<linearGradient id="SVGID_71_" gradientUnits="userSpaceOnUse" x1="318.2953" y1="158.4609" x2="323.0161" y2="158.4609">
							<stop  offset="0" style="stop-color:#2F3E49"/>
                            <stop  offset="0.9988" style="stop-color:#000000"/>
						</linearGradient>
                            <path class="st50" d="M322.4,159.6c-0.9,1.3-2.4,1.9-3.3,1.3c-1-0.6-1.1-2.2-0.2-3.6c0.9-1.3,2.4-1.9,3.3-1.3
							C323.2,156.7,323.3,158.3,322.4,159.6z"/>
					</g>
				</g>
                    <linearGradient id="SVGID_72_" gradientUnits="userSpaceOnUse" x1="289.5372" y1="117.3062" x2="299.9772" y2="117.3062">
					<stop  offset="0" style="stop-color:#FB5460"/>
                        <stop  offset="1" style="stop-color:#2F1C59"/>
				</linearGradient>
                    <path class="st51" d="M300,116.2l-7.8,5.3c0-0.8-0.1-1.5-0.6-2l-2-1.1l7.8-5.3c0.3,0.9,0.6,1.7,1.2,2.3
					C298.8,115.9,299.3,116.1,300,116.2z"/>
			</g>
                <g>
				<path class="st40" d="M271.6,224.7c4.1,10.5,11.2,27.3,13.2,29.5c4.4,1.6,6.5,5.4,9.3,7.7c2.5,2,4.3,2.9,2.6,3.8
					c-1.9,0.9-4.6-0.5-6.5-1.4c-0.2,0.3,0.3,1.6,1.2,2.7c0.7,0.8,1.6,1.7,2.4,2.4c1.9,1.6,3.8,3,5.9,4.4c0.6,0.4,1.2,0.8,1.3,1.5
					c0.1,0.7-0.4,1.3-1,1.7c-0.6,0.3-1.3,0.4-2,0.4c-2.9,0.2-5.8,0.3-8.6-0.6c-3.7-1.2-6.6-4-8.9-7.2c-2.2-3-3.9-6.2-5.9-9.3
					c-1.7-2.5-3.4-5-5-7.5c-3.3-5-6.5-10-9.6-15.2c-1.1-1.9-2.2-3.7-3.2-5.7c-0.9-1.9-1.8-3.4-1.9-4.9c-0.1-2.5,0.2-5,0.5-8.9
					c0.3-3.9,2.6-23.9,3.9-32.2c2.6-17.1,6.5-21.5,17.3-23.3c5.4,5.9,0.1,28,0.1,28L271.6,224.7z"/>
                    <linearGradient id="SVGID_73_" gradientUnits="userSpaceOnUse" x1="254.1761" y1="208.2444" x2="280.8067" y2="208.2444">
					<stop  offset="0" style="stop-color:#F9EDE0"/>
                        <stop  offset="1" style="stop-color:#FB5460"/>
				</linearGradient>
                    <path class="st52" d="M277.9,162.3c-7.1,0.4-12.4,2.3-15.5,9.1c-3.1,6.9-3.9,14.1-5.5,27.6c-1.6,13.5-2.7,22.9-2.8,26
					c-0.1,3.1,0.2,3.7,2.8,8.5c2.6,4.8,13.5,20.7,13.5,20.7c2.4-3.8,6.3-7,10.3-7.7L272,223l7.2-41.5
					C279.2,181.6,282.7,170.7,277.9,162.3z"/>
                    <path class="st42" d="M272,223c-1.5-1.4-7-1.5-9.1-0.7c0,0,4.1-3.1,9.4-1.4L272,223z"/>
			</g>
                <linearGradient id="SVGID_74_" gradientUnits="userSpaceOnUse" x1="272.5424" y1="172.2528" x2="321.228" y2="172.2528">
				<stop  offset="0" style="stop-color:#2F3E49"/>
                    <stop  offset="0.9988" style="stop-color:#000000"/>
			</linearGradient>
                <path class="st53" d="M290.6,189.7c-2.4,0-4.7-0.3-6.9-1c-4.5-1.4-7.9-4.2-9.7-8c-3.9-8.1,0.2-19.6,9.1-25.7
				c0.4-0.3,1.1,0.7,0.6,1c-8.5,5.8-12.4,16.7-8.7,24.3c1.7,3.5,4.8,6.1,9,7.5c6.4,2,14.4,0.8,21.4-3.2
				c14.4-8.1,14.5-25.2,14.5-25.9c0-0.5,1.1-0.5,1.1,0c0,0.8-0.2,18.5-15.1,26.9C301.1,188.2,295.7,189.7,290.6,189.7z"/>
		</g>
	</g>
        <g id="Bubbles_1_">
		<ellipse class="st54" cx="350.4" cy="151.8" rx="2.3" ry="2.3"/>
            <path class="st54" d="M362.2,144.6c0,2-1.6,3.7-3.6,3.7c-2,0-3.6-1.6-3.6-3.7c0-2,1.6-3.7,3.6-3.7
			C360.6,141,362.2,142.6,362.2,144.6z"/>
            <path class="st54" d="M353.9,136c0,3.1-2.5,5.6-5.6,5.6c-3.1,0-5.6-2.5-5.6-5.6c0-3.1,2.5-5.6,5.6-5.6
			C351.4,130.3,353.9,132.8,353.9,136z"/>
            <ellipse class="st54" cx="368" cy="121.5" rx="11.3" ry="11.4"/>
	</g>
</g>
</svg>
