<svg xmlns="http://www.w3.org/2000/svg" viewBox="0 0 16 16">
  <g>
    <circle class="ti-background" cx="8" cy="8" r="8" fill="#19426C"/>
    <path class="ti-foreground" fill="#FFF" fill-rule="nonzero" d="M13.7521352,9.8783969 C13.881887,9.92559989 13.9488061,10.0690501 13.9016031,10.1988019 C12.9988981,12.6801621 10.6404592,14.3318317 8,14.3318317 L7.98966667,14.331 L7.99333333,14.89 L7.22833959,14.2844518 C4.90863042,13.9980729 2.91209948,12.4355119 2.0983969,10.1988019 C2.05119392,10.0690501 2.11811297,9.92559989 2.24786478,9.8783969 C2.37761658,9.83119392 2.52106678,9.89811297 2.56826976,10.0278648 C3.31531586,12.0813491 5.14558268,13.5174554 7.27377947,13.7862264 L7.98333333,13.21 L7.98694754,13.8318171 C7.99129752,13.8318268 7.99564835,13.8318317 8,13.8318317 C10.4302316,13.8318317 12.6008967,12.3116645 13.4317302,10.0278648 C13.4789332,9.89811297 13.6223834,9.83119392 13.7521352,9.8783969 Z M11.2750781,5.6390141 C11.550173,5.85504446 11.6094149,6.24407484 11.4196839,6.53071089 L11.3876526,6.57507814 L7.82765257,11.1084115 C7.58517391,11.4171858 7.13345081,11.4482294 6.85095535,11.186428 L6.81351772,11.1489112 L4.64685106,8.80224453 C4.3970833,8.53172683 4.41390445,8.10995214 4.68442214,7.86018439 C4.94070206,7.62356231 5.33273618,7.62620561 5.58566297,7.85715231 L5.62648228,7.89775547 L7.262,9.66933333 L10.3390141,5.75158852 C10.5664145,5.46201501 10.9855046,5.41161372 11.2750781,5.6390141 Z M1.97333333,7.36 C2.41332018,7.36 2.77,7.71667982 2.77,8.15666667 C2.77,8.59665352 2.41332018,8.95333333 1.97333333,8.95333333 C1.53334648,8.95333333 1.17666667,8.59665352 1.17666667,8.15666667 C1.17666667,7.71667982 1.53334648,7.36 1.97333333,7.36 Z M14.0266667,7.36 C14.4666535,7.36 14.8233333,7.71667982 14.8233333,8.15666667 C14.8233333,8.59665352 14.4666535,8.95333333 14.0266667,8.95333333 C13.5866798,8.95333333 13.23,8.59665352 13.23,8.15666667 C13.23,7.71667982 13.5866798,7.36 14.0266667,7.36 Z M7.95666667,1.17 L8.73432217,1.78463673 C11.0718758,2.05914756 13.0863805,3.62963757 13.901733,5.88155614 C13.9487383,6.01137972 13.8816008,6.1547278 13.7517772,6.20173304 C13.6219536,6.24873828 13.4786055,6.18160076 13.4316003,6.05177719 C12.6803032,3.97677318 10.8227428,2.53041292 8.66812192,2.28031937 L7.96666667,2.85 L7.96266667,2.242 L7.75770282,2.2467804 C5.42466569,2.34413052 3.36877473,3.84122496 2.56839971,6.05177719 C2.52139446,6.18160076 2.37804638,6.24873828 2.24822281,6.20173304 C2.11839924,6.1547278 2.05126172,6.01137972 2.09826696,5.88155614 C2.99335426,3.4094185 5.33359582,1.75850227 7.95990709,1.741858 L7.95666667,1.17 Z"/>
  </g>
</svg>
