<svg xmlns="http://www.w3.org/2000/svg" viewBox="0 0 16 16">
  <g>
    <circle class="ti-background" cx="8" cy="8" r="8" fill="#19426C"/>
    <path class="ti-foreground" fill="#FFF" fill-rule="nonzero" d="M8,1.17666667 C8.37008927,1.17666667 8.68123785,1.4290218 8.77075767,1.771044 C11.8739722,2.15047263 14.2766667,4.79464663 14.2766667,8 C14.2766667,11.2053534 11.8739722,13.8495274 8.77136539,14.2297399 C8.68119706,14.5710113 8.37006502,14.8233333 8,14.8233333 C7.62993498,14.8233333 7.31880294,14.5710113 7.22925994,14.2290233 C4.12654571,13.8500973 1.72333333,11.2056988 1.72333333,8 C1.72333333,4.79430119 4.12654571,2.14990271 7.22963774,1.77013727 C7.31876215,1.4290218 7.62991073,1.17666667 8,1.17666667 Z M8.73847198,2.2700932 L8.70332468,2.34785035 C8.56928434,2.59904695 8.30460628,2.77 8,2.77 C7.66543882,2.77 7.37904506,2.56377077 7.26100719,2.27150077 C4.41990084,2.63268775 2.22333333,5.05982596 2.22333333,8 C2.22333333,10.940174 4.41990084,13.3673122 7.26152802,13.7299068 C7.37904506,13.4362292 7.66543882,13.23 8,13.23 C8.33456118,13.23 8.62095494,13.4362292 8.73899281,13.7284992 C11.5800992,13.3673122 13.7766667,10.940174 13.7766667,8 C13.7766667,5.05982596 11.5800992,2.63268775 8.73847198,2.2700932 Z M10.52,5.5 C11.7442312,5.5 12.7366667,5.8954818 12.7366667,6.38333333 C12.7366667,6.41106384 12.7334601,6.4384959 12.7271866,6.46557384 L12.7266667,9.24 C12.7266667,9.87124632 11.723313,10.27 10.5133333,10.27 C9.32014961,10.27 8.35402477,9.90282356 8.30526438,9.28897223 L8.30333333,9.24 L8.30333333,6.38333333 L8.31146982,6.30711595 C8.40844232,5.85494766 9.36020203,5.5 10.52,5.5 Z M5.48666667,5.50333333 C6.70905691,5.50333333 7.7,5.89732275 7.7,6.38333333 L7.7,6.38333333 L7.7,9.24 C7.7,9.87124632 6.69664634,10.27 5.48666667,10.27 C4.29348294,10.27 3.3273581,9.90282356 3.27859771,9.28897223 L3.27666667,9.24 L3.27633333,6.41666667 L3.27333333,6.38333333 C3.27333333,5.92290226 4.16271162,5.54506081 5.29569179,5.50656346 Z M5.48666667,9.29 C4.80105704,9.29 4.18246513,9.16184662 3.77529344,8.9357905 L3.77666667,9.24 C3.77666667,9.47934882 4.51721803,9.77 5.48666667,9.77 C5.84516986,9.77 6.17573316,9.72767515 6.44889698,9.6626917 L6.5805592,9.6284028 C6.93927667,9.5264169 7.1729426,9.38553459 7.19779832,9.26167036 L7.2,9.24 L7.20086988,8.93542115 C6.79290522,9.16169134 6.17302941,9.29 5.48666667,9.29 Z M10.5133333,9.29 C9.82742951,9.29 9.20860093,9.16173661 8.80143606,8.93549944 L8.80333333,9.24 C8.80333333,9.47934882 9.54388469,9.77 10.5133333,9.77 C10.8718365,9.77 11.2023998,9.72767515 11.4755636,9.6626917 L11.6072259,9.6284028 C11.9659433,9.5264169 12.1996093,9.38553459 12.224465,9.26167036 L12.2266667,9.24 L12.2275366,8.93542115 C11.8195719,9.16169134 11.1996961,9.29 10.5133333,9.29 Z M8.80159026,7.88821868 L8.80333333,8.26 C8.80333333,8.4894336 9.55785253,8.79 10.5133333,8.79 C10.8718365,8.79 11.2023998,8.74767515 11.4755636,8.6826917 L11.6072259,8.6484028 C11.9659433,8.5464169 12.1996093,8.40553459 12.224465,8.28167036 L12.2266667,8.26 L12.2276893,7.88796911 C11.8199219,8.11484086 11.2002329,8.24333333 10.5133333,8.24333333 C9.82706622,8.24333333 9.20856239,8.11495085 8.80159026,7.88821868 Z M3.77539606,7.88848181 L3.77666667,8.26 C3.77666667,8.4894336 4.53118587,8.79 5.48666667,8.79 C5.84516986,8.79 6.17573316,8.74767515 6.44889698,8.6826917 L6.5805592,8.6484028 C6.93927667,8.5464169 7.1729426,8.40553459 7.19779832,8.28167036 L7.2,8.26 L7.20102263,7.88796911 C6.79325519,8.11484086 6.17356622,8.24333333 5.48666667,8.24333333 C4.80066508,8.24333333 4.18237433,8.11505018 3.77539606,7.88848181 Z M8.80142338,6.94128668 L8.80333333,7.21 C8.80333333,7.2913019 8.93933225,7.41993986 9.21983692,7.53200988 C9.55332493,7.66524834 10.0159785,7.74333333 10.5133333,7.74333333 C11.0108153,7.74333333 11.4743263,7.66520774 11.808684,7.53193501 C12.0699811,7.42778376 12.2064156,7.30929846 12.2245731,7.22806214 L12.2266667,7.21 L12.2277791,6.94652072 C11.8211885,7.14208827 11.2071025,7.26666667 10.52,7.26666667 C9.82678742,7.26666667 9.20789581,7.1398628 8.80142338,6.94128668 Z M7.20070607,6.94013173 C6.79481693,7.13741254 6.17772758,7.26333333 5.48666667,7.26333333 C4.79726963,7.26333333 4.18148837,7.13801817 3.77556271,6.94155547 L3.77666667,7.21 C3.77666667,7.2913019 3.91266558,7.41993986 4.19317026,7.53200988 C4.52665826,7.66524834 4.98931187,7.74333333 5.48666667,7.74333333 C5.98414867,7.74333333 6.44765962,7.66520774 6.78201737,7.53193501 C7.04331446,7.42778376 7.17974892,7.30929846 7.1979064,7.22806214 L7.2,7.21 Z"/>
  </g>
</svg>
