<svg xmlns="http://www.w3.org/2000/svg" viewBox="0 0 16 16">
  <g>
    <circle class="ti-background" cx="8" cy="8" r="8" fill="#19426C"/>
    <path class="ti-foreground" fill="#FFF" fill-rule="nonzero" d="M8,1.17666667 C8.37008927,1.17666667 8.68123785,1.4290218 8.77075767,1.771044 C11.6206593,2.11896492 13.8804639,4.37847614 14.2297399,7.22863461 C14.5710113,7.31880294 14.8233333,7.62993498 14.8233333,8 C14.8233333,8.37006502 14.5710113,8.68119706 14.2290233,8.77074006 C13.8809942,11.6209937 11.6209937,13.8809942 8.77036226,14.2298627 C8.68119706,14.5710113 8.37006502,14.8233333 8,14.8233333 C7.62993498,14.8233333 7.31880294,14.5710113 7.22925994,14.2290233 C4.37847614,13.8804639 2.11896492,11.6206593 1.77013727,8.77036226 C1.4290218,8.68123785 1.17666667,8.37008927 1.17666667,8 C1.17666667,7.62991073 1.4290218,7.31876215 1.771044,7.22924233 C2.11949508,4.37881051 4.37881051,2.11949508 7.22863461,1.77026011 C7.31876215,1.4290218 7.62991073,1.17666667 8,1.17666667 Z M8.73847198,2.2700932 L8.70332468,2.34785035 C8.56928434,2.59904695 8.30460628,2.77 8,2.77 C7.66543882,2.77 7.37904506,2.56377077 7.26100719,2.27150077 C4.66170597,2.60183317 2.60183317,4.66170597 2.2700932,7.26152802 C2.56377077,7.37904506 2.77,7.66543882 2.77,8 C2.77,8.33456118 2.56377077,8.62095494 2.27150077,8.73899281 C2.60183317,11.338294 4.66170597,13.3981668 7.26152802,13.7299068 C7.37904506,13.4362292 7.66543882,13.23 8,13.23 C8.33456118,13.23 8.62095494,13.4362292 8.73899281,13.7284992 C11.338294,13.3981668 13.3981668,11.338294 13.7299068,8.73847198 C13.4362292,8.62095494 13.23,8.33456118 13.23,8 C13.23,7.66543882 13.4362292,7.37904506 13.7284992,7.26100719 C13.3981668,4.66170597 11.338294,2.60183317 8.73847198,2.2700932 Z M6.33333333,6.37 C6.66911521,5.71053389 7.3878037,5.33836844 8.12015314,5.44471372 C8.85250258,5.55105901 9.43565497,6.11226624 9.57,6.84 C9.97677328,6.77023183 10.3936056,6.88349976 10.7091278,7.14954085 C11.02465,7.41558194 11.2066752,7.80728691 11.2066752,8.22 C11.2091992,8.95167399 10.6491459,9.56250935 9.92,9.62333333 L9.92,9.62333333 L5.60333333,9.62333333 C5.04499983,9.61454732 4.58360602,9.18523387 4.53467621,8.6289791 C4.48574639,8.07272433 4.8651075,7.56945558 5.41333333,7.46333333 C5.37195428,7.36402962 5.35043768,7.25757909 5.35,7.15 C5.34910923,6.93755499 5.43310863,6.73355389 5.58333126,6.58333126 C5.73355389,6.43310863 5.93755499,6.34910923 6.15,6.35 C6.21167173,6.34969431 6.27317814,6.3564041 6.33333333,6.37 Z"/>
  </g>
</svg>
