<svg xmlns="http://www.w3.org/2000/svg" viewBox="0 0 16 16">
  <g>
    <circle class="ti-background" cx="8" cy="8" r="8" fill="#19426C"/>
    <path class="ti-foreground" fill="#fff" fill-rule="nonzero" d="M12.2966667,3.01 C12.7366535,3.01 13.0933333,3.36667982 13.0933333,3.80666667 C13.0933333,3.90820209 13.0743386,4.00530105 13.0397086,4.09460393 L13.000987,4.17825032 C14.6067887,6.28891604 14.7259791,9.22259967 13.2171528,11.4739858 C11.6360482,13.8332214 8.68238162,14.8237365 6.02015036,13.9375776 L5.80666667,14.4933333 L5.13,13.3366667 L6.40666667,12.9266667 L6.19873574,13.4699948 C8.64354256,14.2734788 11.3507228,13.3608459 12.8018017,11.1956272 C14.1797198,9.13957506 14.0824105,6.46525901 12.6370138,4.52613325 C12.5327697,4.57626283 12.4178795,4.60333333 12.2966667,4.60333333 C12.140979,4.60333333 11.995722,4.55867449 11.8730071,4.48146832 L10.78011,5.57344336 C11.3412911,6.31504464 11.2851662,7.37483378 10.61,8.05 L10.61,8.05 L10.0333333,8.64333333 L7.36666667,5.97666667 L7.94333333,5.38333333 C8.62079042,4.70587628 9.68548494,4.65166849 10.4249128,5.22070996 L11.5528744,4.09266134 C11.5187205,4.00389359 11.5,3.90746633 11.5,3.80666667 C11.5,3.36667982 11.8566798,3.01 12.2966667,3.01 Z M10.2266667,1.50333333 L10.9133333,2.66333333 L9.63333333,3.07666667 L9.85145548,2.49754911 C7.38151443,1.65803545 4.62861822,2.58023471 3.17186704,4.78542896 C1.77409799,6.90133752 1.93103407,9.65138105 3.48430528,11.5865416 C3.57505711,11.5495815 3.67357514,11.53 3.77666667,11.53 C3.87746633,11.53 3.97389359,11.5487205 4.06266134,11.5828744 L5.1432233,10.5032233 L5.15766461,10.4905605 C4.58123902,9.75079452 4.63312859,8.68020477 5.31333333,8 L5.90333333,7.41333333 L6.50641765,8.01633333 L7.22389931,7.30588321 C7.3219023,7.20862548 7.4801924,7.20922964 7.57745012,7.30723264 C7.66586624,7.39632627 7.67340476,7.53524395 7.60041359,7.63283657 L7.57610069,7.66078346 L6.86041765,8.37033333 L7.70941765,9.21933333 L8.42356163,8.50955229 C8.5213792,8.41210807 8.67967016,8.41241073 8.77711438,8.5102283 C8.86570003,8.59915336 8.87350314,8.73805643 8.80069799,8.8357879 L8.77643837,8.86378104 L8.06341765,9.57333333 L8.57,10.08 L7.98,10.6666667 C7.306652,11.3400146 6.25074988,11.397651 5.51191114,10.8395758 L5.4967767,10.8567767 L4.45146832,11.9030071 C4.52867449,12.025722 4.57333333,12.170979 4.57333333,12.3266667 C4.57333333,12.7666535 4.21665352,13.1233333 3.77666667,13.1233333 C3.33667982,13.1233333 2.98,12.7666535 2.98,12.3266667 C2.98,12.1722482 3.02393368,12.028091 3.09998332,11.9060128 C1.40692135,9.80395208 1.23415535,6.81156264 2.75467744,4.50983354 C4.34052289,2.10921954 7.3401188,1.10801279 10.0277365,2.02938294 L10.2266667,1.50333333 Z"/>
  </g>
</svg>
