<svg xmlns="http://www.w3.org/2000/svg" viewBox="0 0 16 16">
  <g>
    <circle class="ti-background" cx="8" cy="8" r="8" fill="#19426C"/>
    <path class="ti-foreground" fill="#FFF" fill-rule="nonzero" d="M8,1.17666667 C8.37008927,1.17666667 8.68123785,1.4290218 8.77075767,1.771044 C11.6206593,2.11896492 13.8804639,4.37847614 14.2297399,7.22863461 C14.5710113,7.31880294 14.8233333,7.62993498 14.8233333,8 C14.8233333,8.37006502 14.5710113,8.68119706 14.2290233,8.77074006 C13.8809942,11.6209937 11.6209937,13.8809942 8.77036226,14.2298627 C8.68119706,14.5710113 8.37006502,14.8233333 8,14.8233333 C7.62993498,14.8233333 7.31880294,14.5710113 7.22925994,14.2290233 C4.37847614,13.8804639 2.11896492,11.6206593 1.77013727,8.77036226 C1.4290218,8.68123785 1.17666667,8.37008927 1.17666667,8 C1.17666667,7.62991073 1.4290218,7.31876215 1.771044,7.22924233 C2.11949508,4.37881051 4.37881051,2.11949508 7.22863461,1.77026011 C7.31876215,1.4290218 7.62991073,1.17666667 8,1.17666667 Z M8.73847198,2.2700932 L8.70332468,2.34785035 C8.56928434,2.59904695 8.30460628,2.77 8,2.77 C7.66543882,2.77 7.37904506,2.56377077 7.26100719,2.27150077 C4.66170597,2.60183317 2.60183317,4.66170597 2.2700932,7.26152802 C2.56377077,7.37904506 2.77,7.66543882 2.77,8 C2.77,8.33456118 2.56377077,8.62095494 2.27150077,8.73899281 C2.60183317,11.338294 4.66170597,13.3981668 7.26152802,13.7299068 C7.37904506,13.4362292 7.66543882,13.23 8,13.23 C8.33456118,13.23 8.62095494,13.4362292 8.73899281,13.7284992 C11.338294,13.3981668 13.3981668,11.338294 13.7299068,8.73847198 C13.4362292,8.62095494 13.23,8.33456118 13.23,8 C13.23,7.66543882 13.4362292,7.37904506 13.7284992,7.26100719 C13.3981668,4.66170597 11.338294,2.60183317 8.73847198,2.2700932 Z M6.907,4.88866667 L7.04015109,4.89009298 C7.39947124,4.89989565 7.73261123,5.05136103 7.97430362,5.30023998 L7.97430362,5.30023998 L8.021,5.35066667 L8.03112614,5.33937464 C8.25911394,5.09205744 8.5728897,4.93173658 8.91905079,4.89585082 L8.91905079,4.89585082 L8.9937044,4.89007928 C9.75852264,4.8708132 10.5094304,5.09683896 11.1365377,5.53507928 C11.2034632,5.58184866 11.2433333,5.65835205 11.2433333,5.74 L11.2433333,5.74 L11.2426667,6.69266667 L11.56,6.86333333 L11.56,10.7633333 C11.5628417,10.791047 11.5504261,10.8181211 11.5275706,10.8340506 C11.5047152,10.8499802 11.4750173,10.8522579 11.45,10.84 L11.45,10.84 L11.01,10.61 C9.65,9.94333333 9.14666667,9.94333333 9.14666667,9.94333333 C8.75170831,9.92223302 8.3737583,10.1061687 8.14666667,10.43 C8.11818869,10.4652397 8.07530818,10.4857191 8.03,10.4857191 C7.98469182,10.4857191 7.94181131,10.4652397 7.91333333,10.43 C7.66366875,10.1036385 7.27054865,9.91951895 6.86,9.93666667 C6.86,9.93666667 6.37666667,9.93666667 5.01666667,10.6033333 L5.01666667,10.6033333 L4.54333333,10.8566667 C4.51831602,10.8689246 4.48861813,10.8666469 4.46576269,10.8507173 C4.44290725,10.8347878 4.43049168,10.8077137 4.43333333,10.78 L4.43333333,10.78 L4.43333333,7 L4.78266667,6.73666667 L4.78333333,5.74 C4.78333333,5.67876987 4.80575606,5.62043271 4.84519717,5.57535957 L4.8901109,5.53509189 C5.44930529,5.14423776 6.10692004,4.92216491 6.78501676,4.89225486 L6.78501676,4.89225486 L6.907,4.88866667 Z M9.12771301,5.388973 L9.01280354,5.38967192 C8.67943311,5.40676765 8.38315547,5.60763385 8.24385974,5.91098975 L8.24966667,5.89966667 L8.24933122,9.22657048 C8.45395134,9.11018671 8.68245866,9.04102809 8.91618677,9.02616471 L9.07603193,9.02452258 L9.20483414,9.03327569 C9.31451631,9.04339995 9.47640023,9.07631165 9.69751434,9.14320781 C9.98280961,9.22952142 10.3239498,9.36038672 10.7255198,9.54330418 L10.7255198,9.54330418 L10.7433333,9.55133333 L10.7433333,5.87366667 L10.6554218,5.81945803 C10.1915524,5.54461781 9.66350062,5.3958703 9.12771301,5.388973 L9.12771301,5.388973 Z M6.909,5.38866667 L6.79418819,5.3923638 C6.2924511,5.41659577 5.8041226,5.56309432 5.37190247,5.81904952 L5.37190247,5.81904952 L5.28333333,5.87366667 L5.28333333,9.546 L5.46453528,9.46619834 C5.76381241,9.3378461 6.03446678,9.23877926 6.27733518,9.16577523 L6.27733518,9.16577523 L6.3797229,9.13607407 C6.64815928,9.06109671 6.84344176,9.02905639 6.97292879,9.02371071 L6.97292879,9.02371071 L7.03559793,9.01812383 C7.28880015,9.00212027 7.53655243,9.06151672 7.75051558,9.182658 L7.75121971,5.83214434 C7.60643665,5.56830232 7.33179917,5.39823178 7.03127077,5.38999149 L7.03127077,5.38999149 L6.909,5.38866667 Z"/>
  </g>
</svg>
