<svg xmlns="http://www.w3.org/2000/svg" viewBox="0 0 16 16">
  <g>
    <circle class="ti-background" cx="8" cy="8" r="8" fill="#19426C"/>
    <path class="ti-foreground" fill="#FFF" fill-rule="nonzero" d="M7.97333333,1.19333333 C8.34342261,1.19333333 8.65457118,1.44568846 8.744091,1.78771066 C11.5939926,2.13563158 13.8537973,4.39514281 14.2030732,7.24530128 C14.5443446,7.3354696 14.7966667,7.64660165 14.7966667,8.01666667 C14.7966667,8.38673168 14.5443446,8.69786373 14.2023566,8.78740673 C13.8543275,11.6376603 11.594327,13.8976608 8.74369559,14.2465294 C8.6545304,14.5876779 8.34339835,14.84 7.97333333,14.84 C7.60326832,14.84 7.29213627,14.5876779 7.20259327,14.2456899 C4.35180948,13.8971306 2.09229825,11.637326 1.7434706,8.78702892 C1.40235513,8.69790452 1.15,8.38675594 1.15,8.01666667 C1.15,7.64657739 1.40235513,7.33542882 1.74437733,7.245909 C2.09282841,4.39547718 4.35214384,2.13616175 7.20196794,1.78692678 C7.29209548,1.44568846 7.60324406,1.19333333 7.97333333,1.19333333 Z M8.71180532,2.28675987 L8.67665801,2.36451702 C8.54261767,2.61571362 8.27793961,2.78666667 7.97333333,2.78666667 C7.63877216,2.78666667 7.3523784,2.58043743 7.23434053,2.28816744 C4.6350393,2.61849984 2.5751665,4.67837263 2.24342653,7.27819468 C2.5371041,7.39571173 2.74333333,7.68210549 2.74333333,8.01666667 C2.74333333,8.35122784 2.5371041,8.6376216 2.24483411,8.75565947 C2.5751665,11.3549607 4.6350393,13.4148335 7.23486135,13.7465735 C7.3523784,13.4528959 7.63877216,13.2466667 7.97333333,13.2466667 C8.30789451,13.2466667 8.59428827,13.4528959 8.71232614,13.7451659 C11.3116274,13.4148335 13.3715002,11.3549607 13.7032401,8.75513865 C13.4095626,8.6376216 13.2033333,8.35122784 13.2033333,8.01666667 C13.2033333,7.68210549 13.4095626,7.39571173 13.7018326,7.27767386 C13.3715002,4.67837263 11.3116274,2.61849984 8.71180532,2.28675987 Z M7.98,4.1 C9.03522669,4.1 9.95045003,4.69942557 10.4037391,5.57634582 C11.291436,6.02565802 11.9,6.94676015 11.9,8.01 C11.9,9.07913147 11.284673,10.0045456 10.3888447,10.4514168 C9.93136769,11.3129974 9.02423474,11.9 7.98,11.9 C6.9243662,11.9 6.0088438,11.3001118 5.55573644,10.4226391 C4.68975201,9.96561083 4.1,9.0566774 4.1,8.01 C4.1,6.96902213 4.68334668,6.06429218 5.54097501,5.60487517 C5.98944796,4.71267488 6.91317504,4.1 7.98,4.1 Z M7.99995513,10.4719821 L7.92412013,10.5068078 C7.58833699,10.6546122 7.21708426,10.7366667 6.82666667,10.7366667 C6.66558044,10.7366667 6.50775681,10.7226978 6.35434103,10.6959054 C6.76107842,11.1290593 7.33889841,11.4 7.98,11.4 C8.61753709,11.4 9.19249431,11.1320637 9.59840947,10.7026534 C9.46030573,10.7253789 9.31813773,10.7366667 9.17333333,10.7366667 C8.75324875,10.7366667 8.35535229,10.6416681 7.99995513,10.4719821 Z M10.1112855,8.52658085 L10.0653889,8.58342331 C9.84317109,8.84694003 9.57191562,9.0677525 9.26569166,9.2317915 C9.0875062,9.58537493 8.83498182,9.89539357 8.52836893,10.1406038 C8.7318267,10.2034017 8.94869529,10.2366667 9.17333333,10.2366667 C9.47275171,10.2366667 9.75836686,10.177568 10.0191503,10.0703992 C10.1397896,9.79474122 10.2066667,9.49184727 10.2066667,9.17333333 C10.2066667,8.94840081 10.1733144,8.73125812 10.1112855,8.52658085 Z M5.84860163,8.52737494 L5.83977132,8.55686903 C5.7834857,8.75263526 5.75333333,8.95946307 5.75333333,9.17333333 C5.75333333,9.48459096 5.81719799,9.78093219 5.93253822,10.049968 C6.2067116,10.1701099 6.50891655,10.2366667 6.82666667,10.2366667 C7.05130471,10.2366667 7.2681733,10.2034017 7.4726152,10.141529 C7.17342247,9.90211481 6.92637788,9.60232152 6.74959421,9.26032085 C6.39899463,9.08302988 6.09186019,8.83183726 5.84860163,8.52737494 Z M8.47012178,9.50940308 C8.31112357,9.5382621 8.14732182,9.55333333 7.98,9.55333333 C7.82861359,9.55333333 7.68010869,9.54099611 7.53543588,9.51727223 C7.67133878,9.66610942 7.82812474,9.79610812 8.0006251,9.90318794 C8.16720808,9.79887984 8.31930455,9.67376828 8.45283652,9.53106884 Z M10.6660674,6.3577687 L10.686952,6.49709674 C10.6999683,6.60513538 10.7066667,6.71511878 10.7066667,6.82666667 C10.7066667,7.2469351 10.6115849,7.64499599 10.4417592,8.00051147 C10.6115849,8.35500401 10.7066667,8.7530649 10.7066667,9.17333333 C10.7066667,9.34065516 10.6915954,9.50445691 10.6627364,9.66345512 L10.6944022,9.63616985 C11.1286287,9.22983945 11.4,8.6516108 11.4,8.01 C11.4,7.35454491 11.1167914,6.76523674 10.6660674,6.3577687 Z M5.2863013,6.40139898 L5.20049681,6.48893116 C4.82802727,6.88697215 4.6,7.42185676 4.6,8.01 C4.6,8.6444818 4.86537433,9.2169821 5.29118408,9.62256199 C5.26589745,9.47594303 5.25333333,9.32610543 5.25333333,9.17333333 C5.25333333,8.7530649 5.34841511,8.35500401 5.51824077,7.99948853 C5.34841511,7.64499599 5.25333333,7.2469351 5.25333333,6.82666667 C5.25333333,6.68200301 5.26459915,6.53997062 5.2863013,6.40139898 Z M8,6.98 C7.43666956,6.98 6.98,7.43666956 6.98,8 C6.98,8.56333044 7.43666956,9.02 8,9.02 C8.56333044,9.02 9.02,8.56333044 9.02,8 C9.02,7.43666956 8.56333044,6.98 8,6.98 Z M8,7.33 C8.37003078,7.33 8.67,7.62996922 8.67,8 C8.67,8.37003078 8.37003078,8.67 8,8.67 C7.62996922,8.67 7.33,8.37003078 7.33,8 C7.33,7.62996922 7.62996922,7.33 8,7.33 Z M6.49078092,7.51886556 L6.45893116,7.54716348 C6.31623172,7.68069545 6.19112016,7.83279192 6.08744782,7.99960155 C6.19789818,8.17812598 6.33273688,8.33919905 6.48726595,8.47889797 C6.46038803,8.32610102 6.44666667,8.16965291 6.44666667,8.01 C6.44666667,7.84232293 6.46180197,7.67818089 6.49078092,7.51886556 Z M9.51548259,7.56077134 L9.53361863,7.68043007 C9.54663501,7.78846871 9.55333333,7.89845212 9.55333333,8.01 C9.55333333,8.15466366 9.54206752,8.29669605 9.52036536,8.43526769 C9.65462129,8.30603781 9.77341499,8.15992178 9.8725878,8.00034114 C9.77238506,7.83843183 9.65220394,7.69099718 9.51548259,7.56077134 Z M6.82666667,5.78333333 C6.50546521,5.78333333 6.20014844,5.85134377 5.92433117,5.97374985 C5.81364422,6.2358057 5.75333333,6.524193 5.75333333,6.82666667 C5.75333333,7.05159919 5.78668558,7.26874188 5.84871449,7.47341915 C6.09563268,7.16359911 6.4078295,6.90983085 6.76448865,6.73191652 C6.93981167,6.4013303 7.18193938,6.11085296 7.47262506,5.87860163 C7.2688902,5.81670837 7.05167601,5.78333333 6.82666667,5.78333333 Z M9.17333333,5.78333333 C8.94832399,5.78333333 8.7311098,5.81670837 8.52637114,5.87877805 C8.82632369,6.11745497 9.07391462,6.41789167 9.25093022,6.76069423 C9.58492572,6.93675648 9.87737609,7.17987255 10.1109716,7.47209105 C10.1733144,7.26874188 10.2066667,7.05159919 10.2066667,6.82666667 C10.2066667,6.51655478 10.1432713,6.22124967 10.0287334,5.9530041 C9.76565071,5.84394921 9.47657082,5.78333333 9.17333333,5.78333333 Z M8.00039845,6.11744782 L7.88244664,6.19549218 C7.76415485,6.27979942 7.65445738,6.3753852 7.55492387,6.4806799 C7.69370785,6.45790047 7.83554203,6.44666667 7.98,6.44666667 C8.14073981,6.44666667 8.29823103,6.4605755 8.4513358,6.48725528 C8.31856983,6.34562755 8.16680523,6.22086978 8.00039845,6.11744782 Z M7.98,4.6 C7.32836403,4.6 6.74210638,4.87991791 6.33490972,5.32607106 C6.49415206,5.29853284 6.65863435,5.28333333 6.82666667,5.28333333 C7.24714681,5.28333333 7.64539703,5.37851093 8.0010487,5.54849748 C8.35535229,5.37833194 8.75324875,5.28333333 9.17333333,5.28333333 C9.32541259,5.28333333 9.4745839,5.29578374 9.61988357,5.31972088 C9.211879,4.87705431 8.62829425,4.6 7.98,4.6 Z"/>
  </g>
</svg>
