<svg xmlns="http://www.w3.org/2000/svg" viewBox="0 0 16 16">
  <g>
    <circle class="ti-background" cx="8" cy="8" r="8" fill="#19426C"/>
    <path class="ti-foreground" fill="#FFF" fill-rule="nonzero" d="M2.21666667,9.79 L3.41,10.4033333 L2.86665894,10.6463307 C3.87803091,12.6195048 5.94075854,13.8506924 8.17873678,13.7840065 C10.5399791,13.7136477 12.6204554,12.2126879 13.4318775,9.9941276 C13.4793036,9.86445715 13.6228686,9.79778486 13.7525391,9.84521088 C13.8822095,9.8926369 13.9488818,10.036202 13.9014558,10.1658724 C13.0198009,12.5764604 10.7592488,14.2073359 8.19362886,14.2837847 C5.75271088,14.3565176 3.50366086,13.0083122 2.40929777,10.8500751 L1.87666667,11.0866667 L2.21666667,9.79 Z M8.03925269,9.63404394 L8.11831264,9.70183624 L8.24164598,9.81516957 L8.27166638,9.845205 C8.53187748,10.1286605 8.88120453,10.3131493 9.26022874,10.3690333 L9.30333333,10.3743333 L9.3422297,10.3714989 C9.71037507,10.3323022 10.0457412,10.1412215 10.2671595,9.84450397 L10.3098998,9.78376568 C10.4624598,9.55359171 10.772727,9.49067316 11.002901,9.64323316 C11.233075,9.79579317 11.2959935,10.1060604 11.1434335,10.3362343 C10.7517276,10.9272183 10.1133565,11.3062664 9.4105059,11.3695754 L9.31847904,11.376034 L9.24478556,11.3743042 C8.62567577,11.313906 8.04820381,11.0396633 7.61072853,10.6006374 L7.55433333,10.5416667 L7.44943494,10.4451356 C7.25651023,10.2751327 7.07649312,10.1661979 6.91242307,10.1044544 L6.85165025,10.0834856 C6.77960985,10.0609048 6.72360483,10.0508104 6.6854881,10.0477779 L6.65274749,10.0468051 L6.6291494,10.0489438 C6.19117917,10.0774569 5.79208553,10.3101858 5.55158056,10.677321 C5.40026134,10.9083126 5.09033721,10.9728998 4.85934564,10.8215806 C4.62835407,10.6702613 4.56376688,10.3603372 4.71508611,10.1293456 C5.11059432,9.52559511 5.7560336,9.13366503 6.47060216,9.05898879 L6.57425673,9.04993781 C6.97393133,9.02020149 7.4875857,9.17415827 8.03925269,9.63404394 Z M8.03925269,7.67737727 L8.11831264,7.74516957 L8.24164598,7.85850291 L8.27166638,7.88853834 C8.53187748,8.17199387 8.88120453,8.35648267 9.26022874,8.41236659 L9.30333333,8.41766667 L9.3422297,8.4148322 C9.71037507,8.37563553 10.0457412,8.18455485 10.2671595,7.88783731 L10.3098998,7.82709901 C10.4624598,7.59692504 10.772727,7.53400649 11.002901,7.68656649 C11.233075,7.8391265 11.2959935,8.14939369 11.1434335,8.37956766 C10.7517276,8.97055159 10.1133565,9.34959977 9.4105059,9.41290872 L9.31847904,9.41936729 L9.24478556,9.41763753 C8.62567577,9.35723936 8.04820381,9.08299659 7.61072853,8.64397072 L7.55433333,8.585 L7.44943494,8.48846896 C7.25651023,8.318466 7.07649312,8.20953125 6.91242307,8.14778772 L6.85165025,8.12681889 C6.77960985,8.10423812 6.72360483,8.09414371 6.6854881,8.09111122 L6.65274749,8.09013845 L6.6291494,8.09227709 C6.19117917,8.12079026 5.79208553,8.35351913 5.55158056,8.72065436 C5.40026134,8.95164593 5.09033721,9.01623312 4.85934564,8.86491389 C4.62835407,8.71359467 4.56376688,8.40367054 4.71508611,8.17267897 C5.11059432,7.56892844 5.7560336,7.17699836 6.47060216,7.10232212 L6.57425673,7.09327114 C6.97393133,7.06353483 7.4875857,7.2174916 8.03925269,7.67737727 Z M1.97333333,7.32333333 C2.41332018,7.32333333 2.77,7.68001315 2.77,8.12 C2.77,8.55998685 2.41332018,8.91666667 1.97333333,8.91666667 C1.53334648,8.91666667 1.17666667,8.55998685 1.17666667,8.12 C1.17666667,7.68001315 1.53334648,7.32333333 1.97333333,7.32333333 Z M14.0266667,7.32333333 C14.4666535,7.32333333 14.8233333,7.68001315 14.8233333,8.12 C14.8233333,8.55998685 14.4666535,8.91666667 14.0266667,8.91666667 C13.5866798,8.91666667 13.23,8.55998685 13.23,8.12 C13.23,7.68001315 13.5866798,7.32333333 14.0266667,7.32333333 Z M8.03925269,5.72071061 L8.11831264,5.78850291 L8.24164598,5.90183624 L8.27166638,5.93187167 C8.53187748,6.2153272 8.88120453,6.399816 9.26022874,6.45569992 L9.30333333,6.461 L9.3422297,6.45816553 C9.71037507,6.41896886 10.0457412,6.22788818 10.2671595,5.93117064 L10.3098998,5.87043234 C10.4624598,5.64025837 10.772727,5.57733982 11.002901,5.72989983 C11.233075,5.88245983 11.2959935,6.19272702 11.1434335,6.42290099 C10.7517276,7.01388492 10.1133565,7.39293311 9.4105059,7.45624205 L9.31847904,7.46270063 L9.24478556,7.46097087 C8.62567577,7.40057269 8.04820381,7.12632992 7.61072853,6.68730405 L7.55433333,6.62833333 L7.44943494,6.5318023 C7.25651023,6.36179933 7.07649312,6.25286458 6.91242307,6.19112106 L6.85165025,6.17015222 C6.77960985,6.14757146 6.72360483,6.13747704 6.6854881,6.13444456 L6.65274749,6.13347178 L6.6291494,6.13561042 C6.19117917,6.16412359 5.79208553,6.39685246 5.55158056,6.76398769 C5.40026134,6.99497926 5.09033721,7.05956645 4.85934564,6.90824723 C4.62835407,6.756928 4.56376688,6.44700387 4.71508611,6.21601231 C5.11059432,5.61226177 5.7560336,5.2203317 6.47060216,5.14565545 L6.57425673,5.13660448 C6.97393133,5.10686816 7.4875857,5.26082494 8.03925269,5.72071061 Z M8,1.70506431 C10.4322692,1.70506431 12.6247611,3.10723466 13.659812,5.26787163 L14.19,5.03 L13.8533333,6.33333333 L12.6566667,5.72 L13.2035125,5.47273749 C12.248688,3.49064128 10.2342636,2.20506431 8,2.20506431 C5.56794416,2.20506431 3.39637387,3.72833235 2.56839971,6.01511052 C2.52139446,6.14493409 2.37804638,6.21207161 2.24822281,6.16506637 C2.11839924,6.11806113 2.05126172,5.97471305 2.09826696,5.84488948 C2.99790652,3.36017898 5.35743731,1.70506431 8,1.70506431 Z"/>
  </g>
</svg>
