<svg xmlns="http://www.w3.org/2000/svg" viewBox="0 0 20 20">
	<path class="st0" d="M19.7 17.2s.1 0 .1-.1v-.4c0-.1-.1-.2-.1-.2v-.1c0-.1-.1-.1-.1-.2s-.1-.1-.1-.2v-.1l-.1-.1-.1-.1-.1-.1-.1-.1-.1-.1-.1-.1s-.1 0-.1-.1v.2c0 .1-.1.3-.2.4 0 .1-.1.1-.1.2 0 0 0 .1-.1.1V15c-.1 0-.1 0-.2-.1-.1 0-.2-.1-.3-.1-.1 0-.2 0-.3-.1-.1 0-.2 0-.4-.1h-.3c-.2 0-.4-.1-.7-.1h-.6c-.2 0-.4 0-.5-.1H14.8c-.2 0-.4-.1-.6-.1-.1 0-.2 0-.4-.1h-.1c-.2 0-.3-.1-.5-.1-.1 0-.2 0-.3-.1H12.6c-.5-.1-1-.3-1.5-.4-.1 0-.3-.1-.4-.1h-.1c-.1 0-.2-.1-.3-.1h-.1c-.1 0-.1 0-.2-.1h-.1c-.1 0-.3-.1-.4-.1-.4-.1-.8-.2-1.2-.2H7c-.2 0-.3.1-.5.2h-.1c-.1 0-.1 0-.2.1-.3-.3-.4-.3-.5-.3-.1 0-.2.1-.3.1-.1 0-.2.1-.3.1h-.3l-.3.1c-.2-.1-.5-.2-.7-.3-.2-.1-.3-.2-.5-.2-.1 0-.1-.1-.2-.1-.1-.1-.3-.1-.4-.2h-.1c-.1-.1-.2-.1-.3-.2h-.1c-.2-.2-.4-.3-.5-.3 0 0-.1 0-.1-.1l-.1-.1-.1-.1-1.4-.5v.1s.1.1.2.1c0 0 .1.1.2.1s.1.1.2.1h.2c.1.2.2.3.4.4h.1s.1 0 .1.1l.1.1c.1.1.2.1.4.2.1.1.3.2.4.2.3.2.6.3 1 .5h.1c.1 0 .1.1.2.1.2.1.3.2.5.2v.3s0 .1.1.1l.1.1s0 .1.1.1l.1.1.1.1c.1 0 .1.1.2.1s.1.1.2.1.1.1.2.1.1.1.2.1l.1.1h.1c.1 0 .1.1.2.1s.2.1.3.1c0 0 .1 0 .1.1 0 0 .1 0 .1.1h.1c.1 0 .2.1.4.2 0 0 .1 0 .2.1h.1s.1 0 .1.1h.2s.1 0 .1.1c.2.1.4.1.5.2h.2c.1.1.3.1.4.1.1 0 .1.1.2.1h.1c.2.1.4.1.7.2h.1c.1 0 .2.1.3.1h.5c.1 0 .2.1.4.1h.8c.1 0 .3.1.4.1h.3c.1 0 .2.1.4 0h4.4c.1 0 .2 0 .3-.1l-.1-.1s0-.1-.1-.1c0 0-.1-.1-.1-.2v-.2h.3s.1 0 .1.1c.1.1.2.2.3.2l.1.1h.5c.1 0 .2 0 .2-.1.9 1.1.9 1.1 1 1.1-.1 0-.1 0 0 0-.1 0-.1 0 0 0zm-1.7-.4zm-.5-2.3zm-.1 0zM7.2 15.9zm-.3-.2zm3.6-2.5zm-1.4-.4zm-.6-.2zm0 0zm-.1 0zm0 0zm0 0zm-.3 0zm0 0zm-.1 0zm-.1 0zm-.1 0zm0-.1zm0 0zm-.3 0zm-.1 0zm0 0zm-.1.1zm-.1 0z"/>
	<path d="M6.6 9l.4 3.2h-.8v-.6h-.4v.6h-.9L5.4 9h1.2zm-.5 2c0-.4-.1-.8-.1-1.3-.1.6-.1 1-.2 1.3h.3zm2.8-.5h-.8V10h-.2v1.6l.1.1c.1 0 .1 0 .1-.1V11h.7v.5c0 .1-.1.2-.1.3s-.2.2-.3.2c-.1.1-.3.1-.4.1-.2 0-.4 0-.5-.1l-.3-.3c-.1-.1-.1-.3-.1-.6v-.7c0-.2 0-.4.1-.5s.1-.2.3-.3.3-.1.5-.1.4 0 .5.1.3.3.3.4.1.3.1.5zM10 9.2v.4h.2v.4H10v1.7h.2v.4h-.7c-.1 0-.1 0-.2-.1s-.1-.1-.1-.2V10H9v-.4h.2v-.4h.8zm1.2-.2v.4h-.8V9h.8zm0 .6v2.6h-.8V9.6h.8zm1.9 0l-.4 2.6h-1l-.4-2.6h.7l.2 1.9c0-.1 0-.5.1-1 0-.3 0-.6.1-.9h.7zm1.9 1.3h-1v.8s0 .1.1.1.1 0 .1-.1v-.6h.8v.6c0 .1-.1.2-.1.3-.1.1-.2.2-.3.2-.1 0-.3.1-.4.1-.2 0-.3 0-.4-.1-.1 0-.2-.1-.3-.2-.1-.1-.1-.2-.1-.3v-1.2c0-.2 0-.4.1-.5l.3-.3c.1-.1.3-.1.5-.1s.4 0 .5.1l.3.3c.1.1.1.3.1.6v.3zm-.8-.4V10s0-.1-.1-.1l-.1.1v.5h.2zM17.8 9v3.2h-.7v-2.1l-.3 2.1h-.5l-.3-2.1v2.1h-.7V9h1.1c0 .2.1.4.1.7l.1.8.1-1.5h1.1zm2.2 3.2v.4h-.9c-.1 0-.1-.1-.1-.1v-.2c-.2 0-.3-.1-.5-.1-.1-.1-.2-.2-.3-.4s-.1-.4-.1-.6V9.7c0-.1.1-.2.2-.3s.2-.2.3-.2.3-.1.4-.1c.2 0 .3 0 .5.1s.3.1.3.2.1.2.1.3v2.1c0 .1-.1.2-.2.2h-.2v.1h.5zm-.8-2.4v-.3c0-.1 0-.1-.1-.1H19v2.1s0 .1.1.1.1 0 .1-.1V9.8z"/>
</svg>
