<svg xmlns="http://www.w3.org/2000/svg" viewBox="0.001 10 800 800">
	<path d="M400.001 110c-165.655 0-300 134.283-300 300 0 165.718 134.345 300 300 300 165.677 0 300-134.282 300-300 0-165.716-134.323-300-300-300zm0 554.3c-140.233 0-254.299-114.046-254.299-254.3 0-140.171 114.065-254.299 254.299-254.299 140.254 0 254.3 114.128 254.3 254.299 0 140.254-114.046 254.3-254.3 254.3z"/>
	<path d="M439.73 280.529h-84.932v84.932h-84.932v84.932h84.932v84.932h84.932v-84.932h84.932v-84.932H439.73z"/>
</svg>
