<svg xmlns="http://www.w3.org/2000/svg" viewBox="0 0 100 100" version="1">
	<path d="M96.032.5a.912.912 0 0 0-.313.095c-.012.006-.018.025-.03.03-.18.01-.373.014-.563.032-.483-.101-1.225.09-1.656.219-.022.005-.04.027-.063.03-.01.003-.02-.001-.031 0-.377.079-.754.173-1.125.25-.118.028-.224.036-.344.064a12.45 12.45 0 0 0-.75.187c-.29.074-.572.135-.875.219-.063.157-.152.335-.219.5-.327.535-.551 1.29-.812 2.03-.085.208-.17.43-.25.626-.118.285-.057.167-.156.406-.016.039-.016.026-.032.063-.009.022-.022.01-.03.03a3.43 3.43 0 0 1-.25.376c-.026.155-.04.259-.063.375-.002.01.002.022 0 .031l-.188.438c-.018.041-.047.12-.062.156-.033.071-.079.152-.094.188-.1.013-.128-.24-.094-.594.002-.023-.003-.04 0-.063.042-.23.046-.202.094-.468.002-.01-.002-.022 0-.032.004-.012.026-.018.031-.03.038-.103.073-.216.125-.313.063-.53.09-.864.125-1.22.012-.077.02-.144.031-.218.002-.01-.001-.02 0-.031.049-.314.082-.583.125-.875.002-.01-.002-.023 0-.031.002-.01-.002-.023 0-.032.051-.226.129-.462.22-.75-.027.008-.068.024-.095.032.003-.03-.003-.066 0-.094-.68.21-1.4.438-2.125.687-.22.04-.457.077-.687.094a7.6 7.6 0 0 1-.563.344l-.062.03a91.591 91.591 0 0 0-1.594.595 84.41 84.411 0 0 0-2.72 1.062c-.012.006-.017.026-.03.032-.08.035-.17.06-.25.093-.08.034-.172.059-.25.094-.186.08-.377.168-.563.25-.378.161-.773.331-1.156.5-.194.085-.4.163-.593.25-.013.006-.02.026-.032.031-.05.023-.106.04-.156.063-.385.174-.765.352-1.156.531-.064.03-.124.064-.188.094-.363.166-.727.328-1.093.5-.73.343-1.445.698-2.188 1.062-1.02.5-2.028 1.026-3.063 1.563-.008.004-.022-.004-.03 0l-.063.031c-.03.015-.065.016-.094.031-.62.274-1.22.561-1.784.938-.043.031-.083.064-.125.094-.03.022-.063.042-.094.063-.52.28-1.042.554-1.562.843-.177.096-.356.183-.531.282-.087.048-.165.107-.25.156a12.82 12.82 0 0 0-.657.375c-.983.56-1.961 1.131-2.937 1.72-.217.128-.44.243-.657.374-.116.07-.227.147-.343.218-.17.082-.313.203-.47.313-.142.088-.294.161-.437.25-.007.005-.023-.005-.03 0-.754.27-1.343.834-1.97 1.281-.018.013-.043.018-.062.031-.02.013-.043.02-.063.032-.012.005-.02.023-.03.03-.02.013-.044.02-.063.032a3.921 3.921 0 0 1-.594.344c-.097.092-.208.167-.313.25l-.03.031c-.041.033-.084.062-.126.094-.038.026-.086.037-.125.062-.254.171-.496.36-.75.532-.038.026-.087.036-.125.062-.033.018-.063.042-.094.063-.84.49-1.71.947-2.375 1.625a67.23 67.23 0 0 1-1.218.937c-.06.045-.128.08-.188.125-.108.08-.205.17-.312.25-.24.168-.49.325-.72.5-.195.15-.368.32-.562.47-.123.094-.252.184-.375.28-.03.023-.063.04-.093.063-.334.26-.673.517-1 .78a43.372 43.373 0 0 0-1.907 1.595c-.08.067-.17.12-.25.187-.103.093-.21.187-.312.281l-.281.25c-.154.135-.317.272-.47.407-.06.054-.127.1-.187.156-.146.131-.293.274-.437.406-.15.143-.287.297-.438.438-.44.407-.893.808-1.313 1.22-.16.151-.31.314-.469.467-.033.032-.06.062-.094.094l-.125.125-.156.156c-1.05 1.01-2.103 2.016-3.156 3.031-.09.135-.184.25-.28.375l-.095.094c-.37.373-.704.73-1.063 1.094-.07.073-.146.145-.218.22-.074.072-.147.144-.219.218-.054.048-.102.108-.156.156-.688.608-1.357 1.2-1.875 1.937l-.032.032c-.022.03-.04.062-.062.093-.12.127-.253.243-.375.375-.15.147-.302.296-.438.438-.004.005.005.026 0 .031-.9.948-1.712 1.83-2.53 2.72-.013.008-.02.021-.032.03-.006.014-.025.018-.03.031-.23.25-.43.503-.657.75-.114.125-.263.252-.375.375l-.344.376c-.073.08-.148.17-.219.25-.01.009-.02.023-.03.032-.03.033-.065.06-.095.093-.26.215-.498.43-.656.72-.012.02-.02.04-.03.062-.09.1-.163.21-.25.312-.233.26-.499.527-.72.78-.558.642-1.083 1.269-1.594 1.876-.018.022-.044.04-.063.063-.044.053-.08.103-.125.156-.085.096-.173.19-.25.28-.208.253-.417.493-.625.75-.208.259-.425.53-.625.783-.062.078-.126.173-.187.25-.435.55-.852 1.104-1.25 1.625-.309.403-.654.834-.938 1.218-.03.042-.063.084-.093.125-.103.14-.183.27-.282.407-.037.05-.088.105-.125.156-.07.098-.118.184-.187.28-.206.292-.43.59-.625.876-.243.354-.498.724-.719 1.063-.058.088-.1.162-.156.25-.019.03-.044.064-.063.093-.257.402-.496.807-.718 1.188-.224.373-.43.742-.625 1.094-.272.49-.563.983-.782 1.437-.173.36-.326.723-.468 1.063-.009.02-.023.042-.032.062a19.83 19.83 0 0 0-.343.875c-.022.06-.042.13-.063.188-.078.222-.157.444-.218.656-.036.122-.064.257-.094.375-.019.073-.046.147-.063.219-.078.33-.145.665-.187.968a7.77 7.77 0 0 0-.063.688c-.004.077 0 .144 0 .219v.062c-.003.216.015.424.032.625.001.02-.002.043 0 .063.015.166.003.343.03.5.02.108.07.208.095.312.008.032.023.063.03.094.026.096.065.19.095.28.016.05.013.109.03.157.026.07.035.152.063.22-.775.98-1.51 1.936-2.25 2.905-.32.414-.659.838-.969 1.25-.044.059-.08.13-.124.188-.11.145-.236.293-.344.437a241.97 241.972 0 0 0-4.25 5.907c-.634.903-1.294 1.838-1.875 2.687-.545.798-1.037 1.51-1.53 2.25-.174.266-.363.564-.53.816-.134.202-.214.334-.344.531-.097.147-.218.325-.312.47-.72 1.1-1.396 2.162-1.97 3.062-.024.04-.068.086-.093.125-.109.167-.218.35-.312.5-.052.08-.106.17-.157.25-.085.136-.168.245-.25.375-.28.44-.568.905-.78 1.25-.011.016-.022.046-.032.062-.202.33-.48.792-.625 1.031L0 90.757l.281.25 6.031-6.25.375-.656c.018-.03.065-.078.094-.125.072-.125.057-.114.156-.28.021-.036.042-.09.063-.126.125-.208.338-.522.5-.78.142-.23.25-.41.406-.658.01-.015.017-.04.031-.062.007-.01.025-.02.031-.03.007-.014.025-.025.032-.035.42-.66.992-1.52 1.594-2.406.1-.148.145-.254.25-.406.007-.01.023-.02.03-.03.394-.574.814-1.157 1.282-1.814.1-.139.21-.326.313-.468.524-.73 1.102-1.52 1.718-2.344.01-.013.022-.019.032-.031.021-.03.04-.065.062-.094.225-.3.513-.657.75-.969a193.24 193.24 0 0 1 2.031-2.625c.01-.01.023-.02.032-.031.067-.086.12-.164.187-.25.95-1.2 1.953-2.447 3.063-3.781l.156-.063-.125.125 2.062-.594s.74-.273 1.282-.468l.75-.282a40.295 40.296 0 0 1 2.093-.5c.052-.01.106-.015.157-.03a40.614 40.615 0 0 1 1.937-.345c.02-.003.043.003.063 0 .596-.09 1.168-.182 1.718-.25.453-.055.883-.107 1.313-.156.117-.013.228-.018.344-.031 1.073-.123 2.094-.243 3.125-.438.276-.052.562-.126.843-.187s.56-.11.844-.188c.03-.008.063-.022.094-.03.04-.012.084-.02.125-.032.114-.033.228-.09.344-.125.092-.027.19-.037.28-.063.023-.007.041-.024.063-.03l.094-.032c.061-.02.125-.043.188-.063.152-.052.314-.097.468-.156.05-.018.107-.043.157-.062h.03c.036-.013.06-.05.095-.063.335-.13.67-.264 1-.406.163-.07.34-.113.5-.188.713-.17 1.306-.614 1.875-1.03.024-.02.038-.048.062-.063.085-.05.195-.105.281-.157.207-.124.412-.24.625-.375.031-.02.063-.043.094-.062.232-.111.46-.211.72-.25 1.969-1.501 4.126-3.224 5.937-4.656a59.067 59.067 0 0 1 1.97-1.875c.17-.154.386-.342.562-.5l.03-.033c.33-.304.637-.63.968-.938.193-.177.397-.348.594-.531.497-.462 1.07-1.03 1.594-1.531.016-.015.046-.016.063-.032.137-.13.298-.303.437-.437a250.713 250.714 0 0 0 1.906-1.844c2.39-2.287 4.777-4.592 7.28-6.75.012-.01.02-.023.033-.032l.218-.188c.206-.17.418-.332.625-.5.082-.065.169-.122.25-.187a109.168 109.169 0 0 1 2.53-1.969c.067-.049.124-.107.189-.156.79-.594 1.578-1.178 2.375-1.75.158-.113.31-.23.469-.344.638-.458 1.293-.897 1.937-1.344a255.683 255.684 0 0 1 3.438-2.343c.105-.07.206-.15.312-.22.112-.074.229-.145.344-.218.143-.095.295-.187.438-.28.086-.058.163-.13.25-.189.978-.649 1.916-1.272 2.875-1.906.59-.39 1.192-.764 1.78-1.156.555-.369 1.083-.728 1.626-1.094 1.237-.71 2.392-1.56 3.531-2.437.441-.34.903-.657 1.344-1a78.5 78.501 0 0 0 1.969-1.5A62.65 62.65 0 0 0 92.5 20.91c.03-.022.062-.042.093-.062.029-.024.066-.04.094-.063.022-.019.04-.044.063-.062.616-.457 1.207-.93 1.656-1.47.019-.022.044-.039.062-.062.295-.277.6-.557.875-.843-.053-.296-.144-.64-.218-.97a2.827 2.827 0 0 0-.282-1.093c-.008-.07-.05-.12-.062-.187-.095-.497-.328-.888-.594-1.25-.005-.007.005-.025 0-.032-.035-.05-.085-.105-.125-.156-.111-.136-.218-.278-.344-.406-.004-.005.005-.026 0-.03-.014-.017-.016-.048-.03-.064a14.91 14.91 0 0 0-.566-.533c-.109-.105-.229-.208-.344-.313-.11-.1-.205-.21-.312-.312-.04-.035-.084-.059-.125-.094l-.031-.03a6.208 6.208 0 0 1-.375-.407c-.013.012-.106-.05-.25-.125v-.03c-.089-.048-.182-.129-.281-.189-.086-.067-.163-.13-.25-.187-.032-.02-.063-.043-.094-.063-.054-.042-.103-.053-.156-.094-.006-.004.005-.027 0-.03.004-.013.002 0 .03 0 .397.248.66.415.813.53.024.017.039.046.063.063.06.051.132.118.125.125.354.21.7.448 1.031.687.09.066.192.12.281.188.019.013.013.018.032.031.006.01.012.018.03.031.78.596 1.508 1.252 2.188 1.97l.032.03.03.032c.04.047.057.108.095.156.161.201.33.398.468.594.172.242.331.47.47.687.017-.023.044-.04.062-.062.174-.225.34-.453.5-.688.177-.253.338-.52.5-.78.17-.254.324-.51.468-.782.004-.008-.005-.024 0-.032.017-.024.05-.037.063-.062.128-.247.233-.492.344-.75l.03-.063c.014-.03.02-.063.032-.093.02-.043.044-.083.063-.125.08-.187.146-.373.218-.563.008-.02.024-.04.032-.062.094-.27.198-.54.28-.813.007-.019-.005-.043 0-.062.118-.383.227-.788.313-1.188.01-.031.023-.062.032-.094.002-.01-.003-.021 0-.03.04-.148.09-.295.125-.438.017-.125.026-.232.03-.344v-.031c.062-.415.098-.817.126-1.25.002-.033-.002-.062 0-.094v-.031c.023-.423.04-.871.031-1.313-.002-.083.003-.166 0-.25-.033-.292-.05-.547-.06-.813-.018-.521-.022-1.048-.187-1.594-.005-.03-.026-.062-.032-.093-.03-.19-.056-.401-.093-.594-.054-.28-.122-.558-.188-.844-.004-.02.005-.043 0-.062a26.947 26.947 0 0 0-.406-1.532c-.052-.065-.12-.1-.187-.156.005-.008-.02-.023-.063-.062-.06-.046-.116-.117-.187-.157-.01-.005-.02-.025-.032-.03a.782.782 0 0 0-.125-.126c-.073.015-.169 0-.25 0-.079-.027-.163-.07-.25-.094-.037-.01-.086-.022-.125-.03-.105-.023-.228-.016-.343-.032-.075-.006-.142-.023-.22-.031-.052-.006-.1-.027-.155-.032-.029-.002-.065.002-.094 0C96.561.528 96.28.48 96.031.5zm-8.156 6.845c0 .11-.04.163-.063.219.008-.055-.002-.11 0-.125.026-.033.021-.057.063-.094zm3.5 14.594v.031-.03zm-.781.593l.031.03-.031-.03zm-62.064 21.22l.031.062-.03-.062zm-1.313 1.719v.03-.03zm27.689 4.5h.032-.032zm-6.75 6.28v.063-.062zm-2.843 2.313l-.032.032.032-.032zm-.375.313l.03.03-.03-.03zm-.344.094V59v-.03zm.062.062l-.03.03.03-.03zm.063.094v.03-.03zm-1.814 1.125h.032-.032zm-.156.126l.031.03-.03-.03zm-.5.156v.03-.03zm-.312.125v.03-.03zm-.72.594l-.03.03.03-.03zm-.155.156l-.032.032.032-.032zm.093.063v.062-.062zm-1.845.782v.03-.03zm-.187.03v.032-.03zm0 .095v.03-.03zm-.719.156h.031-.03zm-.655.25l-.03.03.03-.03z"/>
</svg>
