<svg id="Layer_1" xmlns="http://www.w3.org/2000/svg" viewBox="0 0 103.8 144.6">
	<path d="M72.8 49.4L35.6 72.3l37.6 23.2-73 6.5V42.9l72.6 6.5zm0-21.1L.2 5.6v29.2l72.6-6.5zM66.5 106c0 4.7 3.8 8.5 8.5 8.5v-17c-4.6 0-8.5 3.8-8.5 8.5zm8.2-77.1v1.5c-4.5.2-8.2 3.9-8.2 8.5s3.6 8.3 8.2 8.5v.9l.3-.3V29l-.3-.1zM.2 110.1v28.5l72-22.1-72-6.4z"/>
	<path d="M101.8 91.3c-1-3.4-2.5-6.6-4.5-9.6-2.1-2.9-4.6-5.5-7.6-7.5-3.3-2.2-6.9-3.9-10.8-4.9 6.8-2.9 12-7 15.6-12.2 3.5-5.2 5.4-11.4 5.3-17.8.1-6-1-11.9-3.4-17.4-2.2-4.8-5.6-9-9.8-12.1-4.7-3.4-10-5.8-15.7-7.1C64.1 1.2 57 .4 50 .5H.8V6l72.9 22.7c.8.3 1.4 1 1.4 1.9v16.3c0 .7-.4 1.4-1 1.7L36.7 72.3 74 95.9c.6.4 1 1 1 1.7V114c0 .9-.6 1.6-1.4 1.9L.8 138.6v5.5h52.7c7 .1 14.1-.8 20.9-2.7 5.7-1.6 11-4.3 15.7-7.9 4.3-3.5 7.7-8 9.9-13.1 2.4-5.8 3.5-12 3.4-18.2-.1-3.7-.6-7.3-1.6-10.9z"/>
</svg>
