<svg id="Layer_1" xmlns="http://www.w3.org/2000/svg" viewBox="0 0 20 20">
	<g id="layer2" transform="translate(-25.7 -3.069) scale(.37508)">
		<g id="g4555" transform="matrix(1.25 0 0 -1.25 19.118 990)">
			<path id="path2838" d="M61.7 772.5c-.7 0-1.4 0-2.1-.1-7.4-.6-13.2-4.1-12.9-7.8.3-3.7 6.6-6.1 14-5.5s13.2 4.1 12.9 7.8c-.3 3.3-5.5 5.6-11.9 5.6zm-1.9-.6c2.7 0 5.4-.4 7.4-.7.7-1.1 1.1-2.4 1.1-3.8 0-4.3-3.9-7.9-8.7-7.9s-8.7 3.5-8.7 7.9c0 .8.1 1.6.4 2.3 2.4 1.2 5.7 2.3 8.5 2.2z"/>
			<path id="path2886" class="st0" d="M59.1 771.9c-1 0-3.1-.1-4.7-.9 0-.1 0-.2.1-.3h-.1v.3c-.9-.5-1.7-1.2-1.8-2.3-.1-.2-.1-.5-.1-.7 0-2.6 1.4-4.9 3.5-6.1.1 0 .1-.1.2-.1.1-.1.3-.2.5-.2l-.1.1c-.4.4-.6 1.2-.8 1.6h-.2c-.5 0-1.1.4-1 1 .1.3.2.5.5.6 0 0 .1 0 .1.1-.1.5-.1 1.3 0 1.9 0 .2.1.3.1.5 0 .1.1.1.1.2-.6.8-1 1.9-1 3 .1-1 .5-1.9 1.1-2.7.2.4.4.8.7 1.2l.1.1c0 .1-.1.3-.1.4.1.3.4.5.7.5.1 0 .2 0 .3-.1.9.7 2 1.1 3.2 1.2-1-.2-2.1-.7-2.8-1.3 0-.1.1-.2.1-.3v-.1c0-.4-.3-.5-.7-.5h-.3c-.3-.4-.6-1.1-.8-1.6.1 0 .1-.1.2-.1.6-.6 1.3-1.1 2.1-1.4v.1c0 1.3 1 2.3 2.3 2.3 1.2 0 2.1-.8 2.3-1.9.6.4 1.1.8 1.5 1.4l.1.1c-.1.1-.2.4-.2.6.1.2.4.4.6.4h.2c.2.4.4.9.5 1.4 0 .1.1.2.1.3-2 1.5-5.9 1.3-5.9 1.3h-.6zm1.6-.3c.3 0 .7 0 1-.1-.5.1-.9.1-1.3.1h.3zm5-1.1c0-.1 0-.2-.1-.3v-.1c-.1-.4-.3-.9-.4-1.2l.1-.1.1-.1.1-.1v-.2c0-.3-.3-.5-.6-.5h-.1c-.4-.7-1.2-1.6-1.9-2h.1c.6-.1 1.2-.3 1.8-.6.1 0 .2-.1.3-.2h.1c.1-.1.2-.1.3-.2.1-.1.2-.2.3-.2.4.8.7 1.7.8 2.6.1.4.1.8.1 1.2 0 .8-.4 1.5-1 2zm-9.9-3.4c0-.2 0-.2-.1-.3-.1-.6-.2-1.1-.1-1.7.5-.1.8-.5.8-1-.1-.2-.3-.5-.4-.6 0-.1.1-.1.1-.2.2-.4.4-.8.7-1.1.3.8.8 1.6 1.5 2.2l.1.1.3.3-.4.8c-.9.2-1.8.8-2.5 1.5zm7-1.5c-.3-.9-1.2-1.6-2.2-1.6-.5 0-1 .2-1.4.5-.8-.6-1.6-1.8-1.9-2.7l.1-.1.2-.2.1-.1.1-.1.1-.1c.6-.1 1.2-.2 1.8-.2 2.5 0 4.7 1.3 5.9 3.2l.1.1c-.9.6-1.9 1.2-2.9 1.3z"/>
			<path id="path2978" d="M70.6 774.5s-2.7-3.1-3.4-2.7l1.2 2.5c-.3-.5-1.4-2.4-2.9-2.1.2.3.4.6.5.8.4.6.5 1.1.5 1.1s-1.3-2.2-3-1.6c-.1 0-.1.1-.1.2.1.2.3.4.3.4l-.2-.2c.2.3.5.7.5.7s-1.1-1.1-1.9-.9c-.8.1 0 1.5 0 1.5s-1.3-2.1-1.6-2c-.3.1.1 1.5.1 1.5l-1.5-1.5c-.5.1 0 1.7 0 1.7l-.4-1c.1.3.1.5.1.5s-.1-.4-.3-.8c-.1-.2-.3-.4-.4-.3-.4.1-.5 1.2-.5 1.2s0-.5-.2-.9c-.1.2-.1.4-.1.4s0-.4-.2-.8c-.1-.1-.2-.2-.3-.2-4.8-.9-10.2-3-16.9-9.7l.6.3c-.3-.3-.6-.5-.8-.8 6.3 3.4 8.8 8.4 20.7 8.9 9 .3 13.2-3.8 14.5-3.9 4.2-.2 6.9 3.9 6.9 3.9l-.9-.9c.8.8 1.2 1.4 1.2 1.4s-2.4-2.7-4.2-2.4c1.4 1.1 2.5 3.1 2.5 3.1l-.1-.1c.2.3.3.6.3.6s-3.1-3.2-5.4-3c1 .9 1.7 2.1 2.1 2.9.5.9.8 1.6.8 1.6s-2.4-3.7-4-4.2c.7.8 1.3 1.6 1.6 2.3v.1c.5.9.8 1.6.8 1.6s-1.9-2.8-3.6-3.4c.9.9 1.3 1.6 1.5 2.1.5.8.5 1.2.5 1.2s-3-3.8-4.3-3.5c1.1 1.3 1.8 2.6 2 3.1 0 0 0 .1.1.1l.1.1c.2.3.3.5.3.5s-2.6-3.6-3.4-3c-.1 0-.1.2-.1.4l.6.8-.2-.2c.2.4.5.7.5.7s-1.2-1.1-1.8-1.1c.8.9 1.7 2.5 1.7 2.5l-.1-.1c.2.3.3.6.3.6z"/>
			<path id="path3006" d="M74.8 766.9c-.4 0-.7-.2-.9-.7-2.1-4-6.5-6.2-11.6-6.9-5.1-.7-8.9.3-12 1.2-4.1 1.1-7.3-.9-10.8.9.5-.4 1-.8 1.9-1-.6.1-1.2.3-1.8.6.8-.6 1.8-1.3 4.4-1.3.9 0 3.6.1 4.3-.3-.2-.8-1.9-2.3-1.9-2.3s.8.6 1.6 1.3c-.6-.8-1.5-1.7-1.5-1.7s3.5 3 4.3 2.4c0-.8-1.2-2.4-1.2-2.4s.5.7 1.1 1.3c-.3-.8-1-1.7-1-1.7s1.4 1.9 2.4 2.3c.7.3 1.2.2 1.7-.3-.2-.8-1.6-2.5-1.6-2.5s.7.6 1.4 1.3c-.5-.8-1.2-1.7-1.2-1.7s2.6 2.6 3.1 2.4h.1c.1-.7-.2-2-.2-2s.1.3.3.7c-.1-.6-.2-1.1-.2-1.1s.9 2.3 1.5 2.5c-.2-1.3-1.7-5-1.7-5s.4.8 1 1.7c-.4-1.1-.8-2.1-.8-2.1s2.8 5.2 3.4 5.3c.3.1.6-.4.9-1.1.3-1 .5-2.1.5-2.1s0 .3-.1.7c.1-.6.2-1.1.2-1.1s-.4 3.4 0 3.6c.8.4 1.3.1 1.5-.4.4-1.7-.4-4.9-.4-4.9s.2.5.5 1.2c-.1-.9-.3-1.7-.3-1.7s1.7 4.2 1 5.7v.2c1.2-.8 1.8-1.9 2.2-2.9.4-1.4.3-2.5.3-2.5s.1.2.1.6v-1s.5 1.1-.4 3.8c-.2.7-.6 1.5-1 2.5 1.3-.1 3.1-3.3 3.1-3.3s-.3.5-.5 1c.2-.4.4-.6.4-.6s-.5.9-.9 1.9c-.2.8-.3 1.5.3 1.5 1.3.1 2.1-1 2.5-2.2v-.1c.4-1.2.4-2.3.4-2.3l.1.1c0-.3.1-.5.1-.5s.5.5-.4 3.1c0 .1 0 .1-.1.2-.2.6-.5 1.4-.9 2.4 1.5.8 4.9-4.6 4.9-4.6s-.4.6-.8 1.4c.4-.6.7-1 .7-1s-2 3.3-2.6 4.9c-.1.2-.1.4 0 .4.5.4 2.4-1.7 2.4-1.7l-.6.8.4-.4s-.7.9-1 1.6c0 .1 0 .2.1.2.4.2 4.2-3.9 4.2-3.9s-.6.7-1.2 1.5l1.1-1.1s-2.1 2.5-2.7 3.8c0 .1 0 .2.1.3.3.3 1.3-.2 2.1-.7-.4.3-1 .7-1.4 1.1.4-.2.9-.4 1.3-.7-.7.5-1.7 1.2-2 1.7 0 0 0 .1.1.1 1 .5 4-1.3 4-1.3s-.5.4-.9.8l.8-.4s-1 .8-1.4 1.4c.3.4 3.8-2.3 3.8-2.3s-1.3 1-2.2 1.9c1-.7 2.1-1.5 2.1-1.5s-2.4 1.9-3.1 2.8c.3.3 2.4-.3 2.4-.3s-.8.4-1.5.8c.7-.1 1.4-.4 1.4-.4s-1.9.9-2.6 1.4c.4 0 1.7-.5 1.7-.5s-.6.5-1.3.8c.5-.2 1.2-.4 1.2-.4s-1.7.9-2.7.8zm0-5.6c.5-.4 1-.7 1-.7s-.4.3-1 .7zm.2-.4c.5-.4 1-.7 1-.7s-.5.3-1 .7z"/>
		</g>
	</g>
</svg>
