<svg version="1.1" xmlns="http://www.w3.org/2000/svg" viewBox="0 0 20 20">
<path d="M17,9h-1.1c-0.2-0.9-0.5-1.7-1-2.5l0.7-0.7c0.4-0.4,0.4-1,0-1.4s-1-0.4-1.4,0l-0.7,0.7c-0.7-0.5-1.6-0.9-2.5-1
	V3c0-0.6-0.4-1-1-1S9,2.4,9,3v1.1c-0.9,0.2-1.7,0.5-2.5,1L5.8,4.4C5.4,4,4.8,4,4.4,4.4s-0.4,1,0,1.4l0.7,0.7C4.6,7.3,4.2,8.1,4.1,9
	H3c-0.6,0-1,0.4-1,1s0.4,1,1,1h1.1c0.2,0.9,0.5,1.7,1,2.5l-0.7,0.7c-0.4,0.4-0.4,1,0,1.4c0.2,0.2,0.5,0.3,0.7,0.3s0.5-0.1,0.7-0.3
	l0.7-0.7c0.7,0.5,1.6,0.9,2.5,1V17c0,0.6,0.4,1,1,1s1-0.4,1-1v-1.1c0.9-0.2,1.7-0.5,2.5-1l0.7,0.7c0.2,0.2,0.5,0.3,0.7,0.3
	s0.5-0.1,0.7-0.3c0.4-0.4,0.4-1,0-1.4l-0.7-0.7c0.5-0.7,0.9-1.6,1-2.5H17c0.6,0,1-0.4,1-1S17.6,9,17,9z M12.9,12.7
	c0,0-0.2,0.2-0.2,0.2C12,13.6,11,14,10,14s-2-0.4-2.7-1.1c0,0-0.2-0.2-0.2-0.2C6.4,12,6,11,6,10s0.4-2,1.1-2.7c0,0,0.2-0.2,0.2-0.2
	C8,6.4,9,6,10,6s2,0.4,2.7,1.1c0,0,0.2,0.2,0.2,0.2C13.6,8,14,9,14,10S13.6,12,12.9,12.7z"/>
</svg>
