<svg xmlns="http://www.w3.org/2000/svg" viewBox="0 0 20 20">
	<path d="M17 9h-1.1c-.2-.9-.5-1.7-1-2.5l.7-.7c.4-.4.4-1 0-1.4s-1-.4-1.4 0l-.7.7c-.7-.5-1.6-.9-2.5-1V3c0-.6-.4-1-1-1s-1 .4-1 1v1.1c-.9.2-1.7.5-2.5 1l-.7-.7c-.4-.4-1-.4-1.4 0s-.4 1 0 1.4l.7.7c-.5.8-.9 1.6-1 2.5H3c-.6 0-1 .4-1 1s.4 1 1 1h1.1c.2.9.5 1.7 1 2.5l-.7.7c-.4.4-.4 1 0 1.4.2.2.5.3.7.3s.5-.1.7-.3l.7-.7c.7.5 1.6.9 2.5 1V17c0 .6.4 1 1 1s1-.4 1-1v-1.1c.9-.2 1.7-.5 2.5-1l.7.7c.2.2.5.3.7.3s.5-.1.7-.3c.4-.4.4-1 0-1.4l-.7-.7c.5-.7.9-1.6 1-2.5H17c.6 0 1-.4 1-1s-.4-1-1-1zm-4.1 3.7l-.2.2C12 13.6 11 14 10 14s-2-.4-2.7-1.1l-.2-.2C6.4 12 6 11 6 10s.4-2 1.1-2.7l.2-.2C8 6.4 9 6 10 6s2 .4 2.7 1.1l.2.2C13.6 8 14 9 14 10s-.4 2-1.1 2.7z"/>
</svg>
