<svg xmlns="http://www.w3.org/2000/svg" viewBox="0 0 695.28 794.6">
	<title>
		datastore
	</title>
	<path class="cls-1" d="M347.64 198.6c192 0 347.64-44.52 347.64-99.33S539.65 0 347.64 0 0 44.52 0 99.32s155.63 99.28 347.64 99.28z"/>
	<path class="cls-1" d="M0 178.86v119.11c0 54.8 155.63 99.33 347.64 99.33s347.64-44.52 347.64-99.33V178.86C596 245.6 378.87 248.31 347.64 248.31S99.28 245.6 0 178.86z"/>
	<path class="cls-1" d="M0 377.51V496.6c0 54.8 155.63 99.33 347.64 99.33s347.64-44.5 347.64-99.33V377.51c-99.28 66.73-316.41 69.45-347.64 69.45S99.28 444.25 0 377.51z"/>
	<path class="cls-1" d="M0 576.16v119.11c0 54.8 155.63 99.33 347.64 99.33s347.64-44.52 347.64-99.33V576.16C596 642.9 378.87 645.6 347.64 645.6S99.28 642.9 0 576.16z"/>
</svg>
