<svg id="datastore" xmlns="http://www.w3.org/2000/svg" viewBox="0 0 695.28 794.6">
	<title>
		datastore
	</title>
	<path class="cls-1" d="M397.2 204c192 0 347.64-44.52 347.64-99.33S589.21 5.4 397.2 5.4 49.56 49.92 49.56 104.72 205.19 204 397.2 204z" transform="translate(-49.56 -5.4)"/>
	<path class="cls-1" d="M49.56 184.26v119.11c0 54.8 155.63 99.33 347.64 99.33s347.64-44.52 347.64-99.33V184.26C645.56 251 428.43 253.71 397.2 253.71S148.84 251 49.56 184.26z" transform="translate(-49.56 -5.4)"/>
	<path class="cls-1" d="M49.56 382.91V502c0 54.8 155.63 99.33 347.64 99.33s347.64-44.5 347.64-99.33V382.91c-99.28 66.73-316.41 69.45-347.64 69.45s-248.36-2.71-347.64-69.45z" transform="translate(-49.56 -5.4)"/>
	<path class="cls-1" d="M49.56 581.56v119.11c0 54.8 155.63 99.33 347.64 99.33s347.64-44.52 347.64-99.33V581.56C645.56 648.3 428.43 651 397.2 651s-248.36-2.7-347.64-69.44z" transform="translate(-49.56 -5.4)"/>
</svg>
