<svg xmlns="http://www.w3.org/2000/svg" viewBox="0.5 10 800 800">
	<path d="M375.504 160c41.406 0 75.001-33.594 75.001-75 0-41.504-33.595-75-75.001-75-41.406 0-75 33.496-75 75 0 41.406 33.594 75 75 75zm-175 50c27.637 0 50-22.363 50-50s-22.363-50-50-50-50 22.363-50 50 22.364 50 50 50zm400-40c27.637 0 50-22.363 50-50s-22.363-50-50-50-50 22.363-50 50 22.363 50 50 50zm125.684 596.25L524.82 403.652c-5.37-9.57-14.258-17.969-24.315-25.195V297.5c27.49 0 49.999-19.727 49.999-43.75 0-24.121-22.509-43.75-49.999-43.75h-200c-27.49 0-50 19.629-50 43.75 0 24.023 22.51 43.75 50 43.75v80.957c-10.034 7.227-18.97 15.625-24.292 25.195L74.796 766.25C61.442 790.274 73.014 810 100.504 810h600c27.49 0 39.062-19.726 25.684-43.75zM178.288 710l55.542-100h333.375l55.516 100H178.288z"/>
</svg>
