<svg xmlns="http://www.w3.org/2000/svg" viewBox="0.001 0 800 800">
	<path d="M579.562 400L781.5 198.063c24.668-24.731 24.668-65.081 0-89.75l-89.874-89.75c-24.669-24.669-65.081-24.669-89.75 0L399.938 220.5 198.001 18.563c-24.669-24.669-65.081-24.669-89.75 0l-89.75 89.75c-24.669 24.669-24.669 65.019 0 89.75L220.439 400 18.502 601.999c-24.669 24.669-24.669 65.081 0 89.75l89.75 89.688c24.669 24.669 65.081 24.669 89.75 0l201.937-201.875 201.937 201.875c24.669 24.669 65.081 24.669 89.874 0l89.75-89.688c24.668-24.669 24.668-65.081 0-89.75L579.562 400z"/>
</svg>
