<svg xmlns="http://www.w3.org/2000/svg" viewBox="0 0 235 235">
	<path d="M92.2 101.2l51.8 23.6L196.2 79c.8-3.8 1.1-7.5 1.1-11.5 0-32.2-26.2-58.4-58.4-58.4-19.3 0-37.2 9.5-48.1 25.4l-8.7 45.1 10.1 21.6zm-53.6 54.7c-.8 3.8-1.1 7.7-1.1 11.7 0 32.3 26.3 58.5 58.6 58.5 19.4 0 37.5-9.6 48.4-25.6l8.6-44.9-11.5-22-52-23.7-51 46zm-.3-89.5l35.5 8.4 7.8-40.3c-4.8-3.7-10.8-5.7-17-5.7-15.4 0-28 12.5-28 28 0 3.3.6 6.6 1.7 9.6m-3.1 8.5C19.4 80.1 8.3 95.3 8.3 112c0 16.3 10.1 30.8 25.2 36.6l49.8-45-9.1-19.5-39-9.2zm118.3 125.7c4.9 3.7 10.8 5.8 16.9 5.8 15.4 0 28-12.5 28-28 0-3.4-.6-6.7-1.7-9.7l-35.4-8.3-7.8 40.2zm7.2-49.5l39 9.1c15.9-5.2 26.9-20.4 26.9-37.2 0-16.2-10.1-30.8-25.2-36.5l-51 44.7 10.3 19.9z"/>
</svg>
