<svg xmlns="http://www.w3.org/2000/svg" viewBox="0 0 100 100">
	<path d="M50.644 4.886a.634.634 0 0 0-.154.03c-1.145.282-2.088.538-2.932.865a.634.634 0 0 0-.77-.525c-1.208.291-2.047.55-2.687 1.142-.639.591-.964 1.407-1.326 2.593a.634.634 0 0 0 .678.802c-.373.833-.708 1.745-1.049 2.932a.634.634 0 0 0 1.174.463c1.948-3.918 3.259-5.14 7.345-7.068a.634.634 0 0 0-.277-1.235zm13.364.802c-3.51-.22-7.173.76-11.45 2.562-4.06 1.709-6.111 4.143-8.518 7.345-1.436.114-2.707.514-4.26 1.882a54.5 54.5 0 0 0-3.178 3.056c-7.818 1.261-12.903 2.85-18.147 7.5-2.128 1.886-3.659 3.996-4.877 6.326-1.116 1.235-2.18 2.41-3.456 2.902-.186.071-.3.089-.401.123-.004-.01-.027-.02-.03-.03.5-.538.84-1.154.987-1.821.1-.455.089-.907.123-1.358.156.238.333.513.586.832a.634.634 0 0 0 1.11-.276c.166-.738.327-1.664.218-2.594-.087-.74-.484-1.438-1.081-1.975.2-.525.408-1.04.617-1.635a.634.634 0 0 0-.71-.835c-.714.125-1.58.533-2.561 1.142-.98.61-2.036 1.402-2.902 2.345-.865.943-1.556 2.048-1.759 3.24-.185 1.09.213 2.232 1.112 3.242.015.018.013.043.03.061.253 1.026.437 1.8.803 2.562a3.858 3.858 0 0 0 2.47 2.068c.683.186 1.392.138 2.098 0-.349 2.057-.444 4.288-.186 7.284.068.79.194 1.57.34 2.345-.368.996-.74 1.986-1.111 2.993l-2.932 2.901c-.534.53-.916.818-1.173 1.327-.256.51-.227 1.05-.093 1.852a10.473 10.473 0 0 0 2.933 5.679 14.148 14.148 0 0 0 3.764 2.655c1.11.525 2.311.862 3.488.74-.163.491-.304.965-.524 1.451-.472 1.032-.563 1.988-.309 2.777.253.79.838 1.364 1.511 1.79 1.35.852 3.166 1.217 4.6 1.606 1.202.324 3.308.927 5.308 1.048 1 .062 1.987.02 2.839-.308.852-.329 1.585-1.019 1.852-2.007.37-1.372.414-2.261.309-3.517.704-1.565.892-1.798 1.51-2.716.454-.672.716-1.196.804-1.79s0-1.156-.093-1.944c-.008-.073-.022-.17-.03-.247 1.675.204 3.329.252 4.968.184-.128.067-.203.116-.339.186-.822.423-1.328 1.118-1.481 1.882-.154.765-.027 1.578.215 2.346.484 1.537 1.452 3.018 2.038 3.92 1.23 1.895 2.387 3.567 3.92 4.505 1.531.938 3.456 1 5.646-.185a4.235 4.235 0 0 0 1.575-1.42c.326-.484.563-.985.926-1.542a7.407 7.407 0 0 0 .617-.433c.33-.255.71-.575 1.142-.925.74-.602 1.544-1.239 2.222-1.79a3.16 3.16 0 0 0 1.018.462c.606.144 1.32.188 2.13.247.93.067 4.047.087 4.876.093 1.287.008 2.39-.06 3.303-.586.913-.529 1.436-1.568 1.542-3.056.09-1.236-.049-1.837-.586-2.84-.038-1.42-.085-2.843-.124-4.259-.045-1.694-.404-2.785-1.048-4.32-.53-1.259-.883-2.405-1.512-3.703.012-.08.017-.167.03-.247l1.698 1.635c.82.788 1.593 1.52 2.53 2.067a5.96 5.96 0 0 0 3.395.834c2.904-.137 6.046-2.273 6.914-5.123.202-.666.41-1.335.617-2.006 3.893.64 8.324.443 11.758-1.39 5.254-2.803 7.65-8.402 8.24-14.227.483-4.757-.374-12.49-2.685-16.912-.453-.868-1.407-1.54-2.5-1.975-.545-.218-1.145-.359-1.727-.34-.583.02-1.187.224-1.637.68-1.086 1.1-1.715 2.522-2.592 3.271-.542.464-1.294.73-2.005 1.018-.688-1.587-1.56-2.93-2.624-4.198-1.008-1.198-1.992-1.81-3.241-2.591-2.391-1.497-4.298-3.432-6.574-5.309-3.467-2.859-6.765-4.315-10.277-4.537zm-.186 2.747c3.045.131 5.886 1.338 9.105 4.043 1.342 1.128 2.59 2.198 3.92 3.24-.247.072-.47.08-.74.186a.634.634 0 0 0 .37 1.204c.69-.132 1.598-.003 2.469.154.22.14.455.3.678.432 1.223.72 1.731.996 2.5 2.068.54.751.948 1.54 1.388 2.315-.132-.027-.274-.081-.4-.093-.601-.058-1.171.107-1.667.37-.01.003-.022-.003-.03 0a.968.968 0 0 0-.093.03c-.007.004-.025-.002-.03 0-.013.008-.02.024-.033.032-.62.298-1.659.65-2.222.741a.634.634 0 0 0-.123 1.203c.291.1.614.142.957.155h.03c-.005.043-.026.079-.03.123-.05.509.089.975.277 1.42-.124.052-.245.1-.37.154a.634.634 0 0 0 .339 1.206c.902-.138 1.728-.158 2.562-.155-.411.02-.828.055-1.265.155-1.789.407-2.686 1.277-3.149 2.314-.462 1.037-.61 2.14-1.326 3.457a.634.634 0 0 0 1.049.71c.869-1.064 1.246-2.113 1.697-2.87.304-.51.698-.863 1.204-1.141-.035.077-.095.135-.123.215-.39 1.098-.481 2.089-.556 2.994-.075.905-.146 1.724-.494 2.561a.635.635 0 0 0 1.142.556c1.055-1.827 1.08-3.487 1.883-5.124.076-.155.407-.543.77-.832.366-.291.805-.462.865-.464.115.884.234 1.788.185 2.469-.116 1.613-.596 4.138-.833 5a.634.634 0 0 0 1.112.556c1.084-1.395 1.41-3.783 1.789-5.432.433-1.886.301-4.076-.061-6.018-.052-.274.041-.334.061-.494.395.128.792.256 1.204.34a3.87 3.87 0 0 0 2.099-.154c2.548-.909 3.947-2.866 4.721-5.124.158.194.405.382.463.524 1.698 4.107 2.517 10.821 2.069 14.968-.506 4.669-2.801 9.717-6.79 11.944-5.14 2.868-11.304 1.16-16.667-.647-1.052-.355-1.81-.895-2.84-1.543a.634.634 0 0 0-.246-.093c.493-.243 1.235-.549 1.758-.833a.634.634 0 0 0-.401-1.172c-.583.099-1.542.318-2.038.401-.764.129-1.363.3-1.758.773-.398.47-.474 1.035-.587 1.757-.102.65-.262 1.476-.37 2.161a.634.634 0 0 0 1.204.31c.28-.751.641-1.625.956-2.315.16-.35.244-.47.34-.557.03-.027.162-.088.215-.123a.634.634 0 0 0-.03.34c.262 1.184.351 2.405.03 3.487-.29.983-.676 2.334-.648 3.612.015.638.126 1.269.494 1.82.082.123.234.2.34.309-.729-.44-1.406-1.027-2.16-1.698-.965-.859-1.897-1.663-2.809-2.469a.634.634 0 0 0-.248-.153c-2.469-.778-4.385-1.676-6.666-3.364a.634.634 0 0 0-.864.926c1.542 1.813 2.823 2.959 4.876 3.92-.375 3.118-1.449 5.54-2.439 8.734-.08.26-.39.907-.801 1.666s-.913 1.671-1.451 2.531a37.245 37.245 0 0 1-1.575 2.315c-.237.32-.44.604-.617.802s-.344.312-.34.31c-.294.169-.661.467-1.202.894-.544.427-1.221.948-1.884 1.481-.661.534-1.333 1.083-1.882 1.512-.548.43-.99.763-1.111.834a.634.634 0 0 0-.185.185c-.693.92-1.265 1.955-1.945 2.314-1.245.66-2.032.385-2.932-.37-.898-.753-1.754-2.067-2.53-3.302-.35-.555-.966-1.603-1.297-2.561-.164-.48-.246-.938-.216-1.235s.093-.424.34-.556c1.442-.764 2.365-1.422 3.673-2.283.221.28.464.602.586.802a.634.634 0 0 0 1.173-.432c-.06-.485-.126-.969-.186-1.448-.103-.83-.099-1.456-.03-2.314.068-.862.119-1.717.185-2.562a.634.634 0 0 0-1.234-.247c-.22.764-.712 1.654-.988 2.623-.045.159-.078.314-.123.463-3.371.647-6.692.708-10.061.155-.22-1.216-.464-2.486-.68-3.395a.636.636 0 0 0-1.266.123c-.079 1.24-.024 4.378-.03 6.142-.005 1.36 0 1.565-.679 2.684-.644 1.062-.938 1.36-1.882 3.242a.634.634 0 0 0-.093.308c.076 1.157.103 1.809-.186 2.84-.05.174-.181.305-.648.4s-1.15.084-1.882 0c-1.467-.168-3.107-.613-3.796-.802-.88-.24-2.133-.51-2.994-.957-.43-.223-.725-.506-.864-.74s-.195-.443-.03-.865c.797-2.044 1.283-4.165 1.666-6.974a.634.634 0 0 0-.092-.462c-3.052-4.397-5.915-10.487-6.45-15.74-.424-4.162-.17-6.618.709-9.104 1.422-4.02 3.397-7.457 6.544-10.216 3.857-3.386 7.488-4.887 12.777-5.864-1.158 1.342-2.309 2.706-3.55 4.166-1.737 2.047-2.728 4.1-3.795 6.266-.751 1.522-1.187 2.661-1.11 3.826.075 1.166.663 2.203 1.666 3.549 1.643 2.206 2.457 3.171 3.148 5.155-.536 1.207-.767 2.359-.958 3.95a.634.634 0 0 0 .155.494c2.071 2.263 3.665 3.914 5.895 4.445 2.06.488 3.918.375 5.802-.587 3.958-2.025 7.47-4.467 11.634-4.568a.634.634 0 0 0 .588-.4c2.089-5.136 1.883-9.515.895-14.414-.66-3.265-.904-6.358-1.112-9.722a.636.636 0 0 0-1.265-.123c-.841 3.537-.997 6.705-.37 10.246.719 4.063 1.199 8.426-.587 11.82-4.02.448-7.384 2.766-10.802 4.537-1.296.671-2.62.716-4.104.309-1.247-.343-2.1-1.154-3.55-2.809.014-1.557.31-2.307 1.111-3.888 1.351-2.664 2.828-5.14 4.475-7.777a.634.634 0 0 0-1.018-.74c-1.773 2.14-3.44 4.035-4.938 6.172-.62-1.245-1.368-2.232-2.5-3.766-.684-.927-.99-1.527-1.05-2.068-.059-.54.109-1.156.618-2.222 1.06-2.221 1.912-4.089 3.642-5.956 3.142-3.395 5.961-7.135 9.32-10.4.89-.866 1.44-1.232 2.068-1.452.628-.218 1.412-.306 2.654-.493a86.82 86.82 0 0 0 6.697-1.296.634.634 0 0 0-.217-1.235c-1.683.157-3.324.192-4.967.247 1.514-1.866 2.757-3.163 5.493-4.351 4.147-1.802 7.477-2.756 10.523-2.623zm1.76 10.246a.634.634 0 0 0-.155.03c-2.348.59-3.873 1.393-4.721 2.563-.849 1.17-.896 2.61-.587 4.166a.634.634 0 0 0 1.234.031c.483-2.136 1.222-3.98 4.507-5.555a.634.634 0 0 0-.279-1.235zm-13.55.247a.634.634 0 0 0-.03.03 303.94 303.94 0 0 1-5.525.587c-.767.073-1.274.086-1.79.278-.516.192-.913.518-1.48 1.08-1.02 1.009-1.814 2.881-2.501 4.815a48.86 48.86 0 0 0-1.482 5.061.635.635 0 0 0 1.205.402c.417-.964 1.118-2.718 1.913-4.414a22.41 22.41 0 0 1 1.511-2.746c-.046.734.036 1.46.217 2.623a.634.634 0 0 0 1.235 0c.306-2.35 1.05-3.227 2.407-5a38.786 38.786 0 0 0 4.567-1.481.634.634 0 0 0-.247-1.235zm41.387 1.173c-.813 1.423-1.952 2.588-3.333 3.487-.316.207-.55.508-.895.68-.233.115-.397.073-.587.123.485-.183 1.013-.432 1.482-.802 1.28-1.01 2.05-2.449 2.993-3.364.12-.118.225-.119.34-.124zm-21.974 4.135a.634.634 0 0 0-.278.063c-.642.296-1.373.43-2.16.585-.788.157-1.646.35-2.407.864-.708.478-1.358 1.297-2.038 2.13-.678.834-1.36 1.692-1.852 2.131a.634.634 0 0 0 .65 1.049c.641-.25 1.18-.682 1.728-1.08.057.192.035.402.123.586.264.553.685.955 1.142 1.297-.296.45-.608.883-.803 1.419a.634.634 0 0 0 1.08.617c2.076-2.459 5.166-4.328 7.994-5.123a.639.639 0 0 0-.186-1.264c-.713-.01-1.523.191-2.345.4-.054-.184-.07-.375-.155-.555-.263-.553-.684-.956-1.142-1.295.368-.232.761-.421 1.08-.71a.634.634 0 0 0-.432-1.112zM6.109 26.923a.634.634 0 0 0-.4.122c-.96.677-1.745 1.272-2.409 1.883a.634.634 0 0 0-.925-.216c-1.02.713-1.7 1.28-2.068 2.068-.37.788-.342 1.667-.247 2.902a.634.634 0 0 0 .926.494c-.043.912-.024 1.886.092 3.117a.634.634 0 0 0 1.235 0c.385-4.363 1.129-6.007 4.229-9.29a.634.634 0 0 0-.433-1.081zm77.126.338c.245.011.491.006.74.031l.063.278c-.265-.123-.526-.277-.803-.309zm-74.41 4.505c-.237 1.037-.23 2.019-.308 2.778-.087.843-.263 1.446-1.08 2.099a.634.634 0 0 0-.093.092c-.511-.529-.672-1.04-.648-1.574.022-.535.26-1.134.648-1.728.389-.594.925-1.168 1.48-1.667zm2.778 7.283c-.06.178-.128.343-.186.525-.007.022-.023.04-.03.062-.627.24-1.315.473-1.852.462-.617-.01-.96-.17-1.234-.74-.03-.063-.034-.152-.063-.216.082.1.112.22.218.308.299.252.722.4 1.14.37.42-.029.87-.18 1.42-.4.23-.092.376-.259.587-.37zM76.32 54.604a5.186 5.186 0 0 1-1.079 1.018.634.634 0 0 0-.061-.215 3.638 3.638 0 0 0 1.141-.802zm-64.068 1.822a42.605 42.605 0 0 0 4.505 9.26c-.116.445-.222.86-.431 1.14-.261.348-.54.441-.988.433-.448-.01-1.037-.2-1.636-.494-1.197-.587-2.432-1.588-2.931-2.098-1.153-1.176-1.93-2.588-2.1-3.797-.066-.477-.024-.566 0-.617.025-.05.188-.246.556-.617.954-.966 1.916-1.934 2.87-2.902a.634.634 0 0 0 .123-.215c.012-.031.02-.062.032-.093zm51.324 2.84c.062.172.08.314.155.493.56 1.33.795 2.029.833 3.395.043 1.52.08 3.045.124 4.567a.634.634 0 0 0 .091.279c.48.84.485.695.402 1.635-.083.929-.258 1.237-.432 1.358-.173.122-.657.17-1.512.154-.41-.006-1.39.013-2.376 0-.986-.012-1.984-.032-2.315-.06-.605-.053-.688-.12-.988-.186.837-.893 1.694-2.064 2.5-3.395 1.071-1.77 1.979-3.571 2.315-4.63.405-1.272.803-2.423 1.203-3.61z" fill-rule="evenodd"/>
</svg>
