<svg xmlns="http://www.w3.org/2000/svg" viewBox="0 0 32 32"><path d="M12.89407,5.986a.20937.20937,0,0,0,.24466-.10991,4.22085,4.22085,0,0,1,2.45562-2.44625.22087.22087,0,0,0,.14242-.27317.21187.21187,0,0,0-.23527-.15411h-.00061a.20592.20592,0,0,0-.0515.01071,7.80323,7.80323,0,0,0-.98014.29909.21323.21323,0,0,0-.24078-.185l-.01706.00336a1.88462,1.88462,0,0,0-.89761.39521,1.929,1.929,0,0,0-.44363.89728.22061.22061,0,0,0,.14658.2708.20518.20518,0,0,0,.08039.00693,7.60559,7.60559,0,0,0-.35061,1.0148A.22055.22055,0,0,0,12.89407,5.986Zm19.06248,7.98655a6.0208,6.0208,0,0,1-2.75467,4.92427,6.18381,6.18381,0,0,1-3.93071.48068c-.06919.23225-.13868.4638-.20634.69429a2.65647,2.65647,0,0,1-2.311,1.77319,1.94356,1.94356,0,0,1-1.13486-.2884,4.608,4.608,0,0,1-.846-.71571c-.18785-.18734-.37791-.37683-.56744-.56611-.00416.02786-.00588.05792-.01032.08545.21046.44967.3286.84614.50552,1.28182a3.82718,3.82718,0,0,1,.35078,1.49546c.01263.49.02846.98246.04128,1.4741a1.55627,1.55627,0,0,1,.196.98273,1.24823,1.24823,0,0,1-.51584,1.05754,2.0792,2.0792,0,0,1-1.104.20295c-.27728-.00186-1.31925-.00881-1.6301-.032a4.57376,4.57376,0,0,1-.71186-.08545,1.04,1.04,0,0,1-.34045-.16023c-.22668.191-.49562.41168-.74283.61955-.14446.12149-.27179.23212-.38171.32047a2.47777,2.47777,0,0,1-.20634.14954c-.12116.19306-.20093.36662-.30952.53408a1.43513,1.43513,0,0,1-.52619.49137,1.75933,1.75933,0,0,1-1.888.06409,4.79219,4.79219,0,0,1-1.31029-1.55955A5.94413,5.94413,0,0,1,10.9407,25.84a1.70542,1.70542,0,0,1-.07221-.81181.94013.94013,0,0,1,.49521-.65158c.04534-.02412.07058-.04115.11348-.06409a9.83951,9.83951,0,0,1-1.661-.06409c.003.02677.00745.06035.01032.08545a2.62065,2.62065,0,0,1,.031.673,1.51032,1.51032,0,0,1-.26824.61955,4.62553,4.62553,0,0,0-.50552.94,3.24361,3.24361,0,0,1-.10318,1.21775,1.02234,1.02234,0,0,1-.619.69429,2.20658,2.20658,0,0,1-.94917.10683,8.86223,8.86223,0,0,1-1.77453-.36318,5.575,5.575,0,0,1-1.53724-.55546,1.16537,1.16537,0,0,1-.50552-.61955,1.37892,1.37892,0,0,1,.10318-.96138,4.94712,4.94712,0,0,0,.17539-.50206,2.16528,2.16528,0,0,1-1.16581-.25637,4.73241,4.73241,0,0,1-1.25869-.91864A3.67142,3.67142,0,0,1,.469,22.44318a1.0253,1.0253,0,0,1,.031-.64091,1.84106,1.84106,0,0,1,.392-.45934q.48974-.50187.98014-1.00409c.12424-.3485.2486-.69165.37142-1.03614-.04885-.26822-.0908-.53833-.1135-.81181A10.01807,10.01807,0,0,1,2.19191,15.97a1.48187,1.48187,0,0,1-.70155,0A1.30128,1.30128,0,0,1,.665,15.25424a4.55189,4.55189,0,0,1-.26824-.88662c-.00557-.0063-.00488-.015-.01032-.02136A1.382,1.382,0,0,1,.015,13.22468a2.30708,2.30708,0,0,1,.588-1.12157,4.71636,4.71636,0,0,1,.9698-.81183,2.5626,2.5626,0,0,1,.85633-.39521.20511.20511,0,0,1,.10765.009.22155.22155,0,0,1,.12973.27986c-.07007.20614-.13936.38422-.20634.56611a1.11669,1.11669,0,0,1,.36112.68365,2.813,2.813,0,0,1-.07223.89728.22093.22093,0,0,1-.073.12593.20709.20709,0,0,1-.29844-.02979c-.08461-.11055-.14362-.20595-.196-.28842a3.44727,3.44727,0,0,1-.04128.47,1.36493,1.36493,0,0,1-.33015.63024c.00151.004.00892.0071.01032.01069.03416-.012.072-.018.13411-.04274a3.4399,3.4399,0,0,0,1.15551-1.00409A7.45511,7.45511,0,0,1,4.74033,11.014C6.49341,9.4048,8.19349,8.8546,10.80677,8.4183c.33978-.36462.686-.71328,1.06267-1.05754a2.20566,2.20566,0,0,1,1.42375-.65158A6.58477,6.58477,0,0,1,16.14071,4.1669a8.31841,8.31841,0,0,1,3.82771-.88662l-.00033-.0004a5.81437,5.81437,0,0,1,3.4355,1.57026A21.84486,21.84486,0,0,0,25.601,6.68749a4.08409,4.08409,0,0,1,1.08353.89728,5.85714,5.85714,0,0,1,.87694,1.45272A2.41119,2.41119,0,0,0,28.2321,8.685c.29308-.25927.50364-.75133.86664-1.13228a.78474.78474,0,0,1,.54679-.235,1.419,1.419,0,0,1,.57774.1175,1.58827,1.58827,0,0,1,.83567.68365A12.60652,12.60652,0,0,1,31.95655,13.97255ZM27.63043,9.53587a1.94017,1.94017,0,0,1,.626.32937c.39328.32168,1.48613-1.09811,1.54382-1.59652l-.08612-.12735a.14249.14249,0,0,0-.11348.04274,12.68313,12.68313,0,0,1-1.045.97517A5.38208,5.38208,0,0,1,27.63043,9.53587ZM1.41807,13.26792a7.28052,7.28052,0,0,1,.10314-.96133,3.02724,3.02724,0,0,0-.49519.5768,1.26307,1.26307,0,0,0-.21666.59817.71513.71513,0,0,0,.21666.54452.21642.21642,0,0,1,.031-.03177A.92867.92867,0,0,0,1.41807,13.26792ZM4.17264,24.04587a14.97134,14.97134,0,0,1-1.50629-3.20455l0,0-.0103.032a.22152.22152,0,0,1-.04128.07476c-.31936.33483-.64044.66975-.95947,1.00411a1.63571,1.63571,0,0,0-.18571.21364c-.008.01736-.02238.04812,0,.21364a2.54944,2.54944,0,0,0,.70157,1.31389,4.18343,4.18343,0,0,0,.98012.72636,1.38322,1.38322,0,0,0,.54679.17092.34246.34246,0,0,0,.33015-.14954A1.21109,1.21109,0,0,0,4.17264,24.04587Zm16.02249.705c-.01447-.52739-.027-1.0546-.04128-1.58091a2.84335,2.84335,0,0,0-.27855-1.175c-.02532-.06207-.03107-.11127-.05158-.17086-.13387.41094-.26727.8093-.40236,1.24971a9.08437,9.08437,0,0,1-.7738,1.60229,7.19091,7.19091,0,0,1-.83567,1.175,1.46456,1.46456,0,0,0,.33015.06409c.11106.00991.44422.01694.7738.02136s.65781-.00243.79439,0a1.10254,1.10254,0,0,0,.50552-.0534c.058-.042.11687-.14861.14444-.47.02787-.32532.0262-.27524-.13411-.56613A.22477.22477,0,0,1,20.19512,24.75087Zm4.48666-5.52076c-.1022.11446-1.9479-1.013-2.0936-.94306.011.02339-.74744,2.41182.39426,2.46321C24.23316,20.80656,24.68179,19.23011,24.68179,19.23011ZM30.36763,8.73959a1.37627,1.37627,0,0,0-.15476-.18159,2.63456,2.63456,0,0,1-1.57849,1.77319,1.24781,1.24781,0,0,1-.70155.0534,3.54914,3.54914,0,0,1-.4024-.1175c-.00649.05535-.03769.07632-.02063.17092a5.49557,5.49557,0,0,1,.02063,2.083,5.19637,5.19637,0,0,1-.59839,1.88.20794.20794,0,0,1-.221.0763.22038.22038,0,0,1-.15037-.26856,12.52183,12.52183,0,0,0,.27857-1.73047,4.92811,4.92811,0,0,0-.0619-.85455.868.868,0,0,0-.28889.16023,1.19371,1.19371,0,0,0-.25792.2884c-.2682.56613-.27665,1.14066-.62932,1.77319a.209.209,0,0,1-.28114.10055.22318.22318,0,0,1-.10057-.29281,2.89272,2.89272,0,0,0,.16506-.88662,4.03989,4.03989,0,0,1,.18571-1.03614c.00953-.02786.02961-.04812.04128-.07476a1.03814,1.03814,0,0,0-.4024.39521,6.28373,6.28373,0,0,1-.56744.9934.20734.20734,0,0,1-.27961.05585.224.224,0,0,1-.07119-.30154,11.77373,11.77373,0,0,0,.44365-1.19637,1.65134,1.65134,0,0,1,1.35188-.79444,2.57023,2.57023,0,0,1,.54379.03128c-.00645-.032-.01414-.06443-.02063-.09614-.07529-.0078-.45173-.01516-.42853-.01633a4.97323,4.97323,0,0,0-.82751.07446.2108.2108,0,0,1-.217-.12609.22285.22285,0,0,1,.10373-.29127c.042-.01886.082-.03534.12381-.0534a1.02842,1.02842,0,0,1-.09286-.49137c.00143-.0154.00822-.02753.0103-.04274h-.0103a1.06841,1.06841,0,0,1-.31984-.0534.22183.22183,0,0,1,.04128-.41661,3.36675,3.36675,0,0,0,.74283-.25637l.01032-.01067h.0103a.31694.31694,0,0,1,.031-.01069h.01032a.96123.96123,0,0,1,.55712-.12819c.04209.0042.08982.023.13413.032a8.77469,8.77469,0,0,0-.46426-.80116,2.14741,2.14741,0,0,0-.83567-.71569c-.07449-.04548-.15276-.10083-.227-.14954a2.38808,2.38808,0,0,0-.82536-.0534.21049.21049,0,0,1-.23156-.12694.22266.22266,0,0,1,.10775-.28969,2.24758,2.24758,0,0,1,.2476-.06409c-.44463-.36077-.86164-.73107-1.31027-1.12157A4.871,4.871,0,0,0,19.90635,4.231l-.00059.00325a7.93157,7.93157,0,0,0-3.518.9078,4.34125,4.34125,0,0,0-1.83644,1.50613c.5494-.01893,1.09828-.03114,1.661-.08545a.21255.21255,0,0,1,.20465.14878.22141.22141,0,0,1-.13244.27849c-.75934.18267-1.49133.33137-2.23879.44865a5.39461,5.39461,0,0,0-.88727.1709,1.8432,1.8432,0,0,0-.69125.50208c-1.12272,1.13036-2.06514,2.425-3.11575,3.5997a7.54128,7.54128,0,0,0-1.21741,2.06159,1.50992,1.50992,0,0,0-.20634.7691,1.60522,1.60522,0,0,0,.35078.71571,8.812,8.812,0,0,1,.83567,1.30318c.5008-.739,1.05806-1.39562,1.65072-2.13637a.20682.20682,0,0,1,.25861-.04227.22366.22366,0,0,1,.08184.29864c-.55069.91313-1.04415,1.76981-1.496,2.69183a2.62524,2.62524,0,0,0-.3714,1.34591c.48456.57261.77007.85368,1.18648.97207a1.74457,1.74457,0,0,0,1.37215-.10681,10.43138,10.43138,0,0,1,3.61113-1.57026,6.749,6.749,0,0,0,.196-4.09125,8.65142,8.65142,0,0,1,.12381-3.54638.21462.21462,0,0,1,.23-.19577.218.218,0,0,1,.193.23848,24.87934,24.87934,0,0,0,.37142,3.36489,8.334,8.334,0,0,1-.29912,4.98852.21229.21229,0,0,1-.19612.13879c-1.39248.0349-2.56641.88055-3.88945,1.58091a2.599,2.599,0,0,1-1.9396.203A4.1771,4.1771,0,0,1,8.2271,19.1566a.22478.22478,0,0,1-.05158-.17092,4.621,4.621,0,0,1,.31982-1.36727A6.09054,6.09054,0,0,0,7.443,15.8345a2.38872,2.38872,0,0,1-.55712-1.22844,2.72536,2.72536,0,0,1,.3714-1.32456,9.85858,9.85858,0,0,1,1.269-2.16844c.41464-.50525.79912-.97756,1.18648-1.44208a7.95937,7.95937,0,0,0-4.27143,2.02956,8.14485,8.14485,0,0,0-2.18756,3.53579,6.938,6.938,0,0,0-.237,3.1509A13.00441,13.00441,0,0,0,5.173,23.83519a.226.226,0,0,1,.03071.16,10.49935,10.49935,0,0,1-.55714,2.4141.30123.30123,0,0,0,.01032.29909.74013.74013,0,0,0,.28887.25637,5.31434,5.31434,0,0,0,1.00075.33113,8.79866,8.79866,0,0,0,1.269.27773,2.11846,2.11846,0,0,0,.62932,0c.15584-.03291.20032-.0785.21666-.13885a2.61757,2.61757,0,0,0,.06188-.98273.22536.22536,0,0,1,.031-.10683,10.504,10.504,0,0,1,.62932-1.12157,1.32287,1.32287,0,0,0,.227-.92935c.002-.61045-.01614-1.69636.0103-2.12572A.21814.21814,0,0,1,9.21,21.93045a.21443.21443,0,0,1,.23391.19536c.072.3148.15386.75439.22715,1.17518a9.15976,9.15976,0,0,0,3.36319-.05368c.01543-.05148.02608-.1052.04128-.16023.0928-.33549.25686-.64319.33015-.90793a.21215.21215,0,0,1,.21722-.14995.21725.21725,0,0,1,.19547.2354c-.02222.29256-.03922.58856-.0619.88662a3.7504,3.7504,0,0,0,.01022.80123c.02014.16579.04193.33327.06207.50111a.22233.22233,0,0,1-.10238.22969.20808.20808,0,0,1-.28965-.08015c-.04111-.06933-.12214-.18064-.196-.27773a13.47839,13.47839,0,0,1-1.22774.79048.19833.19833,0,0,0-.11348.19226,1.15036,1.15036,0,0,0,.07221.42727,4.8206,4.8206,0,0,0,.43333.88662,5.11952,5.11952,0,0,0,.846,1.143.74465.74465,0,0,0,.98014.12819,2.9704,2.9704,0,0,0,.65-.80116.21575.21575,0,0,1,.0619-.06409c.04028-.02461.18808-.13966.3714-.2884s.408-.33891.62932-.52341.448-.365.62932-.51272a4.166,4.166,0,0,1,.40238-.30978.717.717,0,0,0,.1135-.10681c.059-.06866.12715-.16693.20634-.27773.15835-.22164.34621-.5036.52619-.80116s.34708-.61324.48491-.87593a4.58269,4.58269,0,0,0,.26824-.57682,17.1288,17.1288,0,0,0,.81506-3.023,4.52271,4.52271,0,0,1-1.6301-1.35663.22527.22527,0,0,1-.00975-.29277.20707.20707,0,0,1,.29865-.02767A6.8942,6.8942,0,0,0,20.277,19.2194a.21114.21114,0,0,1,.08288.053c.305.27906.61637.55745.93887.85455a5.06981,5.06981,0,0,0,.7222.58753.8855.8855,0,0,1-.1135-.10683,1.18186,1.18186,0,0,1-.16506-.63024,4.38676,4.38676,0,0,1,.21666-1.24975,2.53042,2.53042,0,0,0-.01032-1.207.22683.22683,0,0,1,.01032-.1175c-.01806.01213-.0618.033-.07223.04271a.54946.54946,0,0,0-.11348.19228c-.1054.23886-.22605.54143-.31982.80116a.21109.21109,0,0,1-.201.12318.21676.21676,0,0,1-.20136-.23c.03615-.23715.08957-.5231.12381-.74774a1.18627,1.18627,0,0,1,.196-.60884.90125.90125,0,0,1,.588-.267c.16553-.0289.48646-.10486.68093-.13888a.20977.20977,0,0,1,.20469.10364.224.224,0,0,1-.07031.30177c-.17492.09857-.42329.20447-.58807.2884a.208.208,0,0,1,.08255.032,4.29257,4.29257,0,0,0,.94917.5341c1.79269.62528,3.85332,1.217,5.57121.22433a5.45742,5.45742,0,0,0,2.26974-4.134A12.90075,12.90075,0,0,0,30.36763,8.73959Zm-6.91247,2.09325a3.08262,3.08262,0,0,0-.78411.13888,1.21951,1.21951,0,0,0-.05158-.19228,1.20825,1.20825,0,0,0-.382-.44846,2.43978,2.43978,0,0,0,.36112-.24568.225.225,0,0,0,.01975-.30976.20888.20888,0,0,0-.16421-.0748l.00033-.00065a.20584.20584,0,0,0-.09286.02138,3.13655,3.13655,0,0,1-.7222.20295,2.08134,2.08134,0,0,0-.80473.29909,3.71223,3.71223,0,0,0-.68093.73705,7.61135,7.61135,0,0,1-.619.7373.225.225,0,0,0,.00106.31041.20693.20693,0,0,0,.2156.05277,2.62279,2.62279,0,0,0,.57774-.37389,1.36616,1.36616,0,0,0,.04128.203,1.21907,1.21907,0,0,0,.38171.44863,2.4031,2.4031,0,0,0-.26824.49137.22137.22137,0,0,0,.13368.27788.20736.20736,0,0,0,.22744-.06424,5.64711,5.64711,0,0,1,2.6722-1.773.22054.22054,0,0,0,.17641-.25415A.215.215,0,0,0,23.45515,10.83285ZM20.58736,8.20458a.22086.22086,0,0,0,.1424-.27319.21183.21183,0,0,0-.23525-.15409l-.0001,0a.20482.20482,0,0,0-.0515.0106,2.62439,2.62439,0,0,0-1.57849.88662,1.83106,1.83106,0,0,0-.196,1.44205.21229.21229,0,0,0,.2508.17014.21541.21541,0,0,0,.1619-.15945A2.447,2.447,0,0,1,20.58736,8.20458ZM15.96514,7.8628l-.01032.01069c-.616.07208-1.23233.14266-1.84678.20295a2.24837,2.24837,0,0,0-.59837.09614,1.40112,1.40112,0,0,0-.49523.37389,4.7663,4.7663,0,0,0-.83567,1.66638,17.3737,17.3737,0,0,0-.49521,1.75181.22141.22141,0,0,0,.13413.27775.21052.21052,0,0,0,.26824-.13888c.1397-.33339.374-.94048.63967-1.52753a7.84257,7.84257,0,0,1,.50552-.95067,4.22455,4.22455,0,0,0,.07221.90793.21183.21183,0,0,0,.255.16323.21588.21588,0,0,0,.15766-.16323,3.091,3.091,0,0,1,.80471-1.73045,12.67851,12.67851,0,0,0,1.52694-.51275.22129.22129,0,0,0,.13468-.27733A.21217.21217,0,0,0,15.96514,7.8628Z"/></svg>
