<svg xmlns="http://www.w3.org/2000/svg" viewBox="0 0 96.1 96.1">
	<path d="M71.1 52.1c-3.7 0-7.1 1.5-9.5 4l-5.9-3.4c.4-1.5.6-3 .6-4.6 0-2-.4-3.9-1-5.7l6.1-3.5-.3-.5c2.4 2.7 5.9 4.4 9.8 4.4 7.3 0 13.2-5.9 13.2-13.2 0-7.3-5.9-13.2-13.2-13.2-7.3 0-13.2 5.9-13.2 13.2 0 1.4.2 2.8.7 4.1l-.1-.1-6.1 3.5c-2.5-3.1-6.1-5.2-10.2-6V26c5.8-1.4 10.1-6.6 10.1-12.8C52.4 5.9 46.5 0 39.2 0 31.9 0 26 5.9 26 13.2c0 6.2 4.3 11.4 10.1 12.8v5.2c-8.1 1.4-14.2 8.5-14.2 17s6.1 15.5 14.2 17v5C30.3 71.5 26 76.7 26 82.9c0 7.3 5.9 13.2 13.2 13.2 7.3 0 13.2-5.9 13.2-13.2 0-6.2-4.3-11.4-10.1-12.8v-5c4.5-.8 8.4-3.3 10.9-6.9l5.4 3.1c-.4 1.2-.6 2.6-.6 4 0 7.3 5.9 13.2 13.2 13.2 7.3 0 13.2-5.9 13.2-13.2-.1-7.3-6-13.2-13.3-13.2zm0-29.5c3.9 0 7.1 3.2 7.1 7.1 0 3.9-3.2 7.1-7.1 7.1-3.9 0-7.1-3.2-7.1-7.1 0-4 3.2-7.1 7.1-7.1zm-39-9.4c0-3.9 3.2-7.1 7.1-7.1 3.9 0 7.1 3.2 7.1 7.1 0 3.9-3.2 7.1-7.1 7.1-3.9 0-7.1-3.2-7.1-7.1zm14.2 69.7c0 3.9-3.2 7.1-7.1 7.1-3.9 0-7.1-3.2-7.1-7.1 0-3.9 3.2-7.1 7.1-7.1 3.9 0 7.1 3.2 7.1 7.1zm-7.1-23.6c-6.2 0-11.2-5-11.2-11.2S33 37 39.2 37s11.2 5 11.2 11.2-5 11.1-11.2 11.1zm31.9 13.1c-3.9 0-7.1-3.2-7.1-7.1 0-3.9 3.2-7.1 7.1-7.1 3.9 0 7.1 3.2 7.1 7.1 0 3.9-3.1 7.1-7.1 7.1z"/>
</svg>
