<svg xmlns="http://www.w3.org/2000/svg" viewBox="0.001 10 800 800">
	<path d="M23.263 356.677h50.412v50.413H23.263z"/>
	<path d="M767.313 183.753L429.109 4.652c-12.406-6.203-32.689-6.203-45.096 0L23.263 195.027v121.237h50.412v-94.086L154.5 276.48v160.609l.099 10c0 18.092.098 34.142.098 47.188-.098.394-.098.837-.197 1.23.099 0 .099-.049.197-.049v27.225C154.697 650.289 305.934 800 406.759 800c100.824 0 252.062-149.711 252.062-277.316 0-55.348 1.006-179.666.591-226.646l108.295-89.046c12.208-6.598 12.012-17.035-.394-23.239zm-562.4 91.902c53.563-12.012 124.062-19.373 201.649-19.373 77.588 0 148.086 7.36 201.649 19.373v50.609c-53.465-12.086-123.864-19.569-201.649-19.569s-148.086 7.483-201.649 19.569v-50.609zm403.79 187.557c-.197 26.683-.295 48.442-.295 59.471 0 104.418-133.317 226.904-201.649 226.904-68.333 0-201.649-122.486-201.649-226.904v-38.351c44.209-18.708 80.147-49.815 98.954-102.788 43.914 48.837 136.566 72.609 244.086 72.609 20.973 0 41.059-1.772 60.554-4.259l-.001 13.318z"/>
	<path d="M330.943 502.683c-16.523 0-30 13.476-30 30 0 16.641 13.477 30 30 30 16.641 0 30-13.359 30-30 0-16.524-13.359-30-30-30zm151.237 0c-16.523 0-30 13.476-30 30 0 16.641 13.477 30 30 30 16.641 0 30-13.359 30-30 0-16.524-13.36-30-30-30z"/>
</svg>
