<svg xmlns="http://www.w3.org/2000/svg" viewBox="0 0 432.1 445.4">
	<path d="M431.3 266.8c-2.6-7.9-9.4-13.3-18.2-14.7-4.1-.6-8.9-.4-14.5.8-9.8 2-17.1 2.8-22.4 2.9 20-33.8 36.3-72.4 45.7-108.6 15.2-58.7 7.1-85.4-2.4-97.5-25-32-61.6-49.2-105.7-49.7-23.5-.3-44.2 4.4-54.9 7.7-10-1.8-20.8-2.8-32.1-2.9-21.2-.3-39.9 4.3-55.9 13.8-8.9-3-23.1-7.2-39.5-9.9-38.7-6.4-69.8-1.5-92.6 14.6C11.2 42.8-1.6 76.7.8 123.9c.8 15 9.1 60.7 22.4 104 7.6 24.9 15.7 45.6 24.1 61.4 11.9 22.5 24.6 35.8 38.9 40.5 8 2.7 22.5 4.5 37.8-8.2 1.9 2.3 4.5 4.7 8 6.8 4.4 2.7 9.7 5 15 6.3 19.2 4.8 37.2 3.6 52.5-3.1.1 2.7.2 5.3.2 7.6.1 3.6.2 7.2.3 10.6.9 22.6 2.4 40.2 7 52.5.3.7.6 1.7.9 2.8 2.3 7 6.1 18.6 15.8 27.8 10 9.5 22.1 12.4 33.2 12.4 5.6 0 10.9-.7 15.5-1.7 16.6-3.6 35.5-9 49.1-28.4 12.9-18.4 19.2-46 20.3-89.6.1-1.2.3-2.4.4-3.5.1-.8.2-1.5.3-2.3l3 .3.8.1c16.9.8 37.6-2.8 50.3-8.7 10.1-4.8 42.3-21.8 34.7-44.7zm-40.2 32.6c-8 3.7-20.2 6.5-32.5 7.4-6.4.5-17.2.7-25.3-1.9-2.3 20.9-7.1 59.8-9.9 76.1-5.3 30.5-18.9 44.4-50.2 51.1-5.3 1.1-10.2 1.7-14.6 1.7-30 0-39.5-23.8-43.4-33.5-4.7-11.9-6.4-50.8-6.1-90.4-15.3 13.8-36 18.2-59.6 12.2-2-.5-19.3-5.2-19.1-16.2.2-10.2 14.7-13.1 20.2-14.3 19.2-3.9 20.4-5.5 26.4-13.1 1.2-1.5 2.6-3.3 4.3-5.4 0-.2 0-.5-.1-.7-8.6-.2-17-2.5-24.7-6.6-5.2 5.5-19.2 20.7-34.3 38.8-12.8 15.3-24.8 15.4-32.7 12.8-19.5-6.5-38-38.1-55-93.8-12.9-42.4-21.1-86.6-21.8-101-2.1-42.7 8.9-73 32.8-89.9 42.7-30.3 111.8-7.1 126.9-1.4 14.9-10.1 32.9-15.1 53.7-14.8 11.3.2 21.8 1.6 31.3 4 4.6-2 28-9.1 55.6-8.8 40.3.4 73.5 16 96.2 44.9 15.3 19.5 5.2 67.1.2 86.7-10.5 40.7-30 84.3-53.6 120.3 3.6 2.6 14.5 7 44.9.7 10.3-2.1 16.4-.3 18.3 5.5 3.8 11.5-16.6 24.4-27.9 29.6zm-202.6-57l.9-2.5c1.2-3.2 2.6-6.3 4.1-9.6 7.2-15.9 16.1-35.7 5.8-83.3-2-9.2-6.8-14.5-14.6-16.3-7.5-1.7-17.8-.3-29 4.1-9 3.5-15.2 7.6-17.5 9.5 0 1 .1 2.3.2 3.8.6 10.8 1.8 30.8-1.4 53.8-2.3 16.4 2.7 32.4 13.8 44 8.7 9.1 20.1 14.1 31.8 14.1 1.4-5.5 3.5-11.3 5.9-17.6zm-8.4-92.6c-3.4-.5-6-2.7-7.2-3.9-1.8-1.9-2.9-4.1-2.7-5.5.4-3.1 6-4 11.2-3.3 5.2.7 10.3 3.1 9.9 6.2-.3 2.4-4.7 6.5-9.9 6.5-.4.1-.9 0-1.3 0zm162.6-3.3c.9-5.8 1.8-11.4 1.9-17.6-4.2-.5-8.5-.8-12.8-.8-10.7 0-20.8 2.1-25.6 9-13 18.5 12.4 64 23.2 83.4 2.8 5 4.8 8.6 5.7 10.8 1 2.5 2.1 4.7 3.3 6.8 7.5-15.8 5.5-31.9 3.6-47.5-.9-7.7-1.9-15.7-1.6-23.4.3-7.9 1.3-14.4 2.3-20.7zm-12.4-3.6c-1.2 1.3-3.7 3.4-7.2 3.9-.4.1-.9.1-1.3.1-5.2 0-9.5-4.1-9.9-6.5-.4-3.1 4.6-5.5 9.9-6.2 5.2-.7 10.7.2 11.2 3.3.2 1.3-.9 3.4-2.7 5.4zM209.1 284.5c.5 1.8 1.1 5.2-.8 7.8-15.9 22.3-39.1 22-55.7 17.8-3.4-.9-6.5-2.3-8.3-3.6 1.5-.7 4.2-1.7 8.9-2.6 22.6-4.6 26-7.9 33.7-17.6 1.7-2.2 3.7-4.7 6.5-7.8 4.1-4.6 5.9-3.8 9.3-2.4 2.6 1.1 5.3 4.6 6.4 8.4zm-67.3-29.9c1.4 1.5 2.9 2.9 4.4 4.2-6.1 6.5-19.4 21-33.4 37.9-10 12-16.9 9.7-19.1 8.9-14.8-4.9-31.9-36.1-47-85.6-13.1-42.8-20.7-85.9-21.3-98-1.9-38.2 7.3-64.8 27.5-79.1C66.4 33.3 83.7 30 100.7 30c24.1 0 47.8 6.5 60.5 10.6l-.9.9c-35.4 35.8-34.7 96.9-34.6 101 0 1.4.1 3.5.3 6.4.6 10.3 1.8 29.5-1.3 51.3-2.8 20.3 3.4 40.1 17.1 54.4zM278.4 27.8c9.3-1.9 22-3.7 36.3-3.4 36.1.8 64.6 14.3 84.8 40.1 15.5 19.8-1.6 109.9-51 187.7-.5-.6-1-1.2-1.5-1.9-.2-.3-.4-.5-.6-.8 12.8-21.1 10.3-42 8-60.5-.9-7.6-1.8-14.8-1.6-21.5.2-7.1 1.2-13.3 2.1-19.2 1.1-7.3 2.3-14.9 2-23.8.2-.9.3-2 .2-3.3-.8-8.5-10.5-34.1-30.4-57.2-10.8-12.6-26.6-26.7-48.3-36.2zm62.2 234.6c-7.1 2-19.7 6.7-18.6 30.2-.9 11.9-7.5 66.9-10.9 86.3-4.4 25.7-13.9 35.3-40.5 41-27.6 5.9-37.4-8.2-43.8-24.3-4.2-10.4-6.2-57.3-4.7-109 0-.7-.1-1.4-.3-2-.2-1.2-.4-2.4-.8-3.6-2.2-7.5-7.4-13.8-13.7-16.4-2.5-1-7.1-2.9-12.6-1.5 1.2-4.9 3.2-10.3 5.4-16.3l.9-2.5c1-2.8 2.4-5.7 3.7-8.8 7.5-16.7 17.8-39.5 6.6-91-4.2-19.3-18.1-28.7-39.2-26.5-12.7 1.3-24.3 6.4-30 9.4-1.2.6-2.4 1.2-3.4 1.8 1.6-19.5 7.7-55.8 30.5-78.8 14.4-14.5 33.5-21.6 56.8-21.2 45.9.8 75.3 24.3 92 43.9 14.8 17.4 22.1 34.2 25.1 43.1-23.2-2.3-39 2.3-47 13.7-17.5 24.9 9.5 73.4 22.5 96.6 2.4 4.3 4.4 8 5.1 9.5 4.2 10.2 9.7 17.1 13.7 22.1 1.1 1.5 2.3 3 3.2 4.3zm62.7 14.3c.1 0 .2 0 .3-.1-3.5 3.2-9.4 7.6-17.7 11.5-7.2 3.3-19.3 5.9-30.7 6.4-12.7.6-19.1-1.4-20.6-2.7-.7-14.6 4.7-16.1 10.5-17.8.9-.3 1.8-.5 2.6-.8.5.4 1.1.9 1.7 1.3 10.2 6.8 28.3 7.5 53.9 2.2z"/>
</svg>
