<svg xmlns="http://www.w3.org/2000/svg" viewBox="0.001 10 800 800">
	<path d="M401.668 486.667c28.438 0 51.667-23.958 51.667-53.333v-370c0-29.271-23.229-53.333-51.667-53.333-28.437 0-51.666 24.063-51.666 53.333v370c0 29.375 23.229 53.333 51.666 53.333z"/>
	<path d="M560.002 99.793v124.896c64.375 48.75 106.667 125.208 106.667 211.979 0 147.084-119.584 266.667-266.667 266.667-146.979 0-266.667-119.583-266.667-266.667 0-89.896 45-169.166 113.333-217.5V96.564c-129.583 58.542-220 188.646-220 340.104 0 206.251 167.188 373.334 373.333 373.334 206.25 0 373.333-167.083 373.333-373.334.001-148.854-87.29-276.979-213.332-336.875z"/>
</svg>
