<svg xmlns="http://www.w3.org/2000/svg" viewBox="0 0 83.49 100" version="1">
	<path d="M41.44 0C20.245 0 21.569 9.628 21.569 9.628l.024 9.975h20.225v2.994h-28.26S-.003 20.987-.003 43.387c0 22.402 11.838 21.607 11.838 21.607h7.064V54.6s-.38-12.4 11.65-12.4h20.06s11.27.191 11.27-11.41V11.608S63.589 0 41.44 0zM30.288 6.707c2.012 0 3.639 1.704 3.639 3.812s-1.627 3.812-3.639 3.812-3.639-1.704-3.639-3.812 1.627-3.812 3.639-3.812z"/>
	<path d="M42.05 87c21.195 0 19.871-9.628 19.871-9.628l-.024-9.975H41.672v-2.994h28.26s13.561 1.61 13.561-20.79c0-22.402-11.838-21.607-11.838-21.607h-7.064v10.395s.38 12.4-11.65 12.4h-20.06s-11.27-.191-11.27 11.41v19.182s-1.71 11.608 20.439 11.608zm11.152-6.707c-2.012 0-3.639-1.704-3.639-3.812s1.627-3.812 3.639-3.812 3.639 1.704 3.639 3.812-1.627 3.812-3.639 3.812z"/>
</svg>
