<svg xmlns="http://www.w3.org/2000/svg" viewBox="0 0 800 800">
	<path d="M673.513 124.417c-151.316-151.22-396.661-151.22-547.977 0-151.309 151.214-151.309 396.656 0 547.972 151.316 151.316 396.757 151.214 547.977 0 151.316-151.215 151.316-396.757 0-547.972zM383.226 710.119c-42.074 0-76.447-33.978-76.447-75.759 0-42.863 33.584-76.447 76.447-76.447 41.782 0 75.759 34.276 75.759 76.447 0 41.088-34.671 75.759-75.759 75.759zm53.24-265.594v41.978c0 20.445-8 28.446-28.446 28.446h-54.818c-20.445 0-28.35-8-28.35-28.446v-93.828c0-23.707 24.3-30.817 45.73-37.043 5.239-1.578 10.67-3.161 15.904-4.936 27.753-9.977 44.943-22.423 44.943-53.437 0-10.074 0-40.593-49.686-40.593-30.615 0-58.469 11.752-75.061 18.767-9.386 3.95-14.028 5.927-18.767 5.927-9.583 0-18.67-7.707-20.051-15.606l-19.065-49.877c-2.76-5.73-2.76-10.276-2.76-13.927 0-36.744 114.373-56.992 152.301-56.992 95.507 0 159.71 61.534 159.71 153.096.002 99.062-74.372 130.076-121.584 146.471z"/>
</svg>
