<svg xmlns="http://www.w3.org/2000/svg" viewBox="0.001 0 800 800">
	<path d="M755.014 660.587l-162.64-162.64c31.082-48.472 49.343-105.967 49.343-167.829C641.717 158.006 502.21 18.5 330.119 18.5c-172.113 0-311.618 139.505-311.618 311.618 0 172.091 139.505 311.598 311.618 311.598 61.862 0 119.357-18.261 167.829-49.343l162.597 162.64c8.651 8.649 22.822 8.649 31.475 0l62.994-62.95c8.649-8.696 8.649-22.867 0-31.476zM330.119 552.681c-122.726 0-222.585-99.857-222.585-222.563 0-122.726 99.859-222.585 222.585-222.585 122.705 0 222.563 99.859 222.563 222.585 0 122.706-99.858 222.563-222.563 222.563z"/>
</svg>
