<svg xmlns="http://www.w3.org/2000/svg" viewBox="0 0 800 800">
	<path d="M649.394 503.762c-31.061 0-59.573 10.046-83.08 26.729L294.206 399.239l269.129-129.633c24.041 18.138 53.615 29.248 86.059 29.248 79.354 0 143.606-64.09 143.606-143.108 0-79.04-64.251-143.13-143.606-143.13-79.251 0-143.502 64.09-143.502 143.13l.534 5.067L236.55 290.869c-24.04-18.138-53.615-29.275-86.059-29.275-79.354 0-143.605 64.09-143.605 143.108 0 79.067 64.25 143.13 143.605 143.13 36.273 0 68.93-13.842 94.25-35.955l262 126.027-.85 8.96C505.892 725.91 570.143 790 649.394 790 728.749 790 793 725.91 793 646.865c0-79.013-64.251-143.103-143.606-143.103z"/>
</svg>
