<svg id="Layer_1" xmlns="http://www.w3.org/2000/svg" viewBox="0 0 20 20">
	<path class="st0" d="M11.7 15c1.1.3 2.3.5 3.4.8 0-.3-1.8-3.3-1.9-4.3.2-.4 3.1-3.7 3.1-3.8-.2 0-3.7 1.1-4.9 1.1 0-.2-1.8-3.6-2.4-3.7-.3 1.6-.5 3.1-.8 4.7-1.6.5-3.2 1.1-4.7 1.6.2.2 2.4 1 3.5 1.5l-2.8 1.6S.6 12.4.3 12.1c-.3-.5-.3-1.2.1-1.5s4.4-1.8 6.1-2.3c.1-.6.9-5 1.5-6 .2-.3.7-.9 1.4-.7 1 .4 3 4.4 3.3 4.8.2 0 5.6-1.6 6.9-1.1.4.2.7.6.1 1.2-.3.2-3.9 4.6-4.1 5-.1.6 2.3 5.6 2.3 6 0 .4-.2.8-.8.8-.5 0-5.1-1.2-5.1-1.2 0-.2-.3-1.8-.3-2.1z"/>
</svg>
