<svg xmlns="http://www.w3.org/2000/svg" viewBox="0 0 16 16">
  <g>
    <circle class="ti-background" cx="8" cy="8" r="8" fill="#19426C"/>
    <path class="ti-foreground" fill="#FFF" fill-rule="nonzero" d="M13.7521352,9.8783969 C13.881887,9.92559989 13.9488061,10.0690501 13.9016031,10.1988019 C12.9988981,12.6801621 10.6404592,14.3318317 8,14.3318317 L7.98766667,14.331 L7.98666667,14.8966667 L7.22733541,14.2843278 C4.90805425,13.9976219 2.91198206,12.4351891 2.0983969,10.1988019 C2.05119392,10.0690501 2.11811297,9.92559989 2.24786478,9.8783969 C2.37761658,9.83119392 2.52106678,9.89811297 2.56826976,10.0278648 C3.31543321,12.0816717 5.14615772,13.5179066 7.27478242,13.786353 L7.99,13.2133333 L7.98895528,13.8318213 C7.99263626,13.8318282 7.99631783,13.8318317 8,13.8318317 C10.4302316,13.8318317 12.6008967,12.3116645 13.4317302,10.0278648 C13.4789332,9.89811297 13.6223834,9.83119392 13.7521352,9.8783969 Z M7.8202882,4.32821709 C7.9344254,4.24921434 8.0855746,4.24921434 8.1997118,4.32821709 C8.313849,4.40721983 8.36707918,4.54868582 8.33333333,4.68333333 L8.33333333,4.68333333 L8.33333333,5.53666667 C8.60148293,5.61806272 8.8289222,5.79787073 8.97,6.04 L8.97,6.04 L8.98,6.04 C9.05,6.16 10.93,11.64 10.93,11.64 C10.93,11.64 7.12666667,7.27 7.05666667,7.15 C6.90953838,6.89547835 6.86972922,6.59287484 6.94602332,6.30896075 C7.02231742,6.02504665 7.20844407,5.78315717 7.46333333,5.63666667 C7.53356481,5.59547257 7.60856447,5.56301003 7.68666667,5.54 L7.68666667,5.54 L7.68666667,4.68333333 C7.65292082,4.54868582 7.706151,4.40721983 7.8202882,4.32821709 Z M6.66666667,7.03333333 C6.70228407,7.12592194 6.74812333,7.21424637 6.80333333,7.29666667 C6.82,7.34666667 7.16,7.75 7.80333333,8.5 C6.66666667,9.82333333 5.07333333,11.64 5.07333333,11.64 C5.07333333,11.64 6.10333333,8.64333333 6.66666667,7.03333333 Z M1.97333333,7.36 C2.41332018,7.36 2.77,7.71667982 2.77,8.15666667 C2.77,8.59665352 2.41332018,8.95333333 1.97333333,8.95333333 C1.53334648,8.95333333 1.17666667,8.59665352 1.17666667,8.15666667 C1.17666667,7.71667982 1.53334648,7.36 1.97333333,7.36 Z M14.0266667,7.36 C14.4666535,7.36 14.8233333,7.71667982 14.8233333,8.15666667 C14.8233333,8.59665352 14.4666535,8.95333333 14.0266667,8.95333333 C13.5866798,8.95333333 13.23,8.59665352 13.23,8.15666667 C13.23,7.71667982 13.5866798,7.36 14.0266667,7.36 Z M7.99779211,6.15333323 C7.71288283,6.15456155 7.4827365,6.3861927 7.48334406,6.67110395 C7.48395403,6.9560152 7.7150881,7.18666074 8,7.18666667 C8.13788443,7.18757371 8.2703364,7.13297104 8.36752351,7.03515691 C8.46471063,6.93734278 8.5184604,6.80454241 8.51666667,6.66666667 C8.51482853,6.3817607 8.28270138,6.15211464 7.99779211,6.15333323 Z M7.94666667,1.17 L8.74525845,1.78593077 C11.0781575,2.06404865 13.0876523,3.63315021 13.901733,5.88155614 C13.9487383,6.01137972 13.8816008,6.1547278 13.7517772,6.20173304 C13.6219536,6.24873828 13.4786055,6.18160076 13.4316003,6.05177719 C12.6796104,3.97485955 10.8193156,2.52774572 8.66216002,2.2796305 L7.97666667,2.85 L7.96566667,2.242 L7.75770282,2.2467804 C5.42466569,2.34413052 3.36877473,3.84122496 2.56839971,6.05177719 C2.52139446,6.18160076 2.37804638,6.24873828 2.24822281,6.20173304 C2.11839924,6.1547278 2.05126172,6.01137972 2.09826696,5.88155614 C2.99301284,3.41036147 5.33181072,1.75976183 7.9569019,1.74187776 L7.94666667,1.17 Z"/>
  </g>
</svg>
