<svg xmlns="http://www.w3.org/2000/svg" viewBox="0 0 16 16">
  <g>
    <circle class="ti-background" cx="8" cy="8" r="8" fill="#19426C"/>
    <path class="ti-foreground" fill="#FFF" fill-rule="nonzero" d="M8,1.72333333 C11.4665073,1.72333333 14.2766667,4.53349272 14.2766667,8 C14.2766667,11.4665073 11.4665073,14.2766667 8,14.2766667 C4.53349272,14.2766667 1.72333333,11.4665073 1.72333333,8 C1.72333333,4.53349272 4.53349272,1.72333333 8,1.72333333 Z M8,2.22333333 C4.8096351,2.22333333 2.22333333,4.8096351 2.22333333,8 C2.22333333,11.1903649 4.8096351,13.7766667 8,13.7766667 C11.1903649,13.7766667 13.7766667,11.1903649 13.7766667,8 C13.7766667,4.8096351 11.1903649,2.22333333 8,2.22333333 Z M7.42333333,4.74666667 C8.91634311,4.74666667 10.1266667,5.22870675 10.1266667,5.82333333 L10.1266667,5.82333333 L10.1270072,7.95143069 C11.0266657,8.09812276 11.7133333,8.87887147 11.7133333,9.82 C11.7133333,10.8656591 10.8656591,11.7133333 9.82,11.7133333 C9.04742596,11.7133333 8.38292861,11.250602 8.08854076,10.5871721 C7.88108253,10.6089196 7.6618956,10.62 7.43666667,10.62 L7.42333333,10.62 L7.42333333,10.62 C5.97280244,10.62 4.77434513,10.1557008 4.72179667,9.44235401 L4.72,9.39333333 L4.71833824,8.27792823 C4.71701016,8.26723648 4.71594375,8.25648686 4.71514218,8.24568011 L4.71333333,8.19666667 L4.71933333,8.19633333 L4.72,5.82333333 L4.72741489,5.74298044 C4.83061348,5.18588088 5.99818764,4.74666667 7.42333333,4.74666667 Z M9.82666667,8.66 L9.46333333,9.34666667 L8.73,9.48333333 L9.28,10.0333333 L9.14333333,10.81 L9.87333333,10.4433333 L10.56,10.8566667 L10.4233333,10.0333333 L10.9733333,9.48333333 L10.1933333,9.34666667 L9.82666667,8.66 Z M5.21903326,8.93511367 L5.22,9.39333333 C5.22,9.73125056 6.19658744,10.1185185 7.42958926,10.1199958 C7.60429125,10.12 7.77970452,10.1116057 7.94728631,10.0962073 C7.93343049,10.0052309 7.92666667,9.91340535 7.92666667,9.82 C7.92666667,9.67591728 7.94276098,9.5355936 7.97324991,9.40072863 C7.79814856,9.41573981 7.6161095,9.42333333 7.43,9.42333333 C6.52365296,9.42333333 5.71384278,9.243241 5.21903326,8.93511367 Z M5.21938948,7.72199446 L5.21933333,8.23833333 L5.22139201,8.25039855 C5.31745664,8.57454326 6.26083809,8.92333333 7.43,8.92333333 C7.69371136,8.92333333 7.94593604,8.90558848 8.17954174,8.87438403 C8.47693398,8.36004514 9.00778148,7.99916398 9.62673121,7.93640992 L9.6274022,7.73659426 C9.13652134,8.04576662 8.3314242,8.22666667 7.43,8.22666667 C6.52813585,8.22666667 5.71259097,8.03759456 5.21938948,7.72199446 Z M5.21867117,6.5593735 L5.21933333,6.99933333 L5.23,7 C5.23,7.32824487 6.21908909,7.72666667 7.43,7.72666667 C8.62104979,7.72666667 9.57391358,7.3594367 9.62454971,7.02756546 L9.62666667,7 L9.62677487,6.56014165 C9.13509178,6.86929203 8.32826681,7.05 7.42333333,7.05 C6.51765061,7.05 5.71023893,6.86899267 5.21867117,6.5593735 Z"/>
  </g>
</svg>
