<svg xmlns="http://www.w3.org/2000/svg" viewBox="0 0 16 16">
  <g>
    <circle class="ti-background" cx="8" cy="8" r="8" fill="#19426C"/>
    <path class="ti-foreground" fill="#FFF" fill-rule="nonzero" d="M8,1.17666667 C8.37008927,1.17666667 8.68123785,1.4290218 8.77075767,1.771044 C11.6206593,2.11896492 13.8804639,4.37847614 14.2297399,7.22863461 C14.5710113,7.31880294 14.8233333,7.62993498 14.8233333,8 C14.8233333,8.37006502 14.5710113,8.68119706 14.2290233,8.77074006 C13.8809942,11.6209937 11.6209937,13.8809942 8.77036226,14.2298627 C8.68119706,14.5710113 8.37006502,14.8233333 8,14.8233333 C7.62993498,14.8233333 7.31880294,14.5710113 7.22925994,14.2290233 C4.37847614,13.8804639 2.11896492,11.6206593 1.77013727,8.77036226 C1.4290218,8.68123785 1.17666667,8.37008927 1.17666667,8 C1.17666667,7.62991073 1.4290218,7.31876215 1.771044,7.22924233 C2.11949508,4.37881051 4.37881051,2.11949508 7.22863461,1.77026011 C7.31876215,1.4290218 7.62991073,1.17666667 8,1.17666667 Z M5.29566667,8.24966667 L2.72978102,8.25061671 C2.65616524,8.47293131 2.48728262,8.65184589 2.27150077,8.73899281 C2.60183317,11.338294 4.66170597,13.3981668 7.26152802,13.7299068 C7.34815411,13.5127174 7.52706869,13.3438348 7.74938329,13.270219 L7.74959245,11.0586621 C6.41391262,11.0084718 5.34795493,10.557537 5.29846334,9.88568734 L5.29666667,9.83666667 L5.29566667,8.24966667 Z M13.270219,8.25061671 L10.7026667,8.24966667 L10.7033333,9.83666667 C10.7033333,10.5355317 9.61834653,11.0072485 8.25046015,11.0586601 L8.25061671,13.270219 C8.47293131,13.3438348 8.65184589,13.5127174 8.73899281,13.7284992 C11.338294,13.3981668 13.3981668,11.338294 13.7299068,8.73847198 C13.5127174,8.65184589 13.3438348,8.47293131 13.270219,8.25061671 Z M5.79524321,9.3667044 L5.79666667,9.83666667 C5.79666667,10.175703 6.77031354,10.5633333 8,10.5633333 C9.19732629,10.5633333 10.1519114,10.1958362 10.2013236,9.8635257 L10.2033333,9.83666667 L10.2037384,9.37431098 C9.71262304,9.68268413 8.90736658,9.86333333 8.00666667,9.86333333 C7.09819663,9.86333333 6.2860132,9.67968517 5.79524321,9.3667044 Z M5.79588526,8.15291953 L5.79566667,8.63966667 L5.80666667,8.64 C5.80666667,8.97539771 6.78338402,9.36333333 8.00666667,9.36333333 C9.19635361,9.36333333 10.1505066,8.99644181 10.2012134,8.66732987 L10.2033333,8.64 L10.2030499,8.16056889 C9.71207434,8.46935009 8.90746744,8.65 8.00666667,8.65 C7.09806275,8.65 6.28651713,8.46633829 5.79588526,8.15291953 Z M5.79533784,6.9993735 L5.79566667,7.42266667 L5.80666667,7.42333333 C5.80666667,7.76170616 6.78198021,8.15 8.00666667,8.15 C9.19771645,8.15 10.1505802,7.78277003 10.2012164,7.45089879 L10.2033333,7.42333333 L10.2034103,7.00016129 C9.71172428,7.30929968 8.90491432,7.49 8,7.49 C7.09431728,7.49 6.2869056,7.30899267 5.79533784,6.9993735 Z M7.26100719,2.27150077 L7.1269427,2.28887805 C4.59087528,2.67334415 2.59608783,4.70673175 2.2700932,7.26152802 C2.48728262,7.34815411 2.65616524,7.52706869 2.72978102,7.74938329 L5.29566667,7.74966667 L5.29666667,6.26333333 L5.30408155,6.18298044 C5.4011746,5.65884059 6.44042539,5.23904981 7.74992385,5.19121223 L7.74938329,2.72978102 C7.52706869,2.65616524 7.34815411,2.48728262 7.26100719,2.27150077 Z M8.73847198,2.2700932 L8.70332468,2.34785035 C8.60781284,2.5268431 8.44597071,2.6650928 8.25061671,2.72978102 L8.25032083,5.19122117 C9.62598066,5.24152567 10.7033333,5.70232085 10.7033333,6.26333333 L10.7033333,6.26333333 L10.7026667,7.74966667 L13.270219,7.74938329 C13.3438348,7.52706869 13.5127174,7.34815411 13.7284992,7.26100719 C13.3981668,4.66170597 11.338294,2.60183317 8.73847198,2.2700932 Z"/>
  </g>
</svg>
