<svg xmlns="http://www.w3.org/2000/svg" viewBox="0 0 16 16">
  <g>
    <circle class="ti-background" cx="8" cy="8" r="8" fill="#19426C"/>
    <path class="ti-foreground" fill="#FFF" fill-rule="nonzero" d="M8,1.17666667 C8.37008927,1.17666667 8.68123785,1.4290218 8.77075767,1.771044 C11.6206593,2.11896492 13.8804639,4.37847614 14.2297399,7.22863461 C14.5710113,7.31880294 14.8233333,7.62993498 14.8233333,8 C14.8233333,8.37006502 14.5710113,8.68119706 14.2290233,8.77074006 C13.8809942,11.6209937 11.6209937,13.8809942 8.77036226,14.2298627 C8.68119706,14.5710113 8.37006502,14.8233333 8,14.8233333 C7.62993498,14.8233333 7.31880294,14.5710113 7.22925994,14.2290233 C4.37847614,13.8804639 2.11896492,11.6206593 1.77013727,8.77036226 C1.4290218,8.68123785 1.17666667,8.37008927 1.17666667,8 C1.17666667,7.62991073 1.4290218,7.31876215 1.771044,7.22924233 C2.11949508,4.37881051 4.37881051,2.11949508 7.22863461,1.77026011 C7.31876215,1.4290218 7.62991073,1.17666667 8,1.17666667 Z M8.73847198,2.2700932 L8.70332468,2.34785035 C8.56928434,2.59904695 8.30460628,2.77 8,2.77 C7.66543882,2.77 7.37904506,2.56377077 7.26100719,2.27150077 C4.66170597,2.60183317 2.60183317,4.66170597 2.2700932,7.26152802 C2.56377077,7.37904506 2.77,7.66543882 2.77,8 C2.77,8.33456118 2.56377077,8.62095494 2.27150077,8.73899281 C2.60183317,11.338294 4.66170597,13.3981668 7.26152802,13.7299068 C7.37904506,13.4362292 7.66543882,13.23 8,13.23 C8.33456118,13.23 8.62095494,13.4362292 8.73899281,13.7284992 C11.338294,13.3981668 13.3981668,11.338294 13.7299068,8.73847198 C13.4362292,8.62095494 13.23,8.33456118 13.23,8 C13.23,7.66543882 13.4362292,7.37904506 13.7284992,7.26100719 C13.3981668,4.66170597 11.338294,2.60183317 8.73847198,2.2700932 Z M9.77666667,9.53666667 L9.98,10.1966667 L6.05,10.1966667 L6.21666667,9.53666667 L9.77666667,9.53666667 Z M9.98,8.29333333 L9.98,8.95333333 L3.58333333,8.95333333 L3.58333333,8.29333333 L9.98,8.29333333 Z M12.42,7.05 L12.42,7.71 L6.05,7.71 L6.05,7.05 L12.42,7.05 Z M9.98,5.80333333 L9.79333333,6.46333333 L6.23333333,6.46333333 L6.05,5.80333333 L9.98,5.80333333 Z"/>
  </g>
</svg>
