<svg width="12" height="12" viewBox="0 0 12 12" fill="none" xmlns="http://www.w3.org/2000/svg">
<g clip-path="url(#clip0_3369_7665)">
<path d="M2.844 0.00400355C2.31649 0.0302555 1.80537 0.195861 1.36269 0.483949C0.92002 0.772038 0.561618 1.17231 0.323998 1.644C0.070853 2.14072 -0.0372751 2.69869 0.0119977 3.254C0.0509977 3.656 0.140998 3.984 0.311998 4.328C0.544167 4.80016 0.896854 5.20266 1.33442 5.49483C1.77198 5.78701 2.27892 5.95851 2.804 5.992C2.887 5.996 2.914 6.004 2.84 6.004C2.781 6.004 2.637 6.02 2.527 6.039C2.0588 6.11257 1.61482 6.29649 1.23176 6.57558C0.848691 6.85466 0.537535 7.22089 0.323998 7.644C0.070853 8.14072 -0.0372751 8.69869 0.0119977 9.254C0.0509977 9.656 0.140998 9.984 0.311998 10.328C0.534998 10.789 0.858998 11.164 1.289 11.465C1.84109 11.8473 2.5057 12.0329 3.176 11.992C3.90985 11.9535 4.60314 11.6434 5.121 11.122C5.6428 10.6019 5.95436 9.90756 5.996 9.172C5.996 9.117 6 9.074 6.004 9.07C6.01692 9.24075 6.07189 9.40565 6.164 9.55C6.313 9.77 6.539 9.926 6.801 9.977C6.895 10 6.984 10 7.5 10H8V10.5C8 11.016 8 11.105 8.023 11.203C8.04984 11.3324 8.10206 11.4552 8.17665 11.5643C8.25125 11.6734 8.34672 11.7666 8.45757 11.8386C8.56841 11.9106 8.69242 11.9599 8.82243 11.9836C8.95244 12.0074 9.08587 12.0051 9.215 11.977C9.38569 11.9396 9.54347 11.8577 9.67236 11.7397C9.80125 11.6217 9.89668 11.4717 9.949 11.305C10 11.156 10 11.109 10.004 10.5V10H10.5C10.773 10 11.027 10 11.07 9.996C11.324 9.976 11.547 9.871 11.723 9.691C12.012 9.387 12.082 8.93 11.895 8.551C11.8268 8.41628 11.7293 8.2986 11.6095 8.20669C11.4897 8.11478 11.3508 8.05097 11.203 8.02C11.105 8 11.016 8 10.5 7.996H10.004V7.5C10.004 7.227 10 6.973 9.996 6.93C9.98543 6.77677 9.9398 6.62802 9.86265 6.49521C9.78549 6.3624 9.67887 6.24909 9.551 6.164C9.41895 6.07898 9.26906 6.02559 9.113 6.008C9.09 6.004 9.07 6.004 9.07 6.004C9.10352 5.99663 9.13768 5.99261 9.172 5.992C9.87381 5.95483 10.54 5.67115 11.0531 5.19094C11.5663 4.71072 11.8934 4.06481 11.977 3.367C12.0337 2.91453 11.986 2.45507 11.8374 2.02394C11.6889 1.5928 11.4434 1.20146 11.12 0.880004C10.8902 0.646065 10.622 0.45327 10.327 0.310004C9.82697 0.0611517 9.26663 -0.0407924 8.711 0.0160036C8.328 0.0550036 7.992 0.152004 7.664 0.312004C7.364 0.465004 7.114 0.645004 6.879 0.879004C6.379 1.379 6.079 2.023 6.012 2.739C6.008 2.773 6.008 2.82 6.008 2.844C6.008 2.914 5.996 2.887 5.992 2.804C5.988 2.762 5.984 2.684 5.977 2.633C5.89363 1.9567 5.58235 1.32898 5.09447 0.853272C4.60658 0.377564 3.97119 0.0822538 3.293 0.0160036C3.14331 0.00417117 2.9931 0.000165708 2.843 0.00400355H2.844ZM3.09 2.004C3.488 2.043 3.824 2.304 3.945 2.676C4.02464 2.90328 4.01907 3.15173 3.92931 3.3752C3.83955 3.59868 3.67172 3.78196 3.457 3.891C3.31887 3.96206 3.1661 3.99999 3.01077 4.0018C2.85545 4.00361 2.70183 3.96925 2.56209 3.90143C2.42234 3.83361 2.30029 3.7342 2.2056 3.61107C2.11091 3.48793 2.04618 3.34445 2.01652 3.19197C1.98687 3.03949 1.9931 2.88221 2.03474 2.73256C2.07638 2.58291 2.15227 2.445 2.25641 2.32975C2.36056 2.2145 2.49009 2.12507 2.63477 2.06853C2.77945 2.01199 2.9353 1.9899 3.09 2.004ZM9.09 2.004C9.488 2.043 9.824 2.304 9.945 2.676C10.0246 2.90328 10.0191 3.15173 9.92931 3.3752C9.83955 3.59868 9.67172 3.78196 9.457 3.891C9.31887 3.96206 9.1661 3.99999 9.01077 4.0018C8.85545 4.00361 8.70184 3.96925 8.56209 3.90143C8.42234 3.83361 8.30029 3.7342 8.2056 3.61107C8.11091 3.48793 8.04618 3.34445 8.01652 3.19197C7.98687 3.03949 7.9931 2.88221 8.03474 2.73256C8.07638 2.58291 8.15227 2.445 8.25641 2.32975C8.36056 2.2145 8.49009 2.12507 8.63477 2.06853C8.77945 2.01199 8.93531 1.9899 9.09 2.004ZM6.008 3.156C6.008 3.18 6.008 3.226 6.012 3.262C6.047 3.645 6.141 3.984 6.312 4.328C6.461 4.633 6.641 4.883 6.879 5.121C7.121 5.359 7.371 5.543 7.672 5.687C8.043 5.871 8.414 5.969 8.828 5.992C8.918 6 8.961 6.004 8.906 6.004C8.73398 6.02122 8.56927 6.08231 8.42762 6.18141C8.28597 6.28051 8.17213 6.41431 8.097 6.57C8.04239 6.68263 8.01077 6.80502 8.004 6.93C8 6.973 8 7.227 8 7.5V7.996H7.5C7.227 7.996 6.973 8 6.93 8.004C6.617 8.027 6.34 8.188 6.164 8.449C6.07897 8.58105 6.02558 8.73094 6.008 8.887C6.008 8.91 6.004 8.93 6.004 8.93C5.99681 8.89651 5.99411 8.86221 5.996 8.828C5.97166 8.39356 5.85295 7.96963 5.64813 7.58572C5.44331 7.20181 5.1573 6.86714 4.81 6.605C4.49799 6.37079 4.14392 6.19867 3.767 6.098C3.5673 6.04646 3.36295 6.01497 3.157 6.004C3.087 6.004 3.114 5.996 3.197 5.992C3.239 5.988 3.317 5.984 3.368 5.977C3.89578 5.91337 4.39702 5.71003 4.81997 5.38798C5.24292 5.06593 5.57226 4.63684 5.774 4.145C5.896 3.852 5.978 3.488 5.994 3.195C5.997 3.113 6.008 3.085 6.008 3.156ZM3.09 8.004C3.488 8.043 3.824 8.304 3.945 8.676C4.02464 8.90328 4.01907 9.15173 3.92931 9.37521C3.83955 9.59868 3.67172 9.78196 3.457 9.891C3.31887 9.96206 3.1661 9.99999 3.01077 10.0018C2.85545 10.0036 2.70183 9.96925 2.56209 9.90143C2.42234 9.83361 2.30029 9.73421 2.2056 9.61107C2.11091 9.48793 2.04618 9.34445 2.01652 9.19197C1.98687 9.03949 1.9931 8.88221 2.03474 8.73256C2.07638 8.58291 2.15227 8.445 2.25641 8.32975C2.36056 8.2145 2.49009 8.12507 2.63477 8.06853C2.77945 8.01199 2.9353 7.9899 3.09 8.004Z" fill="currentColor"/>
</g>
<defs>
<clipPath id="clip0_3369_7665">
<rect width="12" height="12" fill="white"/>
</clipPath>
</defs>
</svg>
