<svg width="12" height="12" viewBox="0 0 12 12" fill="none" xmlns="http://www.w3.org/2000/svg">
<path d="M4.852 2.42199C4.687 2.44899 4.535 2.51199 4.398 2.61299C4.368 2.64099 3.949 3.05099 3.039 3.96099C2.58181 4.4138 2.12746 4.86948 1.676 5.32799C1.50819 5.51157 1.41514 5.75128 1.41514 5.99999C1.41514 6.24871 1.50819 6.48842 1.676 6.67199C1.758 6.76199 4.34 9.33999 4.383 9.37499C4.508 9.46899 4.648 9.53499 4.801 9.56599C4.93748 9.59462 5.07847 9.59415 5.21476 9.56461C5.35105 9.53507 5.47959 9.47713 5.59197 9.39456C5.70436 9.31199 5.79807 9.20666 5.867 9.08543C5.93593 8.9642 5.97852 8.8298 5.992 8.69099C5.996 8.65199 6 8.41799 6 8.06599V7.49999H8.063C9.945 7.49599 10.125 7.49599 10.168 7.48799C10.3683 7.45307 10.5532 7.35818 10.6984 7.21587C10.8436 7.07356 10.9421 6.89053 10.981 6.69099L10.996 6.62899V5.36999L10.98 5.30799C10.9556 5.17757 10.9048 5.05348 10.8309 4.94328C10.757 4.83308 10.6614 4.73908 10.55 4.66699C10.4173 4.57518 10.2628 4.51999 10.102 4.50699C10.062 4.49899 9.406 4.49899 8.023 4.49899H6V3.92899C6 3.34299 6 3.29899 5.977 3.19399C5.9318 2.99452 5.82676 2.8136 5.67593 2.67546C5.52509 2.53731 5.33567 2.44853 5.133 2.42099C5.03949 2.41319 4.9455 2.41419 4.852 2.42199Z" fill="currentColor"/>
</svg>
