<svg width="12" height="12" viewBox="0 0 12 12" fill="none" xmlns="http://www.w3.org/2000/svg">
<path d="M5.926 1.418C5.7034 1.43463 5.49283 1.52548 5.328 1.676C5.297 1.703 4.68 2.316 3.961 3.039C3.051 3.949 2.641 4.367 2.613 4.399C2.50021 4.54758 2.43188 4.72511 2.41595 4.91097C2.40002 5.09683 2.43714 5.28339 2.523 5.449C2.59543 5.59927 2.70552 5.72825 2.84254 5.8234C2.97957 5.91855 3.13888 5.97663 3.305 5.992C3.344 5.996 3.566 6 3.93 6H4.5V8.059C4.504 10.301 4.5 10.129 4.535 10.262C4.58 10.4274 4.66758 10.578 4.789 10.699C4.929 10.844 5.105 10.938 5.313 10.98L5.375 10.996H6.629L6.691 10.98C6.89095 10.9409 7.07428 10.8419 7.21663 10.6962C7.35899 10.5504 7.45363 10.3648 7.488 10.164C7.496 10.121 7.496 9.898 7.5 8.059V6H8.07C8.434 6 8.656 5.996 8.695 5.992C8.86111 5.97663 9.02042 5.91855 9.15745 5.8234C9.29448 5.72825 9.40456 5.59927 9.477 5.449C9.56286 5.28339 9.59998 5.09683 9.58404 4.91097C9.56811 4.72511 9.49979 4.54758 9.387 4.399C8.93744 3.9353 8.48274 3.4766 8.023 3.023C7.297 2.297 6.676 1.68 6.648 1.653C6.44764 1.48269 6.18821 1.39826 5.926 1.418Z" fill="currentColor"/>
</svg>
