<svg width="12" height="12" viewBox="0 0 12 12" fill="none" xmlns="http://www.w3.org/2000/svg">
<path d="M5.375 1.008C5.027 1.055 4.727 1.278 4.585 1.598C4.54306 1.6931 4.51705 1.79445 4.508 1.898C4.5 1.938 4.5 2.59 4.5 3.977V6H3.934C3.344 6 3.301 6 3.195 6.023C3.03203 6.06011 2.8809 6.13733 2.75533 6.24764C2.62976 6.35795 2.53371 6.49787 2.4759 6.65471C2.4181 6.81154 2.40036 6.98032 2.4243 7.14574C2.44824 7.31116 2.5131 7.46799 2.613 7.602C2.641 7.632 3.051 8.051 3.961 8.961C4.41381 9.41819 4.86949 9.87253 5.328 10.324C5.50786 10.4871 5.74076 10.5794 5.9835 10.5838C6.22624 10.5882 6.46234 10.5044 6.648 10.348C6.676 10.32 7.297 9.703 8.023 8.977C8.945 8.055 9.359 7.633 9.387 7.602C9.49999 7.45332 9.56843 7.27561 9.58437 7.08955C9.6003 6.90348 9.56307 6.71672 9.477 6.551C9.40457 6.40072 9.29448 6.27174 9.15746 6.17659C9.02043 6.08145 8.86112 6.02337 8.695 6.008C8.656 6.004 8.434 6 8.07 6H7.5V3.941C7.496 2.101 7.496 1.879 7.488 1.836C7.45299 1.63611 7.35863 1.45138 7.2172 1.30585C7.07577 1.16031 6.89381 1.06071 6.695 1.02C6.637 1.004 6.637 1.004 6.023 1.004C5.688 1.004 5.395 1.004 5.375 1.008Z" fill="currentColor"/>
</svg>
