<svg width="12" height="12" viewBox="0 0 12 12" fill="none" xmlns="http://www.w3.org/2000/svg">
<path d="M4.852 2.422C4.687 2.449 4.535 2.512 4.398 2.613C4.368 2.641 3.949 3.051 3.039 3.961C2.58181 4.41381 2.12746 4.86948 1.676 5.328C1.50819 5.51157 1.41514 5.75129 1.41514 6C1.41514 6.24871 1.50819 6.48843 1.676 6.672C1.758 6.762 4.34 9.34 4.383 9.375C4.508 9.469 4.648 9.535 4.801 9.566C4.93748 9.59463 5.07847 9.59416 5.21476 9.56462C5.35105 9.53508 5.47959 9.47714 5.59197 9.39457C5.70436 9.312 5.79807 9.20667 5.867 9.08544C5.93593 8.96421 5.97852 8.8298 5.992 8.691C5.996 8.652 6 8.418 6 8.066V7.5H8.063C9.945 7.496 10.125 7.496 10.168 7.488C10.3683 7.45308 10.5532 7.35819 10.6984 7.21588C10.8436 7.07357 10.9421 6.89054 10.981 6.691L10.996 6.629V5.37L10.98 5.308C10.9556 5.17757 10.9048 5.05348 10.8309 4.94329C10.757 4.83309 10.6614 4.73908 10.55 4.667C10.4173 4.57519 10.2628 4.52 10.102 4.507C10.062 4.499 9.406 4.499 8.023 4.499H6V3.929C6 3.343 6 3.299 5.977 3.194C5.9318 2.99452 5.82676 2.81361 5.67593 2.67546C5.52509 2.53732 5.33567 2.44854 5.133 2.421C5.03949 2.4132 4.9455 2.4142 4.852 2.422Z" fill="currentColor"/>
</svg>
