<svg width="12" height="12" viewBox="0 0 12 12" fill="none" xmlns="http://www.w3.org/2000/svg">
<path d="M6.863 2.42201C6.6615 2.45023 6.47331 2.53896 6.32332 2.67645C6.17333 2.81394 6.06861 2.99371 6.023 3.19201C6 3.30001 6 3.34301 6 3.93001V4.50001H3.98C2.594 4.50001 1.938 4.50001 1.898 4.50801C1.68491 4.52902 1.48428 4.61822 1.32592 4.76234C1.16757 4.90647 1.05993 5.09783 1.019 5.30801L1.004 5.37101V6.63001L1.02 6.69201C1.04522 6.8237 1.09693 6.9489 1.172 7.06001C1.305 7.25901 1.516 7.40701 1.754 7.47001C1.871 7.50101 1.723 7.49701 3.941 7.50101H6V8.07101C6 8.43501 6.004 8.65701 6.008 8.69601C6.047 9.04801 6.25 9.33301 6.57 9.48601C6.73414 9.56645 6.91736 9.59987 7.09933 9.58257C7.28131 9.56528 7.45495 9.49793 7.601 9.38801C7.633 9.36001 8.055 8.94601 8.977 8.02401C9.703 7.29801 10.32 6.67701 10.347 6.64901C10.4999 6.46772 10.5838 6.23818 10.5838 6.00101C10.5838 5.76383 10.4999 5.5343 10.347 5.35301C10.277 5.27101 7.657 2.65701 7.605 2.61801C7.47005 2.51613 7.31205 2.44915 7.145 2.42301C7.05116 2.41515 6.95683 2.41515 6.863 2.42301V2.42201Z" fill="currentColor"/>
</svg>
