<svg width="12" height="12" viewBox="0 0 12 12" fill="none" xmlns="http://www.w3.org/2000/svg">
<g clip-path="url(#clip0_2538_10337)">
<path d="M0.422001 0.004C0.331107 0.0196605 0.246102 0.05949 0.1759 0.119311C0.105697 0.179133 0.0528851 0.256742 0.0230014 0.344L0.00300145 0.402L1.44864e-06 1.746C1.44864e-06 2.961 1.44821e-06 3.094 0.00800145 3.136C0.0265585 3.23155 0.0744476 3.31894 0.145001 3.386C0.201994 3.44316 0.271488 3.48629 0.348001 3.512C0.395001 3.527 0.410001 3.532 0.480001 3.532C0.547001 3.535 0.566001 3.532 0.610001 3.523C0.667446 3.50771 0.722356 3.48413 0.773001 3.453C0.793001 3.441 0.922001 3.316 1.109 3.129L1.414 2.829L2.461 3.875C3.133 4.547 3.523 4.934 3.547 4.945C3.637 5.004 3.703 5.027 3.805 5.031C3.91132 5.03764 4.01684 5.0088 4.105 4.949C4.172 4.906 4.906 4.172 4.949 4.105C5.0088 4.01684 5.03764 3.91132 5.031 3.805C5.02826 3.70995 4.99843 3.61766 4.945 3.539C4.934 3.523 4.453 3.039 3.875 2.461L2.828 1.41L3.128 1.112C3.438 0.8 3.461 0.772 3.492 0.694C3.52023 0.627984 3.53391 0.556662 3.53211 0.484885C3.53032 0.413109 3.51308 0.342561 3.48158 0.278042C3.45008 0.213522 3.40505 0.156543 3.34956 0.110981C3.29407 0.0654188 3.22942 0.0323419 3.16 0.014L3.113 0.005H1.781C1.047 0 0.435001 0.004 0.422001 0.004ZM8.879 0.008C8.83312 0.0170126 8.78848 0.0314472 8.746 0.051C8.63263 0.108758 8.54517 0.207109 8.50107 0.326459C8.45696 0.445808 8.45944 0.577394 8.508 0.695C8.539 0.773 8.563 0.801 8.871 1.113L9.171 1.41L8.125 2.46C7.547 3.04 7.066 3.523 7.055 3.54C6.99835 3.62315 6.96771 3.72128 6.967 3.82189C6.96629 3.92251 6.99553 4.02106 7.051 4.105C7.09 4.172 7.828 4.906 7.895 4.949C7.98293 5.0093 8.08862 5.03818 8.195 5.031C8.2921 5.02937 8.38635 4.99795 8.465 4.941C8.48 4.93 8.965 4.449 9.539 3.875L10.589 2.828L10.887 3.125C11.191 3.43 11.223 3.457 11.301 3.492C11.371 3.523 11.43 3.535 11.52 3.532C11.5662 3.53439 11.6124 3.52759 11.656 3.512C11.7311 3.48567 11.7994 3.44297 11.856 3.387C11.9275 3.32085 11.9753 3.233 11.992 3.137C12 3.094 12 2.96 12 1.747L11.996 0.401L11.984 0.36C11.9595 0.279315 11.9154 0.205988 11.8555 0.146632C11.7956 0.0872759 11.7219 0.0437571 11.641 0.02L11.586 0.005L10.254 0C9.18 0 8.914 0.004 8.879 0.008ZM3.75 6.973C3.67688 6.98419 3.60738 7.01226 3.547 7.055C3.523 7.066 3.133 7.453 2.461 8.125L1.414 9.172L1.105 8.867C0.781001 8.543 0.773001 8.535 0.680001 8.5C0.616024 8.47274 0.546199 8.46208 0.477001 8.469C0.405938 8.46875 0.335897 8.48592 0.273001 8.519C0.16564 8.57413 0.0813085 8.66555 0.0350014 8.777C-0.00399855 8.871 1.44864e-06 8.77 1.44864e-06 10.25L0.00400145 11.598L0.0160014 11.641C0.0740014 11.812 0.191001 11.93 0.359001 11.981L0.414001 11.996H3.11L3.161 11.984C3.26876 11.9563 3.36402 11.8931 3.43135 11.8045C3.49868 11.7159 3.53415 11.6072 3.532 11.496C3.53569 11.43 3.52226 11.3642 3.493 11.305C3.462 11.227 3.439 11.199 3.13 10.887L2.83 10.586L3.876 9.539C4.45 8.965 4.931 8.48 4.942 8.465C4.99895 8.38634 5.03037 8.29209 5.032 8.195C5.03864 8.08868 5.0098 7.98316 4.95 7.895C4.907 7.828 4.173 7.094 4.106 7.051C4.02417 6.99374 3.9258 6.96493 3.826 6.969C3.794 6.969 3.758 6.969 3.75 6.973ZM8.066 6.977C8.00472 6.99026 7.94662 7.0154 7.895 7.051C7.828 7.094 7.09 7.828 7.051 7.895C6.99532 7.97905 6.96595 8.07779 6.96666 8.17861C6.96738 8.27943 6.99813 8.37775 7.055 8.461C7.066 8.477 7.547 8.961 8.125 9.539L9.172 10.586L8.872 10.886C8.562 11.199 8.539 11.226 8.508 11.305C8.48016 11.3713 8.4669 11.4428 8.46911 11.5147C8.47132 11.5866 8.48896 11.6572 8.52082 11.7217C8.55268 11.7862 8.59803 11.843 8.65378 11.8885C8.70954 11.9339 8.77441 11.9668 8.844 11.985L8.891 11.996H11.586L11.641 11.98C11.7138 11.9591 11.7808 11.9218 11.8369 11.871C11.8931 11.8202 11.9369 11.7573 11.965 11.687C12.004 11.594 12 11.691 12 10.227V8.895L11.984 8.84C11.9639 8.74956 11.9164 8.6675 11.848 8.605C11.7933 8.54843 11.7241 8.50797 11.648 8.488C11.609 8.473 11.586 8.473 11.523 8.468C11.4537 8.46139 11.3839 8.4724 11.32 8.5C11.227 8.535 11.219 8.543 10.895 8.867L10.59 9.172L9.54 8.125C9.18403 7.7673 8.82569 7.41195 8.465 7.059C8.41581 7.02854 8.36351 7.0034 8.309 6.984C8.22898 6.96793 8.14681 6.96556 8.066 6.977Z" fill="currentColor"/>
</g>
<defs>
<clipPath id="clip0_2538_10337">
<rect width="12" height="12" fill="white"/>
</clipPath>
</defs>
</svg>
