<svg width="12" height="12" viewBox="0 0 12 12" fill="none" xmlns="http://www.w3.org/2000/svg">
<g clip-path="url(#clip0_2538_10622)">
<path d="M5.91 0.00401177C5.73728 0.0205755 5.57175 0.0813556 5.42935 0.180493C5.28695 0.27963 5.17249 0.41378 5.097 0.570012C5.04239 0.682641 5.01078 0.805025 5.004 0.930012C5 0.973012 5 1.56601 5 2.29301V3.58201L4.059 2.64501C3.461 2.04701 3.102 1.69501 3.074 1.67201C2.88859 1.52986 2.65949 1.45667 2.426 1.46501C2.28916 1.47057 2.1549 1.5041 2.03151 1.56353C1.90811 1.62295 1.7982 1.70702 1.70854 1.81055C1.61887 1.91408 1.55136 2.03487 1.51017 2.16549C1.46897 2.29611 1.45496 2.43377 1.469 2.57001C1.492 2.76201 1.559 2.92201 1.672 3.07401C1.695 3.10201 2.047 3.46101 2.645 4.05901L3.582 4.99601H2.293C1.566 4.99601 0.973003 5.00001 0.930003 5.00401C0.617003 5.02701 0.340003 5.18801 0.164003 5.44901C0.0371582 5.64282 -0.0180185 5.87485 0.0080031 6.10501C0.0296535 6.3426 0.137841 6.56396 0.312003 6.72701C0.480003 6.88301 0.695003 6.98001 0.930003 6.99701C0.973003 7.00001 1.566 7.00001 2.293 7.00001H3.582L2.641 7.94501C2.051 8.53501 1.687 8.90201 1.668 8.93001C1.56346 9.06561 1.49559 9.22585 1.47095 9.39529C1.44631 9.56473 1.46572 9.73766 1.52731 9.89742C1.58891 10.0572 1.69061 10.1984 1.82261 10.3074C1.95462 10.4165 2.11249 10.4897 2.281 10.52C2.34297 10.5314 2.40612 10.5351 2.469 10.531C2.574 10.531 2.594 10.531 2.66 10.516C2.81091 10.4869 2.95279 10.4225 3.074 10.328C3.102 10.305 3.461 9.95301 4.059 9.35501L5 8.41801V9.70701C5 10.434 5 11.027 5.004 11.07C5.01528 11.2383 5.06894 11.401 5.16 11.543C5.437 11.969 5.992 12.121 6.45 11.895C6.56881 11.8354 6.67434 11.7525 6.76026 11.6511C6.84619 11.5497 6.91073 11.432 6.95 11.305C6.97621 11.2278 6.99169 11.1474 6.996 11.066C7 11.023 7.004 10.48 7.004 9.70701V8.41801L7.941 9.35501C8.457 9.87101 8.895 10.305 8.914 10.32C9.051 10.422 9.18 10.48 9.34 10.516C9.4039 10.5307 9.46962 10.5357 9.535 10.531C9.637 10.531 9.665 10.531 9.719 10.52C10.129 10.438 10.438 10.129 10.519 9.71901C10.531 9.66401 10.531 9.63701 10.531 9.53101C10.531 9.42601 10.531 9.40601 10.516 9.34001C10.4869 9.1891 10.4225 9.04723 10.328 8.92601C10.007 8.59437 9.68268 8.26602 9.355 7.94101L8.418 7.00001H9.707C10.434 7.00001 11.027 7.00001 11.07 6.99601C11.324 6.97601 11.547 6.87101 11.723 6.69101C12.012 6.38701 12.082 5.93001 11.895 5.55101C11.8268 5.41629 11.7293 5.29861 11.6095 5.2067C11.4897 5.11478 11.3508 5.05098 11.203 5.02001L11.07 5.00401C10.6157 4.99679 10.1614 4.99412 9.707 4.99601H8.418L9.355 4.05901C10.32 3.09401 10.332 3.08201 10.398 2.97301C10.449 2.88301 10.492 2.77301 10.516 2.66001C10.531 2.59401 10.531 2.57401 10.531 2.46501C10.531 2.36301 10.531 2.33501 10.52 2.28101C10.4676 2.01683 10.3131 1.78398 10.09 1.63301C9.9827 1.55966 9.86156 1.50896 9.734 1.48401C9.668 1.46901 9.648 1.46901 9.535 1.46901C9.425 1.46901 9.406 1.46901 9.34 1.48401C9.18909 1.5131 9.04722 1.57753 8.926 1.67201C8.898 1.69501 8.539 2.04701 7.941 2.64501L7.004 3.58201V2.29301C7.004 1.56601 7 0.973012 6.996 0.930012C6.98669 0.797465 6.95106 0.668103 6.89118 0.549484C6.83131 0.430865 6.7484 0.325368 6.64729 0.239156C6.54618 0.152944 6.42891 0.0877465 6.30231 0.0473726C6.17572 0.00699867 6.04236 -0.00774202 5.91 0.00401177Z" fill="currentColor"/>
</g>
<defs>
<clipPath id="clip0_2538_10622">
<rect width="12" height="12" fill="white"/>
</clipPath>
</defs>
</svg>
