<svg width="12" height="12" viewBox="0 0 12 12" fill="none" xmlns="http://www.w3.org/2000/svg">
<path d="M5.91 0.00399651C5.73728 0.0205602 5.57175 0.0813404 5.42935 0.180478C5.28695 0.279615 5.17249 0.413765 5.097 0.569996C5.04239 0.682626 5.01078 0.805009 5.004 0.929996C5 0.972996 5 1.566 5 2.293V3.582L4.059 2.645C3.461 2.047 3.102 1.695 3.074 1.672C2.88859 1.52984 2.65949 1.45666 2.426 1.465C2.28916 1.47056 2.1549 1.50408 2.03151 1.56351C1.90811 1.62294 1.7982 1.70701 1.70854 1.81054C1.61887 1.91406 1.55136 2.03486 1.51017 2.16548C1.46897 2.29609 1.45496 2.43376 1.469 2.57C1.492 2.762 1.559 2.922 1.672 3.074C1.695 3.102 2.047 3.461 2.645 4.059L3.582 4.996H2.293C1.566 4.996 0.973003 5 0.930003 5.004C0.617003 5.027 0.340003 5.188 0.164003 5.449C0.0371582 5.64281 -0.0180185 5.87483 0.0080031 6.105C0.0296535 6.34259 0.137841 6.56394 0.312003 6.727C0.480003 6.883 0.695003 6.98 0.930003 6.997C0.973003 7 1.566 7 2.293 7H3.582L2.641 7.945C2.051 8.535 1.687 8.902 1.668 8.93C1.56346 9.06559 1.49559 9.22583 1.47095 9.39527C1.44631 9.56471 1.46572 9.73764 1.52731 9.8974C1.58891 10.0572 1.69061 10.1984 1.82261 10.3074C1.95462 10.4165 2.11249 10.4897 2.281 10.52C2.34297 10.5314 2.40612 10.5351 2.469 10.531C2.574 10.531 2.594 10.531 2.66 10.516C2.81091 10.4869 2.95279 10.4225 3.074 10.328C3.102 10.305 3.461 9.953 4.059 9.355L5 8.418V9.707C5 10.434 5 11.027 5.004 11.07C5.01528 11.2383 5.06894 11.401 5.16 11.543C5.437 11.969 5.992 12.121 6.45 11.895C6.56881 11.8354 6.67434 11.7525 6.76026 11.6511C6.84619 11.5497 6.91073 11.432 6.95 11.305C6.97621 11.2278 6.99169 11.1474 6.996 11.066C7 11.023 7.004 10.48 7.004 9.707V8.418L7.941 9.355C8.457 9.871 8.895 10.305 8.914 10.32C9.051 10.422 9.18 10.48 9.34 10.516C9.4039 10.5307 9.46962 10.5357 9.535 10.531C9.637 10.531 9.665 10.531 9.719 10.52C10.129 10.438 10.438 10.129 10.519 9.719C10.531 9.664 10.531 9.637 10.531 9.531C10.531 9.426 10.531 9.406 10.516 9.34C10.4869 9.18909 10.4225 9.04721 10.328 8.926C10.007 8.59436 9.68268 8.26601 9.355 7.941L8.418 7H9.707C10.434 7 11.027 7 11.07 6.996C11.324 6.976 11.547 6.871 11.723 6.691C12.012 6.387 12.082 5.93 11.895 5.551C11.8268 5.41627 11.7293 5.2986 11.6095 5.20668C11.4897 5.11477 11.3508 5.05097 11.203 5.02L11.07 5.004C10.6157 4.99678 10.1614 4.99411 9.707 4.996H8.418L9.355 4.059C10.32 3.094 10.332 3.082 10.398 2.973C10.449 2.883 10.492 2.773 10.516 2.66C10.531 2.594 10.531 2.574 10.531 2.465C10.531 2.363 10.531 2.335 10.52 2.281C10.4676 2.01681 10.3131 1.78397 10.09 1.633C9.9827 1.55965 9.86156 1.50895 9.734 1.484C9.668 1.469 9.648 1.469 9.535 1.469C9.425 1.469 9.406 1.469 9.34 1.484C9.18909 1.51309 9.04722 1.57751 8.926 1.672C8.898 1.695 8.539 2.047 7.941 2.645L7.004 3.582V2.293C7.004 1.566 7 0.972996 6.996 0.929996C6.98669 0.79745 6.95106 0.668088 6.89118 0.549469C6.83131 0.43085 6.7484 0.325353 6.64729 0.239141C6.54618 0.152929 6.42891 0.0877313 6.30231 0.0473573C6.17572 0.00698341 6.04236 -0.00775728 5.91 0.00399651Z" fill="currentColor"/>
</svg>
