<svg width="12" height="12" viewBox="0 0 12 12" fill="none" xmlns="http://www.w3.org/2000/svg">
<path d="M5.836 0.00399943C5.03191 0.0351729 4.25643 0.310758 3.613 0.793999C3.09337 1.17954 2.67529 1.68566 2.39481 2.26875C2.11433 2.85183 1.97986 3.49438 2.003 4.141C2.012 4.398 2.031 4.543 2.093 4.871C2.137 5.09 2.16 5.281 2.176 5.477C2.184 5.613 2.18 5.934 2.164 6.043C2.13478 6.35206 2.04436 6.65223 1.898 6.926C1.852 7.008 1.797 7.086 1.664 7.262C1.602 7.348 1.535 7.438 1.52 7.461C1.42976 7.60142 1.37619 7.76223 1.36417 7.92871C1.35216 8.0952 1.3821 8.26203 1.45125 8.41395C1.52039 8.56587 1.62654 8.69802 1.75996 8.79831C1.89339 8.8986 2.04984 8.96382 2.215 8.988C2.289 9 9.711 9 9.785 8.988C10.07 8.945 10.309 8.793 10.473 8.555C10.593 8.371 10.656 8.129 10.637 7.918C10.628 7.79965 10.596 7.68418 10.543 7.578C10.503 7.492 10.473 7.449 10.336 7.262C10.16 7.027 10.109 6.945 10.039 6.793C9.93098 6.56379 9.86236 6.31801 9.836 6.066C9.82008 5.86976 9.81607 5.67273 9.824 5.476C9.84 5.273 9.867 5.078 9.91 4.844C9.969 4.551 9.988 4.394 9.996 4.141C10.0308 3.18795 9.72323 2.25393 9.129 1.508C8.77536 1.06466 8.33171 0.701371 7.82734 0.442116C7.32296 0.182861 6.76933 0.0335362 6.203 0.00399943C6.0807 9.10093e-05 5.9583 9.10093e-05 5.836 0.00399943ZM4.402 10.012C4.32569 10.0253 4.25431 10.0587 4.19525 10.1088C4.13618 10.1589 4.09156 10.2239 4.066 10.297C4.055 10.324 4.055 10.347 4.055 10.398C4.055 10.465 4.055 10.473 4.078 10.558C4.258 11.16 4.691 11.633 5.27 11.859C5.59 11.989 5.938 12.027 6.285 11.98C6.66472 11.9245 7.02049 11.761 7.30999 11.5091C7.59949 11.2572 7.81053 10.9274 7.918 10.559C7.961 10.414 7.961 10.339 7.91 10.239C7.89299 10.2001 7.86775 10.1653 7.836 10.137C7.80445 10.1021 7.76596 10.0742 7.723 10.055C7.609 10 7.801 10.004 6.016 10.004C4.723 10.004 4.43 10.004 4.402 10.012Z" fill="currentColor"/>
</svg>
