<svg width="12" height="12" viewBox="0 0 12 12" fill="none" xmlns="http://www.w3.org/2000/svg">
<path d="M5.867 1.004C5.657 1.031 5.512 1.07 5.347 1.152C5.297 1.176 5.234 1.207 5.207 1.222C4.687 1.555 4.422 2.145 4.52 2.746C4.559 2.98 4.66 3.211 4.805 3.41C4.867 3.488 5.015 3.637 5.098 3.7C5.508 4 6.023 4.082 6.504 3.914C6.641 3.864 6.774 3.793 6.902 3.699C6.984 3.637 7.132 3.489 7.195 3.41C7.35359 3.20256 7.45529 2.95731 7.49002 2.6985C7.52475 2.4397 7.49133 2.17632 7.39304 1.9344C7.29476 1.69248 7.13503 1.48041 6.92964 1.31916C6.72426 1.15791 6.48034 1.05306 6.222 1.015C6.10391 1.00569 5.98544 1.00202 5.867 1.004ZM5.898 8.004C5.602 8.024 5.336 8.125 5.098 8.301C4.99548 8.38527 4.90015 8.47792 4.813 8.578C4.586 8.875 4.473 9.258 4.508 9.628C4.547 10.102 4.805 10.52 5.207 10.773C5.234 10.793 5.297 10.824 5.347 10.848C5.762 11.051 6.25 11.047 6.66 10.848C6.79758 10.7822 6.92302 10.6937 7.031 10.586C7.363 10.277 7.535 9.824 7.496 9.375C7.47 9.09075 7.3662 8.81915 7.196 8.59C7.10865 8.48732 7.01299 8.39199 6.91 8.305C6.69935 8.1501 6.45378 8.04947 6.195 8.012C6.105 8.004 5.977 7.996 5.898 8.004Z" fill="currentColor"/>
</svg>
