<svg width="12" height="12" viewBox="0 0 12 12" fill="none" xmlns="http://www.w3.org/2000/svg">
<g clip-path="url(#clip0_2538_12237)">
<path d="M0.890001 0.00800671C0.731045 0.0251481 0.57848 0.0800029 0.445001 0.168007C0.291606 0.270561 0.169577 0.413558 0.0924193 0.581171C0.0152611 0.748784 -0.0140172 0.934476 0.00782451 1.1177C0.0296663 1.30092 0.101776 1.47453 0.216174 1.61931C0.330572 1.76408 0.482797 1.87439 0.656002 1.93801C0.750001 1.97301 0.883001 1.99601 0.965001 1.99601H1.004V4.09401C1.004 6.40601 1.004 6.21101 1.039 6.39401C1.098 6.68001 1.219 6.95701 1.391 7.18701C1.734 7.65201 2.258 7.94501 2.828 7.99201C2.871 7.99601 3.289 7.99601 3.949 7.99601H5V9.22001L3.371 9.62601C2.477 9.85301 1.719 10.04 1.691 10.052C1.617 10.075 1.484 10.142 1.418 10.188C1.21051 10.3384 1.06818 10.5623 1.02 10.814C1.00641 10.8764 1.00103 10.9402 1.004 11.004C1.004 11.114 1.008 11.138 1.02 11.192C1.086 11.493 1.262 11.735 1.523 11.88C1.605 11.927 1.727 11.966 1.836 11.99C1.902 12.001 2.078 12.001 2.145 11.99C2.168 11.985 3.047 11.77 4.094 11.509L6 11.03L7.906 11.507C8.953 11.769 9.832 11.983 9.856 11.987C9.99731 12.0075 10.1414 11.9974 10.2784 11.9574C10.4155 11.9173 10.5424 11.8483 10.6505 11.755C10.7585 11.6617 10.8453 11.5463 10.905 11.4166C10.9646 11.2868 10.9956 11.1458 10.996 11.003C11.002 10.8966 10.986 10.79 10.949 10.69C10.9104 10.5763 10.8537 10.4696 10.781 10.374C10.6574 10.2237 10.4937 10.1113 10.309 10.05C10.281 10.038 9.523 9.85001 8.629 9.62401L7.004 9.21801V8.00001L8.098 7.99601C9.293 7.99601 9.215 7.99601 9.395 7.96101C9.79362 7.87966 10.1583 7.67955 10.441 7.38701C10.758 7.05501 10.953 6.62501 10.992 6.17201C10.996 6.12501 11 5.40201 11 4.05101V2.00001L11.063 1.99601C11.1467 1.9909 11.2293 1.97511 11.309 1.94901C11.387 1.92601 11.519 1.85901 11.579 1.81601C11.7399 1.70076 11.8631 1.5405 11.933 1.3554C12.003 1.17031 12.0167 0.968638 11.9724 0.775785C11.928 0.582931 11.8276 0.407511 11.6837 0.271603C11.5399 0.135695 11.3591 0.0453738 11.164 0.0120067C11.121 0.00400671 10.656 0.00400671 6.027 0.00400671C3.227 6.70762e-06 0.913001 0.00400671 0.890001 0.00800671Z" fill="currentColor"/>
</g>
<defs>
<clipPath id="clip0_2538_12237">
<rect width="12" height="12" fill="white"/>
</clipPath>
</defs>
</svg>
