<svg width="12" height="12" viewBox="0 0 12 12" fill="none" xmlns="http://www.w3.org/2000/svg">
<g clip-path="url(#clip0_2538_12237)">
<path d="M0.890001 0.00797619C0.731045 0.0251176 0.57848 0.0799724 0.445001 0.167976C0.291606 0.270531 0.169577 0.413527 0.0924193 0.58114C0.0152611 0.748753 -0.0140172 0.934446 0.00782451 1.11767C0.0296663 1.30089 0.101776 1.4745 0.216174 1.61927C0.330572 1.76405 0.482797 1.87436 0.656002 1.93798C0.750001 1.97298 0.883001 1.99598 0.965001 1.99598H1.004V4.09398C1.004 6.40598 1.004 6.21098 1.039 6.39398C1.098 6.67998 1.219 6.95698 1.391 7.18698C1.734 7.65198 2.258 7.94498 2.828 7.99198C2.871 7.99598 3.289 7.99598 3.949 7.99598H5V9.21998L3.371 9.62598C2.477 9.85298 1.719 10.04 1.691 10.052C1.617 10.075 1.484 10.142 1.418 10.188C1.21051 10.3384 1.06818 10.5623 1.02 10.814C1.00641 10.8763 1.00103 10.9402 1.004 11.004C1.004 11.114 1.008 11.138 1.02 11.192C1.086 11.493 1.262 11.735 1.523 11.88C1.605 11.927 1.727 11.966 1.836 11.99C1.902 12.001 2.078 12.001 2.145 11.99C2.168 11.985 3.047 11.77 4.094 11.509L6 11.03L7.906 11.507C8.953 11.769 9.832 11.983 9.856 11.987C9.99731 12.0075 10.1414 11.9973 10.2784 11.9573C10.4155 11.9173 10.5424 11.8483 10.6505 11.755C10.7585 11.6617 10.8453 11.5463 10.905 11.4165C10.9646 11.2868 10.9956 11.1458 10.996 11.003C11.002 10.8965 10.986 10.79 10.949 10.69C10.9104 10.5763 10.8537 10.4696 10.781 10.374C10.6574 10.2236 10.4937 10.1113 10.309 10.05C10.281 10.038 9.523 9.84998 8.629 9.62398L7.004 9.21798V7.99998L8.098 7.99598C9.293 7.99598 9.215 7.99598 9.395 7.96098C9.79362 7.87963 10.1583 7.67952 10.441 7.38698C10.758 7.05498 10.953 6.62498 10.992 6.17198C10.996 6.12498 11 5.40198 11 4.05098V1.99998L11.063 1.99598C11.1467 1.99087 11.2293 1.97508 11.309 1.94898C11.387 1.92598 11.519 1.85898 11.579 1.81598C11.7399 1.70073 11.8631 1.54047 11.933 1.35537C12.003 1.17027 12.0167 0.968607 11.9724 0.775754C11.928 0.582901 11.8276 0.407481 11.6837 0.271573C11.5399 0.135665 11.3591 0.0453433 11.164 0.0119762C11.121 0.00397619 10.656 0.00397619 6.027 0.00397619C3.227 -2.381e-05 0.913001 0.00397619 0.890001 0.00797619Z" fill="currentColor"/>
</g>
<defs>
<clipPath id="clip0_2538_12237">
<rect width="12" height="12" fill="white"/>
</clipPath>
</defs>
</svg>
