<svg width="12" height="12" viewBox="0 0 12 12" fill="none" xmlns="http://www.w3.org/2000/svg">
<g clip-path="url(#clip0_2538_12522)">
<path d="M3.875 0.00397656C3.47821 0.0290595 3.09789 0.171838 2.78262 0.414079C2.46735 0.656319 2.23144 0.987029 2.105 1.36398C2.05784 1.50458 2.02533 1.64969 2.008 1.79698C2.004 1.83998 2 2.62898 2 5.17598V8.49598C2.004 8.49598 2.035 8.47598 2.07 8.44898C2.40273 8.21794 2.78621 8.07045 3.188 8.01898C3.352 7.99598 3.438 7.99598 6.324 7.99998C8.949 7.99998 9.16 8.00398 9.23 8.01198C9.492 8.04698 9.707 8.11298 9.926 8.22698L10.004 8.26598V4.63998C10.004 2.21398 10 0.982977 9.996 0.932977C9.97914 0.680588 9.86773 0.443837 9.684 0.269977C9.52324 0.12165 9.31936 0.0284673 9.102 0.00397656C9.055 -2.34377e-05 3.945 -2.34377e-05 3.875 0.00397656ZM7.109 3.00398C7.3206 3.02677 7.51934 3.11674 7.67609 3.26071C7.83283 3.40468 7.93934 3.59507 7.98 3.80398C7.9944 3.86825 7.99978 3.93422 7.996 3.99998C7.99748 4.13124 7.97257 4.26146 7.92275 4.38291C7.87293 4.50436 7.79922 4.61456 7.706 4.70698C7.59266 4.82024 7.45376 4.90461 7.301 4.95298C7.156 4.99998 7.261 4.99598 5.996 4.99598H4.867L4.805 4.97998C4.61069 4.94275 4.4322 4.84757 4.293 4.70698C4.18416 4.59995 4.10173 4.46904 4.05227 4.32463C4.0028 4.18021 3.98764 4.02626 4.008 3.87498C4.03634 3.65293 4.13836 3.44682 4.29772 3.28963C4.45709 3.13244 4.66459 3.03326 4.887 3.00798C4.945 2.99998 7.047 2.99998 7.109 3.00398ZM3.363 9.00798C3.246 9.01598 3.093 9.05098 2.984 9.08998C2.87544 9.13391 2.77103 9.18746 2.672 9.24998C2.49182 9.36906 2.33954 9.52573 2.22561 9.70921C2.11169 9.8927 2.03882 10.0987 2.012 10.313C2.00034 10.4374 2.00034 10.5626 2.012 10.687C2.055 11.012 2.195 11.305 2.418 11.535C2.672 11.801 3.008 11.961 3.375 11.992C3.469 12.004 9.031 12.004 9.102 11.992C9.31889 11.9697 9.52254 11.8771 9.68194 11.7283C9.84135 11.5796 9.94777 11.3828 9.985 11.168C10 11.094 10 11.09 10 10.5C10 9.90998 10 9.90598 9.984 9.83198C9.94775 9.61741 9.84216 9.42064 9.6834 9.27181C9.52464 9.12298 9.32146 9.03031 9.105 9.00798C9.035 8.99998 3.45 8.99998 3.363 9.00798Z" fill="currentColor"/>
</g>
<defs>
<clipPath id="clip0_2538_12522">
<rect width="12" height="12" fill="white"/>
</clipPath>
</defs>
</svg>
