<svg width="12" height="12" viewBox="0 0 12 12" fill="none" xmlns="http://www.w3.org/2000/svg">
<g clip-path="url(#clip0_2538_14336)">
<path d="M1.875 0.00402832C1.44472 0.0310789 1.03485 0.197062 0.707 0.477028C0.606519 0.566493 0.51261 0.663076 0.426 0.766028C0.176 1.09003 0.036 1.45703 0.008 1.85903C0 1.92203 0 2.71103 0 4.56003L0.004 7.16903L0.016 7.25903C0.051 7.49303 0.106 7.67703 0.207 7.87903C0.370664 8.21354 0.624471 8.49571 0.939838 8.69376C1.25521 8.89182 1.61961 8.99789 1.992 9.00003C2.078 9.00003 2.176 9.01203 2.254 9.03103C2.602 9.12103 2.879 9.40203 2.969 9.75003C3 9.87503 3 9.86703 3 10.734C3 11.614 3 11.59 3.035 11.684C3.07686 11.7855 3.14919 11.8714 3.242 11.93C3.31432 11.9726 3.3962 11.9963 3.48008 11.9989C3.56397 12.0015 3.64716 11.983 3.722 11.945C3.754 11.93 4.27 11.547 5.605 10.547C6.22936 10.0718 6.85839 9.60281 7.492 9.14003C7.5872 9.08206 7.69176 9.04112 7.801 9.01903L7.871 9.00303L9.02 9.00003C10.16 8.99603 10.168 8.99603 10.258 8.98403C10.637 8.93003 10.961 8.79303 11.25 8.55903C11.6585 8.23022 11.9232 7.75543 11.988 7.23503C11.996 7.15603 11.996 7.02303 11.996 4.50003C11.996 1.97703 11.996 1.84403 11.988 1.76603C11.9246 1.25198 11.6661 0.781946 11.266 0.453028C10.9776 0.215845 10.6283 0.0644304 10.258 0.0160283L10.168 0.00402832H1.875Z" fill="currentColor"/>
</g>
<defs>
<clipPath id="clip0_2538_14336">
<rect width="12" height="12" fill="white"/>
</clipPath>
</defs>
</svg>
