<svg width="12" height="12" viewBox="0 0 12 12" fill="none" xmlns="http://www.w3.org/2000/svg">
<path d="M9.29 2.75397C9.09522 2.77251 8.90954 2.84526 8.754 2.96397C8.734 2.98397 7.852 3.85897 6.797 4.91397L4.875 6.83597L4.078 6.03897C3.641 5.60197 3.266 5.23397 3.246 5.21497C3.12928 5.12395 2.99388 5.05987 2.84949 5.0273C2.7051 4.99474 2.5553 4.99451 2.41081 5.02661C2.26632 5.05872 2.13072 5.12238 2.01371 5.21303C1.89671 5.30368 1.80119 5.41909 1.734 5.55097C1.559 5.89797 1.602 6.30897 1.84 6.62097C1.879 6.66797 4.156 8.94897 4.227 9.01097C4.535 9.26997 4.965 9.32097 5.317 9.14497C5.383 9.11297 5.441 9.07497 5.497 9.03497C5.543 8.99597 10.074 4.46897 10.137 4.39797C10.2345 4.28198 10.3046 4.14542 10.3418 3.99851C10.3791 3.85161 10.3826 3.69818 10.3521 3.54973C10.3216 3.40128 10.2579 3.26165 10.1657 3.14133C10.0736 3.02101 9.95537 2.92311 9.82 2.85497C9.65521 2.77554 9.47246 2.74071 9.29 2.75397Z" fill="currentColor"/>
</svg>
