<svg width="12" height="12" viewBox="0 0 12 12" fill="none" xmlns="http://www.w3.org/2000/svg">
<path d="M5.73 0.00395788C4.73746 0.049363 3.7715 0.339287 2.918 0.847958C2.38137 1.17014 1.89768 1.57322 1.484 2.04296C0.971972 2.62638 0.579238 3.30449 0.328003 4.03896C0.173293 4.49289 0.0725987 4.96347 0.0280028 5.44096C0.00800283 5.65596 0.00400283 5.74596 0.00400283 5.99996C-0.00113411 7.15892 0.332543 8.29412 0.964003 9.26596C1.64126 10.3124 2.62861 11.1211 3.788 11.579C4.68 11.934 5.66 12.066 6.621 11.969C8.11026 11.8151 9.48815 11.1099 10.484 9.99196C11.321 9.05266 11.8406 7.87347 11.969 6.62196C11.9909 6.41539 11.9999 6.20765 11.996 5.99996C11.9999 5.7926 11.9908 5.5852 11.969 5.37896C11.8289 4.00808 11.2203 2.72746 10.2459 1.75306C9.2715 0.778649 7.99088 0.170074 6.62 0.0299579C6.32411 0.00372194 6.02694 -0.00529326 5.73 0.00295788V0.00395788ZM6.18 2.00396C6.508 2.01996 6.813 2.06596 7.11 2.15196C7.79175 2.34805 8.40903 2.72205 8.89847 3.23556C9.3879 3.74907 9.73185 4.38358 9.895 5.07396C10.094 5.93396 10.008 6.83996 9.652 7.64096C9.25489 8.51958 8.55464 9.2258 7.67942 9.63036C6.8042 10.0349 5.81256 10.1107 4.886 9.84396C3.95848 9.57598 3.15926 8.98141 2.63595 8.17008C2.11265 7.35874 1.90061 6.38545 2.039 5.42996C2.17905 4.44578 2.68118 3.54923 3.44719 2.91563C4.21321 2.28203 5.18802 1.95695 6.181 2.00396H6.18Z" fill="currentColor"/>
<path d="M5.39 3.00396C5.20312 3.02716 5.02639 3.10194 4.87962 3.21992C4.73284 3.3379 4.62183 3.49443 4.559 3.67196C4.51249 3.80369 4.49432 3.94377 4.5057 4.08301C4.51707 4.22225 4.55773 4.35752 4.625 4.47996C4.695 4.60996 4.688 4.59796 5.406 5.31996L6.086 5.99996L5.406 6.67996C4.688 7.40196 4.696 7.38996 4.625 7.51996C4.52276 7.70936 4.48435 7.9267 4.51549 8.13968C4.54664 8.35265 4.64567 8.5499 4.79787 8.7021C4.95006 8.85429 5.14731 8.95332 5.36028 8.98447C5.57326 9.01561 5.7906 8.9772 5.98 8.87496C6.11 8.80496 6.07 8.83996 7.18 7.73496C7.75 7.16496 8.234 6.67496 8.262 6.64796C8.41493 6.46667 8.49881 6.23713 8.49881 5.99996C8.49881 5.76278 8.41493 5.53325 8.262 5.35196C8.234 5.32396 7.75 4.83196 7.18 4.26596C6.07 3.15996 6.11 3.19596 5.98 3.12496C5.88228 3.06928 5.77517 3.032 5.664 3.01496C5.605 3.00396 5.448 2.99996 5.39 3.00396Z" fill="currentColor"/>
</svg>
