<svg width="12" height="12" viewBox="0 0 12 12" fill="none" xmlns="http://www.w3.org/2000/svg">
<path d="M4.855 1.01194C4.75023 1.02708 4.64879 1.05988 4.555 1.10894C4.398 1.18794 4.575 1.01594 2.293 3.29694C0.0229974 5.56694 0.182997 5.39794 0.108997 5.54994C0.0378258 5.68891 0.000709534 5.84281 0.000709534 5.99894C0.000709534 6.15507 0.0378258 6.30897 0.108997 6.44794C0.183997 6.60094 0.0229974 6.43294 2.293 8.70194C4.574 10.9829 4.398 10.8119 4.555 10.8899C4.65156 10.9426 4.75761 10.9755 4.867 10.9869C4.953 11.0029 5.109 10.9949 5.195 10.9789C5.40737 10.9343 5.60021 10.8237 5.746 10.6629C5.88087 10.5127 5.96657 10.3247 5.99159 10.1244C6.01661 9.924 5.97977 9.72077 5.886 9.54194C5.816 9.40194 5.926 9.51494 4.098 7.68694L2.41 5.99994L4.098 4.31194C5.926 2.48394 5.816 2.59794 5.887 2.45694C5.9582 2.31956 5.99649 2.1675 5.99883 2.01278C6.00117 1.85806 5.9675 1.70491 5.90048 1.56544C5.83346 1.42597 5.73492 1.30399 5.61266 1.20915C5.4904 1.1143 5.34775 1.04918 5.196 1.01894C5.08336 1.00294 4.9682 1.00059 4.855 1.01194Z" fill="currentColor"/>
<path d="M10.855 1.01194C10.7502 1.02708 10.6488 1.05988 10.555 1.10894C10.398 1.18794 10.575 1.01594 8.293 3.29694C6.023 5.56694 6.183 5.39794 6.109 5.55094C6.03783 5.68991 6.00071 5.84381 6.00071 5.99994C6.00071 6.15607 6.03783 6.30997 6.109 6.44894C6.184 6.60194 6.023 6.43394 8.293 8.70294C10.574 10.9839 10.398 10.8129 10.555 10.8909C10.6516 10.9436 10.7576 10.9765 10.867 10.9879C10.953 11.0039 11.109 10.9959 11.195 10.9799C11.4074 10.9353 11.6002 10.8247 11.746 10.6639C11.8809 10.5137 11.9666 10.3257 11.9916 10.1254C12.0166 9.925 11.9798 9.72177 11.886 9.54294C11.816 9.40294 11.926 9.51594 10.098 7.68794L8.41 5.99994L10.098 4.31194C11.926 2.48394 11.816 2.59794 11.887 2.45694C11.9582 2.31956 11.9965 2.1675 11.9988 2.01278C12.0012 1.85806 11.9675 1.70491 11.9005 1.56544C11.8335 1.42597 11.7349 1.30399 11.6127 1.20915C11.4904 1.1143 11.3478 1.04918 11.196 1.01894C11.0834 1.00294 10.9692 1.00059 10.856 1.01194H10.855Z" fill="currentColor"/>
</svg>
