<svg width="12" height="12" viewBox="0 0 12 12" fill="none" xmlns="http://www.w3.org/2000/svg">
<path d="M5.73 0.00395788C4.73746 0.049363 3.7715 0.339287 2.918 0.847958C2.38137 1.17014 1.89768 1.57322 1.484 2.04296C0.971972 2.62638 0.579238 3.30449 0.328003 4.03896C0.173293 4.49289 0.0725987 4.96347 0.0280028 5.44096C0.00800283 5.65596 0.00400283 5.74596 0.00400283 5.99996C-0.00113411 7.15892 0.332543 8.29412 0.964003 9.26596C1.64126 10.3124 2.62861 11.1211 3.788 11.579C4.68 11.934 5.66 12.066 6.621 11.969C8.11026 11.8151 9.48815 11.1099 10.484 9.99196C11.321 9.05266 11.8406 7.87347 11.969 6.62196C11.9909 6.41539 11.9999 6.20765 11.996 5.99996C11.9999 5.7926 11.9908 5.5852 11.969 5.37896C11.8289 4.00808 11.2203 2.72746 10.2459 1.75306C9.2715 0.778649 7.99088 0.170074 6.62 0.0299579C6.32411 0.00372194 6.02694 -0.00529326 5.73 0.00295788V0.00395788ZM6.18 2.00396C6.508 2.01996 6.813 2.06596 7.11 2.15196C7.79175 2.34805 8.40903 2.72205 8.89847 3.23556C9.3879 3.74907 9.73185 4.38358 9.895 5.07396C10.094 5.93396 10.008 6.83996 9.652 7.64096C9.25489 8.51958 8.55464 9.2258 7.67942 9.63036C6.8042 10.0349 5.81256 10.1107 4.886 9.84396C3.95848 9.57598 3.15926 8.98141 2.63595 8.17008C2.11265 7.35874 1.90061 6.38545 2.039 5.42996C2.17905 4.44578 2.68118 3.54923 3.44719 2.91563C4.21321 2.28203 5.18802 1.95695 6.181 2.00396H6.18Z" fill="currentColor"/>
<path d="M3.875 4.00796C3.73732 4.02587 3.60484 4.07214 3.48595 4.14385C3.36706 4.21556 3.26433 4.31115 3.18426 4.42458C3.10419 4.53801 3.04852 4.66682 3.02076 4.80286C2.99301 4.9389 2.99377 5.07923 3.023 5.21496C3.051 5.34396 3.121 5.49196 3.199 5.59796C3.234 5.64496 3.473 5.88696 4.309 6.71796C5.199 7.60896 5.379 7.78496 5.426 7.81596C5.734 8.03096 6.141 8.05896 6.469 7.88296C6.598 7.81296 6.543 7.86296 7.687 6.72296C8.527 5.88696 8.766 5.64496 8.801 5.59796C8.937 5.41796 9.008 5.17996 9 4.95696C8.9898 4.73329 8.90498 4.51948 8.75907 4.34965C8.61317 4.17982 8.41458 4.06375 8.195 4.01996C7.97754 3.98037 7.75311 4.01193 7.555 4.10996C7.402 4.18396 7.434 4.15596 6.68 4.90596L6 5.58596L5.328 4.91396L4.625 4.21896C4.49717 4.12057 4.34884 4.05222 4.191 4.01896C4.08639 4.0037 3.98042 4.00001 3.875 4.00796Z" fill="currentColor"/>
</svg>
