<svg width="12" height="12" viewBox="0 0 12 12" fill="none" xmlns="http://www.w3.org/2000/svg">
<path d="M0.875002 1.00801C0.635431 1.03954 0.415101 1.15591 0.254002 1.33601C0.119129 1.48629 0.0334335 1.67421 0.00840977 1.87458C-0.016614 2.07495 0.0202308 2.27818 0.114002 2.45701C0.184002 2.59701 0.0740021 2.48401 1.902 4.31301L3.59 6.00001L1.902 7.68801C0.0740021 9.51501 0.184002 9.40201 0.113002 9.54301C0.0340752 9.69462 -0.0044244 9.86402 0.00122155 10.0348C0.00686751 10.2057 0.0564683 10.3722 0.145233 10.5182C0.233999 10.6643 0.358929 10.785 0.507958 10.8687C0.656987 10.9524 0.82508 10.9962 0.996002 10.996C1.22934 10.9977 1.45585 10.9173 1.636 10.769C1.66 10.75 2.602 9.81201 3.726 8.68401C5.973 6.43801 5.816 6.60201 5.891 6.44901C5.96217 6.31004 5.99929 6.15614 5.99929 6.00001C5.99929 5.84388 5.96217 5.68998 5.891 5.55101C5.816 5.39801 5.973 5.56201 3.727 3.31601C3.03327 2.61774 2.3366 1.92241 1.637 1.23001C1.50819 1.12389 1.35486 1.0517 1.191 1.02001C1.08643 1.00442 0.980457 1.0004 0.875002 1.00801Z" fill="currentColor"/>
<path d="M6.875 1.00801C6.63543 1.03954 6.4151 1.15591 6.254 1.33601C6.11913 1.48629 6.03343 1.67421 6.00841 1.87458C5.98339 2.07495 6.02023 2.27818 6.114 2.45701C6.184 2.59701 6.074 2.48401 7.902 4.31301L9.59 6.00001L7.902 7.68801C6.074 9.51501 6.184 9.40201 6.113 9.54301C6.03408 9.69462 5.99558 9.86402 6.00122 10.0348C6.00687 10.2057 6.05647 10.3722 6.14523 10.5182C6.234 10.6643 6.35893 10.785 6.50796 10.8687C6.65699 10.9524 6.82508 10.9962 6.996 10.996C7.22934 10.9977 7.45585 10.9173 7.636 10.769C7.66 10.75 8.602 9.81201 9.726 8.68401C11.973 6.43801 11.816 6.60201 11.891 6.44901C11.9622 6.31004 11.9993 6.15614 11.9993 6.00001C11.9993 5.84388 11.9622 5.68998 11.891 5.55101C11.816 5.39801 11.973 5.56201 9.727 3.31601C9.03327 2.61774 8.3366 1.92241 7.637 1.23001C7.50819 1.12389 7.35486 1.0517 7.191 1.02001C7.08643 1.00442 6.98046 1.0004 6.875 1.00801Z" fill="currentColor"/>
</svg>
