<svg width="12" height="12" viewBox="0 0 12 12" fill="none" xmlns="http://www.w3.org/2000/svg">
<g clip-path="url(#clip0_2538_21201)">
<path d="M5.73 0.00395788C4.73746 0.049363 3.7715 0.339287 2.918 0.847958C2.38137 1.17014 1.89768 1.57322 1.484 2.04296C0.971972 2.62638 0.579238 3.30449 0.328003 4.03896C0.173293 4.49289 0.0725987 4.96347 0.0280028 5.44096C0.00800283 5.65596 0.00400283 5.74596 0.00400283 5.99996C-0.00113411 7.15892 0.332543 8.29412 0.964003 9.26596C1.64126 10.3124 2.62861 11.1211 3.788 11.579C4.68 11.934 5.66 12.066 6.621 11.969C8.11026 11.8151 9.48815 11.1099 10.484 9.99196C11.321 9.05266 11.8406 7.87347 11.969 6.62196C11.9909 6.41539 11.9999 6.20765 11.996 5.99996C11.9999 5.7926 11.9908 5.5852 11.969 5.37896C11.8289 4.00808 11.2203 2.72746 10.2459 1.75306C9.2715 0.778649 7.99088 0.170074 6.62 0.0299579C6.32411 0.00372194 6.02694 -0.00529326 5.73 0.00295788V0.00395788ZM6.18 2.00396C6.508 2.01996 6.813 2.06596 7.11 2.15196C7.79175 2.34805 8.40903 2.72205 8.89847 3.23556C9.3879 3.74907 9.73185 4.38358 9.895 5.07396C10.094 5.93396 10.008 6.83996 9.652 7.64096C9.25489 8.51958 8.55464 9.2258 7.67942 9.63036C6.8042 10.0349 5.81256 10.1107 4.886 9.84396C3.95848 9.57598 3.15926 8.98141 2.63595 8.17008C2.11265 7.35874 1.90061 6.38545 2.039 5.42996C2.17905 4.44578 2.68118 3.54923 3.44719 2.91563C4.21321 2.28203 5.18802 1.95695 6.181 2.00396H6.18Z" fill="currentColor"/>
<path d="M5.855 4.01196C5.74414 4.02738 5.63705 4.06297 5.539 4.11696C5.406 4.18396 5.453 4.13696 4.309 5.28096C3.473 6.11296 3.234 6.35496 3.199 6.40196C3.09695 6.54003 3.03189 6.70191 3.01001 6.87221C2.98813 7.04251 3.01016 7.21557 3.074 7.37496C3.199 7.68396 3.469 7.90596 3.809 7.97996C3.87033 7.99369 3.93323 7.99907 3.996 7.99596C4.106 7.99596 4.133 7.99196 4.188 7.97996C4.348 7.94996 4.504 7.87496 4.625 7.78096L5.328 7.08596L6 6.41396L6.68 7.09396C7.434 7.84396 7.402 7.81596 7.555 7.89096C7.70207 7.97005 7.86834 8.00642 8.035 7.99596C8.17392 7.99562 8.31073 7.96201 8.434 7.89796C8.56718 7.83465 8.6846 7.7425 8.77775 7.62819C8.87091 7.51388 8.93746 7.38028 8.9726 7.23707C9.00773 7.09386 9.01056 6.94462 8.98088 6.80018C8.9512 6.65574 8.88976 6.51971 8.801 6.40196C8.766 6.35496 8.527 6.11296 7.687 5.27696C6.77 4.36296 6.617 4.21096 6.57 4.17996C6.36203 4.03435 6.10606 3.97421 5.855 4.01196Z" fill="currentColor"/>
</g>
<defs>
<clipPath id="clip0_2538_21201">
<rect width="12" height="12" fill="white"/>
</clipPath>
</defs>
</svg>
