<svg width="12" height="12" viewBox="0 0 12 12" fill="none" xmlns="http://www.w3.org/2000/svg">
<g clip-path="url(#clip0_2538_19295)">
<path d="M5.73 0.00395788C4.73746 0.049363 3.7715 0.339287 2.918 0.847958C2.38137 1.17014 1.89768 1.57322 1.484 2.04296C0.971972 2.62638 0.579238 3.30449 0.328003 4.03896C0.173293 4.49289 0.0725987 4.96347 0.0280028 5.44096C0.00800283 5.65596 0.00400283 5.74596 0.00400283 5.99996C-0.00113411 7.15892 0.332543 8.29412 0.964003 9.26596C1.64126 10.3124 2.62861 11.1211 3.788 11.579C4.68 11.934 5.66 12.066 6.621 11.969C8.11026 11.8151 9.48815 11.1099 10.484 9.99196C11.321 9.05266 11.8406 7.87347 11.969 6.62196C11.9909 6.41539 11.9999 6.20765 11.996 5.99996C11.9999 5.7926 11.9908 5.5852 11.969 5.37896C11.8289 4.00808 11.2203 2.72746 10.2459 1.75306C9.2715 0.778649 7.99088 0.170074 6.62 0.0299579C6.32411 0.00372194 6.02694 -0.00529326 5.73 0.00295788V0.00395788ZM6.18 2.00396C6.508 2.01996 6.813 2.06596 7.11 2.15196C7.79175 2.34805 8.40903 2.72205 8.89847 3.23556C9.3879 3.74907 9.73185 4.38358 9.895 5.07396C10.094 5.93396 10.008 6.83996 9.652 7.64096C9.25489 8.51958 8.55464 9.2258 7.67942 9.63036C6.8042 10.0349 5.81256 10.1107 4.886 9.84396C3.95848 9.57598 3.15926 8.98141 2.63595 8.17008C2.11265 7.35874 1.90061 6.38545 2.039 5.42996C2.17905 4.44578 2.68118 3.54923 3.44719 2.91563C4.21321 2.28203 5.18802 1.95695 6.181 2.00396H6.18Z" fill="currentColor"/>
<path d="M6.41 3.00396C6.27 3.01996 6.113 3.06996 6 3.13296C5.883 3.20696 5.895 3.19096 4.82 4.26596C4.25 4.83596 3.766 5.32396 3.738 5.35196C3.58508 5.53325 3.5012 5.76278 3.5012 5.99996C3.5012 6.23713 3.58508 6.46667 3.738 6.64796C3.766 6.67596 4.25 7.16396 4.82 7.73396C5.598 8.51196 5.867 8.77696 5.902 8.80096C6.08445 8.93955 6.30907 9.01108 6.53806 9.0035C6.76705 8.99592 6.98645 8.9097 7.15933 8.75935C7.33222 8.609 7.44805 8.40369 7.48732 8.17797C7.5266 7.95224 7.48694 7.71987 7.375 7.51996C7.305 7.38996 7.312 7.40196 6.594 6.67996L5.914 5.99996L6.594 5.31996C7.312 4.59796 7.304 4.60996 7.375 4.47996C7.45456 4.33568 7.49709 4.17391 7.49877 4.00916C7.50045 3.84441 7.46123 3.68181 7.38463 3.53594C7.30802 3.39007 7.19643 3.26548 7.05984 3.17333C6.92326 3.08119 6.76595 3.02436 6.602 3.00796C6.53826 3.00077 6.47399 2.99943 6.41 3.00396Z" fill="currentColor"/>
</g>
<defs>
<clipPath id="clip0_2538_19295">
<rect width="12" height="12" fill="white"/>
</clipPath>
</defs>
</svg>
