<svg width="12" height="12" viewBox="0 0 12 12" fill="none" xmlns="http://www.w3.org/2000/svg">
<path d="M7.355 1.01202C7.24414 1.02744 7.13705 1.06303 7.039 1.11702C6.902 1.18402 7.043 1.05102 4.793 3.29702C2.551 5.53902 2.687 5.39802 2.617 5.53002C2.461 5.82302 2.465 6.18302 2.621 6.47202C2.691 6.60102 2.563 6.47202 4.793 8.70202C7.043 10.948 6.903 10.815 7.039 10.882C7.25592 10.9976 7.50805 11.0285 7.74643 10.9686C7.98482 10.9087 8.19245 10.7624 8.329 10.558C8.44515 10.3862 8.50486 10.1824 8.49984 9.97505C8.49482 9.76769 8.42532 9.56705 8.301 9.40102C8.277 9.36602 7.777 8.86602 6.59 7.67502L4.914 6.00002L6.59 4.32402C7.777 3.13302 8.277 2.63302 8.3 2.59802C8.44414 2.40545 8.51372 2.16723 8.49589 1.92736C8.47806 1.68748 8.37403 1.46216 8.203 1.29302C8.05311 1.13813 7.85486 1.039 7.641 1.01202C7.54603 1.00022 7.44997 1.00022 7.355 1.01202Z" fill="currentColor"/>
</svg>
