<svg width="12" height="12" viewBox="0 0 12 12" fill="none" xmlns="http://www.w3.org/2000/svg">
<path d="M5.914 3.00405C5.73345 3.01987 5.56062 3.08451 5.414 3.19105C5.375 3.21905 4.918 3.67105 3.316 5.27305C2.61773 5.96678 1.92239 6.66345 1.23 7.36305C1.13577 7.47685 1.06805 7.61018 1.03173 7.75339C0.995405 7.8966 0.991399 8.0461 1.02 8.19105C1.04926 8.34332 1.11368 8.48665 1.20811 8.60964C1.30254 8.73263 1.42439 8.83187 1.56394 8.89946C1.70349 8.96705 1.85689 9.00112 2.01194 8.99897C2.16698 8.99681 2.31938 8.95849 2.457 8.88705C2.597 8.81705 2.484 8.92605 4.313 7.09705L6 5.41005L7.68 7.09005C8.24928 7.66144 8.82095 8.23045 9.395 8.79705C9.742 9.05505 10.207 9.06705 10.566 8.82405C10.781 8.67605 10.922 8.45705 10.98 8.19105C10.9937 8.12972 10.9991 8.06682 10.996 8.00405C10.9976 7.77071 10.9173 7.5442 10.769 7.36405C10.75 7.34005 9.812 6.39805 8.684 5.27405C6.438 3.02705 6.602 3.18405 6.449 3.10905C6.34072 3.05313 6.22311 3.01755 6.102 3.00405C6.03939 3.00012 5.9766 3.00012 5.914 3.00405Z" fill="currentColor"/>
</svg>
