<svg width="12" height="12" viewBox="0 0 12 12" fill="none" xmlns="http://www.w3.org/2000/svg">
<path d="M4.855 1.012C4.75023 1.02714 4.64879 1.05994 4.555 1.109C4.398 1.188 4.575 1.016 2.293 3.297C0.0229974 5.567 0.182997 5.398 0.108997 5.55C0.0378258 5.68897 0.000709534 5.84287 0.000709534 5.999C0.000709534 6.15514 0.0378258 6.30903 0.108997 6.448C0.183997 6.601 0.0229974 6.433 2.293 8.702C4.574 10.983 4.398 10.812 4.555 10.89C4.65156 10.9426 4.75761 10.9756 4.867 10.987C4.953 11.003 5.109 10.995 5.195 10.979C5.40737 10.9343 5.60021 10.8238 5.746 10.663C5.88087 10.5127 5.96657 10.3248 5.99159 10.1244C6.01661 9.92406 5.97977 9.72083 5.886 9.542C5.816 9.402 5.926 9.515 4.098 7.687L2.41 6L4.098 4.312C5.926 2.484 5.816 2.598 5.887 2.457C5.9582 2.31962 5.99649 2.16756 5.99883 2.01284C6.00117 1.85812 5.9675 1.70497 5.90048 1.5655C5.83346 1.42603 5.73492 1.30405 5.61266 1.20921C5.4904 1.11436 5.34775 1.04925 5.196 1.019C5.08336 1.003 4.9682 1.00065 4.855 1.012Z" fill="currentColor"/>
<path d="M10.855 1.012C10.7502 1.02714 10.6488 1.05994 10.555 1.109C10.398 1.188 10.575 1.016 8.293 3.297C6.023 5.567 6.183 5.398 6.109 5.551C6.03783 5.68997 6.00071 5.84387 6.00071 6C6.00071 6.15614 6.03783 6.31003 6.109 6.449C6.184 6.602 6.023 6.434 8.293 8.703C10.574 10.984 10.398 10.813 10.555 10.891C10.6516 10.9436 10.7576 10.9766 10.867 10.988C10.953 11.004 11.109 10.996 11.195 10.98C11.4074 10.9353 11.6002 10.8248 11.746 10.664C11.8809 10.5137 11.9666 10.3258 11.9916 10.1254C12.0166 9.92506 11.9798 9.72183 11.886 9.543C11.816 9.403 11.926 9.516 10.098 7.688L8.41 6L10.098 4.312C11.926 2.484 11.816 2.598 11.887 2.457C11.9582 2.31962 11.9965 2.16756 11.9988 2.01284C12.0012 1.85812 11.9675 1.70497 11.9005 1.5655C11.8335 1.42603 11.7349 1.30405 11.6127 1.20921C11.4904 1.11436 11.3478 1.04925 11.196 1.019C11.0834 1.003 10.9692 1.00065 10.856 1.012H10.855Z" fill="currentColor"/>
</svg>
