<svg width="12" height="12" viewBox="0 0 12 12" fill="none" xmlns="http://www.w3.org/2000/svg">
<g clip-path="url(#clip0_2538_21488)">
<path d="M5.73 0.00395788C4.73746 0.049363 3.7715 0.339287 2.918 0.847958C2.38137 1.17014 1.89768 1.57322 1.484 2.04296C0.971972 2.62638 0.579238 3.30449 0.328003 4.03896C0.173293 4.49289 0.0725987 4.96347 0.0280028 5.44096C0.00800283 5.65596 0.00400283 5.74596 0.00400283 5.99996C-0.00113411 7.15892 0.332543 8.29412 0.964003 9.26596C1.64126 10.3124 2.62861 11.1211 3.788 11.579C4.68 11.934 5.66 12.066 6.621 11.969C8.11026 11.8151 9.48815 11.1099 10.484 9.99196C11.321 9.05266 11.8406 7.87347 11.969 6.62196C11.9909 6.41539 11.9999 6.20765 11.996 5.99996C11.9999 5.7926 11.9908 5.5852 11.969 5.37896C11.8289 4.00808 11.2203 2.72746 10.2459 1.75306C9.2715 0.778649 7.99088 0.170074 6.62 0.0299579C6.32411 0.00372194 6.02694 -0.00529326 5.73 0.00295788V0.00395788ZM6.18 2.00396C6.80454 2.03071 7.41415 2.20331 7.96 2.50796L8.035 2.55096L5.293 5.29296C4.38196 6.20859 3.46662 7.11994 2.547 8.02696L2.504 7.94896C2.07965 7.18167 1.91643 6.29716 2.039 5.42896C2.17925 4.44532 2.68119 3.5493 3.44675 2.91595C4.21231 2.28261 5.1875 1.95743 6.18 2.00396ZM9.496 4.04696C10.012 4.97296 10.136 6.08196 9.844 7.11296C9.61763 7.90037 9.15388 8.59879 8.516 9.11296C7.89082 9.61695 7.12878 9.92173 6.32848 9.98787C5.52818 10.054 4.72644 9.87847 4.027 9.48396L3.965 9.44896L6.707 6.70696C7.61804 5.79132 8.53339 4.87998 9.453 3.97296C9.453 3.97296 9.477 4.00796 9.496 4.04696Z" fill="currentColor"/>
</g>
<defs>
<clipPath id="clip0_2538_21488">
<rect width="12" height="12" fill="white"/>
</clipPath>
</defs>
</svg>
