<svg width="12" height="12" viewBox="0 0 12 12" fill="none" xmlns="http://www.w3.org/2000/svg">
<g clip-path="url(#clip0_2538_22064)">
<path d="M4.887 0.00796231C4.492 0.0509623 4.157 0.331962 4.043 0.706962C4.01268 0.803954 3.99915 0.905414 4.003 1.00696C4.00159 1.2606 4.09959 1.50471 4.276 1.68696C4.42947 1.85197 4.6356 1.95839 4.859 1.98796C4.949 2.00396 7.051 2.00396 7.141 1.98796C7.35993 1.95889 7.56281 1.85731 7.71725 1.69943C7.87168 1.54155 7.96877 1.33648 7.993 1.11696C8.00883 0.985645 7.99835 0.852489 7.96217 0.725267C7.92598 0.598044 7.86482 0.479303 7.78225 0.375973C7.69968 0.272644 7.59735 0.186796 7.48125 0.123439C7.36514 0.0600823 7.23758 0.0204865 7.106 0.00696231C7.038 -3.76906e-05 4.952 -3.76906e-05 4.885 0.00796231H4.887Z" fill="currentColor"/>
<path d="M1.813 1.00796C1.71672 1.01868 1.6212 1.03537 1.527 1.05796C1.13055 1.15338 0.772831 1.36793 0.501978 1.67275C0.231124 1.97757 0.0601294 2.35804 0.012 2.76296C0.004 2.82896 0.004 3.10996 0 6.44296C0 9.00896 0 10.079 0.008 10.142C0.047 10.732 0.336 11.255 0.808 11.606C1.113 11.836 1.468 11.966 1.863 11.993C1.922 12 3.148 12 6.06 12L10.169 11.996L10.259 11.984C10.5247 11.9502 10.7809 11.8629 11.0119 11.7273C11.2429 11.5916 11.444 11.4106 11.603 11.195C11.8353 10.8886 11.9723 10.5206 11.997 10.137C12 10.078 12 8.99696 12 6.43996C11.996 3.10796 11.996 2.82696 11.988 2.75996C11.9364 2.33794 11.752 1.94326 11.4613 1.63298C11.1706 1.32271 10.7888 1.11293 10.371 1.03396C10.215 1.00296 10.227 1.00696 9.598 1.00296L9 0.999962V1.08596C8.992 1.23396 8.977 1.33596 8.941 1.47996C8.84366 1.87636 8.62719 2.23341 8.32073 2.50304C8.01428 2.77266 7.63257 2.9419 7.227 2.98796C7.152 2.99996 4.98 3.00396 4.852 2.99196C4.5689 2.97161 4.29325 2.89188 4.043 2.75796C3.74027 2.59353 3.48533 2.35343 3.30306 2.0611C3.12079 1.76876 3.0174 1.43417 3.003 1.08996L3 0.999962L2.434 1.00396C2.125 1.00396 1.849 1.00796 1.813 1.00796ZM3.09 5.00396C3.27 5.01996 3.438 5.08196 3.582 5.18396C3.652 5.23396 3.766 5.34796 3.816 5.41796C3.863 5.48796 3.926 5.60896 3.949 5.67996C4.00725 5.85682 4.01548 6.04634 3.97277 6.22758C3.93006 6.40881 3.83809 6.57472 3.707 6.70696C3.5954 6.8198 3.45847 6.90437 3.30761 6.95363C3.15674 7.00289 2.9963 7.01543 2.83961 6.9902C2.68292 6.96496 2.53453 6.90269 2.40675 6.80855C2.27898 6.71441 2.17553 6.59113 2.105 6.44896C1.98777 6.20903 1.9684 5.93291 2.051 5.67896C2.074 5.60896 2.137 5.48896 2.184 5.41796C2.2856 5.27573 2.42274 5.16263 2.58172 5.08999C2.7407 5.01734 2.91597 4.98768 3.09 5.00396ZM9.09 5.00396C9.27 5.01996 9.438 5.08196 9.582 5.18396C9.652 5.23396 9.766 5.34796 9.816 5.41796C9.863 5.48796 9.926 5.60896 9.949 5.67996C10.016 5.88996 10.016 6.10996 9.949 6.31996C9.926 6.38996 9.863 6.51196 9.816 6.57796C9.766 6.65196 9.652 6.76596 9.582 6.81596C9.437 6.91796 9.27 6.97596 9.09 6.99596C9.004 7.00396 5.996 7.00396 5.91 6.99596C5.67649 6.97539 5.45785 6.87263 5.293 6.70596C5.21688 6.631 5.15339 6.54421 5.105 6.44896C5.03575 6.30942 4.99971 6.15575 4.99971 5.99996C4.99971 5.84418 5.03575 5.69051 5.105 5.55096C5.1533 5.45536 5.21679 5.36823 5.293 5.29296C5.45605 5.12778 5.67196 5.02513 5.903 5.00296C5.977 4.99596 9.012 4.99596 9.09 5.00296V5.00396ZM3.09 8.00396C3.27 8.01996 3.438 8.08196 3.582 8.18396C3.652 8.23396 3.766 8.34796 3.816 8.41796C3.863 8.48796 3.926 8.60896 3.949 8.67996C4.00725 8.85682 4.01548 9.04634 3.97277 9.22758C3.93006 9.40881 3.83809 9.57472 3.707 9.70696C3.5954 9.8198 3.45847 9.90437 3.30761 9.95363C3.15674 10.0029 2.9963 10.0154 2.83961 9.9902C2.68292 9.96496 2.53453 9.90269 2.40675 9.80855C2.27898 9.71441 2.17553 9.59113 2.105 9.44896C1.98777 9.20903 1.9684 8.93291 2.051 8.67896C2.074 8.60896 2.137 8.48896 2.184 8.41796C2.2856 8.27573 2.42274 8.16263 2.58172 8.08999C2.7407 8.01734 2.91597 7.98768 3.09 8.00396ZM9.09 8.00396C9.27 8.01996 9.438 8.08196 9.582 8.18396C9.652 8.23396 9.766 8.34796 9.816 8.41796C9.863 8.48796 9.926 8.60896 9.949 8.67996C10.016 8.88996 10.016 9.10996 9.949 9.31996C9.926 9.38996 9.863 9.51196 9.816 9.57796C9.766 9.65196 9.652 9.76596 9.582 9.81596C9.437 9.91796 9.27 9.97596 9.09 9.99596C9.004 10.004 5.996 10.004 5.91 9.99596C5.67649 9.97539 5.45785 9.87263 5.293 9.70596C5.21688 9.631 5.15339 9.54421 5.105 9.44896C5.03575 9.30942 4.99971 9.15575 4.99971 8.99996C4.99971 8.84418 5.03575 8.69051 5.105 8.55096C5.1533 8.45536 5.21679 8.36823 5.293 8.29296C5.45605 8.12778 5.67196 8.02513 5.903 8.00296C5.977 7.99596 9.012 7.99696 9.09 8.00396Z" fill="currentColor"/>
</g>
<defs>
<clipPath id="clip0_2538_22064">
<rect width="12" height="12" fill="white"/>
</clipPath>
</defs>
</svg>
