<svg width="12" height="12" viewBox="0 0 12 12" fill="none" xmlns="http://www.w3.org/2000/svg">
<path d="M4.887 0.00796231C4.492 0.0509623 4.157 0.331962 4.043 0.706962C4.01267 0.803954 3.99914 0.905414 4.003 1.00696C4.00159 1.2606 4.09959 1.50471 4.276 1.68696C4.42947 1.85197 4.6356 1.95839 4.859 1.98796C4.949 2.00396 7.051 2.00396 7.141 1.98796C7.35993 1.95889 7.56281 1.85731 7.71725 1.69943C7.87168 1.54155 7.96877 1.33648 7.993 1.11696C8.00883 0.985645 7.99835 0.852489 7.96216 0.725267C7.92598 0.598044 7.86482 0.479303 7.78225 0.375973C7.69968 0.272644 7.59735 0.186796 7.48124 0.123439C7.36514 0.0600823 7.23757 0.0204865 7.106 0.00696231C7.038 -3.76906e-05 4.952 -3.76906e-05 4.885 0.00796231H4.887Z" fill="currentColor"/>
<path d="M2.813 1.00796L2.668 1.02796C2.23007 1.10119 1.82906 1.31835 1.52841 1.64508C1.22775 1.97181 1.04463 2.38947 1.008 2.83196C1.004 2.89496 1.004 3.88196 1.004 6.55496C1.004 9.94896 1.008 10.195 1.016 10.258C1.07384 10.7044 1.28084 11.1182 1.6034 11.4322C1.92596 11.7463 2.34516 11.9421 2.793 11.988C2.895 12 9.105 12 9.207 11.988C9.66973 11.9412 10.1015 11.7341 10.4276 11.4024C10.7536 11.0707 10.9533 10.6354 10.992 10.172C11 10.078 11 2.91796 10.992 2.82396C10.949 2.33529 10.7279 1.87946 10.3708 1.54315C10.0137 1.20685 9.54537 1.01353 9.055 0.999962H9V1.08596C8.992 1.23396 8.977 1.33596 8.941 1.47996C8.84366 1.87636 8.62718 2.23341 8.32073 2.50304C8.01428 2.77266 7.63257 2.9419 7.227 2.98796C7.152 2.99996 4.98 3.00396 4.852 2.99196C4.5689 2.97161 4.29325 2.89188 4.043 2.75796C3.74027 2.59353 3.48533 2.35343 3.30306 2.0611C3.12078 1.76876 3.0174 1.43417 3.003 1.08996L3 0.999962L2.934 1.00396C2.898 1.00396 2.845 1.00796 2.813 1.00796ZM6.09 5.00396C6.27 5.01996 6.438 5.08196 6.582 5.18396C6.652 5.23396 6.766 5.34796 6.816 5.41796C6.863 5.48796 6.926 5.60896 6.949 5.67996C7.00725 5.85682 7.01548 6.04634 6.97277 6.22758C6.93006 6.40881 6.83808 6.57472 6.707 6.70696C6.5954 6.8198 6.45847 6.90437 6.30761 6.95363C6.15674 7.00289 5.99629 7.01543 5.83961 6.9902C5.68292 6.96496 5.53452 6.90269 5.40675 6.80855C5.27898 6.71441 5.17553 6.59113 5.105 6.44896C4.98776 6.20903 4.9684 5.93291 5.051 5.67896C5.074 5.60896 5.137 5.48896 5.184 5.41796C5.2856 5.27573 5.42273 5.16263 5.58172 5.08999C5.7407 5.01734 5.91596 4.98768 6.09 5.00396ZM6.227 8.01196C6.61292 8.05657 6.97752 8.21249 7.27636 8.46072C7.5752 8.70895 7.79536 9.03877 7.91 9.40996C7.957 9.55896 7.96 9.62496 7.93 9.71896C7.90418 9.7858 7.86199 9.84509 7.80731 9.89139C7.75262 9.93769 7.68718 9.96952 7.617 9.98396L7.567 9.99996H4.433L4.382 9.98396C4.31423 9.96606 4.25044 9.93552 4.194 9.89396C4.15017 9.85784 4.11463 9.81271 4.08979 9.76163C4.06494 9.71056 4.05137 9.65474 4.05 9.59796C4.05 9.47296 4.163 9.16796 4.288 8.96796C4.632 8.39796 5.218 8.04696 5.89 7.99996C5.956 7.99596 6.147 8.00396 6.226 8.01196H6.227Z" fill="currentColor"/>
</svg>
