<svg width="12" height="12" viewBox="0 0 12 12" fill="none" xmlns="http://www.w3.org/2000/svg">
<path d="M1.875 0.504C1.40703 0.532301 0.963944 0.724341 0.623335 1.04648C0.282726 1.36863 0.0663118 1.80034 0.0119978 2.266C0.0039978 2.34 0.0039978 2.406 0.0039978 3.004C0.0039978 3.648 0.0039978 3.66 0.0159978 3.754C0.0619978 4.082 0.167998 4.364 0.351998 4.633C0.573998 4.965 0.909998 5.227 1.285 5.367C1.485 5.445 1.672 5.484 1.895 5.497C2.031 5.504 9.965 5.504 10.105 5.497C10.6017 5.47189 11.0713 5.26261 11.422 4.91C11.7583 4.56842 11.9618 4.11813 11.996 3.64C12 3.543 12 2.46 11.996 2.355C11.9682 2.00094 11.8482 1.66032 11.648 1.367C11.403 1.00896 11.0481 0.740418 10.637 0.602C10.4953 0.558121 10.3501 0.526668 10.203 0.508C10.16 0.504 9.211 0.5 6.051 0.5C3.797 0.5 1.918 0.5 1.875 0.504ZM2.09 2.004C2.406 2.035 2.684 2.207 2.855 2.477C3.02 2.747 3.047 3.094 2.922 3.391C2.832 3.601 2.664 3.781 2.461 3.887C2.32336 3.95837 2.17102 3.99676 2.01599 3.99914C1.86097 4.00152 1.70752 3.96782 1.56776 3.9007C1.428 3.83359 1.30576 3.73489 1.21069 3.61242C1.11563 3.48994 1.05035 3.34704 1.02 3.195C1.00593 3.13101 1.00054 3.06542 1.004 3C1.004 2.883 1.008 2.86 1.02 2.805C1.05419 2.6314 1.134 2.47005 1.25123 2.33753C1.36846 2.20501 1.51887 2.10611 1.687 2.051C1.824 2.004 1.949 1.992 2.09 2.004ZM5.09 2.004C5.406 2.035 5.684 2.207 5.855 2.477C6.02 2.747 6.047 3.094 5.922 3.391C5.832 3.601 5.664 3.781 5.461 3.887C5.32336 3.95837 5.17102 3.99676 5.01599 3.99914C4.86097 4.00152 4.70752 3.96782 4.56776 3.9007C4.428 3.83359 4.30576 3.73489 4.21069 3.61242C4.11563 3.48994 4.05035 3.34704 4.02 3.195C4.00593 3.13101 4.00054 3.06542 4.004 3C4.004 2.883 4.008 2.86 4.02 2.805C4.06729 2.56258 4.20296 2.34638 4.40069 2.19837C4.59841 2.05035 4.84408 1.98108 5.09 2.004ZM10.176 2.016C10.3742 2.05114 10.5571 2.14539 10.7008 2.28638C10.8445 2.42736 10.9421 2.6085 10.981 2.806C10.9946 2.86971 10.9997 2.93495 10.996 3C10.996 3.117 10.992 3.14 10.98 3.195C10.946 3.36218 10.8699 3.51794 10.759 3.64756C10.648 3.77719 10.5059 3.87641 10.346 3.93585C10.1861 3.9953 10.0136 4.01301 9.84497 3.98731C9.6763 3.96162 9.51696 3.89337 9.382 3.789C9.30784 3.72407 9.24019 3.65206 9.18 3.574C9.12832 3.49606 9.08635 3.41211 9.055 3.324C9.0116 3.19917 8.99348 3.06696 9.00169 2.93506C9.00991 2.80316 9.04428 2.67422 9.10283 2.55574C9.16137 2.43725 9.2429 2.33161 9.34268 2.24495C9.44246 2.1583 9.55849 2.09237 9.684 2.051C9.844 2 10.004 1.988 10.176 2.016ZM1.875 6.504C1.40703 6.5323 0.963944 6.72434 0.623335 7.04648C0.282726 7.36863 0.0663118 7.80034 0.0119978 8.266C0.0039978 8.34 0.0039978 8.406 0.0039978 9.004C0.0039978 9.648 0.0039978 9.66 0.0159978 9.754C0.0619978 10.082 0.167998 10.364 0.351998 10.633C0.573998 10.965 0.909998 11.227 1.285 11.367C1.485 11.445 1.672 11.484 1.895 11.497C2.031 11.504 9.965 11.504 10.105 11.497C10.6017 11.4719 11.0713 11.2626 11.422 10.91C11.7583 10.5684 11.9618 10.1181 11.996 9.64C12 9.543 12 8.46 11.996 8.355C11.9682 8.00094 11.8482 7.66033 11.648 7.367C11.403 7.00896 11.0481 6.74042 10.637 6.602C10.4953 6.55812 10.3501 6.52667 10.203 6.508C10.16 6.504 9.211 6.5 6.051 6.5C3.797 6.5 1.918 6.5 1.875 6.504ZM2.09 8.004C2.406 8.035 2.684 8.207 2.855 8.477C3.02 8.747 3.047 9.094 2.922 9.391C2.832 9.601 2.664 9.781 2.461 9.887C2.32336 9.95837 2.17102 9.99676 2.01599 9.99914C1.86097 10.0015 1.70752 9.96782 1.56776 9.9007C1.428 9.83359 1.30576 9.73489 1.21069 9.61242C1.11563 9.48994 1.05035 9.34704 1.02 9.195C1.00593 9.13101 1.00054 9.06542 1.004 9C1.004 8.883 1.008 8.86 1.02 8.805C1.05419 8.6314 1.134 8.47005 1.25123 8.33753C1.36846 8.20501 1.51887 8.10611 1.687 8.051C1.824 8.004 1.949 7.992 2.09 8.004ZM5.09 8.004C5.406 8.035 5.684 8.207 5.855 8.477C6.02 8.747 6.047 9.094 5.922 9.391C5.832 9.601 5.664 9.781 5.461 9.887C5.32336 9.95837 5.17102 9.99676 5.01599 9.99914C4.86097 10.0015 4.70752 9.96782 4.56776 9.9007C4.428 9.83359 4.30576 9.73489 4.21069 9.61242C4.11563 9.48994 4.05035 9.34704 4.02 9.195C4.00593 9.13101 4.00054 9.06542 4.004 9C4.004 8.883 4.008 8.86 4.02 8.805C4.06729 8.56258 4.20296 8.34638 4.40069 8.19837C4.59841 8.05035 4.84408 7.98108 5.09 8.004ZM10.176 8.016C10.3742 8.05114 10.5571 8.14539 10.7008 8.28638C10.8445 8.42736 10.9421 8.6085 10.981 8.806C10.9946 8.86971 10.9997 8.93495 10.996 9C10.996 9.117 10.992 9.14 10.98 9.195C10.946 9.36218 10.8699 9.51794 10.759 9.64756C10.648 9.77719 10.5059 9.87641 10.346 9.93585C10.1861 9.9953 10.0136 10.013 9.84497 9.98731C9.6763 9.96162 9.51696 9.89337 9.382 9.789C9.30784 9.72407 9.24019 9.65206 9.18 9.574C9.12832 9.49606 9.08635 9.41211 9.055 9.324C9.0116 9.19917 8.99348 9.06696 9.00169 8.93506C9.00991 8.80316 9.04428 8.67422 9.10283 8.55574C9.16137 8.43726 9.2429 8.33161 9.34268 8.24495C9.44246 8.1583 9.55849 8.09237 9.684 8.051C9.844 8 10.004 7.988 10.176 8.016Z" fill="currentColor"/>
</svg>
