<svg width="12" height="12" viewBox="0 0 12 12" fill="none" xmlns="http://www.w3.org/2000/svg">
<path d="M6.234 2.01204C5.961 2.04704 5.714 2.29304 5.614 2.63704C5.59074 2.72405 5.5737 2.81261 5.563 2.90204C5.477 3.59404 4.843 8.79304 4.84 8.85204C4.832 8.94204 4.84 9.05904 4.855 9.14804C4.925 9.55504 5.18 9.86304 5.488 9.91804C5.863 9.98404 6.215 9.66804 6.312 9.18004C6.32 9.12904 7.027 3.38304 7.051 3.14504C7.09 2.79704 6.984 2.44504 6.781 2.22704C6.71417 2.14944 6.62943 2.08931 6.53411 2.05184C6.4388 2.01438 6.33579 2.00072 6.234 2.01204ZM3.742 3.00404C3.65031 3.02298 3.56286 3.05857 3.484 3.10904C3.375 3.18404 3.379 3.17904 2.551 4.28104C2.129 4.84404 1.773 5.32404 1.758 5.34804C1.645 5.52004 1.578 5.76604 1.578 6.00004C1.578 6.23404 1.645 6.48004 1.758 6.64804C1.773 6.67604 2.128 7.15604 2.551 7.71504C3.375 8.81604 3.379 8.81604 3.481 8.88704C3.59284 8.96748 3.72923 9.0064 3.86668 8.99709C4.00413 8.98778 4.13403 8.93083 4.234 8.83604C4.371 8.72304 4.492 8.51204 4.543 8.29304C4.57 8.16404 4.582 7.96904 4.566 7.84004C4.54514 7.67936 4.49354 7.5242 4.414 7.38304C4.24099 7.14277 4.06531 6.90442 3.887 6.66804L3.387 6.00004L3.887 5.33204C4.16 4.96504 4.398 4.64504 4.414 4.61704C4.488 4.49204 4.543 4.32804 4.566 4.16004C4.57479 4.0455 4.57378 3.93041 4.563 3.81604C4.54667 3.69412 4.51088 3.57562 4.457 3.46504C4.344 3.22704 4.172 3.07504 3.969 3.02004C3.89458 3.00328 3.81804 2.99789 3.742 3.00404ZM8.082 3.00804C8.02317 3.01793 7.9664 3.03753 7.914 3.06604C7.668 3.18804 7.488 3.46904 7.438 3.82004C7.4269 3.93305 7.42556 4.0468 7.434 4.16004C7.457 4.32804 7.512 4.49204 7.586 4.61704C7.602 4.64504 7.84 4.96504 8.113 5.33204L8.613 6.00004L8.113 6.66804C7.9347 6.90442 7.75902 7.14277 7.586 7.38304C7.512 7.50804 7.457 7.67204 7.434 7.84004C7.426 7.92204 7.426 8.09804 7.437 8.18004C7.48 8.47304 7.609 8.71504 7.797 8.86004C8.063 9.07004 8.395 9.04004 8.637 8.79004C8.664 8.75404 8.961 8.36704 9.449 7.71504C9.871 7.15204 10.227 6.67504 10.242 6.64804C10.355 6.48004 10.426 6.23404 10.426 6.00004C10.426 5.76604 10.356 5.52004 10.242 5.34804C9.98025 4.99179 9.71591 4.63745 9.449 4.28504C8.961 3.63304 8.664 3.24604 8.637 3.21104C8.48 3.05104 8.273 2.97304 8.082 3.00804Z" fill="currentColor"/>
</svg>
