<svg width="12" height="12" viewBox="0 0 12 12" fill="none" xmlns="http://www.w3.org/2000/svg">
<path d="M3.89 1.50404C3.70312 1.52724 3.52639 1.60202 3.37962 1.72001C3.23285 1.83799 3.12183 1.99452 3.059 2.17204C3.01249 2.30378 2.99432 2.44385 3.0057 2.58309C3.01707 2.72233 3.05773 2.8576 3.125 2.98004C3.195 3.11004 3.16 3.07004 4.265 4.18004C4.835 4.75004 5.325 5.23404 5.352 5.26204C5.422 5.32004 5.484 5.35904 5.566 5.39804C5.74008 5.48291 5.9351 5.51524 6.12725 5.49109C6.31939 5.46694 6.50035 5.38735 6.648 5.26204C6.676 5.23404 7.168 4.75004 7.734 4.18004C8.84 3.07004 8.804 3.11004 8.875 2.98004C9.063 2.64004 9.031 2.21004 8.801 1.90204C8.73562 1.82076 8.66075 1.74757 8.578 1.68404C8.46747 1.60957 8.34455 1.55539 8.215 1.52404C7.93 1.46404 7.652 1.52404 7.402 1.69904C7.367 1.72304 7.18 1.91004 6.68 2.40604L6 3.08604L5.32 2.40604C4.598 1.68704 4.61 1.69604 4.48 1.62504C4.38228 1.56937 4.27517 1.53209 4.164 1.51504C4.105 1.50404 3.948 1.50004 3.89 1.50404ZM5.914 6.50404C5.711 6.52404 5.512 6.60504 5.352 6.73804C5.324 6.76604 4.836 7.25004 4.266 7.82004C3.16 8.93004 3.196 8.89004 3.125 9.02004C3.02276 9.20945 2.98435 9.42679 3.0155 9.63976C3.04664 9.85274 3.14567 10.05 3.29787 10.2022C3.45006 10.3544 3.64731 10.4534 3.86028 10.4846C4.07326 10.5157 4.2906 10.4773 4.48 10.375C4.61 10.305 4.598 10.312 5.32 9.59404L6 8.91404L6.68 9.59404C7.18 10.09 7.367 10.277 7.402 10.301C7.477 10.355 7.539 10.387 7.609 10.418C7.78896 10.4952 7.98773 10.5174 8.18027 10.4818C8.37282 10.4462 8.55052 10.3544 8.691 10.218C8.84933 10.0665 8.95319 9.86692 8.98647 9.65029C9.01974 9.43367 8.98056 9.21212 8.875 9.02004C8.805 8.89004 8.84 8.93004 7.735 7.82004C7.168 7.25004 6.675 6.76604 6.648 6.73804C6.44354 6.56671 6.1799 6.48266 5.914 6.50404Z" fill="currentColor"/>
</svg>
