<svg width="12" height="12" viewBox="0 0 12 12" fill="none" xmlns="http://www.w3.org/2000/svg">
<path d="M3.734 4.00407C3.41707 4.0288 3.10614 4.10409 2.813 4.22707C2.68801 4.28472 2.56525 4.3471 2.445 4.41407C1.93791 4.72243 1.50987 5.14499 1.195 5.64807C1.13448 5.738 1.08606 5.8355 1.051 5.93807C1.0144 6.0406 0.998424 6.14935 1.004 6.25807C1.004 6.36307 1.008 6.39107 1.02 6.44507C1.06222 6.65158 1.16824 6.83961 1.32308 6.98262C1.47793 7.12562 1.67379 7.21638 1.883 7.24207C1.965 7.25407 2.117 7.24607 2.195 7.23007C2.453 7.17607 2.691 7.02007 2.828 6.80907C2.938 6.64107 2.968 6.59407 3.016 6.53507C3.043 6.50007 3.098 6.43707 3.136 6.39807C3.34 6.19107 3.555 6.05807 3.77 6.01607C3.86923 5.99858 3.97076 5.99858 4.07 6.01607C4.207 6.04607 4.367 6.11707 4.516 6.21507C4.762 6.37907 4.957 6.56607 5.246 6.90607C5.676 7.41807 6.086 7.78107 6.527 8.04307C7.312 8.51607 8.164 8.62507 8.965 8.35507C9.36312 8.21962 9.73075 8.00727 10.047 7.73007C10.148 7.64507 10.371 7.42207 10.461 7.31607C10.637 7.10907 10.848 6.80507 10.911 6.66807C10.9761 6.52494 11.0053 6.36805 10.996 6.21107C10.9863 5.94784 10.8729 5.69913 10.6805 5.51926C10.4881 5.33938 10.2323 5.24297 9.969 5.25107C9.922 5.25407 9.859 5.25807 9.832 5.26607C9.62741 5.30056 9.43885 5.39851 9.293 5.54607C9.211 5.62907 9.215 5.62507 9.09 5.81607C8.93 6.06307 8.691 6.28907 8.469 6.40207C8.391 6.43707 8.348 6.45707 8.273 6.47707C8.1362 6.50812 7.99377 6.50399 7.859 6.46507C7.668 6.41007 7.449 6.28107 7.227 6.09007C7.05826 5.93804 6.90115 5.77358 6.757 5.59807C6.621 5.43807 6.582 5.39107 6.465 5.26607C6.21461 4.99924 5.9356 4.7608 5.633 4.55507C5.49998 4.46707 5.36172 4.38726 5.219 4.31607C4.90259 4.15924 4.56166 4.05777 4.211 4.01607C4.0522 4.0063 3.89309 4.0023 3.734 4.00407Z" fill="currentColor"/>
</svg>
