<svg width="12" height="12" viewBox="0 0 12 12" fill="none" xmlns="http://www.w3.org/2000/svg">
<path d="M3.238 3.00395C3.223 3.00395 3.164 3.01195 3.113 3.01595C2.74062 3.05574 2.37974 3.16856 2.051 3.34795C1.363 3.71495 0.737997 4.37495 0.269997 5.22995C0.209997 5.33995 0.0939965 5.57795 0.0699965 5.63695C-0.0470035 5.93395 -0.0120035 6.27695 0.159997 6.54295C0.258723 6.6944 0.396478 6.81642 0.558744 6.89615C0.72101 6.97587 0.901778 7.01035 1.082 6.99595C1.32061 6.97602 1.544 6.87055 1.711 6.69895C1.809 6.60195 1.848 6.54295 1.945 6.34395C2.203 5.81995 2.535 5.40995 2.879 5.17995C3.149 4.99995 3.383 4.95695 3.652 5.04695C3.77 5.08595 3.945 5.18395 4.09 5.29695C4.3 5.45295 4.559 5.71895 4.777 5.99995C4.907 6.16395 4.969 6.25795 5.16 6.54295C5.402 6.90595 5.527 7.07795 5.71 7.30895C6.04467 7.73997 6.44131 8.11907 6.887 8.43395C7.355 8.74995 7.828 8.92995 8.34 8.98795C8.465 8.99995 8.758 8.99995 8.883 8.98795C9.34285 8.93475 9.78409 8.77558 10.172 8.52295C10.828 8.10495 11.437 7.38695 11.852 6.53495C11.922 6.38695 11.942 6.34795 11.961 6.27295C12.0211 6.05972 12.0087 5.83258 11.9257 5.62716C11.8428 5.42175 11.694 5.2497 11.5026 5.13802C11.3113 5.02634 11.0883 4.98135 10.8687 5.01011C10.649 5.03888 10.4451 5.13977 10.289 5.29695C10.1989 5.38999 10.1261 5.49835 10.074 5.61695C9.75 6.28895 9.297 6.79295 8.871 6.94895C8.78775 6.98219 8.69861 6.99818 8.609 6.99595C8.4683 6.99529 8.33004 6.95918 8.207 6.89095C7.859 6.71895 7.48 6.35895 7.086 5.81595C7.051 5.76995 6.949 5.62095 6.856 5.48395C6.72918 5.28485 6.59474 5.09071 6.453 4.90195C6.2561 4.63387 6.0395 4.38084 5.805 4.14495C5.129 3.46895 4.425 3.09795 3.668 3.01495C3.52496 3.00372 3.38142 3.00005 3.238 3.00395Z" fill="currentColor"/>
</svg>
