<svg width="12" height="12" viewBox="0 0 12 12" fill="none" xmlns="http://www.w3.org/2000/svg">
<path d="M3.734 4.00395C3.41707 4.02868 3.10614 4.10397 2.813 4.22695C2.68801 4.28459 2.56525 4.34697 2.445 4.41395C1.93791 4.72231 1.50987 5.14487 1.195 5.64795C1.13448 5.73788 1.08606 5.83538 1.051 5.93795C1.0144 6.04048 0.998424 6.14923 1.004 6.25795C1.004 6.36295 1.008 6.39095 1.02 6.44495C1.06222 6.65146 1.16824 6.83949 1.32308 6.9825C1.47793 7.1255 1.67379 7.21626 1.883 7.24195C1.965 7.25395 2.117 7.24595 2.195 7.22995C2.453 7.17595 2.691 7.01995 2.828 6.80895C2.938 6.64095 2.968 6.59395 3.016 6.53495C3.043 6.49995 3.098 6.43695 3.136 6.39795C3.34 6.19095 3.555 6.05795 3.77 6.01595C3.86923 5.99845 3.97076 5.99845 4.07 6.01595C4.207 6.04595 4.367 6.11695 4.516 6.21495C4.762 6.37895 4.957 6.56595 5.246 6.90595C5.676 7.41795 6.086 7.78095 6.527 8.04295C7.312 8.51595 8.164 8.62495 8.965 8.35495C9.36312 8.2195 9.73075 8.00714 10.047 7.72995C10.148 7.64495 10.371 7.42195 10.461 7.31595C10.637 7.10895 10.848 6.80495 10.911 6.66795C10.9761 6.52482 11.0053 6.36793 10.996 6.21095C10.9863 5.94772 10.8729 5.69901 10.6805 5.51913C10.4881 5.33926 10.2323 5.24285 9.969 5.25095C9.922 5.25395 9.859 5.25795 9.832 5.26595C9.62741 5.30043 9.43885 5.39839 9.293 5.54595C9.211 5.62895 9.215 5.62495 9.09 5.81595C8.93 6.06295 8.691 6.28895 8.469 6.40195C8.391 6.43695 8.348 6.45695 8.273 6.47695C8.1362 6.508 7.99377 6.50387 7.859 6.46495C7.668 6.40995 7.449 6.28095 7.227 6.08995C7.05826 5.93792 6.90115 5.77346 6.757 5.59795C6.621 5.43795 6.582 5.39095 6.465 5.26595C6.21461 4.99912 5.9356 4.76068 5.633 4.55495C5.49998 4.46695 5.36172 4.38713 5.219 4.31595C4.90259 4.15912 4.56166 4.05765 4.211 4.01595C4.0522 4.00618 3.89309 4.00218 3.734 4.00395Z" fill="currentColor"/>
</svg>
