<svg width="12" height="12" viewBox="0 0 12 12" fill="none" xmlns="http://www.w3.org/2000/svg">
<g clip-path="url(#clip0_2538_24925)">
<path d="M2.879 0.00390625C2.70757 0.0154268 2.53825 0.0483491 2.375 0.101906C2.12468 0.182705 1.89307 0.312817 1.69384 0.484565C1.49461 0.656314 1.3318 0.866221 1.215 1.10191C1.10029 1.32705 1.03001 1.57218 1.008 1.82391C0.999999 1.92191 0.999999 6.08191 1.008 6.17591C1.09 7.08591 1.766 7.81991 2.668 7.97291C2.828 7.99991 2.848 7.99991 4.051 7.99591C5.301 7.99591 5.211 7.99591 5.398 7.96091C5.74232 7.89005 6.06204 7.73013 6.32524 7.49711C6.58845 7.26408 6.78594 6.9661 6.898 6.63291C6.953 6.45691 6.984 6.29691 6.996 6.10491C7.004 5.96891 7.004 2.03091 6.996 1.89491C6.98953 1.78986 6.9765 1.68533 6.957 1.58191C6.87127 1.17756 6.66219 0.809779 6.3586 0.52929C6.055 0.248801 5.67185 0.0694254 5.262 0.0159063L5.172 0.00390625H2.879Z" fill="currentColor"/>
<path d="M8.41 4.00791C8.33185 4.02341 8.25838 4.05686 8.19539 4.10563C8.13239 4.1544 8.08159 4.21714 8.047 4.28891C8.01632 4.35489 8.00159 4.42717 8.004 4.49991C8.004 4.58591 8.016 4.63991 8.047 4.70991C8.07642 4.76574 8.11344 4.81723 8.157 4.86291C8.21374 4.91353 8.28005 4.9523 8.352 4.97691L8.406 4.99691L8.754 4.99991C8.973 4.99991 9.117 5.00391 9.144 5.00791C9.35133 5.04007 9.54353 5.13587 9.69402 5.28206C9.84451 5.42825 9.94584 5.6176 9.984 5.82391L10 5.89091V7.95291C10.0056 8.66257 10.0042 9.37227 9.996 10.0819C9.961 10.4419 9.754 10.7419 9.437 10.8979C9.35002 10.9416 9.25643 10.9707 9.16 10.9839C9.094 10.9959 9.074 10.9959 7.977 10.9959H6.859L6.805 10.9799C6.66651 10.949 6.53517 10.892 6.418 10.8119C6.33661 10.7497 6.26307 10.6778 6.199 10.5979C6.10604 10.4719 6.04342 10.3261 6.016 10.1719C6.008 10.1289 6.004 10.0659 6 9.76991C5.996 9.38691 5.996 9.38991 5.96 9.30491C5.90321 9.18107 5.80179 9.08322 5.676 9.03091C5.55639 8.98729 5.42471 8.99045 5.30734 9.03978C5.18996 9.0891 5.09555 9.18094 5.043 9.29691C5.03058 9.32577 5.02152 9.35597 5.016 9.38691C5 9.43391 5 9.44491 5 9.77691C5 10.0119 5.004 10.1449 5.008 10.1869C5.051 10.5969 5.195 10.9449 5.449 11.2659C5.512 11.3439 5.664 11.4919 5.746 11.5589C6 11.7619 6.301 11.8989 6.617 11.9609C6.801 11.9999 6.734 11.9959 7.941 11.9999C9.094 11.9999 9.145 11.9999 9.301 11.9769C9.73173 11.9114 10.1293 11.7069 10.4331 11.3946C10.7369 11.0823 10.9303 10.6793 10.984 10.2469C10.996 10.1719 10.996 10.0669 10.996 7.99691C10.996 5.94091 10.996 5.81691 10.984 5.74691C10.9263 5.29416 10.7154 4.87481 10.3863 4.55861C10.0571 4.24241 9.62969 4.04842 9.175 4.00891C9.094 3.99991 8.445 3.99991 8.41 4.00791Z" fill="currentColor"/>
</g>
<defs>
<clipPath id="clip0_2538_24925">
<rect width="12" height="12" fill="white"/>
</clipPath>
</defs>
</svg>
