<svg width="12" height="12" viewBox="0 0 12 12" fill="none" xmlns="http://www.w3.org/2000/svg">
<path d="M2.914 2.00408C2.73437 2.02026 2.56243 2.08457 2.41627 2.19025C2.27012 2.29593 2.15516 2.43906 2.08351 2.60458C2.01186 2.77009 1.98616 2.95186 2.00913 3.13075C2.03209 3.30965 2.10287 3.47903 2.214 3.62108C2.234 3.64108 2.774 4.18808 3.414 4.82808L4.586 6.00008L3.414 7.17208C2.774 7.81208 2.234 8.35908 2.214 8.37908C2.06193 8.57155 1.98581 8.81316 2.00012 9.05804C2.01442 9.30293 2.11815 9.53403 2.2916 9.70749C2.46505 9.88094 2.69616 9.98466 2.94104 9.99897C3.18592 10.0133 3.42753 9.93716 3.62 9.78508C3.64 9.76508 4.187 9.22708 4.828 8.58508L6 7.41608L7.172 8.58608C7.812 9.22808 8.359 9.76608 8.379 9.78608C8.579 9.93808 8.836 10.0161 9.074 9.99708C9.25433 9.98221 9.42728 9.91889 9.57458 9.81381C9.72188 9.70873 9.83804 9.56579 9.91078 9.40012C9.98352 9.23445 10.0101 9.05221 9.98783 8.87265C9.96551 8.69309 9.89509 8.52291 9.784 8.38008C9.766 8.36008 9.227 7.81408 8.586 7.17308L7.414 6.00008L8.586 4.82808C9.226 4.18808 9.766 3.64108 9.786 3.62108C9.87969 3.49765 9.9446 3.35483 9.976 3.20308C10.023 2.98805 9.99553 2.76342 9.898 2.56608C9.80336 2.36594 9.64367 2.20378 9.445 2.10608C9.27501 2.02231 9.08487 1.9881 8.89634 2.00738C8.70781 2.02666 8.52852 2.09864 8.379 2.21508C8.359 2.23508 7.813 2.77308 7.172 3.41508L6 4.58408L4.828 3.41408C4.188 2.77208 3.641 2.23408 3.621 2.21408C3.41961 2.0586 3.16767 1.98441 2.914 2.00408Z" fill="currentColor"/>
</svg>
