<svg width="12" height="12" viewBox="0 0 12 12" fill="none" xmlns="http://www.w3.org/2000/svg">
<path d="M2.914 2.00396C2.73437 2.02014 2.56243 2.08445 2.41627 2.19013C2.27012 2.29581 2.15516 2.43894 2.08351 2.60445C2.01186 2.76997 1.98616 2.95174 2.00913 3.13063C2.03209 3.30952 2.10287 3.47891 2.214 3.62096C2.234 3.64096 2.774 4.18796 3.414 4.82796L4.586 5.99996L3.414 7.17196C2.774 7.81196 2.234 8.35896 2.214 8.37896C2.06193 8.57143 1.98581 8.81304 2.00012 9.05792C2.01442 9.30281 2.11815 9.53391 2.2916 9.70736C2.46505 9.88082 2.69616 9.98454 2.94104 9.99885C3.18592 10.0132 3.42753 9.93704 3.62 9.78496C3.64 9.76496 4.187 9.22696 4.828 8.58496L6 7.41596L7.172 8.58596C7.812 9.22796 8.359 9.76596 8.379 9.78596C8.579 9.93796 8.836 10.016 9.074 9.99696C9.25433 9.98209 9.42728 9.91877 9.57458 9.81369C9.72188 9.70861 9.83804 9.56567 9.91078 9.4C9.98352 9.23433 10.0101 9.05208 9.98783 8.87253C9.96551 8.69297 9.89509 8.52278 9.784 8.37996C9.766 8.35996 9.227 7.81396 8.586 7.17296L7.414 5.99996L8.586 4.82796C9.226 4.18796 9.766 3.64096 9.786 3.62096C9.87969 3.49752 9.9446 3.35471 9.976 3.20296C10.023 2.98793 9.99553 2.76329 9.898 2.56596C9.80336 2.36582 9.64367 2.20366 9.445 2.10596C9.27501 2.02219 9.08487 1.98798 8.89634 2.00726C8.70781 2.02654 8.52852 2.09852 8.379 2.21496C8.359 2.23496 7.813 2.77296 7.172 3.41496L6 4.58396L4.828 3.41396C4.188 2.77196 3.641 2.23396 3.621 2.21396C3.41961 2.05848 3.16767 1.98429 2.914 2.00396Z" fill="currentColor"/>
</svg>
