<svg width="12" height="12" viewBox="0 0 12 12" fill="none" xmlns="http://www.w3.org/2000/svg">
<path d="M3.742 1.50791C3.19121 1.54726 2.67054 1.77418 2.26676 2.15085C1.86298 2.52751 1.60048 3.03118 1.523 3.57791C1.508 3.68791 1.508 3.72691 1.5 3.87091C1.496 3.98091 1.496 3.99991 1.48 4.03891C1.445 4.14091 1.469 4.11691 0.819999 4.76591C0.335999 5.25391 0.218999 5.37491 0.187999 5.41791C0.112999 5.52291 0.0469993 5.67591 0.0199993 5.79691C-0.0249133 6.01816 0.0068277 6.2481 0.109999 6.44891C0.179999 6.58891 0.167999 6.57891 0.823999 7.23391C1.473 7.88691 1.449 7.86391 1.48 7.96091C1.49499 8.0156 1.50173 8.07223 1.5 8.12891C1.504 8.19491 1.508 8.28091 1.512 8.31591C1.578 8.99191 1.922 9.60891 2.465 10.0119C2.844 10.2969 3.281 10.4609 3.758 10.4919C3.868 10.4999 4.535 10.4999 4.602 10.4919C4.79029 10.4733 4.96941 10.4015 5.11837 10.2849C5.26734 10.1682 5.37999 10.0115 5.44315 9.83319C5.50631 9.65483 5.51736 9.46218 5.475 9.27777C5.43265 9.09336 5.33865 8.92483 5.204 8.79191C5.08621 8.67374 4.94083 8.58678 4.781 8.53891C4.661 8.50791 4.656 8.50791 4.238 8.49991C3.801 8.49591 3.82 8.49991 3.727 8.45291C3.68833 8.43367 3.6537 8.40719 3.625 8.37491C3.59272 8.34621 3.56624 8.31158 3.547 8.27291C3.507 8.19891 3.504 8.16791 3.5 8.02291C3.49525 7.86803 3.47549 7.71397 3.441 7.56291C3.35766 7.18307 3.18372 6.82901 2.934 6.53091C2.8419 6.43274 2.74788 6.33639 2.652 6.24191L2.41 5.99991L2.652 5.75791C2.785 5.62491 2.91 5.49591 2.934 5.46491C3.18432 5.16758 3.35835 4.81369 3.441 4.43391C3.477 4.28091 3.492 4.15591 3.5 3.97691C3.504 3.83191 3.508 3.80091 3.547 3.72691C3.56624 3.68824 3.59272 3.65361 3.625 3.62491C3.6526 3.59146 3.68749 3.56478 3.727 3.54691C3.82 3.49991 3.801 3.50391 4.238 3.49691C4.656 3.49191 4.66 3.49191 4.781 3.46091C4.94152 3.41265 5.08688 3.32379 5.203 3.20291C5.25041 3.16022 5.29239 3.11185 5.328 3.05891C5.42368 2.91537 5.48076 2.74959 5.49374 2.57757C5.50672 2.40556 5.47516 2.23309 5.4021 2.07682C5.32904 1.92055 5.21694 1.78574 5.07662 1.68539C4.93631 1.58504 4.7725 1.52254 4.601 1.50391C4.31467 1.49947 4.02828 1.5008 3.742 1.50791ZM7.414 1.50391C7.25306 1.51772 7.09787 1.57035 6.96173 1.65729C6.82559 1.74423 6.71256 1.86288 6.63233 2.00308C6.5521 2.14329 6.50707 2.30085 6.50109 2.46227C6.49511 2.62369 6.52836 2.78416 6.598 2.92991C6.64629 3.03176 6.71232 3.1242 6.793 3.20291C6.9136 3.32564 7.06428 3.4146 7.23 3.46091C7.344 3.49191 7.344 3.49191 7.762 3.49591C8.199 3.50391 8.18 3.49991 8.27 3.54291C8.35106 3.58318 8.41673 3.64885 8.457 3.72991C8.492 3.79991 8.497 3.83191 8.504 3.97691C8.508 4.11691 8.516 4.18391 8.531 4.29691C8.601 4.73391 8.793 5.14791 9.082 5.48791C9.102 5.50791 9.227 5.63291 9.355 5.76591L9.59 5.99991L9.348 6.24191C9.215 6.37491 9.09 6.50391 9.066 6.53191C8.71552 6.9511 8.51741 7.47667 8.504 8.02291C8.496 8.16791 8.492 8.19891 8.454 8.27291C8.43584 8.31252 8.40881 8.34742 8.375 8.37491C8.3463 8.40719 8.31167 8.43367 8.273 8.45291C8.18 8.49991 8.199 8.49591 7.762 8.50291C7.344 8.50791 7.344 8.50791 7.23 8.53891C7.00205 8.60217 6.80418 8.74472 6.672 8.94091C6.58334 9.07263 6.52732 9.22358 6.50858 9.38125C6.48984 9.53893 6.50892 9.69879 6.56423 9.84763C6.61954 9.99647 6.70951 10.13 6.82667 10.2372C6.94383 10.3443 7.08483 10.4221 7.238 10.4639C7.355 10.4959 7.355 10.4959 7.758 10.4999C8.281 10.4999 8.414 10.4919 8.676 10.4259C9.11085 10.3153 9.50651 10.0863 9.81898 9.76425C10.1315 9.44224 10.3485 9.03989 10.446 8.60191C10.476 8.45691 10.492 8.32391 10.5 8.12891C10.4983 8.07223 10.505 8.0156 10.52 7.96091C10.55 7.86291 10.527 7.88691 11.176 7.23391C11.832 6.57791 11.82 6.58991 11.891 6.44891C11.9622 6.30994 11.9993 6.15604 11.9993 5.99991C11.9993 5.84378 11.9622 5.68988 11.891 5.55091C11.821 5.40591 11.832 5.42091 11.176 4.76091C10.527 4.11291 10.551 4.13691 10.52 4.03891C10.505 3.98422 10.4983 3.92759 10.5 3.87091C10.496 3.80091 10.492 3.71891 10.488 3.68391C10.433 3.1139 10.1774 2.58192 9.76684 2.1827C9.35627 1.78348 8.81733 1.54294 8.246 1.50391C7.96868 1.5 7.69132 1.5 7.414 1.50391Z" fill="currentColor"/>
</svg>
