<svg width="12" height="12" viewBox="0 0 12 12" fill="none" xmlns="http://www.w3.org/2000/svg">
<g clip-path="url(#clip0_2538_26355)">
<path d="M7.707 1.81595C7.273 1.87095 6.922 2.11695 6.734 2.49995C6.714 2.54295 6.664 2.67195 6.617 2.79995C6.57 2.92595 6.219 3.90195 5.832 4.96895C5.445 6.03895 5.129 6.91395 5.125 6.90995C5.125 6.90595 4.941 6.44495 4.719 5.88695C4.57802 5.52535 4.43469 5.16468 4.289 4.80495C4.19707 4.61929 4.05963 4.45994 3.8895 4.34173C3.71936 4.22353 3.52206 4.15033 3.316 4.12895C3.19623 4.12132 3.076 4.12534 2.957 4.14095C2.81386 4.16546 2.67633 4.2156 2.551 4.28895C2.297 4.42895 2.105 4.65595 2.004 4.93795C1.992 4.96795 1.922 5.21095 1.844 5.47295L1.707 5.94495H1.317C0.991999 5.94495 0.913999 5.94895 0.862999 5.95695C0.731234 5.97539 0.604453 6.01986 0.490041 6.08777C0.375629 6.15568 0.275872 6.24568 0.19658 6.35252C0.117287 6.45936 0.0600438 6.58091 0.028183 6.71009C-0.00367775 6.83927 -0.00951906 6.97349 0.0109993 7.10495C0.0438835 7.29252 0.128822 7.46708 0.256128 7.60871C0.383433 7.75033 0.54798 7.85333 0.730999 7.90595C0.850999 7.94095 0.847999 7.94095 1.375 7.94095C1.875 7.94095 1.891 7.94095 2.047 7.91395C2.23 7.88695 2.437 7.81595 2.609 7.72995C2.773 7.64795 2.953 7.51995 3.082 7.39495C3.113 7.36295 3.141 7.33995 3.145 7.34395L3.578 8.43695C3.828 9.07395 4.023 9.56295 4.047 9.60895C4.168 9.85495 4.363 10.047 4.605 10.164C4.785 10.25 4.953 10.289 5.156 10.289C5.363 10.289 5.536 10.25 5.715 10.164C6.004 10.024 6.215 9.78895 6.332 9.46895L7.062 7.45695C7.445 6.39095 7.762 5.51595 7.766 5.50695C7.773 5.49195 7.781 5.51595 7.856 5.78095C8.113 6.67595 8.109 6.66095 8.199 6.84395C8.39403 7.23276 8.71126 7.54682 9.102 7.73795C9.344 7.85495 9.574 7.91795 9.848 7.93795C9.906 7.94495 10.133 7.94495 10.523 7.94495C11.164 7.94095 11.148 7.94095 11.27 7.90595C11.3961 7.87096 11.514 7.81143 11.617 7.73077C11.72 7.65011 11.8061 7.54991 11.8702 7.43592C11.9344 7.32192 11.9755 7.19638 11.9911 7.06648C12.0067 6.93658 11.9964 6.80489 11.961 6.67895C11.9147 6.5091 11.8241 6.35461 11.6984 6.23127C11.5728 6.10792 11.4167 6.02016 11.246 5.97695C11.133 5.94895 11.113 5.94495 10.531 5.94495H9.984L9.977 5.91795C9.973 5.89795 9.757 5.15995 9.5 4.26995C9.34299 3.71371 9.18165 3.15869 9.016 2.60495C8.93857 2.40024 8.8078 2.21997 8.63725 2.08282C8.46669 1.94567 8.26255 1.85664 8.046 1.82495C7.93346 1.81229 7.82005 1.80928 7.707 1.81595Z" fill="currentColor"/>
</g>
<defs>
<clipPath id="clip0_2538_26355">
<rect width="12" height="12" fill="white"/>
</clipPath>
</defs>
</svg>
