<svg width="12" height="12" viewBox="0 0 12 12" fill="none" xmlns="http://www.w3.org/2000/svg">
<g clip-path="url(#clip0_2538_26640)">
<path d="M5.754 0.00390063C5.242 0.0239006 4.804 0.0779006 4.364 0.175901C3.609 0.343901 2.984 0.624901 2.559 0.983901C2.45999 1.06721 2.36831 1.15888 2.285 1.2579C2.12834 1.44849 2.03069 1.68064 2.004 1.9259C1.969 2.3859 2.246 2.8279 2.797 3.1959C3.777 3.8479 5.43 4.1409 7.016 3.9339C7.918 3.8159 8.73 3.5349 9.277 3.1479C9.883 2.7149 10.121 2.1799 9.941 1.6559C9.88123 1.5001 9.79682 1.35492 9.691 1.2259C9.60844 1.13479 9.51991 1.04926 9.426 0.969901C8.809 0.452901 7.75 0.104901 6.566 0.0189006C6.29566 0.00252827 6.02476 -0.00247614 5.754 0.00390063ZM2.387 4.2699C2.30106 4.28685 2.22126 4.32661 2.15598 4.38503C2.0907 4.44345 2.04235 4.51836 2.016 4.6019L2 4.6449V5.3089C1.996 6.0079 2 6.0979 2.023 6.2069C2.117 6.6719 2.539 7.1049 3.211 7.4339C3.793 7.7139 4.508 7.8979 5.301 7.9689C5.566 7.9919 5.652 7.9959 6.004 7.9959C6.344 7.9959 6.422 7.9919 6.672 7.9729C7.762 7.8789 8.734 7.5629 9.348 7.0929C9.695 6.8279 9.914 6.5199 9.98 6.2029C10 6.0929 10.004 5.9999 10 5.3129C10 4.6529 10 4.6479 9.984 4.6049C9.95407 4.49433 9.88284 4.39947 9.785 4.3399C9.69883 4.28473 9.5983 4.25621 9.496 4.2579C9.40406 4.25798 9.31373 4.28211 9.234 4.3279C8.55865 4.64567 7.8357 4.8504 7.094 4.9339C6.73111 4.97882 6.36564 4.99953 6 4.9959C5.508 4.9959 5.102 4.9689 4.656 4.8979C4.00299 4.80272 3.36752 4.61201 2.77 4.3319C2.645 4.2729 2.598 4.2579 2.5 4.2619C2.46 4.2619 2.41 4.2659 2.387 4.2699ZM2.43 8.2619C2.31041 8.27776 2.1999 8.33425 2.117 8.4219C2.05351 8.48778 2.01375 8.57292 2.004 8.6639C1.996 8.7339 1.996 9.9689 2.004 10.0699C2.024 10.3049 2.117 10.5309 2.285 10.7379C2.379 10.8549 2.539 11.0119 2.68 11.1129C3.543 11.7529 5.055 12.0899 6.57 11.9799C7.691 11.8979 8.684 11.5859 9.32 11.1129C9.46 11.0119 9.621 10.8549 9.715 10.7379C9.848 10.5739 9.941 10.3829 9.977 10.2029C10 10.0979 10.004 9.9999 10 9.3089C10 8.5629 10.004 8.6249 9.953 8.5229C9.89609 8.41845 9.80452 8.33714 9.69408 8.29296C9.58364 8.24878 9.46125 8.24452 9.348 8.2809C9.328 8.2849 9.266 8.3159 9.203 8.3439C8.426 8.7139 7.512 8.9299 6.473 8.9879C6.414 8.9919 6.253 8.9959 6.113 8.9999C4.883 9.0159 3.719 8.7849 2.785 8.3359C2.73343 8.31385 2.68142 8.29284 2.629 8.2729C2.56349 8.2576 2.4958 8.25388 2.429 8.2619H2.43Z" fill="currentColor"/>
</g>
<defs>
<clipPath id="clip0_2538_26640">
<rect width="12" height="12" fill="white"/>
</clipPath>
</defs>
</svg>
