<svg width="12" height="12" viewBox="0 0 12 12" fill="none" xmlns="http://www.w3.org/2000/svg">
<g clip-path="url(#clip0_2538_27688)">
<path d="M7.094 1.00791C6.16 1.05491 5.43 1.39091 4.945 1.99591C4.879 2.07791 4.785 2.21891 4.73 2.31291C4.53752 2.66204 4.41427 3.04505 4.367 3.44091C4.34 3.66091 4.34 3.64791 4.336 4.59791L4.332 5.49991H2.625L2.543 5.42591C2.42793 5.31085 2.29442 5.21588 2.148 5.14491C1.949 5.05091 1.73 5.00391 1.5 5.00391C1.164 5.00391 0.866997 5.10191 0.597997 5.30091C0.495474 5.38517 0.400145 5.47782 0.312997 5.57791C0.085997 5.87491 -0.027003 6.25791 0.00799703 6.62791C0.046997 7.10191 0.304997 7.51991 0.706997 7.77291C0.733997 7.79291 0.796997 7.82391 0.846997 7.84791C1.1243 7.98191 1.43607 8.02749 1.74012 7.97849C2.04418 7.92948 2.32584 7.78825 2.547 7.57391L2.625 7.49991H4.335V8.34391C4.335 9.20391 4.335 9.27691 4.359 9.48391C4.469 10.4999 4.957 11.2579 5.766 11.6639C6.152 11.8589 6.582 11.9639 7.109 11.9919C7.269 12.0039 11.027 12.0039 11.102 11.9919C11.282 11.9719 11.457 11.9059 11.598 11.8009C11.6793 11.7355 11.7525 11.6607 11.816 11.5779C12.031 11.2699 12.059 10.8549 11.883 10.5279C11.8128 10.3978 11.7147 10.2848 11.5958 10.197C11.4769 10.1092 11.34 10.0487 11.195 10.0199L11.137 10.0039L9.145 9.99991C7.691 9.99991 7.137 9.99591 7.098 9.99191C6.836 9.95691 6.695 9.91391 6.582 9.82791C6.457 9.72991 6.387 9.56991 6.344 9.26191C6.34 9.22691 6.336 8.97191 6.336 8.35491L6.332 7.49991H8.692C10.32 7.49991 11.062 7.49991 11.102 7.49191C11.282 7.47191 11.457 7.40591 11.598 7.30091C11.6793 7.23552 11.7525 7.16066 11.816 7.07791C12.031 6.76991 12.059 6.35491 11.883 6.02791C11.8128 5.8978 11.7147 5.7848 11.5958 5.69699C11.4769 5.60917 11.34 5.5487 11.195 5.51991L11.137 5.50391H8.734L6.336 5.49991V4.69091C6.336 4.18791 6.336 3.85091 6.34 3.80491C6.36 3.55091 6.418 3.35491 6.508 3.24591C6.602 3.12491 6.778 3.05091 7.055 3.01191C7.121 3.00391 7.297 3.00391 9.125 2.99991C10.985 2.99591 11.121 2.99591 11.168 2.98791C11.2686 2.96787 11.3658 2.93388 11.457 2.88691C11.5835 2.82254 11.6948 2.73184 11.7834 2.62091C11.8719 2.50998 11.9357 2.38139 11.9705 2.24376C12.0053 2.10613 12.0102 1.96266 11.9849 1.82298C11.9596 1.68329 11.9048 1.55063 11.824 1.43391C11.6751 1.22043 11.45 1.07225 11.195 1.01991L11.137 1.00391H9.133C8.031 1.00391 7.114 1.00391 7.094 1.00791Z" fill="currentColor"/>
</g>
<defs>
<clipPath id="clip0_2538_27688">
<rect width="12" height="12" fill="white"/>
</clipPath>
</defs>
</svg>
