<svg width="12" height="12" viewBox="0 0 12 12" fill="none" xmlns="http://www.w3.org/2000/svg">
<g clip-path="url(#clip0_2538_27974)">
<path d="M2.879 0.004C2.41365 0.0322693 1.97279 0.222221 1.63262 0.541026C1.29246 0.85983 1.07435 1.28746 1.016 1.75C1.004 1.82 1.004 1.977 1.004 6C1.004 10.023 1.004 10.176 1.016 10.25C1.07402 10.7083 1.28907 11.1324 1.62454 11.45C1.96002 11.7676 2.39519 11.9591 2.856 11.992C2.961 12.004 9.039 12.004 9.148 11.992C9.58248 11.9598 9.99459 11.7867 10.3218 11.499C10.649 11.2113 10.8734 10.8248 10.961 10.398C10.996 10.203 10.996 10.406 10.996 8.055C11 5.727 11 5.875 10.965 5.742C10.9187 5.57289 10.8292 5.41875 10.7052 5.29477C10.5813 5.17079 10.4271 5.08126 10.258 5.035C10.12 5 10.254 5 8.48 4.996H6.863L6.805 4.98C6.59672 4.93897 6.40703 4.83241 6.26363 4.67588C6.12024 4.51935 6.03066 4.32107 6.008 4.11C5.99979 3.57571 5.99713 3.04135 6 2.507C6 1.444 6 0.937 5.992 0.897C5.97089 0.663333 5.8653 0.445383 5.695 0.284C5.53539 0.125754 5.32579 0.0278433 5.102 0.007C5.062 0 4.699 0 3.972 0C3.388 0 2.896 0.004 2.88 0.004H2.879Z" fill="currentColor"/>
<path d="M7.438 0.21C7.34533 0.224371 7.25788 0.262241 7.184 0.32C7.1051 0.38631 7.04796 0.474806 7.02 0.574L7.004 0.617V1.867C7.004 3.043 7.004 3.125 7.016 3.176C7.046 3.328 7.106 3.465 7.196 3.594C7.211 3.614 7.254 3.664 7.296 3.707C7.473 3.883 7.684 3.977 7.937 3.997C7.989 4 8.445 4 9.195 4C10.488 4 10.387 4 10.48 3.965C10.5684 3.92815 10.6447 3.86715 10.7 3.78898C10.7554 3.71081 10.7876 3.61863 10.793 3.523C10.7967 3.42765 10.7738 3.33315 10.727 3.25C10.699 3.207 10.594 3.098 9.254 1.758C8.234 0.734 7.8 0.308 7.774 0.289C7.67566 0.221105 7.55516 0.193214 7.437 0.211L7.438 0.21Z" fill="currentColor"/>
</g>
<defs>
<clipPath id="clip0_2538_27974">
<rect width="12" height="12" fill="white"/>
</clipPath>
</defs>
</svg>
