<svg width="12" height="12" viewBox="0 0 12 12" fill="none" xmlns="http://www.w3.org/2000/svg">
<path d="M7.2 1.22993C7.01207 1.24948 6.83339 1.32131 6.68421 1.43726C6.53503 1.55321 6.42133 1.70864 6.356 1.88593C6.344 1.91793 5.636 4.54293 5.636 4.55493C5.37565 4.38371 5.09477 4.24596 4.8 4.14493C4.59831 4.07995 4.3906 4.03539 4.18 4.01193C3.99243 4.00156 3.8044 4.0029 3.617 4.01593C3.3406 4.04855 3.07004 4.11922 2.813 4.22593C2.68799 4.2839 2.56523 4.34662 2.445 4.41393C1.93791 4.72229 1.50987 5.14485 1.195 5.64793C1.13448 5.73786 1.08606 5.83536 1.051 5.93793C1.0144 6.04046 0.998424 6.14921 1.004 6.25793C1.004 6.36293 1.008 6.39093 1.02 6.44493C1.06222 6.65144 1.16824 6.83947 1.32308 6.98248C1.47793 7.12548 1.67379 7.21624 1.883 7.24193C1.965 7.25393 2.117 7.24593 2.195 7.22993C2.453 7.17593 2.691 7.01993 2.828 6.80893C2.938 6.64093 2.968 6.59393 3.016 6.53493C3.043 6.49993 3.098 6.43693 3.136 6.39793C3.34 6.19093 3.555 6.05793 3.77 6.01593C3.86923 5.99843 3.97076 5.99843 4.07 6.01593C4.277 6.06193 4.512 6.18693 4.742 6.38593C4.828 6.45693 4.945 6.56593 5.004 6.63293L5.063 6.69493L4.656 8.21493C4.434 9.04693 4.246 9.75793 4.238 9.78893C4.223 9.86693 4.223 10.0389 4.238 10.1209C4.312 10.5229 4.613 10.8399 5.012 10.9259C5.17861 10.9637 5.35212 10.9582 5.516 10.9099C5.82 10.8159 6.059 10.5859 6.164 10.2929C6.176 10.2529 6.625 8.59793 6.734 8.18293L6.738 8.15993L6.773 8.17993C6.836 8.20993 6.941 8.25793 7.035 8.29293C7.672 8.54293 8.335 8.56593 8.965 8.35493C9.36312 8.21948 9.73075 8.00713 10.047 7.72993C10.148 7.64493 10.371 7.42193 10.461 7.31593C10.637 7.10893 10.848 6.80493 10.911 6.66793C10.9761 6.5248 11.0053 6.36791 10.996 6.21093C10.9863 5.9477 10.8729 5.69899 10.6805 5.51911C10.4881 5.33924 10.2323 5.24283 9.969 5.25093C9.922 5.25393 9.859 5.25793 9.832 5.26593C9.62741 5.30041 9.43885 5.39837 9.293 5.54593C9.211 5.62893 9.215 5.62493 9.09 5.81593C8.93 6.06293 8.691 6.28893 8.469 6.40193C8.391 6.43693 8.348 6.45693 8.273 6.47693C8.17331 6.50005 8.0701 6.50379 7.969 6.48793C7.79154 6.455 7.62354 6.38329 7.477 6.27793C7.41053 6.23438 7.34644 6.18732 7.285 6.13693L7.773 4.30493C8.043 3.30093 8.27 2.45293 8.273 2.42493C8.30456 2.27191 8.29975 2.11361 8.25896 1.96279C8.21817 1.81197 8.14253 1.67283 8.03815 1.55657C7.93376 1.44032 7.80354 1.3502 7.65796 1.29346C7.51239 1.23673 7.35552 1.21497 7.2 1.22993Z" fill="currentColor"/>
</svg>
