<svg width="12" height="12" viewBox="0 0 12 12" fill="none" xmlns="http://www.w3.org/2000/svg">
<path d="M6.723 0.226964C6.433 0.256964 6.168 0.406964 6 0.644964C5.94499 0.726102 5.90032 0.813778 5.867 0.905964C5.855 0.933964 5.691 1.54596 5.5 2.26596C5.305 2.98796 5.148 3.57796 5.145 3.58196C5.145 3.58196 5.102 3.55896 5.051 3.52696C4.62799 3.24108 4.14088 3.06416 3.633 3.01196C3.4612 3.00023 3.2888 3.00023 3.117 3.01196C2.74327 3.05396 2.38125 3.16807 2.051 3.34796C1.363 3.71496 0.737997 4.37496 0.269997 5.22996C0.209997 5.33996 0.0939965 5.57796 0.0699965 5.63696C-0.0470035 5.93396 -0.0120035 6.27696 0.159997 6.54296C0.258723 6.69442 0.396478 6.81644 0.558744 6.89617C0.72101 6.97589 0.901778 7.01037 1.082 6.99596C1.32061 6.97604 1.544 6.87056 1.711 6.69896C1.809 6.60196 1.848 6.54296 1.945 6.34396C2.203 5.81996 2.535 5.40996 2.879 5.17996C3.149 4.99996 3.383 4.95696 3.652 5.04696C3.809 5.09696 4.02 5.22696 4.211 5.39096C4.281 5.44896 4.547 5.71496 4.559 5.73796C4.566 5.74996 4.504 5.98396 3.91 8.19896C3.547 9.54696 3.25 10.672 3.242 10.695C3.19304 10.956 3.24938 11.2258 3.39872 11.4454C3.54806 11.665 3.77825 11.8166 4.039 11.867C4.089 11.879 4.117 11.879 4.227 11.879C4.34 11.879 4.363 11.879 4.418 11.867C4.63026 11.8228 4.82291 11.7121 4.968 11.551C5.05749 11.4512 5.12556 11.3341 5.168 11.207C5.18 11.184 5.391 10.398 5.641 9.46096L6.098 7.75796L6.207 7.86796C6.5 8.15196 6.766 8.36296 7.051 8.53896C7.469 8.78896 7.887 8.93796 8.34 8.98896C8.465 8.99996 8.758 8.99996 8.883 8.98896C9.34293 8.93547 9.78418 8.77595 10.172 8.52296C10.828 8.10496 11.437 7.38696 11.852 6.53496C11.922 6.38696 11.942 6.34796 11.961 6.27296C12.0211 6.05974 12.0087 5.83259 11.9257 5.62718C11.8428 5.42177 11.694 5.24972 11.5026 5.13804C11.3113 5.02635 11.0883 4.98136 10.8687 5.01013C10.649 5.03889 10.4451 5.13978 10.289 5.29696C10.1989 5.39001 10.1261 5.49837 10.074 5.61696C9.75 6.28896 9.297 6.79296 8.871 6.94896C8.78775 6.98221 8.69861 6.9982 8.609 6.99596C8.4683 6.99531 8.33004 6.95919 8.207 6.89096C7.859 6.71896 7.48 6.35896 7.086 5.81596C7.017 5.72126 6.95032 5.6249 6.886 5.52696L6.75 5.31996L7.266 3.39796C7.551 2.33996 7.789 1.44496 7.793 1.41396C7.80736 1.35138 7.81275 1.28707 7.809 1.22296C7.81278 1.1572 7.8074 1.09124 7.793 1.02696C7.74168 0.776084 7.59644 0.554292 7.387 0.406964C7.19193 0.274598 6.95821 0.211241 6.723 0.226964Z" fill="currentColor"/>
</svg>
