<svg width="12" height="12" viewBox="0 0 12 12" fill="none" xmlns="http://www.w3.org/2000/svg">
<path d="M1.363 4.5081C1.11579 4.5285 0.877918 4.61181 0.671998 4.7501C0.49645 4.86538 0.347257 5.01647 0.234203 5.19347C0.121149 5.37046 0.046788 5.56935 0.0159975 5.7771C0.000323415 5.92535 0.000323415 6.07484 0.0159975 6.2231C0.052702 6.41647 0.127134 6.60072 0.235045 6.76532C0.342955 6.92993 0.482231 7.07167 0.644919 7.18245C0.807607 7.29323 0.990522 7.37088 1.18322 7.41097C1.37592 7.45106 1.57463 7.4528 1.768 7.4161C1.96137 7.37939 2.14562 7.30496 2.31022 7.19705C2.47483 7.08914 2.61657 6.94986 2.72735 6.78718C2.83813 6.62449 2.91578 6.44157 2.95587 6.24888C2.99596 6.05618 2.9977 5.85747 2.961 5.6641C2.851 5.1681 2.481 4.7541 2 4.5861C1.84929 4.53297 1.69079 4.50526 1.531 4.5041C1.465 4.5001 1.391 4.5041 1.363 4.5081ZM5.863 4.5081C5.61579 4.5285 5.37792 4.61181 5.172 4.7501C4.99645 4.86538 4.84726 5.01647 4.7342 5.19347C4.62115 5.37046 4.54679 5.56935 4.516 5.7771C4.508 5.8471 4.504 5.8871 4.504 6.0001C4.504 6.1131 4.508 6.1521 4.516 6.2231C4.5527 6.41647 4.62713 6.60072 4.73504 6.76532C4.84296 6.92993 4.98223 7.07167 5.14492 7.18245C5.30761 7.29323 5.49052 7.37088 5.68322 7.41097C5.87592 7.45106 6.07463 7.4528 6.268 7.4161C6.46137 7.37939 6.64562 7.30496 6.81022 7.19705C6.97483 7.08914 7.11657 6.94986 7.22735 6.78718C7.33813 6.62449 7.41578 6.44157 7.45587 6.24888C7.49596 6.05618 7.4977 5.85747 7.461 5.6641C7.351 5.1681 6.981 4.7541 6.5 4.5861C6.34929 4.53297 6.19079 4.50526 6.031 4.5041C5.965 4.5001 5.891 4.5041 5.863 4.5081ZM10.363 4.5081C10.1158 4.5285 9.87792 4.61181 9.672 4.7501C9.49645 4.86538 9.34726 5.01647 9.2342 5.19347C9.12115 5.37046 9.04679 5.56935 9.016 5.7771C9.008 5.8471 9.004 5.8871 9.004 6.0001C9.004 6.1131 9.008 6.1521 9.016 6.2231C9.09013 6.61363 9.31635 6.95872 9.64492 7.18245C9.97348 7.40618 10.3775 7.49023 10.768 7.4161C11.1585 7.34197 11.5036 7.11574 11.7273 6.78718C11.9511 6.45861 12.0351 6.05463 11.961 5.6641C11.851 5.1681 11.481 4.7541 11 4.5861C10.8493 4.53297 10.6908 4.50526 10.531 4.5041C10.465 4.5001 10.391 4.5041 10.363 4.5081Z" fill="currentColor"/>
</svg>
