<svg width="12" height="12" viewBox="0 0 12 12" fill="none" xmlns="http://www.w3.org/2000/svg">
<path d="M5.922 3.60511C5.622 3.62911 5.367 3.74211 5.141 3.94911C5.101 3.98411 4.527 4.55911 3.863 5.22311C2.59 6.49611 2.613 6.47311 2.535 6.60511C2.39327 6.84094 2.33331 7.11693 2.3644 7.3903C2.3955 7.66367 2.51592 7.91915 2.707 8.11711C2.91 8.32811 3.145 8.44511 3.453 8.49211C3.516 8.50011 8.305 8.50411 8.457 8.49611C8.507 8.49211 8.574 8.48811 8.605 8.48011C8.875 8.43411 9.105 8.31211 9.301 8.11311C9.49693 7.90617 9.61678 7.63883 9.64095 7.35488C9.66511 7.07093 9.59214 6.78719 9.434 6.55011C9.367 6.45711 9.281 6.37111 8.082 5.16811C6.734 3.82011 6.782 3.86811 6.637 3.78111C6.49768 3.6984 6.34398 3.64276 6.184 3.61711C6.09702 3.60743 6.0095 3.60342 5.922 3.60511Z" fill="currentColor"/>
</svg>
