<svg width="12" height="12" viewBox="0 0 12 12" fill="none" xmlns="http://www.w3.org/2000/svg">
<g clip-path="url(#clip0_2538_30541)">
<path d="M2.914 0.00399556C2.73346 0.0198206 2.56062 0.0844619 2.414 0.190996C2.375 0.219996 2.121 0.469996 1.293 1.293C0.121002 2.469 0.183002 2.403 0.109002 2.551C0.0378305 2.68996 0.000714232 2.84386 0.000714232 3C0.000714232 3.15613 0.0378305 3.31003 0.109002 3.449C0.309002 3.852 0.758002 4.07 1.203 3.977C1.33022 3.95092 1.45114 3.90031 1.559 3.828C1.625 3.785 1.652 3.758 2.703 2.703C3.758 1.653 3.785 1.625 3.828 1.559C3.92368 1.41545 3.98077 1.24968 3.99375 1.07766C4.00672 0.905642 3.97516 0.733181 3.9021 0.576908C3.82904 0.420635 3.71694 0.285824 3.57663 0.185474C3.43631 0.0851249 3.2725 0.0226228 3.101 0.00399556C3.03873 0.000106337 2.97627 0.000106337 2.914 0.00399556ZM6.89 0.00399556C6.70515 0.026956 6.52995 0.0995217 6.383 0.213996C6.359 0.234996 4.96 1.63 3.277 3.314C-0.0429978 6.636 0.184002 6.402 0.113002 6.543C0.0340752 6.6946 -0.0044244 6.864 0.00122155 7.03483C0.00686751 7.20566 0.0564683 7.37215 0.145233 7.51821C0.233999 7.66428 0.358929 7.78499 0.507958 7.86868C0.656987 7.95237 0.82508 7.99622 0.996002 7.996C1.106 7.996 1.133 7.992 1.188 7.98C1.348 7.95 1.504 7.875 1.625 7.781C1.668 7.746 7.73 1.688 7.77 1.637C7.91794 1.4567 7.99792 1.23021 7.996 0.996996C7.99943 0.93389 7.99405 0.870614 7.98 0.808996C7.92881 0.552498 7.78048 0.325704 7.566 0.175996C7.36756 0.0425487 7.1281 -0.0182146 6.89 0.00399556ZM10.91 0.00399556C10.727 0.0239956 10.562 0.0859956 10.406 0.194996C10.367 0.222996 9.254 1.335 5.293 5.293C-0.159997 10.746 0.199002 10.383 0.125002 10.52C0.0227563 10.7094 -0.0156489 10.9267 0.0154943 11.1397C0.0466374 11.3527 0.145667 11.5499 0.297865 11.7021C0.450063 11.8543 0.647306 11.9534 0.860281 11.9845C1.07326 12.0156 1.2906 11.9772 1.48 11.875C1.617 11.801 1.254 12.16 6.707 6.707C12.16 1.254 11.801 1.617 11.875 1.48C11.9546 1.33572 11.9971 1.17395 11.9988 1.0092C12.0004 0.844445 11.9612 0.681848 11.8846 0.535976C11.808 0.390105 11.6964 0.265515 11.5598 0.173369C11.4233 0.0812244 11.2659 0.0244027 11.102 0.00799556C11.0383 0.000811229 10.974 -0.000527682 10.91 0.00399556ZM10.855 4.012C10.7502 4.02713 10.6488 4.05993 10.555 4.109C10.395 4.188 10.672 3.918 7.313 7.273C6.28292 8.30058 5.25525 9.33058 4.23 10.363C4.07919 10.545 3.99799 10.7746 4.00092 11.0109C4.00385 11.2473 4.09072 11.4748 4.246 11.653C4.41076 11.8442 4.64192 11.9659 4.89285 11.9933C5.14377 12.0208 5.39577 11.9521 5.598 11.801C5.645 11.766 6.27 11.145 8.718 8.691C12.043 5.363 11.816 5.598 11.887 5.457C11.9582 5.31961 11.9965 5.16756 11.9988 5.01284C12.0012 4.85811 11.9675 4.70497 11.9005 4.5655C11.8335 4.42602 11.7349 4.30405 11.6127 4.2092C11.4904 4.11436 11.3478 4.04924 11.196 4.019C11.0834 4.00299 10.9692 4.00064 10.856 4.012H10.855ZM10.918 8.00399C10.7475 8.01948 10.5836 8.07722 10.441 8.172C10.375 8.215 10.348 8.24199 9.297 9.297C8.242 10.347 8.215 10.375 8.172 10.441C8.08535 10.5684 8.02965 10.7144 8.00934 10.8671C7.98902 11.0199 8.00466 11.1753 8.055 11.321C8.10053 11.4565 8.1747 11.5805 8.27246 11.6847C8.37023 11.789 8.4893 11.8709 8.62157 11.925C8.75384 11.9791 8.89621 12.004 9.03899 11.9982C9.18177 11.9923 9.32161 11.9557 9.449 11.891C9.598 11.816 9.531 11.879 10.707 10.707C11.879 9.531 11.817 9.597 11.891 9.449C11.9622 9.31003 11.9993 9.15613 11.9993 9C11.9993 8.84386 11.9622 8.68996 11.891 8.55099C11.8144 8.3973 11.6992 8.2661 11.5567 8.17023C11.4142 8.07436 11.2492 8.01708 11.078 8.00399C11.025 7.9962 10.9711 7.9962 10.918 8.00399Z" fill="currentColor"/>
</g>
<defs>
<clipPath id="clip0_2538_30541">
<rect width="12" height="12" fill="white"/>
</clipPath>
</defs>
</svg>
