<svg width="12" height="12" viewBox="0 0 12 12" fill="none" xmlns="http://www.w3.org/2000/svg">
<g clip-path="url(#clip0_2538_30256)">
<path d="M6.89 0.00399556C6.70514 0.026956 6.52995 0.0995217 6.383 0.213996C6.359 0.233996 5.859 0.729996 5.277 1.313C4.137 2.453 4.187 2.403 4.117 2.531C4.00234 2.74925 3.97199 3.00207 4.03174 3.24126C4.0915 3.48045 4.23717 3.6893 4.441 3.828C4.61275 3.94428 4.81646 4.00417 5.02381 3.99933C5.23117 3.99449 5.43186 3.92517 5.598 3.801C5.633 3.777 5.973 3.441 6.691 2.723C7.266 2.148 7.75 1.66 7.77 1.637C7.91794 1.4567 7.99792 1.23021 7.996 0.996996C7.99943 0.93389 7.99404 0.870614 7.98 0.808996C7.9288 0.552498 7.78047 0.325704 7.566 0.175996C7.36756 0.0425487 7.1281 -0.0182146 6.89 0.00399556ZM6.875 4.008C6.68 4.035 6.496 4.118 6.348 4.242C6.266 4.312 4.242 6.344 4.207 6.391C4.11433 6.51467 4.05044 6.65748 4.02 6.809C4.00605 6.87029 4.00066 6.93322 4.004 6.996C4.0035 7.14577 4.03557 7.29385 4.098 7.43C4.19306 7.63121 4.35441 7.79362 4.555 7.89C4.65149 7.94298 4.75754 7.97629 4.867 7.988C4.953 8.004 5.109 7.996 5.195 7.98C5.367 7.945 5.52 7.867 5.652 7.758C5.734 7.688 7.758 5.656 7.793 5.605C7.88627 5.48317 7.95025 5.34151 7.98 5.191C7.99373 5.12967 7.99911 5.06677 7.996 5.004C7.99906 4.9399 7.99368 4.87569 7.98 4.813C7.93458 4.57965 7.809 4.36952 7.625 4.219C7.49717 4.12061 7.34884 4.05226 7.191 4.019C7.08639 4.00374 6.98042 4.00005 6.875 4.008ZM6.914 8.00399C6.72253 8.02277 6.54006 8.09445 6.387 8.211C6.336 8.25 4.281 10.301 4.23 10.363C4.07918 10.545 3.99798 10.7746 4.00092 11.0109C4.00385 11.2473 4.09072 11.4748 4.246 11.653C4.41076 11.8442 4.64192 11.9659 4.89284 11.9933C5.14377 12.0208 5.39577 11.9521 5.598 11.801C5.645 11.766 5.887 11.527 6.715 10.695C7.08142 10.3311 7.44477 9.96405 7.805 9.594C7.91657 9.44059 7.98268 9.25886 7.99577 9.06963C8.00885 8.88039 7.96839 8.6913 7.879 8.524C7.809 8.391 7.679 8.25399 7.559 8.172C7.36856 8.04606 7.14168 7.98696 6.914 8.00399Z" fill="currentColor"/>
</g>
<defs>
<clipPath id="clip0_2538_30256">
<rect width="12" height="12" fill="white"/>
</clipPath>
</defs>
</svg>
