<svg width="12" height="12" viewBox="0 0 12 12" fill="none" xmlns="http://www.w3.org/2000/svg">
<path d="M1.918 2.00401C1.7018 2.02191 1.49728 2.10962 1.33529 2.25393C1.17331 2.39824 1.06265 2.59131 1.02 2.80401L1.004 2.86701V9.13301L1.02 9.19101C1.0605 9.40731 1.17199 9.60392 1.33681 9.74972C1.50163 9.89553 1.71038 9.9822 1.93 9.99601C2.18854 10.0145 2.44411 9.93144 2.6424 9.76451C2.8407 9.59758 2.96611 9.35992 2.992 9.10201C3.004 9.01601 3.004 2.98401 2.992 2.89801C2.97198 2.69778 2.89196 2.50826 2.76242 2.35427C2.63288 2.20028 2.45985 2.08901 2.266 2.03501C2.15227 2.00692 2.0349 1.99647 1.918 2.00401ZM9.914 2.00401C9.7948 2.01542 9.67844 2.04722 9.57 2.09801C9.492 2.13701 4.465 5.15201 4.398 5.20301C4.348 5.24301 4.254 5.32801 4.218 5.37501C4.12193 5.50249 4.0544 5.64914 4.02 5.80501C4.00593 5.869 4.00054 5.93459 4.004 6.00001C4.004 6.11701 4.008 6.14001 4.02 6.19101C4.055 6.35101 4.125 6.50401 4.219 6.62501C4.254 6.67201 4.348 6.75801 4.399 6.79701C4.465 6.84701 9.492 9.86301 9.57 9.90201C9.773 10 10 10.023 10.219 9.97701C10.559 9.89801 10.836 9.64801 10.949 9.31701C10.9857 9.21556 11.0017 9.10776 10.996 9.00001C10.9995 8.93459 10.9941 8.869 10.98 8.80501C10.9294 8.55955 10.7907 8.34112 10.59 8.19101C10.563 8.17601 9.734 7.67601 8.746 7.08201L6.95 6.00001L10.591 3.80801C10.794 3.65601 10.927 3.44501 10.981 3.19101C10.995 3.12838 11.0001 3.06407 10.996 3.00001C11.0016 2.8926 10.9856 2.78516 10.949 2.68401C10.8934 2.52103 10.7973 2.37489 10.6695 2.25941C10.5418 2.14393 10.3867 2.06291 10.219 2.02401C10.1189 2.00191 10.0161 1.99517 9.914 2.00401Z" fill="currentColor"/>
</svg>
