<svg width="12" height="12" viewBox="0 0 12 12" fill="none" xmlns="http://www.w3.org/2000/svg">
<path d="M0.889999 0.00805033C0.820417 0.0150546 0.751729 0.0291272 0.684999 0.0500503C0.509523 0.108693 0.353778 0.214913 0.235126 0.356873C0.116473 0.498832 0.0395739 0.670953 0.0129992 0.85405C-8.27014e-07 0.93005 -8.27014e-07 11.0701 0.0119992 11.1451C0.0324297 11.2902 0.0847369 11.429 0.165166 11.5515C0.245596 11.6741 0.352153 11.7773 0.477191 11.8538C0.602228 11.9302 0.742645 11.9781 0.888363 11.9939C1.03408 12.0096 1.18149 11.993 1.32 11.9451C1.41253 11.9118 1.50055 11.8671 1.582 11.8121C1.652 11.7621 1.762 11.6561 1.812 11.5821C1.91 11.4451 1.972 11.2771 1.992 11.1171C1.996 11.074 2 9.61705 1.996 5.96105V0.86305L1.98 0.79705C1.9715 0.759001 1.96149 0.721304 1.95 0.68405C1.91302 0.589897 1.86715 0.499488 1.813 0.41405C1.762 0.34405 1.653 0.23805 1.582 0.18805C1.49982 0.132872 1.41199 0.0866107 1.32 0.0500503C1.184 0.00805033 1.027 -0.00794967 0.889999 0.00805033ZM10.867 0.00805033C10.734 0.0280503 10.602 0.0740503 10.492 0.14105C10.472 0.15205 8.863 1.30105 6.914 2.69105C4.18 4.64505 3.36 5.23405 3.316 5.27305C3.16041 5.41724 3.05524 5.60758 3.016 5.81605C2.98461 5.98073 2.99568 6.15068 3.04817 6.3099C3.10065 6.46911 3.19283 6.61233 3.316 6.72605C3.359 6.76605 4.18 7.35605 6.914 9.30905C8.864 10.6991 10.473 11.8481 10.492 11.8591C10.797 12.0431 11.195 12.0431 11.504 11.8631C11.6409 11.7824 11.7567 11.6703 11.8417 11.536C11.9267 11.4018 11.9786 11.2492 11.9931 11.091C12.0076 10.9327 11.9842 10.7733 11.9249 10.6259C11.8655 10.4784 11.772 10.3472 11.652 10.2431C11.625 10.2231 10.282 9.25805 8.668 8.10505C7.051 6.95005 5.727 6.00405 5.727 6.00005C5.727 5.99605 7.051 5.05005 8.668 3.89505C10.281 2.74205 11.625 1.77705 11.652 1.75805C11.68 1.73405 11.722 1.69105 11.75 1.66405C11.9189 1.47206 12.0079 1.22265 11.9986 0.967094C11.9893 0.711536 11.8824 0.469251 11.7 0.29005C11.5558 0.145298 11.3697 0.0497574 11.168 0.0170503C11.0686 0.00273926 10.968 5.44824e-05 10.868 0.00905033L10.867 0.00805033Z" fill="currentColor"/>
</svg>
