<svg width="12" height="12" viewBox="0 0 12 12" fill="none" xmlns="http://www.w3.org/2000/svg">
<path d="M1.895 3.00398C1.598 3.03898 1.325 3.20398 1.165 3.45398C1.06247 3.60637 1.00653 3.78532 1.004 3.96898C0.993947 4.20629 1.06982 4.43928 1.21769 4.62517C1.36555 4.81106 1.5755 4.93739 1.809 4.98098L1.871 4.99598H5.973C9.672 4.99598 10.082 4.99598 10.137 4.98798C10.3445 4.96242 10.5377 4.86929 10.687 4.72298C10.844 4.57869 10.9485 4.38623 10.984 4.17598C11 4.08598 11 3.89498 10.98 3.80898C10.9629 3.72027 10.9326 3.63463 10.89 3.55498C10.8455 3.45721 10.7835 3.36841 10.707 3.29298C10.6324 3.2171 10.545 3.15484 10.449 3.10898C10.3407 3.05306 10.2231 3.01748 10.102 3.00398C10.035 2.99998 1.96 2.99998 1.895 3.00398ZM1.852 7.01198C1.66349 7.04077 1.48715 7.12291 1.34383 7.24871C1.20051 7.37451 1.09619 7.53869 1.04319 7.72188C0.990186 7.90506 0.990724 8.09959 1.04474 8.28248C1.09875 8.46537 1.20398 8.62898 1.348 8.75398C1.508 8.89398 1.688 8.96898 1.898 8.99198C1.98 9.00398 10.02 9.00398 10.102 8.99198C10.2428 8.97831 10.379 8.93465 10.5014 8.86393C10.6239 8.79321 10.7298 8.69706 10.812 8.58198C10.984 8.33998 11.039 8.03498 10.965 7.74198C10.92 7.57222 10.8309 7.4174 10.7068 7.29322C10.5826 7.16905 10.4278 7.07995 10.258 7.03498C10.125 6.99998 10.465 6.99998 5.992 7.00398C2.5 7.00398 1.898 7.00398 1.852 7.01198Z" fill="currentColor"/>
</svg>
