<svg width="12" height="12" viewBox="0 0 12 12" fill="none" xmlns="http://www.w3.org/2000/svg">
<g clip-path="url(#clip0_2538_31016)">
<path d="M0.890001 3.0081C0.731044 3.02524 0.578479 3.08009 0.445001 3.1681C0.275188 3.28176 0.144272 3.44473 0.0698771 3.63505C-0.00451808 3.82537 -0.0188217 4.03391 0.0288915 4.23261C0.0766047 4.4313 0.184044 4.61061 0.336748 4.7464C0.489452 4.88219 0.68009 4.96793 0.883001 4.9921C0.926001 4.9961 2.383 4.9961 6.039 4.9961H11.137L11.195 4.9801C11.3316 4.9491 11.4613 4.89353 11.578 4.8161C11.7389 4.70092 11.8621 4.54074 11.9321 4.35572C12.0022 4.17069 12.0159 3.96908 11.9717 3.77625C11.9274 3.58342 11.8271 3.40799 11.6834 3.27202C11.5397 3.13605 11.359 3.04562 11.164 3.0121C11.121 3.0041 10.656 3.0041 6.027 3.0041C3.227 3.0001 0.913001 3.0041 0.890001 3.0081ZM0.871001 7.0081C0.679956 7.03598 0.500154 7.11551 0.351001 7.2381C0.191001 7.3751 0.0660012 7.5781 0.0230012 7.7891C-0.00673686 7.92697 -0.00688469 8.06958 0.0225675 8.20751C0.0520196 8.34544 0.110401 8.47555 0.193857 8.58925C0.277312 8.70295 0.383941 8.79765 0.506701 8.86709C0.629461 8.93654 0.765557 8.97914 0.906001 8.9921C0.953001 9.0001 2.383 9.0001 6.043 9.0001C10.656 8.9961 11.121 8.9961 11.164 8.9881C11.32 8.9571 11.441 8.9061 11.554 8.8321C11.7217 8.72137 11.8518 8.56243 11.9273 8.37624C12.0029 8.19004 12.0202 7.98533 11.977 7.7891C11.9491 7.65506 11.8929 7.52855 11.812 7.4181C11.762 7.3481 11.656 7.2381 11.586 7.1881C11.4687 7.10637 11.336 7.04922 11.196 7.0201L11.136 7.0041H6.024C3.052 7.0041 0.895001 7.0041 0.871001 7.0081Z" fill="currentColor"/>
</g>
<defs>
<clipPath id="clip0_2538_31016">
<rect width="12" height="12" fill="white"/>
</clipPath>
</defs>
</svg>
