<svg width="12" height="12" viewBox="0 0 12 12" fill="none" xmlns="http://www.w3.org/2000/svg">
<g clip-path="url(#clip0_2538_31206)">
<path d="M2.91 0.004C2.766 0.016 2.61 0.07 2.48 0.144C2.36305 0.215607 2.26211 0.310548 2.18348 0.422899C2.10485 0.535249 2.05022 0.662598 2.023 0.797C1.99283 0.939005 1.99413 1.08589 2.02681 1.22734C2.05948 1.36879 2.12275 1.50137 2.21216 1.61574C2.30156 1.73012 2.41494 1.82353 2.54431 1.8894C2.67368 1.95526 2.81591 1.99199 2.961 1.997H3V3.516C2.996 4.914 2.996 5.036 2.988 5.098C2.96258 5.2821 2.91281 5.46201 2.84 5.633C2.785 5.758 3.023 5.336 0.8 9.262C0.406 9.961 0.07 10.555 0.059 10.578C0.047 10.605 0.027 10.648 0.019 10.676L0 10.73V11.27L0.02 11.324C0.14 11.68 0.457 11.941 0.832 11.992C0.882 12 1.656 12 6 12C10.492 12 11.11 12 11.168 11.992C11.2811 11.9775 11.3907 11.9433 11.492 11.891C11.7151 11.7741 11.8877 11.5795 11.977 11.344L11.997 11.289L12 11.008V10.73L11.98 10.68C11.973 10.648 11.953 10.605 11.941 10.578C11.93 10.555 11.598 9.961 11.199 9.262C9.469 6.207 9.258 5.832 9.227 5.777C9.13761 5.60354 9.07298 5.4184 9.035 5.227C9 5.05 9.004 5.168 9 3.516V1.996H9.04C9.28596 1.98785 9.52011 1.88857 9.69697 1.71745C9.87383 1.54632 9.98076 1.31556 9.997 1.07C10.0109 0.873053 9.96629 0.676392 9.86879 0.504708C9.7713 0.333023 9.62525 0.193968 9.449 0.105C9.34071 0.0532819 9.22436 0.0204752 9.105 0.008C9.066 0 8.121 0 5.988 0C4.308 0 2.922 0.004 2.91 0.004ZM7.004 3.559C7.008 5.234 7.004 5.149 7.035 5.371C7.09 5.777 7.207 6.176 7.379 6.551C7.441 6.687 7.477 6.746 7.855 7.418L8.184 7.996H3.816L4.145 7.418C4.523 6.746 4.559 6.688 4.621 6.551C4.836 6.09 4.957 5.609 4.992 5.094C4.996 5.039 5 4.43 5 3.508C5 2.68 5 2.004 5.004 2.004C5.004 2 5.454 2 6.004 2H7L7.004 3.559Z" fill="currentColor"/>
</g>
<defs>
<clipPath id="clip0_2538_31206">
<rect width="12" height="12" fill="white"/>
</clipPath>
</defs>
</svg>
