<svg width="12" height="12" viewBox="0 0 12 12" fill="none" xmlns="http://www.w3.org/2000/svg">
<g clip-path="url(#clip0_2538_31777)">
<path d="M1.844 0.00788776C1.57507 0.0278117 1.31305 0.102488 1.07402 0.227333C0.834993 0.352177 0.624002 0.524556 0.454 0.733888C0.189471 1.05239 0.0329454 1.44668 0.007 1.85989C0 1.92189 0 3.13289 0 6.05989L0.004 10.1689L0.016 10.2589C0.051 10.4929 0.106 10.6769 0.207 10.8789C0.313 11.0949 0.43 11.2589 0.605 11.4309C0.945 11.7669 1.379 11.9579 1.863 11.9929C1.922 11.9999 3.156 11.9999 6.06 11.9999L10.169 11.9959L10.259 11.9839C10.6229 11.9378 10.9666 11.7906 11.251 11.5589C11.6529 11.2354 11.9156 10.7702 11.985 10.2589C11.997 10.1719 11.997 10.1449 12.001 9.56989C12.001 9.15989 12.001 8.95289 11.997 8.90589C11.9849 8.78196 11.9492 8.66148 11.892 8.55089C11.7752 8.31749 11.5715 8.13927 11.3246 8.05455C11.0777 7.96983 10.8075 7.98539 10.572 8.09789C10.4688 8.14616 10.3758 8.2137 10.298 8.29689C10.2026 8.38878 10.1268 8.49898 10.075 8.62089C10.0268 8.73713 10.0029 8.86205 10.005 8.98789C9.997 9.12789 9.981 9.21789 9.95 9.31289C9.88845 9.49925 9.77343 9.66338 9.61926 9.78483C9.46509 9.90628 9.27859 9.97968 9.083 9.99589C9.035 9.99989 8.117 9.99989 5.953 9.99989H2.891L2.824 9.98389C2.60823 9.94533 2.41111 9.83696 2.26296 9.67543C2.1148 9.5139 2.02382 9.30817 2.004 9.08989C1.996 9.00389 1.996 2.99589 2.004 2.90989C2.02394 2.70131 2.10846 2.50414 2.24576 2.34586C2.38307 2.18759 2.56632 2.07608 2.77 2.02689C2.871 2.00389 2.879 2.00389 3.512 1.99689C4.125 1.99689 4.129 1.99689 4.192 1.97989C4.41963 1.93517 4.62452 1.8124 4.7713 1.63276C4.91808 1.45311 4.99755 1.22787 4.996 0.995888C4.99924 0.933447 4.99386 0.870857 4.98 0.809888C4.94013 0.599223 4.83281 0.407246 4.67425 0.262932C4.51568 0.118619 4.31448 0.0298018 4.101 0.00988776C3.34903 0.00108752 2.59699 8.74647e-05 1.845 0.00688776L1.844 0.00788776Z" fill="currentColor"/>
<path d="M7.926 0.417888C7.70085 0.43687 7.48806 0.528867 7.32 0.679888C7.16448 0.820849 7.05915 1.00867 7.02 1.21489L7.004 1.28089V1.92989L7 2.58189L6.973 2.58989C6.801 2.65589 6.703 2.69989 6.609 2.73789C5.602 3.19989 4.766 3.97289 4.133 5.03989C3.96781 5.32081 3.82019 5.6117 3.691 5.91089C3.39153 6.62473 3.18549 7.37427 3.078 8.14089C3.05785 8.28224 3.0435 8.42436 3.035 8.56689C3.035 8.89589 3.281 9.18089 3.621 9.23889C3.7066 9.25062 3.7934 9.25062 3.879 9.23889C3.98992 9.21712 4.0951 9.17255 4.18788 9.108C4.28067 9.04344 4.35903 8.96032 4.418 8.86389C4.496 8.74689 4.535 8.64589 4.574 8.44589C4.63999 8.0952 4.75583 7.75576 4.918 7.43789C5.16631 6.96541 5.51434 6.55255 5.938 6.22789C6.26165 5.98004 6.6176 5.77751 6.996 5.62589C7 5.62589 7.004 5.87189 7.004 6.17589C7.004 6.65289 7.008 6.73089 7.016 6.77089C7.05119 6.96391 7.14351 7.14192 7.281 7.28189C7.453 7.45389 7.664 7.55589 7.914 7.58289C8.11797 7.60154 8.32271 7.55647 8.5 7.45389C8.613 7.38789 8.598 7.39889 9.973 6.02389C10.711 5.28589 11.332 4.66489 11.352 4.64189C11.461 4.50889 11.535 4.35589 11.57 4.17689C11.5862 4.05499 11.5849 3.9314 11.566 3.80989C11.5346 3.65867 11.4708 3.51606 11.379 3.39189C10.4745 2.47172 9.56318 1.55837 8.645 0.651888C8.48842 0.513698 8.2904 0.431395 8.082 0.417888C8.008 0.409888 8.012 0.409888 7.926 0.417888Z" fill="currentColor"/>
</g>
<defs>
<clipPath id="clip0_2538_31777">
<rect width="12" height="12" fill="white"/>
</clipPath>
</defs>
</svg>
