<svg width="12" height="12" viewBox="0 0 12 12" fill="none" xmlns="http://www.w3.org/2000/svg">
<path d="M2.633 0.00390625C2.4183 0.0129664 2.20681 0.0593248 2.008 0.140906C1.65306 0.279052 1.34617 0.51782 1.125 0.827906C0.958392 1.06165 0.842574 1.32769 0.785002 1.60891C0.754002 1.76891 0.746002 1.82891 0.746002 2.00791C0.746002 2.17191 0.750002 2.21091 0.773002 2.34791C0.828002 2.65591 0.969002 2.96791 1.164 3.21791C1.188 3.24991 1.848 4.05091 2.629 4.99591C3.41 5.94091 4.074 6.74991 4.105 6.78891C4.328 7.08591 4.465 7.44491 4.492 7.82391C4.496 7.87491 4.5 8.39391 4.5 9.37491C4.5 10.3589 4.5 10.8709 4.508 10.9099C4.547 11.3089 4.801 11.6249 5.188 11.7539C5.29102 11.7888 5.39926 11.8057 5.508 11.8039C5.656 11.8039 5.754 11.7849 5.883 11.7339C6.031 11.6719 6.191 11.5509 6.289 11.4179C6.329 11.3679 7.309 9.95291 7.344 9.89791C7.41479 9.78619 7.4624 9.66138 7.484 9.53091C7.496 9.48791 7.496 9.39791 7.5 8.64091C7.504 7.72691 7.504 7.77291 7.54 7.59391C7.598 7.30091 7.719 7.02391 7.895 6.78891C7.925 6.74991 8.59 5.94091 9.371 4.99591C10.152 4.05091 10.812 3.24991 10.84 3.21991C11.0145 2.99422 11.1383 2.7336 11.203 2.45578C11.2677 2.17796 11.2718 1.88946 11.215 1.60991C11.1544 1.31236 11.0277 1.0322 10.8445 0.79008C10.6612 0.547959 10.4259 0.350041 10.156 0.210906C9.94797 0.10616 9.72328 0.0384802 9.492 0.0109062C9.43 0.00490625 9.125 0.00490625 6.04 0.00490625L2.633 0.00390625ZM7.176 2.01591C7.37377 2.05142 7.55625 2.14569 7.69967 2.28643C7.84308 2.42717 7.94077 2.60784 7.98 2.80491C7.99407 2.86889 7.99946 2.93448 7.996 2.99991C7.996 3.11691 7.992 3.13991 7.98 3.19491C7.96 3.28491 7.937 3.35491 7.902 3.43391C7.762 3.72291 7.5 3.92191 7.176 3.98391L7.109 3.99991H6.047C5.309 3.99991 4.965 3.99991 4.918 3.99591C4.70159 3.97865 4.49673 3.89116 4.33463 3.74674C4.17252 3.60233 4.06204 3.4089 4.02 3.19591C4.00584 3.1316 4.00046 3.06566 4.004 2.99991C4.004 2.88291 4.008 2.85991 4.02 2.80491C4.06189 2.59448 4.17034 2.4031 4.32934 2.25904C4.48835 2.11498 4.68947 2.02588 4.903 2.00491C4.93 1.99991 5.433 1.99991 6.031 1.99991H7.11L7.176 2.01591Z" fill="currentColor"/>
</svg>
