<svg width="12" height="12" viewBox="0 0 12 12" fill="none" xmlns="http://www.w3.org/2000/svg">
<path d="M0.889999 0.00403366C0.729999 0.0270337 0.574999 0.0820337 0.445999 0.168034C0.329489 0.245567 0.230683 0.346852 0.156061 0.465247C0.081439 0.583643 0.0326861 0.716475 0.0129992 0.855034C-8.27014e-07 0.930034 -8.27014e-07 11.07 0.0119992 11.145C0.0324297 11.2902 0.0847369 11.429 0.165166 11.5515C0.245596 11.6741 0.352153 11.7773 0.477191 11.8537C0.602228 11.9302 0.742645 11.9781 0.888363 11.9938C1.03408 12.0096 1.18149 11.993 1.32 11.945C1.41253 11.9118 1.50055 11.8671 1.582 11.812C1.652 11.762 1.762 11.656 1.812 11.582C1.906 11.449 1.972 11.282 1.992 11.122C1.996 11.09 2 10.562 2 9.53903V8.00403L2.32 8.00803C4.05 8.02003 5.531 8.22303 6.777 8.61803C6.961 8.67603 7.074 8.71103 7.219 8.74603C7.769 8.89103 8.355 8.96903 9.004 8.99203C9.711 9.02003 10.527 8.95303 11.238 8.81603C11.461 8.77003 11.594 8.70303 11.727 8.57003C11.8807 8.41567 11.9761 8.21283 11.997 7.99603C12 7.95003 12 7.09003 12 4.90203C11.996 2.17603 11.996 1.87503 11.988 1.83203C11.9504 1.62277 11.8512 1.42951 11.703 1.27703C11.5642 1.13192 11.3921 1.0227 11.2017 0.958773C11.0114 0.894845 10.8083 0.878119 10.61 0.910034C10.08 0.977034 9.59 1.00003 9.103 0.988034C8.25 0.968034 7.532 0.855034 6.785 0.613034C6.09347 0.399175 5.38386 0.248884 4.665 0.164034C4.039 0.0860337 3.465 0.0430337 2.605 0.0120337C2.0337 0.00385093 1.46134 0.00118414 0.889999 0.00403366Z" fill="currentColor"/>
</svg>
