<svg width="12" height="12" viewBox="0 0 12 12" fill="none" xmlns="http://www.w3.org/2000/svg">
<path d="M2.91 2.00395C2.70428 2.0234 2.50964 2.1061 2.35284 2.24067C2.19604 2.37525 2.08477 2.55509 2.03435 2.75548C1.98392 2.95587 1.99681 3.16695 2.07124 3.35972C2.14567 3.55248 2.27799 3.71745 2.45 3.83195C2.496 3.86295 3.066 4.15195 4.633 4.93395L6.758 5.99995L4.633 7.06595C3.039 7.85895 2.496 8.13595 2.449 8.16795C2.30125 8.26325 2.18231 8.39705 2.105 8.55495C1.883 9.00395 2.027 9.55095 2.445 9.83195C2.703 10.004 3.015 10.047 3.313 9.94895C3.383 9.92595 3.746 9.74595 6.441 8.39895C8.699 7.26895 9.504 6.86295 9.551 6.83195C9.68902 6.74142 9.80236 6.61797 9.88079 6.47273C9.95922 6.32749 10.0003 6.16502 10.0003 5.99995C10.0003 5.83489 9.95922 5.67241 9.88079 5.52717C9.80236 5.38193 9.68902 5.25848 9.551 5.16795C9.504 5.13695 8.699 4.72995 6.441 3.60195C3.113 1.93795 3.328 2.04295 3.171 2.01595C3.094 2.00395 2.98 1.99595 2.91 2.00395Z" fill="currentColor"/>
</svg>
