<svg width="12" height="12" viewBox="0 0 12 12" fill="none" xmlns="http://www.w3.org/2000/svg">
<path d="M5.844 0.0740325C5.6505 0.104147 5.47014 0.190521 5.32538 0.322398C5.18062 0.454274 5.07785 0.625824 5.02988 0.815682C4.98191 1.00554 4.99085 1.20532 5.0556 1.39013C5.12034 1.57494 5.23803 1.73662 5.394 1.85503C5.473 1.91503 5.52 1.94103 5.644 1.99603C6.07 2.18803 6.41 2.41403 6.676 2.67603C6.801 2.80503 6.883 2.91003 6.957 3.03903C6.98282 3.08092 7.00394 3.12552 7.02 3.17203C7.016 3.17603 6.977 3.16403 6.93 3.14503C6.71286 3.0764 6.48886 3.0318 6.262 3.01203C6.07849 2.99969 5.89431 3.00103 5.711 3.01603C5.535 3.03103 5.414 3.05503 5.258 3.09403C5.05648 3.14539 4.86027 3.2157 4.672 3.30403C4.6462 3.29709 4.62135 3.28702 4.598 3.27403C4.29323 3.13338 3.96704 3.04482 3.633 3.01203C3.4612 3.00029 3.2888 3.00029 3.117 3.01203C2.74327 3.05402 2.38125 3.16813 2.051 3.34803C1.363 3.71503 0.737997 4.37503 0.269997 5.23003C0.209997 5.34003 0.0939965 5.57803 0.0699965 5.63703C-0.0470035 5.93403 -0.0120035 6.27703 0.159997 6.54303C0.258723 6.69449 0.396478 6.81651 0.558744 6.89624C0.72101 6.97596 0.901778 7.01044 1.082 6.99603C1.32061 6.97611 1.544 6.87063 1.711 6.69903C1.809 6.60203 1.848 6.54303 1.945 6.34403C1.988 6.25803 2.047 6.14803 2.078 6.09403C2.378 5.58203 2.75 5.20403 3.098 5.06203C3.164 5.03203 3.16 5.03203 3.137 5.09803C3.078 5.28103 3.035 5.50803 3.012 5.73803C3.00025 5.9125 3.00025 6.08756 3.012 6.26203C3.059 6.73803 3.195 7.15603 3.422 7.53903L3.453 7.58903L3.441 7.61703C3.086 8.53903 3.188 9.45703 3.75 10.293C3.945 10.586 4.21 10.871 4.52 11.133C4.91 11.457 5.398 11.753 5.89 11.965L5.973 12H6.645L6.68 11.984C6.953 11.875 7.168 11.644 7.262 11.364C7.29393 11.2639 7.30847 11.1591 7.305 11.054C7.30806 10.9617 7.29624 10.8696 7.27 10.781C7.22493 10.6315 7.14665 10.4942 7.04102 10.3792C6.93539 10.2642 6.80514 10.1746 6.66 10.117C6.04 9.84403 5.531 9.43403 5.332 9.04703C5.30733 9.00417 5.28881 8.95805 5.277 8.91003L5.34 8.92603C5.422 8.94603 5.598 8.97303 5.71 8.98403C6.25106 9.03887 6.79681 8.94446 7.288 8.71103L7.332 8.69103L7.359 8.70703C7.66811 8.85363 7.99917 8.94855 8.339 8.98803C8.465 9.00003 8.758 9.00003 8.883 8.98803C9.34285 8.93484 9.78409 8.77566 10.172 8.52303C10.828 8.10503 11.437 7.38703 11.852 6.53503C11.922 6.38703 11.942 6.34803 11.961 6.27303C12.0211 6.05981 12.0087 5.83266 11.9257 5.62725C11.8428 5.42184 11.694 5.24978 11.5026 5.1381C11.3113 5.02642 11.0883 4.98143 10.8687 5.0102C10.649 5.03896 10.4451 5.13985 10.289 5.29703C10.1989 5.39008 10.1261 5.49844 10.074 5.61703C9.754 6.27703 9.309 6.77703 8.894 6.94103C8.87788 6.94901 8.86116 6.95569 8.844 6.96103C8.844 6.96103 8.848 6.94503 8.855 6.93003C8.925 6.72303 8.977 6.43803 8.996 6.17603C9.0207 5.72493 8.94452 5.27399 8.773 4.85603L8.743 4.77303L8.781 4.69103C8.941 4.34803 9.039 3.99603 9.066 3.63703C9.07413 3.47165 9.07046 3.30589 9.055 3.14103C8.953 2.26603 8.449 1.47703 7.578 0.821032C7.24673 0.57572 6.89081 0.365585 6.516 0.194033C6.41562 0.142914 6.30908 0.104935 6.199 0.0810325C6.08153 0.0627119 5.96216 0.0600219 5.844 0.0730325V0.0740325Z" fill="currentColor"/>
</svg>
