<svg width="12" height="12" viewBox="0 0 12 12" fill="none" xmlns="http://www.w3.org/2000/svg">
<g clip-path="url(#clip0_2538_38167)">
<path d="M10.363 0.00809826C10.1158 0.0285037 9.87792 0.111811 9.672 0.250098C9.57933 0.311485 9.49292 0.381822 9.414 0.460098L9.383 0.496098L8.25 0.500098C7.078 0.504098 7.074 0.504098 6.844 0.527098C6.031 0.617098 5.387 0.945098 4.949 1.4921C4.641 1.8751 4.449 2.3481 4.371 2.9221C4.34 3.1521 4.34 3.1371 4.336 4.1021V4.9961H2.617L2.586 4.9651C2.38159 4.75295 2.11963 4.60519 1.83234 4.53998C1.54504 4.47478 1.24496 4.49498 0.968998 4.5981C0.718935 4.69126 0.498526 4.84995 0.330861 5.05756C0.163196 5.26516 0.0544439 5.51403 0.0159981 5.7781C0.000394422 5.92602 0.000394422 6.07518 0.0159981 6.2231C0.0563662 6.49805 0.172422 6.75635 0.351189 6.96912C0.529955 7.18189 0.764384 7.34074 1.02826 7.42791C1.29214 7.51507 1.57506 7.52711 1.84539 7.46269C2.11572 7.39826 2.3628 7.25991 2.559 7.0631L2.62 7.0001H4.335V7.8981C4.339 8.8751 4.339 8.8551 4.374 9.0981C4.452 9.6601 4.644 10.1251 4.94 10.5001C5.382 11.0551 6.03 11.3831 6.843 11.4731C7.073 11.4961 7.077 11.4961 8.249 11.5001L9.378 11.5041L9.44 11.5631C9.57 11.6911 9.722 11.7931 9.878 11.8631C10.106 11.9677 10.3567 12.0132 10.6069 11.9954C10.8571 11.9777 11.0988 11.8972 11.3098 11.7614C11.5207 11.6256 11.694 11.4388 11.8138 11.2184C11.9335 10.998 11.9959 10.751 11.995 10.5001C11.995 10.3601 11.987 10.2851 11.96 10.1641C11.9125 9.95523 11.8207 9.75899 11.6908 9.58867C11.5609 9.41834 11.396 9.27789 11.2071 9.17683C11.0182 9.07576 10.8099 9.01643 10.5961 9.00284C10.3823 8.98926 10.1681 9.02175 9.968 9.0981C9.772 9.1681 9.538 9.3241 9.413 9.4611L9.382 9.4961H8.285C7.57 9.4961 7.165 9.4961 7.121 9.4921C6.848 9.4691 6.656 9.4021 6.547 9.3011C6.445 9.2031 6.387 9.0471 6.347 8.7811C6.34 8.7231 6.336 8.6171 6.336 7.8591L6.332 7.0001H9.379L9.441 7.0631C9.63749 7.25694 9.88332 7.39325 10.1518 7.45724C10.4203 7.52124 10.7012 7.51046 10.964 7.4261C11.265 7.32845 11.5273 7.13774 11.7129 6.88146C11.8986 6.62517 11.998 6.31656 11.997 6.0001C11.997 5.8601 11.989 5.7851 11.962 5.6641C11.9145 5.45523 11.8227 5.25899 11.6928 5.08867C11.5629 4.91834 11.398 4.77789 11.2091 4.67683C11.0202 4.57576 10.8119 4.51643 10.5981 4.50284C10.3843 4.48926 10.1701 4.52175 9.97 4.5981C9.774 4.6681 9.54 4.8241 9.415 4.9611L9.384 4.9961H6.332L6.336 4.1411C6.336 3.3711 6.34 3.2771 6.348 3.2151C6.383 2.9571 6.445 2.7971 6.547 2.6991C6.657 2.5981 6.847 2.5311 7.121 2.5081C7.164 2.5041 7.571 2.5001 8.281 2.5001H9.38L9.442 2.5631C9.63849 2.75694 9.88433 2.89325 10.1528 2.95724C10.4213 3.02124 10.7022 3.01046 10.965 2.9261C11.2658 2.82828 11.5278 2.63749 11.7133 2.38122C11.8988 2.12496 11.9981 1.81643 11.997 1.5001C11.997 1.3601 11.989 1.2851 11.962 1.1641C11.852 0.668098 11.482 0.254098 11.001 0.0860983C10.8503 0.0329667 10.6918 0.00525569 10.532 0.00409826C10.466 9.82604e-05 10.392 0.00409826 10.364 0.00809826H10.363Z" fill="currentColor"/>
</g>
<defs>
<clipPath id="clip0_2538_38167">
<rect width="12" height="12" fill="white"/>
</clipPath>
</defs>
</svg>
