<svg width="12" height="12" viewBox="0 0 12 12" fill="none" xmlns="http://www.w3.org/2000/svg">
<g clip-path="url(#clip0_2538_37882)">
<path d="M5.863 0.00814352C5.61579 0.028549 5.37792 0.111857 5.172 0.250144C4.99645 0.365427 4.84726 0.51652 4.7342 0.693512C4.62115 0.870503 4.54679 1.0694 4.516 1.27714C4.508 1.34714 4.504 1.38714 4.504 1.50014C4.504 1.61314 4.508 1.65214 4.516 1.72314C4.566 2.04714 4.711 2.32814 4.937 2.55914L5 2.62014V4.33514H4.102C3.125 4.33914 3.148 4.33914 2.902 4.37414C2.34 4.45214 1.867 4.64714 1.492 4.94814C0.944998 5.38614 0.616998 6.03414 0.526998 6.84314C0.503998 7.07314 0.503998 7.07714 0.499998 8.24914L0.495998 9.38314L0.464998 9.41414C0.222999 9.64361 0.0646132 9.94736 0.0149981 10.2771C-0.000676036 10.4254 -0.000676036 10.5749 0.0149981 10.7231C0.0819981 11.1451 0.308998 11.5031 0.659998 11.7431C0.899782 11.9056 1.18152 11.995 1.47109 12.0007C1.76067 12.0063 2.04567 11.9279 2.29158 11.7749C2.5375 11.6218 2.73378 11.4008 2.85667 11.1386C2.97957 10.8763 3.02379 10.584 2.984 10.2971C2.94079 9.96961 2.78946 9.66588 2.554 9.43414L2.504 9.37914V8.28514C2.504 7.59014 2.504 7.16514 2.508 7.12114C2.528 6.91114 2.57 6.74214 2.637 6.63314C2.73 6.47314 2.902 6.39114 3.219 6.34814C3.281 6.34014 3.391 6.33614 4.145 6.33614L5 6.33214V9.38214L4.965 9.41414C4.723 9.64361 4.56461 9.94736 4.515 10.2771C4.49932 10.4254 4.49932 10.5749 4.515 10.7231C4.582 11.1451 4.809 11.5031 5.16 11.7431C5.39978 11.9056 5.68152 11.995 5.97109 12.0007C6.26067 12.0063 6.54567 11.9279 6.79158 11.7749C7.0375 11.6218 7.23378 11.4008 7.35667 11.1386C7.47957 10.8763 7.52379 10.584 7.484 10.2971C7.44079 9.96961 7.28946 9.66588 7.054 9.43414L7.004 9.37914V6.33214H7.804C8.574 6.33214 8.699 6.33614 8.812 6.35214C8.988 6.37514 9.137 6.42614 9.234 6.49214C9.379 6.59014 9.464 6.79714 9.492 7.11714C9.496 7.16414 9.5 7.57014 9.5 8.28514V9.38314L9.465 9.41414C9.223 9.64361 9.06461 9.94736 9.015 10.2771C8.99932 10.4254 8.99932 10.5749 9.015 10.7231C9.082 11.1451 9.309 11.5031 9.66 11.7431C9.89978 11.9056 10.1815 11.995 10.4711 12.0007C10.7607 12.0063 11.0457 11.9279 11.2916 11.7749C11.5375 11.6218 11.7338 11.4008 11.8567 11.1386C11.9796 10.8763 12.0238 10.584 11.984 10.2971C11.9409 9.97062 11.7916 9.66735 11.559 9.43414L11.504 9.37914L11.5 8.25014C11.496 7.10214 11.496 7.07814 11.477 6.86714C11.398 6.14814 11.141 5.56714 10.711 5.13314C10.234 4.65314 9.598 4.39514 8.773 4.34014C8.719 4.34014 8.348 4.33614 7.84 4.33614H7.004V2.62014L7.063 2.55814C7.297 2.32314 7.438 2.03814 7.484 1.70214C7.52175 1.43552 7.48644 1.16364 7.38183 0.915508C7.27722 0.667371 7.10724 0.452273 6.89 0.293144C6.69277 0.149243 6.46415 0.0542993 6.223 0.0161435C6.10354 0.00180853 5.98297 -0.000870761 5.863 0.00814352Z" fill="currentColor"/>
</g>
<defs>
<clipPath id="clip0_2538_37882">
<rect width="12" height="12" fill="white"/>
</clipPath>
</defs>
</svg>
