<svg width="12" height="12" viewBox="0 0 12 12" fill="none" xmlns="http://www.w3.org/2000/svg">
<path d="M5.898 0.789866C5.8353 0.80203 5.77575 0.826871 5.723 0.862866C5.691 0.886866 5.074 1.47687 3.457 3.03087C2.70896 3.75008 1.96295 4.47142 1.219 5.19487C1.18116 5.24568 1.1521 5.30246 1.133 5.36287C1.11437 5.43022 1.10998 5.50071 1.12011 5.56985C1.13024 5.639 1.15466 5.70527 1.19183 5.76445C1.22899 5.82363 1.27808 5.87441 1.33596 5.91357C1.39384 5.95272 1.45924 5.97939 1.528 5.99187C1.566 5.99587 1.628 5.99987 1.789 5.99987H2V7.99987C2 9.20687 2 10.0269 2.004 10.0699C2.024 10.3089 2.117 10.5229 2.277 10.6869C2.39836 10.8166 2.55242 10.9112 2.723 10.9609C2.859 10.9999 2.863 10.9999 3.531 10.9959H4.129L4.191 10.9799C4.598 10.8949 4.895 10.5979 4.981 10.1909L4.996 10.1289L5 9.00787C5.004 7.80787 5 7.87487 5.031 7.75387C5.109 7.43387 5.355 7.16387 5.671 7.05387C5.77598 7.01452 5.8881 6.99782 6 7.00487C6.113 7.00487 6.14 7.00887 6.195 7.02087C6.40717 7.06185 6.60017 7.17094 6.74473 7.33156C6.88929 7.49218 6.97751 7.69557 6.996 7.91087C7 7.95087 7.004 8.33287 7.004 9.02387C7.004 9.94987 7.004 10.0869 7.012 10.1419C7.023 10.2199 7.043 10.2979 7.066 10.3599C7.196 10.6849 7.461 10.9069 7.813 10.9809L7.871 10.9969H8.496C9.07 10.9969 9.125 10.9969 9.176 10.9849C9.328 10.9549 9.465 10.8949 9.594 10.8049C9.614 10.7899 9.664 10.7469 9.707 10.7049C9.8794 10.5355 9.98275 10.3081 9.997 10.0669C10 10.0239 10.004 9.15687 10.004 7.99687V5.99987H10.211C10.445 5.99987 10.488 5.99587 10.571 5.96487C10.6421 5.93592 10.7056 5.89108 10.7567 5.83379C10.8078 5.7765 10.8451 5.70827 10.8658 5.63433C10.8865 5.56039 10.8899 5.48271 10.8759 5.40723C10.8619 5.33175 10.8308 5.26047 10.785 5.19887C10.77 5.18387 9.762 4.20687 8.543 3.03087C6.922 1.46987 6.309 0.886866 6.277 0.862866C6.22181 0.826192 6.15989 0.800853 6.09483 0.788321C6.02976 0.775789 5.96286 0.776314 5.898 0.789866Z" fill="currentColor"/>
</svg>
