<svg width="12" height="12" viewBox="0 0 12 12" fill="none" xmlns="http://www.w3.org/2000/svg">
<g clip-path="url(#clip0_2538_38738)">
<path d="M2.844 0.004C2.824 0.004 2.762 0.012 2.711 0.016C2.28427 0.0568356 1.8713 0.188859 1.50003 0.403136C1.12875 0.617413 0.807836 0.908944 0.558998 1.258C0.249998 1.688 0.0739978 2.16 0.0119978 2.71C0.0039978 2.804 0.0039978 2.972 0.0039978 5.991C0.0039978 9.327 0.0039978 9.206 0.0269978 9.397C0.0822 9.80545 0.220644 10.1982 0.433762 10.551C0.64688 10.9038 0.930136 11.2091 1.266 11.448C1.719 11.768 2.258 11.956 2.824 11.991C2.957 12.003 9.043 12.003 9.176 11.991C9.96454 11.9469 10.7033 11.5915 11.23 11.003C11.52 10.683 11.75 10.273 11.875 9.858C11.945 9.616 11.98 9.401 11.996 9.14C12.008 8.882 11.984 8.733 11.891 8.55C11.7742 8.3166 11.5705 8.13838 11.3236 8.05366C11.0767 7.96894 10.8065 7.98451 10.571 8.097C10.4678 8.14527 10.3748 8.21282 10.297 8.296C10.2016 8.38789 10.1258 8.49809 10.074 8.62C10.0258 8.73624 10.0019 8.86116 10.004 8.987C9.996 9.127 9.98 9.217 9.949 9.312C9.88745 9.49836 9.77243 9.66249 9.61826 9.78395C9.46409 9.9054 9.27759 9.9788 9.082 9.995C9.035 10 8.117 10 5.953 10H2.891L2.824 9.984C2.60823 9.94545 2.41111 9.83707 2.26295 9.67554C2.1148 9.51401 2.02381 9.30829 2.004 9.09C1.996 9.004 1.996 2.996 2.004 2.91C2.02478 2.69905 2.11076 2.49982 2.25 2.34C2.402 2.164 2.605 2.055 2.855 2.008C3.2416 1.9991 3.62831 1.99644 4.015 2L5.137 1.996L5.195 1.98C5.461 1.922 5.68 1.777 5.825 1.566C6.07 1.203 6.055 0.73 5.785 0.383C5.70248 0.277502 5.59939 0.189865 5.48198 0.125404C5.36458 0.060943 5.2353 0.0210008 5.102 0.008C5.062 0 4.695 0 3.965 0C3.37 0 2.867 0.004 2.844 0.004Z" fill="currentColor"/>
<path d="M11.2 0.043C11.059 0.059 10.895 0.078 10.813 0.09C9.797 0.242 8.828 0.559 8.003 1.012C7.102 1.504 6.391 2.137 5.887 2.898C5.56498 3.38037 5.32821 3.91447 5.187 4.477L5.18 4.5H4.523C4.113 4.5 3.848 4.504 3.809 4.504C3.336 4.554 2.973 4.922 2.918 5.402C2.90429 5.53103 2.9166 5.66151 2.95422 5.7857C2.99184 5.90988 3.05399 6.02526 3.137 6.125C3.176 6.175 5.836 8.835 5.879 8.871C6.0626 9.01431 6.2902 9.08954 6.52304 9.08389C6.75588 9.07824 6.97957 8.99205 7.156 8.84C7.184 8.816 7.805 8.195 8.536 7.465C9.984 6.012 9.902 6.098 9.976 5.953C10.0378 5.83414 10.0746 5.70386 10.0841 5.57021C10.0936 5.43655 10.0755 5.30238 10.031 5.176C9.99616 5.08416 9.95157 4.99633 9.898 4.914C9.86087 4.87053 9.8232 4.82753 9.785 4.785C9.62712 4.62372 9.41603 4.52528 9.191 4.508C9.01676 4.50091 8.84237 4.49824 8.668 4.5H8.203L8.215 4.457C8.242 4.371 8.325 4.129 8.367 4.023C8.797 2.941 9.543 2.156 10.507 1.773C10.738 1.68 10.93 1.625 11.211 1.57C11.3219 1.55162 11.4296 1.51761 11.531 1.469C11.6454 1.41277 11.7458 1.33169 11.8249 1.23169C11.9039 1.13169 11.9597 1.01529 11.988 0.891C11.9998 0.797369 11.9998 0.702631 11.988 0.609C11.9672 0.498817 11.9207 0.395103 11.8522 0.306305C11.7837 0.217507 11.6953 0.146134 11.594 0.098C11.5147 0.0560618 11.4257 0.0357153 11.336 0.039C11.2903 0.0360041 11.2454 0.0373434 11.2 0.043Z" fill="currentColor"/>
</g>
<defs>
<clipPath id="clip0_2538_38738">
<rect width="12" height="12" fill="white"/>
</clipPath>
</defs>
</svg>
