<svg width="12" height="12" viewBox="0 0 12 12" fill="none" xmlns="http://www.w3.org/2000/svg">
<path d="M5.73 0.00395788C4.73746 0.049363 3.7715 0.339287 2.918 0.847958C2.38137 1.17014 1.89768 1.57322 1.484 2.04296C0.971972 2.62638 0.579238 3.30449 0.328003 4.03896C0.173293 4.49289 0.0725987 4.96347 0.0280028 5.44096C0.00800283 5.65596 0.00400283 5.74596 0.00400283 5.99996C-0.00113411 7.15892 0.332543 8.29412 0.964003 9.26596C1.64126 10.3124 2.62861 11.1211 3.788 11.579C4.68 11.934 5.66 12.066 6.621 11.969C8.11026 11.8151 9.48815 11.1099 10.484 9.99196C11.321 9.05266 11.8406 7.87347 11.969 6.62196C11.9909 6.41539 11.9999 6.20765 11.996 5.99996C11.9999 5.7926 11.9908 5.5852 11.969 5.37896C11.8289 4.00808 11.2203 2.72746 10.2459 1.75306C9.2715 0.778649 7.99088 0.170074 6.62 0.0299579C6.32411 0.00372194 6.02694 -0.00529326 5.73 0.00295788V0.00395788ZM6.18 2.00396C6.508 2.01996 6.813 2.06596 7.11 2.15196C7.79175 2.34805 8.40903 2.72205 8.89847 3.23556C9.3879 3.74907 9.73185 4.38358 9.895 5.07396C10.094 5.93396 10.008 6.83996 9.652 7.64096C9.25489 8.51958 8.55464 9.2258 7.67942 9.63036C6.8042 10.0349 5.81256 10.1107 4.886 9.84396C3.95848 9.57598 3.15926 8.98141 2.63595 8.17008C2.11265 7.35874 1.90061 6.38545 2.039 5.42996C2.17905 4.44578 2.68118 3.54923 3.44719 2.91563C4.21321 2.28203 5.18802 1.95695 6.181 2.00396H6.18Z" fill="currentColor"/>
<path d="M5.914 3.00396C5.76121 3.02008 5.61342 3.06776 5.48 3.14396C5.32304 3.23946 5.19552 3.37648 5.11152 3.53989C5.02753 3.70329 4.99032 3.88674 5.004 4.06996C5.02034 4.32231 5.13263 4.55885 5.31784 4.73104C5.50305 4.90323 5.74713 4.99802 6 4.99596C6.1564 4.9973 6.31089 4.96157 6.45081 4.8917C6.59074 4.82182 6.71212 4.71979 6.805 4.59396C6.855 4.52396 6.922 4.39396 6.949 4.31196C7.01543 4.11166 7.01543 3.89526 6.949 3.69496C6.88219 3.47836 6.7428 3.2914 6.55429 3.16554C6.36578 3.03969 6.13966 2.98262 5.914 3.00396ZM5.914 6.00396C5.76121 6.02008 5.61342 6.06776 5.48 6.14396C5.36305 6.21556 5.26211 6.31051 5.18349 6.42286C5.10486 6.53521 5.05023 6.66256 5.023 6.79696C5 6.89496 5 6.99696 5 7.50396C5 8.10896 5 8.15596 5.05 8.30396C5.11419 8.50553 5.24083 8.68147 5.41161 8.80632C5.58239 8.93116 5.78845 8.99845 6 8.99845C6.21155 8.99845 6.41762 8.93116 6.5884 8.80632C6.75918 8.68147 6.88582 8.50553 6.95 8.30396C7 8.15596 7.004 8.10196 7.004 7.49996C7.004 6.89796 7 6.84396 6.949 6.69496C6.88219 6.47836 6.7428 6.2914 6.55429 6.16554C6.36578 6.03969 6.13966 5.98262 5.914 6.00396Z" fill="currentColor"/>
</svg>
