<svg width="12" height="12" viewBox="0 0 12 12" fill="none" xmlns="http://www.w3.org/2000/svg">
<g clip-path="url(#clip0_3479_7680)">
<path d="M0.410001 1.07392C0.327059 1.091 0.249543 1.12807 0.184189 1.18192C0.118836 1.23577 0.0676229 1.30477 0.0350014 1.38292C-0.00399855 1.47992 1.44864e-06 1.38692 1.44864e-06 2.99992C1.44864e-06 4.61292 -0.00399855 4.51992 0.0350014 4.61692C0.0733507 4.7076 0.136657 4.78553 0.217558 4.84165C0.29846 4.89777 0.39363 4.92976 0.492001 4.93392C0.535001 4.93392 3.132 4.60892 3.203 4.59792C3.324 4.56992 3.477 4.50392 3.578 4.43392C3.71499 4.33625 3.82507 4.20553 3.898 4.05392L3.926 3.99592L3.965 3.99992H4.984L4.961 4.04292C4.89647 4.16705 4.83643 4.29347 4.781 4.42192C4.62974 4.8091 4.53868 5.21716 4.511 5.63192C4.508 5.67992 4.504 5.84792 4.5 6.00392C4.496 6.30092 4.492 6.36392 4.473 6.53092C4.398 7.10492 4.183 7.51992 3.84 7.74992L3.797 7.77692L3.777 7.75392C3.7188 7.68576 3.65342 7.62407 3.582 7.56992C3.46664 7.49186 3.33831 7.43497 3.203 7.40192C3.137 7.39092 0.535001 7.06592 0.496001 7.06592C0.437549 7.0693 0.379758 7.08005 0.324001 7.09792C0.259124 7.12352 0.200085 7.16196 0.150425 7.21093C0.100764 7.25991 0.061505 7.3184 0.0350014 7.38292C-0.00399855 7.47992 1.44864e-06 7.38692 1.44864e-06 8.99992C1.44864e-06 10.6129 -0.00399855 10.5199 0.0350014 10.6169C0.0616178 10.6815 0.101031 10.7401 0.150869 10.7891C0.200707 10.838 0.259939 10.8764 0.325001 10.9019C0.380436 10.9197 0.437886 10.9305 0.496001 10.9339C0.536001 10.9339 3.136 10.6089 3.203 10.5979C3.324 10.5699 3.477 10.5039 3.582 10.4299C3.648 10.3829 3.762 10.2729 3.809 10.2069C3.875 10.1089 3.934 9.99692 3.957 9.89792L3.969 9.86292L4.031 9.84292C4.121 9.81992 4.285 9.75792 4.379 9.71892C5.01453 9.45652 5.54955 8.99787 5.906 8.40992C6.199 7.93692 6.383 7.37492 6.461 6.73792C6.484 6.53092 6.492 6.38692 6.5 6.08192C6.504 5.73392 6.512 5.64092 6.547 5.46492C6.58546 5.2654 6.66328 5.07554 6.77591 4.90642C6.88854 4.73731 7.03373 4.59232 7.203 4.47992C7.29195 4.4187 7.38596 4.36517 7.484 4.31992C7.648 4.24192 7.813 4.18392 8 4.13292C8.137 4.09292 8.121 4.09792 8.14 4.12892C8.2 4.22692 8.32 4.35892 8.414 4.42592C8.516 4.49992 8.633 4.55492 8.75 4.58592C8.793 4.59792 9.156 4.64492 10.14 4.76592C10.871 4.85892 11.484 4.93392 11.504 4.93392C11.6048 4.9311 11.7025 4.89882 11.7852 4.84106C11.8678 4.7833 11.9317 4.7026 11.969 4.60892C12 4.51992 12 4.60192 12 2.99992C12 1.39792 12 1.47992 11.969 1.38992C11.9433 1.32523 11.9048 1.26638 11.8558 1.2169C11.8069 1.16741 11.7484 1.12831 11.684 1.10192C11.6262 1.08091 11.5655 1.06877 11.504 1.06592C11.457 1.06592 8.855 1.39492 8.789 1.40592C8.70627 1.42411 8.62626 1.45302 8.551 1.49192C8.35738 1.58756 8.20064 1.7443 8.105 1.93792L8.075 1.99592H3.925L3.895 1.93792C3.82725 1.80239 3.72987 1.68384 3.61008 1.59106C3.49029 1.49828 3.35116 1.43363 3.203 1.40192C3.13 1.39092 0.531001 1.06592 0.493001 1.06592C0.465179 1.0666 0.437442 1.06927 0.410001 1.07392Z" fill="currentColor"/>
</g>
<defs>
<clipPath id="clip0_3479_7680">
<rect width="12" height="12" fill="white"/>
</clipPath>
</defs>
</svg>
