<svg width="12" height="12" viewBox="0 0 12 12" fill="none" xmlns="http://www.w3.org/2000/svg">
<path d="M1.855 1.00414C1.68353 1.01747 1.51448 1.05276 1.352 1.10914C0.957797 1.24381 0.615735 1.49868 0.373931 1.83788C0.132127 2.17709 0.00274954 2.58357 0.00399792 3.00014C0.00216513 3.32965 0.0826009 3.65441 0.238013 3.94498C0.393426 4.23555 0.618901 4.48274 0.893998 4.66414C1.168 4.84414 1.426 4.93814 1.777 4.98814C1.852 4.99614 2.152 4.99614 2.227 4.98814C2.594 4.93814 2.891 4.82414 3.168 4.62514C3.395 4.46114 3.602 4.23514 3.73 4.00014L3.75 3.96914L3.8 3.98014C3.89 4.00014 4 4.00014 4.5 4.00014H4.984L4.961 4.04314C4.89647 4.16727 4.83643 4.29368 4.781 4.42214C4.62974 4.80932 4.53868 5.21738 4.511 5.63214C4.508 5.68014 4.504 5.84814 4.5 6.00414C4.492 6.35514 4.48 6.50014 4.445 6.70414C4.34 7.25414 4.102 7.62114 3.711 7.82414C3.69053 7.83746 3.66832 7.84789 3.645 7.85514C3.645 7.85514 3.617 7.82514 3.59 7.78914C3.42667 7.57469 3.22179 7.39536 2.98761 7.26186C2.75343 7.12836 2.49474 7.04343 2.227 7.01214C2.0771 7.0043 1.9269 7.0043 1.777 7.01214C1.28819 7.0662 0.836663 7.29917 0.509331 7.66619C0.181999 8.03322 0.0020048 8.50835 0.00399792 9.00014C0.00216513 9.32965 0.0826009 9.65441 0.238013 9.94498C0.393426 10.2356 0.618901 10.4827 0.893998 10.6641C1.168 10.8441 1.426 10.9381 1.777 10.9881C1.852 10.9961 2.152 10.9961 2.227 10.9881C2.391 10.9651 2.507 10.9381 2.645 10.8911C3.109 10.7341 3.5 10.4111 3.746 9.97314C3.75911 9.95133 3.77347 9.93029 3.789 9.91014C3.793 9.91014 3.844 9.89514 3.906 9.87914C4.73881 9.6692 5.45656 9.14202 5.906 8.41014C6.199 7.93714 6.383 7.37514 6.461 6.73814C6.484 6.53114 6.492 6.38714 6.5 6.08214C6.504 5.73414 6.512 5.64114 6.547 5.46514C6.58546 5.26562 6.66327 5.07576 6.77591 4.90664C6.88854 4.73752 7.03373 4.59254 7.203 4.48014C7.457 4.30914 7.777 4.18014 8.16 4.09414C8.19839 4.0834 8.23748 4.07538 8.277 4.07014L8.305 4.06614L8.328 4.09814C8.47625 4.32447 8.66919 4.51812 8.89498 4.66721C9.12076 4.8163 9.37463 4.91768 9.641 4.96514C9.785 4.99214 10 5.00414 10.156 4.99214C10.658 4.95491 11.1271 4.72856 11.4686 4.35881C11.8102 3.98906 11.9986 3.50348 11.996 3.00014C11.997 2.7065 11.9331 2.41628 11.8088 2.15022C11.6846 1.88416 11.5031 1.64884 11.2773 1.4611C11.0515 1.27335 10.7871 1.13781 10.5028 1.06417C10.2185 0.990536 9.92153 0.980621 9.633 1.03514C9.37233 1.08343 9.12394 1.18333 8.90242 1.32895C8.68089 1.47457 8.4907 1.66299 8.343 1.88314C8.32 1.91414 8.293 1.96114 8.277 1.98414L8.25 2.03114L8.2 2.02014C8.15679 2.01385 8.11344 2.00851 8.07 2.00414C7.96 1.99614 4.04 1.99614 3.934 2.00414C3.88953 2.00832 3.84519 2.01365 3.801 2.02014L3.75 2.03114L3.73 2.00014C3.5752 1.7343 3.36161 1.50742 3.1056 1.33686C2.84959 1.1663 2.55795 1.0566 2.253 1.01614C2.12057 1.00641 1.98778 1.00241 1.855 1.00414Z" fill="currentColor"/>
</svg>
