<svg width="12" height="12" viewBox="0 0 12 12" fill="none" xmlns="http://www.w3.org/2000/svg">
<g clip-path="url(#clip0_2538_39598)">
<path d="M7.27 0.00782624C6.44568 0.0486996 5.64838 0.315041 4.965 0.777826C4.18577 1.30949 3.59314 2.0724 3.27073 2.95891C2.94831 3.84542 2.91238 4.8108 3.168 5.71883L3.191 5.80883L1.645 7.35883C0.434 8.56983 0.09 8.91783 0.075 8.94483C0.063 8.96483 0.047 8.99983 0.035 9.02283C0 9.11683 0 9.05483 0 10.3518C0 11.6518 0 11.5898 0.035 11.6838C0.062 11.7458 0.09 11.7928 0.141 11.8438C0.191 11.8938 0.246 11.9378 0.313 11.9608C0.41 11.9998 0.34 11.9998 1.647 11.9998C2.937 11.9998 2.882 11.9998 2.967 11.9648C3.073 11.9248 2.964 12.0308 4.64 10.3548L6.19 8.80983L6.269 8.82983C6.729 8.96183 7.241 9.01983 7.718 8.99283C8.54163 8.95646 9.3391 8.69271 10.022 8.23083C10.546 7.87983 11.002 7.39883 11.335 6.86083C11.9527 5.84807 12.149 4.63364 11.882 3.47783C11.7122 2.74927 11.3645 2.07415 10.87 1.51283C10.7566 1.38933 10.6382 1.27057 10.515 1.15683C10.0558 0.740354 9.51454 0.424587 8.926 0.229826C8.39266 0.0532843 7.83101 -0.0220087 7.27 0.00782624ZM7.73 3.01583C8.04367 3.06836 8.33389 3.21521 8.562 3.43683C8.71039 3.58608 8.82587 3.76475 8.90101 3.96135C8.97614 4.15794 9.00927 4.3681 8.99824 4.57827C8.98722 4.78845 8.9323 4.99398 8.83701 5.18164C8.74172 5.3693 8.60819 5.53492 8.445 5.66783C8.21951 5.84805 7.94717 5.96 7.66013 5.99048C7.37308 6.02095 7.0833 5.96868 6.825 5.83983C6.434 5.63983 6.148 5.28983 6.047 4.86683C6.01405 4.7474 5.99955 4.62364 6.004 4.49983C6.00303 4.15675 6.11869 3.82353 6.332 3.55483C6.382 3.49183 6.492 3.38283 6.559 3.33183C6.785 3.14783 7.059 3.03483 7.355 3.00383C7.437 2.99583 7.645 3.00383 7.73 3.01583Z" fill="currentColor"/>
</g>
<defs>
<clipPath id="clip0_2538_39598">
<rect width="12" height="12" fill="white"/>
</clipPath>
</defs>
</svg>
