<svg width="12" height="12" viewBox="0 0 12 12" fill="none" xmlns="http://www.w3.org/2000/svg">
<g clip-path="url(#clip0_2538_39883)">
<path d="M6.883 0.332066C6.46641 0.357091 6.06797 0.511228 5.743 0.773066C5.653 0.843066 2.343 4.15307 2.27 4.24607C2.03015 4.54716 1.88101 4.91032 1.84 5.29307C1.82828 5.43082 1.82828 5.56931 1.84 5.70707C1.883 6.09707 2.027 6.44507 2.27 6.75407C2.328 6.82407 3.617 8.12107 3.71 8.19907C4.016 8.45707 4.387 8.61307 4.793 8.66007C4.895 8.67207 5.129 8.67207 5.23 8.65607C5.60477 8.61387 5.95987 8.46614 6.254 8.23007C6.297 8.19507 6.48 8.02007 6.804 7.69107L7.293 7.20707L8.547 8.46107C9.234 9.15207 9.824 9.73407 9.852 9.76107C10.309 10.1451 10.996 10.0511 11.328 9.55907C11.578 9.18807 11.551 8.69507 11.262 8.35207C11.234 8.32407 10.652 7.73407 9.961 7.04707L8.707 5.79307L9.191 5.30507C9.516 4.98507 9.695 4.79707 9.727 4.75807C10.0594 4.34775 10.2151 3.82222 10.16 3.29707C10.121 2.89837 9.96164 2.52098 9.703 2.21507C9.2275 1.7246 8.74308 1.24285 8.25 0.770066C7.95 0.527066 7.61 0.387066 7.23 0.344066C7.16 0.332066 6.93 0.328066 6.883 0.332066ZM0.870996 10.0081C0.679951 10.0359 0.500149 10.1155 0.350996 10.2381C0.190996 10.3751 0.0659963 10.5781 0.0229963 10.7891C-0.00672179 10.9263 -0.00710529 11.0683 0.0218709 11.2057C0.0508472 11.3432 0.108529 11.4729 0.191139 11.5865C0.273748 11.7001 0.379421 11.7949 0.501235 11.8648C0.623048 11.9347 0.758255 11.9781 0.897996 11.9921C0.976996 12.0041 6.016 12.0041 6.102 11.9921C6.27158 11.9757 6.43404 11.9158 6.57354 11.818C6.71304 11.7202 6.82483 11.5879 6.898 11.4341C6.96408 11.2968 6.99793 11.1463 6.99697 10.9939C6.996 10.8416 6.96024 10.6915 6.89243 10.5551C6.82461 10.4187 6.72652 10.2996 6.60565 10.2068C6.48478 10.1141 6.34432 10.0502 6.195 10.0201L6.137 10.0041H3.523C2.016 10.0041 0.894996 10.0041 0.870996 10.0081Z" fill="currentColor"/>
</g>
<defs>
<clipPath id="clip0_2538_39883">
<rect width="12" height="12" fill="white"/>
</clipPath>
</defs>
</svg>
