<svg width="12" height="12" viewBox="0 0 12 12" fill="none" xmlns="http://www.w3.org/2000/svg">
<g clip-path="url(#clip0_2538_40170)">
<path d="M10.867 0.00784502C10.7883 0.0202243 10.7112 0.0410099 10.637 0.069845C10.609 0.081845 8.312 1.22685 5.531 2.61685C1.355 4.70285 0.469998 5.14785 0.425998 5.18385C0.213242 5.33404 0.0664333 5.56034 0.0159978 5.81585C0.0039978 5.87485 0.0039978 5.90585 0.0039978 5.99985C0.0039978 6.09384 0.0039978 6.12485 0.0159978 6.17984C0.0509978 6.35184 0.124998 6.50784 0.229998 6.63685C0.272998 6.69085 0.359998 6.76985 0.425998 6.81684C0.468998 6.84685 1.356 7.29684 5.531 9.38284C7.23178 10.2343 8.93378 11.0833 10.637 11.9298C10.7666 11.9809 10.9054 12.0042 11.0446 11.9983C11.1838 11.9924 11.3201 11.9573 11.4449 11.8954C11.5697 11.8335 11.6801 11.7461 11.769 11.6389C11.8579 11.5316 11.9233 11.4069 11.961 11.2728C12.0199 11.0679 12.0115 10.8494 11.937 10.6496C11.8624 10.4498 11.7257 10.2792 11.547 10.1628C11.52 10.1448 9.641 9.20284 7.371 8.06584C5.098 6.93384 3.242 5.99985 3.242 5.99985C3.242 5.99985 5.098 5.06585 7.372 3.93385C8.76585 3.23887 10.1575 2.53953 11.547 1.83584C11.7367 1.71171 11.8787 1.52677 11.9495 1.31137C12.0203 1.09597 12.0158 0.862893 11.9368 0.650375C11.8577 0.437858 11.7088 0.258516 11.5144 0.141767C11.32 0.0250192 11.0917 -0.0222036 10.867 0.00784502Z" fill="currentColor"/>
</g>
<defs>
<clipPath id="clip0_2538_40170">
<rect width="12" height="12" fill="white"/>
</clipPath>
</defs>
</svg>
