<svg width="12" height="12" viewBox="0 0 12 12" fill="none" xmlns="http://www.w3.org/2000/svg">
<path d="M8.91 2.00389C8.83036 2.01161 8.75185 2.02839 8.676 2.05389C8.586 2.08589 2.543 5.10489 2.449 5.16789C2.28187 5.27729 2.15173 5.43469 2.0757 5.61941C1.99967 5.80413 1.9813 6.00753 2.023 6.20289C2.074 6.46089 2.227 6.68289 2.449 6.83189C4.51879 7.88127 6.59449 8.91895 8.676 9.94489C8.9053 10.023 9.15513 10.0153 9.37924 9.92342C9.60335 9.8315 9.78658 9.6615 9.895 9.44489C10.121 8.99589 9.973 8.44489 9.551 8.16789C9.504 8.13689 8.926 7.84389 7.367 7.06289C6.2 6.47989 5.247 5.99989 5.247 5.99989C5.247 5.99989 6.199 5.51989 7.367 4.93689C8.926 4.15689 9.504 3.86289 9.551 3.83189C9.69875 3.7366 9.81769 3.60279 9.895 3.44489C10.002 3.22786 10.0269 2.97948 9.96511 2.74554C9.90336 2.5116 9.75913 2.30787 9.559 2.17189C9.36714 2.04579 9.13895 1.98672 8.91 2.00389Z" fill="currentColor"/>
</svg>
