<svg width="12" height="12" viewBox="0 0 12 12" fill="none" xmlns="http://www.w3.org/2000/svg">
<g clip-path="url(#clip0_2538_40170)">
<path d="M10.867 0.00808916C10.7883 0.0204684 10.7112 0.0412541 10.637 0.0700892C10.609 0.0820892 8.312 1.22709 5.531 2.61709C1.355 4.70309 0.469998 5.14809 0.425998 5.18409C0.213242 5.33429 0.0664333 5.56059 0.0159978 5.81609C0.0039978 5.87509 0.0039978 5.90609 0.0039978 6.00009C0.0039978 6.09409 0.0039978 6.12509 0.0159978 6.18009C0.0509978 6.35209 0.124998 6.50809 0.229998 6.63709C0.272998 6.69109 0.359998 6.77009 0.425998 6.81709C0.468998 6.84709 1.356 7.29709 5.531 9.38309C7.23178 10.2345 8.93378 11.0835 10.637 11.9301C10.7666 11.9812 10.9054 12.0045 11.0446 11.9986C11.1838 11.9926 11.3201 11.9576 11.4449 11.8956C11.5697 11.8337 11.6801 11.7463 11.769 11.6391C11.8579 11.5319 11.9233 11.4072 11.961 11.2731C12.0199 11.0681 12.0115 10.8497 11.937 10.6498C11.8624 10.45 11.7257 10.2794 11.547 10.1631C11.52 10.1451 9.641 9.20309 7.371 8.06609C5.098 6.93409 3.242 6.00009 3.242 6.00009C3.242 6.00009 5.098 5.06609 7.372 3.93409C8.76585 3.23911 10.1575 2.53978 11.547 1.83609C11.7367 1.71195 11.8787 1.52701 11.9495 1.31161C12.0203 1.09621 12.0158 0.863137 11.9368 0.650619C11.8577 0.438102 11.7088 0.25876 11.5144 0.142012C11.32 0.0252633 11.0917 -0.0219595 10.867 0.00808916Z" fill="currentColor"/>
</g>
<defs>
<clipPath id="clip0_2538_40170">
<rect width="12" height="12" fill="white"/>
</clipPath>
</defs>
</svg>
