<svg width="12" height="12" viewBox="0 0 12 12" fill="none" xmlns="http://www.w3.org/2000/svg">
<g clip-path="url(#clip0_2538_40361)">
<path d="M0.890001 0.00421942C0.705145 0.0271799 0.529951 0.0997456 0.383001 0.214219C0.277387 0.296853 0.189682 0.4001 0.125216 0.517686C0.0607502 0.635272 0.0208702 0.76474 0.00800055 0.898219C-0.00399945 0.977219 -0.00399945 9.03922 0.00800055 9.17622C0.0470005 9.86322 0.316001 10.5082 0.770001 11.0042C1.309 11.5982 2.031 11.9452 2.824 11.9922C2.961 12.0042 11.024 12.0042 11.102 11.9922C11.282 11.9722 11.457 11.9062 11.598 11.8012C11.6793 11.7358 11.7525 11.661 11.816 11.5782C12.031 11.2702 12.059 10.8552 11.883 10.5282C11.8128 10.3981 11.7147 10.2851 11.5958 10.1973C11.4769 10.1095 11.34 10.049 11.195 10.0202L11.137 10.0042L7.012 10.0002C3.125 10.0002 2.882 9.99622 2.836 9.98822C2.60134 9.94795 2.38828 9.82656 2.234 9.64522C2.1181 9.50815 2.04139 9.3423 2.012 9.16522C2.004 9.11622 2 8.87422 2 4.98722L1.996 0.863219L1.98 0.805219C1.9279 0.549899 1.77969 0.324358 1.566 0.175219C1.36731 0.042475 1.12887 -0.0175766 0.891001 0.00521942L0.890001 0.00421942Z" fill="currentColor"/>
<path d="M5.914 3.00422C5.73346 3.02004 5.56062 3.08469 5.414 3.19122C5.375 3.21922 5.121 3.46922 4.293 4.29322C3.121 5.46922 3.183 5.40322 3.109 5.55122C3.03783 5.69019 3.00071 5.84409 3.00071 6.00022C3.00071 6.15635 3.03783 6.31025 3.109 6.44922C3.309 6.85222 3.758 7.07022 4.203 6.97722C4.33022 6.95114 4.45113 6.90053 4.559 6.82822C4.625 6.78522 4.652 6.75822 5.312 6.09822L6 5.41022L6.688 6.09822C7.348 6.75822 7.375 6.78522 7.441 6.82822C7.61275 6.9445 7.81646 7.00439 8.02381 6.99955C8.23117 6.99471 8.43186 6.92539 8.598 6.80122C8.633 6.77722 8.973 6.44122 9.691 5.72322C10.266 5.14822 10.75 4.66022 10.77 4.63722C10.9179 4.45693 10.9979 4.23043 10.996 3.99722C10.9994 3.93411 10.994 3.87084 10.98 3.80922C10.9288 3.55272 10.7805 3.32593 10.566 3.17622C10.3902 3.0564 10.1808 2.9956 9.96813 3.00261C9.75548 3.00962 9.55056 3.08408 9.383 3.21522C9.359 3.23522 9.039 3.55122 8.672 3.91822C8.305 4.28122 8.004 4.58222 8 4.58222C8 4.58222 7.687 4.27722 7.316 3.90222C6.57 3.16022 6.594 3.18022 6.449 3.10922C6.34072 3.05331 6.22311 3.01772 6.102 3.00422C6.0394 3.00029 5.97661 3.00029 5.914 3.00422Z" fill="currentColor"/>
</g>
<defs>
<clipPath id="clip0_2538_40361">
<rect width="12" height="12" fill="white"/>
</clipPath>
</defs>
</svg>
