<svg width="12" height="12" viewBox="0 0 12 12" fill="none" xmlns="http://www.w3.org/2000/svg">
<path d="M5.813 0.00781454C5.52468 0.0256773 5.24043 0.0849519 4.969 0.183815C4.617 0.308815 4.269 0.519814 3.996 0.769814C3.4075 1.29651 3.05214 2.03528 3.008 2.82381C3.004 2.88281 3 3.31981 3 3.96081V4.99581L2.95 4.99981C2.809 5.00781 2.734 5.01581 2.656 5.03081C2.25 5.10081 1.879 5.29281 1.59 5.58181C1.27174 5.89479 1.06934 6.30665 1.016 6.74981C1.004 6.82381 1.004 6.91382 1.004 8.49981C1.004 10.2698 1.004 10.1908 1.031 10.3518C1.10668 10.7791 1.31968 11.17 1.63768 11.4653C1.95567 11.7605 2.36129 11.944 2.793 11.9878C2.895 11.9998 9.105 11.9998 9.207 11.9878C9.67161 11.9407 10.1049 11.7318 10.4312 11.3977C10.7574 11.0636 10.9559 10.6254 10.992 10.1598C10.996 10.1128 11 9.55482 10.996 8.44981C10.996 6.93382 10.992 6.80881 10.984 6.74181C10.9498 6.47116 10.8596 6.21062 10.719 5.97681C10.5847 5.75021 10.4069 5.55242 10.1958 5.39487C9.98466 5.23731 9.74445 5.1231 9.489 5.05881C9.34508 5.02412 9.19797 5.00435 9.05 4.99981L9 4.99581V3.96081C9 3.32781 8.996 2.88281 8.996 2.82381C8.97237 2.45534 8.88225 2.09419 8.73 1.75781C8.40904 1.05853 7.83367 0.507839 7.121 0.217815C6.70632 0.0491345 6.25863 -0.0226889 5.812 0.00781454H5.813ZM6.09 2.00381C6.32319 2.02487 6.5416 2.12709 6.70716 2.29265C6.87272 2.45822 6.97494 2.67662 6.996 2.90981C7 2.94981 7.004 3.33181 7.004 3.98381V4.99581H4.996L5 3.94081C5.004 2.78081 5 2.87081 5.035 2.73081C5.09879 2.50581 5.23905 2.3101 5.43163 2.1774C5.6242 2.0447 5.85703 1.98331 6.09 2.00381ZM6.2 7.01981C6.3967 7.05932 6.57688 7.15731 6.71696 7.30095C6.85703 7.44459 6.95045 7.62718 6.985 7.82481C6.996 7.88681 6.996 7.90182 7 8.44882C7.004 8.83882 7 9.03082 6.996 9.08181C6.97934 9.31848 6.87652 9.54084 6.707 9.70681C6.57451 9.83751 6.4086 9.92923 6.22745 9.97192C6.04631 10.0146 5.8569 10.0066 5.68 9.94882C5.5891 9.91471 5.50251 9.87007 5.422 9.81581C5.3314 9.74861 5.25121 9.66841 5.184 9.57782C5.10652 9.46749 5.0521 9.34267 5.024 9.21082C5 9.09982 4.995 9.03482 5 8.44882C5.004 7.90182 5.004 7.88681 5.016 7.82381C5.05118 7.62672 5.14471 7.44472 5.28448 7.30137C5.42426 7.15803 5.60385 7.05995 5.8 7.01981C5.89 7.00381 5.886 7.00381 6.019 7.00381C6.116 7.00381 6.147 7.00781 6.199 7.01981H6.2Z" fill="currentColor"/>
</svg>
