<svg width="12" height="12" viewBox="0 0 12 12" fill="none" xmlns="http://www.w3.org/2000/svg">
<g clip-path="url(#clip0_2538_41313)">
<path d="M5.246 0.00422985C4.49637 0.0406231 3.76175 0.227678 3.086 0.55423C1.9817 1.09164 1.09024 1.98486 0.555004 3.09023C0.0457472 4.13876 -0.118768 5.32152 0.0850036 6.46923C0.270781 7.51179 0.753696 8.47852 1.4757 9.25321C2.19771 10.0279 3.12809 10.5776 4.155 10.8362C4.95014 11.0317 5.7783 11.0519 6.582 10.8952C7.27968 10.7541 7.94393 10.4808 8.539 10.0902L8.621 10.0352L9.488 10.9022C10.137 11.5472 10.368 11.7772 10.402 11.8012C10.48 11.8552 10.539 11.8872 10.609 11.9182C10.789 11.9954 10.9877 12.0176 11.1803 11.982C11.3728 11.9464 11.5505 11.8546 11.691 11.7182C11.8493 11.5667 11.9532 11.3671 11.9865 11.1505C12.0197 10.9339 11.9806 10.7123 11.875 10.5202C11.805 10.3902 11.828 10.4142 10.902 9.48823L10.035 8.62123L10.09 8.53923C10.5799 7.79433 10.8828 6.94221 10.973 6.05523C10.988 5.87523 10.993 5.80923 10.996 5.59023C11.0105 4.85186 10.8754 4.1182 10.5987 3.43348C10.322 2.74877 9.90945 2.12719 9.386 1.60623C8.80514 1.02192 8.09851 0.577963 7.32 0.30823C6.84759 0.142729 6.35462 0.0431252 5.855 0.0122298C5.65212 0.00371234 5.44904 0.00104457 5.246 0.00422985ZM5.668 2.00423C6.52436 2.04011 7.33704 2.39211 7.949 2.99223C8.429 3.46523 8.754 4.04323 8.91 4.69923C9.012 5.14523 9.027 5.63723 8.95 6.09423C8.8295 6.80649 8.49075 7.46375 7.98057 7.97518C7.47039 8.48661 6.81397 8.82697 6.102 8.94923C5.44984 9.06341 4.77868 8.99043 4.1663 8.73875C3.55392 8.48707 3.0254 8.067 2.642 7.52723C2.22188 6.93202 1.9975 6.22077 2 5.49223C1.99987 4.96219 2.12047 4.43908 2.35264 3.96259C2.58482 3.4861 2.92248 3.06876 3.34 2.74223C4.00094 2.22226 4.82821 1.96001 5.668 2.00423Z" fill="currentColor"/>
</g>
<defs>
<clipPath id="clip0_2538_41313">
<rect width="12" height="12" fill="white"/>
</clipPath>
</defs>
</svg>
