<svg width="12" height="12" viewBox="0 0 12 12" fill="none" xmlns="http://www.w3.org/2000/svg">
<g clip-path="url(#clip0_2538_41788)">
<path d="M1.363 0.00804745C1.11579 0.0284529 0.877919 0.111761 0.671999 0.250047C0.496451 0.365331 0.347258 0.516424 0.234204 0.693416C0.12115 0.870407 0.0467892 1.0693 0.0159987 1.27705C0.000324569 1.4253 0.000324569 1.57479 0.0159987 1.72305C0.0563667 1.998 0.172423 2.2563 0.351189 2.46907C0.529956 2.68184 0.764385 2.84069 1.02826 2.92786C1.29214 3.01502 1.57506 3.02706 1.84539 2.96264C2.11572 2.89821 2.3628 2.75986 2.559 2.56305L2.62 2.50005L3.257 2.50405C3.811 2.50405 3.901 2.50805 3.96 2.51605C4.233 2.55505 4.401 2.62905 4.491 2.74605C4.597 2.88305 4.651 3.09005 4.663 3.40605C4.671 3.58605 4.671 8.41405 4.663 8.59405C4.651 8.89105 4.604 9.09405 4.511 9.23005C4.417 9.36705 4.253 9.44105 3.96 9.48405C3.901 9.49205 3.812 9.49605 3.253 9.49605L2.616 9.50005L2.585 9.46505C2.38059 9.2529 2.11863 9.10514 1.83134 9.03993C1.54405 8.97473 1.24396 8.99493 0.967999 9.09805C0.717936 9.19121 0.497527 9.3499 0.329862 9.55751C0.162196 9.76511 0.0534444 10.014 0.0149987 10.278C-0.000605029 10.426 -0.000605029 10.5751 0.0149987 10.723C0.0553667 10.998 0.171423 11.2563 0.350189 11.4691C0.528956 11.6818 0.763385 11.8407 1.02726 11.9279C1.29114 12.015 1.57406 12.0271 1.84439 11.9626C2.11472 11.8982 2.3618 11.7599 2.558 11.563L2.62 11.5H3.151C3.671 11.5 3.89 11.496 4.042 11.484C4.487 11.445 4.866 11.348 5.21 11.176C5.468 11.051 5.667 10.906 5.87 10.707C6.073 10.5 6.218 10.305 6.347 10.039C6.499 9.72305 6.593 9.38705 6.64 8.99205C6.663 8.76605 6.663 8.75005 6.667 7.86305V7.00005H8.827C10.249 7.00005 11.015 7.00005 11.065 6.99605C11.2136 6.98626 11.3581 6.94326 11.4879 6.87023C11.6177 6.7972 11.7295 6.69599 11.815 6.57405C11.8678 6.49268 11.9123 6.40625 11.948 6.31605C11.988 6.18805 12.007 6.05105 11.995 5.91805C11.9767 5.69777 11.8858 5.48978 11.7368 5.32659C11.5877 5.16339 11.3887 5.05419 11.171 5.01605L11.105 5.00005H8.887L6.668 4.99605V4.22305C6.668 3.45705 6.664 3.27305 6.648 3.08605C6.594 2.49605 6.414 1.98805 6.125 1.59005C5.96225 1.36942 5.76586 1.17573 5.543 1.01605C5.37824 0.905277 5.20308 0.81083 5.02 0.734047C4.7159 0.619904 4.39762 0.547903 4.074 0.520047C3.894 0.504047 3.707 0.496047 3.156 0.496047H2.617L2.586 0.465047C2.35454 0.225699 2.05175 0.0678108 1.723 0.0150475C1.60351 0.00104568 1.48294 -0.0012987 1.363 0.00804745Z" fill="currentColor"/>
</g>
<defs>
<clipPath id="clip0_2538_41788">
<rect width="12" height="12" fill="white"/>
</clipPath>
</defs>
</svg>
