<svg width="12" height="12" viewBox="0 0 12 12" fill="none" xmlns="http://www.w3.org/2000/svg">
<path d="M6.914 1.14521C6.84275 1.15416 6.77246 1.16955 6.704 1.19121C6.5604 1.24246 6.43042 1.32587 6.324 1.43506C6.21758 1.54425 6.13754 1.67633 6.09 1.82121C6.078 1.85921 6 2.14121 5.918 2.44521L5.77 3.00021H3.863C2.653 3.00021 1.933 3.00421 1.898 3.00421C1.76452 3.01821 1.63522 3.05895 1.51782 3.12398C1.40041 3.18901 1.2973 3.27701 1.21463 3.38274C1.13195 3.48846 1.0714 3.60975 1.03659 3.73937C1.00178 3.86898 0.993414 4.00429 1.012 4.13721C1.03864 4.34405 1.13012 4.53713 1.2733 4.68876C1.41649 4.84039 1.60402 4.94277 1.809 4.98121L1.871 4.99621H3.551C4.477 4.99621 5.234 5.00021 5.234 5.00021C5.234 5.00821 4.699 6.99221 4.695 6.99621C4.695 7.00021 4.207 7.00021 3.31 7.00021C1.77 7.00021 1.864 7.00021 1.724 7.04021C1.58307 7.08012 1.45279 7.1509 1.34261 7.24742C1.23243 7.34393 1.14512 7.46376 1.087 7.59821C1.02748 7.73383 0.998823 7.88098 1.00311 8.02902C1.00739 8.17707 1.04451 8.32231 1.11178 8.45426C1.17905 8.58621 1.27478 8.70158 1.39207 8.79201C1.50936 8.88245 1.64528 8.9457 1.79 8.97721C1.902 9.00021 1.926 9.00021 3.06 9.00021C3.665 9.00021 4.161 9.00021 4.161 9.00421C4.161 9.00421 4.126 9.14121 4.079 9.30921C3.966 9.73021 3.969 9.70721 3.969 9.86721C3.969 9.98021 3.974 10.0072 3.985 10.0592C4.01647 10.2202 4.08725 10.371 4.19103 10.4981C4.29482 10.6252 4.4284 10.7247 4.5799 10.7877C4.73139 10.8508 4.89612 10.8754 5.05943 10.8594C5.22274 10.8435 5.37958 10.7874 5.516 10.6962C5.70364 10.5754 5.84332 10.3929 5.911 10.1802C5.927 10.1402 6.001 9.86021 6.083 9.55521L6.23 9.00021H8.137C9.441 9.00021 10.062 9.00021 10.102 8.99221C10.2428 8.97854 10.379 8.93488 10.5014 8.86416C10.6239 8.79344 10.7298 8.69729 10.812 8.58221C10.984 8.34021 11.039 8.03521 10.965 7.74221C10.92 7.57245 10.8309 7.41763 10.7068 7.29345C10.5826 7.16928 10.4278 7.08018 10.258 7.03521C10.128 7.00021 10.23 7.00021 8.422 7.00021H6.77C6.77 6.99221 7.3 5.00821 7.305 5.00421C7.305 5.00021 7.797 4.99621 8.695 4.99621C9.918 4.99621 10.085 4.99621 10.141 4.98821C10.347 4.96173 10.5387 4.86868 10.687 4.72321C10.844 4.57892 10.9485 4.38646 10.984 4.17621C11 4.08621 11 3.89521 10.98 3.80921C10.9629 3.72049 10.9326 3.63486 10.89 3.55521C10.8455 3.45743 10.7835 3.36864 10.707 3.29321C10.6324 3.21733 10.545 3.15507 10.449 3.10921C10.3407 3.05329 10.2231 3.0177 10.102 3.00421C10.066 3.00421 9.625 3.00021 8.942 3.00021C8.336 3.00021 7.84 3.00021 7.84 2.99621C7.84 2.99621 7.875 2.85921 7.922 2.68821C8.035 2.27021 8.032 2.29321 8.032 2.13321C8.03531 2.06745 8.02993 2.00155 8.016 1.93721C7.96557 1.6908 7.82414 1.47245 7.61991 1.32566C7.41567 1.17888 7.16362 1.11444 6.914 1.14521Z" fill="currentColor"/>
</svg>
