<svg width="12" height="12" viewBox="0 0 12 12" fill="none" xmlns="http://www.w3.org/2000/svg">
<path d="M6.723 0.226964C6.53167 0.245711 6.34961 0.318462 6.19805 0.436735C6.04649 0.555007 5.93168 0.713927 5.867 0.894964C5.859 0.921964 5.73 1.39796 5.582 1.96096C5.43 2.51996 5.309 2.98396 5.305 2.98796C5.3 2.99996 5.19 2.99996 3.129 2.99996C1.633 2.99996 0.936996 2.99996 0.898996 3.00796C0.64831 3.03205 0.416227 3.15078 0.249996 3.33996C0.101799 3.50996 0.0150217 3.72483 0.0035967 3.95006C-0.00782833 4.1753 0.0567613 4.39784 0.186996 4.58196C0.237996 4.65196 0.343996 4.76196 0.417996 4.81196C0.550996 4.90596 0.717996 4.97196 0.877996 4.99196C0.913996 4.99596 1.558 4.99596 2.848 4.99596C4.215 4.99596 4.766 4.99996 4.766 5.00396C4.766 5.00796 4.242 6.95396 4.234 6.99196C4.23 6.99996 4.144 6.99996 2.578 6.99996C1.477 6.99996 0.909996 7.00396 0.877996 7.00796C0.644996 7.03496 0.417996 7.15196 0.261996 7.32396C0.14396 7.45603 0.0616831 7.61611 0.0229963 7.78896C-0.00672179 7.92623 -0.00710529 8.06822 0.0218709 8.20564C0.0508472 8.34306 0.108529 8.47281 0.191139 8.58638C0.273748 8.69996 0.379421 8.7948 0.501235 8.86469C0.623048 8.93459 0.758255 8.97796 0.897996 8.99196C0.937996 8.99996 1.395 8.99996 2.324 8.99996C3.289 8.99996 3.691 8.99996 3.691 9.00796C3.691 9.01196 3.594 9.37796 3.473 9.83196C3.352 10.282 3.25 10.672 3.243 10.695C3.19401 10.9558 3.25022 11.2255 3.39936 11.4451C3.54849 11.6647 3.77844 11.8163 4.039 11.867C4.089 11.879 4.117 11.879 4.227 11.879C4.34 11.879 4.363 11.879 4.418 11.867C4.58985 11.8311 4.74954 11.7516 4.88163 11.6359C5.01372 11.5203 5.11373 11.3726 5.172 11.207L5.477 10.082L5.766 9.00396L8.44 8.99996C11.335 8.99596 11.132 8.99996 11.249 8.96896C11.44 8.91796 11.62 8.80896 11.749 8.66396C11.8806 8.51351 11.9642 8.32717 11.9891 8.12887C12.0141 7.93056 11.9792 7.72932 11.889 7.55096C11.8434 7.45499 11.7815 7.36769 11.706 7.29296C11.6321 7.21621 11.5446 7.15383 11.448 7.10896C11.3679 7.06746 11.2824 7.03717 11.194 7.01896L11.136 7.00396H8.719C6.429 6.99996 6.305 6.99996 6.305 6.99196C6.305 6.98396 6.425 6.53496 6.57 5.99196L6.836 4.99996L8.984 4.99596H11.137L11.195 4.97996C11.3315 4.94897 11.4613 4.89339 11.578 4.81596C11.7327 4.70512 11.8526 4.55257 11.9239 4.37611C11.9951 4.19965 12.0146 4.00657 11.9802 3.81941C11.9459 3.63226 11.8589 3.45874 11.7296 3.31913C11.6003 3.17952 11.434 3.07958 11.25 3.03096C11.133 2.99996 11.262 3.00396 9.246 2.99996L7.371 2.99596L7.578 2.23396C7.688 1.81596 7.789 1.44496 7.793 1.41396C7.80736 1.35138 7.81275 1.28707 7.809 1.22296C7.81278 1.1572 7.8074 1.09124 7.793 1.02696C7.74168 0.776084 7.59644 0.554292 7.387 0.406964C7.19193 0.274598 6.95821 0.211241 6.723 0.226964Z" fill="currentColor"/>
</svg>
