<svg width="12" height="12" viewBox="0 0 12 12" fill="none" xmlns="http://www.w3.org/2000/svg">
<g clip-path="url(#clip0_2538_44553)">
<path d="M1.836 1.00391C1.828 1.00791 1.793 1.01191 1.766 1.01591C1.48184 1.04893 1.20812 1.14274 0.963439 1.29096C0.71876 1.43919 0.508858 1.63834 0.347998 1.87491C0.163998 2.14491 0.0579978 2.42191 0.0119978 2.75791C0.0039978 2.82791 0.0039978 2.98791 0.0039978 5.99191C0.0039978 9.01191 0.0039978 9.15191 0.0119978 9.22991C0.0739978 9.69991 0.265998 10.0939 0.589998 10.4139C0.900433 10.7305 1.30968 10.9316 1.75 10.9839C1.809 10.9919 2.09 10.9959 5.945 10.9959C8.949 10.9959 10.098 10.9959 10.16 10.9919C10.457 10.967 10.7451 10.8776 11.004 10.7299C11.293 10.5589 11.535 10.3239 11.707 10.0429C11.8552 9.79541 11.9509 9.52001 11.988 9.23391C11.996 9.15991 11.996 9.00391 12 6.04291C12 3.90591 12 2.90591 11.996 2.85191C11.9725 2.5824 11.8982 2.31977 11.777 2.07791C11.6194 1.77897 11.3898 1.52397 11.109 1.33591C10.8555 1.16739 10.5674 1.05803 10.266 1.01591C10.203 1.00391 9.957 1.00391 6.027 1.00391H1.836ZM10.004 8.99991H2V3.99991H10.004V8.99991Z" fill="currentColor"/>
<path d="M3.922 5.00391C3.70757 5.02042 3.50422 5.10576 3.34222 5.24721C3.18023 5.38867 3.06826 5.57866 3.023 5.78891C3 5.89491 3 5.94491 3 6.54291C3.004 7.15591 3.004 7.13691 3.035 7.26191C3.08 7.42728 3.16758 7.57796 3.289 7.69891C3.429 7.84391 3.605 7.93791 3.812 7.97991L3.875 7.99591H5.129L5.191 7.97991C5.39095 7.94082 5.57428 7.84183 5.71663 7.69608C5.85899 7.55033 5.95363 7.36472 5.988 7.16391C5.996 7.12491 5.996 7.03091 6 6.54291C6 5.95291 6 5.89091 5.977 5.78891C5.94765 5.65832 5.89278 5.53482 5.81555 5.42551C5.73833 5.31619 5.64027 5.22321 5.527 5.15191C5.38941 5.06519 5.2323 5.01431 5.07 5.00391C4.68737 4.9961 4.30462 4.9961 3.922 5.00391ZM7.918 5.00391C7.523 5.03491 7.18 5.30391 7.051 5.68391C7.01408 5.78497 6.99809 5.89248 7.004 5.99991C7.004 6.14791 7.012 6.19991 7.051 6.31591C7.11017 6.49396 7.21824 6.65177 7.36285 6.77131C7.50746 6.89085 7.68279 6.96729 7.8688 6.9919C8.0548 7.01651 8.24397 6.9883 8.4147 6.91048C8.58543 6.83267 8.73082 6.7084 8.83426 6.55186C8.9377 6.39533 8.99502 6.21285 8.99966 6.02528C9.0043 5.83772 8.95609 5.65263 8.86051 5.49117C8.76494 5.32971 8.62588 5.19839 8.45921 5.11223C8.29254 5.02606 8.10499 4.98853 7.918 5.00391Z" fill="currentColor"/>
</g>
<defs>
<clipPath id="clip0_2538_44553">
<rect width="12" height="12" fill="white"/>
</clipPath>
</defs>
</svg>
