<svg width="12" height="12" viewBox="0 0 12 12" fill="none" xmlns="http://www.w3.org/2000/svg">
<path d="M1.813 1.00791C1.3528 1.05129 0.921881 1.2529 0.593663 1.57839C0.265446 1.90387 0.0602362 2.33309 0.0129992 2.79291C-8.27014e-07 2.89491 -8.27014e-07 9.10491 0.0119992 9.20691C0.0549992 9.60191 0.198999 9.94891 0.448999 10.2619C0.507999 10.3359 0.663999 10.4959 0.738999 10.5549C1.03034 10.788 1.38002 10.9367 1.75 10.9849C1.82 10.9959 2.023 10.9959 5.996 10.9959C9.386 10.9959 10.18 10.9919 10.226 10.9879C10.6786 10.9361 11.1 10.7313 11.4204 10.4075C11.7408 10.0836 11.9411 9.66006 11.988 9.20691C12 9.10491 12 2.89491 11.988 2.79291C11.9416 2.34526 11.7456 1.92635 11.4317 1.60388C11.1178 1.28142 10.7042 1.07427 10.258 1.01591C10.195 1.00791 9.926 1.00391 6.031 1.00391C3.719 1.00391 1.848 1.00791 1.813 1.00791ZM4.109 3.00391C4.31984 3.02879 4.51748 3.11948 4.67383 3.26309C4.83019 3.40671 4.93732 3.59594 4.98 3.80391L4.996 3.86391V8.13691L4.98 8.19491C4.94169 8.388 4.84724 8.56549 4.70848 8.70513C4.56973 8.84478 4.39284 8.94036 4.2 8.97991L4.129 8.99591L3.543 8.99991C2.855 8.99991 2.843 8.99991 2.683 8.94491C2.49895 8.88369 2.33667 8.77028 2.21593 8.61847C2.09519 8.46666 2.02121 8.28302 2.003 8.08991C1.996 7.99991 1.996 3.99991 2.003 3.90991C2.031 3.60491 2.195 3.33591 2.449 3.16391C2.57 3.08191 2.739 3.02391 2.887 3.00791C2.949 2.99991 4.047 2.99991 4.109 3.00391Z" fill="currentColor"/>
</svg>
