<svg width="12" height="12" viewBox="0 0 12 12" fill="none" xmlns="http://www.w3.org/2000/svg">
<path d="M1.813 1.00791C1.3528 1.05129 0.921881 1.2529 0.593663 1.57839C0.265446 1.90387 0.0602362 2.33309 0.0129992 2.79291C-8.27014e-07 2.89491 -8.27014e-07 9.10491 0.0119992 9.20691C0.0549992 9.60191 0.198999 9.94891 0.448999 10.2619C0.507999 10.3359 0.663999 10.4959 0.738999 10.5549C1.03034 10.788 1.38002 10.9367 1.75 10.9849C1.82 10.9959 2.023 10.9959 5.996 10.9959C9.386 10.9959 10.18 10.9919 10.226 10.9879C10.6787 10.9363 11.1002 10.7316 11.4206 10.4077C11.7411 10.0838 11.9412 9.66013 11.988 9.20691C12 9.10491 12 2.89491 11.988 2.79291C11.942 2.34514 11.7461 1.92603 11.4321 1.6035C11.1181 1.28097 10.7044 1.07392 10.258 1.01591C10.195 1.00791 9.926 1.00391 6.031 1.00391C3.719 1.00391 1.848 1.00791 1.813 1.00791ZM9.109 3.00391C9.33906 3.02839 9.55343 3.13221 9.71528 3.29754C9.87714 3.46286 9.97639 3.67937 9.996 3.90991C10.004 3.99991 10.004 7.99991 9.996 8.08991C9.97777 8.29678 9.89527 8.49277 9.76006 8.6504C9.62484 8.80803 9.44369 8.91941 9.242 8.96891C9.122 8.99991 9.09 8.99991 8.457 8.99991C7.82 8.99591 7.852 8.99591 7.719 8.95991C7.555 8.90991 7.418 8.82791 7.293 8.70291C7.2154 8.62976 7.15288 8.5421 7.109 8.44491C7.06583 8.36692 7.03545 8.28251 7.019 8.19491L7.004 8.13691V3.86291L7.02 3.80491C7.06188 3.59755 7.16831 3.40876 7.32405 3.26559C7.47979 3.12242 7.67685 3.03222 7.887 3.00791C8.29429 3.00071 8.70167 2.99937 9.109 3.00391Z" fill="currentColor"/>
</svg>
