<svg width="12" height="12" viewBox="0 0 12 12" fill="none" xmlns="http://www.w3.org/2000/svg">
<g clip-path="url(#clip0_2538_45505)">
<path d="M8.902 0.309199C8.40373 0.325189 7.93028 0.530448 7.578 0.883199C7.488 0.965199 6.734 1.6952 6.688 1.7432L6.656 1.7732L6.688 1.8552C6.891 2.3712 7.238 2.9252 7.699 3.4612C7.945 3.7502 8.269 4.0662 8.555 4.3132C9.082 4.7662 9.641 5.1132 10.148 5.3132L10.227 5.3432L10.262 5.3092C10.301 5.2662 11.027 4.5162 11.122 4.4222C11.344 4.1882 11.5 3.9342 11.594 3.6372C11.6976 3.31729 11.719 2.97643 11.6561 2.64609C11.5931 2.31576 11.448 2.00661 11.234 1.7472C11.168 1.6682 10.344 0.840199 10.258 0.770199C9.9685 0.530649 9.61814 0.376241 9.246 0.324199C9.15122 0.314694 9.05618 0.308025 8.961 0.304199C8.949 0.304199 8.926 0.309199 8.902 0.309199ZM3.54 4.7972C2.25 6.0432 1.168 7.0972 1.137 7.1332C0.898378 7.39544 0.733757 7.7164 0.660002 8.0632C0.652002 8.1022 0.550002 8.7032 0.434002 9.3982L0.219002 10.6682V10.7852C0.219612 11.0318 0.311325 11.2695 0.476524 11.4526C0.641722 11.6357 0.868754 11.7513 1.114 11.7772C1.246 11.7932 1.223 11.7972 2.602 11.5672L3.938 11.3402C4.281 11.2662 4.598 11.1052 4.868 10.8632C4.91 10.8282 9.468 6.1292 9.473 6.1172C9.473 6.1172 9.43 6.0902 9.371 6.0632C9.01143 5.88001 8.66789 5.66693 8.344 5.4262C7.332 4.6722 6.44 3.6362 5.945 2.6402C5.915 2.5772 5.883 2.5222 5.883 2.5222L3.54 4.7972Z" fill="currentColor"/>
</g>
<defs>
<clipPath id="clip0_2538_45505">
<rect width="12" height="12" fill="white"/>
</clipPath>
</defs>
</svg>
