<svg width="12" height="12" viewBox="0 0 12 12" fill="none" xmlns="http://www.w3.org/2000/svg">
<g clip-path="url(#clip0_2538_46170)">
<path d="M5.727 0.00394259C4.72944 0.0495554 3.75877 0.341957 2.902 0.854943C2.402 1.15594 1.906 1.56594 1.504 2.01994C0.908875 2.6917 0.472441 3.4887 0.227001 4.35194C0.113001 4.76194 0.0430012 5.15994 0.0120012 5.63194C-0.0429003 6.51063 0.0956926 7.39066 0.418001 8.20994C0.737537 9.01809 1.22906 9.74704 1.85848 10.3462C2.48789 10.9454 3.24013 11.4005 4.063 11.6799C4.94257 11.9801 5.87978 12.0723 6.80097 11.9491C7.72216 11.8259 8.60223 11.4907 9.372 10.9699C10.3163 10.3263 11.0584 9.4278 11.512 8.37894C11.8346 7.62887 11.9993 6.82043 11.996 6.00394C11.996 5.73394 11.992 5.63294 11.969 5.40994C11.8768 4.42466 11.5399 3.47801 10.989 2.65594C10.4997 1.92481 9.85517 1.31053 9.10141 0.856819C8.34765 0.40311 7.50314 0.121128 6.628 0.0309426C6.3281 0.00469144 6.02694 -0.00432339 5.726 0.00394259H5.727ZM6.109 3.00394C6.32639 3.028 6.52984 3.12287 6.688 3.27394C6.86627 3.4402 6.97609 3.66699 6.996 3.90994C7 3.94994 7.004 4.17994 7.004 4.48794V4.99594H7.512C7.82 4.99594 8.051 4.99994 8.09 5.00394C8.406 5.03494 8.684 5.20694 8.855 5.47694C9.043 5.78494 9.047 6.19494 8.863 6.50694C8.695 6.78494 8.414 6.96494 8.09 6.99694C8.05 6.99994 7.82 6.99994 7.512 6.99994H7.004V7.51194C7.004 7.81994 7 8.05094 6.996 8.08994C6.97514 8.31214 6.88083 8.52105 6.72799 8.68367C6.57515 8.84629 6.37248 8.95335 6.152 8.98794C6.094 8.99994 5.902 8.99994 5.848 8.98794C5.64285 8.95613 5.4529 8.86062 5.305 8.71494C5.13167 8.55039 5.0246 8.32806 5.004 8.08994C5 8.04994 5 7.81994 5 7.51194V6.99994H4.488C4.18 6.99994 3.949 6.99994 3.91 6.99594C3.68012 6.97564 3.46444 6.87606 3.29989 6.71425C3.13534 6.55243 3.03216 6.33846 3.008 6.10894C2.99322 5.97691 3.00495 5.84326 3.0425 5.71582C3.08005 5.58838 3.14266 5.46972 3.22668 5.3668C3.31069 5.26388 3.41441 5.17877 3.53175 5.11646C3.64909 5.05415 3.77768 5.0159 3.91 5.00394C3.95 4.99994 4.18 4.99594 4.488 4.99594H5V4.48794C5 3.96094 5 3.89494 5.023 3.79294C5.04678 3.67636 5.09187 3.56516 5.156 3.46494C5.25652 3.30739 5.3989 3.18091 5.56721 3.09967C5.73552 3.01843 5.92311 2.98563 6.109 3.00494V3.00394Z" fill="currentColor"/>
</g>
<defs>
<clipPath id="clip0_2538_46170">
<rect width="12" height="12" fill="white"/>
</clipPath>
</defs>
</svg>
