<svg width="12" height="12" viewBox="0 0 12 12" fill="none" xmlns="http://www.w3.org/2000/svg">
<g clip-path="url(#clip0_2538_45885)">
<path d="M5.91 0.00392022C5.73728 0.0204839 5.57175 0.0812641 5.42935 0.180401C5.28695 0.279538 5.17249 0.413689 5.097 0.56992C5.04239 0.68255 5.01078 0.804933 5.004 0.92992C5 0.97292 5 1.83992 5 2.99992V4.99592H3C1.844 4.99592 0.973003 4.99992 0.930003 5.00392C0.617003 5.02692 0.340003 5.18792 0.164003 5.44892C0.0371582 5.64273 -0.0180185 5.87476 0.0080031 6.10492C0.0296535 6.34251 0.137841 6.56387 0.312003 6.72692C0.480003 6.88292 0.695003 6.97992 0.930003 6.99692C0.973003 6.99992 1.844 6.99992 3 6.99992H5V8.99992C5 10.1599 5 11.0269 5.004 11.0699C5.01528 11.2382 5.06894 11.4009 5.16 11.5429C5.437 11.9689 5.992 12.1209 6.45 11.8949C6.56881 11.8354 6.67434 11.7524 6.76026 11.651C6.84619 11.5496 6.91073 11.4319 6.95 11.3049C6.97621 11.2277 6.99169 11.1473 6.996 11.0659C7 11.0229 7.004 10.2299 7.004 8.99992V6.99992H9C10.16 6.99992 11.027 6.99992 11.07 6.99592C11.324 6.97592 11.547 6.87092 11.723 6.69092C12.012 6.38692 12.082 5.92992 11.895 5.55092C11.8268 5.4162 11.7293 5.29852 11.6095 5.20661C11.4897 5.11469 11.3508 5.05089 11.203 5.01992L11.07 5.00392C11.027 4.99992 10.16 4.99592 9 4.99592H7.004V2.99992C7.004 1.83992 7 0.97292 6.996 0.92992C6.98669 0.797374 6.95106 0.668012 6.89118 0.549393C6.83131 0.430774 6.7484 0.325276 6.64729 0.239064C6.54618 0.152853 6.42891 0.087655 6.30231 0.047281C6.17572 0.00690712 6.04236 -0.00783358 5.91 0.00392022Z" fill="currentColor"/>
</g>
<defs>
<clipPath id="clip0_2538_45885">
<rect width="12" height="12" fill="white"/>
</clipPath>
</defs>
</svg>
