<svg width="12" height="12" viewBox="0 0 12 12" fill="none" xmlns="http://www.w3.org/2000/svg">
<g clip-path="url(#clip0_2538_46456)">
<path d="M5.73 0.00395788C4.73746 0.049363 3.7715 0.339287 2.918 0.847958C2.38137 1.17014 1.89768 1.57322 1.484 2.04296C0.971972 2.62638 0.579238 3.30449 0.328003 4.03896C0.173293 4.49289 0.0725987 4.96347 0.0280028 5.44096C0.00800283 5.65596 0.00400283 5.74596 0.00400283 5.99996C-0.00113411 7.15892 0.332543 8.29412 0.964003 9.26596C1.64126 10.3124 2.62861 11.1211 3.788 11.579C4.68 11.934 5.66 12.066 6.621 11.969C8.11026 11.8151 9.48815 11.1099 10.484 9.99196C11.321 9.05266 11.8406 7.87347 11.969 6.62196C11.9909 6.41539 11.9999 6.20765 11.996 5.99996C11.9999 5.7926 11.9908 5.5852 11.969 5.37896C11.8289 4.00808 11.2203 2.72746 10.2459 1.75306C9.2715 0.778649 7.99088 0.170074 6.62 0.0299579C6.32411 0.00372194 6.02694 -0.00529326 5.73 0.00295788V0.00395788ZM6.18 2.00396C6.508 2.01996 6.813 2.06596 7.11 2.15196C7.79175 2.34805 8.40903 2.72205 8.89847 3.23556C9.3879 3.74907 9.73185 4.38358 9.895 5.07396C10.094 5.93396 10.008 6.83996 9.652 7.64096C9.25489 8.51958 8.55464 9.2258 7.67942 9.63036C6.8042 10.0349 5.81256 10.1107 4.886 9.84396C3.95848 9.57598 3.15926 8.98141 2.63595 8.17008C2.11265 7.35874 1.90061 6.38545 2.039 5.42996C2.17905 4.44578 2.68118 3.54923 3.44719 2.91563C4.21321 2.28203 5.18802 1.95695 6.181 2.00396H6.18Z" fill="currentColor"/>
<path d="M5.91 3.00396C5.766 3.01596 5.61 3.06996 5.48 3.14396C5.36305 3.21556 5.26211 3.31051 5.18349 3.42286C5.10486 3.53521 5.05023 3.66256 5.023 3.79696C5 3.89496 5 3.98396 5 4.49996V4.99596H4.5C4.227 4.99596 3.973 4.99996 3.93 5.00396C3.617 5.02696 3.34 5.18796 3.164 5.44896C2.926 5.80896 2.949 6.29296 3.227 6.63296C3.367 6.80496 3.578 6.93296 3.801 6.97696C3.895 6.99996 3.984 6.99996 4.5 6.99996H5V7.49996C5 8.01596 5 8.10496 5.023 8.20296C5.04984 8.33237 5.10207 8.45517 5.17666 8.56427C5.25125 8.67337 5.34673 8.7666 5.45757 8.83857C5.56841 8.91055 5.69243 8.95983 5.82243 8.98359C5.95244 9.00734 6.08587 9.00509 6.215 8.97696C6.3857 8.93952 6.54347 8.85766 6.67237 8.73966C6.80126 8.62165 6.89669 8.47169 6.949 8.30496C7 8.15596 7 8.10896 7.004 7.49996V6.99996H7.5C7.773 6.99996 8.027 6.99996 8.07 6.99596C8.324 6.97596 8.547 6.87096 8.723 6.69096C9.012 6.38696 9.082 5.92996 8.895 5.55096C8.82684 5.41623 8.72926 5.29856 8.60948 5.20664C8.4897 5.11473 8.35078 5.05093 8.203 5.01996C8.105 4.99996 8.016 4.99996 7.5 4.99596H7.004V4.49996C7.004 4.22696 7 3.97296 6.996 3.92996C6.98669 3.79741 6.95106 3.66805 6.89118 3.54943C6.83131 3.43081 6.7484 3.32531 6.64729 3.2391C6.54618 3.15289 6.42891 3.08769 6.30231 3.04732C6.17572 3.00694 6.04236 2.9922 5.91 3.00396Z" fill="currentColor"/>
</g>
<defs>
<clipPath id="clip0_2538_46456">
<rect width="12" height="12" fill="white"/>
</clipPath>
</defs>
</svg>
