<svg width="12" height="12" viewBox="0 0 12 12" fill="none" xmlns="http://www.w3.org/2000/svg">
<g clip-path="url(#clip0_2538_47603)">
<path d="M5.727 0.00394259C4.72944 0.0495554 3.75877 0.341957 2.902 0.854943C2.402 1.15594 1.906 1.56594 1.504 2.01994C0.908875 2.6917 0.472441 3.4887 0.227001 4.35194C0.113001 4.76194 0.0430012 5.15994 0.0120012 5.63194C-0.0429003 6.51063 0.0956926 7.39066 0.418001 8.20994C0.737537 9.01809 1.22906 9.74704 1.85848 10.3462C2.48789 10.9454 3.24013 11.4005 4.063 11.6799C4.94257 11.9801 5.87978 12.0723 6.80097 11.9491C7.72216 11.8259 8.60223 11.4907 9.372 10.9699C10.3163 10.3263 11.0584 9.4278 11.512 8.37894C11.8346 7.62887 11.9993 6.82043 11.996 6.00394C11.996 5.73394 11.992 5.63294 11.969 5.40994C11.8768 4.42466 11.5399 3.47801 10.989 2.65594C10.4997 1.92481 9.85517 1.31053 9.10141 0.856819C8.34765 0.40311 7.50314 0.121128 6.628 0.0309426C6.3281 0.00469144 6.02694 -0.00432339 5.726 0.00394259H5.727ZM6.312 1.01994C6.98989 1.09718 7.62176 1.40131 8.105 1.88294C8.531 2.30494 8.82 2.84294 8.937 3.42594C8.984 3.64794 8.997 3.78094 8.997 4.02694C8.99824 4.49876 8.88954 4.96438 8.67951 5.38687C8.46948 5.80936 8.1639 6.17711 7.787 6.46094C7.687 6.53094 7.547 6.62494 7.43 6.68694C7.2 6.81994 7.05 6.93394 6.984 7.03894L6.969 7.06994V7.21494C6.97631 7.35292 6.95543 7.49093 6.90763 7.62057C6.85984 7.7502 6.78613 7.86874 6.691 7.96894C6.61407 8.0535 6.52263 8.1236 6.421 8.17594C6.28249 8.24653 6.12944 8.28385 5.97398 8.28495C5.81853 8.28605 5.66496 8.25089 5.52547 8.18226C5.38598 8.11363 5.26442 8.01342 5.17042 7.8896C5.07643 7.76578 5.0126 7.62175 4.984 7.46894C4.973 7.40594 4.973 7.39094 4.973 7.15194C4.973 6.89794 4.973 6.86294 5 6.71894C5.086 6.21494 5.383 5.73394 5.852 5.34794C5.988 5.22994 6.187 5.09394 6.352 4.99994C6.551 4.88694 6.594 4.85994 6.68 4.77694C6.78387 4.67664 6.86549 4.55563 6.91956 4.42174C6.97364 4.28786 6.99896 4.14411 6.99388 3.9998C6.98881 3.8555 6.95345 3.71388 6.8901 3.58413C6.82676 3.45438 6.73684 3.33939 6.62618 3.24664C6.51552 3.15388 6.3866 3.08543 6.24778 3.04572C6.10896 3.00601 5.96334 2.99594 5.82037 3.01614C5.6774 3.03635 5.54027 3.08639 5.4179 3.16302C5.29552 3.23965 5.19062 3.34115 5.11 3.46094C5.04 3.56594 5.016 3.62494 4.95 3.83194C4.9167 3.92883 4.87027 4.02068 4.812 4.10494C4.66358 4.31512 4.43937 4.45948 4.18661 4.5076C3.93385 4.55573 3.67228 4.50387 3.457 4.36294C3.31078 4.26929 3.19189 4.13869 3.11234 3.98434C3.0328 3.82999 2.99542 3.65737 3.004 3.48394C3.008 3.37894 3.02 3.30394 3.062 3.16794C3.23516 2.58934 3.57658 2.07535 4.04279 1.69141C4.50901 1.30746 5.07893 1.07094 5.68 1.01194C5.71019 1.01215 5.74032 1.00947 5.77 1.00394H6.004C6.172 1.00794 6.234 1.00794 6.313 1.01994H6.312ZM6.11 9.00394C6.2767 9.02212 6.43611 9.08206 6.5735 9.17819C6.71089 9.27433 6.82181 9.40357 6.896 9.55394C6.9722 9.70627 7.00809 9.87559 7.00027 10.0457C6.99245 10.2159 6.94117 10.3812 6.85133 10.5259C6.76148 10.6706 6.63606 10.7898 6.48703 10.8723C6.338 10.9548 6.17032 10.9977 6 10.9969C5.93458 11.0004 5.86899 10.995 5.805 10.9809C5.61445 10.9439 5.43883 10.8521 5.29966 10.7168C5.1605 10.5814 5.06382 10.4084 5.02147 10.219C4.97913 10.0295 4.99295 9.83186 5.06125 9.65015C5.12955 9.46844 5.24935 9.31059 5.406 9.19594C5.609 9.04794 5.859 8.97794 6.109 9.00494L6.11 9.00394Z" fill="currentColor"/>
</g>
<defs>
<clipPath id="clip0_2538_47603">
<rect width="12" height="12" fill="white"/>
</clipPath>
</defs>
</svg>
