<svg width="12" height="12" viewBox="0 0 12 12" fill="none" xmlns="http://www.w3.org/2000/svg">
<path d="M7.898 1.41785C7.78159 1.43132 7.66832 1.46446 7.563 1.51585C7.41519 1.58509 7.28721 1.69048 7.19091 1.82226C7.0946 1.95405 7.03307 2.10799 7.012 2.26985C7.004 2.31985 7.004 2.41785 7.004 2.91385V3.49585L6.91 3.49985C6.58828 3.504 6.26734 3.53275 5.95 3.58585C4.87882 3.75634 3.88784 4.25777 3.116 5.01985C2.108 6.00385 1.39 7.49185 1.112 9.17185C1.077 9.39085 1.046 9.63186 1.038 9.75786C1.02797 9.85477 1.04034 9.95269 1.07415 10.0441C1.10796 10.1354 1.16231 10.2178 1.233 10.2849C1.335 10.3909 1.463 10.4569 1.608 10.4879C1.70303 10.5003 1.79936 10.499 1.894 10.4839C2.02129 10.4556 2.14032 10.3983 2.2418 10.3164C2.34328 10.2345 2.42446 10.1303 2.479 10.0119C2.519 9.92185 2.542 9.85486 2.573 9.69886C2.655 9.28886 2.761 8.99185 2.937 8.64885C3.421 7.73385 4.343 7.03085 5.491 6.70685C5.94314 6.57824 6.41001 6.50866 6.88 6.49985L7 6.49585L7.004 7.10885V7.71885L7.02 7.78485C7.047 7.91785 7.102 8.04285 7.172 8.14785C7.372 8.44085 7.73 8.61285 8.082 8.58185C8.29023 8.56761 8.48802 8.4854 8.645 8.34785C8.73 8.27785 11.335 5.66385 11.379 5.60885C11.473 5.47985 11.531 5.35185 11.566 5.19085C11.586 5.10885 11.586 4.90585 11.57 4.82385C11.5404 4.65208 11.4651 4.49145 11.352 4.35886C10.4459 3.44495 9.5359 2.53495 8.622 1.62885C8.422 1.46885 8.152 1.39085 7.898 1.41785Z" fill="currentColor"/>
</svg>
