<svg width="12" height="12" viewBox="0 0 12 12" fill="none" xmlns="http://www.w3.org/2000/svg">
<g clip-path="url(#clip0_2538_48365)">
<path d="M10.898 0.347966C10.7151 0.366267 10.5409 0.435178 10.395 0.546966C10.355 0.577966 10.18 0.749966 9.859 1.06997L9.379 1.54997L9.246 1.45997C8.64743 1.05695 7.97193 0.78219 7.262 0.652966C6.77824 0.570336 6.28584 0.550505 5.797 0.593966C4.92925 0.683222 4.08491 0.929208 3.305 1.31997C2.71469 1.60976 2.15801 1.96355 1.645 2.37497C1.485 2.50397 1.434 2.55897 1.379 2.67197C1.3198 2.802 1.30121 2.94686 1.32565 3.08762C1.35009 3.22839 1.41643 3.35851 1.516 3.46097C1.73 3.69097 2.066 3.76097 2.395 3.64797C2.485 3.61797 2.543 3.58597 2.675 3.49597C3.105 3.21097 3.5 3.03897 3.957 2.93797C4.238 2.87797 4.465 2.85497 4.793 2.85897C5.117 2.86697 5.367 2.89897 5.676 2.97297C6.21512 3.11041 6.72726 3.33758 7.191 3.64497L7.246 3.68397L6.926 4.00397C6.746 4.18397 6.586 4.34397 6.57 4.36697C6.47547 4.48134 6.4078 4.61546 6.37197 4.75945C6.33615 4.90344 6.33308 5.05363 6.363 5.19897C6.426 5.49997 6.637 5.77297 6.91 5.90197C7.012 5.95297 7.117 5.97997 7.238 5.99197C7.316 6.00397 11.023 6.00397 11.102 5.99197C11.2382 5.97856 11.3702 5.93728 11.4897 5.8707C11.6093 5.80413 11.7139 5.71368 11.797 5.60497C11.907 5.46097 11.973 5.28497 11.992 5.10197C12.004 5.02297 12.004 1.31597 11.992 1.23797C11.9792 1.07558 11.924 0.919389 11.832 0.784966C11.632 0.484966 11.262 0.311966 10.898 0.347966ZM0.89 6.00797C0.746 6.02297 0.586 6.07797 0.465 6.15597C0.352 6.22597 0.23 6.35197 0.156 6.46497C0.0948118 6.56845 0.0489991 6.68029 0.02 6.79697C0 6.90197 0 6.92997 0 8.87497L0.004 10.777L0.016 10.844C0.059 11.054 0.152 11.227 0.305 11.375C0.543 11.605 0.898 11.707 1.219 11.633C1.3662 11.6014 1.50391 11.5356 1.621 11.441C1.637 11.43 1.863 11.207 2.121 10.945L2.594 10.477L2.656 10.523C3.7155 11.344 5.04898 11.7286 6.383 11.598C7.633 11.488 8.973 10.961 10.168 10.105C10.378 9.95697 10.621 9.76497 10.688 9.69897C10.7561 9.62952 10.8082 9.54598 10.8405 9.45423C10.8728 9.36248 10.8846 9.26477 10.875 9.16797C10.8582 8.97736 10.7684 8.80061 10.6243 8.67465C10.4803 8.54868 10.2932 8.48323 10.102 8.49197C10.0023 8.48975 9.90301 8.50568 9.809 8.53897C9.69725 8.57989 9.59187 8.63645 9.496 8.70697C8.99572 9.05077 8.41623 9.26171 7.812 9.31997C7.62227 9.33247 7.43201 9.33514 7.242 9.32797C6.87333 9.30513 6.5094 9.23281 6.16 9.11297C5.64625 8.93932 5.16351 8.68479 4.73 8.35897C4.719 8.35197 4.738 8.33197 5.07 7.99997C5.262 7.80897 5.43 7.63697 5.441 7.62097C5.535 7.50397 5.605 7.35497 5.637 7.21097C5.66396 7.08039 5.6648 6.94577 5.63947 6.81487C5.61414 6.68397 5.56315 6.55937 5.48942 6.44828C5.4157 6.33719 5.32071 6.24179 5.20994 6.16759C5.09916 6.09339 4.97479 6.04186 4.844 6.01597L4.777 6.00397H2.855C1.801 5.99997 0.914 6.00397 0.89 6.00797Z" fill="currentColor"/>
</g>
<defs>
<clipPath id="clip0_2538_48365">
<rect width="12" height="12" fill="white"/>
</clipPath>
</defs>
</svg>
