<svg width="12" height="12" viewBox="0 0 12 12" fill="none" xmlns="http://www.w3.org/2000/svg">
<path d="M3.355 1.01202C3.25023 1.02716 3.1488 1.05996 3.055 1.10902C2.95895 1.15488 2.87164 1.21715 2.797 1.29302C2.738 1.35202 2.652 1.46502 1.949 2.39802C1.519 2.97302 1.156 3.46502 1.141 3.48802C1.08302 3.58716 1.04212 3.69533 1.02 3.80802C1.00596 3.86964 1.00057 3.93292 1.004 3.99602C1.0035 4.14579 1.03558 4.29388 1.098 4.43002C1.19306 4.63124 1.35441 4.79365 1.555 4.89002C1.65149 4.94301 1.75754 4.97632 1.867 4.98802C1.953 5.00402 2.109 4.99602 2.195 4.98002C2.406 4.93402 2.605 4.82402 2.738 4.67202C2.758 4.65202 2.938 4.41402 3.137 4.14802C3.336 3.88302 3.5 3.66802 3.504 3.67202L3.871 4.16002C4.266 4.68702 4.297 4.72702 4.418 4.81202C4.477 4.85202 4.613 4.92602 4.672 4.94502C4.797 4.98502 4.898 5.00002 5.035 4.99602C5.17392 4.99568 5.31073 4.96207 5.434 4.89802C5.59714 4.8204 5.73603 4.69978 5.83576 4.54914C5.93548 4.39849 5.99226 4.22352 6 4.04302C6.0075 3.86751 5.96706 3.69328 5.883 3.53902C5.848 3.46902 5.785 3.38302 5.063 2.41402C4.629 1.84002 4.258 1.34802 4.238 1.32802C4.09355 1.17123 3.90369 1.06354 3.695 1.02002C3.5824 1.00369 3.46824 1.001 3.355 1.01202ZM9.727 3.17602C9.61333 3.19111 9.50248 3.22278 9.398 3.27002C9.34008 3.29651 9.28511 3.32902 9.234 3.36702C9.18 3.40702 3.441 9.14502 3.383 9.21502C3.31149 9.30607 3.25726 9.40944 3.223 9.52002C3.18889 9.61763 3.17296 9.72067 3.176 9.82402C3.17079 9.90828 3.17992 9.99282 3.203 10.074C3.245 10.2376 3.32761 10.3879 3.44317 10.511C3.55873 10.6341 3.7035 10.726 3.86406 10.7783C4.02462 10.8305 4.19577 10.8414 4.36166 10.8099C4.52754 10.7784 4.68279 10.7055 4.813 10.598C4.836 10.574 6.148 9.26602 7.73 7.68402C10.863 4.54702 10.64 4.77402 10.715 4.62902C10.8126 4.44448 10.849 4.23365 10.8188 4.02706C10.7886 3.82048 10.6934 3.62888 10.547 3.48002C10.4421 3.37072 10.3139 3.28659 10.1719 3.23394C10.0299 3.18129 9.87776 3.16149 9.727 3.17602Z" fill="currentColor"/>
</svg>
