<svg width="12" height="12" viewBox="0 0 12 12" fill="none" xmlns="http://www.w3.org/2000/svg">
<path d="M9.328 0.00381569C9.00548 0.0305291 8.69044 0.115219 8.398 0.253816C7.738 0.577816 7.25 1.18382 7.074 1.89382C7.02827 2.077 7.00477 2.26502 7.004 2.45382L7 2.61982L6.164 3.03382C5.707 3.26082 5.094 3.56482 4.801 3.70582C4.511 3.85082 4.231 3.99082 4.18 4.01482L4.086 4.06082L4 3.99682C3.77446 3.82936 3.52224 3.70122 3.254 3.61782C2.91302 3.51033 2.55296 3.47717 2.19808 3.52057C1.84321 3.56397 1.50175 3.68291 1.19672 3.8694C0.89169 4.05589 0.630169 4.30558 0.429773 4.60166C0.229378 4.89774 0.0947632 5.23333 0.0349978 5.58582C0.0079978 5.74582 0.0039978 5.82382 0.0039978 5.99982C0.0039978 6.17582 0.0119978 6.26182 0.0349978 6.41382C0.0980503 6.7992 0.251186 7.16426 0.481947 7.4793C0.712708 7.79434 1.01458 8.05046 1.363 8.22682C1.79264 8.44505 2.27605 8.53489 2.75541 8.48559C3.23477 8.43629 3.68977 8.24993 4.066 7.94882L4.125 7.90182L4.523 8.10482C4.743 8.21482 4.993 8.34382 5.082 8.38682C5.172 8.43382 5.559 8.62882 5.938 8.81982C6.313 9.01182 6.707 9.20982 6.813 9.26182L7 9.35482L7.004 9.53082C7.008 9.76582 7.024 9.90182 7.074 10.1048C7.20832 10.6461 7.52041 11.1266 7.96026 11.4695C8.40012 11.8123 8.94231 11.9977 9.5 11.9958C9.719 11.9958 9.871 11.9798 10.078 11.9338C10.184 11.9058 10.378 11.8438 10.48 11.8008C10.9729 11.592 11.3853 11.2299 11.6563 10.7683C11.9272 10.3066 12.0421 9.76994 11.984 9.23782C11.9312 8.72558 11.7212 8.24223 11.3828 7.85407C11.0444 7.46592 10.5942 7.19197 10.094 7.06982C9.89989 7.02107 9.70007 6.99887 9.5 7.00382C9.3 7.00382 9.223 7.01182 9.07 7.03882C8.664 7.10882 8.27 7.28482 7.953 7.53482C7.93796 7.54865 7.92114 7.56042 7.903 7.56982C7.898 7.56982 7.395 7.31582 6.777 7.00382C6.16 6.69082 5.512 6.36382 5.332 6.27382C5.152 6.18382 5.004 6.10882 5.004 6.10482C5 6.10482 5 6.04282 4.996 5.97282V5.84282L5.094 5.79682C5.144 5.76982 5.797 5.44482 6.539 5.07782L7.887 4.41382L7.941 4.45382C8.309 4.74582 8.738 4.92582 9.223 4.98382C9.343 4.99982 9.656 4.99982 9.781 4.98382C10.2542 4.9302 10.7023 4.74258 11.0725 4.44302C11.4428 4.14346 11.7198 3.74442 11.871 3.29282C12 2.90582 12.031 2.47682 11.961 2.06982C11.8552 1.45327 11.5201 0.899565 11.023 0.519816C10.6586 0.239001 10.2235 0.064559 9.766 0.0158157C9.62031 0.00404566 9.47411 3.99915e-05 9.328 0.00381569ZM9.625 2.01582C9.68981 2.03105 9.75093 2.05908 9.80476 2.09826C9.85859 2.13743 9.90406 2.18696 9.93849 2.24395C9.97293 2.30093 9.99564 2.36422 10.0053 2.43009C10.0149 2.49597 10.0113 2.56311 9.99468 2.62757C9.97803 2.69204 9.94867 2.75253 9.90833 2.80549C9.86799 2.85846 9.81748 2.90284 9.75976 2.93602C9.70204 2.9692 9.63827 2.99052 9.5722 2.99873C9.50613 3.00694 9.43908 3.00187 9.375 2.98382C9.24918 2.94837 9.14223 2.86507 9.07709 2.75174C9.01194 2.63841 8.99376 2.50408 9.02645 2.37751C9.05913 2.25095 9.14009 2.14222 9.25196 2.07461C9.36384 2.007 9.49775 1.9859 9.625 2.01582ZM9.625 9.01582C9.70584 9.0366 9.78029 9.07706 9.84171 9.13359C9.90312 9.19012 9.9496 9.26097 9.977 9.33982C10.0098 9.44152 10.0096 9.55097 9.97656 9.65258C9.94353 9.7542 9.8793 9.84281 9.793 9.90582C9.71111 9.96545 9.61301 9.99875 9.51173 10.0013C9.41046 10.0038 9.31082 9.97546 9.22605 9.92C9.14128 9.86453 9.0754 9.78458 9.03716 9.69077C8.99893 9.59696 8.99015 9.49374 9.012 9.39482C9.03553 9.28493 9.09457 9.18583 9.18 9.11282C9.24299 9.06618 9.31424 9.03191 9.39 9.01182C9.46781 8.99738 9.54773 8.99874 9.625 9.01582Z" fill="currentColor"/>
</svg>
