<svg width="12" height="12" viewBox="0 0 12 12" fill="none" xmlns="http://www.w3.org/2000/svg">
<g clip-path="url(#clip0_2538_50362)">
<path d="M9.36 0.00375929C9.00952 0.0230231 8.66706 0.116051 8.355 0.276759C8.043 0.433759 7.746 0.683759 7.52 0.968759C7.469 1.03476 7.371 1.18376 7.328 1.25776C7.191 1.49976 7.09 1.77776 7.039 2.05076C7.01648 2.18494 7.00478 2.32071 7.004 2.45676L7 2.62076L6.164 3.03476C5.707 3.26176 5.109 3.55876 4.84 3.69076C4.297 3.96076 4.09 4.05876 4.082 4.05876C4.082 4.05876 4.055 4.03876 4.02 4.01576C3.51566 3.63094 2.88417 3.45163 2.25285 3.51398C1.62153 3.57633 1.03733 3.87571 0.618003 4.35176C0.385538 4.6193 0.212121 4.93286 0.109077 5.27197C0.00603363 5.61108 -0.0243183 5.96812 0.0200033 6.31976C0.0900033 6.85976 0.328003 7.35176 0.710003 7.74176C0.906003 7.94476 1.121 8.10176 1.367 8.22976C1.80673 8.45104 2.30177 8.53829 2.79065 8.48069C3.27954 8.42309 3.74074 8.22317 4.117 7.90576C4.44182 8.05935 4.76355 8.21938 5.082 8.38576C5.172 8.43376 5.559 8.62876 5.938 8.81976C6.313 9.01176 6.707 9.20976 6.813 9.26176L7 9.35476L7.004 9.52676C7.008 9.70676 7.016 9.80476 7.039 9.94876C7.10099 10.2874 7.23223 10.6096 7.42449 10.8952C7.61676 11.1807 7.86591 11.4236 8.15635 11.6084C8.4468 11.7932 8.77227 11.9161 9.1124 11.9693C9.45252 12.0226 9.79998 12.005 10.133 11.9178C10.7353 11.76 11.2574 11.384 11.598 10.8628C11.7931 10.56 11.9208 10.2188 11.9726 9.86237C12.0244 9.50593 11.9989 9.14252 11.898 8.79676C11.7311 8.2242 11.3637 7.73082 10.863 7.40676C10.5381 7.19318 10.1674 7.05922 9.781 7.01576C9.59399 7.00016 9.40601 7.00016 9.219 7.01576C8.76169 7.06647 8.32751 7.2434 7.965 7.52676C7.94789 7.53778 7.93121 7.54946 7.915 7.56176C7.902 7.56976 7.789 7.51576 6.777 7.00376C6.16 6.69076 5.512 6.36376 5.332 6.27376C5.152 6.18376 5.004 6.10876 5.004 6.10476C5 6.10476 5 6.04276 4.996 5.97276V5.84276L5.094 5.79676C5.144 5.76976 5.797 5.44876 6.539 5.07776L7.887 4.41376L7.945 4.45676C8.258 4.71076 8.648 4.88676 9.055 4.96076C9.188 4.98376 9.285 4.99176 9.445 4.99576C9.91123 5.00705 10.3713 4.8875 10.773 4.65066C11.1748 4.41382 11.5021 4.06916 11.718 3.65576C11.8839 3.33303 11.9786 2.97841 11.9955 2.61592C12.0124 2.25342 11.9512 1.89153 11.816 1.55476C11.6252 1.08454 11.2956 0.683703 10.871 0.405759C10.5387 0.190225 10.16 0.0565688 9.766 0.0157593C9.63067 0.00409261 9.49579 8.62135e-05 9.36 0.00375929ZM2.604 5.51176C2.68756 5.52925 2.76524 5.56784 2.82966 5.62385C2.89408 5.67987 2.94308 5.75144 2.972 5.83176C3.01177 5.95464 3.00609 6.08771 2.956 6.20676C2.90237 6.3204 2.80926 6.41068 2.694 6.46076C2.6255 6.49081 2.55047 6.50285 2.476 6.49576C2.42916 6.49907 2.3822 6.49119 2.339 6.47276C2.27932 6.45298 2.22374 6.42248 2.175 6.38276C2.09796 6.31394 2.04241 6.22436 2.015 6.12476C2.003 6.08976 2.003 6.06176 2.003 5.99976C1.99969 5.88541 2.03707 5.77359 2.10849 5.68422C2.17991 5.59485 2.28073 5.53374 2.393 5.51176C2.46285 5.50003 2.53416 5.50003 2.604 5.51176Z" fill="currentColor"/>
</g>
<defs>
<clipPath id="clip0_2538_50362">
<rect width="12" height="12" fill="white"/>
</clipPath>
</defs>
</svg>
