<svg width="12" height="12" viewBox="0 0 12 12" fill="none" xmlns="http://www.w3.org/2000/svg">
<path d="M9.36 0.00375929C9.00952 0.0230231 8.66705 0.116051 8.355 0.276759C8.043 0.433759 7.746 0.683759 7.52 0.968759C7.469 1.03476 7.371 1.18376 7.328 1.25776C7.191 1.49976 7.09 1.77776 7.039 2.05076C7.01648 2.18494 7.00477 2.32071 7.004 2.45676L7 2.62076L6.164 3.03476C5.707 3.26176 5.094 3.56576 4.801 3.70676C4.511 3.85176 4.231 3.99176 4.18 4.01576L4.086 4.06176L4 3.99676C3.77446 3.8293 3.52224 3.70116 3.254 3.61776C2.91302 3.51027 2.55296 3.47711 2.19808 3.52051C1.84321 3.56391 1.50175 3.68286 1.19672 3.86934C0.89169 4.05583 0.630169 4.30552 0.429773 4.6016C0.229378 4.89768 0.0947632 5.23327 0.0349978 5.58576C0.0079978 5.74576 0.0039978 5.82376 0.0039978 5.99976C0.0039978 6.17576 0.0119978 6.26176 0.0349978 6.41376C0.0980503 6.79915 0.251186 7.16421 0.481947 7.47925C0.712708 7.79428 1.01458 8.0504 1.363 8.22676C1.79264 8.445 2.27605 8.53484 2.75541 8.48554C3.23477 8.43624 3.68977 8.24988 4.066 7.94876L4.125 7.90176L4.523 8.10476C4.743 8.21476 4.993 8.34376 5.082 8.38676C5.172 8.43376 5.559 8.62876 5.938 8.81976C6.313 9.01176 6.707 9.20976 6.813 9.26176L7 9.35476L7.004 9.52676C7.008 9.70676 7.016 9.80476 7.039 9.94876C7.10099 10.2874 7.23222 10.6096 7.42449 10.8952C7.61675 11.1807 7.86591 11.4236 8.15635 11.6084C8.44679 11.7932 8.77226 11.9161 9.11239 11.9693C9.45252 12.0226 9.79997 12.005 10.133 11.9178C10.7353 11.76 11.2574 11.384 11.598 10.8628C11.7931 10.56 11.9208 10.2188 11.9726 9.86237C12.0243 9.50593 11.9989 9.14252 11.898 8.79676C11.7311 8.2242 11.3637 7.73082 10.863 7.40676C10.5381 7.19318 10.1674 7.05922 9.781 7.01576C9.59399 7.00016 9.40601 7.00016 9.219 7.01576C8.76169 7.06647 8.3275 7.2434 7.965 7.52676C7.94789 7.53778 7.93121 7.54946 7.915 7.56176C7.902 7.56976 7.789 7.51576 6.777 7.00376C6.16 6.69076 5.512 6.36376 5.332 6.27376C5.152 6.18376 5.004 6.10876 5.004 6.10476C5 6.10476 5 6.04276 4.996 5.97276V5.84276L5.094 5.79676C5.144 5.76976 5.797 5.44876 6.539 5.07776L7.887 4.41376L7.945 4.45676C8.258 4.71076 8.648 4.88676 9.055 4.96076C9.188 4.98376 9.285 4.99176 9.445 4.99576C9.91122 5.00705 10.3713 4.8875 10.773 4.65066C11.1748 4.41382 11.5021 4.06916 11.718 3.65576C11.8839 3.33303 11.9786 2.97841 11.9955 2.61592C12.0124 2.25342 11.9512 1.89153 11.816 1.55476C11.6252 1.08454 11.2956 0.683703 10.871 0.405759C10.5387 0.190225 10.16 0.0565688 9.766 0.0157593C9.63067 0.00409261 9.49578 8.62135e-05 9.36 0.00375929Z" fill="currentColor"/>
</svg>
