<svg width="12" height="12" viewBox="0 0 12 12" fill="none" xmlns="http://www.w3.org/2000/svg">
<path d="M9.328 0.00381569C9.00548 0.0305291 8.69044 0.115219 8.398 0.253816C7.738 0.577816 7.25 1.18382 7.074 1.89382C7.02827 2.077 7.00477 2.26502 7.004 2.45382L7 2.61982L6.164 3.03382C5.707 3.26082 5.109 3.55782 4.84 3.68982C4.297 3.95982 4.09 4.05782 4.082 4.05782C4.082 4.05782 4.055 4.03782 4.02 4.01482C3.51565 3.62999 2.88417 3.45069 2.25285 3.51304C1.62153 3.57539 1.03732 3.87477 0.617999 4.35082C0.3854 4.61847 0.211906 4.9322 0.108859 5.27149C0.00581228 5.61079 -0.0244675 5.96802 0.0199991 6.31982C0.0899991 6.85982 0.327999 7.35182 0.709999 7.74182C0.905999 7.94482 1.121 8.10182 1.367 8.22982C1.80673 8.45109 2.30177 8.53835 2.79065 8.48075C3.27953 8.42315 3.74074 8.22323 4.117 7.90582C4.44182 8.0594 4.76355 8.21943 5.082 8.38582C5.172 8.43382 5.559 8.62882 5.938 8.81982C6.313 9.01182 6.707 9.20982 6.813 9.26182L7 9.35482L7.004 9.53082C7.008 9.76582 7.024 9.90182 7.074 10.1048C7.20833 10.6461 7.52041 11.1266 7.96026 11.4695C8.40012 11.8123 8.94231 11.9977 9.5 11.9958C9.719 11.9958 9.871 11.9798 10.078 11.9338C10.184 11.9058 10.378 11.8438 10.48 11.8008C10.9729 11.592 11.3853 11.2299 11.6563 10.7683C11.9272 10.3066 12.0421 9.76994 11.984 9.23782C11.9312 8.72558 11.7212 8.24223 11.3828 7.85407C11.0444 7.46592 10.5942 7.19197 10.094 7.06982C9.89989 7.02107 9.70007 6.99887 9.5 7.00382C9.3 7.00382 9.223 7.01182 9.07 7.03882C8.664 7.10882 8.27 7.28482 7.953 7.53482C7.93796 7.54865 7.92115 7.56042 7.903 7.56982C7.898 7.56982 7.395 7.31582 6.777 7.00382C6.16 6.69082 5.512 6.36382 5.332 6.27382C5.152 6.18382 5.004 6.10882 5.004 6.10482C5 6.10482 5 6.04282 4.996 5.97282V5.84282L5.094 5.79682C5.144 5.76982 5.797 5.44482 6.539 5.07782L7.887 4.41382L7.941 4.45382C8.309 4.74582 8.738 4.92582 9.223 4.98382C9.343 4.99982 9.656 4.99982 9.781 4.98382C10.2542 4.9302 10.7023 4.74258 11.0725 4.44302C11.4428 4.14346 11.7198 3.74442 11.871 3.29282C12 2.90582 12.031 2.47682 11.961 2.06982C11.8552 1.45327 11.5201 0.899565 11.023 0.519816C10.6586 0.239001 10.2235 0.064559 9.766 0.0158157C9.62032 0.00404566 9.47411 3.99915e-05 9.328 0.00381569ZM9.625 2.01582C9.68981 2.03105 9.75093 2.05908 9.80476 2.09826C9.85859 2.13743 9.90406 2.18696 9.9385 2.24395C9.97293 2.30093 9.99564 2.36422 10.0053 2.43009C10.0149 2.49597 10.0113 2.56311 9.99468 2.62757C9.97803 2.69204 9.94867 2.75253 9.90833 2.80549C9.86799 2.85846 9.81748 2.90284 9.75976 2.93602C9.70204 2.9692 9.63827 2.99052 9.5722 2.99873C9.50613 3.00694 9.43908 3.00187 9.375 2.98382C9.24918 2.94837 9.14224 2.86507 9.07709 2.75174C9.01194 2.63841 8.99376 2.50408 9.02645 2.37751C9.05913 2.25095 9.14009 2.14222 9.25197 2.07461C9.36384 2.007 9.49775 1.9859 9.625 2.01582ZM2.605 5.51182C2.68855 5.5293 2.76624 5.56789 2.83066 5.62391C2.89507 5.67992 2.94408 5.7515 2.973 5.83182C3.01277 5.9547 3.00709 6.08777 2.957 6.20682C2.90337 6.32046 2.81025 6.41073 2.695 6.46082C2.6265 6.49086 2.55146 6.50291 2.477 6.49582C2.43015 6.49913 2.38319 6.49124 2.34 6.47282C2.28031 6.45304 2.22474 6.42254 2.176 6.38282C2.09896 6.31399 2.04341 6.22441 2.016 6.12482C2.004 6.08982 2.004 6.06182 2.004 5.99982C2.00068 5.88546 2.03806 5.77365 2.10949 5.68428C2.18091 5.59491 2.28173 5.53379 2.394 5.51182C2.46384 5.50009 2.53515 5.50009 2.605 5.51182ZM9.625 9.01582C9.70584 9.0366 9.78029 9.07706 9.84171 9.13359C9.90313 9.19012 9.9496 9.26097 9.977 9.33982C10.0098 9.44152 10.0096 9.55097 9.97657 9.65258C9.94353 9.7542 9.8793 9.84281 9.793 9.90582C9.71111 9.96545 9.61301 9.99875 9.51173 10.0013C9.41046 10.0038 9.31082 9.97546 9.22605 9.92C9.14128 9.86453 9.0754 9.78458 9.03716 9.69077C8.99893 9.59696 8.99015 9.49374 9.012 9.39482C9.03553 9.28493 9.09457 9.18583 9.18 9.11282C9.24299 9.06618 9.31425 9.03191 9.39 9.01182C9.46781 8.99738 9.54773 8.99874 9.625 9.01582Z" fill="currentColor"/>
</svg>
