<svg width="12" height="12" viewBox="0 0 12 12" fill="none" xmlns="http://www.w3.org/2000/svg">
<path d="M5.879 0.0499113C5.805 0.0619113 5.508 0.147911 3.727 0.683911C2.613 1.01591 1.687 1.29291 1.668 1.30091C1.605 1.32391 1.512 1.37091 1.441 1.41791C1.342 1.4893 1.25406 1.57489 1.18 1.67191C1.086 1.81191 1.027 1.96891 1.008 2.12491C0.996004 2.21491 1.004 6.48491 1.012 6.57791C1.016 6.61791 1.023 6.69091 1.032 6.74191C1.109 7.35891 1.324 7.94191 1.668 8.45691C1.902 8.81191 2.164 9.10191 2.504 9.37491L3.996 10.4959C4.49475 10.8748 4.99745 11.2485 5.504 11.6169C5.61582 11.6808 5.7392 11.7219 5.867 11.7379C5.945 11.7499 6.097 11.7499 6.176 11.7339C6.293 11.7109 6.406 11.6719 6.504 11.6139C6.563 11.5779 9.364 9.48391 9.508 9.36391C10.0862 8.89652 10.524 8.27844 10.773 7.57791C10.898 7.22291 10.973 6.85191 10.993 6.47291C10.996 6.39491 11 5.72691 10.996 4.23791C10.996 2.23391 10.996 2.11291 10.984 2.06591C10.9468 1.8699 10.8529 1.68911 10.714 1.54591C10.6114 1.44038 10.4863 1.35936 10.348 1.30891C10.32 1.29691 9.383 1.01591 8.27 0.678911C6.676 0.203911 6.223 0.0699113 6.164 0.0599113C6.10843 0.0513183 6.05224 0.0473048 5.996 0.0479113C5.941 0.0479113 5.891 0.0519113 5.879 0.0519113V0.0499113Z" fill="currentColor"/>
</svg>
