<svg width="12" height="12" viewBox="0 0 12 12" fill="none" xmlns="http://www.w3.org/2000/svg">
<g clip-path="url(#clip0_3400_7695)">
<path d="M2.879 0.004C2.41365 0.0322693 1.97279 0.222221 1.63262 0.541026C1.29246 0.85983 1.07435 1.28746 1.016 1.75C1.004 1.82 1.004 1.977 1.004 6C1.004 10.023 1.004 10.176 1.016 10.25C1.07402 10.7083 1.28907 11.1324 1.62454 11.45C1.96002 11.7676 2.39519 11.9591 2.856 11.992C2.961 12.004 9.039 12.004 9.148 11.992C9.58248 11.9598 9.99459 11.7867 10.3218 11.499C10.649 11.2113 10.8734 10.8248 10.961 10.398C10.996 10.203 10.996 10.406 10.996 8.055C11 5.727 11 5.875 10.965 5.742C10.9187 5.57289 10.8292 5.41875 10.7052 5.29477C10.5813 5.17079 10.4271 5.08126 10.258 5.035C10.12 5 10.254 5 8.48 4.996H6.863L6.805 4.98C6.59672 4.93897 6.40703 4.83241 6.26363 4.67588C6.12024 4.51935 6.03066 4.32107 6.008 4.11C5.99979 3.57571 5.99713 3.04135 6 2.507C6 1.444 6 0.937 5.992 0.897C5.97089 0.663333 5.8653 0.445383 5.695 0.284C5.53539 0.125754 5.32579 0.0278433 5.102 0.007C5.062 0 4.699 0 3.972 0C3.388 0 2.896 0.004 2.88 0.004H2.879ZM3.516 7.024C3.691 7.051 3.82 7.09 3.937 7.144C4.031 7.187 4.102 7.234 4.133 7.274C4.195 7.352 4.223 7.477 4.199 7.582C4.18912 7.62468 4.17004 7.66469 4.14309 7.69923C4.11615 7.73378 4.08199 7.76202 4.043 7.782C4.008 7.8 4 7.8 3.941 7.8C3.871 7.8 3.863 7.8 3.738 7.745C3.56208 7.6802 3.37539 7.64965 3.188 7.655C2.984 7.667 2.852 7.729 2.797 7.839C2.773 7.882 2.773 7.882 2.773 7.949C2.773 8.015 2.777 8.019 2.789 8.049C2.824 8.109 2.871 8.144 2.984 8.183L3.324 8.265C3.644 8.339 3.704 8.355 3.797 8.394C3.91729 8.43785 4.02749 8.50553 4.121 8.593C4.176 8.647 4.231 8.722 4.261 8.78C4.285 8.823 4.316 8.92 4.328 8.98C4.344 9.054 4.344 9.265 4.328 9.347C4.29275 9.54325 4.19234 9.72188 4.043 9.854C3.883 10.003 3.625 10.104 3.348 10.132C3.21528 10.1431 3.08192 10.1445 2.949 10.136C2.83119 10.1233 2.71406 10.1049 2.598 10.081C2.387 10.034 2.156 9.936 2.086 9.866C2.02958 9.80318 1.99887 9.72143 2 9.637C1.99817 9.54158 2.03328 9.44914 2.098 9.379C2.11935 9.35376 2.1456 9.33313 2.17517 9.31834C2.20474 9.30356 2.237 9.29494 2.27 9.293C2.328 9.289 2.367 9.301 2.445 9.336C2.68 9.441 2.961 9.5 3.195 9.488C3.422 9.48 3.539 9.43 3.594 9.32C3.609 9.293 3.614 9.285 3.614 9.227C3.61668 9.19611 3.61116 9.16507 3.598 9.137C3.563 9.067 3.477 9.016 3.328 8.977C3.301 8.969 3.16 8.937 3.012 8.902C2.652 8.82 2.559 8.789 2.426 8.711C2.32092 8.65075 2.23195 8.566 2.16666 8.46397C2.10137 8.36195 2.06169 8.24566 2.051 8.125C2.04086 8.01297 2.04455 7.90012 2.062 7.789C2.11052 7.55636 2.24794 7.35184 2.445 7.219C2.621 7.102 2.84 7.031 3.085 7.004H3.265C3.402 7.008 3.438 7.008 3.516 7.024ZM6.324 7.016C6.781 7.086 7.133 7.344 7.34 7.75C7.438 7.938 7.492 8.145 7.512 8.383C7.52 8.488 7.516 8.743 7.504 8.84C7.464 9.145 7.359 9.41 7.195 9.629C7.117 9.73 6.985 9.855 6.883 9.922L6.832 9.953L6.859 9.965C6.938 9.988 7.043 10.075 7.102 10.156C7.129 10.196 7.289 10.469 7.312 10.516C7.34271 10.5741 7.35441 10.6404 7.34544 10.7055C7.33647 10.7707 7.30728 10.8313 7.262 10.879C7.23013 10.9151 7.19108 10.9442 7.14734 10.9643C7.10361 10.9845 7.05615 10.9952 7.008 10.996C6.9595 11.0005 6.91061 10.9937 6.86516 10.9762C6.81971 10.9587 6.77893 10.9309 6.746 10.895C6.703 10.852 6.691 10.832 6.536 10.559C6.352 10.242 6.332 10.215 6.27 10.184C6.21 10.156 6.168 10.148 6.027 10.144C5.9084 10.1417 5.79053 10.1249 5.676 10.094C5.44523 10.0397 5.23489 9.92032 5.07 9.75C4.836 9.516 4.703 9.227 4.652 8.848C4.63911 8.75861 4.63409 8.66827 4.637 8.578C4.637 8.359 4.648 8.258 4.691 8.082C4.719 7.969 4.75 7.875 4.809 7.762C4.973 7.426 5.223 7.203 5.574 7.082C5.672 7.047 5.816 7.016 5.918 7.008C5.984 7 6.262 7.008 6.324 7.016ZM8.454 7.059C8.57 7.089 8.648 7.176 8.684 7.309L8.699 7.355V8.395L8.703 9.434H9.207C9.762 9.434 9.773 9.434 9.844 9.469C9.89374 9.49657 9.93518 9.53697 9.964 9.586C9.98945 9.64251 10.0018 9.70405 10 9.766C10.0016 9.82622 9.9896 9.88602 9.965 9.941C9.93687 9.98847 9.89821 10.0288 9.852 10.059C9.782 10.098 9.816 10.098 8.988 10.094H8.234L8.191 10.078C8.15056 10.0655 8.1131 10.0449 8.08094 10.0174C8.04878 9.98983 8.02259 9.95602 8.004 9.918C7.957 9.82 7.961 9.938 7.961 8.57C7.961 7.418 7.961 7.355 7.969 7.312C7.98001 7.26377 8.001 7.21839 8.03063 7.17877C8.06025 7.13916 8.09785 7.10619 8.141 7.082C8.16993 7.0688 8.20007 7.05842 8.231 7.051C8.30496 7.042 8.37988 7.0447 8.453 7.059H8.454Z" fill="currentColor"/>
<path d="M6.012 7.672C5.87564 7.68095 5.74679 7.73759 5.648 7.832C5.535 7.942 5.457 8.109 5.422 8.32C5.402 8.457 5.402 8.687 5.422 8.824C5.461 9.059 5.543 9.227 5.68 9.344C5.74444 9.39466 5.81823 9.43213 5.89716 9.45427C5.97609 9.4764 6.05861 9.48277 6.14 9.473C6.211 9.47099 6.28087 9.45473 6.34546 9.42518C6.41005 9.39563 6.46805 9.3534 6.516 9.301C6.636 9.176 6.707 9.004 6.738 8.766C6.75 8.696 6.75 8.446 6.738 8.371C6.72734 8.25178 6.69586 8.13535 6.645 8.027C6.523 7.77 6.301 7.648 6.012 7.672ZM7.438 0.21C7.34533 0.224371 7.25788 0.262241 7.184 0.32C7.1051 0.38631 7.04796 0.474806 7.02 0.574L7.004 0.617V1.867C7.004 3.043 7.004 3.125 7.016 3.176C7.046 3.328 7.106 3.465 7.196 3.594C7.211 3.614 7.254 3.664 7.296 3.707C7.473 3.883 7.684 3.977 7.937 3.997C7.989 4 8.445 4 9.195 4C10.488 4 10.387 4 10.48 3.965C10.5684 3.92815 10.6447 3.86715 10.7 3.78898C10.7554 3.71081 10.7876 3.61863 10.793 3.523C10.7967 3.42765 10.7738 3.33315 10.727 3.25C10.699 3.207 10.594 3.098 9.254 1.758C8.234 0.734 7.8 0.308 7.774 0.289C7.67566 0.221105 7.55516 0.193214 7.437 0.211L7.438 0.21Z" fill="currentColor"/>
</g>
<defs>
<clipPath id="clip0_3400_7695">
<rect width="12" height="12" fill="white"/>
</clipPath>
</defs>
</svg>
