<svg width="12" height="12" viewBox="0 0 12 12" fill="none" xmlns="http://www.w3.org/2000/svg">
<g clip-path="url(#clip0_2538_55121)">
<path d="M1.836 0.00801691C1.53448 0.0322377 1.24242 0.124672 0.981865 0.278334C0.721314 0.431997 0.499095 0.642869 0.332001 0.895017C0.156001 1.16502 0.0620009 1.41802 0.0120009 1.78102C8.63336e-07 1.85102 -0.00399914 10.008 0.00800086 10.141C0.0470009 10.731 0.336001 11.254 0.808001 11.605C1.113 11.835 1.468 11.965 1.863 11.992C1.922 12 3.148 12 6.06 12L10.169 11.996L10.259 11.984C10.5247 11.9503 10.7809 11.8629 11.0119 11.7273C11.2429 11.5917 11.444 11.4106 11.603 11.195C11.833 10.891 11.962 10.539 11.997 10.145C12.005 10.039 12.005 1.96102 11.993 1.85202C11.9601 1.38612 11.7645 0.946612 11.4404 0.610286C11.1163 0.273959 10.6844 0.0622025 10.22 0.0120169C10.156 1.69137e-05 1.94 1.69137e-05 1.836 0.00801691ZM4.672 2.01602C4.90379 2.05803 5.11333 2.18044 5.26376 2.36171C5.4142 2.54298 5.49588 2.7715 5.49445 3.00706C5.49302 3.24262 5.40855 3.47012 5.25593 3.64955C5.1033 3.82898 4.89228 3.94883 4.66 3.98802C4.60024 3.99503 4.54016 3.99904 4.48 4.00002C4.375 4.00802 4.355 4.00802 4.316 4.02302C4.23146 4.04928 4.15665 4.1001 4.10108 4.16902C4.04552 4.23794 4.01173 4.32183 4.004 4.41002C4.00044 4.52628 3.99244 4.64236 3.98 4.75802C3.926 5.18802 3.758 5.59802 3.496 5.94102L3.453 6.00002L3.496 6.05902C3.773 6.41802 3.941 6.85202 3.988 7.30102C3.992 7.35102 4 7.44502 4 7.51602C4.008 7.62502 4.008 7.64502 4.023 7.68402C4.04402 7.75316 4.08175 7.81606 4.13285 7.86717C4.18395 7.91827 4.24686 7.956 4.316 7.97702C4.356 7.99202 4.375 7.99202 4.48 8.00002C4.69379 7.9963 4.90316 8.06107 5.07751 8.18486C5.25185 8.30864 5.38203 8.48495 5.449 8.68802C5.48312 8.78839 5.49904 8.89405 5.496 9.00002C5.49886 9.1063 5.48295 9.21226 5.449 9.31302C5.39157 9.48751 5.28719 9.64282 5.1473 9.76189C5.00741 9.88096 4.83743 9.9592 4.656 9.98802C4.5157 10.0013 4.37453 10.0026 4.234 9.99202C3.88045 9.95765 3.53823 9.84858 3.23 9.67202C2.86425 9.46191 2.55888 9.16101 2.34341 8.7984C2.12794 8.43578 2.00966 8.02371 2 7.60202C1.996 7.42602 1.969 7.34402 1.89 7.25402C1.79132 7.15752 1.68995 7.06381 1.586 6.97302C1.437 6.84002 1.301 6.71102 1.277 6.69102C1.10019 6.50457 1.00237 6.25696 1.004 6.00002C1.00187 5.74104 1.10131 5.49153 1.281 5.30502C1.305 5.28102 1.449 5.14802 1.601 5.01202C1.7093 4.92079 1.81277 4.824 1.911 4.72202C1.973 4.63702 1.996 4.56202 2 4.39802C2.00838 3.99335 2.11688 3.59706 2.31581 3.24456C2.51474 2.89207 2.79791 2.59435 3.14 2.37802C3.50077 2.15315 3.91252 2.02312 4.337 2.00002C4.431 1.99602 4.602 2.00402 4.672 2.01602ZM7.797 2.01202C8.102 2.04302 8.371 2.12502 8.648 2.26202C9.293 2.58602 9.762 3.17202 9.934 3.87502C9.969 4.03502 9.992 4.20702 10 4.39802C10.004 4.57402 10.031 4.65602 10.11 4.74602C10.129 4.77002 10.27 4.89802 10.418 5.03102C10.566 5.16402 10.707 5.28902 10.723 5.30902C10.9004 5.49533 10.9994 5.74274 10.9994 6.00002C10.9994 6.25729 10.9004 6.50471 10.723 6.69102C10.707 6.71102 10.566 6.83602 10.418 6.96902C10.3124 7.0611 10.2093 7.15614 10.109 7.25402C10.031 7.34402 10.004 7.42602 10 7.60202C9.99336 7.87816 9.94064 8.15125 9.844 8.41002C9.72169 8.73083 9.53424 9.02281 9.29345 9.26756C9.05266 9.5123 8.76377 9.7045 8.445 9.83202C8.16013 9.94299 7.85671 9.99865 7.551 9.99602C7.418 9.99602 7.387 9.99602 7.328 9.98402C7.14989 9.95295 6.98355 9.87413 6.84671 9.75596C6.70988 9.63779 6.60767 9.4847 6.551 9.31302C6.51705 9.21226 6.50114 9.1063 6.504 9.00002C6.5033 8.86715 6.52923 8.73548 6.58024 8.61279C6.63125 8.4901 6.70632 8.37887 6.80102 8.28566C6.89572 8.19246 7.00813 8.11916 7.13161 8.0701C7.2551 8.02104 7.38716 7.99721 7.52 8.00002C7.625 7.99202 7.645 7.99202 7.684 7.97702C7.75315 7.956 7.81605 7.91827 7.86715 7.86717C7.91825 7.81606 7.95598 7.75316 7.977 7.68402C7.992 7.64402 7.992 7.62502 8 7.51602C8 7.44602 8.008 7.35202 8.012 7.30102C8.055 6.86302 8.222 6.43702 8.484 6.08602L8.547 6.00002L8.484 5.91402C8.17475 5.50093 8.00521 5.00002 8 4.48402C7.992 4.37502 7.992 4.35502 7.977 4.31602C7.95598 4.24687 7.91825 4.18397 7.86715 4.13287C7.81605 4.08176 7.75315 4.04404 7.684 4.02302C7.644 4.00802 7.625 4.00802 7.52 4.00002C7.3728 4.00192 7.22698 3.97146 7.09285 3.91079C6.95872 3.85012 6.83955 3.76073 6.74378 3.64893C6.648 3.53713 6.57796 3.40566 6.5386 3.2638C6.49924 3.12195 6.49153 2.97318 6.516 2.82802C6.55357 2.61213 6.66102 2.41456 6.82182 2.26568C6.98261 2.11681 7.18786 2.02488 7.406 2.00402C7.53602 1.99731 7.66736 1.99999 7.797 2.01202Z" fill="currentColor"/>
</g>
<defs>
<clipPath id="clip0_2538_55121">
<rect width="12" height="12" fill="white"/>
</clipPath>
</defs>
</svg>
