<svg width="12" height="12" viewBox="0 0 12 12" fill="none" xmlns="http://www.w3.org/2000/svg">
<g clip-path="url(#clip0_2538_55406)">
<path d="M6.84 0.00777865C6.49476 0.0347189 6.16252 0.151286 5.87612 0.345958C5.58972 0.54063 5.35909 0.806668 5.207 1.11778C5.08471 1.35792 5.01548 1.62154 5.004 1.89078C4.996 2.02278 4.996 9.97678 5.004 10.1048C5.02 10.3908 5.082 10.6328 5.204 10.8788C5.34632 11.1719 5.55844 11.4256 5.82172 11.6176C6.08501 11.8095 6.39141 11.9339 6.714 11.9798C6.855 11.9998 6.93 11.9998 8.562 11.9998L10.168 11.9958L10.258 11.9838C10.5237 11.95 10.7799 11.8627 11.0109 11.7271C11.2419 11.5915 11.443 11.4104 11.602 11.1948C11.832 10.8908 11.961 10.5388 11.996 10.1448C12.004 10.0388 12.004 1.96078 11.992 1.85178C11.9591 1.38604 11.7636 0.946648 11.4398 0.610343C11.1159 0.274037 10.6842 0.0621837 10.22 0.0117786C10.16 0.00377865 6.939 -0.000221352 6.84 0.00777865ZM1.816 1.00778C1.44981 1.04342 1.10027 1.17826 0.805001 1.39778C0.574703 1.56788 0.384143 1.78602 0.246524 2.03709C0.108905 2.28815 0.0275172 2.56614 0.00800055 2.85178C-0.00399945 2.96478 -0.00399945 9.03478 0.00800055 9.14778C0.041627 9.60424 0.231029 10.0353 0.544502 10.3688C0.857976 10.7023 1.27649 10.918 1.73 10.9798C1.811 10.9958 1.811 10.9958 2.468 10.9958C3.069 10.9958 3.124 10.9958 3.175 10.9838C3.327 10.9538 3.464 10.8938 3.593 10.8038C3.613 10.7888 3.663 10.7458 3.706 10.7038C3.78678 10.6248 3.85281 10.532 3.901 10.4298C3.96941 10.2851 4.0022 10.1261 3.99663 9.96617C3.99106 9.80622 3.94729 9.64992 3.86898 9.51034C3.79067 9.37076 3.6801 9.25194 3.5465 9.16381C3.41289 9.07569 3.26014 9.02081 3.101 9.00378C3.07 9.00378 2.836 8.99978 2.523 8.99978H2V2.99978H2.52C2.82 2.99978 3.066 2.99578 3.102 2.99178C3.33506 2.96924 3.55276 2.86538 3.71693 2.69842C3.88109 2.53146 3.98126 2.31204 3.99986 2.07863C4.01847 1.84522 3.95433 1.61271 3.81869 1.42185C3.68304 1.23099 3.48455 1.09396 3.258 1.03478C3.133 0.999779 3.128 0.999779 2.477 1.00378C2.145 1.00378 1.847 1.00378 1.817 1.00778H1.816Z" fill="currentColor"/>
</g>
<defs>
<clipPath id="clip0_2538_55406">
<rect width="12" height="12" fill="white"/>
</clipPath>
</defs>
</svg>
