<svg width="12" height="12" viewBox="0 0 12 12" fill="none" xmlns="http://www.w3.org/2000/svg">
<path d="M0.889999 0.00779836C0.820417 0.0148026 0.751729 0.0288752 0.684999 0.0497984C0.509523 0.108441 0.353778 0.214661 0.235126 0.356621C0.116473 0.49858 0.0395739 0.670701 0.0129992 0.853798C-8.27014e-07 0.929798 -8.27014e-07 11.0698 0.0119992 11.1448C0.0324297 11.2899 0.0847369 11.4288 0.165166 11.5513C0.245596 11.6738 0.352153 11.777 0.477191 11.8535C0.602228 11.93 0.742645 11.9778 0.888363 11.9936C1.03408 12.0094 1.18149 11.9927 1.32 11.9448C1.41253 11.9116 1.50055 11.8669 1.582 11.8118C1.652 11.7618 1.762 11.6558 1.812 11.5818C1.91 11.4448 1.972 11.2768 1.992 11.1168C1.996 11.0738 2 9.6168 1.996 5.9608V0.862798L1.98 0.796798C1.9715 0.758749 1.96149 0.721052 1.95 0.683798C1.91302 0.589645 1.86715 0.499236 1.813 0.413798C1.762 0.343798 1.653 0.237798 1.582 0.187798C1.49982 0.13262 1.41199 0.0863587 1.32 0.0497984C1.184 0.00779836 1.027 -0.00820165 0.889999 0.00779836ZM3.89 0.00379835C3.59 0.0427984 3.332 0.203798 3.168 0.444798C3.09033 0.562024 3.03802 0.694191 3.01443 0.83282C2.99083 0.971449 2.99648 1.11348 3.031 1.2498C3.082 1.4448 3.199 1.6288 3.348 1.7538C3.375 1.7768 4.718 2.7418 6.336 3.8938C7.949 5.0518 9.273 5.9968 9.273 5.9998C9.273 6.0038 7.949 6.9498 6.336 8.1048C5.3372 8.81455 4.34119 9.52822 3.348 10.2458C3.17362 10.3956 3.05652 10.6012 3.01659 10.8277C2.97667 11.0541 3.01639 11.2874 3.129 11.4878C3.273 11.7498 3.531 11.9298 3.832 11.9878C3.91 11.9998 4.09 11.9998 4.168 11.9878C4.285 11.9648 4.406 11.9218 4.504 11.8628C4.547 11.8358 11.457 6.9058 11.598 6.8008C11.7221 6.70722 11.823 6.58626 11.8927 6.44733C11.9624 6.3084 11.9992 6.15524 12 5.9998C11.999 5.84452 11.9622 5.69157 11.8925 5.55282C11.8228 5.41407 11.722 5.29327 11.598 5.1998C11.457 5.0928 4.547 0.162798 4.504 0.135798C4.40028 0.07539 4.28642 0.034387 4.168 0.0147984C4.07616 0.00310879 3.98351 -0.00090511 3.891 0.00279835L3.89 0.00379835Z" fill="currentColor"/>
</svg>
