<svg width="12" height="12" viewBox="0 0 12 12" fill="none" xmlns="http://www.w3.org/2000/svg">
<g clip-path="url(#clip0_2538_55786)">
<path d="M5.914 0.413858C5.76745 0.428208 5.62788 0.483438 5.51119 0.573254C5.3945 0.66307 5.30538 0.78386 5.254 0.921858C5.246 0.944858 5.074 1.49186 4.875 2.14086C4.675 2.78886 4.504 3.33586 4.492 3.35886C4.447 3.46585 4.37936 3.56183 4.29374 3.6402C4.20812 3.71857 4.10655 3.77747 3.996 3.81286C3.879 3.84786 3.98 3.84286 2.546 3.84786C1.32 3.85186 1.238 3.85486 1.196 3.86286C1.01571 3.90224 0.854554 4.00266 0.739763 4.14715C0.624973 4.29164 0.563594 4.47134 0.566001 4.65586C0.566001 4.81986 0.606001 4.95686 0.699001 5.08986C0.769001 5.20286 0.769001 5.19986 1.859 6.03086C2.429 6.46486 2.895 6.82386 2.922 6.85086C2.949 6.87886 2.988 6.92086 3.012 6.94886C3.055 7.00786 3.117 7.13286 3.137 7.20286C3.18385 7.3601 3.17965 7.52815 3.125 7.68286C3.117 7.71486 2.915 8.25786 2.68 8.88686L2.234 10.0859C2.16753 10.2681 2.17181 10.4686 2.246 10.6479C2.29304 10.7557 2.36221 10.8525 2.44903 10.9319C2.53585 11.0113 2.63839 11.0716 2.75 11.1089C2.844 11.1409 2.89 11.1489 2.992 11.1489C3.07581 11.1515 3.15935 11.1379 3.238 11.1089C3.352 11.0699 3.368 11.0629 4.496 10.2579C5.648 9.44486 5.636 9.45286 5.754 9.41386C5.90769 9.36621 6.07179 9.36344 6.227 9.40586C6.26984 9.41983 6.31162 9.43687 6.352 9.45686C6.43 9.49686 6.382 9.46486 8.094 10.6799C8.434 10.9179 8.605 11.0349 8.648 11.0589C8.71745 11.0947 8.79146 11.121 8.868 11.1369C8.96203 11.1524 9.05797 11.1524 9.152 11.1369C9.3143 11.1059 9.46308 11.0256 9.578 10.9069C9.648 10.8359 9.688 10.7809 9.73 10.7029C9.78723 10.595 9.81451 10.4738 9.809 10.3519C9.81229 10.2612 9.79768 10.1708 9.766 10.0859L9.312 8.86286C9.074 8.22686 8.872 7.67986 8.863 7.65586C8.81547 7.49032 8.82106 7.31405 8.879 7.15186C8.92279 7.03837 8.99108 6.93593 9.079 6.85186C9.105 6.82786 9.579 6.46086 10.141 6.03186C11.18 5.23786 11.219 5.20686 11.285 5.12186C11.3964 4.96476 11.4485 4.77325 11.432 4.58137C11.4155 4.38949 11.3316 4.20966 11.195 4.07386C11.088 3.96764 10.9526 3.8947 10.805 3.86386C10.765 3.85486 10.68 3.85186 9.453 3.84786C8.02 3.84386 8.121 3.84786 8.003 3.81286C7.89264 3.77735 7.79126 3.71839 7.70582 3.64002C7.62038 3.56166 7.5529 3.46575 7.508 3.35886C7.496 3.33586 7.324 2.78886 7.125 2.14086C6.925 1.49186 6.754 0.940858 6.742 0.910858C6.67882 0.747799 6.56313 0.610427 6.41319 0.520429C6.26326 0.430432 6.08762 0.392935 5.914 0.413858Z" fill="currentColor"/>
</g>
<defs>
<clipPath id="clip0_2538_55786">
<rect width="12" height="12" fill="white"/>
</clipPath>
</defs>
</svg>
