<svg width="12" height="12" viewBox="0 0 12 12" fill="none" xmlns="http://www.w3.org/2000/svg">
<path d="M1.918 2.00392C1.7018 2.02182 1.49728 2.10953 1.33529 2.25384C1.17331 2.39815 1.06265 2.59121 1.02 2.80392L1.004 2.86692V9.13292L1.02 9.19092C1.0605 9.40722 1.17199 9.60383 1.33681 9.74963C1.50163 9.89543 1.71038 9.9821 1.93 9.99592C2.18854 10.0144 2.44411 9.93135 2.6424 9.76442C2.8407 9.59749 2.96611 9.35983 2.992 9.10192C3.004 9.01592 3.004 2.98392 2.992 2.89792C2.97198 2.69769 2.89196 2.50817 2.76242 2.35418C2.63288 2.20019 2.45985 2.08892 2.266 2.03492C2.15227 2.00683 2.0349 1.99638 1.918 2.00392ZM4.906 2.00392C4.67321 2.02934 4.45581 2.13258 4.289 2.29692C4.15151 2.4364 4.05768 2.61294 4.019 2.80492C4.00526 2.86895 4.00022 2.93454 4.004 2.99992C4.004 3.11692 4.008 3.13992 4.02 3.19092C4.055 3.35092 4.125 3.50392 4.219 3.62492C4.258 3.67192 4.348 3.75792 4.402 3.79692C4.434 3.81992 5.258 4.31992 6.254 4.91792L8.05 5.99992L6.254 7.08192C5.258 7.67992 4.434 8.17992 4.402 8.20292C4.33555 8.25417 4.27426 8.31177 4.219 8.37492C4.12221 8.50222 4.054 8.64889 4.019 8.80492C4.00526 8.86895 4.00022 8.93454 4.004 8.99992C4.004 9.11692 4.008 9.13992 4.02 9.19092C4.055 9.35092 4.125 9.50392 4.219 9.62492C4.35907 9.79973 4.55378 9.92245 4.77192 9.9734C4.99005 10.0244 5.21898 10.0006 5.422 9.90592C5.492 9.87092 10.543 6.84392 10.602 6.80092C10.801 6.64792 10.926 6.44092 10.98 6.19092C10.9944 6.12834 10.9998 6.06402 10.996 5.99992C10.9995 5.9345 10.9941 5.86891 10.98 5.80492C10.9311 5.56397 10.7969 5.34876 10.602 5.19892C10.543 5.15592 5.492 2.12892 5.422 2.09392C5.31492 2.04395 5.19978 2.01347 5.082 2.00392C5.02359 1.99609 4.9644 1.99609 4.906 2.00392Z" fill="currentColor"/>
</svg>
