<svg width="12" height="12" viewBox="0 0 12 12" fill="none" xmlns="http://www.w3.org/2000/svg">
<g clip-path="url(#clip0_2538_56738)">
<path d="M7.309 0.00795313C7.098 0.0309531 6.899 0.120953 6.742 0.261953C6.632 0.358953 1.34 5.66395 1.289 5.72195C1.01346 6.05419 0.853108 6.46684 0.832003 6.89795C0.809003 7.39495 0.965003 7.87095 1.277 8.26195C2.07345 9.07479 2.87681 9.88082 3.687 10.68C4.04535 10.9906 4.50227 11.1641 4.97651 11.1696C5.45074 11.1751 5.91155 11.0122 6.277 10.71C6.347 10.652 11.687 5.31595 11.757 5.23395C11.8918 5.08185 11.9742 4.89044 11.992 4.68795C12.004 4.60495 12.004 0.976953 11.992 0.897953C11.981 0.773814 11.9453 0.653126 11.887 0.542953C11.8445 0.456121 11.7877 0.377027 11.719 0.308953C11.5575 0.135921 11.3378 0.0287132 11.102 0.00795313C11.032 -4.68753e-05 7.375 -4.68753e-05 7.309 0.00795313ZM8.679 2.00795C8.91 2.03895 9.137 2.12095 9.329 2.24995C9.57445 2.41255 9.76661 2.64378 9.88156 2.91483C9.9965 3.18588 10.0291 3.48476 9.9754 3.77423C9.92167 4.0637 9.78393 4.33095 9.57937 4.54269C9.3748 4.75443 9.11245 4.90128 8.825 4.96495C8.71739 4.99103 8.60659 5.00147 8.496 4.99595C8.332 4.99595 8.281 4.98795 8.152 4.96095C7.89727 4.9001 7.66293 4.77352 7.47238 4.59385C7.28183 4.41417 7.14171 4.18768 7.066 3.93695C7.02306 3.80873 7.0021 3.67417 7.004 3.53895C6.99742 3.4171 7.00785 3.29492 7.035 3.17595C7.082 2.96095 7.191 2.73395 7.328 2.56195C7.48788 2.36253 7.69586 2.20706 7.93237 2.11014C8.16888 2.01323 8.42616 1.97806 8.68 2.00795H8.679Z" fill="currentColor"/>
</g>
<defs>
<clipPath id="clip0_2538_56738">
<rect width="12" height="12" fill="white"/>
</clipPath>
</defs>
</svg>
