<svg width="12" height="12" viewBox="0 0 12 12" fill="none" xmlns="http://www.w3.org/2000/svg">
<path d="M1.855 1.01221C1.64107 1.0431 1.44304 1.1429 1.29092 1.29646C1.1388 1.45002 1.04088 1.64899 1.012 1.86321C1.004 1.91821 1.004 2.00321 1.004 2.52321C1.004 3.07021 1.008 3.12921 1.016 3.17621C1.046 3.33221 1.106 3.46921 1.196 3.59421C1.26635 3.6836 1.3492 3.76241 1.442 3.82821C1.594 3.92621 1.75 3.98021 1.93 3.99621C2.027 4.00421 2.969 4.00421 3.07 3.99621C3.24433 3.98498 3.41255 3.92769 3.55749 3.83018C3.70244 3.73267 3.8189 3.59845 3.895 3.44121C3.95296 3.32582 3.9873 3.20003 3.996 3.07121C4.00382 2.69225 4.00382 2.31317 3.996 1.93421C3.98619 1.75759 3.92808 1.58706 3.828 1.44121C3.75627 1.34118 3.6692 1.25309 3.57 1.18021C3.44224 1.09049 3.29475 1.03286 3.14 1.01221C2.71175 1.00049 2.28325 1.00049 1.855 1.01221ZM5.375 1.00821C5.16853 1.03552 4.97555 1.12599 4.82249 1.26723C4.66943 1.40848 4.56378 1.59359 4.52 1.79721C4.5 1.89521 4.5 1.95721 4.5 2.50421C4.5 3.13721 4.5 3.16021 4.55 3.30921C4.59838 3.45688 4.6805 3.59124 4.78986 3.70164C4.89922 3.81204 5.0328 3.89543 5.18 3.94521C5.344 4.00021 5.395 4.00421 6.066 4.00021C6.531 4.00021 6.602 3.99621 6.656 3.98821C6.813 3.96121 6.957 3.90221 7.09 3.80821C7.28537 3.66064 7.42241 3.44888 7.477 3.21021C7.5 3.11021 7.5 3.04721 7.5 2.45321C7.496 1.83621 7.496 1.86321 7.46 1.73421C7.43258 1.62701 7.38655 1.52547 7.324 1.43421C7.17547 1.22036 6.95016 1.07206 6.695 1.02021C6.637 1.00421 6.637 1.00421 6.023 1.00421C5.688 1.00421 5.395 1.00421 5.375 1.00821ZM8.855 1.01221C8.63461 1.04601 8.43149 1.15144 8.277 1.31221C8.11614 1.47968 8.01947 1.6985 8.004 1.93021C7.9962 2.31017 7.9962 2.69025 8.004 3.07021C8.01435 3.22194 8.05951 3.36924 8.13599 3.5007C8.21247 3.63215 8.31821 3.74422 8.445 3.82821C8.5893 3.92545 8.75647 3.98336 8.93 3.99621C9.30996 4.00401 9.69004 4.00401 10.07 3.99621C10.3014 3.98051 10.5198 3.88386 10.687 3.72321C10.8167 3.60185 10.9114 3.44778 10.961 3.27721C11 3.14121 11 3.13721 10.996 2.46921C10.996 1.87521 10.996 1.87121 10.98 1.80921C10.9646 1.72466 10.937 1.64281 10.898 1.56621C10.8309 1.42634 10.7321 1.30412 10.6093 1.20931C10.4865 1.1145 10.3433 1.04974 10.191 1.02021L10.129 1.00421H9.519C9.012 1.00421 8.899 1.00421 8.855 1.01221ZM1.895 4.50821C1.74956 4.52265 1.60919 4.56938 1.48411 4.64498C1.35903 4.72058 1.2524 4.82315 1.172 4.94521C1.09629 5.0545 1.0445 5.17853 1.02 5.30921L1.004 5.37121V6.63021L1.02 6.69221C1.04522 6.8239 1.09694 6.9491 1.172 7.06021C1.305 7.25921 1.516 7.40721 1.754 7.47021C1.864 7.49721 1.852 7.49721 2.457 7.50121C3.047 7.50121 3.109 7.50121 3.211 7.47821C3.508 7.41121 3.766 7.21221 3.898 6.94221C3.953 6.82221 3.984 6.70421 3.996 6.56721C4.004 6.46621 4.004 5.53721 3.996 5.43521C3.97939 5.18246 3.86796 4.94531 3.684 4.77121C3.52324 4.62288 3.31936 4.5297 3.102 4.50521C2.69967 4.50068 2.29729 4.50101 1.895 4.50821ZM5.39 4.50821C5.246 4.52321 5.086 4.57821 4.965 4.65621C4.879 4.71121 4.765 4.81321 4.703 4.89521C4.593 5.03921 4.527 5.21521 4.508 5.39821C4.49627 5.79945 4.49627 6.20096 4.508 6.60221C4.528 6.78521 4.594 6.96121 4.703 7.10521C4.78621 7.21383 4.89082 7.30422 5.01036 7.37079C5.12991 7.43735 5.26184 7.47868 5.398 7.49221C5.477 7.50421 6.523 7.50421 6.602 7.49221C6.78996 7.474 6.96873 7.40215 7.117 7.28521C7.172 7.24221 7.257 7.15621 7.297 7.10521C7.407 6.96121 7.473 6.78521 7.492 6.60221C7.504 6.52321 7.504 5.47721 7.492 5.39821C7.4709 5.16454 7.3653 4.94659 7.195 4.78521C7.0354 4.62696 6.82579 4.52905 6.602 4.50821C6.19837 4.50039 5.79363 4.50039 5.39 4.50821ZM8.89 4.50821C8.77156 4.52134 8.65641 4.55555 8.55 4.60921C8.39527 4.68625 8.26344 4.80251 8.16764 4.94638C8.07184 5.09026 8.01542 5.25673 8.004 5.42921C7.99618 5.8095 7.99618 6.18991 8.004 6.57021C8.031 6.92621 8.234 7.23421 8.551 7.39021C8.671 7.45321 8.773 7.48021 8.911 7.49221C8.953 7.50021 9.148 7.50021 9.547 7.50021C10.043 7.49621 10.129 7.49621 10.168 7.48821C10.3683 7.45329 10.5532 7.3584 10.6984 7.21608C10.8436 7.07377 10.9421 6.89074 10.981 6.69121L10.996 6.62921V5.37021L10.98 5.30821C10.9556 5.17778 10.9048 5.05369 10.8309 4.94349C10.757 4.83329 10.6614 4.73929 10.55 4.66721C10.4173 4.57539 10.2628 4.5202 10.102 4.50721C9.69837 4.49939 9.29463 4.49939 8.891 4.50721L8.89 4.50821ZM1.918 8.00421C1.771 8.01564 1.62842 8.05984 1.50071 8.13355C1.37301 8.20727 1.26343 8.30863 1.18 8.43021C1.09 8.56321 1.035 8.70321 1.012 8.86021C0.996406 9.28673 0.996406 9.71368 1.012 10.1402C1.04148 10.346 1.13438 10.5375 1.27776 10.6881C1.42114 10.8386 1.60788 10.9407 1.812 10.9802L1.872 10.9962H2.496C3.07 10.9962 3.125 10.9962 3.176 10.9842C3.328 10.9542 3.465 10.8942 3.594 10.8042C3.614 10.7892 3.664 10.7462 3.707 10.7042C3.8794 10.5348 3.98275 10.3075 3.997 10.0662C4.0048 9.68758 4.0048 9.30883 3.997 8.93021C3.98061 8.68985 3.87765 8.46357 3.70721 8.29331C3.53676 8.12305 3.31038 8.02034 3.07 8.00421C2.68604 7.9964 2.30196 7.9964 1.918 8.00421ZM5.422 8.00421C5.20758 8.02072 5.00422 8.10606 4.84223 8.24751C4.68023 8.38897 4.56827 8.57896 4.523 8.78921C4.5 8.89521 4.5 8.94521 4.5 9.54321C4.504 10.1562 4.504 10.1372 4.535 10.2622C4.58 10.4276 4.66758 10.5783 4.789 10.6992C4.929 10.8442 5.105 10.9382 5.313 10.9802L5.375 10.9962H6.629L6.691 10.9802C6.961 10.9222 7.176 10.7812 7.324 10.5662C7.3869 10.475 7.43327 10.3735 7.461 10.2662C7.496 10.1362 7.496 10.1642 7.5 9.54321C7.5 8.95321 7.5 8.8912 7.477 8.78921C7.44765 8.65862 7.39278 8.53512 7.31556 8.42581C7.23833 8.31649 7.14027 8.22351 7.027 8.15221C6.88941 8.06549 6.7323 8.01461 6.57 8.00421C6.18737 7.9964 5.80463 7.9964 5.422 8.00421ZM8.918 8.00421C8.68067 8.02531 8.45853 8.12998 8.29115 8.29956C8.12377 8.46913 8.02201 8.69262 8.004 8.93021C7.9962 9.31017 7.9962 9.69024 8.004 10.0702C8.024 10.3092 8.117 10.5232 8.277 10.6872C8.39836 10.8169 8.55242 10.9116 8.723 10.9612C8.859 11.0002 8.863 11.0002 9.531 10.9962H10.129L10.191 10.9802C10.598 10.8952 10.895 10.5982 10.981 10.1912C10.996 10.1292 10.996 10.1252 10.996 9.52721C11 8.87521 11 8.86721 10.965 8.74221C10.9158 8.56389 10.8188 8.40241 10.6845 8.27517C10.5502 8.14793 10.3837 8.05978 10.203 8.02021L10.07 8.00421C9.68604 7.9964 9.30196 7.9964 8.918 8.00421Z" fill="currentColor"/>
</svg>
