<svg width="12" height="12" viewBox="0 0 12 12" fill="none" xmlns="http://www.w3.org/2000/svg">
<path d="M5.73 0.00395788C4.73746 0.049363 3.7715 0.339287 2.918 0.847958C2.38137 1.17014 1.89768 1.57322 1.484 2.04296C0.971972 2.62638 0.579238 3.30449 0.328003 4.03896C0.173293 4.49289 0.0725987 4.96347 0.0280028 5.44096C0.00800283 5.65596 0.00400283 5.74596 0.00400283 5.99996C-0.00113411 7.15892 0.332543 8.29412 0.964003 9.26596C1.64126 10.3124 2.62861 11.1211 3.788 11.579C4.68 11.934 5.66 12.066 6.621 11.969C8.11026 11.8151 9.48815 11.1099 10.484 9.99196C11.321 9.05266 11.8406 7.87347 11.969 6.62196C11.9909 6.41539 11.9999 6.20765 11.996 5.99996C11.9999 5.7926 11.9908 5.5852 11.969 5.37896C11.8289 4.00808 11.2203 2.72746 10.2459 1.75306C9.2715 0.778649 7.99088 0.170074 6.62 0.0299579C6.32411 0.00372194 6.02694 -0.00529326 5.73 0.00295788V0.00395788ZM6.18 2.00396C6.508 2.01996 6.813 2.06596 7.11 2.15196C7.79175 2.34805 8.40903 2.72205 8.89847 3.23556C9.3879 3.74907 9.73185 4.38358 9.895 5.07396C10.094 5.93396 10.008 6.83996 9.652 7.64096C9.25489 8.51958 8.55464 9.2258 7.67942 9.63036C6.8042 10.0349 5.81256 10.1107 4.886 9.84396C3.95848 9.57598 3.15926 8.98141 2.63595 8.17008C2.11265 7.35874 1.90061 6.38545 2.039 5.42996C2.17905 4.44578 2.68118 3.54923 3.44719 2.91563C4.21321 2.28203 5.18802 1.95695 6.181 2.00396H6.18Z" fill="currentColor"/>
<path d="M4.41 3.51996C4.31774 3.5369 4.23216 3.5796 4.16315 3.64312C4.09413 3.70665 4.04451 3.78841 4.02 3.87896L4.004 3.92196V8.07796L4.02 8.12096C4.0388 8.18753 4.07113 8.2495 4.11496 8.30301C4.1588 8.35652 4.2132 8.40041 4.27476 8.43195C4.33633 8.46348 4.40374 8.48198 4.47278 8.48628C4.54181 8.49058 4.611 8.4806 4.676 8.45696C4.719 8.44096 8.508 6.47296 8.586 6.42996C8.6543 6.3864 8.71285 6.32921 8.758 6.26196C8.79244 6.20531 8.81531 6.1424 8.8253 6.07686C8.8353 6.01132 8.83221 5.94445 8.81621 5.88011C8.80022 5.81577 8.77165 5.75524 8.73213 5.70201C8.69262 5.64877 8.64295 5.60389 8.586 5.56996C7.28187 4.8897 5.97586 4.21303 4.668 3.53996C4.58509 3.51153 4.49631 3.50465 4.41 3.51996Z" fill="currentColor"/>
</svg>
