<svg width="12" height="12" viewBox="0 0 12 12" fill="none" xmlns="http://www.w3.org/2000/svg">
<g clip-path="url(#clip0_2538_60260)">
<path d="M5.73 0.00395788C4.73746 0.049363 3.7715 0.339287 2.918 0.847958C2.38137 1.17014 1.89768 1.57322 1.484 2.04296C0.971972 2.62638 0.579238 3.30449 0.328003 4.03896C0.173293 4.49289 0.0725987 4.96347 0.0280028 5.44096C0.00800283 5.65596 0.00400283 5.74596 0.00400283 5.99996C-0.00113411 7.15892 0.332543 8.29412 0.964003 9.26596C1.64126 10.3124 2.62861 11.1211 3.788 11.579C4.68 11.934 5.66 12.066 6.621 11.969C8.11026 11.8151 9.48815 11.1099 10.484 9.99196C11.321 9.05266 11.8406 7.87347 11.969 6.62196C11.9909 6.41539 11.9999 6.20765 11.996 5.99996C11.9999 5.7926 11.9908 5.5852 11.969 5.37896C11.8289 4.00808 11.2203 2.72746 10.2459 1.75306C9.2715 0.778649 7.99088 0.170074 6.62 0.0299579C6.32411 0.00372194 6.02694 -0.00529326 5.73 0.00295788V0.00395788ZM6.18 2.00396C6.508 2.01996 6.813 2.06596 7.11 2.15196C7.79175 2.34805 8.40903 2.72205 8.89847 3.23556C9.3879 3.74907 9.73185 4.38358 9.895 5.07396C10.035 5.67596 10.035 6.30896 9.898 6.90996C9.77046 7.45264 9.53251 7.96325 9.199 8.40996L9.129 8.50396L9.113 8.48396C8.88879 8.20835 8.62884 7.96386 8.34 7.75696C7.75062 7.33112 7.05651 7.0736 6.332 7.01196C6.14481 7.00278 5.95731 7.00145 5.77 7.00796C5.23089 7.03835 4.70357 7.17794 4.22002 7.41825C3.73648 7.65856 3.30678 7.99459 2.957 8.40596C2.918 8.44896 2.883 8.49196 2.879 8.49596C2.875 8.49996 2.859 8.48396 2.801 8.40996C2.1628 7.55653 1.8888 6.48498 2.039 5.42996C2.17902 4.44614 2.68086 3.54988 3.44645 2.91632C4.21204 2.28277 5.18735 1.95746 6.18 2.00396Z" fill="currentColor"/>
<path d="M5.863 3.00796C5.6158 3.02836 5.37792 3.11167 5.172 3.24996C4.99646 3.36524 4.84726 3.51633 4.73421 3.69333C4.62115 3.87032 4.54679 4.06921 4.516 4.27696C4.508 4.34696 4.504 4.38696 4.504 4.49996C4.504 4.61296 4.508 4.65196 4.516 4.72296C4.59013 5.11349 4.81636 5.45858 5.14492 5.68231C5.47349 5.90604 5.87747 5.99009 6.268 5.91596C6.65853 5.84183 7.00362 5.6156 7.22735 5.28704C7.45109 4.95847 7.53513 4.55449 7.461 4.16396C7.351 3.66796 6.981 3.25396 6.5 3.08596C6.34929 3.03283 6.1908 3.00512 6.031 3.00396C5.965 2.99996 5.891 3.00396 5.863 3.00796Z" fill="currentColor"/>
</g>
<defs>
<clipPath id="clip0_2538_60260">
<rect width="12" height="12" fill="white"/>
</clipPath>
</defs>
</svg>
