<svg width="12" height="12" viewBox="0 0 12 12" fill="none" xmlns="http://www.w3.org/2000/svg">
<path d="M5.867 0.00417814C5.51212 0.0240288 5.16552 0.119175 4.85024 0.283295C4.53496 0.447416 4.25822 0.676752 4.0384 0.956066C3.81858 1.23538 3.66072 1.55828 3.57531 1.9033C3.48989 2.24832 3.47888 2.60757 3.543 2.95718C3.64034 3.48443 3.90494 3.96631 4.29759 4.3314C4.69025 4.6965 5.19007 4.9254 5.723 4.98418C5.824 4.99618 6.156 5.00018 6.253 4.98818C6.77542 4.93636 7.26798 4.72036 7.66 4.37118C7.84 4.21518 8.012 4.00818 8.14 3.79718C8.543 3.12918 8.613 2.29718 8.32 1.56718C8.1518 1.14571 7.8715 0.778296 7.50944 0.504727C7.14739 0.231158 6.71738 0.0618632 6.266 0.0151781C6.13333 0.00368299 6.00012 -0.000323371 5.867 0.00317814V0.00417814ZM5.754 6.00418C4.58583 6.0456 3.4546 6.42415 2.49678 7.09416C1.53895 7.76418 0.795464 8.69703 0.356001 9.78018C0.246001 10.0502 0.203001 10.1942 0.188001 10.3622C0.152001 10.7292 0.285001 11.1122 0.551001 11.3972C0.691001 11.5502 0.859001 11.6752 1.043 11.7692C1.243 11.8702 1.438 11.9332 1.683 11.9682C1.75 11.9762 1.993 11.9792 5.914 11.9792C8.852 11.9792 10.094 11.9792 10.148 11.9762C10.5266 11.9495 10.8887 11.8106 11.188 11.5772C11.258 11.5192 11.391 11.3862 11.445 11.3192C11.559 11.1752 11.648 11.0032 11.691 10.8472C11.727 10.7222 11.742 10.6172 11.742 10.4792C11.742 10.2802 11.711 10.1442 11.609 9.87018C11.2553 8.96169 10.6888 8.15134 9.957 7.50718C8.94914 6.62101 7.67544 6.09478 6.336 6.01118C6.14212 6.00273 5.94804 6.00006 5.754 6.00318V6.00418Z" fill="currentColor"/>
</svg>
