<svg width="12" height="12" viewBox="0 0 12 12" fill="none" xmlns="http://www.w3.org/2000/svg">
<g clip-path="url(#clip0_2538_60832)">
<path d="M4.906 0.008C4.84755 0.0231566 4.79114 0.045317 4.738 0.074C4.6799 0.115469 4.62862 0.165738 4.586 0.223C4.523 0.316 4.508 0.375 4.5 0.539C4.49583 0.779842 4.43908 1.01686 4.33371 1.23347C4.22834 1.45008 4.0769 1.64105 3.89 1.793C3.67166 1.97281 3.41145 2.09459 3.1335 2.14703C2.85555 2.19947 2.56885 2.18089 2.3 2.093C2.20506 2.05931 2.11251 2.01922 2.023 1.973C1.91285 1.89799 1.77755 1.86946 1.64648 1.89361C1.51542 1.91776 1.39918 1.99265 1.323 2.102C1.313 2.122 1.074 2.532 0.793 3.016C0.243 3.976 0.253 3.953 0.243 4.062C0.233017 4.15362 0.248451 4.24623 0.28761 4.32966C0.326769 4.41309 0.388141 4.48414 0.465 4.535C0.672 4.665 0.715 4.699 0.84 4.825C0.977 4.961 1.066 5.082 1.145 5.242C1.383 5.719 1.383 6.282 1.145 6.754C1.06996 6.91211 0.966583 7.05514 0.84 7.176C0.715 7.301 0.672 7.336 0.465 7.465C0.387957 7.51574 0.326386 7.58673 0.287047 7.67017C0.247707 7.75361 0.232121 7.84628 0.242 7.938C0.254 8.047 0.242 8.023 0.793 8.98C1.074 9.469 1.313 9.879 1.324 9.898C1.37069 9.96442 1.43269 10.0186 1.50474 10.0561C1.5768 10.0935 1.65681 10.113 1.738 10.113C1.84 10.113 1.887 10.098 2.047 10.02C2.262 9.91 2.422 9.86 2.641 9.832C2.95943 9.79692 3.28119 9.85529 3.567 10C3.926 10.176 4.211 10.477 4.363 10.832C4.449 11.032 4.488 11.215 4.5 11.457C4.504 11.527 4.508 11.597 4.516 11.617C4.536 11.711 4.586 11.793 4.656 11.859C4.707 11.91 4.754 11.938 4.816 11.965C4.91 12 4.86 12 6 12C7.14 12 7.09 12 7.184 11.965C7.24398 11.9409 7.29842 11.9048 7.344 11.859C7.41444 11.7946 7.46332 11.7101 7.484 11.617C7.492 11.597 7.496 11.527 7.5 11.461C7.512 11.227 7.547 11.059 7.621 10.871C7.746 10.562 7.965 10.293 8.25 10.105C8.68 9.816 9.219 9.746 9.7 9.906C9.797 9.941 9.86 9.969 9.98 10.031C10.125 10.105 10.168 10.117 10.281 10.113C10.3534 10.1105 10.4243 10.0924 10.489 10.06C10.5538 10.0275 10.6107 9.98148 10.656 9.925C10.672 9.902 10.918 9.485 11.203 8.988C11.789 7.973 11.753 8.039 11.758 7.902C11.7643 7.83152 11.7536 7.76055 11.727 7.695C11.6876 7.59728 11.6174 7.5151 11.527 7.461C11.3977 7.3878 11.2792 7.29693 11.175 7.191C10.9118 6.93955 10.7412 6.60654 10.691 6.246C10.68 6.172 10.68 6.136 10.68 6C10.68 5.863 10.68 5.828 10.691 5.754C10.75 5.379 10.911 5.063 11.176 4.809C11.2799 4.70315 11.398 4.61227 11.527 4.539C11.6166 4.48392 11.6865 4.40206 11.727 4.305C11.7536 4.23804 11.7639 4.16572 11.757 4.094C11.754 3.961 11.789 4.027 11.203 3.012C11.0234 2.69777 10.841 2.38509 10.656 2.074C10.6106 2.01771 10.5536 1.97186 10.4889 1.93959C10.4242 1.90732 10.3533 1.88938 10.281 1.887C10.168 1.883 10.125 1.895 9.981 1.969C9.71355 2.11641 9.41073 2.18747 9.10563 2.17442C8.80053 2.16136 8.50488 2.06471 8.251 1.895C8.02494 1.74801 7.83825 1.54798 7.70718 1.31234C7.57612 1.0767 7.50465 0.812583 7.499 0.543C7.50312 0.461702 7.48947 0.380483 7.459 0.305C7.40221 0.181166 7.30079 0.0833169 7.175 0.031C7.086 0 7.129 0 5.996 0C5.125 0 4.946 0.004 4.906 0.008ZM6.207 4.012C6.47971 4.03968 6.7438 4.1232 6.98283 4.25737C7.22186 4.39154 7.43071 4.57348 7.59638 4.79186C7.76204 5.01025 7.88098 5.2604 7.94577 5.52675C8.01057 5.79309 8.01983 6.06992 7.973 6.34C7.91726 6.66295 7.78294 6.96723 7.58187 7.22602C7.3808 7.48481 7.11915 7.69017 6.82 7.824C6.56243 7.94028 6.28259 7.99898 6 7.996C5.672 7.996 5.383 7.93 5.094 7.786C4.70857 7.59131 4.39658 7.27699 4.20476 6.89012C4.01295 6.50325 3.95163 6.06464 4.03 5.64C4.10722 5.21537 4.31979 4.82713 4.63595 4.53333C4.9521 4.23952 5.35486 4.05593 5.784 4.01C5.882 3.999 6.104 3.999 6.206 4.01L6.207 4.012Z" fill="currentColor"/>
</g>
<defs>
<clipPath id="clip0_2538_60832">
<rect width="12" height="12" fill="white"/>
</clipPath>
</defs>
</svg>
