<svg width="12" height="12" viewBox="0 0 12 12" fill="none" xmlns="http://www.w3.org/2000/svg">
<path d="M1.813 1.00791C1.35859 1.05113 0.932496 1.24795 0.604998 1.56591C0.264998 1.89791 0.0659984 2.30491 0.0119984 2.79291C-1.64844e-06 2.88691 -1.64844e-06 6.11291 0.0119984 6.20691C0.0659984 6.69491 0.265998 7.10191 0.604998 7.43391C0.937998 7.75791 1.375 7.95691 1.835 7.99191C1.895 7.99591 2.785 7.99591 5.055 7.99591C7.996 7.99591 8.191 7.99191 8.258 7.98391C8.543 7.94091 8.77 7.86691 8.996 7.73391C9.508 7.44491 9.871 6.92591 9.969 6.34391C10 6.16391 10 6.22691 10 4.49591C10 2.76591 10 2.83991 9.969 2.65591C9.89795 2.23496 9.69314 1.84811 9.38495 1.5527C9.07676 1.2573 8.68158 1.06906 8.258 1.01591C8.191 1.00791 7.996 1.00391 5.028 1.00391C3.254 1.00391 1.84 1.00391 1.813 1.00791ZM2.09 2.00391C2.406 2.03491 2.684 2.20691 2.855 2.47691C3.02 2.74691 3.047 3.09391 2.922 3.39091C2.832 3.60091 2.664 3.78091 2.461 3.88691C2.32336 3.95828 2.17102 3.99667 2.01599 3.99905C1.86097 4.00143 1.70752 3.96773 1.56776 3.90061C1.428 3.83349 1.30576 3.7348 1.2107 3.61233C1.11563 3.48985 1.05035 3.34695 1.02 3.19491C1.00593 3.13092 1.00055 3.06533 1.004 2.99991C1.004 2.88291 1.008 2.85991 1.02 2.80491C1.05419 2.63131 1.134 2.46996 1.25123 2.33744C1.36846 2.20492 1.51887 2.10602 1.687 2.05091C1.824 2.00391 1.949 1.99191 2.09 2.00391ZM5.09 2.00391C5.406 2.03491 5.684 2.20691 5.855 2.47691C6.02 2.74691 6.047 3.09391 5.922 3.39091C5.832 3.60091 5.664 3.78091 5.461 3.88691C5.32336 3.95828 5.17102 3.99667 5.016 3.99905C4.86097 4.00143 4.70752 3.96773 4.56776 3.90061C4.428 3.83349 4.30576 3.7348 4.2107 3.61233C4.11563 3.48985 4.05035 3.34695 4.02 3.19491C4.00593 3.13092 4.00055 3.06533 4.004 2.99991C4.004 2.88291 4.008 2.85991 4.02 2.80491C4.06729 2.56249 4.20296 2.34629 4.40069 2.19827C4.59841 2.05026 4.84408 1.98099 5.09 2.00391ZM8.09 2.00391C8.406 2.03491 8.684 2.20691 8.855 2.47691C9.02 2.74691 9.047 3.09391 8.922 3.39091C8.832 3.60091 8.664 3.78091 8.461 3.88691C8.32336 3.95828 8.17102 3.99667 8.01599 3.99905C7.86097 4.00143 7.70752 3.96773 7.56776 3.90061C7.428 3.83349 7.30576 3.7348 7.2107 3.61233C7.11563 3.48985 7.05035 3.34695 7.02 3.19491C7.00593 3.13092 7.00055 3.06533 7.004 2.99991C7.004 2.88291 7.008 2.85991 7.02 2.80491C7.05427 2.6312 7.13424 2.46976 7.25165 2.33723C7.36906 2.2047 7.51968 2.10587 7.688 2.05091C7.824 2.00391 7.949 1.99191 8.09 2.00391Z" fill="currentColor"/>
<path d="M11 5.20291C11 6.14091 10.996 6.21491 10.977 6.37091C10.8913 7.06347 10.5664 7.70435 10.0585 8.18288C9.55052 8.66142 8.89143 8.94756 8.195 8.99191C8.137 8.99591 7.012 8.99991 5.051 8.99991H1.996L2 9.06291C2.02 9.38691 2.082 9.63691 2.215 9.90291C2.313 10.0979 2.43 10.2579 2.59 10.4179C2.926 10.7539 3.36 10.9529 3.836 10.9919C3.895 10.9959 4.742 10.9959 7.055 10.9959C10.469 10.9959 10.199 10.9959 10.371 10.9649C10.6714 10.9096 10.955 10.7856 11.1996 10.6026C11.4442 10.4196 11.6432 10.1825 11.781 9.90991C11.891 9.69091 11.961 9.46891 11.988 9.20691C12 9.11291 12 5.88691 11.988 5.79291C11.9571 5.48043 11.8525 5.17974 11.6828 4.91552C11.5132 4.6513 11.2833 4.43107 11.012 4.27291L11 4.26591V5.20291Z" fill="currentColor"/>
</svg>
