<svg width="12" height="12" viewBox="0 0 12 12" fill="none" xmlns="http://www.w3.org/2000/svg">
<g clip-path="url(#clip0_2064_17417)">
<path d="M7.707 1.816C7.273 1.871 6.922 2.117 6.734 2.5C6.714 2.543 6.664 2.672 6.617 2.8C6.57 2.926 6.219 3.902 5.832 4.969C5.445 6.039 5.129 6.914 5.125 6.91C5.125 6.906 4.941 6.445 4.719 5.887C4.57802 5.5254 4.43469 5.16473 4.289 4.805C4.19707 4.61934 4.05963 4.45999 3.8895 4.34178C3.71936 4.22358 3.52206 4.15038 3.316 4.129C3.19623 4.12137 3.076 4.12539 2.957 4.141C2.81386 4.16551 2.67633 4.21565 2.551 4.289C2.297 4.429 2.105 4.656 2.004 4.938C1.992 4.968 1.922 5.211 1.844 5.473L1.707 5.945H1.317C0.991999 5.945 0.913999 5.949 0.862999 5.957C0.731234 5.97544 0.604453 6.01991 0.490041 6.08782C0.375629 6.15573 0.275872 6.24573 0.19658 6.35257C0.117287 6.45941 0.0600438 6.58096 0.028183 6.71014C-0.00367775 6.83932 -0.00951906 6.97354 0.0109993 7.105C0.0438835 7.29257 0.128822 7.46713 0.256128 7.60876C0.383433 7.75038 0.54798 7.85338 0.730999 7.906C0.850999 7.941 0.847999 7.941 1.375 7.941C1.875 7.941 1.891 7.941 2.047 7.914C2.23 7.887 2.437 7.816 2.609 7.73C2.773 7.648 2.953 7.52 3.082 7.395C3.113 7.363 3.141 7.34 3.145 7.344L3.578 8.437C3.828 9.074 4.023 9.563 4.047 9.609C4.168 9.855 4.363 10.047 4.605 10.164C4.785 10.25 4.953 10.289 5.156 10.289C5.363 10.289 5.536 10.25 5.715 10.164C6.004 10.024 6.215 9.789 6.332 9.469L7.062 7.457C7.445 6.391 7.762 5.516 7.766 5.507C7.773 5.492 7.781 5.516 7.856 5.781C8.113 6.676 8.109 6.661 8.199 6.844C8.39403 7.23281 8.71126 7.54687 9.102 7.738C9.344 7.855 9.574 7.918 9.848 7.938C9.906 7.945 10.133 7.945 10.523 7.945C11.164 7.941 11.148 7.941 11.27 7.906C11.3961 7.87101 11.514 7.81148 11.617 7.73082C11.72 7.65016 11.8061 7.54996 11.8702 7.43597C11.9344 7.32197 11.9755 7.19643 11.9911 7.06653C12.0067 6.93663 11.9964 6.80494 11.961 6.679C11.9147 6.50915 11.8241 6.35466 11.6984 6.23132C11.5728 6.10797 11.4167 6.02021 11.246 5.977C11.133 5.949 11.113 5.945 10.531 5.945H9.984L9.977 5.918C9.973 5.898 9.757 5.16 9.5 4.27C9.34299 3.71375 9.18165 3.15874 9.016 2.605C8.93857 2.40029 8.8078 2.22002 8.63725 2.08287C8.46669 1.94572 8.26255 1.85669 8.046 1.825C7.93346 1.81234 7.82005 1.80933 7.707 1.816Z" fill="#202020"/>
</g>
<defs>
<clipPath id="clip0_2064_17417">
<rect width="12" height="12" fill="white"/>
</clipPath>
</defs>
</svg>
