<svg width="12" height="12" viewBox="0 0 12 12" fill="none" xmlns="http://www.w3.org/2000/svg">
<path d="M6.863 2.422C6.6615 2.45023 6.47331 2.53895 6.32332 2.67644C6.17333 2.81393 6.06861 2.99371 6.023 3.192C6 3.3 6 3.343 6 3.93V4.5H3.98C2.594 4.5 1.938 4.5 1.898 4.508C1.68491 4.52901 1.48428 4.61821 1.32592 4.76233C1.16757 4.90646 1.05993 5.09782 1.019 5.308L1.004 5.371V6.63L1.02 6.692C1.04522 6.82369 1.09693 6.94889 1.172 7.06C1.305 7.259 1.516 7.407 1.754 7.47C1.871 7.501 1.723 7.497 3.941 7.501H6V8.071C6 8.435 6.004 8.657 6.008 8.696C6.047 9.048 6.25 9.333 6.57 9.486C6.73414 9.56644 6.91736 9.59986 7.09933 9.58257C7.28131 9.56527 7.45495 9.49792 7.601 9.388C7.633 9.36 8.055 8.946 8.977 8.024C9.703 7.298 10.32 6.677 10.347 6.649C10.4999 6.46771 10.5838 6.23817 10.5838 6.001C10.5838 5.76382 10.4999 5.53429 10.347 5.353C10.277 5.271 7.657 2.657 7.605 2.618C7.47005 2.51612 7.31205 2.44914 7.145 2.423C7.05116 2.41514 6.95683 2.41514 6.863 2.423V2.422Z" fill="#202020"/>
</svg>
