<svg width="12" height="12" viewBox="0 0 12 12" fill="none" xmlns="http://www.w3.org/2000/svg">
<g clip-path="url(#clip0_2435_12815)">
<path d="M8.89 0.00800338C8.77155 0.0211418 8.65641 0.0553463 8.55 0.109003C8.39527 0.186051 8.26344 0.302306 8.16763 0.446182C8.07183 0.590057 8.01542 0.756529 8.004 0.929003C7.996 1.031 7.996 10.969 8.004 11.07C8.031 11.426 8.234 11.734 8.551 11.89C8.671 11.953 8.773 11.98 8.911 11.992C8.953 12 9.148 12 9.547 12C10.043 11.996 10.129 11.996 10.168 11.988C10.3683 11.9531 10.5532 11.8582 10.6984 11.7159C10.8436 11.5736 10.9421 11.3905 10.981 11.191L10.996 11.129V0.870003L10.98 0.810003C10.9556 0.679576 10.9048 0.555487 10.8309 0.445288C10.757 0.33509 10.6614 0.241087 10.55 0.169003C10.4173 0.0771892 10.2628 0.0219987 10.102 0.00900338C9.69837 0.00118995 9.29463 0.00118995 8.891 0.00900338L8.89 0.00800338ZM4.918 2.004C4.771 2.01544 4.62841 2.05964 4.50071 2.13335C4.37301 2.20706 4.26343 2.30843 4.18 2.43C4.09035 2.55892 4.03276 2.70736 4.012 2.863C4.004 2.922 4.004 3.328 4.004 7.031V11.137L4.02 11.195C4.05 11.332 4.102 11.453 4.172 11.559C4.305 11.758 4.516 11.906 4.754 11.969C4.864 11.996 4.852 11.996 5.457 12C6.047 12 6.109 12 6.211 11.977C6.508 11.91 6.766 11.711 6.898 11.441C6.953 11.321 6.984 11.203 6.996 11.066C7.004 10.957 7.004 3.039 6.996 2.93C6.97964 2.6898 6.87682 2.46366 6.70658 2.29342C6.53634 2.12318 6.3102 2.02037 6.07 2.004C5.68604 1.9962 5.30196 1.9962 4.918 2.004ZM0.875001 4.008C0.527001 4.055 0.227001 4.278 0.0850006 4.598C0.0430613 4.69311 0.0170475 4.79446 0.00800055 4.898C-0.00399945 4.98 -0.00399945 11.023 0.00800055 11.102C0.0280005 11.285 0.0940005 11.461 0.203001 11.605C0.286206 11.7136 0.390818 11.804 0.510363 11.8706C0.629908 11.9372 0.761842 11.9785 0.898001 11.992C0.977001 12.004 2.023 12.004 2.102 11.992C2.285 11.972 2.461 11.906 2.605 11.797C2.656 11.757 2.746 11.668 2.785 11.617C2.90491 11.467 2.97826 11.2852 2.996 11.094C3 11.047 3 10.172 3 7.957C2.996 5.187 2.996 4.879 2.988 4.836C2.95299 4.63611 2.85862 4.45139 2.71719 4.30585C2.57576 4.16032 2.39381 4.06072 2.195 4.02C2.137 4.004 2.137 4.004 1.523 4.004C1.188 4.004 0.895001 4.004 0.875001 4.008Z" fill="currentColor"/>
</g>
<defs>
<clipPath id="clip0_2435_12815">
<rect width="12" height="12" fill="white"/>
</clipPath>
</defs>
</svg>
