<svg width="12" height="12" viewBox="0 0 12 12" fill="none" xmlns="http://www.w3.org/2000/svg">
<path d="M5.879 0.00399836C5.65745 0.0183887 5.43966 0.0683617 5.234 0.151998C4.96812 0.262628 4.72911 0.429071 4.53312 0.640068C4.33713 0.851064 4.18875 1.10169 4.098 1.375C4.028 1.602 3.996 1.809 4.004 2.055C4.01104 2.41334 4.11546 2.76302 4.30606 3.06655C4.49667 3.37007 4.76628 3.61601 5.086 3.778C5.37191 3.92511 5.68908 4.00109 6.01061 3.99949C6.33214 3.99788 6.64854 3.91874 6.93297 3.76878C7.21739 3.61881 7.46144 3.40245 7.64441 3.13805C7.82738 2.87365 7.94387 2.56902 7.984 2.25C7.996 2.156 8 1.855 7.988 1.77C7.93724 1.3223 7.73612 0.905067 7.41753 0.586471C7.09893 0.267876 6.6817 0.0667625 6.234 0.0159984C6.11637 0.00456852 5.99714 0.000560582 5.879 0.00399836ZM5.914 8C5.44226 8.02163 4.99327 8.20899 4.64608 8.5291C4.29889 8.84922 4.07577 9.28156 4.016 9.75C4.004 9.848 4 10.14 4.012 10.23C4.062 10.59 4.176 10.89 4.372 11.16C4.57726 11.449 4.85586 11.6781 5.1791 11.8236C5.50234 11.9692 5.85854 12.0259 6.211 11.988C6.664 11.938 7.071 11.746 7.391 11.438C7.742 11.098 7.949 10.656 7.992 10.164C7.99914 10.0233 7.99647 9.88231 7.984 9.742C7.94219 9.42159 7.82311 9.11615 7.637 8.852C7.336 8.422 6.875 8.125 6.367 8.035C6.21752 8.00843 6.06579 7.99671 5.914 8Z" fill="currentColor"/>
</svg>
