<svg width="12" height="12" viewBox="0 0 12 12" fill="none" xmlns="http://www.w3.org/2000/svg">
<path d="M5.73 0.00398839C4.73746 0.0493935 3.7715 0.339317 2.918 0.847988C2.38137 1.17017 1.89768 1.57325 1.484 2.04299C0.971972 2.62641 0.579238 3.30452 0.328003 4.03899C0.173293 4.49292 0.0725987 4.9635 0.0280028 5.44099C0.00800283 5.65599 0.00400283 5.74599 0.00400283 5.99999C-0.00113411 7.15895 0.332543 8.29415 0.964003 9.26599C1.64126 10.3125 2.62861 11.1212 3.788 11.579C4.68 11.934 5.66 12.066 6.621 11.969C8.11026 11.8151 9.48815 11.1099 10.484 9.99199C11.321 9.05269 11.8406 7.8735 11.969 6.62199C11.9909 6.41542 11.9999 6.20768 11.996 5.99999C11.9999 5.79263 11.9908 5.58523 11.969 5.37899C11.8289 4.00811 11.2203 2.72749 10.2459 1.75309C9.2715 0.77868 7.99088 0.170105 6.62 0.0299884C6.32411 0.00375246 6.02694 -0.00526274 5.73 0.00298839V0.00398839ZM6.18 2.00399C6.80454 2.03074 7.41415 2.20334 7.96 2.50799L8.035 2.55099L5.293 5.29299C4.38196 6.20862 3.46662 7.11997 2.547 8.02699L2.504 7.94899C2.07965 7.1817 1.91643 6.29719 2.039 5.42899C2.17925 4.44535 2.68119 3.54933 3.44675 2.91598C4.21231 2.28264 5.1875 1.95746 6.18 2.00399ZM9.496 4.04699C10.012 4.97299 10.136 6.08199 9.844 7.11299C9.61763 7.9004 9.15388 8.59882 8.516 9.11299C7.89082 9.61698 7.12878 9.92176 6.32848 9.9879C5.52818 10.054 4.72644 9.8785 4.027 9.48399L3.965 9.44899L6.707 6.70699C7.61804 5.79135 8.53339 4.88001 9.453 3.97299C9.453 3.97299 9.477 4.00799 9.496 4.04699Z" fill="#202020"/>
</svg>
