<svg width="12" height="12" viewBox="0 0 12 12" fill="none" xmlns="http://www.w3.org/2000/svg">
<g clip-path="url(#clip0_2064_20527)">
<path d="M3.89 0.00799604C3.82005 0.0152587 3.75102 0.0296672 3.684 0.050996C3.359 0.160996 3.117 0.420996 3.031 0.749996C3.004 0.859996 3.004 0.847996 3 1.441V1.996L2.426 2C2.051 2 1.836 2.004 1.801 2.008C1.55868 2.03324 1.3229 2.10201 1.105 2.211C0.906 2.313 0.75 2.426 0.585 2.59C0.258 2.918 0.066 3.313 0.012 3.79C0.000282888 3.90804 0.000282888 4.02695 0.012 4.145C0.0427016 4.35454 0.139788 4.54871 0.289 4.699C0.429 4.844 0.605 4.938 0.813 4.98L0.875 4.996H11.129L11.191 4.98C11.535 4.906 11.805 4.684 11.93 4.367C11.9797 4.24322 12.0022 4.11022 11.996 3.977C11.996 3.805 11.976 3.66 11.934 3.488C11.8348 3.11611 11.6306 2.78066 11.3458 2.52175C11.061 2.26285 10.7076 2.09143 10.328 2.028C10.184 2.004 10.16 2.004 9.574 2L9 1.996V1.441C8.996 0.839996 8.996 0.859996 8.965 0.737996C8.9053 0.520873 8.77407 0.330253 8.59255 0.196998C8.41103 0.063743 8.18985 -0.00434687 7.96482 0.00375207C7.73978 0.011851 7.52407 0.0956647 7.35259 0.241624C7.18112 0.387583 7.06393 0.587143 7.02 0.807996C7.004 0.870996 7.004 0.870996 7.004 1.434L7 1.996H5L4.996 1.43V0.862996L4.98 0.796996C4.9715 0.758946 4.96149 0.72125 4.95 0.683996C4.91271 0.589805 4.8665 0.499394 4.812 0.413996C4.762 0.343996 4.652 0.237996 4.582 0.187996C4.49982 0.132818 4.41199 0.0865564 4.32 0.049996C4.184 0.00699604 4.027 -0.00900397 3.89 0.00699604V0.00799604ZM0.89 6.008C0.746 6.023 0.586 6.078 0.465 6.156C0.352 6.226 0.23 6.348 0.156 6.465C0.0948118 6.56848 0.0489991 6.68032 0.02 6.797C0 6.902 0 6.937 0 8.57L0.004 10.168L0.016 10.258C0.051 10.492 0.106 10.676 0.207 10.878C0.313 11.094 0.43 11.258 0.605 11.43C0.945 11.766 1.379 11.957 1.863 11.992C1.922 12 3.156 12 6.06 12L10.169 11.996L10.259 11.984C10.6229 11.938 10.9666 11.7907 11.251 11.559C11.654 11.2364 11.917 10.7707 11.985 10.259L11.997 10.168L12 8.57C12 7.422 12 6.953 11.996 6.906C11.9833 6.77899 11.946 6.65568 11.886 6.543C11.8438 6.45624 11.7873 6.37715 11.719 6.309C11.5575 6.13596 11.3378 6.02876 11.102 6.008C11.032 6 0.957 6 0.89 6.008ZM6.61 6.718C6.6684 6.73093 6.72375 6.75504 6.773 6.789C6.809 6.809 7.02 7.019 7.715 7.715C8.211 8.207 8.633 8.633 8.66 8.66C8.74575 8.75245 8.79339 8.8739 8.79339 9C8.79339 9.1261 8.74575 9.24754 8.66 9.34C8.633 9.367 8.21 9.793 7.715 10.285C7.02 10.98 6.809 11.191 6.773 11.211C6.67642 11.2744 6.56072 11.3021 6.44588 11.2894C6.33105 11.2766 6.22428 11.2241 6.144 11.141C6.06896 11.071 6.02084 10.9768 6.008 10.875C6.00056 10.7228 5.99789 10.5704 6 10.418V10H3.426L3.379 9.984C3.29129 9.96114 3.21118 9.91553 3.14674 9.8518C3.0823 9.78806 3.03582 9.70845 3.012 9.621C3.004 9.586 3.004 9.547 3.004 9C3.004 8.453 3.004 8.414 3.012 8.379C3.03582 8.29155 3.0823 8.21193 3.14674 8.1482C3.21118 8.08446 3.29129 8.03886 3.379 8.016L3.426 8H4.71L6 7.996V7.582C6 7.316 6.004 7.148 6.008 7.125C6.02111 7.02302 6.06959 6.92888 6.145 6.859C6.20356 6.79743 6.27713 6.75216 6.35848 6.72761C6.43983 6.70307 6.52616 6.7001 6.609 6.719L6.61 6.718Z" fill="#202020"/>
</g>
<defs>
<clipPath id="clip0_2064_20527">
<rect width="12" height="12" fill="white"/>
</clipPath>
</defs>
</svg>
