<svg width="12" height="12" viewBox="0 0 12 12" fill="none" xmlns="http://www.w3.org/2000/svg">
<path d="M4.887 0.00799283C4.492 0.0509928 4.157 0.331993 4.043 0.706993C4.01268 0.803984 3.99915 0.905444 4.003 1.00699C4.00159 1.26063 4.09959 1.50474 4.276 1.68699C4.42947 1.852 4.6356 1.95843 4.859 1.98799C4.949 2.00399 7.051 2.00399 7.141 1.98799C7.35993 1.95893 7.56281 1.85734 7.71725 1.69946C7.87168 1.54158 7.96877 1.33651 7.993 1.11699C8.00883 0.985675 7.99835 0.85252 7.96217 0.725297C7.92598 0.598075 7.86482 0.479334 7.78225 0.376004C7.69968 0.272674 7.59735 0.186826 7.48125 0.123469C7.36514 0.0601128 7.23758 0.020517 7.106 0.00699283C7.038 -7.17305e-06 4.952 -7.17305e-06 4.885 0.00799283H4.887Z" fill="#202020"/>
<path d="M1.813 1.00799C1.71672 1.01871 1.6212 1.0354 1.527 1.05799C1.13055 1.15341 0.772831 1.36796 0.501978 1.67278C0.231124 1.9776 0.0601294 2.35807 0.012 2.76299C0.004 2.82899 0.004 3.10999 0 6.44299C0 9.00899 0 10.079 0.008 10.142C0.047 10.732 0.336 11.255 0.808 11.606C1.113 11.836 1.468 11.966 1.863 11.993C1.922 12 3.148 12 6.06 12L10.169 11.996L10.259 11.984C10.5247 11.9502 10.7809 11.8629 11.0119 11.7273C11.2429 11.5917 11.444 11.4106 11.603 11.195C11.8353 10.8886 11.9723 10.5207 11.997 10.137C12 10.078 12 8.99699 12 6.43999C11.996 3.10799 11.996 2.82699 11.988 2.75999C11.9364 2.33797 11.752 1.94329 11.4613 1.63302C11.1706 1.32274 10.7888 1.11296 10.371 1.03399C10.215 1.00299 10.227 1.00699 9.598 1.00299L9 0.999993V1.08599C8.992 1.23399 8.977 1.33599 8.941 1.47999C8.84366 1.87639 8.62719 2.23344 8.32073 2.50307C8.01428 2.77269 7.63257 2.94193 7.227 2.98799C7.152 2.99999 4.98 3.00399 4.852 2.99199C4.5689 2.97164 4.29325 2.89191 4.043 2.75799C3.74027 2.59356 3.48533 2.35346 3.30306 2.06113C3.12079 1.76879 3.0174 1.4342 3.003 1.08999L3 0.999993L2.434 1.00399C2.125 1.00399 1.849 1.00799 1.813 1.00799ZM3.09 5.00399C3.27 5.01999 3.438 5.08199 3.582 5.18399C3.652 5.23399 3.766 5.34799 3.816 5.41799C3.863 5.48799 3.926 5.60899 3.949 5.67999C4.00725 5.85685 4.01548 6.04637 3.97277 6.22761C3.93006 6.40885 3.83809 6.57475 3.707 6.70699C3.5954 6.81983 3.45847 6.9044 3.30761 6.95366C3.15674 7.00293 2.9963 7.01546 2.83961 6.99023C2.68292 6.96499 2.53453 6.90272 2.40675 6.80858C2.27898 6.71444 2.17553 6.59116 2.105 6.44899C1.98777 6.20906 1.9684 5.93294 2.051 5.67899C2.074 5.60899 2.137 5.48899 2.184 5.41799C2.2856 5.27576 2.42274 5.16267 2.58172 5.09002C2.7407 5.01737 2.91597 4.98771 3.09 5.00399ZM9.09 5.00399C9.27 5.01999 9.438 5.08199 9.582 5.18399C9.652 5.23399 9.766 5.34799 9.816 5.41799C9.863 5.48799 9.926 5.60899 9.949 5.67999C10.016 5.88999 10.016 6.10999 9.949 6.31999C9.926 6.38999 9.863 6.51199 9.816 6.57799C9.766 6.65199 9.652 6.76599 9.582 6.81599C9.437 6.91799 9.27 6.97599 9.09 6.99599C9.004 7.00399 5.996 7.00399 5.91 6.99599C5.67649 6.97542 5.45785 6.87266 5.293 6.70599C5.21688 6.63103 5.15339 6.54424 5.105 6.44899C5.03575 6.30945 4.99971 6.15578 4.99971 5.99999C4.99971 5.84421 5.03575 5.69054 5.105 5.55099C5.1533 5.45539 5.21679 5.36826 5.293 5.29299C5.45605 5.12781 5.67196 5.02516 5.903 5.00299C5.977 4.99599 9.012 4.99599 9.09 5.00299V5.00399ZM3.09 8.00399C3.27 8.01999 3.438 8.08199 3.582 8.18399C3.652 8.23399 3.766 8.34799 3.816 8.41799C3.863 8.48799 3.926 8.60899 3.949 8.67999C4.00725 8.85685 4.01548 9.04637 3.97277 9.22761C3.93006 9.40884 3.83809 9.57475 3.707 9.70699C3.5954 9.81983 3.45847 9.9044 3.30761 9.95366C3.15674 10.0029 2.9963 10.0155 2.83961 9.99023C2.68292 9.96499 2.53453 9.90272 2.40675 9.80858C2.27898 9.71444 2.17553 9.59116 2.105 9.44899C1.98777 9.20906 1.9684 8.93294 2.051 8.67899C2.074 8.60899 2.137 8.48899 2.184 8.41799C2.2856 8.27576 2.42274 8.16266 2.58172 8.09002C2.7407 8.01737 2.91597 7.98771 3.09 8.00399ZM9.09 8.00399C9.27 8.01999 9.438 8.08199 9.582 8.18399C9.652 8.23399 9.766 8.34799 9.816 8.41799C9.863 8.48799 9.926 8.60899 9.949 8.67999C10.016 8.88999 10.016 9.10999 9.949 9.31999C9.926 9.38999 9.863 9.51199 9.816 9.57799C9.766 9.65199 9.652 9.76599 9.582 9.81599C9.437 9.91799 9.27 9.97599 9.09 9.99599C9.004 10.004 5.996 10.004 5.91 9.99599C5.67649 9.97542 5.45785 9.87266 5.293 9.70599C5.21688 9.63103 5.15339 9.54424 5.105 9.44899C5.03575 9.30945 4.99971 9.15578 4.99971 8.99999C4.99971 8.84421 5.03575 8.69054 5.105 8.55099C5.1533 8.45539 5.21679 8.36826 5.293 8.29299C5.45605 8.12781 5.67196 8.02516 5.903 8.00299C5.977 7.99599 9.012 7.99699 9.09 8.00399Z" fill="#202020"/>
</svg>
