<svg width="12" height="12" viewBox="0 0 12 12" fill="none" xmlns="http://www.w3.org/2000/svg">
<path d="M7.832 2.004C6.863 2.043 5.945 2.434 5.242 3.105C4.719 3.60172 4.33997 4.23056 4.145 4.925C4.11407 5.02122 4.09954 5.12196 4.102 5.223C4.109 5.359 4.141 5.473 4.211 5.582C4.322 5.75401 4.48913 5.88228 4.684 5.945C5.078 6.078 5.477 5.961 5.824 5.613C5.98319 5.44965 6.11974 5.26567 6.23 5.066C6.355 4.852 6.441 4.73 6.59 4.586C6.898 4.273 7.277 4.086 7.723 4.02C8.16546 3.95895 8.61563 4.04777 9.00175 4.2723C9.38787 4.49683 9.68771 4.84414 9.8535 5.25889C10.0193 5.67364 10.0415 6.13195 9.9165 6.56077C9.79154 6.98959 9.52663 7.36423 9.164 7.625C9.07184 7.68814 8.97673 7.74688 8.879 7.801C8.695 7.906 8.484 8.071 8.355 8.207C8.22585 8.34034 8.12514 8.49855 8.059 8.672C7.902 9.122 8.086 9.629 8.48 9.824C8.582 9.875 8.684 9.898 8.805 9.898C8.895 9.898 8.949 9.891 9.09 9.848C9.76402 9.65692 10.376 9.29217 10.8648 8.79025C11.3535 8.28834 11.7019 7.66685 11.875 6.988C11.961 6.652 11.996 6.363 11.996 6.004C11.9987 5.47107 11.8938 4.94307 11.6876 4.45163C11.4815 3.9602 11.1782 3.51544 10.796 3.144C10.1509 2.50768 9.30756 2.11108 8.406 2.02C8.26094 2.00837 8.11552 2.0017 7.97 2C7.954 2 7.896 2.004 7.833 2.004H7.832Z" fill="currentColor"/>
<path d="M3.121 2.105C3.031 2.113 2.805 2.175 2.613 2.25C1.87878 2.51939 1.24017 2.99907 0.776892 3.62916C0.313613 4.25926 0.0461881 5.01185 0.00800101 5.793C-0.0309961 6.52805 0.133792 7.25958 0.484188 7.90692C0.834583 8.55425 1.35697 9.09222 1.99373 9.46149C2.63048 9.83076 3.35686 10.017 4.09273 9.99959C4.82861 9.98221 5.54539 9.76192 6.164 9.363C6.87038 8.9055 7.41669 8.2393 7.727 7.457C7.797 7.277 7.871 7.035 7.891 6.918C7.90459 6.8204 7.90053 6.72116 7.879 6.625C7.84764 6.51359 7.79313 6.41005 7.71904 6.32114C7.64494 6.23222 7.55293 6.15994 7.449 6.109C7.21397 5.9901 6.94138 5.96924 6.691 6.051C6.348 6.164 6.027 6.477 5.761 6.953C5.661 7.129 5.551 7.277 5.414 7.414C5.10213 7.72636 4.69568 7.92677 4.258 7.984C4.07997 8.00025 3.90077 7.99891 3.723 7.98C3.57077 7.95813 3.42128 7.92026 3.277 7.867C2.84239 7.69641 2.48072 7.37984 2.25409 6.97165C2.02745 6.56345 1.94999 6.08909 2.035 5.63C2.125 5.15 2.387 4.72 2.777 4.419C2.847 4.364 2.934 4.306 3.051 4.239C3.309 4.091 3.453 3.985 3.609 3.829C3.809 3.629 3.926 3.427 3.977 3.212C4.059 2.833 3.91 2.431 3.609 2.228C3.46536 2.13206 3.29289 2.08794 3.121 2.105Z" fill="currentColor"/>
</svg>
