<svg width="12" height="12" viewBox="0 0 12 12" fill="none" xmlns="http://www.w3.org/2000/svg">
<g clip-path="url(#clip0_2435_17172)">
<path d="M0.871002 1.008C0.679957 1.03588 0.500155 1.11541 0.351002 1.238C0.191002 1.375 0.0660022 1.578 0.0230022 1.789C-0.01473 1.96175 -0.00584468 2.14141 0.0487472 2.30959C0.103339 2.47777 0.201673 2.6284 0.333669 2.74604C0.465664 2.86369 0.626572 2.94412 0.799895 2.97908C0.973219 3.01404 1.15272 3.00228 1.32 2.945C1.41249 2.91207 1.5005 2.86773 1.582 2.813C1.652 2.762 1.762 2.656 1.812 2.582C1.984 2.34 2.039 2.035 1.965 1.742C1.92003 1.57225 1.83093 1.41743 1.70676 1.29325C1.58258 1.16908 1.42776 1.07998 1.258 1.035C1.13171 1.00259 1.00057 0.993439 0.871002 1.008ZM3.871 1.008C3.67996 1.03588 3.50015 1.11541 3.351 1.238C3.191 1.375 3.066 1.578 3.023 1.789C2.99326 1.92687 2.99312 2.06948 3.02257 2.20741C3.05202 2.34535 3.1104 2.47546 3.19386 2.58916C3.27731 2.70286 3.38394 2.79756 3.5067 2.867C3.62946 2.93644 3.76556 2.97905 3.906 2.992C3.953 3 4.973 3 7.543 3C10.781 2.996 11.121 2.996 11.164 2.988C11.32 2.957 11.441 2.906 11.554 2.832C11.7217 2.72128 11.8518 2.56234 11.9273 2.37614C12.0029 2.18995 12.0202 1.98524 11.977 1.789C11.9491 1.65497 11.8929 1.52846 11.812 1.418C11.762 1.348 11.656 1.238 11.586 1.188C11.4687 1.10627 11.336 1.04913 11.196 1.02L11.136 1.004H7.524C5.431 1.004 3.895 1.004 3.871 1.008ZM0.922002 5.004C0.788715 5.01393 0.658799 5.05063 0.540023 5.11192C0.421246 5.17321 0.31605 5.25782 0.230724 5.36069C0.145399 5.46357 0.0816971 5.5826 0.0434287 5.71066C0.00516028 5.83872 -0.00688873 5.97318 0.00800224 6.106C0.0301278 6.34289 0.138277 6.56345 0.312002 6.726C0.516002 6.918 0.793002 7.016 1.074 6.996C1.32619 6.97919 1.56244 6.86676 1.73454 6.68166C1.90663 6.49655 2.00158 6.25274 2 6C2.00069 5.86748 1.97489 5.73615 1.92412 5.61372C1.87336 5.4913 1.79865 5.38026 1.70438 5.2871C1.61011 5.19395 1.49818 5.12057 1.37516 5.07127C1.25214 5.02197 1.12051 4.99774 0.988002 5C0.984002 5 0.953002 5.00001 0.922002 5.004ZM3.922 5.004C3.78872 5.01393 3.6588 5.05063 3.54002 5.11192C3.42125 5.17321 3.31605 5.25782 3.23072 5.36069C3.1454 5.46357 3.0817 5.5826 3.04343 5.71066C3.00516 5.83872 2.99311 5.97318 3.008 6.106C3.03013 6.34289 3.13828 6.56345 3.312 6.726C3.48 6.883 3.695 6.98 3.93 6.996C4.031 7.004 10.969 7.004 11.07 6.996C11.324 6.976 11.547 6.871 11.723 6.691C12.012 6.387 12.082 5.93001 11.895 5.551C11.8268 5.41628 11.7293 5.29861 11.6095 5.20669C11.4897 5.11478 11.3508 5.05097 11.203 5.02L11.07 5.004C10.98 4.99601 4.008 4.99601 3.922 5.004ZM0.890002 9.00801C0.731045 9.02515 0.57848 9.08 0.445002 9.168C0.310424 9.2578 0.199643 9.37891 0.122163 9.52093C0.0446837 9.66296 0.00282029 9.82166 0.000165213 9.98343C-0.00248987 10.1452 0.0341427 10.3052 0.106919 10.4497C0.179696 10.5942 0.286444 10.7188 0.418002 10.813C0.660002 10.984 0.968002 11.039 1.258 10.965C1.41958 10.9222 1.56757 10.8389 1.688 10.723C1.78833 10.6303 1.86771 10.5172 1.92083 10.3913C1.97394 10.2654 1.99957 10.1296 1.996 9.993C2.00155 9.89016 1.98554 9.7873 1.949 9.691C1.91445 9.59358 1.86846 9.5006 1.812 9.414C1.762 9.344 1.652 9.238 1.582 9.188C1.49978 9.13317 1.41195 9.08725 1.32 9.051C1.18105 9.00777 1.03477 8.99314 0.890002 9.00801ZM3.89 9.00801C3.73105 9.02515 3.57848 9.08 3.445 9.168C3.27519 9.28167 3.14427 9.44463 3.06988 9.63495C2.99548 9.82527 2.98118 10.0338 3.02889 10.2325C3.07661 10.4312 3.18405 10.6105 3.33675 10.7463C3.48945 10.8821 3.68009 10.9678 3.883 10.992C3.926 10.996 4.965 10.996 7.539 10.996H11.137L11.195 10.98C11.3316 10.949 11.4613 10.8934 11.578 10.816C11.7327 10.7052 11.8526 10.5526 11.9239 10.3761C11.9951 10.1997 12.0146 10.0066 11.9803 9.81945C11.9459 9.6323 11.8589 9.45878 11.7296 9.31917C11.6003 9.17956 11.434 9.07962 11.25 9.031C11.133 9 11.414 9.004 7.527 9.004C6.315 8.99943 5.10199 9.00076 3.89 9.00801Z" fill="currentColor"/>
</g>
<defs>
<clipPath id="clip0_2435_17172">
<rect width="12" height="12" fill="white"/>
</clipPath>
</defs>
</svg>
