<svg width="12" height="12" viewBox="0 0 12 12" fill="none" xmlns="http://www.w3.org/2000/svg">
<path d="M7.625 1.008C7.449 1.031 7.289 1.098 7.145 1.207C7.113 1.227 6.415 1.922 5.175 3.164L3.25 5.086L2.465 4.3C2.031 3.866 1.66 3.499 1.637 3.48C1.53945 3.40067 1.42832 3.33968 1.309 3.3C1.20901 3.26297 1.10246 3.24697 0.996 3.253C0.933231 3.24989 0.870329 3.25527 0.809 3.269C0.656598 3.29801 0.513102 3.36229 0.389995 3.4567C0.266888 3.55111 0.167587 3.67302 0.10004 3.81268C0.0324933 3.95234 -0.00142533 4.10588 0.000998747 4.261C0.00342283 4.41612 0.0421223 4.56852 0.114 4.706C0.184 4.843 0.117 4.776 1.402 6.061C2.055 6.714 2.609 7.265 2.632 7.284C2.945 7.53 3.382 7.565 3.73 7.374C3.863 7.3 3.723 7.44 6.18 4.984C7.438 3.726 8.484 2.674 8.508 2.651C8.621 2.519 8.691 2.366 8.73 2.191C8.74382 2.12935 8.7492 2.0661 8.746 2.003C8.74915 1.93858 8.74377 1.87402 8.73 1.811C8.68436 1.57801 8.5588 1.36828 8.375 1.218C8.24717 1.11962 8.09884 1.05126 7.941 1.018C7.83639 1.00275 7.73042 0.999057 7.625 1.007V1.008ZM8.918 5.004C8.7033 5.02212 8.50019 5.1091 8.33891 5.25199C8.17764 5.39488 8.06684 5.58604 8.023 5.797C8 5.895 8 5.992 8 6.504V7H7.465C7.129 7 6.91 7.004 6.879 7.008C6.645 7.035 6.418 7.152 6.262 7.324C6.14396 7.45607 6.06169 7.61615 6.023 7.789C5.99328 7.92626 5.9929 8.06825 6.02187 8.20567C6.05085 8.34309 6.10853 8.47284 6.19114 8.58642C6.27375 8.69999 6.37943 8.79484 6.50124 8.86473C6.62305 8.93463 6.75826 8.978 6.898 8.992C6.934 8.996 7.148 9 7.477 9H8V9.496C8 9.781 8 10.027 8.004 10.07C8.02034 10.3224 8.13263 10.5589 8.31784 10.7311C8.50304 10.9033 8.74712 10.9981 9 10.996C9.152 10.996 9.29 10.969 9.426 10.902C9.58807 10.8277 9.7268 10.7106 9.82724 10.5633C9.92768 10.4159 9.98603 10.244 9.996 10.066C10 10.027 10.004 9.77 10.004 9.496V9H10.559C11.152 8.996 11.141 8.996 11.25 8.969C11.441 8.918 11.621 8.809 11.75 8.664C11.8816 8.51355 11.9652 8.32721 11.9901 8.1289C12.0151 7.93059 11.9802 7.72935 11.89 7.551C11.8444 7.45503 11.7825 7.36773 11.707 7.293C11.6331 7.21625 11.5456 7.15386 11.449 7.109C11.3689 7.06749 11.2834 7.03721 11.195 7.019C11.137 7.008 11.125 7.004 10.57 7.004L10.004 7V6.504C10.004 5.996 10 5.894 9.98 5.801C9.94071 5.60925 9.84624 5.43317 9.70819 5.29441C9.57014 5.15565 9.39454 5.06027 9.203 5.02C9.1305 5.00869 9.05735 5.00201 8.984 5C8.984 5 8.954 5 8.918 5.004Z" fill="#202020"/>
</svg>
