<svg width="12" height="12" viewBox="0 0 12 12" fill="none" xmlns="http://www.w3.org/2000/svg">
<path d="M5.73 0.00401891C4.73746 0.0494241 3.7715 0.339348 2.918 0.848019C2.38137 1.1702 1.89768 1.57328 1.484 2.04302C0.971972 2.62644 0.579238 3.30455 0.328003 4.03902C0.173293 4.49295 0.0725987 4.96353 0.0280028 5.44102C0.00800283 5.65602 0.00400283 5.74602 0.00400283 6.00002C-0.00113411 7.15898 0.332543 8.29418 0.964003 9.26602C1.64126 10.3125 2.62861 11.1212 3.788 11.579C4.68 11.934 5.66 12.066 6.621 11.969C8.11026 11.8152 9.48815 11.11 10.484 9.99202C11.321 9.05272 11.8406 7.87353 11.969 6.62202C11.9909 6.41545 11.9999 6.20771 11.996 6.00002C11.9999 5.79266 11.9908 5.58526 11.969 5.37902C11.8289 4.00814 11.2203 2.72752 10.2459 1.75312C9.2715 0.77871 7.99088 0.170135 6.62 0.0300189C6.32411 0.00378298 6.02694 -0.00523223 5.73 0.00301891V0.00401891ZM6.18 2.00402C6.508 2.02002 6.813 2.06602 7.11 2.15202C7.79175 2.34811 8.40903 2.72211 8.89847 3.23562C9.3879 3.74913 9.73185 4.38364 9.895 5.07402C10.094 5.93402 10.008 6.84002 9.652 7.64102C9.25489 8.51964 8.55464 9.22586 7.67942 9.63042C6.8042 10.035 5.81256 10.1108 4.886 9.84402C3.95848 9.57604 3.15926 8.98147 2.63595 8.17014C2.11265 7.3588 1.90061 6.38551 2.039 5.43002C2.17905 4.44584 2.68118 3.54929 3.44719 2.91569C4.21321 2.28209 5.18802 1.95701 6.181 2.00402H6.18Z" fill="currentColor"/>
<path d="M7.918 3.50402C7.695 3.52402 7.477 3.62102 7.316 3.77402C7.277 3.81202 6.988 4.15202 6.352 4.91802C5.852 5.52002 5.437 6.01202 5.437 6.01602C5.434 6.01602 5.273 5.86302 5.027 5.61702C4.648 5.23802 4.621 5.21502 4.559 5.17202C4.43566 5.08816 4.29492 5.03335 4.14735 5.0117C3.99979 4.99005 3.84923 5.00213 3.707 5.04702C3.57814 5.08564 3.45859 5.1503 3.35572 5.23699C3.25286 5.32368 3.16889 5.43056 3.109 5.55102C3.03783 5.68999 3.00072 5.84388 3.00072 6.00002C3.00072 6.15615 3.03783 6.31005 3.109 6.44902C3.184 6.59402 3.149 6.55902 4.023 7.43402C4.484 7.89402 4.843 8.25402 4.875 8.27702C5.06253 8.42796 5.2983 8.50603 5.53885 8.49684C5.77941 8.48765 6.00853 8.39182 6.184 8.22702C6.227 8.18702 6.609 7.73002 7.516 6.64502C8.215 5.80502 8.801 5.09802 8.82 5.07002C8.92246 4.92207 8.98305 4.74919 8.99537 4.56965C9.0077 4.39011 8.97129 4.21058 8.89 4.05002C8.81332 3.89664 8.69822 3.76574 8.55592 3.67006C8.41362 3.57438 8.24897 3.51717 8.078 3.50402C8.02495 3.49622 7.97105 3.49622 7.918 3.50402Z" fill="currentColor"/>
</svg>
