<svg width="12" height="12" viewBox="0 0 12 12" fill="none" xmlns="http://www.w3.org/2000/svg">
<path d="M1.91 3.00402C1.77471 3.0179 1.64333 3.05762 1.523 3.12102C1.39434 3.19243 1.28272 3.29094 1.19588 3.40973C1.10903 3.52852 1.04902 3.66476 1.02 3.80902C1.00605 3.87032 1.00067 3.93325 1.004 3.99602C1.00236 4.22936 1.0827 4.45587 1.231 4.63602C1.25 4.66002 2.187 5.60202 3.316 6.72602C4.918 8.32902 5.375 8.78202 5.414 8.81002C5.684 9.00102 6.008 9.05202 6.316 8.94602C6.391 8.92302 6.512 8.86402 6.582 8.81302C6.629 8.78302 6.949 8.46202 8.684 6.72802C9.38227 6.03429 10.0776 5.33761 10.77 4.63802C10.9179 4.45773 10.9979 4.23123 10.996 3.99802C10.9994 3.93492 10.994 3.87164 10.98 3.81002C10.9288 3.55352 10.7805 3.32673 10.566 3.17702C10.3922 3.05927 10.1861 2.9986 9.97619 3.00344C9.76632 3.00828 9.56318 3.07839 9.395 3.20402C9.375 3.22002 8.605 3.98502 7.68 4.91102L6 6.59002L4.312 4.90202C2.484 3.07402 2.599 3.18402 2.458 3.11302C2.28954 3.02592 2.10003 2.98782 1.911 3.00302L1.91 3.00402Z" fill="#202020"/>
</svg>
