<svg width="12" height="12" viewBox="0 0 12 12" fill="none" xmlns="http://www.w3.org/2000/svg">
<g clip-path="url(#clip0_2064_26473)">
<path d="M5.727 0.00394259C4.72944 0.0495554 3.75877 0.341957 2.902 0.854943C2.402 1.15594 1.906 1.56594 1.504 2.01994C0.908875 2.6917 0.472441 3.4887 0.227001 4.35194C0.113001 4.76194 0.0430012 5.15994 0.0120012 5.63194C-0.0429003 6.51063 0.0956926 7.39066 0.418001 8.20994C0.737537 9.01809 1.22906 9.74704 1.85848 10.3462C2.48789 10.9454 3.24013 11.4005 4.063 11.6799C4.94257 11.9801 5.87978 12.0723 6.80097 11.9491C7.72216 11.8259 8.60223 11.4907 9.372 10.9699C10.3163 10.3263 11.0584 9.4278 11.512 8.37894C11.8346 7.62887 11.9993 6.82043 11.996 6.00394C11.996 5.73394 11.992 5.63294 11.969 5.40994C11.8768 4.42466 11.5399 3.47801 10.989 2.65594C10.4997 1.92481 9.85517 1.31053 9.10141 0.856819C8.34765 0.40311 7.50314 0.121128 6.628 0.0309426C6.3281 0.00469144 6.02694 -0.00432339 5.726 0.00394259H5.727ZM5.699 3.01994C5.793 3.03994 5.855 3.06194 5.949 3.10994C6.098 3.18394 6.035 3.12494 7.184 4.26994C7.758 4.84394 8.246 5.33194 8.266 5.35494C8.41535 5.53671 8.497 5.76468 8.497 5.99994C8.497 6.2352 8.41535 6.46317 8.266 6.64494C8.246 6.66794 7.758 7.15594 7.184 7.72994C6.035 8.87494 6.098 8.81594 5.949 8.88994C5.82369 8.95674 5.6849 8.99435 5.543 8.99994C5.40452 9.00558 5.26638 8.98247 5.13728 8.93205C5.00819 8.88163 4.89094 8.805 4.79294 8.707C4.69494 8.609 4.61832 8.49176 4.5679 8.36266C4.51748 8.23356 4.49436 8.09542 4.5 7.95694C4.512 7.74994 4.586 7.54694 4.71 7.38294C4.73 7.35894 5.047 7.03894 5.418 6.66794L6.086 5.99994L5.418 5.33194C5.18008 5.09584 4.94441 4.8575 4.711 4.61694C4.60499 4.47804 4.53645 4.31424 4.51193 4.14123C4.48742 3.96823 4.50776 3.79183 4.571 3.62894C4.63754 3.4647 4.74612 3.32085 4.88584 3.21185C5.02556 3.10285 5.1915 3.03252 5.367 3.00794C5.47768 2.9964 5.58944 3.00044 5.699 3.01994Z" fill="#202020"/>
</g>
<defs>
<clipPath id="clip0_2064_26473">
<rect width="12" height="12" fill="white"/>
</clipPath>
</defs>
</svg>
