<svg width="12" height="12" viewBox="0 0 12 12" fill="none" xmlns="http://www.w3.org/2000/svg">
<g clip-path="url(#clip0_2064_24587)">
<path d="M5.727 0.00400363C4.72944 0.0496165 3.75877 0.342018 2.902 0.855004C2.402 1.156 1.906 1.566 1.504 2.02C0.908875 2.69176 0.472441 3.48876 0.227001 4.352C0.113001 4.762 0.0430012 5.16 0.0120012 5.632C-0.0429003 6.51069 0.0956926 7.39072 0.418001 8.21C0.737537 9.01815 1.22906 9.7471 1.85848 10.3463C2.48789 10.9455 3.24013 11.4006 4.063 11.68C4.94257 11.9802 5.87978 12.0723 6.80097 11.9491C7.72216 11.8259 8.60223 11.4908 9.372 10.97C10.3163 10.3264 11.0584 9.42786 11.512 8.379C11.8346 7.62893 11.9993 6.82049 11.996 6.004C11.996 5.734 11.992 5.633 11.969 5.41C11.8768 4.42472 11.5399 3.47808 10.989 2.656C10.4997 1.92487 9.85517 1.31059 9.10141 0.85688C8.34765 0.403171 7.50314 0.121189 6.628 0.0310036C6.3281 0.00475247 6.02694 -0.00426236 5.726 0.00400363H5.727ZM4.145 4.012C4.305 4.035 4.449 4.094 4.585 4.188C4.621 4.211 4.809 4.395 5.316 4.902L6 5.586L6.68 4.91C7.148 4.441 7.371 4.219 7.406 4.195C7.508 4.121 7.633 4.062 7.754 4.031C7.84704 4.00736 7.94318 3.99826 8.039 4.004C8.13057 4.00557 8.22147 4.02005 8.309 4.047C8.383 4.074 8.516 4.141 8.579 4.184C8.914 4.426 9.066 4.84 8.973 5.238C8.93248 5.40422 8.84864 5.55673 8.73 5.68C8.621 5.805 6.668 7.75 6.617 7.79C6.488 7.883 6.347 7.95 6.195 7.98C6.152 7.988 6.105 7.992 6.027 7.996C5.83793 7.99994 5.65133 7.9526 5.487 7.859C5.379 7.793 5.367 7.781 4.332 6.75C3.782 6.2 3.301 5.715 3.27 5.68C3.1786 5.58391 3.10756 5.47032 3.06116 5.34608C3.01476 5.22183 2.99396 5.08949 3 4.957C3.023 4.48 3.379 4.082 3.848 4.012C3.918 4 4.074 4 4.145 4.012Z" fill="#202020"/>
</g>
<defs>
<clipPath id="clip0_2064_24587">
<rect width="12" height="12" fill="white"/>
</clipPath>
</defs>
</svg>
