<svg width="12" height="12" viewBox="0 0 12 12" fill="none" xmlns="http://www.w3.org/2000/svg">
<g clip-path="url(#clip0_2064_27416)">
<path d="M5.727 0.00394259C4.72944 0.0495554 3.75877 0.341957 2.902 0.854943C2.402 1.15594 1.906 1.56594 1.504 2.01994C0.908875 2.6917 0.472441 3.4887 0.227001 4.35194C0.113001 4.76194 0.0430012 5.15994 0.0120012 5.63194C-0.0429003 6.51063 0.0956926 7.39066 0.418001 8.20994C0.737537 9.01809 1.22906 9.74704 1.85848 10.3462C2.48789 10.9454 3.24013 11.4005 4.063 11.6799C4.94257 11.9801 5.87978 12.0723 6.80097 11.9491C7.72216 11.8259 8.60223 11.4907 9.372 10.9699C10.3163 10.3263 11.0584 9.4278 11.512 8.37894C11.8346 7.62887 11.9993 6.82043 11.996 6.00394C11.996 5.73394 11.992 5.63294 11.969 5.40994C11.8768 4.42466 11.5399 3.47801 10.989 2.65594C10.4997 1.92481 9.85517 1.31053 9.10141 0.856819C8.34765 0.40311 7.50314 0.121128 6.628 0.0309426C6.3281 0.00469144 6.02694 -0.00432339 5.726 0.00394259H5.727ZM6.195 4.01994C6.348 4.04994 6.488 4.11694 6.617 4.20994C6.668 4.24994 8.621 6.19494 8.73 6.31994C8.855 6.45294 8.93 6.59394 8.973 6.76194C9.01918 6.95699 9.00628 7.16137 8.93594 7.34907C8.86559 7.53676 8.741 7.69928 8.578 7.81594C8.49332 7.87035 8.40274 7.91497 8.308 7.94894C8.22147 7.97906 8.13062 7.99493 8.039 7.99594C7.94318 8.00169 7.84704 7.99258 7.754 7.96894C7.62891 7.93611 7.51095 7.88052 7.406 7.80494C7.371 7.78094 7.148 7.55894 6.68 7.08994L6 6.41394L5.316 7.09794C5.07863 7.34229 4.83523 7.5807 4.586 7.81294C4.48271 7.8845 4.36762 7.93731 4.246 7.96894C4.15296 7.99258 4.05683 8.00169 3.961 7.99594C3.86908 7.99469 3.77794 7.97882 3.691 7.94894C3.59626 7.91497 3.50568 7.87035 3.421 7.81594C3.23873 7.68538 3.1053 7.49768 3.04189 7.28263C2.97848 7.06758 2.98873 6.83751 3.071 6.62894C3.11654 6.51395 3.18415 6.40898 3.27 6.31994C3.3 6.28494 3.781 5.79994 4.332 5.24994C5.367 4.21894 5.379 4.20694 5.488 4.13994C5.586 4.08194 5.715 4.03494 5.832 4.01194C5.922 3.99594 6.109 3.99994 6.195 4.01994Z" fill="#202020"/>
</g>
<defs>
<clipPath id="clip0_2064_27416">
<rect width="12" height="12" fill="white"/>
</clipPath>
</defs>
</svg>
