<svg width="12" height="12" viewBox="0 0 12 12" fill="none" xmlns="http://www.w3.org/2000/svg">
<path d="M4.355 1.01199C4.20026 1.03517 4.05304 1.09406 3.925 1.18399C3.844 1.24199 3.727 1.35899 3.672 1.44099C3.55572 1.61273 3.49583 1.81644 3.50067 2.0238C3.50551 2.23115 3.57483 2.43185 3.699 2.59799C3.723 2.63299 4.223 3.13299 5.41 4.32399L7.086 5.99999L5.41 7.67599C4.223 8.86699 3.723 9.36699 3.7 9.40199C3.57568 9.56802 3.50618 9.76866 3.50116 9.97601C3.49615 10.1834 3.55586 10.3871 3.672 10.559C3.727 10.641 3.844 10.758 3.926 10.816C4.234 11.031 4.641 11.059 4.969 10.883C5.102 10.813 4.961 10.949 7.199 8.71099C7.90549 8.0098 8.60751 7.30412 9.305 6.59399C9.41657 6.44058 9.48268 6.25885 9.49577 6.06962C9.50885 5.88039 9.46839 5.69129 9.379 5.52399C9.313 5.39799 9.438 5.52699 7.203 3.29699C5.387 1.47699 5.117 1.20999 5.07 1.17999C4.86203 1.03438 4.60606 0.974235 4.355 1.01199Z" fill="#202020"/>
</svg>
