<svg width="12" height="12" viewBox="0 0 12 12" fill="none" xmlns="http://www.w3.org/2000/svg">
<path d="M5.73 0.00401891C4.73746 0.0494241 3.7715 0.339348 2.918 0.848019C2.38137 1.1702 1.89768 1.57328 1.484 2.04302C0.971972 2.62644 0.579238 3.30455 0.328003 4.03902C0.173293 4.49295 0.0725987 4.96353 0.0280028 5.44102C0.00800283 5.65602 0.00400283 5.74602 0.00400283 6.00002C-0.00113411 7.15898 0.332543 8.29418 0.964003 9.26602C1.64126 10.3125 2.62861 11.1212 3.788 11.579C4.68 11.934 5.66 12.066 6.621 11.969C8.11026 11.8152 9.48815 11.11 10.484 9.99202C11.321 9.05272 11.8406 7.87353 11.969 6.62202C11.9909 6.41545 11.9999 6.20771 11.996 6.00002C11.9999 5.79266 11.9908 5.58526 11.969 5.37902C11.8289 4.00814 11.2203 2.72752 10.2459 1.75312C9.2715 0.77871 7.99088 0.170135 6.62 0.0300189C6.32411 0.00378298 6.02694 -0.00523223 5.73 0.00301891V0.00401891ZM6.18 2.00402C6.508 2.02002 6.813 2.06602 7.11 2.15202C7.79175 2.34811 8.40903 2.72211 8.89847 3.23562C9.3879 3.74913 9.73185 4.38364 9.895 5.07402C10.094 5.93402 10.008 6.84002 9.652 7.64102C9.25489 8.51964 8.55464 9.22586 7.67942 9.63042C6.8042 10.035 5.81256 10.1108 4.886 9.84402C3.95848 9.57604 3.15926 8.98147 2.63595 8.17014C2.11265 7.3588 1.90061 6.38551 2.039 5.43002C2.17905 4.44584 2.68118 3.54929 3.44719 2.91569C4.21321 2.28209 5.18802 1.95701 6.181 2.00402H6.18Z" fill="#202020"/>
<path d="M3.875 4.00802C3.73732 4.02593 3.60484 4.0722 3.48595 4.14391C3.36706 4.21562 3.26433 4.31121 3.18426 4.42464C3.10419 4.53807 3.04852 4.66688 3.02076 4.80292C2.99301 4.93897 2.99377 5.07929 3.023 5.21502C3.051 5.34402 3.121 5.49202 3.199 5.59802C3.234 5.64502 3.473 5.88702 4.309 6.71802C5.199 7.60902 5.379 7.78502 5.426 7.81602C5.734 8.03102 6.141 8.05902 6.469 7.88302C6.598 7.81302 6.543 7.86302 7.687 6.72302C8.527 5.88702 8.766 5.64502 8.801 5.59802C8.937 5.41802 9.008 5.18002 9 4.95702C8.9898 4.73335 8.90498 4.51954 8.75907 4.34971C8.61317 4.17988 8.41458 4.06381 8.195 4.02002C7.97754 3.98043 7.75311 4.01199 7.555 4.11002C7.402 4.18402 7.434 4.15602 6.68 4.90602L6 5.58602L5.328 4.91402L4.625 4.21902C4.49717 4.12064 4.34884 4.05228 4.191 4.01902C4.08639 4.00376 3.98042 4.00007 3.875 4.00802Z" fill="#202020"/>
</svg>
