<svg width="12" height="12" viewBox="0 0 12 12" fill="none" xmlns="http://www.w3.org/2000/svg">
<path d="M4.887 0.00796231C4.492 0.0509623 4.157 0.331962 4.043 0.706962C4.01268 0.803954 3.99915 0.905414 4.003 1.00696C4.00159 1.2606 4.09959 1.50471 4.276 1.68696C4.42947 1.85197 4.6356 1.95839 4.859 1.98796C4.949 2.00396 7.051 2.00396 7.141 1.98796C7.35993 1.95889 7.56281 1.85731 7.71725 1.69943C7.87168 1.54155 7.96877 1.33648 7.993 1.11696C8.00883 0.985645 7.99835 0.852489 7.96217 0.725267C7.92598 0.598044 7.86482 0.479303 7.78225 0.375973C7.69968 0.272644 7.59735 0.186796 7.48125 0.123439C7.36514 0.0600823 7.23758 0.0204865 7.106 0.00696231C7.038 -3.76906e-05 4.952 -3.76906e-05 4.885 0.00796231H4.887Z" fill="currentColor"/>
<path d="M1.813 1.00796C1.71672 1.01868 1.6212 1.03537 1.527 1.05796C1.13055 1.15338 0.772831 1.36793 0.501978 1.67275C0.231124 1.97757 0.0601294 2.35804 0.012 2.76296C0.004 2.82896 0.004 3.10996 0 6.44296C0 9.00896 0 10.079 0.008 10.142C0.047 10.732 0.336 11.255 0.808 11.606C1.113 11.836 1.468 11.966 1.863 11.993C1.922 12 3.148 12 6.06 12L10.169 11.996L10.259 11.984C10.5247 11.9502 10.7809 11.8629 11.0119 11.7273C11.2429 11.5916 11.444 11.4106 11.603 11.195C11.8353 10.8886 11.9723 10.5206 11.997 10.137C12 10.078 12 8.99696 12 6.43996C11.996 3.10796 11.996 2.82696 11.988 2.75996C11.9364 2.33794 11.752 1.94326 11.4613 1.63298C11.1706 1.32271 10.7888 1.11293 10.371 1.03396C10.215 1.00296 10.227 1.00696 9.598 1.00296L9 0.999962V1.08596C8.992 1.23396 8.977 1.33596 8.941 1.47996C8.84366 1.87636 8.62719 2.23341 8.32073 2.50304C8.01428 2.77266 7.63257 2.9419 7.227 2.98796C7.152 2.99996 4.98 3.00396 4.852 2.99196C4.5689 2.97161 4.29325 2.89188 4.043 2.75796C3.74027 2.59353 3.48533 2.35343 3.30306 2.0611C3.12079 1.76876 3.0174 1.43417 3.003 1.08996L3 0.999962L2.434 1.00396C2.125 1.00396 1.849 1.00796 1.813 1.00796ZM7.332 4.35496C7.613 4.39496 7.891 4.51496 8.109 4.70296C8.137 4.72696 8.523 5.10896 8.969 5.55496C9.637 6.22696 9.785 6.37496 9.816 6.42196C9.92247 6.57103 9.9854 6.74677 9.99776 6.92954C10.0101 7.11231 9.97143 7.29491 9.886 7.45696C9.81759 7.59031 9.72005 7.70656 9.6006 7.7971C9.48116 7.88763 9.34288 7.95013 9.196 7.97996C9.152 7.98796 9.106 7.99196 9.027 7.99596C8.83793 7.9999 8.65132 7.95256 8.487 7.85896C8.387 7.79696 8.347 7.76196 7.805 7.22296L7.273 6.69096L6.715 7.80096C6.289 8.66096 6.148 8.92996 6.113 8.98096C5.93674 9.24834 5.67952 9.45229 5.379 9.56296C5.11362 9.66077 4.82597 9.68141 4.54935 9.62247C4.27273 9.56354 4.01846 9.42745 3.816 9.22996C3.27454 8.69507 2.73819 8.15505 2.207 7.60996C2.09209 7.4617 2.02152 7.28392 2.00347 7.09721C1.98542 6.9105 2.02062 6.72249 2.105 6.55496C2.15231 6.45654 2.2174 6.36772 2.297 6.29296C2.497 6.09296 2.757 5.98796 3.039 5.99996C3.234 6.01196 3.402 6.06596 3.57 6.17596C3.625 6.21496 3.68 6.26996 4.176 6.76196C4.476 7.06196 4.723 7.30496 4.723 7.30496C4.727 7.30496 4.977 6.80896 5.281 6.19896C5.879 5.00796 5.871 5.01896 5.988 4.88296C6.312 4.49296 6.82 4.29296 7.332 4.35496Z" fill="currentColor"/>
</svg>
