<svg width="12" height="12" viewBox="0 0 12 12" fill="none" xmlns="http://www.w3.org/2000/svg">
<path d="M5.73 0.00395788C4.73746 0.049363 3.7715 0.339287 2.918 0.847958C2.38137 1.17014 1.89768 1.57322 1.484 2.04296C0.971972 2.62638 0.579238 3.30449 0.328003 4.03896C0.173293 4.49289 0.0725987 4.96347 0.0280028 5.44096C0.00800283 5.65596 0.00400283 5.74596 0.00400283 5.99996C-0.00113411 7.15892 0.332543 8.29412 0.964003 9.26596C1.64126 10.3124 2.62861 11.1211 3.788 11.579C4.68 11.934 5.66 12.066 6.621 11.969C8.11026 11.8151 9.48815 11.1099 10.484 9.99196C11.321 9.05266 11.8406 7.87347 11.969 6.62196C11.9909 6.41539 11.9999 6.20765 11.996 5.99996C11.9999 5.7926 11.9908 5.5852 11.969 5.37896C11.8289 4.00808 11.2203 2.72746 10.2459 1.75306C9.2715 0.778649 7.99088 0.170074 6.62 0.0299579C6.32411 0.00372194 6.02694 -0.00529326 5.73 0.00295788V0.00395788ZM6.18 2.00396C6.508 2.01996 6.813 2.06596 7.11 2.15196C7.79175 2.34805 8.40903 2.72205 8.89847 3.23556C9.3879 3.74907 9.73185 4.38358 9.895 5.07396C10.094 5.93396 10.008 6.83996 9.652 7.64096C9.25489 8.51958 8.55464 9.2258 7.67942 9.63036C6.8042 10.0349 5.81256 10.1107 4.886 9.84396C3.95848 9.57598 3.15926 8.98141 2.63595 8.17008C2.11265 7.35874 1.90061 6.38545 2.039 5.42996C2.17905 4.44578 2.68118 3.54923 3.44719 2.91563C4.21321 2.28203 5.18802 1.95695 6.181 2.00396H6.18Z" fill="#202020"/>
<path d="M4.484 3.58996C4.26432 3.61529 4.05873 3.71107 3.898 3.86296C3.74365 4.0063 3.63981 4.19573 3.602 4.40296C3.59 4.45696 3.59 4.48396 3.59 4.58596C3.59 4.69596 3.59 4.71496 3.605 4.78096C3.637 4.93796 3.699 5.06596 3.793 5.19496C3.813 5.22296 3.984 5.39796 4.207 5.62096L4.586 5.99996L4.207 6.37896C3.984 6.60196 3.813 6.77696 3.793 6.80496C3.70004 6.92709 3.63579 7.06859 3.605 7.21896C3.59 7.28496 3.59 7.30496 3.59 7.40996C3.59 7.51596 3.59 7.54296 3.602 7.59796C3.64001 7.80483 3.74384 7.99388 3.898 8.13696C4.039 8.27296 4.203 8.35896 4.402 8.39796C4.457 8.40996 4.488 8.40996 4.59 8.40996C4.695 8.40996 4.715 8.40996 4.781 8.39496C4.93191 8.36587 5.07379 8.30144 5.195 8.20696C5.223 8.18696 5.398 8.01596 5.621 7.79296L6 7.41396L6.379 7.79296C6.589 7.99996 6.773 8.18296 6.793 8.19896C6.93 8.30096 7.063 8.35896 7.219 8.39496C7.2829 8.40961 7.34862 8.41467 7.414 8.40996C7.547 8.40996 7.614 8.40196 7.723 8.36296C8.023 8.26596 8.262 8.02696 8.363 7.72696C8.403 7.61696 8.41 7.54696 8.41 7.40996C8.41 7.30496 8.41 7.28496 8.395 7.21896C8.36591 7.06805 8.30149 6.92617 8.207 6.80496C8.187 6.77696 8.016 6.60196 7.793 6.37896L7.414 5.99996L7.793 5.62096C8.164 5.24996 8.211 5.19496 8.27 5.10496C8.457 4.80096 8.46 4.40596 8.285 4.09396C8.24496 4.0221 8.19516 3.95614 8.137 3.89796C8.08035 3.83479 8.01423 3.78082 7.941 3.73796C7.77131 3.62953 7.57215 3.57642 7.371 3.58596C7.161 3.59796 6.973 3.66396 6.793 3.80096C6.773 3.81596 6.59 3.99996 6.379 4.20696L6 4.58596L5.621 4.20696C5.191 3.77696 5.161 3.75396 5.011 3.68396C4.88824 3.61996 4.75143 3.58765 4.613 3.58996H4.484Z" fill="#202020"/>
</svg>
