<svg width="12" height="12" viewBox="0 0 12 12" fill="none" xmlns="http://www.w3.org/2000/svg">
<g clip-path="url(#clip0_2435_24577)">
<path d="M5.473 0.00405907C5.176 0.0240591 4.996 0.0510591 4.766 0.109059C4.055 0.297059 3.418 0.719059 2.961 1.30506C2.56493 1.81308 2.32364 2.42447 2.266 3.06606C2.246 3.25806 2.246 3.52706 2.266 3.70706L2.27 3.75006L2.176 3.75406C1.68 3.77406 1.23 3.93706 0.843997 4.24606C0.718417 4.35207 0.602004 4.46848 0.495997 4.59406C0.222997 4.93406 0.0659968 5.31606 0.0159968 5.75006C0.000374536 5.91636 0.000374536 6.08376 0.0159968 6.25006C0.0389968 6.45306 0.0859968 6.64006 0.155997 6.82406C0.268256 7.10622 0.436035 7.36296 0.649382 7.57905C0.86273 7.79515 1.1173 7.9662 1.398 8.08206C1.41 8.08606 1.41 8.08606 1.414 7.93706C1.4132 7.81078 1.42763 7.68488 1.457 7.56206C1.527 7.24606 1.68 6.94906 1.898 6.69506C1.988 6.59406 4.676 3.91006 4.742 3.85506C5.03122 3.62378 5.37862 3.47673 5.746 3.43006C5.848 3.41406 6.152 3.41406 6.254 3.43006C6.641 3.48406 6.961 3.62106 7.25 3.85206C7.297 3.89106 7.707 4.29706 8.684 5.27006C9.434 6.02006 10.074 6.66406 10.102 6.69506C10.3722 7.00385 10.5399 7.3889 10.582 7.79706C10.586 7.80106 10.73 7.70306 10.797 7.65206C11.047 7.46506 11.281 7.22206 11.465 6.96106C11.8517 6.40657 12.0391 5.73739 11.9966 5.0627C11.9541 4.38802 11.6842 3.74765 11.231 3.24606C10.835 2.80642 10.3187 2.49277 9.746 2.34406C9.50262 2.28008 9.25161 2.2498 9 2.25406C8.93631 2.25402 8.87263 2.25268 8.809 2.25006C8.809 2.23006 8.707 1.99606 8.656 1.89006C8.32925 1.22145 7.78918 0.680677 7.121 0.353059C6.61067 0.0973636 6.04317 -0.0228174 5.473 0.00405907Z" fill="currentColor"/>
<path d="M5.926 4.41806C5.7034 4.43469 5.49283 4.52554 5.328 4.67606C5.297 4.70306 4.68 5.31606 3.961 6.03906C3.051 6.94906 2.641 7.36706 2.613 7.39906C2.4997 7.54905 2.43144 7.7282 2.41621 7.91556C2.40098 8.10292 2.43941 8.29074 2.527 8.45706C2.555 8.51606 2.621 8.61306 2.672 8.66806C2.793 8.80806 2.969 8.91806 3.152 8.96506C3.277 8.99606 3.254 8.99606 3.898 9.00006H4.5V10.0121C4.5 10.6641 4.504 11.0471 4.508 11.0901C4.547 11.5121 4.848 11.8631 5.254 11.9691C5.375 11.9961 5.371 11.9961 6 11.9961C6.629 11.9961 6.625 11.9961 6.746 11.9691C7.156 11.8631 7.453 11.5121 7.496 11.0891C7.496 11.0471 7.5 10.6641 7.5 10.0121V9.00006H8.059C8.629 9.00006 8.695 8.99606 8.801 8.97706C8.96401 8.94001 9.11523 8.86292 9.24097 8.75275C9.36671 8.64259 9.46302 8.50283 9.52118 8.3461C9.57935 8.18937 9.59754 8.02061 9.57411 7.85509C9.55068 7.68957 9.48637 7.53249 9.387 7.39806C9.359 7.36806 8.945 6.94506 8.023 6.02306C7.297 5.29706 6.676 4.68006 6.648 4.65306C6.447 4.4839 6.18806 4.39961 5.926 4.41806Z" fill="currentColor"/>
</g>
<defs>
<clipPath id="clip0_2435_24577">
<rect width="12" height="12" fill="white"/>
</clipPath>
</defs>
</svg>
