<svg width="12" height="12" viewBox="0 0 12 12" fill="none" xmlns="http://www.w3.org/2000/svg">
<g clip-path="url(#clip0_2064_30435)">
<path d="M1.836 1.00403C1.828 1.00803 1.793 1.01203 1.766 1.01603C1.48184 1.04905 1.20812 1.14286 0.963439 1.29109C0.71876 1.43931 0.508858 1.63847 0.347998 1.87503C0.163998 2.14503 0.0579978 2.42203 0.0119978 2.75803C0.0039978 2.82803 0.0039978 2.98803 0.0039978 5.99203C0.0039978 9.01203 0.0039978 9.15203 0.0119978 9.23003C0.0739978 9.70003 0.265998 10.094 0.589998 10.414C0.900433 10.7306 1.30968 10.9317 1.75 10.984C1.809 10.992 2.09 10.996 5.945 10.996C8.949 10.996 10.098 10.996 10.16 10.992C10.457 10.9671 10.7451 10.8777 11.004 10.73C11.293 10.559 11.535 10.324 11.707 10.043C11.8552 9.79553 11.9509 9.52013 11.988 9.23403C11.996 9.16003 11.996 9.00403 12 6.04303C12 3.90603 12 2.90603 11.996 2.85203C11.964 2.44679 11.8118 2.06031 11.559 1.74203C11.2351 1.34526 10.7733 1.08558 10.266 1.01503C10.203 1.00403 9.957 1.00403 6.027 1.00403H1.836ZM5 9.00003H2V4.99603H5V9.00003ZM10.004 9.00003H7.004V4.99603H10.004V9.00003Z" fill="#202020"/>
</g>
<defs>
<clipPath id="clip0_2064_30435">
<rect width="12" height="12" fill="white"/>
</clipPath>
</defs>
</svg>
