<svg width="12" height="12" viewBox="0 0 12 12" fill="none" xmlns="http://www.w3.org/2000/svg">
<g clip-path="url(#clip0_2064_31658)">
<path d="M2.879 0.00402832C2.70757 0.0155489 2.53825 0.0484712 2.375 0.102028C2.12468 0.182827 1.89307 0.312939 1.69384 0.484687C1.49461 0.656436 1.3318 0.866343 1.215 1.10203C1.10029 1.32717 1.03001 1.5723 1.008 1.82403C0.999999 1.92203 0.999999 6.08203 1.008 6.17603C1.09 7.08603 1.766 7.82003 2.668 7.97303C2.828 8.00003 2.848 8.00003 4.051 7.99603C5.301 7.99603 5.211 7.99603 5.398 7.96103C5.74232 7.89017 6.06204 7.73025 6.32524 7.49723C6.58845 7.2642 6.78594 6.96622 6.898 6.63303C6.953 6.45703 6.984 6.29703 6.996 6.10503C7.004 5.96903 7.004 2.03103 6.996 1.89503C6.98953 1.78998 6.9765 1.68545 6.957 1.58203C6.87127 1.17768 6.66219 0.809901 6.3586 0.529412C6.055 0.248923 5.67185 0.0695474 5.262 0.0160283L5.172 0.00402832H2.879Z" fill="#202020"/>
<path d="M8.41 4.00803C8.33185 4.02353 8.25838 4.05699 8.19539 4.10575C8.13239 4.15452 8.08159 4.21726 8.047 4.28903C8.01632 4.35502 8.00159 4.4273 8.004 4.50003C8.004 4.58603 8.016 4.64003 8.047 4.71003C8.07642 4.76587 8.11344 4.81736 8.157 4.86303C8.21374 4.91366 8.28005 4.95242 8.352 4.97703L8.406 4.99703L8.754 5.00003C8.973 5.00003 9.117 5.00403 9.144 5.00803C9.35133 5.04019 9.54353 5.13599 9.69402 5.28218C9.84451 5.42837 9.94584 5.61772 9.984 5.82403L10 5.89103V7.95303C10.0056 8.66269 10.0042 9.37239 9.996 10.082C9.961 10.442 9.754 10.742 9.437 10.898C9.35002 10.9417 9.25643 10.9708 9.16 10.984C9.094 10.996 9.074 10.996 7.977 10.996H6.859L6.805 10.98C6.66651 10.9491 6.53517 10.8921 6.418 10.812C6.33661 10.7498 6.26307 10.678 6.199 10.598C6.10604 10.472 6.04342 10.3262 6.016 10.172C6.008 10.129 6.004 10.066 6 9.77003C5.996 9.38703 5.996 9.39003 5.96 9.30503C5.90321 9.1812 5.80179 9.08335 5.676 9.03103C5.55639 8.98741 5.42471 8.99057 5.30734 9.0399C5.18996 9.08922 5.09555 9.18106 5.043 9.29703C5.03058 9.32589 5.02152 9.35609 5.016 9.38703C5 9.43403 5 9.44503 5 9.77703C5 10.012 5.004 10.145 5.008 10.187C5.051 10.597 5.195 10.945 5.449 11.266C5.512 11.344 5.664 11.492 5.746 11.559C6 11.762 6.301 11.899 6.617 11.961C6.801 12 6.734 11.996 7.941 12C9.094 12 9.145 12 9.301 11.977C9.73173 11.9115 10.1293 11.707 10.4331 11.3947C10.7369 11.0824 10.9303 10.6794 10.984 10.247C10.996 10.172 10.996 10.067 10.996 7.99703C10.996 5.94103 10.996 5.81703 10.984 5.74703C10.9263 5.29429 10.7154 4.87494 10.3863 4.55874C10.0571 4.24253 9.62969 4.04854 9.175 4.00903C9.094 4.00003 8.445 4.00003 8.41 4.00803Z" fill="#202020"/>
</g>
<defs>
<clipPath id="clip0_2064_31658">
<rect width="12" height="12" fill="white"/>
</clipPath>
</defs>
</svg>
