<svg width="12" height="12" viewBox="0 0 12 12" fill="none" xmlns="http://www.w3.org/2000/svg">
<g clip-path="url(#clip0_2064_31658)">
<path d="M2.879 0.00402832C2.70757 0.0155489 2.53825 0.0484712 2.375 0.102028C2.12468 0.182827 1.89307 0.312939 1.69384 0.484687C1.49461 0.656436 1.3318 0.866343 1.215 1.10203C1.10029 1.32717 1.03001 1.5723 1.008 1.82403C0.999999 1.92203 0.999999 6.08203 1.008 6.17603C1.09 7.08603 1.766 7.82003 2.668 7.97303C2.828 8.00003 2.848 8.00003 4.051 7.99603C5.301 7.99603 5.211 7.99603 5.398 7.96103C5.74232 7.89017 6.06204 7.73025 6.32524 7.49723C6.58845 7.2642 6.78594 6.96622 6.898 6.63303C6.953 6.45703 6.984 6.29703 6.996 6.10503C7.004 5.96903 7.004 2.03103 6.996 1.89503C6.98953 1.78998 6.9765 1.68545 6.957 1.58203C6.87127 1.17768 6.66219 0.809901 6.3586 0.529412C6.055 0.248923 5.67185 0.0695474 5.262 0.0160283L5.172 0.00402832H2.879Z" fill="currentColor"/>
<path d="M8.855 4.01203C8.65198 4.04193 8.46313 4.13375 8.31423 4.27496C8.16532 4.41616 8.06362 4.59988 8.023 4.80103C8 4.89503 7.996 5.00403 8 5.29703C8 5.55103 8.004 5.57003 8.016 5.61703C8.0425 5.7264 8.10506 5.82366 8.19359 5.89314C8.28212 5.96262 8.39146 6.00027 8.504 6.00003C8.569 5.99985 8.63337 6.01287 8.69319 6.03831C8.75301 6.06375 8.80704 6.10108 8.852 6.14803C8.91367 6.20652 8.95797 6.28093 8.98 6.36303L8.996 6.41403L9 7.72703C9 8.60903 9 9.06203 8.996 9.10203C8.97289 9.30971 8.88625 9.50519 8.7479 9.6618C8.60955 9.8184 8.42624 9.92849 8.223 9.97703C8.109 10 8.039 10.004 7.719 10C7.402 9.99603 7.399 9.99603 7.312 9.96503C7.24015 9.93445 7.17618 9.88796 7.12491 9.82906C7.07363 9.77017 7.0364 9.7004 7.016 9.62503C7.008 9.59403 7.004 9.54303 7 9.50003C6.99739 9.38082 6.95349 9.26621 6.87581 9.17576C6.79812 9.0853 6.69145 9.02461 6.574 9.00403C6.524 9.00003 5.97 9.00003 5.894 9.00803C5.77425 9.01939 5.6578 9.05368 5.551 9.10903C5.39493 9.18579 5.26205 9.30261 5.16595 9.44757C5.06984 9.59252 5.01395 9.76039 5.004 9.93403C4.98708 10.4171 5.1451 10.8901 5.449 11.266C5.512 11.344 5.664 11.492 5.746 11.559C6 11.762 6.301 11.899 6.617 11.961C6.801 12 6.734 11.996 7.941 12C9.094 12 9.145 12 9.301 11.977C9.73173 11.9115 10.1293 11.707 10.4331 11.3947C10.7369 11.0824 10.9303 10.6794 10.984 10.247C10.996 10.172 10.996 10.067 10.996 7.99703C10.996 5.94103 10.996 5.81703 10.984 5.74703C10.9263 5.29429 10.7154 4.87494 10.3863 4.55874C10.0571 4.24253 9.62969 4.04854 9.175 4.00903C9.06847 4.00008 8.96134 4.00108 8.855 4.01203Z" fill="currentColor"/>
</g>
<defs>
<clipPath id="clip0_2064_31658">
<rect width="12" height="12" fill="white"/>
</clipPath>
</defs>
</svg>
