<svg width="12" height="12" viewBox="0 0 12 12" fill="none" xmlns="http://www.w3.org/2000/svg">
<path d="M4.27 0.00794832C3.44568 0.0488217 2.64838 0.315163 1.965 0.777948C1.24323 1.27082 0.680484 1.96309 0.345413 2.77031C0.0103425 3.57753 -0.0825723 4.46482 0.0780019 5.32395C0.257533 6.30807 0.762562 7.20332 1.512 7.86595C2.19028 8.46941 3.03602 8.85235 3.937 8.96395C4.347 9.01395 4.738 9.01095 5.148 8.95195C5.93293 8.83989 6.67411 8.5217 7.29598 8.02983C7.91786 7.53795 8.39819 6.88997 8.688 6.15195C8.99096 5.37814 9.07508 4.53588 8.93115 3.71744C8.78722 2.899 8.42078 2.13597 7.872 1.51195C7.7583 1.38809 7.63954 1.26899 7.516 1.15495C7.05633 0.739074 6.51473 0.423989 5.926 0.229948C5.39266 0.0534064 4.83101 -0.0218866 4.27 0.00794832ZM4.55 2.19495C4.55 2.29695 4.555 2.54295 4.55 2.74195V3.09795H5.086C5.379 3.09795 5.621 3.10195 5.621 3.10195C5.621 3.11295 5.504 3.53495 5.488 3.58995L5.434 3.76595L5.391 3.89795C5.36605 3.9413 5.32929 3.97668 5.285 3.99995L5.246 4.01595L4.898 4.01995H4.555V4.91795C4.555 5.79295 4.555 5.81995 4.566 5.88695C4.59 6.03495 4.629 6.06295 4.781 6.05895C4.85999 6.05221 4.93752 6.03367 5.011 6.00395C5.039 5.99595 5.121 5.95695 5.195 5.91795L5.328 5.84795L5.484 6.26995C5.566 6.49995 5.637 6.69095 5.641 6.69995C5.645 6.70695 5.641 6.70995 5.621 6.71895C5.609 6.72295 5.527 6.75795 5.441 6.79695C5.27226 6.87271 5.09546 6.92907 4.914 6.96495C4.74186 6.99926 4.56549 7.00701 4.391 6.98795C3.871 6.91795 3.574 6.61295 3.508 6.09795C3.49812 5.46 3.49545 4.82196 3.5 4.18395V2.33195L4.016 2.16795C4.296 2.07795 4.531 2.00395 4.536 2.00395C4.543 2.00395 4.545 2.02395 4.55 2.19495Z" fill="#202020"/>
<path d="M10.266 4.12895C10.2086 4.14784 10.1564 4.17994 10.1137 4.22266C10.071 4.26539 10.0389 4.31755 10.02 4.37495C10.008 4.41795 10.008 4.43395 10 4.63295C9.996 4.74595 9.988 4.85895 9.988 4.87895C9.90949 6.00328 9.48801 7.07647 8.78043 7.95375C8.07285 8.83103 7.11322 9.47017 6.031 9.78495C5.57634 9.91714 5.10637 9.98942 4.633 9.99995C4.433 10.0079 4.418 10.0079 4.375 10.0199C4.28322 10.0525 4.20574 10.1162 4.156 10.1999C4.12717 10.252 4.11496 10.3117 4.121 10.3709C4.121 10.4259 4.125 10.4339 4.148 10.4809C4.172 10.5269 4.184 10.5389 4.293 10.6519C4.69359 11.0604 5.16796 11.3892 5.691 11.6209C6.473 11.9649 7.351 12.0779 8.207 11.9449C9.36418 11.759 10.4035 11.1299 11.105 10.1909C11.891 9.14795 12.175 7.79695 11.891 6.51595C11.7448 5.86204 11.4536 5.24931 11.039 4.72295C10.9308 4.58253 10.8121 4.45048 10.684 4.32795C10.539 4.17995 10.531 4.17195 10.48 4.14795C10.43 4.12495 10.426 4.12095 10.363 4.12095C10.3304 4.11849 10.2977 4.12119 10.266 4.12895Z" fill="#202020"/>
</svg>
