<svg width="12" height="12" viewBox="0 0 12 12" fill="none" xmlns="http://www.w3.org/2000/svg">
<g clip-path="url(#clip0_2435_26848)">
<path d="M5.727 0.00394259C4.72944 0.0495554 3.75877 0.341957 2.902 0.854943C2.402 1.15594 1.906 1.56594 1.504 2.01994C0.908875 2.6917 0.472441 3.4887 0.227001 4.35194C0.113001 4.76194 0.0430012 5.15994 0.0120012 5.63194C-0.0429003 6.51063 0.0956926 7.39066 0.418001 8.20994C0.737537 9.01809 1.22906 9.74704 1.85848 10.3462C2.48789 10.9454 3.24013 11.4005 4.063 11.6799C4.94257 11.9801 5.87978 12.0723 6.80097 11.9491C7.72216 11.8259 8.60223 11.4907 9.372 10.9699C10.3163 10.3263 11.0584 9.4278 11.512 8.37894C11.8346 7.62887 11.9993 6.82043 11.996 6.00394C11.996 5.73394 11.992 5.63294 11.969 5.40994C11.8768 4.42466 11.5399 3.47801 10.989 2.65594C10.4997 1.92481 9.85517 1.31053 9.10141 0.856819C8.34765 0.40311 7.50314 0.121128 6.628 0.0309426C6.3281 0.00469144 6.02694 -0.00432339 5.726 0.00394259H5.727ZM4.727 3.59394C4.844 3.61394 4.941 3.64394 5.051 3.69894C5.176 3.76594 5.195 3.78094 5.613 4.19894L6 4.58594L6.379 4.20694L6.797 3.79694C6.922 3.69894 7.082 3.62894 7.238 3.60194C7.328 3.58194 7.523 3.58594 7.605 3.60194C7.879 3.65994 8.094 3.80894 8.246 4.03494C8.32 4.14094 8.367 4.26194 8.398 4.39494C8.414 4.47994 8.418 4.67194 8.398 4.76194C8.37882 4.85911 8.34758 4.95351 8.305 5.04294C8.235 5.17994 8.223 5.19094 7.801 5.61294L7.414 5.99994L7.801 6.38694C8.223 6.80894 8.234 6.81994 8.305 6.95694C8.344 7.03494 8.383 7.15194 8.398 7.23794C8.418 7.32794 8.414 7.51994 8.398 7.60494C8.34816 7.8476 8.21254 8.06416 8.016 8.21494C7.886 8.30894 7.766 8.36294 7.606 8.39794C7.52 8.41394 7.328 8.41794 7.238 8.39794C7.07757 8.36897 6.92638 8.30212 6.797 8.20294L6.379 7.79294L6 7.41394L5.613 7.80094C5.183 8.23094 5.176 8.23794 5.031 8.30894C4.94995 8.35159 4.86299 8.38192 4.773 8.39894C4.719 8.40994 4.691 8.40994 4.582 8.40994C4.472 8.40994 4.449 8.40994 4.395 8.39794C4.26633 8.37095 4.14408 8.31934 4.035 8.24594C3.8117 8.09828 3.656 7.86815 3.602 7.60594C3.58435 7.48391 3.58435 7.35997 3.602 7.23794C3.617 7.15194 3.656 7.03494 3.699 6.95694C3.766 6.81994 3.777 6.80894 4.199 6.38694L4.586 5.99994L4.199 5.61294C3.777 5.19094 3.766 5.17994 3.699 5.04294C3.65345 4.95437 3.62079 4.85975 3.602 4.76194C3.58444 4.64024 3.58444 4.51665 3.602 4.39494C3.668 4.08994 3.855 3.84394 4.125 3.69894C4.22891 3.64535 4.34118 3.60985 4.457 3.59394C4.523 3.58594 4.66 3.58594 4.727 3.59394Z" fill="currentColor"/>
</g>
<defs>
<clipPath id="clip0_2435_26848">
<rect width="12" height="12" fill="white"/>
</clipPath>
</defs>
</svg>
