<svg width="12" height="12" viewBox="0 0 12 12" fill="none" xmlns="http://www.w3.org/2000/svg">
<path d="M10.363 0.00797619C10.1158 0.0283817 9.87792 0.111689 9.672 0.249976C9.57933 0.311363 9.49292 0.3817 9.414 0.459976L9.383 0.495976L8.25 0.499976C7.078 0.503976 7.074 0.503976 6.844 0.526976C6.031 0.616976 5.387 0.944976 4.949 1.49198C4.641 1.87498 4.449 2.34798 4.371 2.92198C4.34 3.15198 4.34 3.13698 4.336 4.10198V4.99598H2.617L2.586 4.96498C2.38159 4.75283 2.11963 4.60507 1.83234 4.53986C1.54504 4.47466 1.24496 4.49486 0.968998 4.59798C0.718935 4.69114 0.498526 4.84983 0.330861 5.05743C0.163196 5.26504 0.0544439 5.51391 0.0159981 5.77798C0.000394422 5.9259 0.000394422 6.07505 0.0159981 6.22298C0.0563662 6.49793 0.172422 6.75623 0.351189 6.969C0.529955 7.18177 0.764384 7.34062 1.02826 7.42778C1.29214 7.51495 1.57506 7.52699 1.84539 7.46256C2.11572 7.39814 2.3628 7.25979 2.559 7.06298L2.62 6.99998H4.335V7.89798C4.339 8.87498 4.339 8.85498 4.374 9.09798C4.452 9.65998 4.644 10.125 4.94 10.5C5.382 11.055 6.03 11.383 6.843 11.473C7.073 11.496 7.077 11.496 8.249 11.5L9.378 11.504L9.44 11.563C9.57 11.691 9.722 11.793 9.878 11.863C10.106 11.9676 10.3567 12.0131 10.6069 11.9953C10.8571 11.9775 11.0988 11.897 11.3098 11.7612C11.5207 11.6254 11.694 11.4387 11.8138 11.2183C11.9335 10.9979 11.9959 10.7508 11.995 10.5C11.995 10.36 11.987 10.285 11.96 10.164C11.9125 9.9551 11.8207 9.75887 11.6908 9.58854C11.5609 9.41822 11.396 9.27777 11.2071 9.1767C11.0182 9.07564 10.8099 9.0163 10.5961 9.00272C10.3823 8.98914 10.1681 9.02162 9.968 9.09798C9.772 9.16798 9.538 9.32398 9.413 9.46098L9.382 9.49598H8.285C7.57 9.49598 7.165 9.49598 7.121 9.49198C6.848 9.46898 6.656 9.40198 6.547 9.30098C6.445 9.20298 6.387 9.04698 6.347 8.78098C6.34 8.72298 6.336 8.61698 6.336 7.85898L6.332 6.99998H9.379L9.441 7.06298C9.63749 7.25681 9.88332 7.39313 10.1518 7.45712C10.4203 7.52111 10.7012 7.51034 10.964 7.42598C11.265 7.32833 11.5273 7.13762 11.7129 6.88133C11.8986 6.62505 11.998 6.31644 11.997 5.99998C11.997 5.85998 11.989 5.78498 11.962 5.66398C11.9145 5.45511 11.8227 5.25887 11.6928 5.08854C11.5629 4.91822 11.398 4.77777 11.2091 4.6767C11.0202 4.57564 10.8119 4.5163 10.5981 4.50272C10.3843 4.48914 10.1701 4.52162 9.97 4.59798C9.774 4.66798 9.54 4.82398 9.415 4.96098L9.384 4.99598H6.332L6.336 4.14098C6.336 3.37098 6.34 3.27698 6.348 3.21498C6.383 2.95698 6.445 2.79698 6.547 2.69898C6.657 2.59798 6.847 2.53098 7.121 2.50798C7.164 2.50398 7.571 2.49998 8.281 2.49998H9.38L9.442 2.56298C9.63849 2.75681 9.88433 2.89313 10.1528 2.95712C10.4213 3.02111 10.7022 3.01034 10.965 2.92598C11.2658 2.82816 11.5278 2.63737 11.7133 2.3811C11.8988 2.12483 11.9981 1.81631 11.997 1.49998C11.997 1.35998 11.989 1.28498 11.962 1.16398C11.852 0.667976 11.482 0.253976 11.001 0.0859762C10.8503 0.0328446 10.6918 0.00513362 10.532 0.00397619C10.466 -2.381e-05 10.392 0.00397619 10.364 0.00797619H10.363Z" fill="#202020"/>
</svg>
