<svg width="12" height="12" viewBox="0 0 12 12" fill="none" xmlns="http://www.w3.org/2000/svg">
<path d="M1.86 0.00402832C1.452 0.0390283 1.11 0.168028 0.791999 0.402028C0.574619 0.56666 0.3932 0.774005 0.258893 1.01132C0.124585 1.24864 0.0402259 1.51091 0.0109989 1.78203C-0.0010011 1.87203 -0.0010011 10.109 0.0109989 10.203C0.0579989 10.602 0.197999 10.953 0.436999 11.246C0.771999 11.668 1.245 11.926 1.8 11.988C1.897 12 10.108 12 10.202 11.988C10.6892 11.9395 11.1413 11.713 11.472 11.352C11.769 11.023 11.936 10.652 11.987 10.203C11.999 10.109 11.999 1.87103 11.987 1.78103C11.9385 1.33373 11.7407 0.915815 11.4256 0.594691C11.1104 0.273568 10.6963 0.0679594 10.25 0.0110283C10.184 0.00502832 9.945 0.00502832 6.031 0.00502832L1.86 0.00402832ZM5 6.00003H2V4.00003H5V6.00003ZM10.004 6.00003H7.004V4.00003H10.004V6.00003ZM5 10H2V7.99603H5V10ZM10.004 10H7.004V7.99603H10.004V10Z" fill="#202020"/>
</svg>
