<svg width="12" height="12" viewBox="0 0 12 12" fill="none" xmlns="http://www.w3.org/2000/svg">
<g clip-path="url(#clip0_2064_33733)">
<path d="M4.207 0.00809826C3.89944 0.0352858 3.6116 0.171054 3.395 0.391098C3.26286 0.52073 3.15901 0.676334 3.09 0.848098C3.02328 1.0276 2.99401 1.21886 3.004 1.4101C3.043 1.7031 3.262 1.9381 3.554 1.9881C3.598 1.9961 3.871 1.9961 6 1.9961C8.098 1.9961 8.402 1.9961 8.445 1.9881C8.60772 1.96022 8.75425 1.87281 8.8561 1.74287C8.95794 1.61294 9.00781 1.44977 8.996 1.2851C8.98724 0.949482 8.84849 0.630384 8.609 0.395098C8.40789 0.191384 8.14612 0.058397 7.863 0.0160983C7.805 0.00409826 7.707 0.00409826 6.031 0.00409826C5.055 9.82604e-05 4.234 0.00409826 4.207 0.00809826ZM1.836 3.0081C1.53448 3.03232 1.24242 3.12475 0.981865 3.27842C0.721314 3.43208 0.499095 3.64295 0.332001 3.8951C0.156001 4.1651 0.0620009 4.4221 0.0120009 4.7811C8.63336e-07 4.8511 -0.00399914 10.0081 0.00800086 10.1411C0.0470009 10.7311 0.336001 11.2541 0.808001 11.6051C1.113 11.8351 1.468 11.9651 1.863 11.9921C1.922 12.0001 3.148 12.0001 6.06 12.0001L10.169 11.9961L10.259 11.9841C10.5247 11.9503 10.7809 11.863 11.0119 11.7274C11.2429 11.5918 11.444 11.4107 11.603 11.1951C11.833 10.8911 11.962 10.5391 11.997 10.1451C12.005 10.0391 12.005 4.9611 11.993 4.8521C11.9601 4.3862 11.7645 3.94669 11.4404 3.61037C11.1163 3.27404 10.6844 3.06228 10.22 3.0121C10.156 3.0001 1.94 3.0001 1.836 3.0081ZM9.09 5.0041C9.27 5.0201 9.438 5.0821 9.582 5.1841C9.652 5.2341 9.766 5.3481 9.816 5.4181C9.863 5.4881 9.926 5.6091 9.949 5.6801C10.016 5.8901 10.016 6.1101 9.949 6.3201C9.926 6.3901 9.863 6.5121 9.816 6.5781C9.766 6.6521 9.652 6.7661 9.582 6.8161C9.437 6.9181 9.27 6.9761 9.09 6.9961C9.004 7.0041 3 7.0041 2.91 6.9961C2.67649 6.97553 2.45785 6.87276 2.293 6.7061C2.21688 6.63114 2.15339 6.54435 2.105 6.4491C2.03575 6.30955 1.99971 6.15588 1.99971 6.0001C1.99971 5.84431 2.03575 5.69064 2.105 5.5511C2.1533 5.45549 2.21679 5.36836 2.293 5.2931C2.45605 5.12791 2.67196 5.02527 2.903 5.0031C2.977 4.9961 9.012 4.9961 9.09 5.0031V5.0041ZM7.176 8.0161C7.3741 8.05083 7.55701 8.14484 7.70056 8.28571C7.84411 8.42658 7.94154 8.60769 7.98 8.8051C7.99407 8.86908 7.99945 8.93467 7.996 9.0001C7.996 9.1171 7.992 9.1401 7.98 9.1951C7.96 9.2851 7.937 9.3551 7.902 9.4341C7.762 9.7231 7.5 9.9221 7.176 9.9841L7.109 10.0001H5.051C3.562 10.0001 2.973 10.0001 2.918 9.9961C2.74667 9.9833 2.58162 9.92614 2.43908 9.83024C2.29653 9.73433 2.1814 9.60298 2.105 9.4491C2.03575 9.30956 1.99971 9.15588 1.99971 9.0001C1.99971 8.84431 2.03575 8.69064 2.105 8.5511C2.1533 8.45549 2.21679 8.36836 2.293 8.2931C2.45605 8.12791 2.67196 8.02527 2.903 8.0031C2.93 8.0001 3.886 8.0001 5.03 8.0001H7.11L7.176 8.0161Z" fill="#202020"/>
</g>
<defs>
<clipPath id="clip0_2064_33733">
<rect width="12" height="12" fill="white"/>
</clipPath>
</defs>
</svg>
