<svg width="12" height="12" viewBox="0 0 12 12" fill="none" xmlns="http://www.w3.org/2000/svg">
<path d="M1.86 0.00390625C1.452 0.0389063 1.11 0.167906 0.791999 0.401906C0.574619 0.566538 0.3932 0.773883 0.258893 1.0112C0.124585 1.24852 0.0402259 1.51079 0.0109989 1.78191C-0.0010011 1.87191 -0.0010011 10.1089 0.0109989 10.2029C0.0579989 10.6019 0.197999 10.9529 0.436999 11.2459C0.771999 11.6679 1.245 11.9259 1.8 11.9879C1.897 11.9999 10.108 11.9999 10.202 11.9879C10.6892 11.9393 11.1413 11.7129 11.472 11.3519C11.769 11.0229 11.936 10.6519 11.987 10.2029C11.999 10.1089 11.999 1.87091 11.987 1.78091C11.9385 1.33361 11.7407 0.915692 11.4256 0.594569C11.1104 0.273446 10.6963 0.0678374 10.25 0.0109062C10.184 0.00490625 9.945 0.00490625 6.031 0.00490625L1.86 0.00390625ZM5 5.99991H2V3.99991H5V5.99991ZM10.004 5.99991H7.004V3.99991H10.004V5.99991ZM5 9.99991H2V7.99591H5V9.99991ZM10.004 9.99991H7.004V7.99591H10.004V9.99991Z" fill="currentColor"/>
</svg>
