<svg width="12" height="12" viewBox="0 0 12 12" fill="none" xmlns="http://www.w3.org/2000/svg">
<g clip-path="url(#clip0_2064_34582)">
<path d="M4.988 0.00806069C4.75068 0.0430405 4.53273 0.158905 4.371 0.336061C4.29 0.434061 4.258 0.484061 4 1.00006C3.90885 1.19105 3.81113 1.37883 3.707 1.56306C3.648 1.65306 3.531 1.77006 3.441 1.82806C3.33078 1.90137 3.20757 1.95296 3.078 1.98006C3.023 1.99206 3.012 1.99606 2.461 1.99606C1.973 2.00006 1.895 2.00406 1.848 2.01206C1.60776 2.04926 1.38939 2.17295 1.23396 2.35987C1.07853 2.5468 0.996748 2.78407 1.004 3.02706C1.00288 3.15266 1.02952 3.27695 1.082 3.39106C1.132 3.51606 1.192 3.60106 1.297 3.70706C1.355 3.76206 1.391 3.79306 1.441 3.82806C1.594 3.92606 1.75 3.98006 1.93 3.99606C2.027 4.00406 9.973 4.00406 10.07 3.99606C10.2324 3.98557 10.3898 3.93518 10.5281 3.84936C10.6664 3.76354 10.7815 3.64494 10.863 3.50406C10.9397 3.37114 10.9849 3.22239 10.9951 3.06926C11.0052 2.91613 10.9801 2.76271 10.9217 2.62081C10.8632 2.47891 10.773 2.35231 10.658 2.25076C10.5429 2.14921 10.4061 2.07541 10.258 2.03506C10.133 2.00006 10.141 2.00406 9.539 1.99606C8.989 1.99606 8.977 1.99206 8.922 1.98006C8.7914 1.95228 8.667 1.90076 8.555 1.82806C8.45439 1.75353 8.366 1.66379 8.293 1.56206C8.18936 1.37926 8.09165 1.19316 8 1.00406C7.863 0.730061 7.738 0.484061 7.719 0.454061C7.63949 0.333004 7.53482 0.230504 7.41213 0.15354C7.28943 0.0765769 7.1516 0.0269573 7.008 0.00806069C6.33472 -0.00366346 5.66128 -0.00366346 4.988 0.00806069ZM3.188 5.00406C2.778 5.03506 2.422 5.32406 2.305 5.72306C2.27809 5.81385 2.26626 5.90844 2.27 6.00306C2.27 6.11306 2.273 6.13306 2.285 6.19506C2.335 6.42506 3.32 10.5431 3.344 10.6091C3.422 10.8481 3.539 11.0701 3.699 11.2661C3.75 11.3281 3.879 11.4611 3.941 11.5121C4.219 11.7501 4.559 11.9141 4.906 11.9691C5.074 11.9961 5.051 11.9961 6.004 11.9961C6.844 11.9961 6.91 11.9961 6.988 11.9881C7.49289 11.9237 7.9555 11.673 8.285 11.2851C8.41 11.1331 8.515 10.9651 8.594 10.7851C8.66 10.6291 8.664 10.6131 9.191 8.39806C9.469 7.22706 9.703 6.23406 9.715 6.19906C9.73 6.11306 9.738 5.96906 9.727 5.88706C9.70255 5.65752 9.59728 5.44414 9.43 5.28506C9.26235 5.11617 9.03768 5.01596 8.8 5.00406C8.71 4.99606 3.278 4.99606 3.188 5.00406Z" fill="#202020"/>
</g>
<defs>
<clipPath id="clip0_2064_34582">
<rect width="12" height="12" fill="white"/>
</clipPath>
</defs>
</svg>
