<svg width="12" height="12" viewBox="0 0 12 12" fill="none" xmlns="http://www.w3.org/2000/svg">
<g clip-path="url(#clip0_2435_28939)">
<path d="M7.055 1.00791C6.735 1.02791 6.406 1.08991 6.141 1.17991C5.81879 1.28224 5.5207 1.44889 5.26477 1.66976C5.00883 1.89063 4.80037 2.16114 4.652 2.46491C4.50035 2.78084 4.40396 3.12042 4.367 3.46891C4.359 3.52291 4.352 3.59791 4.347 3.63291C4.344 3.67991 4.34 3.96491 4.336 4.59791L4.332 5.49991H2.914L2.894 5.44091C2.81379 5.24335 2.69266 5.06502 2.53857 4.91766C2.38448 4.77029 2.20093 4.65723 2 4.58591C1.66557 4.46882 1.30061 4.47306 0.968998 4.59791C0.718935 4.69107 0.498526 4.84976 0.330861 5.05736C0.163196 5.26497 0.0544439 5.51384 0.0159981 5.77791C0.000394422 5.92583 0.000394422 6.07498 0.0159981 6.22291C0.0748736 6.61355 0.285484 6.96521 0.602094 7.20149C0.918703 7.43778 1.31575 7.53962 1.707 7.48491C1.7483 7.47709 1.7907 7.47709 1.832 7.48491C1.887 7.49591 1.961 7.49591 3.113 7.49991H4.336V8.34391C4.336 9.17991 4.336 9.26991 4.356 9.45391C4.43 10.1869 4.696 10.7849 5.145 11.2229C5.563 11.6329 6.113 11.8829 6.797 11.9689C7.035 11.9959 6.926 11.9959 9.055 11.9999C10.477 11.9999 11.047 11.9999 11.094 11.9919C11.3297 11.9708 11.5498 11.8653 11.714 11.6949C11.7876 11.6223 11.8484 11.5377 11.894 11.4449C12.039 11.1559 12.031 10.8089 11.883 10.5269C11.8116 10.3978 11.7132 10.2857 11.5944 10.1982C11.4757 10.1107 11.3394 10.0499 11.195 10.0199L11.137 10.0039L9.145 9.99991C7.34 9.99991 7.145 9.99591 7.075 9.98791C6.852 9.96091 6.711 9.91791 6.602 9.84391C6.469 9.74991 6.387 9.57391 6.348 9.28491C6.34 9.22291 6.336 9.11691 6.336 8.35491L6.332 7.49991H8.692C10.32 7.49991 11.062 7.49991 11.102 7.49191C11.285 7.47191 11.461 7.40591 11.605 7.29691C11.687 7.23391 11.789 7.12091 11.844 7.03491C12.035 6.73491 12.051 6.33991 11.883 6.02691C11.8121 5.89746 11.7138 5.78503 11.595 5.69746C11.4761 5.6099 11.3396 5.54931 11.195 5.51991L11.137 5.50391H8.734L6.336 5.49991V4.69491C6.336 4.20691 6.336 3.85491 6.34 3.81191C6.355 3.58991 6.402 3.41791 6.473 3.29691C6.566 3.14091 6.734 3.05891 7.055 3.01191C7.121 3.00391 7.289 3.00391 9.125 2.99991C11.289 2.99591 11.133 2.99991 11.25 2.96891C11.34 2.94491 11.46 2.89491 11.535 2.84391C11.652 2.76991 11.773 2.64791 11.844 2.53491C12.035 2.23491 12.051 1.83991 11.883 1.52691C11.8116 1.39783 11.7132 1.28571 11.5944 1.1982C11.4757 1.11069 11.3394 1.04988 11.195 1.01991L11.137 1.00391H9.137C8.035 1.00391 7.097 1.00391 7.055 1.00791Z" fill="currentColor"/>
</g>
<defs>
<clipPath id="clip0_2435_28939">
<rect width="12" height="12" fill="white"/>
</clipPath>
</defs>
</svg>
