<svg width="12" height="12" viewBox="0 0 12 12" fill="none" xmlns="http://www.w3.org/2000/svg">
<path d="M5.863 0.00809826C5.61579 0.0285037 5.37792 0.111811 5.172 0.250098C4.99645 0.365382 4.84726 0.516475 4.7342 0.693467C4.62115 0.870458 4.54679 1.06935 4.516 1.2771C4.508 1.3471 4.504 1.3871 4.504 1.5001C4.504 1.6131 4.508 1.6521 4.516 1.7231C4.59013 2.11363 4.81636 2.45872 5.14492 2.68245C5.47348 2.90618 5.87747 2.99023 6.268 2.9161C6.65853 2.84197 7.00362 2.61574 7.22735 2.28718C7.45108 1.95861 7.53513 1.55463 7.461 1.1641C7.35 0.668098 6.98 0.254098 6.5 0.0860983C6.34929 0.0329667 6.19079 0.00525569 6.031 0.00409826C5.965 9.82604e-05 5.891 0.00409826 5.863 0.00809826ZM5.863 4.5081C5.61579 4.5285 5.37792 4.61181 5.172 4.7501C4.99645 4.86538 4.84726 5.01648 4.7342 5.19347C4.62115 5.37046 4.54679 5.56935 4.516 5.7771C4.508 5.8471 4.504 5.8871 4.504 6.0001C4.504 6.1131 4.508 6.1521 4.516 6.2231C4.5527 6.41647 4.62713 6.60072 4.73504 6.76532C4.84296 6.92993 4.98223 7.07167 5.14492 7.18245C5.30761 7.29323 5.49052 7.37088 5.68322 7.41097C5.87592 7.45106 6.07463 7.4528 6.268 7.4161C6.46137 7.37939 6.64562 7.30496 6.81022 7.19705C6.97483 7.08914 7.11657 6.94986 7.22735 6.78718C7.33813 6.62449 7.41578 6.44157 7.45587 6.24888C7.49596 6.05618 7.4977 5.85747 7.461 5.6641C7.351 5.1681 6.981 4.7541 6.5 4.5861C6.34929 4.53297 6.19079 4.50526 6.031 4.5041C5.965 4.5001 5.891 4.5041 5.863 4.5081ZM5.863 9.0081C5.61579 9.0285 5.37792 9.11181 5.172 9.2501C4.99645 9.36538 4.84726 9.51647 4.7342 9.69347C4.62115 9.87046 4.54679 10.0694 4.516 10.2771C4.508 10.3471 4.504 10.3871 4.504 10.5001C4.504 10.6131 4.508 10.6521 4.516 10.7231C4.5527 10.9165 4.62713 11.1007 4.73504 11.2653C4.84296 11.4299 4.98223 11.5717 5.14492 11.6824C5.30761 11.7932 5.49052 11.8709 5.68322 11.911C5.87592 11.9511 6.07463 11.9528 6.268 11.9161C6.46137 11.8794 6.64562 11.805 6.81022 11.6971C6.97483 11.5891 7.11657 11.4499 7.22735 11.2872C7.33813 11.1245 7.41578 10.9416 7.45587 10.7489C7.49596 10.5562 7.4977 10.3575 7.461 10.1641C7.351 9.6681 6.981 9.2541 6.5 9.0861C6.34929 9.03297 6.19079 9.00526 6.031 9.0041C5.965 9.0001 5.891 9.0041 5.863 9.0081Z" fill="currentColor"/>
</svg>
