<svg width="12" height="12" viewBox="0 0 12 12" fill="none" xmlns="http://www.w3.org/2000/svg">
<g clip-path="url(#clip0_2435_29979)">
<path d="M9.398 0.718901C9.35171 0.728738 9.30719 0.7456 9.266 0.768901C9.20373 0.800872 9.14891 0.845638 9.10514 0.900266C9.06136 0.954895 9.02963 1.01815 9.012 1.0859C9.004 1.1169 9.004 1.1639 9 1.5589V1.9959L8.79 2.0039C8.19754 2.0165 7.61524 2.16035 7.08507 2.42509C6.5549 2.68983 6.09004 3.06887 5.724 3.5349L5.704 3.5589L5.648 3.4889C5.00457 2.69248 4.08069 2.17257 3.066 2.0359C2.813 2.0039 2.813 2.0039 1.875 1.9999C0.996001 1.9959 0.910001 1.9999 0.809001 2.0199C0.659528 2.04874 0.518677 2.11153 0.39731 2.20342C0.275944 2.29531 0.177305 2.41385 0.109001 2.5499C0.0374973 2.68913 0.000200204 2.84339 0.000200204 2.9999C0.000200204 3.15641 0.0374973 3.31068 0.109001 3.4499C0.242001 3.7149 0.492001 3.9099 0.785001 3.9769C0.883001 3.9969 0.887001 3.9969 1.816 3.9999C2.715 4.0039 2.734 4.0079 2.812 4.0199C3.047 4.0549 3.238 4.1129 3.43 4.2099C3.633 4.3129 3.785 4.4219 3.945 4.5859C4.102 4.7379 4.207 4.8789 4.305 5.0659C4.34 5.1359 4.613 5.7229 4.613 5.7339C4.613 5.7419 4.332 6.3749 4.297 6.4449C4.13664 6.75001 3.90297 7.01048 3.617 7.2029C3.35361 7.37863 3.05243 7.48964 2.738 7.5269C2.672 7.5349 2.551 7.5389 1.766 7.5389L0.871001 7.5429L0.809001 7.5589C0.629804 7.59318 0.463431 7.67592 0.327968 7.79814C0.192506 7.92035 0.0931368 8.07736 0.040664 8.2521C-0.0118088 8.42684 -0.0153778 8.61261 0.0303449 8.78924C0.0760676 8.96586 0.169332 9.12657 0.300001 9.2539C0.468001 9.4139 0.670001 9.5079 0.901001 9.5309C0.976001 9.5389 2.558 9.5389 2.702 9.5309C3.29669 9.50417 3.87773 9.34387 4.402 9.0619C4.878 8.8089 5.331 8.4259 5.659 8.0039C5.69 7.9639 5.718 7.9339 5.718 7.9339C6.29179 8.70106 7.12232 9.23629 8.058 9.4419C8.338 9.5039 8.644 9.5389 8.925 9.5389H9V9.9529C9 10.4059 9 10.4259 9.031 10.5119C9.06271 10.5885 9.1123 10.6565 9.17562 10.7101C9.23894 10.7637 9.31416 10.8013 9.395 10.8199C9.4672 10.8315 9.5408 10.8315 9.613 10.8199C9.66985 10.8056 9.72392 10.782 9.773 10.7499C9.809 10.7269 10.012 10.5269 10.734 9.8049C11.242 9.2969 11.668 8.8669 11.688 8.8439C11.7518 8.76035 11.7878 8.65898 11.7913 8.55394C11.7947 8.4489 11.7652 8.34541 11.707 8.2579C11.0769 7.61733 10.4429 6.98065 9.805 6.3479C9.73579 6.29567 9.65422 6.2623 9.56825 6.25105C9.48228 6.23979 9.39486 6.25104 9.31454 6.28369C9.23422 6.31635 9.16375 6.36928 9.11002 6.43733C9.05629 6.50537 9.02114 6.5862 9.008 6.6719C9.004 6.6949 9 6.8819 9 7.1249V7.5389H8.953C8.57791 7.54352 8.20907 7.44265 7.88852 7.24781C7.56797 7.05297 7.30861 6.77199 7.14 6.4369C7.07771 6.30617 7.0167 6.17483 6.957 6.0429L6.809 5.7189L6.945 5.4139C7.09 5.0899 7.125 5.0199 7.211 4.8909C7.3661 4.65551 7.56975 4.45602 7.80828 4.30579C8.04681 4.15557 8.31471 4.05809 8.594 4.0199C8.656 4.0079 8.714 4.0079 8.836 4.0039L9 3.9999V4.4379C9.004 4.8319 9.004 4.8829 9.012 4.9139C9.03044 4.98371 9.06364 5.04876 9.10935 5.10465C9.15507 5.16054 9.21223 5.20598 9.277 5.2379C9.34572 5.2776 9.42491 5.29539 9.504 5.2889C9.55026 5.29197 9.59669 5.28655 9.641 5.2729C9.69358 5.25535 9.74341 5.23043 9.789 5.1989C9.832 5.1679 11.679 3.3159 11.707 3.2809C11.7629 3.19766 11.7927 3.09966 11.7927 2.9994C11.7927 2.89914 11.7629 2.80114 11.707 2.7179C11.0726 2.07436 10.4332 1.43568 9.789 0.801901C9.74385 0.769623 9.69391 0.744651 9.641 0.727901C9.5613 0.709405 9.47875 0.706687 9.398 0.719901V0.718901Z" fill="currentColor"/>
</g>
<defs>
<clipPath id="clip0_2435_29979">
<rect width="12" height="12" fill="white"/>
</clipPath>
</defs>
</svg>
