<svg width="12" height="12" viewBox="0 0 12 12" fill="none" xmlns="http://www.w3.org/2000/svg">
<g clip-path="url(#clip0_2064_35243)">
<path d="M5.39 0.00805734C5.246 0.0230573 5.086 0.0780573 4.965 0.156057C4.879 0.211057 4.765 0.313057 4.703 0.395057C4.593 0.539057 4.527 0.715057 4.508 0.898057C4.5 0.938057 4.5 1.58606 4.5 2.97706V4.99706H3.957C3.395 4.99706 3.309 5.00006 3.203 5.02006C3.03523 5.05682 2.87973 5.13608 2.75142 5.25024C2.6231 5.3644 2.52629 5.50963 2.47026 5.67198C2.41424 5.83433 2.40088 6.00836 2.43148 6.17736C2.46208 6.34636 2.53561 6.50466 2.645 6.63706C2.711 6.71506 5.355 9.35206 5.398 9.38706C5.56884 9.51385 5.77547 9.58322 5.98821 9.5852C6.20095 9.58717 6.40884 9.52165 6.582 9.39806C6.629 9.36806 6.852 9.14806 7.977 8.02306C8.715 7.28506 9.336 6.66406 9.355 6.63706C9.46497 6.50587 9.53905 6.34842 9.57 6.18006C9.59 6.09006 9.586 5.91006 9.57 5.82006C9.5346 5.62526 9.44229 5.44531 9.30472 5.30293C9.16714 5.16055 8.99047 5.06212 8.797 5.02006C8.691 5.00006 8.605 4.99606 8.043 4.99606H7.5V2.97606C7.5 1.58206 7.5 0.938057 7.492 0.898057C7.47089 0.66439 7.3653 0.446441 7.195 0.285057C7.03539 0.126811 6.82579 0.0289006 6.602 0.00805734C6.19837 0.000243909 5.79363 0.000243909 5.39 0.00805734ZM1.852 10.0121C1.66349 10.0408 1.48715 10.123 1.34383 10.2488C1.20051 10.3746 1.09619 10.5388 1.04319 10.722C0.990188 10.9051 0.990726 11.0997 1.04474 11.2826C1.09875 11.4654 1.20398 11.6291 1.348 11.7541C1.508 11.8941 1.688 11.9691 1.898 11.9921C1.98 12.0041 10.02 12.0041 10.102 11.9921C10.2428 11.9784 10.379 11.9347 10.5014 11.864C10.6239 11.7933 10.7298 11.6971 10.812 11.5821C10.984 11.3401 11.039 11.0351 10.965 10.7421C10.92 10.5723 10.8309 10.4175 10.7068 10.2933C10.5826 10.1691 10.4278 10.08 10.258 10.0351C10.125 10.0001 10.465 10.0001 5.992 10.0041C2.5 10.0041 1.898 10.0041 1.852 10.0121Z" fill="#202020"/>
</g>
<defs>
<clipPath id="clip0_2064_35243">
<rect width="12" height="12" fill="white"/>
</clipPath>
</defs>
</svg>
