<svg width="12" height="12" viewBox="0 0 12 12" fill="none" xmlns="http://www.w3.org/2000/svg">
<path d="M3.36 0.00804758C3.07544 0.0346398 2.80427 0.141444 2.578 0.316048C2.26575 0.560741 2.06241 0.918555 2.012 1.31205C1.98243 1.5379 2.0055 1.76753 2.0794 1.98299C2.1533 2.19845 2.27603 2.39389 2.438 2.55405C2.484 2.60205 2.543 2.65605 2.566 2.67205C3.082 3.07805 3.796 3.10905 4.336 2.74605C4.559 2.59405 4.723 2.40605 4.844 2.16405C5.00524 1.83717 5.04221 1.46284 4.94802 1.11074C4.85384 0.75864 4.63491 0.452762 4.332 0.250048C4.14448 0.124938 3.93058 0.0448541 3.707 0.0160476C3.59143 0.00364806 3.47602 0.000971993 3.36 0.00804758ZM8.363 0.00404758C8.0282 0.0356632 7.71362 0.178505 7.46948 0.409781C7.22533 0.641057 7.06568 0.947441 7.016 1.28005C7 1.37805 7 1.62005 7.016 1.71405C7.06302 2.03611 7.21317 2.33426 7.44395 2.56377C7.67472 2.79329 7.97369 2.9418 8.296 2.98705C8.386 2.99905 8.613 2.99905 8.703 2.98705C8.867 2.96005 9.012 2.91705 9.148 2.85105C9.29327 2.78313 9.42558 2.6904 9.539 2.57705C9.723 2.40105 9.852 2.19805 9.926 1.96005C10.008 1.71005 10.02 1.42905 9.965 1.17005C9.91586 0.952928 9.81878 0.749547 9.68088 0.574792C9.54298 0.400037 9.36774 0.258331 9.168 0.160048C9.02897 0.0868199 8.87849 0.0377866 8.723 0.0150476C8.60338 0.00334444 8.48314 -0.00066381 8.363 0.00304758V0.00404758ZM3.36 4.50805C3.07544 4.53464 2.80427 4.64144 2.578 4.81605C2.26575 5.06074 2.06241 5.41856 2.012 5.81205C1.98243 6.0379 2.0055 6.26753 2.0794 6.48299C2.1533 6.69845 2.27603 6.89389 2.438 7.05405C2.484 7.10205 2.543 7.15605 2.566 7.17205C3.082 7.57805 3.796 7.60905 4.336 7.24605C4.559 7.09405 4.723 6.90605 4.844 6.66405C5.00524 6.33717 5.04221 5.96284 4.94802 5.61074C4.85384 5.25864 4.63491 4.95276 4.332 4.75005C4.14448 4.62494 3.93058 4.54485 3.707 4.51605C3.59143 4.50365 3.47602 4.50097 3.36 4.50805ZM8.363 4.50405C8.0282 4.53566 7.71362 4.6785 7.46948 4.90978C7.22533 5.14106 7.06568 5.44744 7.016 5.78005C7 5.87805 7 6.12005 7.016 6.21405C7.06302 6.53611 7.21317 6.83426 7.44395 7.06377C7.67472 7.29329 7.97369 7.4418 8.296 7.48705C8.386 7.49905 8.613 7.49905 8.703 7.48705C8.867 7.46005 9.012 7.41705 9.148 7.35105C9.29327 7.28313 9.42558 7.1904 9.539 7.07705C9.723 6.90105 9.852 6.69805 9.926 6.46005C10.008 6.21005 10.02 5.92905 9.965 5.67005C9.91586 5.45293 9.81878 5.24955 9.68088 5.07479C9.54298 4.90004 9.36774 4.75833 9.168 4.66005C9.02897 4.58682 8.87849 4.53779 8.723 4.51505C8.60338 4.50334 8.48314 4.49934 8.363 4.50305V4.50405ZM3.36 9.00805C3.07544 9.03464 2.80427 9.14144 2.578 9.31605C2.26575 9.56074 2.06241 9.91856 2.012 10.312C1.98243 10.5379 2.0055 10.7675 2.0794 10.983C2.1533 11.1984 2.27603 11.3939 2.438 11.554C2.484 11.602 2.543 11.656 2.566 11.672C3.082 12.078 3.796 12.109 4.336 11.746C4.559 11.594 4.723 11.406 4.844 11.164C5.00524 10.8372 5.04221 10.4628 4.94802 10.1107C4.85384 9.75864 4.63491 9.45276 4.332 9.25005C4.14448 9.12494 3.93058 9.04485 3.707 9.01605C3.59143 9.00365 3.47602 9.00097 3.36 9.00805ZM8.363 9.00405C8.02805 9.03571 7.71337 9.1787 7.4692 9.41017C7.22504 9.64165 7.06548 9.94826 7.016 10.281C7 10.379 7 10.621 7.016 10.715C7.06302 11.0371 7.21317 11.3353 7.44395 11.5648C7.67472 11.7943 7.97369 11.9428 8.296 11.988C8.386 12 8.613 12 8.703 11.988C8.867 11.961 9.012 11.918 9.148 11.852C9.29327 11.7841 9.42558 11.6914 9.539 11.578C9.723 11.402 9.852 11.199 9.926 10.961C10.008 10.711 10.02 10.43 9.965 10.171C9.91586 9.95393 9.81878 9.75055 9.68088 9.57579C9.54298 9.40104 9.36774 9.25933 9.168 9.16105C9.02897 9.08782 8.87849 9.03879 8.723 9.01605C8.60338 9.00434 8.48314 9.00034 8.363 9.00405Z" fill="#202020"/>
</svg>
