<svg width="12" height="12" viewBox="0 0 12 12" fill="none" xmlns="http://www.w3.org/2000/svg">
<path d="M4.152 0.938C3.141 1.949 3.184 1.906 3.113 2.043C3.03407 2.19461 2.99557 2.36401 3.00122 2.53484C3.00686 2.70566 3.05646 2.87215 3.14523 3.01822C3.23399 3.16428 3.35892 3.28499 3.50795 3.36868C3.65698 3.45238 3.82508 3.49623 3.996 3.496C4.106 3.496 4.133 3.492 4.188 3.48C4.348 3.45 4.504 3.375 4.625 3.281L5.328 2.586L6 1.914L6.68 2.594C7.434 3.344 7.402 3.316 7.555 3.391C7.65156 3.44364 7.75761 3.47661 7.867 3.488C7.953 3.504 8.109 3.496 8.195 3.48C8.40737 3.43534 8.60021 3.32475 8.746 3.164C8.88087 3.01372 8.96657 2.8258 8.99159 2.62543C9.01661 2.42506 8.97977 2.22183 8.886 2.043C8.816 1.906 8.859 1.949 7.848 0.937L6.91 0H5.09L4.152 0.938ZM2.918 5.004C2.72368 5.01953 2.53822 5.09191 2.38476 5.21212C2.2313 5.33233 2.11661 5.49505 2.055 5.68C2.00535 5.82455 1.98968 5.9786 2.00918 6.13018C2.02869 6.28177 2.08285 6.42683 2.16748 6.5541C2.2521 6.68138 2.36491 6.78745 2.49714 6.86408C2.62938 6.94071 2.7775 6.98585 2.93 6.996C3.04 7.004 8.96 7.004 9.07 6.996C9.27 6.98 9.445 6.914 9.602 6.801C9.81251 6.63991 9.95125 6.40252 9.98829 6.14004C10.0253 5.87757 9.95771 5.61106 9.8 5.398C9.71346 5.28406 9.60355 5.18995 9.47764 5.12199C9.35173 5.05404 9.21274 5.01381 9.07 5.004C7.01901 4.99619 4.96899 4.99619 2.918 5.004ZM3.875 8.508C3.63543 8.53953 3.4151 8.6559 3.254 8.836C3.11912 8.98628 3.03343 9.1742 3.00841 9.37457C2.98338 9.57494 3.02023 9.77817 3.114 9.957C3.184 10.094 3.141 10.047 4.152 11.062L5.09 12H6.91L7.848 11.062C8.859 10.047 8.816 10.094 8.887 9.957C8.9676 9.80303 9.00655 9.63067 9 9.457C8.9898 9.23333 8.90498 9.01952 8.75907 8.84969C8.61316 8.67986 8.41458 8.56379 8.195 8.52C7.97754 8.48042 7.75311 8.51198 7.555 8.61C7.402 8.684 7.434 8.656 6.68 9.406L6 10.086L5.328 9.414L4.625 8.719C4.49717 8.62062 4.34884 8.55226 4.191 8.519C4.08639 8.50375 3.98042 8.50006 3.875 8.508Z" fill="#202020"/>
</svg>
