<svg width="12" height="12" viewBox="0 0 12 12" fill="none" xmlns="http://www.w3.org/2000/svg">
<path d="M3.52 3.50405C3.2112 3.5245 2.92121 3.65969 2.707 3.88305C2.574 4.02005 2.48 4.17205 2.422 4.35205C2.36346 4.52359 2.34324 4.70588 2.36277 4.88609C2.38229 5.06629 2.44108 5.24002 2.535 5.39505C2.613 5.52305 2.59 5.50405 3.863 6.77705C4.527 7.44105 5.102 8.01605 5.141 8.05105C5.344 8.23805 5.559 8.34405 5.824 8.38305C5.918 8.39505 6.09 8.39505 6.18 8.38305C6.348 8.35505 6.504 8.30105 6.637 8.21905C6.781 8.13305 6.734 8.17605 8.074 6.83905C9.27 5.64105 9.371 5.54305 9.434 5.44905C9.57912 5.23183 9.65296 4.9748 9.64526 4.71368C9.63755 4.45256 9.54868 4.20033 9.391 3.99205C9.30495 3.88273 9.20199 3.78787 9.086 3.71105C8.90274 3.58772 8.68956 3.5162 8.469 3.50405C8.363 3.49605 3.622 3.49605 3.52 3.50405Z" fill="currentColor"/>
</svg>
