<svg width="12" height="12" viewBox="0 0 12 12" fill="none" xmlns="http://www.w3.org/2000/svg">
<path d="M8.902 0.308955C8.40373 0.324945 7.93028 0.530204 7.578 0.882955C7.488 0.964955 6.734 1.69496 6.688 1.74296L6.656 1.77296L6.688 1.85496C6.891 2.37095 7.238 2.92496 7.699 3.46096C7.945 3.74996 8.269 4.06596 8.555 4.31296C9.082 4.76596 9.641 5.11296 10.148 5.31296L10.227 5.34296L10.262 5.30896C10.301 5.26595 11.027 4.51595 11.122 4.42196C11.344 4.18796 11.5 3.93396 11.594 3.63696C11.6976 3.31705 11.719 2.97618 11.6561 2.64585C11.5931 2.31551 11.448 2.00636 11.234 1.74696C11.168 1.66796 10.344 0.839955 10.258 0.769955C9.9685 0.530405 9.61814 0.375996 9.246 0.323955C9.15122 0.31445 9.05618 0.307781 8.961 0.303955C8.949 0.303955 8.926 0.308955 8.902 0.308955ZM3.54 4.79696C2.25 6.04296 1.168 7.09696 1.137 7.13296C0.898378 7.39519 0.733757 7.71615 0.660002 8.06295C0.652002 8.10195 0.550002 8.70296 0.434002 9.39795L0.219002 10.668V10.785C0.219612 11.0316 0.311325 11.2693 0.476524 11.4524C0.641722 11.6355 0.868754 11.7511 1.114 11.777C1.246 11.793 1.223 11.797 2.602 11.567L3.938 11.34C4.281 11.266 4.598 11.105 4.868 10.863C4.91 10.828 9.468 6.12896 9.473 6.11696C9.473 6.11696 9.43 6.08996 9.371 6.06296C9.01143 5.87977 8.66789 5.66668 8.344 5.42596C7.332 4.67196 6.44 3.63596 5.945 2.63996C5.915 2.57696 5.883 2.52196 5.883 2.52196L3.54 4.79696Z" fill="#202020"/>
</svg>
