<svg width="12" height="12" viewBox="0 0 12 12" fill="none" xmlns="http://www.w3.org/2000/svg">
<g clip-path="url(#clip0_2064_36653)">
<path d="M2.855 4.01202C2.74414 4.02744 2.63705 4.06303 2.539 4.11702C2.406 4.18402 2.453 4.13702 1.309 5.28102C0.473004 6.11302 0.234004 6.35502 0.199004 6.40202C0.0969458 6.5401 0.0318873 6.70197 0.0100092 6.87227C-0.0118688 7.04257 0.0101603 7.21563 0.0740036 7.37502C0.199004 7.68402 0.469004 7.90602 0.809004 7.98002C0.870332 7.99375 0.933234 7.99913 0.996004 7.99602C1.22934 7.99766 1.45585 7.91732 1.636 7.76902C1.66 7.75002 2.148 7.26602 2.723 6.69102C3.453 5.96102 3.777 5.62902 3.801 5.59802C3.94501 5.40534 4.01442 5.16705 3.99641 4.92717C3.9784 4.68729 3.87418 4.46204 3.703 4.29302C3.55311 4.13813 3.35486 4.039 3.141 4.01202C3.04604 4.00022 2.94997 4.00022 2.855 4.01202ZM6.875 4.00802C6.68 4.03502 6.496 4.11802 6.348 4.24202C6.266 4.31202 4.242 6.34402 4.207 6.39102C4.11433 6.5147 4.05044 6.6575 4.02 6.80902C4.00605 6.87032 4.00067 6.93325 4.004 6.99602C4.0035 7.14579 4.03558 7.29388 4.098 7.43002C4.19306 7.63124 4.35441 7.79365 4.555 7.89002C4.6515 7.94301 4.75754 7.97632 4.867 7.98802C4.953 8.00402 5.109 7.99602 5.195 7.98002C5.367 7.94502 5.52 7.86702 5.652 7.75802C5.734 7.68802 7.758 5.65602 7.793 5.60502C7.88627 5.48319 7.95026 5.34154 7.98 5.19102C7.99373 5.12969 7.99911 5.06679 7.996 5.00402C7.99906 4.93993 7.99369 4.87571 7.98 4.81302C7.93458 4.57967 7.809 4.36955 7.625 4.21902C7.49717 4.12064 7.34884 4.05228 7.191 4.01902C7.08639 4.00377 6.98042 4.00008 6.875 4.00802ZM10.855 4.01202C10.7502 4.02716 10.6488 4.05996 10.555 4.10902C10.402 4.18402 10.469 4.12102 9.313 5.27702C8.94813 5.63748 8.58612 6.00083 8.227 6.36702C8.09184 6.53383 8.01359 6.73951 8.00369 6.95399C7.99379 7.16846 8.05277 7.38047 8.172 7.55902C8.227 7.64102 8.344 7.75802 8.426 7.81602C8.734 8.03102 9.141 8.05902 9.469 7.88302C9.598 7.81302 9.543 7.86302 10.688 6.72302C11.528 5.88702 11.766 5.64502 11.801 5.59802C11.9023 5.46295 11.9677 5.30438 11.9911 5.13716C12.0144 4.96993 11.995 4.79951 11.9345 4.64185C11.8741 4.48419 11.7746 4.34444 11.6455 4.23569C11.5163 4.12693 11.3617 4.05273 11.196 4.02002C11.0834 4.00369 10.9692 4.001 10.856 4.01202H10.855Z" fill="#202020"/>
</g>
<defs>
<clipPath id="clip0_2064_36653">
<rect width="12" height="12" fill="white"/>
</clipPath>
</defs>
</svg>
