<svg width="12" height="12" viewBox="0 0 12 12" fill="none" xmlns="http://www.w3.org/2000/svg">
<g clip-path="url(#clip0_2064_37500)">
<path d="M2.914 0.00397656C2.81761 0.0121302 2.72294 0.0343665 2.633 0.0699766C2.47424 0.136103 2.33365 0.23932 2.223 0.370977C2.203 0.394977 1.801 0.995977 1.328 1.70698L0.465 2.99998H0V6.58198C0.004 9.89098 0.004 10.168 0.012 10.234C0.078 10.695 0.258 11.074 0.566 11.391C0.914 11.75 1.352 11.953 1.859 11.992C1.965 12.004 10.035 12.004 10.145 11.992C10.4891 11.9668 10.8209 11.8538 11.109 11.664C11.289 11.543 11.465 11.375 11.598 11.199C11.8295 10.8937 11.9665 10.5273 11.992 10.145C12 10.09 12 8.94898 12 6.52998V2.99998H11.535L10.672 1.70698C10.3776 1.25809 10.078 0.812729 9.773 0.370977C9.6068 0.164566 9.36546 0.0325676 9.102 0.00397656C9.055 -2.34377e-05 2.96 -2.34377e-05 2.914 0.00397656ZM9.129 2.99598C9.129 2.99998 7.723 2.99998 6 2.99998C4.277 2.99998 2.871 2.99998 2.871 2.99598L3.535 1.99598H8.465L9.129 2.99598ZM10.004 9.99998H2V4.99598H10.004V9.99998Z" fill="#202020"/>
<path d="M3.922 6.50398C3.78871 6.5139 3.6588 6.5506 3.54002 6.61189C3.42124 6.67318 3.31605 6.75779 3.23072 6.86067C3.1454 6.96354 3.08169 7.08257 3.04343 7.21063C3.00516 7.33869 2.99311 7.47315 3.008 7.60598C3.03013 7.84286 3.13827 8.06343 3.312 8.22598C3.48 8.38298 3.695 8.47998 3.93 8.49598C4.027 8.50398 7.973 8.50398 8.07 8.49598C8.324 8.47598 8.547 8.37098 8.723 8.19098C9.012 7.88698 9.082 7.42998 8.895 7.05098C8.82684 6.91625 8.72926 6.79858 8.60948 6.70666C8.48969 6.61475 8.35077 6.55095 8.203 6.51998L8.07 6.50398C7.98 6.49598 4.008 6.49598 3.922 6.50398Z" fill="#202020"/>
</g>
<defs>
<clipPath id="clip0_2064_37500">
<rect width="12" height="12" fill="white"/>
</clipPath>
</defs>
</svg>
