<svg width="12" height="12" viewBox="0 0 12 12" fill="none" xmlns="http://www.w3.org/2000/svg">
<path d="M5.879 1.22298C5.63198 1.23711 5.38964 1.29643 5.164 1.39797C4.95939 1.49067 4.77309 1.61938 4.614 1.77797C4.477 1.90997 4.383 2.03097 4.289 2.18397C4.223 2.29698 0.555002 9.11397 0.520002 9.18997C0.298002 9.68997 0.290002 10.249 0.501002 10.757C0.603002 11.007 0.743002 11.217 0.942002 11.417C1.25834 11.7321 1.67078 11.9327 2.114 11.987C2.192 11.995 2.353 11.995 5.997 11.995C10.04 11.995 9.829 11.999 9.997 11.968C10.302 11.9155 10.5906 11.7924 10.8396 11.6085C11.0886 11.4246 11.2911 11.1851 11.431 10.909C11.541 10.694 11.611 10.472 11.641 10.226C11.6566 10.0727 11.6566 9.91824 11.641 9.76498C11.6138 9.55831 11.5561 9.3568 11.47 9.16698C11.43 9.08098 7.77 2.27697 7.704 2.17097C7.62303 2.0327 7.52305 1.90647 7.407 1.79597C7.31609 1.70468 7.21663 1.6223 7.11 1.54997C6.84988 1.37774 6.55287 1.26915 6.243 1.23298C6.173 1.22198 5.935 1.21797 5.88 1.22197L5.879 1.22298ZM6.109 3.00297C6.32639 3.02703 6.52984 3.1219 6.688 3.27297C6.86649 3.43949 6.97634 3.66667 6.996 3.90998C7.004 3.99598 7.004 6.00398 6.996 6.08998C6.97543 6.32349 6.87267 6.54213 6.706 6.70697C6.5944 6.81981 6.45748 6.90438 6.30661 6.95364C6.15575 7.00291 5.9953 7.01544 5.83861 6.99021C5.68193 6.96498 5.53353 6.9027 5.40576 6.80856C5.27799 6.71443 5.17453 6.59115 5.104 6.44898C5.04719 6.33677 5.0132 6.21441 5.004 6.08898C4.996 6.00398 4.996 3.99598 5.004 3.90998C5.024 3.71498 5.094 3.53997 5.211 3.38297C5.31636 3.24895 5.45403 3.14388 5.61109 3.07759C5.76816 3.0113 5.93948 2.98497 6.109 3.00297ZM6.089 8.00298C6.269 8.01998 6.437 8.08197 6.582 8.18297C6.652 8.23397 6.766 8.34798 6.816 8.41798C6.863 8.48798 6.926 8.60898 6.949 8.67998C7.00725 8.85683 7.01548 9.04635 6.97277 9.22759C6.93007 9.40883 6.83809 9.57473 6.707 9.70697C6.5954 9.81981 6.45848 9.90438 6.30761 9.95364C6.15674 10.0029 5.9963 10.0154 5.83961 9.99021C5.68293 9.96498 5.53453 9.9027 5.40676 9.80856C5.27899 9.71443 5.17553 9.59115 5.105 9.44898C4.98777 9.20904 4.96841 8.93293 5.051 8.67898C5.074 8.60897 5.137 8.48898 5.184 8.41798C5.2856 8.27574 5.42274 8.16265 5.58172 8.09C5.74071 8.01735 5.91597 7.98769 6.09 8.00397L6.089 8.00298Z" fill="currentColor"/>
</svg>
