<svg width="12" height="12" viewBox="0 0 12 12" fill="none" xmlns="http://www.w3.org/2000/svg">
<g clip-path="url(#clip0_2064_38066)">
<path d="M0.890001 0.00795313C0.747001 0.0229531 0.587001 0.0779531 0.466001 0.155953C0.352001 0.225953 0.230001 0.347953 0.156001 0.464953C0.0948124 0.568442 0.0489996 0.680279 0.0200005 0.796953C5.4948e-07 0.901953 5.4948e-07 0.936953 5.4948e-07 2.54295C0.00400055 4.25295 5.47618e-07 4.12895 0.0350005 4.26195C0.0799991 4.42732 0.167579 4.578 0.289001 4.69895C0.429001 4.84395 0.605001 4.93795 0.813001 4.97995L0.875001 4.99595H11.129L11.191 4.97995C11.461 4.92195 11.676 4.78095 11.824 4.56595C11.9044 4.44393 11.9601 4.30737 11.988 4.16395C11.996 4.12095 11.996 3.94895 12 2.54295C12 1.41795 12 0.952953 11.996 0.905953C11.9833 0.778944 11.946 0.655635 11.886 0.542953C11.8438 0.456194 11.7873 0.377104 11.719 0.308953C11.5575 0.135921 11.3378 0.0287132 11.102 0.00795313C11.032 -4.68753e-05 0.957 -4.68753e-05 0.890001 0.00795313ZM0.875001 7.00795C0.645001 7.03495 0.410001 7.15995 0.262001 7.32795C0.118039 7.48556 0.0289355 7.68552 0.00800055 7.89795C-0.00399945 7.97995 -0.00399945 11.023 0.00800055 11.102C0.0280005 11.285 0.0940005 11.461 0.203001 11.605C0.286206 11.7136 0.390818 11.804 0.510363 11.8705C0.629908 11.9371 0.761842 11.9784 0.898001 11.992C0.977001 12.004 11.023 12.004 11.102 11.992C11.285 11.972 11.461 11.906 11.605 11.797C11.656 11.757 11.746 11.668 11.785 11.617C11.9049 11.467 11.9783 11.2852 11.996 11.094C12 11.047 12 10.582 12 9.45695C11.996 8.05895 11.996 7.87895 11.988 7.83595C11.9618 7.69202 11.906 7.55512 11.824 7.43395C11.6751 7.22048 11.45 7.07229 11.195 7.01995L11.137 7.00395H6.023C3.211 7.00395 0.895001 7.00395 0.875001 7.00795Z" fill="#202020"/>
</g>
<defs>
<clipPath id="clip0_2064_38066">
<rect width="12" height="12" fill="white"/>
</clipPath>
</defs>
</svg>
