<svg width="12" height="12" viewBox="0 0 12 12" fill="none" xmlns="http://www.w3.org/2000/svg">
<path d="M5.746 1.50399C4.91691 1.55239 4.10454 1.75769 3.352 2.10899C3.254 2.15199 2.977 2.29299 2.875 2.34799C1.773 2.94899 0.867001 3.79999 0.379001 4.68799C0.211001 4.98799 0.0890008 5.31299 0.0390008 5.60199C0.0134887 5.73307 0.00175825 5.86646 0.00400081 5.99999C0.00400081 6.16399 0.0120008 6.24199 0.0390008 6.39799C0.145001 6.97299 0.477001 7.58999 1.008 8.19099C1.105 8.30499 1.383 8.58199 1.496 8.68399C1.984 9.11399 2.504 9.46899 3.082 9.76199C3.85675 10.1608 4.70187 10.4047 5.57 10.48C6.91 10.59 8.379 10.176 9.672 9.32399C10.52 8.76599 11.222 8.04299 11.622 7.31299C11.82 6.95299 11.942 6.58999 11.988 6.23399C12 6.11699 12 5.87499 11.984 5.76199C11.906 5.12199 11.582 4.48399 11.004 3.81999C10.8456 3.64658 10.6801 3.47977 10.508 3.31999C10.0136 2.8781 9.46198 2.50475 8.868 2.20999C8.084 1.81532 7.23024 1.57818 6.355 1.51199C6.15212 1.50347 5.94904 1.5008 5.746 1.50399ZM6.196 3.00399C6.63008 3.03249 7.05281 3.1548 7.43504 3.36249C7.81727 3.57018 8.1499 3.8583 8.41 4.20699C8.95 4.93399 9.129 5.86299 8.906 6.74699C8.72281 7.46795 8.27704 8.09453 7.656 8.50399C7.336 8.71899 6.973 8.86699 6.586 8.94499C6.286 9.00399 5.934 9.01499 5.621 8.97699C5.19819 8.92413 4.79159 8.7814 4.42851 8.55838C4.06544 8.33536 3.7543 8.03722 3.516 7.68399C3.23101 7.26292 3.05759 6.77639 3.012 6.26999C3.00024 6.09018 3.00024 5.90979 3.012 5.72999C3.07287 5.0432 3.36968 4.39868 3.852 3.90599C4.32382 3.41645 4.95002 3.10459 5.625 3.02299C5.797 2.99999 6.02 2.99299 6.195 3.00299L6.196 3.00399Z" fill="currentColor"/>
<path d="M5.863 4.50799C5.6158 4.52839 5.37792 4.6117 5.172 4.74999C4.99645 4.86527 4.84726 5.01636 4.73421 5.19335C4.62115 5.37035 4.54679 5.56924 4.516 5.77699C4.508 5.84699 4.504 5.88699 4.504 5.99999C4.504 6.11299 4.508 6.15199 4.516 6.22299C4.55271 6.41636 4.62714 6.60061 4.73505 6.76521C4.84296 6.92982 4.98223 7.07156 5.14492 7.18234C5.30761 7.29312 5.49053 7.37077 5.68322 7.41086C5.87592 7.45095 6.07463 7.45269 6.268 7.41599C6.46137 7.37928 6.64562 7.30485 6.81023 7.19694C6.97483 7.08903 7.11657 6.94975 7.22735 6.78706C7.33813 6.62438 7.41578 6.44146 7.45587 6.24876C7.49596 6.05606 7.49771 5.85736 7.461 5.66399C7.351 5.16799 6.981 4.75399 6.5 4.58599C6.34929 4.53285 6.1908 4.50514 6.031 4.50399C5.965 4.49999 5.891 4.50399 5.863 4.50799Z" fill="currentColor"/>
</svg>
