<svg width="12" height="12" viewBox="0 0 12 12" fill="none" xmlns="http://www.w3.org/2000/svg">
<path d="M9.89 1.00391C9.68977 1.02899 9.50113 1.11167 9.347 1.24191C9.281 1.30091 1.25 9.33591 1.215 9.37891C1.11737 9.50658 1.05062 9.65513 1.02 9.81291C1.00649 9.87427 1.00111 9.93714 1.004 9.99991C1.0052 10.1894 1.06023 10.3747 1.16267 10.5341C1.26511 10.6935 1.41074 10.8206 1.58261 10.9004C1.75447 10.9803 1.94548 11.0097 2.1334 10.9851C2.32131 10.9606 2.49839 10.8832 2.644 10.7619C2.714 10.7029 10.746 2.66791 10.785 2.61691C10.883 2.49691 10.945 2.35191 10.98 2.19091C10.9937 2.12958 10.9991 2.06668 10.996 2.00391C10.9967 1.77199 10.9168 1.54702 10.77 1.36752C10.6231 1.18801 10.4185 1.06513 10.191 1.01991C10.145 1.00791 10.101 1.00791 10.016 1.00391H9.89ZM5.746 1.50391C4.91691 1.55231 4.10454 1.75761 3.352 2.10891C3.254 2.15191 2.977 2.29291 2.875 2.34791C1.773 2.94891 0.866998 3.79991 0.378998 4.68791C0.178998 5.04691 0.0589978 5.40191 0.0159978 5.76191C-2.19792e-06 5.87491 -2.19792e-06 6.12191 0.0159978 6.23791C0.0659978 6.63691 0.206998 7.03491 0.452998 7.44491C0.577998 7.65591 0.815998 7.97991 0.964998 8.14491L0.995998 8.17491L3.004 6.16791V5.98791C3.00396 5.59187 3.08265 5.19978 3.23549 4.83443C3.38833 4.46908 3.61228 4.13775 3.89431 3.85972C4.17634 3.58169 4.51083 3.3625 4.87833 3.21489C5.24583 3.06729 5.639 2.99421 6.035 2.99991L6.172 3.00391L6.824 2.34791C7.184 1.99191 7.473 1.69491 7.473 1.69091C7.10644 1.59936 6.73276 1.53914 6.356 1.51091C6.234 1.50391 5.863 1.49991 5.746 1.50391ZM10 4.82791L8.996 5.82791L9 5.96091C9.01082 6.68974 8.7553 7.39746 8.28138 7.95128C7.80747 8.5051 7.14774 8.86694 6.426 8.96891C6.29183 8.99076 6.15588 8.9998 6.02 8.99591L5.828 8.99991L5.176 9.65191C4.816 10.0119 4.523 10.3049 4.527 10.3049C5.44022 10.5501 6.40013 10.5638 7.32 10.3449C8.22684 10.1319 9.08392 9.74545 9.844 9.20691C10.621 8.65991 11.25 7.99191 11.621 7.31191C11.7815 7.02694 11.8963 6.71851 11.961 6.39791C11.988 6.24591 11.996 6.15991 11.996 5.99591C11.996 5.83591 11.988 5.75391 11.961 5.60191C11.859 5.05091 11.543 4.44891 11.062 3.88691C11.032 3.85191 11.008 3.82391 11.004 3.82391L10 4.82791Z" fill="#202020"/>
</svg>
