<svg width="12" height="12" viewBox="0 0 12 12" fill="none" xmlns="http://www.w3.org/2000/svg">
<path d="M6.625 1.06992C6.51188 1.08977 6.40481 1.13526 6.312 1.20292C6.277 1.22992 5.523 1.97992 3.988 3.51592C2.184 5.31992 1.711 5.79292 1.688 5.82792C1.63263 5.91401 1.59269 6.0091 1.57 6.10892C1.559 6.17892 1.559 6.31292 1.57 6.38292C1.59715 6.53118 1.66835 6.66783 1.77431 6.77503C1.88026 6.88224 2.01606 6.95503 2.164 6.98392C2.22 6.99992 2.223 6.99992 3.36 6.99992L4.501 7.00392V8.61692C4.501 9.69892 4.501 10.2499 4.509 10.2809C4.52619 10.4325 4.58979 10.575 4.69111 10.6891C4.79243 10.8031 4.92651 10.883 5.075 10.9179C5.20673 10.9492 5.34439 10.9451 5.474 10.9059C5.544 10.8859 5.634 10.8399 5.692 10.7959C5.724 10.7699 6.478 10.0199 8.012 8.48392C9.817 6.67992 10.29 6.20392 10.314 6.16792C10.3696 6.08353 10.4093 5.98964 10.431 5.89092C10.442 5.82092 10.442 5.68692 10.431 5.61692C10.4092 5.50235 10.3616 5.39425 10.2918 5.30085C10.2219 5.20746 10.1317 5.13121 10.028 5.07792C9.96864 5.04918 9.90577 5.02834 9.841 5.01592C9.78 4.99992 9.773 4.99992 8.64 4.99992L7.5 4.99592V3.38292C7.5 2.30092 7.5 1.74992 7.496 1.71492C7.47453 1.55958 7.40553 1.41468 7.29847 1.3001C7.19141 1.18552 7.05153 1.10687 6.898 1.07492C6.80759 1.06158 6.71584 1.0599 6.625 1.06992Z" fill="currentColor"/>
</svg>
