<svg width="12" height="12" viewBox="0 0 12 12" fill="none" xmlns="http://www.w3.org/2000/svg">
<path d="M1.863 0.00809826C1.453 0.0350983 1.07 0.184098 0.745998 0.440098C0.636654 0.533786 0.534686 0.635754 0.440998 0.745098C0.202998 1.0501 0.0619983 1.3851 0.0109983 1.7721C0.00399827 1.8541 0.00399827 2.0541 0.00399827 5.9951C0.00399827 10.4521 -1.73412e-06 10.1791 0.0309983 10.3511C0.108998 10.7691 0.300998 11.1311 0.600998 11.4251C0.929998 11.7451 1.321 11.9331 1.797 11.9871C1.847 11.9951 2.617 11.9951 6 11.9951C9.941 11.9951 10.145 11.9951 10.227 11.9871C10.613 11.9371 10.953 11.7961 11.254 11.5571C11.336 11.4911 11.492 11.3351 11.559 11.2531C11.769 10.9831 11.914 10.6631 11.969 10.3311C12 10.1631 11.996 10.2611 11.996 7.9951C11.996 5.9721 11.996 5.8581 11.988 5.7761C11.9523 5.46028 11.8419 5.15748 11.6662 4.89268C11.4904 4.62787 11.2542 4.40865 10.977 4.2531C10.7593 4.13113 10.5204 4.05171 10.273 4.0191C10.195 4.0031 10.18 4.0031 8.988 3.9991C7.684 3.9951 7.75 3.9991 7.574 3.9641C7.19375 3.89578 6.84177 3.71776 6.5614 3.45195C6.28103 3.18615 6.0845 2.84417 5.996 2.4681C5.96361 2.31883 5.93493 2.16879 5.91 2.0181C5.824 1.5541 5.816 1.5111 5.777 1.3981C5.715 1.1981 5.648 1.0581 5.531 0.882098C5.38232 0.662309 5.19146 0.474251 4.96949 0.328848C4.74753 0.183445 4.49888 0.083595 4.238 0.0350983C4.062 0.00409826 4.118 0.00409826 2.98 0.00409826C2.402 9.82604e-05 1.898 0.00409826 1.863 0.00809826ZM6.11 6.0041C6.32739 6.02815 6.53084 6.12303 6.689 6.2741C6.86726 6.44036 6.97709 6.66715 6.997 6.9101C7.005 6.9961 7.005 8.0041 6.997 8.0901C6.97613 8.31229 6.88183 8.52121 6.72899 8.68383C6.57614 8.84645 6.37348 8.95351 6.153 8.9881C6.095 9.0001 5.903 9.0001 5.849 8.9881C5.64385 8.95628 5.4539 8.86078 5.306 8.7151C5.13267 8.55054 5.02559 8.32821 5.005 8.0901C4.99718 7.6968 4.99718 7.30339 5.005 6.9101C5.025 6.7151 5.095 6.5401 5.212 6.3831C5.31736 6.24908 5.45502 6.144 5.61209 6.07771C5.76915 6.01142 5.94047 5.98609 6.11 6.0041Z" fill="#202020"/>
<path d="M6.734 1.0941C6.789 1.2771 6.801 1.3201 6.898 1.8671C6.973 2.2621 6.984 2.3201 7.035 2.4301C7.156 2.6871 7.398 2.8871 7.675 2.9651C7.801 3.0001 7.711 2.9961 9.02 3.0001C10.313 3.0041 10.242 3.0041 10.46 3.0351C10.605 3.0591 10.824 3.1091 10.957 3.1561L11 3.1681V3.0311C11.0087 2.52559 10.8253 2.0356 10.4867 1.66011C10.1481 1.28462 9.67971 1.05159 9.176 1.0081C8.75272 1.00001 8.32935 0.997344 7.906 1.0001H6.703L6.734 1.0941Z" fill="#202020"/>
</svg>
