<svg width="12" height="12" viewBox="0 0 12 12" fill="none" xmlns="http://www.w3.org/2000/svg">
<g clip-path="url(#clip0_2064_42498)">
<path d="M1.875 0.00403848C1.60027 0.0202679 1.33194 0.0935626 1.0871 0.21925C0.842273 0.344937 0.626316 0.520259 0.453001 0.734039C0.191058 1.05196 0.0354212 1.44402 0.00800055 1.85504C0.00400055 1.90204 5.4948e-07 2.60504 5.4948e-07 3.84404V5.75804L0.0700006 5.69904C0.510096 5.33238 1.04511 5.09799 1.613 5.02304C1.805 5.00004 1.653 5.00004 6 5.00004C10.422 5.00004 10.207 5.00004 10.414 5.02704C10.9807 5.10583 11.5131 5.34449 11.949 5.71504L12 5.76204V5.29704C11.996 4.85904 11.996 4.82404 11.984 4.74204C11.9352 4.35948 11.7752 3.99964 11.524 3.70704C11.2021 3.32794 10.751 3.08173 10.258 3.01604C10.172 3.00404 10.152 3.00404 9.203 3.00004C8.172 2.99604 8.215 2.99604 8.063 2.96904C7.82006 2.92065 7.58979 2.82245 7.3867 2.68063C7.1836 2.53881 7.0121 2.35645 6.883 2.14504C6.77781 1.97154 6.70369 1.78102 6.664 1.58204C6.62717 1.41692 6.57077 1.25679 6.496 1.10504C6.4017 0.910483 6.27334 0.734373 6.117 0.585038C5.828 0.298038 5.477 0.110038 5.078 0.0360385C4.898 3.84822e-05 5.012 0.00403848 3.391 0.00403848H1.875ZM1.844 6.00804C1.437 6.03904 1.059 6.18804 0.742001 6.44504C0.633464 6.53503 0.533075 6.63441 0.442001 6.74204C0.187443 7.05908 0.0359963 7.44642 0.00800055 7.85204C-0.00399945 7.96104 -0.00399945 10.039 0.00800055 10.148C0.0409177 10.6262 0.245764 11.0764 0.584708 11.4153C0.923651 11.7543 1.37379 11.9591 1.852 11.992C1.961 12.004 10.039 12.004 10.148 11.992C10.4525 11.9711 10.7481 11.8801 11.0117 11.7263C11.2754 11.5724 11.4999 11.3598 11.668 11.105C11.844 10.84 11.941 10.575 11.988 10.219C12 10.149 12.004 7.98904 11.996 7.85904C11.9621 7.37982 11.7566 6.92887 11.4172 6.58889C11.0778 6.24891 10.6272 6.04269 10.148 6.00804C10.055 6.00004 1.934 6.00004 1.844 6.00804ZM7.176 8.01604C7.37377 8.05155 7.55625 8.14582 7.69967 8.28656C7.84308 8.4273 7.94077 8.60797 7.98 8.80504C7.99407 8.86902 7.99945 8.93461 7.996 9.00004C7.996 9.11704 7.992 9.14004 7.98 9.19504C7.96 9.28504 7.937 9.35504 7.902 9.43404C7.762 9.72304 7.5 9.92204 7.176 9.98404L7.109 10H6.047C5.309 10 4.965 10 4.918 9.99604C4.70158 9.97879 4.49673 9.89129 4.33462 9.74688C4.17252 9.60246 4.06204 9.40903 4.02 9.19604C4.00584 9.13173 4.00046 9.06579 4.004 9.00004C4.004 8.88304 4.008 8.86004 4.02 8.80504C4.06188 8.59461 4.17034 8.40323 4.32934 8.25917C4.48835 8.11511 4.68947 8.02601 4.903 8.00504C4.93 8.00004 5.433 8.00004 6.031 8.00004H7.11L7.176 8.01604Z" fill="#202020"/>
</g>
<defs>
<clipPath id="clip0_2064_42498">
<rect width="12" height="12" fill="white"/>
</clipPath>
</defs>
</svg>
