<svg width="12" height="12" viewBox="0 0 12 12" fill="none" xmlns="http://www.w3.org/2000/svg">
<g clip-path="url(#clip0_2422_8739)">
<path d="M0.889997 0.00790794C0.745238 0.0243071 0.605747 0.0718593 0.481113 0.147295C0.35648 0.222732 0.24966 0.324262 0.167997 0.444908C0.0903265 0.562134 0.0380169 0.694301 0.0144242 0.83293C-0.00916858 0.971559 -0.00352358 1.11359 0.0309971 1.24991C0.0939971 1.48791 0.249997 1.70291 0.452997 1.83591C0.479997 1.85591 2.359 2.79591 4.629 3.93391C6.902 5.06591 8.762 5.99991 8.762 5.99991C8.762 5.99991 6.902 6.93391 4.629 8.06591C3.23481 8.76088 1.8428 9.46022 0.452997 10.1639C0.249384 10.3006 0.103115 10.5074 0.0420018 10.7449C-0.0191114 10.9825 0.00919332 11.2341 0.121534 11.4522C0.233875 11.6702 0.422417 11.8393 0.651311 11.9274C0.880204 12.0155 1.13349 12.0164 1.363 11.9299C1.391 11.9179 3.688 10.7729 6.469 9.38291C11.957 6.63691 11.57 6.83591 11.684 6.72691C11.784 6.63406 11.8638 6.52157 11.9183 6.39647C11.9729 6.27138 12.0011 6.13638 12.0011 5.99991C12.0011 5.86344 11.9729 5.72843 11.9183 5.60334C11.8638 5.47825 11.784 5.36576 11.684 5.27291C11.57 5.16391 11.957 5.35891 6.469 2.61691C3.687 1.22691 1.39 0.0819079 1.363 0.0699079C1.21315 0.0107606 1.05003 -0.0105343 0.889997 0.00790794Z" fill="currentColor"/>
</g>
<defs>
<clipPath id="clip0_2422_8739">
<rect width="12" height="12" fill="white"/>
</clipPath>
</defs>
</svg>
