<svg width="12" height="12" viewBox="0 0 12 12" fill="none" xmlns="http://www.w3.org/2000/svg">
<path d="M1.836 0.00809826C1.37199 0.0456672 0.935708 0.244242 0.602629 0.56947C0.269549 0.894697 0.0606243 1.32612 0.0119984 1.7891C-1.64844e-06 1.8871 -1.64844e-06 6.1051 0.0119984 6.2071C0.0549984 6.6021 0.198998 6.9491 0.448998 7.2621C0.507998 7.3361 0.663998 7.4961 0.738998 7.5551C1.008 7.7651 1.289 7.8981 1.617 7.9611C1.789 7.9961 1.715 7.9961 2.907 7.9961L4 8.0001L4.004 9.0941C4.004 10.2771 4.004 10.2071 4.035 10.3711C4.094 10.6951 4.25 11.0271 4.461 11.2771C4.797 11.6801 5.266 11.9301 5.793 11.9881C5.848 11.9961 6.262 11.9961 8.008 11.9961C10.047 11.9961 10.156 11.9961 10.234 11.9881C10.6687 11.9354 11.0743 11.7421 11.389 11.4375C11.7037 11.133 11.9102 10.7339 11.977 10.3011C12 10.1371 12 10.1251 12 7.9411C11.996 5.6411 12 5.8051 11.965 5.6291C11.8876 5.21426 11.6807 4.83463 11.374 4.5448C11.0673 4.25497 10.6766 4.06987 10.258 4.0161C10.199 4.0081 10.09 4.0041 9.094 4.0041L8 4.0001L7.996 2.9061C7.996 1.7231 7.996 1.7931 7.965 1.6291C7.90465 1.30594 7.76533 1.00272 7.55946 0.746427C7.35359 0.490131 7.08754 0.288712 6.785 0.160098C6.61011 0.0865089 6.42613 0.036731 6.238 0.0120983C6.172 0.00409826 5.988 0.00409826 4.035 0.00409826C2.82 9.82604e-05 1.876 0.00409826 1.836 0.00809826Z" fill="currentColor"/>
</svg>
