<svg width="12" height="12" viewBox="0 0 12 12" fill="none" xmlns="http://www.w3.org/2000/svg">
<g clip-path="url(#clip0_2064_44289)">
<path d="M4.895 0.00795313C4.74956 0.0224005 4.60918 0.0691293 4.4841 0.144731C4.35902 0.220333 4.2524 0.3229 4.172 0.444953C4.09629 0.554243 4.0445 0.678278 4.02 0.808953L4.004 0.869953V1.99495C4.004 3.04995 4.004 3.12395 4.016 3.17495C4.046 3.32695 4.106 3.46395 4.196 3.59295C4.26635 3.68235 4.3492 3.76115 4.442 3.82695C4.57884 3.91996 4.73719 3.97641 4.902 3.99095C4.926 3.99495 4.961 3.99495 4.972 3.99895L5 4.00395V5.33195H4.223C3.488 5.33195 3.273 5.33595 3.117 5.34795C2.586 5.39795 2.141 5.53095 1.766 5.75795C1.47057 5.93687 1.21524 6.17483 1.016 6.45695C0.765998 6.81695 0.597998 7.27295 0.535998 7.78495C0.503998 8.01495 0.503998 8.07495 0.499998 8.74595L0.495998 9.38295L0.464998 9.41395C0.222999 9.64342 0.0646132 9.94717 0.0149981 10.277C-0.000676036 10.4252 -0.000676036 10.5747 0.0149981 10.723C0.0819981 11.145 0.308998 11.503 0.659998 11.743C0.899782 11.9054 1.18152 11.9949 1.47109 12.0005C1.76067 12.0061 2.04567 11.9277 2.29158 11.7747C2.5375 11.6217 2.73378 11.4006 2.85667 11.1384C2.97957 10.8761 3.02379 10.5838 2.984 10.297C2.94079 9.96942 2.78946 9.66569 2.554 9.43395L2.5 9.37895L2.504 8.74195C2.508 8.05895 2.504 8.06595 2.539 7.91395C2.574 7.72295 2.649 7.58195 2.746 7.50795C2.879 7.40195 3.094 7.34795 3.406 7.33595C3.48 7.33195 3.871 7.32795 4.27 7.32795H5V9.38295L4.965 9.41395C4.723 9.64342 4.56461 9.94717 4.515 10.277C4.508 10.347 4.504 10.387 4.504 10.5C4.504 10.613 4.508 10.652 4.516 10.723C4.57249 11.1167 4.78307 11.4718 5.10141 11.7103C5.25904 11.8283 5.43838 11.9142 5.62919 11.963C5.82 12.0117 6.01855 12.0224 6.2135 11.9945C6.40845 11.9665 6.59597 11.9004 6.76538 11.7999C6.93478 11.6995 7.08274 11.5667 7.20081 11.409C7.31888 11.2514 7.40475 11.0721 7.45351 10.8813C7.50227 10.6904 7.51297 10.4919 7.485 10.297C7.44179 9.96942 7.29046 9.66569 7.055 9.43395L7.004 9.37895V7.32895H7.73C8.129 7.32895 8.52 7.33195 8.598 7.33595C8.91 7.34795 9.118 7.40195 9.254 7.50795C9.352 7.58195 9.426 7.72295 9.464 7.91395C9.496 8.06595 9.492 8.05895 9.496 8.74595L9.5 9.38295L9.465 9.41395C9.223 9.64342 9.06461 9.94717 9.015 10.277C8.99932 10.4252 8.99932 10.5747 9.015 10.723C9.082 11.145 9.309 11.503 9.66 11.743C9.89978 11.9054 10.1815 11.9949 10.4711 12.0005C10.7607 12.0061 11.0457 11.9277 11.2916 11.7747C11.5375 11.6217 11.7338 11.4006 11.8567 11.1384C11.9796 10.8761 12.0238 10.5838 11.984 10.297C11.9408 9.96942 11.7895 9.66569 11.554 9.43395L11.504 9.37895V8.85195C11.504 8.19495 11.496 8.03195 11.464 7.78895C11.375 7.04695 11.078 6.44895 10.594 6.01895C10.191 5.66395 9.668 5.44495 9.047 5.36695C8.797 5.33595 8.668 5.33195 7.777 5.33195H7.004V4.00395L7.027 3.99995C7.039 3.99595 7.074 3.99595 7.097 3.99195C7.31885 3.97243 7.5272 3.87708 7.687 3.72195C7.81658 3.60087 7.91122 3.44717 7.961 3.27695C8 3.13295 8 3.19095 7.996 1.96495V0.862953L7.98 0.804953C7.93955 0.594839 7.83198 0.403536 7.67346 0.25981C7.51495 0.116083 7.31406 0.0277008 7.101 0.00795313C7.032 -4.68753e-05 4.961 -4.68753e-05 4.895 0.00795313Z" fill="#202020"/>
</g>
<defs>
<clipPath id="clip0_2064_44289">
<rect width="12" height="12" fill="white"/>
</clipPath>
</defs>
</svg>
