<svg width="12" height="12" viewBox="0 0 12 12" fill="none" xmlns="http://www.w3.org/2000/svg">
<g clip-path="url(#clip0_2435_39062)">
<path d="M5.863 0.00789938C5.61579 0.0283049 5.37792 0.111613 5.172 0.249899C4.99645 0.365183 4.84726 0.516276 4.7342 0.693268C4.62115 0.870259 4.54679 1.06915 4.516 1.2769C4.508 1.3469 4.504 1.3869 4.504 1.4999C4.504 1.6129 4.508 1.6519 4.516 1.7229C4.566 2.0469 4.711 2.3279 4.937 2.5589L5 2.6199V4.3349H4.102C3.125 4.3389 3.148 4.3389 2.902 4.3739C2.34 4.4519 1.867 4.6469 1.492 4.9479C0.944998 5.3859 0.616998 6.0339 0.526998 6.8429C0.503998 7.0729 0.503998 7.0769 0.499998 8.2489L0.495998 9.3829L0.464998 9.4139C0.222999 9.64337 0.0646132 9.94712 0.0149981 10.2769C-0.000676036 10.4252 -0.000676036 10.5746 0.0149981 10.7229C0.0819981 11.1449 0.308998 11.5029 0.659998 11.7429C0.899782 11.9053 1.18152 11.9948 1.47109 12.0004C1.76067 12.0061 2.04567 11.9276 2.29158 11.7746C2.5375 11.6216 2.73378 11.4006 2.85667 11.1383C2.97957 10.8761 3.02379 10.5838 2.984 10.2969C2.94079 9.96937 2.78946 9.66564 2.554 9.4339L2.504 9.3789V8.2849C2.504 7.5899 2.504 7.1649 2.508 7.1209C2.528 6.9109 2.57 6.7419 2.637 6.6329C2.73 6.4729 2.902 6.3909 3.219 6.3479C3.281 6.3399 3.391 6.3359 4.145 6.3359L5 6.3319V9.3819L4.965 9.4139C4.723 9.64337 4.56461 9.94712 4.515 10.2769C4.49932 10.4252 4.49932 10.5746 4.515 10.7229C4.582 11.1449 4.809 11.5029 5.16 11.7429C5.39978 11.9053 5.68152 11.9948 5.97109 12.0004C6.26067 12.0061 6.54567 11.9276 6.79158 11.7746C7.0375 11.6216 7.23378 11.4006 7.35667 11.1383C7.47957 10.8761 7.52379 10.5838 7.484 10.2969C7.44079 9.96937 7.28946 9.66564 7.054 9.4339L7.004 9.3789V6.3319H7.804C8.574 6.3319 8.699 6.3359 8.812 6.3519C8.988 6.3749 9.137 6.4259 9.234 6.4919C9.379 6.5899 9.464 6.7969 9.492 7.1169C9.496 7.1639 9.5 7.5699 9.5 8.2849V9.3829L9.465 9.4139C9.223 9.64337 9.06461 9.94712 9.015 10.2769C8.99932 10.4252 8.99932 10.5746 9.015 10.7229C9.082 11.1449 9.309 11.5029 9.66 11.7429C9.89978 11.9053 10.1815 11.9948 10.4711 12.0004C10.7607 12.0061 11.0457 11.9276 11.2916 11.7746C11.5375 11.6216 11.7338 11.4006 11.8567 11.1383C11.9796 10.8761 12.0238 10.5838 11.984 10.2969C11.9409 9.97038 11.7916 9.66711 11.559 9.4339L11.504 9.3789L11.5 8.2499C11.496 7.1019 11.496 7.0779 11.477 6.8669C11.398 6.1479 11.141 5.5669 10.711 5.1329C10.234 4.6529 9.598 4.3949 8.773 4.3399C8.719 4.3399 8.348 4.3359 7.84 4.3359H7.004V2.6199L7.063 2.5579C7.297 2.3229 7.438 2.0379 7.484 1.7019C7.52175 1.43527 7.48644 1.1634 7.38183 0.915263C7.27722 0.667127 7.10724 0.452029 6.89 0.292899C6.69277 0.148999 6.46415 0.0540551 6.223 0.0158994C6.10354 0.00156439 5.98297 -0.0011149 5.863 0.00789938Z" fill="currentColor"/>
</g>
<defs>
<clipPath id="clip0_2435_39062">
<rect width="12" height="12" fill="white"/>
</clipPath>
</defs>
</svg>
