<svg width="12" height="12" viewBox="0 0 12 12" fill="none" xmlns="http://www.w3.org/2000/svg">
<path d="M5.898 0.79011C5.8353 0.802274 5.77575 0.827115 5.723 0.86311C5.691 0.88711 5.074 1.47711 3.457 3.03111C2.70896 3.75033 1.96295 4.47166 1.219 5.19511C1.18116 5.24592 1.1521 5.30271 1.133 5.36311C1.11437 5.43046 1.10998 5.50096 1.12011 5.5701C1.13024 5.63924 1.15466 5.70551 1.19183 5.76469C1.22899 5.82387 1.27808 5.87466 1.33596 5.91381C1.39384 5.95297 1.45924 5.97963 1.528 5.99211C1.566 5.99611 1.628 6.00011 1.789 6.00011H2V8.00011C2 9.20711 2 10.0271 2.004 10.0701C2.024 10.3091 2.117 10.5231 2.277 10.6871C2.39836 10.8168 2.55242 10.9115 2.723 10.9611C2.859 11.0001 2.863 11.0001 3.531 10.9961H4.129L4.191 10.9801C4.598 10.8951 4.895 10.5981 4.981 10.1911L4.996 10.1291L5 9.00811C5.004 7.80811 5 7.87511 5.031 7.75411C5.109 7.43411 5.355 7.16411 5.671 7.05411C5.77598 7.01476 5.8881 6.99806 6 7.00511C6.113 7.00511 6.14 7.00911 6.195 7.02111C6.40717 7.0621 6.60017 7.17118 6.74473 7.3318C6.88929 7.49242 6.97751 7.69581 6.996 7.91111C7 7.95111 7.004 8.33311 7.004 9.02411C7.004 9.95011 7.004 10.0871 7.012 10.1421C7.023 10.2201 7.043 10.2981 7.066 10.3601C7.196 10.6851 7.461 10.9071 7.813 10.9811L7.871 10.9971H8.496C9.07 10.9971 9.125 10.9971 9.176 10.9851C9.328 10.9551 9.465 10.8951 9.594 10.8051C9.614 10.7901 9.664 10.7471 9.707 10.7051C9.8794 10.5357 9.98275 10.3084 9.997 10.0671C10 10.0241 10.004 9.15711 10.004 7.99711V6.00011H10.211C10.445 6.00011 10.488 5.99611 10.571 5.96511C10.6421 5.93616 10.7056 5.89133 10.7567 5.83403C10.8078 5.77674 10.8451 5.70851 10.8658 5.63458C10.8865 5.56064 10.8899 5.48295 10.8759 5.40747C10.8619 5.33199 10.8308 5.26072 10.785 5.19911C10.77 5.18411 9.762 4.20711 8.543 3.03111C6.922 1.47011 6.309 0.88711 6.277 0.86311C6.22181 0.826437 6.15989 0.801098 6.09483 0.788566C6.02976 0.776034 5.96286 0.776558 5.898 0.79011Z" fill="#202020"/>
</svg>
