<svg width="12" height="12" viewBox="0 0 12 12" fill="none" xmlns="http://www.w3.org/2000/svg">
<g clip-path="url(#clip0_2064_45044)">
<path d="M1.844 0.00795313C1.57507 0.0278771 1.31305 0.102553 1.07402 0.227398C0.834993 0.352243 0.624002 0.524622 0.454 0.733953C0.189471 1.05245 0.0329454 1.44674 0.007 1.85995C0 1.92195 0 3.13295 0 6.05995L0.004 10.169L0.016 10.259C0.051 10.493 0.106 10.677 0.207 10.879C0.313 11.095 0.43 11.259 0.605 11.431C0.945 11.767 1.379 11.958 1.863 11.993C1.922 12 3.156 12 6.06 12L10.169 11.996L10.259 11.984C10.6229 11.9379 10.9666 11.7907 11.251 11.559C11.6529 11.2354 11.9156 10.7702 11.985 10.259C11.997 10.172 11.997 10.145 12.001 9.56995C12.001 9.15995 12.001 8.95295 11.997 8.90595C11.9849 8.78202 11.9492 8.66154 11.892 8.55095C11.7752 8.31756 11.5715 8.13933 11.3246 8.05462C11.0777 7.9699 10.8075 7.98546 10.572 8.09795C10.4688 8.14622 10.3758 8.21377 10.298 8.29695C10.2026 8.38884 10.1268 8.49905 10.075 8.62095C10.0268 8.7372 10.0029 8.86211 10.005 8.98795C9.997 9.12795 9.981 9.21795 9.95 9.31295C9.88845 9.49932 9.77343 9.66345 9.61926 9.7849C9.46509 9.90635 9.27859 9.97975 9.083 9.99595C9.035 9.99995 8.117 9.99995 5.953 9.99995H2.891L2.824 9.98395C2.60823 9.9454 2.41111 9.83702 2.26296 9.67549C2.1148 9.51397 2.02382 9.30824 2.004 9.08995C1.996 9.00395 1.996 2.99595 2.004 2.90995C2.02478 2.69901 2.11077 2.49978 2.25 2.33995C2.402 2.16395 2.605 2.05495 2.855 2.00795C3.2416 1.99906 3.62832 1.99639 4.015 1.99995L5.137 1.99595L5.195 1.97995C5.461 1.92195 5.68 1.77695 5.825 1.56595C6.07 1.20295 6.055 0.729953 5.785 0.382953C5.70248 0.277456 5.59939 0.189819 5.48199 0.125357C5.36458 0.0608961 5.23531 0.0209539 5.102 0.00795313C5.035 -4.68753e-05 1.934 -4.68753e-05 1.844 0.00795313Z" fill="currentColor"/>
<path d="M11.2 0.0429531C11.059 0.0589531 10.895 0.0779531 10.813 0.0899531C9.797 0.241953 8.828 0.558953 8.003 1.01195C7.102 1.50395 6.391 2.13695 5.887 2.89795C5.56498 3.38033 5.32821 3.91442 5.187 4.47695L5.18 4.49995H4.523C4.113 4.49995 3.848 4.50395 3.809 4.50395C3.336 4.55395 2.973 4.92195 2.918 5.40195C2.90429 5.53099 2.91661 5.66146 2.95422 5.78565C2.99184 5.90984 3.05399 6.02522 3.137 6.12495C3.176 6.17495 5.836 8.83495 5.879 8.87095C6.0626 9.01426 6.2902 9.0895 6.52304 9.08384C6.75589 9.07819 6.97957 8.992 7.156 8.83995C7.184 8.81595 7.805 8.19495 8.536 7.46495C9.984 6.01195 9.902 6.09795 9.976 5.95295C10.0378 5.8341 10.0746 5.70381 10.0841 5.57016C10.0936 5.43651 10.0755 5.30234 10.031 5.17595C9.99616 5.08412 9.95157 4.99628 9.898 4.91395C9.86087 4.87048 9.8232 4.82748 9.785 4.78495C9.62712 4.62367 9.41603 4.52524 9.191 4.50795C9.01676 4.50086 8.84237 4.49819 8.668 4.49995H8.203L8.215 4.45695C8.242 4.37095 8.325 4.12895 8.367 4.02295C8.797 2.94095 9.543 2.15595 10.507 1.77295C10.738 1.67995 10.93 1.62495 11.211 1.56995C11.3219 1.55157 11.4296 1.51757 11.531 1.46895C11.6454 1.41272 11.7458 1.33164 11.8249 1.23164C11.9039 1.13164 11.9597 1.01525 11.988 0.890953C11.9998 0.797322 11.9998 0.702584 11.988 0.608953C11.9672 0.49877 11.9207 0.395056 11.8522 0.306258C11.7837 0.21746 11.6953 0.146088 11.594 0.0979531C11.5147 0.0560149 11.4257 0.0356685 11.336 0.0389531C11.2903 0.0359572 11.2454 0.0372965 11.2 0.0429531Z" fill="currentColor"/>
</g>
<defs>
<clipPath id="clip0_2064_45044">
<rect width="12" height="12" fill="white"/>
</clipPath>
</defs>
</svg>
