<svg width="12" height="12" viewBox="0 0 12 12" fill="none" xmlns="http://www.w3.org/2000/svg">
<g clip-path="url(#clip0_2064_45328)">
<path d="M5.727 0.00394259C4.72944 0.0495554 3.75877 0.341957 2.902 0.854943C2.402 1.15594 1.906 1.56594 1.504 2.01994C0.908875 2.6917 0.472441 3.4887 0.227001 4.35194C0.113001 4.76194 0.0430012 5.15994 0.0120012 5.63194C-0.0429003 6.51063 0.0956926 7.39066 0.418001 8.20994C0.737537 9.01809 1.22906 9.74704 1.85848 10.3462C2.48789 10.9454 3.24013 11.4005 4.063 11.6799C4.94257 11.9801 5.87978 12.0723 6.80097 11.9491C7.72216 11.8259 8.60223 11.4907 9.372 10.9699C10.3163 10.3263 11.0584 9.4278 11.512 8.37894C11.8346 7.62887 11.9993 6.82043 11.996 6.00394C11.996 5.73394 11.992 5.63294 11.969 5.40994C11.8768 4.42466 11.5399 3.47801 10.989 2.65594C10.4997 1.92481 9.85517 1.31053 9.10141 0.856819C8.34765 0.40311 7.50314 0.121128 6.628 0.0309426C6.3281 0.00469144 6.02694 -0.00432339 5.726 0.00394259H5.727ZM6.09 2.00394C6.27 2.01994 6.438 2.08194 6.582 2.18394C6.652 2.23394 6.766 2.34794 6.816 2.41794C6.863 2.48794 6.926 2.60894 6.949 2.67994C7.00725 2.8568 7.01548 3.04632 6.97277 3.22756C6.93006 3.4088 6.83809 3.5747 6.707 3.70694C6.5954 3.81978 6.45848 3.90435 6.30761 3.95361C6.15674 4.00288 5.9963 4.01541 5.83961 3.99018C5.68292 3.96494 5.53453 3.90267 5.40676 3.80853C5.27898 3.71439 5.17553 3.59111 5.105 3.44894C4.98777 3.20901 4.9684 2.93289 5.051 2.67894C5.074 2.60894 5.137 2.48894 5.184 2.41794C5.2856 2.27571 5.42274 2.16262 5.58172 2.08997C5.7407 2.01732 5.91597 1.98766 6.09 2.00394ZM6.09 5.00394C6.27 5.01994 6.438 5.08194 6.582 5.18394C6.652 5.23394 6.766 5.34794 6.816 5.41794C6.863 5.48794 6.926 5.60894 6.949 5.67994C6.973 5.74994 6.989 5.83594 6.996 5.90994C7.004 5.99594 7.004 9.00394 6.996 9.08994C6.97543 9.32346 6.87267 9.5421 6.706 9.70694C6.5944 9.81978 6.45748 9.90435 6.30661 9.95361C6.15574 10.0029 5.9953 10.0154 5.83861 9.99018C5.68192 9.96494 5.53353 9.90267 5.40576 9.80853C5.27798 9.71439 5.17453 9.59111 5.104 9.44894C5.04719 9.33674 5.0132 9.21437 5.004 9.08894C4.996 9.00394 4.996 5.99594 5.004 5.90994C5.02457 5.67643 5.12733 5.45779 5.294 5.29294C5.39696 5.18872 5.52176 5.10864 5.65941 5.0585C5.79706 5.00835 5.94413 4.98937 6.09 5.00294V5.00394Z" fill="#202020"/>
</g>
<defs>
<clipPath id="clip0_2064_45328">
<rect width="12" height="12" fill="white"/>
</clipPath>
</defs>
</svg>
