<svg width="12" height="12" viewBox="0 0 12 12" fill="none" xmlns="http://www.w3.org/2000/svg">
<g clip-path="url(#clip0_2435_40766)">
<path d="M7.27 0.00807039C6.44568 0.0489438 5.64838 0.315285 4.965 0.77807C4.18577 1.30973 3.59314 2.07264 3.27073 2.95915C2.94831 3.84567 2.91238 4.81104 3.168 5.71907L3.191 5.80907L1.645 7.35907C0.434 8.57007 0.09 8.91807 0.075 8.94507C0.063 8.96507 0.047 9.00007 0.035 9.02307C0 9.11707 0 9.05507 0 10.3521C0 11.6521 0 11.5901 0.035 11.6841C0.062 11.7461 0.09 11.7931 0.141 11.8441C0.191 11.8941 0.246 11.9381 0.313 11.9611C0.41 12.0001 0.34 12.0001 1.647 12.0001C2.937 12.0001 2.882 12.0001 2.967 11.9651C3.073 11.9251 2.964 12.0311 4.64 10.3551L6.19 8.81007L6.269 8.83007C6.729 8.96207 7.241 9.02007 7.718 8.99307C8.54163 8.9567 9.3391 8.69295 10.022 8.23107C10.546 7.88007 11.002 7.39907 11.335 6.86107C11.9527 5.84831 12.149 4.63388 11.882 3.47807C11.7122 2.74952 11.3645 2.07439 10.87 1.51307C10.7566 1.38958 10.6382 1.27081 10.515 1.15707C10.0558 0.740598 9.51454 0.424831 8.926 0.23007C8.39266 0.0535284 7.83101 -0.0217645 7.27 0.00807039ZM7.73 3.01607C8.04367 3.0686 8.33389 3.21546 8.562 3.43707C8.71039 3.58632 8.82587 3.765 8.90101 3.96159C8.97614 4.15819 9.00927 4.36834 8.99824 4.57852C8.98722 4.78869 8.9323 4.99423 8.83701 5.18188C8.74172 5.36954 8.60819 5.53516 8.445 5.66807C8.21951 5.84829 7.94717 5.96025 7.66013 5.99072C7.37308 6.0212 7.0833 5.96892 6.825 5.84007C6.434 5.64007 6.148 5.29007 6.047 4.86707C6.01405 4.74764 5.99955 4.62388 6.004 4.50007C6.00303 4.15699 6.11869 3.82377 6.332 3.55507C6.382 3.49207 6.492 3.38307 6.559 3.33207C6.785 3.14807 7.059 3.03507 7.355 3.00407C7.437 2.99607 7.645 3.00407 7.73 3.01607Z" fill="currentColor"/>
</g>
<defs>
<clipPath id="clip0_2435_40766">
<rect width="12" height="12" fill="white"/>
</clipPath>
</defs>
</svg>
