<svg width="12" height="12" viewBox="0 0 12 12" fill="none" xmlns="http://www.w3.org/2000/svg">
<path d="M5.73 0.00395788C4.73746 0.049363 3.7715 0.339287 2.918 0.847958C2.38137 1.17014 1.89768 1.57322 1.484 2.04296C0.971972 2.62638 0.579238 3.30449 0.328003 4.03896C0.173293 4.49289 0.0725987 4.96347 0.0280028 5.44096C0.00800283 5.65596 0.00400283 5.74596 0.00400283 5.99996C-0.00113411 7.15892 0.332543 8.29412 0.964003 9.26596C1.64126 10.3124 2.62861 11.1211 3.788 11.579C4.68 11.934 5.66 12.066 6.621 11.969C8.11026 11.8151 9.48815 11.1099 10.484 9.99196C11.321 9.05266 11.8406 7.87347 11.969 6.62196C11.9909 6.41539 11.9999 6.20765 11.996 5.99996C11.9999 5.7926 11.9908 5.5852 11.969 5.37896C11.8289 4.00808 11.2203 2.72746 10.2459 1.75306C9.2715 0.778649 7.99088 0.170074 6.62 0.0299579C6.32411 0.00372194 6.02694 -0.00529326 5.73 0.00295788V0.00395788ZM6.18 2.00396C6.508 2.01996 6.813 2.06596 7.11 2.15196C7.79175 2.34805 8.40903 2.72205 8.89847 3.23556C9.3879 3.74907 9.73185 4.38358 9.895 5.07396C10.094 5.93396 10.008 6.83996 9.652 7.64096C9.25489 8.51958 8.55464 9.2258 7.67942 9.63036C6.8042 10.0349 5.81256 10.1107 4.886 9.84396C3.95848 9.57598 3.15926 8.98141 2.63595 8.17008C2.11265 7.35874 1.90061 6.38545 2.039 5.42996C2.17905 4.44578 2.68118 3.54923 3.44719 2.91563C4.21321 2.28203 5.18802 1.95695 6.181 2.00396H6.18Z" fill="#202020"/>
<path d="M4.438 3.02696C4.33539 3.04202 4.23975 3.08783 4.1637 3.15834C4.08765 3.22886 4.03476 3.32077 4.012 3.42196C4.004 3.46496 4.004 3.71096 4.004 5.99996C4.004 8.28996 4.004 8.53496 4.012 8.57796C4.032 8.67196 4.082 8.76196 4.152 8.83196C4.19317 8.86939 4.23926 8.90102 4.289 8.92596C4.35403 8.95977 4.42677 8.97597 4.5 8.97296C4.582 8.97296 4.64 8.96096 4.707 8.92596C4.762 8.90196 8.757 6.40996 8.797 6.37896C8.851 6.33143 8.89453 6.2732 8.92483 6.20795C8.95513 6.14271 8.97153 6.07188 8.973 5.99996C8.973 5.85996 8.903 5.70996 8.797 5.62096C8.757 5.58996 4.762 3.09796 4.707 3.07396C4.62312 3.0335 4.52962 3.01723 4.437 3.02696H4.438Z" fill="#202020"/>
</svg>
