<svg width="12" height="12" viewBox="0 0 12 12" fill="none" xmlns="http://www.w3.org/2000/svg">
<g clip-path="url(#clip0_2064_46651)">
<path d="M0.890001 0.00397528C0.705145 0.0269357 0.529951 0.0995014 0.383001 0.213975C0.277387 0.296608 0.189682 0.399856 0.125216 0.517442C0.0607502 0.635028 0.0208702 0.764496 0.00800055 0.897975C-0.00399945 0.976975 -0.00399945 9.03897 0.00800055 9.17597C0.0470005 9.86298 0.316001 10.508 0.770001 11.004C1.309 11.598 2.031 11.945 2.824 11.992C2.961 12.004 11.024 12.004 11.102 11.992C11.282 11.972 11.457 11.906 11.598 11.801C11.6793 11.7356 11.7525 11.6607 11.816 11.578C12.031 11.27 12.059 10.855 11.883 10.528C11.8128 10.3979 11.7147 10.2849 11.5958 10.1971C11.4769 10.1092 11.34 10.0488 11.195 10.02L11.137 10.004L7.012 9.99998C3.125 9.99998 2.882 9.99598 2.836 9.98798C2.60134 9.94771 2.38828 9.82631 2.234 9.64498C2.1181 9.5079 2.04139 9.34206 2.012 9.16498C2.004 9.11598 2 8.87398 2 4.98698L1.996 0.862975L1.98 0.804975C1.9279 0.549655 1.77969 0.324114 1.566 0.174975C1.36731 0.0422309 1.12887 -0.0178208 0.891001 0.00497528L0.890001 0.00397528Z" fill="#202020"/>
<path d="M5.914 3.00398C5.73346 3.0198 5.56062 3.08444 5.414 3.19098C5.375 3.21898 5.121 3.46898 4.293 4.29298C3.121 5.46898 3.183 5.40298 3.109 5.55098C3.03783 5.68994 3.00071 5.84384 3.00071 5.99998C3.00071 6.15611 3.03783 6.31001 3.109 6.44898C3.309 6.85197 3.758 7.06998 4.203 6.97698C4.33022 6.9509 4.45113 6.90029 4.559 6.82798C4.625 6.78498 4.652 6.75798 5.312 6.09798L6 5.40998L6.688 6.09798C7.348 6.75798 7.375 6.78498 7.441 6.82798C7.61275 6.94426 7.81646 7.00415 8.02381 6.99931C8.23117 6.99447 8.43186 6.92515 8.598 6.80098C8.633 6.77698 8.973 6.44098 9.691 5.72298C10.266 5.14798 10.75 4.65998 10.77 4.63698C10.9179 4.45668 10.9979 4.23019 10.996 3.99698C10.9994 3.93387 10.994 3.87059 10.98 3.80898C10.9288 3.55248 10.7805 3.32568 10.566 3.17598C10.3902 3.05616 10.1808 2.99536 9.96813 3.00237C9.75548 3.00938 9.55056 3.08384 9.383 3.21498C9.359 3.23498 9.039 3.55098 8.672 3.91798C8.305 4.28098 8.004 4.58197 8 4.58197C8 4.58197 7.687 4.27698 7.316 3.90198C6.57 3.15998 6.594 3.17998 6.449 3.10898C6.34072 3.05306 6.22311 3.01747 6.102 3.00398C6.0394 3.00004 5.97661 3.00004 5.914 3.00398Z" fill="#202020"/>
</g>
<defs>
<clipPath id="clip0_2064_46651">
<rect width="12" height="12" fill="white"/>
</clipPath>
</defs>
</svg>
