<svg width="12" height="12" viewBox="0 0 12 12" fill="none" xmlns="http://www.w3.org/2000/svg">
<g clip-path="url(#clip0_2064_46936)">
<path d="M1.844 0.00806307C1.57507 0.027987 1.31305 0.102663 1.07402 0.227508C0.834993 0.352353 0.624002 0.524732 0.454 0.734063C0.189471 1.05256 0.0329454 1.44685 0.007 1.86006C0 1.92206 0 3.13306 0 6.06006L0.004 10.1691L0.016 10.2591C0.051 10.4931 0.106 10.6771 0.207 10.8791C0.313 11.0951 0.43 11.2591 0.605 11.4311C0.945 11.7671 1.379 11.9581 1.863 11.9931C1.922 12.0001 3.156 12.0001 6.06 12.0001L10.169 11.9961L10.259 11.9841C10.6229 11.938 10.9666 11.7908 11.251 11.5591C11.6529 11.2356 11.9156 10.7703 11.985 10.2591C11.997 10.1721 11.997 10.1451 12.001 9.57006C12.001 9.16006 12.001 8.95306 11.997 8.90606C11.9849 8.78213 11.9492 8.66165 11.892 8.55106C11.7752 8.31767 11.5715 8.13944 11.3246 8.05472C11.0777 7.97001 10.8075 7.98557 10.572 8.09806C10.4688 8.14633 10.3758 8.21388 10.298 8.29706C10.1692 8.41669 10.0781 8.57137 10.036 8.74206C10.005 8.86306 10.005 8.87906 10.005 9.46106V10.0001H2V1.99606H2.54C3.121 1.99606 3.137 1.99606 3.258 1.96506C3.535 1.89106 3.778 1.69106 3.902 1.43006C3.97041 1.28537 4.0032 1.12641 3.99763 0.966455C3.99205 0.806503 3.94829 0.650206 3.86998 0.510623C3.79167 0.371039 3.6811 0.252222 3.54749 0.164097C3.41389 0.0759728 3.26114 0.0210999 3.102 0.00406307C2.68267 -0.00042946 2.26329 0.000904002 1.844 0.00806307Z" fill="#202020"/>
<path d="M6.23 1.00806C6.06275 1.02617 5.90289 1.08665 5.76553 1.18376C5.62816 1.28088 5.51784 1.41143 5.445 1.56306C5.35299 1.74765 5.3215 1.95655 5.355 2.16006C5.375 2.28506 5.41 2.38306 5.469 2.48806C5.531 2.59806 5.566 2.63706 6 3.07406L6.414 3.48806L4.906 5.00006C3.629 6.28106 3.386 6.52006 3.356 6.56606C3.23003 6.74405 3.16575 6.95836 3.17297 7.17629C3.18019 7.39423 3.25852 7.60381 3.396 7.77306C3.434 7.82406 4.23 8.61706 4.273 8.64806C4.59 8.88706 5.02 8.91806 5.359 8.73006C5.492 8.65606 5.414 8.73006 7.031 7.11706L8.54 5.61006L8.939 6.00906C9.317 6.39206 9.388 6.45406 9.474 6.50906C9.567 6.56706 9.692 6.61906 9.802 6.64206C9.876 6.65706 10.032 6.66206 10.114 6.65306C10.3262 6.62672 10.5247 6.53403 10.6811 6.38821C10.8375 6.2424 10.9439 6.05091 10.985 5.84106C10.997 5.79106 10.997 5.69606 10.997 3.83306V1.87906L10.981 1.81206C10.9459 1.62778 10.8595 1.45714 10.7318 1.31971C10.6041 1.18228 10.4402 1.08362 10.259 1.03506C10.125 1.00006 10.254 1.00006 8.164 1.00406C7.109 1.00406 6.238 1.00406 6.23 1.00806Z" fill="#202020"/>
</g>
<defs>
<clipPath id="clip0_2064_46936">
<rect width="12" height="12" fill="white"/>
</clipPath>
</defs>
</svg>
