<svg width="12" height="12" viewBox="0 0 12 12" fill="none" xmlns="http://www.w3.org/2000/svg">
<g clip-path="url(#clip0_2435_42096)">
<path d="M5.813 0.00376528C5.127 0.047554 4.4767 0.324976 3.97034 0.78985C3.46398 1.25472 3.13212 1.879 3.03 2.55877C3.003 2.76177 3.003 2.71077 2.999 3.89477V4.99577L2.95 4.99977C2.809 5.00777 2.734 5.01577 2.656 5.03077C2.25 5.10077 1.879 5.29277 1.59 5.58177C1.27174 5.89474 1.06934 6.3066 1.016 6.74977C1.004 6.82377 1.004 6.91377 1.004 8.49977C1.004 10.2698 1.004 10.1908 1.031 10.3518C1.10668 10.779 1.31968 11.17 1.63768 11.4652C1.95567 11.7605 2.36129 11.9439 2.793 11.9878C2.895 11.9998 9.105 11.9998 9.207 11.9878C9.67161 11.9406 10.1049 11.7318 10.4312 11.3976C10.7574 11.0635 10.9559 10.6254 10.992 10.1598C10.996 10.1128 11 9.55477 10.996 8.44977C10.996 6.64477 10.996 6.79277 10.961 6.60177C10.9017 6.30625 10.7759 6.02812 10.5931 5.78848C10.4103 5.54885 10.1753 5.35401 9.906 5.21877C9.69282 5.1088 9.46136 5.03865 9.223 5.01177C9.156 5.00377 8.988 4.99977 7.074 4.99977L5 4.99577V3.98377C5 3.33577 5 2.94877 5.004 2.90977C5.0229 2.67961 5.12104 2.46313 5.28168 2.29722C5.44233 2.13132 5.65554 2.02626 5.88497 1.99996C6.1144 1.97365 6.34585 2.02773 6.53988 2.15297C6.7339 2.27821 6.87849 2.46686 6.949 2.68677C6.98 2.78077 6.996 2.87077 7.004 3.01177C7.00135 3.14234 7.02801 3.27185 7.082 3.39077C7.132 3.51577 7.192 3.60077 7.297 3.70677C7.383 3.79277 7.469 3.85177 7.57 3.90177C7.934 4.06977 8.36 4.01577 8.656 3.75377C8.75373 3.66864 8.8336 3.56497 8.891 3.44877C8.984 3.26577 9.008 3.11677 8.996 2.85877C8.96945 2.3113 8.79391 1.78147 8.48833 1.32645C8.18275 0.871424 7.75872 0.508477 7.262 0.276765C6.80835 0.0682693 6.3104 -0.0254829 5.812 0.00376528H5.813ZM7.109 7.50377C7.3206 7.52656 7.51934 7.61653 7.67609 7.7605C7.83283 7.90447 7.93934 8.09486 7.98 8.30377C7.9944 8.36804 7.99978 8.43401 7.996 8.49977C7.99747 8.63103 7.97257 8.76125 7.92275 8.8827C7.87293 9.00415 7.79922 9.11435 7.706 9.20677C7.59266 9.32003 7.45376 9.4044 7.301 9.45277C7.156 9.49977 7.261 9.49577 5.996 9.49577H4.867L4.805 9.47976C4.61069 9.44253 4.43219 9.34736 4.293 9.20677C4.18415 9.09974 4.10173 8.96883 4.05226 8.82442C4.0028 8.68 3.98764 8.52605 4.008 8.37477C4.03634 8.15272 4.13835 7.94661 4.29772 7.78942C4.45709 7.63223 4.66459 7.53305 4.887 7.50777C4.945 7.49977 7.047 7.49977 7.109 7.50377Z" fill="currentColor"/>
</g>
<defs>
<clipPath id="clip0_2435_42096">
<rect width="12" height="12" fill="white"/>
</clipPath>
</defs>
</svg>
