<svg width="12" height="12" viewBox="0 0 12 12" fill="none" xmlns="http://www.w3.org/2000/svg">
<g clip-path="url(#clip0_2064_47220)">
<path d="M5.813 0.00400943C5.127 0.0477981 4.4767 0.32522 3.97034 0.790094C3.46398 1.25497 3.13212 1.87925 3.03 2.55901C3.003 2.76201 3.003 2.71101 2.999 3.89501V4.99601L2.95 5.00001C2.809 5.00801 2.734 5.01601 2.656 5.03101C2.25 5.10101 1.879 5.29301 1.59 5.58201C1.27174 5.89498 1.06934 6.30685 1.016 6.75001C1.004 6.82401 1.004 6.91401 1.004 8.50001C1.004 10.27 1.004 10.191 1.031 10.352C1.10668 10.7793 1.31968 11.1702 1.63768 11.4655C1.95567 11.7607 2.36129 11.9442 2.793 11.988C2.895 12 9.105 12 9.207 11.988C9.67161 11.9409 10.1049 11.732 10.4312 11.3979C10.7574 11.0638 10.9559 10.6256 10.992 10.16C10.996 10.113 11 9.55501 10.996 8.45001C10.996 6.64501 10.996 6.79301 10.961 6.60201C10.9017 6.30649 10.7759 6.02836 10.5931 5.78873C10.4103 5.54909 10.1753 5.35426 9.906 5.21901C9.69282 5.10904 9.46136 5.0389 9.223 5.01201C9.156 5.00401 8.988 5.00001 7.074 5.00001L5 4.99601V3.98401C5 3.33601 5 2.94901 5.004 2.91001C5.0229 2.67985 5.12104 2.46337 5.28168 2.29747C5.44233 2.13156 5.65554 2.02651 5.88497 2.0002C6.1144 1.9739 6.34585 2.02797 6.53988 2.15321C6.7339 2.27845 6.87849 2.4671 6.949 2.68701C6.98 2.78101 6.996 2.87101 7.004 3.01201C7.00135 3.14258 7.02801 3.27209 7.082 3.39101C7.132 3.51601 7.192 3.60101 7.297 3.70701C7.383 3.79301 7.469 3.85201 7.57 3.90201C7.934 4.07001 8.36 4.01601 8.656 3.75401C8.75373 3.66888 8.8336 3.56522 8.891 3.44901C8.984 3.26601 9.008 3.11701 8.996 2.85901C8.96945 2.31154 8.79391 1.78171 8.48833 1.32669C8.18275 0.871668 7.75872 0.508722 7.262 0.277009C6.80835 0.0685135 6.3104 -0.0252387 5.812 0.00400943H5.813ZM7.109 7.50401C7.3206 7.5268 7.51934 7.61677 7.67609 7.76074C7.83283 7.90471 7.93934 8.0951 7.98 8.30401C7.9944 8.36828 7.99978 8.43425 7.996 8.50001C7.99747 8.63127 7.97257 8.76149 7.92275 8.88294C7.87293 9.00439 7.79922 9.11459 7.706 9.20701C7.59266 9.32027 7.45376 9.40464 7.301 9.45301C7.156 9.50001 7.261 9.49601 5.996 9.49601H4.867L4.805 9.48001C4.61069 9.44278 4.43219 9.34761 4.293 9.20701C4.18415 9.09998 4.10173 8.96907 4.05226 8.82466C4.0028 8.68025 3.98764 8.5263 4.008 8.37501C4.03634 8.15297 4.13835 7.94685 4.29772 7.78966C4.45709 7.63247 4.66459 7.53329 4.887 7.50801C4.945 7.50001 7.047 7.50001 7.109 7.50401Z" fill="#202020"/>
</g>
<defs>
<clipPath id="clip0_2064_47220">
<rect width="12" height="12" fill="white"/>
</clipPath>
</defs>
</svg>
