<svg width="12" height="12" viewBox="0 0 12 12" fill="none" xmlns="http://www.w3.org/2000/svg">
<path d="M5.91 0.00392022C5.73728 0.0204839 5.57175 0.0812641 5.42935 0.180401C5.28695 0.279538 5.17249 0.413689 5.097 0.56992C5.04239 0.68255 5.01078 0.804933 5.004 0.92992C5 0.97292 5 1.56592 5 2.29292V3.58192L4.059 2.64492C3.461 2.04692 3.102 1.69492 3.074 1.67192C2.88859 1.52977 2.65949 1.45658 2.426 1.46492C2.28916 1.47048 2.1549 1.50401 2.03151 1.56343C1.90811 1.62286 1.7982 1.70693 1.70854 1.81046C1.61887 1.91399 1.55136 2.03478 1.51017 2.1654C1.46897 2.29601 1.45496 2.43368 1.469 2.56992C1.492 2.76192 1.559 2.92192 1.672 3.07392C1.695 3.10192 2.047 3.46092 2.645 4.05892L3.582 4.99592H2.293C1.566 4.99592 0.973003 4.99992 0.930003 5.00392C0.617003 5.02692 0.340003 5.18792 0.164003 5.44892C0.0371582 5.64273 -0.0180185 5.87476 0.0080031 6.10492C0.0296535 6.34251 0.137841 6.56387 0.312003 6.72692C0.480003 6.88292 0.695003 6.97992 0.930003 6.99692C0.973003 6.99992 1.566 6.99992 2.293 6.99992H3.582L2.641 7.94492C2.051 8.53492 1.687 8.90192 1.668 8.92992C1.56346 9.06552 1.49559 9.22576 1.47095 9.3952C1.44631 9.56464 1.46572 9.73757 1.52731 9.89733C1.58891 10.0571 1.69061 10.1983 1.82261 10.3073C1.95462 10.4164 2.11249 10.4896 2.281 10.5199C2.34297 10.5313 2.40612 10.535 2.469 10.5309C2.574 10.5309 2.594 10.5309 2.66 10.5159C2.81091 10.4868 2.95279 10.4224 3.074 10.3279C3.102 10.3049 3.461 9.95292 4.059 9.35492L5 8.41792V9.70692C5 10.4339 5 11.0269 5.004 11.0699C5.01528 11.2382 5.06894 11.4009 5.16 11.5429C5.437 11.9689 5.992 12.1209 6.45 11.8949C6.56881 11.8354 6.67434 11.7524 6.76026 11.651C6.84619 11.5496 6.91073 11.4319 6.95 11.3049C6.97621 11.2277 6.99169 11.1473 6.996 11.0659C7 11.0229 7.004 10.4799 7.004 9.70692V8.41792L7.941 9.35492C8.457 9.87092 8.895 10.3049 8.914 10.3199C9.051 10.4219 9.18 10.4799 9.34 10.5159C9.4039 10.5306 9.46962 10.5356 9.535 10.5309C9.637 10.5309 9.665 10.5309 9.719 10.5199C10.129 10.4379 10.438 10.1289 10.519 9.71892C10.531 9.66392 10.531 9.63692 10.531 9.53092C10.531 9.42592 10.531 9.40592 10.516 9.33992C10.4869 9.18901 10.4225 9.04714 10.328 8.92592C10.007 8.59428 9.68268 8.26593 9.355 7.94092L8.418 6.99992H9.707C10.434 6.99992 11.027 6.99992 11.07 6.99592C11.324 6.97592 11.547 6.87092 11.723 6.69092C12.012 6.38692 12.082 5.92992 11.895 5.55092C11.8268 5.4162 11.7293 5.29852 11.6095 5.20661C11.4897 5.11469 11.3508 5.05089 11.203 5.01992L11.07 5.00392C10.6157 4.9967 10.1614 4.99403 9.707 4.99592H8.418L9.355 4.05892C10.32 3.09392 10.332 3.08192 10.398 2.97292C10.449 2.88292 10.492 2.77292 10.516 2.65992C10.531 2.59392 10.531 2.57392 10.531 2.46492C10.531 2.36292 10.531 2.33492 10.52 2.28092C10.4676 2.01674 10.3131 1.78389 10.09 1.63292C9.9827 1.55957 9.86156 1.50887 9.734 1.48392C9.668 1.46892 9.648 1.46892 9.535 1.46892C9.425 1.46892 9.406 1.46892 9.34 1.48392C9.18909 1.51301 9.04722 1.57744 8.926 1.67192C8.898 1.69492 8.539 2.04692 7.941 2.64492L7.004 3.58192V2.29292C7.004 1.56592 7 0.97292 6.996 0.92992C6.98669 0.797374 6.95106 0.668012 6.89118 0.549393C6.83131 0.430774 6.7484 0.325276 6.64729 0.239064C6.54618 0.152853 6.42891 0.087655 6.30231 0.047281C6.17572 0.00690712 6.04236 -0.00783358 5.91 0.00392022Z" fill="#202020"/>
</svg>
