<svg width="12" height="12" viewBox="0 0 12 12" fill="none" xmlns="http://www.w3.org/2000/svg">
<g clip-path="url(#clip0_2064_48630)">
<path d="M5.727 0.00394259C4.72944 0.0495554 3.75877 0.341957 2.902 0.854943C2.402 1.15594 1.906 1.56594 1.504 2.01994C0.908875 2.6917 0.472441 3.4887 0.227001 4.35194C0.113001 4.76194 0.0430012 5.15994 0.0120012 5.63194C-0.0429003 6.51063 0.0956926 7.39066 0.418001 8.20994C0.737537 9.01809 1.22906 9.74704 1.85848 10.3462C2.48789 10.9454 3.24013 11.4005 4.063 11.6799C4.94257 11.9801 5.87978 12.0723 6.80097 11.9491C7.72216 11.8259 8.60223 11.4907 9.372 10.9699C10.3163 10.3263 11.0584 9.4278 11.512 8.37894C11.8346 7.62887 11.9993 6.82043 11.996 6.00394C11.996 5.73394 11.992 5.63294 11.969 5.40994C11.8768 4.42466 11.5399 3.47801 10.989 2.65594C10.4997 1.92481 9.85517 1.31053 9.10141 0.856819C8.34765 0.40311 7.50314 0.121128 6.628 0.0309426C6.3281 0.00469144 6.02694 -0.00432339 5.726 0.00394259H5.727ZM8.09 5.00394C8.406 5.03494 8.684 5.20694 8.855 5.47694C9.043 5.78494 9.047 6.19494 8.863 6.50694C8.695 6.78494 8.414 6.96494 8.09 6.99694C8 7.00394 4 7.00394 3.91 6.99694C3.68012 6.97664 3.46444 6.87706 3.29989 6.71525C3.13534 6.55343 3.03216 6.33946 3.008 6.10994C2.99229 5.97864 3.00323 5.84551 3.04017 5.71853C3.07711 5.59155 3.1393 5.47333 3.223 5.37094C3.266 5.32094 3.348 5.23794 3.395 5.20294C3.539 5.09294 3.723 5.02294 3.902 5.00294C3.98 4.99594 8.012 4.99594 8.09 5.00294V5.00394Z" fill="#202020"/>
</g>
<defs>
<clipPath id="clip0_2064_48630">
<rect width="12" height="12" fill="white"/>
</clipPath>
</defs>
</svg>
