<svg width="12" height="12" viewBox="0 0 12 12" fill="none" xmlns="http://www.w3.org/2000/svg">
<path d="M0.921997 5.00405C0.78871 5.01397 0.658793 5.05067 0.540017 5.11196C0.421241 5.17325 0.316044 5.25786 0.230719 5.36074C0.145393 5.46361 0.0816915 5.58264 0.0434231 5.7107C0.0051547 5.83876 -0.00689432 5.97322 0.00799666 6.10605C0.0301222 6.34293 0.138271 6.5635 0.311997 6.72605C0.479997 6.88305 0.694997 6.98005 0.929997 6.99605C1.031 7.00405 10.969 7.00405 11.07 6.99605C11.324 6.97605 11.547 6.87105 11.723 6.69105C12.012 6.38705 12.082 5.93005 11.895 5.55105C11.8268 5.41632 11.7293 5.29865 11.6095 5.20673C11.4897 5.11482 11.3508 5.05102 11.203 5.02005L11.07 5.00405C10.98 4.99605 1.008 4.99605 0.921997 5.00405Z" fill="currentColor"/>
</svg>
