<svg width="12" height="12" viewBox="0 0 12 12" fill="none" xmlns="http://www.w3.org/2000/svg">
<path d="M2.813 0.00400969C2.36771 0.032939 1.93441 0.160448 1.54442 0.377318C1.15443 0.594188 0.817508 0.895 0.557998 1.25801C0.249998 1.68801 0.0739978 2.16001 0.0119978 2.71001C0.0039978 2.80401 0.0039978 2.97201 0.0039978 5.99101C0.0039978 9.32701 0.0039978 9.20601 0.0269978 9.39701C0.0817393 9.80505 0.220017 10.1974 0.433195 10.5496C0.646374 10.9018 0.929876 11.2063 1.266 11.444C1.73293 11.7771 2.28605 11.9684 2.859 11.995C3.117 12.007 3.266 11.979 3.449 11.89C3.6499 11.7903 3.81131 11.6257 3.90713 11.4229C4.00295 11.2201 4.02759 10.9909 3.97706 10.7724C3.92653 10.5539 3.80379 10.3587 3.62867 10.2186C3.45355 10.0784 3.23629 10.0014 3.012 10C2.76022 10.0033 2.5165 9.91135 2.3296 9.74262C2.1427 9.57389 2.02641 9.34081 2.004 9.09001C1.996 9.00401 1.996 2.99601 2.004 2.91001C2.026 2.67717 2.12852 2.45929 2.2939 2.29391C2.45928 2.12853 2.67716 2.02601 2.91 2.00401C2.996 1.99601 6.004 1.99601 6.09 2.00401C6.492 2.04301 6.82 2.30401 6.95 2.68701C6.98 2.78101 6.996 2.87101 7.004 3.01201C7.00135 3.14258 7.02801 3.27209 7.082 3.39101C7.132 3.51601 7.192 3.60101 7.297 3.70701C7.383 3.79301 7.469 3.85201 7.57 3.90201C7.934 4.07001 8.36 4.01601 8.656 3.75401C8.75373 3.66888 8.8336 3.56522 8.891 3.44901C8.984 3.26601 9.008 3.11701 8.996 2.85901C8.96099 2.13983 8.66933 1.45703 8.17395 0.934493C7.67857 0.411958 7.01229 0.084314 6.296 0.0110097C6.216 0.00500969 6.079 0.00500969 4.547 0.00500969C3.634 0.00100969 2.853 0.00400969 2.813 0.00400969Z" fill="currentColor"/>
<path d="M3.871 4.00801C3.67995 4.03589 3.50015 4.11542 3.351 4.23801C3.191 4.37501 3.066 4.57801 3.023 4.78901C2.97127 5.02916 3.01002 5.27995 3.13182 5.49329C3.25362 5.70662 3.44989 5.86748 3.683 5.94501C3.843 6.00001 3.859 6.00001 4.543 6.00001C5.153 5.99601 5.141 5.99601 5.25 5.96901C5.441 5.91801 5.621 5.80901 5.75 5.66401C5.88157 5.51356 5.9652 5.32722 5.99014 5.12891C6.01509 4.9306 5.98021 4.72936 5.89 4.55101C5.84444 4.45504 5.78251 4.36773 5.707 4.29301C5.63311 4.21626 5.54563 4.15387 5.449 4.10901C5.36886 4.0675 5.28339 4.03722 5.195 4.01901C5.137 4.00801 5.129 4.00401 4.523 4.00401C4.18 4.00401 3.895 4.00401 3.871 4.00801ZM9.734 4.41801C9.5451 4.43389 9.36418 4.50134 9.211 4.61301C9.164 4.65301 5.671 8.13701 5.605 8.21501C5.51661 8.32341 5.45036 8.4481 5.41 8.58201C5.402 8.60501 5.332 9.01601 5.254 9.48801C5.109 10.336 5.109 10.352 5.109 10.414C5.11235 10.5322 5.15979 10.645 5.242 10.73C5.28733 10.7811 5.34334 10.8217 5.40606 10.8488C5.46878 10.876 5.53669 10.889 5.605 10.887C5.668 10.887 5.742 10.879 6.504 10.75C6.961 10.672 7.355 10.605 7.379 10.598C7.492 10.574 7.625 10.512 7.723 10.445C7.762 10.418 8.09 10.094 9.551 8.63301C10.527 7.65601 11.344 6.84001 11.363 6.81601C11.4541 6.70289 11.5194 6.5713 11.5544 6.43038C11.5895 6.28947 11.5934 6.14261 11.566 6.00001C11.5356 5.83857 11.4659 5.6871 11.363 5.55901C11.343 5.53501 11.129 5.31601 10.883 5.07401C10.473 4.66401 10.433 4.62901 10.375 4.59001C10.2805 4.52282 10.1744 4.47367 10.062 4.44501C9.95452 4.42039 9.84406 4.41129 9.734 4.41801Z" fill="currentColor"/>
</svg>
