<svg width="12" height="12" viewBox="0 0 12 12" fill="none" xmlns="http://www.w3.org/2000/svg">
<g clip-path="url(#clip0_2064_50046)">
<path d="M1.8 1.00791C1.26824 1.06479 0.780149 1.32841 0.441 1.74191C0.223 2.01991 0.082 2.33191 0.027 2.67191C0 2.82391 0 2.87491 0 3.45291V3.99991H10.004V8.99991H8.98C8.3 8.99991 7.937 9.00391 7.898 9.00791C7.76464 9.02128 7.63535 9.06145 7.5179 9.12602C7.40044 9.19059 7.29725 9.27823 7.2145 9.38367C7.13175 9.48911 7.07116 9.61018 7.03637 9.73962C7.00157 9.86906 6.99328 10.0042 7.012 10.1369C7.062 10.4769 7.262 10.7539 7.566 10.8979C7.652 10.9379 7.719 10.9609 7.813 10.9799L7.879 10.9959H9.023C10.285 10.9959 10.211 10.9959 10.403 10.9569C10.6837 10.8985 10.9487 10.7809 11.1803 10.6119C11.4119 10.4429 11.6047 10.2264 11.746 9.97691C11.891 9.71891 11.969 9.44491 11.996 9.14491C12.004 9.03891 12.004 2.92991 11.996 2.83191C11.967 2.49085 11.8508 2.16299 11.6585 1.87981C11.4662 1.59664 11.2043 1.36767 10.898 1.21491C10.7061 1.11581 10.4989 1.04988 10.285 1.01991L10.203 1.00391H6.027C3.699 1.00391 1.828 1.00391 1.801 1.00791H1.8Z" fill="#202020"/>
<path d="M2.91 5.00391C2.82781 5.01356 2.7493 5.04347 2.68151 5.09095C2.61373 5.13842 2.55878 5.20198 2.52162 5.27593C2.48445 5.34987 2.46621 5.43188 2.46855 5.5146C2.47088 5.59733 2.49372 5.67818 2.535 5.74991C2.559 5.79291 2.598 5.83191 2.867 6.10191C3.035 6.26991 3.172 6.40991 3.172 6.41391C3.172 6.41791 2.695 6.89091 2.117 7.46891C1.75399 7.82727 1.39596 8.19064 1.043 8.55891C0.989122 8.64596 0.962522 8.74714 0.966621 8.84943C0.97072 8.95172 1.00533 9.05045 1.066 9.13291C1.082 9.15291 1.266 9.33591 1.476 9.54691C1.867 9.93691 1.886 9.95691 1.969 9.99191C2.03257 10.0189 2.10093 10.0328 2.17 10.0328C2.23907 10.0328 2.30743 10.0189 2.371 9.99191C2.457 9.95291 2.43 9.97991 3.531 8.87891L4.59 7.82391L4.898 8.13291C5.223 8.45691 5.23 8.46491 5.316 8.49991C5.398 8.53253 5.48718 8.54287 5.57447 8.52987C5.66176 8.51688 5.74406 8.48101 5.813 8.42591C5.88052 8.37391 5.93299 8.30488 5.965 8.22591C6.004 8.12991 6 8.22691 6 6.76991C6 5.58191 6 5.43791 5.992 5.39791C5.96479 5.27889 5.89732 5.17292 5.801 5.09791C5.74568 5.0613 5.68493 5.03362 5.621 5.01591L5.574 4.99991H4.266C3.546 4.99991 2.937 4.99991 2.91 5.00391Z" fill="#202020"/>
</g>
<defs>
<clipPath id="clip0_2064_50046">
<rect width="12" height="12" fill="white"/>
</clipPath>
</defs>
</svg>
