<svg width="12" height="12" viewBox="0 0 12 12" fill="none" xmlns="http://www.w3.org/2000/svg">
<path d="M5.89 1.00391C5.65825 1.03086 5.44311 1.1376 5.28145 1.30582C5.11979 1.47405 5.0217 1.69327 5.004 1.92591C4.996 2.02691 4.996 4.96491 5.004 5.06991C5.01527 5.23821 5.06894 5.40092 5.16 5.54291C5.437 5.96891 5.992 6.12091 6.45 5.89491C6.5688 5.83534 6.67433 5.75236 6.76026 5.65097C6.84618 5.54958 6.91072 5.43187 6.95 5.30491C6.9762 5.22772 6.99168 5.1473 6.996 5.06591C7.004 4.97291 7.004 2.03591 6.996 1.93391C6.98146 1.71487 6.89525 1.50671 6.75067 1.34153C6.60609 1.17635 6.41118 1.06333 6.196 1.01991C6.152 1.00791 6.113 1.00791 6.023 1.00391H5.89Z" fill="currentColor"/>
<path d="M3.04 2.17991C2.92287 2.19983 2.80932 2.23689 2.703 2.28991C2.59 2.35191 2.527 2.39791 2.41 2.51991C1.59732 3.36099 1.103 4.45889 1.012 5.62491C1.004 5.74591 1.004 6.25791 1.012 6.37491C1.035 6.61291 1.059 6.78891 1.098 6.97691C1.31081 8.0538 1.87369 9.03013 2.699 9.75391C3.46674 10.4287 4.42246 10.8527 5.438 10.9689C5.648 10.9919 5.711 10.9959 6.004 10.9959C6.293 10.9959 6.344 10.9919 6.566 10.9689C7.44818 10.8694 8.28743 10.5348 8.996 9.99991C9.312 9.76591 9.606 9.48791 9.852 9.18691C10.43 8.48791 10.812 7.63291 10.945 6.74191C10.9864 6.47198 11.0035 6.19888 10.996 5.92591C10.9963 5.74445 10.986 5.56314 10.965 5.38291C10.8354 4.37952 10.408 3.43801 9.738 2.67991C9.64921 2.58021 9.55543 2.48509 9.457 2.39491C9.33081 2.29305 9.18194 2.22308 9.023 2.19091C8.90043 2.17241 8.77585 2.1714 8.653 2.18791C8.433 2.22691 8.223 2.34791 8.082 2.50791C7.95083 2.65452 7.86632 2.83689 7.83925 3.03174C7.81218 3.22659 7.84377 3.42509 7.93 3.60191C7.977 3.70291 8.035 3.78191 8.137 3.89491C8.45761 4.21827 8.69952 4.61107 8.844 5.04291C9.047 5.65591 9.051 6.31291 8.855 6.92191C8.735 7.29291 8.551 7.62191 8.289 7.93791C8.227 8.01191 8.012 8.22691 7.938 8.28891C7.44086 8.70854 6.821 8.95557 6.17151 8.99289C5.52201 9.03022 4.87793 8.85583 4.336 8.49591C4.1715 8.38664 4.01958 8.25954 3.883 8.11691C3.77869 8.02008 3.68453 7.91285 3.602 7.79691C3.15299 7.2007 2.94389 6.45779 3.016 5.71491C3.08175 5.02919 3.38072 4.38678 3.863 3.89491C3.926 3.82791 3.973 3.77291 4 3.72991C4.13153 3.53646 4.18969 3.30242 4.164 3.06991C4.14567 2.8794 4.0724 2.69833 3.95311 2.54867C3.83381 2.39902 3.67362 2.28724 3.492 2.22691C3.39701 2.19166 3.2963 2.17437 3.195 2.17591C3.129 2.17591 3.064 2.17591 3.04 2.17991Z" fill="currentColor"/>
</svg>
