<svg width="12" height="12" viewBox="0 0 12 12" fill="none" xmlns="http://www.w3.org/2000/svg">
<g clip-path="url(#clip0_2422_9309)">
<path d="M3.41 0.00407864C3.23968 0.0217419 3.07626 0.0807905 2.934 0.176079C2.816 0.258079 2.859 0.207079 1.496 1.84408C0.785997 2.69508 0.195996 3.41008 0.175996 3.43408C0.135996 3.49208 0.0819965 3.59808 0.0589965 3.67208C0.0119073 3.80707 -0.00562805 3.95061 0.00757767 4.09297C0.0207834 4.23532 0.0644219 4.37319 0.135539 4.49721C0.206656 4.62124 0.303591 4.72854 0.419781 4.81185C0.535972 4.89516 0.668706 4.95253 0.808996 4.98008C0.870325 4.99381 0.933227 4.99919 0.995996 4.99608C1.13039 4.99659 1.26354 4.97032 1.38768 4.91881C1.51181 4.8673 1.62444 4.79159 1.719 4.69608C1.739 4.67208 2.149 4.18708 2.625 3.61308C3.102 3.03908 3.496 2.57008 3.5 2.56608C3.5 2.56608 3.898 3.03908 4.383 3.62108C4.977 4.33208 5.277 4.69108 5.316 4.72708C5.46789 4.87011 5.66072 4.96205 5.86747 4.99003C6.07423 5.018 6.28455 4.98061 6.469 4.88308C6.55727 4.83777 6.63656 4.77677 6.703 4.70308C6.78644 4.62564 6.85432 4.53298 6.903 4.43008C6.9766 4.27445 7.00875 4.10245 6.99631 3.93075C6.98387 3.75904 6.92727 3.59347 6.832 3.45008C6.789 3.38208 4.282 0.370079 4.207 0.296079C4.1133 0.200816 4.0013 0.125485 3.87774 0.0746176C3.75418 0.0237499 3.62161 -0.0016046 3.488 7.86387e-05C3.457 7.86387e-05 3.422 0.00407864 3.41 0.00407864ZM10.39 2.41808C10.191 2.44108 10.035 2.50408 9.883 2.61808C9.843 2.64808 8.957 3.52808 6.297 6.18808C4.355 8.12808 2.734 9.75008 2.695 9.79308C2.54506 9.94718 2.44926 10.1458 2.422 10.3591C2.359 10.8291 2.648 11.2851 3.102 11.4341C3.215 11.4731 3.273 11.4801 3.414 11.4801C3.551 11.4801 3.614 11.4731 3.723 11.4371C3.797 11.4141 3.93 11.3471 3.996 11.2971C4.043 11.2661 4.582 10.7301 7.656 7.65708C10.742 4.57008 11.266 4.04308 11.296 3.99708C11.379 3.88308 11.441 3.73808 11.469 3.60208C11.484 3.52008 11.489 3.36708 11.477 3.28208C11.4431 3.04191 11.3237 2.82203 11.1407 2.66278C10.9578 2.50353 10.7235 2.41558 10.481 2.41508C10.441 2.41508 10.401 2.41808 10.39 2.41808Z" fill="currentColor"/>
</g>
<defs>
<clipPath id="clip0_2422_9309">
<rect width="12" height="12" fill="white"/>
</clipPath>
</defs>
</svg>
