<svg width="12" height="12" viewBox="0 0 12 12" fill="none" xmlns="http://www.w3.org/2000/svg">
<g clip-path="url(#clip0_2064_54108)">
<path d="M1.836 0.00801691C1.53448 0.0322377 1.24242 0.124672 0.981865 0.278334C0.721314 0.431997 0.499095 0.642869 0.332001 0.895017C0.156001 1.16502 0.0620009 1.41802 0.0120009 1.78102C8.63336e-07 1.85102 -0.00399914 10.008 0.00800086 10.141C0.0470009 10.731 0.336001 11.254 0.808001 11.605C1.113 11.835 1.468 11.965 1.863 11.992C1.922 12 3.148 12 6.06 12L10.169 11.996L10.259 11.984C10.5247 11.9503 10.7809 11.8629 11.0119 11.7273C11.2429 11.5917 11.444 11.4106 11.603 11.195C11.833 10.891 11.962 10.539 11.997 10.145C12.005 10.039 12.005 1.96102 11.993 1.85202C11.9601 1.38612 11.7645 0.946612 11.4404 0.610286C11.1163 0.273959 10.6844 0.0622025 10.22 0.0120169C10.156 1.69137e-05 1.94 1.69137e-05 1.836 0.00801691ZM6.617 2.22302C6.70499 2.24427 6.78558 2.28897 6.8502 2.35236C6.91482 2.41574 6.96106 2.49545 6.984 2.58302L7 2.62802V4.06502L7.004 5.50002H7.93C8.95 5.50002 8.895 5.50002 8.988 5.54002C9.10796 5.59112 9.20327 5.68698 9.25369 5.80723C9.3041 5.92748 9.30565 6.06264 9.258 6.18402C9.218 6.28502 9.305 6.19502 7.512 7.98802C6.94487 8.55923 6.3742 9.12691 5.8 9.69102C5.71497 9.7597 5.60827 9.79586 5.499 9.79302C5.38835 9.79231 5.281 9.75521 5.19353 9.68744C5.10606 9.61966 5.04332 9.52499 5.015 9.41802L5 9.37102V6.49602H4.07C3.05 6.49602 3.105 6.50002 3.012 6.46102C2.92578 6.42281 2.85149 6.362 2.797 6.28502C2.75147 6.21905 2.72235 6.14316 2.71209 6.06367C2.70183 5.98418 2.71071 5.90338 2.738 5.82802C2.778 5.71802 2.66 5.84002 4.484 4.01602C5.406 3.09402 6.18 2.32402 6.199 2.30902C6.25732 2.26342 6.3254 2.23193 6.39792 2.21701C6.47043 2.20209 6.54541 2.20415 6.617 2.22302Z" fill="#202020"/>
</g>
<defs>
<clipPath id="clip0_2064_54108">
<rect width="12" height="12" fill="white"/>
</clipPath>
</defs>
</svg>
