<svg width="12" height="12" viewBox="0 0 12 12" fill="none" xmlns="http://www.w3.org/2000/svg">
<path d="M7.207 0.504131C6.219 0.527131 5.453 0.867131 4.949 1.49213C4.641 1.87513 4.449 2.34813 4.371 2.92213C4.34 3.15213 4.34 3.13713 4.336 4.10213V4.99613H2.617L2.586 4.96513C2.38159 4.75299 2.11963 4.60522 1.83234 4.54002C1.54504 4.47481 1.24496 4.49501 0.968998 4.59813C0.718935 4.69129 0.498526 4.84999 0.330861 5.05759C0.163196 5.26519 0.0544439 5.51406 0.0159981 5.77813C0.000394422 5.92605 0.000394422 6.07521 0.0159981 6.22313C0.0563662 6.49808 0.172422 6.75639 0.351189 6.96916C0.529955 7.18193 0.764384 7.34078 1.02826 7.42794C1.29214 7.5151 1.57506 7.52714 1.84539 7.46272C2.11572 7.39829 2.3628 7.25994 2.559 7.06313L2.62 7.00013H4.335V7.89813C4.339 8.69113 4.339 8.80813 4.351 8.89813C4.386 9.25013 4.452 9.55813 4.561 9.83213C4.886 10.6641 5.561 11.2191 6.479 11.4141C6.644 11.4491 6.808 11.4731 7.03 11.4921C7.14 11.5001 10.933 11.5041 11.058 11.4961C11.2108 11.4865 11.3594 11.442 11.4923 11.366C11.6253 11.29 11.7391 11.1846 11.825 11.0579C11.9109 10.9311 11.9667 10.7864 11.988 10.6348C12.0093 10.4832 11.9956 10.3287 11.948 10.1831C11.8839 9.99632 11.7665 9.83237 11.6103 9.71152C11.4541 9.59068 11.2659 9.51823 11.069 9.50313C11.022 9.50013 10.261 9.49613 9.089 9.49613C7.819 9.49613 7.163 9.49613 7.12 9.49213C6.847 9.46913 6.655 9.40213 6.546 9.30113C6.444 9.20313 6.386 9.04713 6.346 8.78113C6.339 8.72313 6.335 8.61713 6.335 7.85913L6.332 7.00013H8.66C10.195 7.00013 11.016 7.00013 11.066 6.99613C11.2146 6.98634 11.3591 6.94335 11.4889 6.87031C11.6187 6.79728 11.7305 6.69607 11.816 6.57413C11.8688 6.49276 11.9133 6.40633 11.949 6.31613C11.989 6.18813 12.008 6.05113 11.996 5.91813C11.9777 5.69785 11.8868 5.48986 11.7378 5.32667C11.5887 5.16347 11.3897 5.05427 11.172 5.01613L11.105 5.00013H8.72L6.333 4.99613L6.337 4.14113C6.337 3.37113 6.341 3.27713 6.349 3.21513C6.384 2.95713 6.446 2.79713 6.548 2.69913C6.66213 2.60921 6.7981 2.55123 6.942 2.53113C7.099 2.50413 6.966 2.50413 9.102 2.50013C10.974 2.50013 11.099 2.49613 11.157 2.48813C11.313 2.46113 11.458 2.40213 11.591 2.30813C11.657 2.25813 11.767 2.14813 11.814 2.07813C11.86 2.01213 11.923 1.89513 11.95 1.81613C12.0162 1.61067 12.0162 1.38959 11.95 1.18413C11.9152 1.09228 11.8706 1.00444 11.817 0.92213C11.7311 0.801786 11.6197 0.701909 11.4908 0.629646C11.3618 0.557383 11.2185 0.514522 11.071 0.504131C11 0.500131 7.39 0.496131 7.207 0.504131Z" fill="#202020"/>
</svg>
