<svg width="12" height="12" viewBox="0 0 12 12" fill="none" xmlns="http://www.w3.org/2000/svg">
<path d="M4.887 0.00808438C4.492 0.0510844 4.157 0.332084 4.043 0.707084C4.01267 0.804076 3.99914 0.905536 4.003 1.00708C4.00159 1.26073 4.09959 1.50483 4.276 1.68708C4.42947 1.85209 4.6356 1.95852 4.859 1.98808C4.949 2.00408 7.051 2.00408 7.141 1.98808C7.35993 1.95902 7.56281 1.85743 7.71725 1.69955C7.87168 1.54168 7.96877 1.3366 7.993 1.11708C8.00883 0.985767 7.99835 0.852611 7.96216 0.725389C7.92598 0.598166 7.86482 0.479425 7.78225 0.376096C7.69968 0.272766 7.59735 0.186918 7.48124 0.123561C7.36514 0.0602044 7.23757 0.0206086 7.106 0.00708438C7.038 8.43797e-05 4.952 8.43797e-05 4.885 0.00808438H4.887Z" fill="#202020"/>
<path d="M2.813 1.00808L2.668 1.02808C2.23007 1.10131 1.82906 1.31847 1.52841 1.6452C1.22775 1.97194 1.04463 2.38959 1.008 2.83208C1.004 2.89508 1.004 3.88208 1.004 6.55508C1.004 9.94908 1.008 10.1951 1.016 10.2581C1.07384 10.7045 1.28084 11.1183 1.6034 11.4324C1.92596 11.7464 2.34516 11.9422 2.793 11.9881C2.895 12.0001 9.105 12.0001 9.207 11.9881C9.66973 11.9414 10.1015 11.7342 10.4276 11.4025C10.7536 11.0709 10.9533 10.6356 10.992 10.1721C11 10.0781 11 2.91808 10.992 2.82408C10.949 2.33541 10.7279 1.87958 10.3708 1.54327C10.0137 1.20697 9.54537 1.01365 9.055 1.00008H9V1.08608C8.992 1.23408 8.977 1.33608 8.941 1.48008C8.84366 1.87648 8.62718 2.23354 8.32073 2.50316C8.01428 2.77278 7.63257 2.94202 7.227 2.98808C7.152 3.00008 4.98 3.00408 4.852 2.99208C4.5689 2.97173 4.29325 2.892 4.043 2.75808C3.74027 2.59365 3.48533 2.35356 3.30306 2.06122C3.12078 1.76888 3.0174 1.43429 3.003 1.09008L3 1.00008L2.934 1.00408C2.898 1.00408 2.845 1.00808 2.813 1.00808ZM6.09 5.00408C6.27 5.02008 6.438 5.08208 6.582 5.18408C6.652 5.23408 6.766 5.34808 6.816 5.41808C6.863 5.48808 6.926 5.60908 6.949 5.68008C7.00725 5.85694 7.01548 6.04646 6.97277 6.2277C6.93006 6.40894 6.83808 6.57484 6.707 6.70708C6.5954 6.81992 6.45847 6.90449 6.30761 6.95375C6.15674 7.00302 5.99629 7.01555 5.83961 6.99032C5.68292 6.96508 5.53452 6.90281 5.40675 6.80867C5.27898 6.71454 5.17553 6.59126 5.105 6.44908C4.98776 6.20915 4.9684 5.93303 5.051 5.67908C5.074 5.60908 5.137 5.48908 5.184 5.41808C5.2856 5.27585 5.42273 5.16276 5.58172 5.09011C5.7407 5.01746 5.91596 4.9878 6.09 5.00408ZM6.227 8.01208C6.61292 8.05669 6.97752 8.21261 7.27636 8.46084C7.5752 8.70908 7.79536 9.03889 7.91 9.41008C7.957 9.55908 7.96 9.62508 7.93 9.71908C7.90418 9.78592 7.86199 9.84521 7.80731 9.89151C7.75262 9.93781 7.68718 9.96964 7.617 9.98408L7.567 10.0001H4.433L4.382 9.98408C4.31423 9.96618 4.25044 9.93565 4.194 9.89408C4.15017 9.85796 4.11463 9.81283 4.08979 9.76175C4.06494 9.71068 4.05137 9.65486 4.05 9.59808C4.05 9.47308 4.163 9.16808 4.288 8.96808C4.632 8.39808 5.218 8.04708 5.89 8.00008C5.956 7.99608 6.147 8.00408 6.226 8.01208H6.227Z" fill="#202020"/>
</svg>
