<svg width="12" height="12" viewBox="0 0 12 12" fill="none" xmlns="http://www.w3.org/2000/svg">
<g clip-path="url(#clip0_2064_55146)">
<path d="M9.398 0.719145C9.35171 0.728982 9.30719 0.745844 9.266 0.769145C9.20373 0.801116 9.14891 0.845882 9.10514 0.90051C9.06136 0.955139 9.02963 1.0184 9.012 1.08614C9.004 1.11714 9.004 1.16414 9 1.55914V1.99614L8.79 2.00414C8.19754 2.01674 7.61524 2.16059 7.08507 2.42533C6.5549 2.69008 6.09004 3.06911 5.724 3.53515L5.704 3.55914L5.648 3.48915C5.00457 2.69273 4.08069 2.17282 3.066 2.03614C2.813 2.00414 2.813 2.00414 1.875 2.00014C0.996001 1.99614 0.910001 2.00014 0.809001 2.02014C0.659528 2.04899 0.518677 2.11177 0.39731 2.20367C0.275944 2.29556 0.177305 2.4141 0.109001 2.55014C0.0374973 2.68937 0.000200204 2.84363 0.000200204 3.00014C0.000200204 3.15666 0.0374973 3.31092 0.109001 3.45015C0.242001 3.71515 0.492001 3.91015 0.785001 3.97714C0.883001 3.99714 0.887001 3.99714 1.816 4.00014C2.715 4.00414 2.734 4.00814 2.812 4.02014C3.047 4.05515 3.238 4.11314 3.43 4.21014C3.633 4.31314 3.785 4.42214 3.945 4.58614C4.102 4.73814 4.207 4.87915 4.305 5.06614C4.34 5.13615 4.613 5.72315 4.613 5.73415C4.613 5.74215 4.332 6.37514 4.297 6.44515C4.13664 6.75025 3.90297 7.01072 3.617 7.20315C3.35361 7.37887 3.05243 7.48989 2.738 7.52714C2.672 7.53514 2.551 7.53914 1.766 7.53914L0.871001 7.54315L0.809001 7.55914C0.629804 7.59342 0.463431 7.67616 0.327968 7.79838C0.192506 7.92059 0.0931368 8.0776 0.040664 8.25234C-0.0118088 8.42708 -0.0153778 8.61286 0.0303449 8.78948C0.0760676 8.96611 0.169332 9.12682 0.300001 9.25414C0.468001 9.41414 0.670001 9.50815 0.901001 9.53115C0.976001 9.53915 2.558 9.53915 2.702 9.53115C3.29669 9.50441 3.87773 9.34411 4.402 9.06215C4.878 8.80914 5.331 8.42614 5.659 8.00414C5.69 7.96414 5.718 7.93414 5.718 7.93414C6.29179 8.7013 7.12232 9.23654 8.058 9.44215C8.338 9.50415 8.644 9.53914 8.925 9.53914H9V9.95315C9 10.4061 9 10.4261 9.031 10.5121C9.06271 10.5888 9.1123 10.6567 9.17562 10.7103C9.23894 10.7639 9.31416 10.8016 9.395 10.8201C9.4672 10.8318 9.5408 10.8318 9.613 10.8201C9.66985 10.8059 9.72392 10.7822 9.773 10.7501C9.809 10.7271 10.012 10.5271 10.734 9.80515C11.242 9.29714 11.668 8.86714 11.688 8.84414C11.7518 8.76059 11.7878 8.65923 11.7913 8.55418C11.7947 8.44914 11.7652 8.34565 11.707 8.25815C11.0769 7.61757 10.4429 6.98089 9.805 6.34815C9.73579 6.29592 9.65422 6.26255 9.56825 6.25129C9.48228 6.24004 9.39486 6.25129 9.31454 6.28394C9.23422 6.31659 9.16375 6.36953 9.11002 6.43757C9.05629 6.50562 9.02114 6.58644 9.008 6.67214C9.004 6.69514 9 6.88214 9 7.12514V7.53914H8.953C8.57791 7.54376 8.20907 7.4429 7.88852 7.24806C7.56797 7.05322 7.30861 6.77224 7.14 6.43714C7.07771 6.30642 7.0167 6.17508 6.957 6.04315L6.809 5.71914L6.945 5.41414C7.09 5.09015 7.125 5.02014 7.211 4.89114C7.3661 4.65576 7.56975 4.45626 7.80828 4.30604C8.04681 4.15581 8.31471 4.05834 8.594 4.02014C8.656 4.00814 8.714 4.00815 8.836 4.00415L9 4.00014V4.43815C9.004 4.83215 9.004 4.88314 9.012 4.91414C9.03044 4.98396 9.06364 5.049 9.10935 5.10489C9.15507 5.16079 9.21223 5.20622 9.277 5.23814C9.34572 5.27784 9.42491 5.29564 9.504 5.28914C9.55026 5.29221 9.59669 5.28679 9.641 5.27314C9.69358 5.25559 9.74341 5.23068 9.789 5.19914C9.832 5.16814 11.679 3.31614 11.707 3.28114C11.7629 3.1979 11.7927 3.09991 11.7927 2.99964C11.7927 2.89938 11.7629 2.80139 11.707 2.71814C11.0726 2.07461 10.4332 1.43592 9.789 0.802145C9.74385 0.769868 9.69391 0.744895 9.641 0.728145C9.5613 0.709649 9.47875 0.706931 9.398 0.720145V0.719145Z" fill="#202020"/>
</g>
<defs>
<clipPath id="clip0_2064_55146">
<rect width="12" height="12" fill="white"/>
</clipPath>
</defs>
</svg>
