<svg width="12" height="12" viewBox="0 0 12 12" fill="none" xmlns="http://www.w3.org/2000/svg">
<path d="M6.902 0.668148C6.555 0.707148 6.266 0.906148 6.109 1.21115C6.02816 1.36688 5.99062 1.54147 6.00029 1.71667C6.00997 1.89187 6.06651 2.06126 6.164 2.20715C6.195 2.25715 6.258 2.33615 6.281 2.35915L6.293 2.37115L3.797 4.86715C2.94793 5.71375 2.10126 6.56275 1.257 7.41415C1.0348 7.66755 0.879429 7.97245 0.805 8.30115C0.735 8.61715 0.745999 8.98115 0.834999 9.28515C0.843999 9.31215 0.852 9.34415 0.855 9.35515C0.934665 9.58337 1.05084 9.79715 1.199 9.98815C1.258 10.0581 1.789 10.6021 2.008 10.8131C2.086 10.8871 2.176 10.9691 2.207 10.9961C2.516 11.2461 2.867 11.3911 3.27 11.4341C3.367 11.4411 3.582 11.4411 3.687 11.4301C4.097 11.3791 4.461 11.2191 4.773 10.9531C4.797 10.9331 5.941 9.79315 7.32 8.41415L9.828 5.90615L9.84 5.91815L9.898 5.96815C10.031 6.07815 10.184 6.15215 10.363 6.18815C10.445 6.20315 10.633 6.19915 10.723 6.18415C10.9128 6.14753 11.088 6.0565 11.227 5.92215C11.4097 5.74847 11.5198 5.51195 11.5351 5.2603C11.5503 5.00864 11.4695 4.76058 11.309 4.56615C10.0886 3.33627 8.86321 2.11126 7.633 0.891148C7.42805 0.724475 7.1651 0.644454 6.902 0.668148ZM7.16 5.74615L5.902 7.00015H4.492L6.102 5.39515L7.707 3.78515L8.063 4.13715L8.414 4.49215L7.16 5.74615Z" fill="#202020"/>
</svg>
