<svg width="12" height="12" viewBox="0 0 12 12" fill="none" xmlns="http://www.w3.org/2000/svg">
<g clip-path="url(#clip0_2064_57877)">
<path d="M5.86 0.0429063C5.785 0.0629063 4.8 0.358906 3.672 0.698906C1.766 1.26891 1.172 1.44891 1.051 1.48391L1.004 1.49991V3.94991C1.004 5.58191 1.004 6.42591 1.008 6.49191C1.055 7.19891 1.278 7.87191 1.668 8.45691C1.898 8.80891 2.172 9.10891 2.504 9.37091C2.527 9.39091 3.324 9.99191 4.274 10.7029L6 11.9999L7.719 10.7099C8.31514 10.2672 8.90881 9.8212 9.5 9.37191C10.2909 8.73646 10.8124 7.82562 10.96 6.82191C11 6.55191 10.996 6.77791 10.996 4.00491V1.49991L8.508 0.753906C7.6757 0.500467 6.84236 0.250465 6.008 0.00390625C5.95719 0.0120655 5.90829 0.0251265 5.86 0.0429063ZM7.555 2.55491L8.996 2.98491L9 4.49091V5.99991H7.73C6.633 5.99991 6.457 5.99991 6.414 6.00791C6.3164 6.02474 6.22633 6.07117 6.156 6.14091C6.08769 6.20373 6.03906 6.28501 6.016 6.37491L6.004 6.41791L5.996 9.49991L4.88 8.65991C4.263 8.19491 3.743 7.80491 3.72 7.78491C3.48881 7.59404 3.30391 7.35324 3.1792 7.08061C3.05449 6.80798 2.99322 6.51063 3 6.21091V5.99991H4.266C5.672 5.99991 5.59 6.00391 5.687 5.95991C5.75233 5.93469 5.81113 5.89503 5.859 5.84391C5.90483 5.79832 5.9409 5.74388 5.965 5.68391C6.004 5.58991 6 5.70991 6 3.81191V2.08691L6.059 2.10691C6.089 2.11391 6.762 2.31591 7.555 2.55491Z" fill="currentColor"/>
</g>
<defs>
<clipPath id="clip0_2064_57877">
<rect width="12" height="12" fill="white"/>
</clipPath>
</defs>
</svg>
