<svg width="12" height="12" viewBox="0 0 12 12" fill="none" xmlns="http://www.w3.org/2000/svg">
<g clip-path="url(#clip0_2064_58723)">
<path d="M5.89 0.0349062C5.828 0.0509062 4.848 0.347906 3.703 0.687906L1.051 1.48391L1.004 1.49991V4.01591C1.004 6.78591 1.004 6.54591 1.039 6.81591C1.129 7.45291 1.387 8.08591 1.766 8.60191C1.976 8.88691 2.226 9.15191 2.496 9.37191C2.555 9.41391 4.836 11.1289 5.711 11.7819L6 11.9999L7.746 10.6909C8.36227 10.2315 8.97561 9.76813 9.586 9.30091C10.0853 8.87547 10.474 8.33539 10.719 7.72691C10.875 7.33191 10.969 6.90191 10.992 6.47291C10.996 6.39491 11 5.63291 10.996 3.92991V1.49991L8.508 0.753906C7.6757 0.500467 6.84236 0.250465 6.008 0.00390625C5.96789 0.00946359 5.9286 0.0198732 5.891 0.0349062H5.89ZM7.555 2.55491L8.996 2.98491V4.69891C8.996 6.30891 8.996 6.41791 8.988 6.48891C8.96598 6.64697 8.92813 6.80242 8.875 6.95291C8.84 7.04291 8.75 7.22691 8.695 7.30891C8.585 7.48391 8.445 7.64891 8.293 7.77291C8.246 7.81291 6.035 9.47691 6.008 9.49591C6 9.49591 6 8.75791 6 5.79291V2.08591L6.059 2.10591C6.089 2.11291 6.762 2.31591 7.555 2.55491Z" fill="#202020"/>
</g>
<defs>
<clipPath id="clip0_2064_58723">
<rect width="12" height="12" fill="white"/>
</clipPath>
</defs>
</svg>
