<svg width="12" height="12" viewBox="0 0 12 12" fill="none" xmlns="http://www.w3.org/2000/svg">
<path d="M3.36 0.00780344C3.07544 0.0343956 2.80427 0.1412 2.578 0.315803C2.26575 0.560497 2.06241 0.918311 2.012 1.3118C1.98243 1.53766 2.0055 1.76729 2.0794 1.98274C2.1533 2.1982 2.27603 2.39365 2.438 2.5538C2.484 2.6018 2.543 2.6558 2.566 2.6718C3.082 3.0778 3.796 3.1088 4.336 2.7458C4.559 2.5938 4.723 2.4058 4.844 2.1638C5.00524 1.83693 5.04221 1.4626 4.94802 1.1105C4.85384 0.758396 4.63491 0.452518 4.332 0.249803C4.14448 0.124693 3.93058 0.04461 3.707 0.0158034C3.59143 0.00340392 3.47602 0.000727852 3.36 0.00780344ZM8.363 0.00380344C8.0282 0.035419 7.71362 0.17826 7.46948 0.409537C7.22533 0.640813 7.06568 0.947197 7.016 1.2798C7 1.3778 7 1.6198 7.016 1.7138C7.06302 2.03587 7.21317 2.33401 7.44395 2.56353C7.67472 2.79304 7.97369 2.94156 8.296 2.9868C8.386 2.9988 8.613 2.9988 8.703 2.9868C8.867 2.9598 9.012 2.9168 9.148 2.8508C9.29327 2.78288 9.42558 2.69016 9.539 2.5768C9.723 2.4008 9.852 2.1978 9.926 1.9598C10.008 1.7098 10.02 1.4288 9.965 1.1698C9.91586 0.952684 9.81878 0.749303 9.68088 0.574548C9.54298 0.399793 9.36774 0.258087 9.168 0.159803C9.02897 0.0865757 8.87849 0.0375425 8.723 0.0148034C8.60338 0.0031003 8.48314 -0.000907951 8.363 0.00280344V0.00380344ZM3.36 4.5078C3.07544 4.5344 2.80427 4.6412 2.578 4.8158C2.26575 5.0605 2.06241 5.41831 2.012 5.8118C1.98243 6.03766 2.0055 6.26729 2.0794 6.48274C2.1533 6.6982 2.27603 6.89365 2.438 7.0538C2.484 7.1018 2.543 7.1558 2.566 7.1718C3.082 7.5778 3.796 7.6088 4.336 7.2458C4.559 7.0938 4.723 6.9058 4.844 6.6638C5.00524 6.33693 5.04221 5.9626 4.94802 5.6105C4.85384 5.2584 4.63491 4.95252 4.332 4.7498C4.14448 4.62469 3.93058 4.54461 3.707 4.5158C3.59143 4.5034 3.47602 4.50073 3.36 4.5078ZM8.363 4.5038C8.0282 4.53542 7.71362 4.67826 7.46948 4.90954C7.22533 5.14081 7.06568 5.4472 7.016 5.7798C7 5.8778 7 6.1198 7.016 6.2138C7.06302 6.53587 7.21317 6.83401 7.44395 7.06353C7.67472 7.29304 7.97369 7.44156 8.296 7.4868C8.386 7.4988 8.613 7.4988 8.703 7.4868C8.867 7.4598 9.012 7.4168 9.148 7.3508C9.29327 7.28288 9.42558 7.19016 9.539 7.0768C9.723 6.9008 9.852 6.6978 9.926 6.4598C10.008 6.2098 10.02 5.9288 9.965 5.6698C9.91586 5.45268 9.81878 5.2493 9.68088 5.07455C9.54298 4.89979 9.36774 4.75809 9.168 4.6598C9.02897 4.58658 8.87849 4.53754 8.723 4.5148C8.60338 4.5031 8.48314 4.49909 8.363 4.5028V4.5038ZM3.36 9.0078C3.07544 9.0344 2.80427 9.1412 2.578 9.3158C2.26575 9.5605 2.06241 9.91831 2.012 10.3118C1.98243 10.5377 2.0055 10.7673 2.0794 10.9827C2.1533 11.1982 2.27603 11.3936 2.438 11.5538C2.484 11.6018 2.543 11.6558 2.566 11.6718C3.082 12.0778 3.796 12.1088 4.336 11.7458C4.559 11.5938 4.723 11.4058 4.844 11.1638C5.00524 10.8369 5.04221 10.4626 4.94802 10.1105C4.85384 9.7584 4.63491 9.45252 4.332 9.2498C4.14448 9.12469 3.93058 9.04461 3.707 9.0158C3.59143 9.0034 3.47602 9.00073 3.36 9.0078ZM8.363 9.0038C8.02805 9.03547 7.71337 9.17845 7.4692 9.40993C7.22504 9.6414 7.06548 9.94802 7.016 10.2808C7 10.3788 7 10.6208 7.016 10.7148C7.06302 11.0369 7.21317 11.335 7.44395 11.5645C7.67472 11.794 7.97369 11.9426 8.296 11.9878C8.386 11.9998 8.613 11.9998 8.703 11.9878C8.867 11.9608 9.012 11.9178 9.148 11.8518C9.29327 11.7839 9.42558 11.6912 9.539 11.5778C9.723 11.4018 9.852 11.1988 9.926 10.9608C10.008 10.7108 10.02 10.4298 9.965 10.1708C9.91586 9.95368 9.81878 9.7503 9.68088 9.57555C9.54298 9.40079 9.36774 9.25909 9.168 9.1608C9.02897 9.08758 8.87849 9.03854 8.723 9.0158C8.60338 9.0041 8.48314 9.00009 8.363 9.0038Z" fill="currentColor"/>
</svg>
