<svg width="12" height="12" viewBox="0 0 12 12" fill="none" xmlns="http://www.w3.org/2000/svg">
<g clip-path="url(#clip0_2435_55351)">
<path d="M1.836 0.00801691C1.53448 0.0322377 1.24242 0.124672 0.981865 0.278334C0.721314 0.431997 0.499095 0.642869 0.332001 0.895017C0.156001 1.16502 0.0620009 1.41802 0.0120009 1.78102C8.63336e-07 1.85102 -0.00399914 10.008 0.00800086 10.141C0.0470009 10.731 0.336001 11.254 0.808001 11.605C1.113 11.835 1.468 11.965 1.863 11.992C1.922 12 3.148 12 6.06 12L10.169 11.996L10.259 11.984C10.5247 11.9503 10.7809 11.8629 11.0119 11.7273C11.2429 11.5917 11.444 11.4106 11.603 11.195C11.833 10.891 11.962 10.539 11.997 10.145C12.005 10.039 12.005 1.96102 11.993 1.85202C11.9601 1.38612 11.7645 0.946612 11.4404 0.610286C11.1163 0.273959 10.6844 0.0622025 10.22 0.0120169C10.156 1.69137e-05 1.94 1.69137e-05 1.836 0.00801691ZM9.21 1.51602C9.534 1.56202 9.827 1.70702 10.058 1.94102C10.292 2.17102 10.428 2.44902 10.488 2.78902C10.495 2.84402 10.495 2.95302 10.499 3.96502C10.499 5.25802 10.499 5.28102 10.452 5.57002C10.3308 6.30305 9.97975 6.97857 9.44947 7.49896C8.91919 8.01936 8.23718 8.35767 7.502 8.46502C7.276 8.49602 7.249 8.49602 6.601 8.50002L6 8.50402V9.10902C5.996 9.76602 5.996 9.73402 5.965 9.85502C5.871 10.195 5.598 10.465 5.246 10.555C5.16228 10.5794 5.07507 10.5895 4.988 10.585C4.81348 10.5839 4.64237 10.5366 4.492 10.448C4.382 10.383 4.382 10.387 3.004 9.00402C1.871 7.87502 1.652 7.65202 1.614 7.59802C1.4795 7.41887 1.40939 7.19958 1.41501 6.97563C1.42064 6.75168 1.50167 6.53618 1.645 6.36402C1.665 6.34002 2.285 5.71402 3.023 4.98002C3.93 4.07002 4.375 3.62902 4.406 3.61002C4.47137 3.55914 4.5438 3.51804 4.621 3.48802C4.74894 3.43414 4.88687 3.40807 5.02565 3.41152C5.16443 3.41496 5.30089 3.44786 5.426 3.50802C5.53783 3.56004 5.63865 3.63303 5.723 3.72302C5.80072 3.79856 5.86289 3.88858 5.906 3.98802C5.95341 4.08654 5.98384 4.19236 5.996 4.30102C5.996 4.33202 6 4.57102 6 4.92602V5.50402L6.535 5.50002C7.117 5.49602 7.098 5.50002 7.184 5.46502C7.25537 5.43588 7.31914 5.39082 7.37044 5.33328C7.42174 5.27575 7.45921 5.20725 7.48 5.13302L7.496 5.08202L7.5 3.96502C7.504 2.74602 7.5 2.82802 7.54 2.66502C7.58676 2.45879 7.67659 2.26478 7.80361 2.09571C7.93062 1.92665 8.09195 1.78635 8.277 1.68402C8.46583 1.58279 8.67347 1.52152 8.887 1.50402C8.926 1.49602 9.148 1.50402 9.211 1.51602H9.21Z" fill="currentColor"/>
</g>
<defs>
<clipPath id="clip0_2435_55351">
<rect width="12" height="12" fill="white"/>
</clipPath>
</defs>
</svg>
