<svg width="12" height="12" viewBox="0 0 12 12" fill="none" xmlns="http://www.w3.org/2000/svg">
<g clip-path="url(#clip0_2064_61076)">
<path d="M0.871002 1.00819C0.679957 1.03607 0.500155 1.1156 0.351002 1.23819C0.191002 1.37519 0.0660022 1.57819 0.0230022 1.78919C-0.01473 1.96193 -0.00584468 2.1416 0.0487472 2.30977C0.103339 2.47795 0.201673 2.62858 0.333669 2.74623C0.465664 2.86387 0.626572 2.9443 0.799895 2.97926C0.973219 3.01422 1.15272 3.00246 1.32 2.94519C1.41249 2.91226 1.5005 2.86792 1.582 2.81319C1.652 2.76219 1.762 2.65619 1.812 2.58219C1.984 2.34019 2.039 2.03519 1.965 1.74219C1.92003 1.57243 1.83093 1.41761 1.70676 1.29343C1.58258 1.16926 1.42776 1.08016 1.258 1.03519C1.13171 1.00277 1.00057 0.993622 0.871002 1.00819ZM3.871 1.00819C3.67996 1.03607 3.50015 1.1156 3.351 1.23819C3.191 1.37519 3.066 1.57819 3.023 1.78919C2.99326 1.92706 2.99312 2.06967 3.02257 2.2076C3.05202 2.34553 3.1104 2.47564 3.19386 2.58934C3.27731 2.70304 3.38394 2.79774 3.5067 2.86718C3.62946 2.93662 3.76556 2.97923 3.906 2.99219C3.953 3.00019 4.973 3.00019 7.543 3.00019C10.781 2.99619 11.121 2.99619 11.164 2.98819C11.32 2.95719 11.441 2.90619 11.554 2.83219C11.7217 2.72146 11.8518 2.56252 11.9273 2.37632C12.0029 2.19013 12.0202 1.98542 11.977 1.78919C11.9491 1.65515 11.8929 1.52864 11.812 1.41819C11.762 1.34819 11.656 1.23819 11.586 1.18819C11.4687 1.10645 11.336 1.04931 11.196 1.02019L11.136 1.00419H7.524C5.431 1.00419 3.895 1.00419 3.871 1.00819ZM0.922002 5.00419C0.788715 5.01411 0.658799 5.05082 0.540023 5.1121C0.421246 5.17339 0.31605 5.258 0.230724 5.36088C0.145399 5.46375 0.0816971 5.58278 0.0434287 5.71084C0.00516028 5.8389 -0.00688873 5.97336 0.00800224 6.10619C0.0301278 6.34307 0.138277 6.56364 0.312002 6.72619C0.516002 6.91819 0.793002 7.01619 1.074 6.99619C1.32619 6.97938 1.56244 6.86694 1.73454 6.68184C1.90663 6.49674 2.00158 6.25293 2 6.00019C2.00069 5.86766 1.97489 5.73633 1.92412 5.61391C1.87336 5.49149 1.79865 5.38044 1.70438 5.28729C1.61011 5.19414 1.49818 5.12075 1.37516 5.07145C1.25214 5.02215 1.12051 4.99792 0.988002 5.00019C0.984002 5.00019 0.953002 5.00019 0.922002 5.00419ZM3.922 5.00419C3.78872 5.01411 3.6588 5.05082 3.54002 5.1121C3.42125 5.17339 3.31605 5.258 3.23072 5.36088C3.1454 5.46375 3.0817 5.58278 3.04343 5.71084C3.00516 5.8389 2.99311 5.97336 3.008 6.10619C3.03013 6.34307 3.13828 6.56364 3.312 6.72619C3.48 6.88319 3.695 6.98019 3.93 6.99619C4.031 7.00419 10.969 7.00419 11.07 6.99619C11.324 6.97619 11.547 6.87119 11.723 6.69119C12.012 6.38719 12.082 5.93019 11.895 5.55119C11.8268 5.41646 11.7293 5.29879 11.6095 5.20687C11.4897 5.11496 11.3508 5.05116 11.203 5.02019L11.07 5.00419C10.98 4.99619 4.008 4.99619 3.922 5.00419ZM0.890002 9.00819C0.731045 9.02533 0.57848 9.08018 0.445002 9.16819C0.310424 9.25798 0.199643 9.37909 0.122163 9.52112C0.0446837 9.66314 0.00282029 9.82185 0.000165213 9.98361C-0.00248987 10.1454 0.0341427 10.3054 0.106919 10.4499C0.179696 10.5943 0.286444 10.719 0.418002 10.8132C0.660002 10.9842 0.968002 11.0392 1.258 10.9652C1.41958 10.9224 1.56757 10.8391 1.688 10.7232C1.78833 10.6304 1.86771 10.5173 1.92083 10.3914C1.97394 10.2656 1.99957 10.1298 1.996 9.99319C2.00155 9.89035 1.98554 9.78748 1.949 9.69119C1.91445 9.59376 1.86846 9.50078 1.812 9.41419C1.762 9.34419 1.652 9.23819 1.582 9.18819C1.49978 9.13336 1.41195 9.08743 1.32 9.05119C1.18105 9.00795 1.03477 8.99332 0.890002 9.00819ZM3.89 9.00819C3.73105 9.02533 3.57848 9.08018 3.445 9.16819C3.27519 9.28185 3.14427 9.44482 3.06988 9.63514C2.99548 9.82546 2.98118 10.034 3.02889 10.2327C3.07661 10.4314 3.18405 10.6107 3.33675 10.7465C3.48945 10.8823 3.68009 10.968 3.883 10.9922C3.926 10.9962 4.965 10.9962 7.539 10.9962H11.137L11.195 10.9802C11.3316 10.9492 11.4613 10.8936 11.578 10.8162C11.7327 10.7053 11.8526 10.5528 11.9239 10.3763C11.9951 10.1999 12.0146 10.0068 11.9803 9.81964C11.9459 9.63248 11.8589 9.45897 11.7296 9.31936C11.6003 9.17975 11.434 9.0798 11.25 9.03119C11.133 9.00019 11.414 9.00419 7.527 9.00419C6.315 8.99961 5.10199 9.00094 3.89 9.00819Z" fill="#202020"/>
</g>
<defs>
<clipPath id="clip0_2064_61076">
<rect width="12" height="12" fill="white"/>
</clipPath>
</defs>
</svg>
