<svg width="12" height="12" viewBox="0 0 12 12" fill="none" xmlns="http://www.w3.org/2000/svg">
<path d="M4.27 0.00782624C3.44568 0.0486996 2.64838 0.315041 1.965 0.777826C1.24323 1.2707 0.680484 1.96296 0.345413 2.77019C0.0103425 3.57741 -0.0825723 4.4647 0.0780019 5.32383C0.257533 6.30795 0.762562 7.2032 1.512 7.86583C2.19028 8.46929 3.03602 8.85223 3.937 8.96383C4.347 9.01383 4.738 9.01083 5.148 8.95183C5.93293 8.83977 6.67411 8.52158 7.29598 8.0297C7.91786 7.53783 8.39819 6.88985 8.688 6.15183C8.99096 5.37802 9.07508 4.53575 8.93115 3.71731C8.78722 2.89887 8.42078 2.13584 7.872 1.51183C7.7583 1.38797 7.63954 1.26887 7.516 1.15483C7.05633 0.738952 6.51473 0.423867 5.926 0.229826C5.39266 0.0532843 4.83101 -0.0220087 4.27 0.00782624ZM4.55 2.19483C4.55 2.29683 4.555 2.54283 4.55 2.74183V3.09783H5.086C5.379 3.09783 5.621 3.10183 5.621 3.10183C5.621 3.11283 5.504 3.53483 5.488 3.58983L5.434 3.76583L5.391 3.89783C5.36605 3.94118 5.32929 3.97656 5.285 3.99983L5.246 4.01583L4.898 4.01983H4.555V4.91783C4.555 5.79283 4.555 5.81983 4.566 5.88683C4.59 6.03483 4.629 6.06283 4.781 6.05883C4.85999 6.05209 4.93752 6.03355 5.011 6.00383C5.039 5.99583 5.121 5.95683 5.195 5.91783L5.328 5.84783L5.484 6.26983C5.566 6.49983 5.637 6.69083 5.641 6.69983C5.645 6.70683 5.641 6.70983 5.621 6.71883C5.609 6.72283 5.527 6.75783 5.441 6.79683C5.27226 6.87259 5.09546 6.92895 4.914 6.96483C4.74186 6.99913 4.56549 7.00689 4.391 6.98783C3.871 6.91783 3.574 6.61283 3.508 6.09783C3.49812 5.45988 3.49545 4.82184 3.5 4.18383V2.33183L4.016 2.16783C4.296 2.07783 4.531 2.00383 4.536 2.00383C4.543 2.00383 4.545 2.02383 4.55 2.19483Z" fill="currentColor"/>
<path d="M10.266 4.12883C10.2086 4.14771 10.1564 4.17981 10.1137 4.22254C10.071 4.26527 10.0389 4.31743 10.02 4.37483C10.008 4.41783 10.008 4.43383 10 4.63283C9.996 4.74583 9.988 4.85883 9.988 4.87883C9.90949 6.00316 9.48801 7.07635 8.78043 7.95363C8.07285 8.8309 7.11322 9.47005 6.031 9.78483C5.57634 9.91702 5.10637 9.98929 4.633 9.99983C4.433 10.0078 4.418 10.0078 4.375 10.0198C4.28322 10.0524 4.20574 10.1161 4.156 10.1998C4.12717 10.2519 4.11496 10.3116 4.121 10.3708C4.121 10.4258 4.125 10.4338 4.148 10.4808C4.172 10.5268 4.184 10.5388 4.293 10.6518C4.69359 11.0603 5.16796 11.3891 5.691 11.6208C6.473 11.9648 7.351 12.0778 8.207 11.9448C9.36418 11.7588 10.4035 11.1298 11.105 10.1908C11.891 9.14783 12.175 7.79683 11.891 6.51583C11.7448 5.86192 11.4536 5.24919 11.039 4.72283C10.9308 4.5824 10.8121 4.45036 10.684 4.32783C10.539 4.17983 10.531 4.17183 10.48 4.14783C10.43 4.12483 10.426 4.12083 10.363 4.12083C10.3304 4.11837 10.2977 4.12107 10.266 4.12883Z" fill="currentColor"/>
</svg>
