<svg width="12" height="12" viewBox="0 0 12 12" fill="none" xmlns="http://www.w3.org/2000/svg">
<g clip-path="url(#clip0_2435_59427)">
<path d="M4.988 0.00781655C4.75068 0.0427964 4.53273 0.158661 4.371 0.335817C4.29 0.433817 4.258 0.483817 4 0.999817C3.90885 1.19081 3.81113 1.37858 3.707 1.56282C3.648 1.65282 3.531 1.76982 3.441 1.82782C3.33078 1.90112 3.20757 1.95271 3.078 1.97982C3.023 1.99182 3.012 1.99582 2.461 1.99582C1.973 1.99982 1.895 2.00382 1.848 2.01182C1.60776 2.04902 1.38939 2.17271 1.23396 2.35963C1.07853 2.54655 0.996748 2.78382 1.004 3.02682C1.00288 3.15241 1.02952 3.27671 1.082 3.39082C1.132 3.51582 1.192 3.60082 1.297 3.70682C1.355 3.76182 1.391 3.79282 1.441 3.82782C1.594 3.92582 1.75 3.97982 1.93 3.99582C2.027 4.00382 9.973 4.00382 10.07 3.99582C10.2324 3.98532 10.3898 3.93494 10.5281 3.84912C10.6664 3.7633 10.7815 3.6447 10.863 3.50382C10.9397 3.37089 10.9849 3.22214 10.9951 3.06901C11.0052 2.91589 10.9801 2.76247 10.9217 2.62056C10.8632 2.47866 10.773 2.35206 10.658 2.25051C10.5429 2.14896 10.4061 2.07517 10.258 2.03482C10.133 1.99982 10.141 2.00382 9.539 1.99582C8.989 1.99582 8.977 1.99182 8.922 1.97982C8.7914 1.95204 8.667 1.90051 8.555 1.82782C8.45439 1.75329 8.366 1.66355 8.293 1.56182C8.18936 1.37901 8.09165 1.19292 8 1.00382C7.863 0.729816 7.738 0.483817 7.719 0.453817C7.63949 0.33276 7.53482 0.23026 7.41213 0.153296C7.28943 0.0763327 7.1516 0.0267132 7.008 0.00781655C6.33472 -0.0039076 5.66128 -0.0039076 4.988 0.00781655ZM3.188 5.00382C2.778 5.03482 2.422 5.32382 2.305 5.72282C2.27809 5.8136 2.26626 5.9082 2.27 6.00282C2.27 6.11282 2.273 6.13282 2.285 6.19482C2.335 6.42482 3.32 10.5428 3.344 10.6088C3.422 10.8478 3.539 11.0698 3.699 11.2658C3.75 11.3278 3.879 11.4608 3.941 11.5118C4.219 11.7498 4.559 11.9138 4.906 11.9688C5.074 11.9958 5.051 11.9958 6.004 11.9958C6.844 11.9958 6.91 11.9958 6.988 11.9878C7.49289 11.9235 7.9555 11.6727 8.285 11.2848C8.41 11.1328 8.515 10.9648 8.594 10.7848C8.66 10.6288 8.664 10.6128 9.191 8.39782C9.469 7.22682 9.703 6.23382 9.715 6.19882C9.73 6.11282 9.738 5.96882 9.727 5.88682C9.70255 5.65727 9.59728 5.4439 9.43 5.28482C9.26235 5.11593 9.03768 5.01572 8.8 5.00382C8.71 4.99582 3.278 4.99582 3.188 5.00382Z" fill="currentColor"/>
</g>
<defs>
<clipPath id="clip0_2435_59427">
<rect width="12" height="12" fill="white"/>
</clipPath>
</defs>
</svg>
