<svg width="12" height="12" viewBox="0 0 12 12" fill="none" xmlns="http://www.w3.org/2000/svg">
<path d="M3.91 1.41784C3.72553 1.43304 3.54926 1.5007 3.402 1.61284C3.352 1.65284 0.711001 4.28084 0.648001 4.35984C0.495951 4.54 0.414252 4.76911 0.418001 5.00484C0.418001 5.11484 0.422001 5.13784 0.434001 5.19184C0.469001 5.35184 0.527001 5.48184 0.621001 5.60984C0.664001 5.66484 3.27 8.27784 3.355 8.34884C3.485 8.45784 3.621 8.52884 3.781 8.56284C4.176 8.65284 4.598 8.48484 4.828 8.14884C4.898 8.04784 4.953 7.91884 4.98 7.78584L4.996 7.71984V7.10984L5 6.49584L5.121 6.49984C5.53587 6.50801 5.94848 6.56303 6.351 6.66384C7.301 6.90184 8.101 7.38284 8.656 8.04284C8.832 8.25284 8.969 8.46484 9.098 8.72284C9.258 9.03884 9.348 9.31284 9.426 9.69884C9.457 9.85484 9.48 9.92184 9.523 10.0118C9.641 10.2618 9.852 10.4298 10.109 10.4838C10.176 10.4998 10.32 10.4998 10.391 10.4878C10.5013 10.466 10.6051 10.4191 10.6944 10.3508C10.7837 10.2825 10.8561 10.1946 10.906 10.0938C10.965 9.96384 10.976 9.84784 10.949 9.61684C10.789 8.22684 10.32 6.91384 9.613 5.89084C9.066 5.09784 8.383 4.48784 7.59 4.08584C6.945 3.75784 6.246 3.57384 5.457 3.51584C5.391 3.51184 5.086 3.49984 5.012 3.49584H5V2.91784C5 2.25384 4.996 2.24184 4.95 2.08984C4.89326 1.9261 4.79495 1.77991 4.6647 1.66561C4.53444 1.55131 4.37672 1.47282 4.207 1.43784C4.10988 1.41418 4.00941 1.40741 3.91 1.41784Z" fill="#202020"/>
</svg>
