<svg width="12" height="12" viewBox="0 0 12 12" fill="none" xmlns="http://www.w3.org/2000/svg">
<g clip-path="url(#clip0_2064_62298)">
<path d="M5.855 0.42619C5.691 0.45319 5.535 0.51619 5.406 0.60919C5.379 0.62919 4.82 1.18419 3.996 2.00819C2.652 3.35219 2.625 3.37819 2.582 3.44519C2.47787 3.59462 2.41949 3.77114 2.414 3.95319C2.40732 4.09463 2.4311 4.23586 2.48372 4.36732C2.53634 4.49879 2.61657 4.61741 2.719 4.71519C2.86706 4.86456 3.0605 4.96058 3.269 4.98819C3.32 4.99619 3.437 4.99619 3.914 4.99619H4.5V6.52019C4.5 7.55919 4.5 8.06319 4.508 8.10219C4.528 8.28519 4.594 8.46119 4.703 8.60519C4.78621 8.71381 4.89082 8.8042 5.01036 8.87077C5.12991 8.93734 5.26184 8.97866 5.398 8.99219C5.477 9.00419 6.523 9.00419 6.602 8.99219C6.785 8.97219 6.961 8.90619 7.105 8.79719C7.21371 8.71407 7.30416 8.60948 7.37074 8.48991C7.43731 8.37035 7.47859 8.23838 7.492 8.10219C7.5 8.06219 7.5 7.56219 7.5 6.52019V4.99619H8.086C8.707 4.99619 8.726 4.99619 8.836 4.96919C9.01103 4.92467 9.17055 4.83312 9.29729 4.70444C9.42402 4.57577 9.51314 4.41488 9.555 4.23919C9.58109 4.14624 9.59124 4.04953 9.585 3.95319C9.5798 3.77124 9.52178 3.59473 9.418 3.44519C9.375 3.37919 9.344 3.34819 8.023 2.02719C7.277 1.28119 6.653 0.65719 6.63 0.64119C6.5077 0.538003 6.36106 0.467782 6.204 0.43719C6.08922 0.416021 5.97089 0.412312 5.855 0.42619ZM1.852 10.0122C1.66349 10.041 1.48715 10.1231 1.34383 10.2489C1.20051 10.3747 1.09619 10.5389 1.04319 10.7221C0.990188 10.9053 0.990726 11.0998 1.04474 11.2827C1.09875 11.4656 1.20398 11.6292 1.348 11.7542C1.508 11.8942 1.688 11.9692 1.898 11.9922C1.98 12.0042 10.02 12.0042 10.102 11.9922C10.2428 11.9785 10.379 11.9349 10.5014 11.8641C10.6239 11.7934 10.7298 11.6973 10.812 11.5822C10.984 11.3402 11.039 11.0352 10.965 10.7422C10.92 10.5724 10.8309 10.4176 10.7068 10.2934C10.5826 10.1693 10.4278 10.0802 10.258 10.0352C10.125 10.0002 10.465 10.0002 5.992 10.0042C2.5 10.0042 1.898 10.0042 1.852 10.0122Z" fill="#202020"/>
</g>
<defs>
<clipPath id="clip0_2064_62298">
<rect width="12" height="12" fill="white"/>
</clipPath>
</defs>
</svg>
