<svg width="12" height="12" viewBox="0 0 12 12" fill="none" xmlns="http://www.w3.org/2000/svg">
<path d="M5.879 1.22322C5.63198 1.23736 5.38964 1.29667 5.164 1.39822C4.95939 1.49092 4.77309 1.61963 4.614 1.77822C4.477 1.91022 4.383 2.03122 4.289 2.18422C4.223 2.29722 0.555002 9.11422 0.520002 9.19022C0.298002 9.69022 0.290002 10.2492 0.501002 10.7572C0.603002 11.0072 0.743002 11.2172 0.942002 11.4172C1.25834 11.7324 1.67078 11.933 2.114 11.9872C2.192 11.9952 2.353 11.9952 5.997 11.9952C10.04 11.9952 9.829 11.9992 9.997 11.9682C10.302 11.9157 10.5906 11.7926 10.8396 11.6087C11.0886 11.4249 11.2911 11.1853 11.431 10.9092C11.541 10.6942 11.611 10.4722 11.641 10.2262C11.6566 10.073 11.6566 9.91849 11.641 9.76522C11.6138 9.55855 11.5561 9.35705 11.47 9.16722C11.43 9.08122 7.77 2.27722 7.704 2.17122C7.62303 2.03294 7.52305 1.90671 7.407 1.79622C7.31609 1.70492 7.21663 1.62254 7.11 1.55022C6.84988 1.37799 6.55287 1.26939 6.243 1.23322C6.173 1.22222 5.935 1.21822 5.88 1.22222L5.879 1.22322ZM6.109 3.00322C6.32639 3.02727 6.52984 3.12215 6.688 3.27322C6.86649 3.43973 6.97634 3.66691 6.996 3.91022C7.004 3.99622 7.004 6.00422 6.996 6.09022C6.97543 6.32373 6.87267 6.54237 6.706 6.70722C6.5944 6.82006 6.45748 6.90463 6.30661 6.95389C6.15575 7.00315 5.9953 7.01569 5.83861 6.99045C5.68193 6.96522 5.53353 6.90294 5.40576 6.80881C5.27799 6.71467 5.17453 6.59139 5.104 6.44922C5.04719 6.33701 5.0132 6.21465 5.004 6.08922C4.996 6.00422 4.996 3.99622 5.004 3.91022C5.024 3.71522 5.094 3.54022 5.211 3.38322C5.31636 3.2492 5.45403 3.14412 5.61109 3.07783C5.76816 3.01154 5.93948 2.98521 6.109 3.00322ZM6.089 8.00322C6.269 8.02022 6.437 8.08222 6.582 8.18322C6.652 8.23422 6.766 8.34822 6.816 8.41822C6.863 8.48822 6.926 8.60922 6.949 8.68022C7.00725 8.85708 7.01548 9.04659 6.97277 9.22783C6.93007 9.40907 6.83809 9.57498 6.707 9.70722C6.5954 9.82006 6.45848 9.90463 6.30761 9.95389C6.15674 10.0032 5.9963 10.0157 5.83961 9.99045C5.68293 9.96522 5.53453 9.90294 5.40676 9.80881C5.27899 9.71467 5.17553 9.59139 5.105 9.44922C4.98777 9.20928 4.96841 8.93317 5.051 8.67922C5.074 8.60922 5.137 8.48922 5.184 8.41822C5.2856 8.27598 5.42274 8.16289 5.58172 8.09024C5.74071 8.0176 5.91597 7.98793 6.09 8.00422L6.089 8.00322Z" fill="#202020"/>
</svg>
