<svg viewBox="0 0 40 40" fill="none" xmlns="http://www.w3.org/2000/svg">
  <path d="M20.1084 30.5836L35.3195 34.2053V5.71399L20.1084 9.33567V30.5836Z" fill="#205B97"/>
  <path d="M35.3196 5.71399L38.217 7.16266V32.7567L35.3196 34.2053V5.71399ZM20.1085 30.5836L4.89746 34.2053V5.71399L20.1085 9.33567V30.5836Z" fill="#5193CE"/>
  <path d="M4.89735 5.71399L2 7.16266V32.7567L4.89735 34.2053V5.71399Z" fill="#205B97"/>
  <path d="M23.9723 40L29.767 37.1027V2.89735L23.9723 0L22.2007 18.9942L23.9723 40Z" fill="#5193CE"/>
  <path d="M16.2444 40L10.4497 37.1027V2.89735L16.2444 0L18.016 18.9942L16.2444 40Z" fill="#205B97"/>
  <path d="M16.2446 0H24.0509V39.9193H16.2446V0Z" fill="#2E73B7"/>
</svg>
