<svg xmlns="http://www.w3.org/2000/svg" viewBox="0 0 32 32">
	<path d="M28.935 1.858l-.69 1.672c-.032.005.179-1.503.18-1.512a26.73 26.73 0 0 0-1.082.36c-.007.004-1.1.416-1.402.541-.004.002-.006.009-.01.01-.026.012-.281.114-.34.14a33.18 33.18 0 0 0-.371.16c-.063.028-.914.416-1.032.472-.233.11-2.133 1.04-2.315 1.162-.013.01-.404.227-.57.32-.057.03-.114.059-.17.09-.028.016-.053.035-.08.05a4.078 4.078 0 0 0-.211.12c-.315.18-2.208 1.338-2.214 1.343-.006.004-7.847 6.598-9.234 8.393-.074.083-1.015 1.169-1.082 1.252a175.44 175.44 0 0 0-1.382 1.833c-.078.113-.294.441-.3.45a26.22 26.22 0 0 0-.431.732c-.087.157-.18.315-.25.46a7.124 7.124 0 0 0-.15.34l-.01.02c-.04.096-.124.323-.131.341-.025.072-.196.859-.2.932-.002.025.01.42.02.47.006.035.091.32.1.341C5.329 22.665 0 30.424 0 30.424l.09.08 1.933-2.003s3.821-5.342 4.177-5.77l.67-.17.411-.15c.06-.022.946-.255.962-.26.222-.046.635-.11.64-.11.192-.03 1.045-.136 1.083-.14.344-.04 2.133-.451 2.133-.451l.35-.15c.053-.023.11-.037.16-.06a3.303 3.303 0 0 0 .712-.401 2.736 2.736 0 0 1 .46-.22c.632-.482 3.568-3.066 3.736-3.226.005-.005.015-.005.02-.01.044-.042.096-.098.14-.14.19-.183 2.142-2.063 2.945-2.755l.01-.01a85 85 0 0 1 .731-.58c.143-.112.997-.759 1.252-.942.05-.036 2.918-1.99 3.225-2.194a257.1 257.1 0 0 0 3.285-2.303 51.99 51.99 0 0 0 1.433-1.242c-.017-.095-.177-.7-.18-.721a3.635 3.635 0 0 0-.532-.792c-.035-.034-.71-.6-.711-.601 0-.004 1.254.932 1.472 1.162l.01.01.01.01c.012.015.018.035.03.05.052.064.106.127.15.19.055.078.106.15.15.22.006-.007.015-.012.02-.02.056-.072.11-.145.16-.22a6.016 6.016 0 0 0 .802-1.903c.006-.04.041-.382.05-.52 0-.011-.006-.717-.01-.802-.005-.167-.24-1.344-.29-1.513a3.745 3.745 0 0 0-.19-.17c-.023.005-.642-.106-.721-.1 0 0-1.746.334-1.843.36zm.351 6.51zm-.25.19l.01.01zm-19.892 6.8l.01.02zm-.42.552zm8.874 1.442zm-2.164 2.013zm-.911.741l-.01.01zm-.12.1l.01.01-.01-.01zm-.11.03zm.02.02l-.01.01zm.02.03zm-.581.361zm-.05.04l.01.01zm-.16.05zm-.1.04zm-.231.19l-.01.01zm-.05.051l-.01.01zm.03.02zm-.592.25zm-.06.01zm0 .03zm-.23.05zm-.21.08l-.01.01z"/>
</svg>
