<svg xmlns="http://www.w3.org/2000/svg" viewBox="0 0 16 16">
<g>
  <g clip-path="url(#apache-kudu__clip0)">
    <path fill="url(#apache-kudu__paint0_radial)" d="M15.695 13.668a1.629 1.629 0 01-.573-.182c-.24-.12-.248-.129-.248-.306 0-.118.008-.153.04-.165.065-.025.243.088.338.216.086.116.096.122.392.223.338.115.388.145.34.202-.032.04-.047.04-.29.012zm-1.535-.881l-.136-.126v-.264c0-.144.01-.263.021-.263.012 0 .087.106.166.234.138.225.144.241.144.39 0 .109-.01.155-.03.155a.67.67 0 01-.165-.126zm-.862-.913l-.218-.237v-.388c0-.37.002-.39.05-.415a.283.283 0 01.153-.01c.11.016.188.092.24.236.025.072.058.966.036 1.021-.006.016-.018.03-.027.03a2.46 2.46 0 01-.234-.237zm-2.665-.26a3.507 3.507 0 01-.194-.046l-.098-.026V7.88l.07.013c.037.008.152.047.255.086l.187.072.015 1.757c.009.967.01 1.774.002 1.794-.016.04-.08.044-.236.013zm.598.01c-.009-.01-.016-.805-.016-1.768v-1.75l.062-.058c.11-.102.149-.223.15-.466 0-.12-.012-.267-.027-.325-.014-.059-.02-.113-.011-.121.024-.025.155.113.228.24.037.064.08.186.094.27.028.162.014.264-.08.593-.058.198-.047.355.05.72l.086.33.009 1.125.008 1.124-.102.024a2.69 2.69 0 01-.208.04c-.058.008-.133.02-.166.027-.033.006-.068.004-.077-.005zm.967-.21c-.023-.059-.018-.703.005-.74.017-.026.035-.024.1.01.044.024.144.065.222.092l.142.05.006.288c.004.159-.001.29-.012.29l-.148.009a1.854 1.854 0 00-.215.024c-.068.013-.088.009-.1-.023zm-2.344-.152a1.869 1.869 0 01-.23-.22l-.086-.105V7.72h.075c.112 0 .382.05.415.077.023.018.03.408.03 1.803 0 1.409-.006 1.78-.03 1.779a.768.768 0 01-.174-.116zm-4.093-.64a4.296 4.296 0 01-1.367-.401c-.33-.159-.314-.15-1.313-.767-.945-.583-1.31-.798-1.329-.78-.02.02.098.254.223.443.163.246.398.448.685.589.244.119.335.198.373.322.03.098-.02.123-.248.123-.24 0-.437-.052-.607-.161-.153-.099-.243-.197-.37-.406-.275-.448-.593-.765-1.132-1.13C.12 8.078 0 7.95 0 7.734 0 7.496.197 7.2.353 7.2c.037 0 .347.105.69.233.89.334 1.428.522 1.485.522.045 0 .049-.01.039-.088a2.553 2.553 0 00-.063-.266A2.537 2.537 0 012.62 5.95c.217-.526.491-.838.917-1.043.108-.052.236-.13.285-.174.108-.099.231-.336.2-.386-.013-.02-.191-.08-.411-.138l-.574-.151c-.204-.055-.303-.048-.441.03a.304.304 0 01-.166.038l-.08-.007v-.19c.002-.223.041-.314.173-.401.111-.074.11-.073.9-.258.84-.196 1.31-.332 1.743-.505.517-.207.669-.23 1.27-.194.232.015.699.052 1.036.083.905.083 1.038.09 1.31.061.42-.043.737-.147 1-.33a.753.753 0 01.12-.072c.07 0-.11.228-.263.334-.145.1-.289.152-.54.195-.479.083-.851.112-1.697.131-.73.017-.91.028-1.087.067-.361.08-.753.253-.882.391-.063.067-.063.058.008.57.106.772.005 1.107-.628 2.08a2.17 2.17 0 00-.186.318c0 .018.051.053.113.078.31.122.73.396 1.293.844.417.33.843.624.997.685a.784.784 0 00.336.053c.178 0 .23-.012.457-.1.141-.053.266-.092.278-.085.011.008.02.513.02 1.152v1.14l-.241.026a2.8 2.8 0 00-.868.246c-.363.172-.43.19-.767.198a4.259 4.259 0 01-.484-.014zm3.399-.107a1.186 1.186 0 00-.192-.165c-.147-.077-.138.01-.138-1.355 0-1.04.005-1.25.033-1.274.021-.017.108-.025.242-.02l.209.006.006 1.47c.003.808-.002 1.47-.013 1.47a.836.836 0 01-.147-.132zm-.767-.325l-.189-.027-.006-1.148c-.005-.972 0-1.152.028-1.176.046-.038.396-.109.446-.09.038.015.04.103.034 1.239L8.7 10.21l-.059.003a1.979 1.979 0 01-.248-.023z"/>
  </g>
  <defs>
    <radialGradient id="apache-kudu__paint0_radial" cx="0" cy="0" r="1" gradientTransform="matrix(6.82784 -4.169 4.14979 6.79636 6.831 8.048)" gradientUnits="userSpaceOnUse">
      <stop stop-color="#25AAE1"/>
      <stop offset="1" stop-color="#0E76BC"/>
    </radialGradient>
    <clipPath id="apache-kudu__clip0">
      <path fill="#fff" d="M0 0h16v16H0z"/>
    </clipPath>
  </defs>
</g>
</svg>
