<svg viewBox="0 0 40 40" fill="none" xmlns="http://www.w3.org/2000/svg">
  <path d="M21.7952 18.5043C21.7952 18.5043 8.72905 22.6658 6.14336 22.7104C6.14336 22.7104 6.08141 23.8913 6.82366 26.4081C7.6641 26.7072 17.2377 24.2654 18.3025 23.7062C22.5729 21.4639 21.1707 20.3298 31.5293 16.7273C31.5293 16.7273 31.3326 15.8279 30.5465 14.5553C30.5465 14.5553 26.7305 17.1512 21.7952 18.5043Z" fill="white"/>
  <path d="M6.94968 26.3709C6.61244 25.9232 6.12915 23.125 6.12915 23.125C6.12915 23.125 -0.720752 26.1026 0.0606428 31.0698C0.427546 33.4036 2.41496 33.721 3.26469 33.8177C5.10475 34.0272 7.77735 32.6203 9.30053 31.5591C12.3639 29.4245 14.0135 27.3648 18.8635 23.4039C18.8635 23.404 11.9986 26.0216 6.94968 26.3709Z" fill="url(#paint0_linear_1322_23888)"/>
  <path d="M6.14346 22.7104C6.14346 22.7104 3.48738 12.8934 10.0108 9.15712C12.1891 7.90942 16.4222 6.54796 18.5281 6.26872C20.6342 5.9893 25.595 5.10635 28.1459 9.31349C29.0781 10.8507 30.291 13.5706 30.5467 14.5553C27.8819 17.4612 9.09737 22.5231 6.14346 22.7104Z" fill="url(#paint1_linear_1322_23888)"/>
  <path d="M22.9434 21.0835C22.9434 21.0835 27.3855 20.205 33.194 19.975C37.8361 19.7912 40.5048 17.8643 39.8479 16.8728C39.1902 15.8811 34.1486 12.8545 22.9434 21.0835Z" fill="url(#paint2_linear_1322_23888)"/>
  <path d="M39.9969 16.7604C39.9969 16.7604 33.03 8.83038 10.9985 29.8955C6.06702 33.8122 1.41432 34.5004 0.227539 31.6362C1.17009 34.3673 3.86175 34.3204 7.18829 33.2078C11.542 31.7516 17.5826 25.9942 18.3431 25.4268C24.3033 20.9788 34.4962 13.8007 39.9181 17.4218C39.9181 17.4218 40.1106 17.0688 39.9969 16.7604Z" fill="black"/>
  <defs>
    <linearGradient id="paint0_linear_1322_23888" x1="8.49502e-06" y1="28.4714" x2="18.8635" y2="28.4714" gradientUnits="userSpaceOnUse">
      <stop stop-color="#575757"/>
      <stop offset="1"/>
    </linearGradient>
    <linearGradient id="paint1_linear_1322_23888" x1="5.63081" y1="14.3552" x2="30.5467" y2="14.3552" gradientUnits="userSpaceOnUse">
      <stop stop-color="#666666"/>
      <stop offset="1"/>
    </linearGradient>
    <linearGradient id="paint2_linear_1322_23888" x1="22.9433" y1="18.302" x2="39.9409" y2="18.302" gradientUnits="userSpaceOnUse">
      <stop stop-color="#616161"/>
      <stop offset="1"/>
    </linearGradient>
  </defs>
</svg>
