<svg viewBox="0 0 40 40" fill="none" xmlns="http://www.w3.org/2000/svg">
  <path d="M20 0L2.55554 9.97778V29.9111L20 40L37.4444 30.0222V10.0222L20 0ZM34.2222 27.9333L20 36.1556L5.77776 28.02V11.9556L20 3.73333L34.2222 11.9778V27.9333Z" fill="#0078D4"/>
  <path d="M20 0L2.55554 9.97778L5.77776 11.9556L20 3.73333L34.2222 11.9556L37.4444 9.97778L20 0Z" fill="url(#paint0_linear_1322_23881)"/>
  <path d="M28.3111 23.2778C28.1413 22.9984 27.8911 22.7769 27.5933 22.6422C26.6894 20.6691 25.3047 18.9543 23.5661 17.6552C21.8275 16.3561 19.7906 15.5142 17.6422 15.2067L32.0355 6.88889L28.6889 4.96889L12.2978 14.4444C11.9793 14.6277 11.7304 14.9111 11.5897 15.2505C11.4489 15.5899 11.4243 15.9663 11.5196 16.3212C11.6149 16.676 11.8248 16.9895 12.1166 17.2127C12.4085 17.4359 12.7659 17.5565 13.1333 17.5556C13.2011 17.5431 13.2679 17.526 13.3333 17.5044L13.6111 18.6667C15.7009 18.1739 17.8955 18.3961 19.8441 19.2976C21.7927 20.1992 23.3828 21.7282 24.36 23.64L8.02887 33.0778L11.3622 35.0022L27.7022 25.5556C27.9201 25.4253 28.1043 25.2456 28.24 25.0311L28.4066 24.9911C28.3911 24.9267 28.3666 24.8689 28.3511 24.8044C28.4693 24.566 28.5275 24.3022 28.5205 24.0361C28.5135 23.7701 28.4416 23.5097 28.3111 23.2778Z" fill="#50E6FF"/>
  <path d="M26.8689 20.0289C26.0558 20.0289 25.261 20.27 24.5849 20.7217C23.9088 21.1735 23.3819 21.8155 23.0707 22.5667C22.7596 23.3179 22.6782 24.1446 22.8368 24.942C22.9954 25.7395 23.387 26.472 23.9619 27.047C24.5369 27.6219 25.2694 28.0135 26.0669 28.1721C26.8643 28.3307 27.691 28.2493 28.4422 27.9382C29.1934 27.627 29.8354 27.1001 30.2872 26.424C30.7389 25.7479 30.98 24.9531 30.98 24.14C30.98 23.0497 30.5469 22.004 29.7759 21.233C29.0049 20.462 27.9592 20.0289 26.8689 20.0289ZM13.1311 11.7044C12.318 11.7044 11.5232 11.9455 10.8471 12.3973C10.1711 12.849 9.64412 13.4911 9.33296 14.2423C9.0218 14.9935 8.94039 15.8201 9.09902 16.6176C9.25764 17.4151 9.64919 18.1476 10.2241 18.7225C10.7991 19.2975 11.5316 19.689 12.3291 19.8477C13.1266 20.0063 13.9532 19.9249 14.7044 19.6137C15.4556 19.3026 16.0977 18.7756 16.5494 18.0996C17.0011 17.4235 17.2422 16.6286 17.2422 15.8155C17.2422 14.7252 16.8091 13.6795 16.0381 12.9086C15.2671 12.1376 14.2215 11.7044 13.1311 11.7044Z" fill="url(#paint1_linear_1322_23881)"/>
  <defs>
    <linearGradient id="paint0_linear_1322_23881" x1="20" y1="11.9556" x2="20" y2="0" gradientUnits="userSpaceOnUse">
      <stop offset="0.199" stop-color="#005BA1"/>
      <stop offset="1" stop-color="#0078D4"/>
    </linearGradient>
    <linearGradient id="paint1_linear_1322_23881" x1="20" y1="28.2511" x2="20" y2="11.7489" gradientUnits="userSpaceOnUse">
      <stop stop-color="#198AB3"/>
      <stop offset="0.172" stop-color="#32BEDD"/>
      <stop offset="0.5" stop-color="#198AB3"/>
      <stop offset="0.662" stop-color="#32BEDD"/>
      <stop offset="0.975" stop-color="#50E6FF"/>
    </linearGradient>
  </defs>
</svg>
