<svg xmlns="http://www.w3.org/2000/svg" viewBox="0 0 16 16">
  <g fill="none" fill-rule="evenodd">
    <path fill="#59B4D9" fill-rule="nonzero" d="M13.2,7.53333333 C13.7375072,9.63048742 12.9505651,11.8441983 11.2099307,13.1315061 C9.46929629,14.4188138 7.12218041,14.5229344 5.27439501,13.3948128 C3.42660961,12.2666912 2.4467392,10.1313579 2.79643652,7.99484649 C3.14613384,5.85833507 4.75564346,4.14682323 6.86666667,3.66666667 C9.67842677,3.01623814 12.4937564,4.73507099 13.2,7.53333333 L13.2,7.53333333 Z"/>
    <path fill="#FFF" fill-rule="nonzero" d="M7.33333413,10.9333333 C7.3289628,10.1619523 6.7047144,9.53770387 5.93333333,9.53333333 L5.66666667,9.53333333 C5.76402085,9.17930562 5.7122202,8.80085744 5.52331304,8.48601218 C5.33440588,8.17116691 5.02485779,7.94736719 4.66666667,7.86666667 L2.93333333,7.86666667 C2.60832093,9.49331425 3.0788796,11.1774189 4.2,12.4 L5.93333333,12.4 C6.71720386,12.3643331 7.33414435,11.7180145 7.33333413,10.9333333 L7.33333413,10.9333333 Z M9.06666667,5.13333333 L9.06666667,5.4 L8.46666667,5.4 C7.65664903,5.4 7,6.05664903 7,6.86666667 C7,7.6766843 7.65664903,8.33333333 8.46666667,8.33333333 L13.3333333,8.33333333 C13.2010519,6.57464375 12.1665254,5.01023794 10.6,4.2 L10,4.2 C9.75064581,4.19390418 9.50969054,4.29027844 9.33331782,4.46665116 C9.1569451,4.64302388 9.06057085,4.88397914 9.06666667,5.13333333 Z M13.3333333,9.33332417 L10.4666667,9.33332417 C10.1480264,9.33208689 9.84207696,9.4581148 9.61676255,9.68342922 C9.39144813,9.90874363 9.26542022,10.2146931 9.26666667,10.5333333 C9.27905769,10.7391321 9.32406298,10.9416559 9.4,11.1333333 C8.7837585,11.3292979 8.43112609,11.9757907 8.6,12.6 C8.73651236,13.1043203 9.21241652,13.4402527 9.73333333,13.4 L10.5333333,13.4 C12.0798717,12.5887785 13.1272945,11.0675217 13.3333333,9.33332417 L13.3333333,9.33332417 Z" opacity=".5"/>
    <path fill="#B8D432" fill-rule="nonzero" d="M2.13333333,5.26666667 C2.06179548,5.26182772 2.00483895,5.20487118 2,5.13333333 C2,4.1024018 1.16426487,3.26666667 0.133333333,3.26666667 C0.0666666667,3.33333333 0,3.2 0,3.13333333 C0.00483894703,3.06179548 0.0617954831,3.00483895 0.133333333,3 C1.16426487,3 2,2.16426487 2,1.13333333 C2,1 2.06666667,1 2.13333333,1 C2.2,1 2.33333333,1 2.33333333,1.13333333 C2.33333333,2.16426487 3.16906847,3 4.2,3 C4.27363796,3 4.33333333,3.05969537 4.33333333,3.13333333 C4.33333333,3.2069713 4.27363796,3.26666666 4.2,3.26666667 C3.16906847,3.26666667 2.33333333,4.1024018 2.33333333,5.13333333 C2.33333333,5.2 2.26666667,5.26666667 2.13333333,5.26666667 L2.13333333,5.26666667 Z"/>
    <path fill="#59B4D9" fill-rule="nonzero" d="M13.5333333,15.6666667 C13.4666667,15.6666667 13.4666667,15.6666667 13.4666667,15.6 C13.4428144,14.9949518 12.9387156,14.5205059 12.3333333,14.5333333 C12.2666667,14.5333333 12.2666667,14.5333333 12.2666667,14.4666667 C12.2666667,14.4 12.2666667,14.4 12.3333333,14.4 C12.9295998,14.389771 13.4203522,13.9278863 13.4666667,13.3333333 C13.4666667,13.2666667 13.4666667,13.2666667 13.5333333,13.2666667 C13.6,13.2666667 13.6,13.2666667 13.6,13.3333333 C13.6238522,13.9383815 14.1279511,14.4128275 14.7333333,14.4 C14.8,14.4 14.8,14.4 14.8,14.4666667 C14.8,14.5333333 14.8,14.5333333 14.7333333,14.5333333 C14.1370669,14.5435624 13.6463145,15.005447 13.6,15.6 C13.6666667,15.6666667 13.6,15.6666667 13.5333333,15.6666667 L13.5333333,15.6666667 Z"/>
    <path fill="#000" fill-rule="nonzero" d="M15.8,4.06666667 C15.2666667,3.26666667 14.0666667,3.06666667 12.1333333,3.53333333 C11.5439856,3.67106609 10.9648347,3.84926637 10.4,4.06666667 C10.757868,4.24968242 11.0934208,4.47338433 11.4,4.73333333 C11.7333333,4.66666667 12.0666667,4.53333333 12.3333333,4.46666667 C12.8337913,4.3347169 13.3491068,4.26750185 13.8666667,4.26666667 C14.4666667,4.26666667 14.8,4.4 14.9333333,4.6 C15.1333333,4.93333333 14.9333333,5.73333333 13.8666667,7 C13.6614482,7.23859917 13.4385992,7.46144816 13.2,7.66666667 C11.9845381,8.83408686 10.6429505,9.86263734 9.2,10.7333333 C7.7884069,11.6224037 6.26362031,12.317527 4.66666667,12.8 C2.73333333,13.4 1.4,13.4 1.13333333,12.9333333 C0.866666667,12.4666667 1.4,11.2666667 2.86666667,9.86666667 C2.78936993,9.47100293 2.7447749,9.06964765 2.73333333,8.66666667 C0.466666667,10.7333333 -0.266666667,12.5333333 0.266666667,13.4666667 C0.763667379,14.0425689 1.50959565,14.3409402 2.26666667,14.2666667 C3.43405544,14.2220676 4.58468126,13.9738934 5.66666667,13.5333333 C7.0633331,13.0016661 8.40333305,12.3316662 9.66666667,11.5333333 C10.9361784,10.7423379 12.1400551,9.85057737 13.2666667,8.86666667 C13.7215647,8.47843612 14.1451028,8.05489807 14.5333333,7.6 C15.8666667,6.06666667 16.2666667,4.86666667 15.8,4.06666667 L15.8,4.06666667 Z"/>
  </g>
</svg>
