<svg xmlns="http://www.w3.org/2000/svg" fill="none" viewBox="0 0 16 16">
    <g>
        <path fill="#0071F7" d="M15.493 11.493c.195.273.156.624-.078.82-.273.194-.664.155-.859-.079l-1.366-1.756-1.327 1.717c-.195.273-.585.273-.858.078s-.312-.546-.117-.82l1.56-2.029-1.56-2.029c-.195-.273-.117-.663.117-.858.273-.196.663-.117.858.117L13.19 8.41l1.366-1.678c.195-.273.546-.312.859-.117.273.195.273.585.078.858l-1.522 1.99 1.522 2.03Zm-7.103-.235c-1.014 0-1.834-.78-1.834-1.795 0-.975.82-1.795 1.834-1.795 1.015 0 1.834.82 1.834 1.795A1.85 1.85 0 0 1 8.39 11.26Zm-5.385 0c-1.015 0-1.834-.78-1.834-1.795 0-.975.82-1.795 1.834-1.795 1.015 0 1.834.82 1.834 1.795 0 1.015-.82 1.796-1.834 1.796Zm5.385-4.76a3.021 3.021 0 0 0-2.653 1.56c-.508-.936-1.522-1.56-2.693-1.56-.703 0-1.327.234-1.834.585V4.585A.6.6 0 0 0 .624 4C.274 4 0 4.273 0 4.585v4.917a2.99 2.99 0 0 0 3.005 2.927c1.17 0 2.185-.663 2.693-1.6.507.937 1.522 1.6 2.653 1.6 1.678 0 3.044-1.327 3.044-3.005.04-1.6-1.327-2.926-3.005-2.926Z"/>
    </g>
</svg>