<svg xmlns="http://www.w3.org/2000/svg" viewBox="0 0 32 32">
	<path d="M17.502 14.162a7.07 7.07 0 0 1 2.179 1.017s-.229 1.586-3.168 2.587c-.98.334-3.246-.333-3.246-.333a6.222 6.222 0 0 1 1.531-2.41 1.752 1.752 0 0 0 1.052.39 1.795 1.795 0 0 0 1.652-1.251zm-3.305.86l.226-.234-.3-.626a4.049 4.049 0 0 1-1.879-1.174 7.714 7.714 0 0 0-.15 1.565.684.684 0 0 1 .3 1.251 3.986 3.986 0 0 0 .601 1.017 4.248 4.248 0 0 1 1.127-1.72zm12.731-1.83a6.114 6.114 0 0 1 1.692.892 6.6 6.6 0 0 0-1.277-.392c.525.392 2.028 1.408 2.028 1.408s-1.578-.469-1.803-.234c.526.704 2.404 2.503 2.404 2.503s-2.63-2.112-2.855-1.8a17.518 17.518 0 0 0 1.127 1.409s-2.253-1.408-3.005-1.017a.076.076 0 0 0-.075.078 10.66 10.66 0 0 0 1.578 1.643l-.03-.018c.336.238.556.409.556.409s-.308-.195-.643-.462c-.579-.365-1.25-.697-1.46-.477a.295.295 0 0 0-.076.235 28.758 28.758 0 0 0 2.103 3.285s-2.854-3.207-3.154-3.05c-.075 0-.075.078-.075.156a13.096 13.096 0 0 0 .9 1.564s-1.426-1.642-1.802-1.33c-.075 0-.075.157 0 .313.45 1.252 2.028 4.146 2.028 4.146s-2.554-4.224-3.68-3.598q.45 1.173.676 1.877c.075.079.075.079.075.157.676 2.034.3 2.425.3 2.425s-1.352-3.99-2.329-3.911c-.45 0-.375.547-.225 1.173.3.782.751 1.8.751 1.8s-1.352-2.504-2.328-2.582c.3.782.6 1.408.75 1.955.677 2.112.301 2.973.301 2.973a9.825 9.825 0 0 0-.3-2.269 4.636 4.636 0 0 0-1.653-2.268v.156c.526 1.174-.75 4.459-.75 4.459a16.27 16.27 0 0 0 .15-4.224c-.15-.391-.527-.626-1.127-.313-.301.156 0 2.816 0 2.816s-.038-.195-.085-.467c.01.095.01.154.01.154s-.15-.86-.376-1.642c-.226-.548-.45-.94-.676-.86-.45.077-2.554 4.145-2.554 4.145s.976-3.207 1.127-4.224c-.451.156-1.127 1.955-1.127 1.955a11.584 11.584 0 0 0 .075-1.877c-.075 0-2.404 1.878-2.404 1.878a15.857 15.857 0 0 0 1.052-2.269.995.995 0 0 0-1.277-.235 6.713 6.713 0 0 0-1.803 1.8 8.023 8.023 0 0 0 .826-2.19c-.6-.47-3.23 1.877-3.23 1.877a9.656 9.656 0 0 0 1.352-2.112 10.88 10.88 0 0 0-3.23-.235A4.857 4.857 0 0 1 0 17.447c2.63 1.408 5.033-.156 8.113.704l.517.153c-1.884-.76-3.108-1.922-3.221-3.36a2.674 2.674 0 0 1 .651-1.953c-2.037 1.321-3.65 2.874-5.91 4.143a73.204 73.204 0 0 1 6.433-4.686 6.566 6.566 0 0 1 1.248-.795 18.92 18.92 0 0 1 5.164-2.498c.075 0 .15-.078.226-.156.15-.313.375-1.017.375-1.017s.075.86.376.939c.075.078.225-.078.3-.235.15-.313.451-1.017.451-1.017s-.376 1.252 0 1.33l1.127-1.173s-.3 1.095-.075 1.173 1.202-1.564 1.202-1.564-.601 1.095 0 1.173c.6.156 1.427-.704 1.427-.704s-.376.548-.45.704c0 .078 0 .156.074.156 1.277.47 2.254-1.251 2.254-1.251a2.732 2.732 0 0 1-.376.86s-.225.391-.375.626c1.126.235 1.953-1.251 2.178-1.643l-.901 1.956c.525.313 2.554-2.112 2.554-2.112a2.254 2.254 0 0 1-.226.47l.075-.079a14.068 14.068 0 0 1-1.277 1.956c.45 0 1.352-.86 1.352-.86l-.225.39-.45.626s0 .313.074.313c.601.47 2.554-2.347 2.554-2.347a4.096 4.096 0 0 1-.225.392 19.096 19.096 0 0 1-1.653 2.58c.977.235 3.23-2.737 3.23-2.737a12.234 12.234 0 0 1-1.502 2.581c1.277-.469 2.704-2.66 2.704-2.66a29.545 29.545 0 0 1-1.802 3.13c1.201-.391 3.004-3.286 3.004-3.286a20.655 20.655 0 0 1-2.178 3.52c1.728.157 4.056-2.346 4.056-2.346a10.61 10.61 0 0 1-2.028 2.816C30.197 11.893 32 9.78 32 9.78s-2.1 3.304-5.072 3.412zm-5.294-.438a5.723 5.723 0 0 0-.33-1.891c-.45-.134-.94-.25-1.45-.354a5.838 5.838 0 0 1-.098 4.357c-.075 0-2.104-.939-2.179-.939a4.664 4.664 0 0 0 1.428-1.564h.075a.454.454 0 0 0 .45-.392c.047-.282-.21-.44-.225-.39l.35-1.107-.115-.02a.161.161 0 0 0-.01.031 4.643 4.643 0 0 1-.375 1.095c-.297-.083-.52-.041-.601.313a.861.861 0 0 0 .15.47 9.756 9.756 0 0 1-1.202 1.173 1.737 1.737 0 0 0-3.455.313v.078a13.788 13.788 0 0 1-1.728-1.173 6.343 6.343 0 0 1 .601-1.252h.225a.52.52 0 0 0 .526-.39c.014-.12-.075-.236-.075-.314a4.035 4.035 0 0 1 .773-.517c-.12.01-.248.017-.364.03a4.085 4.085 0 0 0-.71.409.27.27 0 0 0-.225-.078.462.462 0 0 0-.494.314c-.049.145.044.312.044.39l-.075.078a5.898 5.898 0 0 0-.526.939 4.428 4.428 0 0 1-.702-1.603l-.08.02a4.129 4.129 0 0 0 .707 1.817 13.994 13.994 0 0 0-.15 2.034.075.075 0 0 1-.076.078c-.225.079-.3.235-.375.47a.725.725 0 0 0 .75.782h.151c.15.313.676 1.33.676 1.33-2.253-.758-3.075-2.974-3.155-5.007a1.92 1.92 0 0 1 .362-1.212q-.776.242-1.46.531c-.216.53-.104.532-.104 1.15a6.348 6.348 0 0 0 6.535 6.18 6.4 6.4 0 0 0 6.536-6.18zm4.803.417a4.625 4.625 0 0 1-.906-.434 2.01 2.01 0 0 1 .084.408 3.148 3.148 0 0 1-.12 1.119c.115-.19.244-.37.345-.572a.702.702 0 0 1 .597-.521z"/>
</svg>
