<svg xmlns="http://www.w3.org/2000/svg" viewBox="0 0 16 16">
  <g>
    <path fill="#4285F4" fill-rule="nonzero" d="M15.6862016,7.46449612 L12.424186,1.79131783 C12.1745812,1.34867522 11.7093253,1.0712204 11.2012403,1.0620155 L4.67596899,1.0620155 C4.16781258,1.0709699 3.7024417,1.3484933 3.45302326,1.79131783 L0.189767442,7.4496124 C-0.0626783505,7.88889862 -0.0626783505,8.42924092 0.189767442,8.86852713 L3.45178295,14.5739535 C3.69864483,15.0228888 4.16277764,15.309559 4.67472868,15.3293023 L11.2,15.3293023 C11.7119239,15.3117302 12.1768901,15.0262495 12.424186,14.5776744 L15.6862016,8.90449612 C15.9404017,8.45815118 15.9404017,7.91084107 15.6862016,7.46449612 Z"/>
    <path fill="#000" fill-rule="nonzero" d="M10.6034109,6.5255814 L6.11596899,6.93860465 L5.24775194,7.80682171 L5.99193798,8.55100775 L5.25395349,9.84341085 L10.736124,15.3255814 L11.2,15.3255814 C11.7119239,15.3080093 12.1768901,15.0225285 12.424186,14.5739535 L14.6976744,10.619845 L10.6034109,6.5255814 Z" opacity=".07"/>
    <path fill="#FFF" fill-rule="nonzero" d="M10.5054264 6.49085271L5.3655814 6.49085271C5.32481123 6.48951407 5.28522754 6.50469288 5.25580528 6.53294759 5.22638301 6.5612023 5.20961472 6.6001393 5.20930233 6.64093023L5.20930233 7.70387597C5.20930233 7.78676149 5.27649432 7.85395349 5.35937984 7.85395349L10.5054264 7.85395349C10.5880309 7.85327913 10.6548295 7.78648055 10.6555039 7.70387597L10.6555039 6.64093023C10.6548295 6.55832565 10.5880309 6.49152707 10.5054264 6.49085271M9.7103876 7.48310078C9.54050652 7.48310078 9.4027907 7.34538495 9.4027907 7.17550388 9.4027907 7.0056228 9.54050652 6.86790698 9.7103876 6.86790698 9.88026867 6.86790698 10.0179845 7.0056228 10.0179845 7.17550388 10.0179845 7.34538495 9.88026867 7.48310078 9.7103876 7.48310078M10.5054264 8.53364341L5.3655814 8.53364341C5.3237211 8.53224689 5.28315432 8.54826307 5.25353815 8.57787924 5.22392199 8.60749541 5.2079058 8.64806218 5.20930233 8.68992248L5.20930233 9.75286822C5.20997668 9.8354728 5.27677526 9.90227138 5.35937984 9.90294574L10.5054264 9.90294574C10.5880309 9.90227138 10.6548295 9.8354728 10.6555039 9.75286822L10.6555039 8.68372093C10.6548295 8.60111635 10.5880309 8.53431777 10.5054264 8.53364341M9.7103876 9.52589147C9.54050652 9.52589147 9.4027907 9.38817565 9.4027907 9.21829457 9.4027907 9.0484135 9.54050652 8.91069767 9.7103876 8.91069767 9.88026867 8.91069767 10.0179845 9.0484135 10.0179845 9.21829457 10.0179845 9.38817565 9.88026867 9.52589147 9.7103876 9.52589147"/>
  </g>
</svg>
