<svg xmlns="http://www.w3.org/2000/svg" viewBox="0 0 16 16">
  <g>
    <path fill="#EA2328" d="M13.4073334,9.40200002 C13.4073334,9.88000002 13.1266667,10.3106667 12.5833334,10.4046667 C11.64,10.5693334 9.66000004,10.67 8.00000002,10.67 C6.34000002,10.67 4.36000002,10.5693334 3.41600001,10.4046667 C2.87333334,10.3106667 2.59266668,9.88000002 2.59266668,9.40200002 L2.59266668,6.27800002 C2.59200001,5.79933334 2.96200001,5.35266669 3.41600001,5.27466668 C3.69666668,5.22600002 4.34466668,5.18000002 4.85333334,5.18133335 C5.04533335,5.18200002 5.20000002,5.33200001 5.20066668,5.56066669 C5.20066668,5.56133335 5.20000002,7.74466669 5.20000002,7.74466669 C6.17533335,7.74133336 7.02200002,7.68666669 8.00000002,7.68666669 C8.97733336,7.68666669 9.82466669,7.74133336 10.7993334,7.74466669 L10.7993334,5.56066669 C10.8,5.33200001 10.9546667,5.18200002 11.146,5.18133335 C11.6546667,5.18000002 12.3033334,5.22600002 12.5833334,5.27466668 C13.038,5.35266669 13.4073334,5.79933334 13.4073334,6.27800002 L13.4073334,9.40200002 Z M8,0 C3.58200002,0 0,3.58200001 0,8 C0,12.418 3.58200002,16 8,16 C12.418,16 16,12.418 16,8 C16,3.58200001 12.418,0 8,0 L8,0 Z"/>
  </g>
</svg>
