<svg viewBox="0 0 40 40" fill="none" xmlns="http://www.w3.org/2000/svg">
  <path d="M20.3546 0.5C20.711 0.808791 21.1821 1.05167 21.4079 1.43736C27.4543 11.7279 33.4853 22.0279 39.5008 32.3372C40.382 33.8457 40.0903 35.3201 38.6782 36.3771C36.3189 38.1444 33.6143 38.9927 30.7143 39.3307C27.7436 39.6786 25.056 38.7962 22.427 37.5573C20.3863 36.5956 18.348 35.6192 16.2597 34.7709C13.1413 33.504 9.93379 33.7322 6.80194 34.6635C4.72706 35.2811 2.74616 36.2135 0.717664 36.9825C0.499191 37.0655 0.240442 37.0423 0 37.0679C0.0598053 36.8311 0.0598053 36.5553 0.18796 36.3661C2.48497 32.9657 5.37027 30.3258 9.48342 29.3237C13.4391 28.362 17.1592 29.0442 20.6585 31.0202C22.7626 32.2066 24.8937 33.2819 27.3225 33.6102C28.7871 33.8079 30.2432 33.7408 31.6639 33.2904C32.5756 33.0011 32.7196 32.6801 32.2461 31.86C30.8002 29.362 29.3445 26.8685 27.879 24.3794C25.5592 20.4127 23.2354 16.4485 20.9075 12.4867C20.7659 12.2426 20.4766 11.9008 20.2972 11.9228C20.0531 11.9521 19.7724 12.2499 19.6235 12.5013C17.7207 15.7223 15.8399 18.9554 13.9517 22.1874C13.6075 22.7769 13.6259 22.8379 14.28 22.9929C17.2178 23.6874 19.7724 25.0983 21.9913 27.1244C22.156 27.2733 22.3672 27.4209 22.4355 27.6126C22.5039 27.8042 22.5076 28.1227 22.3916 28.2692C22.2757 28.4157 21.9669 28.4938 21.7679 28.4584C21.4774 28.4047 21.2114 28.2143 20.9319 28.0922C16.9652 26.3481 12.8923 26.2529 8.75355 27.3013C7.41098 27.6419 6.10258 28.0788 4.78565 28.4974C4.43048 28.6097 4.0216 28.8489 3.81534 28.4376C3.68718 28.1838 3.76285 27.7236 3.91542 27.4502C4.83935 25.8001 5.81088 24.1768 6.76533 22.545C10.8419 15.5783 14.9163 8.60952 18.9888 1.63874C19.2695 1.15908 19.5368 0.683078 20.1105 0.5H20.3546Z" fill="#00ADD5"/>
</svg>
