<svg xmlns="http://www.w3.org/2000/svg" viewBox="0 0 16 16">
  <g fill="none" transform="translate(1)">
    <polyline fill="#5294CF" points="9.151 15.976 9.345 15.976 12.516 14.39 12.569 14.316 12.569 1.659 12.516 1.584 9.345 0 9.149 0 9.151 15.976" />
    <polyline fill="#1F5B98" points="5.025 15.976 4.828 15.976 1.66 14.39 1.595 14.28 1.563 1.724 1.66 1.584 4.828 0 5.027 0 5.025 15.976" />
    <polygon fill="#2D72B8" points="4.833 0 9.342 0 9.342 15.976 4.833 15.976" />
    <polyline fill="#1A476F" points="14.176 7.629 14.069 7.605 12.539 7.463 12.516 7.474 9.343 7.347 4.833 7.347 1.66 7.474 1.66 5.054 1.656 5.056 1.66 5.048 4.833 4.313 9.343 4.313 12.516 5.048 13.683 5.669 13.683 5.27 14.176 5.216 14.125 5.116 12.564 4 12.516 4.016 9.343 3.032 4.833 3.032 1.66 4.016 1.66 1.584 0 3.529 0 5.227 .013 5.217 .493 5.27 .493 5.677 0 5.941 0 7.63 .013 7.629 .493 7.636 .493 8.345 .079 8.351 0 8.344 0 10.034 .493 10.299 .493 10.711 .021 10.763 0 10.748 0 12.445 1.66 14.39 1.66 11.959 4.833 12.943 9.343 12.943 12.526 11.956 12.568 11.975 14.108 10.875 14.176 10.765 13.683 10.711 13.683 10.308 13.618 10.282 12.564 10.85 12.526 10.93 9.343 11.661 9.343 11.662 4.833 11.662 4.833 11.661 1.66 10.927 1.66 8.498 4.833 8.624 4.833 8.627 9.343 8.627 12.516 8.498 12.589 8.531 14.071 8.403 14.176 8.352 13.683 8.345 13.683 7.636 14.176 7.629" />
    <path fill="#2D72B8" d="M12.5162451,11.9591172 L12.5162451,14.3901351 L14.176,12.4454759 L14.176,10.758698 L12.525825,11.9562377 L12.5162451,11.9591172 M12.5162451,10.9321879 L12.525825,10.9299729 L14.176,10.0424224 L14.176,8.345234 L12.5162451,8.49790287 L12.5162451,10.9321879 M12.525825,5.050643 L12.5162451,5.048428 L12.5162451,7.473853 L14.176,7.62895837 L14.176,5.93260062 L12.525825,5.050643 M12.525825,4.02504262 L14.176,5.21593737 L14.176,3.52910412 L12.5162451,1.58427875 L12.5162451,4.01551812 L12.525825,4.01884062 L12.525825,4.02504262z" />
  </g>
</svg>
