<svg xmlns="http://www.w3.org/2000/svg" viewBox="0 0 16 16">
	<g fill="none" fill-rule="evenodd">
		<path fill="#FEFEFE" d="M15.971146,8.40249114 C15.971146,7.06389198 15.1412388,5.89366414 13.8922937,5.43830549 C13.9471797,5.1561789 13.9758042,4.87398481 13.9758042,4.58011139 C13.9758042,2.09194262 11.9514329,0.067571308 9.46279156,0.067571308 C8.00915443,0.067571308 6.65691814,0.764685232 5.80716287,1.93936878 C5.38940759,1.61518312 4.87632743,1.43763038 4.34103629,1.43763038 C3.02025992,1.43763038 1.94569451,2.51212827 1.94569451,3.83290464 C1.94569451,4.12482025 1.99774515,4.40411139 2.09543291,4.66774008 C0.853778903,5.11580759 -2.70042194e-05,6.31351224 -2.70042194e-05,7.64360506 C-2.70042194e-05,8.98902278 0.833998312,10.1645165 2.08861435,10.6165671 C2.03528101,10.8955207 2.00625148,11.1833181 2.00625148,11.4743561 C2.00625148,13.9569215 4.02582954,15.9764996 6.50839494,15.9764996 C7.96561013,15.9764996 9.3171038,15.2765502 10.1619308,14.0970059 C10.582589,14.4272 11.0968844,14.6084658 11.6300827,14.6084658 C12.9509266,14.6084658 14.025492,13.5343055 14.025492,12.2135291 C14.025492,11.9216135 13.9733738,11.6419173 13.8756861,11.3783561 C15.1174076,10.9306262 15.971146,9.73258397 15.971146,8.40249114"/>
		<path fill="#FDD009" d="M6.27909536,6.91916962 L9.7737789,8.51235105 L13.2997873,5.42286582 C13.3508253,5.16808101 13.3757367,4.91397131 13.3757367,4.64804726 C13.3757367,2.47434262 11.6076354,0.705836287 9.43386329,0.705836287 C8.13347511,0.705836287 6.92058059,1.34610633 6.1833654,2.41972658 L5.59690127,5.46249451 L6.27909536,6.91916962 Z"/>
		<path fill="#23BAB1" d="M2.66167764,10.6198886 C2.61063966,10.8747409 2.58444557,11.1391122 2.58444557,11.406589 C2.58444557,13.585897 4.35774515,15.3591966 6.53745823,15.3591966 C7.84851308,15.3591966 9.06734852,14.7129181 9.80341603,13.6282937 L10.385492,10.5957873 L9.60871561,9.1113654 L6.10019241,7.51224304 L2.66167764,10.6198886 Z"/>
		<path fill="#EE5097" d="M2.63952743,4.57209114 L5.03453165,5.13755949 L5.55922363,2.41458903 C5.23193249,2.16446245 4.82794937,2.02755105 4.41242194,2.02755105 C3.37161181,2.02755105 2.52516456,2.87440338 2.52516456,3.9152135 C2.52516456,4.14508692 2.56357806,4.36550886 2.63952743,4.57209114"/>
		<path fill="#17A7E0" d="M2.43162194,5.14250127 C1.36157975,5.49706667 0.617613502,6.52275443 0.617613502,7.65099072 C0.617613502,8.74958987 1.29703966,9.73058565 2.31685401,10.1187713 L5.67698903,7.08160675 L5.06007764,5.76339578 L2.43162194,5.14250127 Z"/>
		<path fill="#92C73D" d="M10.417708,13.6281586 C10.7462143,13.8806481 11.1482397,14.0183696 11.5586363,14.0183696 C12.5993789,14.0183696 13.4458262,13.1719224 13.4458262,12.1311122 C13.4458262,11.9015764 13.4074802,11.6811544 13.3314633,11.4746397 L10.9384844,10.9146397 L10.417708,13.6281586 Z"/>
		<path fill="#0678A0" d="M10.9046211,10.2873789 L13.5390177,10.9034802 C14.609465,10.5497249 15.3534312,9.52363207 15.3534312,8.39499072 C15.3534312,7.29841688 14.6723848,6.31856878 13.6506127,5.9315308 L10.2050093,8.95019747 L10.9046211,10.2873789 Z"/>
	</g>
</svg>
