<svg xmlns="http://www.w3.org/2000/svg" viewBox="0 0 20 20">
	<path d="M2.6 11c.1.1.1.1 0 0l.1.1c.1 0 .1 0 .1.1-.1-.5-.1-1-.1-1.5 0-.7.1-1.2.4-1.7 0-.1.2-.4.3-.4 0 0-.1 1-.2 1.4 0 .5 0 1 .1 1.6h.1v-1c.1-.6.2-1.1.4-1.6s.5-1 .8-1.5c-1.7.2-2 1.7-2 1.7v-.4c0-.5.1-.8.2-1.1-.1.3-.2.5-.2.6-.2.4-.2.8-.3 1.2 0 .4-.1.7 0 1.1 0 .3 0 .7.1 1.1.1.1.1.2.2.3zm1.2-.6c.1-.1.3-.2.5-.2.4-.1.7-.2 1.2-.3h.2l1.2-.3c.2-.1.5-.2.7-.4.4-.3.6-.6.9-.9.1-.1.2-.3.2-.5l.1-.3s.4.4 0 1.2c.2-.1.5-.3.7-.7.2-.3.4-1.2.4-1.2s.5.7-.1 1.7c0 0 .2-.1.3-.2 2.1-2.1.3-3.2-.1-3.5-.2-.2-.5-.3-.8-.4L8.8 4l.5.1c.1 0 .1 0 .2.1.5.2.9.3 1.2.6.4.2 1.8 1.4.3 3.2.5-.2 1.3-.6 1.6-1.1 1.4-2-.2-3.2-.1-3.2h.3s0-.1-.1-.1c-.1-.1-.3-.2-.4-.1-1.5.2-2-.2-2-.2s2.1.1 2.1-.2c-.3-.3-.6-.5-1-.8-.6-.3-1.2-.5-1.9-.6-1-.1-1.8 0-1.8 0 .1-.1.5-.6 2.1-.4.7.1 1.3.3 1.9.6.2-.1.3-.2.3-.3 0-.1.2.3.2.3l.1-.3.2.5.2-.2c.1.3.1.4 0 .5l.2-.1s.1.5.3.7c.1.1.2.2.3.4.2-.1.4-.7.4-.7s.1.3 0 .8l.3-.2s0 .4-.1.8v.1c.1.1.3-.2.3-.2v.2c0 .2-.1.5-.3.8-.1.2-.2.4-.2.6l.1-.1c.1-.1.2-.1.2-.1l.2-.1c.3-.1.7-.3 1-.4.7-.3.5-.7.5-.7-.2.3-.8.7-.8.7s.8-.7.5-1.6c-.1.2-.2.4-.3.7-.1.3-.3.6-.5.9-.1.1-.2.2-.4.3h-.1s.1-.2.2-.9v-1c0-.5 0-.8.1-1.1v-.1s0-.1-.1-.1c0-.1-.1-.1-.1-.2-.1-.3-.3-.4-.3-.5 0 .1-.2.5-.2.5v-.3c-.1-.4-1.1-.8-1.1-.8l.1.3s-.3 0-.5-.2l-.1-.1.1.3.1.2s-.2 0-.4-.2c0 0-.1-.1-.1-.2-.1-.2-.3-.3-.5-.3s-.3 0-.5-.1c-.1 0-.3 0-.4-.1h-.1v.4s-.3 0-.6-.2c0-.4-.1-.4-.2-.4h-.3c-.3 0-.5 0-.8.1h.2c.6 0 .7.3.7.3h-.7c-.2 0-.4 0-.5.1-.5.2-.9.4-1.4.7-.1.1-.2.1-.3.2-.2.1-.3.3-.5.5v.1s.1 0 .1.1c.9.1 1.5.8 1.6 1.6v.1c0 .3.1.5 0 .8 0 .7-.3 1.3-.8 1.8-.4.6-1 .6-1 .6.4-.3.6-.8.7-1.4 0-.2 0-.4-.1-.7-.1.3-.2.6-.4.8l-.4.4c-.8.7-2 1.9-2 3.9v.3zm11.7-4.8c-.1.1-.2.2-.3.2-.2.1-.3.2-.6.3-.2.1-.3-.1-.3-.1.2-.1.3-.2.4-.3-.3.2-.6.3-1 .6l-.3.3c-.1.1-.2.3-.2.4.4-.1.7-.3 1-.4.5-.2.9-.5 1.5-.9h.1l.3-.1-.2.3c-.6.6-1.3 1.1-2 1.4-.1.1-.3.1-.4.1.5-.1.9-.3 1.3-.4.4-.2.8-.4 1-.6.4-.4.7-.8.8-1.3V5h-.1c-.1 0-.2.1-.3.1-.1.1-.3.2-.4.2l-.3.3zM1.3 12.5c.1.2.2.3.3.5-.3-1 .2-1.7.2-1.7l.1.3c0 .1.1.2.1.3.1-.2.3-.4.4-.7-.1-.1-.3-.2-.4-.3-.2-.2-.3-.5-.3-.8V8.4c-.5.6-1 1.4-1.3 2.2.2.7.5 1.3.9 1.9zm13.9-9.7c0-.6.1-1.1.3-1.6l-.2.2c-.1.2-.2.4-.3.8-.2.6-.2 1.2-.3 1.9.2-.2.4-.5.5-1v-.3zM18 18.6c-.3-.1-1-.3-1.2-.8-.2.6.3 1 .6 1.2.1 0 .1 0 .2.1.1 0-.1.4 0 .6.2.2.3.1.4.1 0 0 .3.3.5.1 0 0 .1-.2 0-.3-.1-.1-.2-.1-.3-.1-.3 0-.3-.2-.3-.2h.4c.3 0 .6 0 .8-.1.2-.1.4-.4.4-.6.1-.1-.5.2-1.5 0zm2-6.5c0-.1-.1-.2-.1-.2v-.1s0-.1-.1-.1c0-.1-.1-.2-.1-.3V11c-.1-1-.7-1.8-1.6-2.2 0 .1-.1.2-.2.3-.1.1-.1.1-.2.1s-.2-.2-.1-.2c.1-.2.2-.3.2-.5 0-.3-.1-.7-.4-.9-.2-.2-.5-.5-.8-.6-.1.3 0 .7.1.9 0 .5.3 1.1.3 1.5 0 0 0 .2-.3.4-.1.1-.2 0-.2 0 .2-.5.2-.7 0-1.2-.2-.4-.3-.7-.2-1.2 0 .1 0 .1-.1.2-.2.4-.4.6-.5.9-.1.4 0 .9.3 1.3-.3-.2-.4-.4-.5-.7-.4.2-.8.6-1.1 1-.1.1-.1.2-.2.2-.5.4-1 .7-1.7.9-.4.1-.8.2-1.3.3h-.1c-.6.1-1.2.3-1.8.5-.7.3-1.2.6-1.6 1-.6.6-1 1.3-1.1 2.2-.1.7 0 1.3.2 2.1 0 0-.9-.8-.4-3.1h-.3c-1.6 0-2.3.9-2.3.9s.1-1 1.7-1.3c.1 0 1.1-.2 1.1-.3.1-.3.3-.5.5-.7H7c-.3.2-.6.2-.8.2H6c-.5.1-1 .1-1.5.3-.5.2-.9.4-1.2.7-.3.3-.6.7-.7 1.2v.4c.3.8.8 1.4 1.5 2 .5.4 1.1.7 1.8 1 0 0 .1 0 .1.1l.3.3-.5-.1h-.2c-.9-.3-1.7-.7-2.4-1.3-.2-.1-1.4-.7-1.9-1.6l-.1-.2s.6.6 1.1.7c-.2-.3-.4-.7-.5-1v-.1C1 14.5.5 13.5.1 12.5c0-.1 0-.1-.1-.2v.7c0 .1.8 2.2.8 2.2s-.4-.4-.6-.9l-.1-.2c.1.7.4 1.5.7 2.1 1 1.8 2.5 3 4.6 3.5.5.2 1.1.3 1.6.3h6.6c.3 0 .5 0 .8-.1h.9c1.1 0 1-.7 1-.7 0-.2-.2-.3-.5-.3h-.2c-.1 0-.3 0-.5.1-.1 0-.2.1-.2.1l-.1.1h-.2c-.2 0-.2-.2-.2-.3 0-.1 0-.2.1-.3.1-.1.2-.1.3-.2.2-.1.3-.2.5-.4s.3-.4.3-.6V17c-.1 0-.2-.1-.3-.1-.4-.1-.7-.3-.9-.5-.2-.2-.3-.4-.4-.6-.1-.3-.3-.6-.3-.9-.1-.5-.4-.9-1-1.2-.4-.2-.8-.4-1.3-.4h-1s0-.1.4-.2h.7c.4 0 .7.1 1.1.3.4.2.7.5 1 1 .1.3.3.5.3.8v.2c0 .1.1.2.1.3.3.6.7 1 1.4 1.1h.5c.3 0 .6 0 .9-.1.4-.1.7-.3.9-.6.1-.1.2-.3.2-.4v-.1h.9c.1 0 .1 0 .1.1l.1.1h.1c.2 0 .4-.2.4-.3 0-.1 0-.1-.1-.1 0 0-.1 0-.1-.1l-.2-.3.1-.1h.2s-.2-.8-1.3-.6c0 0-.2.1-.3.1h-.2c-.4-.2-.8-.1-.8-.1h-.5s-.1 0-.1-.1l-.1-.1c-.3 0-.7 0-1-.2-.4-.2-.7-.4-.8-.8-.1-.2-.1-.4-.1-.6v.1l.3.6c.3.3.6.5 1 .7.2.1.4.1.6.2 0 0 .8 0 1.2-.3.3-.2.5-.2.8-.2h.1c.9 0 .9-.4.9-.4s.1.1.2 0c.1 0 .2-.1.4-.2.1-.1.1-.2.2-.4l-.3-.3-.1-.1-.1-.1.1-.1c0-.1.1-.1.2-.1h.1c.1 0 .1.1.1.1h.1v.1zm-1.1-.2c0 .1-.1.1-.2.1h-.5c-.2 0-.5 0-.6-.2-.3-.2-.3-.5-.1-.8 0 .2.1.4.3.5.2.1.3.1.5.2.1 0 .3 0 .4.1v-.4c0 .1-.1.2-.2.3-.1 0-.1 0-.2-.1-.1 0-.2-.1-.4-.1-.2-.1-.2-.2-.2-.4v-.2l-.1-.1.1-.1.1-.1c.4-.2.8-.1 1 .3 0 .1.1.2.1.3.1.3.1.5 0 .7zM1.6 14.4v-.7c-.5-.8-.9-1.4-1.2-2.1-.1-.1-.1-.2-.1-.3.1 1.1.6 2.2 1.3 3.1zm15.9 3.4c.1.1.3.2.6.2.3.1.5.1.8.1h.4c.3-.1.4-.3.5-.5 0-.2.1-.4.1-.6 0-.4-.1-.8-.3-1.1l-.1.1c-.1 0-.1.1-.2.1s-.2.1-.2.1c-.1 0-.2 0-.2-.1-.1-.1-.2-.1-.4-.1h-.2c-.2.4-.6.8-1.1 1v.4c0 .1.1.3.3.4zm-5-9.9c-.4.4-1 .8-1.6 1.1-.4.2-.9.4-1.5.5-.4.1-.8.2-1.1.2h-.1c-.3.1-.6.2-.9.2-.8.1-1.6.3-2.4.6-.6.2-1 .4-1.4.6-.4.2-.6.5-.8.8 0 .1-.1.2-.1.2s0 .1-.1.1c0 0 0 .1-.1.1-.4.4-.6.9-.5 1.5 0 .3.1.7.3 1 .1-.7.5-1.2 1.1-1.6.3-.2.7-.3 1.2-.4.4-.1.9-.2 1.3-.3h.3c.4-.1.9-.2 1.3-.3.1 0 .2-.1.3-.1.1 0 .2-.1.3-.2.1-.1.2-.2.4-.2H6.6c-.6 0-1.1 0-1.6.3-.6.2-2.2 1.1-2.2 1.1s.8-.9 2.4-1.5c.5-.2 1.1-.3 1.7-.4h1.5c.4 0 .9.1 1.3.1h.1c.5-.1.9-.2 1.3-.3.1 0 .3-.1.4-.1h-.3l-.3-.2H12c.2 0 2.5-.4 3.5-3.1.1-.2.1-.4.2-.6-.7.4-1.4.7-2.2.9h-1zm4-1.5zm1.6 4.7c0 .1.1.2.2.2s.2-.1.2-.2-.1-.2-.2-.2c-.1-.1-.2 0-.2.2z"/>
</svg>
