<svg xmlns="http://www.w3.org/2000/svg" viewBox="0 0 32 32">
	<path d="M27 18c0 .3.1.7.3.8.2.2.6.2.8.2.5 0 .6.1.6.1s.2-.3 0-.8c-.4.6-1.1.3-1.3.2s-.3-.4-.2-.7c0-.1 0-.1-.1-.2l-.1-.1.2-.2c.1 0 .1-.1.2-.1.6-.3 1.2-.1 1.5.5.1.2.1.3.1.5 0 .3 0 .6-.1.9 0 .1-.1.2-.3.1-.4-.2-1 .2-1.6-.3-.2-.2-.2-.7 0-.9 0-.1 0 0 0 0zm.9-.4c-.2 0-.3.1-.3.3 0 .2.1.3.3.3.2 0 .3-.1.3-.3s-.1-.3-.3-.3zM24 15.1s0 .1 0 0c.1.1 0 .1 0 0zm.8-2.2z"/>
	<path d="M31.4 28.9c-.3 1-.9 1.6-1.9 1.9-.1 0-.3.1-.4.1v.1c.1.4-.1.9-.6 1 0 0-.6.1-.9-.5h-.2c-.2 0-.3 0-.5-.1l-.3-.3c-.1-.2-.1-.4 0-.6-.4-.2-.8-.5-1.1-.8-.4-.4-.6-.9-.6-1.4 0-.3 0-.6.3-1.1 0-.1.1-.3.2-.3h-.8v.7c-.1.5-.4.9-.7 1.3h.1c.5 0 .8.1 1.1.3.6.4.8 1.1.5 1.7-.1.4-.4.6-.8.8-.5.3-1.3.3-1.3.3H11.8c-1.2 0-2-.2-2.8-.3-2.8-.7-5.2-2.2-6.9-4.6-1.6-2.2-2.3-4.8-2-7.5 0-.8.2-1.6.5-2.3-.1-1.3.6-2.6.6-2.5v.9c.3-.6.7-1.1 1.1-1.7.5-.7 1.1-1.4 1.9-2 .2-.2 1.4-1.4 1.4-1.8 0 .1.3.5 0 .8.8-.5 1.6-.8 2.5-1.2.3-.1.6-.2 1-.3.2 0 .4-.1.6-.2.6-.2.7-1 .6-1.7 0-.3-.3-1-.3-1h.1c.3.1.5.3.6.5.3.3.5.6.6 1.1.5-.5.6-1.1.3-1.7-.1-.4-.4-.8-.8-1.1-.4-.4-.9-.6-1.3-.6 0 0-.5 0-.7.1 0-.3.3-.8.5-1.1.3-.6.8-1.1 1.5-1.7.8-.6 1.7-1 2.8-1.2.6-.2 1.3-.3 2-.3l.2-.3c.2 0 .9.3.9.3V.4s.6.1.7.1c0 0-.1-.2 0-.2s.8.3 1.1.4h.3c1 .2 1.9.6 2.8 1.2l-.1-.4.3.2c.3.2.4.4.6.7h.1c.1 0 .2.1.2.2s.1.3.2.4c0 .1.1.2.2.3.2-.3.5-.6.9-.7h.3s.2 0 .3.1c0 .1.1.2 0 .3l-.1.3c-.1.3-.3.6-.3.9v.6c.1-.2.3-.3.6-.3.1 0 .3.1.3.1l.2.1-.1.2s-.3.3-.3.6 0 .7.1 1.1c.2.6.3 1 .4 1.4.3-.1.8-.8.9-.8 0 0 .2.4.2.9 0 .3-.1.5-.2.8 0 0 .2.2.1.6-.1.4-.3.7-.5 1l-.3.3c0 .1-.1.1-.2.2 0 0 0 1-.4 1.7-.3.6-.6.8-.8 1.4-.2.6 0 1.3.4 2-.4-.3-.6-.6-.7-1-.6.3-1.2.8-1.7 1.5l-.3.3c-.7.6-1.5 1.1-2.5 1.4-.6.2-1.3.3-1.9.5h-.2c-.8.2-1.8.4-2.6.8-1 .5-1.8 1-2.4 1.6-.9.8-1.5 1.9-1.7 3.2-.2 1-.1 2 .2 3.1 0 0-1.3-1.1-.6-4.7h-.3c-2.4.1-3.4 1.4-3.4 1.4s.2-1.5 2.5-2c.2 0 1.7-.4 1.7-.4.2-.4.4-.8.7-1.1h-.2c-.4 0-.8.1-1.2.2h-.3c-.7.1-1.4.2-2.2.4-.8.2-1.3.6-1.8 1-.5.5-.8 1.1-1.1 1.8v.6c.4 1.1 1.2 2.2 2.2 3 .8.6 1.7 1.1 2.7 1.5 0 0 .1 0 .1.1l.4.4-.7-.2H9c-1.4-.4-2.6-1-3.6-1.9-.3-.1-2.1-1-2.8-2.4l-.1-.3s.9.9 1.6 1.1c-.3-.5-.6-1-.7-1.5v-.1C2.3 23 1.5 21.6.9 20c0-.1-.1-.2-.1-.3 0 .4-.1.9-.1 1.3 0 1.2 1.2 3.3 1.2 3.3L.8 22.7c.2 1.1.6 2.2 1.1 3.1 1.4 2.7 3.7 4.5 6.8 5.3.8.2 1.6.3 2.5.3H21c.5 0 .8 0 1.1-.1h.9c.2 0 .3.1.4.1 1.7 0 1.4-1 1.4-1 0-.3-.3-.4-.7-.5h-.3c-.2 0-.4.1-.7.2-.1.1-.2.1-.3.2l-.2.1h-.3c-.3-.1-.3-.4-.3-.5 0-.2.1-.3.2-.5.1-.1.3-.2.4-.3.2-.2.5-.3.7-.6.3-.3.4-.6.5-.9V27c-.1 0-.3-.1-.5-.1-.6-.2-1.1-.4-1.4-.8-.3-.3-.4-.6-.6-.8-.2-.4-.4-.9-.5-1.4-.2-.7-.7-1.4-1.4-1.8-.6-.3-1.2-.6-1.9-.6h-1.4s.1-.1.7-.3c.1 0 .2-.1.3-.1.3 0 .5-.1.7-.1.6 0 1.1.1 1.6.4.6.3 1.1.8 1.5 1.5.2.4.4.8.5 1.2 0 .1 0 .2.1.3 0 .2.1.3.2.5.4 1 1.1 1.5 2.1 1.7h.8c.5 0 .9-.1 1.4-.2.6-.2 1-.5 1.3-.9.2-.2.3-.4.3-.6v-.2h1.3c.1 0 .2.1.2.1 0 .1.1.1.2.1h.1c.3 0 .6-.3.6-.5 0-.1 0-.2-.1-.2 0 0-.1 0-.2-.1l-.3-.2.2-.1h.4s-.3-1.3-1.9-.9c0 0-.3.1-.4.2h-.4c-.6-.3-1.2-.2-1.3-.2-.3 0-.5 0-.7-.1 0 0-.1 0-.1-.1l-.1-.1c-.5 0-1 0-1.5-.3-.6-.3-1-.6-1.2-1.1-.1-.3-.2-.6-.2-.8v.1c.1.3.3.6.5.8.4.5.9.8 1.4 1 .3.1.6.2 1 .3 0 0 1.2 0 1.7-.4.4-.3.8-.3 1.1-.3h.1c1.3 0 1.4-.6 1.4-.6s.1.1.3 0c.2 0 .3-.1.5-.3.1-.2.2-.3.2-.6-.1-.4-.7-.6-.7-.6s.1-.2.3-.2c.3 0 .6.4.6.4v-.5c0-.1-.1-.2-.2-.3 0-.1 0-.1-.1-.2 0 0 0-.1-.1-.2 0-.1-.1-.3-.2-.4 0-.1 0-.3-.1-.3V18c-.2-1.6-1.3-2.9-2.8-3.4v-.3c-.1-.2.1-.3 0-.5.8.1 1.5.3 2.1.8.7.6 1.1 1.3 1.4 2.2.1.4.2.8.2 1.2 0 .1 0 .3.1.4 0 .1.1.2.1.3 0 .1.1.3.2.4.2.5.1.9-.2 1.2v.1c-.1.6-.6 1.1-1.2 1.2l-.6.3c.2 0 .3.1.5.2.3.1.4.3.5.6.3.3.4.7.4 1.1 0 .2 0 .3-.1.5v.1c.6.6.8 1.4.8 2.3 0 .3 0 .5-.1.7v.3c.2.3.3.7.2 1.2zm-7.1-17.2c-1.1.6-2.2 1.1-3.3 1.3-.5.1-.9.2-1.4.2-.6.6-1.4 1.2-2.5 1.7-.6.3-1.4.6-2.2.7-.6.1-1.1.2-1.6.3h-.1c-.4.1-.9.2-1.3.3-1.2.3-2.4.5-3.7 1-.8.3-1.5.6-2.1 1-.6.3-2.5 1.4-2.3 4.1 0 .5.3 1 .5 1.5.2-1.1.7-1.9 1.7-2.4.5-.3 1.1-.5 1.7-.6.6-.1 1.3-.3 1.9-.4.1 0 .4-.1.4-.1.6-.1 1.3-.2 1.9-.4.1-.1.3-.1.4-.2.2-.1.4-.1.5-.3.2-.1.3-.3.6-.4-.3-.1-2-.7-4.8 0-1.3.3-3.6 1.9-3.6 1.9s1.2-1.3 3.6-2.3c.8-.3 1.7-.5 2.5-.6h2.3l1.9.1h.1c.7-.2 1.4-.3 1.9-.4.3 0 .5-.1.7-.1-.6-.1-.8-.3-.8-.4.5.1 1.6 0 1.6 0 .4 0 3.8-.6 5.3-4.7-.1-.2 0-.5.2-.8zm.2-2.6c-.2.1-.4.3-.6.5l-.4.4c-.3.2-.5.4-.8.5-.3.1-.6-.2-.6-.2.2-.1.4-.3.6-.5-.4.2-1 .5-1.4.9-.1.1-.3.3-.5.4-.2.2-.3.4-.3.6h.1c.6-.1 1.1-.4 1.5-.6.7-.4 1.4-.8 2.2-1.4h.1l.5-.1-.3.4c-.9.9-1.9 1.6-3 2-.2.1-.4.2-.6.2.7-.2 1.4-.4 1.9-.6.7-.3 1.1-.6 1.5-1 .6-.6 1-1.2 1.3-1.9v-.1h-.1c-.2 0-.3.1-.5.2s-.4.3-.6.3zm-1.8-1.6c.3-.3.6-.8.7-1.5v-.4c0-.9.2-1.7.5-2.4-.1 0-.2.2-.3.3-.2.3-.4.6-.5 1.1-.2.8-.3 1.7-.4 2.9zm-16.3 9c0 .2 0 .4.1.6 1.5-1.2 8.1-1.8 7.5-4.4 0 0 .6.6 0 1.8.4-.1.8-.5 1-1 .2-.4.6-1.8.6-1.8s.7 1.1-.1 2.5c.1 0 .3-.2.5-.4 3.1-3.1.4-4.9-.1-5.3-.3-.2-.7-.4-1.2-.6h-.2l-.5-.6.7.2c.1 0 .2 0 .3.1.8.2 1.3.5 1.8.8.6.4 2.7 2.2.4 4.8.7-.3 2-1 2.5-1.6 2.2-3-.3-4.7-.2-4.7h.3s0-.2-.1-.2c-.2-.1-.4-.3-.7-.2-2.2.3-3-.3-3-.3s3.1.2 3.2-.3c-.4-.4-.9-.8-1.5-1.1-.8-.7-1.7-1.1-2.7-1.2-1.5-.2-2.7.1-2.7.1.1-.2.7-.8 3.2-.6 1 .1 1.9.4 2.8.8.3.1.4-.2.4-.3 0-.1.3.5.3.5l.1-.4.3.8.3-.3c.1.5.1.7 0 .7l.3-.2s.2.8.5 1.1c.1.1.3.4.4.7.2-.2.5-1 .5-1s.2.4 0 1.2l.6-.3s.1.6-.2 1.3v.1c.2-.1.5-.5.5-.5v.3c-.1.3-.2.8-.4 1.2-.2.3-.3.5-.4.8 0-.1.1-.1.2-.2.1 0 .3-.1.4-.2l.2-.1 1.5-.6c1-.4.8-1.1.8-1.1-.3.5-1.2 1-1.2 1s1.2-1.1.7-2.4c-.2.3-.3.7-.4 1-.2.4-.4.9-.7 1.3-.2.2-.3.4-.6.5h-.1s.2-.3.2-1.3V6.1c0-.7 0-1.2.2-1.7.2-.8-.6-1.3-.7-1.4 0 .4-.3.7-.3.7v-.5c-.3-.6-1.9-1.2-1.9-1.2l.1.5s-.5 0-.7-.3c0-.1-.1-.2-.2-.2l.1.4.1.3s-.4 0-.6-.3l-.1-.3c-.2-.3-.4-.5-.7-.5-.3 0-.5-.1-.8-.1-.2 0-.4 0-.6-.1 0 0-.1 0 0-.1v.5s-.5-.3-.7-.3c-1.1-.4-1.9-.1-2.3 0h-.1.2c.8 0 1.1.5 1.1.5S11.2 1.2 9 4.3c.3-.1.7.1.8.1 1.2.3 4.7 2.9 1.6 6.6-.9 1.1-2 .8-2 .8.5-.5 2.2-2.1 1-3.1 0 0-.3.8-.6 1.1l-.6.6c-.9 1.3-2.8 3.1-2.8 6.1zm-1.7 1.3l.1.1c.1 0 .2.1.2.1-.4-.6-.6-1.3-.6-2 0-1 .7-2 1-2.8 0-.1-.3 1.2-.3 1.8 0 .7.1 1.7.7 1.9h.1v-1.5c0-.7.3-1.4.5-2.2.3-.8.7-1.6 1.2-2.4-2.5.3-3 2.6-3 2.6v-.6c.1-.8.2-1.2.3-1.6-.1.6-2.5 3.6-.2 6.6zm-1.5 3.4c-.5-1.6.3-2.8.3-2.8l.2.5c0 .1.1.3.2.4.2-.3.4-.7.7-1-.2-.1-.4-.3-.6-.5-.3-.3-.4-.7-.5-1.2-.1-.6-.1-1.2-.1-1.9 0-.2 0-.4.1-.6-4 2.3-.3 7.1-.3 7.1zm-2.1-3c.3 1.7 1 3.3 2.1 4.6v-1c-.8-.7-1.8-2.3-2.1-3.6zM30.7 29s-1.2.5-2.9.2c-.6-.1-1.8-.6-2.2-1.4-.4 1 .5 1.8 1.1 2.1.1.1.2.1.3.1.1 0-.2.7.1 1 .3.3.6.2.7.2 0 0 .6.5.8.2.1-.1.1-.4 0-.6-.1-.2-.4-.2-.5-.2-.6 0-.6-.3-.5-.4 0-.1.2-.1.3-.1h.5c.5 0 1.1 0 1.4-.3.5.1.9-.5.9-.8zm-.6-3.9l-.1.2c-.1.1-.2.1-.3.2-.1 0-.3.1-.4.1-.1 0-.2 0-.3-.1-.2-.1-.4-.1-.6-.1H28c-.3.7-.8 1.1-1.6 1.4v.6c.1.3.3.5.5.7.3.1.5.3.9.3.4.1.8.2 1.2.2.3 0 .4 0 .6-.1.4-.1.6-.4.7-.8.1-.3.1-.6.2-.9.1-.7-.1-1.2-.4-1.7z"/>
	<path d="M25.5 16.1c.4-.8.4-1.1 0-1.9-.3-.6-.5-1.1-.3-1.7v-.2c.1-.2.2-.3.4-.3s.4.2.6.3c.5.4.9.7 1.3 1.2.6.7.5 1.2.1 1.7-.1.1-.2.2-.3.2-.2 0-.2-.3-.2-.3.1-.3.3-.5.3-.7 0-.5-.2-1-.6-1.4-.3-.3-.8-.7-1.2-.8-.1.4 0 1 .2 1.4.2.4.7 1.3.6 1.9 0 0 0 .3-.4.6-.5 0-.5-.1-.5 0z"/>
</svg>
