<svg xmlns="http://www.w3.org/2000/svg" viewBox="0 0 16 16">
  <g>
    <g clip-path="url(#google-bigtable__clip0)">
      <path fill="#4285F4" d="M15.809 7.265L12.52 1.548a1.446 1.446 0 00-1.23-.736H4.712a1.444 1.444 0 00-1.232.736L.19 7.25a1.435 1.435 0 000 1.43l3.288 5.75a1.471 1.471 0 001.232.761h6.576a1.466 1.466 0 001.234-.757l3.288-5.718a1.466 1.466 0 000-1.451z"/>
      <path fill="#000" d="M11.365 5.094l-.156 1.233-.834-.838L7.45 4.29l1.629 1.635-1.98-.935-3.303 1.552.897.895-.062 3.475 4.274 4.275h2.383a1.466 1.466 0 001.233-.757l2.986-5.194-4.142-4.142z" opacity=".07"/>
      <path fill="#fff" d="M10.461 5.707v2.586a.155.155 0 01-.079.135l-.42.242V6a.312.312 0 00-.156-.27L7.722 4.52a1.125 1.125 0 01-.56-.895l3.143 1.813a.312.312 0 01.156.27z"/>
      <path fill="#fff" d="M11.216 8.985L8.98 10.279a.155.155 0 01-.157 0l-.418-.242L10.72 8.7a.311.311 0 00.155-.27V6.02a1.125 1.125 0 01.5-.933v3.625a.312.312 0 01-.159.274z"/>
      <path fill="#fff" d="M8.75 11.277l-2.235-1.29a.156.156 0 01-.079-.136V9.37l2.314 1.336a.312.312 0 00.311 0L11.152 9.5a1.125 1.125 0 011.055-.039l-3.14 1.816a.313.313 0 01-.317 0z"/>
      <path fill="#fff" d="M5.539 10.293V7.707a.156.156 0 01.077-.135l.42-.242V10a.312.312 0 00.156.27l2.087 1.205a1.13 1.13 0 01.56.9l-3.144-1.813a.311.311 0 01-.156-.27z"/>
      <path fill="#fff" d="M4.784 7.015L7.02 5.721a.156.156 0 01.156 0l.42.243L5.28 7.3a.311.311 0 00-.155.27v2.41a1.132 1.132 0 01-.5.934V7.29a.313.313 0 01.159-.275z"/>
      <path fill="#fff" d="M7.25 4.722l2.234 1.29a.155.155 0 01.078.135v.485L7.25 5.296a.311.311 0 00-.311 0L4.846 6.5a1.125 1.125 0 01-1.055.037l3.143-1.815a.311.311 0 01.316 0zM8 8.664a.172.172 0 01-.086-.023l-1.478-.854v.375l1.564.9 1.562-.903v-.375l-1.477.856A.171.171 0 018 8.664z"/>
      <path fill="#fff" d="M8.085 9.409a.174.174 0 01-.171 0l-1.478-.854v.275a.165.165 0 00.083.144l1.397.806a.166.166 0 00.165 0l1.398-.806a.165.165 0 00.082-.144v-.275l-1.476.854zM8 8.294l1.562-.903v-.175a.165.165 0 00-.082-.142l-1.4-.807a.164.164 0 00-.165 0l-1.397.807a.165.165 0 00-.083.142v.175L8 8.294z"/>
    </g>
    <defs>
      <clipPath id="google-bigtable__clip0">
        <path fill="#fff" d="M0 0h16v16H0z"/>
      </clipPath>
    </defs>
  </g>
</svg>
