<svg xmlns="http://www.w3.org/2000/svg" viewBox="0 0 16 16">
  <g class="ti-foreground">
    <path fill="#F9AB00" d="M11.132 1.91v12c0 1.342.94 2.09 1.934 2.09.92 0 1.934-.636 1.934-2.09V2c0-1.23-.921-2-1.934-2s-1.934.848-1.934 1.91z"/>
    <path fill="#E37400" d="M6.066 8v5.91c0 1.342.94 2.09 1.934 2.09.921 0 1.934-.636 1.934-2.09V8.09c0-1.23-.92-2-1.934-2-1.013 0-1.934.85-1.934 1.91zm-3.132 8c1.068 0 1.934-.855 1.934-1.909s-.866-1.91-1.934-1.91S1 13.038 1 14.092s.866 1.91 1.934 1.91z"/>
  </g>
</svg>
