<svg xmlns="http://www.w3.org/2000/svg" viewBox="0 0 16 16">
	<path fill-rule="evenodd" d="M6.89072,3.923048 L7.55072,7.645448 L7.56832,7.645448 L8.22832,3.923048 L10.56912,3.923048 L10.56912,10.206248 L9.03792,10.206248 L9.03792,5.524648 L9.02032,5.524648 L8.14912,10.206248 L6.96992,10.206248 L6.09872,5.524648 L6.08112,5.524648 L6.08112,10.206248 L4.54992,10.206248 L4.54992,3.923048 L6.89072,3.923048 Z M3.96024,8.243768 C3.96024,9.000568 3.78664,9.533368 3.44104,9.841368 C3.09464,10.149368 2.58424,10.302968 1.90984,10.302968 C1.22344,10.302968 0.73384,10.132568 0.44024,9.792568 C0.14664,9.452568 0.00024,8.954168 0.00024,8.296568 L0.00024,8.164568 L1.47864,8.164568 L1.47864,8.472568 C1.47864,8.771768 1.51784,8.971768 1.59784,9.070968 C1.67704,9.170968 1.77784,9.220568 1.90104,9.220568 C2.02424,9.220568 2.12584,9.170968 2.20504,9.070968 C2.28344,8.971768 2.32344,8.771768 2.32344,8.472568 L2.32344,3.922968 L3.96024,3.922968 L3.96024,8.243768 Z M13.72824,5.586328 C13.72824,5.398328 13.68984,5.238328 13.61384,5.106328 C13.53784,4.974328 13.42024,4.908728 13.26184,4.908728 C13.08584,4.908728 12.95624,4.966328 12.87464,5.079928 C12.79224,5.194328 12.75144,5.322328 12.75144,5.463128 C12.75144,5.668728 12.81704,5.831128 12.94904,5.951928 C13.08104,6.071928 13.24664,6.175928 13.44664,6.263928 C13.64584,6.351928 13.86024,6.441528 14.08904,6.532728 C14.31784,6.623128 14.53224,6.742328 14.73144,6.888728 C14.93064,7.035928 15.09704,7.227128 15.22904,7.465528 C15.36024,7.703128 15.42664,8.011928 15.42664,8.393528 C15.42664,9.062328 15.23624,9.547928 14.85464,9.850328 C14.47384,10.151928 13.92184,10.303128 13.20024,10.303128 C12.86024,10.303128 12.55944,10.275128 12.29864,10.219928 C12.03704,10.163928 11.81704,10.067128 11.63864,9.928728 C11.45944,9.791128 11.32264,9.611128 11.22904,9.387928 C11.13544,9.164728 11.08824,8.889528 11.08824,8.560728 L11.08824,8.340728 L12.67224,8.340728 L12.67224,8.490328 C12.67224,8.759928 12.72184,8.949528 12.82184,9.057528 C12.92104,9.166328 13.05064,9.220728 13.20904,9.220728 C13.37864,9.220728 13.50984,9.162328 13.60104,9.044728 C13.69144,8.927128 13.73704,8.783928 13.73704,8.613528 C13.73704,8.407928 13.67384,8.245528 13.54744,8.124728 C13.42184,8.004728 13.26344,7.902328 13.07304,7.817528 C12.88184,7.731928 12.67544,7.645528 12.45224,7.557528 C12.22904,7.469528 12.02264,7.355128 11.83224,7.214328 C11.64184,7.073528 11.48264,6.888728 11.35624,6.659928 C11.23064,6.431128 11.16744,6.131928 11.16744,5.762328 C11.16744,5.123128 11.33784,4.635928 11.67784,4.301528 C12.01784,3.967128 12.53464,3.799928 13.22664,3.799928 C13.94264,3.799928 14.46024,3.953528 14.77944,4.261528 C15.09944,4.569528 15.25944,5.061528 15.25944,5.735928 L13.72824,5.735928 L13.72824,5.586328 Z"/>
</svg>
