<svg xmlns="http://www.w3.org/2000/svg" viewBox="0 0 32 32">
	<path d="M22.031 17.349a4.432 4.432 0 0 0-3.192 1.332l-1.982-1.133a5.808 5.808 0 0 0 .201-1.531 5.933 5.933 0 0 0-.336-1.898l2.05-1.166-.1-.166a4.377 4.377 0 1 0-1.143-2.93 3.769 3.769 0 0 0 .235 1.365l-.034-.034-2.05 1.166a5.8 5.8 0 0 0-3.426-1.998V8.658a4.399 4.399 0 0 0 3.393-4.263A4.264 4.264 0 0 0 11.313 0a4.386 4.386 0 0 0-1.042 8.658v1.731a5.744 5.744 0 0 0 0 11.322v1.665a4.333 4.333 0 0 0-3.393 4.229 4.435 4.435 0 1 0 5.476-4.262v-1.665a5.647 5.647 0 0 0 3.663-2.298l1.814 1.032a4.259 4.259 0 0 0-.201 1.332 4.435 4.435 0 0 0 8.87 0 4.462 4.462 0 0 0-4.469-4.395zm0-9.824a2.364 2.364 0 1 1-2.385 2.365 2.384 2.384 0 0 1 2.385-2.365zM8.927 4.395a2.386 2.386 0 1 1 2.386 2.364 2.384 2.384 0 0 1-2.386-2.364zm4.771 23.21a2.386 2.386 0 1 1-2.385-2.364 2.384 2.384 0 0 1 2.385 2.364zm-2.385-7.859a3.713 3.713 0 1 1 3.763-3.696 3.74 3.74 0 0 1-3.763 3.696zm10.718 4.362a2.364 2.364 0 1 1 2.386-2.364 2.384 2.384 0 0 1-2.386 2.364z"/>
</svg>
