<svg viewBox="0 0 40 40" fill="none" xmlns="http://www.w3.org/2000/svg">
  <path d="M39.7608 7.26185C39.652 7.17172 39.514 7.12446 39.3728 7.12896C38.9874 7.12896 38.489 7.39474 38.2219 7.52763L38.1143 7.58211C37.6655 7.8016 37.1767 7.9273 36.6777 7.95155C36.1648 7.96749 35.7223 7.99806 35.1495 8.05653C31.7395 8.40736 30.2259 11.0173 28.7628 13.5409C27.9654 14.9137 27.1442 16.3316 26.0159 17.4319C25.7826 17.6582 25.5345 17.8687 25.2731 18.0618C24.1063 18.9323 22.6405 19.5462 21.495 19.9848C20.3973 20.4047 19.1987 20.7821 18.0399 21.1462C16.9767 21.4811 15.9787 21.7961 15.0578 22.1376C14.6419 22.2931 14.2884 22.4034 13.9774 22.5137C13.1389 22.7941 12.5329 22.9947 11.6505 23.5994C11.3063 23.8346 10.9608 24.0911 10.7203 24.2824C10.0195 24.8423 9.3993 25.4961 8.87708 26.2253C8.43026 26.8981 7.91355 27.5217 7.33555 28.0858C7.1495 28.2692 6.8186 28.3515 6.32292 28.3515C5.74219 28.3515 5.03787 28.2319 4.29236 28.1057C3.52558 27.9728 2.7309 27.8399 2.0505 27.8399C1.49635 27.8399 1.07375 27.929 0.756146 28.1137C0.756146 28.1137 0.224585 28.4246 0 28.826L0.220598 28.9256C0.562211 29.1101 0.879215 29.337 1.16412 29.6007C1.4591 29.8742 1.78832 30.1083 2.14352 30.2971C2.2571 30.3425 2.35987 30.4114 2.44518 30.4991C2.35216 30.6319 2.21528 30.81 2.07309 30.9974C1.28638 32.026 0.827907 32.6771 1.09103 33.0306C1.21388 33.0949 1.35107 33.127 1.4897 33.1236C3.20399 33.1236 4.12359 32.6785 5.28904 32.1137C5.63056 31.9595 5.98007 31.7907 6.37874 31.618C7.05914 31.323 7.79269 30.8512 8.56877 30.3529C9.59734 29.6884 10.6605 29.008 11.6904 28.6785C12.5387 28.4188 13.4226 28.2942 14.3096 28.309C15.4033 28.309 16.5462 28.4565 17.6518 28.5974C18.4771 28.7037 19.3302 28.8127 20.1674 28.8632C20.493 28.8818 20.7947 28.8911 21.087 28.8911C21.479 28.8925 21.8708 28.872 22.2605 28.83L22.3535 28.7967C22.9409 28.4366 23.2159 27.6618 23.4831 26.9123C23.6545 26.43 23.798 25.9981 24.0213 25.7163C24.0353 25.7032 24.0504 25.6912 24.0664 25.6805C24.0771 25.6745 24.0895 25.6724 24.1015 25.6743C24.1136 25.6762 24.1246 25.6821 24.1329 25.6911C24.1329 25.6911 24.1329 25.6911 24.1329 25.7123C23.992 28.6426 22.8173 30.4964 21.6239 32.1549L20.8266 33.0094C20.8266 33.0094 21.9415 33.0094 22.5754 32.7648C24.8904 32.0725 26.6392 30.5469 27.911 28.1137C28.2247 27.4894 28.5051 26.8488 28.7508 26.1947C28.7721 26.1403 28.9741 26.0393 28.9542 26.3276C28.9542 26.4113 28.9422 26.5044 28.9355 26.5934C28.9355 26.6506 28.9276 26.709 28.9249 26.7675C28.8917 27.1728 28.792 28.0406 28.792 28.0406L29.507 27.6565C31.2345 26.5642 32.5635 24.3702 33.5681 20.9496C33.988 19.525 34.295 18.111 34.5661 16.8618C34.8904 15.3695 35.1708 14.0805 35.4963 13.5821C35.9987 12.8007 36.7654 12.2705 37.507 11.7589L37.81 11.5476C38.7402 10.8937 39.6704 10.1363 39.8751 8.72763V8.69706C40.0292 7.65254 39.903 7.38411 39.7608 7.26185Z" fill="#003545"/>
</svg>
