<svg viewBox="0 0 40 40" fill="none" xmlns="http://www.w3.org/2000/svg">
  <path d="M25.0736 18.6733L17.0631 21.2891L10.094 24.3649L8.14433 24.8796C7.64778 25.3519 7.12714 25.8303 6.56403 26.3146C5.94645 26.8474 5.37125 27.3319 4.92918 27.683C4.43877 28.0705 3.71219 28.7971 3.34287 29.2572C2.79185 29.9474 2.35593 30.68 2.16821 31.2432C1.83517 32.2604 1.99873 33.2897 2.64052 34.2404C3.46397 35.4513 5.10485 36.6864 7.01811 37.5281C7.993 37.958 9.63383 38.509 10.869 38.8177C12.9215 39.3385 16.8935 39.9016 19.0792 39.9864C19.5212 40.0046 20.1146 40.0046 20.1388 39.9864C20.1873 39.956 20.5263 39.3082 20.92 38.503C22.2641 35.7601 23.2329 33.1868 23.7596 30.9889C24.0744 29.6569 24.3227 27.8828 24.4861 25.7819C24.5285 25.1946 24.5466 23.2267 24.5103 22.5607C24.4558 21.4708 24.3589 20.5869 24.2076 19.721C24.1834 19.5938 24.1773 19.4788 24.1894 19.4727C24.2136 19.4546 24.2862 19.4304 25.2732 19.1457L25.0735 18.6735V18.6734H25.0736V18.6733ZM23.245 19.7451C23.3177 19.7451 23.5114 21.6039 23.5598 22.7786C23.572 23.0268 23.5658 23.1903 23.5538 23.1903C23.5054 23.1903 22.5305 22.6152 21.8343 22.1792C21.2288 21.7978 20.0784 21.0348 19.8968 20.8895C19.8361 20.8472 19.8422 20.8411 20.3387 20.6715C21.1803 20.3869 23.1785 19.7451 23.245 19.7451ZM19.1641 21.0893C19.2186 21.0893 19.3578 21.1679 19.6908 21.3739C20.9381 22.1549 22.6335 23.0995 23.3601 23.4144C23.584 23.5113 23.6082 23.4749 23.0936 23.8261C21.9916 24.5769 20.6171 25.3155 18.9339 26.0603C18.6372 26.1935 18.389 26.2964 18.383 26.2964C18.3709 26.2964 18.4072 26.1451 18.4555 25.9634C18.8612 24.4557 19.0914 22.9299 19.1035 21.7068C19.1096 21.1013 19.1096 21.1013 19.1641 21.0833C19.1519 21.0893 19.1579 21.0893 19.1641 21.0893ZM18.3225 21.4102C18.3587 21.4464 18.3346 22.8028 18.2861 23.1721C18.1771 24.0561 18.0076 24.8796 17.7291 25.806C17.6625 26.0299 17.6019 26.2177 17.5899 26.2298C17.5656 26.26 16.7361 25.4487 16.4636 25.1339C15.9913 24.5889 15.622 24.044 15.3496 23.5112C15.2103 23.2387 14.9924 22.7059 15.0105 22.6877C15.1073 22.6211 18.2983 21.386 18.3225 21.4102ZM14.3626 22.9662C14.3686 22.9662 14.3746 22.9662 14.3808 22.9723C14.3928 22.9844 14.4353 23.0813 14.4716 23.1903C14.6653 23.717 15.1012 24.492 15.4767 24.9886C15.8884 25.5335 16.4274 26.1147 16.8753 26.4962C17.0207 26.6173 17.1538 26.7323 17.1719 26.7505C17.2083 26.7868 17.2204 26.7807 16.2335 27.1562C15.0892 27.5921 13.8419 28.028 12.4129 28.4882C12.0715 28.5982 11.7305 28.7092 11.3898 28.8212C11.3352 28.8394 11.3534 28.8091 11.5108 28.5609C12.2192 27.4528 13.2969 25.2792 13.9024 23.7412C14.0054 23.4748 14.1083 23.2085 14.1265 23.1479C14.1507 23.0631 14.181 23.0328 14.2596 22.9904C14.302 22.9784 14.3445 22.9662 14.3626 22.9662ZM13.1517 23.4688C13.1699 23.481 12.861 24.1288 12.5583 24.7221C11.971 25.8665 11.3292 26.9928 10.4694 28.3611C10.3241 28.5972 10.1849 28.8152 10.1667 28.8394C10.1364 28.8819 10.1243 28.8697 10.0274 28.682C9.82154 28.2763 9.65195 27.7556 9.56115 27.2772C9.4703 26.8049 9.4885 25.9815 9.59147 25.473C9.6701 25.0976 9.66412 25.1036 9.84575 25.0128C10.6208 24.6192 13.1275 23.4446 13.1517 23.4688ZM23.5962 23.8927V24.147C23.5962 25.4972 23.4509 27.3499 23.2389 28.7002C23.2026 28.9363 23.1722 29.13 23.1663 29.1362C23.1663 29.1362 22.9907 29.0878 22.7848 29.0271C21.8766 28.7425 20.8897 28.3247 19.9996 27.8344C19.4122 27.5135 18.5585 26.9866 18.5828 26.9624C18.5888 26.9564 18.8431 26.8232 19.1397 26.6657C20.3266 26.0482 21.4648 25.3822 22.4518 24.7222C22.8211 24.4739 23.3781 24.0744 23.4993 23.9653L23.5962 23.8927ZM8.58026 25.6848C8.60447 25.6848 8.59841 25.7332 8.56208 25.9512C8.53785 26.1087 8.50761 26.3993 8.49558 26.599C8.44702 27.4831 8.59243 28.137 9.02836 29.0331C9.14946 29.2814 9.2464 29.4872 9.24025 29.4932C9.19784 29.5296 5.18965 30.7043 3.93016 31.0494C3.55479 31.1523 3.2279 31.2431 3.20355 31.2491C3.16125 31.2613 3.15516 31.2552 3.17331 31.1522C3.31255 30.2622 3.99072 29.0997 4.93524 28.1188C5.56496 27.4649 6.06754 27.0835 6.92731 26.593C7.54489 26.2418 8.49549 25.7151 8.56814 25.6909C8.5682 25.6848 8.57423 25.6848 8.58026 25.6848ZM18.0258 27.3741C18.0318 27.3681 18.1771 27.4468 18.3527 27.5497C19.6484 28.3005 21.4527 28.9969 22.9906 29.3541L23.1299 29.3844L22.9361 29.4932C22.1309 29.9413 19.4849 31.0433 16.7785 32.0545C16.3849 32.1997 15.9974 32.3451 15.9246 32.3754C15.852 32.4056 15.7854 32.4238 15.7854 32.4178C15.7854 32.4116 15.8944 32.1997 16.0336 31.9394C16.7904 30.5226 17.5534 28.797 17.9409 27.5981C17.9895 27.4831 18.0196 27.3802 18.0258 27.3741ZM17.0631 27.689C17.0692 27.6952 17.0207 27.8222 16.9601 27.9675C16.4334 29.2451 15.743 30.6377 14.8591 32.1998C14.6351 32.5995 14.4474 32.9204 14.4412 32.9204C14.4353 32.9204 14.2536 32.8114 14.0356 32.6782C12.7519 31.891 11.6137 30.9223 10.869 29.9838L10.76 29.8506L11.3109 29.6992C13.2848 29.1604 14.9619 28.5791 16.6271 27.8647C16.8632 27.7678 17.057 27.689 17.0631 27.689ZM23.0452 29.7779C23.0452 29.7779 23.0513 29.784 23.0452 29.7779C23.0512 29.9172 22.7424 31.1645 22.4881 32.0666C22.2762 32.8234 22.0945 33.4168 21.7615 34.4642C21.6162 34.9245 21.4892 35.3059 21.483 35.3059C21.477 35.3059 21.4407 35.2998 21.4044 35.2878C19.6061 34.9607 17.9955 34.5066 16.4818 33.9012C16.0579 33.7316 15.4525 33.4591 15.4161 33.4289C15.4041 33.4167 15.7674 33.2472 16.2275 33.0474C18.9825 31.8425 21.8403 30.4741 22.8211 29.8869C22.9362 29.8142 23.027 29.7779 23.0452 29.7779ZM9.23422 30.2502C9.24634 30.2623 8.47737 31.3703 7.39957 32.878C7.0242 33.4047 6.58827 34.0223 6.42482 34.2524C6.26131 34.4825 6.01309 34.8458 5.87383 35.0638L5.61941 35.4573L5.34693 35.2273C5.02601 34.9608 4.46904 34.3917 4.22079 34.0768C3.70004 33.429 3.34893 32.7448 3.20966 32.1212C3.14304 31.8305 3.14304 31.6852 3.20352 31.6671C3.29432 31.6429 4.91097 31.2614 6.42476 30.9101C7.26638 30.7165 8.24113 30.4864 8.59232 30.4016C8.94354 30.3167 9.22819 30.2502 9.23422 30.2502ZM10.0092 30.5469L10.2029 30.7648C11.0749 31.7397 11.9649 32.4603 13.0427 33.0899C13.2365 33.1989 13.3817 33.2957 13.3696 33.3019C13.3273 33.3322 9.62771 34.6459 7.91423 35.2393C6.95157 35.5784 6.15834 35.8508 6.15236 35.8508C6.14633 35.8508 6.0918 35.8145 6.03116 35.7721L5.92224 35.6934L6.09781 35.4391C6.66692 34.6157 7.3815 33.7136 8.93756 31.8366L10.0092 30.5469ZM14.841 34.0041C14.8469 33.9981 15.1134 34.0949 15.4403 34.2162C16.2275 34.5128 16.8511 34.7004 17.6867 34.9124C18.716 35.1728 20.2055 35.4271 21.0835 35.4997C21.2167 35.5118 21.2893 35.5239 21.2651 35.5421C21.2226 35.5664 20.3327 35.863 19.6788 36.0689C18.6373 36.3958 15.4585 37.3343 12.8671 38.0791C12.3888 38.2183 11.977 38.3334 11.9528 38.3394C11.8923 38.3516 11.6924 38.297 11.6924 38.2728C11.6924 38.2607 11.8377 38.073 12.0134 37.8672C12.8852 36.8257 13.7511 35.6632 14.4716 34.5612C14.6714 34.2584 14.841 34.0102 14.841 34.0041ZM13.7753 34.0345C13.7813 34.0405 13.3514 34.7307 12.6007 35.9174C12.2798 36.42 11.9225 36.9891 11.7953 37.189C11.6742 37.3827 11.4926 37.6855 11.3897 37.855L11.2141 38.1638L11.1233 38.1396C10.9053 38.079 9.37344 37.5401 8.96775 37.3766C8.46517 37.1768 7.94447 36.9347 7.55693 36.7288C7.07261 36.4684 6.46717 36.0809 6.51556 36.0689C6.52765 36.0628 7.35718 35.8387 8.35617 35.5663C11.0082 34.8457 12.4795 34.428 13.4423 34.1252C13.6179 34.0707 13.7692 34.0283 13.7753 34.0345ZM21.3135 35.8024H21.3195C21.3438 35.863 20.363 38.5876 20.0056 39.4474C19.927 39.6411 19.8968 39.6896 19.8543 39.6835C19.7514 39.6775 18.3286 39.4777 17.4626 39.3505C15.955 39.1204 13.4241 38.6784 12.7884 38.5331L12.6431 38.5029L13.5451 38.2969C15.4827 37.861 16.4152 37.6249 17.3597 37.3342C18.5525 36.9709 19.7333 36.5168 20.926 35.9598C21.1137 35.875 21.2711 35.8084 21.3135 35.8024Z" fill="url(#paint0_linear_1322_23862)"/>
  <path d="M16.8149 0.000310119C16.6817 -0.0177547 14.5322 0.757247 13.1457 1.32027C11.2747 2.08327 9.82164 2.80988 8.92549 3.43945C8.59253 3.67569 8.17467 4.09341 8.10816 4.25686C8.08395 4.31742 8.07178 4.39007 8.07178 4.46272L8.88316 5.23169L10.8146 5.84928L15.4102 6.67275L20.6657 7.57493L20.7203 7.12082C20.7021 7.12082 20.69 7.11479 20.6719 7.11479L19.9815 7.00576L19.8424 6.75754C19.1279 5.49811 18.3407 3.93596 17.8806 2.88242C17.5234 2.06501 17.1843 1.12055 16.9966 0.442382C16.8936 0.03066 16.8816 0.00645267 16.8151 0.000421741V0.000282H16.8149V0.000310119ZM16.7179 0.3092H16.7241C16.7301 0.315175 16.7543 0.484823 16.7786 0.684513C16.8814 1.53231 17.0693 2.34958 17.3659 3.23361C17.5899 3.89967 17.5899 3.86337 17.3296 3.78461C16.712 3.61513 13.945 3.13678 11.9408 2.85827C11.6199 2.81586 11.3474 2.7735 11.3474 2.76747C11.3232 2.74326 12.7945 1.97424 13.4424 1.67157C14.2719 1.29003 16.5485 0.339438 16.7179 0.3092ZM10.8811 3.02172L11.1174 3.10035C12.4009 3.53636 15.628 4.15397 17.4082 4.29927C17.608 4.31745 17.7776 4.33565 17.7836 4.33565C17.7896 4.34168 17.6202 4.43251 17.4021 4.5354C16.5424 4.9653 15.5978 5.49208 14.9439 5.89777C14.7502 6.01881 14.5745 6.11575 14.5504 6.11575C14.5262 6.11575 14.3991 6.09152 14.2658 6.07334L14.0237 6.03696L13.4183 5.44356C12.3526 4.40825 11.517 3.60904 11.1961 3.30623L10.8811 3.02172ZM10.639 3.20938L11.4927 4.27506C11.9589 4.86238 12.4312 5.43755 12.5342 5.56465C12.6371 5.69189 12.7219 5.79486 12.7158 5.80089C12.6916 5.81904 11.4807 5.58285 10.8388 5.43761C10.1789 5.28619 9.90641 5.21354 9.50074 5.08645L9.1677 4.97742V4.89259C9.17373 4.4869 9.68846 3.88146 10.5603 3.26394L10.639 3.20938ZM17.8926 4.66255C17.9169 4.66255 17.9471 4.71703 18.0197 4.8805C18.2256 5.33458 18.8675 6.55771 19.0248 6.79381C19.0734 6.87261 19.158 6.87864 18.3044 6.73937C16.2519 6.40627 15.5918 6.29741 15.5918 6.28529C15.5918 6.27926 15.6524 6.23685 15.7311 6.19444C16.3669 5.84333 17.0086 5.39523 17.5778 4.91688C17.7171 4.80182 17.8443 4.69285 17.8684 4.67464C17.8744 4.66255 17.8866 4.65652 17.8926 4.66255Z" fill="url(#paint1_linear_1322_23862)"/>
  <path d="M8.15036 4.17212C8.15036 4.17212 8.01724 4.38412 8.14436 4.69899C8.22315 4.89268 8.45319 5.12877 8.7135 5.37102C8.7135 5.37102 11.4079 7.99877 11.7349 8.37422C13.2243 10.0937 13.8722 11.7891 13.9327 14.1263C13.9691 15.6279 13.6844 16.9478 12.9761 18.4797C11.7167 21.2286 9.05855 24.2621 4.95947 27.6285L5.55899 27.4287C5.94648 27.138 6.47326 26.8293 7.7084 26.1512C10.5602 24.5889 13.7692 23.154 17.7049 21.6766C23.372 19.5453 32.6905 17.0506 37.9944 16.2394L38.5455 16.1546L38.4606 16.0214C37.9763 15.2705 37.6432 14.8044 37.2436 14.3079C36.0811 12.8668 34.6704 11.6983 32.9447 10.7295C30.5713 9.40356 27.5014 8.36819 23.6143 7.59922C22.8817 7.45384 21.2711 7.17535 19.9633 6.97555C17.1901 6.54576 15.3979 6.24902 13.4241 5.90995C12.7157 5.7888 11.6561 5.6072 10.9537 5.45587C10.5904 5.37708 9.89419 5.21363 9.34926 5.02594C8.91333 4.85632 8.28357 4.68679 8.15036 4.17212ZM9.7126 5.68588C9.71857 5.67991 9.81543 5.71612 9.94267 5.75853C10.1727 5.83716 10.4694 5.92801 10.8207 6.02495C11.0864 6.09805 11.3528 6.16868 11.6199 6.23685C11.9832 6.32762 12.2858 6.41241 12.2919 6.41241C12.3343 6.45483 12.9459 8.41038 13.1518 9.1612C13.2304 9.44586 13.291 9.68799 13.285 9.68799C13.2787 9.69413 13.2122 9.59113 13.1336 9.45189C12.4251 8.20458 11.305 6.93914 10.0092 5.9219C9.83978 5.80092 9.7126 5.69191 9.7126 5.68588ZM12.6915 6.50933C12.7218 6.50933 12.855 6.5275 13.0184 6.5638C14.0478 6.79387 15.8945 7.14506 17.0752 7.34489C17.275 7.37513 17.4325 7.41154 17.4325 7.42357C17.4325 7.43574 17.3597 7.47804 17.2689 7.52654C17.0692 7.62943 16.2638 8.10772 15.9975 8.2894C15.3253 8.73745 14.7199 9.22182 14.2839 9.65775C14.1084 9.83337 13.9569 9.97867 13.9569 9.97867C13.9569 9.97867 13.9207 9.87578 13.8903 9.74855C13.6725 8.90693 13.2183 7.65961 12.8065 6.78172C12.7399 6.64251 12.6854 6.51533 12.6854 6.50327C12.6854 6.51536 12.6854 6.50933 12.6915 6.50933ZM17.935 7.50837C17.9713 7.52043 18.0318 7.72632 18.1529 8.1804C18.377 9.0584 18.4799 10.0393 18.4436 10.9535C18.4314 11.2078 18.4194 11.4439 18.4072 11.4743L18.3891 11.5348L18.0742 11.4319C17.4263 11.226 16.3729 10.9172 15.4707 10.6629C14.956 10.5236 14.5383 10.3965 14.5383 10.3844C14.5383 10.348 15.2891 9.59725 15.61 9.3127C16.2214 8.77374 17.8804 7.49016 17.935 7.50837ZM18.3527 7.56884C18.3709 7.55078 20.8595 7.98057 21.9917 8.19857C22.8334 8.36202 24.0564 8.61635 24.129 8.64668C24.1654 8.65874 24.0382 8.73139 23.6325 8.91301C22.0341 9.6336 20.8473 10.2814 19.6667 11.0686C19.3579 11.2744 19.0975 11.4439 19.0915 11.4439C19.0854 11.4439 19.0794 11.2684 19.0794 11.0565C19.0794 9.90608 18.8493 8.74353 18.4254 7.76267C18.383 7.66578 18.3467 7.57499 18.3527 7.56884ZM24.789 8.84042C24.8072 8.85857 24.7284 9.34906 24.6558 9.63963C24.4378 10.5418 23.8505 11.88 23.1301 13.1393C23.0028 13.3634 22.8878 13.545 22.8756 13.551C22.8636 13.5571 22.7001 13.4662 22.5124 13.3572C21.8101 12.9455 21.0108 12.558 20.1389 12.1947C19.8968 12.0918 19.6848 12.007 19.6788 11.995C19.6363 11.9586 21.586 10.6689 22.6153 10.0514C23.4327 9.55489 24.7647 8.81616 24.789 8.84042ZM25.2491 8.91304C25.3036 8.91304 26.4056 9.21582 26.9807 9.38535C28.4037 9.80922 30.0384 10.4086 31.1041 10.893L31.546 11.0929L31.2373 11.1655C28.6338 11.7648 26.4056 12.4552 24.2561 13.327C24.0805 13.3997 23.9231 13.4602 23.9111 13.4602C23.8989 13.4602 23.9595 13.321 24.0382 13.1514C24.6861 11.777 25.1039 10.342 25.2067 9.11888C25.2129 9.00381 25.2309 8.91304 25.2491 8.91304ZM14.2779 11.4319C14.296 11.4137 15.1377 11.6135 15.5918 11.7406C16.282 11.9344 17.7472 12.4248 17.7472 12.4612C17.7472 12.4672 17.5838 12.6065 17.3901 12.776C16.5969 13.436 15.834 14.1322 14.9196 15.0163C14.6472 15.2767 14.4171 15.4886 14.4051 15.4886C14.3929 15.4886 14.387 15.4522 14.3929 15.4038C14.5321 14.3865 14.502 13.0787 14.3082 11.7527C14.29 11.5832 14.2718 11.4379 14.2779 11.4319ZM31.964 11.4501C31.9759 11.4621 31.5764 12.0918 31.3221 12.449C30.9589 12.9697 30.4259 13.6601 29.221 15.1738C28.5854 15.9729 27.8708 16.8751 27.6348 17.1779C27.3925 17.4806 27.1927 17.7348 27.1866 17.7348C27.1806 17.7348 27.102 17.6259 27.0171 17.4927C26.339 16.4755 25.5276 15.5854 24.5649 14.7862C24.3832 14.6348 24.1835 14.4713 24.1169 14.4229C24.0503 14.3745 23.9958 14.326 23.9958 14.32C23.9958 14.3019 25.025 13.8598 25.8062 13.545C27.1746 12.9879 29.0393 12.3219 30.438 11.892C31.1707 11.6619 31.9518 11.4379 31.964 11.4501ZM32.4301 11.5711C32.4543 11.5651 32.5997 11.6377 32.7753 11.7406C34.2466 12.5822 35.6876 13.6661 36.8259 14.7802C37.1468 15.095 37.94 15.9185 37.9278 15.9245C37.9278 15.9245 37.6493 15.9487 37.3224 15.9729C34.7733 16.1667 31.5099 16.7055 28.3734 17.4624C28.1615 17.5107 27.9739 17.5532 27.9617 17.5532C27.9497 17.5532 28.1858 17.3171 28.4825 17.0325C30.3231 15.2585 31.1648 14.1383 32.1577 12.1402C32.2969 11.8436 32.4181 11.5893 32.4301 11.5711C32.4241 11.5711 32.4241 11.5711 32.4301 11.5711ZM18.9461 12.9517C19.0309 12.9697 19.818 13.3392 20.4114 13.6358C20.9563 13.9082 21.7738 14.3442 21.8161 14.3805C21.8221 14.3865 21.5315 14.5379 21.1744 14.7135C20.036 15.2827 19.0612 15.8215 18.0439 16.4391C17.7533 16.6147 17.5111 16.7601 17.5051 16.7601C17.4809 16.7601 17.4869 16.7358 17.6504 16.4391C18.1954 15.4462 18.6313 14.2595 18.8796 13.1029C18.9037 13.0121 18.928 12.9517 18.9461 12.9517ZM18.1589 13.0969C18.1771 13.1151 17.9713 13.8598 17.8442 14.2655C17.5959 15.0345 17.1781 15.9971 16.7725 16.7237C16.6755 16.8932 16.5302 17.1415 16.4515 17.2807L16.3002 17.5229L15.9611 17.196C15.5676 16.8145 15.2466 16.5784 14.835 16.3664C14.6714 16.2817 14.5443 16.209 14.5443 16.197C14.5443 16.1485 15.5797 15.2101 16.3728 14.5319C16.9419 14.0415 18.1408 13.0788 18.1589 13.0969ZM22.9726 15.0769L23.2693 15.2706C23.9473 15.7126 24.7465 16.2999 25.3582 16.8145C25.7032 17.099 26.3692 17.6986 26.5025 17.8439L26.5751 17.9227L26.0848 18.0619C23.3116 18.8308 21.1682 19.515 18.6676 20.4354C18.3891 20.5382 18.1529 20.623 18.1347 20.623C18.0985 20.623 18.0681 20.6532 18.6918 20.078C20.2903 18.6068 21.7071 16.984 22.7606 15.4037L22.9726 15.0769ZM21.7071 15.3917C21.7192 15.4038 20.8897 16.5723 20.3932 17.2323C19.7998 18.0195 18.7463 19.3394 18.0197 20.1991C17.717 20.5564 17.4567 20.853 17.4446 20.8591C17.4263 20.8652 17.4203 20.7744 17.4203 20.6351C17.4203 19.9024 17.2327 19.1213 16.9057 18.4554C16.7664 18.1769 16.7421 18.1102 16.7725 18.08C16.8875 17.977 18.6495 16.9719 19.7635 16.3725C20.5143 15.9729 21.6888 15.3796 21.7071 15.3917ZM14.0538 17.2687C14.072 17.2687 14.2113 17.3413 14.3687 17.4261C14.7562 17.638 15.1013 17.8741 15.4101 18.1285C15.4222 18.1406 15.2648 18.2678 15.059 18.419C14.4837 18.8308 13.6119 19.4908 13.1033 19.8965C12.5704 20.3203 12.5524 20.3324 12.6128 20.2416C13.0125 19.6301 13.2122 19.2849 13.4242 18.843C13.6119 18.4494 13.7995 17.9832 13.9327 17.5775C13.9812 17.4019 14.0417 17.2687 14.0538 17.2687ZM16.0944 18.8671C16.1245 18.8611 16.161 18.9156 16.3244 19.1578C16.6695 19.6724 16.9359 20.3627 17.0026 20.9197L17.0146 21.0409L16.1852 21.3618C14.7017 21.9369 13.3334 22.5061 12.4069 22.9299C12.1466 23.051 11.6925 23.269 11.3958 23.4144C11.0991 23.5657 10.8569 23.6807 10.8569 23.6747C10.8569 23.6687 11.0446 23.5294 11.2747 23.3598C13.0852 22.046 14.6533 20.6049 15.8279 19.1639C15.9551 19.0124 16.0702 18.8732 16.0822 18.8671L16.0944 18.8671ZM15.1559 19.0972C15.1801 19.1214 14.4899 19.9025 14.0176 20.3808C12.849 21.5737 11.6925 22.5061 10.2575 23.4144C10.0759 23.5294 9.91243 23.6323 9.89422 23.6444C9.85181 23.6687 9.90629 23.6081 10.536 22.9239C10.9357 22.494 11.2384 22.1307 11.5835 21.6827C11.8136 21.3861 11.856 21.3436 12.189 21.1074C13.0791 20.4656 15.1316 19.073 15.1559 19.0972Z" fill="url(#paint2_radial_1322_23862)"/>
  <defs>
    <linearGradient id="paint0_linear_1322_23862" x1="8.02662" y1="36.0432" x2="10.9232" y2="34.3317" gradientUnits="userSpaceOnUse">
      <stop stop-color="#909CA9"/>
      <stop offset="1" stop-color="#EDEDEE"/>
    </linearGradient>
    <linearGradient id="paint1_linear_1322_23862" x1="8.09302" y1="3.77578" x2="10.4237" y2="3.77578" gradientUnits="userSpaceOnUse">
      <stop stop-color="#939FAB"/>
      <stop offset="1" stop-color="#DCDEE1"/>
    </linearGradient>
    <radialGradient id="paint2_radial_1322_23862" cx="0" cy="0" r="1" gradientUnits="userSpaceOnUse" gradientTransform="translate(19.8536 14.465) rotate(-171.457) scale(3.00489 6.01126)">
      <stop stop-color="#EE352C"/>
      <stop offset="1" stop-color="#A91D22"/>
    </radialGradient>
  </defs>
</svg>
