<svg xmlns="http://www.w3.org/2000/svg" viewBox="0 0 16 16">
	<defs>
		<linearGradient id="a" x2="50%" y1="0%" y2="105%">
			<stop offset="0%" stop-color="#999875"/>
			<stop offset="95.238%" stop-color="#E0DECD"/>
			<stop offset="100%" stop-color="#FBF9EF"/>
		</linearGradient>
		<linearGradient id="b" x1="45.2%" x2="51.799%" y1="1.796%" y2="98.654%">
			<stop offset="0%" stop-color="#48A547"/>
			<stop offset="100%" stop-color="#3F9143"/>
		</linearGradient>
		<linearGradient id="c" x1="45.593%" x2="57.073%" y1="57.366%" y2="47.405%">
			<stop offset="0%" stop-color="#41A247"/>
			<stop offset="100%" stop-color="#69B655"/>
		</linearGradient>
	</defs>
	<g fill="none">
		<path fill="url(#a)" d="M6.821,13.518 C7.604,13.671 7.549,15.84 7.549,15.84 L7.549,15.84 L7.978,15.982 C7.978,15.982 7.891,14.849 8.012,14.303 L8.012,14.303 C8.133,13.755 8.776,13.433 8.776,13.433 L8.776,13.433 C8.145,4.869 7.659,2.01 7.311,2.01 L7.311,2.01 C6.626,2.01 6.479,13.121 6.821,13.518 z"/>
		<path fill="url(#b)" d="M7.71,10.357 C7.71,10.357 7.383,13.506 8.209,13.886 L8.209,13.886 C8.209,13.886 11.934,11.433 11.061,6.339 L11.061,6.339 C10.222,2.637 8.237,1.42 8.023,0.956 L8.023,0.956 C7.789,0.626 7.553,0.044 7.553,0.044 L7.553,0.044 L7.71,10.357 Z"/>
		<path fill="url(#c)" d="M7.187,0.786 C6.707,1.161 4.239,3.229 4.037,7.434 L4.037,7.434 C3.837,11.64 7.331,14.024 7.331,14.024 L7.331,14.024 C7.575,13.464 7.829,10.717 7.74,7.75 L7.74,7.75 C7.717,6.988 7.753,0.468 7.535,0 L7.535,0 C7.51,0.326 7.498,0.454 7.187,0.786 z"/>
	</g>
</svg>
