<svg viewBox="0 0 40 40" fill="none" xmlns="http://www.w3.org/2000/svg">
  <path fill-rule="evenodd" clip-rule="evenodd" d="M36.8447 31.1578C34.6692 31.0972 32.9814 31.3202 31.5668 31.9152C31.1595 32.0788 30.5059 32.0788 30.4522 32.5915C30.6699 32.8066 30.6961 33.1586 30.887 33.4568C31.2132 33.9979 31.7851 34.7269 32.3016 35.105L34.0424 36.349C35.1033 36.9974 36.3002 37.3761 37.3337 38.0251C37.9325 38.4038 38.5306 38.8904 39.1294 39.2963C39.4342 39.5127 39.619 39.8647 40.0001 39.9993V39.9175C39.8098 39.6751 39.7549 39.3236 39.5653 39.0522L38.7483 38.2687C37.9599 37.2143 36.98 36.2945 35.9191 35.5382C35.0484 34.9432 33.1448 34.1324 32.7912 33.1326L32.7375 33.072C33.3351 33.0114 34.0424 32.8011 34.6143 32.6387C35.5399 32.3964 36.3825 32.4497 37.3337 32.2067L38.6404 31.828V31.5856C38.1507 31.099 37.7971 30.45 37.2807 29.9907C35.8935 28.8012 34.3692 27.6384 32.7912 26.6653C31.9479 26.1247 30.8596 25.7727 29.962 25.314C29.6346 25.1516 29.0913 25.0704 28.9011 24.8001C28.4103 24.2063 28.1389 23.4216 27.7853 22.7181L25.5549 18.0141C25.0653 16.9597 24.7653 15.9053 24.1677 14.9322C21.3654 10.336 18.318 7.55168 13.6389 4.82065C12.6328 4.25287 11.4359 4.00867 10.1634 3.71175L8.12322 3.60268C7.68726 3.41362 7.25253 2.89977 6.87145 2.65618C5.3209 1.68302 1.32166 -0.425698 0.178412 2.3532C-0.556316 4.11047 1.26678 5.84046 1.88566 6.73303C2.34906 7.35474 2.9466 8.05765 3.27402 8.76055C3.45694 9.21986 3.51792 9.70705 3.70877 10.1936C4.1435 11.3831 4.55203 12.7083 5.12334 13.8172C5.42821 14.385 5.74832 14.9807 6.1294 15.4939C6.34708 15.7969 6.72816 15.9266 6.80925 16.4131C6.42817 16.9543 6.40195 17.7644 6.18428 18.4413C5.20444 21.4965 5.58552 25.2813 6.97266 27.5306C7.40862 28.2062 8.43602 29.6938 9.82987 29.1254C11.0542 28.6388 10.7811 27.0979 11.1347 25.746C11.217 25.4218 11.1621 25.2055 11.3249 24.9886V25.0492L12.4407 27.293C13.284 28.6176 14.7535 29.9968 15.9772 30.9166C16.6296 31.4032 17.1467 32.2418 17.9625 32.5388V32.457H17.9088C17.7454 32.2146 17.5003 32.1055 17.2826 31.9164C16.793 31.4299 16.2491 30.8348 15.8681 30.2943C14.726 28.7806 13.72 27.104 12.8218 25.374C12.3859 24.5359 12.0048 23.6167 11.6524 22.7787C11.4877 22.4539 11.4877 21.9667 11.2164 21.8055C10.8079 22.3993 10.2103 22.9144 9.90975 23.644C9.39269 24.8062 9.33904 26.2393 9.1488 27.7263C9.03905 27.7535 9.08783 27.7263 9.03905 27.7869C8.16957 27.5712 7.86958 26.678 7.54338 25.9218C6.72755 24.0021 6.59097 20.9202 7.29826 18.703C7.48849 18.1353 8.30554 16.3507 7.97933 15.8102C7.8147 15.2964 7.27204 14.9994 6.97205 14.5935C6.6184 14.0796 6.23854 13.4312 5.99343 12.8635C5.34102 11.3486 5.01481 9.67312 4.30691 8.15884C3.97948 7.45594 3.40878 6.72576 2.94599 6.07739C2.42894 5.34722 1.85883 4.83337 1.45031 3.96867C1.31434 3.6657 1.12411 3.18457 1.34178 2.85978C1.39544 2.64346 1.50519 2.5568 1.72164 2.50833C2.07529 2.20535 3.08257 2.58953 3.43621 2.75071C4.44227 3.1567 5.28553 3.53481 6.12879 4.10198C6.50987 4.37224 6.9184 4.88609 7.40801 5.02182H7.97994C8.85063 5.21088 9.82926 5.08242 10.6445 5.3248C12.0865 5.78532 13.3919 6.46035 14.5626 7.19113C18.1259 9.43498 21.0648 12.6253 23.0501 16.438C23.3763 17.0597 23.5123 17.6275 23.8123 18.2764C24.3842 19.6017 25.0915 20.9529 25.6616 22.2515C26.2335 23.5222 26.7774 24.8207 27.5932 25.8751C28.0017 26.4429 29.6334 26.7398 30.3675 27.0373C30.912 27.2797 31.7546 27.4978 32.2455 27.7948C33.1698 28.3625 34.0948 29.0115 34.9649 29.6332C35.3996 29.9568 36.7605 30.633 36.8416 31.1723L36.8447 31.1578ZM9.10185 7.66378C8.72599 7.66047 8.3513 7.7059 7.98726 7.79891V7.8595H8.04091C8.25859 8.29215 8.63968 8.58967 8.91162 8.96839L9.53781 10.2663L9.59146 10.2057C9.97255 9.93549 10.1634 9.50284 10.1634 8.85447C9.99999 8.66542 9.97316 8.47575 9.83719 8.2867C9.67378 8.01644 9.32014 7.88071 9.10185 7.66499V7.66378Z" fill="#00678C"/>
</svg>
