<svg xmlns="http://www.w3.org/2000/svg" viewBox="0 0 16 16">
    <g fill="none" fill-rule="evenodd" transform="translate(1)">
        <g transform="translate(0 .5)">
            <mask id="neo4j-b" fill="#fff">
                <polygon id="neo4j-a" points="0 .082 13.37 .082 13.37 13.451 0 13.451"/>
            </mask>
            <path fill="#008DC2" d="M13.369675,6.766475 C13.369675,10.458725 10.376925,13.451475 6.684925,13.451475 C2.992675,13.451475 -7.5e-05,10.458725 -7.5e-05,6.766475 C-7.5e-05,3.074225 2.992675,0.0817219365 6.684925,0.0817219365 C10.376925,0.078225 13.369675,3.074225 13.369675,6.766475" mask="url(#neo4j-b)"/>
        </g>
        <path fill="#FFF" d="M2.96355 5.073725C2.96355 5.368475 2.72405 5.608225 2.42905 5.608225 2.1343 5.608225 1.8948 5.368475 1.8948 5.073725 1.8948 4.778975 2.1343 4.53922323 2.42905 4.53922323 2.72355 4.538475 2.9628 4.776475 2.96355 5.070975L2.96355 5.073725M3.05425 6.541025C3.05425 6.835775 2.8145 7.075525 2.51975 7.075525 2.225 7.075525 1.9855 6.835775 1.9855 6.541025 1.9855 6.246275 2.225 6.00652323 2.51975 6.00652323 2.81425 6.005775 3.0535 6.243775 3.05425 6.538025L3.05425 6.541025M4.113325 9.488275C4.113325 9.783025 3.873575 10.022775 3.578825 10.022775 3.284075 10.022775 3.044575 9.783025 3.044575 9.488275 3.044575 9.193275 3.284075 8.953775 3.578825 8.953775 3.873575 8.950775 4.113325 9.190275 4.113325 9.488275M3.381325 8.095525C3.381325 8.390275 3.141575 8.629775 2.846825 8.629775 2.552075 8.629775 2.312325 8.390275 2.312325 8.095525 2.312325 7.800775 2.552075 7.561025 2.846825 7.561025 3.141575 7.557775 3.381325 7.797525 3.381325 8.095525M9.836225 11.434825C9.836225 11.729575 9.596475 11.969325 9.301725 11.969325 9.007225 11.969325 8.767475 11.729575 8.767475 11.434825 8.767475 11.139825 9.007225 10.900325 9.301725 10.900325 9.596475 10.900325 9.836225 11.139825 9.836225 11.434825M10.8079 10.2849C10.8079 10.57965 10.56815 10.8194 10.2734 10.8194 9.97865 10.8194 9.73915 10.57965 9.73915 10.2849 9.73915 9.9899 9.97865 9.7504 10.2734 9.7504 10.56815 9.7504 10.8079 9.99015 10.8079 10.2849M7.990025 2.15565C7.990025 2.4504 7.750275 2.69015 7.455525 2.69015 7.161025 2.69015 6.921275 2.4504 6.921275 2.15565 6.921275 1.8609 7.161025 1.62115 7.455525 1.62115 7.750275 1.62115 7.990025 1.8609 7.990025 2.15565M6.584525 1.662475C6.584525 1.957225 6.344775 2.196975 6.050025 2.196975 5.755275 2.196975 5.515525 1.957975 5.515525 1.662475 5.515525 1.366725 5.755275 1.127975 6.050025 1.127975 6.344775 1.127975 6.584525 1.367725 6.584525 1.662475"/>
        <path fill="#68B346" d="M10.373825,2.110225 C12.341325,2.110225 13.936575,3.705225 13.936575,5.672725 C13.936575,7.640475 12.341325,9.235475 10.373825,9.235475 C8.406325,9.235475 6.811325,7.640475 6.811325,5.672725 C6.811325,3.705225 8.406325,2.110225 10.373825,2.110225"/>
        <g transform="translate(6.5 1.75)">
            <mask id="neo4j-d" fill="#fff">
                <polygon id="neo4j-c" points=".164 .213 7.584 .213 7.584 7.633 .164 7.633"/>
            </mask>
            <path fill="#FFF" d="M3.873825,0.5078 C1.990825,0.5078 0.458825,2.0398 0.458825,3.9228 C0.458825,5.80605 1.990825,7.3378 3.873825,7.3378 C5.756825,7.3378 7.288825,5.80605 7.288825,3.9228 C7.288825,2.0398 5.756825,0.5078 3.873825,0.5078 M3.873825,7.6333 C1.827825,7.6333 0.163575,5.9688 0.163575,3.9228 C0.163575,1.87705 1.827825,0.21255 3.873825,0.21255 C5.919825,0.21255 7.584325,1.87705 7.584325,3.9228 C7.584325,5.9688 5.919825,7.6333 3.873825,7.6333" mask="url(#neo4j-d)"/>
        </g>
        <path fill="#68B346" d="M5.492975,10.0227 C7.102725,10.0227 8.407975,11.3277 8.407975,12.93745 C8.407975,14.54745 7.102725,15.8522 5.492975,15.8522 C3.883225,15.8522 2.578225,14.54745 2.578225,12.93745 C2.578225,11.3277 3.883225,10.0227 5.492975,10.0227"/>
        <path fill="#FFF" d="M5.492975,10.1704 C3.966975,10.1704 2.725725,11.41165 2.725725,12.9374 C2.725725,14.4634 3.966975,15.70465 5.492975,15.70465 C7.018975,15.70465 8.260225,14.4634 8.260225,12.9374 C8.260225,11.41165 7.018975,10.1704 5.492975,10.1704 M5.492975,15.9999 C3.804475,15.9999 2.430475,14.62615 2.430475,12.9374 C2.430475,11.24865 3.804475,9.8749 5.492975,9.8749 C7.181725,9.8749 8.555725,11.24865 8.555725,12.9374 C8.555725,14.62615 7.181725,15.9999 5.492975,15.9999"/>
        <path fill="#68B346" d="M3.093075,0.147575 C4.166325,0.147575 5.036325,1.017575 5.036325,2.090825 C5.036325,3.164075 4.166325,4.034075 3.093075,4.034075 C2.019825,4.034075 1.149825,3.164075 1.149825,2.090825 C1.149825,1.017575 2.019825,0.147575 3.093075,0.147575"/>
        <g transform="translate(1)">
            <mask id="neo4j-f" fill="#fff">
                <polygon id="neo4j-e" points=".002 0 4.184 0 4.184 4.182 .002 4.182"/>
            </mask>
            <path fill="#FFF" d="M2.093075,0.295175 C1.103075,0.295175 0.297325,1.100675 0.297325,2.090925 C0.297325,3.080925 1.103075,3.886425 2.093075,3.886425 C3.083075,3.886425 3.888825,3.080925 3.888825,2.090925 C3.888825,1.100675 3.083075,0.295175 2.093075,0.295175 M2.093075,4.181675 C0.940325,4.181675 0.002325,3.243675 0.002325,2.090925 C0.002325,0.937925 0.940325,-7.5e-05 2.093075,-7.5e-05 C3.245825,-7.5e-05 4.183825,0.937925 4.183825,2.090925 C4.183825,3.243675 3.245825,4.181675 2.093075,4.181675" mask="url(#neo4j-f)"/>
        </g>
    </g>
</svg>
