<svg xmlns="http://www.w3.org/2000/svg" viewBox="0 0 16 16">
	<g fill="none">
		<path fill="#00467F" d="M1.15463195e-14,1 L9.7254902,1 L9.7254902,8.95918367 L5.93795438,4.36959262 L1.15463195e-14,4.36959262 L1.15463195e-14,1 Z M5.89012149,7.48851947 C7.15477854,9.01869267 8.36838713,10.5986148 9.61902716,12.1423138 L15.5982325,12.1423138 L15.5982325,15.6012074 L5.89012149,15.6012074 L5.89012149,7.48851947 Z"/>
		<path fill="#B9C7D4" d="M3.74162516,4.97387339 L3.74162516,12.0805584 C4.22454932,12.0805584 4.75264994,12.0805584 5.25252712,12.0802805 L5.25252712,14.8789123 L0.687714687,14.8789123 L0.687714687,4.97387339 L3.74162516,4.97387339 Z M10.3154835,4.37296751 L10.3154835,1.63288561 L14.9124025,1.63288561 L14.9124025,11.5379245 L11.8585868,11.5379245 L11.8585868,4.37296751 L10.3154835,4.37296751 Z"/>
	</g>
</svg>
