<svg viewBox="0 0 40 40" fill="none" xmlns="http://www.w3.org/2000/svg">
  <path d="M17.2697 20.7597H19.9116L18.5147 18.5122L15.9508 22.5757H14.784L17.9025 17.6945C18.038 17.4973 18.264 17.3782 18.5147 17.3782C18.7571 17.3782 18.9831 17.4932 19.1146 17.6863L22.2454 22.5757H21.0786L20.5281 21.6677H17.8533L17.2698 20.7597H17.2697ZM29.3905 21.6676V17.4274H28.4004V22.0827C28.4004 22.21 28.4496 22.3333 28.5441 22.4278C28.6386 22.5223 28.766 22.5757 28.9057 22.5757H33.4212L34.0047 21.6677H29.3905L29.3905 21.6676ZM13.0089 20.9075C13.9704 20.9075 14.7511 20.131 14.7511 19.1695C14.7511 18.208 13.9704 17.4274 13.0089 17.4274H8.67706V22.5758H9.66692V18.3356H12.9432C13.4034 18.3356 13.7732 18.7095 13.7732 19.1697C13.7732 19.6298 13.4034 20.0037 12.9432 20.0037L10.1518 19.9996L13.1075 22.5758H14.5456L12.557 20.9077H13.009L13.0089 20.9075ZM2.58389 22.5757C1.16266 22.5758 0.00927734 21.4253 0.00927734 20.0037C0.00927734 18.582 1.16266 17.4275 2.58389 17.4275H5.57628C6.99782 17.4275 8.15035 18.582 8.15035 20.0037C8.15035 21.4253 6.99782 22.5757 5.5762 22.5757H2.58389ZM5.50975 21.6677C6.4305 21.6677 7.17626 20.924 7.17626 20.0036C7.17626 19.0833 6.4305 18.3356 5.50975 18.3356H2.65011C1.72967 18.3356 0.983523 19.0833 0.983523 20.0037C0.983523 20.924 1.72967 21.6677 2.65003 21.6677H5.50967H5.50975ZM24.3121 22.5757C22.8906 22.5757 21.736 21.4253 21.736 20.0037C21.736 18.582 22.8906 17.4275 24.3121 17.4275H27.8663L27.2869 18.3356H24.3779C23.4575 18.3356 22.7098 19.0833 22.7098 20.0037C22.7098 20.924 23.4575 21.6677 24.3779 21.6677H27.9484L27.3649 22.5757H24.3121ZM36.4207 21.6677C35.6606 21.6677 35.0155 21.1583 34.8183 20.4556H39.0503L39.6337 19.5476H34.8183C35.0155 18.8491 35.6606 18.3356 36.4207 18.3356H39.3256L39.913 17.4274H36.3549C34.9333 17.4274 33.7787 18.5819 33.7787 20.0035C33.7787 21.4252 34.9333 22.5757 36.3549 22.5757H39.4077L39.9911 21.6677H36.4206H36.4207Z" fill="#EA1B22"/>
</svg>
