<svg xmlns="http://www.w3.org/2000/svg" viewBox="0 0 32 32">
	<path d="M31.437 19.173a1.584 1.584 0 0 0-1.308-1.056 2.95 2.95 0 0 0-1.042.057 9.143 9.143 0 0 1-1.61.209 31.215 31.215 0 0 0 3.284-7.804c1.092-4.219.51-6.137-.172-7.007A9.409 9.409 0 0 0 22.993.001a13.48 13.48 0 0 0-3.945.553 13.761 13.761 0 0 0-2.307-.208 7.516 7.516 0 0 0-4.017.991A18.485 18.485 0 0 0 9.886.626C7.106.166 4.87.518 3.232 1.676 1.249 3.075.329 5.511.502 8.903a41.417 41.417 0 0 0 1.609 7.474 25.443 25.443 0 0 0 1.732 4.412 5.45 5.45 0 0 0 2.795 2.91 2.742 2.742 0 0 0 2.716-.589 2.224 2.224 0 0 0 .575.489 3.889 3.889 0 0 0 1.078.452 5.804 5.804 0 0 0 3.773-.222c.007.194.014.38.014.546l.022.762a13.18 13.18 0 0 0 .503 3.772 1.678 1.678 0 0 1 .064.201 4.577 4.577 0 0 0 1.136 1.998 3.358 3.358 0 0 0 2.385.891 5.285 5.285 0 0 0 1.114-.122 5.259 5.259 0 0 0 3.529-2.04c.927-1.323 1.38-3.306 1.458-6.44.007-.086.022-.172.029-.251l.022-.165.215.021.058.007a8.612 8.612 0 0 0 3.614-.625c.726-.345 3.04-1.566 2.494-3.212zm-2.89 2.343a7.226 7.226 0 0 1-2.335.532 5.225 5.225 0 0 1-1.818-.137c-.165 1.502-.51 4.297-.71 5.469-.382 2.191-1.36 3.19-3.608 3.672a5.234 5.234 0 0 1-1.05.122 3.266 3.266 0 0 1-3.118-2.407 27.33 27.33 0 0 1-.438-6.497 4.483 4.483 0 0 1-4.283.877c-.144-.036-1.387-.374-1.373-1.164.015-.733 1.057-.941 1.452-1.028 1.38-.28 1.466-.395 1.897-.941.086-.108.187-.237.309-.388a.122.122 0 0 0-.007-.05 3.968 3.968 0 0 1-1.775-.475 65.518 65.518 0 0 0-2.465 2.789 2.095 2.095 0 0 1-2.35.92c-1.401-.468-2.73-2.739-3.952-6.741A40.578 40.578 0 0 1 1.356 8.81c-.15-3.069.64-5.246 2.357-6.46 3.069-2.178 8.034-.51 9.12-.101a6.557 6.557 0 0 1 3.858-1.064 9.914 9.914 0 0 1 2.25.288 11.883 11.883 0 0 1 3.995-.632 8.557 8.557 0 0 1 6.913 3.226c1.099 1.401.373 4.822.014 6.23a30.122 30.122 0 0 1-3.852 8.645c.259.187 1.042.503 3.227.05.74-.15 1.178-.021 1.315.396.273.826-1.193 1.753-2.005 2.127zM13.99 17.42l.065-.18c.086-.23.187-.453.294-.69.518-1.142 1.157-2.565.417-5.986a1.36 1.36 0 0 0-1.049-1.171 3.748 3.748 0 0 0-2.084.295 5 5 0 0 0-1.257.682c0 .072.007.165.014.273a19.394 19.394 0 0 1-.1 3.866 3.773 3.773 0 0 0 .991 3.162 3.167 3.167 0 0 0 2.285 1.013 11.882 11.882 0 0 1 .424-1.264zm-.603-6.655a.968.968 0 0 1-.518-.28.578.578 0 0 1-.194-.395c.029-.223.431-.287.805-.237s.74.223.711.445a.76.76 0 0 1-.711.467.406.406 0 0 1-.093 0zm11.684-.237a8.964 8.964 0 0 0 .136-1.264 7.804 7.804 0 0 0-.92-.058 2.182 2.182 0 0 0-1.839.647c-.934 1.33.891 4.599 1.667 5.993.201.36.345.618.41.776a3.862 3.862 0 0 0 .237.489 5.933 5.933 0 0 0 .259-3.414 11.023 11.023 0 0 1-.115-1.681 11.887 11.887 0 0 1 .165-1.488zm-.891-.258a.898.898 0 0 1-.518.28.41.41 0 0 1-.093.007.769.769 0 0 1-.711-.467c-.03-.223.33-.395.711-.446.374-.05.769.015.805.238a.592.592 0 0 1-.194.388zm-8.71 10.175a.664.664 0 0 1-.057.56 3.537 3.537 0 0 1-4.003 1.28 1.944 1.944 0 0 1-.596-.259 2.743 2.743 0 0 1 .64-.187c1.624-.33 1.868-.568 2.421-1.265.122-.158.266-.337.467-.56.295-.33.424-.273.669-.173a.976.976 0 0 1 .46.604zm-4.836-2.149a4.15 4.15 0 0 0 .317.302 62.012 62.012 0 0 0-2.4 2.724c-.72.862-1.215.697-1.373.64-1.064-.353-2.292-2.595-3.377-6.152A39.87 39.87 0 0 1 2.27 8.768c-.137-2.745.524-4.657 1.976-5.684a5.904 5.904 0 0 1 3.435-.927 14.881 14.881 0 0 1 4.347.761l-.064.065C9.419 5.556 9.469 9.946 9.476 10.24c0 .1.008.251.022.46a18.03 18.03 0 0 1-.093 3.686 4.677 4.677 0 0 0 1.228 3.91zM20.45 1.998a11.905 11.905 0 0 1 2.609-.244 7.56 7.56 0 0 1 6.094 2.882c1.113 1.423-.115 7.897-3.665 13.488-.036-.043-.072-.086-.108-.137-.014-.021-.029-.036-.043-.057a6.277 6.277 0 0 0 .575-4.348 10.81 10.81 0 0 1-.115-1.545 10.805 10.805 0 0 1 .15-1.38 8.938 8.938 0 0 0 .144-1.71.807.807 0 0 0 .015-.237A9.547 9.547 0 0 0 23.92 4.6a9.73 9.73 0 0 0-3.47-2.602zm4.47 16.859c-.51.144-1.416.481-1.337 2.17-.064.855-.539 4.808-.783 6.202-.316 1.847-.999 2.536-2.91 2.946a2.414 2.414 0 0 1-3.148-1.746c-.301-.748-.445-4.118-.337-7.833a.463.463 0 0 0-.022-.144 1.671 1.671 0 0 0-.057-.258 1.822 1.822 0 0 0-.985-1.179 1.412 1.412 0 0 0-.905-.108 11.673 11.673 0 0 1 .388-1.171l.064-.18c.072-.2.173-.41.266-.632.54-1.2 1.28-2.839.475-6.54A2.332 2.332 0 0 0 12.81 8.48a6.286 6.286 0 0 0-2.156.676c-.086.043-.173.086-.244.13a9.408 9.408 0 0 1 2.191-5.663 5.38 5.38 0 0 1 4.082-1.524 8.685 8.685 0 0 1 6.611 3.155 9.751 9.751 0 0 1 1.804 3.097c-1.667-.165-2.803.165-3.378.984-1.257 1.79.683 5.275 1.617 6.942.173.31.316.575.367.683a6.23 6.23 0 0 0 .984 1.588c.08.108.165.216.23.309zm4.506 1.028a.026.026 0 0 0 .021-.008 5.162 5.162 0 0 1-1.272.827 6.549 6.549 0 0 1-2.206.46 2.681 2.681 0 0 1-1.48-.194c-.05-1.05.338-1.157.754-1.28.065-.021.13-.035.187-.057.036.029.08.065.122.094.733.488 2.034.538 3.874.158z"/>
</svg>
