<svg xmlns="http://www.w3.org/2000/svg" viewBox="0 0 16 16">
	<g fill="none">
		<path fill="#4285F4" d="M15.6857685,7.40248062 L12.4237529,1.72930233 C12.1741481,1.28665972 11.7088922,1.00920489 11.2008072,1 L4.67553589,1 C4.16737948,1.00895439 3.7020086,1.28647779 3.45259016,1.72930233 L0.189334344,7.3875969 C-0.0631114481,7.82688311 -0.0631114481,8.36722542 0.189334344,8.80651163 L3.45134985,14.511938 C3.69821173,14.9608733 4.16234454,15.2475435 4.67429558,15.2672868 L11.1995669,15.2672868 C11.7114908,15.2497147 12.176457,14.964234 12.4237529,14.5156589 L15.6857685,8.84248062 C15.9399686,8.39613568 15.9399686,7.84882556 15.6857685,7.40248062 Z"/>
		<path fill="#000" d="M11.0660465,6.17705426 L10.3392248,6.33333333 L8.52837209,4.52248062 L7.94914729,5.60155039 L7.63410853,6.85426357 L8.16620155,7.38635659 L7.14418605,7.59596899 L5.74263566,6.1944186 L4.79131783,7.10976744 L6.54387597,8.85984496 L4.68341085,10.335814 L9.6744186,15.3255814 L11.2,15.3255814 C11.7119239,15.3080093 12.1768901,15.0225285 12.424186,14.5739535 L14.9941085,10.1088372 L11.0660465,6.17705426 Z" opacity=".07"/>
		<path fill="#FFF" d="M10.2772093 6.08527132C10.5928701 5.90332099 10.9962612 6.01164967 11.1783056 6.32725625 11.36035 6.64286282 11.2521415 7.04628622 10.9365892 7.22842463 10.6210369 7.41056304 10.2175813 7.30247477 10.0353488 6.98697674 9.94776818 6.83534882 9.92404785 6.65512717 9.96941171 6.48600142 10.0147756 6.31687567 10.1255032 6.1727164 10.2772093 6.08527132M4.93891473 7.22387597C4.6234167 7.04164354 4.51532844 6.63818792 4.69746685 6.3226356 4.87960526 6.00708329 5.28302865 5.89887481 5.59863523 6.08091919 5.9142418 6.26296357 6.02257048 6.6663547 5.84062016 6.9820155 5.75317508 7.13372166 5.6090158 7.24444925 5.43989005 7.2898131 5.2707643 7.33517695 5.09054265 7.31145663 4.93891473 7.22387597M8.59782946 11.275969C8.59714476 11.6402291 8.3014196 11.9350294 7.93715918 11.9345731 7.57289875 11.9341169 7.27791302 11.6385767 7.27814083 11.274316 7.27836863 10.9100554 7.57372379 10.6148844 7.9379845 10.6148837 8.30240681 10.6148837 8.59782946 10.9103064 8.59782946 11.2747287M7.9379845 6.8220155C8.04066917 6.82213551 8.14301571 6.83378471 8.24310078 6.85674419L8.24310078 5.11162791 7.63286822 5.11162791 7.63286822 6.85674419C7.73295328 6.83378471 7.83529982 6.82213551 7.9379845 6.8220155zM9.24899225 8.59813953C9.18794379 8.79470988 9.08321012 8.97491962 8.94263566 9.12527132L10.4545736 9.99348837 10.7596899 9.46511628 9.24899225 8.59813953zM6.62697674 8.59813953L5.11627907 9.46635659 5.42139535 9.99472868 6.93333333 9.12651163C6.79259809 8.97580165 6.68785498 8.79515159 6.62697674 8.59813953zM9.00465116 8.19379845C9.00465116 8.62522484 8.74476617 9.01417022 8.34618016 9.17926995 7.94759414 9.34436968 7.48880179 9.25311021 7.18373726 8.94804568 6.87867273 8.64298115 6.78741326 8.1841888 6.95251299 7.78560279 7.11761273 7.38701677 7.5065581 7.12713178 7.9379845 7.12713178 8.52708823 7.12713178 9.00465116 7.60469472 9.00465116 8.19379845"/>
		<path fill="#FFF" d="M4.8496124 9.00868217C5.14322473 8.83882217 5.51025705 8.86260723 5.77949058 9.06894173 6.04872411 9.27527623 6.16711018 9.62350486 6.07942228 9.9511807 5.99173438 10.2788565 5.71525018 10.5214157 5.37894818 10.5657054 5.04264617 10.6099952 4.71278996 10.447289 4.54325581 10.1534884 4.3119998 9.75272452 4.44910537 9.24038267 4.8496124 9.00868217M10.187907 10.459845C9.89410637 10.2903108 9.73140013 9.9604546 9.77568991 9.6241526 9.81997969 9.2878506 10.0625388 9.01136639 10.3902147 8.92367849 10.7178905 8.83599059 11.0661191 8.95437667 11.2724536 9.2236102 11.4787881 9.49284373 11.5025732 9.85987604 11.3327132 10.1534884 11.2216746 10.3460821 11.0385955 10.4866051 10.8238417 10.5440744 10.6090879 10.6015437 10.3802947 10.5712401 10.187907 10.459845M8.77953483 5.11162791C8.77953483 5.57469084 8.40345403 5.95007752 7.93953486 5.95007752 7.47561568 5.95007752 7.09953488 5.57469084 7.09953488 5.11162791 7.09953488 4.64856497 7.47561568 4.27317829 7.93953486 4.27317829 8.40345403 4.27317829 8.77953483 4.64856497 8.77953483 5.11162791"/>
	</g>
</svg>
