<svg xmlns="http://www.w3.org/2000/svg" viewBox="0 0 16 16">
  <g>
    <path fill="#188FFF" d="M16,5.60131148 L12.0891803,5.60131148 C11.0321311,3.57377049 9.9147541,2 8.39344262,2 C6.41311475,2 5.48196721,3.72852459 4.58229508,5.40983607 L4.50360656,5.55672131 L0,5.55672131 L0,6.55606557 L2.62295082,6.55606557 C3.54885246,6.55606557 3.73770492,6.86819672 3.73770492,6.86819672 C3.01114754,7.99606557 2.13770492,9.11081967 0.681967213,9.11081967 L0,9.11081967 L0,10.16 L0.687213115,10.16 C3.5095082,10.16 4.74229508,7.87016393 5.73114754,6.03147541 C6.63868852,4.33704918 7.27081967,3.31147541 8.39344262,3.31147541 C9.55803279,3.31147541 10.7829508,5.8452459 11.8609836,8.08262295 C12.0183607,8.40786885 12.1783607,8.74098361 12.3409836,9.07147541 C8.20721311,9.20262295 6.23737705,10.1704918 4.6347541,10.96 C3.46229508,11.5370492 2.53639344,12.2531148 1.01245902,12.2531148 L0,12.2531148 L0,13.3022951 L1.00459016,13.3022951 C2.84065574,13.3022951 3.9842623,12.7357377 5.20131148,12.135082 C6.88786885,11.3062295 8.8,10.3672131 13.3062295,10.3672131 L15.9108197,10.3672131 L15.9108197,9.31803279 L14.4393443,9.31803279 C14.1942766,9.33657313 13.9546204,9.23954634 13.7914754,9.0557377 C13.5344262,8.55737705 13.282623,8.03278689 13.0360656,7.50819672 L12.695082,6.8104918 C12.695082,6.8104918 12.9390164,6.54819672 13.6157377,6.54819672 L16,6.54819672 L16,5.60131148 Z"/>
  </g>
</svg>
