<svg xmlns="http://www.w3.org/2000/svg" viewBox="0 0 32 32">
	<path d="M15.889 0C8.172 0 8.654 3.542 8.654 3.542l.009 3.668h7.363v1.102H5.738S.8 7.719.8 15.959s4.31 7.947 4.31 7.947h2.572v-3.824s-.138-4.56 4.241-4.56h7.304a3.991 3.991 0 0 0 4.103-4.197V4.27S23.953 0 15.89 0zm-4.06 2.467a1.364 1.364 0 0 1 1.324 1.402 1.327 1.327 0 1 1-2.65 0 1.364 1.364 0 0 1 1.326-1.402zM16.11 32c7.717 0 7.235-3.542 7.235-3.542l-.009-3.668h-7.363v-1.102h10.288s4.938.593 4.938-7.647-4.31-7.947-4.31-7.947h-2.572v3.824s.138 4.56-4.241 4.56h-7.304a3.991 3.991 0 0 0-4.103 4.197v7.055S8.047 32 16.11 32zm4.06-2.467a1.404 1.404 0 1 1 1.325-1.402 1.364 1.364 0 0 1-1.325 1.402z"/>
</svg>
