<svg xmlns="http://www.w3.org/2000/svg" viewBox="0 0 16 16">
<g>
  <path fill="#F60" d="M14.3794189,6.39875 L9.39487417,6.39875 C9.14576881,6.39875 8.94382901,6.19503956 8.94382901,5.94375 L8.94382901,0.703 C8.94382901,0.313 8.63330177,0 8.24693946,0 L6.46630238,0 C6.07969224,0 5.76941282,0.31325 5.76941282,0.703 L5.76941282,5.9085 C5.76941282,6.18025 5.55281202,6.399 5.28317623,6.399 L3.64900492,6.405 C3.37961695,6.405 3.1570683,6.1865 3.16276832,5.9145 L3.17441619,0.70325 C3.17441619,0.31325 2.86388894,0.00025 2.47752663,0.00025 L0.696889556,0.00025 C0.310279418,0.00025 0,0.3135 0,0.70325 L0,15.37375 C0,15.71625 0.275087983,16 0.620806663,16 L14.379171,16 C14.718694,16 14.999989,15.7225 14.999989,15.37375 L14.999989,7.02475 C15.0009744,6.85835198 14.9358883,6.69847798 14.8192477,6.58081466 C14.7026071,6.46315135 14.5441227,6.39749455 14.379171,6.3985 L14.3794189,6.39875 Z M12.0424101,11.9055 C12.0411841,12.3553344 11.6799232,12.7196512 11.2339984,12.72075 L9.82832362,12.72075 C9.38249558,12.7195139 9.0213851,12.3552371 9.02015973,11.9055 L9.02015973,10.4875 C9.0213851,10.0377629 9.38249558,9.67348611 9.82832362,9.67225 L11.2339984,9.67225 C11.6799232,9.67334882 12.0411841,10.0376656 12.0424101,10.4875 L12.0424101,11.9055 Z"/>
</g>
</svg>
