<svg viewBox="0 0 40 40" fill="none" xmlns="http://www.w3.org/2000/svg">
  <path d="M20.8244 0C25.0933 1.18729 28.9827 4.17928 30.5954 7.83611C33.0619 13.7726 32.4927 21.2763 29.7891 25.7405C27.5123 29.3973 24.0023 31.3445 19.9706 31.297C13.7096 31.2495 8.63433 26.2629 8.5869 19.994C8.5869 13.7251 13.5198 8.5485 19.9706 8.5485C21.0141 8.5485 22.5187 8.69322 24.2263 9.4056C24.2263 9.4056 22.9987 8.67848 19.8459 8.19006C10.7864 7.00278 0.0965257 13.8676 2.563 29.6823C5.9781 35.7613 12.5237 39.893 19.9706 39.8457C30.9274 39.7981 39.8922 30.8221 39.8446 19.804C39.8446 9.26088 31.2595 0.28495 20.8244 0Z" fill="url(#paint0_linear_1322_23858)"/>
  <path d="M28.2712 8.40598C26.7534 5.22404 23.6229 2.70697 19.7808 1.70965C18.927 1.47219 18.0258 1.37721 17.0298 1.32971C15.5594 1.32971 14.1364 1.51969 12.666 1.89962C9.01371 2.99193 6.45238 5.12906 4.93455 6.79127C2.98985 9.02335 1.70918 11.3505 0.950262 13.6776C0.950262 13.725 0.90283 13.7725 0.90283 13.8675C0.855397 14.0575 0.665668 14.6274 0.665668 14.7699C0.618236 14.8648 0.618236 15.0073 0.570803 15.1023C0.523371 15.2923 0.475942 15.4822 0.42851 15.6722C0.42851 15.7197 0.42851 15.7672 0.381077 15.8147C-0.852161 21.9411 1.19654 27.439 2.42978 29.4811C2.73824 29.9919 2.99154 30.4181 3.24539 30.809C0.446895 15.6117 8.49196 8.35847 17.6464 8.16853C22.437 8.07352 27.2277 10.0207 29.5518 13.915C29.4096 11.7779 29.2673 10.5906 28.2712 8.40598Z" fill="url(#paint1_linear_1322_23858)"/>
  <defs>
    <linearGradient id="paint0_linear_1322_23858" x1="32.9686" y1="6.84046e-07" x2="3.88153" y2="25.6069" gradientUnits="userSpaceOnUse">
      <stop stop-color="#FF00FF"/>
      <stop offset="0.403975" stop-color="#AA00FF"/>
      <stop offset="1" stop-color="#1E0A78"/>
    </linearGradient>
    <linearGradient id="paint1_linear_1322_23858" x1="14.7759" y1="-5.16126" x2="32.4544" y2="12.782" gradientUnits="userSpaceOnUse">
      <stop offset="0.0354358" stop-color="#FF00FF"/>
      <stop offset="0.512854" stop-color="#8800CC"/>
      <stop offset="1" stop-color="#311B92"/>
    </linearGradient>
  </defs>
</svg>
