<svg xmlns="http://www.w3.org/2000/svg" viewBox="0 0 16 16">
  <g>
    <path fill="#31BEF0" d="M6.82260664,5.62698723 C7.02436561,5.42381775 7.12544539,5.18647275 7.12544539,4.88138216 L7.12544539,0.982950078 C7.12544539,0.440649032 6.68801163,0 6.14976515,0 C5.6114519,0 5.17415167,0.440649032 5.17415167,0.982950078 L5.17415167,3.22043804 L3.29028898,2.10166042 C2.81934,1.79670438 2.21372925,1.93219555 1.94473954,2.40675101 C1.64196754,2.88144102 1.77642902,3.49155493 2.247378,3.76273909 C2.28102675,3.76273909 2.28102675,3.79657824 2.31480903,3.79657824 L5.67888293,5.76268022 C6.01523691,5.99995795 6.51983464,5.93227964 6.82260664,5.62698723 L6.82260664,5.62698723 Z M5.37604418,7.99996636 C5.37604418,7.62706291 5.20773366,7.2880659 4.87131292,7.11846647 L1.50737254,5.15236449 C1.03629003,4.84740845 0.430812811,4.98289962 0.161689569,5.45745508 C-0.141149186,5.93221237 -0.00648742053,6.542259 0.464461562,6.81344316 C0.498110312,6.81344316 0.498110312,6.84734959 0.531692299,6.84734959 L2.44920374,7.96599266 L0.531692299,9.08477028 C0.0607433173,9.35581989 -0.141149186,9.93222919 0.128040819,10.4407584 C0.397230824,10.9492202 0.969059294,11.1185506 1.47359026,10.8473664 C1.50737254,10.8473664 1.50737254,10.8473664 1.540821,10.8473664 L4.90509519,8.88139898 C5.20773366,8.71186683 5.37604418,8.37286981 5.37604418,7.99996636 L5.37604418,7.99996636 Z M7.12544539,11.0847787 L7.12544539,15.0170499 C7.12544539,15.5594182 6.68801163,16 6.14976515,16 C5.6114519,16 5.17415167,15.559351 5.17415167,15.0170499 L5.17415167,12.8136029 L3.25664023,13.9323133 C2.78569125,14.2372693 2.1800805,14.1017782 1.91109079,13.6272227 C1.60825203,13.1526 1.74278027,12.5424188 2.21372925,12.2712346 C2.24731124,12.2712346 2.24731124,12.2373282 2.28095999,12.2373282 L5.64523418,10.2712262 C6.11618316,9.99997477 6.7553759,10.1695069 7.02443238,10.6779688 C7.09166311,10.7795535 7.15889385,10.9492202 7.12544539,11.0847787 L7.12544539,11.0847787 L7.12544539,11.0847787 Z M8.87464632,11.186498 L8.87464632,15.0169826 C8.87464632,15.559351 9.31194655,15.9999327 9.8502598,15.9999327 C10.3884395,15.9999327 10.8257397,15.5592837 10.8257397,15.0169826 L10.8257397,12.8135357 L12.7096024,13.8983396 C13.1805514,14.2032956 13.7861622,14.0678044 14.0552854,13.593249 C14.3581242,13.1184917 14.2234624,12.5084451 13.7525134,12.2372609 C13.7188647,12.2372609 13.7188647,12.2033545 13.6852827,12.2033545 L10.321142,10.2372525 C9.85019303,9.96600107 9.24458228,10.1355332 8.97545904,10.610156 C8.90829507,10.7795535 8.84099757,11.0169658 8.87464632,11.186498 L8.87464632,11.186498 L8.87464632,11.186498 Z M10.6240475,7.99996636 C10.6240475,7.62706291 10.7921578,7.2880659 11.1285785,7.11846647 L14.4927192,5.15236449 C14.9636682,4.84740845 15.5692789,4.98289962 15.8384021,5.45745508 C16.1410406,5.93221237 16.0065791,6.542259 15.5355634,6.81344316 C15.5019814,6.81344316 15.5019814,6.84734959 15.4683326,6.84734959 L13.5506877,7.96599266 L15.4683326,9.084703 C15.9392816,9.35575261 16.1410406,9.93216191 15.8719841,10.4406911 C15.6028609,10.9152465 15.0308321,11.1184833 14.5263012,10.8472991 C14.4927192,10.8472991 14.4927192,10.8133927 14.4590704,10.8133927 L11.0949965,8.84729072 C10.7921578,8.71186683 10.5903988,8.37286981 10.6240475,7.99996636 L10.6240475,7.99996636 Z M8.87464632,4.8135693 L8.87464632,0.982950078 C8.87464632,0.440649032 9.31194655,0 9.8502598,0 C10.3884395,0 10.8257397,0.440649032 10.8257397,0.982950078 L10.8257397,3.18639706 L12.7096024,2.10159315 C13.1805514,1.79663711 13.7861622,1.93212828 14.0552854,2.40668374 C14.3581242,2.88137375 14.2234624,3.49148765 13.7525134,3.76267181 C13.7188647,3.76267181 13.7188647,3.79651097 13.6852827,3.79651097 L10.321142,5.76261295 C9.85019303,6.03386438 9.24458228,5.86433224 8.97545904,5.38977677 C8.90829507,5.22037918 8.84099757,5.01687333 8.87464632,4.8135693 L8.87464632,4.8135693 L8.87464632,4.8135693 Z M8.40369734,6.23723568 C8.3364666,6.16955737 8.26903557,6.1355164 8.16815608,6.1355164 L7.83173534,6.1355164 C7.73085585,6.1355164 7.66355835,6.16955737 7.59632761,6.23723568 L6.25064464,7.59322376 C6.1834139,7.66096934 6.14976515,7.7287822 6.14976515,7.83036694 L6.14976515,8.16949851 C6.14976515,8.2712178 6.1834139,8.33896338 6.25064464,8.40670897 L7.59632761,9.76269704 C7.66355835,9.83044263 7.73085585,9.86434905 7.83173534,9.86434905 L8.16815608,9.86434905 C8.26903557,9.86434905 8.3364666,9.83044263 8.40369734,9.76269704 L9.74924678,8.40670897 C9.78289553,8.33889611 9.81661105,8.23724409 9.81661105,8.16949851 L9.81661105,7.83036694 C9.81661105,7.72871493 9.78289553,7.66090207 9.71559803,7.59322376 L8.40369734,6.23723568 L8.40369734,6.23723568 L8.40369734,6.23723568 Z M8.20180483,7.42382616 C8.16815608,7.38978518 8.10092534,7.35587875 8.03362784,7.35587875 L8.03362784,7.35587875 C7.96619681,7.35587875 7.89896608,7.38978518 7.86545085,7.42382616 L7.46166585,7.83043422 C7.42801709,7.86434065 7.39436834,7.93228805 7.39436834,8.00003364 L7.39436834,8.00003364 C7.39436834,8.0678465 7.42801709,8.13572663 7.46166585,8.16963306 L7.86545085,8.57630839 C7.89889931,8.61014754 7.96619681,8.64418852 8.03362784,8.64418852 L8.03362784,8.64418852 C8.10085858,8.64418852 8.16815608,8.61014754 8.20180483,8.57630839 L8.60545631,8.16963306 C8.6390383,8.13572663 8.67282058,8.0678465 8.67282058,8.00003364 L8.67282058,8.00003364 C8.67282058,7.93228805 8.6390383,7.86434065 8.60545631,7.83043422 L8.20180483,7.42382616 L8.20180483,7.42382616 Z"/>
  </g>
</svg>
