<svg xmlns="http://www.w3.org/2000/svg" viewBox="0 0 32 32">
	<path d="M18.626 24.131c1.764.481 3.688.802 5.453 1.283 0-.481-2.887-5.292-3.048-6.896.321-.642 4.972-5.934 4.972-6.094-.32 0-5.934 1.764-7.858 1.764 0-.321-2.887-5.774-3.85-5.934-.48 2.566-.801 4.971-1.282 7.537-2.566.802-5.132 1.765-7.538 2.566.32.321 3.849 1.604 5.613 2.406l-4.49 2.566S.824 19.961.343 19.48a1.904 1.904 0 0 1 .16-2.405 81.933 81.933 0 0 1 9.783-3.69c.16-.961 1.444-8.018 2.406-9.622a2.136 2.136 0 0 1 2.245-1.122c1.604.641 4.811 7.056 5.293 7.698.32 0 8.98-2.566 11.066-1.764.641.32 1.122.962.16 1.924-.481.32-6.255 7.377-6.575 8.019-.16.962 3.688 8.98 3.688 9.622a1.175 1.175 0 0 1-1.283 1.283c-.802 0-8.179-1.924-8.179-1.924 0-.32-.481-2.887-.481-3.368z"/>
</svg>
