<svg xmlns="http://www.w3.org/2000/svg" viewBox="0 0 16 16">
<g>
  <path fill="#E25A1C" d="M7.99785075,0.357492537 C8.16358209,0.523223881 8.30829851,0.71880597 8.42937313,0.919402985 L10.0298507,3.57874627 C10.0924179,3.6838209 10.1492537,3.70531343 10.2648358,3.67426866 L14.1850746,2.63283582 C14.4544478,2.56167164 14.7271642,2.53564179 15.0034627,2.58507463 C15.6052537,2.69779104 15.8686567,3.15820896 15.6649552,3.73755224 C15.5722985,4.00023881 15.4122985,4.22638806 15.2351045,4.43773134 L12.4991045,7.65373134 C12.4243582,7.74113433 12.4226866,7.8041791 12.4745075,7.90208955 L14.1036418,10.990806 C14.2335522,11.2372537 14.3328955,11.4930149 14.3352836,11.776 C14.3417313,12.4198209 13.8710448,12.9466269 13.2312836,13.0402388 C12.8730746,13.0927761 12.5401791,13.0163582 12.2044179,12.9127164 L9.74471642,12.1645373 C9.70161517,12.1516612 9.67359166,12.1364772 9.65496992,12.110777 L9.1398209,11.9276418 L6.93134328,14.3118806 C6.93134328,14.3118806 6.84590198,14.400338 6.71165686,14.5208322 C5.69678772,15.5392798 5.10816212,15.8133147 4.7860116,15.8593248 C4.69797754,15.8422513 4.5935189,15.8217745 4.52373095,15.8081232 L4.51526735,15.8057679 L4.46579953,15.7883242 C3.67196849,15.3422721 4.06779222,10.6767363 4.09330642,10.3855759 L4.09456716,10.3713433 L3.633742,10.0389843 C3.61373249,10.0353351 3.5941092,10.0284905 3.57564179,10.0183881 L1.39152239,9.04501493 C1.06483582,8.90173134 0.770626866,8.70519403 0.541850746,8.42531343 C0.024358209,7.79247761 0.126328358,7.072 0.816,6.63426866 C1.04167164,6.49026866 1.29791045,6.38232836 1.55343284,6.29898507 L5.06053731,5.18495522 C5.1560597,5.15438806 5.2038209,5.11044776 5.22220896,5.0041791 L5.6998209,2.29850746 C5.78674627,1.81659701 5.83307463,1.31940299 6.06758209,0.880477612 C6.15761194,0.713313433 6.26579104,0.544238806 6.39402985,0.401910448 C6.85850746,-0.113910448 7.50686567,-0.133492537 7.99785075,0.357492537 Z M7.30268657,2.45086567 L7.16370149,3.21671642 L6.68298507,5.92238806 L6.63331343,6.21468657 C6.62519403,6.31020896 6.57743284,6.34220896 6.49337313,6.36871642 L2.92298507,7.49707463 C2.87044776,7.51379104 2.8198209,7.53480597 2.76370149,7.58591045 L5.70101493,8.75223881 L5.69926735,8.75276791 L6.21922388,8.97910448 L5.64059701,13.5880597 L8.80334328,10.0823881 L9.33659701,10.2321194 L9.33726735,10.2337679 L12.1566567,11.0113433 L12.158806,11.0089552 L12.0864478,10.8551642 L10.5055522,7.85814925 C10.4520597,7.75785075 10.4587463,7.69814925 10.5294328,7.61289552 L13.0304478,4.67558209 C13.0595821,4.64119403 13.0860896,4.60441791 13.0973134,4.54328358 L12.3670448,4.73432836 L9.33420896,5.54029851 C9.2401194,5.56561194 9.19737313,5.53791045 9.15032836,5.4600597 L7.4280597,2.59056716 C7.39820896,2.54089552 7.36597015,2.49504478 7.30268657,2.45086567 Z"/>
</g>
</svg>
