<svg xmlns="http://www.w3.org/2000/svg" viewBox="0 0 16 16">
  <g>
    <polygon fill="#E8762D" fill-rule="nonzero" points="7.475 10.544 8.341 10.544 8.341 8.184 10.518 8.184 10.518 7.344 8.341 7.344 8.341 4.984 7.475 4.984 7.475 7.344 5.325 7.344 5.325 8.184 7.475 8.184"/>
    <polygon fill="#C72037" fill-rule="nonzero" points="3.462 13.954 4.197 13.954 4.197 11.856 6.138 11.856 6.138 11.2 4.197 11.2 4.197 9.075 3.462 9.075 3.462 11.2 1.521 11.2 1.521 11.856 3.462 11.856"/>
    <polygon fill="#5B879B" fill-rule="nonzero" points="11.62 6.374 12.354 6.374 12.354 4.275 14.321 4.275 14.321 3.646 12.354 3.646 12.354 1.521 11.62 1.521 11.62 3.646 9.679 3.646 9.679 4.275 11.62 4.275"/>
    <polygon fill="#5C6692" fill-rule="nonzero" points="7.607 15.607 8.236 15.607 8.236 14.111 9.574 14.111 9.574 13.561 8.236 13.561 8.236 12.066 7.607 12.066 7.607 13.561 6.295 13.561 6.295 14.111 7.607 14.111"/>
    <polygon fill="#EB9129" fill-rule="nonzero" points="3.489 6.374 4.17 6.374 4.17 4.249 6.138 4.249 6.138 3.646 4.17 3.646 4.17 1.521 3.489 1.521 3.489 3.646 1.521 3.646 1.521 4.249 3.489 4.249"/>
    <polygon fill="#5C6692" fill-rule="nonzero" points="13.849 9.521 14.479 9.521 14.479 8.052 15.816 8.052 15.816 7.475 14.479 7.475 14.479 6.007 13.849 6.007 13.849 7.475 12.538 7.475 12.538 8.052 13.849 8.052"/>
    <polygon fill="#1F457E" points="11.62 13.954 12.354 13.954 12.354 11.856 14.321 11.856 14.321 11.2 12.354 11.2 12.354 9.075 11.62 9.075 11.62 11.2 9.679 11.2 9.679 11.856 11.62 11.856"/>
    <path fill="#7199A6" fill-rule="nonzero" d="M9.46885246,1.88852459 L9.46885246,1.44262295 L8.15737705,1.44262295 L8.15737705,0 L7.6852459,0 L7.6852459,1.44262295 L6.37377049,1.44262295 L6.37377049,1.88852459 L7.6852459,1.88852459 L7.6852459,3.33114754 L8.15737705,3.33114754 L8.15737705,1.88852459 L9.46885246,1.88852459 Z M1.31147541,9.41639344 L1.78360656,9.41639344 L1.78360656,7.97377049 L3.09508197,7.97377049 L3.09508197,7.52786885 L1.78360656,7.52786885 L1.78360656,6.11147541 L1.31147541,6.11147541 L1.31147541,7.52786885 L0,7.52786885 L0,8 L1.31147541,7.97377049 L1.31147541,9.41639344 Z"/>
  </g>
</svg>
