<svg xmlns="http://www.w3.org/2000/svg" viewBox="0 0 16 16">
<g>
  <path d="M13.8492359,12.0353218 C14.9716194,12.0373286 15.879286,12.9259975 15.8777469,14.0206692 C15.8762741,15.0646262 15.0477762,15.9190555 13.9976188,15.994574 L13.8461538,16 L13.8461538,16 C12.7232567,15.9989976 11.8140491,15.1103286 11.8145625,14.0146545 C11.8161038,12.9194816 12.7273661,12.03382 13.8492359,12.0353218 Z M10.7759086,5.01223298 L10.7759086,15.9318838 L9.75985617,15.9318838 L9.75985617,5.01223298 L10.7759086,5.01223298 Z M8.721202,5.01223298 L8.721202,15.9318838 L7.70514961,15.9318838 L7.70514961,5.01223298 L8.721202,5.01223298 Z M6.66649544,5.01223298 L6.66649544,15.9318838 L5.65044305,15.9318838 L5.65044305,5.01223298 L6.66649544,5.01223298 Z M16,4.00978638 L16,5.00270974 L3.55271368e-14,5.00270974 L3.55271368e-14,4.00978638 L16,4.00978638 Z M16,2.00489319 L16,2.99731532 L3.55271368e-14,2.99731532 L3.55271368e-14,2.00489319 L16,2.00489319 Z M16,4.4408921e-15 L16,0.99242213 L3.55271368e-14,0.99242213 L3.55271368e-14,4.4408921e-15 L16,4.4408921e-15 Z"/>
</g>
</svg>
