<svg xmlns="http://www.w3.org/2000/svg" viewBox="0 0 16 16">
  <g>
    <path fill="#F49813" fill-rule="nonzero" d="M10.5296371,5.54140998 C11.8696258,5.04224133 13.069012,4.12838182 13.9473115,2.94073321 C14.3301856,2.42437988 14.6527342,1.85495307 14.9060019,1.24983229 C14.9879607,1.06633918 15.0248105,0.886599823 14.9820218,0.687011345 C14.929218,0.344882867 14.6306317,0.0468580056 14.2644243,0.00834134535 C13.9265482,-0.0445701713 13.5771237,0.159017983 13.4261056,0.483453864 L13.3968579,0.554776112 C12.9591465,1.64695898 12.2015353,2.61239262 11.2555176,3.27959993 C10.6722533,3.6932 10.0199605,3.99328521 9.34020088,4.16100905 C8.46273591,4.37881079 7.53857939,4.37898099 6.66071143,4.16178845 C5.40778528,3.85561533 4.25542027,3.09085152 3.4416446,2.02504892 C3.14515222,1.63917372 2.89266855,1.21521365 2.69060036,0.764778038 L2.59379722,0.537407686 C2.49522904,0.274616272 2.25856904,0.0657424787 1.9723592,0.0158510186 C1.70436339,-0.0392328082 1.40929556,0.0611776915 1.21886817,0.277014936 C1.01016928,0.498581815 0.941928348,0.849698173 1.05241848,1.14874621 C1.72375448,2.83343147 2.960422,4.24708512 4.4938751,5.09213076 C5.42121798,5.6071926 6.45484813,5.91215803 7.50663039,5.98347073 L7.73225802,5.99516713 C8.68665754,6.03001042 9.64051894,5.87621253 10.5296371,5.54140998 Z" transform="matrix(1 0 0 -1 0 6)"/>
    <path fill="#3069B5" fill-rule="nonzero" d="M1,15.8049614 C1.0870695,15.9006492 1.18880718,16.0041451 1.33392382,15.9942701 C1.75897405,15.9981742 2.1852698,16.0071305 2.61000766,15.9882992 C2.82566015,15.9823283 2.97420336,15.8007512 3.00572874,15.6085336 C3.42359589,13.9803107 3.83398514,12.3497147 4.24998281,10.7209635 C4.37200187,10.2180057 4.52055307,9.72012315 4.60013349,9.20849983 C4.68220655,8.74889238 4.69844061,8.28241837 4.77645515,7.82192294 C4.88381403,8.47917537 4.9799321,9.1406151 5.16499394,9.78262639 C5.70894665,11.726596 6.25258778,13.6702058 6.79716364,15.6135859 C6.83961026,15.8351988 7.05712424,15.9927391 7.28837165,15.9927391 C7.76148411,16.0041451 8.23553132,15.996337 8.70864378,15.996337 C8.96236482,16.0077429 9.23390975,15.8656658 9.29502714,15.6165714 C9.70135788,14.1994739 10.1027353,12.7797737 10.5074682,11.3614515 C10.7530562,10.4428719 11.0747813,9.53981679 11.2137135,8.59729234 C11.2520617,8.33774121 11.2895311,8.07758532 11.3453756,7.81982546 C11.4979693,9.30059739 11.8955918,10.7412953 12.2226697,12.1912557 C12.4926248,13.3448674 12.7565879,14.4997038 13.0296588,15.653392 C13.0699244,15.8851095 13.3258185,16.0016955 13.5511938,15.9951887 C13.9337966,15.9972556 14.3170386,16.0077429 14.6990023,15.9891412 C14.9258956,15.9828641 15.0562793,15.7424965 14.9763873,15.5486713 C14.208705,12.8344306 13.443819,10.1184292 12.6758171,7.40418079 C12.6345929,7.18649496 12.4367004,7.01664536 12.2048538,7.01306281 C11.6118953,6.99452235 11.0177384,7.00857697 10.42478,7.00558386 C10.2122673,6.99302197 9.98753104,7.10216726 9.95006169,7.31656908 C9.4192592,9.1830775 8.89901045,11.0528776 8.37316128,12.9208558 C8.1827946,13.5706905 8.10570681,14.2443323 8.0258148,14.9126922 C7.92813884,14.3175909 7.87976423,13.7126911 7.71436381,13.1280772 C7.17602751,11.2047532 6.63456743,9.2805642 6.09498482,7.35694166 C6.03413108,7.04535169 5.6624495,6.98315465 5.38594327,7.00349404 C4.83450468,7.01306281 4.28306609,6.99123069 3.73224267,7.01306281 C3.53594801,7.01246572 3.38459261,7.15898282 3.34932828,7.33660227 C2.57537448,10.0400801 1.8039133,12.7447903 1.02933539,15.4476251 C1.00249663,15.565742 1.00592949,15.6862321 1,15.8049614 L1,15.8049614" transform="matrix(1 0 0 -1 0 23)"/>
  </g>
</svg>
